<svg xmlns="http://www.w3.org/2000/svg" viewBox="0 0 153.18 139.45" preserveAspectRatio="xMidYMid meet" shape-rendering="geometricPrecision" text-rendering="optimizeLegibility">
  <path d="M17.57,8.14 C79.62,8.11 132.22,56.92 133.74,123.86" fill="currentColor" stroke="currentColor" stroke-width="1.22400004863739" stroke-linecap="round" stroke-linejoin="round" />
  <line x1="133.74" y1="123.86" x2="17.57" y2="8.14" fill="currentColor" stroke="currentColor" stroke-width="1.22400004863739" stroke-linecap="round" stroke-linejoin="round" />
  <rect x="17.55" y="8.00" width="116.23" height="116.23" fill="none" stroke="currentColor" stroke-width="1.224999976158142" stroke-linecap="round" stroke-linejoin="round" />
  <line x1="10.99" y1="123.56" x2="8.00" y2="123.56" fill="currentColor" stroke="currentColor" stroke-width="1.2" stroke-linecap="round" stroke-linejoin="round" />
  <path d="M143.27,123.62 C143.00,123.58 142.73,123.56 142.47,123.56" fill="currentColor" stroke="currentColor" stroke-width="1.2" stroke-linecap="round" stroke-linejoin="round" />
  <path d="M12.50,123.78 C12.06,123.63 11.56,123.56 10.99,123.56" fill="currentColor" stroke="currentColor" stroke-width="1.2" stroke-linecap="round" stroke-linejoin="round" />
  <path d="M142.47,123.56 C141.85,123.56 141.29,123.66 140.78,123.86" fill="currentColor" stroke="currentColor" stroke-width="1.2" stroke-linecap="round" stroke-linejoin="round" />
  <path d="M144.13,123.83 C143.83,123.74 143.54,123.67 143.27,123.62" fill="currentColor" stroke="currentColor" stroke-width="1.2" stroke-linecap="round" stroke-linejoin="round" />
  <path d="M145.11,124.19 C144.76,124.04 144.43,123.92 144.13,123.83" fill="currentColor" stroke="currentColor" stroke-width="1.2" stroke-linecap="round" stroke-linejoin="round" />
  <path d="M13.66,124.39 C13.33,124.13 12.95,123.93 12.50,123.78" fill="currentColor" stroke="currentColor" stroke-width="1.2" stroke-linecap="round" stroke-linejoin="round" />
  <path d="M140.78,123.86 C140.26,124.06 139.82,124.34 139.44,124.71" fill="currentColor" stroke="currentColor" stroke-width="1.2" stroke-linecap="round" stroke-linejoin="round" />
  <line x1="9.10" y1="124.55" x2="10.81" y2="124.55" fill="currentColor" stroke="currentColor" stroke-width="1.2" stroke-linecap="round" stroke-linejoin="round" />
  <path d="M10.81,124.55 C11.35,124.55 11.81,124.63 12.21,124.78" fill="currentColor" stroke="currentColor" stroke-width="1.2" stroke-linecap="round" stroke-linejoin="round" />
  <path d="M142.46,124.57 C142.90,124.57 143.33,124.64 143.76,124.77" fill="currentColor" stroke="currentColor" stroke-width="1.2" stroke-linecap="round" stroke-linejoin="round" />
  <path d="M141.23,124.79 C141.61,124.65 142.01,124.57 142.46,124.57" fill="currentColor" stroke="currentColor" stroke-width="1.2" stroke-linecap="round" stroke-linejoin="round" />
  <line x1="145.11" y1="125.37" x2="145.11" y2="124.19" fill="currentColor" stroke="currentColor" stroke-width="1.2" stroke-linecap="round" stroke-linejoin="round" />
  <path d="M14.46,125.26 C14.25,124.94 13.98,124.64 13.66,124.39" fill="currentColor" stroke="currentColor" stroke-width="1.2" stroke-linecap="round" stroke-linejoin="round" />
  <path d="M143.76,124.77 C144.19,124.89 144.64,125.10 145.11,125.37" fill="currentColor" stroke="currentColor" stroke-width="1.2" stroke-linecap="round" stroke-linejoin="round" />
  <path d="M12.21,124.78 C12.60,124.93 12.93,125.13 13.18,125.39" fill="currentColor" stroke="currentColor" stroke-width="1.2" stroke-linecap="round" stroke-linejoin="round" />
  <path d="M140.26,125.41 C140.54,125.14 140.86,124.94 141.23,124.79" fill="currentColor" stroke="currentColor" stroke-width="1.2" stroke-linecap="round" stroke-linejoin="round" />
  <path d="M139.44,124.71 C139.06,125.07 138.77,125.50 138.56,125.99" fill="currentColor" stroke="currentColor" stroke-width="1.2" stroke-linecap="round" stroke-linejoin="round" />
  <path d="M14.93,126.30 C14.83,125.94 14.67,125.59 14.46,125.26" fill="currentColor" stroke="currentColor" stroke-width="1.2" stroke-linecap="round" stroke-linejoin="round" />
  <path d="M13.18,125.39 C13.44,125.66 13.63,125.96 13.76,126.30" fill="currentColor" stroke="currentColor" stroke-width="1.2" stroke-linecap="round" stroke-linejoin="round" />
  <path d="M139.62,126.34 C139.77,125.98 139.99,125.67 140.26,125.41" fill="currentColor" stroke="currentColor" stroke-width="1.2" stroke-linecap="round" stroke-linejoin="round" />
  <path d="M138.56,125.99 C138.36,126.49 138.25,127.03 138.25,127.61" fill="currentColor" stroke="currentColor" stroke-width="1.2" stroke-linecap="round" stroke-linejoin="round" />
  <path d="M13.76,126.30 C13.88,126.65 13.94,127.01 13.94,127.40" fill="currentColor" stroke="currentColor" stroke-width="1.2" stroke-linecap="round" stroke-linejoin="round" />
  <path d="M15.08,127.40 C15.08,127.03 15.03,126.67 14.93,126.30" fill="currentColor" stroke="currentColor" stroke-width="1.2" stroke-linecap="round" stroke-linejoin="round" />
  <path d="M139.39,127.51 C139.39,127.09 139.47,126.70 139.62,126.34" fill="currentColor" stroke="currentColor" stroke-width="1.2" stroke-linecap="round" stroke-linejoin="round" />
  <line x1="9.10" y1="130.25" x2="9.10" y2="124.55" fill="currentColor" stroke="currentColor" stroke-width="1.2" stroke-linecap="round" stroke-linejoin="round" />
  <line x1="8.00" y1="123.56" x2="8.00" y2="131.24" fill="currentColor" stroke="currentColor" stroke-width="1.2" stroke-linecap="round" stroke-linejoin="round" />
  <path d="M13.94,127.40 C13.95,127.60 13.92,127.82 13.86,128.06" fill="currentColor" stroke="currentColor" stroke-width="1.2" stroke-linecap="round" stroke-linejoin="round" />
  <path d="M14.90,128.56 C15.02,128.18 15.08,127.80 15.08,127.40" fill="currentColor" stroke="currentColor" stroke-width="1.2" stroke-linecap="round" stroke-linejoin="round" />
  <path d="M138.25,127.61 C138.25,127.94 138.30,128.28 138.40,128.63" fill="currentColor" stroke="currentColor" stroke-width="1.2" stroke-linecap="round" stroke-linejoin="round" />
  <path d="M139.78,129.04 C139.52,128.60 139.39,128.09 139.39,127.51" fill="currentColor" stroke="currentColor" stroke-width="1.2" stroke-linecap="round" stroke-linejoin="round" />
  <path d="M13.86,128.06 C13.81,128.31 13.71,128.56 13.58,128.81" fill="currentColor" stroke="currentColor" stroke-width="1.2" stroke-linecap="round" stroke-linejoin="round" />
  <path d="M14.38,129.61 C14.61,129.28 14.78,128.93 14.90,128.56" fill="currentColor" stroke="currentColor" stroke-width="1.2" stroke-linecap="round" stroke-linejoin="round" />
  <path d="M138.40,128.63 C138.51,128.99 138.67,129.33 138.88,129.66" fill="currentColor" stroke="currentColor" stroke-width="1.2" stroke-linecap="round" stroke-linejoin="round" />
  <path d="M13.58,128.81 C13.45,129.07 13.26,129.31 13.03,129.52" fill="currentColor" stroke="currentColor" stroke-width="1.2" stroke-linecap="round" stroke-linejoin="round" />
  <path d="M140.87,130.06 C140.41,129.82 140.04,129.47 139.78,129.04" fill="currentColor" stroke="currentColor" stroke-width="1.2" stroke-linecap="round" stroke-linejoin="round" />
  <path d="M13.03,129.52 C12.79,129.74 12.50,129.91 12.15,130.05" fill="currentColor" stroke="currentColor" stroke-width="1.2" stroke-linecap="round" stroke-linejoin="round" />
  <path d="M145.18,129.57 C144.75,129.85 144.30,130.06 143.84,130.21" fill="currentColor" stroke="currentColor" stroke-width="1.2" stroke-linecap="round" stroke-linejoin="round" />
  <path d="M13.53,130.46 C13.86,130.22 14.14,129.93 14.38,129.61" fill="currentColor" stroke="currentColor" stroke-width="1.2" stroke-linecap="round" stroke-linejoin="round" />
  <path d="M138.88,129.66 C139.09,129.99 139.36,130.29 139.69,130.56" fill="currentColor" stroke="currentColor" stroke-width="1.2" stroke-linecap="round" stroke-linejoin="round" />
  <path d="M12.15,130.05 C11.79,130.18 11.36,130.25 10.86,130.25" fill="currentColor" stroke="currentColor" stroke-width="1.2" stroke-linecap="round" stroke-linejoin="round" />
  <line x1="145.18" y1="130.77" x2="145.18" y2="129.57" fill="currentColor" stroke="currentColor" stroke-width="1.2" stroke-linecap="round" stroke-linejoin="round" />
  <path d="M142.50,130.43 C141.88,130.43 141.34,130.30 140.87,130.06" fill="currentColor" stroke="currentColor" stroke-width="1.2" stroke-linecap="round" stroke-linejoin="round" />
  <line x1="10.86" y1="130.25" x2="9.10" y2="130.25" fill="currentColor" stroke="currentColor" stroke-width="1.2" stroke-linecap="round" stroke-linejoin="round" />
  <path d="M143.84,130.21 C143.39,130.36 142.94,130.43 142.50,130.43" fill="currentColor" stroke="currentColor" stroke-width="1.2" stroke-linecap="round" stroke-linejoin="round" />
  <path d="M12.40,131.03 C12.82,130.90 13.20,130.71 13.53,130.46" fill="currentColor" stroke="currentColor" stroke-width="1.2" stroke-linecap="round" stroke-linejoin="round" />
  <path d="M139.69,130.56 C140.02,130.83 140.41,131.05 140.86,131.20" fill="currentColor" stroke="currentColor" stroke-width="1.2" stroke-linecap="round" stroke-linejoin="round" />
  <path d="M144.40,131.12 C144.67,131.02 144.93,130.90 145.18,130.77" fill="currentColor" stroke="currentColor" stroke-width="1.2" stroke-linecap="round" stroke-linejoin="round" />
  <path d="M11.00,131.24 C11.51,131.24 11.97,131.17 12.40,131.03" fill="currentColor" stroke="currentColor" stroke-width="1.2" stroke-linecap="round" stroke-linejoin="round" />
  <path d="M143.49,131.36 C143.82,131.30 144.12,131.22 144.40,131.12" fill="currentColor" stroke="currentColor" stroke-width="1.2" stroke-linecap="round" stroke-linejoin="round" />
  <line x1="8.00" y1="131.24" x2="11.00" y2="131.24" fill="currentColor" stroke="currentColor" stroke-width="1.2" stroke-linecap="round" stroke-linejoin="round" />
  <path d="M140.86,131.20 C141.31,131.36 141.82,131.45 142.40,131.45" fill="currentColor" stroke="currentColor" stroke-width="1.2" stroke-linecap="round" stroke-linejoin="round" />
  <path d="M142.40,131.45 C142.80,131.45 143.16,131.42 143.49,131.36" fill="currentColor" stroke="currentColor" stroke-width="1.2" stroke-linecap="round" stroke-linejoin="round" />
</svg>