<svg xmlns="http://www.w3.org/2000/svg" viewBox="0 0 168.52 160.44" preserveAspectRatio="xMidYMid meet" shape-rendering="geometricPrecision" text-rendering="optimizeLegibility">
  <line x1="60.28" y1="8.00" x2="59.23" y2="8.00" fill="currentColor" stroke="currentColor" stroke-width="1.2" stroke-linecap="round" stroke-linejoin="round" />
  <line x1="59.23" y1="8.00" x2="59.23" y2="15.34" fill="currentColor" stroke="currentColor" stroke-width="1.2" stroke-linecap="round" stroke-linejoin="round" />
  <line x1="60.28" y1="14.40" x2="60.28" y2="8.00" fill="currentColor" stroke="currentColor" stroke-width="1.2" stroke-linecap="round" stroke-linejoin="round" />
  <line x1="94.15" y1="8.00" x2="93.24" y2="8.00" fill="currentColor" stroke="currentColor" stroke-width="1.2" stroke-linecap="round" stroke-linejoin="round" />
  <line x1="93.24" y1="8.00" x2="92.22" y2="15.34" fill="currentColor" stroke="currentColor" stroke-width="1.2" stroke-linecap="round" stroke-linejoin="round" />
  <line x1="93.50" y1="12.59" x2="94.15" y2="8.00" fill="currentColor" stroke="currentColor" stroke-width="1.2" stroke-linecap="round" stroke-linejoin="round" />
  <path d="M69.55,10.41 C69.43,10.41 69.33,10.44 69.23,10.50" fill="currentColor" stroke="currentColor" stroke-width="1.2" stroke-linecap="round" stroke-linejoin="round" />
  <path d="M69.88,10.50 C69.78,10.44 69.67,10.41 69.55,10.41" fill="currentColor" stroke="currentColor" stroke-width="1.2" stroke-linecap="round" stroke-linejoin="round" />
  <path d="M69.23,10.50 C69.13,10.56 69.05,10.63 69.00,10.73" fill="currentColor" stroke="currentColor" stroke-width="1.2" stroke-linecap="round" stroke-linejoin="round" />
  <path d="M70.11,10.73 C70.05,10.63 69.98,10.56 69.88,10.50" fill="currentColor" stroke="currentColor" stroke-width="1.2" stroke-linecap="round" stroke-linejoin="round" />
  <line x1="79.96" y1="10.51" x2="79.00" y2="10.51" fill="currentColor" stroke="currentColor" stroke-width="1.2" stroke-linecap="round" stroke-linejoin="round" />
  <line x1="79.00" y1="10.51" x2="77.48" y2="13.83" fill="currentColor" stroke="currentColor" stroke-width="1.2" stroke-linecap="round" stroke-linejoin="round" />
  <line x1="77.46" y1="13.83" x2="76.81" y2="10.51" fill="currentColor" stroke="currentColor" stroke-width="1.2" stroke-linecap="round" stroke-linejoin="round" />
  <line x1="76.81" y1="10.51" x2="75.90" y2="10.51" fill="currentColor" stroke="currentColor" stroke-width="1.2" stroke-linecap="round" stroke-linejoin="round" />
  <line x1="75.90" y1="10.51" x2="76.83" y2="15.05" fill="currentColor" stroke="currentColor" stroke-width="1.2" stroke-linecap="round" stroke-linejoin="round" />
  <line x1="76.49" y1="17.82" x2="79.96" y2="10.51" fill="currentColor" stroke="currentColor" stroke-width="1.2" stroke-linecap="round" stroke-linejoin="round" />
  <line x1="105.03" y1="10.51" x2="103.90" y2="10.51" fill="currentColor" stroke="currentColor" stroke-width="1.2" stroke-linecap="round" stroke-linejoin="round" />
  <line x1="103.90" y1="10.51" x2="102.64" y2="12.13" fill="currentColor" stroke="currentColor" stroke-width="1.2" stroke-linecap="round" stroke-linejoin="round" />
  <line x1="102.64" y1="12.13" x2="101.87" y2="10.51" fill="currentColor" stroke="currentColor" stroke-width="1.2" stroke-linecap="round" stroke-linejoin="round" />
  <line x1="101.87" y1="10.51" x2="100.89" y2="10.51" fill="currentColor" stroke="currentColor" stroke-width="1.2" stroke-linecap="round" stroke-linejoin="round" />
  <line x1="100.89" y1="10.51" x2="102.03" y2="12.78" fill="currentColor" stroke="currentColor" stroke-width="1.2" stroke-linecap="round" stroke-linejoin="round" />
  <line x1="103.08" y1="12.90" x2="105.03" y2="10.51" fill="currentColor" stroke="currentColor" stroke-width="1.2" stroke-linecap="round" stroke-linejoin="round" />
  <line x1="94.49" y1="12.79" x2="96.70" y2="10.51" fill="currentColor" stroke="currentColor" stroke-width="1.2" stroke-linecap="round" stroke-linejoin="round" />
  <line x1="96.70" y1="10.51" x2="95.54" y2="10.51" fill="currentColor" stroke="currentColor" stroke-width="1.2" stroke-linecap="round" stroke-linejoin="round" />
  <line x1="95.54" y1="10.51" x2="93.52" y2="12.61" fill="currentColor" stroke="currentColor" stroke-width="1.2" stroke-linecap="round" stroke-linejoin="round" />
  <path d="M69.00,10.73 C68.94,10.83 68.91,10.94 68.91,11.06" fill="currentColor" stroke="currentColor" stroke-width="1.2" stroke-linecap="round" stroke-linejoin="round" />
  <path d="M70.20,11.06 C70.20,10.94 70.17,10.83 70.11,10.73" fill="currentColor" stroke="currentColor" stroke-width="1.2" stroke-linecap="round" stroke-linejoin="round" />
  <path d="M68.91,11.06 C68.91,11.18 68.94,11.29 69.00,11.38" fill="currentColor" stroke="currentColor" stroke-width="1.2" stroke-linecap="round" stroke-linejoin="round" />
  <path d="M70.11,11.38 C70.17,11.29 70.20,11.18 70.20,11.06" fill="currentColor" stroke="currentColor" stroke-width="1.2" stroke-linecap="round" stroke-linejoin="round" />
  <path d="M69.00,11.38 C69.05,11.48 69.13,11.56 69.23,11.61" fill="currentColor" stroke="currentColor" stroke-width="1.2" stroke-linecap="round" stroke-linejoin="round" />
  <path d="M69.88,11.61 C69.98,11.56 70.05,11.48 70.11,11.38" fill="currentColor" stroke="currentColor" stroke-width="1.2" stroke-linecap="round" stroke-linejoin="round" />
  <line x1="36.14" y1="23.53" x2="32.11" y2="11.42" fill="currentColor" stroke="currentColor" stroke-width="1.2" stroke-linecap="round" stroke-linejoin="round" />
  <line x1="32.11" y1="11.42" x2="28.07" y2="23.53" fill="currentColor" stroke="currentColor" stroke-width="1.2" stroke-linecap="round" stroke-linejoin="round" />
  <path d="M69.23,11.61 C69.33,11.67 69.43,11.70 69.55,11.70" fill="currentColor" stroke="currentColor" stroke-width="1.2" stroke-linecap="round" stroke-linejoin="round" />
  <path d="M69.55,11.70 C69.67,11.70 69.78,11.67 69.88,11.61" fill="currentColor" stroke="currentColor" stroke-width="1.2" stroke-linecap="round" stroke-linejoin="round" />
  <line x1="93.52" y1="12.61" x2="93.50" y2="12.59" fill="currentColor" stroke="currentColor" stroke-width="1.2" stroke-linecap="round" stroke-linejoin="round" />
  <line x1="102.03" y1="12.78" x2="99.92" y2="15.34" fill="currentColor" stroke="currentColor" stroke-width="1.2" stroke-linecap="round" stroke-linejoin="round" />
  <line x1="96.86" y1="15.34" x2="94.49" y2="12.79" fill="currentColor" stroke="currentColor" stroke-width="1.2" stroke-linecap="round" stroke-linejoin="round" />
  <line x1="93.12" y1="15.34" x2="93.47" y2="12.89" fill="currentColor" stroke="currentColor" stroke-width="1.2" stroke-linecap="round" stroke-linejoin="round" />
  <line x1="93.47" y1="12.89" x2="95.69" y2="15.34" fill="currentColor" stroke="currentColor" stroke-width="1.2" stroke-linecap="round" stroke-linejoin="round" />
  <line x1="104.31" y1="15.34" x2="103.08" y2="12.90" fill="currentColor" stroke="currentColor" stroke-width="1.2" stroke-linecap="round" stroke-linejoin="round" />
  <line x1="65.92" y1="17.63" x2="65.92" y2="12.98" fill="currentColor" stroke="currentColor" stroke-width="1.2" stroke-linecap="round" stroke-linejoin="round" />
  <line x1="65.92" y1="12.98" x2="65.67" y2="12.98" fill="currentColor" stroke="currentColor" stroke-width="1.2" stroke-linecap="round" stroke-linejoin="round" />
  <line x1="65.67" y1="12.98" x2="64.10" y2="14.26" fill="currentColor" stroke="currentColor" stroke-width="1.2" stroke-linecap="round" stroke-linejoin="round" />
  <line x1="99.10" y1="17.63" x2="99.10" y2="12.98" fill="currentColor" stroke="currentColor" stroke-width="1.2" stroke-linecap="round" stroke-linejoin="round" />
  <line x1="99.10" y1="12.98" x2="98.85" y2="12.98" fill="currentColor" stroke="currentColor" stroke-width="1.2" stroke-linecap="round" stroke-linejoin="round" />
  <line x1="98.85" y1="12.98" x2="97.28" y2="14.26" fill="currentColor" stroke="currentColor" stroke-width="1.2" stroke-linecap="round" stroke-linejoin="round" />
  <line x1="101.04" y1="15.34" x2="102.44" y2="13.53" fill="currentColor" stroke="currentColor" stroke-width="1.2" stroke-linecap="round" stroke-linejoin="round" />
  <line x1="102.44" y1="13.53" x2="103.33" y2="15.34" fill="currentColor" stroke="currentColor" stroke-width="1.2" stroke-linecap="round" stroke-linejoin="round" />
  <line x1="77.48" y1="13.83" x2="77.46" y2="13.83" fill="currentColor" stroke="currentColor" stroke-width="1.2" stroke-linecap="round" stroke-linejoin="round" />
  <line x1="64.36" y1="14.83" x2="65.23" y2="14.11" fill="currentColor" stroke="currentColor" stroke-width="1.2" stroke-linecap="round" stroke-linejoin="round" />
  <line x1="65.23" y1="14.11" x2="65.23" y2="17.63" fill="currentColor" stroke="currentColor" stroke-width="1.2" stroke-linecap="round" stroke-linejoin="round" />
  <line x1="97.54" y1="14.83" x2="98.41" y2="14.11" fill="currentColor" stroke="currentColor" stroke-width="1.2" stroke-linecap="round" stroke-linejoin="round" />
  <line x1="98.41" y1="14.11" x2="98.41" y2="17.63" fill="currentColor" stroke="currentColor" stroke-width="1.2" stroke-linecap="round" stroke-linejoin="round" />
  <path d="M69.55,14.15 C69.43,14.15 69.33,14.18 69.23,14.24" fill="currentColor" stroke="currentColor" stroke-width="1.2" stroke-linecap="round" stroke-linejoin="round" />
  <path d="M69.88,14.24 C69.78,14.18 69.67,14.15 69.55,14.15" fill="currentColor" stroke="currentColor" stroke-width="1.2" stroke-linecap="round" stroke-linejoin="round" />
  <path d="M69.23,14.24 C69.13,14.29 69.05,14.37 69.00,14.47" fill="currentColor" stroke="currentColor" stroke-width="1.2" stroke-linecap="round" stroke-linejoin="round" />
  <path d="M70.11,14.47 C70.05,14.37 69.98,14.29 69.88,14.24" fill="currentColor" stroke="currentColor" stroke-width="1.2" stroke-linecap="round" stroke-linejoin="round" />
  <line x1="64.10" y1="14.26" x2="64.36" y2="14.83" fill="currentColor" stroke="currentColor" stroke-width="1.2" stroke-linecap="round" stroke-linejoin="round" />
  <line x1="97.28" y1="14.26" x2="97.54" y2="14.83" fill="currentColor" stroke="currentColor" stroke-width="1.2" stroke-linecap="round" stroke-linejoin="round" />
  <line x1="63.60" y1="15.34" x2="63.60" y2="14.40" fill="currentColor" stroke="currentColor" stroke-width="1.2" stroke-linecap="round" stroke-linejoin="round" />
  <line x1="63.60" y1="14.40" x2="60.28" y2="14.40" fill="currentColor" stroke="currentColor" stroke-width="1.2" stroke-linecap="round" stroke-linejoin="round" />
  <path d="M69.00,14.47 C68.94,14.56 68.91,14.67 68.91,14.79" fill="currentColor" stroke="currentColor" stroke-width="1.2" stroke-linecap="round" stroke-linejoin="round" />
  <path d="M70.20,14.79 C70.20,14.67 70.17,14.56 70.11,14.47" fill="currentColor" stroke="currentColor" stroke-width="1.2" stroke-linecap="round" stroke-linejoin="round" />
  <path d="M68.91,14.79 C68.91,14.91 68.94,15.02 69.00,15.12" fill="currentColor" stroke="currentColor" stroke-width="1.2" stroke-linecap="round" stroke-linejoin="round" />
  <path d="M70.11,15.12 C70.17,15.02 70.20,14.91 70.20,14.79" fill="currentColor" stroke="currentColor" stroke-width="1.2" stroke-linecap="round" stroke-linejoin="round" />
  <line x1="76.83" y1="15.05" x2="75.52" y2="17.82" fill="currentColor" stroke="currentColor" stroke-width="1.2" stroke-linecap="round" stroke-linejoin="round" />
  <path d="M69.00,15.12 C69.05,15.22 69.13,15.29 69.23,15.35" fill="currentColor" stroke="currentColor" stroke-width="1.2" stroke-linecap="round" stroke-linejoin="round" />
  <path d="M69.88,15.35 C69.98,15.29 70.05,15.22 70.11,15.12" fill="currentColor" stroke="currentColor" stroke-width="1.2" stroke-linecap="round" stroke-linejoin="round" />
  <line x1="99.92" y1="15.34" x2="101.04" y2="15.34" fill="currentColor" stroke="currentColor" stroke-width="1.2" stroke-linecap="round" stroke-linejoin="round" />
  <line x1="103.33" y1="15.34" x2="104.31" y2="15.34" fill="currentColor" stroke="currentColor" stroke-width="1.2" stroke-linecap="round" stroke-linejoin="round" />
  <line x1="59.23" y1="15.34" x2="63.60" y2="15.34" fill="currentColor" stroke="currentColor" stroke-width="1.2" stroke-linecap="round" stroke-linejoin="round" />
  <line x1="92.22" y1="15.34" x2="93.12" y2="15.34" fill="currentColor" stroke="currentColor" stroke-width="1.2" stroke-linecap="round" stroke-linejoin="round" />
  <line x1="95.69" y1="15.34" x2="96.86" y2="15.34" fill="currentColor" stroke="currentColor" stroke-width="1.2" stroke-linecap="round" stroke-linejoin="round" />
  <path d="M69.23,15.35 C69.33,15.41 69.43,15.44 69.55,15.44" fill="currentColor" stroke="currentColor" stroke-width="1.2" stroke-linecap="round" stroke-linejoin="round" />
  <path d="M69.55,15.44 C69.67,15.44 69.78,15.41 69.88,15.35" fill="currentColor" stroke="currentColor" stroke-width="1.2" stroke-linecap="round" stroke-linejoin="round" />
  <line x1="25.08" y1="17.44" x2="24.12" y2="17.44" fill="currentColor" stroke="currentColor" stroke-width="1.2" stroke-linecap="round" stroke-linejoin="round" />
  <line x1="24.12" y1="17.44" x2="22.60" y2="20.76" fill="currentColor" stroke="currentColor" stroke-width="1.2" stroke-linecap="round" stroke-linejoin="round" />
  <line x1="22.58" y1="20.76" x2="21.93" y2="17.44" fill="currentColor" stroke="currentColor" stroke-width="1.2" stroke-linecap="round" stroke-linejoin="round" />
  <line x1="21.93" y1="17.44" x2="21.02" y2="17.44" fill="currentColor" stroke="currentColor" stroke-width="1.2" stroke-linecap="round" stroke-linejoin="round" />
  <line x1="21.02" y1="17.44" x2="21.95" y2="21.98" fill="currentColor" stroke="currentColor" stroke-width="1.2" stroke-linecap="round" stroke-linejoin="round" />
  <line x1="21.61" y1="24.75" x2="25.08" y2="17.44" fill="currentColor" stroke="currentColor" stroke-width="1.2" stroke-linecap="round" stroke-linejoin="round" />
  <line x1="65.23" y1="17.63" x2="65.92" y2="17.63" fill="currentColor" stroke="currentColor" stroke-width="1.2" stroke-linecap="round" stroke-linejoin="round" />
  <line x1="98.41" y1="17.63" x2="99.10" y2="17.63" fill="currentColor" stroke="currentColor" stroke-width="1.2" stroke-linecap="round" stroke-linejoin="round" />
  <line x1="75.52" y1="17.82" x2="76.49" y2="17.82" fill="currentColor" stroke="currentColor" stroke-width="1.2" stroke-linecap="round" stroke-linejoin="round" />
  <line x1="22.60" y1="20.76" x2="22.58" y2="20.76" fill="currentColor" stroke="currentColor" stroke-width="1.2" stroke-linecap="round" stroke-linejoin="round" />
  <line x1="32.11" y1="148.74" x2="32.11" y2="21.51" fill="none" stroke="currentColor" stroke-width="1.2099999904632568" stroke-linecap="round" stroke-linejoin="round" />
  <line x1="21.95" y1="21.98" x2="20.64" y2="24.75" fill="currentColor" stroke="currentColor" stroke-width="1.2" stroke-linecap="round" stroke-linejoin="round" />
  <line x1="28.07" y1="23.53" x2="32.11" y2="22.19" fill="currentColor" stroke="currentColor" stroke-width="1.2" stroke-linecap="round" stroke-linejoin="round" />
  <line x1="32.11" y1="22.19" x2="36.14" y2="23.53" fill="currentColor" stroke="currentColor" stroke-width="1.2" stroke-linecap="round" stroke-linejoin="round" />
  <line x1="140.14" y1="22.94" x2="139.09" y2="22.94" fill="currentColor" stroke="currentColor" stroke-width="1.2" stroke-linecap="round" stroke-linejoin="round" />
  <line x1="139.09" y1="22.94" x2="139.09" y2="30.28" fill="currentColor" stroke="currentColor" stroke-width="1.2" stroke-linecap="round" stroke-linejoin="round" />
  <line x1="140.14" y1="29.33" x2="140.14" y2="22.94" fill="currentColor" stroke="currentColor" stroke-width="1.2" stroke-linecap="round" stroke-linejoin="round" />
  <line x1="20.64" y1="24.75" x2="21.61" y2="24.75" fill="currentColor" stroke="currentColor" stroke-width="1.2" stroke-linecap="round" stroke-linejoin="round" />
  <line x1="145.78" y1="32.57" x2="145.78" y2="27.92" fill="currentColor" stroke="currentColor" stroke-width="1.2" stroke-linecap="round" stroke-linejoin="round" />
  <line x1="145.78" y1="27.92" x2="145.53" y2="27.92" fill="currentColor" stroke="currentColor" stroke-width="1.2" stroke-linecap="round" stroke-linejoin="round" />
  <line x1="145.53" y1="27.92" x2="143.96" y2="29.20" fill="currentColor" stroke="currentColor" stroke-width="1.2" stroke-linecap="round" stroke-linejoin="round" />
  <line x1="144.22" y1="29.77" x2="145.09" y2="29.05" fill="currentColor" stroke="currentColor" stroke-width="1.2" stroke-linecap="round" stroke-linejoin="round" />
  <line x1="145.09" y1="29.05" x2="145.09" y2="32.57" fill="currentColor" stroke="currentColor" stroke-width="1.2" stroke-linecap="round" stroke-linejoin="round" />
  <line x1="143.96" y1="29.20" x2="144.22" y2="29.77" fill="currentColor" stroke="currentColor" stroke-width="1.2" stroke-linecap="round" stroke-linejoin="round" />
  <line x1="143.46" y1="30.28" x2="143.46" y2="29.33" fill="currentColor" stroke="currentColor" stroke-width="1.2" stroke-linecap="round" stroke-linejoin="round" />
  <line x1="143.46" y1="29.33" x2="140.14" y2="29.33" fill="currentColor" stroke="currentColor" stroke-width="1.2" stroke-linecap="round" stroke-linejoin="round" />
  <line x1="139.09" y1="30.28" x2="143.46" y2="30.28" fill="currentColor" stroke="currentColor" stroke-width="1.2" stroke-linecap="round" stroke-linejoin="round" />
  <line x1="19.81" y1="148.50" x2="136.55" y2="31.75" fill="none" stroke="currentColor" stroke-width="1.4369999885559082" stroke-linecap="round" stroke-linejoin="round" />
  <line x1="145.09" y1="32.57" x2="145.78" y2="32.57" fill="currentColor" stroke="currentColor" stroke-width="1.2" stroke-linecap="round" stroke-linejoin="round" />
  <line x1="51.16" y1="34.46" x2="51.16" y2="142.52" fill="none" stroke="currentColor" stroke-width="1.0" stroke-linecap="round" stroke-linejoin="round" />
  <line x1="70.21" y1="34.53" x2="70.21" y2="142.58" fill="none" stroke="currentColor" stroke-width="1.0" stroke-linecap="round" stroke-linejoin="round" />
  <line x1="89.25" y1="34.53" x2="89.25" y2="142.58" fill="none" stroke="currentColor" stroke-width="1.0" stroke-linecap="round" stroke-linejoin="round" />
  <line x1="108.30" y1="34.53" x2="108.30" y2="142.58" fill="none" stroke="currentColor" stroke-width="1.0" stroke-linecap="round" stroke-linejoin="round" />
  <line x1="127.34" y1="34.53" x2="127.34" y2="142.58" fill="none" stroke="currentColor" stroke-width="1.0" stroke-linecap="round" stroke-linejoin="round" />
  <path d="M16.42,37.06 C16.13,36.89 15.81,36.80 15.45,36.79" fill="currentColor" stroke="currentColor" stroke-width="1.2" stroke-linecap="round" stroke-linejoin="round" />
  <path d="M15.45,36.79 C15.09,36.80 14.77,36.89 14.48,37.06" fill="currentColor" stroke="currentColor" stroke-width="1.2" stroke-linecap="round" stroke-linejoin="round" />
  <path d="M21.80,37.06 C21.51,36.89 21.19,36.80 20.83,36.79" fill="currentColor" stroke="currentColor" stroke-width="1.2" stroke-linecap="round" stroke-linejoin="round" />
  <path d="M20.83,36.79 C20.48,36.80 20.15,36.89 19.86,37.06" fill="currentColor" stroke="currentColor" stroke-width="1.2" stroke-linecap="round" stroke-linejoin="round" />
  <line x1="10.91" y1="44.23" x2="10.91" y2="36.79" fill="currentColor" stroke="currentColor" stroke-width="1.2" stroke-linecap="round" stroke-linejoin="round" />
  <line x1="10.91" y1="36.79" x2="10.51" y2="36.79" fill="currentColor" stroke="currentColor" stroke-width="1.2" stroke-linecap="round" stroke-linejoin="round" />
  <line x1="10.51" y1="36.79" x2="8.00" y2="38.84" fill="currentColor" stroke="currentColor" stroke-width="1.2" stroke-linecap="round" stroke-linejoin="round" />
  <path d="M17.17,37.83 C16.96,37.50 16.71,37.24 16.42,37.06" fill="currentColor" stroke="currentColor" stroke-width="1.2" stroke-linecap="round" stroke-linejoin="round" />
  <path d="M14.48,37.06 C14.19,37.24 13.94,37.50 13.73,37.83" fill="currentColor" stroke="currentColor" stroke-width="1.2" stroke-linecap="round" stroke-linejoin="round" />
  <path d="M22.55,37.83 C22.34,37.50 22.09,37.24 21.80,37.06" fill="currentColor" stroke="currentColor" stroke-width="1.2" stroke-linecap="round" stroke-linejoin="round" />
  <path d="M19.86,37.06 C19.57,37.24 19.32,37.50 19.12,37.83" fill="currentColor" stroke="currentColor" stroke-width="1.2" stroke-linecap="round" stroke-linejoin="round" />
  <path d="M14.74,38.13 C14.94,37.91 15.18,37.80 15.45,37.80" fill="currentColor" stroke="currentColor" stroke-width="1.2" stroke-linecap="round" stroke-linejoin="round" />
  <path d="M15.45,37.80 C15.72,37.80 15.96,37.91 16.15,38.13" fill="currentColor" stroke="currentColor" stroke-width="1.2" stroke-linecap="round" stroke-linejoin="round" />
  <path d="M20.13,38.13 C20.32,37.91 20.56,37.80 20.83,37.80" fill="currentColor" stroke="currentColor" stroke-width="1.2" stroke-linecap="round" stroke-linejoin="round" />
  <path d="M20.83,37.80 C21.11,37.80 21.34,37.91 21.54,38.13" fill="currentColor" stroke="currentColor" stroke-width="1.2" stroke-linecap="round" stroke-linejoin="round" />
  <path d="M17.65,39.02 C17.54,38.56 17.38,38.16 17.17,37.83" fill="currentColor" stroke="currentColor" stroke-width="1.2" stroke-linecap="round" stroke-linejoin="round" />
  <path d="M13.73,37.83 C13.52,38.16 13.36,38.56 13.25,39.02" fill="currentColor" stroke="currentColor" stroke-width="1.2" stroke-linecap="round" stroke-linejoin="round" />
  <path d="M23.03,39.02 C22.92,38.56 22.76,38.16 22.55,37.83" fill="currentColor" stroke="currentColor" stroke-width="1.2" stroke-linecap="round" stroke-linejoin="round" />
  <path d="M19.12,37.83 C18.91,38.16 18.75,38.56 18.64,39.02" fill="currentColor" stroke="currentColor" stroke-width="1.2" stroke-linecap="round" stroke-linejoin="round" />
  <path d="M14.29,39.08 C14.40,38.67 14.55,38.35 14.74,38.13" fill="currentColor" stroke="currentColor" stroke-width="1.2" stroke-linecap="round" stroke-linejoin="round" />
  <path d="M16.15,38.13 C16.35,38.35 16.50,38.67 16.61,39.08" fill="currentColor" stroke="currentColor" stroke-width="1.2" stroke-linecap="round" stroke-linejoin="round" />
  <path d="M19.68,39.08 C19.78,38.67 19.93,38.35 20.13,38.13" fill="currentColor" stroke="currentColor" stroke-width="1.2" stroke-linecap="round" stroke-linejoin="round" />
  <path d="M21.54,38.13 C21.73,38.35 21.89,38.67 21.99,39.08" fill="currentColor" stroke="currentColor" stroke-width="1.2" stroke-linecap="round" stroke-linejoin="round" />
  <line x1="8.41" y1="39.75" x2="9.81" y2="38.60" fill="currentColor" stroke="currentColor" stroke-width="1.2" stroke-linecap="round" stroke-linejoin="round" />
  <line x1="9.81" y1="38.60" x2="9.81" y2="44.23" fill="currentColor" stroke="currentColor" stroke-width="1.2" stroke-linecap="round" stroke-linejoin="round" />
  <line x1="8.00" y1="38.84" x2="8.41" y2="39.75" fill="currentColor" stroke="currentColor" stroke-width="1.2" stroke-linecap="round" stroke-linejoin="round" />
  <path d="M17.82,40.56 C17.82,40.00 17.76,39.48 17.65,39.02" fill="currentColor" stroke="currentColor" stroke-width="1.2" stroke-linecap="round" stroke-linejoin="round" />
  <path d="M13.25,39.02 C13.14,39.48 13.08,40.00 13.08,40.56" fill="currentColor" stroke="currentColor" stroke-width="1.2" stroke-linecap="round" stroke-linejoin="round" />
  <path d="M23.20,40.56 C23.20,40.00 23.14,39.48 23.03,39.02" fill="currentColor" stroke="currentColor" stroke-width="1.2" stroke-linecap="round" stroke-linejoin="round" />
  <path d="M18.64,39.02 C18.52,39.48 18.47,40.00 18.47,40.56" fill="currentColor" stroke="currentColor" stroke-width="1.2" stroke-linecap="round" stroke-linejoin="round" />
  <path d="M14.14,40.56 C14.14,39.99 14.19,39.49 14.29,39.08" fill="currentColor" stroke="currentColor" stroke-width="1.2" stroke-linecap="round" stroke-linejoin="round" />
  <path d="M16.61,39.08 C16.71,39.49 16.76,39.99 16.76,40.56" fill="currentColor" stroke="currentColor" stroke-width="1.2" stroke-linecap="round" stroke-linejoin="round" />
  <path d="M19.52,40.56 C19.52,39.99 19.57,39.49 19.68,39.08" fill="currentColor" stroke="currentColor" stroke-width="1.2" stroke-linecap="round" stroke-linejoin="round" />
  <path d="M21.99,39.08 C22.09,39.49 22.15,39.99 22.15,40.56" fill="currentColor" stroke="currentColor" stroke-width="1.2" stroke-linecap="round" stroke-linejoin="round" />
  <path d="M13.08,40.56 C13.08,41.13 13.14,41.64 13.25,42.11" fill="currentColor" stroke="currentColor" stroke-width="1.2" stroke-linecap="round" stroke-linejoin="round" />
  <path d="M17.65,42.11 C17.76,41.64 17.82,41.13 17.82,40.56" fill="currentColor" stroke="currentColor" stroke-width="1.2" stroke-linecap="round" stroke-linejoin="round" />
  <path d="M16.76,40.56 C16.76,41.14 16.71,41.63 16.61,42.05" fill="currentColor" stroke="currentColor" stroke-width="1.2" stroke-linecap="round" stroke-linejoin="round" />
  <path d="M14.29,42.05 C14.19,41.63 14.14,41.14 14.14,40.56" fill="currentColor" stroke="currentColor" stroke-width="1.2" stroke-linecap="round" stroke-linejoin="round" />
  <path d="M18.47,40.56 C18.47,41.13 18.52,41.64 18.64,42.11" fill="currentColor" stroke="currentColor" stroke-width="1.2" stroke-linecap="round" stroke-linejoin="round" />
  <path d="M23.03,42.11 C23.14,41.64 23.20,41.13 23.20,40.56" fill="currentColor" stroke="currentColor" stroke-width="1.2" stroke-linecap="round" stroke-linejoin="round" />
  <path d="M22.15,40.56 C22.15,41.14 22.09,41.63 21.99,42.05" fill="currentColor" stroke="currentColor" stroke-width="1.2" stroke-linecap="round" stroke-linejoin="round" />
  <path d="M19.68,42.05 C19.57,41.63 19.52,41.14 19.52,40.56" fill="currentColor" stroke="currentColor" stroke-width="1.2" stroke-linecap="round" stroke-linejoin="round" />
  <line x1="25.91" y1="40.97" x2="133.97" y2="40.97" fill="none" stroke="currentColor" stroke-width="1.0" stroke-linecap="round" stroke-linejoin="round" />
  <path d="M16.61,42.05 C16.50,42.46 16.35,42.77 16.15,42.99" fill="currentColor" stroke="currentColor" stroke-width="1.2" stroke-linecap="round" stroke-linejoin="round" />
  <path d="M14.74,42.99 C14.55,42.77 14.40,42.46 14.29,42.05" fill="currentColor" stroke="currentColor" stroke-width="1.2" stroke-linecap="round" stroke-linejoin="round" />
  <path d="M21.99,42.05 C21.89,42.46 21.73,42.77 21.54,42.99" fill="currentColor" stroke="currentColor" stroke-width="1.2" stroke-linecap="round" stroke-linejoin="round" />
  <path d="M20.13,42.99 C19.93,42.77 19.78,42.46 19.68,42.05" fill="currentColor" stroke="currentColor" stroke-width="1.2" stroke-linecap="round" stroke-linejoin="round" />
  <path d="M13.25,42.11 C13.36,42.57 13.52,42.96 13.73,43.29" fill="currentColor" stroke="currentColor" stroke-width="1.2" stroke-linecap="round" stroke-linejoin="round" />
  <path d="M17.17,43.29 C17.38,42.96 17.54,42.57 17.65,42.11" fill="currentColor" stroke="currentColor" stroke-width="1.2" stroke-linecap="round" stroke-linejoin="round" />
  <path d="M18.64,42.11 C18.75,42.57 18.91,42.96 19.12,43.29" fill="currentColor" stroke="currentColor" stroke-width="1.2" stroke-linecap="round" stroke-linejoin="round" />
  <path d="M22.55,43.29 C22.76,42.96 22.92,42.57 23.03,42.11" fill="currentColor" stroke="currentColor" stroke-width="1.2" stroke-linecap="round" stroke-linejoin="round" />
  <path d="M16.15,42.99 C15.96,43.22 15.72,43.33 15.45,43.33" fill="currentColor" stroke="currentColor" stroke-width="1.2" stroke-linecap="round" stroke-linejoin="round" />
  <path d="M15.45,43.33 C15.18,43.33 14.94,43.22 14.74,42.99" fill="currentColor" stroke="currentColor" stroke-width="1.2" stroke-linecap="round" stroke-linejoin="round" />
  <path d="M21.54,42.99 C21.34,43.22 21.11,43.33 20.83,43.33" fill="currentColor" stroke="currentColor" stroke-width="1.2" stroke-linecap="round" stroke-linejoin="round" />
  <path d="M20.83,43.33 C20.56,43.33 20.32,43.22 20.13,42.99" fill="currentColor" stroke="currentColor" stroke-width="1.2" stroke-linecap="round" stroke-linejoin="round" />
  <path d="M13.73,43.29 C13.94,43.63 14.19,43.88 14.48,44.06" fill="currentColor" stroke="currentColor" stroke-width="1.2" stroke-linecap="round" stroke-linejoin="round" />
  <path d="M16.42,44.06 C16.71,43.88 16.96,43.63 17.17,43.29" fill="currentColor" stroke="currentColor" stroke-width="1.2" stroke-linecap="round" stroke-linejoin="round" />
  <path d="M19.12,43.29 C19.32,43.63 19.57,43.88 19.86,44.06" fill="currentColor" stroke="currentColor" stroke-width="1.2" stroke-linecap="round" stroke-linejoin="round" />
  <path d="M21.80,44.06 C22.09,43.88 22.34,43.63 22.55,43.29" fill="currentColor" stroke="currentColor" stroke-width="1.2" stroke-linecap="round" stroke-linejoin="round" />
  <path d="M14.48,44.06 C14.77,44.24 15.09,44.33 15.45,44.33" fill="currentColor" stroke="currentColor" stroke-width="1.2" stroke-linecap="round" stroke-linejoin="round" />
  <path d="M15.45,44.33 C15.81,44.33 16.13,44.24 16.42,44.06" fill="currentColor" stroke="currentColor" stroke-width="1.2" stroke-linecap="round" stroke-linejoin="round" />
  <path d="M19.86,44.06 C20.15,44.24 20.48,44.33 20.83,44.33" fill="currentColor" stroke="currentColor" stroke-width="1.2" stroke-linecap="round" stroke-linejoin="round" />
  <path d="M20.83,44.33 C21.19,44.33 21.51,44.24 21.80,44.06" fill="currentColor" stroke="currentColor" stroke-width="1.2" stroke-linecap="round" stroke-linejoin="round" />
  <line x1="9.81" y1="44.23" x2="10.91" y2="44.23" fill="currentColor" stroke="currentColor" stroke-width="1.2" stroke-linecap="round" stroke-linejoin="round" />
  <line x1="25.91" y1="59.94" x2="133.97" y2="59.94" fill="none" stroke="currentColor" stroke-width="1.0" stroke-linecap="round" stroke-linejoin="round" />
  <line x1="25.91" y1="78.92" x2="133.97" y2="78.92" fill="none" stroke="currentColor" stroke-width="1.0" stroke-linecap="round" stroke-linejoin="round" />
  <line x1="25.91" y1="97.89" x2="133.97" y2="97.89" fill="none" stroke="currentColor" stroke-width="1.0" stroke-linecap="round" stroke-linejoin="round" />
  <line x1="25.91" y1="116.87" x2="133.97" y2="116.87" fill="none" stroke="currentColor" stroke-width="1.0" stroke-linecap="round" stroke-linejoin="round" />
  <line x1="148.41" y1="131.82" x2="149.76" y2="135.86" fill="currentColor" stroke="currentColor" stroke-width="1.2" stroke-linecap="round" stroke-linejoin="round" />
  <line x1="160.52" y1="135.86" x2="148.41" y2="131.82" fill="currentColor" stroke="currentColor" stroke-width="1.2" stroke-linecap="round" stroke-linejoin="round" />
  <line x1="19.24" y1="135.86" x2="150.43" y2="135.86" fill="none" stroke="currentColor" stroke-width="1.2099999904632568" stroke-linecap="round" stroke-linejoin="round" />
  <line x1="149.76" y1="135.86" x2="148.41" y2="139.90" fill="currentColor" stroke="currentColor" stroke-width="1.2" stroke-linecap="round" stroke-linejoin="round" />
  <line x1="148.41" y1="139.90" x2="160.52" y2="135.86" fill="currentColor" stroke="currentColor" stroke-width="1.2" stroke-linecap="round" stroke-linejoin="round" />
  <line x1="153.34" y1="142.58" x2="152.21" y2="142.58" fill="currentColor" stroke="currentColor" stroke-width="1.2" stroke-linecap="round" stroke-linejoin="round" />
  <line x1="152.21" y1="142.58" x2="150.95" y2="144.20" fill="currentColor" stroke="currentColor" stroke-width="1.2" stroke-linecap="round" stroke-linejoin="round" />
  <line x1="150.95" y1="144.20" x2="150.18" y2="142.58" fill="currentColor" stroke="currentColor" stroke-width="1.2" stroke-linecap="round" stroke-linejoin="round" />
  <line x1="150.18" y1="142.58" x2="149.20" y2="142.58" fill="currentColor" stroke="currentColor" stroke-width="1.2" stroke-linecap="round" stroke-linejoin="round" />
  <line x1="149.20" y1="142.58" x2="150.34" y2="144.85" fill="currentColor" stroke="currentColor" stroke-width="1.2" stroke-linecap="round" stroke-linejoin="round" />
  <line x1="151.39" y1="144.97" x2="153.34" y2="142.58" fill="currentColor" stroke="currentColor" stroke-width="1.2" stroke-linecap="round" stroke-linejoin="round" />
  <line x1="150.34" y1="144.85" x2="148.23" y2="147.41" fill="currentColor" stroke="currentColor" stroke-width="1.2" stroke-linecap="round" stroke-linejoin="round" />
  <path d="M131.07,145.18 C130.78,145.00 130.46,144.91 130.10,144.91" fill="currentColor" stroke="currentColor" stroke-width="1.2" stroke-linecap="round" stroke-linejoin="round" />
  <path d="M130.10,144.91 C129.74,144.91 129.42,145.00 129.13,145.18" fill="currentColor" stroke="currentColor" stroke-width="1.2" stroke-linecap="round" stroke-linejoin="round" />
  <line x1="125.56" y1="152.35" x2="125.56" y2="144.91" fill="currentColor" stroke="currentColor" stroke-width="1.2" stroke-linecap="round" stroke-linejoin="round" />
  <line x1="125.56" y1="144.91" x2="125.16" y2="144.91" fill="currentColor" stroke="currentColor" stroke-width="1.2" stroke-linecap="round" stroke-linejoin="round" />
  <line x1="125.16" y1="144.91" x2="122.65" y2="146.95" fill="currentColor" stroke="currentColor" stroke-width="1.2" stroke-linecap="round" stroke-linejoin="round" />
  <line x1="152.61" y1="147.41" x2="151.39" y2="144.97" fill="currentColor" stroke="currentColor" stroke-width="1.2" stroke-linecap="round" stroke-linejoin="round" />
  <path d="M131.82,145.94 C131.61,145.61 131.36,145.36 131.07,145.18" fill="currentColor" stroke="currentColor" stroke-width="1.2" stroke-linecap="round" stroke-linejoin="round" />
  <path d="M129.13,145.18 C128.84,145.36 128.59,145.61 128.38,145.94" fill="currentColor" stroke="currentColor" stroke-width="1.2" stroke-linecap="round" stroke-linejoin="round" />
  <line x1="149.35" y1="147.41" x2="150.75" y2="145.60" fill="currentColor" stroke="currentColor" stroke-width="1.2" stroke-linecap="round" stroke-linejoin="round" />
  <line x1="150.75" y1="145.60" x2="151.63" y2="147.41" fill="currentColor" stroke="currentColor" stroke-width="1.2" stroke-linecap="round" stroke-linejoin="round" />
  <path d="M129.40,146.24 C129.59,146.02 129.83,145.91 130.10,145.91" fill="currentColor" stroke="currentColor" stroke-width="1.2" stroke-linecap="round" stroke-linejoin="round" />
  <path d="M130.10,145.91 C130.37,145.91 130.61,146.02 130.81,146.24" fill="currentColor" stroke="currentColor" stroke-width="1.2" stroke-linecap="round" stroke-linejoin="round" />
  <path d="M132.30,147.13 C132.19,146.67 132.03,146.28 131.82,145.94" fill="currentColor" stroke="currentColor" stroke-width="1.2" stroke-linecap="round" stroke-linejoin="round" />
  <path d="M128.38,145.94 C128.17,146.28 128.01,146.67 127.90,147.13" fill="currentColor" stroke="currentColor" stroke-width="1.2" stroke-linecap="round" stroke-linejoin="round" />
  <path d="M128.94,147.19 C129.05,146.78 129.20,146.46 129.40,146.24" fill="currentColor" stroke="currentColor" stroke-width="1.2" stroke-linecap="round" stroke-linejoin="round" />
  <path d="M130.81,146.24 C131.00,146.46 131.15,146.78 131.26,147.19" fill="currentColor" stroke="currentColor" stroke-width="1.2" stroke-linecap="round" stroke-linejoin="round" />
  <line x1="123.06" y1="147.87" x2="124.46" y2="146.72" fill="currentColor" stroke="currentColor" stroke-width="1.2" stroke-linecap="round" stroke-linejoin="round" />
  <line x1="124.46" y1="146.72" x2="124.46" y2="152.35" fill="currentColor" stroke="currentColor" stroke-width="1.2" stroke-linecap="round" stroke-linejoin="round" />
  <line x1="122.65" y1="146.95" x2="123.06" y2="147.87" fill="currentColor" stroke="currentColor" stroke-width="1.2" stroke-linecap="round" stroke-linejoin="round" />
  <path d="M132.47,148.68 C132.47,148.11 132.41,147.59 132.30,147.13" fill="currentColor" stroke="currentColor" stroke-width="1.2" stroke-linecap="round" stroke-linejoin="round" />
  <path d="M127.90,147.13 C127.79,147.59 127.73,148.11 127.73,148.68" fill="currentColor" stroke="currentColor" stroke-width="1.2" stroke-linecap="round" stroke-linejoin="round" />
  <path d="M128.79,148.68 C128.79,148.10 128.84,147.61 128.94,147.19" fill="currentColor" stroke="currentColor" stroke-width="1.2" stroke-linecap="round" stroke-linejoin="round" />
  <path d="M131.26,147.19 C131.36,147.61 131.41,148.10 131.42,148.68" fill="currentColor" stroke="currentColor" stroke-width="1.2" stroke-linecap="round" stroke-linejoin="round" />
  <line x1="148.23" y1="147.41" x2="149.35" y2="147.41" fill="currentColor" stroke="currentColor" stroke-width="1.2" stroke-linecap="round" stroke-linejoin="round" />
  <line x1="151.63" y1="147.41" x2="152.61" y2="147.41" fill="currentColor" stroke="currentColor" stroke-width="1.2" stroke-linecap="round" stroke-linejoin="round" />
  <path d="M127.73,148.68 C127.73,149.24 127.79,149.76 127.90,150.22" fill="currentColor" stroke="currentColor" stroke-width="1.2" stroke-linecap="round" stroke-linejoin="round" />
  <path d="M132.30,150.22 C132.41,149.76 132.47,149.24 132.47,148.68" fill="currentColor" stroke="currentColor" stroke-width="1.2" stroke-linecap="round" stroke-linejoin="round" />
  <path d="M131.42,148.68 C131.41,149.25 131.36,149.75 131.26,150.16" fill="currentColor" stroke="currentColor" stroke-width="1.2" stroke-linecap="round" stroke-linejoin="round" />
  <path d="M128.94,150.16 C128.84,149.75 128.79,149.25 128.79,148.68" fill="currentColor" stroke="currentColor" stroke-width="1.2" stroke-linecap="round" stroke-linejoin="round" />
  <path d="M131.26,150.16 C131.15,150.57 131.00,150.89 130.81,151.11" fill="currentColor" stroke="currentColor" stroke-width="1.2" stroke-linecap="round" stroke-linejoin="round" />
  <path d="M129.40,151.11 C129.20,150.89 129.05,150.57 128.94,150.16" fill="currentColor" stroke="currentColor" stroke-width="1.2" stroke-linecap="round" stroke-linejoin="round" />
  <path d="M127.90,150.22 C128.01,150.68 128.17,151.08 128.38,151.41" fill="currentColor" stroke="currentColor" stroke-width="1.2" stroke-linecap="round" stroke-linejoin="round" />
  <path d="M131.82,151.41 C132.03,151.08 132.19,150.68 132.30,150.22" fill="currentColor" stroke="currentColor" stroke-width="1.2" stroke-linecap="round" stroke-linejoin="round" />
  <path d="M130.81,151.11 C130.61,151.33 130.37,151.44 130.10,151.44" fill="currentColor" stroke="currentColor" stroke-width="1.2" stroke-linecap="round" stroke-linejoin="round" />
  <path d="M130.10,151.44 C129.83,151.44 129.59,151.33 129.40,151.11" fill="currentColor" stroke="currentColor" stroke-width="1.2" stroke-linecap="round" stroke-linejoin="round" />
  <path d="M128.38,151.41 C128.59,151.74 128.84,152.00 129.13,152.17" fill="currentColor" stroke="currentColor" stroke-width="1.2" stroke-linecap="round" stroke-linejoin="round" />
  <path d="M131.07,152.17 C131.36,152.00 131.61,151.74 131.82,151.41" fill="currentColor" stroke="currentColor" stroke-width="1.2" stroke-linecap="round" stroke-linejoin="round" />
  <path d="M129.13,152.17 C129.42,152.35 129.74,152.44 130.10,152.44" fill="currentColor" stroke="currentColor" stroke-width="1.2" stroke-linecap="round" stroke-linejoin="round" />
  <path d="M130.10,152.44 C130.46,152.44 130.78,152.35 131.07,152.17" fill="currentColor" stroke="currentColor" stroke-width="1.2" stroke-linecap="round" stroke-linejoin="round" />
  <line x1="124.46" y1="152.35" x2="125.56" y2="152.35" fill="currentColor" stroke="currentColor" stroke-width="1.2" stroke-linecap="round" stroke-linejoin="round" />
</svg>