<svg xmlns="http://www.w3.org/2000/svg" viewBox="0 0 172.94 172.85" preserveAspectRatio="xMidYMid meet" shape-rendering="geometricPrecision" text-rendering="optimizeLegibility">
  <path d="M36.52,35.55 C64.60,8.00 109.75,8.43 137.30,36.52" fill="none" stroke="currentColor" stroke-width="1.0" stroke-linecap="round" stroke-linejoin="round" />
  <line x1="140.42" y1="27.76" x2="138.44" y2="27.76" fill="currentColor" stroke="currentColor" stroke-width="1.2" stroke-linecap="round" stroke-linejoin="round" />
  <line x1="81.87" y1="27.83" x2="81.18" y2="27.83" fill="currentColor" stroke="currentColor" stroke-width="1.2" stroke-linecap="round" stroke-linejoin="round" />
  <path d="M141.37,27.91 C141.10,27.81 140.79,27.76 140.42,27.76" fill="currentColor" stroke="currentColor" stroke-width="1.2" stroke-linecap="round" stroke-linejoin="round" />
  <path d="M142.02,28.31 C141.85,28.14 141.64,28.01 141.37,27.91" fill="currentColor" stroke="currentColor" stroke-width="1.2" stroke-linecap="round" stroke-linejoin="round" />
  <path d="M142.40,28.86 C142.32,28.66 142.19,28.47 142.02,28.31" fill="currentColor" stroke="currentColor" stroke-width="1.2" stroke-linecap="round" stroke-linejoin="round" />
  <line x1="139.42" y1="28.64" x2="140.32" y2="28.64" fill="currentColor" stroke="currentColor" stroke-width="1.2" stroke-linecap="round" stroke-linejoin="round" />
  <path d="M140.32,28.64 C140.62,28.64 140.86,28.68 141.03,28.77" fill="currentColor" stroke="currentColor" stroke-width="1.2" stroke-linecap="round" stroke-linejoin="round" />
  <path d="M141.03,28.77 C141.20,28.86 141.33,28.97 141.40,29.12" fill="currentColor" stroke="currentColor" stroke-width="1.2" stroke-linecap="round" stroke-linejoin="round" />
  <path d="M142.52,29.50 C142.52,29.28 142.48,29.07 142.40,28.86" fill="currentColor" stroke="currentColor" stroke-width="1.2" stroke-linecap="round" stroke-linejoin="round" />
  <path d="M141.40,29.12 C141.48,29.26 141.51,29.42 141.51,29.59" fill="currentColor" stroke="currentColor" stroke-width="1.2" stroke-linecap="round" stroke-linejoin="round" />
  <line x1="139.42" y1="30.68" x2="139.42" y2="28.64" fill="currentColor" stroke="currentColor" stroke-width="1.2" stroke-linecap="round" stroke-linejoin="round" />
  <path d="M142.27,30.39 C142.44,30.15 142.52,29.85 142.52,29.50" fill="currentColor" stroke="currentColor" stroke-width="1.2" stroke-linecap="round" stroke-linejoin="round" />
  <path d="M141.51,29.59 C141.51,29.95 141.39,30.23 141.16,30.41" fill="currentColor" stroke="currentColor" stroke-width="1.2" stroke-linecap="round" stroke-linejoin="round" />
  <path d="M141.16,30.41 C140.92,30.59 140.56,30.68 140.07,30.68" fill="currentColor" stroke="currentColor" stroke-width="1.2" stroke-linecap="round" stroke-linejoin="round" />
  <line x1="81.51" y1="29.33" x2="82.61" y2="31.80" fill="currentColor" stroke="currentColor" stroke-width="1.2" stroke-linecap="round" stroke-linejoin="round" />
  <line x1="80.49" y1="31.80" x2="81.51" y2="29.33" fill="currentColor" stroke="currentColor" stroke-width="1.2" stroke-linecap="round" stroke-linejoin="round" />
  <path d="M141.48,30.96 C141.83,30.82 142.10,30.62 142.27,30.39" fill="currentColor" stroke="currentColor" stroke-width="1.2" stroke-linecap="round" stroke-linejoin="round" />
  <line x1="140.07" y1="30.68" x2="139.42" y2="30.68" fill="currentColor" stroke="currentColor" stroke-width="1.2" stroke-linecap="round" stroke-linejoin="round" />
  <line x1="141.48" y1="30.98" x2="141.48" y2="30.96" fill="currentColor" stroke="currentColor" stroke-width="1.2" stroke-linecap="round" stroke-linejoin="round" />
  <path d="M142.36,31.32 C142.11,31.16 141.82,31.04 141.48,30.98" fill="currentColor" stroke="currentColor" stroke-width="1.2" stroke-linecap="round" stroke-linejoin="round" />
  <line x1="138.44" y1="27.76" x2="138.44" y2="34.58" fill="currentColor" stroke="currentColor" stroke-width="1.2" stroke-linecap="round" stroke-linejoin="round" />
  <line x1="81.18" y1="27.83" x2="78.25" y2="34.69" fill="currentColor" stroke="currentColor" stroke-width="1.2" stroke-linecap="round" stroke-linejoin="round" />
  <line x1="84.92" y1="34.69" x2="81.87" y2="27.83" fill="currentColor" stroke="currentColor" stroke-width="1.2" stroke-linecap="round" stroke-linejoin="round" />
  <line x1="139.42" y1="31.56" x2="140.60" y2="31.56" fill="currentColor" stroke="currentColor" stroke-width="1.2" stroke-linecap="round" stroke-linejoin="round" />
  <path d="M142.92,31.93 C142.79,31.69 142.60,31.48 142.36,31.32" fill="currentColor" stroke="currentColor" stroke-width="1.2" stroke-linecap="round" stroke-linejoin="round" />
  <path d="M140.60,31.56 C140.94,31.56 141.23,31.61 141.45,31.70" fill="currentColor" stroke="currentColor" stroke-width="1.2" stroke-linecap="round" stroke-linejoin="round" />
  <line x1="82.61" y1="31.80" x2="80.49" y2="31.80" fill="currentColor" stroke="currentColor" stroke-width="1.2" stroke-linecap="round" stroke-linejoin="round" />
  <path d="M141.45,31.70 C141.67,31.78 141.84,31.91 141.95,32.07" fill="currentColor" stroke="currentColor" stroke-width="1.2" stroke-linecap="round" stroke-linejoin="round" />
  <path d="M141.95,32.07 C142.06,32.23 142.11,32.41 142.11,32.62" fill="currentColor" stroke="currentColor" stroke-width="1.2" stroke-linecap="round" stroke-linejoin="round" />
  <path d="M143.12,32.76 C143.12,32.45 143.05,32.17 142.92,31.93" fill="currentColor" stroke="currentColor" stroke-width="1.2" stroke-linecap="round" stroke-linejoin="round" />
  <line x1="139.42" y1="33.70" x2="139.42" y2="31.56" fill="currentColor" stroke="currentColor" stroke-width="1.2" stroke-linecap="round" stroke-linejoin="round" />
  <line x1="80.11" y1="32.68" x2="83.01" y2="32.68" fill="currentColor" stroke="currentColor" stroke-width="1.2" stroke-linecap="round" stroke-linejoin="round" />
  <path d="M142.11,32.62 C142.11,32.79 142.07,32.96 141.99,33.13" fill="currentColor" stroke="currentColor" stroke-width="1.2" stroke-linecap="round" stroke-linejoin="round" />
  <path d="M143.00,33.40 C143.08,33.18 143.12,32.97 143.12,32.76" fill="currentColor" stroke="currentColor" stroke-width="1.2" stroke-linecap="round" stroke-linejoin="round" />
  <path d="M141.99,33.13 C141.90,33.29 141.75,33.43 141.54,33.53" fill="currentColor" stroke="currentColor" stroke-width="1.2" stroke-linecap="round" stroke-linejoin="round" />
  <path d="M141.54,33.53 C141.33,33.64 141.03,33.70 140.65,33.70" fill="currentColor" stroke="currentColor" stroke-width="1.2" stroke-linecap="round" stroke-linejoin="round" />
  <line x1="79.25" y1="34.69" x2="80.11" y2="32.68" fill="currentColor" stroke="currentColor" stroke-width="1.2" stroke-linecap="round" stroke-linejoin="round" />
  <line x1="83.01" y1="32.68" x2="83.92" y2="34.69" fill="currentColor" stroke="currentColor" stroke-width="1.2" stroke-linecap="round" stroke-linejoin="round" />
  <path d="M142.59,33.98 C142.78,33.81 142.91,33.61 143.00,33.40" fill="currentColor" stroke="currentColor" stroke-width="1.2" stroke-linecap="round" stroke-linejoin="round" />
  <line x1="140.65" y1="33.70" x2="139.42" y2="33.70" fill="currentColor" stroke="currentColor" stroke-width="1.2" stroke-linecap="round" stroke-linejoin="round" />
  <path d="M141.87,34.41 C142.17,34.30 142.41,34.16 142.59,33.98" fill="currentColor" stroke="currentColor" stroke-width="1.2" stroke-linecap="round" stroke-linejoin="round" />
  <path d="M140.78,34.58 C141.21,34.57 141.57,34.52 141.87,34.41" fill="currentColor" stroke="currentColor" stroke-width="1.2" stroke-linecap="round" stroke-linejoin="round" />
  <line x1="138.44" y1="34.58" x2="140.78" y2="34.58" fill="currentColor" stroke="currentColor" stroke-width="1.2" stroke-linecap="round" stroke-linejoin="round" />
  <line x1="78.25" y1="34.69" x2="79.25" y2="34.69" fill="currentColor" stroke="currentColor" stroke-width="1.2" stroke-linecap="round" stroke-linejoin="round" />
  <line x1="83.92" y1="34.69" x2="84.92" y2="34.69" fill="currentColor" stroke="currentColor" stroke-width="1.2" stroke-linecap="round" stroke-linejoin="round" />
  <rect x="86.43" y="36.32" width="50.10" height="50.10" fill="none" stroke="currentColor" stroke-width="1.0" stroke-linecap="round" stroke-linejoin="round" />
  <line x1="86.43" y1="36.33" x2="136.58" y2="86.43" fill="none" stroke="currentColor" stroke-width="1.0" stroke-linecap="round" stroke-linejoin="round" />
  <line x1="162.77" y1="82.48" x2="160.64" y2="82.48" fill="currentColor" stroke="currentColor" stroke-width="1.2" stroke-linecap="round" stroke-linejoin="round" />
  <path d="M163.73,82.64 C163.46,82.53 163.14,82.48 162.77,82.48" fill="currentColor" stroke="currentColor" stroke-width="1.2" stroke-linecap="round" stroke-linejoin="round" />
  <path d="M164.41,83.06 C164.23,82.88 164.01,82.74 163.73,82.64" fill="currentColor" stroke="currentColor" stroke-width="1.2" stroke-linecap="round" stroke-linejoin="round" />
  <line x1="161.62" y1="83.36" x2="162.77" y2="83.36" fill="currentColor" stroke="currentColor" stroke-width="1.2" stroke-linecap="round" stroke-linejoin="round" />
  <path d="M164.81,83.68 C164.72,83.44 164.59,83.23 164.41,83.06" fill="currentColor" stroke="currentColor" stroke-width="1.2" stroke-linecap="round" stroke-linejoin="round" />
  <path d="M162.77,83.36 C163.06,83.36 163.29,83.42 163.46,83.52" fill="currentColor" stroke="currentColor" stroke-width="1.2" stroke-linecap="round" stroke-linejoin="round" />
  <path d="M163.46,83.52 C163.63,83.62 163.75,83.75 163.82,83.91" fill="currentColor" stroke="currentColor" stroke-width="1.2" stroke-linecap="round" stroke-linejoin="round" />
  <path d="M164.94,84.44 C164.94,84.17 164.89,83.91 164.81,83.68" fill="currentColor" stroke="currentColor" stroke-width="1.2" stroke-linecap="round" stroke-linejoin="round" />
  <path d="M163.82,83.91 C163.89,84.07 163.93,84.23 163.93,84.40" fill="currentColor" stroke="currentColor" stroke-width="1.2" stroke-linecap="round" stroke-linejoin="round" />
  <line x1="161.62" y1="85.47" x2="161.62" y2="83.36" fill="currentColor" stroke="currentColor" stroke-width="1.2" stroke-linecap="round" stroke-linejoin="round" />
  <path d="M163.93,84.40 C163.92,84.63 163.88,84.82 163.78,84.98" fill="currentColor" stroke="currentColor" stroke-width="1.2" stroke-linecap="round" stroke-linejoin="round" />
  <path d="M164.69,85.41 C164.85,85.12 164.94,84.80 164.94,84.44" fill="currentColor" stroke="currentColor" stroke-width="1.2" stroke-linecap="round" stroke-linejoin="round" />
  <path d="M163.78,84.98 C163.68,85.14 163.54,85.26 163.36,85.34" fill="currentColor" stroke="currentColor" stroke-width="1.2" stroke-linecap="round" stroke-linejoin="round" />
  <path d="M163.36,85.34 C163.18,85.43 162.97,85.47 162.73,85.47" fill="currentColor" stroke="currentColor" stroke-width="1.2" stroke-linecap="round" stroke-linejoin="round" />
  <line x1="162.73" y1="85.47" x2="161.62" y2="85.47" fill="currentColor" stroke="currentColor" stroke-width="1.2" stroke-linecap="round" stroke-linejoin="round" />
  <path d="M163.94,86.09 C164.27,85.92 164.53,85.70 164.69,85.41" fill="currentColor" stroke="currentColor" stroke-width="1.2" stroke-linecap="round" stroke-linejoin="round" />
  <line x1="160.64" y1="82.48" x2="160.64" y2="89.30" fill="currentColor" stroke="currentColor" stroke-width="1.2" stroke-linecap="round" stroke-linejoin="round" />
  <path d="M35.55,136.33 C8.00,108.25 8.43,63.10 36.52,35.55" fill="none" stroke="currentColor" stroke-width="1.0" stroke-linecap="round" stroke-linejoin="round" />
  <path d="M162.64,86.35 C163.16,86.34 163.60,86.26 163.94,86.09" fill="currentColor" stroke="currentColor" stroke-width="1.2" stroke-linecap="round" stroke-linejoin="round" />
  <line x1="161.62" y1="86.35" x2="162.64" y2="86.35" fill="currentColor" stroke="currentColor" stroke-width="1.2" stroke-linecap="round" stroke-linejoin="round" />
  <line x1="136.54" y1="86.43" x2="157.69" y2="86.43" fill="none" stroke="currentColor" stroke-width="1.0" stroke-linecap="round" stroke-linejoin="round" />
  <path d="M137.30,36.52 C164.85,64.60 164.42,109.75 136.33,137.30" fill="none" stroke="currentColor" stroke-width="1.0" stroke-linecap="round" stroke-linejoin="round" />
  <line x1="161.62" y1="89.30" x2="161.62" y2="86.35" fill="currentColor" stroke="currentColor" stroke-width="1.2" stroke-linecap="round" stroke-linejoin="round" />
  <line x1="160.64" y1="89.30" x2="161.62" y2="89.30" fill="currentColor" stroke="currentColor" stroke-width="1.2" stroke-linecap="round" stroke-linejoin="round" />
  <path d="M140.08,89.55 C139.84,89.51 139.60,89.49 139.37,89.49" fill="currentColor" stroke="currentColor" stroke-width="1.2" stroke-linecap="round" stroke-linejoin="round" />
  <path d="M139.37,89.49 C138.83,89.50 138.33,89.59 137.87,89.76" fill="currentColor" stroke="currentColor" stroke-width="1.2" stroke-linecap="round" stroke-linejoin="round" />
  <path d="M140.85,89.73 C140.58,89.65 140.33,89.59 140.08,89.55" fill="currentColor" stroke="currentColor" stroke-width="1.2" stroke-linecap="round" stroke-linejoin="round" />
  <line x1="80.90" y1="89.71" x2="78.25" y2="89.71" fill="currentColor" stroke="currentColor" stroke-width="1.2" stroke-linecap="round" stroke-linejoin="round" />
  <path d="M82.25,89.91 C81.86,89.78 81.41,89.71 80.90,89.71" fill="currentColor" stroke="currentColor" stroke-width="1.2" stroke-linecap="round" stroke-linejoin="round" />
  <path d="M141.71,90.05 C141.40,89.92 141.11,89.82 140.85,89.73" fill="currentColor" stroke="currentColor" stroke-width="1.2" stroke-linecap="round" stroke-linejoin="round" />
  <path d="M137.87,89.76 C137.42,89.94 137.02,90.19 136.69,90.51" fill="currentColor" stroke="currentColor" stroke-width="1.2" stroke-linecap="round" stroke-linejoin="round" />
  <path d="M83.27,90.44 C82.98,90.22 82.64,90.04 82.25,89.91" fill="currentColor" stroke="currentColor" stroke-width="1.2" stroke-linecap="round" stroke-linejoin="round" />
  <path d="M139.36,90.39 C139.75,90.39 140.14,90.45 140.52,90.56" fill="currentColor" stroke="currentColor" stroke-width="1.2" stroke-linecap="round" stroke-linejoin="round" />
  <path d="M138.28,90.59 C138.61,90.46 138.97,90.40 139.36,90.39" fill="currentColor" stroke="currentColor" stroke-width="1.2" stroke-linecap="round" stroke-linejoin="round" />
  <line x1="141.71" y1="91.10" x2="141.71" y2="90.05" fill="currentColor" stroke="currentColor" stroke-width="1.2" stroke-linecap="round" stroke-linejoin="round" />
  <line x1="79.23" y1="90.59" x2="80.74" y2="90.59" fill="currentColor" stroke="currentColor" stroke-width="1.2" stroke-linecap="round" stroke-linejoin="round" />
  <path d="M80.74,90.59 C81.22,90.59 81.64,90.66 81.98,90.79" fill="currentColor" stroke="currentColor" stroke-width="1.2" stroke-linecap="round" stroke-linejoin="round" />
  <path d="M83.98,91.22 C83.80,90.93 83.56,90.67 83.27,90.44" fill="currentColor" stroke="currentColor" stroke-width="1.2" stroke-linecap="round" stroke-linejoin="round" />
  <path d="M140.52,90.56 C140.90,90.68 141.30,90.86 141.71,91.10" fill="currentColor" stroke="currentColor" stroke-width="1.2" stroke-linecap="round" stroke-linejoin="round" />
  <path d="M137.42,91.14 C137.66,90.90 137.95,90.72 138.28,90.59" fill="currentColor" stroke="currentColor" stroke-width="1.2" stroke-linecap="round" stroke-linejoin="round" />
  <path d="M81.98,90.79 C82.33,90.92 82.62,91.10 82.85,91.34" fill="currentColor" stroke="currentColor" stroke-width="1.2" stroke-linecap="round" stroke-linejoin="round" />
  <path d="M136.69,90.51 C136.35,90.84 136.09,91.22 135.91,91.65" fill="currentColor" stroke="currentColor" stroke-width="1.2" stroke-linecap="round" stroke-linejoin="round" />
  <path d="M136.85,91.96 C136.98,91.65 137.17,91.37 137.42,91.14" fill="currentColor" stroke="currentColor" stroke-width="1.2" stroke-linecap="round" stroke-linejoin="round" />
  <path d="M84.40,92.14 C84.31,91.82 84.17,91.51 83.98,91.22" fill="currentColor" stroke="currentColor" stroke-width="1.2" stroke-linecap="round" stroke-linejoin="round" />
  <path d="M82.85,91.34 C83.08,91.57 83.25,91.84 83.36,92.14" fill="currentColor" stroke="currentColor" stroke-width="1.2" stroke-linecap="round" stroke-linejoin="round" />
  <path d="M135.91,91.65 C135.73,92.09 135.64,92.57 135.63,93.09" fill="currentColor" stroke="currentColor" stroke-width="1.2" stroke-linecap="round" stroke-linejoin="round" />
  <path d="M136.64,93.00 C136.64,92.63 136.71,92.28 136.85,91.96" fill="currentColor" stroke="currentColor" stroke-width="1.2" stroke-linecap="round" stroke-linejoin="round" />
  <path d="M84.54,93.12 C84.54,92.79 84.49,92.47 84.40,92.14" fill="currentColor" stroke="currentColor" stroke-width="1.2" stroke-linecap="round" stroke-linejoin="round" />
  <path d="M83.36,92.14 C83.47,92.45 83.53,92.77 83.53,93.12" fill="currentColor" stroke="currentColor" stroke-width="1.2" stroke-linecap="round" stroke-linejoin="round" />
  <line x1="78.25" y1="89.71" x2="78.25" y2="96.53" fill="currentColor" stroke="currentColor" stroke-width="1.2" stroke-linecap="round" stroke-linejoin="round" />
  <line x1="79.23" y1="95.65" x2="79.23" y2="90.59" fill="currentColor" stroke="currentColor" stroke-width="1.2" stroke-linecap="round" stroke-linejoin="round" />
  <path d="M83.53,93.12 C83.53,93.29 83.50,93.48 83.45,93.70" fill="currentColor" stroke="currentColor" stroke-width="1.2" stroke-linecap="round" stroke-linejoin="round" />
  <path d="M135.63,93.09 C135.63,93.38 135.68,93.68 135.77,94.00" fill="currentColor" stroke="currentColor" stroke-width="1.2" stroke-linecap="round" stroke-linejoin="round" />
  <path d="M84.37,94.14 C84.48,93.81 84.53,93.47 84.54,93.12" fill="currentColor" stroke="currentColor" stroke-width="1.2" stroke-linecap="round" stroke-linejoin="round" />
  <path d="M136.99,94.35 C136.76,93.97 136.65,93.52 136.64,93.00" fill="currentColor" stroke="currentColor" stroke-width="1.2" stroke-linecap="round" stroke-linejoin="round" />
  <path d="M83.45,93.70 C83.41,93.92 83.32,94.14 83.20,94.37" fill="currentColor" stroke="currentColor" stroke-width="1.2" stroke-linecap="round" stroke-linejoin="round" />
  <path d="M135.77,94.00 C135.86,94.31 136.00,94.61 136.19,94.91" fill="currentColor" stroke="currentColor" stroke-width="1.2" stroke-linecap="round" stroke-linejoin="round" />
  <path d="M83.91,95.07 C84.11,94.79 84.27,94.48 84.37,94.14" fill="currentColor" stroke="currentColor" stroke-width="1.2" stroke-linecap="round" stroke-linejoin="round" />
  <path d="M83.20,94.37 C83.09,94.60 82.92,94.81 82.72,95.00" fill="currentColor" stroke="currentColor" stroke-width="1.2" stroke-linecap="round" stroke-linejoin="round" />
  <path d="M137.96,95.26 C137.54,95.04 137.22,94.74 136.99,94.35" fill="currentColor" stroke="currentColor" stroke-width="1.2" stroke-linecap="round" stroke-linejoin="round" />
  <path d="M141.78,94.82 C141.39,95.07 141.00,95.26 140.59,95.39" fill="currentColor" stroke="currentColor" stroke-width="1.2" stroke-linecap="round" stroke-linejoin="round" />
  <path d="M82.72,95.00 C82.51,95.19 82.25,95.35 81.93,95.46" fill="currentColor" stroke="currentColor" stroke-width="1.2" stroke-linecap="round" stroke-linejoin="round" />
  <path d="M136.19,94.91 C136.38,95.20 136.62,95.47 136.91,95.71" fill="currentColor" stroke="currentColor" stroke-width="1.2" stroke-linecap="round" stroke-linejoin="round" />
  <line x1="141.78" y1="95.89" x2="141.78" y2="94.82" fill="currentColor" stroke="currentColor" stroke-width="1.2" stroke-linecap="round" stroke-linejoin="round" />
  <path d="M139.40,95.59 C138.85,95.59 138.37,95.48 137.96,95.26" fill="currentColor" stroke="currentColor" stroke-width="1.2" stroke-linecap="round" stroke-linejoin="round" />
  <path d="M83.16,95.83 C83.46,95.61 83.70,95.36 83.91,95.07" fill="currentColor" stroke="currentColor" stroke-width="1.2" stroke-linecap="round" stroke-linejoin="round" />
  <path d="M140.59,95.39 C140.19,95.53 139.79,95.59 139.40,95.59" fill="currentColor" stroke="currentColor" stroke-width="1.2" stroke-linecap="round" stroke-linejoin="round" />
  <path d="M81.93,95.46 C81.62,95.58 81.24,95.64 80.79,95.65" fill="currentColor" stroke="currentColor" stroke-width="1.2" stroke-linecap="round" stroke-linejoin="round" />
  <line x1="80.79" y1="95.65" x2="79.23" y2="95.65" fill="currentColor" stroke="currentColor" stroke-width="1.2" stroke-linecap="round" stroke-linejoin="round" />
  <path d="M136.91,95.71 C137.20,95.95 137.55,96.13 137.95,96.28" fill="currentColor" stroke="currentColor" stroke-width="1.2" stroke-linecap="round" stroke-linejoin="round" />
  <path d="M141.08,96.20 C141.33,96.11 141.56,96.01 141.78,95.89" fill="currentColor" stroke="currentColor" stroke-width="1.2" stroke-linecap="round" stroke-linejoin="round" />
  <path d="M82.16,96.34 C82.53,96.22 82.87,96.05 83.16,95.83" fill="currentColor" stroke="currentColor" stroke-width="1.2" stroke-linecap="round" stroke-linejoin="round" />
  <path d="M140.28,96.41 C140.57,96.36 140.84,96.29 141.08,96.20" fill="currentColor" stroke="currentColor" stroke-width="1.2" stroke-linecap="round" stroke-linejoin="round" />
  <path d="M137.95,96.28 C138.35,96.42 138.80,96.49 139.31,96.49" fill="currentColor" stroke="currentColor" stroke-width="1.2" stroke-linecap="round" stroke-linejoin="round" />
  <path d="M80.92,96.53 C81.36,96.52 81.78,96.46 82.16,96.34" fill="currentColor" stroke="currentColor" stroke-width="1.2" stroke-linecap="round" stroke-linejoin="round" />
  <path d="M139.31,96.49 C139.67,96.49 139.99,96.47 140.28,96.41" fill="currentColor" stroke="currentColor" stroke-width="1.2" stroke-linecap="round" stroke-linejoin="round" />
  <line x1="78.25" y1="96.53" x2="80.92" y2="96.53" fill="currentColor" stroke="currentColor" stroke-width="1.2" stroke-linecap="round" stroke-linejoin="round" />
  <path d="M136.33,137.30 C108.25,164.85 63.10,164.42 35.55,136.33" fill="none" stroke="currentColor" stroke-width="1.0" stroke-linecap="round" stroke-linejoin="round" />
</svg>