<svg xmlns="http://www.w3.org/2000/svg" viewBox="0 0 284.96 90.24" preserveAspectRatio="xMidYMid meet" shape-rendering="geometricPrecision" text-rendering="optimizeLegibility">
  <rect x="14.39" y="50.53" width="14.17" height="14.17" fill="none" stroke="currentColor" stroke-width="1.2" stroke-linecap="round" stroke-linejoin="round" />
  <rect x="71.08" y="50.53" width="14.17" height="14.17" fill="none" stroke="currentColor" stroke-width="1.2" stroke-linecap="round" stroke-linejoin="round" />
  <rect x="56.90" y="50.53" width="14.17" height="14.17" fill="none" stroke="currentColor" stroke-width="1.2" stroke-linecap="round" stroke-linejoin="round" />
  <rect x="71.08" y="36.35" width="14.17" height="14.17" fill="none" stroke="currentColor" stroke-width="1.2" stroke-linecap="round" stroke-linejoin="round" />
  <rect x="141.95" y="50.53" width="14.17" height="14.17" fill="none" stroke="currentColor" stroke-width="1.2" stroke-linecap="round" stroke-linejoin="round" />
  <rect x="127.78" y="50.53" width="14.17" height="14.17" fill="none" stroke="currentColor" stroke-width="1.2" stroke-linecap="round" stroke-linejoin="round" />
  <rect x="141.95" y="36.35" width="14.17" height="14.17" fill="none" stroke="currentColor" stroke-width="1.2" stroke-linecap="round" stroke-linejoin="round" />
  <rect x="113.60" y="50.53" width="14.17" height="14.17" fill="none" stroke="currentColor" stroke-width="1.2" stroke-linecap="round" stroke-linejoin="round" />
  <rect x="141.95" y="22.17" width="14.17" height="14.17" fill="none" stroke="currentColor" stroke-width="1.2" stroke-linecap="round" stroke-linejoin="round" />
  <rect x="227.00" y="50.53" width="14.17" height="14.17" fill="none" stroke="currentColor" stroke-width="1.2" stroke-linecap="round" stroke-linejoin="round" />
  <rect x="212.83" y="50.53" width="14.17" height="14.17" fill="none" stroke="currentColor" stroke-width="1.2" stroke-linecap="round" stroke-linejoin="round" />
  <rect x="227.00" y="36.35" width="14.17" height="14.17" fill="none" stroke="currentColor" stroke-width="1.2" stroke-linecap="round" stroke-linejoin="round" />
  <rect x="198.65" y="50.53" width="14.17" height="14.17" fill="none" stroke="currentColor" stroke-width="1.2" stroke-linecap="round" stroke-linejoin="round" />
  <rect x="227.00" y="22.17" width="14.17" height="14.17" fill="none" stroke="currentColor" stroke-width="1.2" stroke-linecap="round" stroke-linejoin="round" />
  <rect x="184.48" y="50.53" width="14.17" height="14.17" fill="none" stroke="currentColor" stroke-width="1.2" stroke-linecap="round" stroke-linejoin="round" />
  <rect x="227.00" y="8.00" width="14.17" height="14.17" fill="none" stroke="currentColor" stroke-width="1.2" stroke-linecap="round" stroke-linejoin="round" />
  <path d="M12.00,72.14L8.00,72.14L8.00,79.64L9.08,79.64L9.08,76.15L12.00,76.15L12.00,75.19L9.08,75.19L9.08,73.11L12.00,73.11L12.00,72.14Z" fill="currentColor" stroke="currentColor" stroke-width="1.2" stroke-linejoin="round" />
  <path d="M13.04,74.70H14.02V79.64H13.04ZM14.12,73.21C14.12,73.05 14.06,72.91 13.95,72.80C13.84,72.69 13.70,72.63 13.54,72.63C13.37,72.63 13.24,72.69 13.13,72.80C13.02,72.91 12.96,73.05 12.96,73.21C12.96,73.37 13.02,73.51 13.13,73.62C13.24,73.73 13.37,73.79 13.54,73.79C13.70,73.79 13.84,73.73 13.95,73.62C14.06,73.51 14.12,73.37 14.12,73.21Z" fill="currentColor" stroke="currentColor" stroke-width="1.2" stroke-linejoin="round" />
  <path d="M19.37,74.70L17.33,74.70C16.89,74.71 16.51,74.78 16.18,74.91C15.86,75.05 15.62,75.24 15.44,75.50C15.27,75.75 15.18,76.06 15.18,76.41C15.18,76.77 15.27,77.08 15.44,77.33C15.63,77.60 15.91,77.81 16.27,77.96L16.27,77.98C16.03,78.04 15.84,78.13 15.70,78.25C15.56,78.38 15.49,78.52 15.49,78.69C15.49,78.79 15.53,78.90 15.61,79.00C15.69,79.11 15.81,79.21 15.98,79.31C15.55,79.42 15.24,79.58 15.04,79.80C14.84,80.02 14.74,80.31 14.74,80.68C14.74,80.97 14.84,81.23 15.03,81.45C15.23,81.67 15.49,81.85 15.83,81.98C16.17,82.10 16.57,82.17 17.02,82.17C17.50,82.17 17.92,82.11 18.27,81.98C18.62,81.86 18.88,81.68 19.07,81.44C19.25,81.21 19.34,80.93 19.35,80.60C19.35,80.39 19.30,80.19 19.21,80.01C19.12,79.83 18.97,79.67 18.76,79.53C18.55,79.40 18.27,79.30 17.92,79.22C17.42,79.13 17.05,79.03 16.79,78.93C16.54,78.84 16.41,78.72 16.41,78.59C16.41,78.47 16.46,78.39 16.56,78.33C16.65,78.28 16.77,78.24 16.93,78.21C17.08,78.18 17.24,78.15 17.42,78.12C17.60,78.08 17.78,78.03 17.95,77.96C18.12,77.89 18.28,77.79 18.41,77.65C18.49,77.57 18.56,77.47 18.64,77.35C18.70,77.23 18.76,77.10 18.81,76.96C18.85,76.82 18.87,76.68 18.87,76.54C18.87,76.40 18.86,76.28 18.83,76.16C18.79,76.05 18.74,75.93 18.66,75.82C18.59,75.71 18.48,75.59 18.36,75.46L19.37,75.46L19.37,74.70ZM17.99,76.42C17.99,76.60 17.95,76.76 17.87,76.90C17.79,77.04 17.68,77.15 17.54,77.22C17.40,77.30 17.23,77.34 17.05,77.34C16.75,77.34 16.51,77.26 16.33,77.09C16.15,76.93 16.06,76.71 16.06,76.44C16.06,76.28 16.11,76.13 16.19,75.99C16.28,75.86 16.40,75.75 16.54,75.67C16.69,75.59 16.86,75.55 17.04,75.55C17.21,75.55 17.37,75.59 17.51,75.67C17.66,75.75 17.78,75.85 17.86,75.98C17.95,76.11 17.99,76.26 17.99,76.42ZM18.40,80.68C18.40,80.90 18.28,81.08 18.04,81.20C17.81,81.33 17.47,81.39 17.04,81.39C16.59,81.39 16.25,81.33 16.02,81.20C15.78,81.07 15.66,80.88 15.66,80.63C15.66,80.48 15.71,80.35 15.81,80.24C15.90,80.13 16.03,80.04 16.20,79.98C16.37,79.92 16.56,79.89 16.78,79.88C16.94,79.88 17.11,79.90 17.29,79.92C17.48,79.94 17.65,79.99 17.82,80.05C17.99,80.10 18.13,80.18 18.23,80.29C18.34,80.39 18.40,80.52 18.40,80.68Z" fill="currentColor" stroke="currentColor" stroke-width="1.2" stroke-linejoin="round" />
  <path d="M24.24,79.64L24.24,74.70L23.26,74.70L23.26,78.24C23.10,78.46 22.92,78.63 22.72,78.75C22.52,78.87 22.31,78.93 22.08,78.93C21.75,78.93 21.50,78.83 21.33,78.64C21.16,78.46 21.07,78.19 21.07,77.84L21.07,74.70L20.09,74.70L20.09,77.77C20.10,78.19 20.17,78.55 20.31,78.84C20.46,79.13 20.66,79.36 20.91,79.51C21.17,79.66 21.46,79.74 21.80,79.74C21.96,79.74 22.13,79.71 22.30,79.65C22.47,79.59 22.64,79.51 22.81,79.40C22.97,79.29 23.12,79.16 23.26,79.02L23.26,79.64L24.24,79.64Z" fill="currentColor" stroke="currentColor" stroke-width="1.2" stroke-linejoin="round" />
  <path d="M25.69,74.70L25.69,79.64L26.67,79.64L26.67,77.06C26.67,76.77 26.73,76.51 26.83,76.29C26.94,76.06 27.08,75.88 27.26,75.74C27.44,75.61 27.64,75.54 27.87,75.54C27.95,75.54 28.04,75.56 28.14,75.60C28.25,75.64 28.35,75.70 28.47,75.77C28.58,75.84 28.68,75.93 28.78,76.02L29.30,75.18C29.10,74.98 28.90,74.84 28.71,74.75C28.51,74.65 28.32,74.60 28.12,74.60C27.89,74.60 27.66,74.70 27.42,74.89C27.18,75.09 26.94,75.40 26.69,75.84L26.67,75.84L26.67,74.70L25.69,74.70Z" fill="currentColor" stroke="currentColor" stroke-width="1.2" stroke-linejoin="round" />
  <path d="M35.95,79.64L35.95,72.04L35.55,72.04L32.98,74.13L33.40,75.07L34.83,73.89L34.83,79.64L35.95,79.64Z" fill="currentColor" stroke="currentColor" stroke-width="1.2" stroke-linejoin="round" />
  <path d="M61.80,72.21L57.80,72.21L57.80,79.71L58.87,79.71L58.87,76.22L61.80,76.22L61.80,75.26L58.87,75.26L58.87,73.18L61.80,73.18L61.80,72.21Z" fill="currentColor" stroke="currentColor" stroke-width="1.2" stroke-linejoin="round" />
  <path d="M62.84,74.78H63.82V79.71H62.84ZM63.92,73.28C63.91,73.12 63.86,72.98 63.75,72.87C63.64,72.76 63.50,72.70 63.33,72.70C63.17,72.70 63.03,72.76 62.92,72.87C62.81,72.98 62.76,73.12 62.75,73.28C62.76,73.44 62.81,73.58 62.92,73.69C63.03,73.80 63.17,73.86 63.33,73.86C63.50,73.86 63.64,73.80 63.75,73.69C63.86,73.58 63.91,73.44 63.92,73.28Z" fill="currentColor" stroke="currentColor" stroke-width="1.2" stroke-linejoin="round" />
  <path d="M69.17,74.78L67.13,74.78C66.69,74.78 66.30,74.85 65.98,74.98C65.66,75.12 65.41,75.31 65.24,75.57C65.07,75.82 64.98,76.13 64.98,76.48C64.98,76.84 65.06,77.15 65.24,77.40C65.43,77.67 65.70,77.88 66.06,78.03L66.06,78.05C65.83,78.11 65.64,78.20 65.50,78.33C65.36,78.45 65.29,78.59 65.28,78.76C65.28,78.87 65.32,78.97 65.40,79.07C65.48,79.18 65.61,79.28 65.78,79.38C65.35,79.49 65.04,79.65 64.83,79.87C64.63,80.09 64.53,80.39 64.53,80.75C64.54,81.04 64.64,81.30 64.83,81.52C65.02,81.75 65.29,81.92 65.63,82.05C65.97,82.18 66.36,82.24 66.81,82.24C67.30,82.24 67.72,82.18 68.07,82.05C68.41,81.93 68.68,81.75 68.86,81.51C69.05,81.28 69.14,81.00 69.14,80.67C69.14,80.46 69.10,80.26 69.01,80.08C68.92,79.90 68.76,79.74 68.55,79.61C68.34,79.47 68.06,79.37 67.71,79.30C67.22,79.20 66.84,79.10 66.59,79.01C66.34,78.91 66.21,78.79 66.21,78.66C66.21,78.54 66.26,78.46 66.35,78.40C66.45,78.35 66.57,78.31 66.72,78.28C66.88,78.25 67.04,78.22 67.22,78.19C67.40,78.15 67.57,78.10 67.75,78.03C67.92,77.96 68.07,77.86 68.21,77.72C68.29,77.64 68.36,77.54 68.43,77.42C68.50,77.30 68.56,77.17 68.60,77.03C68.65,76.89 68.67,76.75 68.67,76.61C68.67,76.47 68.66,76.35 68.62,76.23C68.59,76.12 68.53,76.00 68.46,75.89C68.38,75.78 68.28,75.66 68.15,75.53L69.17,75.53L69.17,74.78ZM67.79,76.49C67.79,76.67 67.75,76.83 67.67,76.97C67.59,77.11 67.48,77.22 67.33,77.30C67.19,77.37 67.03,77.41 66.84,77.41C66.54,77.41 66.31,77.33 66.13,77.17C65.95,77.00 65.86,76.79 65.86,76.51C65.86,76.35 65.90,76.20 65.99,76.07C66.08,75.93 66.19,75.82 66.34,75.74C66.49,75.66 66.65,75.62 66.83,75.62C67.01,75.62 67.17,75.66 67.31,75.74C67.45,75.82 67.57,75.92 67.66,76.05C67.74,76.19 67.79,76.33 67.79,76.49ZM68.20,80.75C68.19,80.97 68.08,81.15 67.84,81.27C67.60,81.40 67.27,81.46 66.83,81.46C66.39,81.46 66.05,81.40 65.81,81.27C65.58,81.14 65.46,80.95 65.46,80.70C65.46,80.56 65.51,80.43 65.60,80.31C65.70,80.20 65.83,80.11 66.00,80.05C66.16,79.99 66.36,79.96 66.58,79.96C66.74,79.95 66.91,79.97 67.09,79.99C67.27,80.02 67.45,80.06 67.62,80.12C67.78,80.18 67.92,80.26 68.03,80.36C68.14,80.46 68.19,80.59 68.20,80.75Z" fill="currentColor" stroke="currentColor" stroke-width="1.2" stroke-linejoin="round" />
  <path d="M74.03,79.71L74.03,74.78L73.06,74.78L73.06,78.31C72.89,78.53 72.71,78.70 72.51,78.82C72.31,78.94 72.10,79.00 71.88,79.00C71.54,79.00 71.29,78.90 71.12,78.71C70.95,78.53 70.87,78.26 70.87,77.91L70.87,74.78L69.89,74.78L69.89,77.84C69.89,78.26 69.97,78.62 70.11,78.91C70.25,79.20 70.45,79.43 70.71,79.58C70.96,79.73 71.26,79.81 71.59,79.81C71.76,79.81 71.92,79.78 72.10,79.72C72.27,79.66 72.44,79.58 72.60,79.47C72.77,79.36 72.92,79.23 73.06,79.09L73.06,79.71L74.03,79.71Z" fill="currentColor" stroke="currentColor" stroke-width="1.2" stroke-linejoin="round" />
  <path d="M75.49,74.78L75.49,79.71L76.47,79.71L76.47,77.13C76.47,76.84 76.52,76.59 76.63,76.36C76.73,76.13 76.88,75.95 77.06,75.82C77.24,75.68 77.44,75.61 77.67,75.61C77.74,75.61 77.84,75.63 77.94,75.67C78.04,75.71 78.15,75.77 78.26,75.84C78.37,75.91 78.48,76.00 78.58,76.09L79.10,75.25C78.89,75.06 78.69,74.91 78.50,74.82C78.31,74.72 78.12,74.68 77.92,74.68C77.69,74.67 77.45,74.77 77.22,74.97C76.98,75.16 76.74,75.48 76.49,75.91L76.47,75.91L76.47,74.78L75.49,74.78Z" fill="currentColor" stroke="currentColor" stroke-width="1.2" stroke-linejoin="round" />
  <path d="M87.27,78.69L84.40,78.69C84.81,78.20 85.17,77.75 85.47,77.36C85.76,76.97 86.00,76.61 86.19,76.28C86.37,75.96 86.51,75.65 86.60,75.35C86.69,75.06 86.73,74.76 86.73,74.46C86.72,73.99 86.63,73.58 86.44,73.23C86.24,72.88 85.98,72.61 85.64,72.41C85.29,72.22 84.89,72.12 84.44,72.11C84.14,72.11 83.84,72.17 83.56,72.29C83.27,72.41 82.97,72.59 82.67,72.83L82.67,74.18C82.87,73.93 83.07,73.72 83.26,73.58C83.45,73.43 83.64,73.32 83.82,73.26C84.00,73.20 84.19,73.17 84.36,73.17C84.61,73.17 84.83,73.23 85.03,73.35C85.22,73.47 85.37,73.63 85.48,73.85C85.59,74.06 85.65,74.30 85.65,74.58C85.65,74.78 85.63,74.97 85.59,75.14C85.55,75.30 85.50,75.47 85.42,75.64C85.34,75.80 85.24,75.98 85.12,76.18C84.96,76.46 84.78,76.74 84.56,77.04C84.35,77.34 84.13,77.64 83.89,77.94C83.65,78.25 83.42,78.54 83.18,78.83C82.95,79.11 82.72,79.38 82.52,79.64L82.52,79.71L87.27,79.71L87.27,78.69Z" fill="currentColor" stroke="currentColor" stroke-width="1.2" stroke-linejoin="round" />
  <path d="M125.51,72.21L121.50,72.21L121.50,79.71L122.58,79.71L122.58,76.22L125.51,76.22L125.51,75.26L122.58,75.26L122.58,73.18L125.51,73.18L125.51,72.21Z" fill="currentColor" stroke="currentColor" stroke-width="1.2" stroke-linejoin="round" />
  <path d="M126.55,74.78H127.53V79.71H126.55ZM127.63,73.28C127.62,73.12 127.56,72.98 127.45,72.87C127.34,72.76 127.21,72.70 127.04,72.70C126.88,72.70 126.74,72.76 126.63,72.87C126.52,72.98 126.47,73.12 126.46,73.28C126.47,73.44 126.52,73.58 126.63,73.69C126.74,73.80 126.88,73.86 127.04,73.86C127.21,73.86 127.34,73.80 127.45,73.69C127.56,73.58 127.62,73.44 127.63,73.28Z" fill="currentColor" stroke="currentColor" stroke-width="1.2" stroke-linejoin="round" />
  <path d="M132.87,74.78L130.84,74.78C130.39,74.78 130.01,74.85 129.69,74.98C129.37,75.12 129.12,75.31 128.95,75.57C128.78,75.82 128.69,76.13 128.69,76.48C128.69,76.84 128.77,77.15 128.95,77.40C129.14,77.67 129.41,77.88 129.77,78.03L129.77,78.05C129.53,78.11 129.34,78.20 129.21,78.33C129.07,78.45 129.00,78.59 128.99,78.76C128.99,78.87 129.03,78.97 129.11,79.07C129.19,79.18 129.32,79.28 129.49,79.38C129.06,79.49 128.75,79.65 128.54,79.87C128.34,80.09 128.24,80.39 128.24,80.75C128.25,81.04 128.35,81.30 128.54,81.52C128.73,81.75 129.00,81.92 129.34,82.05C129.68,82.18 130.07,82.24 130.52,82.24C131.01,82.24 131.43,82.18 131.78,82.05C132.12,81.93 132.39,81.75 132.57,81.51C132.76,81.28 132.85,81.00 132.85,80.67C132.85,80.46 132.81,80.26 132.72,80.08C132.62,79.90 132.47,79.74 132.26,79.61C132.05,79.47 131.77,79.37 131.42,79.30C130.93,79.20 130.55,79.10 130.30,79.01C130.05,78.91 129.92,78.79 129.92,78.66C129.92,78.54 129.97,78.46 130.06,78.40C130.16,78.35 130.28,78.31 130.43,78.28C130.58,78.25 130.75,78.22 130.93,78.19C131.11,78.15 131.28,78.10 131.46,78.03C131.63,77.96 131.78,77.86 131.92,77.72C132.00,77.64 132.07,77.54 132.14,77.42C132.21,77.30 132.27,77.17 132.31,77.03C132.36,76.89 132.38,76.75 132.38,76.61C132.38,76.47 132.36,76.35 132.33,76.23C132.30,76.12 132.24,76.00 132.17,75.89C132.09,75.78 131.99,75.66 131.86,75.53L132.87,75.53L132.87,74.78ZM131.50,76.49C131.50,76.67 131.46,76.83 131.38,76.97C131.30,77.11 131.19,77.22 131.04,77.30C130.90,77.37 130.74,77.41 130.55,77.41C130.25,77.41 130.01,77.33 129.84,77.17C129.66,77.00 129.57,76.79 129.56,76.51C129.57,76.35 129.61,76.20 129.70,76.07C129.79,75.93 129.90,75.82 130.05,75.74C130.20,75.66 130.36,75.62 130.54,75.62C130.72,75.62 130.88,75.66 131.02,75.74C131.16,75.82 131.28,75.92 131.37,76.05C131.45,76.19 131.50,76.33 131.50,76.49ZM131.91,80.75C131.90,80.97 131.78,81.15 131.55,81.27C131.31,81.40 130.97,81.46 130.54,81.46C130.10,81.46 129.75,81.40 129.52,81.27C129.29,81.14 129.17,80.95 129.17,80.70C129.17,80.56 129.22,80.43 129.31,80.31C129.41,80.20 129.54,80.11 129.71,80.05C129.87,79.99 130.07,79.96 130.29,79.96C130.44,79.95 130.61,79.97 130.80,79.99C130.98,80.02 131.16,80.06 131.33,80.12C131.49,80.18 131.63,80.26 131.74,80.36C131.85,80.46 131.90,80.59 131.91,80.75Z" fill="currentColor" stroke="currentColor" stroke-width="1.2" stroke-linejoin="round" />
  <path d="M137.74,79.71L137.74,74.78L136.76,74.78L136.76,78.31C136.60,78.53 136.42,78.70 136.22,78.82C136.02,78.94 135.81,79.00 135.59,79.00C135.25,79.00 135.00,78.90 134.83,78.71C134.66,78.53 134.58,78.26 134.58,77.91L134.58,74.78L133.60,74.78L133.60,77.84C133.60,78.26 133.67,78.62 133.82,78.91C133.96,79.20 134.16,79.43 134.42,79.58C134.67,79.73 134.97,79.81 135.30,79.81C135.47,79.81 135.63,79.78 135.81,79.72C135.98,79.66 136.15,79.58 136.31,79.47C136.48,79.36 136.63,79.23 136.76,79.09L136.76,79.71L137.74,79.71Z" fill="currentColor" stroke="currentColor" stroke-width="1.2" stroke-linejoin="round" />
  <path d="M139.20,74.78L139.20,79.71L140.17,79.71L140.17,77.13C140.18,76.84 140.23,76.59 140.34,76.36C140.44,76.13 140.58,75.95 140.76,75.82C140.94,75.68 141.15,75.61 141.37,75.61C141.45,75.61 141.54,75.63 141.65,75.67C141.75,75.71 141.86,75.77 141.97,75.84C142.08,75.91 142.19,76.00 142.29,76.09L142.80,75.25C142.60,75.06 142.40,74.91 142.21,74.82C142.02,74.72 141.82,74.68 141.63,74.68C141.40,74.67 141.16,74.77 140.92,74.97C140.69,75.16 140.44,75.48 140.20,75.91L140.17,75.91L140.17,74.78L139.20,74.78Z" fill="currentColor" stroke="currentColor" stroke-width="1.2" stroke-linejoin="round" />
  <path d="M146.74,73.46C146.91,73.38 147.07,73.32 147.21,73.27C147.35,73.22 147.49,73.19 147.62,73.17C147.75,73.15 147.88,73.14 148.02,73.14C148.28,73.14 148.51,73.18 148.70,73.27C148.90,73.36 149.05,73.49 149.15,73.66C149.26,73.83 149.31,74.03 149.31,74.26C149.31,74.60 149.19,74.87 148.94,75.06C148.70,75.25 148.32,75.34 147.83,75.35L147.83,76.34C148.19,76.32 148.48,76.37 148.72,76.47C148.96,76.58 149.14,76.73 149.26,76.93C149.38,77.12 149.44,77.34 149.44,77.59C149.43,77.83 149.38,78.05 149.29,78.22C149.19,78.40 149.05,78.54 148.87,78.64C148.69,78.74 148.47,78.79 148.22,78.79C147.95,78.79 147.67,78.74 147.40,78.65C147.12,78.55 146.84,78.41 146.55,78.22L146.55,79.38C146.82,79.52 147.09,79.63 147.36,79.70C147.63,79.77 147.89,79.81 148.15,79.81C148.61,79.81 149.02,79.71 149.38,79.52C149.73,79.33 150.01,79.06 150.21,78.72C150.41,78.38 150.51,77.99 150.51,77.54C150.51,77.28 150.47,77.03 150.40,76.78C150.32,76.54 150.20,76.33 150.05,76.15C149.89,75.97 149.68,75.83 149.44,75.75C149.66,75.63 149.85,75.49 149.99,75.34C150.13,75.18 150.23,75.00 150.29,74.80C150.36,74.59 150.39,74.35 150.39,74.07C150.39,73.67 150.30,73.33 150.12,73.04C149.94,72.74 149.68,72.52 149.35,72.36C149.02,72.20 148.63,72.12 148.18,72.11C147.90,72.11 147.65,72.14 147.42,72.19C147.19,72.24 146.96,72.32 146.74,72.43L146.74,73.46Z" fill="currentColor" stroke="currentColor" stroke-width="1.2" stroke-linejoin="round" />
  <path d="M203.49,72.21L199.49,72.21L199.49,79.71L200.57,79.71L200.57,76.22L203.49,76.22L203.49,75.26L200.57,75.26L200.57,73.18L203.49,73.18L203.49,72.21Z" fill="currentColor" stroke="currentColor" stroke-width="1.2" stroke-linejoin="round" />
  <path d="M204.53,74.78H205.51V79.71H204.53ZM205.61,73.28C205.61,73.12 205.55,72.98 205.44,72.87C205.33,72.76 205.19,72.70 205.03,72.70C204.86,72.70 204.73,72.76 204.62,72.87C204.51,72.98 204.45,73.12 204.45,73.28C204.45,73.44 204.51,73.58 204.62,73.69C204.73,73.80 204.86,73.86 205.03,73.86C205.19,73.86 205.33,73.80 205.44,73.69C205.55,73.58 205.61,73.44 205.61,73.28Z" fill="currentColor" stroke="currentColor" stroke-width="1.2" stroke-linejoin="round" />
  <path d="M210.86,74.78L208.83,74.78C208.38,74.78 208.00,74.85 207.68,74.98C207.35,75.12 207.11,75.31 206.93,75.57C206.76,75.82 206.67,76.13 206.67,76.48C206.67,76.84 206.76,77.15 206.93,77.40C207.12,77.67 207.40,77.88 207.76,78.03L207.76,78.05C207.52,78.11 207.33,78.20 207.19,78.33C207.05,78.45 206.98,78.59 206.98,78.76C206.98,78.87 207.02,78.97 207.10,79.07C207.18,79.18 207.30,79.28 207.47,79.38C207.05,79.49 206.73,79.65 206.53,79.87C206.33,80.09 206.23,80.39 206.23,80.75C206.23,81.04 206.33,81.30 206.52,81.52C206.72,81.75 206.98,81.92 207.32,82.05C207.67,82.18 208.06,82.24 208.51,82.24C209.00,82.24 209.41,82.18 209.76,82.05C210.11,81.93 210.37,81.75 210.56,81.51C210.74,81.28 210.84,81.00 210.84,80.67C210.84,80.46 210.79,80.26 210.70,80.08C210.61,79.90 210.46,79.74 210.25,79.61C210.04,79.47 209.76,79.37 209.41,79.30C208.91,79.20 208.54,79.10 208.28,79.01C208.03,78.91 207.90,78.79 207.90,78.66C207.91,78.54 207.95,78.46 208.05,78.40C208.14,78.35 208.26,78.31 208.42,78.28C208.57,78.25 208.73,78.22 208.91,78.19C209.09,78.15 209.27,78.10 209.44,78.03C209.61,77.96 209.77,77.86 209.90,77.72C209.98,77.64 210.06,77.54 210.13,77.42C210.19,77.30 210.25,77.17 210.30,77.03C210.34,76.89 210.36,76.75 210.36,76.61C210.37,76.47 210.35,76.35 210.32,76.23C210.28,76.12 210.23,76.00 210.15,75.89C210.08,75.78 209.98,75.66 209.85,75.53L210.86,75.53L210.86,74.78ZM209.48,76.49C209.48,76.67 209.44,76.83 209.36,76.97C209.28,77.11 209.17,77.22 209.03,77.30C208.89,77.37 208.72,77.41 208.54,77.41C208.24,77.41 208.00,77.33 207.82,77.17C207.65,77.00 207.55,76.79 207.55,76.51C207.55,76.35 207.60,76.20 207.68,76.07C207.77,75.93 207.89,75.82 208.04,75.74C208.18,75.66 208.35,75.62 208.53,75.62C208.70,75.62 208.86,75.66 209.01,75.74C209.15,75.82 209.27,75.92 209.35,76.05C209.44,76.19 209.48,76.33 209.48,76.49ZM209.89,80.75C209.89,80.97 209.77,81.15 209.53,81.27C209.30,81.40 208.96,81.46 208.53,81.46C208.08,81.46 207.74,81.40 207.51,81.27C207.27,81.14 207.15,80.95 207.15,80.70C207.15,80.56 207.20,80.43 207.30,80.31C207.39,80.20 207.52,80.11 207.69,80.05C207.86,79.99 208.05,79.96 208.28,79.96C208.43,79.95 208.60,79.97 208.78,79.99C208.97,80.02 209.14,80.06 209.31,80.12C209.48,80.18 209.62,80.26 209.73,80.36C209.83,80.46 209.89,80.59 209.89,80.75Z" fill="currentColor" stroke="currentColor" stroke-width="1.2" stroke-linejoin="round" />
  <path d="M215.73,79.71L215.73,74.78L214.75,74.78L214.75,78.31C214.59,78.53 214.41,78.70 214.21,78.82C214.01,78.94 213.80,79.00 213.57,79.00C213.24,79.00 212.99,78.90 212.82,78.71C212.65,78.53 212.56,78.26 212.56,77.91L212.56,74.78L211.58,74.78L211.58,77.84C211.59,78.26 211.66,78.62 211.80,78.91C211.95,79.20 212.15,79.43 212.40,79.58C212.66,79.73 212.95,79.81 213.29,79.81C213.45,79.81 213.62,79.78 213.79,79.72C213.97,79.66 214.13,79.58 214.30,79.47C214.46,79.36 214.61,79.23 214.75,79.09L214.75,79.71L215.73,79.71Z" fill="currentColor" stroke="currentColor" stroke-width="1.2" stroke-linejoin="round" />
  <path d="M217.18,74.78L217.18,79.71L218.16,79.71L218.16,77.13C218.16,76.84 218.22,76.59 218.32,76.36C218.43,76.13 218.57,75.95 218.75,75.82C218.93,75.68 219.13,75.61 219.36,75.61C219.44,75.61 219.53,75.63 219.63,75.67C219.74,75.71 219.84,75.77 219.95,75.84C220.07,75.91 220.17,76.00 220.27,76.09L220.79,75.25C220.59,75.06 220.39,74.91 220.20,74.82C220.00,74.72 219.81,74.68 219.61,74.68C219.38,74.67 219.15,74.77 218.91,74.97C218.67,75.16 218.43,75.48 218.18,75.91L218.16,75.91L218.16,74.78L217.18,74.78Z" fill="currentColor" stroke="currentColor" stroke-width="1.2" stroke-linejoin="round" />
  <path d="M228.21,72.11L227.75,72.11L223.96,76.75L223.96,77.25L227.14,77.25L227.14,79.71L228.21,79.71L228.21,77.25L229.02,77.25L229.02,76.28L228.21,76.28L228.21,72.11ZM227.11,74.15L227.14,74.15L227.14,76.28L225.40,76.28L227.11,74.15Z" fill="currentColor" stroke="currentColor" stroke-width="1.2" stroke-linejoin="round" />
  <path d="M269.76,63.85C269.64,63.85 269.53,63.88 269.43,63.94C269.33,64.00 269.25,64.08 269.19,64.18C269.13,64.27 269.10,64.39 269.10,64.51C269.10,64.63 269.13,64.74 269.19,64.84C269.25,64.94 269.33,65.02 269.43,65.08C269.53,65.14 269.64,65.17 269.76,65.17C269.88,65.17 269.99,65.14 270.09,65.08C270.19,65.02 270.27,64.94 270.33,64.84C270.39,64.74 270.42,64.63 270.42,64.51C270.42,64.39 270.39,64.27 270.33,64.18C270.27,64.08 270.19,64.00 270.09,63.94C269.99,63.88 269.88,63.85 269.76,63.85Z" fill="currentColor" stroke="currentColor" stroke-width="1.2" stroke-linejoin="round" />
  <path d="M273.03,63.85C272.91,63.85 272.80,63.88 272.70,63.94C272.60,64.00 272.52,64.08 272.46,64.18C272.40,64.27 272.37,64.39 272.37,64.51C272.37,64.63 272.40,64.74 272.46,64.84C272.52,64.94 272.60,65.02 272.70,65.08C272.80,65.14 272.91,65.17 273.03,65.17C273.15,65.17 273.26,65.14 273.36,65.08C273.46,65.02 273.54,64.94 273.60,64.84C273.66,64.74 273.69,64.63 273.69,64.51C273.69,64.39 273.66,64.27 273.60,64.18C273.54,64.08 273.46,64.00 273.36,63.94C273.26,63.88 273.15,63.85 273.03,63.85Z" fill="currentColor" stroke="currentColor" stroke-width="1.2" stroke-linejoin="round" />
  <path d="M276.30,63.85C276.18,63.85 276.07,63.88 275.97,63.94C275.87,64.00 275.79,64.08 275.73,64.18C275.67,64.27 275.64,64.39 275.64,64.51C275.64,64.63 275.67,64.74 275.73,64.84C275.79,64.94 275.87,65.02 275.97,65.08C276.07,65.14 276.18,65.17 276.30,65.17C276.43,65.17 276.54,65.14 276.64,65.08C276.73,65.02 276.81,64.94 276.87,64.84C276.93,64.74 276.96,64.63 276.96,64.51C276.96,64.39 276.93,64.27 276.87,64.18C276.81,64.08 276.73,64.00 276.64,63.94C276.54,63.88 276.43,63.85 276.30,63.85Z" fill="currentColor" stroke="currentColor" stroke-width="1.2" stroke-linejoin="round" />
</svg>