<svg xmlns="http://www.w3.org/2000/svg" viewBox="0 0 110.49 117.17" preserveAspectRatio="xMidYMid meet" shape-rendering="geometricPrecision" text-rendering="optimizeLegibility">
  <path d="M97.59,8.01 C97.64,8.00 97.70,8.00 97.78,8.00" fill="currentColor" stroke="currentColor" stroke-width="1.2" stroke-linecap="round" stroke-linejoin="round" />
  <path d="M97.78,8.00 C97.86,8.00 97.93,8.01 97.98,8.02" fill="currentColor" stroke="currentColor" stroke-width="1.2" stroke-linecap="round" stroke-linejoin="round" />
  <path d="M97.47,8.03 C97.50,8.02 97.54,8.01 97.59,8.01" fill="currentColor" stroke="currentColor" stroke-width="1.2" stroke-linecap="round" stroke-linejoin="round" />
  <path d="M97.98,8.02 C98.03,8.03 98.07,8.04 98.10,8.06" fill="currentColor" stroke="currentColor" stroke-width="1.2" stroke-linecap="round" stroke-linejoin="round" />
  <path d="M97.40,8.06 C97.42,8.05 97.44,8.04 97.47,8.03" fill="currentColor" stroke="currentColor" stroke-width="1.2" stroke-linecap="round" stroke-linejoin="round" />
  <path d="M98.10,8.06 C98.13,8.08 98.14,8.10 98.15,8.13" fill="currentColor" stroke="currentColor" stroke-width="1.2" stroke-linecap="round" stroke-linejoin="round" />
  <path d="M97.37,8.10 C97.38,8.09 97.39,8.08 97.40,8.06" fill="currentColor" stroke="currentColor" stroke-width="1.2" stroke-linecap="round" stroke-linejoin="round" />
  <path d="M96.88,9.22 C97.03,8.84 97.19,8.47 97.37,8.10" fill="currentColor" stroke="currentColor" stroke-width="1.2" stroke-linecap="round" stroke-linejoin="round" />
  <path d="M98.15,8.13 C98.15,8.16 98.15,8.19 98.13,8.22" fill="currentColor" stroke="currentColor" stroke-width="1.2" stroke-linecap="round" stroke-linejoin="round" />
  <path d="M98.13,8.22 C97.79,8.94 97.54,9.68 97.37,10.43" fill="currentColor" stroke="currentColor" stroke-width="1.2" stroke-linecap="round" stroke-linejoin="round" />
  <path d="M96.51,10.37 C96.61,9.98 96.73,9.60 96.88,9.22" fill="currentColor" stroke="currentColor" stroke-width="1.2" stroke-linecap="round" stroke-linejoin="round" />
  <path d="M96.27,11.54 C96.33,11.15 96.40,10.75 96.51,10.37" fill="currentColor" stroke="currentColor" stroke-width="1.2" stroke-linecap="round" stroke-linejoin="round" />
  <path d="M100.66,10.58 C100.93,10.47 101.23,10.42 101.55,10.42" fill="currentColor" stroke="currentColor" stroke-width="1.2" stroke-linecap="round" stroke-linejoin="round" />
  <path d="M101.55,10.42 C101.70,10.42 101.85,10.43 102.00,10.46" fill="currentColor" stroke="currentColor" stroke-width="1.2" stroke-linecap="round" stroke-linejoin="round" />
  <path d="M97.37,10.43 C97.20,11.19 97.12,11.95 97.12,12.72" fill="currentColor" stroke="currentColor" stroke-width="1.2" stroke-linecap="round" stroke-linejoin="round" />
  <path d="M102.00,10.46 C102.14,10.49 102.27,10.53 102.39,10.57" fill="currentColor" stroke="currentColor" stroke-width="1.2" stroke-linecap="round" stroke-linejoin="round" />
  <path d="M99.94,11.06 C100.14,10.84 100.38,10.68 100.66,10.58" fill="currentColor" stroke="currentColor" stroke-width="1.2" stroke-linecap="round" stroke-linejoin="round" />
  <path d="M99.46,11.90 C99.58,11.56 99.74,11.28 99.94,11.06" fill="currentColor" stroke="currentColor" stroke-width="1.2" stroke-linecap="round" stroke-linejoin="round" />
  <path d="M102.07,11.25 C101.92,11.19 101.74,11.16 101.53,11.16" fill="currentColor" stroke="currentColor" stroke-width="1.2" stroke-linecap="round" stroke-linejoin="round" />
  <path d="M101.53,11.16 C101.11,11.16 100.78,11.33 100.56,11.66" fill="currentColor" stroke="currentColor" stroke-width="1.2" stroke-linecap="round" stroke-linejoin="round" />
  <path d="M102.46,11.45 C102.36,11.38 102.23,11.31 102.07,11.25" fill="currentColor" stroke="currentColor" stroke-width="1.2" stroke-linecap="round" stroke-linejoin="round" />
  <path d="M96.19,12.74 C96.19,12.33 96.21,11.93 96.27,11.54" fill="currentColor" stroke="currentColor" stroke-width="1.2" stroke-linecap="round" stroke-linejoin="round" />
  <path d="M100.56,11.66 C100.33,11.98 100.21,12.46 100.21,13.08" fill="currentColor" stroke="currentColor" stroke-width="1.2" stroke-linecap="round" stroke-linejoin="round" />
  <path d="M99.29,13.13 C99.29,12.65 99.35,12.24 99.46,11.90" fill="currentColor" stroke="currentColor" stroke-width="1.2" stroke-linecap="round" stroke-linejoin="round" />
  <polygon points="51.07,17.47 56.09,12.45 61.11,17.47 56.09,22.50" fill="none" stroke="currentColor" stroke-width="1.000000011920929" stroke-linecap="round" stroke-linejoin="round" />
  <polygon points="15.44,109.17 96.19,52.55 56.09,12.45 15.44,52.55" fill="none" stroke="currentColor" stroke-width="1.4000000476837158" stroke-linecap="round" stroke-linejoin="round" />
  <path d="M97.12,12.72 C97.12,13.49 97.21,14.25 97.38,15.01" fill="currentColor" stroke="currentColor" stroke-width="1.2" stroke-linecap="round" stroke-linejoin="round" />
  <path d="M96.26,13.94 C96.21,13.54 96.19,13.14 96.19,12.74" fill="currentColor" stroke="currentColor" stroke-width="1.2" stroke-linecap="round" stroke-linejoin="round" />
  <path d="M100.21,13.08 C100.21,13.39 100.24,13.67 100.30,13.90" fill="currentColor" stroke="currentColor" stroke-width="1.2" stroke-linecap="round" stroke-linejoin="round" />
  <path d="M99.43,14.24 C99.34,13.92 99.29,13.55 99.29,13.13" fill="currentColor" stroke="currentColor" stroke-width="1.2" stroke-linecap="round" stroke-linejoin="round" />
  <path d="M100.30,13.90 C100.36,14.13 100.45,14.33 100.56,14.49" fill="currentColor" stroke="currentColor" stroke-width="1.2" stroke-linecap="round" stroke-linejoin="round" />
  <path d="M96.49,15.11 C96.39,14.72 96.31,14.33 96.26,13.94" fill="currentColor" stroke="currentColor" stroke-width="1.2" stroke-linecap="round" stroke-linejoin="round" />
  <path d="M99.85,15.05 C99.67,14.83 99.53,14.56 99.43,14.24" fill="currentColor" stroke="currentColor" stroke-width="1.2" stroke-linecap="round" stroke-linejoin="round" />
  <path d="M100.56,14.49 C100.68,14.65 100.82,14.76 100.98,14.84" fill="currentColor" stroke="currentColor" stroke-width="1.2" stroke-linecap="round" stroke-linejoin="round" />
  <path d="M102.09,14.86 C102.25,14.79 102.38,14.72 102.49,14.65" fill="currentColor" stroke="currentColor" stroke-width="1.2" stroke-linecap="round" stroke-linejoin="round" />
  <path d="M100.98,14.84 C101.15,14.92 101.34,14.96 101.56,14.96" fill="currentColor" stroke="currentColor" stroke-width="1.2" stroke-linecap="round" stroke-linejoin="round" />
  <path d="M101.56,14.96 C101.76,14.96 101.94,14.92 102.09,14.86" fill="currentColor" stroke="currentColor" stroke-width="1.2" stroke-linecap="round" stroke-linejoin="round" />
  <path d="M97.38,15.01 C97.55,15.76 97.79,16.51 98.12,17.23" fill="currentColor" stroke="currentColor" stroke-width="1.2" stroke-linecap="round" stroke-linejoin="round" />
  <path d="M100.52,15.55 C100.25,15.44 100.03,15.27 99.85,15.05" fill="currentColor" stroke="currentColor" stroke-width="1.2" stroke-linecap="round" stroke-linejoin="round" />
  <path d="M96.86,16.25 C96.71,15.88 96.59,15.50 96.49,15.11" fill="currentColor" stroke="currentColor" stroke-width="1.2" stroke-linecap="round" stroke-linejoin="round" />
  <path d="M102.37,15.55 C102.24,15.60 102.09,15.64 101.93,15.68" fill="currentColor" stroke="currentColor" stroke-width="1.2" stroke-linecap="round" stroke-linejoin="round" />
  <path d="M101.44,15.72 C101.10,15.72 100.79,15.67 100.52,15.55" fill="currentColor" stroke="currentColor" stroke-width="1.2" stroke-linecap="round" stroke-linejoin="round" />
  <path d="M101.93,15.68 C101.78,15.71 101.61,15.72 101.44,15.72" fill="currentColor" stroke="currentColor" stroke-width="1.2" stroke-linecap="round" stroke-linejoin="round" />
  <path d="M97.37,17.36 C97.18,17.00 97.00,16.63 96.86,16.25" fill="currentColor" stroke="currentColor" stroke-width="1.2" stroke-linecap="round" stroke-linejoin="round" />
  <path d="M98.12,17.23 C98.14,17.28 98.15,17.31 98.15,17.34" fill="currentColor" stroke="currentColor" stroke-width="1.2" stroke-linecap="round" stroke-linejoin="round" />
  <path d="M98.15,17.34 C98.15,17.37 98.14,17.40 98.11,17.42" fill="currentColor" stroke="currentColor" stroke-width="1.2" stroke-linecap="round" stroke-linejoin="round" />
  <path d="M97.42,17.41 C97.40,17.40 97.38,17.38 97.37,17.36" fill="currentColor" stroke="currentColor" stroke-width="1.2" stroke-linecap="round" stroke-linejoin="round" />
  <path d="M97.50,17.45 C97.47,17.44 97.44,17.42 97.42,17.41" fill="currentColor" stroke="currentColor" stroke-width="1.2" stroke-linecap="round" stroke-linejoin="round" />
  <path d="M98.11,17.42 C98.09,17.44 98.05,17.45 98.00,17.46" fill="currentColor" stroke="currentColor" stroke-width="1.2" stroke-linecap="round" stroke-linejoin="round" />
  <path d="M97.62,17.47 C97.57,17.47 97.53,17.46 97.50,17.45" fill="currentColor" stroke="currentColor" stroke-width="1.2" stroke-linecap="round" stroke-linejoin="round" />
  <path d="M98.00,17.46 C97.95,17.47 97.88,17.47 97.79,17.47" fill="currentColor" stroke="currentColor" stroke-width="1.2" stroke-linecap="round" stroke-linejoin="round" />
  <path d="M97.79,17.47 C97.72,17.47 97.67,17.47 97.62,17.47" fill="currentColor" stroke="currentColor" stroke-width="1.2" stroke-linecap="round" stroke-linejoin="round" />
  <path d="M30.48,27.28 C30.55,27.28 30.63,27.27 30.75,27.27" fill="currentColor" stroke="currentColor" stroke-width="1.2" stroke-linecap="round" stroke-linejoin="round" />
  <path d="M30.75,27.27 C30.85,27.27 30.92,27.28 30.98,27.28" fill="currentColor" stroke="currentColor" stroke-width="1.2" stroke-linecap="round" stroke-linejoin="round" />
  <path d="M33.73,27.28 C33.79,27.28 33.87,27.27 33.97,27.27" fill="currentColor" stroke="currentColor" stroke-width="1.2" stroke-linecap="round" stroke-linejoin="round" />
  <path d="M33.97,27.27 C34.08,27.27 34.16,27.28 34.23,27.28" fill="currentColor" stroke="currentColor" stroke-width="1.2" stroke-linecap="round" stroke-linejoin="round" />
  <path d="M79.93,27.28 C80.00,27.28 80.09,27.27 80.20,27.27" fill="currentColor" stroke="currentColor" stroke-width="1.2" stroke-linecap="round" stroke-linejoin="round" />
  <path d="M80.20,27.27 C80.30,27.27 80.38,27.28 80.44,27.28" fill="currentColor" stroke="currentColor" stroke-width="1.2" stroke-linecap="round" stroke-linejoin="round" />
  <path d="M83.19,27.28 C83.25,27.28 83.32,27.27 83.42,27.27" fill="currentColor" stroke="currentColor" stroke-width="1.2" stroke-linecap="round" stroke-linejoin="round" />
  <path d="M83.42,27.27 C83.53,27.27 83.62,27.28 83.68,27.28" fill="currentColor" stroke="currentColor" stroke-width="1.2" stroke-linecap="round" stroke-linejoin="round" />
  <path d="M30.98,27.28 C31.04,27.29 31.08,27.30 31.11,27.31" fill="currentColor" stroke="currentColor" stroke-width="1.2" stroke-linecap="round" stroke-linejoin="round" />
  <path d="M33.59,27.31 C33.63,27.30 33.68,27.29 33.73,27.28" fill="currentColor" stroke="currentColor" stroke-width="1.2" stroke-linecap="round" stroke-linejoin="round" />
  <path d="M80.44,27.28 C80.49,27.29 80.54,27.30 80.57,27.31" fill="currentColor" stroke="currentColor" stroke-width="1.2" stroke-linecap="round" stroke-linejoin="round" />
  <path d="M83.04,27.31 C83.08,27.30 83.13,27.29 83.19,27.28" fill="currentColor" stroke="currentColor" stroke-width="1.2" stroke-linecap="round" stroke-linejoin="round" />
  <path d="M30.32,27.33 C30.36,27.31 30.41,27.29 30.48,27.28" fill="currentColor" stroke="currentColor" stroke-width="1.2" stroke-linecap="round" stroke-linejoin="round" />
  <path d="M34.23,27.28 C34.30,27.29 34.35,27.30 34.38,27.32" fill="currentColor" stroke="currentColor" stroke-width="1.2" stroke-linecap="round" stroke-linejoin="round" />
  <path d="M79.78,27.33 C79.81,27.31 79.86,27.29 79.93,27.28" fill="currentColor" stroke="currentColor" stroke-width="1.2" stroke-linecap="round" stroke-linejoin="round" />
  <path d="M83.68,27.28 C83.75,27.29 83.80,27.30 83.83,27.32" fill="currentColor" stroke="currentColor" stroke-width="1.2" stroke-linecap="round" stroke-linejoin="round" />
  <path d="M31.11,27.31 C31.14,27.32 31.17,27.33 31.18,27.35" fill="currentColor" stroke="currentColor" stroke-width="1.2" stroke-linecap="round" stroke-linejoin="round" />
  <path d="M80.57,27.31 C80.60,27.32 80.62,27.33 80.63,27.35" fill="currentColor" stroke="currentColor" stroke-width="1.2" stroke-linecap="round" stroke-linejoin="round" />
  <path d="M33.50,27.35 C33.52,27.34 33.55,27.32 33.59,27.31" fill="currentColor" stroke="currentColor" stroke-width="1.2" stroke-linecap="round" stroke-linejoin="round" />
  <path d="M82.95,27.35 C82.97,27.34 83.00,27.32 83.04,27.31" fill="currentColor" stroke="currentColor" stroke-width="1.2" stroke-linecap="round" stroke-linejoin="round" />
  <path d="M34.38,27.32 C34.41,27.34 34.43,27.37 34.42,27.40" fill="currentColor" stroke="currentColor" stroke-width="1.2" stroke-linecap="round" stroke-linejoin="round" />
  <path d="M83.83,27.32 C83.87,27.34 83.88,27.37 83.88,27.40" fill="currentColor" stroke="currentColor" stroke-width="1.2" stroke-linecap="round" stroke-linejoin="round" />
  <path d="M30.27,27.41 C30.27,27.38 30.29,27.35 30.32,27.33" fill="currentColor" stroke="currentColor" stroke-width="1.2" stroke-linecap="round" stroke-linejoin="round" />
  <path d="M79.72,27.41 C79.72,27.38 79.74,27.35 79.78,27.33" fill="currentColor" stroke="currentColor" stroke-width="1.2" stroke-linecap="round" stroke-linejoin="round" />
  <path d="M31.18,27.35 C31.19,27.37 31.20,27.39 31.21,27.41" fill="currentColor" stroke="currentColor" stroke-width="1.2" stroke-linecap="round" stroke-linejoin="round" />
  <path d="M80.63,27.35 C80.64,27.37 80.66,27.39 80.67,27.41" fill="currentColor" stroke="currentColor" stroke-width="1.2" stroke-linecap="round" stroke-linejoin="round" />
  <path d="M33.43,27.41 C33.45,27.39 33.47,27.37 33.50,27.35" fill="currentColor" stroke="currentColor" stroke-width="1.2" stroke-linecap="round" stroke-linejoin="round" />
  <path d="M82.88,27.41 C82.91,27.39 82.93,27.37 82.95,27.35" fill="currentColor" stroke="currentColor" stroke-width="1.2" stroke-linecap="round" stroke-linejoin="round" />
  <path d="M34.42,27.40 C34.42,27.43 34.39,27.48 34.34,27.53" fill="currentColor" stroke="currentColor" stroke-width="1.2" stroke-linecap="round" stroke-linejoin="round" />
  <path d="M83.88,27.40 C83.87,27.43 83.84,27.48 83.80,27.53" fill="currentColor" stroke="currentColor" stroke-width="1.2" stroke-linecap="round" stroke-linejoin="round" />
  <path d="M30.29,27.54 C30.27,27.49 30.26,27.44 30.27,27.41" fill="currentColor" stroke="currentColor" stroke-width="1.2" stroke-linecap="round" stroke-linejoin="round" />
  <path d="M79.75,27.54 C79.73,27.49 79.72,27.44 79.72,27.41" fill="currentColor" stroke="currentColor" stroke-width="1.2" stroke-linecap="round" stroke-linejoin="round" />
  <line x1="31.21" y1="27.41" x2="31.98" y2="29.22" fill="currentColor" stroke="currentColor" stroke-width="1.2" stroke-linecap="round" stroke-linejoin="round" />
  <line x1="31.98" y1="29.22" x2="33.43" y2="27.41" fill="currentColor" stroke="currentColor" stroke-width="1.2" stroke-linecap="round" stroke-linejoin="round" />
  <line x1="80.67" y1="27.41" x2="81.43" y2="29.22" fill="currentColor" stroke="currentColor" stroke-width="1.2" stroke-linecap="round" stroke-linejoin="round" />
  <line x1="81.43" y1="29.22" x2="82.88" y2="27.41" fill="currentColor" stroke="currentColor" stroke-width="1.2" stroke-linecap="round" stroke-linejoin="round" />
  <line x1="34.34" y1="27.53" x2="32.46" y2="29.81" fill="currentColor" stroke="currentColor" stroke-width="1.2" stroke-linecap="round" stroke-linejoin="round" />
  <line x1="83.80" y1="27.53" x2="81.91" y2="29.81" fill="currentColor" stroke="currentColor" stroke-width="1.2" stroke-linecap="round" stroke-linejoin="round" />
  <line x1="31.29" y1="29.79" x2="30.29" y2="27.54" fill="currentColor" stroke="currentColor" stroke-width="1.2" stroke-linecap="round" stroke-linejoin="round" />
  <line x1="80.74" y1="29.79" x2="79.75" y2="27.54" fill="currentColor" stroke="currentColor" stroke-width="1.2" stroke-linecap="round" stroke-linejoin="round" />
  <line x1="29.28" y1="32.18" x2="31.29" y2="29.79" fill="currentColor" stroke="currentColor" stroke-width="1.2" stroke-linecap="round" stroke-linejoin="round" />
  <line x1="78.73" y1="32.18" x2="80.74" y2="29.79" fill="currentColor" stroke="currentColor" stroke-width="1.2" stroke-linecap="round" stroke-linejoin="round" />
  <line x1="32.46" y1="29.81" x2="33.51" y2="32.17" fill="currentColor" stroke="currentColor" stroke-width="1.2" stroke-linecap="round" stroke-linejoin="round" />
  <line x1="81.91" y1="29.81" x2="82.96" y2="32.17" fill="currentColor" stroke="currentColor" stroke-width="1.2" stroke-linecap="round" stroke-linejoin="round" />
  <line x1="32.57" y1="32.29" x2="31.76" y2="30.38" fill="currentColor" stroke="currentColor" stroke-width="1.2" stroke-linecap="round" stroke-linejoin="round" />
  <line x1="31.76" y1="30.38" x2="30.24" y2="32.29" fill="currentColor" stroke="currentColor" stroke-width="1.2" stroke-linecap="round" stroke-linejoin="round" />
  <line x1="82.02" y1="32.29" x2="81.21" y2="30.38" fill="currentColor" stroke="currentColor" stroke-width="1.2" stroke-linecap="round" stroke-linejoin="round" />
  <line x1="81.21" y1="30.38" x2="79.69" y2="32.29" fill="currentColor" stroke="currentColor" stroke-width="1.2" stroke-linecap="round" stroke-linejoin="round" />
  <path d="M33.51,32.17 C33.53,32.22 33.54,32.26 33.54,32.30" fill="currentColor" stroke="currentColor" stroke-width="1.2" stroke-linecap="round" stroke-linejoin="round" />
  <path d="M82.96,32.17 C82.99,32.22 82.99,32.26 82.99,32.30" fill="currentColor" stroke="currentColor" stroke-width="1.2" stroke-linecap="round" stroke-linejoin="round" />
  <path d="M29.22,32.30 C29.22,32.27 29.24,32.23 29.28,32.18" fill="currentColor" stroke="currentColor" stroke-width="1.2" stroke-linecap="round" stroke-linejoin="round" />
  <path d="M78.67,32.30 C78.68,32.27 78.70,32.23 78.73,32.18" fill="currentColor" stroke="currentColor" stroke-width="1.2" stroke-linecap="round" stroke-linejoin="round" />
  <path d="M32.60,32.36 C32.59,32.34 32.58,32.32 32.57,32.29" fill="currentColor" stroke="currentColor" stroke-width="1.2" stroke-linecap="round" stroke-linejoin="round" />
  <path d="M30.24,32.29 C30.22,32.32 30.20,32.34 30.17,32.36" fill="currentColor" stroke="currentColor" stroke-width="1.2" stroke-linecap="round" stroke-linejoin="round" />
  <path d="M82.05,32.36 C82.04,32.34 82.03,32.32 82.02,32.29" fill="currentColor" stroke="currentColor" stroke-width="1.2" stroke-linecap="round" stroke-linejoin="round" />
  <path d="M79.69,32.29 C79.67,32.32 79.65,32.34 79.63,32.36" fill="currentColor" stroke="currentColor" stroke-width="1.2" stroke-linecap="round" stroke-linejoin="round" />
  <path d="M33.54,32.30 C33.53,32.33 33.51,32.36 33.47,32.38" fill="currentColor" stroke="currentColor" stroke-width="1.2" stroke-linecap="round" stroke-linejoin="round" />
  <path d="M82.99,32.30 C82.98,32.33 82.96,32.36 82.92,32.38" fill="currentColor" stroke="currentColor" stroke-width="1.2" stroke-linecap="round" stroke-linejoin="round" />
  <path d="M29.26,32.38 C29.22,32.36 29.21,32.33 29.22,32.30" fill="currentColor" stroke="currentColor" stroke-width="1.2" stroke-linecap="round" stroke-linejoin="round" />
  <path d="M78.71,32.38 C78.68,32.36 78.67,32.33 78.67,32.30" fill="currentColor" stroke="currentColor" stroke-width="1.2" stroke-linecap="round" stroke-linejoin="round" />
  <path d="M32.66,32.41 C32.63,32.39 32.61,32.38 32.60,32.36" fill="currentColor" stroke="currentColor" stroke-width="1.2" stroke-linecap="round" stroke-linejoin="round" />
  <path d="M30.17,32.36 C30.15,32.38 30.12,32.39 30.07,32.40" fill="currentColor" stroke="currentColor" stroke-width="1.2" stroke-linecap="round" stroke-linejoin="round" />
  <path d="M82.12,32.41 C82.08,32.39 82.06,32.38 82.05,32.36" fill="currentColor" stroke="currentColor" stroke-width="1.2" stroke-linecap="round" stroke-linejoin="round" />
  <path d="M79.63,32.36 C79.60,32.38 79.57,32.39 79.53,32.40" fill="currentColor" stroke="currentColor" stroke-width="1.2" stroke-linecap="round" stroke-linejoin="round" />
  <path d="M33.47,32.38 C33.43,32.40 33.37,32.42 33.30,32.43" fill="currentColor" stroke="currentColor" stroke-width="1.2" stroke-linecap="round" stroke-linejoin="round" />
  <path d="M29.40,32.43 C29.33,32.42 29.29,32.40 29.26,32.38" fill="currentColor" stroke="currentColor" stroke-width="1.2" stroke-linecap="round" stroke-linejoin="round" />
  <path d="M82.92,32.38 C82.88,32.40 82.83,32.42 82.76,32.43" fill="currentColor" stroke="currentColor" stroke-width="1.2" stroke-linecap="round" stroke-linejoin="round" />
  <path d="M78.85,32.43 C78.79,32.42 78.74,32.40 78.71,32.38" fill="currentColor" stroke="currentColor" stroke-width="1.2" stroke-linecap="round" stroke-linejoin="round" />
  <path d="M30.07,32.40 C30.03,32.41 29.98,32.42 29.91,32.43" fill="currentColor" stroke="currentColor" stroke-width="1.2" stroke-linecap="round" stroke-linejoin="round" />
  <path d="M79.53,32.40 C79.48,32.41 79.43,32.42 79.36,32.43" fill="currentColor" stroke="currentColor" stroke-width="1.2" stroke-linecap="round" stroke-linejoin="round" />
  <path d="M32.80,32.43 C32.74,32.43 32.69,32.42 32.66,32.41" fill="currentColor" stroke="currentColor" stroke-width="1.2" stroke-linecap="round" stroke-linejoin="round" />
  <path d="M82.25,32.43 C82.19,32.43 82.15,32.42 82.12,32.41" fill="currentColor" stroke="currentColor" stroke-width="1.2" stroke-linecap="round" stroke-linejoin="round" />
  <path d="M33.30,32.43 C33.24,32.44 33.14,32.44 33.03,32.44" fill="currentColor" stroke="currentColor" stroke-width="1.2" stroke-linecap="round" stroke-linejoin="round" />
  <path d="M29.65,32.44 C29.55,32.44 29.46,32.44 29.40,32.43" fill="currentColor" stroke="currentColor" stroke-width="1.2" stroke-linecap="round" stroke-linejoin="round" />
  <path d="M82.76,32.43 C82.69,32.44 82.60,32.44 82.49,32.44" fill="currentColor" stroke="currentColor" stroke-width="1.2" stroke-linecap="round" stroke-linejoin="round" />
  <path d="M79.10,32.44 C79.00,32.44 78.92,32.44 78.85,32.43" fill="currentColor" stroke="currentColor" stroke-width="1.2" stroke-linecap="round" stroke-linejoin="round" />
  <path d="M29.91,32.43 C29.84,32.44 29.76,32.44 29.65,32.44" fill="currentColor" stroke="currentColor" stroke-width="1.2" stroke-linecap="round" stroke-linejoin="round" />
  <path d="M79.36,32.43 C79.30,32.44 79.21,32.44 79.10,32.44" fill="currentColor" stroke="currentColor" stroke-width="1.2" stroke-linecap="round" stroke-linejoin="round" />
  <path d="M33.03,32.44 C32.93,32.44 32.85,32.44 32.80,32.43" fill="currentColor" stroke="currentColor" stroke-width="1.2" stroke-linecap="round" stroke-linejoin="round" />
  <path d="M82.49,32.44 C82.39,32.44 82.31,32.44 82.25,32.43" fill="currentColor" stroke="currentColor" stroke-width="1.2" stroke-linecap="round" stroke-linejoin="round" />
  <rect x="15.44" y="52.55" width="7.10" height="7.10" fill="none" stroke="currentColor" stroke-width="1.000000011920929" stroke-linecap="round" stroke-linejoin="round" />
  <line x1="15.44" y1="52.55" x2="96.19" y2="52.55" fill="none" stroke="currentColor" stroke-width="1.4000000476837158" stroke-linecap="round" stroke-linejoin="round" />
  <path d="M9.26,76.38 C9.33,76.38 9.42,76.37 9.53,76.37" fill="currentColor" stroke="currentColor" stroke-width="1.2" stroke-linecap="round" stroke-linejoin="round" />
  <path d="M9.53,76.37 C9.63,76.37 9.71,76.38 9.77,76.38" fill="currentColor" stroke="currentColor" stroke-width="1.2" stroke-linecap="round" stroke-linejoin="round" />
  <path d="M12.52,76.38 C12.58,76.38 12.66,76.37 12.76,76.37" fill="currentColor" stroke="currentColor" stroke-width="1.2" stroke-linecap="round" stroke-linejoin="round" />
  <path d="M12.76,76.37 C12.86,76.37 12.95,76.38 13.02,76.38" fill="currentColor" stroke="currentColor" stroke-width="1.2" stroke-linecap="round" stroke-linejoin="round" />
  <path d="M9.77,76.38 C9.83,76.39 9.87,76.39 9.90,76.41" fill="currentColor" stroke="currentColor" stroke-width="1.2" stroke-linecap="round" stroke-linejoin="round" />
  <path d="M12.37,76.41 C12.41,76.40 12.46,76.39 12.52,76.38" fill="currentColor" stroke="currentColor" stroke-width="1.2" stroke-linecap="round" stroke-linejoin="round" />
  <path d="M9.11,76.43 C9.15,76.41 9.20,76.39 9.26,76.38" fill="currentColor" stroke="currentColor" stroke-width="1.2" stroke-linecap="round" stroke-linejoin="round" />
  <path d="M13.02,76.38 C13.09,76.39 13.14,76.40 13.17,76.42" fill="currentColor" stroke="currentColor" stroke-width="1.2" stroke-linecap="round" stroke-linejoin="round" />
  <path d="M9.90,76.41 C9.93,76.42 9.95,76.43 9.97,76.45" fill="currentColor" stroke="currentColor" stroke-width="1.2" stroke-linecap="round" stroke-linejoin="round" />
  <path d="M12.28,76.45 C12.31,76.44 12.33,76.42 12.37,76.41" fill="currentColor" stroke="currentColor" stroke-width="1.2" stroke-linecap="round" stroke-linejoin="round" />
  <path d="M13.17,76.42 C13.20,76.44 13.22,76.47 13.21,76.50" fill="currentColor" stroke="currentColor" stroke-width="1.2" stroke-linecap="round" stroke-linejoin="round" />
  <path d="M9.06,76.51 C9.06,76.48 9.08,76.45 9.11,76.43" fill="currentColor" stroke="currentColor" stroke-width="1.2" stroke-linecap="round" stroke-linejoin="round" />
  <path d="M9.97,76.45 C9.98,76.47 9.99,76.49 10.00,76.51" fill="currentColor" stroke="currentColor" stroke-width="1.2" stroke-linecap="round" stroke-linejoin="round" />
  <path d="M12.22,76.51 C12.24,76.49 12.26,76.47 12.28,76.45" fill="currentColor" stroke="currentColor" stroke-width="1.2" stroke-linecap="round" stroke-linejoin="round" />
  <path d="M13.21,76.50 C13.20,76.53 13.18,76.58 13.13,76.63" fill="currentColor" stroke="currentColor" stroke-width="1.2" stroke-linecap="round" stroke-linejoin="round" />
  <path d="M9.08,76.64 C9.06,76.59 9.05,76.54 9.06,76.51" fill="currentColor" stroke="currentColor" stroke-width="1.2" stroke-linecap="round" stroke-linejoin="round" />
  <line x1="10.00" y1="76.51" x2="10.77" y2="78.32" fill="currentColor" stroke="currentColor" stroke-width="1.2" stroke-linecap="round" stroke-linejoin="round" />
  <line x1="10.77" y1="78.32" x2="12.22" y2="76.51" fill="currentColor" stroke="currentColor" stroke-width="1.2" stroke-linecap="round" stroke-linejoin="round" />
  <line x1="13.13" y1="76.63" x2="11.25" y2="78.91" fill="currentColor" stroke="currentColor" stroke-width="1.2" stroke-linecap="round" stroke-linejoin="round" />
  <line x1="10.08" y1="78.89" x2="9.08" y2="76.64" fill="currentColor" stroke="currentColor" stroke-width="1.2" stroke-linecap="round" stroke-linejoin="round" />
  <line x1="8.07" y1="81.28" x2="10.08" y2="78.89" fill="currentColor" stroke="currentColor" stroke-width="1.2" stroke-linecap="round" stroke-linejoin="round" />
  <line x1="11.25" y1="78.91" x2="12.30" y2="81.27" fill="currentColor" stroke="currentColor" stroke-width="1.2" stroke-linecap="round" stroke-linejoin="round" />
  <line x1="11.35" y1="81.39" x2="10.55" y2="79.48" fill="currentColor" stroke="currentColor" stroke-width="1.2" stroke-linecap="round" stroke-linejoin="round" />
  <line x1="10.55" y1="79.48" x2="9.03" y2="81.39" fill="currentColor" stroke="currentColor" stroke-width="1.2" stroke-linecap="round" stroke-linejoin="round" />
  <path d="M12.30,81.27 C12.32,81.32 12.33,81.36 12.32,81.40" fill="currentColor" stroke="currentColor" stroke-width="1.2" stroke-linecap="round" stroke-linejoin="round" />
  <path d="M8.01,81.40 C8.01,81.37 8.03,81.33 8.07,81.28" fill="currentColor" stroke="currentColor" stroke-width="1.2" stroke-linecap="round" stroke-linejoin="round" />
  <path d="M11.39,81.46 C11.38,81.44 11.36,81.41 11.35,81.39" fill="currentColor" stroke="currentColor" stroke-width="1.2" stroke-linecap="round" stroke-linejoin="round" />
  <path d="M9.03,81.39 C9.01,81.41 8.98,81.44 8.96,81.46" fill="currentColor" stroke="currentColor" stroke-width="1.2" stroke-linecap="round" stroke-linejoin="round" />
  <path d="M12.32,81.40 C12.32,81.43 12.30,81.46 12.26,81.48" fill="currentColor" stroke="currentColor" stroke-width="1.2" stroke-linecap="round" stroke-linejoin="round" />
  <path d="M8.04,81.48 C8.01,81.46 8.00,81.43 8.01,81.40" fill="currentColor" stroke="currentColor" stroke-width="1.2" stroke-linecap="round" stroke-linejoin="round" />
  <path d="M11.45,81.50 C11.42,81.49 11.40,81.48 11.39,81.46" fill="currentColor" stroke="currentColor" stroke-width="1.2" stroke-linecap="round" stroke-linejoin="round" />
  <path d="M8.96,81.46 C8.94,81.48 8.90,81.49 8.86,81.50" fill="currentColor" stroke="currentColor" stroke-width="1.2" stroke-linecap="round" stroke-linejoin="round" />
  <path d="M12.26,81.48 C12.22,81.50 12.16,81.52 12.09,81.53" fill="currentColor" stroke="currentColor" stroke-width="1.2" stroke-linecap="round" stroke-linejoin="round" />
  <path d="M8.19,81.53 C8.12,81.52 8.07,81.50 8.04,81.48" fill="currentColor" stroke="currentColor" stroke-width="1.2" stroke-linecap="round" stroke-linejoin="round" />
  <path d="M8.86,81.50 C8.82,81.51 8.76,81.52 8.70,81.53" fill="currentColor" stroke="currentColor" stroke-width="1.2" stroke-linecap="round" stroke-linejoin="round" />
  <path d="M11.58,81.53 C11.53,81.53 11.48,81.52 11.45,81.50" fill="currentColor" stroke="currentColor" stroke-width="1.2" stroke-linecap="round" stroke-linejoin="round" />
  <path d="M12.09,81.53 C12.02,81.54 11.93,81.54 11.82,81.54" fill="currentColor" stroke="currentColor" stroke-width="1.2" stroke-linecap="round" stroke-linejoin="round" />
  <path d="M8.44,81.54 C8.33,81.54 8.25,81.54 8.19,81.53" fill="currentColor" stroke="currentColor" stroke-width="1.2" stroke-linecap="round" stroke-linejoin="round" />
  <path d="M8.70,81.53 C8.63,81.54 8.54,81.54 8.44,81.54" fill="currentColor" stroke="currentColor" stroke-width="1.2" stroke-linecap="round" stroke-linejoin="round" />
  <path d="M11.82,81.54 C11.72,81.54 11.64,81.54 11.58,81.53" fill="currentColor" stroke="currentColor" stroke-width="1.2" stroke-linecap="round" stroke-linejoin="round" />
  <line x1="58.50" y1="94.96" x2="62.59" y2="83.61" fill="none" stroke="currentColor" stroke-width="1.5760000467300415" stroke-linecap="round" stroke-linejoin="round" />
  <line x1="62.59" y1="83.61" x2="70.17" y2="83.61" fill="none" stroke="currentColor" stroke-width="1.5760000467300415" stroke-linecap="round" stroke-linejoin="round" />
  <line x1="56.40" y1="90.75" x2="57.11" y2="90.14" fill="none" stroke="currentColor" stroke-width="1.6" stroke-linecap="round" stroke-linejoin="round" />
  <line x1="57.11" y1="90.14" x2="58.51" y2="94.96" fill="none" stroke="currentColor" stroke-width="1.6" stroke-linecap="round" stroke-linejoin="round" />
  <text x="62.79" y="96.71" font-size="11.0" fill="currentColor" stroke="none" font-family="'Iowan Old Style', 'Sitka Text', Charter, Cambria, Georgia, serif">3</text>
</svg>