<svg xmlns="http://www.w3.org/2000/svg" viewBox="0 0 151.04 86.23" preserveAspectRatio="xMidYMid meet" shape-rendering="geometricPrecision" text-rendering="optimizeLegibility">
  <path d="M95.17,8.25 C95.54,8.08 95.96,8.00 96.41,8.00" fill="currentColor" stroke="currentColor" stroke-width="1.2" stroke-linecap="round" stroke-linejoin="round" />
  <path d="M96.41,8.00 C96.61,8.00 96.81,8.02 97.00,8.06" fill="currentColor" stroke="currentColor" stroke-width="1.2" stroke-linecap="round" stroke-linejoin="round" />
  <path d="M97.00,8.06 C97.19,8.09 97.36,8.14 97.52,8.20" fill="currentColor" stroke="currentColor" stroke-width="1.2" stroke-linecap="round" stroke-linejoin="round" />
  <path d="M97.52,8.20 C97.68,8.26 97.83,8.32 97.95,8.40" fill="currentColor" stroke="currentColor" stroke-width="1.2" stroke-linecap="round" stroke-linejoin="round" />
  <path d="M94.20,8.96 C94.47,8.65 94.79,8.41 95.17,8.25" fill="currentColor" stroke="currentColor" stroke-width="1.2" stroke-linecap="round" stroke-linejoin="round" />
  <path d="M97.95,8.40 C98.08,8.47 98.16,8.54 98.21,8.58" fill="currentColor" stroke="currentColor" stroke-width="1.2" stroke-linecap="round" stroke-linejoin="round" />
  <path d="M98.21,8.58 C98.26,8.63 98.29,8.67 98.31,8.69" fill="currentColor" stroke="currentColor" stroke-width="1.2" stroke-linecap="round" stroke-linejoin="round" />
  <path d="M98.31,8.69 C98.32,8.72 98.33,8.75 98.34,8.78" fill="currentColor" stroke="currentColor" stroke-width="1.2" stroke-linecap="round" stroke-linejoin="round" />
  <path d="M98.34,8.78 C98.35,8.82 98.36,8.86 98.36,8.90" fill="currentColor" stroke="currentColor" stroke-width="1.2" stroke-linecap="round" stroke-linejoin="round" />
  <path d="M97.13,8.91 C96.93,8.84 96.69,8.81 96.41,8.81" fill="currentColor" stroke="currentColor" stroke-width="1.2" stroke-linecap="round" stroke-linejoin="round" />
  <path d="M96.41,8.81 C96.10,8.81 95.82,8.87 95.56,8.99" fill="currentColor" stroke="currentColor" stroke-width="1.2" stroke-linecap="round" stroke-linejoin="round" />
  <path d="M98.36,8.90 C98.37,8.95 98.37,9.00 98.37,9.07" fill="currentColor" stroke="currentColor" stroke-width="1.2" stroke-linecap="round" stroke-linejoin="round" />
  <path d="M97.65,9.14 C97.51,9.06 97.34,8.98 97.13,8.91" fill="currentColor" stroke="currentColor" stroke-width="1.2" stroke-linecap="round" stroke-linejoin="round" />
  <path d="M93.58,10.11 C93.73,9.66 93.93,9.28 94.20,8.96" fill="currentColor" stroke="currentColor" stroke-width="1.2" stroke-linecap="round" stroke-linejoin="round" />
  <path d="M95.56,8.99 C95.31,9.11 95.10,9.30 94.92,9.54" fill="currentColor" stroke="currentColor" stroke-width="1.2" stroke-linecap="round" stroke-linejoin="round" />
  <path d="M98.37,9.07 C98.37,9.14 98.37,9.20 98.36,9.25" fill="currentColor" stroke="currentColor" stroke-width="1.2" stroke-linecap="round" stroke-linejoin="round" />
  <path d="M97.99,9.37 C97.91,9.30 97.79,9.23 97.65,9.14" fill="currentColor" stroke="currentColor" stroke-width="1.2" stroke-linecap="round" stroke-linejoin="round" />
  <path d="M98.36,9.25 C98.35,9.30 98.34,9.34 98.33,9.38" fill="currentColor" stroke="currentColor" stroke-width="1.2" stroke-linecap="round" stroke-linejoin="round" />
  <path d="M98.20,9.48 C98.15,9.48 98.08,9.44 97.99,9.37" fill="currentColor" stroke="currentColor" stroke-width="1.2" stroke-linecap="round" stroke-linejoin="round" />
  <path d="M98.33,9.38 C98.31,9.41 98.30,9.44 98.28,9.45" fill="currentColor" stroke="currentColor" stroke-width="1.2" stroke-linecap="round" stroke-linejoin="round" />
  <path d="M98.28,9.45 C98.26,9.47 98.23,9.48 98.20,9.48" fill="currentColor" stroke="currentColor" stroke-width="1.2" stroke-linecap="round" stroke-linejoin="round" />
  <path d="M94.92,9.54 C94.74,9.78 94.60,10.07 94.50,10.41" fill="currentColor" stroke="currentColor" stroke-width="1.2" stroke-linecap="round" stroke-linejoin="round" />
  <path d="M93.35,11.65 C93.35,11.08 93.43,10.56 93.58,10.11" fill="currentColor" stroke="currentColor" stroke-width="1.2" stroke-linecap="round" stroke-linejoin="round" />
  <path d="M94.50,10.41 C94.40,10.76 94.35,11.15 94.35,11.60" fill="currentColor" stroke="currentColor" stroke-width="1.2" stroke-linecap="round" stroke-linejoin="round" />
  <path d="M94.35,11.60 C94.35,12.04 94.40,12.43 94.50,12.77" fill="currentColor" stroke="currentColor" stroke-width="1.2" stroke-linecap="round" stroke-linejoin="round" />
  <path d="M93.56,13.14 C93.42,12.71 93.35,12.21 93.35,11.65" fill="currentColor" stroke="currentColor" stroke-width="1.2" stroke-linecap="round" stroke-linejoin="round" />
  <path d="M94.50,12.77 C94.59,13.11 94.73,13.39 94.90,13.61" fill="currentColor" stroke="currentColor" stroke-width="1.2" stroke-linecap="round" stroke-linejoin="round" />
  <path d="M94.15,14.23 C93.90,13.94 93.70,13.57 93.56,13.14" fill="currentColor" stroke="currentColor" stroke-width="1.2" stroke-linecap="round" stroke-linejoin="round" />
  <path d="M94.90,13.61 C95.08,13.84 95.30,14.01 95.56,14.13" fill="currentColor" stroke="currentColor" stroke-width="1.2" stroke-linecap="round" stroke-linejoin="round" />
  <path d="M98.04,13.75 C98.13,13.68 98.20,13.65 98.26,13.65" fill="currentColor" stroke="currentColor" stroke-width="1.2" stroke-linecap="round" stroke-linejoin="round" />
  <path d="M98.26,13.65 C98.28,13.65 98.30,13.65 98.32,13.66" fill="currentColor" stroke="currentColor" stroke-width="1.2" stroke-linecap="round" stroke-linejoin="round" />
  <path d="M98.32,13.66 C98.34,13.67 98.35,13.69 98.37,13.72" fill="currentColor" stroke="currentColor" stroke-width="1.2" stroke-linecap="round" stroke-linejoin="round" />
  <path d="M98.37,13.72 C98.38,13.75 98.38,13.79 98.39,13.85" fill="currentColor" stroke="currentColor" stroke-width="1.2" stroke-linecap="round" stroke-linejoin="round" />
  <path d="M97.68,13.97 C97.83,13.89 97.94,13.82 98.04,13.75" fill="currentColor" stroke="currentColor" stroke-width="1.2" stroke-linecap="round" stroke-linejoin="round" />
  <path d="M98.39,13.85 C98.39,13.90 98.40,13.97 98.40,14.05" fill="currentColor" stroke="currentColor" stroke-width="1.2" stroke-linecap="round" stroke-linejoin="round" />
  <path d="M97.15,14.20 C97.36,14.14 97.54,14.06 97.68,13.97" fill="currentColor" stroke="currentColor" stroke-width="1.2" stroke-linecap="round" stroke-linejoin="round" />
  <path d="M98.40,14.05 C98.40,14.11 98.40,14.16 98.39,14.20" fill="currentColor" stroke="currentColor" stroke-width="1.2" stroke-linecap="round" stroke-linejoin="round" />
  <path d="M95.56,14.13 C95.81,14.25 96.11,14.31 96.43,14.31" fill="currentColor" stroke="currentColor" stroke-width="1.2" stroke-linecap="round" stroke-linejoin="round" />
  <path d="M98.39,14.20 C98.39,14.25 98.38,14.28 98.37,14.32" fill="currentColor" stroke="currentColor" stroke-width="1.2" stroke-linecap="round" stroke-linejoin="round" />
  <path d="M96.43,14.31 C96.71,14.31 96.95,14.27 97.15,14.20" fill="currentColor" stroke="currentColor" stroke-width="1.2" stroke-linecap="round" stroke-linejoin="round" />
  <path d="M95.08,14.90 C94.72,14.75 94.41,14.52 94.15,14.23" fill="currentColor" stroke="currentColor" stroke-width="1.2" stroke-linecap="round" stroke-linejoin="round" />
  <path d="M98.37,14.32 C98.36,14.35 98.35,14.38 98.34,14.40" fill="currentColor" stroke="currentColor" stroke-width="1.2" stroke-linecap="round" stroke-linejoin="round" />
  <path d="M98.34,14.40 C98.32,14.43 98.30,14.46 98.26,14.49" fill="currentColor" stroke="currentColor" stroke-width="1.2" stroke-linecap="round" stroke-linejoin="round" />
  <path d="M98.26,14.49 C98.23,14.53 98.15,14.58 98.04,14.66" fill="currentColor" stroke="currentColor" stroke-width="1.2" stroke-linecap="round" stroke-linejoin="round" />
  <path d="M98.04,14.66 C97.92,14.73 97.78,14.80 97.61,14.87" fill="currentColor" stroke="currentColor" stroke-width="1.2" stroke-linecap="round" stroke-linejoin="round" />
  <path d="M97.61,14.87 C97.44,14.94 97.25,15.00 97.03,15.05" fill="currentColor" stroke="currentColor" stroke-width="1.2" stroke-linecap="round" stroke-linejoin="round" />
  <path d="M96.30,15.12 C95.85,15.12 95.44,15.05 95.08,14.90" fill="currentColor" stroke="currentColor" stroke-width="1.2" stroke-linecap="round" stroke-linejoin="round" />
  <path d="M97.03,15.05 C96.81,15.10 96.56,15.12 96.30,15.12" fill="currentColor" stroke="currentColor" stroke-width="1.2" stroke-linecap="round" stroke-linejoin="round" />
  <line x1="133.46" y1="74.71" x2="96.44" y2="17.71" fill="none" stroke="currentColor" stroke-width="1.4000000476837158" stroke-linecap="round" stroke-linejoin="round" />
  <line x1="96.44" y1="17.71" x2="17.97" y2="74.72" fill="none" stroke="currentColor" stroke-width="1.4000000476837158" stroke-linecap="round" stroke-linejoin="round" />
  <path d="M93.51,28.04 C91.18,27.38 89.25,26.00 87.89,24.21" fill="none" stroke="currentColor" stroke-width="1.000000011920929" stroke-linecap="round" stroke-linejoin="round" />
  <path d="M102.30,26.71 C99.79,28.34 96.62,28.92 93.51,28.04" fill="none" stroke="currentColor" stroke-width="1.000000011920929" stroke-linecap="round" stroke-linejoin="round" />
  <path d="M91.48,31.19 C91.54,31.19 91.62,31.18 91.71,31.18" fill="currentColor" stroke="currentColor" stroke-width="1.2" stroke-linecap="round" stroke-linejoin="round" />
  <path d="M91.71,31.18 C91.80,31.18 91.88,31.19 91.93,31.19" fill="currentColor" stroke="currentColor" stroke-width="1.2" stroke-linecap="round" stroke-linejoin="round" />
  <path d="M94.63,31.19 C94.68,31.19 94.75,31.18 94.83,31.18" fill="currentColor" stroke="currentColor" stroke-width="1.2" stroke-linecap="round" stroke-linejoin="round" />
  <path d="M94.83,31.18 C94.91,31.18 94.98,31.19 95.04,31.19" fill="currentColor" stroke="currentColor" stroke-width="1.2" stroke-linecap="round" stroke-linejoin="round" />
  <path d="M97.76,31.19 C97.82,31.19 97.90,31.18 97.99,31.18" fill="currentColor" stroke="currentColor" stroke-width="1.2" stroke-linecap="round" stroke-linejoin="round" />
  <path d="M97.99,31.18 C98.07,31.18 98.15,31.19 98.20,31.19" fill="currentColor" stroke="currentColor" stroke-width="1.2" stroke-linecap="round" stroke-linejoin="round" />
  <path d="M91.34,31.22 C91.38,31.21 91.42,31.20 91.48,31.19" fill="currentColor" stroke="currentColor" stroke-width="1.2" stroke-linecap="round" stroke-linejoin="round" />
  <path d="M91.93,31.19 C91.99,31.20 92.03,31.21 92.06,31.22" fill="currentColor" stroke="currentColor" stroke-width="1.2" stroke-linecap="round" stroke-linejoin="round" />
  <path d="M94.50,31.22 C94.53,31.21 94.57,31.20 94.63,31.19" fill="currentColor" stroke="currentColor" stroke-width="1.2" stroke-linecap="round" stroke-linejoin="round" />
  <path d="M95.04,31.19 C95.09,31.20 95.14,31.21 95.17,31.22" fill="currentColor" stroke="currentColor" stroke-width="1.2" stroke-linecap="round" stroke-linejoin="round" />
  <path d="M97.61,31.22 C97.65,31.21 97.70,31.20 97.76,31.19" fill="currentColor" stroke="currentColor" stroke-width="1.2" stroke-linecap="round" stroke-linejoin="round" />
  <path d="M98.20,31.19 C98.26,31.20 98.30,31.20 98.33,31.21" fill="currentColor" stroke="currentColor" stroke-width="1.2" stroke-linecap="round" stroke-linejoin="round" />
  <path d="M98.33,31.21 C98.36,31.22 98.37,31.23 98.38,31.25" fill="currentColor" stroke="currentColor" stroke-width="1.2" stroke-linecap="round" stroke-linejoin="round" />
  <path d="M92.06,31.22 C92.09,31.23 92.11,31.25 92.12,31.27" fill="currentColor" stroke="currentColor" stroke-width="1.2" stroke-linecap="round" stroke-linejoin="round" />
  <path d="M95.17,31.22 C95.20,31.23 95.22,31.25 95.24,31.27" fill="currentColor" stroke="currentColor" stroke-width="1.2" stroke-linecap="round" stroke-linejoin="round" />
  <path d="M97.52,31.27 C97.54,31.25 97.57,31.23 97.61,31.22" fill="currentColor" stroke="currentColor" stroke-width="1.2" stroke-linecap="round" stroke-linejoin="round" />
  <path d="M94.42,31.28 C94.44,31.25 94.47,31.23 94.50,31.22" fill="currentColor" stroke="currentColor" stroke-width="1.2" stroke-linecap="round" stroke-linejoin="round" />
  <path d="M91.27,31.29 C91.28,31.26 91.31,31.24 91.34,31.22" fill="currentColor" stroke="currentColor" stroke-width="1.2" stroke-linecap="round" stroke-linejoin="round" />
  <path d="M98.38,31.25 C98.39,31.27 98.40,31.28 98.40,31.31" fill="currentColor" stroke="currentColor" stroke-width="1.2" stroke-linecap="round" stroke-linejoin="round" />
  <path d="M95.24,31.27 C95.25,31.29 95.26,31.32 95.27,31.34" fill="currentColor" stroke="currentColor" stroke-width="1.2" stroke-linecap="round" stroke-linejoin="round" />
  <path d="M92.12,31.27 C92.13,31.29 92.14,31.32 92.15,31.35" fill="currentColor" stroke="currentColor" stroke-width="1.2" stroke-linecap="round" stroke-linejoin="round" />
  <path d="M97.48,31.35 C97.49,31.32 97.50,31.29 97.52,31.27" fill="currentColor" stroke="currentColor" stroke-width="1.2" stroke-linecap="round" stroke-linejoin="round" />
  <path d="M94.37,31.35 C94.39,31.33 94.40,31.30 94.42,31.28" fill="currentColor" stroke="currentColor" stroke-width="1.2" stroke-linecap="round" stroke-linejoin="round" />
  <path d="M91.25,31.39 C91.25,31.35 91.26,31.31 91.27,31.29" fill="currentColor" stroke="currentColor" stroke-width="1.2" stroke-linecap="round" stroke-linejoin="round" />
  <path d="M98.40,31.31 C98.40,31.35 98.39,31.39 98.38,31.43" fill="currentColor" stroke="currentColor" stroke-width="1.2" stroke-linecap="round" stroke-linejoin="round" />
  <line x1="95.27" y1="31.34" x2="95.66" y2="35.32" fill="currentColor" stroke="currentColor" stroke-width="1.2" stroke-linecap="round" stroke-linejoin="round" />
  <line x1="92.15" y1="31.35" x2="92.52" y2="35.35" fill="currentColor" stroke="currentColor" stroke-width="1.2" stroke-linecap="round" stroke-linejoin="round" />
  <line x1="92.54" y1="35.35" x2="94.37" y2="31.35" fill="currentColor" stroke="currentColor" stroke-width="1.2" stroke-linecap="round" stroke-linejoin="round" />
  <path d="M97.10,32.42 C97.24,32.06 97.36,31.70 97.48,31.35" fill="currentColor" stroke="currentColor" stroke-width="1.2" stroke-linecap="round" stroke-linejoin="round" />
  <path d="M91.25,31.47 C91.25,31.44 91.25,31.41 91.25,31.39" fill="currentColor" stroke="currentColor" stroke-width="1.2" stroke-linecap="round" stroke-linejoin="round" />
  <path d="M98.38,31.43 C98.37,31.47 98.37,31.50 98.35,31.53" fill="currentColor" stroke="currentColor" stroke-width="1.2" stroke-linecap="round" stroke-linejoin="round" />
  <path d="M91.26,31.56 C91.26,31.53 91.25,31.50 91.25,31.47" fill="currentColor" stroke="currentColor" stroke-width="1.2" stroke-linecap="round" stroke-linejoin="round" />
  <path d="M98.35,31.53 C98.22,31.92 98.07,32.32 97.91,32.72" fill="currentColor" stroke="currentColor" stroke-width="1.2" stroke-linecap="round" stroke-linejoin="round" />
  <line x1="91.77" y1="36.16" x2="91.26" y2="31.56" fill="currentColor" stroke="currentColor" stroke-width="1.2" stroke-linecap="round" stroke-linejoin="round" />
  <path d="M96.66,33.48 C96.82,33.13 96.96,32.78 97.10,32.42" fill="currentColor" stroke="currentColor" stroke-width="1.2" stroke-linecap="round" stroke-linejoin="round" />
  <line x1="94.93" y1="36.16" x2="94.57" y2="32.61" fill="currentColor" stroke="currentColor" stroke-width="1.2" stroke-linecap="round" stroke-linejoin="round" />
  <line x1="94.57" y1="32.61" x2="92.95" y2="36.14" fill="currentColor" stroke="currentColor" stroke-width="1.2" stroke-linecap="round" stroke-linejoin="round" />
  <path d="M97.91,32.72 C97.74,33.12 97.56,33.51 97.37,33.91" fill="currentColor" stroke="currentColor" stroke-width="1.2" stroke-linecap="round" stroke-linejoin="round" />
  <path d="M96.18,34.47 C96.35,34.15 96.51,33.82 96.66,33.48" fill="currentColor" stroke="currentColor" stroke-width="1.2" stroke-linecap="round" stroke-linejoin="round" />
  <path d="M97.37,33.91 C97.17,34.30 96.96,34.69 96.74,35.07" fill="currentColor" stroke="currentColor" stroke-width="1.2" stroke-linecap="round" stroke-linejoin="round" />
  <path d="M95.69,35.32 C95.85,35.07 96.02,34.78 96.18,34.47" fill="currentColor" stroke="currentColor" stroke-width="1.2" stroke-linecap="round" stroke-linejoin="round" />
  <path d="M96.74,35.07 C96.51,35.46 96.27,35.82 96.01,36.18" fill="currentColor" stroke="currentColor" stroke-width="1.2" stroke-linecap="round" stroke-linejoin="round" />
  <line x1="95.66" y1="35.32" x2="95.66" y2="35.37" fill="currentColor" stroke="currentColor" stroke-width="1.2" stroke-linecap="round" stroke-linejoin="round" />
  <line x1="95.66" y1="35.37" x2="95.69" y2="35.32" fill="currentColor" stroke="currentColor" stroke-width="1.2" stroke-linecap="round" stroke-linejoin="round" />
  <line x1="92.52" y1="35.35" x2="92.52" y2="35.40" fill="currentColor" stroke="currentColor" stroke-width="1.2" stroke-linecap="round" stroke-linejoin="round" />
  <line x1="92.52" y1="35.40" x2="92.54" y2="35.35" fill="currentColor" stroke="currentColor" stroke-width="1.2" stroke-linecap="round" stroke-linejoin="round" />
  <path d="M92.95,36.14 C92.93,36.18 92.90,36.21 92.88,36.24" fill="currentColor" stroke="currentColor" stroke-width="1.2" stroke-linecap="round" stroke-linejoin="round" />
  <path d="M94.96,36.25 C94.94,36.22 94.93,36.19 94.93,36.16" fill="currentColor" stroke="currentColor" stroke-width="1.2" stroke-linecap="round" stroke-linejoin="round" />
  <path d="M91.80,36.25 C91.78,36.22 91.77,36.19 91.77,36.16" fill="currentColor" stroke="currentColor" stroke-width="1.2" stroke-linecap="round" stroke-linejoin="round" />
  <path d="M96.01,36.18 C95.99,36.22 95.96,36.25 95.92,36.27" fill="currentColor" stroke="currentColor" stroke-width="1.2" stroke-linecap="round" stroke-linejoin="round" />
  <path d="M92.88,36.24 C92.85,36.27 92.81,36.29 92.76,36.30" fill="currentColor" stroke="currentColor" stroke-width="1.2" stroke-linecap="round" stroke-linejoin="round" />
  <path d="M95.04,36.31 C95.00,36.29 94.97,36.27 94.96,36.25" fill="currentColor" stroke="currentColor" stroke-width="1.2" stroke-linecap="round" stroke-linejoin="round" />
  <path d="M91.90,36.31 C91.86,36.29 91.82,36.27 91.80,36.25" fill="currentColor" stroke="currentColor" stroke-width="1.2" stroke-linecap="round" stroke-linejoin="round" />
  <path d="M95.92,36.27 C95.88,36.29 95.84,36.31 95.79,36.32" fill="currentColor" stroke="currentColor" stroke-width="1.2" stroke-linecap="round" stroke-linejoin="round" />
  <path d="M92.76,36.30 C92.72,36.32 92.66,36.33 92.59,36.34" fill="currentColor" stroke="currentColor" stroke-width="1.2" stroke-linecap="round" stroke-linejoin="round" />
  <path d="M95.19,36.34 C95.13,36.33 95.08,36.32 95.04,36.31" fill="currentColor" stroke="currentColor" stroke-width="1.2" stroke-linecap="round" stroke-linejoin="round" />
  <path d="M92.08,36.34 C92.00,36.33 91.95,36.32 91.90,36.31" fill="currentColor" stroke="currentColor" stroke-width="1.2" stroke-linecap="round" stroke-linejoin="round" />
  <path d="M95.79,36.32 C95.74,36.33 95.69,36.34 95.63,36.34" fill="currentColor" stroke="currentColor" stroke-width="1.2" stroke-linecap="round" stroke-linejoin="round" />
  <path d="M95.42,36.35 C95.33,36.35 95.25,36.35 95.19,36.34" fill="currentColor" stroke="currentColor" stroke-width="1.2" stroke-linecap="round" stroke-linejoin="round" />
  <path d="M92.59,36.34 C92.52,36.35 92.43,36.35 92.33,36.35" fill="currentColor" stroke="currentColor" stroke-width="1.2" stroke-linecap="round" stroke-linejoin="round" />
  <path d="M92.33,36.35 C92.23,36.35 92.15,36.35 92.08,36.34" fill="currentColor" stroke="currentColor" stroke-width="1.2" stroke-linecap="round" stroke-linejoin="round" />
  <path d="M95.63,36.34 C95.57,36.35 95.50,36.35 95.42,36.35" fill="currentColor" stroke="currentColor" stroke-width="1.2" stroke-linecap="round" stroke-linejoin="round" />
  <path d="M125.65,66.90 C126.20,66.34 126.80,65.86 127.43,65.45" fill="none" stroke="currentColor" stroke-width="1.000000011920929" stroke-linecap="round" stroke-linejoin="round" />
  <path d="M116.90,65.94 C116.95,65.93 117.03,65.93 117.12,65.93" fill="currentColor" stroke="currentColor" stroke-width="1.2" stroke-linecap="round" stroke-linejoin="round" />
  <path d="M117.12,65.93 C117.21,65.93 117.29,65.93 117.35,65.94" fill="currentColor" stroke="currentColor" stroke-width="1.2" stroke-linecap="round" stroke-linejoin="round" />
  <path d="M120.36,65.94 C120.42,65.93 120.50,65.93 120.59,65.93" fill="currentColor" stroke="currentColor" stroke-width="1.2" stroke-linecap="round" stroke-linejoin="round" />
  <path d="M120.59,65.93 C120.68,65.93 120.75,65.93 120.80,65.94" fill="currentColor" stroke="currentColor" stroke-width="1.2" stroke-linecap="round" stroke-linejoin="round" />
  <path d="M116.77,65.97 C116.80,65.95 116.84,65.94 116.90,65.94" fill="currentColor" stroke="currentColor" stroke-width="1.2" stroke-linecap="round" stroke-linejoin="round" />
  <path d="M117.35,65.94 C117.40,65.94 117.45,65.95 117.48,65.96" fill="currentColor" stroke="currentColor" stroke-width="1.2" stroke-linecap="round" stroke-linejoin="round" />
  <path d="M120.21,65.96 C120.24,65.95 120.29,65.94 120.36,65.94" fill="currentColor" stroke="currentColor" stroke-width="1.2" stroke-linecap="round" stroke-linejoin="round" />
  <path d="M120.80,65.94 C120.85,65.94 120.90,65.95 120.93,65.96" fill="currentColor" stroke="currentColor" stroke-width="1.2" stroke-linecap="round" stroke-linejoin="round" />
  <path d="M120.93,65.96 C120.96,65.97 120.98,65.98 120.99,66.00" fill="currentColor" stroke="currentColor" stroke-width="1.2" stroke-linecap="round" stroke-linejoin="round" />
  <path d="M117.48,65.96 C117.51,65.98 117.53,65.99 117.54,66.02" fill="currentColor" stroke="currentColor" stroke-width="1.2" stroke-linecap="round" stroke-linejoin="round" />
  <path d="M120.12,66.02 C120.14,65.99 120.17,65.98 120.21,65.96" fill="currentColor" stroke="currentColor" stroke-width="1.2" stroke-linecap="round" stroke-linejoin="round" />
  <path d="M116.70,66.02 C116.71,66.00 116.73,65.98 116.77,65.97" fill="currentColor" stroke="currentColor" stroke-width="1.2" stroke-linecap="round" stroke-linejoin="round" />
  <path d="M120.99,66.00 C121.00,66.01 121.01,66.03 121.01,66.05" fill="currentColor" stroke="currentColor" stroke-width="1.2" stroke-linecap="round" stroke-linejoin="round" />
  <path d="M117.54,66.02 C117.55,66.04 117.56,66.07 117.56,66.10" fill="currentColor" stroke="currentColor" stroke-width="1.2" stroke-linecap="round" stroke-linejoin="round" />
  <path d="M120.07,66.10 C120.09,66.07 120.10,66.04 120.12,66.02" fill="currentColor" stroke="currentColor" stroke-width="1.2" stroke-linecap="round" stroke-linejoin="round" />
  <path d="M116.67,66.13 C116.67,66.09 116.68,66.05 116.70,66.02" fill="currentColor" stroke="currentColor" stroke-width="1.2" stroke-linecap="round" stroke-linejoin="round" />
  <path d="M121.01,66.05 C121.01,66.09 121.00,66.12 120.99,66.16" fill="currentColor" stroke="currentColor" stroke-width="1.2" stroke-linecap="round" stroke-linejoin="round" />
  <path d="M29.99,66.06 C31.76,68.50 32.79,71.49 32.79,74.72" fill="none" stroke="currentColor" stroke-width="1.000000011920929" stroke-linecap="round" stroke-linejoin="round" />
  <line x1="117.56" y1="66.10" x2="118.14" y2="70.09" fill="currentColor" stroke="currentColor" stroke-width="1.2" stroke-linecap="round" stroke-linejoin="round" />
  <path d="M119.66,67.26 C119.80,66.91 119.93,66.52 120.07,66.10" fill="currentColor" stroke="currentColor" stroke-width="1.2" stroke-linecap="round" stroke-linejoin="round" />
  <path d="M116.68,66.22 C116.68,66.18 116.67,66.16 116.67,66.13" fill="currentColor" stroke="currentColor" stroke-width="1.2" stroke-linecap="round" stroke-linejoin="round" />
  <path d="M120.99,66.16 C120.98,66.20 120.97,66.24 120.96,66.28" fill="currentColor" stroke="currentColor" stroke-width="1.2" stroke-linecap="round" stroke-linejoin="round" />
  <path d="M116.69,66.32 C116.68,66.28 116.68,66.25 116.68,66.22" fill="currentColor" stroke="currentColor" stroke-width="1.2" stroke-linecap="round" stroke-linejoin="round" />
  <path d="M120.96,66.28 C120.82,66.67 120.67,67.06 120.51,67.46" fill="currentColor" stroke="currentColor" stroke-width="1.2" stroke-linecap="round" stroke-linejoin="round" />
  <line x1="117.40" y1="70.90" x2="116.69" y2="66.32" fill="currentColor" stroke="currentColor" stroke-width="1.2" stroke-linecap="round" stroke-linejoin="round" />
  <path d="M35.42,66.62 C35.48,66.61 35.55,66.61 35.63,66.61" fill="currentColor" stroke="currentColor" stroke-width="1.2" stroke-linecap="round" stroke-linejoin="round" />
  <path d="M35.63,66.61 C35.72,66.61 35.79,66.61 35.85,66.62" fill="currentColor" stroke="currentColor" stroke-width="1.2" stroke-linecap="round" stroke-linejoin="round" />
  <path d="M38.57,66.62 C38.63,66.61 38.71,66.61 38.79,66.61" fill="currentColor" stroke="currentColor" stroke-width="1.2" stroke-linecap="round" stroke-linejoin="round" />
  <path d="M38.79,66.61 C38.88,66.61 38.95,66.61 39.00,66.62" fill="currentColor" stroke="currentColor" stroke-width="1.2" stroke-linecap="round" stroke-linejoin="round" />
  <path d="M35.27,66.65 C35.31,66.63 35.36,66.62 35.42,66.62" fill="currentColor" stroke="currentColor" stroke-width="1.2" stroke-linecap="round" stroke-linejoin="round" />
  <path d="M35.85,66.62 C35.90,66.62 35.94,66.63 35.97,66.65" fill="currentColor" stroke="currentColor" stroke-width="1.2" stroke-linecap="round" stroke-linejoin="round" />
  <path d="M38.43,66.65 C38.47,66.63 38.51,66.62 38.57,66.62" fill="currentColor" stroke="currentColor" stroke-width="1.2" stroke-linecap="round" stroke-linejoin="round" />
  <path d="M39.00,66.62 C39.06,66.62 39.10,66.63 39.13,66.65" fill="currentColor" stroke="currentColor" stroke-width="1.2" stroke-linecap="round" stroke-linejoin="round" />
  <path d="M35.19,66.70 C35.21,66.68 35.23,66.66 35.27,66.65" fill="currentColor" stroke="currentColor" stroke-width="1.2" stroke-linecap="round" stroke-linejoin="round" />
  <path d="M35.97,66.65 C36.00,66.66 36.02,66.68 36.03,66.70" fill="currentColor" stroke="currentColor" stroke-width="1.2" stroke-linecap="round" stroke-linejoin="round" />
  <path d="M38.34,66.70 C38.36,66.68 38.39,66.66 38.43,66.65" fill="currentColor" stroke="currentColor" stroke-width="1.2" stroke-linecap="round" stroke-linejoin="round" />
  <path d="M39.13,66.65 C39.16,66.66 39.18,66.68 39.19,66.70" fill="currentColor" stroke="currentColor" stroke-width="1.2" stroke-linecap="round" stroke-linejoin="round" />
  <path d="M35.15,66.77 C35.16,66.75 35.17,66.72 35.19,66.70" fill="currentColor" stroke="currentColor" stroke-width="1.2" stroke-linecap="round" stroke-linejoin="round" />
  <path d="M36.03,66.70 C36.04,66.72 36.05,66.75 36.04,66.77" fill="currentColor" stroke="currentColor" stroke-width="1.2" stroke-linecap="round" stroke-linejoin="round" />
  <path d="M38.31,66.77 C38.31,66.75 38.32,66.72 38.34,66.70" fill="currentColor" stroke="currentColor" stroke-width="1.2" stroke-linecap="round" stroke-linejoin="round" />
  <path d="M39.19,66.70 C39.20,66.72 39.20,66.75 39.20,66.77" fill="currentColor" stroke="currentColor" stroke-width="1.2" stroke-linecap="round" stroke-linejoin="round" />
  <line x1="34.55" y1="69.80" x2="35.15" y2="66.77" fill="currentColor" stroke="currentColor" stroke-width="1.2" stroke-linecap="round" stroke-linejoin="round" />
  <line x1="36.04" y1="66.77" x2="35.45" y2="69.77" fill="currentColor" stroke="currentColor" stroke-width="1.2" stroke-linecap="round" stroke-linejoin="round" />
  <line x1="37.88" y1="68.91" x2="38.31" y2="66.77" fill="currentColor" stroke="currentColor" stroke-width="1.2" stroke-linecap="round" stroke-linejoin="round" />
  <line x1="39.20" y1="66.77" x2="38.23" y2="71.61" fill="currentColor" stroke="currentColor" stroke-width="1.2" stroke-linecap="round" stroke-linejoin="round" />
  <path d="M122.41,74.88 C122.37,72.00 123.44,69.10 125.65,66.90" fill="none" stroke="currentColor" stroke-width="1.000000011920929" stroke-linecap="round" stroke-linejoin="round" />
  <path d="M119.24,68.26 C119.39,67.95 119.53,67.61 119.66,67.26" fill="currentColor" stroke="currentColor" stroke-width="1.2" stroke-linecap="round" stroke-linejoin="round" />
  <path d="M120.51,67.46 C120.34,67.86 120.16,68.26 119.95,68.65" fill="currentColor" stroke="currentColor" stroke-width="1.2" stroke-linecap="round" stroke-linejoin="round" />
  <path d="M118.75,69.19 C118.92,68.89 119.09,68.58 119.24,68.26" fill="currentColor" stroke="currentColor" stroke-width="1.2" stroke-linecap="round" stroke-linejoin="round" />
  <path d="M119.95,68.65 C119.75,69.05 119.53,69.44 119.29,69.82" fill="currentColor" stroke="currentColor" stroke-width="1.2" stroke-linecap="round" stroke-linejoin="round" />
  <path d="M37.59,69.78 C37.72,69.52 37.82,69.22 37.88,68.91" fill="currentColor" stroke="currentColor" stroke-width="1.2" stroke-linecap="round" stroke-linejoin="round" />
  <path d="M118.17,70.12 C118.38,69.80 118.57,69.49 118.75,69.19" fill="currentColor" stroke="currentColor" stroke-width="1.2" stroke-linecap="round" stroke-linejoin="round" />
  <path d="M35.45,69.77 C35.43,69.86 35.41,69.96 35.40,70.06" fill="currentColor" stroke="currentColor" stroke-width="1.2" stroke-linecap="round" stroke-linejoin="round" />
  <path d="M37.13,70.47 C37.30,70.28 37.45,70.05 37.59,69.78" fill="currentColor" stroke="currentColor" stroke-width="1.2" stroke-linecap="round" stroke-linejoin="round" />
  <path d="M34.49,70.17 C34.51,70.05 34.53,69.93 34.55,69.80" fill="currentColor" stroke="currentColor" stroke-width="1.2" stroke-linecap="round" stroke-linejoin="round" />
  <path d="M119.29,69.82 C119.05,70.20 118.78,70.57 118.50,70.92" fill="currentColor" stroke="currentColor" stroke-width="1.2" stroke-linecap="round" stroke-linejoin="round" />
  <path d="M35.40,70.06 C35.39,70.16 35.39,70.26 35.39,70.37" fill="currentColor" stroke="currentColor" stroke-width="1.2" stroke-linecap="round" stroke-linejoin="round" />
  <line x1="118.14" y1="70.09" x2="118.14" y2="70.15" fill="currentColor" stroke="currentColor" stroke-width="1.2" stroke-linecap="round" stroke-linejoin="round" />
  <line x1="118.14" y1="70.15" x2="118.17" y2="70.12" fill="currentColor" stroke="currentColor" stroke-width="1.2" stroke-linecap="round" stroke-linejoin="round" />
  <path d="M34.47,70.54 C34.47,70.42 34.48,70.30 34.49,70.17" fill="currentColor" stroke="currentColor" stroke-width="1.2" stroke-linecap="round" stroke-linejoin="round" />
  <path d="M35.39,70.37 C35.39,70.47 35.40,70.57 35.42,70.66" fill="currentColor" stroke="currentColor" stroke-width="1.2" stroke-linecap="round" stroke-linejoin="round" />
  <path d="M36.57,70.93 C36.77,70.82 36.95,70.67 37.13,70.47" fill="currentColor" stroke="currentColor" stroke-width="1.2" stroke-linecap="round" stroke-linejoin="round" />
  <path d="M34.54,71.06 C34.49,70.90 34.47,70.73 34.47,70.54" fill="currentColor" stroke="currentColor" stroke-width="1.2" stroke-linecap="round" stroke-linejoin="round" />
  <path d="M35.42,70.66 C35.44,70.75 35.47,70.82 35.52,70.89" fill="currentColor" stroke="currentColor" stroke-width="1.2" stroke-linecap="round" stroke-linejoin="round" />
  <line x1="37.45" y1="71.61" x2="37.63" y2="70.70" fill="currentColor" stroke="currentColor" stroke-width="1.2" stroke-linecap="round" stroke-linejoin="round" />
  <path d="M37.63,70.70 C37.57,70.83 37.48,70.95 37.36,71.09" fill="currentColor" stroke="currentColor" stroke-width="1.2" stroke-linecap="round" stroke-linejoin="round" />
  <path d="M35.52,70.89 C35.57,70.95 35.63,71.00 35.71,71.04" fill="currentColor" stroke="currentColor" stroke-width="1.2" stroke-linecap="round" stroke-linejoin="round" />
  <path d="M117.43,70.99 C117.41,70.97 117.40,70.94 117.40,70.90" fill="currentColor" stroke="currentColor" stroke-width="1.2" stroke-linecap="round" stroke-linejoin="round" />
  <path d="M118.50,70.92 C118.47,70.96 118.44,70.99 118.41,71.01" fill="currentColor" stroke="currentColor" stroke-width="1.2" stroke-linecap="round" stroke-linejoin="round" />
  <path d="M35.99,71.09 C36.18,71.09 36.37,71.04 36.57,70.93" fill="currentColor" stroke="currentColor" stroke-width="1.2" stroke-linecap="round" stroke-linejoin="round" />
  <path d="M117.51,71.05 C117.47,71.04 117.45,71.02 117.43,70.99" fill="currentColor" stroke="currentColor" stroke-width="1.2" stroke-linecap="round" stroke-linejoin="round" />
  <path d="M118.41,71.01 C118.38,71.04 118.34,71.05 118.29,71.07" fill="currentColor" stroke="currentColor" stroke-width="1.2" stroke-linecap="round" stroke-linejoin="round" />
  <path d="M35.71,71.04 C35.78,71.07 35.88,71.09 35.99,71.09" fill="currentColor" stroke="currentColor" stroke-width="1.2" stroke-linecap="round" stroke-linejoin="round" />
  <path d="M117.67,71.08 C117.60,71.08 117.55,71.07 117.51,71.05" fill="currentColor" stroke="currentColor" stroke-width="1.2" stroke-linecap="round" stroke-linejoin="round" />
  <path d="M34.76,71.47 C34.65,71.36 34.58,71.22 34.54,71.06" fill="currentColor" stroke="currentColor" stroke-width="1.2" stroke-linecap="round" stroke-linejoin="round" />
  <path d="M118.29,71.07 C118.25,71.08 118.20,71.09 118.14,71.09" fill="currentColor" stroke="currentColor" stroke-width="1.2" stroke-linecap="round" stroke-linejoin="round" />
  <path d="M117.94,71.09 C117.83,71.09 117.74,71.09 117.67,71.08" fill="currentColor" stroke="currentColor" stroke-width="1.2" stroke-linecap="round" stroke-linejoin="round" />
  <path d="M37.36,71.09 C37.24,71.22 37.09,71.35 36.93,71.46" fill="currentColor" stroke="currentColor" stroke-width="1.2" stroke-linecap="round" stroke-linejoin="round" />
  <path d="M118.14,71.09 C118.08,71.09 118.02,71.09 117.94,71.09" fill="currentColor" stroke="currentColor" stroke-width="1.2" stroke-linecap="round" stroke-linejoin="round" />
  <path d="M10.71,71.23 C10.78,71.22 10.87,71.22 10.97,71.22" fill="currentColor" stroke="currentColor" stroke-width="1.2" stroke-linecap="round" stroke-linejoin="round" />
  <path d="M10.97,71.22 C11.09,71.22 11.18,71.22 11.26,71.23" fill="currentColor" stroke="currentColor" stroke-width="1.2" stroke-linecap="round" stroke-linejoin="round" />
  <path d="M10.54,71.25 C10.58,71.24 10.64,71.23 10.71,71.23" fill="currentColor" stroke="currentColor" stroke-width="1.2" stroke-linecap="round" stroke-linejoin="round" />
  <path d="M11.26,71.23 C11.33,71.23 11.39,71.24 11.44,71.25" fill="currentColor" stroke="currentColor" stroke-width="1.2" stroke-linecap="round" stroke-linejoin="round" />
  <path d="M138.57,71.33 C138.64,71.28 138.72,71.25 138.80,71.25" fill="currentColor" stroke="currentColor" stroke-width="1.2" stroke-linecap="round" stroke-linejoin="round" />
  <line x1="138.80" y1="71.25" x2="140.38" y2="71.25" fill="currentColor" stroke="currentColor" stroke-width="1.2" stroke-linecap="round" stroke-linejoin="round" />
  <path d="M140.38,71.25 C140.80,71.25 141.14,71.29 141.40,71.37" fill="currentColor" stroke="currentColor" stroke-width="1.2" stroke-linecap="round" stroke-linejoin="round" />
  <path d="M10.44,71.31 C10.46,71.29 10.49,71.27 10.54,71.25" fill="currentColor" stroke="currentColor" stroke-width="1.2" stroke-linecap="round" stroke-linejoin="round" />
  <path d="M11.44,71.25 C11.49,71.27 11.52,71.29 11.55,71.32" fill="currentColor" stroke="currentColor" stroke-width="1.2" stroke-linecap="round" stroke-linejoin="round" />
  <path d="M10.38,71.41 C10.39,71.37 10.41,71.34 10.44,71.31" fill="currentColor" stroke="currentColor" stroke-width="1.2" stroke-linecap="round" stroke-linejoin="round" />
  <path d="M11.55,71.32 C11.57,71.34 11.59,71.38 11.61,71.42" fill="currentColor" stroke="currentColor" stroke-width="1.2" stroke-linecap="round" stroke-linejoin="round" />
  <path d="M138.46,71.63 C138.46,71.49 138.50,71.39 138.57,71.33" fill="currentColor" stroke="currentColor" stroke-width="1.2" stroke-linecap="round" stroke-linejoin="round" />
  <path d="M141.40,71.37 C141.67,71.45 141.89,71.56 142.07,71.71" fill="currentColor" stroke="currentColor" stroke-width="1.2" stroke-linecap="round" stroke-linejoin="round" />
  <line x1="8.05" y1="77.87" x2="10.38" y2="71.41" fill="currentColor" stroke="currentColor" stroke-width="1.2" stroke-linecap="round" stroke-linejoin="round" />
  <line x1="11.61" y1="71.42" x2="13.94" y2="77.87" fill="currentColor" stroke="currentColor" stroke-width="1.2" stroke-linecap="round" stroke-linejoin="round" />
  <path d="M36.93,71.46 C36.76,71.58 36.58,71.67 36.38,71.74" fill="currentColor" stroke="currentColor" stroke-width="1.2" stroke-linecap="round" stroke-linejoin="round" />
  <path d="M35.16,71.75 C34.99,71.68 34.86,71.59 34.76,71.47" fill="currentColor" stroke="currentColor" stroke-width="1.2" stroke-linecap="round" stroke-linejoin="round" />
  <path d="M38.23,71.61 C38.22,71.64 38.21,71.66 38.20,71.69" fill="currentColor" stroke="currentColor" stroke-width="1.2" stroke-linecap="round" stroke-linejoin="round" />
  <path d="M37.46,71.69 C37.45,71.66 37.45,71.64 37.45,71.61" fill="currentColor" stroke="currentColor" stroke-width="1.2" stroke-linecap="round" stroke-linejoin="round" />
  <line x1="138.46" y1="77.82" x2="138.46" y2="71.63" fill="currentColor" stroke="currentColor" stroke-width="1.2" stroke-linecap="round" stroke-linejoin="round" />
  <path d="M38.20,71.69 C38.18,71.71 38.15,71.72 38.12,71.74" fill="currentColor" stroke="currentColor" stroke-width="1.2" stroke-linecap="round" stroke-linejoin="round" />
  <path d="M37.51,71.74 C37.48,71.72 37.47,71.71 37.46,71.69" fill="currentColor" stroke="currentColor" stroke-width="1.2" stroke-linecap="round" stroke-linejoin="round" />
  <path d="M142.07,71.71 C142.24,71.86 142.38,72.05 142.47,72.27" fill="currentColor" stroke="currentColor" stroke-width="1.2" stroke-linecap="round" stroke-linejoin="round" />
  <path d="M38.12,71.74 C38.09,71.75 38.05,71.76 37.99,71.77" fill="currentColor" stroke="currentColor" stroke-width="1.2" stroke-linecap="round" stroke-linejoin="round" />
  <path d="M37.62,71.77 C37.58,71.76 37.54,71.75 37.51,71.74" fill="currentColor" stroke="currentColor" stroke-width="1.2" stroke-linecap="round" stroke-linejoin="round" />
  <path d="M36.38,71.74 C36.18,71.81 35.98,71.85 35.77,71.85" fill="currentColor" stroke="currentColor" stroke-width="1.2" stroke-linecap="round" stroke-linejoin="round" />
  <path d="M35.77,71.85 C35.53,71.85 35.32,71.81 35.16,71.75" fill="currentColor" stroke="currentColor" stroke-width="1.2" stroke-linecap="round" stroke-linejoin="round" />
  <path d="M37.99,71.77 C37.94,71.77 37.88,71.78 37.80,71.78" fill="currentColor" stroke="currentColor" stroke-width="1.2" stroke-linecap="round" stroke-linejoin="round" />
  <path d="M37.80,71.78 C37.73,71.78 37.67,71.77 37.62,71.77" fill="currentColor" stroke="currentColor" stroke-width="1.2" stroke-linecap="round" stroke-linejoin="round" />
  <path d="M140.97,72.08 C140.81,72.03 140.59,72.00 140.33,72.00" fill="currentColor" stroke="currentColor" stroke-width="1.2" stroke-linecap="round" stroke-linejoin="round" />
  <line x1="140.33" y1="72.00" x2="139.37" y2="72.00" fill="currentColor" stroke="currentColor" stroke-width="1.2" stroke-linecap="round" stroke-linejoin="round" />
  <line x1="139.37" y1="72.00" x2="139.37" y2="74.25" fill="currentColor" stroke="currentColor" stroke-width="1.2" stroke-linecap="round" stroke-linejoin="round" />
  <path d="M141.36,72.30 C141.26,72.20 141.13,72.13 140.97,72.08" fill="currentColor" stroke="currentColor" stroke-width="1.2" stroke-linecap="round" stroke-linejoin="round" />
  <line x1="10.95" y1="72.17" x2="10.94" y2="72.17" fill="currentColor" stroke="currentColor" stroke-width="1.2" stroke-linecap="round" stroke-linejoin="round" />
  <line x1="10.94" y1="72.17" x2="9.74" y2="75.64" fill="currentColor" stroke="currentColor" stroke-width="1.2" stroke-linecap="round" stroke-linejoin="round" />
  <line x1="12.16" y1="75.64" x2="10.95" y2="72.17" fill="currentColor" stroke="currentColor" stroke-width="1.2" stroke-linecap="round" stroke-linejoin="round" />
  <path d="M142.47,72.27 C142.56,72.48 142.60,72.73 142.60,73.01" fill="currentColor" stroke="currentColor" stroke-width="1.2" stroke-linecap="round" stroke-linejoin="round" />
  <path d="M141.58,72.64 C141.53,72.51 141.46,72.39 141.36,72.30" fill="currentColor" stroke="currentColor" stroke-width="1.2" stroke-linecap="round" stroke-linejoin="round" />
  <path d="M141.65,73.10 C141.65,72.93 141.63,72.78 141.58,72.64" fill="currentColor" stroke="currentColor" stroke-width="1.2" stroke-linecap="round" stroke-linejoin="round" />
  <path d="M142.60,73.01 C142.60,73.17 142.58,73.33 142.54,73.48" fill="currentColor" stroke="currentColor" stroke-width="1.2" stroke-linecap="round" stroke-linejoin="round" />
  <path d="M141.58,73.54 C141.63,73.39 141.65,73.25 141.65,73.10" fill="currentColor" stroke="currentColor" stroke-width="1.2" stroke-linecap="round" stroke-linejoin="round" />
  <path d="M142.54,73.48 C142.50,73.63 142.44,73.77 142.37,73.90" fill="currentColor" stroke="currentColor" stroke-width="1.2" stroke-linecap="round" stroke-linejoin="round" />
  <path d="M141.37,73.91 C141.47,73.80 141.54,73.68 141.58,73.54" fill="currentColor" stroke="currentColor" stroke-width="1.2" stroke-linecap="round" stroke-linejoin="round" />
  <path d="M142.37,73.90 C142.29,74.02 142.19,74.14 142.08,74.24" fill="currentColor" stroke="currentColor" stroke-width="1.2" stroke-linecap="round" stroke-linejoin="round" />
  <path d="M141.01,74.16 C141.15,74.10 141.27,74.01 141.37,73.91" fill="currentColor" stroke="currentColor" stroke-width="1.2" stroke-linecap="round" stroke-linejoin="round" />
  <path d="M140.43,74.25 C140.67,74.25 140.86,74.22 141.01,74.16" fill="currentColor" stroke="currentColor" stroke-width="1.2" stroke-linecap="round" stroke-linejoin="round" />
  <path d="M142.08,74.24 C141.96,74.34 141.83,74.42 141.68,74.48" fill="currentColor" stroke="currentColor" stroke-width="1.2" stroke-linecap="round" stroke-linejoin="round" />
  <line x1="139.37" y1="74.25" x2="140.43" y2="74.25" fill="currentColor" stroke="currentColor" stroke-width="1.2" stroke-linecap="round" stroke-linejoin="round" />
  <path d="M141.68,74.48 C141.87,74.52 142.04,74.59 142.21,74.68" fill="currentColor" stroke="currentColor" stroke-width="1.2" stroke-linecap="round" stroke-linejoin="round" />
  <path d="M142.21,74.68 C142.37,74.77 142.52,74.90 142.64,75.04" fill="currentColor" stroke="currentColor" stroke-width="1.2" stroke-linecap="round" stroke-linejoin="round" />
  <line x1="17.97" y1="74.72" x2="133.46" y2="74.71" fill="none" stroke="currentColor" stroke-width="1.4000000476837158" stroke-linecap="round" stroke-linejoin="round" />
  <path d="M32.79,74.72 C32.79,74.83 32.79,74.93 32.79,75.03" fill="none" stroke="currentColor" stroke-width="1.000000011920929" stroke-linecap="round" stroke-linejoin="round" />
  <path d="M141.20,75.07 C141.01,75.02 140.77,74.99 140.48,74.99" fill="currentColor" stroke="currentColor" stroke-width="1.2" stroke-linecap="round" stroke-linejoin="round" />
  <line x1="140.48" y1="74.99" x2="139.37" y2="74.99" fill="currentColor" stroke="currentColor" stroke-width="1.2" stroke-linecap="round" stroke-linejoin="round" />
  <line x1="139.37" y1="74.99" x2="139.37" y2="77.44" fill="currentColor" stroke="currentColor" stroke-width="1.2" stroke-linecap="round" stroke-linejoin="round" />
  <path d="M142.64,75.04 C142.76,75.19 142.86,75.36 142.93,75.56" fill="currentColor" stroke="currentColor" stroke-width="1.2" stroke-linecap="round" stroke-linejoin="round" />
  <path d="M141.68,75.32 C141.55,75.21 141.39,75.13 141.20,75.07" fill="currentColor" stroke="currentColor" stroke-width="1.2" stroke-linecap="round" stroke-linejoin="round" />
  <path d="M141.97,75.71 C141.90,75.56 141.81,75.42 141.68,75.32" fill="currentColor" stroke="currentColor" stroke-width="1.2" stroke-linecap="round" stroke-linejoin="round" />
  <path d="M142.93,75.56 C143.00,75.75 143.04,75.97 143.04,76.21" fill="currentColor" stroke="currentColor" stroke-width="1.2" stroke-linecap="round" stroke-linejoin="round" />
  <line x1="9.74" y1="75.64" x2="12.16" y2="75.64" fill="currentColor" stroke="currentColor" stroke-width="1.2" stroke-linecap="round" stroke-linejoin="round" />
  <path d="M142.07,76.26 C142.07,76.05 142.04,75.87 141.97,75.71" fill="currentColor" stroke="currentColor" stroke-width="1.2" stroke-linecap="round" stroke-linejoin="round" />
  <path d="M143.04,76.21 C143.04,76.43 143.01,76.63 142.96,76.81" fill="currentColor" stroke="currentColor" stroke-width="1.2" stroke-linecap="round" stroke-linejoin="round" />
  <path d="M141.97,76.77 C142.03,76.63 142.07,76.46 142.07,76.26" fill="currentColor" stroke="currentColor" stroke-width="1.2" stroke-linecap="round" stroke-linejoin="round" />
  <line x1="13.00" y1="78.07" x2="12.40" y2="76.37" fill="currentColor" stroke="currentColor" stroke-width="1.2" stroke-linecap="round" stroke-linejoin="round" />
  <line x1="12.40" y1="76.37" x2="9.51" y2="76.37" fill="currentColor" stroke="currentColor" stroke-width="1.2" stroke-linecap="round" stroke-linejoin="round" />
  <line x1="9.51" y1="76.37" x2="8.94" y2="78.04" fill="currentColor" stroke="currentColor" stroke-width="1.2" stroke-linecap="round" stroke-linejoin="round" />
  <path d="M141.68,77.14 C141.80,77.04 141.90,76.92 141.97,76.77" fill="currentColor" stroke="currentColor" stroke-width="1.2" stroke-linecap="round" stroke-linejoin="round" />
  <path d="M142.96,76.81 C142.90,77.00 142.82,77.16 142.72,77.31" fill="currentColor" stroke="currentColor" stroke-width="1.2" stroke-linecap="round" stroke-linejoin="round" />
  <path d="M141.27,77.36 C141.43,77.31 141.56,77.24 141.68,77.14" fill="currentColor" stroke="currentColor" stroke-width="1.2" stroke-linecap="round" stroke-linejoin="round" />
  <path d="M142.72,77.31 C142.62,77.46 142.50,77.58 142.36,77.70" fill="currentColor" stroke="currentColor" stroke-width="1.2" stroke-linecap="round" stroke-linejoin="round" />
  <path d="M140.72,77.44 C140.93,77.44 141.11,77.41 141.27,77.36" fill="currentColor" stroke="currentColor" stroke-width="1.2" stroke-linecap="round" stroke-linejoin="round" />
  <line x1="139.37" y1="77.44" x2="140.72" y2="77.44" fill="currentColor" stroke="currentColor" stroke-width="1.2" stroke-linecap="round" stroke-linejoin="round" />
  <path d="M142.36,77.70 C142.22,77.81 142.06,77.90 141.88,77.97" fill="currentColor" stroke="currentColor" stroke-width="1.2" stroke-linecap="round" stroke-linejoin="round" />
  <path d="M138.57,78.12 C138.50,78.06 138.46,77.96 138.46,77.82" fill="currentColor" stroke="currentColor" stroke-width="1.2" stroke-linecap="round" stroke-linejoin="round" />
  <path d="M8.00,78.06 C8.00,78.01 8.02,77.95 8.05,77.87" fill="currentColor" stroke="currentColor" stroke-width="1.2" stroke-linecap="round" stroke-linejoin="round" />
  <path d="M13.94,77.87 C13.97,77.95 13.98,78.01 13.99,78.06" fill="currentColor" stroke="currentColor" stroke-width="1.2" stroke-linecap="round" stroke-linejoin="round" />
  <path d="M141.88,77.97 C141.71,78.05 141.52,78.11 141.31,78.14" fill="currentColor" stroke="currentColor" stroke-width="1.2" stroke-linecap="round" stroke-linejoin="round" />
  <path d="M8.94,78.04 C8.93,78.08 8.92,78.10 8.90,78.13" fill="currentColor" stroke="currentColor" stroke-width="1.2" stroke-linecap="round" stroke-linejoin="round" />
  <path d="M8.04,78.17 C8.01,78.14 8.00,78.11 8.00,78.06" fill="currentColor" stroke="currentColor" stroke-width="1.2" stroke-linecap="round" stroke-linejoin="round" />
  <path d="M13.99,78.06 C13.99,78.11 13.97,78.15 13.94,78.17" fill="currentColor" stroke="currentColor" stroke-width="1.2" stroke-linecap="round" stroke-linejoin="round" />
  <path d="M13.05,78.15 C13.03,78.12 13.01,78.10 13.00,78.07" fill="currentColor" stroke="currentColor" stroke-width="1.2" stroke-linecap="round" stroke-linejoin="round" />
  <path d="M138.80,78.20 C138.72,78.20 138.64,78.17 138.57,78.12" fill="currentColor" stroke="currentColor" stroke-width="1.2" stroke-linecap="round" stroke-linejoin="round" />
  <path d="M8.90,78.13 C8.88,78.15 8.86,78.17 8.82,78.19" fill="currentColor" stroke="currentColor" stroke-width="1.2" stroke-linecap="round" stroke-linejoin="round" />
  <path d="M141.31,78.14 C141.11,78.18 140.88,78.20 140.62,78.20" fill="currentColor" stroke="currentColor" stroke-width="1.2" stroke-linecap="round" stroke-linejoin="round" />
  <path d="M13.12,78.20 C13.09,78.18 13.06,78.17 13.05,78.15" fill="currentColor" stroke="currentColor" stroke-width="1.2" stroke-linecap="round" stroke-linejoin="round" />
  <path d="M8.18,78.22 C8.11,78.21 8.07,78.19 8.04,78.17" fill="currentColor" stroke="currentColor" stroke-width="1.2" stroke-linecap="round" stroke-linejoin="round" />
  <path d="M13.94,78.17 C13.92,78.20 13.87,78.21 13.80,78.22" fill="currentColor" stroke="currentColor" stroke-width="1.2" stroke-linecap="round" stroke-linejoin="round" />
  <path d="M8.82,78.19 C8.79,78.20 8.74,78.21 8.68,78.22" fill="currentColor" stroke="currentColor" stroke-width="1.2" stroke-linecap="round" stroke-linejoin="round" />
  <path d="M13.27,78.22 C13.20,78.22 13.15,78.21 13.12,78.20" fill="currentColor" stroke="currentColor" stroke-width="1.2" stroke-linecap="round" stroke-linejoin="round" />
  <line x1="140.62" y1="78.20" x2="138.80" y2="78.20" fill="currentColor" stroke="currentColor" stroke-width="1.2" stroke-linecap="round" stroke-linejoin="round" />
  <path d="M8.43,78.23 C8.33,78.23 8.25,78.23 8.18,78.22" fill="currentColor" stroke="currentColor" stroke-width="1.2" stroke-linecap="round" stroke-linejoin="round" />
  <path d="M13.80,78.22 C13.74,78.23 13.65,78.23 13.54,78.23" fill="currentColor" stroke="currentColor" stroke-width="1.2" stroke-linecap="round" stroke-linejoin="round" />
  <path d="M8.68,78.22 C8.62,78.23 8.53,78.23 8.43,78.23" fill="currentColor" stroke="currentColor" stroke-width="1.2" stroke-linecap="round" stroke-linejoin="round" />
  <path d="M13.54,78.23 C13.42,78.23 13.34,78.23 13.27,78.22" fill="currentColor" stroke="currentColor" stroke-width="1.2" stroke-linecap="round" stroke-linejoin="round" />
</svg>