<svg xmlns="http://www.w3.org/2000/svg" viewBox="0 0 402.78 199.36" preserveAspectRatio="xMidYMid meet" shape-rendering="geometricPrecision" text-rendering="optimizeLegibility">
  <line x1="246.76" y1="19.32" x2="266.47" y2="19.32" fill="none" stroke="currentColor" stroke-width="1.0" stroke-linecap="round" stroke-linejoin="round" />
  <line x1="92.41" y1="59.78" x2="88.36" y2="47.63" fill="currentColor" stroke="currentColor" stroke-width="1.2" stroke-linecap="round" stroke-linejoin="round" />
  <line x1="88.36" y1="47.63" x2="84.31" y2="59.78" fill="currentColor" stroke="currentColor" stroke-width="1.2" stroke-linecap="round" stroke-linejoin="round" />
  <line x1="81.48" y1="50.29" x2="80.50" y2="50.29" fill="currentColor" stroke="currentColor" stroke-width="1.2" stroke-linecap="round" stroke-linejoin="round" />
  <line x1="80.50" y1="50.29" x2="78.95" y2="53.69" fill="currentColor" stroke="currentColor" stroke-width="1.2" stroke-linecap="round" stroke-linejoin="round" />
  <line x1="78.93" y1="53.69" x2="78.27" y2="50.29" fill="currentColor" stroke="currentColor" stroke-width="1.2" stroke-linecap="round" stroke-linejoin="round" />
  <line x1="78.27" y1="50.29" x2="77.33" y2="50.29" fill="currentColor" stroke="currentColor" stroke-width="1.2" stroke-linecap="round" stroke-linejoin="round" />
  <line x1="77.33" y1="50.29" x2="78.29" y2="54.93" fill="currentColor" stroke="currentColor" stroke-width="1.2" stroke-linecap="round" stroke-linejoin="round" />
  <line x1="77.94" y1="57.75" x2="81.48" y2="50.29" fill="currentColor" stroke="currentColor" stroke-width="1.2" stroke-linecap="round" stroke-linejoin="round" />
  <line x1="78.95" y1="53.69" x2="78.93" y2="53.69" fill="currentColor" stroke="currentColor" stroke-width="1.2" stroke-linecap="round" stroke-linejoin="round" />
  <line x1="78.29" y1="54.93" x2="76.95" y2="57.75" fill="currentColor" stroke="currentColor" stroke-width="1.2" stroke-linecap="round" stroke-linejoin="round" />
  <line x1="88.36" y1="191.36" x2="88.36" y2="57.75" fill="none" stroke="currentColor" stroke-width="1.6" stroke-linecap="round" stroke-linejoin="round" />
  <line x1="31.51" y1="57.75" x2="31.51" y2="190.51" fill="none" stroke="currentColor" stroke-width="1.0" stroke-linecap="round" stroke-linejoin="round" />
  <line x1="76.95" y1="57.75" x2="77.94" y2="57.75" fill="currentColor" stroke="currentColor" stroke-width="1.2" stroke-linecap="round" stroke-linejoin="round" />
  <line x1="145.21" y1="58.23" x2="145.21" y2="190.99" fill="none" stroke="currentColor" stroke-width="1.0" stroke-linecap="round" stroke-linejoin="round" />
  <line x1="84.31" y1="59.78" x2="88.36" y2="58.43" fill="currentColor" stroke="currentColor" stroke-width="1.2" stroke-linecap="round" stroke-linejoin="round" />
  <line x1="88.36" y1="58.43" x2="92.41" y2="59.78" fill="currentColor" stroke="currentColor" stroke-width="1.2" stroke-linecap="round" stroke-linejoin="round" />
  <line x1="59.86" y1="58.60" x2="59.86" y2="191.36" fill="none" stroke="currentColor" stroke-width="1.0" stroke-linecap="round" stroke-linejoin="round" />
  <line x1="116.71" y1="58.60" x2="116.71" y2="191.36" fill="none" stroke="currentColor" stroke-width="1.0" stroke-linecap="round" stroke-linejoin="round" />
  <path d="M58.57,66.43 C59.28,65.72 60.44,65.72 61.15,66.43" fill="currentColor" stroke="currentColor" stroke-width="1.0" stroke-linecap="round" stroke-linejoin="round" />
  <path d="M61.15,66.43 C61.86,67.14 61.86,68.30 61.15,69.01" fill="currentColor" stroke="currentColor" stroke-width="1.0" stroke-linecap="round" stroke-linejoin="round" />
  <path d="M58.57,69.01 C57.85,68.30 57.85,67.14 58.57,66.43" fill="currentColor" stroke="currentColor" stroke-width="1.0" stroke-linecap="round" stroke-linejoin="round" />
  <line x1="18.33" y1="67.71" x2="151.09" y2="67.71" fill="none" stroke="currentColor" stroke-width="1.0" stroke-linecap="round" stroke-linejoin="round" />
  <path d="M61.15,69.01 C60.44,69.72 59.28,69.72 58.57,69.01" fill="currentColor" stroke="currentColor" stroke-width="1.0" stroke-linecap="round" stroke-linejoin="round" />
  <line x1="79.21" y1="100.01" x2="79.21" y2="92.41" fill="currentColor" stroke="currentColor" stroke-width="1.2" stroke-linecap="round" stroke-linejoin="round" />
  <line x1="79.21" y1="92.41" x2="78.81" y2="92.41" fill="currentColor" stroke="currentColor" stroke-width="1.2" stroke-linecap="round" stroke-linejoin="round" />
  <line x1="78.81" y1="92.41" x2="76.24" y2="94.50" fill="currentColor" stroke="currentColor" stroke-width="1.2" stroke-linecap="round" stroke-linejoin="round" />
  <line x1="76.66" y1="95.44" x2="78.09" y2="94.26" fill="currentColor" stroke="currentColor" stroke-width="1.2" stroke-linecap="round" stroke-linejoin="round" />
  <line x1="78.09" y1="94.26" x2="78.09" y2="100.01" fill="currentColor" stroke="currentColor" stroke-width="1.2" stroke-linecap="round" stroke-linejoin="round" />
  <line x1="76.24" y1="94.50" x2="76.66" y2="95.44" fill="currentColor" stroke="currentColor" stroke-width="1.2" stroke-linecap="round" stroke-linejoin="round" />
  <line x1="18.70" y1="96.21" x2="151.46" y2="96.21" fill="none" stroke="currentColor" stroke-width="1.0" stroke-linecap="round" stroke-linejoin="round" />
  <line x1="83.65" y1="96.21" x2="93.04" y2="96.21" fill="none" stroke="currentColor" stroke-width="1.6" stroke-linecap="round" stroke-linejoin="round" />
  <line x1="78.09" y1="100.01" x2="79.21" y2="100.01" fill="currentColor" stroke="currentColor" stroke-width="1.2" stroke-linecap="round" stroke-linejoin="round" />
  <line x1="116.70" y1="129.25" x2="116.70" y2="119.87" fill="none" stroke="currentColor" stroke-width="1.6" stroke-linecap="round" stroke-linejoin="round" />
  <line x1="153.47" y1="120.51" x2="154.82" y2="124.56" fill="currentColor" stroke="currentColor" stroke-width="1.2" stroke-linecap="round" stroke-linejoin="round" />
  <line x1="165.62" y1="124.56" x2="153.47" y2="120.51" fill="currentColor" stroke="currentColor" stroke-width="1.2" stroke-linecap="round" stroke-linejoin="round" />
  <line x1="154.82" y1="124.56" x2="153.47" y2="128.61" fill="currentColor" stroke="currentColor" stroke-width="1.2" stroke-linecap="round" stroke-linejoin="round" />
  <line x1="153.47" y1="128.61" x2="165.62" y2="124.56" fill="currentColor" stroke="currentColor" stroke-width="1.2" stroke-linecap="round" stroke-linejoin="round" />
  <line x1="17.85" y1="124.56" x2="155.49" y2="124.56" fill="none" stroke="currentColor" stroke-width="1.6" stroke-linecap="round" stroke-linejoin="round" />
  <line x1="117.17" y1="140.30" x2="117.17" y2="132.70" fill="currentColor" stroke="currentColor" stroke-width="1.2" stroke-linecap="round" stroke-linejoin="round" />
  <line x1="117.17" y1="132.70" x2="116.76" y2="132.70" fill="currentColor" stroke="currentColor" stroke-width="1.2" stroke-linecap="round" stroke-linejoin="round" />
  <line x1="116.76" y1="132.70" x2="114.20" y2="134.79" fill="currentColor" stroke="currentColor" stroke-width="1.2" stroke-linecap="round" stroke-linejoin="round" />
  <line x1="114.62" y1="135.73" x2="116.05" y2="134.55" fill="currentColor" stroke="currentColor" stroke-width="1.2" stroke-linecap="round" stroke-linejoin="round" />
  <line x1="116.05" y1="134.55" x2="116.05" y2="140.30" fill="currentColor" stroke="currentColor" stroke-width="1.2" stroke-linecap="round" stroke-linejoin="round" />
  <line x1="114.20" y1="134.79" x2="114.62" y2="135.73" fill="currentColor" stroke="currentColor" stroke-width="1.2" stroke-linecap="round" stroke-linejoin="round" />
  <line x1="160.71" y1="135.36" x2="159.55" y2="135.36" fill="currentColor" stroke="currentColor" stroke-width="1.2" stroke-linecap="round" stroke-linejoin="round" />
  <line x1="159.55" y1="135.36" x2="158.26" y2="137.02" fill="currentColor" stroke="currentColor" stroke-width="1.2" stroke-linecap="round" stroke-linejoin="round" />
  <line x1="158.26" y1="137.02" x2="157.48" y2="135.36" fill="currentColor" stroke="currentColor" stroke-width="1.2" stroke-linecap="round" stroke-linejoin="round" />
  <line x1="157.48" y1="135.36" x2="156.48" y2="135.36" fill="currentColor" stroke="currentColor" stroke-width="1.2" stroke-linecap="round" stroke-linejoin="round" />
  <line x1="156.48" y1="135.36" x2="157.65" y2="137.68" fill="currentColor" stroke="currentColor" stroke-width="1.2" stroke-linecap="round" stroke-linejoin="round" />
  <line x1="158.71" y1="137.80" x2="160.71" y2="135.36" fill="currentColor" stroke="currentColor" stroke-width="1.2" stroke-linecap="round" stroke-linejoin="round" />
  <line x1="157.65" y1="137.68" x2="155.49" y2="140.30" fill="currentColor" stroke="currentColor" stroke-width="1.2" stroke-linecap="round" stroke-linejoin="round" />
  <line x1="159.97" y1="140.30" x2="158.71" y2="137.80" fill="currentColor" stroke="currentColor" stroke-width="1.2" stroke-linecap="round" stroke-linejoin="round" />
  <line x1="156.63" y1="140.30" x2="158.07" y2="138.45" fill="currentColor" stroke="currentColor" stroke-width="1.2" stroke-linecap="round" stroke-linejoin="round" />
  <line x1="158.07" y1="138.45" x2="158.97" y2="140.30" fill="currentColor" stroke="currentColor" stroke-width="1.2" stroke-linecap="round" stroke-linejoin="round" />
  <line x1="155.49" y1="140.30" x2="156.63" y2="140.30" fill="currentColor" stroke="currentColor" stroke-width="1.2" stroke-linecap="round" stroke-linejoin="round" />
  <line x1="158.97" y1="140.30" x2="159.97" y2="140.30" fill="currentColor" stroke="currentColor" stroke-width="1.2" stroke-linecap="round" stroke-linejoin="round" />
  <line x1="116.05" y1="140.30" x2="117.17" y2="140.30" fill="currentColor" stroke="currentColor" stroke-width="1.2" stroke-linecap="round" stroke-linejoin="round" />
  <path d="M143.84,151.77 C144.55,151.06 145.71,151.06 146.42,151.77" fill="currentColor" stroke="currentColor" stroke-width="1.0" stroke-linecap="round" stroke-linejoin="round" />
  <path d="M146.42,151.77 C147.14,152.48 147.14,153.64 146.42,154.35" fill="currentColor" stroke="currentColor" stroke-width="1.0" stroke-linecap="round" stroke-linejoin="round" />
  <path d="M143.84,154.35 C143.13,153.64 143.13,152.48 143.84,151.77" fill="currentColor" stroke="currentColor" stroke-width="1.0" stroke-linecap="round" stroke-linejoin="round" />
  <line x1="18.70" y1="153.06" x2="151.46" y2="153.06" fill="none" stroke="currentColor" stroke-width="1.0" stroke-linecap="round" stroke-linejoin="round" />
  <path d="M146.42,154.35 C145.71,155.06 144.55,155.06 143.84,154.35" fill="currentColor" stroke="currentColor" stroke-width="1.0" stroke-linecap="round" stroke-linejoin="round" />
  <path d="M115.41,180.23 C116.13,179.52 117.28,179.52 118.00,180.23" fill="currentColor" stroke="currentColor" stroke-width="1.0" stroke-linecap="round" stroke-linejoin="round" />
  <path d="M118.00,180.23 C118.71,180.94 118.71,182.10 118.00,182.81" fill="currentColor" stroke="currentColor" stroke-width="1.0" stroke-linecap="round" stroke-linejoin="round" />
  <path d="M115.42,182.81 C114.70,182.10 114.70,180.94 115.41,180.23" fill="currentColor" stroke="currentColor" stroke-width="1.0" stroke-linecap="round" stroke-linejoin="round" />
  <line x1="17.85" y1="181.41" x2="150.61" y2="181.41" fill="none" stroke="currentColor" stroke-width="1.0" stroke-linecap="round" stroke-linejoin="round" />
  <path d="M118.00,182.81 C117.28,183.52 116.13,183.52 115.42,182.81" fill="currentColor" stroke="currentColor" stroke-width="1.0" stroke-linecap="round" stroke-linejoin="round" />
  <text x="8.01" y="20.75" font-size="11.0" fill="currentColor" stroke="none" font-family="'Iowan Old Style', 'Sitka Text', Charter, Cambria, Georgia, serif">Vilket svarsalternativ motsvarar en punkt som inte är markerad i koordinat­</text>
  <text x="8.00" y="34.75" font-size="11.0" fill="currentColor" stroke="none" font-family="'Iowan Old Style', 'Sitka Text', Charter, Cambria, Georgia, serif">systemet nedan?
</text>
</svg>