<svg xmlns="http://www.w3.org/2000/svg" viewBox="0 0 240.87 91.17" preserveAspectRatio="xMidYMid meet" shape-rendering="geometricPrecision" text-rendering="optimizeLegibility">
  <line x1="26.34" y1="42.67" x2="144.84" y2="83.17" fill="none" stroke="currentColor" stroke-width="1.2" stroke-linecap="round" stroke-linejoin="round" />
  <line x1="144.84" y1="83.17" x2="189.09" y2="49.05" fill="none" stroke="currentColor" stroke-width="1.2" stroke-linecap="round" stroke-linejoin="round" />
  <line x1="189.09" y1="49.05" x2="108.47" y2="18.67" fill="none" stroke="currentColor" stroke-width="1.2" stroke-linecap="round" stroke-linejoin="round" />
  <line x1="108.47" y1="18.67" x2="43.59" y2="24.67" fill="none" stroke="currentColor" stroke-width="1.2" stroke-linecap="round" stroke-linejoin="round" />
  <line x1="43.59" y1="24.67" x2="26.34" y2="42.67" fill="none" stroke="currentColor" stroke-width="1.2" stroke-linecap="round" stroke-linejoin="round" />
  <path d="M13.21,29.68L12.06,29.68L10.77,31.34L9.99,29.68L8.99,29.68L10.16,32.00L8.00,34.62L9.14,34.62L10.57,32.77L11.48,34.62L12.48,34.62L11.22,32.12L13.21,29.68Z" fill="currentColor" stroke="currentColor" stroke-width="1.2" stroke-linejoin="round" />
  <path d="M16.65,30.98H21.03V31.71H16.65Z" fill="currentColor" stroke="currentColor" stroke-width="1.2" stroke-linejoin="round" />
  <path d="M29.77,33.60L26.90,33.60C27.32,33.10 27.68,32.66 27.97,32.27C28.27,31.88 28.51,31.52 28.70,31.19C28.88,30.87 29.02,30.56 29.10,30.26C29.19,29.97 29.23,29.67 29.23,29.36C29.23,28.90 29.13,28.49 28.94,28.14C28.75,27.79 28.48,27.52 28.14,27.32C27.80,27.12 27.40,27.03 26.95,27.02C26.65,27.02 26.35,27.08 26.06,27.20C25.77,27.32 25.48,27.49 25.18,27.74L25.18,29.09C25.38,28.83 25.57,28.63 25.76,28.48C25.96,28.34 26.14,28.23 26.33,28.17C26.51,28.11 26.69,28.08 26.87,28.08C27.12,28.08 27.34,28.14 27.53,28.26C27.72,28.38 27.88,28.54 27.99,28.75C28.10,28.96 28.15,29.21 28.16,29.48C28.16,29.69 28.14,29.88 28.10,30.05C28.06,30.21 28.00,30.38 27.92,30.54C27.84,30.71 27.75,30.89 27.63,31.09C27.47,31.36 27.28,31.65 27.07,31.95C26.86,32.25 26.63,32.55 26.40,32.85C26.16,33.15 25.92,33.45 25.69,33.74C25.45,34.02 25.23,34.29 25.02,34.54L25.02,34.62L29.77,34.62L29.77,33.60Z" fill="currentColor" stroke="currentColor" stroke-width="1.2" stroke-linejoin="round" />
  <path d="M75.09,13.93L73.93,13.93L72.65,15.59L71.87,13.93L70.87,13.93L72.03,16.25L69.88,18.87L71.02,18.87L72.45,17.02L73.35,18.87L74.35,18.87L73.10,16.37L75.09,13.93Z" fill="currentColor" stroke="currentColor" stroke-width="1.2" stroke-linejoin="round" />
  <path d="M79.47,70.72L76.60,70.72C77.01,70.23 77.37,69.79 77.67,69.39C77.96,69.00 78.20,68.64 78.39,68.32C78.57,67.99 78.71,67.68 78.80,67.39C78.88,67.09 78.93,66.79 78.93,66.49C78.92,66.02 78.83,65.62 78.63,65.27C78.44,64.92 78.18,64.64 77.84,64.45C77.49,64.25 77.10,64.15 76.64,64.15C76.34,64.15 76.04,64.21 75.76,64.32C75.47,64.44 75.17,64.62 74.87,64.86L74.87,66.21C75.07,65.96 75.27,65.76 75.46,65.61C75.65,65.46 75.84,65.36 76.02,65.29C76.20,65.23 76.38,65.20 76.56,65.20C76.81,65.21 77.03,65.26 77.23,65.38C77.42,65.50 77.57,65.67 77.68,65.88C77.79,66.09 77.85,66.33 77.85,66.61C77.85,66.82 77.83,67.00 77.79,67.17C77.75,67.34 77.70,67.50 77.62,67.67C77.54,67.84 77.44,68.02 77.32,68.22C77.16,68.49 76.98,68.78 76.76,69.07C76.55,69.37 76.33,69.67 76.09,69.98C75.85,70.28 75.62,70.57 75.38,70.86C75.15,71.15 74.93,71.42 74.72,71.67L74.72,71.75L79.47,71.75L79.47,70.72Z" fill="currentColor" stroke="currentColor" stroke-width="1.2" stroke-linejoin="round" />
  <path d="M84.71,66.81L83.56,66.81L82.27,68.47L81.49,66.81L80.49,66.81L81.66,69.13L79.50,71.75L80.64,71.75L82.07,69.90L82.98,71.75L83.98,71.75L82.72,69.25L84.71,66.81Z" fill="currentColor" stroke="currentColor" stroke-width="1.2" stroke-linejoin="round" />
  <path d="M148.59,24.43L147.44,24.43L146.15,26.09L145.37,24.43L144.37,24.43L145.53,26.75L143.38,29.37L144.52,29.37L145.95,27.52L146.85,29.37L147.85,29.37L146.60,26.87L148.59,24.43Z" fill="currentColor" stroke="currentColor" stroke-width="1.2" stroke-linejoin="round" />
  <path d="M154.23,22.89L154.23,25.04L152.08,25.04L152.08,25.94L154.23,25.94L154.23,28.08L155.13,28.08L155.13,25.94L157.27,25.94L157.27,25.04L155.13,25.04L155.13,22.89L154.23,22.89Z" fill="currentColor" stroke="currentColor" stroke-width="1.2" stroke-linejoin="round" />
  <path d="M164.56,29.37L164.56,21.77L164.15,21.77L161.59,23.86L162.00,24.80L163.43,23.62L163.43,29.37L164.56,29.37Z" fill="currentColor" stroke="currentColor" stroke-width="1.2" stroke-linejoin="round" />
  <path d="M172.59,68.31L171.44,68.31L170.15,69.97L169.37,68.31L168.37,68.31L169.53,70.63L167.38,73.25L168.52,73.25L169.95,71.40L170.85,73.25L171.85,73.25L170.60,70.75L172.59,68.31Z" fill="currentColor" stroke="currentColor" stroke-width="1.2" stroke-linejoin="round" />
  <path d="M176.03,69.60H180.40V70.33H176.03Z" fill="currentColor" stroke="currentColor" stroke-width="1.2" stroke-linejoin="round" />
  <path d="M187.63,73.25L187.63,65.65L187.22,65.65L184.66,67.74L185.08,68.67L186.51,67.49L186.51,73.25L187.63,73.25Z" fill="currentColor" stroke="currentColor" stroke-width="1.2" stroke-linejoin="round" />
  <path d="M215.00,13.08C215.00,12.09 215.13,11.17 215.39,10.33C215.66,9.48 216.05,8.71 216.59,8.00L216.00,8.00C215.68,8.33 215.38,8.69 215.12,9.08C214.86,9.48 214.63,9.89 214.45,10.33C214.26,10.77 214.12,11.23 214.02,11.69C213.92,12.15 213.87,12.62 213.87,13.08C213.87,13.55 213.92,14.01 214.02,14.47C214.12,14.93 214.26,15.39 214.45,15.83C214.63,16.27 214.86,16.68 215.12,17.08C215.38,17.48 215.68,17.83 216.00,18.16L216.59,18.16C216.05,17.45 215.66,16.68 215.39,15.84C215.13,14.99 215.00,14.08 215.00,13.08Z" fill="currentColor" stroke="currentColor" stroke-width="1.2" stroke-linejoin="round" />
  <path d="M221.04,10.93C220.89,10.86 220.74,10.80 220.59,10.75C220.44,10.70 220.29,10.66 220.13,10.64C219.98,10.61 219.80,10.60 219.62,10.59C219.11,10.60 218.68,10.71 218.32,10.92C217.95,11.14 217.67,11.45 217.47,11.84C217.28,12.24 217.18,12.71 217.17,13.26C217.18,13.74 217.28,14.17 217.50,14.54C217.71,14.91 218.00,15.20 218.38,15.41C218.75,15.62 219.19,15.73 219.68,15.73C219.86,15.73 220.04,15.72 220.22,15.69C220.40,15.67 220.58,15.63 220.74,15.59C220.91,15.55 221.04,15.50 221.16,15.45L221.16,14.48C220.91,14.59 220.68,14.67 220.47,14.73C220.26,14.78 220.05,14.81 219.85,14.81C219.51,14.81 219.21,14.74 218.96,14.61C218.71,14.48 218.52,14.29 218.38,14.05C218.25,13.80 218.18,13.51 218.17,13.17C218.18,12.83 218.24,12.54 218.37,12.29C218.49,12.04 218.67,11.85 218.90,11.71C219.12,11.57 219.38,11.50 219.68,11.50C219.82,11.49 219.96,11.51 220.10,11.54C220.24,11.57 220.38,11.62 220.54,11.69C220.69,11.76 220.86,11.86 221.04,11.98L221.04,10.93Z" fill="currentColor" stroke="currentColor" stroke-width="1.2" stroke-linejoin="round" />
  <path d="M222.19,10.69L222.19,15.63L223.17,15.63L223.17,12.04C223.30,11.89 223.43,11.76 223.56,11.67C223.68,11.58 223.81,11.51 223.95,11.48C224.09,11.44 224.24,11.42 224.40,11.42C224.56,11.42 224.71,11.46 224.84,11.54C224.98,11.62 225.09,11.74 225.17,11.91C225.25,12.08 225.29,12.30 225.29,12.56L225.29,15.63L226.27,15.63L226.27,12.04C226.45,11.86 226.64,11.71 226.83,11.59C227.03,11.47 227.21,11.42 227.37,11.42C227.56,11.42 227.73,11.46 227.88,11.55C228.04,11.64 228.16,11.77 228.25,11.94C228.34,12.11 228.39,12.32 228.39,12.57L228.39,15.63L229.37,15.63L229.37,12.53C229.37,12.14 229.30,11.80 229.17,11.51C229.03,11.22 228.84,11.00 228.60,10.84C228.36,10.68 228.07,10.60 227.73,10.59C227.50,10.60 227.28,10.64 227.09,10.72C226.89,10.80 226.71,10.90 226.54,11.04C226.38,11.17 226.22,11.32 226.08,11.48C225.91,11.19 225.71,10.97 225.46,10.82C225.21,10.67 224.92,10.59 224.61,10.59C224.38,10.59 224.14,10.65 223.90,10.78C223.66,10.90 223.42,11.09 223.17,11.34L223.17,10.69L222.19,10.69Z" fill="currentColor" stroke="currentColor" stroke-width="1.2" stroke-linejoin="round" />
  <path d="M231.74,13.08C231.74,14.08 231.61,14.99 231.34,15.84C231.08,16.68 230.69,17.45 230.15,18.16L230.74,18.16C231.06,17.83 231.36,17.48 231.62,17.08C231.88,16.68 232.11,16.27 232.29,15.83C232.48,15.39 232.62,14.93 232.72,14.47C232.82,14.01 232.87,13.55 232.87,13.08C232.87,12.62 232.82,12.15 232.72,11.69C232.62,11.23 232.48,10.77 232.29,10.33C232.11,9.89 231.88,9.48 231.62,9.08C231.36,8.69 231.06,8.33 230.74,8.00L230.15,8.00C230.69,8.71 231.08,9.48 231.34,10.33C231.61,11.17 231.74,12.09 231.74,13.08Z" fill="currentColor" stroke="currentColor" stroke-width="1.2" stroke-linejoin="round" />
</svg>