<svg xmlns="http://www.w3.org/2000/svg" viewBox="0 0 264.81 252.05" preserveAspectRatio="xMidYMid meet" shape-rendering="geometricPrecision" text-rendering="optimizeLegibility">
  <line x1="11.28" y1="49.00" x2="243.41" y2="49.00" fill="none" stroke="currentColor" stroke-width="1.0" stroke-linecap="round" stroke-linejoin="round" />
  <line x1="11.28" y1="60.21" x2="243.41" y2="60.21" fill="none" stroke="currentColor" stroke-width="1.0" stroke-linecap="round" stroke-linejoin="round" />
  <line x1="11.28" y1="71.43" x2="243.41" y2="71.43" fill="none" stroke="currentColor" stroke-width="1.0" stroke-linecap="round" stroke-linejoin="round" />
  <line x1="11.28" y1="82.65" x2="243.41" y2="82.65" fill="none" stroke="currentColor" stroke-width="1.0" stroke-linecap="round" stroke-linejoin="round" />
  <line x1="11.28" y1="93.87" x2="243.41" y2="93.87" fill="none" stroke="currentColor" stroke-width="1.0" stroke-linecap="round" stroke-linejoin="round" />
  <line x1="11.28" y1="105.09" x2="243.41" y2="105.09" fill="none" stroke="currentColor" stroke-width="1.0" stroke-linecap="round" stroke-linejoin="round" />
  <line x1="11.28" y1="116.31" x2="243.41" y2="116.31" fill="none" stroke="currentColor" stroke-width="1.0" stroke-linecap="round" stroke-linejoin="round" />
  <line x1="247.09" y1="124.28" x2="248.17" y2="127.52" fill="currentColor" stroke="currentColor" stroke-width="1.2" stroke-linecap="round" stroke-linejoin="round" />
  <line x1="256.81" y1="127.52" x2="247.09" y2="124.28" fill="currentColor" stroke="currentColor" stroke-width="1.2" stroke-linecap="round" stroke-linejoin="round" />
  <line x1="125.80" y1="244.05" x2="125.80" y2="8.00" fill="none" stroke="currentColor" stroke-width="1.4000000476837158" stroke-linecap="round" stroke-linejoin="round" />
  <line x1="36.05" y1="241.43" x2="36.05" y2="13.11" fill="none" stroke="currentColor" stroke-width="1.0" stroke-linecap="round" stroke-linejoin="round" />
  <line x1="215.53" y1="241.43" x2="215.53" y2="13.11" fill="none" stroke="currentColor" stroke-width="1.0" stroke-linecap="round" stroke-linejoin="round" />
  <line x1="237.98" y1="241.43" x2="237.98" y2="13.11" fill="none" stroke="currentColor" stroke-width="1.0" stroke-linecap="round" stroke-linejoin="round" />
  <line x1="13.61" y1="241.43" x2="13.61" y2="13.11" fill="none" stroke="currentColor" stroke-width="1.0" stroke-linecap="round" stroke-linejoin="round" />
  <line x1="58.48" y1="241.57" x2="58.48" y2="13.26" fill="none" stroke="currentColor" stroke-width="1.0" stroke-linecap="round" stroke-linejoin="round" />
  <line x1="69.70" y1="241.57" x2="69.70" y2="13.26" fill="none" stroke="currentColor" stroke-width="1.0" stroke-linecap="round" stroke-linejoin="round" />
  <line x1="80.92" y1="241.57" x2="80.92" y2="13.26" fill="none" stroke="currentColor" stroke-width="1.0" stroke-linecap="round" stroke-linejoin="round" />
  <line x1="92.14" y1="241.57" x2="92.14" y2="13.26" fill="none" stroke="currentColor" stroke-width="1.0" stroke-linecap="round" stroke-linejoin="round" />
  <line x1="103.36" y1="241.57" x2="103.36" y2="13.26" fill="none" stroke="currentColor" stroke-width="1.0" stroke-linecap="round" stroke-linejoin="round" />
  <line x1="114.57" y1="241.57" x2="114.57" y2="13.26" fill="none" stroke="currentColor" stroke-width="1.0" stroke-linecap="round" stroke-linejoin="round" />
  <line x1="47.26" y1="241.57" x2="47.26" y2="13.26" fill="none" stroke="currentColor" stroke-width="1.0" stroke-linecap="round" stroke-linejoin="round" />
  <line x1="170.66" y1="241.57" x2="170.66" y2="13.26" fill="none" stroke="currentColor" stroke-width="1.0" stroke-linecap="round" stroke-linejoin="round" />
  <line x1="181.88" y1="241.57" x2="181.88" y2="13.26" fill="none" stroke="currentColor" stroke-width="1.0" stroke-linecap="round" stroke-linejoin="round" />
  <line x1="193.10" y1="241.57" x2="193.10" y2="13.26" fill="none" stroke="currentColor" stroke-width="1.0" stroke-linecap="round" stroke-linejoin="round" />
  <line x1="204.32" y1="241.57" x2="204.32" y2="13.26" fill="none" stroke="currentColor" stroke-width="1.0" stroke-linecap="round" stroke-linejoin="round" />
  <line x1="148.22" y1="241.57" x2="148.22" y2="13.26" fill="none" stroke="currentColor" stroke-width="1.0" stroke-linecap="round" stroke-linejoin="round" />
  <line x1="159.45" y1="241.57" x2="159.45" y2="13.26" fill="none" stroke="currentColor" stroke-width="1.0" stroke-linecap="round" stroke-linejoin="round" />
  <line x1="137.01" y1="241.57" x2="137.01" y2="13.26" fill="none" stroke="currentColor" stroke-width="1.0" stroke-linecap="round" stroke-linejoin="round" />
  <line x1="226.76" y1="241.57" x2="226.76" y2="13.26" fill="none" stroke="currentColor" stroke-width="1.0" stroke-linecap="round" stroke-linejoin="round" />
  <line x1="24.83" y1="241.57" x2="24.83" y2="13.26" fill="none" stroke="currentColor" stroke-width="1.0" stroke-linecap="round" stroke-linejoin="round" />
  <line x1="8.00" y1="127.52" x2="248.71" y2="127.52" fill="none" stroke="currentColor" stroke-width="1.4000000476837158" stroke-linecap="round" stroke-linejoin="round" />
  <line x1="248.17" y1="127.52" x2="247.09" y2="130.76" fill="currentColor" stroke="currentColor" stroke-width="1.2" stroke-linecap="round" stroke-linejoin="round" />
  <line x1="247.09" y1="130.76" x2="256.81" y2="127.52" fill="currentColor" stroke="currentColor" stroke-width="1.2" stroke-linecap="round" stroke-linejoin="round" />
  <path d="M249.74,134.92 C249.82,134.92 249.89,134.93 249.93,134.93" fill="currentColor" stroke="currentColor" stroke-width="1.2" stroke-linecap="round" stroke-linejoin="round" />
  <path d="M252.22,134.93 C252.27,134.93 252.33,134.92 252.41,134.92" fill="currentColor" stroke="currentColor" stroke-width="1.2" stroke-linecap="round" stroke-linejoin="round" />
  <path d="M249.52,134.93 C249.57,134.93 249.65,134.92 249.74,134.92" fill="currentColor" stroke="currentColor" stroke-width="1.2" stroke-linecap="round" stroke-linejoin="round" />
  <path d="M252.41,134.92 C252.50,134.92 252.57,134.93 252.63,134.93" fill="currentColor" stroke="currentColor" stroke-width="1.2" stroke-linecap="round" stroke-linejoin="round" />
  <path d="M249.93,134.93 C249.98,134.94 250.02,134.94 250.04,134.95" fill="currentColor" stroke="currentColor" stroke-width="1.2" stroke-linecap="round" stroke-linejoin="round" />
  <path d="M252.09,134.96 C252.13,134.94 252.17,134.94 252.22,134.93" fill="currentColor" stroke="currentColor" stroke-width="1.2" stroke-linecap="round" stroke-linejoin="round" />
  <path d="M252.63,134.93 C252.69,134.94 252.73,134.95 252.75,134.97" fill="currentColor" stroke="currentColor" stroke-width="1.2" stroke-linecap="round" stroke-linejoin="round" />
  <path d="M249.39,134.97 C249.42,134.95 249.46,134.94 249.52,134.93" fill="currentColor" stroke="currentColor" stroke-width="1.2" stroke-linecap="round" stroke-linejoin="round" />
  <path d="M250.04,134.95 C250.07,134.96 250.09,134.98 250.10,134.99" fill="currentColor" stroke="currentColor" stroke-width="1.2" stroke-linecap="round" stroke-linejoin="round" />
  <path d="M252.02,135.00 C252.04,134.98 252.06,134.97 252.09,134.96" fill="currentColor" stroke="currentColor" stroke-width="1.2" stroke-linecap="round" stroke-linejoin="round" />
  <path d="M252.75,134.97 C252.78,134.98 252.79,135.01 252.79,135.04" fill="currentColor" stroke="currentColor" stroke-width="1.2" stroke-linecap="round" stroke-linejoin="round" />
  <path d="M249.34,135.05 C249.34,135.02 249.36,134.99 249.39,134.97" fill="currentColor" stroke="currentColor" stroke-width="1.2" stroke-linecap="round" stroke-linejoin="round" />
  <path d="M250.10,134.99 C250.11,135.01 250.12,135.03 250.13,135.05" fill="currentColor" stroke="currentColor" stroke-width="1.2" stroke-linecap="round" stroke-linejoin="round" />
  <path d="M251.97,135.05 C251.98,135.03 252.00,135.01 252.02,135.00" fill="currentColor" stroke="currentColor" stroke-width="1.2" stroke-linecap="round" stroke-linejoin="round" />
  <path d="M252.79,135.04 C252.78,135.07 252.76,135.11 252.72,135.15" fill="currentColor" stroke="currentColor" stroke-width="1.2" stroke-linecap="round" stroke-linejoin="round" />
  <path d="M249.36,135.16 C249.35,135.12 249.34,135.08 249.34,135.05" fill="currentColor" stroke="currentColor" stroke-width="1.2" stroke-linecap="round" stroke-linejoin="round" />
  <line x1="250.13" y1="135.05" x2="250.76" y2="136.69" fill="currentColor" stroke="currentColor" stroke-width="1.2" stroke-linecap="round" stroke-linejoin="round" />
  <line x1="250.76" y1="136.69" x2="251.97" y2="135.05" fill="currentColor" stroke="currentColor" stroke-width="1.2" stroke-linecap="round" stroke-linejoin="round" />
  <line x1="250.19" y1="137.21" x2="249.36" y2="135.16" fill="currentColor" stroke="currentColor" stroke-width="1.2" stroke-linecap="round" stroke-linejoin="round" />
  <line x1="252.72" y1="135.15" x2="251.16" y2="137.23" fill="currentColor" stroke="currentColor" stroke-width="1.2" stroke-linecap="round" stroke-linejoin="round" />
  <line x1="248.52" y1="139.38" x2="250.19" y2="137.21" fill="currentColor" stroke="currentColor" stroke-width="1.2" stroke-linecap="round" stroke-linejoin="round" />
  <line x1="251.16" y1="137.23" x2="252.03" y2="139.38" fill="currentColor" stroke="currentColor" stroke-width="1.2" stroke-linecap="round" stroke-linejoin="round" />
  <line x1="251.25" y1="139.49" x2="250.58" y2="137.75" fill="currentColor" stroke="currentColor" stroke-width="1.2" stroke-linecap="round" stroke-linejoin="round" />
  <line x1="250.58" y1="137.75" x2="249.32" y2="139.49" fill="currentColor" stroke="currentColor" stroke-width="1.2" stroke-linecap="round" stroke-linejoin="round" />
  <line x1="11.28" y1="138.74" x2="243.41" y2="138.74" fill="none" stroke="currentColor" stroke-width="1.0" stroke-linecap="round" stroke-linejoin="round" />
  <path d="M252.03,139.38 C252.05,139.42 252.06,139.46 252.05,139.49" fill="currentColor" stroke="currentColor" stroke-width="1.2" stroke-linecap="round" stroke-linejoin="round" />
  <path d="M248.47,139.49 C248.47,139.47 248.49,139.43 248.52,139.38" fill="currentColor" stroke="currentColor" stroke-width="1.2" stroke-linecap="round" stroke-linejoin="round" />
  <path d="M251.27,139.55 C251.27,139.53 251.26,139.51 251.25,139.49" fill="currentColor" stroke="currentColor" stroke-width="1.2" stroke-linecap="round" stroke-linejoin="round" />
  <path d="M249.32,139.49 C249.30,139.51 249.28,139.53 249.26,139.55" fill="currentColor" stroke="currentColor" stroke-width="1.2" stroke-linecap="round" stroke-linejoin="round" />
  <path d="M252.05,139.49 C252.05,139.52 252.03,139.55 252.00,139.57" fill="currentColor" stroke="currentColor" stroke-width="1.2" stroke-linecap="round" stroke-linejoin="round" />
  <path d="M248.50,139.57 C248.48,139.55 248.47,139.52 248.47,139.49" fill="currentColor" stroke="currentColor" stroke-width="1.2" stroke-linecap="round" stroke-linejoin="round" />
  <path d="M249.26,139.55 C249.24,139.56 249.22,139.58 249.18,139.59" fill="currentColor" stroke="currentColor" stroke-width="1.2" stroke-linecap="round" stroke-linejoin="round" />
  <path d="M251.33,139.59 C251.30,139.58 251.28,139.56 251.27,139.55" fill="currentColor" stroke="currentColor" stroke-width="1.2" stroke-linecap="round" stroke-linejoin="round" />
  <path d="M252.00,139.57 C251.96,139.59 251.92,139.60 251.86,139.61" fill="currentColor" stroke="currentColor" stroke-width="1.2" stroke-linecap="round" stroke-linejoin="round" />
  <path d="M248.62,139.61 C248.57,139.60 248.53,139.59 248.50,139.57" fill="currentColor" stroke="currentColor" stroke-width="1.2" stroke-linecap="round" stroke-linejoin="round" />
  <path d="M249.18,139.59 C249.15,139.60 249.10,139.61 249.05,139.61" fill="currentColor" stroke="currentColor" stroke-width="1.2" stroke-linecap="round" stroke-linejoin="round" />
  <path d="M251.44,139.61 C251.39,139.61 251.36,139.60 251.33,139.59" fill="currentColor" stroke="currentColor" stroke-width="1.2" stroke-linecap="round" stroke-linejoin="round" />
  <path d="M251.86,139.61 C251.80,139.62 251.73,139.62 251.64,139.62" fill="currentColor" stroke="currentColor" stroke-width="1.2" stroke-linecap="round" stroke-linejoin="round" />
  <path d="M248.83,139.62 C248.74,139.62 248.67,139.62 248.62,139.61" fill="currentColor" stroke="currentColor" stroke-width="1.2" stroke-linecap="round" stroke-linejoin="round" />
  <path d="M249.05,139.61 C248.99,139.62 248.92,139.62 248.83,139.62" fill="currentColor" stroke="currentColor" stroke-width="1.2" stroke-linecap="round" stroke-linejoin="round" />
  <path d="M251.64,139.62 C251.55,139.62 251.49,139.62 251.44,139.61" fill="currentColor" stroke="currentColor" stroke-width="1.2" stroke-linecap="round" stroke-linejoin="round" />
  <line x1="11.28" y1="149.96" x2="243.41" y2="149.96" fill="none" stroke="currentColor" stroke-width="1.0" stroke-linecap="round" stroke-linejoin="round" />
  <line x1="11.28" y1="161.18" x2="243.41" y2="161.18" fill="none" stroke="currentColor" stroke-width="1.0" stroke-linecap="round" stroke-linejoin="round" />
  <line x1="11.28" y1="172.40" x2="243.41" y2="172.40" fill="none" stroke="currentColor" stroke-width="1.0" stroke-linecap="round" stroke-linejoin="round" />
  <line x1="11.28" y1="183.62" x2="243.41" y2="183.62" fill="none" stroke="currentColor" stroke-width="1.0" stroke-linecap="round" stroke-linejoin="round" />
  <line x1="11.28" y1="194.83" x2="243.41" y2="194.83" fill="none" stroke="currentColor" stroke-width="1.0" stroke-linecap="round" stroke-linejoin="round" />
  <line x1="11.28" y1="206.06" x2="243.41" y2="206.06" fill="none" stroke="currentColor" stroke-width="1.0" stroke-linecap="round" stroke-linejoin="round" />
  <line x1="11.28" y1="217.27" x2="243.41" y2="217.27" fill="none" stroke="currentColor" stroke-width="1.0" stroke-linecap="round" stroke-linejoin="round" />
  <line x1="11.28" y1="228.49" x2="243.41" y2="228.49" fill="none" stroke="currentColor" stroke-width="1.0" stroke-linecap="round" stroke-linejoin="round" />
  <line x1="11.28" y1="239.71" x2="243.41" y2="239.71" fill="none" stroke="currentColor" stroke-width="1.0" stroke-linecap="round" stroke-linejoin="round" />
</svg>