<svg xmlns="http://www.w3.org/2000/svg" viewBox="0 0 178.85 179.67" preserveAspectRatio="xMidYMid meet" shape-rendering="geometricPrecision" text-rendering="optimizeLegibility">
  <path d="M38.72,46.06 C66.63,21.59 109.15,24.39 133.61,52.31" fill="none" stroke="currentColor" stroke-width="1.4410000562667846" stroke-linecap="round" stroke-linejoin="round" />
  <line x1="82.68" y1="96.97" x2="43.77" y2="42.35" fill="none" stroke="currentColor" stroke-width="1.4410000562667846" stroke-linecap="round" stroke-linejoin="round" />
  <path d="M32.46,140.95 C8.00,113.03 10.80,70.52 38.72,46.06" fill="none" stroke="currentColor" stroke-width="1.4410000562667846" stroke-linecap="round" stroke-linejoin="round" />
  <path d="M133.61,52.31 C158.08,80.22 155.28,122.74 127.36,147.20" fill="none" stroke="currentColor" stroke-width="1.4410000562667846" stroke-linecap="round" stroke-linejoin="round" />
  <path d="M66.83,59.34 C66.61,59.31 66.36,59.29 66.07,59.30" fill="currentColor" stroke="currentColor" stroke-width="1.2" stroke-linecap="round" stroke-linejoin="round" />
  <line x1="64.85" y1="59.30" x2="63.90" y2="66.06" fill="currentColor" stroke="currentColor" stroke-width="1.2" stroke-linecap="round" stroke-linejoin="round" />
  <line x1="66.07" y1="59.30" x2="64.85" y2="59.30" fill="currentColor" stroke="currentColor" stroke-width="1.2" stroke-linecap="round" stroke-linejoin="round" />
  <path d="M67.39,59.49 C67.23,59.42 67.04,59.37 66.83,59.34" fill="currentColor" stroke="currentColor" stroke-width="1.2" stroke-linecap="round" stroke-linejoin="round" />
  <path d="M67.82,59.77 C67.69,59.66 67.55,59.56 67.39,59.49" fill="currentColor" stroke="currentColor" stroke-width="1.2" stroke-linecap="round" stroke-linejoin="round" />
  <path d="M68.23,60.37 C68.14,60.14 68.00,59.94 67.82,59.77" fill="currentColor" stroke="currentColor" stroke-width="1.2" stroke-linecap="round" stroke-linejoin="round" />
  <line x1="65.67" y1="60.10" x2="66.19" y2="60.10" fill="currentColor" stroke="currentColor" stroke-width="1.2" stroke-linecap="round" stroke-linejoin="round" />
  <path d="M66.19,60.10 C66.60,60.10 66.90,60.18 67.10,60.35" fill="currentColor" stroke="currentColor" stroke-width="1.2" stroke-linecap="round" stroke-linejoin="round" />
  <line x1="65.37" y1="62.27" x2="65.67" y2="60.10" fill="currentColor" stroke="currentColor" stroke-width="1.2" stroke-linecap="round" stroke-linejoin="round" />
  <path d="M67.10,60.35 C67.31,60.52 67.41,60.76 67.41,61.08" fill="currentColor" stroke="currentColor" stroke-width="1.2" stroke-linecap="round" stroke-linejoin="round" />
  <path d="M68.38,61.13 C68.37,60.85 68.33,60.59 68.23,60.37" fill="currentColor" stroke="currentColor" stroke-width="1.2" stroke-linecap="round" stroke-linejoin="round" />
  <path d="M67.41,61.08 C67.42,61.22 67.39,61.36 67.34,61.50" fill="currentColor" stroke="currentColor" stroke-width="1.2" stroke-linecap="round" stroke-linejoin="round" />
  <path d="M68.21,61.87 C68.32,61.65 68.37,61.40 68.38,61.13" fill="currentColor" stroke="currentColor" stroke-width="1.2" stroke-linecap="round" stroke-linejoin="round" />
  <path d="M67.34,61.50 C67.29,61.64 67.21,61.76 67.10,61.88" fill="currentColor" stroke="currentColor" stroke-width="1.2" stroke-linecap="round" stroke-linejoin="round" />
  <path d="M67.73,62.44 C67.93,62.29 68.09,62.10 68.21,61.87" fill="currentColor" stroke="currentColor" stroke-width="1.2" stroke-linecap="round" stroke-linejoin="round" />
  <path d="M67.10,61.88 C66.98,62.00 66.82,62.09 66.61,62.16" fill="currentColor" stroke="currentColor" stroke-width="1.2" stroke-linecap="round" stroke-linejoin="round" />
  <path d="M66.61,62.16 C66.41,62.23 66.15,62.27 65.85,62.27" fill="currentColor" stroke="currentColor" stroke-width="1.2" stroke-linecap="round" stroke-linejoin="round" />
  <line x1="65.85" y1="62.27" x2="65.37" y2="62.27" fill="currentColor" stroke="currentColor" stroke-width="1.2" stroke-linecap="round" stroke-linejoin="round" />
  <path d="M66.99,62.79 C67.27,62.71 67.52,62.60 67.73,62.44" fill="currentColor" stroke="currentColor" stroke-width="1.2" stroke-linecap="round" stroke-linejoin="round" />
  <path d="M67.29,63.09 C67.19,62.95 67.09,62.85 66.99,62.79" fill="currentColor" stroke="currentColor" stroke-width="1.2" stroke-linecap="round" stroke-linejoin="round" />
  <path d="M65.61,63.07 C65.76,63.07 65.89,63.09 66.01,63.13" fill="currentColor" stroke="currentColor" stroke-width="1.2" stroke-linecap="round" stroke-linejoin="round" />
  <line x1="64.83" y1="66.06" x2="65.25" y2="63.07" fill="currentColor" stroke="currentColor" stroke-width="1.2" stroke-linecap="round" stroke-linejoin="round" />
  <line x1="65.25" y1="63.07" x2="65.61" y2="63.07" fill="currentColor" stroke="currentColor" stroke-width="1.2" stroke-linecap="round" stroke-linejoin="round" />
  <path d="M67.55,63.53 C67.48,63.37 67.39,63.22 67.29,63.09" fill="currentColor" stroke="currentColor" stroke-width="1.2" stroke-linecap="round" stroke-linejoin="round" />
  <path d="M66.01,63.13 C66.12,63.16 66.23,63.23 66.33,63.33" fill="currentColor" stroke="currentColor" stroke-width="1.2" stroke-linecap="round" stroke-linejoin="round" />
  <path d="M66.33,63.33 C66.43,63.43 66.54,63.57 66.65,63.75" fill="currentColor" stroke="currentColor" stroke-width="1.2" stroke-linecap="round" stroke-linejoin="round" />
  <line x1="68.76" y1="66.06" x2="67.55" y2="63.53" fill="currentColor" stroke="currentColor" stroke-width="1.2" stroke-linecap="round" stroke-linejoin="round" />
  <path d="M66.65,63.75 C66.76,63.93 66.88,64.17 67.02,64.45" fill="currentColor" stroke="currentColor" stroke-width="1.2" stroke-linecap="round" stroke-linejoin="round" />
  <line x1="67.02" y1="64.45" x2="67.79" y2="66.06" fill="currentColor" stroke="currentColor" stroke-width="1.2" stroke-linecap="round" stroke-linejoin="round" />
  <line x1="63.90" y1="66.06" x2="64.83" y2="66.06" fill="currentColor" stroke="currentColor" stroke-width="1.2" stroke-linecap="round" stroke-linejoin="round" />
  <line x1="67.79" y1="66.06" x2="68.76" y2="66.06" fill="currentColor" stroke="currentColor" stroke-width="1.2" stroke-linecap="round" stroke-linejoin="round" />
  <path d="M72.52,77.36 C83.15,71.57 96.48,75.51 102.27,86.15" fill="none" stroke="currentColor" stroke-width="1.4410000562667846" stroke-linecap="round" stroke-linejoin="round" />
  <path d="M117.08,77.36 C127.71,71.57 141.04,75.51 146.83,86.15" fill="none" stroke="currentColor" stroke-width="1.4410000562667846" stroke-linecap="round" stroke-linejoin="round" />
  <path d="M27.96,77.36 C38.60,71.57 51.92,75.51 57.71,86.15" fill="none" stroke="currentColor" stroke-width="1.4410000562667846" stroke-linecap="round" stroke-linejoin="round" />
  <line x1="38.38" y1="74.20" x2="38.38" y2="96.97" fill="none" stroke="currentColor" stroke-width="1.4410000562667846" stroke-linecap="round" stroke-linejoin="round" />
  <line x1="83.01" y1="74.21" x2="83.01" y2="96.97" fill="none" stroke="currentColor" stroke-width="1.4410000562667846" stroke-linecap="round" stroke-linejoin="round" />
  <line x1="127.70" y1="75.11" x2="127.70" y2="96.97" fill="none" stroke="currentColor" stroke-width="1.4410000562667846" stroke-linecap="round" stroke-linejoin="round" />
  <path d="M63.74,107.12 C57.96,96.48 61.89,83.15 72.52,77.36" fill="none" stroke="currentColor" stroke-width="1.4410000562667846" stroke-linecap="round" stroke-linejoin="round" />
  <path d="M108.30,107.12 C102.51,96.48 106.45,83.15 117.08,77.36" fill="none" stroke="currentColor" stroke-width="1.4410000562667846" stroke-linecap="round" stroke-linejoin="round" />
  <path d="M19.19,107.12 C13.40,96.48 17.33,83.15 27.96,77.36" fill="none" stroke="currentColor" stroke-width="1.4410000562667846" stroke-linecap="round" stroke-linejoin="round" />
  <path d="M45.56,83.85 C45.42,83.84 45.29,83.87 45.18,83.92" fill="currentColor" stroke="currentColor" stroke-width="1.2" stroke-linecap="round" stroke-linejoin="round" />
  <path d="M45.73,83.86 C45.68,83.85 45.62,83.85 45.56,83.85" fill="currentColor" stroke="currentColor" stroke-width="1.2" stroke-linecap="round" stroke-linejoin="round" />
  <path d="M45.93,83.92 C45.85,83.89 45.79,83.87 45.73,83.86" fill="currentColor" stroke="currentColor" stroke-width="1.2" stroke-linecap="round" stroke-linejoin="round" />
  <line x1="44.49" y1="83.92" x2="43.64" y2="83.92" fill="currentColor" stroke="currentColor" stroke-width="1.2" stroke-linecap="round" stroke-linejoin="round" />
  <line x1="43.64" y1="83.92" x2="43.02" y2="88.37" fill="currentColor" stroke="currentColor" stroke-width="1.2" stroke-linecap="round" stroke-linejoin="round" />
  <line x1="45.93" y1="84.87" x2="45.93" y2="83.92" fill="currentColor" stroke="currentColor" stroke-width="1.2" stroke-linecap="round" stroke-linejoin="round" />
  <line x1="44.36" y1="84.76" x2="44.49" y2="83.92" fill="currentColor" stroke="currentColor" stroke-width="1.2" stroke-linecap="round" stroke-linejoin="round" />
  <path d="M45.18,83.92 C45.07,83.97 44.95,84.07 44.82,84.20" fill="currentColor" stroke="currentColor" stroke-width="1.2" stroke-linecap="round" stroke-linejoin="round" />
  <path d="M89.91,84.00 C89.77,84.00 89.64,84.02 89.53,84.07" fill="currentColor" stroke="currentColor" stroke-width="1.2" stroke-linecap="round" stroke-linejoin="round" />
  <path d="M133.96,84.00 C133.82,84.00 133.69,84.02 133.58,84.07" fill="currentColor" stroke="currentColor" stroke-width="1.2" stroke-linecap="round" stroke-linejoin="round" />
  <path d="M90.09,84.01 C90.03,84.00 89.97,84.00 89.91,84.00" fill="currentColor" stroke="currentColor" stroke-width="1.2" stroke-linecap="round" stroke-linejoin="round" />
  <path d="M134.13,84.01 C134.08,84.00 134.02,84.00 133.96,84.00" fill="currentColor" stroke="currentColor" stroke-width="1.2" stroke-linecap="round" stroke-linejoin="round" />
  <path d="M90.28,84.07 C90.21,84.04 90.14,84.02 90.09,84.01" fill="currentColor" stroke="currentColor" stroke-width="1.2" stroke-linecap="round" stroke-linejoin="round" />
  <path d="M134.32,84.07 C134.25,84.04 134.19,84.02 134.13,84.01" fill="currentColor" stroke="currentColor" stroke-width="1.2" stroke-linecap="round" stroke-linejoin="round" />
  <line x1="88.84" y1="84.07" x2="87.99" y2="84.07" fill="currentColor" stroke="currentColor" stroke-width="1.2" stroke-linecap="round" stroke-linejoin="round" />
  <line x1="87.99" y1="84.07" x2="87.37" y2="88.52" fill="currentColor" stroke="currentColor" stroke-width="1.2" stroke-linecap="round" stroke-linejoin="round" />
  <line x1="90.28" y1="85.02" x2="90.28" y2="84.07" fill="currentColor" stroke="currentColor" stroke-width="1.2" stroke-linecap="round" stroke-linejoin="round" />
  <line x1="88.71" y1="84.91" x2="88.84" y2="84.07" fill="currentColor" stroke="currentColor" stroke-width="1.2" stroke-linecap="round" stroke-linejoin="round" />
  <line x1="132.89" y1="84.07" x2="132.04" y2="84.07" fill="currentColor" stroke="currentColor" stroke-width="1.2" stroke-linecap="round" stroke-linejoin="round" />
  <line x1="132.04" y1="84.07" x2="131.42" y2="88.52" fill="currentColor" stroke="currentColor" stroke-width="1.2" stroke-linecap="round" stroke-linejoin="round" />
  <line x1="134.32" y1="85.02" x2="134.32" y2="84.07" fill="currentColor" stroke="currentColor" stroke-width="1.2" stroke-linecap="round" stroke-linejoin="round" />
  <line x1="132.76" y1="84.91" x2="132.89" y2="84.07" fill="currentColor" stroke="currentColor" stroke-width="1.2" stroke-linecap="round" stroke-linejoin="round" />
  <path d="M89.53,84.07 C89.42,84.12 89.30,84.22 89.17,84.35" fill="currentColor" stroke="currentColor" stroke-width="1.2" stroke-linecap="round" stroke-linejoin="round" />
  <path d="M133.58,84.07 C133.47,84.12 133.35,84.22 133.22,84.35" fill="currentColor" stroke="currentColor" stroke-width="1.2" stroke-linecap="round" stroke-linejoin="round" />
  <path d="M44.82,84.20 C44.70,84.34 44.55,84.53 44.38,84.78" fill="currentColor" stroke="currentColor" stroke-width="1.2" stroke-linecap="round" stroke-linejoin="round" />
  <path d="M89.17,84.35 C89.05,84.49 88.90,84.68 88.73,84.93" fill="currentColor" stroke="currentColor" stroke-width="1.2" stroke-linecap="round" stroke-linejoin="round" />
  <path d="M133.22,84.35 C133.10,84.49 132.95,84.68 132.78,84.93" fill="currentColor" stroke="currentColor" stroke-width="1.2" stroke-linecap="round" stroke-linejoin="round" />
  <path d="M45.01,84.82 C45.13,84.75 45.27,84.72 45.41,84.72" fill="currentColor" stroke="currentColor" stroke-width="1.2" stroke-linecap="round" stroke-linejoin="round" />
  <path d="M45.41,84.72 C45.50,84.72 45.58,84.73 45.66,84.75" fill="currentColor" stroke="currentColor" stroke-width="1.2" stroke-linecap="round" stroke-linejoin="round" />
  <path d="M45.66,84.75 C45.74,84.78 45.83,84.81 45.93,84.87" fill="currentColor" stroke="currentColor" stroke-width="1.2" stroke-linecap="round" stroke-linejoin="round" />
  <line x1="44.38" y1="84.78" x2="44.36" y2="84.76" fill="currentColor" stroke="currentColor" stroke-width="1.2" stroke-linecap="round" stroke-linejoin="round" />
  <path d="M44.63,85.18 C44.76,85.01 44.88,84.89 45.01,84.82" fill="currentColor" stroke="currentColor" stroke-width="1.2" stroke-linecap="round" stroke-linejoin="round" />
  <path d="M89.36,84.97 C89.48,84.90 89.62,84.87 89.76,84.87" fill="currentColor" stroke="currentColor" stroke-width="1.2" stroke-linecap="round" stroke-linejoin="round" />
  <path d="M133.41,84.97 C133.53,84.90 133.66,84.87 133.81,84.87" fill="currentColor" stroke="currentColor" stroke-width="1.2" stroke-linecap="round" stroke-linejoin="round" />
  <path d="M89.76,84.87 C89.85,84.87 89.93,84.88 90.01,84.90" fill="currentColor" stroke="currentColor" stroke-width="1.2" stroke-linecap="round" stroke-linejoin="round" />
  <path d="M133.81,84.87 C133.90,84.87 133.98,84.88 134.06,84.90" fill="currentColor" stroke="currentColor" stroke-width="1.2" stroke-linecap="round" stroke-linejoin="round" />
  <path d="M90.01,84.90 C90.09,84.93 90.18,84.97 90.28,85.02" fill="currentColor" stroke="currentColor" stroke-width="1.2" stroke-linecap="round" stroke-linejoin="round" />
  <path d="M134.06,84.90 C134.14,84.93 134.23,84.97 134.32,85.02" fill="currentColor" stroke="currentColor" stroke-width="1.2" stroke-linecap="round" stroke-linejoin="round" />
  <line x1="88.73" y1="84.93" x2="88.71" y2="84.91" fill="currentColor" stroke="currentColor" stroke-width="1.2" stroke-linecap="round" stroke-linejoin="round" />
  <line x1="132.78" y1="84.93" x2="132.76" y2="84.91" fill="currentColor" stroke="currentColor" stroke-width="1.2" stroke-linecap="round" stroke-linejoin="round" />
  <path d="M88.98,85.33 C89.11,85.16 89.23,85.04 89.36,84.97" fill="currentColor" stroke="currentColor" stroke-width="1.2" stroke-linecap="round" stroke-linejoin="round" />
  <path d="M133.03,85.33 C133.16,85.16 133.28,85.04 133.41,84.97" fill="currentColor" stroke="currentColor" stroke-width="1.2" stroke-linecap="round" stroke-linejoin="round" />
  <path d="M44.21,85.86 C44.36,85.57 44.50,85.34 44.63,85.18" fill="currentColor" stroke="currentColor" stroke-width="1.2" stroke-linecap="round" stroke-linejoin="round" />
  <path d="M88.56,86.01 C88.71,85.72 88.85,85.50 88.98,85.33" fill="currentColor" stroke="currentColor" stroke-width="1.2" stroke-linecap="round" stroke-linejoin="round" />
  <path d="M132.61,86.01 C132.76,85.72 132.90,85.50 133.03,85.33" fill="currentColor" stroke="currentColor" stroke-width="1.2" stroke-linecap="round" stroke-linejoin="round" />
  <line x1="43.86" y1="88.37" x2="44.21" y2="85.86" fill="currentColor" stroke="currentColor" stroke-width="1.2" stroke-linecap="round" stroke-linejoin="round" />
  <line x1="88.21" y1="88.52" x2="88.56" y2="86.01" fill="currentColor" stroke="currentColor" stroke-width="1.2" stroke-linecap="round" stroke-linejoin="round" />
  <line x1="132.26" y1="88.52" x2="132.61" y2="86.01" fill="currentColor" stroke="currentColor" stroke-width="1.2" stroke-linecap="round" stroke-linejoin="round" />
  <path d="M102.27,86.15 C108.06,96.79 104.12,110.12 93.49,115.91" fill="none" stroke="currentColor" stroke-width="1.4410000562667846" stroke-linecap="round" stroke-linejoin="round" />
  <path d="M146.83,86.15 C152.61,96.79 148.68,110.12 138.05,115.91" fill="none" stroke="currentColor" stroke-width="1.4410000562667846" stroke-linecap="round" stroke-linejoin="round" />
  <path d="M57.71,86.15 C63.50,96.79 59.57,110.12 48.93,115.91" fill="none" stroke="currentColor" stroke-width="1.4410000562667846" stroke-linecap="round" stroke-linejoin="round" />
  <line x1="43.02" y1="88.37" x2="43.86" y2="88.37" fill="currentColor" stroke="currentColor" stroke-width="1.2" stroke-linecap="round" stroke-linejoin="round" />
  <line x1="87.37" y1="88.52" x2="88.21" y2="88.52" fill="currentColor" stroke="currentColor" stroke-width="1.2" stroke-linecap="round" stroke-linejoin="round" />
  <line x1="131.42" y1="88.52" x2="132.26" y2="88.52" fill="currentColor" stroke="currentColor" stroke-width="1.2" stroke-linecap="round" stroke-linejoin="round" />
  <line x1="15.87" y1="96.97" x2="150.41" y2="96.97" fill="none" stroke="currentColor" stroke-width="1.4410000562667846" stroke-linecap="round" stroke-linejoin="round" />
  <path d="M93.49,115.91 C82.86,121.70 69.53,117.76 63.74,107.12" fill="none" stroke="currentColor" stroke-width="1.4410000562667846" stroke-linecap="round" stroke-linejoin="round" />
  <path d="M138.05,115.91 C127.42,121.70 114.09,117.76 108.30,107.12" fill="none" stroke="currentColor" stroke-width="1.4410000562667846" stroke-linecap="round" stroke-linejoin="round" />
  <path d="M48.93,115.91 C38.30,121.70 24.98,117.76 19.19,107.12" fill="none" stroke="currentColor" stroke-width="1.4410000562667846" stroke-linecap="round" stroke-linejoin="round" />
  <path d="M127.36,147.20 C99.44,171.67 56.93,168.87 32.46,140.95" fill="none" stroke="currentColor" stroke-width="1.4410000562667846" stroke-linecap="round" stroke-linejoin="round" />
  <text x="11.36" y="20.76" font-size="11.0" fill="currentColor" stroke="none" font-family="'Iowan Old Style', 'Sitka Text', Charter, Cambria, Georgia, serif">R</text>
  <text x="18.52" y="20.75" font-size="11.0" fill="currentColor" stroke="none" font-family="'Iowan Old Style', 'Sitka Text', Charter, Cambria, Georgia, serif"> är radien i en stor cirkel och </text>
</svg>