<svg xmlns="http://www.w3.org/2000/svg" viewBox="0 0 266.40 106.11" preserveAspectRatio="xMidYMid meet" shape-rendering="geometricPrecision" text-rendering="optimizeLegibility">
  <line x1="136.63" y1="94.30" x2="175.05" y2="8.00" fill="none" stroke="currentColor" stroke-width="1.4000000476837158" stroke-linecap="round" stroke-linejoin="round" />
  <line x1="136.63" y1="94.30" x2="59.92" y2="9.11" fill="none" stroke="currentColor" stroke-width="1.4000000476837158" stroke-linecap="round" stroke-linejoin="round" />
  <line x1="136.63" y1="94.30" x2="34.14" y2="48.67" fill="none" stroke="currentColor" stroke-width="1.4000000476837158" stroke-linecap="round" stroke-linejoin="round" />
  <path d="M133.61,71.89 C133.66,71.88 133.74,71.88 133.82,71.88" fill="currentColor" stroke="currentColor" stroke-width="1.2" stroke-linecap="round" stroke-linejoin="round" />
  <path d="M133.82,71.88 C133.92,71.88 134.00,71.88 134.05,71.89" fill="currentColor" stroke="currentColor" stroke-width="1.2" stroke-linecap="round" stroke-linejoin="round" />
  <path d="M137.06,71.89 C137.12,71.88 137.20,71.88 137.30,71.88" fill="currentColor" stroke="currentColor" stroke-width="1.2" stroke-linecap="round" stroke-linejoin="round" />
  <path d="M137.30,71.88 C137.46,71.88 137.57,71.89 137.62,71.91" fill="currentColor" stroke="currentColor" stroke-width="1.2" stroke-linecap="round" stroke-linejoin="round" />
  <path d="M134.05,71.89 C134.11,71.89 134.15,71.90 134.18,71.91" fill="currentColor" stroke="currentColor" stroke-width="1.2" stroke-linecap="round" stroke-linejoin="round" />
  <path d="M136.90,71.92 C136.94,71.90 136.99,71.89 137.06,71.89" fill="currentColor" stroke="currentColor" stroke-width="1.2" stroke-linecap="round" stroke-linejoin="round" />
  <path d="M133.46,71.92 C133.50,71.90 133.55,71.89 133.61,71.89" fill="currentColor" stroke="currentColor" stroke-width="1.2" stroke-linecap="round" stroke-linejoin="round" />
  <path d="M134.18,71.91 C134.21,71.93 134.23,71.95 134.24,71.97" fill="currentColor" stroke="currentColor" stroke-width="1.2" stroke-linecap="round" stroke-linejoin="round" />
  <path d="M136.82,71.97 C136.84,71.95 136.87,71.93 136.90,71.92" fill="currentColor" stroke="currentColor" stroke-width="1.2" stroke-linecap="round" stroke-linejoin="round" />
  <path d="M133.39,71.98 C133.40,71.96 133.43,71.94 133.46,71.92" fill="currentColor" stroke="currentColor" stroke-width="1.2" stroke-linecap="round" stroke-linejoin="round" />
  <path d="M137.62,71.91 C137.67,71.93 137.70,71.97 137.70,72.01" fill="currentColor" stroke="currentColor" stroke-width="1.2" stroke-linecap="round" stroke-linejoin="round" />
  <path d="M136.78,72.04 C136.78,72.01 136.80,71.99 136.82,71.97" fill="currentColor" stroke="currentColor" stroke-width="1.2" stroke-linecap="round" stroke-linejoin="round" />
  <path d="M134.24,71.97 C134.26,72.00 134.27,72.03 134.27,72.06" fill="currentColor" stroke="currentColor" stroke-width="1.2" stroke-linecap="round" stroke-linejoin="round" />
  <path d="M133.37,72.08 C133.37,72.04 133.38,72.01 133.39,71.98" fill="currentColor" stroke="currentColor" stroke-width="1.2" stroke-linecap="round" stroke-linejoin="round" />
  <path d="M137.70,72.01 C137.70,72.05 137.70,72.09 137.69,72.13" fill="currentColor" stroke="currentColor" stroke-width="1.2" stroke-linecap="round" stroke-linejoin="round" />
  <path d="M133.38,72.18 C133.37,72.14 133.37,72.11 133.37,72.08" fill="currentColor" stroke="currentColor" stroke-width="1.2" stroke-linecap="round" stroke-linejoin="round" />
  <path d="M137.69,72.13 C137.68,72.17 137.67,72.21 137.65,72.25" fill="currentColor" stroke="currentColor" stroke-width="1.2" stroke-linecap="round" stroke-linejoin="round" />
  <path d="M133.39,72.29 C133.39,72.25 133.38,72.21 133.38,72.18" fill="currentColor" stroke="currentColor" stroke-width="1.2" stroke-linecap="round" stroke-linejoin="round" />
  <path d="M136.42,73.07 C136.55,72.73 136.67,72.39 136.78,72.04" fill="currentColor" stroke="currentColor" stroke-width="1.2" stroke-linecap="round" stroke-linejoin="round" />
  <path d="M137.65,72.25 C137.53,72.57 137.41,72.91 137.27,73.26" fill="currentColor" stroke="currentColor" stroke-width="1.2" stroke-linecap="round" stroke-linejoin="round" />
  <path d="M136.00,74.07 C136.15,73.74 136.29,73.41 136.42,73.07" fill="currentColor" stroke="currentColor" stroke-width="1.2" stroke-linecap="round" stroke-linejoin="round" />
  <path d="M111.18,73.68 C111.28,73.68 111.36,73.68 111.42,73.69" fill="currentColor" stroke="currentColor" stroke-width="1.2" stroke-linecap="round" stroke-linejoin="round" />
  <path d="M114.17,73.69 C114.23,73.68 114.30,73.68 114.40,73.68" fill="currentColor" stroke="currentColor" stroke-width="1.2" stroke-linecap="round" stroke-linejoin="round" />
  <path d="M110.91,73.69 C110.98,73.68 111.07,73.68 111.18,73.68" fill="currentColor" stroke="currentColor" stroke-width="1.2" stroke-linecap="round" stroke-linejoin="round" />
  <path d="M114.40,73.68 C114.51,73.68 114.60,73.68 114.66,73.69" fill="currentColor" stroke="currentColor" stroke-width="1.2" stroke-linecap="round" stroke-linejoin="round" />
  <path d="M111.42,73.69 C111.47,73.69 111.52,73.70 111.55,73.71" fill="currentColor" stroke="currentColor" stroke-width="1.2" stroke-linecap="round" stroke-linejoin="round" />
  <path d="M114.02,73.71 C114.06,73.70 114.11,73.69 114.17,73.69" fill="currentColor" stroke="currentColor" stroke-width="1.2" stroke-linecap="round" stroke-linejoin="round" />
  <path d="M114.66,73.69 C114.73,73.70 114.78,73.71 114.81,73.73" fill="currentColor" stroke="currentColor" stroke-width="1.2" stroke-linecap="round" stroke-linejoin="round" />
  <path d="M110.76,73.73 C110.79,73.71 110.84,73.70 110.91,73.69" fill="currentColor" stroke="currentColor" stroke-width="1.2" stroke-linecap="round" stroke-linejoin="round" />
  <path d="M111.55,73.71 C111.58,73.72 111.60,73.74 111.61,73.76" fill="currentColor" stroke="currentColor" stroke-width="1.2" stroke-linecap="round" stroke-linejoin="round" />
  <path d="M113.93,73.76 C113.95,73.74 113.98,73.73 114.02,73.71" fill="currentColor" stroke="currentColor" stroke-width="1.2" stroke-linecap="round" stroke-linejoin="round" />
  <path d="M114.81,73.73 C114.85,73.75 114.86,73.77 114.86,73.81" fill="currentColor" stroke="currentColor" stroke-width="1.2" stroke-linecap="round" stroke-linejoin="round" />
  <path d="M110.70,73.82 C110.70,73.78 110.72,73.76 110.76,73.73" fill="currentColor" stroke="currentColor" stroke-width="1.2" stroke-linecap="round" stroke-linejoin="round" />
  <path d="M111.61,73.76 C111.62,73.77 111.64,73.79 111.65,73.82" fill="currentColor" stroke="currentColor" stroke-width="1.2" stroke-linecap="round" stroke-linejoin="round" />
  <path d="M113.86,73.82 C113.89,73.80 113.91,73.78 113.93,73.76" fill="currentColor" stroke="currentColor" stroke-width="1.2" stroke-linecap="round" stroke-linejoin="round" />
  <path d="M137.27,73.26 C137.13,73.62 136.96,73.98 136.78,74.37" fill="currentColor" stroke="currentColor" stroke-width="1.2" stroke-linecap="round" stroke-linejoin="round" />
  <path d="M114.86,73.81 C114.85,73.84 114.82,73.88 114.78,73.93" fill="currentColor" stroke="currentColor" stroke-width="1.2" stroke-linecap="round" stroke-linejoin="round" />
  <path d="M110.73,73.94 C110.71,73.89 110.70,73.85 110.70,73.82" fill="currentColor" stroke="currentColor" stroke-width="1.2" stroke-linecap="round" stroke-linejoin="round" />
  <line x1="134.27" y1="72.06" x2="134.90" y2="76.00" fill="currentColor" stroke="currentColor" stroke-width="1.2" stroke-linecap="round" stroke-linejoin="round" />
  <path d="M135.51,75.05 C135.69,74.73 135.85,74.41 136.00,74.07" fill="currentColor" stroke="currentColor" stroke-width="1.2" stroke-linecap="round" stroke-linejoin="round" />
  <line x1="134.19" y1="77.01" x2="133.39" y2="72.29" fill="currentColor" stroke="currentColor" stroke-width="1.2" stroke-linecap="round" stroke-linejoin="round" />
  <line x1="111.65" y1="73.82" x2="112.41" y2="75.62" fill="currentColor" stroke="currentColor" stroke-width="1.2" stroke-linecap="round" stroke-linejoin="round" />
  <line x1="112.41" y1="75.62" x2="113.86" y2="73.82" fill="currentColor" stroke="currentColor" stroke-width="1.2" stroke-linecap="round" stroke-linejoin="round" />
  <path d="M136.78,74.37 C136.59,74.75 136.37,75.16 136.12,75.58" fill="currentColor" stroke="currentColor" stroke-width="1.2" stroke-linecap="round" stroke-linejoin="round" />
  <line x1="111.72" y1="76.20" x2="110.73" y2="73.94" fill="currentColor" stroke="currentColor" stroke-width="1.2" stroke-linecap="round" stroke-linejoin="round" />
  <line x1="114.78" y1="73.93" x2="112.89" y2="76.21" fill="currentColor" stroke="currentColor" stroke-width="1.2" stroke-linecap="round" stroke-linejoin="round" />
  <path d="M134.91,76.00 C135.13,75.69 135.33,75.38 135.51,75.05" fill="currentColor" stroke="currentColor" stroke-width="1.2" stroke-linecap="round" stroke-linejoin="round" />
  <line x1="134.90" y1="76.00" x2="134.91" y2="76.00" fill="currentColor" stroke="currentColor" stroke-width="1.2" stroke-linecap="round" stroke-linejoin="round" />
  <path d="M136.12,75.58 C135.88,75.99 135.58,76.43 135.24,76.90" fill="currentColor" stroke="currentColor" stroke-width="1.2" stroke-linecap="round" stroke-linejoin="round" />
  <line x1="109.71" y1="78.58" x2="111.72" y2="76.20" fill="currentColor" stroke="currentColor" stroke-width="1.2" stroke-linecap="round" stroke-linejoin="round" />
  <line x1="112.89" y1="76.21" x2="113.94" y2="78.58" fill="currentColor" stroke="currentColor" stroke-width="1.2" stroke-linecap="round" stroke-linejoin="round" />
  <line x1="113.00" y1="78.70" x2="112.19" y2="76.79" fill="currentColor" stroke="currentColor" stroke-width="1.2" stroke-linecap="round" stroke-linejoin="round" />
  <line x1="112.19" y1="76.79" x2="110.67" y2="78.70" fill="currentColor" stroke="currentColor" stroke-width="1.2" stroke-linecap="round" stroke-linejoin="round" />
  <line x1="135.24" y1="76.90" x2="133.84" y2="78.79" fill="currentColor" stroke="currentColor" stroke-width="1.2" stroke-linecap="round" stroke-linejoin="round" />
  <line x1="132.88" y1="78.70" x2="134.19" y2="77.01" fill="currentColor" stroke="currentColor" stroke-width="1.2" stroke-linecap="round" stroke-linejoin="round" />
  <path d="M113.94,78.58 C113.97,78.63 113.97,78.67 113.97,78.70" fill="currentColor" stroke="currentColor" stroke-width="1.2" stroke-linecap="round" stroke-linejoin="round" />
  <path d="M109.65,78.71 C109.66,78.67 109.68,78.63 109.71,78.58" fill="currentColor" stroke="currentColor" stroke-width="1.2" stroke-linecap="round" stroke-linejoin="round" />
  <path d="M113.03,78.76 C113.02,78.74 113.01,78.72 113.00,78.70" fill="currentColor" stroke="currentColor" stroke-width="1.2" stroke-linecap="round" stroke-linejoin="round" />
  <path d="M110.67,78.70 C110.65,78.72 110.63,78.74 110.61,78.76" fill="currentColor" stroke="currentColor" stroke-width="1.2" stroke-linecap="round" stroke-linejoin="round" />
  <path d="M113.97,78.70 C113.96,78.74 113.94,78.77 113.90,78.79" fill="currentColor" stroke="currentColor" stroke-width="1.2" stroke-linecap="round" stroke-linejoin="round" />
  <path d="M109.69,78.79 C109.66,78.77 109.65,78.74 109.65,78.71" fill="currentColor" stroke="currentColor" stroke-width="1.2" stroke-linecap="round" stroke-linejoin="round" />
  <path d="M132.82,78.82 C132.82,78.79 132.84,78.75 132.88,78.70" fill="currentColor" stroke="currentColor" stroke-width="1.2" stroke-linecap="round" stroke-linejoin="round" />
  <path d="M110.61,78.76 C110.58,78.78 110.55,78.80 110.51,78.81" fill="currentColor" stroke="currentColor" stroke-width="1.2" stroke-linecap="round" stroke-linejoin="round" />
  <path d="M113.10,78.81 C113.06,78.80 113.04,78.78 113.03,78.76" fill="currentColor" stroke="currentColor" stroke-width="1.2" stroke-linecap="round" stroke-linejoin="round" />
  <path d="M113.90,78.79 C113.86,78.81 113.81,78.82 113.74,78.83" fill="currentColor" stroke="currentColor" stroke-width="1.2" stroke-linecap="round" stroke-linejoin="round" />
  <path d="M109.83,78.83 C109.77,78.82 109.72,78.81 109.69,78.79" fill="currentColor" stroke="currentColor" stroke-width="1.2" stroke-linecap="round" stroke-linejoin="round" />
  <path d="M110.51,78.81 C110.46,78.82 110.41,78.83 110.34,78.84" fill="currentColor" stroke="currentColor" stroke-width="1.2" stroke-linecap="round" stroke-linejoin="round" />
  <path d="M113.23,78.84 C113.17,78.83 113.13,78.82 113.10,78.81" fill="currentColor" stroke="currentColor" stroke-width="1.2" stroke-linecap="round" stroke-linejoin="round" />
  <path d="M133.84,78.79 C133.82,78.82 133.80,78.85 133.76,78.87" fill="currentColor" stroke="currentColor" stroke-width="1.2" stroke-linecap="round" stroke-linejoin="round" />
  <path d="M113.74,78.83 C113.67,78.84 113.58,78.85 113.47,78.85" fill="currentColor" stroke="currentColor" stroke-width="1.2" stroke-linecap="round" stroke-linejoin="round" />
  <path d="M110.08,78.85 C109.98,78.85 109.90,78.84 109.83,78.83" fill="currentColor" stroke="currentColor" stroke-width="1.2" stroke-linecap="round" stroke-linejoin="round" />
  <path d="M110.34,78.84 C110.28,78.84 110.19,78.85 110.08,78.85" fill="currentColor" stroke="currentColor" stroke-width="1.2" stroke-linecap="round" stroke-linejoin="round" />
  <path d="M113.47,78.85 C113.37,78.85 113.29,78.84 113.23,78.84" fill="currentColor" stroke="currentColor" stroke-width="1.2" stroke-linecap="round" stroke-linejoin="round" />
  <path d="M132.86,78.91 C132.83,78.89 132.82,78.86 132.82,78.82" fill="currentColor" stroke="currentColor" stroke-width="1.2" stroke-linecap="round" stroke-linejoin="round" />
  <path d="M133.76,78.87 C133.73,78.89 133.69,78.91 133.65,78.92" fill="currentColor" stroke="currentColor" stroke-width="1.2" stroke-linecap="round" stroke-linejoin="round" />
  <path d="M133.00,78.96 C132.94,78.95 132.89,78.93 132.86,78.91" fill="currentColor" stroke="currentColor" stroke-width="1.2" stroke-linecap="round" stroke-linejoin="round" />
  <path d="M133.65,78.92 C133.60,78.94 133.54,78.95 133.48,78.96" fill="currentColor" stroke="currentColor" stroke-width="1.2" stroke-linecap="round" stroke-linejoin="round" />
  <path d="M133.24,78.97 C133.15,78.97 133.07,78.96 133.00,78.96" fill="currentColor" stroke="currentColor" stroke-width="1.2" stroke-linecap="round" stroke-linejoin="round" />
  <path d="M133.48,78.96 C133.41,78.97 133.33,78.97 133.24,78.97" fill="currentColor" stroke="currentColor" stroke-width="1.2" stroke-linecap="round" stroke-linejoin="round" />
  <path d="M155.81,80.06 C155.86,80.06 155.94,80.06 156.02,80.06" fill="currentColor" stroke="currentColor" stroke-width="1.2" stroke-linecap="round" stroke-linejoin="round" />
  <path d="M156.02,80.06 C156.12,80.06 156.20,80.06 156.25,80.06" fill="currentColor" stroke="currentColor" stroke-width="1.2" stroke-linecap="round" stroke-linejoin="round" />
  <path d="M159.26,80.06 C159.32,80.06 159.40,80.06 159.50,80.06" fill="currentColor" stroke="currentColor" stroke-width="1.2" stroke-linecap="round" stroke-linejoin="round" />
  <path d="M159.50,80.06 C159.66,80.06 159.77,80.07 159.82,80.09" fill="currentColor" stroke="currentColor" stroke-width="1.2" stroke-linecap="round" stroke-linejoin="round" />
  <path d="M156.25,80.06 C156.31,80.07 156.35,80.08 156.38,80.09" fill="currentColor" stroke="currentColor" stroke-width="1.2" stroke-linecap="round" stroke-linejoin="round" />
  <path d="M159.10,80.09 C159.14,80.08 159.19,80.07 159.26,80.06" fill="currentColor" stroke="currentColor" stroke-width="1.2" stroke-linecap="round" stroke-linejoin="round" />
  <path d="M155.66,80.10 C155.70,80.08 155.75,80.07 155.81,80.06" fill="currentColor" stroke="currentColor" stroke-width="1.2" stroke-linecap="round" stroke-linejoin="round" />
  <path d="M156.38,80.09 C156.41,80.10 156.43,80.12 156.44,80.15" fill="currentColor" stroke="currentColor" stroke-width="1.2" stroke-linecap="round" stroke-linejoin="round" />
  <path d="M159.02,80.14 C159.04,80.12 159.07,80.11 159.10,80.09" fill="currentColor" stroke="currentColor" stroke-width="1.2" stroke-linecap="round" stroke-linejoin="round" />
  <path d="M155.59,80.16 C155.60,80.13 155.63,80.11 155.66,80.10" fill="currentColor" stroke="currentColor" stroke-width="1.2" stroke-linecap="round" stroke-linejoin="round" />
  <path d="M159.82,80.09 C159.87,80.11 159.90,80.14 159.90,80.18" fill="currentColor" stroke="currentColor" stroke-width="1.2" stroke-linecap="round" stroke-linejoin="round" />
  <path d="M158.98,80.22 C158.98,80.19 159.00,80.16 159.02,80.14" fill="currentColor" stroke="currentColor" stroke-width="1.2" stroke-linecap="round" stroke-linejoin="round" />
  <path d="M156.44,80.15 C156.46,80.17 156.47,80.20 156.47,80.24" fill="currentColor" stroke="currentColor" stroke-width="1.2" stroke-linecap="round" stroke-linejoin="round" />
  <path d="M155.57,80.26 C155.57,80.22 155.58,80.19 155.59,80.16" fill="currentColor" stroke="currentColor" stroke-width="1.2" stroke-linecap="round" stroke-linejoin="round" />
  <path d="M159.90,80.18 C159.90,80.22 159.90,80.26 159.89,80.30" fill="currentColor" stroke="currentColor" stroke-width="1.2" stroke-linecap="round" stroke-linejoin="round" />
  <path d="M114.32,84.36 C115.72,81.22 117.76,78.43 120.28,76.16" fill="none" stroke="currentColor" stroke-width="1.000000011920929" stroke-linecap="round" stroke-linejoin="round" />
  <path d="M155.58,80.35 C155.57,80.31 155.57,80.28 155.57,80.26" fill="currentColor" stroke="currentColor" stroke-width="1.2" stroke-linecap="round" stroke-linejoin="round" />
  <path d="M159.89,80.30 C159.88,80.35 159.87,80.38 159.85,80.42" fill="currentColor" stroke="currentColor" stroke-width="1.2" stroke-linecap="round" stroke-linejoin="round" />
  <path d="M155.59,80.47 C155.59,80.43 155.58,80.39 155.58,80.35" fill="currentColor" stroke="currentColor" stroke-width="1.2" stroke-linecap="round" stroke-linejoin="round" />
  <path d="M158.62,81.24 C158.75,80.91 158.87,80.56 158.98,80.22" fill="currentColor" stroke="currentColor" stroke-width="1.2" stroke-linecap="round" stroke-linejoin="round" />
  <path d="M159.85,80.42 C159.73,80.75 159.61,81.09 159.47,81.44" fill="currentColor" stroke="currentColor" stroke-width="1.2" stroke-linecap="round" stroke-linejoin="round" />
  <path d="M136.63,80.75 C138.58,80.75 140.44,81.16 142.12,81.91" fill="none" stroke="currentColor" stroke-width="1.000000011920929" stroke-linecap="round" stroke-linejoin="round" />
  <path d="M158.20,82.25 C158.35,81.92 158.49,81.58 158.62,81.24" fill="currentColor" stroke="currentColor" stroke-width="1.2" stroke-linecap="round" stroke-linejoin="round" />
  <path d="M159.47,81.44 C159.33,81.79 159.16,82.16 158.98,82.54" fill="currentColor" stroke="currentColor" stroke-width="1.2" stroke-linecap="round" stroke-linejoin="round" />
  <line x1="156.47" y1="80.24" x2="157.10" y2="84.18" fill="currentColor" stroke="currentColor" stroke-width="1.2" stroke-linecap="round" stroke-linejoin="round" />
  <path d="M127.56,84.23 C129.96,82.07 133.14,80.75 136.63,80.75" fill="none" stroke="currentColor" stroke-width="1.000000011920929" stroke-linecap="round" stroke-linejoin="round" />
  <path d="M157.71,83.23 C157.89,82.91 158.05,82.58 158.20,82.25" fill="currentColor" stroke="currentColor" stroke-width="1.2" stroke-linecap="round" stroke-linejoin="round" />
  <line x1="156.39" y1="85.19" x2="155.59" y2="80.47" fill="currentColor" stroke="currentColor" stroke-width="1.2" stroke-linecap="round" stroke-linejoin="round" />
  <path d="M158.98,82.54 C158.79,82.93 158.57,83.33 158.32,83.75" fill="currentColor" stroke="currentColor" stroke-width="1.2" stroke-linecap="round" stroke-linejoin="round" />
  <path d="M157.11,84.18 C157.33,83.87 157.53,83.55 157.71,83.23" fill="currentColor" stroke="currentColor" stroke-width="1.2" stroke-linecap="round" stroke-linejoin="round" />
  <line x1="157.10" y1="84.18" x2="157.11" y2="84.18" fill="currentColor" stroke="currentColor" stroke-width="1.2" stroke-linecap="round" stroke-linejoin="round" />
  <path d="M158.32,83.75 C158.08,84.17 157.78,84.61 157.44,85.07" fill="currentColor" stroke="currentColor" stroke-width="1.2" stroke-linecap="round" stroke-linejoin="round" />
  <line x1="157.44" y1="85.07" x2="156.04" y2="86.97" fill="currentColor" stroke="currentColor" stroke-width="1.2" stroke-linecap="round" stroke-linejoin="round" />
  <line x1="155.08" y1="86.87" x2="156.39" y2="85.19" fill="currentColor" stroke="currentColor" stroke-width="1.2" stroke-linecap="round" stroke-linejoin="round" />
  <path d="M143.65,78.48 C149.70,81.17 153.93,87.25 153.93,94.30" fill="none" stroke="currentColor" stroke-width="1.000000011920929" stroke-linecap="round" stroke-linejoin="round" />
  <path d="M108.63,86.73 C108.73,86.73 108.81,86.73 108.87,86.74" fill="currentColor" stroke="currentColor" stroke-width="1.2" stroke-linecap="round" stroke-linejoin="round" />
  <path d="M111.62,86.74 C111.68,86.73 111.76,86.73 111.85,86.73" fill="currentColor" stroke="currentColor" stroke-width="1.2" stroke-linecap="round" stroke-linejoin="round" />
  <path d="M108.36,86.74 C108.43,86.73 108.52,86.73 108.63,86.73" fill="currentColor" stroke="currentColor" stroke-width="1.2" stroke-linecap="round" stroke-linejoin="round" />
  <path d="M111.85,86.73 C111.96,86.73 112.05,86.73 112.12,86.74" fill="currentColor" stroke="currentColor" stroke-width="1.2" stroke-linecap="round" stroke-linejoin="round" />
  <path d="M108.87,86.74 C108.92,86.74 108.97,86.75 109.00,86.76" fill="currentColor" stroke="currentColor" stroke-width="1.2" stroke-linecap="round" stroke-linejoin="round" />
  <path d="M111.47,86.76 C111.51,86.75 111.56,86.74 111.62,86.74" fill="currentColor" stroke="currentColor" stroke-width="1.2" stroke-linecap="round" stroke-linejoin="round" />
  <path d="M112.12,86.74 C112.18,86.75 112.23,86.76 112.26,86.78" fill="currentColor" stroke="currentColor" stroke-width="1.2" stroke-linecap="round" stroke-linejoin="round" />
  <path d="M108.21,86.78 C108.24,86.76 108.29,86.75 108.36,86.74" fill="currentColor" stroke="currentColor" stroke-width="1.2" stroke-linecap="round" stroke-linejoin="round" />
  <path d="M109.00,86.76 C109.03,86.77 109.05,86.79 109.06,86.81" fill="currentColor" stroke="currentColor" stroke-width="1.2" stroke-linecap="round" stroke-linejoin="round" />
  <path d="M111.38,86.81 C111.40,86.79 111.43,86.78 111.47,86.76" fill="currentColor" stroke="currentColor" stroke-width="1.2" stroke-linecap="round" stroke-linejoin="round" />
  <path d="M112.26,86.78 C112.30,86.80 112.31,86.82 112.31,86.86" fill="currentColor" stroke="currentColor" stroke-width="1.2" stroke-linecap="round" stroke-linejoin="round" />
  <path d="M108.15,86.87 C108.15,86.83 108.17,86.81 108.21,86.78" fill="currentColor" stroke="currentColor" stroke-width="1.2" stroke-linecap="round" stroke-linejoin="round" />
  <path d="M109.06,86.81 C109.07,86.82 109.09,86.84 109.10,86.87" fill="currentColor" stroke="currentColor" stroke-width="1.2" stroke-linecap="round" stroke-linejoin="round" />
  <path d="M111.32,86.87 C111.34,86.85 111.36,86.83 111.38,86.81" fill="currentColor" stroke="currentColor" stroke-width="1.2" stroke-linecap="round" stroke-linejoin="round" />
  <path d="M112.31,86.86 C112.30,86.89 112.27,86.93 112.23,86.98" fill="currentColor" stroke="currentColor" stroke-width="1.2" stroke-linecap="round" stroke-linejoin="round" />
  <path d="M108.18,86.99 C108.16,86.94 108.15,86.90 108.15,86.87" fill="currentColor" stroke="currentColor" stroke-width="1.2" stroke-linecap="round" stroke-linejoin="round" />
  <path d="M155.02,87.00 C155.02,86.96 155.04,86.92 155.08,86.87" fill="currentColor" stroke="currentColor" stroke-width="1.2" stroke-linecap="round" stroke-linejoin="round" />
  <path d="M156.04,86.97 C156.02,87.00 156.00,87.02 155.96,87.04" fill="currentColor" stroke="currentColor" stroke-width="1.2" stroke-linecap="round" stroke-linejoin="round" />
  <path d="M155.06,87.09 C155.03,87.06 155.02,87.04 155.02,87.00" fill="currentColor" stroke="currentColor" stroke-width="1.2" stroke-linecap="round" stroke-linejoin="round" />
  <path d="M155.96,87.04 C155.93,87.06 155.89,87.08 155.85,87.10" fill="currentColor" stroke="currentColor" stroke-width="1.2" stroke-linecap="round" stroke-linejoin="round" />
  <path d="M155.20,87.13 C155.14,87.12 155.09,87.11 155.06,87.09" fill="currentColor" stroke="currentColor" stroke-width="1.2" stroke-linecap="round" stroke-linejoin="round" />
  <path d="M155.85,87.10 C155.80,87.12 155.74,87.13 155.68,87.13" fill="currentColor" stroke="currentColor" stroke-width="1.2" stroke-linecap="round" stroke-linejoin="round" />
  <path d="M155.44,87.14 C155.35,87.14 155.27,87.14 155.20,87.13" fill="currentColor" stroke="currentColor" stroke-width="1.2" stroke-linecap="round" stroke-linejoin="round" />
  <path d="M155.68,87.13 C155.61,87.14 155.53,87.14 155.44,87.14" fill="currentColor" stroke="currentColor" stroke-width="1.2" stroke-linecap="round" stroke-linejoin="round" />
  <line x1="109.10" y1="86.87" x2="109.87" y2="88.67" fill="currentColor" stroke="currentColor" stroke-width="1.2" stroke-linecap="round" stroke-linejoin="round" />
  <line x1="109.87" y1="88.67" x2="111.32" y2="86.87" fill="currentColor" stroke="currentColor" stroke-width="1.2" stroke-linecap="round" stroke-linejoin="round" />
  <line x1="109.17" y1="89.25" x2="108.18" y2="86.99" fill="currentColor" stroke="currentColor" stroke-width="1.2" stroke-linecap="round" stroke-linejoin="round" />
  <line x1="112.23" y1="86.98" x2="110.34" y2="89.26" fill="currentColor" stroke="currentColor" stroke-width="1.2" stroke-linecap="round" stroke-linejoin="round" />
  <path d="M115.80,94.30 C115.80,91.29 116.44,88.43 117.59,85.84" fill="none" stroke="currentColor" stroke-width="1.000000011920929" stroke-linecap="round" stroke-linejoin="round" />
  <line x1="107.16" y1="91.63" x2="109.17" y2="89.25" fill="currentColor" stroke="currentColor" stroke-width="1.2" stroke-linecap="round" stroke-linejoin="round" />
  <line x1="110.34" y1="89.26" x2="111.40" y2="91.63" fill="currentColor" stroke="currentColor" stroke-width="1.2" stroke-linecap="round" stroke-linejoin="round" />
  <line x1="110.45" y1="91.75" x2="109.64" y2="89.84" fill="currentColor" stroke="currentColor" stroke-width="1.2" stroke-linecap="round" stroke-linejoin="round" />
  <line x1="109.64" y1="89.84" x2="108.12" y2="91.75" fill="currentColor" stroke="currentColor" stroke-width="1.2" stroke-linecap="round" stroke-linejoin="round" />
  <path d="M8.24,91.14 C8.30,91.13 8.38,91.13 8.46,91.13" fill="currentColor" stroke="currentColor" stroke-width="1.2" stroke-linecap="round" stroke-linejoin="round" />
  <path d="M8.46,91.13 C8.55,91.13 8.63,91.13 8.69,91.14" fill="currentColor" stroke="currentColor" stroke-width="1.2" stroke-linecap="round" stroke-linejoin="round" />
  <path d="M8.10,91.17 C8.13,91.16 8.18,91.15 8.24,91.14" fill="currentColor" stroke="currentColor" stroke-width="1.2" stroke-linecap="round" stroke-linejoin="round" />
  <path d="M8.69,91.14 C8.74,91.15 8.79,91.16 8.83,91.17" fill="currentColor" stroke="currentColor" stroke-width="1.2" stroke-linecap="round" stroke-linejoin="round" />
  <path d="M8.02,91.22 C8.04,91.20 8.06,91.18 8.10,91.17" fill="currentColor" stroke="currentColor" stroke-width="1.2" stroke-linecap="round" stroke-linejoin="round" />
  <path d="M8.83,91.17 C8.86,91.18 8.89,91.20 8.90,91.22" fill="currentColor" stroke="currentColor" stroke-width="1.2" stroke-linecap="round" stroke-linejoin="round" />
  <path d="M8.00,91.30 C8.00,91.27 8.01,91.24 8.02,91.22" fill="currentColor" stroke="currentColor" stroke-width="1.2" stroke-linecap="round" stroke-linejoin="round" />
  <path d="M8.90,91.22 C8.92,91.24 8.92,91.27 8.92,91.30" fill="currentColor" stroke="currentColor" stroke-width="1.2" stroke-linecap="round" stroke-linejoin="round" />
  <path d="M111.40,91.63 C111.42,91.68 111.43,91.72 111.42,91.75" fill="currentColor" stroke="currentColor" stroke-width="1.2" stroke-linecap="round" stroke-linejoin="round" />
  <path d="M107.10,91.76 C107.11,91.72 107.13,91.68 107.16,91.63" fill="currentColor" stroke="currentColor" stroke-width="1.2" stroke-linecap="round" stroke-linejoin="round" />
  <path d="M110.48,91.81 C110.47,91.79 110.46,91.77 110.45,91.75" fill="currentColor" stroke="currentColor" stroke-width="1.2" stroke-linecap="round" stroke-linejoin="round" />
  <path d="M108.12,91.75 C108.10,91.77 108.08,91.79 108.06,91.81" fill="currentColor" stroke="currentColor" stroke-width="1.2" stroke-linecap="round" stroke-linejoin="round" />
  <path d="M111.42,91.75 C111.41,91.79 111.39,91.82 111.35,91.84" fill="currentColor" stroke="currentColor" stroke-width="1.2" stroke-linecap="round" stroke-linejoin="round" />
  <path d="M107.14,91.84 C107.11,91.82 107.10,91.79 107.10,91.76" fill="currentColor" stroke="currentColor" stroke-width="1.2" stroke-linecap="round" stroke-linejoin="round" />
  <path d="M108.06,91.81 C108.03,91.83 108.00,91.85 107.96,91.86" fill="currentColor" stroke="currentColor" stroke-width="1.2" stroke-linecap="round" stroke-linejoin="round" />
  <path d="M110.55,91.86 C110.51,91.85 110.49,91.83 110.48,91.81" fill="currentColor" stroke="currentColor" stroke-width="1.2" stroke-linecap="round" stroke-linejoin="round" />
  <path d="M111.35,91.84 C111.31,91.86 111.26,91.87 111.19,91.88" fill="currentColor" stroke="currentColor" stroke-width="1.2" stroke-linecap="round" stroke-linejoin="round" />
  <path d="M107.28,91.88 C107.22,91.87 107.17,91.86 107.14,91.84" fill="currentColor" stroke="currentColor" stroke-width="1.2" stroke-linecap="round" stroke-linejoin="round" />
  <path d="M107.96,91.86 C107.92,91.87 107.86,91.88 107.79,91.89" fill="currentColor" stroke="currentColor" stroke-width="1.2" stroke-linecap="round" stroke-linejoin="round" />
  <path d="M110.68,91.89 C110.62,91.88 110.58,91.87 110.55,91.86" fill="currentColor" stroke="currentColor" stroke-width="1.2" stroke-linecap="round" stroke-linejoin="round" />
  <path d="M111.19,91.88 C111.12,91.89 111.03,91.90 110.92,91.90" fill="currentColor" stroke="currentColor" stroke-width="1.2" stroke-linecap="round" stroke-linejoin="round" />
  <path d="M107.53,91.90 C107.43,91.90 107.35,91.89 107.28,91.88" fill="currentColor" stroke="currentColor" stroke-width="1.2" stroke-linecap="round" stroke-linejoin="round" />
  <path d="M107.79,91.89 C107.73,91.89 107.64,91.90 107.53,91.90" fill="currentColor" stroke="currentColor" stroke-width="1.2" stroke-linecap="round" stroke-linejoin="round" />
  <path d="M110.92,91.90 C110.82,91.90 110.74,91.89 110.68,91.89" fill="currentColor" stroke="currentColor" stroke-width="1.2" stroke-linecap="round" stroke-linejoin="round" />
  <line x1="14.86" y1="94.30" x2="258.40" y2="94.30" fill="none" stroke="currentColor" stroke-width="1.4000000476837158" stroke-linecap="round" stroke-linejoin="round" />
  <line x1="8.92" y1="91.30" x2="8.92" y2="97.31" fill="currentColor" stroke="currentColor" stroke-width="1.2" stroke-linecap="round" stroke-linejoin="round" />
  <line x1="8.00" y1="97.73" x2="8.00" y2="91.30" fill="currentColor" stroke="currentColor" stroke-width="1.2" stroke-linecap="round" stroke-linejoin="round" />
  <line x1="8.92" y1="97.31" x2="11.42" y2="97.31" fill="currentColor" stroke="currentColor" stroke-width="1.2" stroke-linecap="round" stroke-linejoin="round" />
  <path d="M11.42,97.31 C11.45,97.31 11.48,97.32 11.50,97.33" fill="currentColor" stroke="currentColor" stroke-width="1.2" stroke-linecap="round" stroke-linejoin="round" />
  <path d="M11.50,97.33 C11.52,97.35 11.54,97.37 11.56,97.40" fill="currentColor" stroke="currentColor" stroke-width="1.2" stroke-linecap="round" stroke-linejoin="round" />
  <path d="M11.56,97.40 C11.57,97.43 11.59,97.47 11.59,97.52" fill="currentColor" stroke="currentColor" stroke-width="1.2" stroke-linecap="round" stroke-linejoin="round" />
  <path d="M11.59,97.52 C11.60,97.57 11.60,97.63 11.60,97.70" fill="currentColor" stroke="currentColor" stroke-width="1.2" stroke-linecap="round" stroke-linejoin="round" />
  <path d="M11.60,97.70 C11.60,97.78 11.60,97.84 11.59,97.88" fill="currentColor" stroke="currentColor" stroke-width="1.2" stroke-linecap="round" stroke-linejoin="round" />
  <path d="M8.11,98.02 C8.04,97.97 8.00,97.87 8.00,97.73" fill="currentColor" stroke="currentColor" stroke-width="1.2" stroke-linecap="round" stroke-linejoin="round" />
  <path d="M11.59,97.88 C11.59,97.93 11.57,97.98 11.56,98.01" fill="currentColor" stroke="currentColor" stroke-width="1.2" stroke-linecap="round" stroke-linejoin="round" />
  <path d="M11.56,98.01 C11.54,98.04 11.52,98.07 11.50,98.08" fill="currentColor" stroke="currentColor" stroke-width="1.2" stroke-linecap="round" stroke-linejoin="round" />
  <path d="M8.34,98.11 C8.26,98.11 8.18,98.08 8.11,98.02" fill="currentColor" stroke="currentColor" stroke-width="1.2" stroke-linecap="round" stroke-linejoin="round" />
  <path d="M11.50,98.08 C11.48,98.10 11.45,98.11 11.42,98.11" fill="currentColor" stroke="currentColor" stroke-width="1.2" stroke-linecap="round" stroke-linejoin="round" />
  <line x1="11.42" y1="98.11" x2="8.34" y2="98.11" fill="currentColor" stroke="currentColor" stroke-width="1.2" stroke-linecap="round" stroke-linejoin="round" />
</svg>