<svg xmlns="http://www.w3.org/2000/svg" viewBox="0 0 171.87 89.94" preserveAspectRatio="xMidYMid meet" shape-rendering="geometricPrecision" text-rendering="optimizeLegibility">
  <path d="M87.95,8.02 C87.97,8.01 88.00,8.00 88.04,8.00" fill="currentColor" stroke="currentColor" stroke-width="1.2" stroke-linecap="round" stroke-linejoin="round" />
  <line x1="88.04" y1="8.00" x2="92.08" y2="8.00" fill="currentColor" stroke="currentColor" stroke-width="1.2" stroke-linecap="round" stroke-linejoin="round" />
  <path d="M92.08,8.00 C92.13,8.00 92.18,8.01 92.22,8.02" fill="currentColor" stroke="currentColor" stroke-width="1.2" stroke-linecap="round" stroke-linejoin="round" />
  <path d="M92.22,8.02 C92.25,8.03 92.28,8.05 92.30,8.08" fill="currentColor" stroke="currentColor" stroke-width="1.2" stroke-linecap="round" stroke-linejoin="round" />
  <path d="M87.88,8.10 C87.90,8.07 87.92,8.04 87.95,8.02" fill="currentColor" stroke="currentColor" stroke-width="1.2" stroke-linecap="round" stroke-linejoin="round" />
  <path d="M92.30,8.08 C92.32,8.11 92.34,8.15 92.35,8.20" fill="currentColor" stroke="currentColor" stroke-width="1.2" stroke-linecap="round" stroke-linejoin="round" />
  <path d="M87.84,8.23 C87.85,8.18 87.87,8.13 87.88,8.10" fill="currentColor" stroke="currentColor" stroke-width="1.2" stroke-linecap="round" stroke-linejoin="round" />
  <path d="M92.35,8.20 C92.36,8.25 92.36,8.32 92.36,8.40" fill="currentColor" stroke="currentColor" stroke-width="1.2" stroke-linecap="round" stroke-linejoin="round" />
  <path d="M87.83,8.40 C87.83,8.34 87.83,8.28 87.84,8.23" fill="currentColor" stroke="currentColor" stroke-width="1.2" stroke-linecap="round" stroke-linejoin="round" />
  <path d="M92.36,8.40 C92.36,8.46 92.36,8.52 92.36,8.57" fill="currentColor" stroke="currentColor" stroke-width="1.2" stroke-linecap="round" stroke-linejoin="round" />
  <path d="M87.88,8.70 C87.85,8.63 87.83,8.53 87.83,8.40" fill="currentColor" stroke="currentColor" stroke-width="1.2" stroke-linecap="round" stroke-linejoin="round" />
  <path d="M92.36,8.57 C92.35,8.62 92.34,8.67 92.33,8.72" fill="currentColor" stroke="currentColor" stroke-width="1.2" stroke-linecap="round" stroke-linejoin="round" />
  <path d="M88.04,8.81 C87.97,8.81 87.92,8.78 87.88,8.70" fill="currentColor" stroke="currentColor" stroke-width="1.2" stroke-linecap="round" stroke-linejoin="round" />
  <path d="M92.33,8.72 C92.32,8.77 92.31,8.82 92.30,8.86" fill="currentColor" stroke="currentColor" stroke-width="1.2" stroke-linecap="round" stroke-linejoin="round" />
  <line x1="88.74" y1="14.71" x2="91.37" y2="8.81" fill="currentColor" stroke="currentColor" stroke-width="1.2" stroke-linecap="round" stroke-linejoin="round" />
  <line x1="91.37" y1="8.81" x2="88.04" y2="8.81" fill="currentColor" stroke="currentColor" stroke-width="1.2" stroke-linecap="round" stroke-linejoin="round" />
  <path d="M92.30,8.86 C92.28,8.91 92.26,8.95 92.24,9.00" fill="currentColor" stroke="currentColor" stroke-width="1.2" stroke-linecap="round" stroke-linejoin="round" />
  <line x1="92.24" y1="9.00" x2="89.74" y2="14.77" fill="currentColor" stroke="currentColor" stroke-width="1.2" stroke-linecap="round" stroke-linejoin="round" />
  <polygon points="16.33,70.76 143.89,70.76 163.87,10.19 16.33,28.24" fill="none" stroke="currentColor" stroke-width="1.4000000476837158" stroke-linecap="round" stroke-linejoin="round" />
  <path d="M88.70,14.83 C88.70,14.80 88.72,14.76 88.74,14.71" fill="currentColor" stroke="currentColor" stroke-width="1.2" stroke-linecap="round" stroke-linejoin="round" />
  <path d="M89.74,14.77 C89.72,14.82 89.70,14.85 89.67,14.88" fill="currentColor" stroke="currentColor" stroke-width="1.2" stroke-linecap="round" stroke-linejoin="round" />
  <path d="M88.74,14.92 C88.71,14.89 88.70,14.86 88.70,14.83" fill="currentColor" stroke="currentColor" stroke-width="1.2" stroke-linecap="round" stroke-linejoin="round" />
  <path d="M89.67,14.88 C89.64,14.90 89.61,14.93 89.57,14.94" fill="currentColor" stroke="currentColor" stroke-width="1.2" stroke-linecap="round" stroke-linejoin="round" />
  <path d="M88.89,14.97 C88.82,14.96 88.77,14.94 88.74,14.92" fill="currentColor" stroke="currentColor" stroke-width="1.2" stroke-linecap="round" stroke-linejoin="round" />
  <path d="M89.57,14.94 C89.53,14.96 89.47,14.97 89.41,14.97" fill="currentColor" stroke="currentColor" stroke-width="1.2" stroke-linecap="round" stroke-linejoin="round" />
  <path d="M89.17,14.98 C89.05,14.98 88.96,14.98 88.89,14.97" fill="currentColor" stroke="currentColor" stroke-width="1.2" stroke-linecap="round" stroke-linejoin="round" />
  <path d="M89.41,14.97 C89.35,14.98 89.27,14.98 89.17,14.98" fill="currentColor" stroke="currentColor" stroke-width="1.2" stroke-linecap="round" stroke-linejoin="round" />
  <line x1="16.33" y1="28.24" x2="143.89" y2="70.76" fill="none" stroke="currentColor" stroke-width="1.4000000476837158" stroke-linecap="round" stroke-linejoin="round" />
  <path d="M9.42,47.62 C9.61,47.58 9.81,47.56 10.02,47.56" fill="currentColor" stroke="currentColor" stroke-width="1.2" stroke-linecap="round" stroke-linejoin="round" />
  <path d="M10.02,47.56 C10.36,47.56 10.66,47.60 10.91,47.70" fill="currentColor" stroke="currentColor" stroke-width="1.2" stroke-linecap="round" stroke-linejoin="round" />
  <path d="M8.89,47.78 C9.05,47.72 9.23,47.66 9.42,47.62" fill="currentColor" stroke="currentColor" stroke-width="1.2" stroke-linecap="round" stroke-linejoin="round" />
  <path d="M10.91,47.70 C11.16,47.79 11.37,47.92 11.54,48.09" fill="currentColor" stroke="currentColor" stroke-width="1.2" stroke-linecap="round" stroke-linejoin="round" />
  <path d="M8.50,47.97 C8.60,47.91 8.74,47.84 8.89,47.78" fill="currentColor" stroke="currentColor" stroke-width="1.2" stroke-linecap="round" stroke-linejoin="round" />
  <path d="M8.27,48.12 C8.32,48.09 8.39,48.03 8.50,47.97" fill="currentColor" stroke="currentColor" stroke-width="1.2" stroke-linecap="round" stroke-linejoin="round" />
  <path d="M11.54,48.09 C11.70,48.25 11.83,48.44 11.91,48.66" fill="currentColor" stroke="currentColor" stroke-width="1.2" stroke-linecap="round" stroke-linejoin="round" />
  <path d="M8.19,48.22 C8.20,48.19 8.23,48.16 8.27,48.12" fill="currentColor" stroke="currentColor" stroke-width="1.2" stroke-linecap="round" stroke-linejoin="round" />
  <path d="M8.15,48.30 C8.16,48.27 8.17,48.24 8.19,48.22" fill="currentColor" stroke="currentColor" stroke-width="1.2" stroke-linecap="round" stroke-linejoin="round" />
  <path d="M8.13,48.40 C8.14,48.36 8.14,48.33 8.15,48.30" fill="currentColor" stroke="currentColor" stroke-width="1.2" stroke-linecap="round" stroke-linejoin="round" />
  <path d="M10.35,48.46 C10.20,48.40 10.04,48.37 9.85,48.37" fill="currentColor" stroke="currentColor" stroke-width="1.2" stroke-linecap="round" stroke-linejoin="round" />
  <path d="M9.85,48.37 C9.63,48.37 9.44,48.40 9.26,48.46" fill="currentColor" stroke="currentColor" stroke-width="1.2" stroke-linecap="round" stroke-linejoin="round" />
  <path d="M8.13,48.54 C8.13,48.49 8.13,48.44 8.13,48.40" fill="currentColor" stroke="currentColor" stroke-width="1.2" stroke-linecap="round" stroke-linejoin="round" />
  <path d="M10.71,48.71 C10.61,48.61 10.49,48.53 10.35,48.46" fill="currentColor" stroke="currentColor" stroke-width="1.2" stroke-linecap="round" stroke-linejoin="round" />
  <path d="M9.26,48.46 C9.09,48.53 8.94,48.59 8.81,48.66" fill="currentColor" stroke="currentColor" stroke-width="1.2" stroke-linecap="round" stroke-linejoin="round" />
  <path d="M8.14,48.73 C8.13,48.68 8.13,48.61 8.13,48.54" fill="currentColor" stroke="currentColor" stroke-width="1.2" stroke-linecap="round" stroke-linejoin="round" />
  <path d="M8.81,48.66 C8.68,48.73 8.57,48.80 8.48,48.86" fill="currentColor" stroke="currentColor" stroke-width="1.2" stroke-linecap="round" stroke-linejoin="round" />
  <path d="M11.91,48.66 C11.99,48.88 12.03,49.11 12.03,49.36" fill="currentColor" stroke="currentColor" stroke-width="1.2" stroke-linecap="round" stroke-linejoin="round" />
  <path d="M10.92,49.07 C10.87,48.94 10.80,48.82 10.71,48.71" fill="currentColor" stroke="currentColor" stroke-width="1.2" stroke-linecap="round" stroke-linejoin="round" />
  <path d="M8.17,48.86 C8.16,48.83 8.15,48.79 8.14,48.73" fill="currentColor" stroke="currentColor" stroke-width="1.2" stroke-linecap="round" stroke-linejoin="round" />
  <path d="M8.48,48.86 C8.39,48.92 8.33,48.95 8.29,48.95" fill="currentColor" stroke="currentColor" stroke-width="1.2" stroke-linecap="round" stroke-linejoin="round" />
  <path d="M8.22,48.93 C8.20,48.92 8.18,48.89 8.17,48.86" fill="currentColor" stroke="currentColor" stroke-width="1.2" stroke-linecap="round" stroke-linejoin="round" />
  <path d="M8.29,48.95 C8.26,48.95 8.24,48.95 8.22,48.93" fill="currentColor" stroke="currentColor" stroke-width="1.2" stroke-linecap="round" stroke-linejoin="round" />
  <path d="M11.00,49.51 C11.00,49.36 10.97,49.21 10.92,49.07" fill="currentColor" stroke="currentColor" stroke-width="1.2" stroke-linecap="round" stroke-linejoin="round" />
  <path d="M12.03,49.36 C12.03,49.58 12.01,49.80 11.97,50.02" fill="currentColor" stroke="currentColor" stroke-width="1.2" stroke-linecap="round" stroke-linejoin="round" />
  <path d="M10.95,50.01 C10.98,49.83 11.00,49.67 11.00,49.51" fill="currentColor" stroke="currentColor" stroke-width="1.2" stroke-linecap="round" stroke-linejoin="round" />
  <path d="M10.75,50.59 C10.85,50.38 10.92,50.18 10.95,50.01" fill="currentColor" stroke="currentColor" stroke-width="1.2" stroke-linecap="round" stroke-linejoin="round" />
  <path d="M11.97,50.02 C11.93,50.24 11.85,50.48 11.72,50.74" fill="currentColor" stroke="currentColor" stroke-width="1.2" stroke-linecap="round" stroke-linejoin="round" />
  <path d="M10.31,51.31 C10.50,51.04 10.65,50.81 10.75,50.59" fill="currentColor" stroke="currentColor" stroke-width="1.2" stroke-linecap="round" stroke-linejoin="round" />
  <path d="M11.72,50.74 C11.60,50.99 11.41,51.28 11.17,51.59" fill="currentColor" stroke="currentColor" stroke-width="1.2" stroke-linecap="round" stroke-linejoin="round" />
  <path d="M9.56,52.19 C9.88,51.86 10.12,51.57 10.31,51.31" fill="currentColor" stroke="currentColor" stroke-width="1.2" stroke-linecap="round" stroke-linejoin="round" />
  <path d="M11.17,51.59 C10.93,51.91 10.62,52.27 10.22,52.68" fill="currentColor" stroke="currentColor" stroke-width="1.2" stroke-linecap="round" stroke-linejoin="round" />
  <line x1="8.21" y1="53.62" x2="9.56" y2="52.19" fill="currentColor" stroke="currentColor" stroke-width="1.2" stroke-linecap="round" stroke-linejoin="round" />
  <line x1="10.22" y1="52.68" x2="9.12" y2="53.82" fill="currentColor" stroke="currentColor" stroke-width="1.2" stroke-linecap="round" stroke-linejoin="round" />
  <path d="M8.11,53.75 C8.14,53.71 8.17,53.67 8.21,53.62" fill="currentColor" stroke="currentColor" stroke-width="1.2" stroke-linecap="round" stroke-linejoin="round" />
  <path d="M8.04,53.88 C8.06,53.83 8.08,53.79 8.11,53.75" fill="currentColor" stroke="currentColor" stroke-width="1.2" stroke-linecap="round" stroke-linejoin="round" />
  <line x1="9.12" y1="53.82" x2="12.14" y2="53.82" fill="currentColor" stroke="currentColor" stroke-width="1.2" stroke-linecap="round" stroke-linejoin="round" />
  <path d="M12.14,53.82 C12.17,53.82 12.20,53.83 12.22,53.85" fill="currentColor" stroke="currentColor" stroke-width="1.2" stroke-linecap="round" stroke-linejoin="round" />
  <path d="M12.22,53.85 C12.25,53.86 12.27,53.89 12.29,53.92" fill="currentColor" stroke="currentColor" stroke-width="1.2" stroke-linecap="round" stroke-linejoin="round" />
  <path d="M8.01,54.02 C8.01,53.96 8.02,53.92 8.04,53.88" fill="currentColor" stroke="currentColor" stroke-width="1.2" stroke-linecap="round" stroke-linejoin="round" />
  <path d="M12.29,53.92 C12.31,53.95 12.33,53.99 12.34,54.04" fill="currentColor" stroke="currentColor" stroke-width="1.2" stroke-linecap="round" stroke-linejoin="round" />
  <path d="M8.00,54.21 C8.00,54.13 8.00,54.07 8.01,54.02" fill="currentColor" stroke="currentColor" stroke-width="1.2" stroke-linecap="round" stroke-linejoin="round" />
  <path d="M12.34,54.04 C12.35,54.09 12.35,54.15 12.35,54.21" fill="currentColor" stroke="currentColor" stroke-width="1.2" stroke-linecap="round" stroke-linejoin="round" />
  <path d="M8.02,54.40 C8.01,54.35 8.00,54.28 8.00,54.21" fill="currentColor" stroke="currentColor" stroke-width="1.2" stroke-linecap="round" stroke-linejoin="round" />
  <path d="M12.35,54.21 C12.35,54.28 12.35,54.33 12.34,54.38" fill="currentColor" stroke="currentColor" stroke-width="1.2" stroke-linecap="round" stroke-linejoin="round" />
  <path d="M12.34,54.38 C12.33,54.43 12.32,54.48 12.30,54.51" fill="currentColor" stroke="currentColor" stroke-width="1.2" stroke-linecap="round" stroke-linejoin="round" />
  <path d="M8.08,54.53 C8.05,54.50 8.03,54.46 8.02,54.40" fill="currentColor" stroke="currentColor" stroke-width="1.2" stroke-linecap="round" stroke-linejoin="round" />
  <path d="M12.30,54.51 C12.28,54.54 12.26,54.57 12.24,54.58" fill="currentColor" stroke="currentColor" stroke-width="1.2" stroke-linecap="round" stroke-linejoin="round" />
  <path d="M8.18,54.59 C8.14,54.58 8.10,54.56 8.08,54.53" fill="currentColor" stroke="currentColor" stroke-width="1.2" stroke-linecap="round" stroke-linejoin="round" />
  <path d="M12.24,54.58 C12.21,54.60 12.18,54.61 12.15,54.61" fill="currentColor" stroke="currentColor" stroke-width="1.2" stroke-linecap="round" stroke-linejoin="round" />
  <path d="M8.31,54.61 C8.26,54.61 8.21,54.60 8.18,54.59" fill="currentColor" stroke="currentColor" stroke-width="1.2" stroke-linecap="round" stroke-linejoin="round" />
  <line x1="12.15" y1="54.61" x2="8.31" y2="54.61" fill="currentColor" stroke="currentColor" stroke-width="1.2" stroke-linecap="round" stroke-linejoin="round" />
  <rect x="16.33" y="64.73" width="6.20" height="6.03" fill="none" stroke="currentColor" stroke-width="1.000000011920929" stroke-linecap="round" stroke-linejoin="round" />
  <path d="M77.40,74.95 C77.69,74.84 78.04,74.79 78.43,74.79" fill="currentColor" stroke="currentColor" stroke-width="1.2" stroke-linecap="round" stroke-linejoin="round" />
  <path d="M78.43,74.79 C78.56,74.79 78.70,74.80 78.83,74.81" fill="currentColor" stroke="currentColor" stroke-width="1.2" stroke-linecap="round" stroke-linejoin="round" />
  <path d="M78.83,74.81 C78.97,74.83 79.10,74.85 79.21,74.88" fill="currentColor" stroke="currentColor" stroke-width="1.2" stroke-linecap="round" stroke-linejoin="round" />
  <path d="M79.21,74.88 C79.33,74.90 79.42,74.93 79.50,74.97" fill="currentColor" stroke="currentColor" stroke-width="1.2" stroke-linecap="round" stroke-linejoin="round" />
  <path d="M76.63,75.39 C76.84,75.20 77.10,75.06 77.40,74.95" fill="currentColor" stroke="currentColor" stroke-width="1.2" stroke-linecap="round" stroke-linejoin="round" />
  <path d="M79.50,74.97 C79.58,75.00 79.63,75.02 79.66,75.04" fill="currentColor" stroke="currentColor" stroke-width="1.2" stroke-linecap="round" stroke-linejoin="round" />
  <path d="M79.66,75.04 C79.68,75.06 79.70,75.08 79.71,75.11" fill="currentColor" stroke="currentColor" stroke-width="1.2" stroke-linecap="round" stroke-linejoin="round" />
  <path d="M79.71,75.11 C79.73,75.13 79.74,75.16 79.74,75.18" fill="currentColor" stroke="currentColor" stroke-width="1.2" stroke-linecap="round" stroke-linejoin="round" />
  <path d="M79.74,75.18 C79.75,75.21 79.75,75.24 79.76,75.27" fill="currentColor" stroke="currentColor" stroke-width="1.2" stroke-linecap="round" stroke-linejoin="round" />
  <path d="M79.76,75.27 C79.76,75.31 79.76,75.35 79.76,75.40" fill="currentColor" stroke="currentColor" stroke-width="1.2" stroke-linecap="round" stroke-linejoin="round" />
  <path d="M76.10,76.04 C76.24,75.79 76.42,75.57 76.63,75.39" fill="currentColor" stroke="currentColor" stroke-width="1.2" stroke-linecap="round" stroke-linejoin="round" />
  <path d="M79.76,75.40 C79.76,75.46 79.76,75.52 79.76,75.57" fill="currentColor" stroke="currentColor" stroke-width="1.2" stroke-linecap="round" stroke-linejoin="round" />
  <path d="M78.85,75.56 C78.72,75.54 78.56,75.52 78.37,75.52" fill="currentColor" stroke="currentColor" stroke-width="1.2" stroke-linecap="round" stroke-linejoin="round" />
  <path d="M78.37,75.52 C78.04,75.52 77.75,75.59 77.51,75.73" fill="currentColor" stroke="currentColor" stroke-width="1.2" stroke-linecap="round" stroke-linejoin="round" />
  <path d="M79.21,75.64 C79.11,75.61 78.99,75.59 78.85,75.56" fill="currentColor" stroke="currentColor" stroke-width="1.2" stroke-linecap="round" stroke-linejoin="round" />
  <path d="M79.76,75.57 C79.76,75.61 79.75,75.65 79.74,75.68" fill="currentColor" stroke="currentColor" stroke-width="1.2" stroke-linecap="round" stroke-linejoin="round" />
  <path d="M79.45,75.73 C79.38,75.70 79.30,75.67 79.21,75.64" fill="currentColor" stroke="currentColor" stroke-width="1.2" stroke-linecap="round" stroke-linejoin="round" />
  <path d="M79.74,75.68 C79.73,75.71 79.71,75.73 79.69,75.74" fill="currentColor" stroke="currentColor" stroke-width="1.2" stroke-linecap="round" stroke-linejoin="round" />
  <path d="M79.61,75.77 C79.57,75.77 79.52,75.75 79.45,75.73" fill="currentColor" stroke="currentColor" stroke-width="1.2" stroke-linecap="round" stroke-linejoin="round" />
  <path d="M77.51,75.73 C77.27,75.86 77.08,76.05 76.93,76.28" fill="currentColor" stroke="currentColor" stroke-width="1.2" stroke-linecap="round" stroke-linejoin="round" />
  <path d="M79.69,75.74 C79.67,75.76 79.65,75.77 79.61,75.77" fill="currentColor" stroke="currentColor" stroke-width="1.2" stroke-linecap="round" stroke-linejoin="round" />
  <path d="M75.76,76.83 C75.84,76.55 75.96,76.29 76.10,76.04" fill="currentColor" stroke="currentColor" stroke-width="1.2" stroke-linecap="round" stroke-linejoin="round" />
  <path d="M76.93,76.28 C76.77,76.50 76.66,76.77 76.59,77.07" fill="currentColor" stroke="currentColor" stroke-width="1.2" stroke-linecap="round" stroke-linejoin="round" />
  <path d="M75.59,77.72 C75.62,77.41 75.68,77.12 75.76,76.83" fill="currentColor" stroke="currentColor" stroke-width="1.2" stroke-linecap="round" stroke-linejoin="round" />
  <path d="M76.59,77.07 C76.51,77.38 76.47,77.69 76.46,78.02" fill="currentColor" stroke="currentColor" stroke-width="1.2" stroke-linecap="round" stroke-linejoin="round" />
  <path d="M77.59,77.61 C77.75,77.58 77.91,77.57 78.09,77.57" fill="currentColor" stroke="currentColor" stroke-width="1.2" stroke-linecap="round" stroke-linejoin="round" />
  <path d="M78.09,77.57 C78.46,77.57 78.78,77.62 79.04,77.72" fill="currentColor" stroke="currentColor" stroke-width="1.2" stroke-linecap="round" stroke-linejoin="round" />
  <path d="M77.16,77.72 C77.29,77.67 77.44,77.64 77.59,77.61" fill="currentColor" stroke="currentColor" stroke-width="1.2" stroke-linecap="round" stroke-linejoin="round" />
  <path d="M75.54,78.62 C75.54,78.32 75.56,78.02 75.59,77.72" fill="currentColor" stroke="currentColor" stroke-width="1.2" stroke-linecap="round" stroke-linejoin="round" />
  <path d="M76.77,77.86 C76.89,77.81 77.02,77.76 77.16,77.72" fill="currentColor" stroke="currentColor" stroke-width="1.2" stroke-linecap="round" stroke-linejoin="round" />
  <path d="M79.04,77.72 C79.30,77.83 79.50,77.97 79.66,78.15" fill="currentColor" stroke="currentColor" stroke-width="1.2" stroke-linecap="round" stroke-linejoin="round" />
  <path d="M76.46,78.02 C76.55,77.97 76.66,77.91 76.77,77.86" fill="currentColor" stroke="currentColor" stroke-width="1.2" stroke-linecap="round" stroke-linejoin="round" />
  <path d="M79.66,78.15 C79.82,78.33 79.94,78.54 80.01,78.79" fill="currentColor" stroke="currentColor" stroke-width="1.2" stroke-linecap="round" stroke-linejoin="round" />
  <path d="M78.52,78.40 C78.36,78.33 78.16,78.30 77.92,78.30" fill="currentColor" stroke="currentColor" stroke-width="1.2" stroke-linecap="round" stroke-linejoin="round" />
  <path d="M77.92,78.30 C77.79,78.30 77.66,78.31 77.52,78.34" fill="currentColor" stroke="currentColor" stroke-width="1.2" stroke-linecap="round" stroke-linejoin="round" />
  <path d="M77.52,78.34 C77.39,78.36 77.26,78.39 77.14,78.43" fill="currentColor" stroke="currentColor" stroke-width="1.2" stroke-linecap="round" stroke-linejoin="round" />
  <path d="M78.90,78.67 C78.81,78.55 78.68,78.46 78.52,78.40" fill="currentColor" stroke="currentColor" stroke-width="1.2" stroke-linecap="round" stroke-linejoin="round" />
  <path d="M77.14,78.43 C77.02,78.47 76.90,78.52 76.79,78.58" fill="currentColor" stroke="currentColor" stroke-width="1.2" stroke-linecap="round" stroke-linejoin="round" />
  <path d="M76.79,78.58 C76.67,78.63 76.57,78.69 76.48,78.76" fill="currentColor" stroke="currentColor" stroke-width="1.2" stroke-linecap="round" stroke-linejoin="round" />
  <path d="M75.59,79.56 C75.56,79.27 75.54,78.95 75.54,78.62" fill="currentColor" stroke="currentColor" stroke-width="1.2" stroke-linecap="round" stroke-linejoin="round" />
  <path d="M79.11,79.10 C79.07,78.93 79.00,78.79 78.90,78.67" fill="currentColor" stroke="currentColor" stroke-width="1.2" stroke-linecap="round" stroke-linejoin="round" />
  <path d="M76.48,78.76 C76.48,79.22 76.51,79.61 76.57,79.92" fill="currentColor" stroke="currentColor" stroke-width="1.2" stroke-linecap="round" stroke-linejoin="round" />
  <path d="M80.01,78.79 C80.07,79.03 80.11,79.30 80.11,79.58" fill="currentColor" stroke="currentColor" stroke-width="1.2" stroke-linecap="round" stroke-linejoin="round" />
  <path d="M79.17,79.67 C79.17,79.46 79.15,79.27 79.11,79.10" fill="currentColor" stroke="currentColor" stroke-width="1.2" stroke-linecap="round" stroke-linejoin="round" />
  <path d="M75.73,80.37 C75.66,80.13 75.61,79.86 75.59,79.56" fill="currentColor" stroke="currentColor" stroke-width="1.2" stroke-linecap="round" stroke-linejoin="round" />
  <path d="M80.11,79.58 C80.11,79.89 80.06,80.18 79.97,80.47" fill="currentColor" stroke="currentColor" stroke-width="1.2" stroke-linecap="round" stroke-linejoin="round" />
  <path d="M79.10,80.23 C79.15,80.05 79.17,79.86 79.17,79.67" fill="currentColor" stroke="currentColor" stroke-width="1.2" stroke-linecap="round" stroke-linejoin="round" />
  <path d="M76.57,79.92 C76.62,80.23 76.71,80.48 76.82,80.67" fill="currentColor" stroke="currentColor" stroke-width="1.2" stroke-linecap="round" stroke-linejoin="round" />
  <path d="M78.85,80.71 C78.96,80.57 79.04,80.41 79.10,80.23" fill="currentColor" stroke="currentColor" stroke-width="1.2" stroke-linecap="round" stroke-linejoin="round" />
  <path d="M75.99,81.03 C75.88,80.84 75.79,80.62 75.73,80.37" fill="currentColor" stroke="currentColor" stroke-width="1.2" stroke-linecap="round" stroke-linejoin="round" />
  <path d="M79.97,80.47 C79.87,80.75 79.73,81.00 79.54,81.22" fill="currentColor" stroke="currentColor" stroke-width="1.2" stroke-linecap="round" stroke-linejoin="round" />
  <path d="M76.82,80.67 C76.94,80.85 77.08,80.99 77.24,81.07" fill="currentColor" stroke="currentColor" stroke-width="1.2" stroke-linecap="round" stroke-linejoin="round" />
  <path d="M78.43,81.06 C78.60,80.98 78.74,80.86 78.85,80.71" fill="currentColor" stroke="currentColor" stroke-width="1.2" stroke-linecap="round" stroke-linejoin="round" />
  <path d="M76.40,81.52 C76.24,81.39 76.10,81.23 75.99,81.03" fill="currentColor" stroke="currentColor" stroke-width="1.2" stroke-linecap="round" stroke-linejoin="round" />
  <path d="M77.84,81.19 C78.06,81.19 78.26,81.15 78.43,81.06" fill="currentColor" stroke="currentColor" stroke-width="1.2" stroke-linecap="round" stroke-linejoin="round" />
  <path d="M77.24,81.07 C77.41,81.15 77.61,81.19 77.84,81.19" fill="currentColor" stroke="currentColor" stroke-width="1.2" stroke-linecap="round" stroke-linejoin="round" />
  <path d="M79.54,81.22 C79.34,81.44 79.10,81.61 78.80,81.74" fill="currentColor" stroke="currentColor" stroke-width="1.2" stroke-linecap="round" stroke-linejoin="round" />
  <path d="M76.98,81.83 C76.76,81.76 76.57,81.66 76.40,81.52" fill="currentColor" stroke="currentColor" stroke-width="1.2" stroke-linecap="round" stroke-linejoin="round" />
  <path d="M78.80,81.74 C78.51,81.87 78.15,81.94 77.75,81.94" fill="currentColor" stroke="currentColor" stroke-width="1.2" stroke-linecap="round" stroke-linejoin="round" />
  <path d="M77.75,81.94 C77.46,81.94 77.20,81.90 76.98,81.83" fill="currentColor" stroke="currentColor" stroke-width="1.2" stroke-linecap="round" stroke-linejoin="round" />
</svg>