<svg xmlns="http://www.w3.org/2000/svg" viewBox="0 0 251.50 123.72" preserveAspectRatio="xMidYMid meet" shape-rendering="geometricPrecision" text-rendering="optimizeLegibility">
  <polygon points="8.00,64.50 243.50,93.41 228.44,8.00 17.03,115.72" fill="none" stroke="currentColor" stroke-width="1.4000000476837158" stroke-linecap="round" stroke-linejoin="round" />
  <path d="M9.69,74.06 C13.99,73.30 17.13,69.81 17.64,65.69" fill="none" stroke="currentColor" stroke-width="1.0" stroke-linecap="round" stroke-linejoin="round" />
  <line x1="12.71" y1="69.18" x2="17.71" y2="73.93" fill="none" stroke="currentColor" stroke-width="1.0" stroke-linecap="round" stroke-linejoin="round" />
  <path d="M74.55,76.00 C74.27,76.00 74.02,76.07 73.80,76.20" fill="currentColor" stroke="currentColor" stroke-width="1.2" stroke-linecap="round" stroke-linejoin="round" />
  <path d="M75.30,76.20 C75.08,76.07 74.83,76.00 74.55,76.00" fill="currentColor" stroke="currentColor" stroke-width="1.2" stroke-linecap="round" stroke-linejoin="round" />
  <path d="M63.71,76.40 C63.44,76.40 63.18,76.43 62.95,76.48" fill="currentColor" stroke="currentColor" stroke-width="1.2" stroke-linecap="round" stroke-linejoin="round" />
  <path d="M73.80,76.20 C73.57,76.33 73.40,76.51 73.27,76.73" fill="currentColor" stroke="currentColor" stroke-width="1.2" stroke-linecap="round" stroke-linejoin="round" />
  <path d="M75.83,76.73 C75.70,76.51 75.53,76.33 75.30,76.20" fill="currentColor" stroke="currentColor" stroke-width="1.2" stroke-linecap="round" stroke-linejoin="round" />
  <path d="M64.88,76.65 C64.55,76.49 64.16,76.41 63.71,76.40" fill="currentColor" stroke="currentColor" stroke-width="1.2" stroke-linecap="round" stroke-linejoin="round" />
  <path d="M70.62,76.68 C70.33,76.50 70.00,76.41 69.63,76.40" fill="currentColor" stroke="currentColor" stroke-width="1.2" stroke-linecap="round" stroke-linejoin="round" />
  <path d="M69.63,76.40 C69.27,76.41 68.94,76.50 68.64,76.68" fill="currentColor" stroke="currentColor" stroke-width="1.2" stroke-linecap="round" stroke-linejoin="round" />
  <path d="M62.95,76.48 C62.72,76.53 62.50,76.61 62.27,76.72" fill="currentColor" stroke="currentColor" stroke-width="1.2" stroke-linecap="round" stroke-linejoin="round" />
  <path d="M74.55,76.58 C74.72,76.58 74.88,76.62 75.01,76.70" fill="currentColor" stroke="currentColor" stroke-width="1.2" stroke-linecap="round" stroke-linejoin="round" />
  <path d="M74.09,76.70 C74.23,76.62 74.38,76.58 74.55,76.58" fill="currentColor" stroke="currentColor" stroke-width="1.2" stroke-linecap="round" stroke-linejoin="round" />
  <path d="M75.01,76.70 C75.15,76.78 75.26,76.89 75.34,77.02" fill="currentColor" stroke="currentColor" stroke-width="1.2" stroke-linecap="round" stroke-linejoin="round" />
  <path d="M73.77,77.02 C73.85,76.89 73.96,76.78 74.09,76.70" fill="currentColor" stroke="currentColor" stroke-width="1.2" stroke-linecap="round" stroke-linejoin="round" />
  <path d="M65.65,77.33 C65.47,77.04 65.21,76.81 64.88,76.65" fill="currentColor" stroke="currentColor" stroke-width="1.2" stroke-linecap="round" stroke-linejoin="round" />
  <path d="M71.39,77.46 C71.17,77.12 70.92,76.86 70.62,76.68" fill="currentColor" stroke="currentColor" stroke-width="1.2" stroke-linecap="round" stroke-linejoin="round" />
  <path d="M68.64,76.68 C68.35,76.86 68.09,77.12 67.88,77.46" fill="currentColor" stroke="currentColor" stroke-width="1.2" stroke-linecap="round" stroke-linejoin="round" />
  <path d="M73.27,76.73 C73.14,76.95 73.07,77.20 73.07,77.48" fill="currentColor" stroke="currentColor" stroke-width="1.2" stroke-linecap="round" stroke-linejoin="round" />
  <path d="M76.04,77.48 C76.03,77.20 75.96,76.95 75.83,76.73" fill="currentColor" stroke="currentColor" stroke-width="1.2" stroke-linecap="round" stroke-linejoin="round" />
  <line x1="62.27" y1="76.72" x2="62.27" y2="77.75" fill="currentColor" stroke="currentColor" stroke-width="1.2" stroke-linecap="round" stroke-linejoin="round" />
  <path d="M75.34,77.02 C75.42,77.16 75.46,77.31 75.46,77.48" fill="currentColor" stroke="currentColor" stroke-width="1.2" stroke-linecap="round" stroke-linejoin="round" />
  <path d="M73.65,77.48 C73.65,77.31 73.69,77.16 73.77,77.02" fill="currentColor" stroke="currentColor" stroke-width="1.2" stroke-linecap="round" stroke-linejoin="round" />
  <path d="M63.15,77.46 C63.28,77.44 63.41,77.43 63.55,77.43" fill="currentColor" stroke="currentColor" stroke-width="1.2" stroke-linecap="round" stroke-linejoin="round" />
  <path d="M63.55,77.43 C63.82,77.43 64.04,77.48 64.24,77.56" fill="currentColor" stroke="currentColor" stroke-width="1.2" stroke-linecap="round" stroke-linejoin="round" />
  <path d="M62.74,77.56 C62.89,77.51 63.02,77.48 63.15,77.46" fill="currentColor" stroke="currentColor" stroke-width="1.2" stroke-linecap="round" stroke-linejoin="round" />
  <path d="M68.91,77.77 C69.11,77.54 69.35,77.43 69.63,77.43" fill="currentColor" stroke="currentColor" stroke-width="1.2" stroke-linecap="round" stroke-linejoin="round" />
  <path d="M69.63,77.43 C69.91,77.43 70.15,77.54 70.35,77.77" fill="currentColor" stroke="currentColor" stroke-width="1.2" stroke-linecap="round" stroke-linejoin="round" />
  <path d="M62.27,77.75 C62.44,77.67 62.60,77.61 62.74,77.56" fill="currentColor" stroke="currentColor" stroke-width="1.2" stroke-linecap="round" stroke-linejoin="round" />
  <path d="M75.46,77.48 C75.46,77.65 75.42,77.81 75.34,77.94" fill="currentColor" stroke="currentColor" stroke-width="1.2" stroke-linecap="round" stroke-linejoin="round" />
  <path d="M73.77,77.94 C73.69,77.81 73.65,77.65 73.65,77.48" fill="currentColor" stroke="currentColor" stroke-width="1.2" stroke-linecap="round" stroke-linejoin="round" />
  <path d="M64.24,77.56 C64.43,77.65 64.58,77.78 64.69,77.95" fill="currentColor" stroke="currentColor" stroke-width="1.2" stroke-linecap="round" stroke-linejoin="round" />
  <path d="M65.92,78.36 C65.92,77.96 65.83,77.62 65.65,77.33" fill="currentColor" stroke="currentColor" stroke-width="1.2" stroke-linecap="round" stroke-linejoin="round" />
  <path d="M73.07,77.48 C73.07,77.76 73.14,78.01 73.27,78.23" fill="currentColor" stroke="currentColor" stroke-width="1.2" stroke-linecap="round" stroke-linejoin="round" />
  <path d="M75.83,78.23 C75.96,78.01 76.03,77.76 76.04,77.48" fill="currentColor" stroke="currentColor" stroke-width="1.2" stroke-linecap="round" stroke-linejoin="round" />
  <path d="M71.88,78.68 C71.76,78.21 71.60,77.80 71.39,77.46" fill="currentColor" stroke="currentColor" stroke-width="1.2" stroke-linecap="round" stroke-linejoin="round" />
  <path d="M67.88,77.46 C67.67,77.80 67.50,78.21 67.39,78.68" fill="currentColor" stroke="currentColor" stroke-width="1.2" stroke-linecap="round" stroke-linejoin="round" />
  <path d="M75.34,77.94 C75.26,78.08 75.15,78.19 75.01,78.27" fill="currentColor" stroke="currentColor" stroke-width="1.2" stroke-linecap="round" stroke-linejoin="round" />
  <path d="M74.09,78.27 C73.96,78.19 73.85,78.08 73.77,77.94" fill="currentColor" stroke="currentColor" stroke-width="1.2" stroke-linecap="round" stroke-linejoin="round" />
  <path d="M80.87,83.22 C79.30,80.15 78.69,76.67 79.10,73.25" fill="none" stroke="currentColor" stroke-width="1.0" stroke-linecap="round" stroke-linejoin="round" />
  <path d="M64.69,77.95 C64.79,78.12 64.85,78.32 64.85,78.55" fill="currentColor" stroke="currentColor" stroke-width="1.2" stroke-linecap="round" stroke-linejoin="round" />
  <path d="M68.45,78.74 C68.56,78.32 68.71,78.00 68.91,77.77" fill="currentColor" stroke="currentColor" stroke-width="1.2" stroke-linecap="round" stroke-linejoin="round" />
  <path d="M70.35,77.77 C70.55,78.00 70.71,78.32 70.81,78.74" fill="currentColor" stroke="currentColor" stroke-width="1.2" stroke-linecap="round" stroke-linejoin="round" />
  <path d="M75.01,78.27 C74.88,78.35 74.72,78.39 74.55,78.39" fill="currentColor" stroke="currentColor" stroke-width="1.2" stroke-linecap="round" stroke-linejoin="round" />
  <path d="M74.55,78.39 C74.38,78.39 74.23,78.35 74.09,78.27" fill="currentColor" stroke="currentColor" stroke-width="1.2" stroke-linecap="round" stroke-linejoin="round" />
  <path d="M73.27,78.23 C73.40,78.46 73.57,78.63 73.80,78.76" fill="currentColor" stroke="currentColor" stroke-width="1.2" stroke-linecap="round" stroke-linejoin="round" />
  <path d="M75.30,78.76 C75.53,78.63 75.70,78.46 75.83,78.23" fill="currentColor" stroke="currentColor" stroke-width="1.2" stroke-linecap="round" stroke-linejoin="round" />
  <path d="M65.83,79.09 C65.89,78.88 65.92,78.64 65.92,78.36" fill="currentColor" stroke="currentColor" stroke-width="1.2" stroke-linecap="round" stroke-linejoin="round" />
  <path d="M73.80,78.76 C74.02,78.90 74.27,78.96 74.55,78.97" fill="currentColor" stroke="currentColor" stroke-width="1.2" stroke-linecap="round" stroke-linejoin="round" />
  <path d="M74.55,78.97 C74.83,78.96 75.08,78.90 75.30,78.76" fill="currentColor" stroke="currentColor" stroke-width="1.2" stroke-linecap="round" stroke-linejoin="round" />
  <path d="M64.85,78.55 C64.85,78.89 64.72,79.16 64.48,79.35" fill="currentColor" stroke="currentColor" stroke-width="1.2" stroke-linecap="round" stroke-linejoin="round" />
  <path d="M65.52,79.63 C65.66,79.47 65.76,79.29 65.83,79.09" fill="currentColor" stroke="currentColor" stroke-width="1.2" stroke-linecap="round" stroke-linejoin="round" />
  <path d="M72.05,80.25 C72.05,79.67 71.99,79.15 71.88,78.68" fill="currentColor" stroke="currentColor" stroke-width="1.2" stroke-linecap="round" stroke-linejoin="round" />
  <path d="M67.39,78.68 C67.27,79.15 67.21,79.67 67.21,80.25" fill="currentColor" stroke="currentColor" stroke-width="1.2" stroke-linecap="round" stroke-linejoin="round" />
  <path d="M64.48,79.35 C64.23,79.54 63.86,79.64 63.36,79.64" fill="currentColor" stroke="currentColor" stroke-width="1.2" stroke-linecap="round" stroke-linejoin="round" />
  <path d="M68.29,80.25 C68.29,79.67 68.35,79.16 68.45,78.74" fill="currentColor" stroke="currentColor" stroke-width="1.2" stroke-linecap="round" stroke-linejoin="round" />
  <path d="M70.81,78.74 C70.92,79.16 70.98,79.67 70.98,80.25" fill="currentColor" stroke="currentColor" stroke-width="1.2" stroke-linecap="round" stroke-linejoin="round" />
  <path d="M64.97,80.05 C65.19,79.92 65.38,79.78 65.52,79.63" fill="currentColor" stroke="currentColor" stroke-width="1.2" stroke-linecap="round" stroke-linejoin="round" />
  <line x1="63.36" y1="79.64" x2="63.36" y2="80.63" fill="currentColor" stroke="currentColor" stroke-width="1.2" stroke-linecap="round" stroke-linejoin="round" />
  <path d="M65.58,80.44 C65.42,80.26 65.22,80.13 64.97,80.05" fill="currentColor" stroke="currentColor" stroke-width="1.2" stroke-linecap="round" stroke-linejoin="round" />
  <path d="M63.36,80.63 C63.72,80.61 64.01,80.66 64.25,80.77" fill="currentColor" stroke="currentColor" stroke-width="1.2" stroke-linecap="round" stroke-linejoin="round" />
  <path d="M65.93,81.07 C65.86,80.83 65.74,80.62 65.58,80.44" fill="currentColor" stroke="currentColor" stroke-width="1.2" stroke-linecap="round" stroke-linejoin="round" />
  <path d="M64.25,80.77 C64.49,80.87 64.67,81.02 64.79,81.22" fill="currentColor" stroke="currentColor" stroke-width="1.2" stroke-linecap="round" stroke-linejoin="round" />
  <path d="M70.98,80.25 C70.98,80.84 70.92,81.35 70.81,81.77" fill="currentColor" stroke="currentColor" stroke-width="1.2" stroke-linecap="round" stroke-linejoin="round" />
  <path d="M68.45,81.77 C68.35,81.35 68.29,80.84 68.29,80.25" fill="currentColor" stroke="currentColor" stroke-width="1.2" stroke-linecap="round" stroke-linejoin="round" />
  <path d="M67.21,80.25 C67.21,80.83 67.27,81.36 67.39,81.83" fill="currentColor" stroke="currentColor" stroke-width="1.2" stroke-linecap="round" stroke-linejoin="round" />
  <path d="M71.88,81.83 C71.99,81.36 72.05,80.83 72.05,80.25" fill="currentColor" stroke="currentColor" stroke-width="1.2" stroke-linecap="round" stroke-linejoin="round" />
  <path d="M66.04,81.83 C66.04,81.57 66.01,81.32 65.93,81.07" fill="currentColor" stroke="currentColor" stroke-width="1.2" stroke-linecap="round" stroke-linejoin="round" />
  <path d="M64.79,81.22 C64.91,81.41 64.97,81.63 64.97,81.88" fill="currentColor" stroke="currentColor" stroke-width="1.2" stroke-linecap="round" stroke-linejoin="round" />
  <path d="M64.97,81.88 C64.97,82.13 64.92,82.34 64.82,82.52" fill="currentColor" stroke="currentColor" stroke-width="1.2" stroke-linecap="round" stroke-linejoin="round" />
  <path d="M70.81,81.77 C70.71,82.19 70.55,82.51 70.35,82.74" fill="currentColor" stroke="currentColor" stroke-width="1.2" stroke-linecap="round" stroke-linejoin="round" />
  <path d="M68.91,82.74 C68.71,82.51 68.56,82.19 68.45,81.77" fill="currentColor" stroke="currentColor" stroke-width="1.2" stroke-linecap="round" stroke-linejoin="round" />
  <path d="M65.74,83.01 C65.94,82.67 66.04,82.28 66.04,81.83" fill="currentColor" stroke="currentColor" stroke-width="1.2" stroke-linecap="round" stroke-linejoin="round" />
  <path d="M67.39,81.83 C67.50,82.30 67.67,82.71 67.88,83.05" fill="currentColor" stroke="currentColor" stroke-width="1.2" stroke-linecap="round" stroke-linejoin="round" />
  <path d="M71.39,83.05 C71.60,82.71 71.76,82.30 71.88,81.83" fill="currentColor" stroke="currentColor" stroke-width="1.2" stroke-linecap="round" stroke-linejoin="round" />
  <path d="M64.82,82.52 C64.72,82.69 64.58,82.83 64.40,82.93" fill="currentColor" stroke="currentColor" stroke-width="1.2" stroke-linecap="round" stroke-linejoin="round" />
  <path d="M62.93,82.94 C62.65,82.85 62.37,82.70 62.09,82.51" fill="currentColor" stroke="currentColor" stroke-width="1.2" stroke-linecap="round" stroke-linejoin="round" />
  <path d="M70.35,82.74 C70.15,82.96 69.91,83.08 69.63,83.08" fill="currentColor" stroke="currentColor" stroke-width="1.2" stroke-linecap="round" stroke-linejoin="round" />
  <path d="M69.63,83.08 C69.35,83.08 69.11,82.96 68.91,82.74" fill="currentColor" stroke="currentColor" stroke-width="1.2" stroke-linecap="round" stroke-linejoin="round" />
  <path d="M64.40,82.93 C64.22,83.03 64.00,83.08 63.76,83.08" fill="currentColor" stroke="currentColor" stroke-width="1.2" stroke-linecap="round" stroke-linejoin="round" />
  <path d="M63.76,83.08 C63.48,83.08 63.21,83.03 62.93,82.94" fill="currentColor" stroke="currentColor" stroke-width="1.2" stroke-linecap="round" stroke-linejoin="round" />
  <line x1="62.09" y1="82.51" x2="62.09" y2="83.67" fill="currentColor" stroke="currentColor" stroke-width="1.2" stroke-linecap="round" stroke-linejoin="round" />
  <path d="M64.91,83.81 C65.26,83.62 65.54,83.35 65.74,83.01" fill="currentColor" stroke="currentColor" stroke-width="1.2" stroke-linecap="round" stroke-linejoin="round" />
  <path d="M67.88,83.05 C68.09,83.38 68.35,83.64 68.64,83.83" fill="currentColor" stroke="currentColor" stroke-width="1.2" stroke-linecap="round" stroke-linejoin="round" />
  <path d="M70.62,83.83 C70.92,83.64 71.17,83.38 71.39,83.05" fill="currentColor" stroke="currentColor" stroke-width="1.2" stroke-linecap="round" stroke-linejoin="round" />
  <path d="M62.09,83.67 C62.36,83.81 62.62,83.92 62.89,83.99" fill="currentColor" stroke="currentColor" stroke-width="1.2" stroke-linecap="round" stroke-linejoin="round" />
  <path d="M63.68,84.10 C64.15,84.10 64.56,84.00 64.91,83.81" fill="currentColor" stroke="currentColor" stroke-width="1.2" stroke-linecap="round" stroke-linejoin="round" />
  <path d="M68.64,83.83 C68.94,84.01 69.27,84.10 69.63,84.10" fill="currentColor" stroke="currentColor" stroke-width="1.2" stroke-linecap="round" stroke-linejoin="round" />
  <path d="M69.63,84.10 C70.00,84.10 70.33,84.01 70.62,83.83" fill="currentColor" stroke="currentColor" stroke-width="1.2" stroke-linecap="round" stroke-linejoin="round" />
  <path d="M62.89,83.99 C63.16,84.07 63.42,84.10 63.68,84.10" fill="currentColor" stroke="currentColor" stroke-width="1.2" stroke-linecap="round" stroke-linejoin="round" />
  <line x1="19.88" y1="109.84" x2="22.96" y2="103.67" fill="none" stroke="currentColor" stroke-width="1.0" stroke-linecap="round" stroke-linejoin="round" />
  <path d="M15.35,106.15 C19.65,105.39 23.79,107.60 25.68,111.29" fill="none" stroke="currentColor" stroke-width="1.0" stroke-linecap="round" stroke-linejoin="round" />
</svg>