<svg xmlns="http://www.w3.org/2000/svg" viewBox="0 0 219.23 122.43" preserveAspectRatio="xMidYMid meet" shape-rendering="geometricPrecision" text-rendering="optimizeLegibility">
  <line x1="126.38" y1="8.00" x2="9.62" y2="91.48" fill="none" stroke="currentColor" stroke-width="1.4000000476837158" stroke-linecap="round" stroke-linejoin="round" />
  <line x1="46.34" y1="42.99" x2="43.00" y2="42.99" fill="currentColor" stroke="currentColor" stroke-width="1.2" stroke-linecap="round" stroke-linejoin="round" />
  <line x1="43.00" y1="42.99" x2="43.00" y2="46.90" fill="currentColor" stroke="currentColor" stroke-width="1.2" stroke-linecap="round" stroke-linejoin="round" />
  <line x1="46.34" y1="43.96" x2="46.34" y2="42.99" fill="currentColor" stroke="currentColor" stroke-width="1.2" stroke-linecap="round" stroke-linejoin="round" />
  <line x1="43.98" y1="45.84" x2="43.98" y2="43.96" fill="currentColor" stroke="currentColor" stroke-width="1.2" stroke-linecap="round" stroke-linejoin="round" />
  <line x1="43.98" y1="43.96" x2="46.34" y2="43.96" fill="currentColor" stroke="currentColor" stroke-width="1.2" stroke-linecap="round" stroke-linejoin="round" />
  <path d="M62.05,45.70 C61.80,45.54 61.51,45.46 61.18,45.46" fill="currentColor" stroke="currentColor" stroke-width="1.2" stroke-linecap="round" stroke-linejoin="round" />
  <path d="M61.18,45.46 C60.94,45.46 60.73,45.50 60.53,45.58" fill="currentColor" stroke="currentColor" stroke-width="1.2" stroke-linecap="round" stroke-linejoin="round" />
  <path d="M58.90,45.68 C58.65,45.53 58.37,45.46 58.05,45.46" fill="currentColor" stroke="currentColor" stroke-width="1.2" stroke-linecap="round" stroke-linejoin="round" />
  <path d="M58.05,45.46 C57.82,45.46 57.59,45.52 57.35,45.64" fill="currentColor" stroke="currentColor" stroke-width="1.2" stroke-linecap="round" stroke-linejoin="round" />
  <path d="M53.58,45.50 C53.43,45.47 53.25,45.46 53.06,45.46" fill="currentColor" stroke="currentColor" stroke-width="1.2" stroke-linecap="round" stroke-linejoin="round" />
  <path d="M53.06,45.46 C52.56,45.46 52.13,45.57 51.76,45.79" fill="currentColor" stroke="currentColor" stroke-width="1.2" stroke-linecap="round" stroke-linejoin="round" />
  <path d="M54.04,45.62 C53.89,45.57 53.74,45.53 53.58,45.50" fill="currentColor" stroke="currentColor" stroke-width="1.2" stroke-linecap="round" stroke-linejoin="round" />
  <line x1="55.63" y1="45.56" x2="55.63" y2="50.49" fill="currentColor" stroke="currentColor" stroke-width="1.2" stroke-linecap="round" stroke-linejoin="round" />
  <line x1="56.61" y1="46.20" x2="56.61" y2="45.56" fill="currentColor" stroke="currentColor" stroke-width="1.2" stroke-linecap="round" stroke-linejoin="round" />
  <line x1="56.61" y1="45.56" x2="55.63" y2="45.56" fill="currentColor" stroke="currentColor" stroke-width="1.2" stroke-linecap="round" stroke-linejoin="round" />
  <path d="M60.53,45.58 C60.34,45.66 60.16,45.77 59.99,45.90" fill="currentColor" stroke="currentColor" stroke-width="1.2" stroke-linecap="round" stroke-linejoin="round" />
  <path d="M54.49,45.80 C54.34,45.73 54.18,45.67 54.04,45.62" fill="currentColor" stroke="currentColor" stroke-width="1.2" stroke-linecap="round" stroke-linejoin="round" />
  <path d="M57.35,45.64 C57.11,45.76 56.87,45.95 56.61,46.20" fill="currentColor" stroke="currentColor" stroke-width="1.2" stroke-linecap="round" stroke-linejoin="round" />
  <path d="M59.53,46.35 C59.36,46.05 59.15,45.83 58.90,45.68" fill="currentColor" stroke="currentColor" stroke-width="1.2" stroke-linecap="round" stroke-linejoin="round" />
  <path d="M62.61,46.37 C62.48,46.08 62.29,45.86 62.05,45.70" fill="currentColor" stroke="currentColor" stroke-width="1.2" stroke-linecap="round" stroke-linejoin="round" />
  <path d="M51.76,45.79 C51.40,46.00 51.12,46.31 50.92,46.71" fill="currentColor" stroke="currentColor" stroke-width="1.2" stroke-linecap="round" stroke-linejoin="round" />
  <line x1="54.49" y1="46.84" x2="54.49" y2="45.80" fill="currentColor" stroke="currentColor" stroke-width="1.2" stroke-linecap="round" stroke-linejoin="round" />
  <path d="M45.12,45.97 C44.79,45.86 44.41,45.82 43.98,45.84" fill="currentColor" stroke="currentColor" stroke-width="1.2" stroke-linecap="round" stroke-linejoin="round" />
  <path d="M59.99,45.90 C59.82,46.04 59.67,46.18 59.53,46.35" fill="currentColor" stroke="currentColor" stroke-width="1.2" stroke-linecap="round" stroke-linejoin="round" />
  <path d="M45.98,46.46 C45.74,46.25 45.46,46.08 45.12,45.97" fill="currentColor" stroke="currentColor" stroke-width="1.2" stroke-linecap="round" stroke-linejoin="round" />
  <path d="M57.40,46.34 C57.53,46.30 57.68,46.28 57.85,46.28" fill="currentColor" stroke="currentColor" stroke-width="1.2" stroke-linecap="round" stroke-linejoin="round" />
  <path d="M60.28,46.45 C60.47,46.34 60.65,46.28 60.81,46.28" fill="currentColor" stroke="currentColor" stroke-width="1.2" stroke-linecap="round" stroke-linejoin="round" />
  <path d="M57.85,46.28 C58.01,46.28 58.16,46.32 58.29,46.40" fill="currentColor" stroke="currentColor" stroke-width="1.2" stroke-linecap="round" stroke-linejoin="round" />
  <path d="M60.81,46.28 C61.00,46.28 61.18,46.33 61.33,46.41" fill="currentColor" stroke="currentColor" stroke-width="1.2" stroke-linecap="round" stroke-linejoin="round" />
  <path d="M57.00,46.54 C57.13,46.44 57.26,46.38 57.40,46.34" fill="currentColor" stroke="currentColor" stroke-width="1.2" stroke-linecap="round" stroke-linejoin="round" />
  <path d="M53.13,46.36 C53.27,46.36 53.41,46.37 53.55,46.40" fill="currentColor" stroke="currentColor" stroke-width="1.2" stroke-linecap="round" stroke-linejoin="round" />
  <path d="M52.34,46.57 C52.57,46.43 52.83,46.36 53.13,46.36" fill="currentColor" stroke="currentColor" stroke-width="1.2" stroke-linecap="round" stroke-linejoin="round" />
  <path d="M62.82,47.39 C62.82,47.00 62.75,46.66 62.61,46.37" fill="currentColor" stroke="currentColor" stroke-width="1.2" stroke-linecap="round" stroke-linejoin="round" />
  <path d="M58.29,46.40 C58.42,46.48 58.53,46.60 58.61,46.77" fill="currentColor" stroke="currentColor" stroke-width="1.2" stroke-linecap="round" stroke-linejoin="round" />
  <path d="M53.55,46.40 C53.69,46.43 53.83,46.48 53.99,46.55" fill="currentColor" stroke="currentColor" stroke-width="1.2" stroke-linecap="round" stroke-linejoin="round" />
  <path d="M61.33,46.41 C61.48,46.50 61.61,46.63 61.70,46.80" fill="currentColor" stroke="currentColor" stroke-width="1.2" stroke-linecap="round" stroke-linejoin="round" />
  <path d="M59.72,46.91 C59.89,46.72 60.08,46.57 60.28,46.45" fill="currentColor" stroke="currentColor" stroke-width="1.2" stroke-linecap="round" stroke-linejoin="round" />
  <path d="M46.52,47.23 C46.40,46.93 46.22,46.68 45.98,46.46" fill="currentColor" stroke="currentColor" stroke-width="1.2" stroke-linecap="round" stroke-linejoin="round" />
  <path d="M56.61,46.91 C56.75,46.75 56.88,46.63 57.00,46.54" fill="currentColor" stroke="currentColor" stroke-width="1.2" stroke-linecap="round" stroke-linejoin="round" />
  <path d="M53.99,46.55 C54.14,46.62 54.31,46.72 54.49,46.84" fill="currentColor" stroke="currentColor" stroke-width="1.2" stroke-linecap="round" stroke-linejoin="round" />
  <path d="M51.81,47.15 C51.94,46.90 52.12,46.71 52.34,46.57" fill="currentColor" stroke="currentColor" stroke-width="1.2" stroke-linecap="round" stroke-linejoin="round" />
  <path d="M50.92,46.71 C50.72,47.10 50.62,47.57 50.62,48.12" fill="currentColor" stroke="currentColor" stroke-width="1.2" stroke-linecap="round" stroke-linejoin="round" />
  <path d="M43.00,46.90 C43.41,46.80 43.78,46.77 44.11,46.80" fill="currentColor" stroke="currentColor" stroke-width="1.2" stroke-linecap="round" stroke-linejoin="round" />
  <path d="M58.61,46.77 C58.69,46.94 58.73,47.16 58.74,47.43" fill="currentColor" stroke="currentColor" stroke-width="1.2" stroke-linecap="round" stroke-linejoin="round" />
  <path d="M44.11,46.80 C44.43,46.84 44.71,46.92 44.94,47.05" fill="currentColor" stroke="currentColor" stroke-width="1.2" stroke-linecap="round" stroke-linejoin="round" />
  <path d="M61.70,46.80 C61.79,46.98 61.84,47.19 61.84,47.44" fill="currentColor" stroke="currentColor" stroke-width="1.2" stroke-linecap="round" stroke-linejoin="round" />
  <line x1="56.61" y1="50.49" x2="56.61" y2="46.91" fill="currentColor" stroke="currentColor" stroke-width="1.2" stroke-linecap="round" stroke-linejoin="round" />
  <line x1="59.72" y1="50.49" x2="59.72" y2="46.91" fill="currentColor" stroke="currentColor" stroke-width="1.2" stroke-linecap="round" stroke-linejoin="round" />
  <path d="M44.94,47.05 C45.16,47.18 45.33,47.35 45.45,47.55" fill="currentColor" stroke="currentColor" stroke-width="1.2" stroke-linecap="round" stroke-linejoin="round" />
  <path d="M51.62,48.03 C51.62,47.69 51.69,47.40 51.81,47.15" fill="currentColor" stroke="currentColor" stroke-width="1.2" stroke-linecap="round" stroke-linejoin="round" />
  <path d="M46.71,48.20 C46.71,47.85 46.65,47.53 46.52,47.23" fill="currentColor" stroke="currentColor" stroke-width="1.2" stroke-linecap="round" stroke-linejoin="round" />
  <line x1="62.82" y1="50.49" x2="62.82" y2="47.39" fill="currentColor" stroke="currentColor" stroke-width="1.2" stroke-linecap="round" stroke-linejoin="round" />
  <line x1="58.74" y1="47.43" x2="58.74" y2="50.49" fill="currentColor" stroke="currentColor" stroke-width="1.2" stroke-linecap="round" stroke-linejoin="round" />
  <line x1="61.84" y1="47.44" x2="61.84" y2="50.49" fill="currentColor" stroke="currentColor" stroke-width="1.2" stroke-linecap="round" stroke-linejoin="round" />
  <path d="M45.45,47.55 C45.57,47.75 45.63,47.98 45.63,48.22" fill="currentColor" stroke="currentColor" stroke-width="1.2" stroke-linecap="round" stroke-linejoin="round" />
  <path d="M51.83,48.91 C51.69,48.67 51.62,48.37 51.62,48.03" fill="currentColor" stroke="currentColor" stroke-width="1.2" stroke-linecap="round" stroke-linejoin="round" />
  <path d="M50.62,48.12 C50.62,48.61 50.73,49.04 50.94,49.41" fill="currentColor" stroke="currentColor" stroke-width="1.2" stroke-linecap="round" stroke-linejoin="round" />
  <path d="M46.39,49.43 C46.60,49.07 46.71,48.66 46.71,48.20" fill="currentColor" stroke="currentColor" stroke-width="1.2" stroke-linecap="round" stroke-linejoin="round" />
  <path d="M45.63,48.22 C45.63,48.47 45.56,48.69 45.42,48.90" fill="currentColor" stroke="currentColor" stroke-width="1.2" stroke-linecap="round" stroke-linejoin="round" />
  <path d="M45.42,48.90 C45.28,49.10 45.09,49.26 44.86,49.38" fill="currentColor" stroke="currentColor" stroke-width="1.2" stroke-linecap="round" stroke-linejoin="round" />
  <path d="M52.41,49.47 C52.16,49.34 51.97,49.15 51.83,48.91" fill="currentColor" stroke="currentColor" stroke-width="1.2" stroke-linecap="round" stroke-linejoin="round" />
  <path d="M43.26,49.43 C42.98,49.34 42.71,49.20 42.44,49.02" fill="currentColor" stroke="currentColor" stroke-width="1.2" stroke-linecap="round" stroke-linejoin="round" />
  <line x1="42.44" y1="49.02" x2="42.44" y2="50.13" fill="currentColor" stroke="currentColor" stroke-width="1.2" stroke-linecap="round" stroke-linejoin="round" />
  <line x1="54.60" y1="50.31" x2="54.60" y2="49.34" fill="currentColor" stroke="currentColor" stroke-width="1.2" stroke-linecap="round" stroke-linejoin="round" />
  <path d="M54.60,49.34 C54.36,49.45 54.13,49.53 53.92,49.59" fill="currentColor" stroke="currentColor" stroke-width="1.2" stroke-linecap="round" stroke-linejoin="round" />
  <path d="M44.86,49.38 C44.62,49.51 44.37,49.57 44.08,49.57" fill="currentColor" stroke="currentColor" stroke-width="1.2" stroke-linecap="round" stroke-linejoin="round" />
  <path d="M50.94,49.41 C51.15,49.78 51.45,50.07 51.82,50.27" fill="currentColor" stroke="currentColor" stroke-width="1.2" stroke-linecap="round" stroke-linejoin="round" />
  <path d="M44.08,49.57 C43.80,49.57 43.53,49.52 43.26,49.43" fill="currentColor" stroke="currentColor" stroke-width="1.2" stroke-linecap="round" stroke-linejoin="round" />
  <path d="M45.52,50.28 C45.89,50.07 46.18,49.79 46.39,49.43" fill="currentColor" stroke="currentColor" stroke-width="1.2" stroke-linecap="round" stroke-linejoin="round" />
  <path d="M53.29,49.67 C52.95,49.67 52.66,49.60 52.41,49.47" fill="currentColor" stroke="currentColor" stroke-width="1.2" stroke-linecap="round" stroke-linejoin="round" />
  <path d="M53.92,49.59 C53.71,49.64 53.50,49.67 53.29,49.67" fill="currentColor" stroke="currentColor" stroke-width="1.2" stroke-linecap="round" stroke-linejoin="round" />
  <path d="M42.44,50.13 C42.65,50.24 42.86,50.33 43.05,50.40" fill="currentColor" stroke="currentColor" stroke-width="1.2" stroke-linecap="round" stroke-linejoin="round" />
  <path d="M51.82,50.27 C52.20,50.48 52.63,50.59 53.13,50.59" fill="currentColor" stroke="currentColor" stroke-width="1.2" stroke-linecap="round" stroke-linejoin="round" />
  <path d="M44.26,50.59 C44.73,50.59 45.16,50.49 45.52,50.28" fill="currentColor" stroke="currentColor" stroke-width="1.2" stroke-linecap="round" stroke-linejoin="round" />
  <path d="M54.19,50.45 C54.35,50.41 54.49,50.36 54.60,50.31" fill="currentColor" stroke="currentColor" stroke-width="1.2" stroke-linecap="round" stroke-linejoin="round" />
  <path d="M43.05,50.40 C43.25,50.47 43.45,50.52 43.64,50.55" fill="currentColor" stroke="currentColor" stroke-width="1.2" stroke-linecap="round" stroke-linejoin="round" />
  <path d="M53.67,50.55 C53.85,50.53 54.03,50.49 54.19,50.45" fill="currentColor" stroke="currentColor" stroke-width="1.2" stroke-linecap="round" stroke-linejoin="round" />
  <line x1="55.63" y1="50.49" x2="56.61" y2="50.49" fill="currentColor" stroke="currentColor" stroke-width="1.2" stroke-linecap="round" stroke-linejoin="round" />
  <line x1="58.74" y1="50.49" x2="59.72" y2="50.49" fill="currentColor" stroke="currentColor" stroke-width="1.2" stroke-linecap="round" stroke-linejoin="round" />
  <line x1="61.84" y1="50.49" x2="62.82" y2="50.49" fill="currentColor" stroke="currentColor" stroke-width="1.2" stroke-linecap="round" stroke-linejoin="round" />
  <path d="M43.64,50.55 C43.84,50.58 44.04,50.59 44.26,50.59" fill="currentColor" stroke="currentColor" stroke-width="1.2" stroke-linecap="round" stroke-linejoin="round" />
  <path d="M53.13,50.59 C53.30,50.59 53.48,50.58 53.67,50.55" fill="currentColor" stroke="currentColor" stroke-width="1.2" stroke-linecap="round" stroke-linejoin="round" />
  <rect x="116.86" y="81.81" width="9.48" height="9.48" fill="none" stroke="currentColor" stroke-width="1.0" stroke-linecap="round" stroke-linejoin="round" />
  <line x1="9.62" y1="91.48" x2="211.23" y2="91.48" fill="none" stroke="currentColor" stroke-width="1.4000000476837158" stroke-linecap="round" stroke-linejoin="round" />
  <line x1="8.00" y1="92.07" x2="8.00" y2="107.91" fill="none" stroke="currentColor" stroke-width="1.0" stroke-linecap="round" stroke-linejoin="round" />
  <line x1="13.52" y1="102.40" x2="14.15" y2="100.53" fill="currentColor" stroke="currentColor" stroke-width="1.2" stroke-linecap="round" stroke-linejoin="round" />
  <line x1="14.15" y1="100.53" x2="8.52" y2="102.40" fill="currentColor" stroke="currentColor" stroke-width="1.2" stroke-linecap="round" stroke-linejoin="round" />
  <line x1="120.29" y1="100.53" x2="120.92" y2="102.40" fill="currentColor" stroke="currentColor" stroke-width="1.2" stroke-linecap="round" stroke-linejoin="round" />
  <line x1="13.21" y1="102.40" x2="121.23" y2="102.40" fill="none" stroke="currentColor" stroke-width="1.0" stroke-linecap="round" stroke-linejoin="round" />
  <line x1="14.15" y1="104.28" x2="13.52" y2="102.40" fill="currentColor" stroke="currentColor" stroke-width="1.2" stroke-linecap="round" stroke-linejoin="round" />
  <line x1="8.52" y1="102.40" x2="14.15" y2="104.28" fill="currentColor" stroke="currentColor" stroke-width="1.2" stroke-linecap="round" stroke-linejoin="round" />
  <line x1="120.92" y1="102.40" x2="120.29" y2="104.28" fill="currentColor" stroke="currentColor" stroke-width="1.2" stroke-linecap="round" stroke-linejoin="round" />
  <line x1="60.43" y1="106.73" x2="59.97" y2="106.73" fill="currentColor" stroke="currentColor" stroke-width="1.2" stroke-linecap="round" stroke-linejoin="round" />
  <line x1="59.97" y1="106.73" x2="56.18" y2="111.37" fill="currentColor" stroke="currentColor" stroke-width="1.2" stroke-linecap="round" stroke-linejoin="round" />
  <line x1="60.43" y1="110.90" x2="60.43" y2="106.73" fill="currentColor" stroke="currentColor" stroke-width="1.2" stroke-linecap="round" stroke-linejoin="round" />
  <line x1="59.33" y1="108.76" x2="59.36" y2="108.76" fill="currentColor" stroke="currentColor" stroke-width="1.2" stroke-linecap="round" stroke-linejoin="round" />
  <line x1="59.36" y1="108.76" x2="59.36" y2="110.90" fill="currentColor" stroke="currentColor" stroke-width="1.2" stroke-linecap="round" stroke-linejoin="round" />
  <line x1="57.62" y1="110.90" x2="59.33" y2="108.76" fill="currentColor" stroke="currentColor" stroke-width="1.2" stroke-linecap="round" stroke-linejoin="round" />
  <path d="M76.49,109.53 C76.25,109.37 75.96,109.29 75.62,109.29" fill="currentColor" stroke="currentColor" stroke-width="1.2" stroke-linecap="round" stroke-linejoin="round" />
  <path d="M75.62,109.29 C75.39,109.29 75.17,109.33 74.98,109.42" fill="currentColor" stroke="currentColor" stroke-width="1.2" stroke-linecap="round" stroke-linejoin="round" />
  <path d="M73.35,109.52 C73.10,109.37 72.81,109.29 72.50,109.29" fill="currentColor" stroke="currentColor" stroke-width="1.2" stroke-linecap="round" stroke-linejoin="round" />
  <path d="M72.50,109.29 C72.27,109.29 72.03,109.35 71.79,109.48" fill="currentColor" stroke="currentColor" stroke-width="1.2" stroke-linecap="round" stroke-linejoin="round" />
  <path d="M68.02,109.33 C67.87,109.31 67.69,109.29 67.51,109.29" fill="currentColor" stroke="currentColor" stroke-width="1.2" stroke-linecap="round" stroke-linejoin="round" />
  <path d="M67.51,109.29 C67.00,109.29 66.57,109.40 66.21,109.62" fill="currentColor" stroke="currentColor" stroke-width="1.2" stroke-linecap="round" stroke-linejoin="round" />
  <path d="M68.48,109.45 C68.33,109.40 68.18,109.36 68.02,109.33" fill="currentColor" stroke="currentColor" stroke-width="1.2" stroke-linecap="round" stroke-linejoin="round" />
  <line x1="70.08" y1="109.39" x2="70.08" y2="114.33" fill="currentColor" stroke="currentColor" stroke-width="1.2" stroke-linecap="round" stroke-linejoin="round" />
  <line x1="71.06" y1="110.04" x2="71.06" y2="109.39" fill="currentColor" stroke="currentColor" stroke-width="1.2" stroke-linecap="round" stroke-linejoin="round" />
  <line x1="71.06" y1="109.39" x2="70.08" y2="109.39" fill="currentColor" stroke="currentColor" stroke-width="1.2" stroke-linecap="round" stroke-linejoin="round" />
  <path d="M74.98,109.42 C74.78,109.50 74.60,109.60 74.43,109.74" fill="currentColor" stroke="currentColor" stroke-width="1.2" stroke-linecap="round" stroke-linejoin="round" />
  <path d="M68.93,109.63 C68.78,109.56 68.63,109.50 68.48,109.45" fill="currentColor" stroke="currentColor" stroke-width="1.2" stroke-linecap="round" stroke-linejoin="round" />
  <path d="M71.79,109.48 C71.56,109.60 71.31,109.79 71.06,110.04" fill="currentColor" stroke="currentColor" stroke-width="1.2" stroke-linecap="round" stroke-linejoin="round" />
  <path d="M73.97,110.18 C73.81,109.89 73.60,109.67 73.35,109.52" fill="currentColor" stroke="currentColor" stroke-width="1.2" stroke-linecap="round" stroke-linejoin="round" />
  <path d="M77.06,110.21 C76.92,109.92 76.74,109.69 76.49,109.53" fill="currentColor" stroke="currentColor" stroke-width="1.2" stroke-linecap="round" stroke-linejoin="round" />
  <path d="M66.21,109.62 C65.84,109.84 65.56,110.14 65.36,110.54" fill="currentColor" stroke="currentColor" stroke-width="1.2" stroke-linecap="round" stroke-linejoin="round" />
  <line x1="68.93" y1="110.68" x2="68.93" y2="109.63" fill="currentColor" stroke="currentColor" stroke-width="1.2" stroke-linecap="round" stroke-linejoin="round" />
  <path d="M74.43,109.74 C74.27,109.87 74.11,110.02 73.97,110.18" fill="currentColor" stroke="currentColor" stroke-width="1.2" stroke-linecap="round" stroke-linejoin="round" />
  <path d="M71.84,110.17 C71.98,110.13 72.12,110.11 72.29,110.12" fill="currentColor" stroke="currentColor" stroke-width="1.2" stroke-linecap="round" stroke-linejoin="round" />
  <path d="M74.72,110.29 C74.92,110.17 75.10,110.11 75.26,110.12" fill="currentColor" stroke="currentColor" stroke-width="1.2" stroke-linecap="round" stroke-linejoin="round" />
  <path d="M72.29,110.12 C72.45,110.12 72.60,110.15 72.74,110.23" fill="currentColor" stroke="currentColor" stroke-width="1.2" stroke-linecap="round" stroke-linejoin="round" />
  <path d="M75.26,110.12 C75.45,110.12 75.62,110.16 75.77,110.25" fill="currentColor" stroke="currentColor" stroke-width="1.2" stroke-linecap="round" stroke-linejoin="round" />
  <path d="M71.45,110.37 C71.57,110.28 71.70,110.21 71.84,110.17" fill="currentColor" stroke="currentColor" stroke-width="1.2" stroke-linecap="round" stroke-linejoin="round" />
  <path d="M67.57,110.19 C67.71,110.19 67.85,110.21 67.99,110.24" fill="currentColor" stroke="currentColor" stroke-width="1.2" stroke-linecap="round" stroke-linejoin="round" />
  <path d="M66.79,110.40 C67.01,110.27 67.27,110.20 67.57,110.19" fill="currentColor" stroke="currentColor" stroke-width="1.2" stroke-linecap="round" stroke-linejoin="round" />
  <path d="M77.26,111.23 C77.26,110.84 77.19,110.50 77.06,110.21" fill="currentColor" stroke="currentColor" stroke-width="1.2" stroke-linecap="round" stroke-linejoin="round" />
  <path d="M72.74,110.23 C72.87,110.31 72.98,110.44 73.06,110.61" fill="currentColor" stroke="currentColor" stroke-width="1.2" stroke-linecap="round" stroke-linejoin="round" />
  <path d="M67.99,110.24 C68.13,110.27 68.27,110.32 68.43,110.39" fill="currentColor" stroke="currentColor" stroke-width="1.2" stroke-linecap="round" stroke-linejoin="round" />
  <path d="M75.77,110.25 C75.93,110.34 76.05,110.47 76.14,110.64" fill="currentColor" stroke="currentColor" stroke-width="1.2" stroke-linecap="round" stroke-linejoin="round" />
  <path d="M74.16,110.74 C74.34,110.56 74.53,110.41 74.72,110.29" fill="currentColor" stroke="currentColor" stroke-width="1.2" stroke-linecap="round" stroke-linejoin="round" />
  <path d="M71.06,110.74 C71.19,110.59 71.32,110.46 71.45,110.37" fill="currentColor" stroke="currentColor" stroke-width="1.2" stroke-linecap="round" stroke-linejoin="round" />
  <path d="M68.43,110.39 C68.58,110.46 68.75,110.55 68.93,110.68" fill="currentColor" stroke="currentColor" stroke-width="1.2" stroke-linecap="round" stroke-linejoin="round" />
  <path d="M66.26,110.99 C66.38,110.74 66.56,110.54 66.79,110.40" fill="currentColor" stroke="currentColor" stroke-width="1.2" stroke-linecap="round" stroke-linejoin="round" />
  <path d="M65.36,110.54 C65.17,110.94 65.07,111.41 65.06,111.95" fill="currentColor" stroke="currentColor" stroke-width="1.2" stroke-linecap="round" stroke-linejoin="round" />
  <path d="M73.06,110.61 C73.14,110.78 73.18,110.99 73.18,111.26" fill="currentColor" stroke="currentColor" stroke-width="1.2" stroke-linecap="round" stroke-linejoin="round" />
  <path d="M76.14,110.64 C76.23,110.81 76.28,111.02 76.28,111.27" fill="currentColor" stroke="currentColor" stroke-width="1.2" stroke-linecap="round" stroke-linejoin="round" />
  <line x1="71.06" y1="114.33" x2="71.06" y2="110.74" fill="currentColor" stroke="currentColor" stroke-width="1.2" stroke-linecap="round" stroke-linejoin="round" />
  <line x1="74.16" y1="114.33" x2="74.16" y2="110.74" fill="currentColor" stroke="currentColor" stroke-width="1.2" stroke-linecap="round" stroke-linejoin="round" />
  <line x1="61.24" y1="111.86" x2="61.24" y2="110.90" fill="currentColor" stroke="currentColor" stroke-width="1.2" stroke-linecap="round" stroke-linejoin="round" />
  <line x1="61.24" y1="110.90" x2="60.43" y2="110.90" fill="currentColor" stroke="currentColor" stroke-width="1.2" stroke-linecap="round" stroke-linejoin="round" />
  <line x1="59.36" y1="110.90" x2="57.62" y2="110.90" fill="currentColor" stroke="currentColor" stroke-width="1.2" stroke-linecap="round" stroke-linejoin="round" />
  <path d="M66.06,111.87 C66.07,111.53 66.13,111.24 66.26,110.99" fill="currentColor" stroke="currentColor" stroke-width="1.2" stroke-linecap="round" stroke-linejoin="round" />
  <line x1="77.26" y1="114.33" x2="77.26" y2="111.23" fill="currentColor" stroke="currentColor" stroke-width="1.2" stroke-linecap="round" stroke-linejoin="round" />
  <line x1="73.18" y1="111.26" x2="73.18" y2="114.33" fill="currentColor" stroke="currentColor" stroke-width="1.2" stroke-linecap="round" stroke-linejoin="round" />
  <line x1="76.28" y1="111.27" x2="76.28" y2="114.33" fill="currentColor" stroke="currentColor" stroke-width="1.2" stroke-linecap="round" stroke-linejoin="round" />
  <line x1="56.18" y1="111.37" x2="56.18" y2="111.86" fill="currentColor" stroke="currentColor" stroke-width="1.2" stroke-linecap="round" stroke-linejoin="round" />
  <line x1="56.18" y1="111.86" x2="59.36" y2="111.86" fill="currentColor" stroke="currentColor" stroke-width="1.2" stroke-linecap="round" stroke-linejoin="round" />
  <line x1="59.36" y1="111.86" x2="59.36" y2="114.33" fill="currentColor" stroke="currentColor" stroke-width="1.2" stroke-linecap="round" stroke-linejoin="round" />
  <line x1="60.43" y1="114.33" x2="60.43" y2="111.86" fill="currentColor" stroke="currentColor" stroke-width="1.2" stroke-linecap="round" stroke-linejoin="round" />
  <line x1="60.43" y1="111.86" x2="61.24" y2="111.86" fill="currentColor" stroke="currentColor" stroke-width="1.2" stroke-linecap="round" stroke-linejoin="round" />
  <path d="M66.27,112.75 C66.14,112.50 66.07,112.21 66.06,111.87" fill="currentColor" stroke="currentColor" stroke-width="1.2" stroke-linecap="round" stroke-linejoin="round" />
  <path d="M65.06,111.95 C65.07,112.44 65.18,112.87 65.39,113.24" fill="currentColor" stroke="currentColor" stroke-width="1.2" stroke-linecap="round" stroke-linejoin="round" />
  <path d="M66.85,113.31 C66.60,113.18 66.41,112.99 66.27,112.75" fill="currentColor" stroke="currentColor" stroke-width="1.2" stroke-linecap="round" stroke-linejoin="round" />
  <line x1="69.04" y1="114.14" x2="69.04" y2="113.18" fill="currentColor" stroke="currentColor" stroke-width="1.2" stroke-linecap="round" stroke-linejoin="round" />
  <path d="M69.04,113.18 C68.80,113.29 68.57,113.37 68.36,113.42" fill="currentColor" stroke="currentColor" stroke-width="1.2" stroke-linecap="round" stroke-linejoin="round" />
  <path d="M65.39,113.24 C65.60,113.61 65.89,113.90 66.27,114.11" fill="currentColor" stroke="currentColor" stroke-width="1.2" stroke-linecap="round" stroke-linejoin="round" />
  <path d="M67.74,113.51 C67.40,113.51 67.10,113.44 66.85,113.31" fill="currentColor" stroke="currentColor" stroke-width="1.2" stroke-linecap="round" stroke-linejoin="round" />
  <path d="M68.36,113.42 C68.15,113.48 67.94,113.51 67.74,113.51" fill="currentColor" stroke="currentColor" stroke-width="1.2" stroke-linecap="round" stroke-linejoin="round" />
  <path d="M66.27,114.11 C66.64,114.32 67.08,114.42 67.57,114.43" fill="currentColor" stroke="currentColor" stroke-width="1.2" stroke-linecap="round" stroke-linejoin="round" />
  <path d="M68.63,114.29 C68.79,114.24 68.93,114.20 69.04,114.14" fill="currentColor" stroke="currentColor" stroke-width="1.2" stroke-linecap="round" stroke-linejoin="round" />
  <path d="M68.11,114.39 C68.29,114.36 68.47,114.33 68.63,114.29" fill="currentColor" stroke="currentColor" stroke-width="1.2" stroke-linecap="round" stroke-linejoin="round" />
  <line x1="70.08" y1="114.33" x2="71.06" y2="114.33" fill="currentColor" stroke="currentColor" stroke-width="1.2" stroke-linecap="round" stroke-linejoin="round" />
  <line x1="73.18" y1="114.33" x2="74.16" y2="114.33" fill="currentColor" stroke="currentColor" stroke-width="1.2" stroke-linecap="round" stroke-linejoin="round" />
  <line x1="76.28" y1="114.33" x2="77.26" y2="114.33" fill="currentColor" stroke="currentColor" stroke-width="1.2" stroke-linecap="round" stroke-linejoin="round" />
  <line x1="59.36" y1="114.33" x2="60.43" y2="114.33" fill="currentColor" stroke="currentColor" stroke-width="1.2" stroke-linecap="round" stroke-linejoin="round" />
  <path d="M67.57,114.43 C67.75,114.43 67.93,114.41 68.11,114.39" fill="currentColor" stroke="currentColor" stroke-width="1.2" stroke-linecap="round" stroke-linejoin="round" />
</svg>