<svg xmlns="http://www.w3.org/2000/svg" viewBox="0 0 192.70 201.27" preserveAspectRatio="xMidYMid meet" shape-rendering="geometricPrecision" text-rendering="optimizeLegibility">
  <line x1="95.54" y1="17.72" x2="92.30" y2="8.00" fill="currentColor" stroke="currentColor" stroke-width="1.2" stroke-linecap="round" stroke-linejoin="round" />
  <line x1="92.30" y1="8.00" x2="89.06" y2="17.72" fill="currentColor" stroke="currentColor" stroke-width="1.2" stroke-linecap="round" stroke-linejoin="round" />
  <path d="M80.95,12.88 C81.00,12.88 81.06,12.88 81.13,12.88" fill="currentColor" stroke="currentColor" stroke-width="1.2" stroke-linecap="round" stroke-linejoin="round" />
  <path d="M81.13,12.88 C81.21,12.88 81.28,12.88 81.32,12.88" fill="currentColor" stroke="currentColor" stroke-width="1.2" stroke-linecap="round" stroke-linejoin="round" />
  <path d="M83.82,12.88 C83.87,12.88 83.94,12.88 84.02,12.88" fill="currentColor" stroke="currentColor" stroke-width="1.2" stroke-linecap="round" stroke-linejoin="round" />
  <path d="M84.02,12.88 C84.15,12.88 84.24,12.89 84.28,12.91" fill="currentColor" stroke="currentColor" stroke-width="1.2" stroke-linecap="round" stroke-linejoin="round" />
  <path d="M81.32,12.88 C81.37,12.89 81.40,12.90 81.43,12.91" fill="currentColor" stroke="currentColor" stroke-width="1.2" stroke-linecap="round" stroke-linejoin="round" />
  <path d="M83.69,12.91 C83.72,12.90 83.76,12.89 83.82,12.88" fill="currentColor" stroke="currentColor" stroke-width="1.2" stroke-linecap="round" stroke-linejoin="round" />
  <path d="M80.84,12.91 C80.86,12.90 80.90,12.89 80.95,12.88" fill="currentColor" stroke="currentColor" stroke-width="1.2" stroke-linecap="round" stroke-linejoin="round" />
  <path d="M83.62,12.96 C83.63,12.94 83.66,12.92 83.69,12.91" fill="currentColor" stroke="currentColor" stroke-width="1.2" stroke-linecap="round" stroke-linejoin="round" />
  <path d="M81.43,12.91 C81.46,12.92 81.47,12.94 81.48,12.96" fill="currentColor" stroke="currentColor" stroke-width="1.2" stroke-linecap="round" stroke-linejoin="round" />
  <path d="M80.78,12.97 C80.79,12.95 80.81,12.93 80.84,12.91" fill="currentColor" stroke="currentColor" stroke-width="1.2" stroke-linecap="round" stroke-linejoin="round" />
  <path d="M84.28,12.91 C84.33,12.93 84.35,12.96 84.35,12.99" fill="currentColor" stroke="currentColor" stroke-width="1.2" stroke-linecap="round" stroke-linejoin="round" />
  <path d="M83.58,13.02 C83.59,13.00 83.60,12.98 83.62,12.96" fill="currentColor" stroke="currentColor" stroke-width="1.2" stroke-linecap="round" stroke-linejoin="round" />
  <path d="M81.48,12.96 C81.49,12.98 81.50,13.01 81.50,13.04" fill="currentColor" stroke="currentColor" stroke-width="1.2" stroke-linecap="round" stroke-linejoin="round" />
  <path d="M80.76,13.06 C80.76,13.03 80.76,13.00 80.78,12.97" fill="currentColor" stroke="currentColor" stroke-width="1.2" stroke-linecap="round" stroke-linejoin="round" />
  <path d="M84.35,12.99 C84.35,13.03 84.35,13.07 84.34,13.10" fill="currentColor" stroke="currentColor" stroke-width="1.2" stroke-linecap="round" stroke-linejoin="round" />
  <path d="M80.76,13.15 C80.76,13.11 80.76,13.09 80.76,13.06" fill="currentColor" stroke="currentColor" stroke-width="1.2" stroke-linecap="round" stroke-linejoin="round" />
  <path d="M84.34,13.10 C84.34,13.14 84.33,13.18 84.31,13.21" fill="currentColor" stroke="currentColor" stroke-width="1.2" stroke-linecap="round" stroke-linejoin="round" />
  <path d="M80.78,13.25 C80.77,13.21 80.77,13.18 80.76,13.15" fill="currentColor" stroke="currentColor" stroke-width="1.2" stroke-linecap="round" stroke-linejoin="round" />
  <path d="M83.29,13.96 C83.39,13.65 83.49,13.34 83.58,13.02" fill="currentColor" stroke="currentColor" stroke-width="1.2" stroke-linecap="round" stroke-linejoin="round" />
  <path d="M84.31,13.21 C84.21,13.51 84.11,13.81 83.99,14.13" fill="currentColor" stroke="currentColor" stroke-width="1.2" stroke-linecap="round" stroke-linejoin="round" />
  <path d="M82.94,14.87 C83.07,14.57 83.18,14.27 83.29,13.96" fill="currentColor" stroke="currentColor" stroke-width="1.2" stroke-linecap="round" stroke-linejoin="round" />
  <path d="M83.99,14.13 C83.87,14.46 83.74,14.79 83.58,15.14" fill="currentColor" stroke="currentColor" stroke-width="1.2" stroke-linecap="round" stroke-linejoin="round" />
  <line x1="81.50" y1="13.04" x2="82.02" y2="16.63" fill="currentColor" stroke="currentColor" stroke-width="1.2" stroke-linecap="round" stroke-linejoin="round" />
  <path d="M82.53,15.76 C82.68,15.47 82.82,15.17 82.94,14.87" fill="currentColor" stroke="currentColor" stroke-width="1.2" stroke-linecap="round" stroke-linejoin="round" />
  <line x1="81.44" y1="17.55" x2="80.78" y2="13.25" fill="currentColor" stroke="currentColor" stroke-width="1.2" stroke-linecap="round" stroke-linejoin="round" />
  <path d="M83.58,15.14 C83.43,15.49 83.25,15.86 83.04,16.24" fill="currentColor" stroke="currentColor" stroke-width="1.2" stroke-linecap="round" stroke-linejoin="round" />
  <path d="M82.03,16.63 C82.22,16.34 82.38,16.06 82.53,15.76" fill="currentColor" stroke="currentColor" stroke-width="1.2" stroke-linecap="round" stroke-linejoin="round" />
  <line x1="82.02" y1="16.63" x2="82.03" y2="16.63" fill="currentColor" stroke="currentColor" stroke-width="1.2" stroke-linecap="round" stroke-linejoin="round" />
  <path d="M83.04,16.24 C82.84,16.62 82.59,17.02 82.31,17.44" fill="currentColor" stroke="currentColor" stroke-width="1.2" stroke-linecap="round" stroke-linejoin="round" />
  <line x1="89.06" y1="17.72" x2="92.30" y2="16.64" fill="currentColor" stroke="currentColor" stroke-width="1.2" stroke-linecap="round" stroke-linejoin="round" />
  <line x1="92.30" y1="16.64" x2="95.54" y2="17.72" fill="currentColor" stroke="currentColor" stroke-width="1.2" stroke-linecap="round" stroke-linejoin="round" />
  <line x1="82.31" y1="17.44" x2="81.15" y2="19.16" fill="currentColor" stroke="currentColor" stroke-width="1.2" stroke-linecap="round" stroke-linejoin="round" />
  <line x1="80.35" y1="19.07" x2="81.44" y2="17.55" fill="currentColor" stroke="currentColor" stroke-width="1.2" stroke-linecap="round" stroke-linejoin="round" />
  <path d="M80.30,19.19 C80.30,19.16 80.32,19.12 80.35,19.07" fill="currentColor" stroke="currentColor" stroke-width="1.2" stroke-linecap="round" stroke-linejoin="round" />
  <path d="M81.15,19.16 C81.13,19.19 81.11,19.21 81.08,19.23" fill="currentColor" stroke="currentColor" stroke-width="1.2" stroke-linecap="round" stroke-linejoin="round" />
  <path d="M80.34,19.27 C80.31,19.25 80.30,19.22 80.30,19.19" fill="currentColor" stroke="currentColor" stroke-width="1.2" stroke-linecap="round" stroke-linejoin="round" />
  <path d="M81.08,19.23 C81.06,19.25 81.03,19.27 80.99,19.28" fill="currentColor" stroke="currentColor" stroke-width="1.2" stroke-linecap="round" stroke-linejoin="round" />
  <path d="M80.45,19.31 C80.40,19.30 80.36,19.29 80.34,19.27" fill="currentColor" stroke="currentColor" stroke-width="1.2" stroke-linecap="round" stroke-linejoin="round" />
  <path d="M80.99,19.28 C80.95,19.30 80.90,19.31 80.85,19.31" fill="currentColor" stroke="currentColor" stroke-width="1.2" stroke-linecap="round" stroke-linejoin="round" />
  <path d="M80.65,19.32 C80.57,19.32 80.51,19.32 80.45,19.31" fill="currentColor" stroke="currentColor" stroke-width="1.2" stroke-linecap="round" stroke-linejoin="round" />
  <path d="M80.85,19.31 C80.79,19.32 80.73,19.32 80.65,19.32" fill="currentColor" stroke="currentColor" stroke-width="1.2" stroke-linecap="round" stroke-linejoin="round" />
  <line x1="10.42" y1="28.60" x2="174.19" y2="28.60" fill="none" stroke="currentColor" stroke-width="1.0" stroke-linecap="round" stroke-linejoin="round" />
  <line x1="10.42" y1="39.81" x2="174.19" y2="39.81" fill="none" stroke="currentColor" stroke-width="1.0" stroke-linecap="round" stroke-linejoin="round" />
  <line x1="10.42" y1="51.03" x2="174.19" y2="51.03" fill="none" stroke="currentColor" stroke-width="1.0" stroke-linecap="round" stroke-linejoin="round" />
  <line x1="10.42" y1="62.25" x2="174.19" y2="62.25" fill="none" stroke="currentColor" stroke-width="1.0" stroke-linecap="round" stroke-linejoin="round" />
  <line x1="10.42" y1="73.47" x2="174.19" y2="73.47" fill="none" stroke="currentColor" stroke-width="1.0" stroke-linecap="round" stroke-linejoin="round" />
  <line x1="10.42" y1="84.69" x2="174.19" y2="84.69" fill="none" stroke="currentColor" stroke-width="1.0" stroke-linecap="round" stroke-linejoin="round" />
  <line x1="10.42" y1="95.91" x2="174.19" y2="95.91" fill="none" stroke="currentColor" stroke-width="1.0" stroke-linecap="round" stroke-linejoin="round" />
  <line x1="92.30" y1="193.27" x2="92.30" y2="16.10" fill="none" stroke="currentColor" stroke-width="1.4000000476837158" stroke-linecap="round" stroke-linejoin="round" />
  <line x1="174.98" y1="103.88" x2="176.05" y2="107.12" fill="currentColor" stroke="currentColor" stroke-width="1.2" stroke-linecap="round" stroke-linejoin="round" />
  <line x1="184.70" y1="107.12" x2="174.98" y2="103.88" fill="currentColor" stroke="currentColor" stroke-width="1.2" stroke-linecap="round" stroke-linejoin="round" />
  <line x1="24.99" y1="189.52" x2="24.99" y2="21.73" fill="none" stroke="currentColor" stroke-width="1.0" stroke-linecap="round" stroke-linejoin="round" />
  <line x1="36.21" y1="189.52" x2="36.21" y2="21.73" fill="none" stroke="currentColor" stroke-width="1.0" stroke-linecap="round" stroke-linejoin="round" />
  <line x1="47.42" y1="189.52" x2="47.42" y2="21.73" fill="none" stroke="currentColor" stroke-width="1.0" stroke-linecap="round" stroke-linejoin="round" />
  <line x1="58.64" y1="189.52" x2="58.64" y2="21.73" fill="none" stroke="currentColor" stroke-width="1.0" stroke-linecap="round" stroke-linejoin="round" />
  <line x1="69.86" y1="189.52" x2="69.86" y2="21.73" fill="none" stroke="currentColor" stroke-width="1.0" stroke-linecap="round" stroke-linejoin="round" />
  <line x1="81.08" y1="189.52" x2="81.08" y2="21.73" fill="none" stroke="currentColor" stroke-width="1.0" stroke-linecap="round" stroke-linejoin="round" />
  <line x1="13.77" y1="189.52" x2="13.77" y2="21.73" fill="none" stroke="currentColor" stroke-width="1.0" stroke-linecap="round" stroke-linejoin="round" />
  <line x1="137.17" y1="189.52" x2="137.17" y2="21.73" fill="none" stroke="currentColor" stroke-width="1.0" stroke-linecap="round" stroke-linejoin="round" />
  <line x1="148.39" y1="189.52" x2="148.39" y2="21.73" fill="none" stroke="currentColor" stroke-width="1.0" stroke-linecap="round" stroke-linejoin="round" />
  <line x1="159.61" y1="189.52" x2="159.61" y2="21.73" fill="none" stroke="currentColor" stroke-width="1.0" stroke-linecap="round" stroke-linejoin="round" />
  <line x1="170.82" y1="189.52" x2="170.82" y2="21.73" fill="none" stroke="currentColor" stroke-width="1.0" stroke-linecap="round" stroke-linejoin="round" />
  <line x1="114.73" y1="189.52" x2="114.73" y2="21.73" fill="none" stroke="currentColor" stroke-width="1.0" stroke-linecap="round" stroke-linejoin="round" />
  <line x1="125.96" y1="189.52" x2="125.96" y2="21.73" fill="none" stroke="currentColor" stroke-width="1.0" stroke-linecap="round" stroke-linejoin="round" />
  <line x1="103.52" y1="189.52" x2="103.52" y2="21.73" fill="none" stroke="currentColor" stroke-width="1.0" stroke-linecap="round" stroke-linejoin="round" />
  <line x1="8.00" y1="107.12" x2="176.60" y2="107.12" fill="none" stroke="currentColor" stroke-width="1.4000000476837158" stroke-linecap="round" stroke-linejoin="round" />
  <line x1="176.05" y1="107.12" x2="174.98" y2="110.36" fill="currentColor" stroke="currentColor" stroke-width="1.2" stroke-linecap="round" stroke-linejoin="round" />
  <line x1="174.98" y1="110.36" x2="184.70" y2="107.12" fill="currentColor" stroke="currentColor" stroke-width="1.2" stroke-linecap="round" stroke-linejoin="round" />
  <path d="M177.86,114.52 C177.95,114.52 178.01,114.53 178.06,114.53" fill="currentColor" stroke="currentColor" stroke-width="1.2" stroke-linecap="round" stroke-linejoin="round" />
  <path d="M180.34,114.53 C180.39,114.53 180.46,114.52 180.54,114.52" fill="currentColor" stroke="currentColor" stroke-width="1.2" stroke-linecap="round" stroke-linejoin="round" />
  <path d="M177.64,114.53 C177.70,114.53 177.77,114.52 177.86,114.52" fill="currentColor" stroke="currentColor" stroke-width="1.2" stroke-linecap="round" stroke-linejoin="round" />
  <path d="M180.54,114.52 C180.63,114.52 180.70,114.53 180.76,114.53" fill="currentColor" stroke="currentColor" stroke-width="1.2" stroke-linecap="round" stroke-linejoin="round" />
  <path d="M178.06,114.53 C178.11,114.54 178.14,114.54 178.17,114.55" fill="currentColor" stroke="currentColor" stroke-width="1.2" stroke-linecap="round" stroke-linejoin="round" />
  <path d="M180.22,114.56 C180.25,114.54 180.29,114.54 180.34,114.53" fill="currentColor" stroke="currentColor" stroke-width="1.2" stroke-linecap="round" stroke-linejoin="round" />
  <path d="M180.76,114.53 C180.81,114.54 180.85,114.55 180.88,114.57" fill="currentColor" stroke="currentColor" stroke-width="1.2" stroke-linecap="round" stroke-linejoin="round" />
  <path d="M177.51,114.57 C177.54,114.55 177.58,114.54 177.64,114.53" fill="currentColor" stroke="currentColor" stroke-width="1.2" stroke-linecap="round" stroke-linejoin="round" />
  <path d="M178.17,114.55 C178.19,114.56 178.21,114.58 178.22,114.59" fill="currentColor" stroke="currentColor" stroke-width="1.2" stroke-linecap="round" stroke-linejoin="round" />
  <path d="M180.14,114.60 C180.16,114.58 180.19,114.57 180.22,114.56" fill="currentColor" stroke="currentColor" stroke-width="1.2" stroke-linecap="round" stroke-linejoin="round" />
  <path d="M180.88,114.57 C180.91,114.58 180.92,114.61 180.91,114.64" fill="currentColor" stroke="currentColor" stroke-width="1.2" stroke-linecap="round" stroke-linejoin="round" />
  <path d="M177.47,114.65 C177.47,114.62 177.49,114.59 177.51,114.57" fill="currentColor" stroke="currentColor" stroke-width="1.2" stroke-linecap="round" stroke-linejoin="round" />
  <path d="M178.22,114.59 C178.23,114.61 178.24,114.63 178.25,114.65" fill="currentColor" stroke="currentColor" stroke-width="1.2" stroke-linecap="round" stroke-linejoin="round" />
  <path d="M180.09,114.65 C180.11,114.63 180.13,114.61 180.14,114.60" fill="currentColor" stroke="currentColor" stroke-width="1.2" stroke-linecap="round" stroke-linejoin="round" />
  <path d="M180.91,114.64 C180.91,114.67 180.89,114.71 180.85,114.75" fill="currentColor" stroke="currentColor" stroke-width="1.2" stroke-linecap="round" stroke-linejoin="round" />
  <path d="M177.49,114.76 C177.47,114.72 177.46,114.68 177.47,114.65" fill="currentColor" stroke="currentColor" stroke-width="1.2" stroke-linecap="round" stroke-linejoin="round" />
  <line x1="178.25" y1="114.65" x2="178.89" y2="116.29" fill="currentColor" stroke="currentColor" stroke-width="1.2" stroke-linecap="round" stroke-linejoin="round" />
  <line x1="178.89" y1="116.29" x2="180.09" y2="114.65" fill="currentColor" stroke="currentColor" stroke-width="1.2" stroke-linecap="round" stroke-linejoin="round" />
  <line x1="178.31" y1="116.81" x2="177.49" y2="114.76" fill="currentColor" stroke="currentColor" stroke-width="1.2" stroke-linecap="round" stroke-linejoin="round" />
  <line x1="180.85" y1="114.75" x2="179.29" y2="116.83" fill="currentColor" stroke="currentColor" stroke-width="1.2" stroke-linecap="round" stroke-linejoin="round" />
  <line x1="176.65" y1="118.98" x2="178.31" y2="116.81" fill="currentColor" stroke="currentColor" stroke-width="1.2" stroke-linecap="round" stroke-linejoin="round" />
  <line x1="179.29" y1="116.83" x2="180.16" y2="118.98" fill="currentColor" stroke="currentColor" stroke-width="1.2" stroke-linecap="round" stroke-linejoin="round" />
  <line x1="179.37" y1="119.09" x2="178.71" y2="117.35" fill="currentColor" stroke="currentColor" stroke-width="1.2" stroke-linecap="round" stroke-linejoin="round" />
  <line x1="178.71" y1="117.35" x2="177.45" y2="119.09" fill="currentColor" stroke="currentColor" stroke-width="1.2" stroke-linecap="round" stroke-linejoin="round" />
  <line x1="10.42" y1="118.34" x2="174.19" y2="118.34" fill="none" stroke="currentColor" stroke-width="1.0" stroke-linecap="round" stroke-linejoin="round" />
  <path d="M180.16,118.98 C180.18,119.02 180.18,119.06 180.18,119.09" fill="currentColor" stroke="currentColor" stroke-width="1.2" stroke-linecap="round" stroke-linejoin="round" />
  <path d="M176.60,119.09 C176.60,119.07 176.62,119.03 176.65,118.98" fill="currentColor" stroke="currentColor" stroke-width="1.2" stroke-linecap="round" stroke-linejoin="round" />
  <path d="M179.40,119.15 C179.39,119.13 179.38,119.11 179.37,119.09" fill="currentColor" stroke="currentColor" stroke-width="1.2" stroke-linecap="round" stroke-linejoin="round" />
  <path d="M177.45,119.09 C177.43,119.11 177.41,119.13 177.39,119.15" fill="currentColor" stroke="currentColor" stroke-width="1.2" stroke-linecap="round" stroke-linejoin="round" />
  <path d="M180.18,119.09 C180.17,119.12 180.15,119.15 180.12,119.17" fill="currentColor" stroke="currentColor" stroke-width="1.2" stroke-linecap="round" stroke-linejoin="round" />
  <path d="M176.63,119.17 C176.60,119.15 176.59,119.12 176.60,119.09" fill="currentColor" stroke="currentColor" stroke-width="1.2" stroke-linecap="round" stroke-linejoin="round" />
  <path d="M177.39,119.15 C177.37,119.16 177.34,119.18 177.31,119.19" fill="currentColor" stroke="currentColor" stroke-width="1.2" stroke-linecap="round" stroke-linejoin="round" />
  <path d="M179.45,119.19 C179.43,119.18 179.41,119.16 179.40,119.15" fill="currentColor" stroke="currentColor" stroke-width="1.2" stroke-linecap="round" stroke-linejoin="round" />
  <path d="M180.12,119.17 C180.09,119.19 180.04,119.20 179.99,119.21" fill="currentColor" stroke="currentColor" stroke-width="1.2" stroke-linecap="round" stroke-linejoin="round" />
  <path d="M176.74,119.21 C176.69,119.20 176.65,119.19 176.63,119.17" fill="currentColor" stroke="currentColor" stroke-width="1.2" stroke-linecap="round" stroke-linejoin="round" />
  <path d="M177.31,119.19 C177.27,119.20 177.23,119.21 177.17,119.21" fill="currentColor" stroke="currentColor" stroke-width="1.2" stroke-linecap="round" stroke-linejoin="round" />
  <path d="M179.57,119.21 C179.52,119.21 179.48,119.20 179.45,119.19" fill="currentColor" stroke="currentColor" stroke-width="1.2" stroke-linecap="round" stroke-linejoin="round" />
  <path d="M179.99,119.21 C179.93,119.22 179.85,119.22 179.76,119.22" fill="currentColor" stroke="currentColor" stroke-width="1.2" stroke-linecap="round" stroke-linejoin="round" />
  <path d="M176.95,119.22 C176.87,119.22 176.80,119.22 176.74,119.21" fill="currentColor" stroke="currentColor" stroke-width="1.2" stroke-linecap="round" stroke-linejoin="round" />
  <path d="M177.17,119.21 C177.12,119.22 177.04,119.22 176.95,119.22" fill="currentColor" stroke="currentColor" stroke-width="1.2" stroke-linecap="round" stroke-linejoin="round" />
  <path d="M179.76,119.22 C179.68,119.22 179.61,119.22 179.57,119.21" fill="currentColor" stroke="currentColor" stroke-width="1.2" stroke-linecap="round" stroke-linejoin="round" />
  <line x1="10.42" y1="129.56" x2="174.19" y2="129.56" fill="none" stroke="currentColor" stroke-width="1.0" stroke-linecap="round" stroke-linejoin="round" />
  <line x1="10.42" y1="140.78" x2="174.19" y2="140.78" fill="none" stroke="currentColor" stroke-width="1.0" stroke-linecap="round" stroke-linejoin="round" />
  <line x1="10.42" y1="152.00" x2="174.19" y2="152.00" fill="none" stroke="currentColor" stroke-width="1.0" stroke-linecap="round" stroke-linejoin="round" />
  <line x1="10.42" y1="163.22" x2="174.19" y2="163.22" fill="none" stroke="currentColor" stroke-width="1.0" stroke-linecap="round" stroke-linejoin="round" />
  <line x1="10.42" y1="174.43" x2="174.19" y2="174.43" fill="none" stroke="currentColor" stroke-width="1.0" stroke-linecap="round" stroke-linejoin="round" />
  <line x1="10.42" y1="185.65" x2="174.19" y2="185.65" fill="none" stroke="currentColor" stroke-width="1.0" stroke-linecap="round" stroke-linejoin="round" />
</svg>