<svg xmlns="http://www.w3.org/2000/svg" viewBox="0 0 150.12 116.19" preserveAspectRatio="xMidYMid meet" shape-rendering="geometricPrecision" text-rendering="optimizeLegibility">
  <path d="M140.25,8.07 C139.98,8.02 139.72,8.00 139.47,8.00" fill="currentColor" stroke="currentColor" stroke-width="1.2" stroke-linecap="round" stroke-linejoin="round" />
  <line x1="11.00" y1="8.10" x2="8.08" y2="8.10" fill="currentColor" stroke="currentColor" stroke-width="1.2" stroke-linecap="round" stroke-linejoin="round" />
  <path d="M139.47,8.00 C138.87,8.00 138.32,8.10 137.82,8.30" fill="currentColor" stroke="currentColor" stroke-width="1.2" stroke-linecap="round" stroke-linejoin="round" />
  <path d="M141.09,8.27 C140.79,8.17 140.51,8.11 140.25,8.07" fill="currentColor" stroke="currentColor" stroke-width="1.2" stroke-linecap="round" stroke-linejoin="round" />
  <path d="M12.48,8.32 C12.05,8.18 11.55,8.10 11.00,8.10" fill="currentColor" stroke="currentColor" stroke-width="1.2" stroke-linecap="round" stroke-linejoin="round" />
  <path d="M142.04,8.62 C141.70,8.47 141.38,8.36 141.09,8.27" fill="currentColor" stroke="currentColor" stroke-width="1.2" stroke-linecap="round" stroke-linejoin="round" />
  <path d="M13.60,8.91 C13.29,8.66 12.91,8.46 12.48,8.32" fill="currentColor" stroke="currentColor" stroke-width="1.2" stroke-linecap="round" stroke-linejoin="round" />
  <path d="M137.82,8.30 C137.32,8.49 136.88,8.77 136.51,9.12" fill="currentColor" stroke="currentColor" stroke-width="1.2" stroke-linecap="round" stroke-linejoin="round" />
  <line x1="9.16" y1="9.07" x2="10.82" y2="9.07" fill="currentColor" stroke="currentColor" stroke-width="1.2" stroke-linecap="round" stroke-linejoin="round" />
  <path d="M139.46,8.99 C139.89,8.99 140.31,9.05 140.73,9.18" fill="currentColor" stroke="currentColor" stroke-width="1.2" stroke-linecap="round" stroke-linejoin="round" />
  <path d="M138.26,9.21 C138.63,9.07 139.02,8.99 139.46,8.99" fill="currentColor" stroke="currentColor" stroke-width="1.2" stroke-linecap="round" stroke-linejoin="round" />
  <path d="M10.82,9.07 C11.35,9.07 11.80,9.14 12.19,9.29" fill="currentColor" stroke="currentColor" stroke-width="1.2" stroke-linecap="round" stroke-linejoin="round" />
  <line x1="142.04" y1="9.77" x2="142.04" y2="8.62" fill="currentColor" stroke="currentColor" stroke-width="1.2" stroke-linecap="round" stroke-linejoin="round" />
  <path d="M14.39,9.76 C14.18,9.44 13.92,9.16 13.60,8.91" fill="currentColor" stroke="currentColor" stroke-width="1.2" stroke-linecap="round" stroke-linejoin="round" />
  <path d="M140.73,9.18 C141.14,9.31 141.58,9.50 142.04,9.77" fill="currentColor" stroke="currentColor" stroke-width="1.2" stroke-linecap="round" stroke-linejoin="round" />
  <path d="M137.32,9.81 C137.58,9.55 137.90,9.35 138.26,9.21" fill="currentColor" stroke="currentColor" stroke-width="1.2" stroke-linecap="round" stroke-linejoin="round" />
  <path d="M12.19,9.29 C12.57,9.43 12.89,9.64 13.14,9.89" fill="currentColor" stroke="currentColor" stroke-width="1.2" stroke-linecap="round" stroke-linejoin="round" />
  <path d="M136.51,9.12 C136.15,9.48 135.86,9.89 135.66,10.38" fill="currentColor" stroke="currentColor" stroke-width="1.2" stroke-linecap="round" stroke-linejoin="round" />
  <path d="M136.69,10.72 C136.84,10.37 137.05,10.07 137.32,9.81" fill="currentColor" stroke="currentColor" stroke-width="1.2" stroke-linecap="round" stroke-linejoin="round" />
  <path d="M14.85,10.78 C14.74,10.42 14.59,10.08 14.39,9.76" fill="currentColor" stroke="currentColor" stroke-width="1.2" stroke-linecap="round" stroke-linejoin="round" />
  <path d="M13.14,9.89 C13.39,10.15 13.58,10.44 13.70,10.78" fill="currentColor" stroke="currentColor" stroke-width="1.2" stroke-linecap="round" stroke-linejoin="round" />
  <path d="M135.66,10.38 C135.46,10.86 135.36,11.39 135.35,11.96" fill="currentColor" stroke="currentColor" stroke-width="1.2" stroke-linecap="round" stroke-linejoin="round" />
  <path d="M136.46,11.86 C136.47,11.45 136.54,11.07 136.69,10.72" fill="currentColor" stroke="currentColor" stroke-width="1.2" stroke-linecap="round" stroke-linejoin="round" />
  <path d="M13.70,10.78 C13.82,11.11 13.88,11.47 13.88,11.85" fill="currentColor" stroke="currentColor" stroke-width="1.2" stroke-linecap="round" stroke-linejoin="round" />
  <path d="M14.99,11.85 C14.99,11.49 14.94,11.14 14.85,10.78" fill="currentColor" stroke="currentColor" stroke-width="1.2" stroke-linecap="round" stroke-linejoin="round" />
  <line x1="9.16" y1="14.63" x2="9.16" y2="9.07" fill="currentColor" stroke="currentColor" stroke-width="1.2" stroke-linecap="round" stroke-linejoin="round" />
  <line x1="8.08" y1="8.10" x2="8.08" y2="15.60" fill="currentColor" stroke="currentColor" stroke-width="1.2" stroke-linecap="round" stroke-linejoin="round" />
  <path d="M13.88,11.85 C13.88,12.04 13.86,12.25 13.81,12.49" fill="currentColor" stroke="currentColor" stroke-width="1.2" stroke-linecap="round" stroke-linejoin="round" />
  <path d="M14.82,12.98 C14.93,12.61 14.99,12.24 14.99,11.85" fill="currentColor" stroke="currentColor" stroke-width="1.2" stroke-linecap="round" stroke-linejoin="round" />
  <path d="M135.35,11.96 C135.35,12.28 135.40,12.61 135.50,12.95" fill="currentColor" stroke="currentColor" stroke-width="1.2" stroke-linecap="round" stroke-linejoin="round" />
  <path d="M136.85,13.35 C136.60,12.92 136.47,12.43 136.46,11.86" fill="currentColor" stroke="currentColor" stroke-width="1.2" stroke-linecap="round" stroke-linejoin="round" />
  <path d="M13.81,12.49 C13.75,12.73 13.66,12.98 13.53,13.23" fill="currentColor" stroke="currentColor" stroke-width="1.2" stroke-linecap="round" stroke-linejoin="round" />
  <path d="M135.50,12.95 C135.60,13.30 135.76,13.63 135.97,13.95" fill="currentColor" stroke="currentColor" stroke-width="1.2" stroke-linecap="round" stroke-linejoin="round" />
  <path d="M14.30,14.00 C14.53,13.68 14.70,13.34 14.82,12.98" fill="currentColor" stroke="currentColor" stroke-width="1.2" stroke-linecap="round" stroke-linejoin="round" />
  <path d="M13.53,13.23 C13.40,13.48 13.22,13.71 12.99,13.92" fill="currentColor" stroke="currentColor" stroke-width="1.2" stroke-linecap="round" stroke-linejoin="round" />
  <path d="M137.91,14.34 C137.46,14.11 137.10,13.77 136.85,13.35" fill="currentColor" stroke="currentColor" stroke-width="1.2" stroke-linecap="round" stroke-linejoin="round" />
  <path d="M12.99,13.92 C12.76,14.13 12.48,14.30 12.13,14.43" fill="currentColor" stroke="currentColor" stroke-width="1.2" stroke-linecap="round" stroke-linejoin="round" />
  <path d="M142.12,13.86 C141.69,14.14 141.25,14.35 140.81,14.49" fill="currentColor" stroke="currentColor" stroke-width="1.2" stroke-linecap="round" stroke-linejoin="round" />
  <path d="M135.97,13.95 C136.17,14.28 136.44,14.57 136.76,14.84" fill="currentColor" stroke="currentColor" stroke-width="1.2" stroke-linecap="round" stroke-linejoin="round" />
  <path d="M13.48,14.83 C13.81,14.59 14.08,14.32 14.30,14.00" fill="currentColor" stroke="currentColor" stroke-width="1.2" stroke-linecap="round" stroke-linejoin="round" />
  <line x1="142.12" y1="15.04" x2="142.12" y2="13.86" fill="currentColor" stroke="currentColor" stroke-width="1.2" stroke-linecap="round" stroke-linejoin="round" />
  <path d="M139.50,14.71 C138.89,14.70 138.36,14.58 137.91,14.34" fill="currentColor" stroke="currentColor" stroke-width="1.2" stroke-linecap="round" stroke-linejoin="round" />
  <path d="M12.13,14.43 C11.78,14.56 11.37,14.63 10.88,14.63" fill="currentColor" stroke="currentColor" stroke-width="1.2" stroke-linecap="round" stroke-linejoin="round" />
  <path d="M140.81,14.49 C140.36,14.64 139.93,14.71 139.50,14.71" fill="currentColor" stroke="currentColor" stroke-width="1.2" stroke-linecap="round" stroke-linejoin="round" />
  <line x1="10.88" y1="14.63" x2="9.16" y2="14.63" fill="currentColor" stroke="currentColor" stroke-width="1.2" stroke-linecap="round" stroke-linejoin="round" />
  <path d="M12.38,15.39 C12.79,15.26 13.16,15.07 13.48,14.83" fill="currentColor" stroke="currentColor" stroke-width="1.2" stroke-linecap="round" stroke-linejoin="round" />
  <path d="M136.76,14.84 C137.08,15.10 137.46,15.31 137.90,15.46" fill="currentColor" stroke="currentColor" stroke-width="1.2" stroke-linecap="round" stroke-linejoin="round" />
  <path d="M141.35,15.38 C141.62,15.28 141.87,15.17 142.12,15.04" fill="currentColor" stroke="currentColor" stroke-width="1.2" stroke-linecap="round" stroke-linejoin="round" />
  <path d="M140.46,15.61 C140.78,15.56 141.08,15.48 141.35,15.38" fill="currentColor" stroke="currentColor" stroke-width="1.2" stroke-linecap="round" stroke-linejoin="round" />
  <path d="M11.01,15.60 C11.51,15.60 11.96,15.53 12.38,15.39" fill="currentColor" stroke="currentColor" stroke-width="1.2" stroke-linecap="round" stroke-linejoin="round" />
  <path d="M137.90,15.46 C138.34,15.62 138.84,15.70 139.40,15.70" fill="currentColor" stroke="currentColor" stroke-width="1.2" stroke-linecap="round" stroke-linejoin="round" />
  <line x1="8.08" y1="15.60" x2="11.01" y2="15.60" fill="currentColor" stroke="currentColor" stroke-width="1.2" stroke-linecap="round" stroke-linejoin="round" />
  <path d="M139.40,15.70 C139.79,15.70 140.14,15.67 140.46,15.61" fill="currentColor" stroke="currentColor" stroke-width="1.2" stroke-linecap="round" stroke-linejoin="round" />
  <line x1="18.24" y1="100.08" x2="131.63" y2="15.04" fill="none" stroke="currentColor" stroke-width="1.0" stroke-linecap="round" stroke-linejoin="round" />
  <rect x="18.24" y="15.04" width="113.38" height="85.04" fill="none" stroke="currentColor" stroke-width="1.2" stroke-linecap="round" stroke-linejoin="round" />
  <line x1="11.98" y1="100.65" x2="11.22" y2="100.65" fill="currentColor" stroke="currentColor" stroke-width="1.2" stroke-linecap="round" stroke-linejoin="round" />
  <line x1="138.58" y1="100.69" x2="136.40" y2="100.69" fill="currentColor" stroke="currentColor" stroke-width="1.2" stroke-linecap="round" stroke-linejoin="round" />
  <path d="M139.62,100.86 C139.33,100.75 138.98,100.70 138.58,100.69" fill="currentColor" stroke="currentColor" stroke-width="1.2" stroke-linecap="round" stroke-linejoin="round" />
  <path d="M140.34,101.30 C140.15,101.11 139.91,100.97 139.62,100.86" fill="currentColor" stroke="currentColor" stroke-width="1.2" stroke-linecap="round" stroke-linejoin="round" />
  <path d="M140.76,101.91 C140.67,101.68 140.53,101.48 140.34,101.30" fill="currentColor" stroke="currentColor" stroke-width="1.2" stroke-linecap="round" stroke-linejoin="round" />
  <line x1="137.48" y1="101.66" x2="138.47" y2="101.66" fill="currentColor" stroke="currentColor" stroke-width="1.2" stroke-linecap="round" stroke-linejoin="round" />
  <path d="M138.47,101.66 C138.80,101.66 139.06,101.71 139.25,101.81" fill="currentColor" stroke="currentColor" stroke-width="1.2" stroke-linecap="round" stroke-linejoin="round" />
  <path d="M139.25,101.81 C139.44,101.90 139.58,102.03 139.66,102.19" fill="currentColor" stroke="currentColor" stroke-width="1.2" stroke-linecap="round" stroke-linejoin="round" />
  <path d="M140.89,102.61 C140.89,102.37 140.85,102.14 140.76,101.91" fill="currentColor" stroke="currentColor" stroke-width="1.2" stroke-linecap="round" stroke-linejoin="round" />
  <path d="M139.66,102.19 C139.74,102.34 139.78,102.52 139.78,102.71" fill="currentColor" stroke="currentColor" stroke-width="1.2" stroke-linecap="round" stroke-linejoin="round" />
  <line x1="137.48" y1="103.91" x2="137.48" y2="101.66" fill="currentColor" stroke="currentColor" stroke-width="1.2" stroke-linecap="round" stroke-linejoin="round" />
  <path d="M140.61,103.58 C140.80,103.32 140.89,103.00 140.89,102.61" fill="currentColor" stroke="currentColor" stroke-width="1.2" stroke-linecap="round" stroke-linejoin="round" />
  <path d="M139.78,102.71 C139.78,103.11 139.65,103.41 139.39,103.61" fill="currentColor" stroke="currentColor" stroke-width="1.2" stroke-linecap="round" stroke-linejoin="round" />
  <line x1="11.59" y1="102.30" x2="12.80" y2="105.02" fill="currentColor" stroke="currentColor" stroke-width="1.2" stroke-linecap="round" stroke-linejoin="round" />
  <line x1="10.46" y1="105.02" x2="11.59" y2="102.30" fill="currentColor" stroke="currentColor" stroke-width="1.2" stroke-linecap="round" stroke-linejoin="round" />
  <path d="M139.39,103.61 C139.12,103.81 138.73,103.91 138.19,103.91" fill="currentColor" stroke="currentColor" stroke-width="1.2" stroke-linecap="round" stroke-linejoin="round" />
  <path d="M139.74,104.21 C140.13,104.06 140.42,103.85 140.61,103.58" fill="currentColor" stroke="currentColor" stroke-width="1.2" stroke-linecap="round" stroke-linejoin="round" />
  <line x1="138.19" y1="103.91" x2="137.48" y2="103.91" fill="currentColor" stroke="currentColor" stroke-width="1.2" stroke-linecap="round" stroke-linejoin="round" />
  <line x1="139.74" y1="104.24" x2="139.74" y2="104.21" fill="currentColor" stroke="currentColor" stroke-width="1.2" stroke-linecap="round" stroke-linejoin="round" />
  <line x1="11.22" y1="100.65" x2="8.00" y2="108.19" fill="currentColor" stroke="currentColor" stroke-width="1.2" stroke-linecap="round" stroke-linejoin="round" />
  <line x1="15.34" y1="108.19" x2="11.98" y2="100.65" fill="currentColor" stroke="currentColor" stroke-width="1.2" stroke-linecap="round" stroke-linejoin="round" />
  <path d="M140.71,104.61 C140.44,104.43 140.12,104.31 139.74,104.24" fill="currentColor" stroke="currentColor" stroke-width="1.2" stroke-linecap="round" stroke-linejoin="round" />
  <line x1="136.40" y1="100.69" x2="136.40" y2="108.19" fill="currentColor" stroke="currentColor" stroke-width="1.2" stroke-linecap="round" stroke-linejoin="round" />
  <line x1="137.48" y1="104.87" x2="138.78" y2="104.87" fill="currentColor" stroke="currentColor" stroke-width="1.2" stroke-linecap="round" stroke-linejoin="round" />
  <path d="M141.33,105.28 C141.19,105.01 140.98,104.79 140.71,104.61" fill="currentColor" stroke="currentColor" stroke-width="1.2" stroke-linecap="round" stroke-linejoin="round" />
  <path d="M138.78,104.87 C139.15,104.88 139.46,104.92 139.71,105.02" fill="currentColor" stroke="currentColor" stroke-width="1.2" stroke-linecap="round" stroke-linejoin="round" />
  <line x1="12.80" y1="105.02" x2="10.46" y2="105.02" fill="currentColor" stroke="currentColor" stroke-width="1.2" stroke-linecap="round" stroke-linejoin="round" />
  <path d="M139.71,105.02 C139.96,105.12 140.14,105.26 140.26,105.43" fill="currentColor" stroke="currentColor" stroke-width="1.2" stroke-linecap="round" stroke-linejoin="round" />
  <path d="M140.26,105.43 C140.38,105.61 140.44,105.81 140.44,106.04" fill="currentColor" stroke="currentColor" stroke-width="1.2" stroke-linecap="round" stroke-linejoin="round" />
  <path d="M141.55,106.19 C141.55,105.86 141.47,105.55 141.33,105.28" fill="currentColor" stroke="currentColor" stroke-width="1.2" stroke-linecap="round" stroke-linejoin="round" />
  <line x1="10.05" y1="105.98" x2="13.24" y2="105.98" fill="currentColor" stroke="currentColor" stroke-width="1.2" stroke-linecap="round" stroke-linejoin="round" />
  <line x1="137.48" y1="107.23" x2="137.48" y2="104.87" fill="currentColor" stroke="currentColor" stroke-width="1.2" stroke-linecap="round" stroke-linejoin="round" />
  <path d="M140.44,106.04 C140.44,106.23 140.39,106.42 140.30,106.60" fill="currentColor" stroke="currentColor" stroke-width="1.2" stroke-linecap="round" stroke-linejoin="round" />
  <path d="M141.41,106.90 C141.50,106.66 141.55,106.43 141.55,106.19" fill="currentColor" stroke="currentColor" stroke-width="1.2" stroke-linecap="round" stroke-linejoin="round" />
  <path d="M140.30,106.60 C140.21,106.78 140.04,106.93 139.81,107.04" fill="currentColor" stroke="currentColor" stroke-width="1.2" stroke-linecap="round" stroke-linejoin="round" />
  <line x1="9.10" y1="108.19" x2="10.05" y2="105.98" fill="currentColor" stroke="currentColor" stroke-width="1.2" stroke-linecap="round" stroke-linejoin="round" />
  <line x1="13.24" y1="105.98" x2="14.24" y2="108.19" fill="currentColor" stroke="currentColor" stroke-width="1.2" stroke-linecap="round" stroke-linejoin="round" />
  <path d="M139.81,107.04 C139.57,107.16 139.25,107.22 138.83,107.23" fill="currentColor" stroke="currentColor" stroke-width="1.2" stroke-linecap="round" stroke-linejoin="round" />
  <path d="M140.97,107.54 C141.17,107.35 141.32,107.13 141.41,106.90" fill="currentColor" stroke="currentColor" stroke-width="1.2" stroke-linecap="round" stroke-linejoin="round" />
  <line x1="138.83" y1="107.23" x2="137.48" y2="107.23" fill="currentColor" stroke="currentColor" stroke-width="1.2" stroke-linecap="round" stroke-linejoin="round" />
  <path d="M140.17,108.01 C140.50,107.89 140.76,107.74 140.97,107.54" fill="currentColor" stroke="currentColor" stroke-width="1.2" stroke-linecap="round" stroke-linejoin="round" />
  <path d="M138.97,108.19 C139.44,108.19 139.84,108.13 140.17,108.01" fill="currentColor" stroke="currentColor" stroke-width="1.2" stroke-linecap="round" stroke-linejoin="round" />
  <line x1="8.00" y1="108.19" x2="9.10" y2="108.19" fill="currentColor" stroke="currentColor" stroke-width="1.2" stroke-linecap="round" stroke-linejoin="round" />
  <line x1="14.24" y1="108.19" x2="15.34" y2="108.19" fill="currentColor" stroke="currentColor" stroke-width="1.2" stroke-linecap="round" stroke-linejoin="round" />
  <line x1="136.40" y1="108.19" x2="138.97" y2="108.19" fill="currentColor" stroke="currentColor" stroke-width="1.2" stroke-linecap="round" stroke-linejoin="round" />
</svg>