<svg xmlns="http://www.w3.org/2000/svg" viewBox="0 0 185.83 185.76" preserveAspectRatio="xMidYMid meet" shape-rendering="geometricPrecision" text-rendering="optimizeLegibility">
  <path d="M8.02,92.88 C8.02,46.03 46.06,8.00 92.92,8.00" fill="none" stroke="currentColor" stroke-width="1.6" stroke-linecap="round" stroke-linejoin="round" />
  <path d="M92.92,8.00 C139.79,8.00 177.83,46.03 177.83,92.88" fill="none" stroke="currentColor" stroke-width="1.6" stroke-linecap="round" stroke-linejoin="round" />
  <line x1="102.89" y1="82.78" x2="101.89" y2="82.78" fill="currentColor" stroke="currentColor" stroke-width="1.2" stroke-linecap="round" stroke-linejoin="round" />
  <line x1="96.91" y1="82.78" x2="95.89" y2="82.78" fill="currentColor" stroke="currentColor" stroke-width="1.2" stroke-linecap="round" stroke-linejoin="round" />
  <line x1="101.89" y1="82.78" x2="99.39" y2="85.86" fill="currentColor" stroke="currentColor" stroke-width="1.2" stroke-linecap="round" stroke-linejoin="round" />
  <line x1="99.39" y1="85.86" x2="96.91" y2="82.78" fill="currentColor" stroke="currentColor" stroke-width="1.2" stroke-linecap="round" stroke-linejoin="round" />
  <line x1="96.97" y1="84.43" x2="96.99" y2="84.43" fill="currentColor" stroke="currentColor" stroke-width="1.2" stroke-linecap="round" stroke-linejoin="round" />
  <line x1="101.79" y1="84.43" x2="101.81" y2="84.43" fill="currentColor" stroke="currentColor" stroke-width="1.2" stroke-linecap="round" stroke-linejoin="round" />
  <line x1="96.99" y1="84.43" x2="99.30" y2="87.34" fill="currentColor" stroke="currentColor" stroke-width="1.2" stroke-linecap="round" stroke-linejoin="round" />
  <line x1="99.48" y1="87.34" x2="101.79" y2="84.43" fill="currentColor" stroke="currentColor" stroke-width="1.2" stroke-linecap="round" stroke-linejoin="round" />
  <line x1="95.89" y1="82.78" x2="95.89" y2="90.28" fill="currentColor" stroke="currentColor" stroke-width="1.2" stroke-linecap="round" stroke-linejoin="round" />
  <line x1="102.89" y1="90.28" x2="102.89" y2="82.78" fill="currentColor" stroke="currentColor" stroke-width="1.2" stroke-linecap="round" stroke-linejoin="round" />
  <line x1="99.30" y1="87.34" x2="99.48" y2="87.34" fill="currentColor" stroke="currentColor" stroke-width="1.2" stroke-linecap="round" stroke-linejoin="round" />
  <line x1="96.97" y1="90.28" x2="96.97" y2="84.43" fill="currentColor" stroke="currentColor" stroke-width="1.2" stroke-linecap="round" stroke-linejoin="round" />
  <line x1="101.81" y1="84.43" x2="101.81" y2="90.28" fill="currentColor" stroke="currentColor" stroke-width="1.2" stroke-linecap="round" stroke-linejoin="round" />
  <line x1="95.89" y1="90.28" x2="96.97" y2="90.28" fill="currentColor" stroke="currentColor" stroke-width="1.2" stroke-linecap="round" stroke-linejoin="round" />
  <line x1="101.81" y1="90.28" x2="102.89" y2="90.28" fill="currentColor" stroke="currentColor" stroke-width="1.2" stroke-linecap="round" stroke-linejoin="round" />
  <path d="M92.33,92.32 C92.98,92.32 93.50,92.85 93.50,93.50" fill="currentColor" stroke="currentColor" stroke-width="1.2" stroke-linecap="round" stroke-linejoin="round" />
  <path d="M91.15,93.50 C91.15,92.85 91.68,92.32 92.33,92.32" fill="currentColor" stroke="currentColor" stroke-width="1.2" stroke-linecap="round" stroke-linejoin="round" />
  <path d="M92.33,92.32 C92.98,92.32 93.50,92.85 93.50,93.50" fill="none" stroke="currentColor" stroke-width="1.3710000038146972" stroke-linecap="round" stroke-linejoin="round" />
  <path d="M91.15,93.50 C91.15,92.85 91.68,92.32 92.33,92.32" fill="none" stroke="currentColor" stroke-width="1.3710000038146972" stroke-linecap="round" stroke-linejoin="round" />
  <path d="M8.02,93.38 C8.02,93.21 8.02,93.05 8.02,92.88" fill="none" stroke="currentColor" stroke-width="1.6" stroke-linecap="round" stroke-linejoin="round" />
  <path d="M93.50,93.50 C93.50,94.15 92.98,94.68 92.33,94.68" fill="currentColor" stroke="currentColor" stroke-width="1.2" stroke-linecap="round" stroke-linejoin="round" />
  <path d="M92.33,94.68 C91.68,94.68 91.15,94.15 91.15,93.50" fill="currentColor" stroke="currentColor" stroke-width="1.2" stroke-linecap="round" stroke-linejoin="round" />
  <path d="M93.50,93.50 C93.50,94.15 92.98,94.68 92.33,94.68" fill="none" stroke="currentColor" stroke-width="1.3710000038146972" stroke-linecap="round" stroke-linejoin="round" />
  <path d="M92.33,94.68 C91.68,94.68 91.15,94.15 91.15,93.50" fill="none" stroke="currentColor" stroke-width="1.3710000038146972" stroke-linecap="round" stroke-linejoin="round" />
  <path d="M177.83,92.88 C177.83,139.73 139.79,177.76 92.92,177.76" fill="none" stroke="currentColor" stroke-width="1.6" stroke-linecap="round" stroke-linejoin="round" />
  <rect x="8.00" y="93.43" width="84.30" height="84.30" fill="none" stroke="currentColor" stroke-width="1.2" stroke-linecap="round" stroke-linejoin="round" />
  <line x1="8.00" y1="93.43" x2="8.00" y2="177.73" fill="none" stroke="currentColor" stroke-width="1.6" stroke-linecap="round" stroke-linejoin="round" />
  <line x1="8.00" y1="177.73" x2="92.30" y2="177.73" fill="none" stroke="currentColor" stroke-width="1.6" stroke-linecap="round" stroke-linejoin="round" />
  <path d="M92.92,177.76 C92.67,177.76 92.41,177.75 92.15,177.75" fill="none" stroke="currentColor" stroke-width="1.6" stroke-linecap="round" stroke-linejoin="round" />
</svg>