<svg xmlns="http://www.w3.org/2000/svg" viewBox="0 0 167.78 160.88" preserveAspectRatio="xMidYMid meet" shape-rendering="geometricPrecision" text-rendering="optimizeLegibility">
  <line x1="81.39" y1="17.72" x2="78.15" y2="8.00" fill="currentColor" stroke="currentColor" stroke-width="1.2" stroke-linecap="round" stroke-linejoin="round" />
  <line x1="78.15" y1="8.00" x2="74.91" y2="17.72" fill="currentColor" stroke="currentColor" stroke-width="1.2" stroke-linecap="round" stroke-linejoin="round" />
  <path d="M69.50,14.20 C69.55,14.19 69.61,14.19 69.69,14.19" fill="currentColor" stroke="currentColor" stroke-width="1.2" stroke-linecap="round" stroke-linejoin="round" />
  <path d="M69.69,14.19 C69.78,14.19 69.85,14.19 69.90,14.20" fill="currentColor" stroke="currentColor" stroke-width="1.2" stroke-linecap="round" stroke-linejoin="round" />
  <path d="M72.63,14.20 C72.69,14.19 72.76,14.19 72.85,14.19" fill="currentColor" stroke="currentColor" stroke-width="1.2" stroke-linecap="round" stroke-linejoin="round" />
  <path d="M72.85,14.19 C73.00,14.19 73.10,14.20 73.15,14.22" fill="currentColor" stroke="currentColor" stroke-width="1.2" stroke-linecap="round" stroke-linejoin="round" />
  <path d="M69.90,14.20 C69.95,14.20 69.99,14.21 70.02,14.22" fill="currentColor" stroke="currentColor" stroke-width="1.2" stroke-linecap="round" stroke-linejoin="round" />
  <path d="M72.49,14.22 C72.53,14.21 72.57,14.20 72.63,14.20" fill="currentColor" stroke="currentColor" stroke-width="1.2" stroke-linecap="round" stroke-linejoin="round" />
  <path d="M69.37,14.22 C69.40,14.21 69.44,14.20 69.50,14.20" fill="currentColor" stroke="currentColor" stroke-width="1.2" stroke-linecap="round" stroke-linejoin="round" />
  <path d="M70.02,14.22 C70.05,14.23 70.06,14.25 70.08,14.27" fill="currentColor" stroke="currentColor" stroke-width="1.2" stroke-linecap="round" stroke-linejoin="round" />
  <path d="M72.42,14.27 C72.43,14.25 72.46,14.24 72.49,14.22" fill="currentColor" stroke="currentColor" stroke-width="1.2" stroke-linecap="round" stroke-linejoin="round" />
  <path d="M69.30,14.28 C69.31,14.26 69.33,14.24 69.37,14.22" fill="currentColor" stroke="currentColor" stroke-width="1.2" stroke-linecap="round" stroke-linejoin="round" />
  <path d="M73.15,14.22 C73.19,14.24 73.22,14.27 73.22,14.31" fill="currentColor" stroke="currentColor" stroke-width="1.2" stroke-linecap="round" stroke-linejoin="round" />
  <path d="M72.38,14.33 C72.39,14.31 72.40,14.29 72.42,14.27" fill="currentColor" stroke="currentColor" stroke-width="1.2" stroke-linecap="round" stroke-linejoin="round" />
  <path d="M70.08,14.27 C70.09,14.29 70.10,14.32 70.10,14.35" fill="currentColor" stroke="currentColor" stroke-width="1.2" stroke-linecap="round" stroke-linejoin="round" />
  <path d="M69.28,14.37 C69.28,14.34 69.29,14.31 69.30,14.28" fill="currentColor" stroke="currentColor" stroke-width="1.2" stroke-linecap="round" stroke-linejoin="round" />
  <path d="M73.22,14.31 C73.22,14.34 73.22,14.38 73.21,14.41" fill="currentColor" stroke="currentColor" stroke-width="1.2" stroke-linecap="round" stroke-linejoin="round" />
  <path d="M69.29,14.46 C69.28,14.42 69.28,14.40 69.28,14.37" fill="currentColor" stroke="currentColor" stroke-width="1.2" stroke-linecap="round" stroke-linejoin="round" />
  <path d="M73.21,14.41 C73.20,14.45 73.19,14.49 73.17,14.52" fill="currentColor" stroke="currentColor" stroke-width="1.2" stroke-linecap="round" stroke-linejoin="round" />
  <path d="M69.30,14.56 C69.30,14.52 69.29,14.49 69.29,14.46" fill="currentColor" stroke="currentColor" stroke-width="1.2" stroke-linecap="round" stroke-linejoin="round" />
  <path d="M72.05,15.27 C72.17,14.96 72.28,14.65 72.38,14.33" fill="currentColor" stroke="currentColor" stroke-width="1.2" stroke-linecap="round" stroke-linejoin="round" />
  <path d="M73.17,14.52 C73.07,14.82 72.95,15.12 72.82,15.45" fill="currentColor" stroke="currentColor" stroke-width="1.2" stroke-linecap="round" stroke-linejoin="round" />
  <path d="M71.68,16.18 C71.81,15.88 71.94,15.58 72.05,15.27" fill="currentColor" stroke="currentColor" stroke-width="1.2" stroke-linecap="round" stroke-linejoin="round" />
  <path d="M72.82,15.45 C72.70,15.77 72.55,16.10 72.38,16.45" fill="currentColor" stroke="currentColor" stroke-width="1.2" stroke-linecap="round" stroke-linejoin="round" />
  <line x1="70.10" y1="14.35" x2="70.67" y2="17.94" fill="currentColor" stroke="currentColor" stroke-width="1.2" stroke-linecap="round" stroke-linejoin="round" />
  <path d="M71.23,17.07 C71.39,16.78 71.54,16.48 71.68,16.18" fill="currentColor" stroke="currentColor" stroke-width="1.2" stroke-linecap="round" stroke-linejoin="round" />
  <line x1="70.03" y1="18.86" x2="69.30" y2="14.56" fill="currentColor" stroke="currentColor" stroke-width="1.2" stroke-linecap="round" stroke-linejoin="round" />
  <path d="M40.27,16.81 C40.33,16.80 40.40,16.80 40.49,16.80" fill="currentColor" stroke="currentColor" stroke-width="1.2" stroke-linecap="round" stroke-linejoin="round" />
  <path d="M40.49,16.80 C40.58,16.80 40.65,16.80 40.71,16.81" fill="currentColor" stroke="currentColor" stroke-width="1.2" stroke-linecap="round" stroke-linejoin="round" />
  <path d="M40.12,16.85 C40.16,16.83 40.21,16.82 40.27,16.81" fill="currentColor" stroke="currentColor" stroke-width="1.2" stroke-linecap="round" stroke-linejoin="round" />
  <path d="M40.71,16.81 C40.77,16.82 40.82,16.83 40.85,16.85" fill="currentColor" stroke="currentColor" stroke-width="1.2" stroke-linecap="round" stroke-linejoin="round" />
  <path d="M40.05,16.90 C40.06,16.88 40.09,16.86 40.12,16.85" fill="currentColor" stroke="currentColor" stroke-width="1.2" stroke-linecap="round" stroke-linejoin="round" />
  <path d="M40.85,16.85 C40.89,16.86 40.91,16.88 40.93,16.90" fill="currentColor" stroke="currentColor" stroke-width="1.2" stroke-linecap="round" stroke-linejoin="round" />
  <path d="M40.02,16.97 C40.02,16.94 40.03,16.92 40.05,16.90" fill="currentColor" stroke="currentColor" stroke-width="1.2" stroke-linecap="round" stroke-linejoin="round" />
  <path d="M40.93,16.90 C40.94,16.92 40.95,16.94 40.95,16.97" fill="currentColor" stroke="currentColor" stroke-width="1.2" stroke-linecap="round" stroke-linejoin="round" />
  <path d="M72.38,16.45 C72.21,16.80 72.01,17.17 71.79,17.55" fill="currentColor" stroke="currentColor" stroke-width="1.2" stroke-linecap="round" stroke-linejoin="round" />
  <line x1="74.91" y1="17.72" x2="78.15" y2="16.64" fill="currentColor" stroke="currentColor" stroke-width="1.2" stroke-linecap="round" stroke-linejoin="round" />
  <line x1="78.15" y1="16.64" x2="81.39" y2="17.72" fill="currentColor" stroke="currentColor" stroke-width="1.2" stroke-linecap="round" stroke-linejoin="round" />
  <path d="M70.68,17.94 C70.88,17.65 71.06,17.37 71.23,17.07" fill="currentColor" stroke="currentColor" stroke-width="1.2" stroke-linecap="round" stroke-linejoin="round" />
  <line x1="70.67" y1="17.94" x2="70.68" y2="17.94" fill="currentColor" stroke="currentColor" stroke-width="1.2" stroke-linecap="round" stroke-linejoin="round" />
  <path d="M71.79,17.55 C71.56,17.93 71.29,18.33 70.98,18.75" fill="currentColor" stroke="currentColor" stroke-width="1.2" stroke-linecap="round" stroke-linejoin="round" />
  <line x1="70.98" y1="18.75" x2="69.71" y2="20.47" fill="currentColor" stroke="currentColor" stroke-width="1.2" stroke-linecap="round" stroke-linejoin="round" />
  <line x1="68.84" y1="20.38" x2="70.03" y2="18.86" fill="currentColor" stroke="currentColor" stroke-width="1.2" stroke-linecap="round" stroke-linejoin="round" />
  <line x1="40.95" y1="16.97" x2="40.95" y2="22.98" fill="currentColor" stroke="currentColor" stroke-width="1.2" stroke-linecap="round" stroke-linejoin="round" />
  <line x1="40.02" y1="23.41" x2="40.02" y2="16.97" fill="currentColor" stroke="currentColor" stroke-width="1.2" stroke-linecap="round" stroke-linejoin="round" />
  <path d="M68.78,20.50 C68.78,20.47 68.80,20.43 68.84,20.38" fill="currentColor" stroke="currentColor" stroke-width="1.2" stroke-linecap="round" stroke-linejoin="round" />
  <path d="M69.71,20.47 C69.69,20.50 69.67,20.52 69.64,20.54" fill="currentColor" stroke="currentColor" stroke-width="1.2" stroke-linecap="round" stroke-linejoin="round" />
  <path d="M68.82,20.58 C68.79,20.56 68.78,20.53 68.78,20.50" fill="currentColor" stroke="currentColor" stroke-width="1.2" stroke-linecap="round" stroke-linejoin="round" />
  <path d="M69.64,20.54 C69.61,20.56 69.57,20.58 69.53,20.59" fill="currentColor" stroke="currentColor" stroke-width="1.2" stroke-linecap="round" stroke-linejoin="round" />
  <path d="M68.95,20.62 C68.89,20.61 68.85,20.60 68.82,20.58" fill="currentColor" stroke="currentColor" stroke-width="1.2" stroke-linecap="round" stroke-linejoin="round" />
  <path d="M69.53,20.59 C69.49,20.61 69.44,20.62 69.38,20.62" fill="currentColor" stroke="currentColor" stroke-width="1.2" stroke-linecap="round" stroke-linejoin="round" />
  <path d="M69.17,20.63 C69.08,20.63 69.01,20.63 68.95,20.62" fill="currentColor" stroke="currentColor" stroke-width="1.2" stroke-linecap="round" stroke-linejoin="round" />
  <path d="M69.38,20.62 C69.32,20.63 69.25,20.63 69.17,20.63" fill="currentColor" stroke="currentColor" stroke-width="1.2" stroke-linecap="round" stroke-linejoin="round" />
  <line x1="40.95" y1="22.98" x2="43.44" y2="22.98" fill="currentColor" stroke="currentColor" stroke-width="1.2" stroke-linecap="round" stroke-linejoin="round" />
  <path d="M43.44,22.98 C43.47,22.98 43.50,22.99 43.52,23.01" fill="currentColor" stroke="currentColor" stroke-width="1.2" stroke-linecap="round" stroke-linejoin="round" />
  <path d="M43.52,23.01 C43.55,23.02 43.57,23.05 43.58,23.08" fill="currentColor" stroke="currentColor" stroke-width="1.2" stroke-linecap="round" stroke-linejoin="round" />
  <path d="M43.58,23.08 C43.60,23.11 43.61,23.15 43.62,23.20" fill="currentColor" stroke="currentColor" stroke-width="1.2" stroke-linecap="round" stroke-linejoin="round" />
  <path d="M43.62,23.20 C43.62,23.25 43.63,23.31 43.63,23.38" fill="currentColor" stroke="currentColor" stroke-width="1.2" stroke-linecap="round" stroke-linejoin="round" />
  <path d="M43.63,23.38 C43.63,23.45 43.62,23.51 43.62,23.56" fill="currentColor" stroke="currentColor" stroke-width="1.2" stroke-linecap="round" stroke-linejoin="round" />
  <path d="M40.13,23.70 C40.06,23.64 40.02,23.55 40.02,23.41" fill="currentColor" stroke="currentColor" stroke-width="1.2" stroke-linecap="round" stroke-linejoin="round" />
  <path d="M43.62,23.56 C43.61,23.61 43.60,23.65 43.58,23.68" fill="currentColor" stroke="currentColor" stroke-width="1.2" stroke-linecap="round" stroke-linejoin="round" />
  <path d="M43.58,23.68 C43.57,23.72 43.55,23.74 43.52,23.76" fill="currentColor" stroke="currentColor" stroke-width="1.2" stroke-linecap="round" stroke-linejoin="round" />
  <path d="M40.37,23.78 C40.29,23.78 40.21,23.76 40.13,23.70" fill="currentColor" stroke="currentColor" stroke-width="1.2" stroke-linecap="round" stroke-linejoin="round" />
  <path d="M43.52,23.76 C43.50,23.77 43.47,23.78 43.44,23.78" fill="currentColor" stroke="currentColor" stroke-width="1.2" stroke-linecap="round" stroke-linejoin="round" />
  <line x1="43.44" y1="23.78" x2="40.37" y2="23.78" fill="currentColor" stroke="currentColor" stroke-width="1.2" stroke-linecap="round" stroke-linejoin="round" />
  <line x1="15.02" y1="30.56" x2="142.33" y2="30.56" fill="none" stroke="currentColor" stroke-width="1.0" stroke-linecap="round" stroke-linejoin="round" />
  <line x1="15.02" y1="44.76" x2="142.33" y2="44.76" fill="none" stroke="currentColor" stroke-width="1.0" stroke-linecap="round" stroke-linejoin="round" />
  <line x1="15.02" y1="58.97" x2="142.33" y2="58.97" fill="none" stroke="currentColor" stroke-width="1.0" stroke-linecap="round" stroke-linejoin="round" />
  <line x1="15.02" y1="73.17" x2="142.33" y2="73.17" fill="none" stroke="currentColor" stroke-width="1.0" stroke-linecap="round" stroke-linejoin="round" />
  <line x1="78.15" y1="152.88" x2="78.15" y2="16.10" fill="none" stroke="currentColor" stroke-width="1.4000000476837158" stroke-linecap="round" stroke-linejoin="round" />
  <line x1="92.38" y1="148.89" x2="92.38" y2="24.84" fill="none" stroke="currentColor" stroke-width="1.0" stroke-linecap="round" stroke-linejoin="round" />
  <line x1="106.59" y1="148.89" x2="106.59" y2="24.84" fill="none" stroke="currentColor" stroke-width="1.0" stroke-linecap="round" stroke-linejoin="round" />
  <line x1="120.79" y1="148.89" x2="120.79" y2="24.84" fill="none" stroke="currentColor" stroke-width="1.0" stroke-linecap="round" stroke-linejoin="round" />
  <line x1="134.99" y1="148.89" x2="134.99" y2="24.84" fill="none" stroke="currentColor" stroke-width="1.0" stroke-linecap="round" stroke-linejoin="round" />
  <line x1="45.89" y1="24.84" x2="128.73" y2="148.96" fill="none" stroke="currentColor" stroke-width="1.4000000476837158" stroke-linecap="round" stroke-linejoin="round" />
  <line x1="21.54" y1="148.96" x2="21.54" y2="24.91" fill="none" stroke="currentColor" stroke-width="1.0" stroke-linecap="round" stroke-linejoin="round" />
  <line x1="35.75" y1="148.96" x2="35.75" y2="24.91" fill="none" stroke="currentColor" stroke-width="1.0" stroke-linecap="round" stroke-linejoin="round" />
  <line x1="49.95" y1="148.96" x2="49.95" y2="24.91" fill="none" stroke="currentColor" stroke-width="1.0" stroke-linecap="round" stroke-linejoin="round" />
  <line x1="64.15" y1="148.96" x2="64.15" y2="24.91" fill="none" stroke="currentColor" stroke-width="1.0" stroke-linecap="round" stroke-linejoin="round" />
  <line x1="15.02" y1="87.35" x2="142.33" y2="87.35" fill="none" stroke="currentColor" stroke-width="1.0" stroke-linecap="round" stroke-linejoin="round" />
  <path d="M72.64,98.39 C72.68,98.39 72.73,98.38 72.79,98.38" fill="currentColor" stroke="currentColor" stroke-width="1.2" stroke-linecap="round" stroke-linejoin="round" />
  <path d="M72.79,98.38 C72.87,98.38 72.93,98.39 72.98,98.39" fill="currentColor" stroke="currentColor" stroke-width="1.2" stroke-linecap="round" stroke-linejoin="round" />
  <path d="M72.54,98.40 C72.57,98.39 72.60,98.39 72.64,98.39" fill="currentColor" stroke="currentColor" stroke-width="1.2" stroke-linecap="round" stroke-linejoin="round" />
  <path d="M72.98,98.39 C73.04,98.40 73.07,98.41 73.10,98.42" fill="currentColor" stroke="currentColor" stroke-width="1.2" stroke-linecap="round" stroke-linejoin="round" />
  <path d="M72.46,98.42 C72.49,98.41 72.51,98.41 72.54,98.40" fill="currentColor" stroke="currentColor" stroke-width="1.2" stroke-linecap="round" stroke-linejoin="round" />
  <path d="M72.42,98.44 C72.43,98.43 72.45,98.42 72.46,98.42" fill="currentColor" stroke="currentColor" stroke-width="1.2" stroke-linecap="round" stroke-linejoin="round" />
  <path d="M73.10,98.42 C73.13,98.43 73.15,98.45 73.16,98.46" fill="currentColor" stroke="currentColor" stroke-width="1.2" stroke-linecap="round" stroke-linejoin="round" />
  <path d="M73.16,98.46 C73.17,98.48 73.18,98.50 73.18,98.52" fill="currentColor" stroke="currentColor" stroke-width="1.2" stroke-linecap="round" stroke-linejoin="round" />
  <line x1="70.96" y1="99.38" x2="72.42" y2="98.44" fill="currentColor" stroke="currentColor" stroke-width="1.2" stroke-linecap="round" stroke-linejoin="round" />
  <path d="M70.89,99.43 C70.91,99.41 70.93,99.39 70.96,99.38" fill="currentColor" stroke="currentColor" stroke-width="1.2" stroke-linecap="round" stroke-linejoin="round" />
  <path d="M70.85,99.50 C70.86,99.48 70.87,99.45 70.89,99.43" fill="currentColor" stroke="currentColor" stroke-width="1.2" stroke-linecap="round" stroke-linejoin="round" />
  <path d="M70.83,99.60 C70.83,99.56 70.84,99.53 70.85,99.50" fill="currentColor" stroke="currentColor" stroke-width="1.2" stroke-linecap="round" stroke-linejoin="round" />
  <line x1="72.34" y1="99.27" x2="71.12" y2="99.99" fill="currentColor" stroke="currentColor" stroke-width="1.2" stroke-linecap="round" stroke-linejoin="round" />
  <path d="M70.82,99.74 C70.82,99.69 70.82,99.64 70.83,99.60" fill="currentColor" stroke="currentColor" stroke-width="1.2" stroke-linecap="round" stroke-linejoin="round" />
  <path d="M70.83,99.93 C70.82,99.88 70.82,99.82 70.82,99.74" fill="currentColor" stroke="currentColor" stroke-width="1.2" stroke-linecap="round" stroke-linejoin="round" />
  <path d="M70.88,100.03 C70.85,100.01 70.84,99.98 70.83,99.93" fill="currentColor" stroke="currentColor" stroke-width="1.2" stroke-linecap="round" stroke-linejoin="round" />
  <path d="M71.12,99.99 C71.06,100.03 71.01,100.05 70.97,100.05" fill="currentColor" stroke="currentColor" stroke-width="1.2" stroke-linecap="round" stroke-linejoin="round" />
  <path d="M70.97,100.05 C70.93,100.06 70.90,100.05 70.88,100.03" fill="currentColor" stroke="currentColor" stroke-width="1.2" stroke-linecap="round" stroke-linejoin="round" />
  <line x1="73.18" y1="98.52" x2="73.18" y2="104.07" fill="currentColor" stroke="currentColor" stroke-width="1.2" stroke-linecap="round" stroke-linejoin="round" />
  <line x1="75.51" y1="101.57" x2="80.83" y2="101.57" fill="none" stroke="currentColor" stroke-width="1.000000011920929" stroke-linecap="round" stroke-linejoin="round" />
  <line x1="15.02" y1="101.57" x2="142.33" y2="101.57" fill="none" stroke="currentColor" stroke-width="1.0" stroke-linecap="round" stroke-linejoin="round" />
  <line x1="72.34" y1="104.07" x2="72.34" y2="99.27" fill="currentColor" stroke="currentColor" stroke-width="1.2" stroke-linecap="round" stroke-linejoin="round" />
  <line x1="71.02" y1="104.07" x2="72.34" y2="104.07" fill="currentColor" stroke="currentColor" stroke-width="1.2" stroke-linecap="round" stroke-linejoin="round" />
  <line x1="73.18" y1="104.07" x2="74.32" y2="104.07" fill="currentColor" stroke="currentColor" stroke-width="1.2" stroke-linecap="round" stroke-linejoin="round" />
  <path d="M70.95,104.09 C70.97,104.08 70.99,104.07 71.02,104.07" fill="currentColor" stroke="currentColor" stroke-width="1.2" stroke-linecap="round" stroke-linejoin="round" />
  <path d="M74.32,104.07 C74.35,104.07 74.37,104.08 74.39,104.09" fill="currentColor" stroke="currentColor" stroke-width="1.2" stroke-linecap="round" stroke-linejoin="round" />
  <path d="M70.90,104.16 C70.91,104.13 70.93,104.11 70.95,104.09" fill="currentColor" stroke="currentColor" stroke-width="1.2" stroke-linecap="round" stroke-linejoin="round" />
  <path d="M74.39,104.09 C74.42,104.11 74.43,104.13 74.45,104.16" fill="currentColor" stroke="currentColor" stroke-width="1.2" stroke-linecap="round" stroke-linejoin="round" />
  <path d="M70.86,104.26 C70.87,104.22 70.88,104.18 70.90,104.16" fill="currentColor" stroke="currentColor" stroke-width="1.2" stroke-linecap="round" stroke-linejoin="round" />
  <path d="M74.45,104.16 C74.46,104.18 74.48,104.22 74.48,104.26" fill="currentColor" stroke="currentColor" stroke-width="1.2" stroke-linecap="round" stroke-linejoin="round" />
  <path d="M70.84,104.41 C70.84,104.35 70.85,104.30 70.86,104.26" fill="currentColor" stroke="currentColor" stroke-width="1.2" stroke-linecap="round" stroke-linejoin="round" />
  <path d="M74.48,104.26 C74.49,104.30 74.50,104.35 74.50,104.41" fill="currentColor" stroke="currentColor" stroke-width="1.2" stroke-linecap="round" stroke-linejoin="round" />
  <path d="M74.50,104.41 C74.50,104.48 74.49,104.53 74.48,104.57" fill="currentColor" stroke="currentColor" stroke-width="1.2" stroke-linecap="round" stroke-linejoin="round" />
  <path d="M70.86,104.57 C70.85,104.53 70.84,104.48 70.84,104.41" fill="currentColor" stroke="currentColor" stroke-width="1.2" stroke-linecap="round" stroke-linejoin="round" />
  <path d="M74.48,104.57 C74.47,104.61 74.46,104.65 74.44,104.67" fill="currentColor" stroke="currentColor" stroke-width="1.2" stroke-linecap="round" stroke-linejoin="round" />
  <path d="M70.90,104.67 C70.88,104.65 70.87,104.61 70.86,104.57" fill="currentColor" stroke="currentColor" stroke-width="1.2" stroke-linecap="round" stroke-linejoin="round" />
  <path d="M74.44,104.67 C74.43,104.70 74.41,104.72 74.39,104.73" fill="currentColor" stroke="currentColor" stroke-width="1.2" stroke-linecap="round" stroke-linejoin="round" />
  <path d="M70.96,104.73 C70.94,104.72 70.92,104.70 70.90,104.67" fill="currentColor" stroke="currentColor" stroke-width="1.2" stroke-linecap="round" stroke-linejoin="round" />
  <path d="M74.39,104.73 C74.37,104.74 74.34,104.75 74.32,104.75" fill="currentColor" stroke="currentColor" stroke-width="1.2" stroke-linecap="round" stroke-linejoin="round" />
  <path d="M71.02,104.75 C71.00,104.75 70.98,104.74 70.96,104.73" fill="currentColor" stroke="currentColor" stroke-width="1.2" stroke-linecap="round" stroke-linejoin="round" />
  <line x1="74.32" y1="104.75" x2="71.02" y2="104.75" fill="currentColor" stroke="currentColor" stroke-width="1.2" stroke-linecap="round" stroke-linejoin="round" />
  <line x1="150.06" y1="112.54" x2="151.14" y2="115.78" fill="currentColor" stroke="currentColor" stroke-width="1.2" stroke-linecap="round" stroke-linejoin="round" />
  <line x1="159.78" y1="115.78" x2="150.06" y2="112.54" fill="currentColor" stroke="currentColor" stroke-width="1.2" stroke-linecap="round" stroke-linejoin="round" />
  <line x1="92.38" y1="118.39" x2="92.38" y2="113.09" fill="none" stroke="currentColor" stroke-width="1.000000011920929" stroke-linecap="round" stroke-linejoin="round" />
  <line x1="8.00" y1="115.78" x2="151.68" y2="115.78" fill="none" stroke="currentColor" stroke-width="1.4000000476837158" stroke-linecap="round" stroke-linejoin="round" />
  <line x1="151.14" y1="115.78" x2="150.06" y2="119.02" fill="currentColor" stroke="currentColor" stroke-width="1.2" stroke-linecap="round" stroke-linejoin="round" />
  <line x1="150.06" y1="119.02" x2="159.78" y2="115.78" fill="currentColor" stroke="currentColor" stroke-width="1.2" stroke-linecap="round" stroke-linejoin="round" />
  <path d="M92.37,119.44 C92.40,119.44 92.45,119.43 92.51,119.43" fill="currentColor" stroke="currentColor" stroke-width="1.2" stroke-linecap="round" stroke-linejoin="round" />
  <path d="M92.51,119.43 C92.59,119.43 92.65,119.44 92.71,119.44" fill="currentColor" stroke="currentColor" stroke-width="1.2" stroke-linecap="round" stroke-linejoin="round" />
  <path d="M92.26,119.45 C92.29,119.44 92.33,119.44 92.37,119.44" fill="currentColor" stroke="currentColor" stroke-width="1.2" stroke-linecap="round" stroke-linejoin="round" />
  <path d="M92.71,119.44 C92.76,119.45 92.80,119.46 92.83,119.47" fill="currentColor" stroke="currentColor" stroke-width="1.2" stroke-linecap="round" stroke-linejoin="round" />
  <path d="M92.19,119.47 C92.21,119.46 92.23,119.46 92.26,119.45" fill="currentColor" stroke="currentColor" stroke-width="1.2" stroke-linecap="round" stroke-linejoin="round" />
  <path d="M92.14,119.49 C92.15,119.48 92.17,119.47 92.19,119.47" fill="currentColor" stroke="currentColor" stroke-width="1.2" stroke-linecap="round" stroke-linejoin="round" />
  <path d="M92.83,119.47 C92.86,119.48 92.88,119.50 92.89,119.51" fill="currentColor" stroke="currentColor" stroke-width="1.2" stroke-linecap="round" stroke-linejoin="round" />
  <path d="M92.89,119.51 C92.90,119.53 92.90,119.55 92.90,119.57" fill="currentColor" stroke="currentColor" stroke-width="1.2" stroke-linecap="round" stroke-linejoin="round" />
  <line x1="90.68" y1="120.43" x2="92.14" y2="119.49" fill="currentColor" stroke="currentColor" stroke-width="1.2" stroke-linecap="round" stroke-linejoin="round" />
  <path d="M90.61,120.48 C90.63,120.46 90.66,120.44 90.68,120.43" fill="currentColor" stroke="currentColor" stroke-width="1.2" stroke-linecap="round" stroke-linejoin="round" />
  <path d="M90.57,120.55 C90.58,120.53 90.60,120.50 90.61,120.48" fill="currentColor" stroke="currentColor" stroke-width="1.2" stroke-linecap="round" stroke-linejoin="round" />
  <path d="M90.55,120.65 C90.56,120.61 90.56,120.58 90.57,120.55" fill="currentColor" stroke="currentColor" stroke-width="1.2" stroke-linecap="round" stroke-linejoin="round" />
  <line x1="92.06" y1="120.32" x2="90.84" y2="121.05" fill="currentColor" stroke="currentColor" stroke-width="1.2" stroke-linecap="round" stroke-linejoin="round" />
  <path d="M90.54,120.79 C90.54,120.74 90.55,120.69 90.55,120.65" fill="currentColor" stroke="currentColor" stroke-width="1.2" stroke-linecap="round" stroke-linejoin="round" />
  <path d="M90.56,120.98 C90.55,120.93 90.54,120.87 90.54,120.79" fill="currentColor" stroke="currentColor" stroke-width="1.2" stroke-linecap="round" stroke-linejoin="round" />
  <path d="M90.60,121.08 C90.58,121.06 90.56,121.03 90.56,120.98" fill="currentColor" stroke="currentColor" stroke-width="1.2" stroke-linecap="round" stroke-linejoin="round" />
  <path d="M90.84,121.05 C90.78,121.08 90.73,121.10 90.69,121.10" fill="currentColor" stroke="currentColor" stroke-width="1.2" stroke-linecap="round" stroke-linejoin="round" />
  <path d="M90.69,121.10 C90.65,121.11 90.62,121.10 90.60,121.08" fill="currentColor" stroke="currentColor" stroke-width="1.2" stroke-linecap="round" stroke-linejoin="round" />
  <path d="M153.07,121.13 C153.16,121.13 153.23,121.13 153.28,121.14" fill="currentColor" stroke="currentColor" stroke-width="1.2" stroke-linecap="round" stroke-linejoin="round" />
  <path d="M155.79,121.14 C155.84,121.13 155.91,121.13 156.00,121.13" fill="currentColor" stroke="currentColor" stroke-width="1.2" stroke-linecap="round" stroke-linejoin="round" />
  <path d="M152.83,121.14 C152.89,121.13 152.97,121.13 153.07,121.13" fill="currentColor" stroke="currentColor" stroke-width="1.2" stroke-linecap="round" stroke-linejoin="round" />
  <path d="M156.00,121.13 C156.10,121.13 156.18,121.13 156.24,121.14" fill="currentColor" stroke="currentColor" stroke-width="1.2" stroke-linecap="round" stroke-linejoin="round" />
  <path d="M153.28,121.14 C153.34,121.14 153.38,121.15 153.40,121.16" fill="currentColor" stroke="currentColor" stroke-width="1.2" stroke-linecap="round" stroke-linejoin="round" />
  <path d="M155.65,121.16 C155.69,121.15 155.73,121.14 155.79,121.14" fill="currentColor" stroke="currentColor" stroke-width="1.2" stroke-linecap="round" stroke-linejoin="round" />
  <path d="M156.24,121.14 C156.30,121.15 156.35,121.16 156.38,121.17" fill="currentColor" stroke="currentColor" stroke-width="1.2" stroke-linecap="round" stroke-linejoin="round" />
  <path d="M152.69,121.18 C152.72,121.16 152.76,121.15 152.83,121.14" fill="currentColor" stroke="currentColor" stroke-width="1.2" stroke-linecap="round" stroke-linejoin="round" />
  <path d="M153.40,121.16 C153.43,121.17 153.45,121.18 153.46,121.20" fill="currentColor" stroke="currentColor" stroke-width="1.2" stroke-linecap="round" stroke-linejoin="round" />
  <path d="M155.57,121.20 C155.59,121.19 155.62,121.17 155.65,121.16" fill="currentColor" stroke="currentColor" stroke-width="1.2" stroke-linecap="round" stroke-linejoin="round" />
  <path d="M156.38,121.17 C156.40,121.19 156.42,121.21 156.41,121.24" fill="currentColor" stroke="currentColor" stroke-width="1.2" stroke-linecap="round" stroke-linejoin="round" />
  <path d="M152.64,121.25 C152.64,121.22 152.66,121.20 152.69,121.18" fill="currentColor" stroke="currentColor" stroke-width="1.2" stroke-linecap="round" stroke-linejoin="round" />
  <path d="M153.46,121.20 C153.47,121.21 153.48,121.23 153.49,121.26" fill="currentColor" stroke="currentColor" stroke-width="1.2" stroke-linecap="round" stroke-linejoin="round" />
  <path d="M155.51,121.26 C155.53,121.24 155.55,121.22 155.57,121.20" fill="currentColor" stroke="currentColor" stroke-width="1.2" stroke-linecap="round" stroke-linejoin="round" />
  <path d="M156.41,121.24 C156.41,121.28 156.38,121.31 156.34,121.36" fill="currentColor" stroke="currentColor" stroke-width="1.2" stroke-linecap="round" stroke-linejoin="round" />
  <path d="M152.66,121.37 C152.64,121.32 152.63,121.29 152.64,121.25" fill="currentColor" stroke="currentColor" stroke-width="1.2" stroke-linecap="round" stroke-linejoin="round" />
  <line x1="153.49" y1="121.26" x2="154.19" y2="122.90" fill="currentColor" stroke="currentColor" stroke-width="1.2" stroke-linecap="round" stroke-linejoin="round" />
  <line x1="154.19" y1="122.90" x2="155.51" y2="121.26" fill="currentColor" stroke="currentColor" stroke-width="1.2" stroke-linecap="round" stroke-linejoin="round" />
  <line x1="92.90" y1="119.57" x2="92.90" y2="125.12" fill="currentColor" stroke="currentColor" stroke-width="1.2" stroke-linecap="round" stroke-linejoin="round" />
  <line x1="153.56" y1="123.42" x2="152.66" y2="121.37" fill="currentColor" stroke="currentColor" stroke-width="1.2" stroke-linecap="round" stroke-linejoin="round" />
  <line x1="156.34" y1="121.36" x2="154.63" y2="123.43" fill="currentColor" stroke="currentColor" stroke-width="1.2" stroke-linecap="round" stroke-linejoin="round" />
  <line x1="92.06" y1="125.12" x2="92.06" y2="120.32" fill="currentColor" stroke="currentColor" stroke-width="1.2" stroke-linecap="round" stroke-linejoin="round" />
  <line x1="151.74" y1="125.59" x2="153.56" y2="123.42" fill="currentColor" stroke="currentColor" stroke-width="1.2" stroke-linecap="round" stroke-linejoin="round" />
  <line x1="154.63" y1="123.43" x2="155.58" y2="125.58" fill="currentColor" stroke="currentColor" stroke-width="1.2" stroke-linecap="round" stroke-linejoin="round" />
  <line x1="154.72" y1="125.69" x2="153.99" y2="123.96" fill="currentColor" stroke="currentColor" stroke-width="1.2" stroke-linecap="round" stroke-linejoin="round" />
  <line x1="153.99" y1="123.96" x2="152.61" y2="125.69" fill="currentColor" stroke="currentColor" stroke-width="1.2" stroke-linecap="round" stroke-linejoin="round" />
  <line x1="90.74" y1="125.12" x2="92.06" y2="125.12" fill="currentColor" stroke="currentColor" stroke-width="1.2" stroke-linecap="round" stroke-linejoin="round" />
  <line x1="92.90" y1="125.12" x2="94.04" y2="125.12" fill="currentColor" stroke="currentColor" stroke-width="1.2" stroke-linecap="round" stroke-linejoin="round" />
  <path d="M90.67,125.14 C90.69,125.13 90.72,125.12 90.74,125.12" fill="currentColor" stroke="currentColor" stroke-width="1.2" stroke-linecap="round" stroke-linejoin="round" />
  <path d="M94.04,125.12 C94.07,125.12 94.10,125.13 94.12,125.14" fill="currentColor" stroke="currentColor" stroke-width="1.2" stroke-linecap="round" stroke-linejoin="round" />
  <path d="M90.62,125.21 C90.63,125.18 90.65,125.16 90.67,125.14" fill="currentColor" stroke="currentColor" stroke-width="1.2" stroke-linecap="round" stroke-linejoin="round" />
  <path d="M94.12,125.14 C94.14,125.16 94.16,125.18 94.17,125.21" fill="currentColor" stroke="currentColor" stroke-width="1.2" stroke-linecap="round" stroke-linejoin="round" />
  <path d="M90.58,125.31 C90.59,125.27 90.60,125.24 90.62,125.21" fill="currentColor" stroke="currentColor" stroke-width="1.2" stroke-linecap="round" stroke-linejoin="round" />
  <path d="M94.17,125.21 C94.19,125.24 94.20,125.27 94.21,125.31" fill="currentColor" stroke="currentColor" stroke-width="1.2" stroke-linecap="round" stroke-linejoin="round" />
  <path d="M90.57,125.46 C90.57,125.41 90.57,125.36 90.58,125.31" fill="currentColor" stroke="currentColor" stroke-width="1.2" stroke-linecap="round" stroke-linejoin="round" />
  <path d="M94.21,125.31 C94.22,125.36 94.22,125.41 94.22,125.46" fill="currentColor" stroke="currentColor" stroke-width="1.2" stroke-linecap="round" stroke-linejoin="round" />
  <path d="M94.22,125.46 C94.22,125.53 94.21,125.58 94.21,125.62" fill="currentColor" stroke="currentColor" stroke-width="1.2" stroke-linecap="round" stroke-linejoin="round" />
  <path d="M90.58,125.62 C90.57,125.58 90.57,125.53 90.57,125.46" fill="currentColor" stroke="currentColor" stroke-width="1.2" stroke-linecap="round" stroke-linejoin="round" />
  <path d="M155.58,125.58 C155.60,125.63 155.61,125.67 155.61,125.70" fill="currentColor" stroke="currentColor" stroke-width="1.2" stroke-linecap="round" stroke-linejoin="round" />
  <path d="M151.68,125.70 C151.69,125.67 151.70,125.63 151.74,125.59" fill="currentColor" stroke="currentColor" stroke-width="1.2" stroke-linecap="round" stroke-linejoin="round" />
  <path d="M94.21,125.62 C94.20,125.66 94.18,125.70 94.17,125.72" fill="currentColor" stroke="currentColor" stroke-width="1.2" stroke-linecap="round" stroke-linejoin="round" />
  <path d="M90.62,125.72 C90.61,125.70 90.59,125.66 90.58,125.62" fill="currentColor" stroke="currentColor" stroke-width="1.2" stroke-linecap="round" stroke-linejoin="round" />
  <path d="M154.75,125.75 C154.74,125.73 154.73,125.71 154.72,125.69" fill="currentColor" stroke="currentColor" stroke-width="1.2" stroke-linecap="round" stroke-linejoin="round" />
  <path d="M152.61,125.69 C152.59,125.71 152.57,125.73 152.55,125.75" fill="currentColor" stroke="currentColor" stroke-width="1.2" stroke-linecap="round" stroke-linejoin="round" />
  <path d="M155.61,125.70 C155.60,125.73 155.58,125.75 155.55,125.77" fill="currentColor" stroke="currentColor" stroke-width="1.2" stroke-linecap="round" stroke-linejoin="round" />
  <path d="M151.71,125.77 C151.69,125.75 151.68,125.73 151.68,125.70" fill="currentColor" stroke="currentColor" stroke-width="1.2" stroke-linecap="round" stroke-linejoin="round" />
  <path d="M94.17,125.72 C94.15,125.75 94.13,125.77 94.11,125.78" fill="currentColor" stroke="currentColor" stroke-width="1.2" stroke-linecap="round" stroke-linejoin="round" />
  <path d="M90.68,125.78 C90.66,125.77 90.64,125.75 90.62,125.72" fill="currentColor" stroke="currentColor" stroke-width="1.2" stroke-linecap="round" stroke-linejoin="round" />
  <path d="M152.55,125.75 C152.53,125.77 152.50,125.78 152.46,125.79" fill="currentColor" stroke="currentColor" stroke-width="1.2" stroke-linecap="round" stroke-linejoin="round" />
  <path d="M154.81,125.80 C154.78,125.78 154.76,125.77 154.75,125.75" fill="currentColor" stroke="currentColor" stroke-width="1.2" stroke-linecap="round" stroke-linejoin="round" />
  <path d="M94.11,125.78 C94.09,125.79 94.07,125.80 94.04,125.80" fill="currentColor" stroke="currentColor" stroke-width="1.2" stroke-linecap="round" stroke-linejoin="round" />
  <path d="M90.74,125.80 C90.72,125.80 90.70,125.79 90.68,125.78" fill="currentColor" stroke="currentColor" stroke-width="1.2" stroke-linecap="round" stroke-linejoin="round" />
  <path d="M155.55,125.77 C155.51,125.79 155.46,125.81 155.40,125.81" fill="currentColor" stroke="currentColor" stroke-width="1.2" stroke-linecap="round" stroke-linejoin="round" />
  <path d="M151.84,125.81 C151.79,125.81 151.74,125.79 151.71,125.77" fill="currentColor" stroke="currentColor" stroke-width="1.2" stroke-linecap="round" stroke-linejoin="round" />
  <line x1="94.04" y1="125.80" x2="90.74" y2="125.80" fill="currentColor" stroke="currentColor" stroke-width="1.2" stroke-linecap="round" stroke-linejoin="round" />
  <path d="M152.46,125.79 C152.42,125.80 152.37,125.81 152.31,125.82" fill="currentColor" stroke="currentColor" stroke-width="1.2" stroke-linecap="round" stroke-linejoin="round" />
  <path d="M154.93,125.82 C154.88,125.81 154.84,125.81 154.81,125.80" fill="currentColor" stroke="currentColor" stroke-width="1.2" stroke-linecap="round" stroke-linejoin="round" />
  <path d="M155.40,125.81 C155.33,125.82 155.25,125.83 155.15,125.83" fill="currentColor" stroke="currentColor" stroke-width="1.2" stroke-linecap="round" stroke-linejoin="round" />
  <path d="M152.07,125.83 C151.98,125.83 151.90,125.82 151.84,125.81" fill="currentColor" stroke="currentColor" stroke-width="1.2" stroke-linecap="round" stroke-linejoin="round" />
  <path d="M152.31,125.82 C152.25,125.82 152.17,125.83 152.07,125.83" fill="currentColor" stroke="currentColor" stroke-width="1.2" stroke-linecap="round" stroke-linejoin="round" />
  <path d="M155.15,125.83 C155.06,125.83 154.99,125.82 154.93,125.82" fill="currentColor" stroke="currentColor" stroke-width="1.2" stroke-linecap="round" stroke-linejoin="round" />
  <line x1="15.02" y1="129.98" x2="142.33" y2="129.98" fill="none" stroke="currentColor" stroke-width="1.0" stroke-linecap="round" stroke-linejoin="round" />
  <line x1="15.02" y1="144.18" x2="142.33" y2="144.18" fill="none" stroke="currentColor" stroke-width="1.0" stroke-linecap="round" stroke-linejoin="round" />
</svg>