<svg xmlns="http://www.w3.org/2000/svg" viewBox="0 0 189.17 128.19" preserveAspectRatio="xMidYMid meet" shape-rendering="geometricPrecision" text-rendering="optimizeLegibility">
  <path d="M179.28,8.07 C179.01,8.02 178.75,8.00 178.49,8.00" fill="currentColor" stroke="currentColor" stroke-width="1.2" stroke-linecap="round" stroke-linejoin="round" />
  <path d="M178.49,8.00 C177.88,8.00 177.32,8.10 176.82,8.30" fill="currentColor" stroke="currentColor" stroke-width="1.2" stroke-linecap="round" stroke-linejoin="round" />
  <path d="M180.13,8.27 C179.83,8.17 179.55,8.11 179.28,8.07" fill="currentColor" stroke="currentColor" stroke-width="1.2" stroke-linecap="round" stroke-linejoin="round" />
  <path d="M181.09,8.62 C180.75,8.48 180.43,8.36 180.13,8.27" fill="currentColor" stroke="currentColor" stroke-width="1.2" stroke-linecap="round" stroke-linejoin="round" />
  <path d="M176.82,8.30 C176.31,8.50 175.87,8.78 175.50,9.13" fill="currentColor" stroke="currentColor" stroke-width="1.2" stroke-linecap="round" stroke-linejoin="round" />
  <path d="M177.27,9.22 C177.64,9.08 178.04,9.00 178.48,9.00" fill="currentColor" stroke="currentColor" stroke-width="1.2" stroke-linecap="round" stroke-linejoin="round" />
  <path d="M178.48,9.00 C178.91,9.00 179.34,9.07 179.77,9.19" fill="currentColor" stroke="currentColor" stroke-width="1.2" stroke-linecap="round" stroke-linejoin="round" />
  <path d="M175.50,9.13 C175.13,9.49 174.84,9.92 174.64,10.40" fill="currentColor" stroke="currentColor" stroke-width="1.2" stroke-linecap="round" stroke-linejoin="round" />
  <path d="M179.77,9.19 C180.19,9.32 180.63,9.52 181.09,9.79" fill="currentColor" stroke="currentColor" stroke-width="1.2" stroke-linecap="round" stroke-linejoin="round" />
  <path d="M176.31,9.83 C176.58,9.57 176.90,9.36 177.27,9.22" fill="currentColor" stroke="currentColor" stroke-width="1.2" stroke-linecap="round" stroke-linejoin="round" />
  <path d="M175.68,10.75 C175.83,10.39 176.04,10.09 176.31,9.83" fill="currentColor" stroke="currentColor" stroke-width="1.2" stroke-linecap="round" stroke-linejoin="round" />
  <path d="M174.64,10.40 C174.43,10.89 174.33,11.42 174.32,12.01" fill="currentColor" stroke="currentColor" stroke-width="1.2" stroke-linecap="round" stroke-linejoin="round" />
  <path d="M175.45,11.91 C175.45,11.49 175.53,11.10 175.68,10.75" fill="currentColor" stroke="currentColor" stroke-width="1.2" stroke-linecap="round" stroke-linejoin="round" />
  <path d="M175.84,13.41 C175.58,12.98 175.45,12.48 175.45,11.91" fill="currentColor" stroke="currentColor" stroke-width="1.2" stroke-linecap="round" stroke-linejoin="round" />
  <path d="M174.32,12.01 C174.32,12.33 174.38,12.66 174.48,13.01" fill="currentColor" stroke="currentColor" stroke-width="1.2" stroke-linecap="round" stroke-linejoin="round" />
  <path d="M174.48,13.01 C174.58,13.36 174.73,13.70 174.95,14.03" fill="currentColor" stroke="currentColor" stroke-width="1.2" stroke-linecap="round" stroke-linejoin="round" />
  <path d="M176.91,14.42 C176.45,14.18 176.10,13.84 175.84,13.41" fill="currentColor" stroke="currentColor" stroke-width="1.2" stroke-linecap="round" stroke-linejoin="round" />
  <line x1="181.17" y1="15.12" x2="181.17" y2="13.93" fill="currentColor" stroke="currentColor" stroke-width="1.2" stroke-linecap="round" stroke-linejoin="round" />
  <path d="M181.17,13.93 C180.74,14.21 180.30,14.42 179.85,14.57" fill="currentColor" stroke="currentColor" stroke-width="1.2" stroke-linecap="round" stroke-linejoin="round" />
  <path d="M174.95,14.03 C175.16,14.35 175.42,14.65 175.75,14.92" fill="currentColor" stroke="currentColor" stroke-width="1.2" stroke-linecap="round" stroke-linejoin="round" />
  <path d="M178.52,14.79 C177.91,14.79 177.37,14.66 176.91,14.42" fill="currentColor" stroke="currentColor" stroke-width="1.2" stroke-linecap="round" stroke-linejoin="round" />
  <path d="M179.85,14.57 C179.39,14.71 178.95,14.79 178.52,14.79" fill="currentColor" stroke="currentColor" stroke-width="1.2" stroke-linecap="round" stroke-linejoin="round" />
  <path d="M175.75,14.92 C176.07,15.18 176.46,15.39 176.90,15.55" fill="currentColor" stroke="currentColor" stroke-width="1.2" stroke-linecap="round" stroke-linejoin="round" />
  <path d="M180.39,15.47 C180.66,15.37 180.93,15.25 181.17,15.12" fill="currentColor" stroke="currentColor" stroke-width="1.2" stroke-linecap="round" stroke-linejoin="round" />
  <path d="M179.50,15.71 C179.82,15.65 180.12,15.57 180.39,15.47" fill="currentColor" stroke="currentColor" stroke-width="1.2" stroke-linecap="round" stroke-linejoin="round" />
  <path d="M176.90,15.55 C177.35,15.71 177.85,15.79 178.42,15.79" fill="currentColor" stroke="currentColor" stroke-width="1.2" stroke-linecap="round" stroke-linejoin="round" />
  <path d="M178.42,15.79 C178.82,15.79 179.18,15.76 179.50,15.71" fill="currentColor" stroke="currentColor" stroke-width="1.2" stroke-linecap="round" stroke-linejoin="round" />
  <line x1="175.24" y1="18.44" x2="175.23" y2="17.39" fill="currentColor" stroke="currentColor" stroke-width="1.2" stroke-linecap="round" stroke-linejoin="round" />
  <line x1="175.23" y1="17.39" x2="174.40" y2="18.00" fill="currentColor" stroke="currentColor" stroke-width="1.2" stroke-linecap="round" stroke-linejoin="round" />
  <line x1="174.40" y1="18.00" x2="174.40" y2="18.44" fill="currentColor" stroke="currentColor" stroke-width="1.2" stroke-linecap="round" stroke-linejoin="round" />
  <line x1="174.58" y1="109.77" x2="174.58" y2="18.39" fill="none" stroke="currentColor" stroke-width="1.5919999599456787" stroke-linecap="round" stroke-linejoin="round" />
  <line x1="174.40" y1="18.44" x2="175.24" y2="18.44" fill="currentColor" stroke="currentColor" stroke-width="1.2" stroke-linecap="round" stroke-linejoin="round" />
  <line x1="174.85" y1="18.54" x2="37.97" y2="109.89" fill="none" stroke="currentColor" stroke-width="1.5919999599456787" stroke-linecap="round" stroke-linejoin="round" />
  <path d="M174.80,30.60 C170.60,30.86 166.57,28.88 164.20,25.44" fill="none" stroke="currentColor" stroke-width="1.127999973297119" stroke-linecap="round" stroke-linejoin="round" />
  <line x1="167.27" y1="31.36" x2="166.09" y2="31.36" fill="currentColor" stroke="currentColor" stroke-width="1.2" stroke-linecap="round" stroke-linejoin="round" />
  <line x1="166.09" y1="31.36" x2="164.79" y2="33.05" fill="currentColor" stroke="currentColor" stroke-width="1.2" stroke-linecap="round" stroke-linejoin="round" />
  <line x1="164.79" y1="33.05" x2="164.00" y2="31.36" fill="currentColor" stroke="currentColor" stroke-width="1.2" stroke-linecap="round" stroke-linejoin="round" />
  <line x1="164.00" y1="31.36" x2="162.99" y2="31.36" fill="currentColor" stroke="currentColor" stroke-width="1.2" stroke-linecap="round" stroke-linejoin="round" />
  <line x1="162.99" y1="31.36" x2="164.17" y2="33.71" fill="currentColor" stroke="currentColor" stroke-width="1.2" stroke-linecap="round" stroke-linejoin="round" />
  <line x1="164.17" y1="33.71" x2="161.99" y2="36.36" fill="currentColor" stroke="currentColor" stroke-width="1.2" stroke-linecap="round" stroke-linejoin="round" />
  <line x1="166.52" y1="36.36" x2="165.25" y2="33.84" fill="currentColor" stroke="currentColor" stroke-width="1.2" stroke-linecap="round" stroke-linejoin="round" />
  <line x1="163.14" y1="36.36" x2="164.59" y2="34.49" fill="currentColor" stroke="currentColor" stroke-width="1.2" stroke-linecap="round" stroke-linejoin="round" />
  <line x1="164.59" y1="34.49" x2="165.50" y2="36.36" fill="currentColor" stroke="currentColor" stroke-width="1.2" stroke-linecap="round" stroke-linejoin="round" />
  <line x1="161.99" y1="36.36" x2="163.14" y2="36.36" fill="currentColor" stroke="currentColor" stroke-width="1.2" stroke-linecap="round" stroke-linejoin="round" />
  <line x1="165.50" y1="36.36" x2="166.52" y2="36.36" fill="currentColor" stroke="currentColor" stroke-width="1.2" stroke-linecap="round" stroke-linejoin="round" />
  <path d="M133.63,45.93 C136.05,49.66 135.55,54.70 132.22,57.85" fill="none" stroke="currentColor" stroke-width="1.127999973297119" stroke-linecap="round" stroke-linejoin="round" />
  <line x1="125.80" y1="50.94" x2="125.80" y2="109.73" fill="none" stroke="currentColor" stroke-width="1.5919999599456787" stroke-linecap="round" stroke-linejoin="round" />
  <path d="M153.64,52.75 C153.38,52.75 153.15,52.81 152.94,52.93" fill="currentColor" stroke="currentColor" stroke-width="1.2" stroke-linecap="round" stroke-linejoin="round" />
  <path d="M154.34,52.93 C154.13,52.81 153.89,52.75 153.64,52.75" fill="currentColor" stroke="currentColor" stroke-width="1.2" stroke-linecap="round" stroke-linejoin="round" />
  <path d="M152.94,52.93 C152.73,53.05 152.57,53.22 152.45,53.42" fill="currentColor" stroke="currentColor" stroke-width="1.2" stroke-linecap="round" stroke-linejoin="round" />
  <path d="M154.83,53.42 C154.71,53.22 154.54,53.05 154.34,52.93" fill="currentColor" stroke="currentColor" stroke-width="1.2" stroke-linecap="round" stroke-linejoin="round" />
  <line x1="139.67" y1="60.17" x2="139.67" y2="53.12" fill="currentColor" stroke="currentColor" stroke-width="1.2" stroke-linecap="round" stroke-linejoin="round" />
  <line x1="139.67" y1="53.12" x2="139.29" y2="53.12" fill="currentColor" stroke="currentColor" stroke-width="1.2" stroke-linecap="round" stroke-linejoin="round" />
  <line x1="139.29" y1="53.12" x2="136.91" y2="55.06" fill="currentColor" stroke="currentColor" stroke-width="1.2" stroke-linecap="round" stroke-linejoin="round" />
  <path d="M144.67,53.35 C144.36,53.20 144.00,53.12 143.59,53.12" fill="currentColor" stroke="currentColor" stroke-width="1.2" stroke-linecap="round" stroke-linejoin="round" />
  <path d="M143.59,53.12 C143.33,53.12 143.09,53.15 142.88,53.20" fill="currentColor" stroke="currentColor" stroke-width="1.2" stroke-linecap="round" stroke-linejoin="round" />
  <path d="M150.00,53.38 C149.72,53.21 149.41,53.12 149.08,53.12" fill="currentColor" stroke="currentColor" stroke-width="1.2" stroke-linecap="round" stroke-linejoin="round" />
  <path d="M149.08,53.12 C148.74,53.12 148.43,53.21 148.16,53.38" fill="currentColor" stroke="currentColor" stroke-width="1.2" stroke-linecap="round" stroke-linejoin="round" />
  <path d="M142.88,53.20 C142.66,53.24 142.45,53.32 142.25,53.42" fill="currentColor" stroke="currentColor" stroke-width="1.2" stroke-linecap="round" stroke-linejoin="round" />
  <path d="M153.64,53.29 C153.80,53.29 153.94,53.32 154.07,53.40" fill="currentColor" stroke="currentColor" stroke-width="1.2" stroke-linecap="round" stroke-linejoin="round" />
  <path d="M153.21,53.40 C153.34,53.32 153.48,53.29 153.64,53.29" fill="currentColor" stroke="currentColor" stroke-width="1.2" stroke-linecap="round" stroke-linejoin="round" />
  <path d="M145.38,53.98 C145.21,53.71 144.98,53.50 144.67,53.35" fill="currentColor" stroke="currentColor" stroke-width="1.2" stroke-linecap="round" stroke-linejoin="round" />
  <path d="M150.70,54.10 C150.50,53.79 150.27,53.55 150.00,53.38" fill="currentColor" stroke="currentColor" stroke-width="1.2" stroke-linecap="round" stroke-linejoin="round" />
  <path d="M148.16,53.38 C147.88,53.55 147.64,53.79 147.45,54.10" fill="currentColor" stroke="currentColor" stroke-width="1.2" stroke-linecap="round" stroke-linejoin="round" />
  <path d="M154.07,53.40 C154.20,53.47 154.30,53.57 154.37,53.70" fill="currentColor" stroke="currentColor" stroke-width="1.2" stroke-linecap="round" stroke-linejoin="round" />
  <path d="M152.91,53.70 C152.99,53.57 153.09,53.47 153.21,53.40" fill="currentColor" stroke="currentColor" stroke-width="1.2" stroke-linecap="round" stroke-linejoin="round" />
  <path d="M152.45,53.42 C152.32,53.63 152.26,53.86 152.26,54.12" fill="currentColor" stroke="currentColor" stroke-width="1.2" stroke-linecap="round" stroke-linejoin="round" />
  <path d="M155.02,54.12 C155.01,53.86 154.95,53.63 154.83,53.42" fill="currentColor" stroke="currentColor" stroke-width="1.2" stroke-linecap="round" stroke-linejoin="round" />
  <path d="M154.37,53.70 C154.45,53.82 154.48,53.96 154.48,54.12" fill="currentColor" stroke="currentColor" stroke-width="1.2" stroke-linecap="round" stroke-linejoin="round" />
  <path d="M152.80,54.12 C152.80,53.96 152.84,53.82 152.91,53.70" fill="currentColor" stroke="currentColor" stroke-width="1.2" stroke-linecap="round" stroke-linejoin="round" />
  <path d="M145.64,54.94 C145.63,54.57 145.55,54.25 145.38,53.98" fill="currentColor" stroke="currentColor" stroke-width="1.2" stroke-linecap="round" stroke-linejoin="round" />
  <path d="M143.06,54.10 C143.18,54.08 143.31,54.07 143.43,54.07" fill="currentColor" stroke="currentColor" stroke-width="1.2" stroke-linecap="round" stroke-linejoin="round" />
  <path d="M143.43,54.07 C143.68,54.07 143.89,54.12 144.07,54.20" fill="currentColor" stroke="currentColor" stroke-width="1.2" stroke-linecap="round" stroke-linejoin="round" />
  <path d="M148.41,54.39 C148.59,54.18 148.82,54.07 149.08,54.07" fill="currentColor" stroke="currentColor" stroke-width="1.2" stroke-linecap="round" stroke-linejoin="round" />
  <path d="M149.08,54.07 C149.34,54.07 149.56,54.18 149.75,54.39" fill="currentColor" stroke="currentColor" stroke-width="1.2" stroke-linecap="round" stroke-linejoin="round" />
  <path d="M142.68,54.20 C142.82,54.15 142.94,54.12 143.06,54.10" fill="currentColor" stroke="currentColor" stroke-width="1.2" stroke-linecap="round" stroke-linejoin="round" />
  <path d="M151.16,55.23 C151.05,54.80 150.90,54.42 150.70,54.10" fill="currentColor" stroke="currentColor" stroke-width="1.2" stroke-linecap="round" stroke-linejoin="round" />
  <path d="M147.45,54.10 C147.25,54.42 147.10,54.80 146.99,55.23" fill="currentColor" stroke="currentColor" stroke-width="1.2" stroke-linecap="round" stroke-linejoin="round" />
  <path d="M154.48,54.12 C154.48,54.28 154.45,54.42 154.37,54.55" fill="currentColor" stroke="currentColor" stroke-width="1.2" stroke-linecap="round" stroke-linejoin="round" />
  <path d="M152.91,54.55 C152.84,54.42 152.80,54.28 152.80,54.12" fill="currentColor" stroke="currentColor" stroke-width="1.2" stroke-linecap="round" stroke-linejoin="round" />
  <path d="M152.26,54.12 C152.26,54.38 152.32,54.61 152.45,54.82" fill="currentColor" stroke="currentColor" stroke-width="1.2" stroke-linecap="round" stroke-linejoin="round" />
  <path d="M154.83,54.82 C154.95,54.61 155.01,54.38 155.02,54.12" fill="currentColor" stroke="currentColor" stroke-width="1.2" stroke-linecap="round" stroke-linejoin="round" />
  <path d="M142.25,54.37 C142.41,54.30 142.55,54.24 142.68,54.20" fill="currentColor" stroke="currentColor" stroke-width="1.2" stroke-linecap="round" stroke-linejoin="round" />
  <path d="M144.07,54.20 C144.25,54.29 144.39,54.40 144.49,54.56" fill="currentColor" stroke="currentColor" stroke-width="1.2" stroke-linecap="round" stroke-linejoin="round" />
  <path d="M147.98,55.29 C148.08,54.90 148.22,54.60 148.41,54.39" fill="currentColor" stroke="currentColor" stroke-width="1.2" stroke-linecap="round" stroke-linejoin="round" />
  <path d="M149.75,54.39 C149.93,54.60 150.07,54.90 150.17,55.29" fill="currentColor" stroke="currentColor" stroke-width="1.2" stroke-linecap="round" stroke-linejoin="round" />
  <path d="M154.37,54.55 C154.30,54.68 154.20,54.78 154.07,54.85" fill="currentColor" stroke="currentColor" stroke-width="1.2" stroke-linecap="round" stroke-linejoin="round" />
  <path d="M153.21,54.85 C153.09,54.78 152.99,54.68 152.91,54.55" fill="currentColor" stroke="currentColor" stroke-width="1.2" stroke-linecap="round" stroke-linejoin="round" />
  <path d="M144.49,54.56 C144.59,54.71 144.63,54.90 144.64,55.11" fill="currentColor" stroke="currentColor" stroke-width="1.2" stroke-linecap="round" stroke-linejoin="round" />
  <path d="M152.45,54.82 C152.57,55.03 152.73,55.19 152.94,55.31" fill="currentColor" stroke="currentColor" stroke-width="1.2" stroke-linecap="round" stroke-linejoin="round" />
  <path d="M154.34,55.31 C154.54,55.19 154.71,55.03 154.83,54.82" fill="currentColor" stroke="currentColor" stroke-width="1.2" stroke-linecap="round" stroke-linejoin="round" />
  <line x1="137.30" y1="55.93" x2="138.62" y2="54.84" fill="currentColor" stroke="currentColor" stroke-width="1.2" stroke-linecap="round" stroke-linejoin="round" />
  <line x1="138.62" y1="54.84" x2="138.62" y2="60.17" fill="currentColor" stroke="currentColor" stroke-width="1.2" stroke-linecap="round" stroke-linejoin="round" />
  <path d="M154.07,54.85 C153.94,54.93 153.80,54.97 153.64,54.97" fill="currentColor" stroke="currentColor" stroke-width="1.2" stroke-linecap="round" stroke-linejoin="round" />
  <path d="M153.64,54.97 C153.48,54.97 153.34,54.93 153.21,54.85" fill="currentColor" stroke="currentColor" stroke-width="1.2" stroke-linecap="round" stroke-linejoin="round" />
  <path d="M145.54,55.61 C145.61,55.42 145.64,55.20 145.64,54.94" fill="currentColor" stroke="currentColor" stroke-width="1.2" stroke-linecap="round" stroke-linejoin="round" />
  <line x1="136.91" y1="55.06" x2="137.30" y2="55.93" fill="currentColor" stroke="currentColor" stroke-width="1.2" stroke-linecap="round" stroke-linejoin="round" />
  <path d="M144.64,55.11 C144.64,55.43 144.52,55.68 144.29,55.85" fill="currentColor" stroke="currentColor" stroke-width="1.2" stroke-linecap="round" stroke-linejoin="round" />
  <path d="M151.32,56.70 C151.32,56.16 151.27,55.67 151.16,55.23" fill="currentColor" stroke="currentColor" stroke-width="1.2" stroke-linecap="round" stroke-linejoin="round" />
  <path d="M146.99,55.23 C146.89,55.67 146.83,56.16 146.83,56.70" fill="currentColor" stroke="currentColor" stroke-width="1.2" stroke-linecap="round" stroke-linejoin="round" />
  <path d="M147.83,56.70 C147.83,56.15 147.88,55.68 147.98,55.29" fill="currentColor" stroke="currentColor" stroke-width="1.2" stroke-linecap="round" stroke-linejoin="round" />
  <path d="M150.17,55.29 C150.27,55.68 150.32,56.15 150.32,56.70" fill="currentColor" stroke="currentColor" stroke-width="1.2" stroke-linecap="round" stroke-linejoin="round" />
  <path d="M152.94,55.31 C153.15,55.44 153.38,55.50 153.64,55.50" fill="currentColor" stroke="currentColor" stroke-width="1.2" stroke-linecap="round" stroke-linejoin="round" />
  <path d="M153.64,55.50 C153.89,55.50 154.13,55.44 154.34,55.31" fill="currentColor" stroke="currentColor" stroke-width="1.2" stroke-linecap="round" stroke-linejoin="round" />
  <path d="M145.26,56.11 C145.39,55.97 145.48,55.80 145.54,55.61" fill="currentColor" stroke="currentColor" stroke-width="1.2" stroke-linecap="round" stroke-linejoin="round" />
  <path d="M144.29,55.85 C144.06,56.03 143.72,56.12 143.26,56.12" fill="currentColor" stroke="currentColor" stroke-width="1.2" stroke-linecap="round" stroke-linejoin="round" />
  <path d="M144.75,56.50 C144.96,56.39 145.13,56.26 145.26,56.11" fill="currentColor" stroke="currentColor" stroke-width="1.2" stroke-linecap="round" stroke-linejoin="round" />
  <line x1="143.26" y1="56.12" x2="143.26" y2="57.04" fill="currentColor" stroke="currentColor" stroke-width="1.2" stroke-linecap="round" stroke-linejoin="round" />
  <path d="M145.31,56.87 C145.17,56.70 144.98,56.57 144.75,56.50" fill="currentColor" stroke="currentColor" stroke-width="1.2" stroke-linecap="round" stroke-linejoin="round" />
  <path d="M146.83,56.70 C146.83,57.23 146.89,57.72 146.99,58.16" fill="currentColor" stroke="currentColor" stroke-width="1.2" stroke-linecap="round" stroke-linejoin="round" />
  <path d="M151.16,58.16 C151.27,57.72 151.32,57.23 151.32,56.70" fill="currentColor" stroke="currentColor" stroke-width="1.2" stroke-linecap="round" stroke-linejoin="round" />
  <path d="M150.32,56.70 C150.32,57.24 150.27,57.71 150.17,58.10" fill="currentColor" stroke="currentColor" stroke-width="1.2" stroke-linecap="round" stroke-linejoin="round" />
  <path d="M147.98,58.10 C147.88,57.71 147.83,57.24 147.83,56.70" fill="currentColor" stroke="currentColor" stroke-width="1.2" stroke-linecap="round" stroke-linejoin="round" />
  <path d="M145.64,57.46 C145.57,57.23 145.46,57.04 145.31,56.87" fill="currentColor" stroke="currentColor" stroke-width="1.2" stroke-linecap="round" stroke-linejoin="round" />
  <path d="M143.26,57.04 C143.59,57.03 143.86,57.07 144.09,57.17" fill="currentColor" stroke="currentColor" stroke-width="1.2" stroke-linecap="round" stroke-linejoin="round" />
  <path d="M144.09,57.17 C144.30,57.27 144.47,57.41 144.58,57.59" fill="currentColor" stroke="currentColor" stroke-width="1.2" stroke-linecap="round" stroke-linejoin="round" />
  <path d="M145.75,58.16 C145.75,57.91 145.71,57.68 145.64,57.46" fill="currentColor" stroke="currentColor" stroke-width="1.2" stroke-linecap="round" stroke-linejoin="round" />
  <path d="M144.58,57.59 C144.69,57.77 144.75,57.98 144.75,58.21" fill="currentColor" stroke="currentColor" stroke-width="1.2" stroke-linecap="round" stroke-linejoin="round" />
  <path d="M132.22,57.85 C130.48,59.50 128.28,60.34 126.06,60.41" fill="none" stroke="currentColor" stroke-width="1.127999973297119" stroke-linecap="round" stroke-linejoin="round" />
  <path d="M150.17,58.10 C150.07,58.49 149.93,58.79 149.75,59.00" fill="currentColor" stroke="currentColor" stroke-width="1.2" stroke-linecap="round" stroke-linejoin="round" />
  <path d="M148.41,59.00 C148.22,58.79 148.08,58.49 147.98,58.10" fill="currentColor" stroke="currentColor" stroke-width="1.2" stroke-linecap="round" stroke-linejoin="round" />
  <path d="M145.46,59.25 C145.65,58.94 145.74,58.57 145.75,58.16" fill="currentColor" stroke="currentColor" stroke-width="1.2" stroke-linecap="round" stroke-linejoin="round" />
  <path d="M146.99,58.16 C147.10,58.59 147.25,58.97 147.45,59.29" fill="currentColor" stroke="currentColor" stroke-width="1.2" stroke-linecap="round" stroke-linejoin="round" />
  <path d="M150.70,59.29 C150.90,58.97 151.05,58.59 151.16,58.16" fill="currentColor" stroke="currentColor" stroke-width="1.2" stroke-linecap="round" stroke-linejoin="round" />
  <path d="M144.75,58.21 C144.75,58.43 144.70,58.63 144.61,58.79" fill="currentColor" stroke="currentColor" stroke-width="1.2" stroke-linecap="round" stroke-linejoin="round" />
  <path d="M142.86,59.19 C142.60,59.10 142.34,58.96 142.07,58.79" fill="currentColor" stroke="currentColor" stroke-width="1.2" stroke-linecap="round" stroke-linejoin="round" />
  <line x1="142.07" y1="58.79" x2="142.07" y2="59.87" fill="currentColor" stroke="currentColor" stroke-width="1.2" stroke-linecap="round" stroke-linejoin="round" />
  <path d="M144.61,58.79 C144.52,58.96 144.39,59.09 144.22,59.18" fill="currentColor" stroke="currentColor" stroke-width="1.2" stroke-linecap="round" stroke-linejoin="round" />
  <path d="M149.75,59.00 C149.56,59.21 149.34,59.32 149.08,59.32" fill="currentColor" stroke="currentColor" stroke-width="1.2" stroke-linecap="round" stroke-linejoin="round" />
  <path d="M149.08,59.32 C148.82,59.32 148.59,59.21 148.41,59.00" fill="currentColor" stroke="currentColor" stroke-width="1.2" stroke-linecap="round" stroke-linejoin="round" />
  <path d="M144.22,59.18 C144.05,59.27 143.86,59.32 143.62,59.32" fill="currentColor" stroke="currentColor" stroke-width="1.2" stroke-linecap="round" stroke-linejoin="round" />
  <path d="M143.62,59.32 C143.37,59.32 143.12,59.27 142.86,59.19" fill="currentColor" stroke="currentColor" stroke-width="1.2" stroke-linecap="round" stroke-linejoin="round" />
  <path d="M144.70,60.00 C145.02,59.82 145.28,59.57 145.46,59.25" fill="currentColor" stroke="currentColor" stroke-width="1.2" stroke-linecap="round" stroke-linejoin="round" />
  <path d="M147.45,59.29 C147.64,59.60 147.88,59.84 148.16,60.01" fill="currentColor" stroke="currentColor" stroke-width="1.2" stroke-linecap="round" stroke-linejoin="round" />
  <path d="M150.00,60.01 C150.27,59.84 150.50,59.60 150.70,59.29" fill="currentColor" stroke="currentColor" stroke-width="1.2" stroke-linecap="round" stroke-linejoin="round" />
  <path d="M142.07,59.87 C142.32,60.00 142.57,60.09 142.82,60.16" fill="currentColor" stroke="currentColor" stroke-width="1.2" stroke-linecap="round" stroke-linejoin="round" />
  <path d="M143.55,60.27 C143.99,60.27 144.37,60.17 144.70,60.00" fill="currentColor" stroke="currentColor" stroke-width="1.2" stroke-linecap="round" stroke-linejoin="round" />
  <path d="M148.16,60.01 C148.43,60.18 148.74,60.27 149.08,60.27" fill="currentColor" stroke="currentColor" stroke-width="1.2" stroke-linecap="round" stroke-linejoin="round" />
  <path d="M149.08,60.27 C149.41,60.27 149.72,60.18 150.00,60.01" fill="currentColor" stroke="currentColor" stroke-width="1.2" stroke-linecap="round" stroke-linejoin="round" />
  <path d="M142.82,60.16 C143.07,60.23 143.31,60.27 143.55,60.27" fill="currentColor" stroke="currentColor" stroke-width="1.2" stroke-linecap="round" stroke-linejoin="round" />
  <line x1="36.18" y1="92.15" x2="31.90" y2="92.15" fill="currentColor" stroke="currentColor" stroke-width="1.2" stroke-linecap="round" stroke-linejoin="round" />
  <line x1="31.90" y1="92.15" x2="31.79" y2="92.98" fill="currentColor" stroke="currentColor" stroke-width="1.2" stroke-linecap="round" stroke-linejoin="round" />
  <line x1="31.79" y1="92.98" x2="34.32" y2="92.98" fill="currentColor" stroke="currentColor" stroke-width="1.2" stroke-linecap="round" stroke-linejoin="round" />
  <line x1="34.32" y1="92.98" x2="31.05" y2="97.15" fill="currentColor" stroke="currentColor" stroke-width="1.2" stroke-linecap="round" stroke-linejoin="round" />
  <line x1="35.59" y1="97.15" x2="35.76" y2="96.31" fill="currentColor" stroke="currentColor" stroke-width="1.2" stroke-linecap="round" stroke-linejoin="round" />
  <line x1="35.76" y1="96.31" x2="32.86" y2="96.31" fill="currentColor" stroke="currentColor" stroke-width="1.2" stroke-linecap="round" stroke-linejoin="round" />
  <line x1="31.05" y1="97.15" x2="35.59" y2="97.15" fill="currentColor" stroke="currentColor" stroke-width="1.2" stroke-linecap="round" stroke-linejoin="round" />
  <path d="M28.62,107.79 C29.52,102.30 34.70,98.59 40.18,99.49" fill="none" stroke="currentColor" stroke-width="1.127999973297119" stroke-linecap="round" stroke-linejoin="round" />
  <path d="M40.18,99.49 C42.98,99.95 45.33,101.53 46.82,103.69" fill="none" stroke="currentColor" stroke-width="1.127999973297119" stroke-linecap="round" stroke-linejoin="round" />
  <rect x="118.53" y="102.29" width="7.25" height="7.25" fill="none" stroke="currentColor" stroke-width="1.127999973297119" stroke-linecap="round" stroke-linejoin="round" />
  <rect x="167.29" y="102.29" width="7.25" height="7.25" fill="none" stroke="currentColor" stroke-width="1.127999973297119" stroke-linecap="round" stroke-linejoin="round" />
  <path d="M28.49,109.78 C28.47,109.12 28.51,108.46 28.62,107.79" fill="none" stroke="currentColor" stroke-width="1.127999973297119" stroke-linecap="round" stroke-linejoin="round" />
  <line x1="8.00" y1="109.77" x2="174.58" y2="109.77" fill="none" stroke="currentColor" stroke-width="1.5919999599456787" stroke-linecap="round" stroke-linejoin="round" />
  <path d="M179.15,112.42 C178.86,112.30 178.50,112.25 178.09,112.25" fill="currentColor" stroke="currentColor" stroke-width="1.2" stroke-linecap="round" stroke-linejoin="round" />
  <line x1="178.09" y1="112.25" x2="175.89" y2="112.25" fill="currentColor" stroke="currentColor" stroke-width="1.2" stroke-linecap="round" stroke-linejoin="round" />
  <line x1="175.89" y1="112.25" x2="175.89" y2="119.84" fill="currentColor" stroke="currentColor" stroke-width="1.2" stroke-linecap="round" stroke-linejoin="round" />
  <path d="M179.88,112.85 C179.69,112.67 179.45,112.52 179.15,112.42" fill="currentColor" stroke="currentColor" stroke-width="1.2" stroke-linecap="round" stroke-linejoin="round" />
  <line x1="31.66" y1="112.56" x2="30.89" y2="112.56" fill="currentColor" stroke="currentColor" stroke-width="1.2" stroke-linecap="round" stroke-linejoin="round" />
  <line x1="30.89" y1="112.56" x2="27.62" y2="120.19" fill="currentColor" stroke="currentColor" stroke-width="1.2" stroke-linecap="round" stroke-linejoin="round" />
  <line x1="35.05" y1="120.19" x2="31.66" y2="112.56" fill="currentColor" stroke="currentColor" stroke-width="1.2" stroke-linecap="round" stroke-linejoin="round" />
  <path d="M180.30,113.48 C180.21,113.25 180.07,113.04 179.88,112.85" fill="currentColor" stroke="currentColor" stroke-width="1.2" stroke-linecap="round" stroke-linejoin="round" />
  <line x1="176.98" y1="113.23" x2="177.98" y2="113.23" fill="currentColor" stroke="currentColor" stroke-width="1.2" stroke-linecap="round" stroke-linejoin="round" />
  <path d="M177.98,113.23 C178.31,113.23 178.58,113.28 178.77,113.38" fill="currentColor" stroke="currentColor" stroke-width="1.2" stroke-linecap="round" stroke-linejoin="round" />
  <line x1="176.98" y1="115.50" x2="176.98" y2="113.23" fill="currentColor" stroke="currentColor" stroke-width="1.2" stroke-linecap="round" stroke-linejoin="round" />
  <path d="M178.77,113.38 C178.96,113.47 179.11,113.60 179.19,113.76" fill="currentColor" stroke="currentColor" stroke-width="1.2" stroke-linecap="round" stroke-linejoin="round" />
  <path d="M180.43,114.18 C180.43,113.94 180.39,113.71 180.30,113.48" fill="currentColor" stroke="currentColor" stroke-width="1.2" stroke-linecap="round" stroke-linejoin="round" />
  <path d="M179.19,113.76 C179.27,113.92 179.31,114.09 179.31,114.29" fill="currentColor" stroke="currentColor" stroke-width="1.2" stroke-linecap="round" stroke-linejoin="round" />
  <path d="M180.15,115.17 C180.34,114.91 180.43,114.58 180.43,114.18" fill="currentColor" stroke="currentColor" stroke-width="1.2" stroke-linecap="round" stroke-linejoin="round" />
  <line x1="31.25" y1="114.23" x2="32.48" y2="116.97" fill="currentColor" stroke="currentColor" stroke-width="1.2" stroke-linecap="round" stroke-linejoin="round" />
  <path d="M179.31,114.29 C179.31,114.69 179.18,115.00 178.91,115.20" fill="currentColor" stroke="currentColor" stroke-width="1.2" stroke-linecap="round" stroke-linejoin="round" />
  <path d="M179.27,115.81 C179.67,115.65 179.96,115.44 180.15,115.17" fill="currentColor" stroke="currentColor" stroke-width="1.2" stroke-linecap="round" stroke-linejoin="round" />
  <path d="M178.91,115.20 C178.64,115.40 178.24,115.50 177.70,115.50" fill="currentColor" stroke="currentColor" stroke-width="1.2" stroke-linecap="round" stroke-linejoin="round" />
  <line x1="177.70" y1="115.50" x2="176.98" y2="115.50" fill="currentColor" stroke="currentColor" stroke-width="1.2" stroke-linecap="round" stroke-linejoin="round" />
  <line x1="179.27" y1="115.83" x2="179.27" y2="115.81" fill="currentColor" stroke="currentColor" stroke-width="1.2" stroke-linecap="round" stroke-linejoin="round" />
  <path d="M180.25,116.21 C179.98,116.03 179.65,115.91 179.27,115.83" fill="currentColor" stroke="currentColor" stroke-width="1.2" stroke-linecap="round" stroke-linejoin="round" />
  <path d="M180.88,116.89 C180.73,116.62 180.52,116.39 180.25,116.21" fill="currentColor" stroke="currentColor" stroke-width="1.2" stroke-linecap="round" stroke-linejoin="round" />
  <line x1="176.98" y1="116.48" x2="178.29" y2="116.48" fill="currentColor" stroke="currentColor" stroke-width="1.2" stroke-linecap="round" stroke-linejoin="round" />
  <path d="M178.29,116.48 C178.68,116.48 178.99,116.53 179.24,116.63" fill="currentColor" stroke="currentColor" stroke-width="1.2" stroke-linecap="round" stroke-linejoin="round" />
  <path d="M179.24,116.63 C179.49,116.73 179.67,116.87 179.79,117.05" fill="currentColor" stroke="currentColor" stroke-width="1.2" stroke-linecap="round" stroke-linejoin="round" />
  <path d="M181.10,117.82 C181.10,117.47 181.02,117.16 180.88,116.89" fill="currentColor" stroke="currentColor" stroke-width="1.2" stroke-linecap="round" stroke-linejoin="round" />
  <line x1="32.48" y1="116.97" x2="30.12" y2="116.97" fill="currentColor" stroke="currentColor" stroke-width="1.2" stroke-linecap="round" stroke-linejoin="round" />
  <path d="M179.79,117.05 C179.91,117.22 179.98,117.42 179.97,117.66" fill="currentColor" stroke="currentColor" stroke-width="1.2" stroke-linecap="round" stroke-linejoin="round" />
  <path d="M179.97,117.66 C179.98,117.85 179.93,118.04 179.84,118.22" fill="currentColor" stroke="currentColor" stroke-width="1.2" stroke-linecap="round" stroke-linejoin="round" />
  <path d="M180.96,118.52 C181.05,118.29 181.10,118.05 181.10,117.82" fill="currentColor" stroke="currentColor" stroke-width="1.2" stroke-linecap="round" stroke-linejoin="round" />
  <line x1="28.74" y1="120.19" x2="29.70" y2="117.95" fill="currentColor" stroke="currentColor" stroke-width="1.2" stroke-linecap="round" stroke-linejoin="round" />
  <line x1="29.70" y1="117.95" x2="32.93" y2="117.95" fill="currentColor" stroke="currentColor" stroke-width="1.2" stroke-linecap="round" stroke-linejoin="round" />
  <line x1="32.93" y1="117.95" x2="33.94" y2="120.19" fill="currentColor" stroke="currentColor" stroke-width="1.2" stroke-linecap="round" stroke-linejoin="round" />
  <path d="M179.84,118.22 C179.74,118.41 179.57,118.56 179.34,118.67" fill="currentColor" stroke="currentColor" stroke-width="1.2" stroke-linecap="round" stroke-linejoin="round" />
  <path d="M180.51,119.18 C180.71,118.98 180.87,118.76 180.96,118.52" fill="currentColor" stroke="currentColor" stroke-width="1.2" stroke-linecap="round" stroke-linejoin="round" />
  <path d="M179.34,118.67 C179.10,118.80 178.77,118.85 178.35,118.86" fill="currentColor" stroke="currentColor" stroke-width="1.2" stroke-linecap="round" stroke-linejoin="round" />
  <line x1="178.35" y1="118.86" x2="176.98" y2="118.86" fill="currentColor" stroke="currentColor" stroke-width="1.2" stroke-linecap="round" stroke-linejoin="round" />
  <path d="M179.70,119.66 C180.04,119.54 180.30,119.38 180.51,119.18" fill="currentColor" stroke="currentColor" stroke-width="1.2" stroke-linecap="round" stroke-linejoin="round" />
  <path d="M178.49,119.84 C178.97,119.84 179.37,119.77 179.70,119.66" fill="currentColor" stroke="currentColor" stroke-width="1.2" stroke-linecap="round" stroke-linejoin="round" />
  <line x1="175.89" y1="119.84" x2="178.49" y2="119.84" fill="currentColor" stroke="currentColor" stroke-width="1.2" stroke-linecap="round" stroke-linejoin="round" />
  <line x1="27.62" y1="120.19" x2="28.74" y2="120.19" fill="currentColor" stroke="currentColor" stroke-width="1.2" stroke-linecap="round" stroke-linejoin="round" />
  <line x1="33.94" y1="120.19" x2="35.05" y2="120.19" fill="currentColor" stroke="currentColor" stroke-width="1.2" stroke-linecap="round" stroke-linejoin="round" />
</svg>