<svg xmlns="http://www.w3.org/2000/svg" viewBox="0 0 253.04 116.17" preserveAspectRatio="xMidYMid meet" shape-rendering="geometricPrecision" text-rendering="optimizeLegibility">
  <path d="M197.49,8.07 C197.22,8.02 196.96,8.00 196.71,8.00" fill="currentColor" stroke="currentColor" stroke-width="1.2" stroke-linecap="round" stroke-linejoin="round" />
  <path d="M196.71,8.00 C196.11,8.00 195.56,8.10 195.06,8.30" fill="currentColor" stroke="currentColor" stroke-width="1.2" stroke-linecap="round" stroke-linejoin="round" />
  <path d="M198.33,8.27 C198.04,8.18 197.76,8.11 197.49,8.07" fill="currentColor" stroke="currentColor" stroke-width="1.2" stroke-linecap="round" stroke-linejoin="round" />
  <path d="M199.28,8.62 C198.94,8.47 198.63,8.36 198.33,8.27" fill="currentColor" stroke="currentColor" stroke-width="1.2" stroke-linecap="round" stroke-linejoin="round" />
  <path d="M195.06,8.30 C194.56,8.49 194.12,8.77 193.76,9.12" fill="currentColor" stroke="currentColor" stroke-width="1.2" stroke-linecap="round" stroke-linejoin="round" />
  <line x1="199.28" y1="9.77" x2="199.28" y2="8.62" fill="currentColor" stroke="currentColor" stroke-width="1.2" stroke-linecap="round" stroke-linejoin="round" />
  <path d="M196.70,8.99 C197.13,8.99 197.55,9.05 197.97,9.18" fill="currentColor" stroke="currentColor" stroke-width="1.2" stroke-linecap="round" stroke-linejoin="round" />
  <path d="M195.51,9.21 C195.87,9.07 196.27,8.99 196.70,8.99" fill="currentColor" stroke="currentColor" stroke-width="1.2" stroke-linecap="round" stroke-linejoin="round" />
  <path d="M193.76,9.12 C193.39,9.48 193.10,9.90 192.90,10.38" fill="currentColor" stroke="currentColor" stroke-width="1.2" stroke-linecap="round" stroke-linejoin="round" />
  <path d="M197.97,9.18 C198.39,9.31 198.83,9.50 199.28,9.77" fill="currentColor" stroke="currentColor" stroke-width="1.2" stroke-linecap="round" stroke-linejoin="round" />
  <path d="M194.56,9.81 C194.83,9.55 195.14,9.35 195.51,9.21" fill="currentColor" stroke="currentColor" stroke-width="1.2" stroke-linecap="round" stroke-linejoin="round" />
  <path d="M193.93,10.72 C194.08,10.37 194.29,10.07 194.56,9.81" fill="currentColor" stroke="currentColor" stroke-width="1.2" stroke-linecap="round" stroke-linejoin="round" />
  <path d="M192.90,10.38 C192.70,10.86 192.60,11.39 192.60,11.96" fill="currentColor" stroke="currentColor" stroke-width="1.2" stroke-linecap="round" stroke-linejoin="round" />
  <path d="M193.71,11.86 C193.71,11.45 193.78,11.07 193.93,10.72" fill="currentColor" stroke="currentColor" stroke-width="1.2" stroke-linecap="round" stroke-linejoin="round" />
  <path d="M194.09,13.35 C193.84,12.92 193.71,12.43 193.71,11.86" fill="currentColor" stroke="currentColor" stroke-width="1.2" stroke-linecap="round" stroke-linejoin="round" />
  <path d="M192.60,11.96 C192.59,12.28 192.65,12.61 192.75,12.95" fill="currentColor" stroke="currentColor" stroke-width="1.2" stroke-linecap="round" stroke-linejoin="round" />
  <path d="M192.75,12.95 C192.85,13.30 193.00,13.63 193.21,13.96" fill="currentColor" stroke="currentColor" stroke-width="1.2" stroke-linecap="round" stroke-linejoin="round" />
  <path d="M195.15,14.34 C194.70,14.10 194.35,13.77 194.09,13.35" fill="currentColor" stroke="currentColor" stroke-width="1.2" stroke-linecap="round" stroke-linejoin="round" />
  <line x1="199.36" y1="15.04" x2="199.36" y2="13.86" fill="currentColor" stroke="currentColor" stroke-width="1.2" stroke-linecap="round" stroke-linejoin="round" />
  <path d="M199.36,13.86 C198.93,14.14 198.50,14.35 198.05,14.49" fill="currentColor" stroke="currentColor" stroke-width="1.2" stroke-linecap="round" stroke-linejoin="round" />
  <path d="M193.21,13.96 C193.42,14.28 193.68,14.57 194.00,14.84" fill="currentColor" stroke="currentColor" stroke-width="1.2" stroke-linecap="round" stroke-linejoin="round" />
  <path d="M196.74,14.71 C196.14,14.71 195.61,14.58 195.15,14.34" fill="currentColor" stroke="currentColor" stroke-width="1.2" stroke-linecap="round" stroke-linejoin="round" />
  <path d="M198.05,14.49 C197.61,14.64 197.17,14.71 196.74,14.71" fill="currentColor" stroke="currentColor" stroke-width="1.2" stroke-linecap="round" stroke-linejoin="round" />
  <line x1="9.14" y1="14.57" x2="8.06" y2="14.57" fill="currentColor" stroke="currentColor" stroke-width="1.2" stroke-linecap="round" stroke-linejoin="round" />
  <line x1="8.06" y1="14.57" x2="8.06" y2="22.07" fill="currentColor" stroke="currentColor" stroke-width="1.2" stroke-linecap="round" stroke-linejoin="round" />
  <line x1="9.14" y1="21.11" x2="9.14" y2="14.57" fill="currentColor" stroke="currentColor" stroke-width="1.2" stroke-linecap="round" stroke-linejoin="round" />
  <path d="M194.00,14.84 C194.32,15.10 194.70,15.31 195.14,15.46" fill="currentColor" stroke="currentColor" stroke-width="1.2" stroke-linecap="round" stroke-linejoin="round" />
  <path d="M198.59,15.38 C198.86,15.28 199.12,15.17 199.36,15.04" fill="currentColor" stroke="currentColor" stroke-width="1.2" stroke-linecap="round" stroke-linejoin="round" />
  <path d="M197.71,15.61 C198.03,15.56 198.32,15.48 198.59,15.38" fill="currentColor" stroke="currentColor" stroke-width="1.2" stroke-linecap="round" stroke-linejoin="round" />
  <path d="M195.14,15.46 C195.58,15.62 196.08,15.70 196.64,15.70" fill="currentColor" stroke="currentColor" stroke-width="1.2" stroke-linecap="round" stroke-linejoin="round" />
  <path d="M196.64,15.70 C197.03,15.70 197.39,15.67 197.71,15.61" fill="currentColor" stroke="currentColor" stroke-width="1.2" stroke-linecap="round" stroke-linejoin="round" />
  <path d="M192.58,18.57 C193.21,18.57 193.72,19.08 193.72,19.70" fill="currentColor" stroke="currentColor" stroke-width="1.2" stroke-linecap="round" stroke-linejoin="round" />
  <path d="M191.45,19.70 C191.45,19.08 191.96,18.57 192.58,18.57" fill="currentColor" stroke="currentColor" stroke-width="1.2" stroke-linecap="round" stroke-linejoin="round" />
  <path d="M192.58,18.57 C193.21,18.57 193.72,19.08 193.72,19.70" fill="none" stroke="currentColor" stroke-width="1.0" stroke-linecap="round" stroke-linejoin="round" />
  <path d="M191.45,19.70 C191.45,19.08 191.96,18.57 192.58,18.57" fill="none" stroke="currentColor" stroke-width="1.0" stroke-linecap="round" stroke-linejoin="round" />
  <line x1="15.55" y1="24.01" x2="15.55" y2="19.17" fill="currentColor" stroke="currentColor" stroke-width="1.2" stroke-linecap="round" stroke-linejoin="round" />
  <line x1="15.55" y1="19.17" x2="15.29" y2="19.17" fill="currentColor" stroke="currentColor" stroke-width="1.2" stroke-linecap="round" stroke-linejoin="round" />
  <line x1="15.29" y1="19.17" x2="13.66" y2="20.50" fill="currentColor" stroke="currentColor" stroke-width="1.2" stroke-linecap="round" stroke-linejoin="round" />
  <path d="M193.72,19.70 C193.72,20.33 193.21,20.84 192.58,20.84" fill="currentColor" stroke="currentColor" stroke-width="1.2" stroke-linecap="round" stroke-linejoin="round" />
  <path d="M192.58,20.84 C191.96,20.84 191.45,20.33 191.45,19.70" fill="currentColor" stroke="currentColor" stroke-width="1.2" stroke-linecap="round" stroke-linejoin="round" />
  <path d="M193.72,19.70 C193.72,20.33 193.21,20.84 192.58,20.84" fill="none" stroke="currentColor" stroke-width="1.0" stroke-linecap="round" stroke-linejoin="round" />
  <path d="M192.58,20.84 C191.96,20.84 191.45,20.33 191.45,19.70" fill="none" stroke="currentColor" stroke-width="1.0" stroke-linecap="round" stroke-linejoin="round" />
  <line x1="19.67" y1="19.77" x2="245.04" y2="19.77" fill="none" stroke="currentColor" stroke-width="1.2" stroke-linecap="round" stroke-linejoin="round" />
  <path d="M94.64,19.85 C115.43,19.85 132.31,36.73 132.31,57.53" fill="none" stroke="currentColor" stroke-width="1.2" stroke-linecap="round" stroke-linejoin="round" />
  <path d="M56.96,57.53 C56.96,36.73 73.84,19.85 94.64,19.85" fill="none" stroke="currentColor" stroke-width="1.2" stroke-linecap="round" stroke-linejoin="round" />
  <path d="M170.48,19.85 C191.27,19.85 208.15,36.73 208.15,57.53" fill="none" stroke="currentColor" stroke-width="1.2" stroke-linecap="round" stroke-linejoin="round" />
  <path d="M132.80,57.53 C132.80,36.73 149.68,19.85 170.48,19.85" fill="none" stroke="currentColor" stroke-width="1.2" stroke-linecap="round" stroke-linejoin="round" />
  <polygon points="94.48,57.35 193.07,20.11 170.23,57.65 118.24,95.37" fill="none" stroke="currentColor" stroke-width="1.6" stroke-linecap="round" stroke-linejoin="round" />
  <line x1="13.92" y1="21.09" x2="14.83" y2="20.34" fill="currentColor" stroke="currentColor" stroke-width="1.2" stroke-linecap="round" stroke-linejoin="round" />
  <line x1="14.83" y1="20.34" x2="14.83" y2="24.01" fill="currentColor" stroke="currentColor" stroke-width="1.2" stroke-linecap="round" stroke-linejoin="round" />
  <line x1="13.66" y1="20.50" x2="13.92" y2="21.09" fill="currentColor" stroke="currentColor" stroke-width="1.2" stroke-linecap="round" stroke-linejoin="round" />
  <line x1="12.53" y1="22.07" x2="12.53" y2="21.11" fill="currentColor" stroke="currentColor" stroke-width="1.2" stroke-linecap="round" stroke-linejoin="round" />
  <line x1="12.53" y1="21.11" x2="9.14" y2="21.11" fill="currentColor" stroke="currentColor" stroke-width="1.2" stroke-linecap="round" stroke-linejoin="round" />
  <line x1="8.06" y1="22.07" x2="12.53" y2="22.07" fill="currentColor" stroke="currentColor" stroke-width="1.2" stroke-linecap="round" stroke-linejoin="round" />
  <line x1="14.83" y1="24.01" x2="15.55" y2="24.01" fill="currentColor" stroke="currentColor" stroke-width="1.2" stroke-linecap="round" stroke-linejoin="round" />
  <path d="M89.56,48.52 C89.13,48.38 88.63,48.30 88.08,48.30" fill="currentColor" stroke="currentColor" stroke-width="1.2" stroke-linecap="round" stroke-linejoin="round" />
  <line x1="88.08" y1="48.30" x2="85.16" y2="48.30" fill="currentColor" stroke="currentColor" stroke-width="1.2" stroke-linecap="round" stroke-linejoin="round" />
  <line x1="85.16" y1="48.30" x2="85.16" y2="55.80" fill="currentColor" stroke="currentColor" stroke-width="1.2" stroke-linecap="round" stroke-linejoin="round" />
  <path d="M90.68,49.11 C90.37,48.86 89.99,48.67 89.56,48.52" fill="currentColor" stroke="currentColor" stroke-width="1.2" stroke-linecap="round" stroke-linejoin="round" />
  <path d="M91.47,49.97 C91.26,49.65 91.00,49.36 90.68,49.11" fill="currentColor" stroke="currentColor" stroke-width="1.2" stroke-linecap="round" stroke-linejoin="round" />
  <line x1="86.24" y1="49.27" x2="87.90" y2="49.27" fill="currentColor" stroke="currentColor" stroke-width="1.2" stroke-linecap="round" stroke-linejoin="round" />
  <path d="M87.90,49.27 C88.43,49.27 88.88,49.34 89.27,49.49" fill="currentColor" stroke="currentColor" stroke-width="1.2" stroke-linecap="round" stroke-linejoin="round" />
  <line x1="86.24" y1="54.84" x2="86.24" y2="49.27" fill="currentColor" stroke="currentColor" stroke-width="1.2" stroke-linecap="round" stroke-linejoin="round" />
  <path d="M89.27,49.49 C89.65,49.64 89.97,49.84 90.22,50.09" fill="currentColor" stroke="currentColor" stroke-width="1.2" stroke-linecap="round" stroke-linejoin="round" />
  <path d="M91.92,50.98 C91.82,50.63 91.67,50.29 91.47,49.97" fill="currentColor" stroke="currentColor" stroke-width="1.2" stroke-linecap="round" stroke-linejoin="round" />
  <path d="M90.22,50.09 C90.47,50.35 90.66,50.65 90.78,50.98" fill="currentColor" stroke="currentColor" stroke-width="1.2" stroke-linecap="round" stroke-linejoin="round" />
  <path d="M90.78,50.98 C90.90,51.32 90.96,51.67 90.96,52.05" fill="currentColor" stroke="currentColor" stroke-width="1.2" stroke-linecap="round" stroke-linejoin="round" />
  <path d="M92.07,52.05 C92.07,51.69 92.02,51.34 91.92,50.98" fill="currentColor" stroke="currentColor" stroke-width="1.2" stroke-linecap="round" stroke-linejoin="round" />
  <path d="M91.90,53.18 C92.01,52.82 92.07,52.44 92.07,52.05" fill="currentColor" stroke="currentColor" stroke-width="1.2" stroke-linecap="round" stroke-linejoin="round" />
  <path d="M90.96,52.05 C90.96,52.24 90.94,52.45 90.88,52.70" fill="currentColor" stroke="currentColor" stroke-width="1.2" stroke-linecap="round" stroke-linejoin="round" />
  <path d="M90.88,52.70 C90.83,52.94 90.74,53.18 90.61,53.43" fill="currentColor" stroke="currentColor" stroke-width="1.2" stroke-linecap="round" stroke-linejoin="round" />
  <path d="M91.38,54.20 C91.61,53.89 91.78,53.55 91.90,53.18" fill="currentColor" stroke="currentColor" stroke-width="1.2" stroke-linecap="round" stroke-linejoin="round" />
  <path d="M90.61,53.43 C90.48,53.68 90.30,53.91 90.07,54.12" fill="currentColor" stroke="currentColor" stroke-width="1.2" stroke-linecap="round" stroke-linejoin="round" />
  <path d="M90.07,54.12 C89.84,54.33 89.55,54.50 89.21,54.63" fill="currentColor" stroke="currentColor" stroke-width="1.2" stroke-linecap="round" stroke-linejoin="round" />
  <path d="M90.56,55.04 C90.88,54.80 91.16,54.52 91.38,54.20" fill="currentColor" stroke="currentColor" stroke-width="1.2" stroke-linecap="round" stroke-linejoin="round" />
  <path d="M89.21,54.63 C88.86,54.76 88.44,54.83 87.96,54.84" fill="currentColor" stroke="currentColor" stroke-width="1.2" stroke-linecap="round" stroke-linejoin="round" />
  <line x1="87.96" y1="54.84" x2="86.24" y2="54.84" fill="currentColor" stroke="currentColor" stroke-width="1.2" stroke-linecap="round" stroke-linejoin="round" />
  <path d="M89.45,55.60 C89.87,55.46 90.24,55.28 90.56,55.04" fill="currentColor" stroke="currentColor" stroke-width="1.2" stroke-linecap="round" stroke-linejoin="round" />
  <path d="M88.09,55.80 C88.58,55.80 89.04,55.73 89.45,55.60" fill="currentColor" stroke="currentColor" stroke-width="1.2" stroke-linecap="round" stroke-linejoin="round" />
  <line x1="85.16" y1="55.80" x2="88.09" y2="55.80" fill="currentColor" stroke="currentColor" stroke-width="1.2" stroke-linecap="round" stroke-linejoin="round" />
  <path d="M94.48,56.33 C95.10,56.33 95.61,56.84 95.61,57.47" fill="currentColor" stroke="currentColor" stroke-width="1.2" stroke-linecap="round" stroke-linejoin="round" />
  <path d="M93.34,57.47 C93.34,56.84 93.85,56.33 94.48,56.33" fill="currentColor" stroke="currentColor" stroke-width="1.2" stroke-linecap="round" stroke-linejoin="round" />
  <path d="M94.48,56.33 C95.10,56.33 95.61,56.84 95.61,57.47" fill="none" stroke="currentColor" stroke-width="1.0" stroke-linecap="round" stroke-linejoin="round" />
  <path d="M93.34,57.47 C93.34,56.84 93.85,56.33 94.48,56.33" fill="none" stroke="currentColor" stroke-width="1.0" stroke-linecap="round" stroke-linejoin="round" />
  <path d="M170.50,56.33 C171.12,56.33 171.63,56.84 171.63,57.47" fill="currentColor" stroke="currentColor" stroke-width="1.2" stroke-linecap="round" stroke-linejoin="round" />
  <path d="M169.36,57.47 C169.36,56.84 169.87,56.33 170.50,56.33" fill="currentColor" stroke="currentColor" stroke-width="1.2" stroke-linecap="round" stroke-linejoin="round" />
  <path d="M170.50,56.33 C171.12,56.33 171.63,56.84 171.63,57.47" fill="none" stroke="currentColor" stroke-width="1.0" stroke-linecap="round" stroke-linejoin="round" />
  <path d="M169.36,57.47 C169.36,56.84 169.87,56.33 170.50,56.33" fill="none" stroke="currentColor" stroke-width="1.0" stroke-linecap="round" stroke-linejoin="round" />
  <path d="M95.61,57.47 C95.61,58.10 95.10,58.61 94.48,58.61" fill="currentColor" stroke="currentColor" stroke-width="1.2" stroke-linecap="round" stroke-linejoin="round" />
  <path d="M94.48,58.61 C93.85,58.61 93.34,58.10 93.34,57.47" fill="currentColor" stroke="currentColor" stroke-width="1.2" stroke-linecap="round" stroke-linejoin="round" />
  <path d="M171.63,57.47 C171.63,58.10 171.12,58.61 170.50,58.61" fill="currentColor" stroke="currentColor" stroke-width="1.2" stroke-linecap="round" stroke-linejoin="round" />
  <path d="M170.50,58.61 C169.87,58.61 169.36,58.10 169.36,57.47" fill="currentColor" stroke="currentColor" stroke-width="1.2" stroke-linecap="round" stroke-linejoin="round" />
  <path d="M95.61,57.47 C95.61,58.10 95.10,58.61 94.48,58.61" fill="none" stroke="currentColor" stroke-width="1.0" stroke-linecap="round" stroke-linejoin="round" />
  <path d="M94.48,58.61 C93.85,58.61 93.34,58.10 93.34,57.47" fill="none" stroke="currentColor" stroke-width="1.0" stroke-linecap="round" stroke-linejoin="round" />
  <path d="M171.63,57.47 C171.63,58.10 171.12,58.61 170.50,58.61" fill="none" stroke="currentColor" stroke-width="1.0" stroke-linecap="round" stroke-linejoin="round" />
  <path d="M170.50,58.61 C169.87,58.61 169.36,58.10 169.36,57.47" fill="none" stroke="currentColor" stroke-width="1.0" stroke-linecap="round" stroke-linejoin="round" />
  <path d="M132.31,57.53 C132.31,78.32 115.43,95.20 94.64,95.20" fill="none" stroke="currentColor" stroke-width="1.2" stroke-linecap="round" stroke-linejoin="round" />
  <path d="M94.64,95.20 C73.84,95.20 56.96,78.32 56.96,57.53" fill="none" stroke="currentColor" stroke-width="1.2" stroke-linecap="round" stroke-linejoin="round" />
  <path d="M208.15,57.53 C208.15,78.32 191.27,95.20 170.48,95.20" fill="none" stroke="currentColor" stroke-width="1.2" stroke-linecap="round" stroke-linejoin="round" />
  <path d="M170.48,95.20 C149.68,95.20 132.80,78.32 132.80,57.53" fill="none" stroke="currentColor" stroke-width="1.2" stroke-linecap="round" stroke-linejoin="round" />
  <path d="M177.61,61.77 C177.32,61.67 176.97,61.61 176.57,61.61" fill="currentColor" stroke="currentColor" stroke-width="1.2" stroke-linecap="round" stroke-linejoin="round" />
  <line x1="176.57" y1="61.61" x2="174.39" y2="61.61" fill="currentColor" stroke="currentColor" stroke-width="1.2" stroke-linecap="round" stroke-linejoin="round" />
  <line x1="174.39" y1="61.61" x2="174.39" y2="69.11" fill="currentColor" stroke="currentColor" stroke-width="1.2" stroke-linecap="round" stroke-linejoin="round" />
  <path d="M178.33,62.21 C178.14,62.03 177.90,61.88 177.61,61.77" fill="currentColor" stroke="currentColor" stroke-width="1.2" stroke-linecap="round" stroke-linejoin="round" />
  <path d="M178.74,62.82 C178.66,62.60 178.52,62.39 178.33,62.21" fill="currentColor" stroke="currentColor" stroke-width="1.2" stroke-linecap="round" stroke-linejoin="round" />
  <line x1="175.47" y1="62.57" x2="176.46" y2="62.57" fill="currentColor" stroke="currentColor" stroke-width="1.2" stroke-linecap="round" stroke-linejoin="round" />
  <path d="M176.46,62.57 C176.79,62.58 177.05,62.63 177.24,62.72" fill="currentColor" stroke="currentColor" stroke-width="1.2" stroke-linecap="round" stroke-linejoin="round" />
  <line x1="175.47" y1="64.82" x2="175.47" y2="62.57" fill="currentColor" stroke="currentColor" stroke-width="1.2" stroke-linecap="round" stroke-linejoin="round" />
  <path d="M177.24,62.72 C177.43,62.82 177.57,62.94 177.65,63.10" fill="currentColor" stroke="currentColor" stroke-width="1.2" stroke-linecap="round" stroke-linejoin="round" />
  <path d="M178.88,63.52 C178.88,63.28 178.83,63.05 178.74,62.82" fill="currentColor" stroke="currentColor" stroke-width="1.2" stroke-linecap="round" stroke-linejoin="round" />
  <path d="M177.65,63.10 C177.73,63.26 177.77,63.43 177.77,63.62" fill="currentColor" stroke="currentColor" stroke-width="1.2" stroke-linecap="round" stroke-linejoin="round" />
  <path d="M178.60,64.50 C178.79,64.24 178.88,63.91 178.88,63.52" fill="currentColor" stroke="currentColor" stroke-width="1.2" stroke-linecap="round" stroke-linejoin="round" />
  <path d="M177.77,63.62 C177.77,64.02 177.64,64.32 177.38,64.52" fill="currentColor" stroke="currentColor" stroke-width="1.2" stroke-linecap="round" stroke-linejoin="round" />
  <path d="M177.73,65.13 C178.12,64.97 178.41,64.76 178.60,64.50" fill="currentColor" stroke="currentColor" stroke-width="1.2" stroke-linecap="round" stroke-linejoin="round" />
  <path d="M177.38,64.52 C177.11,64.72 176.71,64.82 176.18,64.82" fill="currentColor" stroke="currentColor" stroke-width="1.2" stroke-linecap="round" stroke-linejoin="round" />
  <line x1="176.18" y1="64.82" x2="175.47" y2="64.82" fill="currentColor" stroke="currentColor" stroke-width="1.2" stroke-linecap="round" stroke-linejoin="round" />
  <line x1="177.73" y1="65.15" x2="177.73" y2="65.13" fill="currentColor" stroke="currentColor" stroke-width="1.2" stroke-linecap="round" stroke-linejoin="round" />
  <path d="M178.70,65.52 C178.43,65.35 178.11,65.22 177.73,65.15" fill="currentColor" stroke="currentColor" stroke-width="1.2" stroke-linecap="round" stroke-linejoin="round" />
  <path d="M179.32,66.20 C179.17,65.93 178.97,65.70 178.70,65.52" fill="currentColor" stroke="currentColor" stroke-width="1.2" stroke-linecap="round" stroke-linejoin="round" />
  <line x1="175.47" y1="65.79" x2="176.77" y2="65.79" fill="currentColor" stroke="currentColor" stroke-width="1.2" stroke-linecap="round" stroke-linejoin="round" />
  <path d="M176.77,65.79 C177.14,65.79 177.45,65.84 177.70,65.94" fill="currentColor" stroke="currentColor" stroke-width="1.2" stroke-linecap="round" stroke-linejoin="round" />
  <line x1="175.47" y1="68.14" x2="175.47" y2="65.79" fill="currentColor" stroke="currentColor" stroke-width="1.2" stroke-linecap="round" stroke-linejoin="round" />
  <path d="M177.70,65.94 C177.94,66.04 178.13,66.17 178.25,66.35" fill="currentColor" stroke="currentColor" stroke-width="1.2" stroke-linecap="round" stroke-linejoin="round" />
  <path d="M179.54,67.11 C179.53,66.77 179.46,66.46 179.32,66.20" fill="currentColor" stroke="currentColor" stroke-width="1.2" stroke-linecap="round" stroke-linejoin="round" />
  <path d="M178.25,66.35 C178.37,66.52 178.43,66.72 178.43,66.95" fill="currentColor" stroke="currentColor" stroke-width="1.2" stroke-linecap="round" stroke-linejoin="round" />
  <path d="M178.43,66.95 C178.43,67.14 178.38,67.33 178.29,67.51" fill="currentColor" stroke="currentColor" stroke-width="1.2" stroke-linecap="round" stroke-linejoin="round" />
  <path d="M179.40,67.81 C179.49,67.58 179.54,67.34 179.54,67.11" fill="currentColor" stroke="currentColor" stroke-width="1.2" stroke-linecap="round" stroke-linejoin="round" />
  <path d="M178.29,67.51 C178.20,67.69 178.03,67.84 177.80,67.96" fill="currentColor" stroke="currentColor" stroke-width="1.2" stroke-linecap="round" stroke-linejoin="round" />
  <path d="M178.95,68.45 C179.16,68.26 179.31,68.04 179.40,67.81" fill="currentColor" stroke="currentColor" stroke-width="1.2" stroke-linecap="round" stroke-linejoin="round" />
  <path d="M177.80,67.96 C177.56,68.08 177.24,68.14 176.82,68.14" fill="currentColor" stroke="currentColor" stroke-width="1.2" stroke-linecap="round" stroke-linejoin="round" />
  <line x1="176.82" y1="68.14" x2="175.47" y2="68.14" fill="currentColor" stroke="currentColor" stroke-width="1.2" stroke-linecap="round" stroke-linejoin="round" />
  <path d="M178.16,68.93 C178.49,68.81 178.75,68.65 178.95,68.45" fill="currentColor" stroke="currentColor" stroke-width="1.2" stroke-linecap="round" stroke-linejoin="round" />
  <path d="M176.96,69.11 C177.43,69.11 177.83,69.04 178.16,68.93" fill="currentColor" stroke="currentColor" stroke-width="1.2" stroke-linecap="round" stroke-linejoin="round" />
  <line x1="174.39" y1="69.11" x2="176.96" y2="69.11" fill="currentColor" stroke="currentColor" stroke-width="1.2" stroke-linecap="round" stroke-linejoin="round" />
  <line x1="9.08" y1="90.90" x2="8.00" y2="90.90" fill="currentColor" stroke="currentColor" stroke-width="1.2" stroke-linecap="round" stroke-linejoin="round" />
  <line x1="8.00" y1="90.90" x2="8.00" y2="98.40" fill="currentColor" stroke="currentColor" stroke-width="1.2" stroke-linecap="round" stroke-linejoin="round" />
  <line x1="9.08" y1="97.44" x2="9.08" y2="90.90" fill="currentColor" stroke="currentColor" stroke-width="1.2" stroke-linecap="round" stroke-linejoin="round" />
  <path d="M118.19,94.37 C118.81,94.37 119.32,94.88 119.32,95.51" fill="currentColor" stroke="currentColor" stroke-width="1.2" stroke-linecap="round" stroke-linejoin="round" />
  <path d="M117.05,95.51 C117.05,94.88 117.56,94.37 118.19,94.37" fill="currentColor" stroke="currentColor" stroke-width="1.2" stroke-linecap="round" stroke-linejoin="round" />
  <path d="M118.19,94.37 C118.81,94.37 119.32,94.88 119.32,95.51" fill="none" stroke="currentColor" stroke-width="1.0" stroke-linecap="round" stroke-linejoin="round" />
  <path d="M117.05,95.51 C117.05,94.88 117.56,94.37 118.19,94.37" fill="none" stroke="currentColor" stroke-width="1.0" stroke-linecap="round" stroke-linejoin="round" />
  <path d="M15.41,95.69 C15.20,95.57 14.94,95.50 14.65,95.50" fill="currentColor" stroke="currentColor" stroke-width="1.2" stroke-linecap="round" stroke-linejoin="round" />
  <path d="M14.65,95.50 C14.46,95.50 14.27,95.54 14.09,95.61" fill="currentColor" stroke="currentColor" stroke-width="1.2" stroke-linecap="round" stroke-linejoin="round" />
  <path d="M119.32,95.51 C119.32,96.14 118.81,96.65 118.19,96.65" fill="currentColor" stroke="currentColor" stroke-width="1.2" stroke-linecap="round" stroke-linejoin="round" />
  <path d="M118.19,96.65 C117.56,96.65 117.05,96.14 117.05,95.51" fill="currentColor" stroke="currentColor" stroke-width="1.2" stroke-linecap="round" stroke-linejoin="round" />
  <path d="M119.32,95.51 C119.32,96.14 118.81,96.65 118.19,96.65" fill="none" stroke="currentColor" stroke-width="1.0" stroke-linecap="round" stroke-linejoin="round" />
  <path d="M118.19,96.65 C117.56,96.65 117.05,96.14 117.05,95.51" fill="none" stroke="currentColor" stroke-width="1.0" stroke-linecap="round" stroke-linejoin="round" />
  <path d="M14.09,95.61 C13.90,95.69 13.72,95.80 13.53,95.95" fill="currentColor" stroke="currentColor" stroke-width="1.2" stroke-linecap="round" stroke-linejoin="round" />
  <path d="M15.92,96.21 C15.80,95.99 15.63,95.82 15.41,95.69" fill="currentColor" stroke="currentColor" stroke-width="1.2" stroke-linecap="round" stroke-linejoin="round" />
  <line x1="19.67" y1="95.71" x2="245.04" y2="95.71" fill="none" stroke="currentColor" stroke-width="1.2" stroke-linecap="round" stroke-linejoin="round" />
  <line x1="13.53" y1="95.95" x2="13.53" y2="96.82" fill="currentColor" stroke="currentColor" stroke-width="1.2" stroke-linecap="round" stroke-linejoin="round" />
  <path d="M14.26,96.23 C14.37,96.19 14.49,96.17 14.60,96.17" fill="currentColor" stroke="currentColor" stroke-width="1.2" stroke-linecap="round" stroke-linejoin="round" />
  <path d="M14.60,96.17 C14.76,96.17 14.90,96.21 15.03,96.29" fill="currentColor" stroke="currentColor" stroke-width="1.2" stroke-linecap="round" stroke-linejoin="round" />
  <path d="M16.11,96.99 C16.11,96.69 16.04,96.43 15.92,96.21" fill="currentColor" stroke="currentColor" stroke-width="1.2" stroke-linecap="round" stroke-linejoin="round" />
  <path d="M13.90,96.43 C14.02,96.34 14.14,96.27 14.26,96.23" fill="currentColor" stroke="currentColor" stroke-width="1.2" stroke-linecap="round" stroke-linejoin="round" />
  <path d="M15.03,96.29 C15.15,96.36 15.24,96.47 15.32,96.60" fill="currentColor" stroke="currentColor" stroke-width="1.2" stroke-linecap="round" stroke-linejoin="round" />
  <path d="M13.53,96.82 C13.65,96.65 13.78,96.52 13.90,96.43" fill="currentColor" stroke="currentColor" stroke-width="1.2" stroke-linecap="round" stroke-linejoin="round" />
  <path d="M15.32,96.60 C15.38,96.73 15.42,96.89 15.42,97.07" fill="currentColor" stroke="currentColor" stroke-width="1.2" stroke-linecap="round" stroke-linejoin="round" />
  <path d="M16.03,97.56 C16.08,97.37 16.11,97.18 16.11,96.99" fill="currentColor" stroke="currentColor" stroke-width="1.2" stroke-linecap="round" stroke-linejoin="round" />
  <path d="M15.42,97.07 C15.42,97.20 15.41,97.32 15.39,97.42" fill="currentColor" stroke="currentColor" stroke-width="1.2" stroke-linecap="round" stroke-linejoin="round" />
  <path d="M15.39,97.42 C15.36,97.53 15.32,97.64 15.27,97.74" fill="currentColor" stroke="currentColor" stroke-width="1.2" stroke-linecap="round" stroke-linejoin="round" />
  <line x1="12.46" y1="98.40" x2="12.46" y2="97.44" fill="currentColor" stroke="currentColor" stroke-width="1.2" stroke-linecap="round" stroke-linejoin="round" />
  <line x1="12.46" y1="97.44" x2="9.08" y2="97.44" fill="currentColor" stroke="currentColor" stroke-width="1.2" stroke-linecap="round" stroke-linejoin="round" />
  <path d="M15.76,98.15 C15.88,97.95 15.97,97.75 16.03,97.56" fill="currentColor" stroke="currentColor" stroke-width="1.2" stroke-linecap="round" stroke-linejoin="round" />
  <path d="M15.27,97.74 C15.22,97.85 15.16,97.96 15.09,98.09" fill="currentColor" stroke="currentColor" stroke-width="1.2" stroke-linecap="round" stroke-linejoin="round" />
  <path d="M15.09,98.09 C14.98,98.26 14.87,98.45 14.73,98.64" fill="currentColor" stroke="currentColor" stroke-width="1.2" stroke-linecap="round" stroke-linejoin="round" />
  <path d="M15.31,98.84 C15.49,98.59 15.65,98.36 15.76,98.15" fill="currentColor" stroke="currentColor" stroke-width="1.2" stroke-linecap="round" stroke-linejoin="round" />
  <line x1="8.00" y1="98.40" x2="12.46" y2="98.40" fill="currentColor" stroke="currentColor" stroke-width="1.2" stroke-linecap="round" stroke-linejoin="round" />
  <path d="M14.73,98.64 C14.60,98.83 14.45,99.02 14.30,99.21" fill="currentColor" stroke="currentColor" stroke-width="1.2" stroke-linecap="round" stroke-linejoin="round" />
  <path d="M14.62,99.68 C14.89,99.37 15.12,99.09 15.31,98.84" fill="currentColor" stroke="currentColor" stroke-width="1.2" stroke-linecap="round" stroke-linejoin="round" />
  <path d="M14.30,99.21 C14.15,99.40 14.00,99.59 13.85,99.77" fill="currentColor" stroke="currentColor" stroke-width="1.2" stroke-linecap="round" stroke-linejoin="round" />
  <line x1="16.45" y1="99.68" x2="14.62" y2="99.68" fill="currentColor" stroke="currentColor" stroke-width="1.2" stroke-linecap="round" stroke-linejoin="round" />
  <line x1="16.45" y1="100.34" x2="16.45" y2="99.68" fill="currentColor" stroke="currentColor" stroke-width="1.2" stroke-linecap="round" stroke-linejoin="round" />
  <path d="M13.85,99.77 C13.70,99.96 13.56,100.13 13.43,100.29" fill="currentColor" stroke="currentColor" stroke-width="1.2" stroke-linecap="round" stroke-linejoin="round" />
  <line x1="13.43" y1="100.29" x2="13.43" y2="100.34" fill="currentColor" stroke="currentColor" stroke-width="1.2" stroke-linecap="round" stroke-linejoin="round" />
  <line x1="13.43" y1="100.34" x2="16.45" y2="100.34" fill="currentColor" stroke="currentColor" stroke-width="1.2" stroke-linecap="round" stroke-linejoin="round" />
  <line x1="118.16" y1="100.63" x2="117.40" y2="100.63" fill="currentColor" stroke="currentColor" stroke-width="1.2" stroke-linecap="round" stroke-linejoin="round" />
  <line x1="117.40" y1="100.63" x2="114.17" y2="108.17" fill="currentColor" stroke="currentColor" stroke-width="1.2" stroke-linecap="round" stroke-linejoin="round" />
  <line x1="121.51" y1="108.17" x2="118.16" y2="100.63" fill="currentColor" stroke="currentColor" stroke-width="1.2" stroke-linecap="round" stroke-linejoin="round" />
  <line x1="117.76" y1="102.28" x2="118.97" y2="104.99" fill="currentColor" stroke="currentColor" stroke-width="1.2" stroke-linecap="round" stroke-linejoin="round" />
  <line x1="116.64" y1="104.99" x2="117.76" y2="102.28" fill="currentColor" stroke="currentColor" stroke-width="1.2" stroke-linecap="round" stroke-linejoin="round" />
  <line x1="118.97" y1="104.99" x2="116.64" y2="104.99" fill="currentColor" stroke="currentColor" stroke-width="1.2" stroke-linecap="round" stroke-linejoin="round" />
  <line x1="115.27" y1="108.17" x2="116.22" y2="105.96" fill="currentColor" stroke="currentColor" stroke-width="1.2" stroke-linecap="round" stroke-linejoin="round" />
  <line x1="116.22" y1="105.96" x2="119.41" y2="105.96" fill="currentColor" stroke="currentColor" stroke-width="1.2" stroke-linecap="round" stroke-linejoin="round" />
  <line x1="119.41" y1="105.96" x2="120.41" y2="108.17" fill="currentColor" stroke="currentColor" stroke-width="1.2" stroke-linecap="round" stroke-linejoin="round" />
  <line x1="114.17" y1="108.17" x2="115.27" y2="108.17" fill="currentColor" stroke="currentColor" stroke-width="1.2" stroke-linecap="round" stroke-linejoin="round" />
  <line x1="120.41" y1="108.17" x2="121.51" y2="108.17" fill="currentColor" stroke="currentColor" stroke-width="1.2" stroke-linecap="round" stroke-linejoin="round" />
</svg>