<svg xmlns="http://www.w3.org/2000/svg" viewBox="0 0 150.31 98.58" preserveAspectRatio="xMidYMid meet" shape-rendering="geometricPrecision" text-rendering="optimizeLegibility">
  <path d="M8.11,8.08 C8.18,8.03 8.26,8.00 8.34,8.00" fill="currentColor" stroke="currentColor" stroke-width="1.2" stroke-linecap="round" stroke-linejoin="round" />
  <line x1="8.34" y1="8.00" x2="9.92" y2="8.00" fill="currentColor" stroke="currentColor" stroke-width="1.2" stroke-linecap="round" stroke-linejoin="round" />
  <path d="M9.92,8.00 C10.52,8.00 11.03,8.08 11.44,8.23" fill="currentColor" stroke="currentColor" stroke-width="1.2" stroke-linecap="round" stroke-linejoin="round" />
  <path d="M8.00,8.38 C8.00,8.24 8.04,8.14 8.11,8.08" fill="currentColor" stroke="currentColor" stroke-width="1.2" stroke-linecap="round" stroke-linejoin="round" />
  <path d="M11.44,8.23 C11.86,8.39 12.21,8.61 12.49,8.90" fill="currentColor" stroke="currentColor" stroke-width="1.2" stroke-linecap="round" stroke-linejoin="round" />
  <line x1="8.00" y1="14.57" x2="8.00" y2="8.38" fill="currentColor" stroke="currentColor" stroke-width="1.2" stroke-linecap="round" stroke-linejoin="round" />
  <path d="M11.04,8.97 C10.74,8.83 10.34,8.77 9.86,8.77" fill="currentColor" stroke="currentColor" stroke-width="1.2" stroke-linecap="round" stroke-linejoin="round" />
  <line x1="9.86" y1="8.77" x2="8.92" y2="8.77" fill="currentColor" stroke="currentColor" stroke-width="1.2" stroke-linecap="round" stroke-linejoin="round" />
  <line x1="8.92" y1="8.77" x2="8.92" y2="14.18" fill="currentColor" stroke="currentColor" stroke-width="1.2" stroke-linecap="round" stroke-linejoin="round" />
  <path d="M12.49,8.90 C12.77,9.20 12.98,9.55 13.13,9.97" fill="currentColor" stroke="currentColor" stroke-width="1.2" stroke-linecap="round" stroke-linejoin="round" />
  <path d="M11.79,9.52 C11.60,9.28 11.34,9.10 11.04,8.97" fill="currentColor" stroke="currentColor" stroke-width="1.2" stroke-linecap="round" stroke-linejoin="round" />
  <path d="M12.23,10.36 C12.14,10.04 11.99,9.76 11.79,9.52" fill="currentColor" stroke="currentColor" stroke-width="1.2" stroke-linecap="round" stroke-linejoin="round" />
  <path d="M13.13,9.97 C13.27,10.38 13.34,10.85 13.34,11.37" fill="currentColor" stroke="currentColor" stroke-width="1.2" stroke-linecap="round" stroke-linejoin="round" />
  <path d="M12.37,11.41 C12.37,11.03 12.33,10.68 12.23,10.36" fill="currentColor" stroke="currentColor" stroke-width="1.2" stroke-linecap="round" stroke-linejoin="round" />
  <path d="M13.34,11.37 C13.34,11.97 13.27,12.50 13.11,12.95" fill="currentColor" stroke="currentColor" stroke-width="1.2" stroke-linecap="round" stroke-linejoin="round" />
  <path d="M12.22,12.64 C12.32,12.29 12.37,11.88 12.37,11.41" fill="currentColor" stroke="currentColor" stroke-width="1.2" stroke-linecap="round" stroke-linejoin="round" />
  <line x1="92.99" y1="64.11" x2="16.64" y2="11.48" fill="none" stroke="currentColor" stroke-width="1.4000000476837158" stroke-linecap="round" stroke-linejoin="round" />
  <line x1="16.65" y1="11.48" x2="43.53" y2="81.50" fill="none" stroke="currentColor" stroke-width="1.4000000476837158" stroke-linecap="round" stroke-linejoin="round" />
  <line x1="134.27" y1="46.67" x2="16.65" y2="11.48" fill="none" stroke="currentColor" stroke-width="1.4000000476837158" stroke-linecap="round" stroke-linejoin="round" />
  <path d="M11.76,13.50 C11.96,13.27 12.12,12.98 12.22,12.64" fill="currentColor" stroke="currentColor" stroke-width="1.2" stroke-linecap="round" stroke-linejoin="round" />
  <path d="M13.11,12.95 C12.96,13.40 12.73,13.77 12.44,14.07" fill="currentColor" stroke="currentColor" stroke-width="1.2" stroke-linecap="round" stroke-linejoin="round" />
  <path d="M11.00,14.01 C11.30,13.90 11.56,13.73 11.76,13.50" fill="currentColor" stroke="currentColor" stroke-width="1.2" stroke-linecap="round" stroke-linejoin="round" />
  <path d="M9.87,14.18 C10.32,14.18 10.69,14.12 11.00,14.01" fill="currentColor" stroke="currentColor" stroke-width="1.2" stroke-linecap="round" stroke-linejoin="round" />
  <path d="M12.44,14.07 C12.14,14.36 11.78,14.58 11.35,14.73" fill="currentColor" stroke="currentColor" stroke-width="1.2" stroke-linecap="round" stroke-linejoin="round" />
  <line x1="8.92" y1="14.18" x2="9.87" y2="14.18" fill="currentColor" stroke="currentColor" stroke-width="1.2" stroke-linecap="round" stroke-linejoin="round" />
  <path d="M8.11,14.87 C8.04,14.81 8.00,14.71 8.00,14.57" fill="currentColor" stroke="currentColor" stroke-width="1.2" stroke-linecap="round" stroke-linejoin="round" />
  <path d="M11.35,14.73 C10.92,14.88 10.41,14.95 9.82,14.95" fill="currentColor" stroke="currentColor" stroke-width="1.2" stroke-linecap="round" stroke-linejoin="round" />
  <path d="M8.34,14.95 C8.26,14.95 8.18,14.92 8.11,14.87" fill="currentColor" stroke="currentColor" stroke-width="1.2" stroke-linecap="round" stroke-linejoin="round" />
  <line x1="9.82" y1="14.95" x2="8.34" y2="14.95" fill="currentColor" stroke="currentColor" stroke-width="1.2" stroke-linecap="round" stroke-linejoin="round" />
  <path d="M139.08,43.18 C139.45,43.01 139.86,42.93 140.32,42.93" fill="currentColor" stroke="currentColor" stroke-width="1.2" stroke-linecap="round" stroke-linejoin="round" />
  <path d="M140.32,42.93 C140.52,42.93 140.71,42.95 140.90,42.99" fill="currentColor" stroke="currentColor" stroke-width="1.2" stroke-linecap="round" stroke-linejoin="round" />
  <path d="M140.90,42.99 C141.09,43.03 141.27,43.07 141.43,43.13" fill="currentColor" stroke="currentColor" stroke-width="1.2" stroke-linecap="round" stroke-linejoin="round" />
  <path d="M141.43,43.13 C141.59,43.19 141.73,43.25 141.86,43.33" fill="currentColor" stroke="currentColor" stroke-width="1.2" stroke-linecap="round" stroke-linejoin="round" />
  <path d="M138.11,43.90 C138.38,43.58 138.70,43.34 139.08,43.18" fill="currentColor" stroke="currentColor" stroke-width="1.2" stroke-linecap="round" stroke-linejoin="round" />
  <path d="M141.86,43.33 C141.99,43.40 142.07,43.47 142.12,43.51" fill="currentColor" stroke="currentColor" stroke-width="1.2" stroke-linecap="round" stroke-linejoin="round" />
  <path d="M142.12,43.51 C142.17,43.56 142.20,43.60 142.21,43.62" fill="currentColor" stroke="currentColor" stroke-width="1.2" stroke-linecap="round" stroke-linejoin="round" />
  <path d="M142.21,43.62 C142.23,43.65 142.24,43.68 142.25,43.71" fill="currentColor" stroke="currentColor" stroke-width="1.2" stroke-linecap="round" stroke-linejoin="round" />
  <path d="M142.25,43.71 C142.26,43.75 142.27,43.79 142.27,43.83" fill="currentColor" stroke="currentColor" stroke-width="1.2" stroke-linecap="round" stroke-linejoin="round" />
  <path d="M141.04,43.84 C140.84,43.77 140.60,43.74 140.31,43.74" fill="currentColor" stroke="currentColor" stroke-width="1.2" stroke-linecap="round" stroke-linejoin="round" />
  <path d="M140.31,43.74 C140.01,43.74 139.72,43.80 139.47,43.92" fill="currentColor" stroke="currentColor" stroke-width="1.2" stroke-linecap="round" stroke-linejoin="round" />
  <path d="M142.27,43.83 C142.28,43.88 142.28,43.94 142.28,44.00" fill="currentColor" stroke="currentColor" stroke-width="1.2" stroke-linecap="round" stroke-linejoin="round" />
  <path d="M141.56,44.07 C141.42,43.99 141.24,43.91 141.04,43.84" fill="currentColor" stroke="currentColor" stroke-width="1.2" stroke-linecap="round" stroke-linejoin="round" />
  <path d="M137.49,45.04 C137.63,44.59 137.84,44.21 138.11,43.90" fill="currentColor" stroke="currentColor" stroke-width="1.2" stroke-linecap="round" stroke-linejoin="round" />
  <path d="M139.47,43.92 C139.22,44.05 139.00,44.23 138.83,44.47" fill="currentColor" stroke="currentColor" stroke-width="1.2" stroke-linecap="round" stroke-linejoin="round" />
  <path d="M142.28,44.00 C142.28,44.07 142.28,44.13 142.27,44.18" fill="currentColor" stroke="currentColor" stroke-width="1.2" stroke-linecap="round" stroke-linejoin="round" />
  <path d="M141.90,44.30 C141.81,44.23 141.70,44.16 141.56,44.07" fill="currentColor" stroke="currentColor" stroke-width="1.2" stroke-linecap="round" stroke-linejoin="round" />
  <path d="M142.27,44.18 C142.26,44.23 142.25,44.28 142.24,44.31" fill="currentColor" stroke="currentColor" stroke-width="1.2" stroke-linecap="round" stroke-linejoin="round" />
  <path d="M142.11,44.41 C142.06,44.41 141.99,44.37 141.90,44.30" fill="currentColor" stroke="currentColor" stroke-width="1.2" stroke-linecap="round" stroke-linejoin="round" />
  <path d="M142.24,44.31 C142.22,44.34 142.20,44.37 142.18,44.38" fill="currentColor" stroke="currentColor" stroke-width="1.2" stroke-linecap="round" stroke-linejoin="round" />
  <path d="M142.18,44.38 C142.17,44.40 142.14,44.41 142.11,44.41" fill="currentColor" stroke="currentColor" stroke-width="1.2" stroke-linecap="round" stroke-linejoin="round" />
  <path d="M138.83,44.47 C138.65,44.71 138.51,45.00 138.41,45.35" fill="currentColor" stroke="currentColor" stroke-width="1.2" stroke-linecap="round" stroke-linejoin="round" />
  <path d="M137.26,46.58 C137.26,46.01 137.34,45.49 137.49,45.04" fill="currentColor" stroke="currentColor" stroke-width="1.2" stroke-linecap="round" stroke-linejoin="round" />
  <path d="M138.41,45.35 C138.31,45.69 138.26,46.09 138.26,46.53" fill="currentColor" stroke="currentColor" stroke-width="1.2" stroke-linecap="round" stroke-linejoin="round" />
  <path d="M138.26,46.53 C138.26,46.97 138.31,47.36 138.40,47.70" fill="currentColor" stroke="currentColor" stroke-width="1.2" stroke-linecap="round" stroke-linejoin="round" />
  <path d="M137.47,48.07 C137.33,47.64 137.26,47.15 137.26,46.58" fill="currentColor" stroke="currentColor" stroke-width="1.2" stroke-linecap="round" stroke-linejoin="round" />
  <line x1="89.53" y1="64.02" x2="134.27" y2="46.67" fill="none" stroke="currentColor" stroke-width="1.4000000476837158" stroke-linecap="round" stroke-linejoin="round" />
  <line x1="112.60" y1="77.63" x2="134.27" y2="46.67" fill="none" stroke="currentColor" stroke-width="1.4000000476837158" stroke-linecap="round" stroke-linejoin="round" />
  <path d="M138.40,47.70 C138.50,48.04 138.63,48.32 138.81,48.55" fill="currentColor" stroke="currentColor" stroke-width="1.2" stroke-linecap="round" stroke-linejoin="round" />
  <path d="M138.06,49.16 C137.80,48.87 137.61,48.51 137.47,48.07" fill="currentColor" stroke="currentColor" stroke-width="1.2" stroke-linecap="round" stroke-linejoin="round" />
  <path d="M138.81,48.55 C138.99,48.77 139.21,48.95 139.46,49.06" fill="currentColor" stroke="currentColor" stroke-width="1.2" stroke-linecap="round" stroke-linejoin="round" />
  <path d="M141.95,48.68 C142.04,48.61 142.11,48.58 142.17,48.58" fill="currentColor" stroke="currentColor" stroke-width="1.2" stroke-linecap="round" stroke-linejoin="round" />
  <path d="M142.17,48.58 C142.19,48.58 142.21,48.58 142.23,48.59" fill="currentColor" stroke="currentColor" stroke-width="1.2" stroke-linecap="round" stroke-linejoin="round" />
  <path d="M142.23,48.59 C142.25,48.60 142.26,48.62 142.27,48.65" fill="currentColor" stroke="currentColor" stroke-width="1.2" stroke-linecap="round" stroke-linejoin="round" />
  <path d="M142.27,48.65 C142.28,48.68 142.29,48.73 142.30,48.78" fill="currentColor" stroke="currentColor" stroke-width="1.2" stroke-linecap="round" stroke-linejoin="round" />
  <path d="M141.59,48.91 C141.73,48.82 141.85,48.75 141.95,48.68" fill="currentColor" stroke="currentColor" stroke-width="1.2" stroke-linecap="round" stroke-linejoin="round" />
  <path d="M142.30,48.78 C142.30,48.83 142.31,48.90 142.31,48.98" fill="currentColor" stroke="currentColor" stroke-width="1.2" stroke-linecap="round" stroke-linejoin="round" />
  <path d="M141.06,49.14 C141.27,49.07 141.44,48.99 141.59,48.91" fill="currentColor" stroke="currentColor" stroke-width="1.2" stroke-linecap="round" stroke-linejoin="round" />
  <path d="M142.31,48.98 C142.31,49.04 142.30,49.09 142.30,49.14" fill="currentColor" stroke="currentColor" stroke-width="1.2" stroke-linecap="round" stroke-linejoin="round" />
  <path d="M139.46,49.06 C139.72,49.18 140.01,49.24 140.34,49.24" fill="currentColor" stroke="currentColor" stroke-width="1.2" stroke-linecap="round" stroke-linejoin="round" />
  <path d="M142.30,49.14 C142.30,49.18 142.29,49.22 142.28,49.25" fill="currentColor" stroke="currentColor" stroke-width="1.2" stroke-linecap="round" stroke-linejoin="round" />
  <path d="M140.34,49.24 C140.62,49.24 140.86,49.20 141.06,49.14" fill="currentColor" stroke="currentColor" stroke-width="1.2" stroke-linecap="round" stroke-linejoin="round" />
  <path d="M138.99,49.83 C138.63,49.68 138.32,49.46 138.06,49.16" fill="currentColor" stroke="currentColor" stroke-width="1.2" stroke-linecap="round" stroke-linejoin="round" />
  <path d="M142.28,49.25 C142.27,49.28 142.26,49.31 142.25,49.33" fill="currentColor" stroke="currentColor" stroke-width="1.2" stroke-linecap="round" stroke-linejoin="round" />
  <path d="M142.25,49.33 C142.23,49.36 142.21,49.39 142.17,49.43" fill="currentColor" stroke="currentColor" stroke-width="1.2" stroke-linecap="round" stroke-linejoin="round" />
  <path d="M142.17,49.43 C142.14,49.46 142.06,49.52 141.95,49.59" fill="currentColor" stroke="currentColor" stroke-width="1.2" stroke-linecap="round" stroke-linejoin="round" />
  <path d="M141.95,49.59 C141.83,49.66 141.69,49.73 141.52,49.80" fill="currentColor" stroke="currentColor" stroke-width="1.2" stroke-linecap="round" stroke-linejoin="round" />
  <path d="M141.52,49.80 C141.35,49.87 141.15,49.93 140.93,49.98" fill="currentColor" stroke="currentColor" stroke-width="1.2" stroke-linecap="round" stroke-linejoin="round" />
  <path d="M140.21,50.05 C139.76,50.05 139.35,49.98 138.99,49.83" fill="currentColor" stroke="currentColor" stroke-width="1.2" stroke-linecap="round" stroke-linejoin="round" />
  <path d="M140.93,49.98 C140.71,50.03 140.47,50.05 140.21,50.05" fill="currentColor" stroke="currentColor" stroke-width="1.2" stroke-linecap="round" stroke-linejoin="round" />
  <line x1="43.53" y1="81.50" x2="91.66" y2="63.20" fill="none" stroke="currentColor" stroke-width="1.4000000476837158" stroke-linecap="round" stroke-linejoin="round" />
  <line x1="91.66" y1="63.20" x2="112.60" y2="77.63" fill="none" stroke="currentColor" stroke-width="1.4000000476837158" stroke-linecap="round" stroke-linejoin="round" />
  <polygon points="110.54,65.98 117.39,70.78 112.60,77.63 105.74,72.84" fill="none" stroke="currentColor" stroke-width="1.000000011920929" stroke-linecap="round" stroke-linejoin="round" />
  <polygon points="40.54,73.69 48.35,70.69 51.34,78.50 43.53,81.50" fill="none" stroke="currentColor" stroke-width="1.000000011920929" stroke-linecap="round" stroke-linejoin="round" />
  <path d="M110.86,80.18 C110.93,80.12 111.01,80.09 111.09,80.09" fill="currentColor" stroke="currentColor" stroke-width="1.2" stroke-linecap="round" stroke-linejoin="round" />
  <line x1="111.09" y1="80.09" x2="112.67" y2="80.09" fill="currentColor" stroke="currentColor" stroke-width="1.2" stroke-linecap="round" stroke-linejoin="round" />
  <path d="M112.67,80.09 C113.09,80.09 113.43,80.13 113.69,80.21" fill="currentColor" stroke="currentColor" stroke-width="1.2" stroke-linecap="round" stroke-linejoin="round" />
  <path d="M110.75,80.47 C110.75,80.33 110.79,80.23 110.86,80.18" fill="currentColor" stroke="currentColor" stroke-width="1.2" stroke-linecap="round" stroke-linejoin="round" />
  <path d="M113.69,80.21 C113.96,80.29 114.18,80.41 114.36,80.56" fill="currentColor" stroke="currentColor" stroke-width="1.2" stroke-linecap="round" stroke-linejoin="round" />
  <line x1="110.75" y1="86.67" x2="110.75" y2="80.47" fill="currentColor" stroke="currentColor" stroke-width="1.2" stroke-linecap="round" stroke-linejoin="round" />
  <path d="M114.36,80.56 C114.53,80.71 114.67,80.89 114.76,81.11" fill="currentColor" stroke="currentColor" stroke-width="1.2" stroke-linecap="round" stroke-linejoin="round" />
  <path d="M113.26,80.92 C113.10,80.87 112.88,80.85 112.62,80.85" fill="currentColor" stroke="currentColor" stroke-width="1.2" stroke-linecap="round" stroke-linejoin="round" />
  <line x1="112.62" y1="80.85" x2="111.66" y2="80.85" fill="currentColor" stroke="currentColor" stroke-width="1.2" stroke-linecap="round" stroke-linejoin="round" />
  <line x1="111.66" y1="80.85" x2="111.66" y2="83.10" fill="currentColor" stroke="currentColor" stroke-width="1.2" stroke-linecap="round" stroke-linejoin="round" />
  <path d="M113.65,81.14 C113.55,81.04 113.42,80.97 113.26,80.92" fill="currentColor" stroke="currentColor" stroke-width="1.2" stroke-linecap="round" stroke-linejoin="round" />
  <path d="M114.76,81.11 C114.85,81.33 114.89,81.57 114.89,81.85" fill="currentColor" stroke="currentColor" stroke-width="1.2" stroke-linecap="round" stroke-linejoin="round" />
  <path d="M113.87,81.49 C113.82,81.35 113.75,81.23 113.65,81.14" fill="currentColor" stroke="currentColor" stroke-width="1.2" stroke-linecap="round" stroke-linejoin="round" />
  <path d="M113.94,81.94 C113.94,81.77 113.92,81.62 113.87,81.49" fill="currentColor" stroke="currentColor" stroke-width="1.2" stroke-linecap="round" stroke-linejoin="round" />
  <path d="M114.89,81.85 C114.89,82.01 114.87,82.17 114.83,82.32" fill="currentColor" stroke="currentColor" stroke-width="1.2" stroke-linecap="round" stroke-linejoin="round" />
  <path d="M113.87,82.38 C113.92,82.24 113.94,82.09 113.94,81.94" fill="currentColor" stroke="currentColor" stroke-width="1.2" stroke-linecap="round" stroke-linejoin="round" />
  <path d="M114.83,82.32 C114.79,82.47 114.73,82.61 114.66,82.74" fill="currentColor" stroke="currentColor" stroke-width="1.2" stroke-linecap="round" stroke-linejoin="round" />
  <path d="M113.66,82.75 C113.76,82.64 113.83,82.52 113.87,82.38" fill="currentColor" stroke="currentColor" stroke-width="1.2" stroke-linecap="round" stroke-linejoin="round" />
  <path d="M114.66,82.74 C114.58,82.87 114.48,82.98 114.37,83.08" fill="currentColor" stroke="currentColor" stroke-width="1.2" stroke-linecap="round" stroke-linejoin="round" />
  <path d="M113.30,83.00 C113.44,82.94 113.56,82.86 113.66,82.75" fill="currentColor" stroke="currentColor" stroke-width="1.2" stroke-linecap="round" stroke-linejoin="round" />
  <path d="M112.72,83.10 C112.96,83.10 113.15,83.06 113.30,83.00" fill="currentColor" stroke="currentColor" stroke-width="1.2" stroke-linecap="round" stroke-linejoin="round" />
  <path d="M114.37,83.08 C114.25,83.18 114.12,83.26 113.97,83.33" fill="currentColor" stroke="currentColor" stroke-width="1.2" stroke-linecap="round" stroke-linejoin="round" />
  <line x1="111.66" y1="83.10" x2="112.72" y2="83.10" fill="currentColor" stroke="currentColor" stroke-width="1.2" stroke-linecap="round" stroke-linejoin="round" />
  <path d="M113.97,83.33 C114.16,83.36 114.33,83.43 114.50,83.52" fill="currentColor" stroke="currentColor" stroke-width="1.2" stroke-linecap="round" stroke-linejoin="round" />
  <path d="M114.50,83.52 C114.66,83.62 114.81,83.74 114.93,83.89" fill="currentColor" stroke="currentColor" stroke-width="1.2" stroke-linecap="round" stroke-linejoin="round" />
  <path d="M42.67,83.58 C42.73,83.57 42.82,83.57 42.93,83.57" fill="currentColor" stroke="currentColor" stroke-width="1.2" stroke-linecap="round" stroke-linejoin="round" />
  <path d="M42.93,83.57 C43.04,83.57 43.14,83.57 43.22,83.58" fill="currentColor" stroke="currentColor" stroke-width="1.2" stroke-linecap="round" stroke-linejoin="round" />
  <path d="M42.49,83.61 C42.54,83.59 42.59,83.58 42.67,83.58" fill="currentColor" stroke="currentColor" stroke-width="1.2" stroke-linecap="round" stroke-linejoin="round" />
  <path d="M43.22,83.58 C43.29,83.58 43.35,83.59 43.40,83.61" fill="currentColor" stroke="currentColor" stroke-width="1.2" stroke-linecap="round" stroke-linejoin="round" />
  <path d="M42.39,83.67 C42.41,83.64 42.45,83.62 42.49,83.61" fill="currentColor" stroke="currentColor" stroke-width="1.2" stroke-linecap="round" stroke-linejoin="round" />
  <path d="M43.40,83.61 C43.44,83.62 43.48,83.64 43.50,83.67" fill="currentColor" stroke="currentColor" stroke-width="1.2" stroke-linecap="round" stroke-linejoin="round" />
  <path d="M42.33,83.76 C42.35,83.72 42.37,83.69 42.39,83.67" fill="currentColor" stroke="currentColor" stroke-width="1.2" stroke-linecap="round" stroke-linejoin="round" />
  <path d="M43.50,83.67 C43.53,83.69 43.55,83.73 43.56,83.77" fill="currentColor" stroke="currentColor" stroke-width="1.2" stroke-linecap="round" stroke-linejoin="round" />
  <line x1="40.00" y1="90.22" x2="42.33" y2="83.76" fill="currentColor" stroke="currentColor" stroke-width="1.2" stroke-linecap="round" stroke-linejoin="round" />
  <line x1="43.56" y1="83.77" x2="45.89" y2="90.22" fill="currentColor" stroke="currentColor" stroke-width="1.2" stroke-linecap="round" stroke-linejoin="round" />
  <path d="M113.49,83.92 C113.30,83.86 113.06,83.83 112.77,83.83" fill="currentColor" stroke="currentColor" stroke-width="1.2" stroke-linecap="round" stroke-linejoin="round" />
  <line x1="112.77" y1="83.83" x2="111.66" y2="83.83" fill="currentColor" stroke="currentColor" stroke-width="1.2" stroke-linecap="round" stroke-linejoin="round" />
  <line x1="111.66" y1="83.83" x2="111.66" y2="86.28" fill="currentColor" stroke="currentColor" stroke-width="1.2" stroke-linecap="round" stroke-linejoin="round" />
  <path d="M114.93,83.89 C115.06,84.03 115.15,84.20 115.22,84.40" fill="currentColor" stroke="currentColor" stroke-width="1.2" stroke-linecap="round" stroke-linejoin="round" />
  <path d="M113.97,84.16 C113.84,84.05 113.68,83.97 113.49,83.92" fill="currentColor" stroke="currentColor" stroke-width="1.2" stroke-linecap="round" stroke-linejoin="round" />
  <path d="M114.26,84.56 C114.19,84.40 114.10,84.27 113.97,84.16" fill="currentColor" stroke="currentColor" stroke-width="1.2" stroke-linecap="round" stroke-linejoin="round" />
  <path d="M115.22,84.40 C115.30,84.60 115.33,84.81 115.33,85.05" fill="currentColor" stroke="currentColor" stroke-width="1.2" stroke-linecap="round" stroke-linejoin="round" />
  <line x1="42.90" y1="84.52" x2="42.90" y2="84.52" fill="currentColor" stroke="currentColor" stroke-width="1.2" stroke-linecap="round" stroke-linejoin="round" />
  <line x1="42.90" y1="84.52" x2="41.70" y2="87.99" fill="currentColor" stroke="currentColor" stroke-width="1.2" stroke-linecap="round" stroke-linejoin="round" />
  <line x1="44.12" y1="87.99" x2="42.90" y2="84.52" fill="currentColor" stroke="currentColor" stroke-width="1.2" stroke-linecap="round" stroke-linejoin="round" />
  <path d="M114.36,85.11 C114.36,84.90 114.33,84.71 114.26,84.56" fill="currentColor" stroke="currentColor" stroke-width="1.2" stroke-linecap="round" stroke-linejoin="round" />
  <path d="M115.33,85.05 C115.33,85.27 115.30,85.47 115.25,85.66" fill="currentColor" stroke="currentColor" stroke-width="1.2" stroke-linecap="round" stroke-linejoin="round" />
  <path d="M114.26,85.62 C114.33,85.47 114.36,85.30 114.36,85.11" fill="currentColor" stroke="currentColor" stroke-width="1.2" stroke-linecap="round" stroke-linejoin="round" />
  <path d="M113.97,85.98 C114.10,85.88 114.19,85.76 114.26,85.62" fill="currentColor" stroke="currentColor" stroke-width="1.2" stroke-linecap="round" stroke-linejoin="round" />
  <path d="M115.25,85.66 C115.19,85.84 115.11,86.01 115.01,86.15" fill="currentColor" stroke="currentColor" stroke-width="1.2" stroke-linecap="round" stroke-linejoin="round" />
  <path d="M113.56,86.21 C113.72,86.16 113.86,86.08 113.97,85.98" fill="currentColor" stroke="currentColor" stroke-width="1.2" stroke-linecap="round" stroke-linejoin="round" />
  <path d="M115.01,86.15 C114.91,86.30 114.79,86.43 114.65,86.54" fill="currentColor" stroke="currentColor" stroke-width="1.2" stroke-linecap="round" stroke-linejoin="round" />
  <path d="M113.01,86.28 C113.22,86.28 113.40,86.26 113.56,86.21" fill="currentColor" stroke="currentColor" stroke-width="1.2" stroke-linecap="round" stroke-linejoin="round" />
  <line x1="111.66" y1="86.28" x2="113.01" y2="86.28" fill="currentColor" stroke="currentColor" stroke-width="1.2" stroke-linecap="round" stroke-linejoin="round" />
  <path d="M114.65,86.54 C114.51,86.65 114.35,86.74 114.17,86.82" fill="currentColor" stroke="currentColor" stroke-width="1.2" stroke-linecap="round" stroke-linejoin="round" />
  <path d="M110.86,86.96 C110.79,86.90 110.75,86.81 110.75,86.67" fill="currentColor" stroke="currentColor" stroke-width="1.2" stroke-linecap="round" stroke-linejoin="round" />
  <path d="M114.17,86.82 C114.00,86.89 113.81,86.95 113.60,86.99" fill="currentColor" stroke="currentColor" stroke-width="1.2" stroke-linecap="round" stroke-linejoin="round" />
  <path d="M111.09,87.04 C111.01,87.04 110.93,87.02 110.86,86.96" fill="currentColor" stroke="currentColor" stroke-width="1.2" stroke-linecap="round" stroke-linejoin="round" />
  <path d="M113.60,86.99 C113.40,87.02 113.17,87.04 112.91,87.04" fill="currentColor" stroke="currentColor" stroke-width="1.2" stroke-linecap="round" stroke-linejoin="round" />
  <line x1="112.91" y1="87.04" x2="111.09" y2="87.04" fill="currentColor" stroke="currentColor" stroke-width="1.2" stroke-linecap="round" stroke-linejoin="round" />
  <line x1="41.70" y1="87.99" x2="44.12" y2="87.99" fill="currentColor" stroke="currentColor" stroke-width="1.2" stroke-linecap="round" stroke-linejoin="round" />
  <line x1="44.95" y1="90.42" x2="44.36" y2="88.73" fill="currentColor" stroke="currentColor" stroke-width="1.2" stroke-linecap="round" stroke-linejoin="round" />
  <line x1="44.36" y1="88.73" x2="41.47" y2="88.73" fill="currentColor" stroke="currentColor" stroke-width="1.2" stroke-linecap="round" stroke-linejoin="round" />
  <line x1="41.47" y1="88.73" x2="40.90" y2="90.39" fill="currentColor" stroke="currentColor" stroke-width="1.2" stroke-linecap="round" stroke-linejoin="round" />
  <path d="M39.96,90.41 C39.96,90.36 39.97,90.30 40.00,90.22" fill="currentColor" stroke="currentColor" stroke-width="1.2" stroke-linecap="round" stroke-linejoin="round" />
  <path d="M45.89,90.22 C45.92,90.30 45.94,90.37 45.94,90.41" fill="currentColor" stroke="currentColor" stroke-width="1.2" stroke-linecap="round" stroke-linejoin="round" />
  <path d="M40.90,90.39 C40.89,90.43 40.87,90.45 40.86,90.48" fill="currentColor" stroke="currentColor" stroke-width="1.2" stroke-linecap="round" stroke-linejoin="round" />
  <path d="M40.00,90.52 C39.97,90.49 39.96,90.46 39.96,90.41" fill="currentColor" stroke="currentColor" stroke-width="1.2" stroke-linecap="round" stroke-linejoin="round" />
  <path d="M45.94,90.41 C45.94,90.46 45.93,90.50 45.90,90.52" fill="currentColor" stroke="currentColor" stroke-width="1.2" stroke-linecap="round" stroke-linejoin="round" />
  <path d="M45.00,90.50 C44.98,90.48 44.97,90.45 44.95,90.42" fill="currentColor" stroke="currentColor" stroke-width="1.2" stroke-linecap="round" stroke-linejoin="round" />
  <path d="M40.86,90.48 C40.84,90.50 40.81,90.52 40.78,90.54" fill="currentColor" stroke="currentColor" stroke-width="1.2" stroke-linecap="round" stroke-linejoin="round" />
  <path d="M45.08,90.55 C45.04,90.54 45.02,90.52 45.00,90.50" fill="currentColor" stroke="currentColor" stroke-width="1.2" stroke-linecap="round" stroke-linejoin="round" />
  <path d="M40.14,90.57 C40.07,90.56 40.02,90.54 40.00,90.52" fill="currentColor" stroke="currentColor" stroke-width="1.2" stroke-linecap="round" stroke-linejoin="round" />
  <path d="M45.90,90.52 C45.87,90.55 45.82,90.56 45.76,90.57" fill="currentColor" stroke="currentColor" stroke-width="1.2" stroke-linecap="round" stroke-linejoin="round" />
  <path d="M40.78,90.54 C40.75,90.55 40.70,90.56 40.63,90.57" fill="currentColor" stroke="currentColor" stroke-width="1.2" stroke-linecap="round" stroke-linejoin="round" />
  <path d="M45.23,90.57 C45.16,90.57 45.11,90.56 45.08,90.55" fill="currentColor" stroke="currentColor" stroke-width="1.2" stroke-linecap="round" stroke-linejoin="round" />
  <path d="M40.39,90.58 C40.29,90.58 40.20,90.58 40.14,90.57" fill="currentColor" stroke="currentColor" stroke-width="1.2" stroke-linecap="round" stroke-linejoin="round" />
  <path d="M45.76,90.57 C45.69,90.58 45.60,90.58 45.49,90.58" fill="currentColor" stroke="currentColor" stroke-width="1.2" stroke-linecap="round" stroke-linejoin="round" />
  <path d="M40.63,90.57 C40.57,90.58 40.49,90.58 40.39,90.58" fill="currentColor" stroke="currentColor" stroke-width="1.2" stroke-linecap="round" stroke-linejoin="round" />
  <path d="M45.49,90.58 C45.38,90.58 45.29,90.58 45.23,90.57" fill="currentColor" stroke="currentColor" stroke-width="1.2" stroke-linecap="round" stroke-linejoin="round" />
</svg>