<svg xmlns="http://www.w3.org/2000/svg" viewBox="0 0 201.91 126.75" preserveAspectRatio="xMidYMid meet" shape-rendering="geometricPrecision" text-rendering="optimizeLegibility">
  <path d="M29.19,59.31 C56.11,18.92 110.74,8.00 151.12,34.92" fill="none" stroke="currentColor" stroke-width="1.4339999675750732" stroke-linecap="round" stroke-linejoin="round" />
  <path d="M103.40,60.44 C128.35,43.19 162.62,49.44 179.87,74.40" fill="none" stroke="currentColor" stroke-width="1.4339999675750732" stroke-linecap="round" stroke-linejoin="round" />
  <path d="M151.12,34.92 C176.41,51.78 190.14,79.49 190.27,107.78" fill="none" stroke="currentColor" stroke-width="1.4339999675750732" stroke-linecap="round" stroke-linejoin="round" />
  <path d="M14.42,107.58 C14.50,90.96 19.28,74.17 29.19,59.31" fill="none" stroke="currentColor" stroke-width="1.4339999675750732" stroke-linecap="round" stroke-linejoin="round" />
  <path d="M79.72,107.56 C79.11,89.49 87.43,71.48 103.40,60.44" fill="none" stroke="currentColor" stroke-width="1.4339999675750732" stroke-linecap="round" stroke-linejoin="round" />
  <path d="M16.47,97.23 C22.01,80.36 40.21,71.17 57.07,76.72" fill="none" stroke="currentColor" stroke-width="1.4339999675750732" stroke-linecap="round" stroke-linejoin="round" />
  <path d="M179.87,74.40 C186.86,84.52 189.99,96.16 189.58,107.57" fill="none" stroke="currentColor" stroke-width="1.4339999675750732" stroke-linecap="round" stroke-linejoin="round" />
  <path d="M57.07,76.72 C70.67,81.19 79.28,93.88 79.20,107.47" fill="none" stroke="currentColor" stroke-width="1.4339999675750732" stroke-linecap="round" stroke-linejoin="round" />
  <path d="M14.85,107.27 C14.85,103.94 15.37,100.56 16.47,97.23" fill="none" stroke="currentColor" stroke-width="1.4339999675750732" stroke-linecap="round" stroke-linejoin="round" />
  <line x1="15.02" y1="107.53" x2="189.95" y2="107.53" fill="none" stroke="currentColor" stroke-width="1.4339999675750732" stroke-linecap="round" stroke-linejoin="round" />
  <path d="M191.81,110.18 C191.51,110.14 191.22,110.11 190.93,110.11" fill="currentColor" stroke="currentColor" stroke-width="1.2" stroke-linecap="round" stroke-linejoin="round" />
  <path d="M190.93,110.11 C190.26,110.12 189.64,110.23 189.08,110.45" fill="currentColor" stroke="currentColor" stroke-width="1.2" stroke-linecap="round" stroke-linejoin="round" />
  <line x1="12.47" y1="110.29" x2="11.61" y2="110.29" fill="currentColor" stroke="currentColor" stroke-width="1.2" stroke-linecap="round" stroke-linejoin="round" />
  <path d="M192.75,110.41 C192.42,110.31 192.11,110.23 191.81,110.18" fill="currentColor" stroke="currentColor" stroke-width="1.2" stroke-linecap="round" stroke-linejoin="round" />
  <line x1="79.84" y1="110.34" x2="77.39" y2="110.34" fill="currentColor" stroke="currentColor" stroke-width="1.2" stroke-linecap="round" stroke-linejoin="round" />
  <path d="M81.01,110.52 C80.68,110.40 80.29,110.34 79.84,110.34" fill="currentColor" stroke="currentColor" stroke-width="1.2" stroke-linecap="round" stroke-linejoin="round" />
  <path d="M193.82,110.80 C193.44,110.64 193.08,110.51 192.75,110.41" fill="currentColor" stroke="currentColor" stroke-width="1.2" stroke-linecap="round" stroke-linejoin="round" />
  <path d="M81.82,111.01 C81.60,110.81 81.34,110.64 81.01,110.52" fill="currentColor" stroke="currentColor" stroke-width="1.2" stroke-linecap="round" stroke-linejoin="round" />
  <path d="M189.08,110.45 C188.52,110.66 188.03,110.97 187.62,111.37" fill="currentColor" stroke="currentColor" stroke-width="1.2" stroke-linecap="round" stroke-linejoin="round" />
  <path d="M190.92,111.22 C191.40,111.22 191.88,111.29 192.35,111.44" fill="currentColor" stroke="currentColor" stroke-width="1.2" stroke-linecap="round" stroke-linejoin="round" />
  <path d="M189.58,111.47 C189.99,111.31 190.44,111.23 190.92,111.22" fill="currentColor" stroke="currentColor" stroke-width="1.2" stroke-linecap="round" stroke-linejoin="round" />
  <path d="M82.28,111.70 C82.18,111.45 82.03,111.22 81.82,111.01" fill="currentColor" stroke="currentColor" stroke-width="1.2" stroke-linecap="round" stroke-linejoin="round" />
  <line x1="78.60" y1="111.42" x2="79.71" y2="111.42" fill="currentColor" stroke="currentColor" stroke-width="1.2" stroke-linecap="round" stroke-linejoin="round" />
  <line x1="193.82" y1="112.10" x2="193.82" y2="110.80" fill="currentColor" stroke="currentColor" stroke-width="1.2" stroke-linecap="round" stroke-linejoin="round" />
  <path d="M79.71,111.42 C80.08,111.42 80.37,111.48 80.59,111.58" fill="currentColor" stroke="currentColor" stroke-width="1.2" stroke-linecap="round" stroke-linejoin="round" />
  <path d="M192.35,111.44 C192.81,111.58 193.31,111.80 193.82,112.10" fill="currentColor" stroke="currentColor" stroke-width="1.2" stroke-linecap="round" stroke-linejoin="round" />
  <path d="M80.59,111.58 C80.80,111.69 80.96,111.83 81.05,112.01" fill="currentColor" stroke="currentColor" stroke-width="1.2" stroke-linecap="round" stroke-linejoin="round" />
  <path d="M188.52,112.14 C188.82,111.85 189.18,111.63 189.58,111.47" fill="currentColor" stroke="currentColor" stroke-width="1.2" stroke-linecap="round" stroke-linejoin="round" />
  <path d="M187.62,111.37 C187.21,111.77 186.89,112.24 186.66,112.78" fill="currentColor" stroke="currentColor" stroke-width="1.2" stroke-linecap="round" stroke-linejoin="round" />
  <path d="M82.43,112.48 C82.43,112.21 82.38,111.95 82.28,111.70" fill="currentColor" stroke="currentColor" stroke-width="1.2" stroke-linecap="round" stroke-linejoin="round" />
  <path d="M81.05,112.01 C81.14,112.19 81.19,112.38 81.18,112.59" fill="currentColor" stroke="currentColor" stroke-width="1.2" stroke-linecap="round" stroke-linejoin="round" />
  <path d="M187.82,113.16 C187.98,112.77 188.22,112.43 188.52,112.14" fill="currentColor" stroke="currentColor" stroke-width="1.2" stroke-linecap="round" stroke-linejoin="round" />
  <line x1="78.60" y1="113.94" x2="78.60" y2="111.42" fill="currentColor" stroke="currentColor" stroke-width="1.2" stroke-linecap="round" stroke-linejoin="round" />
  <path d="M82.12,113.58 C82.33,113.28 82.43,112.92 82.43,112.48" fill="currentColor" stroke="currentColor" stroke-width="1.2" stroke-linecap="round" stroke-linejoin="round" />
  <path d="M81.18,112.59 C81.18,113.04 81.04,113.38 80.74,113.60" fill="currentColor" stroke="currentColor" stroke-width="1.2" stroke-linecap="round" stroke-linejoin="round" />
  <line x1="12.02" y1="112.14" x2="13.38" y2="115.18" fill="currentColor" stroke="currentColor" stroke-width="1.2" stroke-linecap="round" stroke-linejoin="round" />
  <line x1="10.76" y1="115.18" x2="12.02" y2="112.14" fill="currentColor" stroke="currentColor" stroke-width="1.2" stroke-linecap="round" stroke-linejoin="round" />
  <path d="M186.66,112.78 C186.43,113.32 186.32,113.91 186.32,114.56" fill="currentColor" stroke="currentColor" stroke-width="1.2" stroke-linecap="round" stroke-linejoin="round" />
  <path d="M80.74,113.60 C80.45,113.83 80.00,113.94 79.41,113.94" fill="currentColor" stroke="currentColor" stroke-width="1.2" stroke-linecap="round" stroke-linejoin="round" />
  <path d="M187.56,114.44 C187.56,113.98 187.65,113.55 187.82,113.16" fill="currentColor" stroke="currentColor" stroke-width="1.2" stroke-linecap="round" stroke-linejoin="round" />
  <path d="M81.14,114.28 C81.58,114.11 81.91,113.87 82.12,113.58" fill="currentColor" stroke="currentColor" stroke-width="1.2" stroke-linecap="round" stroke-linejoin="round" />
  <line x1="79.41" y1="113.94" x2="78.60" y2="113.94" fill="currentColor" stroke="currentColor" stroke-width="1.2" stroke-linecap="round" stroke-linejoin="round" />
  <line x1="81.14" y1="114.31" x2="81.14" y2="114.28" fill="currentColor" stroke="currentColor" stroke-width="1.2" stroke-linecap="round" stroke-linejoin="round" />
  <line x1="11.61" y1="110.29" x2="8.00" y2="118.75" fill="currentColor" stroke="currentColor" stroke-width="1.2" stroke-linecap="round" stroke-linejoin="round" />
  <line x1="16.23" y1="118.75" x2="12.47" y2="110.29" fill="currentColor" stroke="currentColor" stroke-width="1.2" stroke-linecap="round" stroke-linejoin="round" />
  <path d="M82.23,114.73 C81.93,114.53 81.57,114.39 81.14,114.31" fill="currentColor" stroke="currentColor" stroke-width="1.2" stroke-linecap="round" stroke-linejoin="round" />
  <line x1="77.39" y1="110.34" x2="77.39" y2="118.75" fill="currentColor" stroke="currentColor" stroke-width="1.2" stroke-linecap="round" stroke-linejoin="round" />
  <line x1="78.60" y1="115.02" x2="80.06" y2="115.02" fill="currentColor" stroke="currentColor" stroke-width="1.2" stroke-linecap="round" stroke-linejoin="round" />
  <path d="M82.92,115.48 C82.76,115.18 82.53,114.93 82.23,114.73" fill="currentColor" stroke="currentColor" stroke-width="1.2" stroke-linecap="round" stroke-linejoin="round" />
  <path d="M80.06,115.02 C80.48,115.03 80.83,115.08 81.11,115.19" fill="currentColor" stroke="currentColor" stroke-width="1.2" stroke-linecap="round" stroke-linejoin="round" />
  <path d="M186.32,114.56 C186.32,114.91 186.37,115.28 186.48,115.67" fill="currentColor" stroke="currentColor" stroke-width="1.2" stroke-linecap="round" stroke-linejoin="round" />
  <line x1="13.38" y1="115.18" x2="10.76" y2="115.18" fill="currentColor" stroke="currentColor" stroke-width="1.2" stroke-linecap="round" stroke-linejoin="round" />
  <path d="M188.00,116.11 C187.71,115.63 187.57,115.08 187.56,114.44" fill="currentColor" stroke="currentColor" stroke-width="1.2" stroke-linecap="round" stroke-linejoin="round" />
  <path d="M81.11,115.19 C81.38,115.30 81.59,115.46 81.72,115.65" fill="currentColor" stroke="currentColor" stroke-width="1.2" stroke-linecap="round" stroke-linejoin="round" />
  <path d="M81.72,115.65 C81.86,115.85 81.92,116.08 81.92,116.33" fill="currentColor" stroke="currentColor" stroke-width="1.2" stroke-linecap="round" stroke-linejoin="round" />
  <path d="M83.17,116.51 C83.17,116.13 83.09,115.78 82.92,115.48" fill="currentColor" stroke="currentColor" stroke-width="1.2" stroke-linecap="round" stroke-linejoin="round" />
  <path d="M186.48,115.67 C186.60,116.05 186.77,116.43 187.00,116.79" fill="currentColor" stroke="currentColor" stroke-width="1.2" stroke-linecap="round" stroke-linejoin="round" />
  <line x1="10.30" y1="116.27" x2="13.87" y2="116.27" fill="currentColor" stroke="currentColor" stroke-width="1.2" stroke-linecap="round" stroke-linejoin="round" />
  <line x1="78.60" y1="117.67" x2="78.60" y2="115.02" fill="currentColor" stroke="currentColor" stroke-width="1.2" stroke-linecap="round" stroke-linejoin="round" />
  <path d="M81.92,116.33 C81.93,116.55 81.88,116.76 81.77,116.96" fill="currentColor" stroke="currentColor" stroke-width="1.2" stroke-linecap="round" stroke-linejoin="round" />
  <path d="M189.19,117.23 C188.68,116.96 188.28,116.59 188.00,116.11" fill="currentColor" stroke="currentColor" stroke-width="1.2" stroke-linecap="round" stroke-linejoin="round" />
  <path d="M83.02,117.29 C83.12,117.03 83.17,116.77 83.17,116.51" fill="currentColor" stroke="currentColor" stroke-width="1.2" stroke-linecap="round" stroke-linejoin="round" />
  <path d="M193.91,116.69 C193.43,117.00 192.94,117.23 192.44,117.40" fill="currentColor" stroke="currentColor" stroke-width="1.2" stroke-linecap="round" stroke-linejoin="round" />
  <path d="M81.77,116.96 C81.67,117.16 81.48,117.33 81.22,117.46" fill="currentColor" stroke="currentColor" stroke-width="1.2" stroke-linecap="round" stroke-linejoin="round" />
  <path d="M187.00,116.79 C187.24,117.16 187.53,117.49 187.89,117.78" fill="currentColor" stroke="currentColor" stroke-width="1.2" stroke-linecap="round" stroke-linejoin="round" />
  <line x1="193.91" y1="118.01" x2="193.91" y2="116.69" fill="currentColor" stroke="currentColor" stroke-width="1.2" stroke-linecap="round" stroke-linejoin="round" />
  <path d="M190.97,117.64 C190.29,117.64 189.70,117.50 189.19,117.23" fill="currentColor" stroke="currentColor" stroke-width="1.2" stroke-linecap="round" stroke-linejoin="round" />
  <line x1="9.24" y1="118.75" x2="10.30" y2="116.27" fill="currentColor" stroke="currentColor" stroke-width="1.2" stroke-linecap="round" stroke-linejoin="round" />
  <line x1="13.87" y1="116.27" x2="15.00" y2="118.75" fill="currentColor" stroke="currentColor" stroke-width="1.2" stroke-linecap="round" stroke-linejoin="round" />
  <path d="M192.44,117.40 C191.94,117.56 191.45,117.64 190.97,117.64" fill="currentColor" stroke="currentColor" stroke-width="1.2" stroke-linecap="round" stroke-linejoin="round" />
  <path d="M81.22,117.46 C80.96,117.59 80.59,117.66 80.12,117.67" fill="currentColor" stroke="currentColor" stroke-width="1.2" stroke-linecap="round" stroke-linejoin="round" />
  <path d="M82.52,118.02 C82.74,117.80 82.91,117.56 83.02,117.29" fill="currentColor" stroke="currentColor" stroke-width="1.2" stroke-linecap="round" stroke-linejoin="round" />
  <line x1="80.12" y1="117.67" x2="78.60" y2="117.67" fill="currentColor" stroke="currentColor" stroke-width="1.2" stroke-linecap="round" stroke-linejoin="round" />
  <path d="M187.89,117.78 C188.25,118.08 188.68,118.31 189.17,118.48" fill="currentColor" stroke="currentColor" stroke-width="1.2" stroke-linecap="round" stroke-linejoin="round" />
  <path d="M193.04,118.39 C193.34,118.28 193.63,118.16 193.91,118.01" fill="currentColor" stroke="currentColor" stroke-width="1.2" stroke-linecap="round" stroke-linejoin="round" />
  <path d="M81.62,118.55 C81.99,118.41 82.29,118.24 82.52,118.02" fill="currentColor" stroke="currentColor" stroke-width="1.2" stroke-linecap="round" stroke-linejoin="round" />
  <path d="M192.05,118.66 C192.41,118.59 192.74,118.50 193.04,118.39" fill="currentColor" stroke="currentColor" stroke-width="1.2" stroke-linecap="round" stroke-linejoin="round" />
  <path d="M189.17,118.48 C189.67,118.66 190.23,118.75 190.86,118.75" fill="currentColor" stroke="currentColor" stroke-width="1.2" stroke-linecap="round" stroke-linejoin="round" />
  <path d="M80.28,118.75 C80.81,118.75 81.25,118.68 81.62,118.55" fill="currentColor" stroke="currentColor" stroke-width="1.2" stroke-linecap="round" stroke-linejoin="round" />
  <path d="M190.86,118.75 C191.30,118.75 191.69,118.72 192.05,118.66" fill="currentColor" stroke="currentColor" stroke-width="1.2" stroke-linecap="round" stroke-linejoin="round" />
  <line x1="77.39" y1="118.75" x2="80.28" y2="118.75" fill="currentColor" stroke="currentColor" stroke-width="1.2" stroke-linecap="round" stroke-linejoin="round" />
  <line x1="8.00" y1="118.75" x2="9.24" y2="118.75" fill="currentColor" stroke="currentColor" stroke-width="1.2" stroke-linecap="round" stroke-linejoin="round" />
  <line x1="15.00" y1="118.75" x2="16.23" y2="118.75" fill="currentColor" stroke="currentColor" stroke-width="1.2" stroke-linecap="round" stroke-linejoin="round" />
</svg>