<svg xmlns="http://www.w3.org/2000/svg" viewBox="0 0 205.72 167.20" preserveAspectRatio="xMidYMid meet" shape-rendering="geometricPrecision" text-rendering="optimizeLegibility">
  <line x1="132.56" y1="8.00" x2="148.40" y2="159.20" fill="none" stroke="currentColor" stroke-width="1.4000000476837158" stroke-linecap="round" stroke-linejoin="round" />
  <line x1="189.08" y1="28.52" x2="8.00" y2="128.24" fill="none" stroke="currentColor" stroke-width="1.4000000476837158" stroke-linecap="round" stroke-linejoin="round" />
  <line x1="8.00" y1="128.24" x2="25.00" y2="41.36" fill="none" stroke="currentColor" stroke-width="1.4000000476837158" stroke-linecap="round" stroke-linejoin="round" />
  <line x1="25.00" y1="41.36" x2="197.72" y2="158.84" fill="none" stroke="currentColor" stroke-width="1.4000000476837158" stroke-linecap="round" stroke-linejoin="round" />
  <path d="M10.72,114.60 C14.81,115.41 18.26,118.02 20.20,121.57" fill="none" stroke="currentColor" stroke-width="1.000000011920929" stroke-linecap="round" stroke-linejoin="round" />
  <path d="M35.06,48.21 C32.87,51.42 29.18,53.53 25.00,53.53" fill="none" stroke="currentColor" stroke-width="1.000000011920929" stroke-linecap="round" stroke-linejoin="round" />
  <path d="M25.00,53.53 C24.20,53.53 23.41,53.45 22.64,53.30" fill="none" stroke="currentColor" stroke-width="1.000000011920929" stroke-linecap="round" stroke-linejoin="round" />
  <path d="M136.37,44.57 C136.80,44.52 137.23,44.50 137.68,44.50" fill="none" stroke="currentColor" stroke-width="1.000000011920929" stroke-linecap="round" stroke-linejoin="round" />
  <path d="M137.68,44.50 C142.32,44.50 146.38,47.08 148.48,50.88" fill="none" stroke="currentColor" stroke-width="1.000000011920929" stroke-linecap="round" stroke-linejoin="round" />
  <path d="M143.72,114.41 C144.10,114.36 144.49,114.33 144.89,114.33" fill="none" stroke="currentColor" stroke-width="1.000000011920929" stroke-linecap="round" stroke-linejoin="round" />
  <path d="M144.89,114.33 C149.62,114.33 153.46,118.17 153.46,122.91" fill="none" stroke="currentColor" stroke-width="1.000000011920929" stroke-linecap="round" stroke-linejoin="round" />
  <path d="M153.46,122.91 C153.46,124.69 152.91,126.35 151.98,127.73" fill="none" stroke="currentColor" stroke-width="1.000000011920929" stroke-linecap="round" stroke-linejoin="round" />
  <path d="M146.32,41.61C146.32,41.91 146.27,42.21 146.18,42.49C146.08,42.77 145.94,43.02 145.75,43.24C145.55,43.46 145.31,43.63 145.01,43.76C144.71,43.89 144.36,43.96 143.96,43.96C143.67,43.96 143.41,43.92 143.19,43.85C142.97,43.78 142.77,43.68 142.61,43.54C142.44,43.41 142.31,43.25 142.20,43.06C142.09,42.86 142.00,42.64 141.94,42.40C141.87,42.15 141.82,41.88 141.79,41.58C141.76,41.29 141.75,40.98 141.75,40.64C141.75,40.34 141.77,40.04 141.80,39.74C141.83,39.43 141.89,39.14 141.97,38.86C142.05,38.57 142.16,38.31 142.31,38.06C142.45,37.81 142.62,37.59 142.84,37.41C143.05,37.22 143.31,37.08 143.60,36.97C143.90,36.86 144.25,36.81 144.64,36.81C144.77,36.81 144.91,36.82 145.04,36.83C145.18,36.85 145.30,36.87 145.42,36.90C145.53,36.93 145.63,36.95 145.71,36.99C145.79,37.02 145.84,37.05 145.86,37.07C145.89,37.08 145.91,37.11 145.92,37.13C145.93,37.15 145.94,37.18 145.95,37.20C145.96,37.23 145.96,37.26 145.97,37.30C145.97,37.33 145.97,37.37 145.97,37.42C145.97,37.49 145.97,37.54 145.97,37.59C145.97,37.64 145.96,37.67 145.95,37.70C145.93,37.73 145.92,37.75 145.90,37.77C145.88,37.78 145.85,37.79 145.82,37.79C145.78,37.79 145.73,37.77 145.66,37.75C145.59,37.72 145.51,37.70 145.41,37.67C145.32,37.64 145.20,37.61 145.06,37.58C144.92,37.56 144.76,37.55 144.58,37.55C144.25,37.55 143.96,37.61 143.72,37.75C143.48,37.89 143.29,38.07 143.13,38.30C142.98,38.53 142.87,38.79 142.79,39.10C142.72,39.40 142.68,39.71 142.67,40.04C142.76,39.99 142.87,39.94 142.98,39.88C143.10,39.83 143.23,39.78 143.36,39.74C143.50,39.69 143.65,39.66 143.80,39.63C143.96,39.61 144.12,39.59 144.30,39.59C144.67,39.59 144.99,39.64 145.25,39.75C145.50,39.85 145.71,39.99 145.87,40.17C146.03,40.35 146.15,40.56 146.21,40.81C146.28,41.05 146.32,41.32 146.32,41.61ZM145.38,41.69C145.38,41.48 145.36,41.30 145.32,41.13C145.28,40.96 145.21,40.81 145.11,40.69C145.02,40.57 144.89,40.48 144.73,40.42C144.56,40.35 144.37,40.32 144.13,40.32C144.00,40.32 143.86,40.33 143.73,40.36C143.60,40.38 143.47,40.41 143.35,40.45C143.22,40.50 143.11,40.54 142.99,40.60C142.88,40.65 142.78,40.71 142.68,40.78C142.68,41.24 142.71,41.63 142.77,41.94C142.83,42.25 142.92,42.50 143.03,42.69C143.14,42.88 143.28,43.01 143.45,43.09C143.62,43.17 143.82,43.21 144.04,43.21C144.27,43.21 144.47,43.17 144.64,43.08C144.81,43.00 144.95,42.88 145.06,42.74C145.17,42.59 145.25,42.43 145.30,42.25C145.36,42.07 145.38,41.88 145.38,41.69Z" fill="currentColor" stroke="currentColor" stroke-width="1.2" stroke-linejoin="round" />
  <path d="M151.94,40.37C151.94,40.90 151.90,41.39 151.82,41.83C151.73,42.27 151.59,42.65 151.40,42.96C151.20,43.28 150.95,43.52 150.63,43.70C150.32,43.87 149.93,43.96 149.47,43.96C149.03,43.96 148.66,43.88 148.36,43.72C148.07,43.57 147.82,43.34 147.64,43.04C147.46,42.73 147.33,42.36 147.25,41.92C147.18,41.48 147.14,40.97 147.14,40.40C147.14,39.87 147.18,39.38 147.27,38.94C147.35,38.50 147.49,38.12 147.69,37.80C147.88,37.48 148.13,37.24 148.45,37.07C148.76,36.89 149.15,36.80 149.61,36.80C150.05,36.80 150.42,36.88 150.72,37.04C151.02,37.19 151.26,37.42 151.44,37.73C151.62,38.03 151.75,38.40 151.83,38.84C151.91,39.29 151.94,39.79 151.94,40.37ZM151.00,40.43C151.00,40.08 150.99,39.77 150.96,39.50C150.94,39.22 150.90,38.98 150.85,38.76C150.80,38.55 150.74,38.37 150.66,38.22C150.59,38.07 150.49,37.94 150.39,37.84C150.28,37.75 150.16,37.67 150.02,37.63C149.88,37.58 149.73,37.56 149.55,37.56C149.25,37.56 149.00,37.63 148.81,37.78C148.62,37.92 148.47,38.12 148.36,38.37C148.26,38.62 148.18,38.91 148.14,39.25C148.10,39.58 148.08,39.95 148.08,40.33C148.08,40.85 148.11,41.29 148.16,41.66C148.22,42.02 148.30,42.32 148.42,42.55C148.53,42.78 148.68,42.94 148.86,43.05C149.04,43.15 149.26,43.20 149.52,43.20C149.72,43.20 149.90,43.17 150.05,43.10C150.20,43.04 150.33,42.95 150.44,42.83C150.55,42.71 150.64,42.56 150.71,42.40C150.79,42.23 150.84,42.04 150.89,41.84C150.93,41.63 150.96,41.41 150.97,41.17C150.99,40.94 151.00,40.69 151.00,40.43Z" fill="currentColor" stroke="currentColor" stroke-width="1.2" stroke-linejoin="round" />
  <path d="M155.50,37.77C155.50,37.95 155.47,38.11 155.40,38.27C155.33,38.42 155.24,38.55 155.12,38.67C155.00,38.79 154.86,38.88 154.70,38.94C154.53,39.01 154.36,39.04 154.17,39.04C153.98,39.04 153.81,39.01 153.65,38.95C153.49,38.89 153.36,38.81 153.24,38.70C153.13,38.59 153.04,38.46 152.98,38.31C152.91,38.16 152.88,38.00 152.88,37.81C152.88,37.63 152.91,37.46 152.98,37.31C153.05,37.15 153.14,37.02 153.26,36.91C153.38,36.80 153.52,36.71 153.68,36.64C153.85,36.58 154.02,36.55 154.21,36.55C154.40,36.55 154.57,36.58 154.73,36.64C154.88,36.70 155.02,36.78 155.13,36.89C155.25,36.99 155.34,37.12 155.40,37.27C155.47,37.42 155.50,37.59 155.50,37.77ZM154.82,37.79C154.82,37.70 154.81,37.61 154.77,37.52C154.74,37.44 154.70,37.36 154.64,37.30C154.58,37.24 154.51,37.20 154.44,37.16C154.36,37.13 154.27,37.11 154.18,37.11C154.09,37.11 154.01,37.13 153.93,37.16C153.85,37.20 153.78,37.24 153.73,37.30C153.67,37.36 153.63,37.44 153.59,37.52C153.56,37.60 153.54,37.69 153.54,37.78C153.54,37.89 153.56,37.98 153.59,38.07C153.63,38.15 153.67,38.23 153.73,38.29C153.79,38.35 153.86,38.40 153.94,38.43C154.02,38.46 154.11,38.48 154.20,38.48C154.29,38.48 154.37,38.46 154.44,38.43C154.52,38.39 154.59,38.34 154.64,38.28C154.70,38.22 154.74,38.14 154.77,38.06C154.81,37.98 154.82,37.89 154.82,37.79Z" fill="currentColor" stroke="currentColor" stroke-width="1.2" stroke-linejoin="round" />
  <path d="M156.47,115.44C156.47,115.51 156.46,115.57 156.45,115.62C156.44,115.66 156.43,115.70 156.41,115.73C156.39,115.76 156.37,115.78 156.35,115.79C156.32,115.80 156.30,115.81 156.27,115.81L152.64,115.81C152.62,115.81 152.59,115.80 152.57,115.79C152.55,115.78 152.53,115.76 152.51,115.73C152.49,115.70 152.48,115.66 152.46,115.62C152.45,115.57 152.45,115.51 152.45,115.44C152.45,115.38 152.45,115.32 152.46,115.28C152.48,115.23 152.49,115.19 152.51,115.16C152.52,115.13 152.54,115.11 152.56,115.09C152.59,115.08 152.61,115.07 152.64,115.07L154.09,115.07L154.09,109.78L152.75,110.58C152.68,110.62 152.63,110.64 152.59,110.65C152.54,110.66 152.51,110.65 152.49,110.62C152.46,110.60 152.44,110.56 152.44,110.51C152.43,110.45 152.42,110.39 152.42,110.30C152.42,110.24 152.42,110.19 152.43,110.15C152.44,110.11 152.44,110.07 152.45,110.04C152.46,110.01 152.48,109.99 152.50,109.97C152.52,109.94 152.55,109.92 152.58,109.90L154.18,108.88C154.19,108.86 154.21,108.86 154.23,108.85C154.25,108.84 154.28,108.83 154.31,108.83C154.34,108.82 154.38,108.82 154.43,108.81C154.47,108.81 154.52,108.81 154.59,108.81C154.67,108.81 154.74,108.81 154.80,108.82C154.86,108.83 154.90,108.84 154.94,108.85C154.97,108.86 154.99,108.88 155.00,108.90C155.01,108.92 155.02,108.94 155.02,108.96L155.02,115.07L156.27,115.07C156.30,115.07 156.33,115.08 156.35,115.09C156.38,115.11 156.40,115.13 156.42,115.16C156.43,115.19 156.44,115.23 156.45,115.28C156.46,115.32 156.47,115.38 156.47,115.44Z" fill="currentColor" stroke="currentColor" stroke-width="1.2" stroke-linejoin="round" />
  <path d="M162.32,113.83C162.32,113.95 162.30,114.04 162.27,114.11C162.23,114.18 162.18,114.21 162.12,114.21L161.33,114.21L161.33,115.68C161.33,115.70 161.32,115.73 161.31,115.75C161.30,115.77 161.27,115.78 161.24,115.80C161.20,115.81 161.15,115.82 161.09,115.83C161.04,115.84 160.96,115.84 160.87,115.84C160.79,115.84 160.72,115.84 160.66,115.83C160.60,115.82 160.56,115.81 160.52,115.80C160.49,115.78 160.47,115.77 160.45,115.75C160.44,115.73 160.43,115.70 160.43,115.68L160.43,114.21L157.57,114.21C157.52,114.21 157.49,114.21 157.46,114.20C157.43,114.19 157.40,114.17 157.38,114.14C157.36,114.11 157.34,114.07 157.33,114.02C157.32,113.96 157.32,113.89 157.32,113.81C157.32,113.74 157.32,113.68 157.32,113.62C157.33,113.57 157.34,113.52 157.35,113.48C157.36,113.43 157.37,113.39 157.39,113.35C157.41,113.31 157.43,113.26 157.45,113.22L159.96,108.99C159.97,108.97 160.00,108.94 160.03,108.92C160.07,108.90 160.11,108.88 160.17,108.86C160.22,108.85 160.29,108.84 160.37,108.84C160.44,108.83 160.54,108.83 160.64,108.83C160.76,108.83 160.87,108.83 160.95,108.84C161.04,108.85 161.11,108.86 161.16,108.88C161.22,108.89 161.26,108.91 161.29,108.93C161.32,108.96 161.33,108.98 161.33,109.02L161.33,113.45L162.12,113.45C162.18,113.45 162.23,113.48 162.26,113.55C162.30,113.61 162.32,113.70 162.32,113.83ZM160.43,109.64L160.42,109.64L158.16,113.45L160.43,113.45L160.43,109.64Z" fill="currentColor" stroke="currentColor" stroke-width="1.2" stroke-linejoin="round" />
  <path d="M167.83,112.32C167.83,112.85 167.79,113.34 167.70,113.78C167.62,114.22 167.48,114.60 167.29,114.91C167.09,115.23 166.84,115.48 166.52,115.65C166.21,115.82 165.82,115.91 165.35,115.91C164.92,115.91 164.55,115.83 164.25,115.68C163.95,115.52 163.71,115.29 163.53,114.99C163.35,114.69 163.22,114.32 163.14,113.87C163.06,113.43 163.02,112.92 163.02,112.35C163.02,111.82 163.07,111.33 163.15,110.89C163.24,110.45 163.38,110.07 163.57,109.75C163.76,109.44 164.02,109.19 164.33,109.02C164.65,108.84 165.04,108.76 165.49,108.76C165.94,108.76 166.30,108.84 166.60,108.99C166.90,109.15 167.14,109.38 167.33,109.68C167.51,109.98 167.64,110.35 167.72,110.79C167.79,111.24 167.83,111.74 167.83,112.32ZM166.88,112.38C166.88,112.03 166.87,111.72 166.85,111.45C166.82,111.17 166.79,110.93 166.74,110.72C166.69,110.51 166.63,110.32 166.55,110.17C166.47,110.02 166.38,109.90 166.27,109.80C166.17,109.70 166.04,109.63 165.91,109.58C165.77,109.54 165.61,109.51 165.44,109.51C165.14,109.51 164.89,109.59 164.70,109.73C164.51,109.87 164.36,110.07 164.25,110.32C164.14,110.57 164.07,110.86 164.03,111.20C163.99,111.54 163.97,111.90 163.97,112.29C163.97,112.80 164.00,113.25 164.05,113.61C164.10,113.97 164.19,114.27 164.31,114.50C164.42,114.73 164.57,114.89 164.75,115.00C164.93,115.10 165.15,115.15 165.41,115.15C165.61,115.15 165.79,115.12 165.94,115.06C166.09,114.99 166.22,114.90 166.33,114.78C166.44,114.66 166.53,114.52 166.60,114.35C166.67,114.18 166.73,113.99 166.77,113.79C166.82,113.59 166.85,113.36 166.86,113.13C166.88,112.89 166.88,112.64 166.88,112.38Z" fill="currentColor" stroke="currentColor" stroke-width="1.2" stroke-linejoin="round" />
  <path d="M171.39,109.72C171.39,109.90 171.35,110.06 171.29,110.22C171.22,110.37 171.13,110.51 171.01,110.62C170.89,110.74 170.75,110.83 170.58,110.90C170.42,110.96 170.24,110.99 170.05,110.99C169.87,110.99 169.69,110.96 169.54,110.90C169.38,110.84 169.25,110.76 169.13,110.65C169.02,110.55 168.93,110.42 168.86,110.27C168.80,110.12 168.76,109.95 168.76,109.77C168.76,109.58 168.80,109.42 168.87,109.26C168.94,109.10 169.03,108.97 169.15,108.86C169.27,108.75 169.41,108.66 169.57,108.60C169.73,108.53 169.91,108.50 170.10,108.50C170.28,108.50 170.46,108.53 170.61,108.59C170.77,108.65 170.91,108.74 171.02,108.84C171.14,108.95 171.22,109.07 171.29,109.22C171.35,109.38 171.39,109.54 171.39,109.72ZM170.71,109.75C170.71,109.65 170.69,109.56 170.66,109.47C170.63,109.39 170.58,109.32 170.53,109.26C170.47,109.20 170.40,109.15 170.32,109.11C170.24,109.08 170.16,109.06 170.06,109.06C169.97,109.06 169.89,109.08 169.81,109.11C169.74,109.15 169.67,109.20 169.61,109.26C169.56,109.32 169.51,109.39 169.48,109.47C169.45,109.55 169.43,109.64 169.43,109.74C169.43,109.84 169.45,109.93 169.48,110.02C169.51,110.11 169.56,110.18 169.62,110.24C169.68,110.30 169.75,110.35 169.83,110.38C169.91,110.42 169.99,110.43 170.09,110.43C170.17,110.43 170.25,110.42 170.33,110.38C170.41,110.34 170.47,110.29 170.53,110.23C170.59,110.17 170.63,110.10 170.66,110.01C170.69,109.93 170.71,109.84 170.71,109.75Z" fill="currentColor" stroke="currentColor" stroke-width="1.2" stroke-linejoin="round" />
  <path d="M31.71,60.85C31.71,61.17 31.66,61.46 31.54,61.72C31.43,61.97 31.27,62.19 31.07,62.37C30.86,62.56 30.60,62.70 30.30,62.80C29.99,62.89 29.65,62.94 29.27,62.94C29.03,62.94 28.82,62.92 28.61,62.89C28.41,62.85 28.23,62.80 28.07,62.75C27.92,62.70 27.79,62.65 27.68,62.59C27.58,62.54 27.51,62.50 27.49,62.47C27.46,62.45 27.44,62.42 27.42,62.40C27.41,62.37 27.40,62.34 27.39,62.30C27.38,62.27 27.37,62.22 27.36,62.17C27.36,62.12 27.35,62.06 27.35,61.98C27.35,61.85 27.37,61.76 27.39,61.71C27.42,61.66 27.45,61.64 27.50,61.64C27.53,61.64 27.60,61.67 27.69,61.72C27.79,61.78 27.91,61.84 28.06,61.91C28.20,61.98 28.38,62.04 28.58,62.09C28.78,62.15 29.00,62.18 29.24,62.18C29.48,62.18 29.68,62.15 29.86,62.09C30.04,62.03 30.19,61.94 30.31,61.83C30.44,61.72 30.53,61.59 30.59,61.44C30.65,61.28 30.68,61.12 30.68,60.94C30.68,60.74 30.64,60.57 30.56,60.41C30.49,60.25 30.37,60.11 30.23,60.00C30.08,59.89 29.89,59.80 29.68,59.74C29.46,59.68 29.21,59.65 28.94,59.65L28.28,59.65C28.25,59.65 28.22,59.64 28.20,59.63C28.17,59.61 28.15,59.59 28.12,59.57C28.11,59.54 28.09,59.50 28.08,59.45C28.06,59.41 28.06,59.35 28.06,59.27C28.06,59.20 28.06,59.15 28.07,59.10C28.09,59.06 28.10,59.02 28.12,58.99C28.14,58.97 28.16,58.95 28.19,58.93C28.21,58.92 28.24,58.92 28.27,58.92L28.88,58.92C29.12,58.92 29.33,58.88 29.52,58.82C29.70,58.76 29.86,58.68 29.99,58.56C30.12,58.45 30.23,58.31 30.30,58.15C30.37,57.99 30.40,57.81 30.40,57.62C30.40,57.47 30.38,57.34 30.33,57.20C30.28,57.07 30.21,56.96 30.12,56.86C30.03,56.77 29.91,56.69 29.76,56.64C29.62,56.58 29.45,56.55 29.26,56.55C29.05,56.55 28.86,56.58 28.69,56.65C28.51,56.71 28.36,56.78 28.22,56.85C28.09,56.92 27.98,56.99 27.89,57.05C27.80,57.11 27.73,57.14 27.70,57.14C27.67,57.14 27.65,57.14 27.63,57.13C27.61,57.12 27.60,57.10 27.58,57.08C27.57,57.05 27.56,57.01 27.56,56.96C27.55,56.91 27.55,56.85 27.55,56.77C27.55,56.72 27.55,56.67 27.55,56.63C27.56,56.59 27.56,56.55 27.57,56.52C27.59,56.49 27.60,56.46 27.61,56.44C27.63,56.41 27.65,56.38 27.68,56.35C27.72,56.32 27.79,56.27 27.89,56.20C28.00,56.14 28.12,56.08 28.28,56.01C28.43,55.95 28.60,55.90 28.80,55.85C29.00,55.81 29.21,55.79 29.44,55.79C29.77,55.79 30.05,55.83 30.29,55.91C30.54,56.00 30.74,56.11 30.90,56.26C31.07,56.41 31.19,56.59 31.27,56.80C31.35,57.01 31.39,57.24 31.39,57.50C31.39,57.72 31.36,57.92 31.30,58.11C31.24,58.30 31.16,58.46 31.05,58.61C30.94,58.75 30.80,58.88 30.64,58.98C30.48,59.08 30.29,59.15 30.08,59.19L30.08,59.20C30.32,59.23 30.54,59.28 30.74,59.38C30.94,59.47 31.11,59.59 31.25,59.74C31.40,59.88 31.51,60.05 31.59,60.24C31.67,60.43 31.71,60.64 31.71,60.85Z" fill="currentColor" stroke="currentColor" stroke-width="1.2" stroke-linejoin="round" />
  <path d="M35.37,60.24L36.42,62.61C36.44,62.66 36.45,62.70 36.44,62.73C36.44,62.77 36.42,62.79 36.38,62.81C36.34,62.84 36.28,62.85 36.21,62.86C36.14,62.87 36.05,62.87 35.94,62.87C35.84,62.87 35.76,62.87 35.71,62.87C35.65,62.86 35.60,62.85 35.57,62.84C35.54,62.83 35.52,62.81 35.51,62.79C35.50,62.77 35.49,62.75 35.48,62.72L34.67,60.82L33.15,62.72C33.13,62.75 33.11,62.77 33.08,62.79C33.06,62.81 33.03,62.83 32.98,62.84C32.94,62.85 32.89,62.86 32.82,62.86C32.75,62.87 32.67,62.87 32.56,62.87C32.46,62.87 32.37,62.87 32.31,62.86C32.24,62.85 32.19,62.84 32.16,62.81C32.13,62.79 32.12,62.77 32.13,62.73C32.13,62.70 32.15,62.66 32.19,62.61L34.20,60.23L33.20,57.97C33.18,57.92 33.17,57.88 33.18,57.84C33.18,57.81 33.20,57.78 33.23,57.76C33.27,57.74 33.32,57.72 33.39,57.72C33.45,57.71 33.54,57.71 33.65,57.71C33.75,57.71 33.83,57.71 33.89,57.71C33.95,57.72 33.99,57.73 34.02,57.74C34.05,57.75 34.07,57.76 34.09,57.78C34.10,57.80 34.11,57.82 34.12,57.85L34.89,59.65L36.34,57.85C36.36,57.83 36.38,57.81 36.40,57.79C36.43,57.77 36.46,57.75 36.50,57.74C36.54,57.73 36.58,57.72 36.64,57.71C36.70,57.71 36.78,57.71 36.88,57.71C36.98,57.71 37.07,57.71 37.14,57.72C37.21,57.72 37.26,57.74 37.29,57.76C37.32,57.77 37.34,57.80 37.33,57.83C37.33,57.87 37.30,57.91 37.25,57.96L35.37,60.24Z" fill="currentColor" stroke="currentColor" stroke-width="1.2" stroke-linejoin="round" />
  <path d="M20.28,114.01C20.28,114.07 20.27,114.13 20.27,114.18C20.26,114.23 20.24,114.27 20.23,114.31C20.21,114.34 20.19,114.36 20.16,114.38C20.14,114.40 20.11,114.40 20.08,114.40L16.24,114.40C16.18,114.40 16.14,114.40 16.10,114.39C16.07,114.37 16.03,114.35 16.01,114.32C15.98,114.30 15.96,114.25 15.95,114.20C15.94,114.15 15.93,114.08 15.93,114.00C15.93,113.93 15.93,113.87 15.94,113.81C15.94,113.76 15.95,113.71 15.97,113.67C15.99,113.63 16.01,113.59 16.04,113.55C16.07,113.51 16.10,113.46 16.14,113.42L17.49,111.99C17.80,111.66 18.05,111.36 18.24,111.10C18.43,110.84 18.57,110.60 18.68,110.39C18.78,110.17 18.85,109.98 18.88,109.80C18.91,109.63 18.93,109.46 18.93,109.31C18.93,109.15 18.90,109.01 18.85,108.87C18.80,108.73 18.73,108.61 18.63,108.51C18.54,108.40 18.42,108.32 18.28,108.26C18.13,108.20 17.97,108.17 17.78,108.17C17.56,108.17 17.37,108.20 17.19,108.26C17.02,108.32 16.87,108.39 16.74,108.46C16.61,108.53 16.50,108.60 16.41,108.66C16.32,108.72 16.26,108.75 16.21,108.75C16.19,108.75 16.17,108.74 16.15,108.73C16.13,108.71 16.11,108.69 16.10,108.66C16.09,108.63 16.08,108.58 16.07,108.53C16.06,108.48 16.06,108.41 16.06,108.34C16.06,108.28 16.06,108.24 16.06,108.20C16.07,108.16 16.07,108.12 16.08,108.09C16.09,108.06 16.10,108.04 16.12,108.01C16.13,107.99 16.16,107.96 16.20,107.92C16.25,107.88 16.32,107.83 16.43,107.77C16.53,107.70 16.66,107.64 16.82,107.58C16.98,107.51 17.16,107.46 17.35,107.42C17.54,107.37 17.74,107.35 17.95,107.35C18.29,107.35 18.58,107.40 18.84,107.49C19.09,107.59 19.30,107.72 19.47,107.88C19.63,108.05 19.76,108.24 19.84,108.46C19.92,108.68 19.96,108.91 19.96,109.16C19.96,109.38 19.94,109.60 19.90,109.82C19.86,110.04 19.78,110.28 19.65,110.53C19.53,110.79 19.34,111.08 19.10,111.39C18.86,111.70 18.54,112.06 18.15,112.47L17.05,113.62L20.07,113.62C20.10,113.62 20.13,113.63 20.15,113.64C20.18,113.66 20.20,113.68 20.22,113.72C20.24,113.75 20.26,113.79 20.27,113.84C20.27,113.89 20.28,113.94 20.28,114.01Z" fill="currentColor" stroke="currentColor" stroke-width="1.2" stroke-linejoin="round" />
  <path d="M23.88,111.80L24.94,114.17C24.96,114.22 24.97,114.26 24.96,114.29C24.96,114.33 24.93,114.36 24.89,114.38C24.85,114.40 24.80,114.41 24.73,114.42C24.66,114.43 24.57,114.44 24.46,114.44C24.36,114.44 24.28,114.43 24.22,114.43C24.17,114.42 24.12,114.41 24.09,114.40C24.06,114.39 24.03,114.37 24.02,114.35C24.01,114.33 24.00,114.31 23.99,114.29L23.18,112.38L21.67,114.29C21.64,114.31 21.62,114.33 21.60,114.35C21.57,114.37 21.54,114.39 21.50,114.40C21.46,114.41 21.40,114.42 21.34,114.43C21.27,114.43 21.18,114.44 21.07,114.44C20.97,114.44 20.89,114.43 20.82,114.42C20.76,114.41 20.71,114.40 20.68,114.38C20.65,114.36 20.64,114.33 20.64,114.30C20.65,114.26 20.67,114.22 20.70,114.17L22.71,111.79L21.72,109.53C21.70,109.48 21.69,109.44 21.69,109.41C21.70,109.37 21.71,109.35 21.75,109.32C21.78,109.30 21.83,109.29 21.90,109.28C21.97,109.27 22.06,109.27 22.17,109.27C22.27,109.27 22.35,109.27 22.41,109.28C22.46,109.28 22.51,109.29 22.54,109.30C22.57,109.31 22.59,109.33 22.60,109.35C22.62,109.36 22.63,109.38 22.64,109.41L23.41,111.21L24.86,109.41C24.88,109.39 24.90,109.37 24.92,109.35C24.94,109.33 24.97,109.32 25.01,109.30C25.05,109.29 25.10,109.28 25.16,109.28C25.22,109.27 25.30,109.27 25.39,109.27C25.50,109.27 25.59,109.27 25.66,109.28C25.72,109.29 25.77,109.30 25.81,109.32C25.84,109.34 25.85,109.36 25.85,109.40C25.84,109.43 25.82,109.47 25.77,109.52L23.88,111.80Z" fill="currentColor" stroke="currentColor" stroke-width="1.2" stroke-linejoin="round" />
</svg>