<svg xmlns="http://www.w3.org/2000/svg" viewBox="0 0 178.68 177.02" preserveAspectRatio="xMidYMid meet" shape-rendering="geometricPrecision" text-rendering="optimizeLegibility">
  <line x1="14.93" y1="133.42" x2="141.51" y2="16.15" fill="none" stroke="currentColor" stroke-width="1.4000000476837158" stroke-linecap="round" stroke-linejoin="round" />
  <line x1="90.27" y1="169.02" x2="90.27" y2="8.00" fill="none" stroke="currentColor" stroke-width="1.4000000476837158" stroke-linecap="round" stroke-linejoin="round" />
  <line x1="107.97" y1="16.15" x2="53.95" y2="162.72" fill="none" stroke="currentColor" stroke-width="1.4000000476837158" stroke-linecap="round" stroke-linejoin="round" />
  <line x1="11.47" y1="90.21" x2="170.68" y2="90.21" fill="none" stroke="currentColor" stroke-width="1.4000000476837158" stroke-linecap="round" stroke-linejoin="round" />
  <path d="M8.24,131.66 C8.30,131.65 8.38,131.65 8.46,131.65" fill="currentColor" stroke="currentColor" stroke-width="1.2" stroke-linecap="round" stroke-linejoin="round" />
  <path d="M8.46,131.65 C8.55,131.65 8.63,131.65 8.69,131.66" fill="currentColor" stroke="currentColor" stroke-width="1.2" stroke-linecap="round" stroke-linejoin="round" />
  <path d="M8.10,131.69 C8.13,131.68 8.18,131.67 8.24,131.66" fill="currentColor" stroke="currentColor" stroke-width="1.2" stroke-linecap="round" stroke-linejoin="round" />
  <path d="M8.69,131.66 C8.74,131.67 8.79,131.68 8.83,131.69" fill="currentColor" stroke="currentColor" stroke-width="1.2" stroke-linecap="round" stroke-linejoin="round" />
  <path d="M8.02,131.74 C8.04,131.72 8.06,131.70 8.10,131.69" fill="currentColor" stroke="currentColor" stroke-width="1.2" stroke-linecap="round" stroke-linejoin="round" />
  <path d="M8.83,131.69 C8.86,131.70 8.89,131.72 8.90,131.74" fill="currentColor" stroke="currentColor" stroke-width="1.2" stroke-linecap="round" stroke-linejoin="round" />
  <path d="M8.00,131.82 C8.00,131.79 8.01,131.76 8.02,131.74" fill="currentColor" stroke="currentColor" stroke-width="1.2" stroke-linecap="round" stroke-linejoin="round" />
  <path d="M8.90,131.74 C8.92,131.76 8.92,131.79 8.92,131.82" fill="currentColor" stroke="currentColor" stroke-width="1.2" stroke-linecap="round" stroke-linejoin="round" />
  <line x1="8.92" y1="131.82" x2="8.92" y2="137.83" fill="currentColor" stroke="currentColor" stroke-width="1.2" stroke-linecap="round" stroke-linejoin="round" />
  <line x1="8.00" y1="138.25" x2="8.00" y2="131.82" fill="currentColor" stroke="currentColor" stroke-width="1.2" stroke-linecap="round" stroke-linejoin="round" />
  <path d="M13.72,136.29 C13.75,136.29 13.78,136.29 13.81,136.29" fill="currentColor" stroke="currentColor" stroke-width="1.2" stroke-linecap="round" stroke-linejoin="round" />
  <path d="M13.81,136.29 C13.87,136.29 13.91,136.29 13.94,136.30" fill="currentColor" stroke="currentColor" stroke-width="1.2" stroke-linecap="round" stroke-linejoin="round" />
  <path d="M13.65,136.30 C13.67,136.29 13.69,136.29 13.72,136.29" fill="currentColor" stroke="currentColor" stroke-width="1.2" stroke-linecap="round" stroke-linejoin="round" />
  <path d="M13.94,136.30 C13.98,136.30 14.00,136.31 14.02,136.31" fill="currentColor" stroke="currentColor" stroke-width="1.2" stroke-linecap="round" stroke-linejoin="round" />
  <path d="M13.61,136.31 C13.62,136.31 13.63,136.30 13.65,136.30" fill="currentColor" stroke="currentColor" stroke-width="1.2" stroke-linecap="round" stroke-linejoin="round" />
  <path d="M13.57,136.33 C13.58,136.32 13.59,136.32 13.61,136.31" fill="currentColor" stroke="currentColor" stroke-width="1.2" stroke-linecap="round" stroke-linejoin="round" />
  <path d="M14.02,136.31 C14.04,136.32 14.05,136.33 14.06,136.34" fill="currentColor" stroke="currentColor" stroke-width="1.2" stroke-linecap="round" stroke-linejoin="round" />
  <path d="M14.06,136.34 C14.07,136.35 14.07,136.37 14.07,136.38" fill="currentColor" stroke="currentColor" stroke-width="1.2" stroke-linecap="round" stroke-linejoin="round" />
  <line x1="12.63" y1="136.93" x2="13.57" y2="136.33" fill="currentColor" stroke="currentColor" stroke-width="1.2" stroke-linecap="round" stroke-linejoin="round" />
  <path d="M12.58,136.97 C12.59,136.96 12.61,136.95 12.63,136.93" fill="currentColor" stroke="currentColor" stroke-width="1.2" stroke-linecap="round" stroke-linejoin="round" />
  <path d="M12.55,137.02 C12.56,137.00 12.57,136.98 12.58,136.97" fill="currentColor" stroke="currentColor" stroke-width="1.2" stroke-linecap="round" stroke-linejoin="round" />
  <path d="M12.54,137.08 C12.54,137.05 12.55,137.03 12.55,137.02" fill="currentColor" stroke="currentColor" stroke-width="1.2" stroke-linecap="round" stroke-linejoin="round" />
  <line x1="13.52" y1="136.86" x2="12.73" y2="137.34" fill="currentColor" stroke="currentColor" stroke-width="1.2" stroke-linecap="round" stroke-linejoin="round" />
  <path d="M12.54,137.17 C12.54,137.14 12.54,137.11 12.54,137.08" fill="currentColor" stroke="currentColor" stroke-width="1.2" stroke-linecap="round" stroke-linejoin="round" />
  <path d="M12.54,137.29 C12.54,137.26 12.54,137.22 12.54,137.17" fill="currentColor" stroke="currentColor" stroke-width="1.2" stroke-linecap="round" stroke-linejoin="round" />
  <path d="M12.57,137.36 C12.56,137.35 12.55,137.32 12.54,137.29" fill="currentColor" stroke="currentColor" stroke-width="1.2" stroke-linecap="round" stroke-linejoin="round" />
  <path d="M12.73,137.34 C12.69,137.36 12.66,137.37 12.63,137.38" fill="currentColor" stroke="currentColor" stroke-width="1.2" stroke-linecap="round" stroke-linejoin="round" />
  <path d="M12.63,137.38 C12.61,137.38 12.59,137.37 12.57,137.36" fill="currentColor" stroke="currentColor" stroke-width="1.2" stroke-linecap="round" stroke-linejoin="round" />
  <line x1="8.92" y1="137.83" x2="11.42" y2="137.83" fill="currentColor" stroke="currentColor" stroke-width="1.2" stroke-linecap="round" stroke-linejoin="round" />
  <path d="M11.42,137.83 C11.45,137.83 11.48,137.84 11.50,137.85" fill="currentColor" stroke="currentColor" stroke-width="1.2" stroke-linecap="round" stroke-linejoin="round" />
  <path d="M11.50,137.85 C11.52,137.87 11.54,137.89 11.56,137.92" fill="currentColor" stroke="currentColor" stroke-width="1.2" stroke-linecap="round" stroke-linejoin="round" />
  <path d="M11.56,137.92 C11.57,137.95 11.59,137.99 11.59,138.04" fill="currentColor" stroke="currentColor" stroke-width="1.2" stroke-linecap="round" stroke-linejoin="round" />
  <path d="M11.59,138.04 C11.60,138.09 11.60,138.15 11.60,138.22" fill="currentColor" stroke="currentColor" stroke-width="1.2" stroke-linecap="round" stroke-linejoin="round" />
  <line x1="14.07" y1="136.38" x2="14.07" y2="139.99" fill="currentColor" stroke="currentColor" stroke-width="1.2" stroke-linecap="round" stroke-linejoin="round" />
  <path d="M11.60,138.22 C11.60,138.30 11.60,138.36 11.59,138.40" fill="currentColor" stroke="currentColor" stroke-width="1.2" stroke-linecap="round" stroke-linejoin="round" />
  <path d="M8.11,138.54 C8.04,138.49 8.00,138.39 8.00,138.25" fill="currentColor" stroke="currentColor" stroke-width="1.2" stroke-linecap="round" stroke-linejoin="round" />
  <line x1="13.52" y1="139.99" x2="13.52" y2="136.86" fill="currentColor" stroke="currentColor" stroke-width="1.2" stroke-linecap="round" stroke-linejoin="round" />
  <path d="M11.59,138.40 C11.59,138.45 11.57,138.49 11.56,138.53" fill="currentColor" stroke="currentColor" stroke-width="1.2" stroke-linecap="round" stroke-linejoin="round" />
  <path d="M11.56,138.53 C11.54,138.56 11.52,138.59 11.50,138.60" fill="currentColor" stroke="currentColor" stroke-width="1.2" stroke-linecap="round" stroke-linejoin="round" />
  <path d="M8.34,138.63 C8.26,138.63 8.18,138.60 8.11,138.54" fill="currentColor" stroke="currentColor" stroke-width="1.2" stroke-linecap="round" stroke-linejoin="round" />
  <path d="M11.50,138.60 C11.48,138.62 11.45,138.63 11.42,138.63" fill="currentColor" stroke="currentColor" stroke-width="1.2" stroke-linecap="round" stroke-linejoin="round" />
  <line x1="11.42" y1="138.63" x2="8.34" y2="138.63" fill="currentColor" stroke="currentColor" stroke-width="1.2" stroke-linecap="round" stroke-linejoin="round" />
  <line x1="12.67" y1="139.99" x2="13.52" y2="139.99" fill="currentColor" stroke="currentColor" stroke-width="1.2" stroke-linecap="round" stroke-linejoin="round" />
  <line x1="14.07" y1="139.99" x2="14.81" y2="139.99" fill="currentColor" stroke="currentColor" stroke-width="1.2" stroke-linecap="round" stroke-linejoin="round" />
  <path d="M12.62,140.00 C12.63,139.99 12.65,139.99 12.67,139.99" fill="currentColor" stroke="currentColor" stroke-width="1.2" stroke-linecap="round" stroke-linejoin="round" />
  <path d="M14.81,139.99 C14.83,139.99 14.84,139.99 14.86,140.00" fill="currentColor" stroke="currentColor" stroke-width="1.2" stroke-linecap="round" stroke-linejoin="round" />
  <path d="M12.58,140.04 C12.59,140.03 12.61,140.01 12.62,140.00" fill="currentColor" stroke="currentColor" stroke-width="1.2" stroke-linecap="round" stroke-linejoin="round" />
  <path d="M14.86,140.00 C14.87,140.01 14.89,140.03 14.90,140.04" fill="currentColor" stroke="currentColor" stroke-width="1.2" stroke-linecap="round" stroke-linejoin="round" />
  <path d="M12.56,140.11 C12.57,140.08 12.58,140.06 12.58,140.04" fill="currentColor" stroke="currentColor" stroke-width="1.2" stroke-linecap="round" stroke-linejoin="round" />
  <path d="M14.90,140.04 C14.90,140.06 14.91,140.08 14.92,140.11" fill="currentColor" stroke="currentColor" stroke-width="1.2" stroke-linecap="round" stroke-linejoin="round" />
  <path d="M12.55,140.21 C12.55,140.17 12.55,140.14 12.56,140.11" fill="currentColor" stroke="currentColor" stroke-width="1.2" stroke-linecap="round" stroke-linejoin="round" />
  <path d="M14.92,140.11 C14.92,140.14 14.93,140.17 14.93,140.21" fill="currentColor" stroke="currentColor" stroke-width="1.2" stroke-linecap="round" stroke-linejoin="round" />
  <path d="M14.93,140.21 C14.93,140.25 14.92,140.28 14.92,140.31" fill="currentColor" stroke="currentColor" stroke-width="1.2" stroke-linecap="round" stroke-linejoin="round" />
  <path d="M12.56,140.31 C12.55,140.28 12.55,140.25 12.55,140.21" fill="currentColor" stroke="currentColor" stroke-width="1.2" stroke-linecap="round" stroke-linejoin="round" />
  <path d="M14.92,140.31 C14.91,140.34 14.90,140.36 14.89,140.38" fill="currentColor" stroke="currentColor" stroke-width="1.2" stroke-linecap="round" stroke-linejoin="round" />
  <path d="M12.59,140.38 C12.58,140.36 12.57,140.34 12.56,140.31" fill="currentColor" stroke="currentColor" stroke-width="1.2" stroke-linecap="round" stroke-linejoin="round" />
  <path d="M14.89,140.38 C14.88,140.39 14.87,140.41 14.85,140.41" fill="currentColor" stroke="currentColor" stroke-width="1.2" stroke-linecap="round" stroke-linejoin="round" />
  <path d="M12.62,140.41 C12.61,140.41 12.60,140.39 12.59,140.38" fill="currentColor" stroke="currentColor" stroke-width="1.2" stroke-linecap="round" stroke-linejoin="round" />
  <path d="M14.85,140.41 C14.84,140.42 14.83,140.43 14.81,140.43" fill="currentColor" stroke="currentColor" stroke-width="1.2" stroke-linecap="round" stroke-linejoin="round" />
  <path d="M12.67,140.43 C12.65,140.43 12.64,140.42 12.62,140.41" fill="currentColor" stroke="currentColor" stroke-width="1.2" stroke-linecap="round" stroke-linejoin="round" />
  <line x1="14.81" y1="140.43" x2="12.67" y2="140.43" fill="currentColor" stroke="currentColor" stroke-width="1.2" stroke-linecap="round" stroke-linejoin="round" />
  <path d="M44.62,158.34 C44.69,158.33 44.76,158.33 44.85,158.33" fill="currentColor" stroke="currentColor" stroke-width="1.2" stroke-linecap="round" stroke-linejoin="round" />
  <path d="M44.85,158.33 C44.94,158.33 45.01,158.33 45.07,158.34" fill="currentColor" stroke="currentColor" stroke-width="1.2" stroke-linecap="round" stroke-linejoin="round" />
  <path d="M44.48,158.37 C44.52,158.36 44.57,158.35 44.62,158.34" fill="currentColor" stroke="currentColor" stroke-width="1.2" stroke-linecap="round" stroke-linejoin="round" />
  <path d="M45.07,158.34 C45.13,158.35 45.18,158.36 45.21,158.37" fill="currentColor" stroke="currentColor" stroke-width="1.2" stroke-linecap="round" stroke-linejoin="round" />
  <path d="M44.41,158.43 C44.42,158.40 44.45,158.39 44.48,158.37" fill="currentColor" stroke="currentColor" stroke-width="1.2" stroke-linecap="round" stroke-linejoin="round" />
  <path d="M45.21,158.37 C45.25,158.39 45.27,158.40 45.29,158.43" fill="currentColor" stroke="currentColor" stroke-width="1.2" stroke-linecap="round" stroke-linejoin="round" />
  <path d="M44.38,158.50 C44.38,158.47 44.39,158.45 44.41,158.43" fill="currentColor" stroke="currentColor" stroke-width="1.2" stroke-linecap="round" stroke-linejoin="round" />
  <path d="M45.29,158.43 C45.30,158.45 45.31,158.47 45.31,158.50" fill="currentColor" stroke="currentColor" stroke-width="1.2" stroke-linecap="round" stroke-linejoin="round" />
  <line x1="45.31" y1="158.50" x2="45.31" y2="164.51" fill="currentColor" stroke="currentColor" stroke-width="1.2" stroke-linecap="round" stroke-linejoin="round" />
  <line x1="44.38" y1="164.93" x2="44.38" y2="158.50" fill="currentColor" stroke="currentColor" stroke-width="1.2" stroke-linecap="round" stroke-linejoin="round" />
  <path d="M49.57,162.98 C49.68,162.96 49.80,162.94 49.93,162.94" fill="currentColor" stroke="currentColor" stroke-width="1.2" stroke-linecap="round" stroke-linejoin="round" />
  <path d="M49.93,162.94 C50.12,162.94 50.30,162.97 50.45,163.03" fill="currentColor" stroke="currentColor" stroke-width="1.2" stroke-linecap="round" stroke-linejoin="round" />
  <path d="M49.26,163.07 C49.35,163.04 49.46,163.01 49.57,162.98" fill="currentColor" stroke="currentColor" stroke-width="1.2" stroke-linecap="round" stroke-linejoin="round" />
  <path d="M49.02,163.19 C49.09,163.15 49.16,163.11 49.26,163.07" fill="currentColor" stroke="currentColor" stroke-width="1.2" stroke-linecap="round" stroke-linejoin="round" />
  <path d="M50.45,163.03 C50.60,163.08 50.72,163.16 50.82,163.26" fill="currentColor" stroke="currentColor" stroke-width="1.2" stroke-linecap="round" stroke-linejoin="round" />
  <path d="M48.89,163.28 C48.92,163.26 48.96,163.22 49.02,163.19" fill="currentColor" stroke="currentColor" stroke-width="1.2" stroke-linecap="round" stroke-linejoin="round" />
  <path d="M48.84,163.33 C48.85,163.32 48.87,163.30 48.89,163.28" fill="currentColor" stroke="currentColor" stroke-width="1.2" stroke-linecap="round" stroke-linejoin="round" />
  <path d="M48.82,163.38 C48.82,163.36 48.83,163.35 48.84,163.33" fill="currentColor" stroke="currentColor" stroke-width="1.2" stroke-linecap="round" stroke-linejoin="round" />
  <path d="M48.81,163.44 C48.81,163.42 48.81,163.40 48.82,163.38" fill="currentColor" stroke="currentColor" stroke-width="1.2" stroke-linecap="round" stroke-linejoin="round" />
  <path d="M50.82,163.26 C50.92,163.35 50.99,163.47 51.04,163.60" fill="currentColor" stroke="currentColor" stroke-width="1.2" stroke-linecap="round" stroke-linejoin="round" />
  <path d="M50.12,163.48 C50.03,163.44 49.93,163.42 49.82,163.42" fill="currentColor" stroke="currentColor" stroke-width="1.2" stroke-linecap="round" stroke-linejoin="round" />
  <path d="M49.82,163.42 C49.70,163.42 49.58,163.44 49.48,163.48" fill="currentColor" stroke="currentColor" stroke-width="1.2" stroke-linecap="round" stroke-linejoin="round" />
  <path d="M48.81,163.52 C48.81,163.49 48.81,163.46 48.81,163.44" fill="currentColor" stroke="currentColor" stroke-width="1.2" stroke-linecap="round" stroke-linejoin="round" />
  <path d="M49.48,163.48 C49.37,163.52 49.28,163.55 49.21,163.60" fill="currentColor" stroke="currentColor" stroke-width="1.2" stroke-linecap="round" stroke-linejoin="round" />
  <path d="M50.33,163.62 C50.27,163.56 50.20,163.52 50.12,163.48" fill="currentColor" stroke="currentColor" stroke-width="1.2" stroke-linecap="round" stroke-linejoin="round" />
  <path d="M48.81,163.64 C48.81,163.61 48.81,163.57 48.81,163.52" fill="currentColor" stroke="currentColor" stroke-width="1.2" stroke-linecap="round" stroke-linejoin="round" />
  <path d="M49.21,163.60 C49.13,163.64 49.07,163.68 49.01,163.71" fill="currentColor" stroke="currentColor" stroke-width="1.2" stroke-linecap="round" stroke-linejoin="round" />
  <path d="M48.83,163.71 C48.82,163.70 48.82,163.67 48.81,163.64" fill="currentColor" stroke="currentColor" stroke-width="1.2" stroke-linecap="round" stroke-linejoin="round" />
  <path d="M50.46,163.84 C50.43,163.76 50.38,163.69 50.33,163.62" fill="currentColor" stroke="currentColor" stroke-width="1.2" stroke-linecap="round" stroke-linejoin="round" />
  <path d="M48.86,163.76 C48.85,163.75 48.84,163.73 48.83,163.71" fill="currentColor" stroke="currentColor" stroke-width="1.2" stroke-linecap="round" stroke-linejoin="round" />
  <path d="M49.01,163.71 C48.96,163.75 48.92,163.77 48.90,163.77" fill="currentColor" stroke="currentColor" stroke-width="1.2" stroke-linecap="round" stroke-linejoin="round" />
  <path d="M48.90,163.77 C48.88,163.77 48.87,163.76 48.86,163.76" fill="currentColor" stroke="currentColor" stroke-width="1.2" stroke-linecap="round" stroke-linejoin="round" />
  <path d="M51.04,163.60 C51.09,163.72 51.11,163.86 51.11,164.01" fill="currentColor" stroke="currentColor" stroke-width="1.2" stroke-linecap="round" stroke-linejoin="round" />
  <path d="M50.50,164.10 C50.50,164.01 50.49,163.92 50.46,163.84" fill="currentColor" stroke="currentColor" stroke-width="1.2" stroke-linecap="round" stroke-linejoin="round" />
  <path d="M51.11,164.01 C51.11,164.14 51.10,164.27 51.08,164.40" fill="currentColor" stroke="currentColor" stroke-width="1.2" stroke-linecap="round" stroke-linejoin="round" />
  <path d="M50.47,164.39 C50.49,164.29 50.50,164.19 50.50,164.10" fill="currentColor" stroke="currentColor" stroke-width="1.2" stroke-linecap="round" stroke-linejoin="round" />
  <line x1="45.31" y1="164.51" x2="47.80" y2="164.51" fill="currentColor" stroke="currentColor" stroke-width="1.2" stroke-linecap="round" stroke-linejoin="round" />
  <path d="M47.80,164.51 C47.83,164.51 47.86,164.52 47.88,164.53" fill="currentColor" stroke="currentColor" stroke-width="1.2" stroke-linecap="round" stroke-linejoin="round" />
  <path d="M50.35,164.74 C50.41,164.61 50.45,164.49 50.47,164.39" fill="currentColor" stroke="currentColor" stroke-width="1.2" stroke-linecap="round" stroke-linejoin="round" />
  <path d="M47.88,164.53 C47.91,164.55 47.93,164.57 47.94,164.60" fill="currentColor" stroke="currentColor" stroke-width="1.2" stroke-linecap="round" stroke-linejoin="round" />
  <path d="M51.08,164.40 C51.05,164.53 51.01,164.67 50.93,164.82" fill="currentColor" stroke="currentColor" stroke-width="1.2" stroke-linecap="round" stroke-linejoin="round" />
  <path d="M47.94,164.60 C47.96,164.63 47.97,164.67 47.98,164.73" fill="currentColor" stroke="currentColor" stroke-width="1.2" stroke-linecap="round" stroke-linejoin="round" />
  <path d="M47.98,164.73 C47.98,164.78 47.99,164.84 47.99,164.91" fill="currentColor" stroke="currentColor" stroke-width="1.2" stroke-linecap="round" stroke-linejoin="round" />
  <path d="M50.10,165.16 C50.21,165.00 50.29,164.86 50.35,164.74" fill="currentColor" stroke="currentColor" stroke-width="1.2" stroke-linecap="round" stroke-linejoin="round" />
  <path d="M47.99,164.91 C47.99,164.98 47.98,165.04 47.98,165.09" fill="currentColor" stroke="currentColor" stroke-width="1.2" stroke-linecap="round" stroke-linejoin="round" />
  <path d="M50.93,164.82 C50.85,164.97 50.75,165.14 50.60,165.33" fill="currentColor" stroke="currentColor" stroke-width="1.2" stroke-linecap="round" stroke-linejoin="round" />
  <path d="M44.49,165.23 C44.42,165.17 44.38,165.07 44.38,164.93" fill="currentColor" stroke="currentColor" stroke-width="1.2" stroke-linecap="round" stroke-linejoin="round" />
  <path d="M47.98,165.09 C47.97,165.14 47.96,165.18 47.94,165.21" fill="currentColor" stroke="currentColor" stroke-width="1.2" stroke-linecap="round" stroke-linejoin="round" />
  <path d="M47.94,165.21 C47.93,165.25 47.91,165.27 47.88,165.29" fill="currentColor" stroke="currentColor" stroke-width="1.2" stroke-linecap="round" stroke-linejoin="round" />
  <path d="M44.73,165.31 C44.65,165.31 44.57,165.28 44.49,165.23" fill="currentColor" stroke="currentColor" stroke-width="1.2" stroke-linecap="round" stroke-linejoin="round" />
  <path d="M47.88,165.29 C47.86,165.30 47.83,165.31 47.80,165.31" fill="currentColor" stroke="currentColor" stroke-width="1.2" stroke-linecap="round" stroke-linejoin="round" />
  <line x1="47.80" y1="165.31" x2="44.73" y2="165.31" fill="currentColor" stroke="currentColor" stroke-width="1.2" stroke-linecap="round" stroke-linejoin="round" />
  <path d="M49.65,165.68 C49.84,165.49 49.98,165.31 50.10,165.16" fill="currentColor" stroke="currentColor" stroke-width="1.2" stroke-linecap="round" stroke-linejoin="round" />
  <path d="M50.60,165.33 C50.46,165.51 50.28,165.73 50.04,165.97" fill="currentColor" stroke="currentColor" stroke-width="1.2" stroke-linecap="round" stroke-linejoin="round" />
  <line x1="48.86" y1="166.53" x2="49.65" y2="165.68" fill="currentColor" stroke="currentColor" stroke-width="1.2" stroke-linecap="round" stroke-linejoin="round" />
  <line x1="50.04" y1="165.97" x2="49.39" y2="166.65" fill="currentColor" stroke="currentColor" stroke-width="1.2" stroke-linecap="round" stroke-linejoin="round" />
  <path d="M48.79,166.60 C48.81,166.58 48.83,166.55 48.86,166.53" fill="currentColor" stroke="currentColor" stroke-width="1.2" stroke-linecap="round" stroke-linejoin="round" />
  <path d="M48.75,166.68 C48.76,166.65 48.78,166.63 48.79,166.60" fill="currentColor" stroke="currentColor" stroke-width="1.2" stroke-linecap="round" stroke-linejoin="round" />
  <line x1="49.39" y1="166.65" x2="51.18" y2="166.65" fill="currentColor" stroke="currentColor" stroke-width="1.2" stroke-linecap="round" stroke-linejoin="round" />
  <path d="M51.18,166.65 C51.19,166.65 51.21,166.65 51.23,166.66" fill="currentColor" stroke="currentColor" stroke-width="1.2" stroke-linecap="round" stroke-linejoin="round" />
  <path d="M51.23,166.66 C51.24,166.67 51.26,166.68 51.27,166.70" fill="currentColor" stroke="currentColor" stroke-width="1.2" stroke-linecap="round" stroke-linejoin="round" />
  <path d="M48.73,166.76 C48.74,166.73 48.74,166.70 48.75,166.68" fill="currentColor" stroke="currentColor" stroke-width="1.2" stroke-linecap="round" stroke-linejoin="round" />
  <path d="M51.27,166.70 C51.28,166.72 51.29,166.75 51.29,166.78" fill="currentColor" stroke="currentColor" stroke-width="1.2" stroke-linecap="round" stroke-linejoin="round" />
  <path d="M48.73,166.87 C48.73,166.83 48.73,166.79 48.73,166.76" fill="currentColor" stroke="currentColor" stroke-width="1.2" stroke-linecap="round" stroke-linejoin="round" />
  <path d="M51.29,166.78 C51.30,166.80 51.30,166.84 51.30,166.88" fill="currentColor" stroke="currentColor" stroke-width="1.2" stroke-linecap="round" stroke-linejoin="round" />
  <path d="M51.30,166.88 C51.30,166.91 51.30,166.95 51.29,166.98" fill="currentColor" stroke="currentColor" stroke-width="1.2" stroke-linecap="round" stroke-linejoin="round" />
  <path d="M48.74,166.99 C48.73,166.96 48.73,166.92 48.73,166.87" fill="currentColor" stroke="currentColor" stroke-width="1.2" stroke-linecap="round" stroke-linejoin="round" />
  <path d="M51.29,166.98 C51.29,167.01 51.28,167.03 51.27,167.05" fill="currentColor" stroke="currentColor" stroke-width="1.2" stroke-linecap="round" stroke-linejoin="round" />
  <path d="M48.78,167.06 C48.76,167.04 48.75,167.02 48.74,166.99" fill="currentColor" stroke="currentColor" stroke-width="1.2" stroke-linecap="round" stroke-linejoin="round" />
  <path d="M51.27,167.05 C51.26,167.07 51.25,167.09 51.23,167.10" fill="currentColor" stroke="currentColor" stroke-width="1.2" stroke-linecap="round" stroke-linejoin="round" />
  <path d="M48.83,167.10 C48.81,167.09 48.79,167.08 48.78,167.06" fill="currentColor" stroke="currentColor" stroke-width="1.2" stroke-linecap="round" stroke-linejoin="round" />
  <path d="M51.23,167.10 C51.22,167.10 51.20,167.11 51.18,167.11" fill="currentColor" stroke="currentColor" stroke-width="1.2" stroke-linecap="round" stroke-linejoin="round" />
  <path d="M48.91,167.11 C48.88,167.11 48.85,167.11 48.83,167.10" fill="currentColor" stroke="currentColor" stroke-width="1.2" stroke-linecap="round" stroke-linejoin="round" />
  <line x1="51.18" y1="167.11" x2="48.91" y2="167.11" fill="currentColor" stroke="currentColor" stroke-width="1.2" stroke-linecap="round" stroke-linejoin="round" />
</svg>