<svg xmlns="http://www.w3.org/2000/svg" viewBox="0 0 220.19 111.60" preserveAspectRatio="xMidYMid meet" shape-rendering="geometricPrecision" text-rendering="optimizeLegibility">
  <line x1="77.57" y1="8.00" x2="74.35" y2="8.00" fill="currentColor" stroke="currentColor" stroke-width="1.2" stroke-linecap="round" stroke-linejoin="round" />
  <path d="M79.21,8.24 C78.73,8.08 78.18,8.00 77.57,8.00" fill="currentColor" stroke="currentColor" stroke-width="1.2" stroke-linecap="round" stroke-linejoin="round" />
  <path d="M80.45,8.88 C80.10,8.61 79.68,8.39 79.21,8.24" fill="currentColor" stroke="currentColor" stroke-width="1.2" stroke-linecap="round" stroke-linejoin="round" />
  <line x1="75.54" y1="9.05" x2="77.37" y2="9.05" fill="currentColor" stroke="currentColor" stroke-width="1.2" stroke-linecap="round" stroke-linejoin="round" />
  <path d="M77.37,9.05 C77.96,9.05 78.46,9.13 78.88,9.29" fill="currentColor" stroke="currentColor" stroke-width="1.2" stroke-linecap="round" stroke-linejoin="round" />
  <path d="M81.31,9.80 C81.09,9.46 80.80,9.15 80.45,8.88" fill="currentColor" stroke="currentColor" stroke-width="1.2" stroke-linecap="round" stroke-linejoin="round" />
  <path d="M78.88,9.29 C79.31,9.45 79.66,9.66 79.94,9.94" fill="currentColor" stroke="currentColor" stroke-width="1.2" stroke-linecap="round" stroke-linejoin="round" />
  <path d="M81.82,10.90 C81.71,10.51 81.54,10.15 81.31,9.80" fill="currentColor" stroke="currentColor" stroke-width="1.2" stroke-linecap="round" stroke-linejoin="round" />
  <path d="M79.94,9.94 C80.21,10.22 80.42,10.54 80.56,10.90" fill="currentColor" stroke="currentColor" stroke-width="1.2" stroke-linecap="round" stroke-linejoin="round" />
  <path d="M80.56,10.90 C80.69,11.26 80.76,11.65 80.76,12.06" fill="currentColor" stroke="currentColor" stroke-width="1.2" stroke-linecap="round" stroke-linejoin="round" />
  <path d="M81.98,12.06 C81.98,11.67 81.93,11.29 81.82,10.90" fill="currentColor" stroke="currentColor" stroke-width="1.2" stroke-linecap="round" stroke-linejoin="round" />
  <line x1="74.35" y1="8.00" x2="74.35" y2="16.12" fill="currentColor" stroke="currentColor" stroke-width="1.2" stroke-linecap="round" stroke-linejoin="round" />
  <line x1="75.54" y1="15.07" x2="75.54" y2="9.05" fill="currentColor" stroke="currentColor" stroke-width="1.2" stroke-linecap="round" stroke-linejoin="round" />
  <path d="M80.76,12.06 C80.76,12.26 80.73,12.50 80.67,12.76" fill="currentColor" stroke="currentColor" stroke-width="1.2" stroke-linecap="round" stroke-linejoin="round" />
  <path d="M81.79,13.28 C81.92,12.89 81.98,12.48 81.98,12.06" fill="currentColor" stroke="currentColor" stroke-width="1.2" stroke-linecap="round" stroke-linejoin="round" />
  <path d="M80.67,12.76 C80.61,13.02 80.51,13.28 80.37,13.55" fill="currentColor" stroke="currentColor" stroke-width="1.2" stroke-linecap="round" stroke-linejoin="round" />
  <path d="M81.22,14.39 C81.47,14.05 81.66,13.68 81.79,13.28" fill="currentColor" stroke="currentColor" stroke-width="1.2" stroke-linecap="round" stroke-linejoin="round" />
  <path d="M80.37,13.55 C80.22,13.82 80.02,14.07 79.77,14.30" fill="currentColor" stroke="currentColor" stroke-width="1.2" stroke-linecap="round" stroke-linejoin="round" />
  <path d="M79.77,14.30 C79.52,14.53 79.20,14.71 78.82,14.86" fill="currentColor" stroke="currentColor" stroke-width="1.2" stroke-linecap="round" stroke-linejoin="round" />
  <path d="M80.31,15.29 C80.67,15.03 80.97,14.73 81.22,14.39" fill="currentColor" stroke="currentColor" stroke-width="1.2" stroke-linecap="round" stroke-linejoin="round" />
  <path d="M78.82,14.86 C78.43,15.00 77.97,15.07 77.44,15.07" fill="currentColor" stroke="currentColor" stroke-width="1.2" stroke-linecap="round" stroke-linejoin="round" />
  <line x1="77.44" y1="15.07" x2="75.54" y2="15.07" fill="currentColor" stroke="currentColor" stroke-width="1.2" stroke-linecap="round" stroke-linejoin="round" />
  <path d="M79.09,15.90 C79.55,15.75 79.96,15.55 80.31,15.29" fill="currentColor" stroke="currentColor" stroke-width="1.2" stroke-linecap="round" stroke-linejoin="round" />
  <path d="M77.58,16.12 C78.13,16.12 78.63,16.04 79.09,15.90" fill="currentColor" stroke="currentColor" stroke-width="1.2" stroke-linecap="round" stroke-linejoin="round" />
  <line x1="74.35" y1="16.12" x2="77.58" y2="16.12" fill="currentColor" stroke="currentColor" stroke-width="1.2" stroke-linecap="round" stroke-linejoin="round" />
  <polygon points="80.35,18.34 212.19,18.34 174.45,93.11 42.61,93.11" fill="none" stroke="currentColor" stroke-width="1.4891793251037597" stroke-linecap="round" stroke-linejoin="round" />
  <path d="M39.80,70.11 C39.51,70.11 39.26,70.18 39.03,70.31" fill="currentColor" stroke="currentColor" stroke-width="1.2" stroke-linecap="round" stroke-linejoin="round" />
  <path d="M40.57,70.31 C40.34,70.18 40.09,70.11 39.80,70.11" fill="currentColor" stroke="currentColor" stroke-width="1.2" stroke-linecap="round" stroke-linejoin="round" />
  <line x1="24.34" y1="70.52" x2="23.93" y2="70.52" fill="currentColor" stroke="currentColor" stroke-width="1.2" stroke-linecap="round" stroke-linejoin="round" />
  <path d="M39.03,70.31 C38.80,70.44 38.62,70.62 38.48,70.85" fill="currentColor" stroke="currentColor" stroke-width="1.2" stroke-linecap="round" stroke-linejoin="round" />
  <path d="M41.12,70.85 C40.98,70.62 40.80,70.44 40.57,70.31" fill="currentColor" stroke="currentColor" stroke-width="1.2" stroke-linecap="round" stroke-linejoin="round" />
  <line x1="30.85" y1="70.62" x2="27.42" y2="70.62" fill="currentColor" stroke="currentColor" stroke-width="1.2" stroke-linecap="round" stroke-linejoin="round" />
  <path d="M35.77,70.80 C35.47,70.61 35.13,70.52 34.75,70.52" fill="currentColor" stroke="currentColor" stroke-width="1.2" stroke-linecap="round" stroke-linejoin="round" />
  <path d="M34.75,70.52 C34.38,70.52 34.04,70.61 33.74,70.80" fill="currentColor" stroke="currentColor" stroke-width="1.2" stroke-linecap="round" stroke-linejoin="round" />
  <path d="M39.80,70.69 C39.98,70.70 40.13,70.74 40.27,70.82" fill="currentColor" stroke="currentColor" stroke-width="1.2" stroke-linecap="round" stroke-linejoin="round" />
  <path d="M39.33,70.82 C39.47,70.74 39.63,70.70 39.80,70.69" fill="currentColor" stroke="currentColor" stroke-width="1.2" stroke-linecap="round" stroke-linejoin="round" />
  <line x1="161.74" y1="71.38" x2="161.08" y2="70.55" fill="currentColor" stroke="currentColor" stroke-width="1.2" stroke-linecap="round" stroke-linejoin="round" />
  <path d="M40.27,70.82 C40.42,70.90 40.53,71.00 40.61,71.14" fill="currentColor" stroke="currentColor" stroke-width="1.2" stroke-linecap="round" stroke-linejoin="round" />
  <path d="M39.00,71.14 C39.08,71.00 39.19,70.90 39.33,70.82" fill="currentColor" stroke="currentColor" stroke-width="1.2" stroke-linecap="round" stroke-linejoin="round" />
  <line x1="30.85" y1="71.59" x2="30.85" y2="70.62" fill="currentColor" stroke="currentColor" stroke-width="1.2" stroke-linecap="round" stroke-linejoin="round" />
  <path d="M36.55,71.58 C36.34,71.24 36.07,70.98 35.77,70.80" fill="currentColor" stroke="currentColor" stroke-width="1.2" stroke-linecap="round" stroke-linejoin="round" />
  <path d="M33.74,70.80 C33.43,70.98 33.17,71.24 32.95,71.58" fill="currentColor" stroke="currentColor" stroke-width="1.2" stroke-linecap="round" stroke-linejoin="round" />
  <path d="M38.48,70.85 C38.35,71.07 38.28,71.32 38.28,71.60" fill="currentColor" stroke="currentColor" stroke-width="1.2" stroke-linecap="round" stroke-linejoin="round" />
  <path d="M41.32,71.60 C41.32,71.32 41.25,71.07 41.12,70.85" fill="currentColor" stroke="currentColor" stroke-width="1.2" stroke-linecap="round" stroke-linejoin="round" />
  <path d="M161.08,70.55 C160.41,70.99 159.85,71.48 159.39,72.02" fill="currentColor" stroke="currentColor" stroke-width="1.2" stroke-linecap="round" stroke-linejoin="round" />
  <path d="M40.61,71.14 C40.69,71.28 40.74,71.43 40.74,71.60" fill="currentColor" stroke="currentColor" stroke-width="1.2" stroke-linecap="round" stroke-linejoin="round" />
  <path d="M38.87,71.60 C38.88,71.43 38.92,71.28 39.00,71.14" fill="currentColor" stroke="currentColor" stroke-width="1.2" stroke-linecap="round" stroke-linejoin="round" />
  <line x1="23.93" y1="70.52" x2="21.30" y2="72.62" fill="currentColor" stroke="currentColor" stroke-width="1.2" stroke-linecap="round" stroke-linejoin="round" />
  <line x1="28.43" y1="71.59" x2="30.85" y2="71.59" fill="currentColor" stroke="currentColor" stroke-width="1.2" stroke-linecap="round" stroke-linejoin="round" />
  <path d="M34.01,71.89 C34.22,71.66 34.47,71.55 34.75,71.55" fill="currentColor" stroke="currentColor" stroke-width="1.2" stroke-linecap="round" stroke-linejoin="round" />
  <path d="M34.75,71.55 C35.04,71.55 35.29,71.66 35.49,71.89" fill="currentColor" stroke="currentColor" stroke-width="1.2" stroke-linecap="round" stroke-linejoin="round" />
  <path d="M160.72,72.14 C161.04,71.84 161.38,71.59 161.74,71.38" fill="currentColor" stroke="currentColor" stroke-width="1.2" stroke-linecap="round" stroke-linejoin="round" />
  <path d="M40.74,71.60 C40.74,71.77 40.69,71.93 40.61,72.06" fill="currentColor" stroke="currentColor" stroke-width="1.2" stroke-linecap="round" stroke-linejoin="round" />
  <path d="M39.00,72.06 C38.92,71.93 38.88,71.77 38.87,71.60" fill="currentColor" stroke="currentColor" stroke-width="1.2" stroke-linecap="round" stroke-linejoin="round" />
  <path d="M38.28,71.60 C38.28,71.88 38.35,72.13 38.48,72.36" fill="currentColor" stroke="currentColor" stroke-width="1.2" stroke-linecap="round" stroke-linejoin="round" />
  <path d="M41.12,72.36 C41.25,72.13 41.32,71.88 41.32,71.60" fill="currentColor" stroke="currentColor" stroke-width="1.2" stroke-linecap="round" stroke-linejoin="round" />
  <path d="M37.06,72.80 C36.94,72.33 36.77,71.92 36.55,71.58" fill="currentColor" stroke="currentColor" stroke-width="1.2" stroke-linecap="round" stroke-linejoin="round" />
  <path d="M32.95,71.58 C32.73,71.92 32.57,72.33 32.45,72.80" fill="currentColor" stroke="currentColor" stroke-width="1.2" stroke-linecap="round" stroke-linejoin="round" />
  <path d="M40.61,72.06 C40.53,72.20 40.42,72.31 40.27,72.39" fill="currentColor" stroke="currentColor" stroke-width="1.2" stroke-linecap="round" stroke-linejoin="round" />
  <path d="M39.33,72.39 C39.19,72.31 39.08,72.20 39.00,72.06" fill="currentColor" stroke="currentColor" stroke-width="1.2" stroke-linecap="round" stroke-linejoin="round" />
  <path d="M33.54,72.86 C33.65,72.44 33.81,72.12 34.01,71.89" fill="currentColor" stroke="currentColor" stroke-width="1.2" stroke-linecap="round" stroke-linejoin="round" />
  <path d="M35.49,71.89 C35.70,72.12 35.86,72.44 35.96,72.86" fill="currentColor" stroke="currentColor" stroke-width="1.2" stroke-linecap="round" stroke-linejoin="round" />
  <path d="M40.27,72.39 C40.13,72.48 39.98,72.52 39.80,72.52" fill="currentColor" stroke="currentColor" stroke-width="1.2" stroke-linecap="round" stroke-linejoin="round" />
  <path d="M39.80,72.52 C39.63,72.52 39.47,72.48 39.33,72.39" fill="currentColor" stroke="currentColor" stroke-width="1.2" stroke-linecap="round" stroke-linejoin="round" />
  <line x1="28.43" y1="73.48" x2="28.43" y2="71.59" fill="currentColor" stroke="currentColor" stroke-width="1.2" stroke-linecap="round" stroke-linejoin="round" />
  <line x1="27.42" y1="70.62" x2="27.42" y2="74.54" fill="currentColor" stroke="currentColor" stroke-width="1.2" stroke-linecap="round" stroke-linejoin="round" />
  <path d="M159.90,73.10 C160.13,72.75 160.40,72.43 160.72,72.14" fill="currentColor" stroke="currentColor" stroke-width="1.2" stroke-linecap="round" stroke-linejoin="round" />
  <path d="M38.48,72.36 C38.62,72.58 38.80,72.76 39.03,72.89" fill="currentColor" stroke="currentColor" stroke-width="1.2" stroke-linecap="round" stroke-linejoin="round" />
  <path d="M40.57,72.89 C40.80,72.76 40.98,72.58 41.12,72.36" fill="currentColor" stroke="currentColor" stroke-width="1.2" stroke-linecap="round" stroke-linejoin="round" />
  <path d="M159.39,72.02 C158.93,72.56 158.59,73.14 158.35,73.75" fill="currentColor" stroke="currentColor" stroke-width="1.2" stroke-linecap="round" stroke-linejoin="round" />
  <line x1="21.72" y1="73.56" x2="23.19" y2="72.38" fill="currentColor" stroke="currentColor" stroke-width="1.2" stroke-linecap="round" stroke-linejoin="round" />
  <path d="M39.03,72.89 C39.26,73.02 39.51,73.09 39.80,73.09" fill="currentColor" stroke="currentColor" stroke-width="1.2" stroke-linecap="round" stroke-linejoin="round" />
  <path d="M39.80,73.09 C40.09,73.09 40.34,73.02 40.57,72.89" fill="currentColor" stroke="currentColor" stroke-width="1.2" stroke-linecap="round" stroke-linejoin="round" />
  <line x1="21.30" y1="72.62" x2="21.72" y2="73.56" fill="currentColor" stroke="currentColor" stroke-width="1.2" stroke-linecap="round" stroke-linejoin="round" />
  <line x1="167.66" y1="73.22" x2="166.66" y2="73.22" fill="currentColor" stroke="currentColor" stroke-width="1.2" stroke-linecap="round" stroke-linejoin="round" />
  <line x1="164.37" y1="73.22" x2="163.41" y2="73.22" fill="currentColor" stroke="currentColor" stroke-width="1.2" stroke-linecap="round" stroke-linejoin="round" />
  <path d="M29.60,73.61 C29.26,73.50 28.87,73.46 28.43,73.48" fill="currentColor" stroke="currentColor" stroke-width="1.2" stroke-linecap="round" stroke-linejoin="round" />
  <path d="M37.24,74.39 C37.24,73.81 37.18,73.28 37.06,72.80" fill="currentColor" stroke="currentColor" stroke-width="1.2" stroke-linecap="round" stroke-linejoin="round" />
  <path d="M32.45,72.80 C32.33,73.28 32.27,73.81 32.27,74.39" fill="currentColor" stroke="currentColor" stroke-width="1.2" stroke-linecap="round" stroke-linejoin="round" />
  <path d="M159.38,74.14 C159.49,73.79 159.66,73.44 159.90,73.10" fill="currentColor" stroke="currentColor" stroke-width="1.2" stroke-linecap="round" stroke-linejoin="round" />
  <path d="M33.37,74.39 C33.38,73.80 33.43,73.29 33.54,72.86" fill="currentColor" stroke="currentColor" stroke-width="1.2" stroke-linecap="round" stroke-linejoin="round" />
  <path d="M35.96,72.86 C36.08,73.29 36.13,73.80 36.13,74.39" fill="currentColor" stroke="currentColor" stroke-width="1.2" stroke-linecap="round" stroke-linejoin="round" />
  <path d="M30.48,74.11 C30.24,73.89 29.95,73.72 29.60,73.61" fill="currentColor" stroke="currentColor" stroke-width="1.2" stroke-linecap="round" stroke-linejoin="round" />
  <path d="M160.59,73.83 C160.34,73.83 160.11,73.87 159.91,73.93" fill="currentColor" stroke="currentColor" stroke-width="1.2" stroke-linecap="round" stroke-linejoin="round" />
  <path d="M161.70,74.12 C161.38,73.93 161.01,73.84 160.59,73.83" fill="currentColor" stroke="currentColor" stroke-width="1.2" stroke-linecap="round" stroke-linejoin="round" />
  <path d="M159.91,73.93 C159.71,73.99 159.54,74.06 159.38,74.14" fill="currentColor" stroke="currentColor" stroke-width="1.2" stroke-linecap="round" stroke-linejoin="round" />
  <line x1="24.34" y1="78.16" x2="24.34" y2="70.52" fill="currentColor" stroke="currentColor" stroke-width="1.2" stroke-linecap="round" stroke-linejoin="round" />
  <path d="M27.42,74.54 C27.85,74.45 28.23,74.41 28.56,74.45" fill="currentColor" stroke="currentColor" stroke-width="1.2" stroke-linecap="round" stroke-linejoin="round" />
  <path d="M31.04,74.88 C30.91,74.58 30.73,74.32 30.48,74.11" fill="currentColor" stroke="currentColor" stroke-width="1.2" stroke-linecap="round" stroke-linejoin="round" />
  <path d="M162.46,74.91 C162.28,74.58 162.02,74.32 161.70,74.12" fill="currentColor" stroke="currentColor" stroke-width="1.2" stroke-linecap="round" stroke-linejoin="round" />
  <path d="M28.56,74.45 C28.90,74.48 29.18,74.56 29.41,74.70" fill="currentColor" stroke="currentColor" stroke-width="1.2" stroke-linecap="round" stroke-linejoin="round" />
  <path d="M158.35,73.75 C158.12,74.36 158.00,74.98 158.00,75.61" fill="currentColor" stroke="currentColor" stroke-width="1.2" stroke-linecap="round" stroke-linejoin="round" />
  <path d="M159.95,74.89 C160.07,74.87 160.21,74.86 160.37,74.86" fill="currentColor" stroke="currentColor" stroke-width="1.2" stroke-linecap="round" stroke-linejoin="round" />
  <line x1="166.66" y1="73.22" x2="165.07" y2="76.64" fill="currentColor" stroke="currentColor" stroke-width="1.2" stroke-linecap="round" stroke-linejoin="round" />
  <line x1="165.04" y1="76.64" x2="164.37" y2="73.22" fill="currentColor" stroke="currentColor" stroke-width="1.2" stroke-linecap="round" stroke-linejoin="round" />
  <path d="M160.37,74.86 C160.61,74.86 160.83,74.91 161.02,75.01" fill="currentColor" stroke="currentColor" stroke-width="1.2" stroke-linecap="round" stroke-linejoin="round" />
  <path d="M29.41,74.70 C29.64,74.83 29.82,75.00 29.94,75.20" fill="currentColor" stroke="currentColor" stroke-width="1.2" stroke-linecap="round" stroke-linejoin="round" />
  <path d="M159.57,75.02 C159.70,74.96 159.82,74.92 159.95,74.89" fill="currentColor" stroke="currentColor" stroke-width="1.2" stroke-linecap="round" stroke-linejoin="round" />
  <path d="M159.15,75.26 C159.31,75.16 159.45,75.08 159.57,75.02" fill="currentColor" stroke="currentColor" stroke-width="1.2" stroke-linecap="round" stroke-linejoin="round" />
  <path d="M36.13,74.39 C36.13,74.98 36.08,75.49 35.96,75.91" fill="currentColor" stroke="currentColor" stroke-width="1.2" stroke-linecap="round" stroke-linejoin="round" />
  <path d="M33.54,75.91 C33.43,75.49 33.38,74.98 33.37,74.39" fill="currentColor" stroke="currentColor" stroke-width="1.2" stroke-linecap="round" stroke-linejoin="round" />
  <path d="M32.27,74.39 C32.27,74.97 32.33,75.50 32.45,75.97" fill="currentColor" stroke="currentColor" stroke-width="1.2" stroke-linecap="round" stroke-linejoin="round" />
  <path d="M37.06,75.97 C37.18,75.50 37.24,74.97 37.24,74.39" fill="currentColor" stroke="currentColor" stroke-width="1.2" stroke-linecap="round" stroke-linejoin="round" />
  <path d="M161.02,75.01 C161.22,75.11 161.37,75.25 161.48,75.42" fill="currentColor" stroke="currentColor" stroke-width="1.2" stroke-linecap="round" stroke-linejoin="round" />
  <line x1="23.19" y1="72.38" x2="23.19" y2="78.16" fill="currentColor" stroke="currentColor" stroke-width="1.2" stroke-linecap="round" stroke-linejoin="round" />
  <path d="M31.23,75.85 C31.23,75.50 31.16,75.17 31.04,74.88" fill="currentColor" stroke="currentColor" stroke-width="1.2" stroke-linecap="round" stroke-linejoin="round" />
  <path d="M162.75,76.03 C162.74,75.61 162.65,75.24 162.46,74.91" fill="currentColor" stroke="currentColor" stroke-width="1.2" stroke-linecap="round" stroke-linejoin="round" />
  <path d="M29.94,75.20 C30.06,75.40 30.12,75.63 30.13,75.87" fill="currentColor" stroke="currentColor" stroke-width="1.2" stroke-linecap="round" stroke-linejoin="round" />
  <line x1="163.41" y1="73.22" x2="164.39" y2="77.89" fill="currentColor" stroke="currentColor" stroke-width="1.2" stroke-linecap="round" stroke-linejoin="round" />
  <path d="M159.11,76.09 C159.06,75.85 159.08,75.57 159.15,75.26" fill="currentColor" stroke="currentColor" stroke-width="1.2" stroke-linecap="round" stroke-linejoin="round" />
  <path d="M161.48,75.42 C161.59,75.60 161.64,75.80 161.64,76.02" fill="currentColor" stroke="currentColor" stroke-width="1.2" stroke-linecap="round" stroke-linejoin="round" />
  <path d="M30.13,75.87 C30.12,76.12 30.05,76.35 29.91,76.55" fill="currentColor" stroke="currentColor" stroke-width="1.2" stroke-linecap="round" stroke-linejoin="round" />
  <path d="M158.00,75.61 C158.00,76.15 158.10,76.61 158.31,77.01" fill="currentColor" stroke="currentColor" stroke-width="1.2" stroke-linecap="round" stroke-linejoin="round" />
  <path d="M161.64,76.02 C161.64,76.27 161.59,76.49 161.49,76.67" fill="currentColor" stroke="currentColor" stroke-width="1.2" stroke-linecap="round" stroke-linejoin="round" />
  <path d="M35.96,75.91 C35.86,76.33 35.70,76.66 35.49,76.89" fill="currentColor" stroke="currentColor" stroke-width="1.2" stroke-linecap="round" stroke-linejoin="round" />
  <path d="M34.01,76.89 C33.81,76.66 33.65,76.33 33.54,75.91" fill="currentColor" stroke="currentColor" stroke-width="1.2" stroke-linecap="round" stroke-linejoin="round" />
  <path d="M159.37,76.72 C159.24,76.55 159.15,76.34 159.11,76.09" fill="currentColor" stroke="currentColor" stroke-width="1.2" stroke-linecap="round" stroke-linejoin="round" />
  <path d="M162.57,76.90 C162.69,76.63 162.75,76.34 162.75,76.03" fill="currentColor" stroke="currentColor" stroke-width="1.2" stroke-linecap="round" stroke-linejoin="round" />
  <path d="M30.90,77.09 C31.12,76.73 31.23,76.32 31.23,75.85" fill="currentColor" stroke="currentColor" stroke-width="1.2" stroke-linecap="round" stroke-linejoin="round" />
  <path d="M32.45,75.97 C32.57,76.45 32.73,76.85 32.95,77.19" fill="currentColor" stroke="currentColor" stroke-width="1.2" stroke-linecap="round" stroke-linejoin="round" />
  <path d="M36.55,77.19 C36.77,76.85 36.94,76.45 37.06,75.97" fill="currentColor" stroke="currentColor" stroke-width="1.2" stroke-linecap="round" stroke-linejoin="round" />
  <line x1="165.07" y1="76.64" x2="165.04" y2="76.64" fill="currentColor" stroke="currentColor" stroke-width="1.2" stroke-linecap="round" stroke-linejoin="round" />
  <path d="M29.91,76.55 C29.76,76.76 29.57,76.92 29.33,77.04" fill="currentColor" stroke="currentColor" stroke-width="1.2" stroke-linecap="round" stroke-linejoin="round" />
  <path d="M27.69,77.09 C27.40,77.00 27.13,76.86 26.85,76.68" fill="currentColor" stroke="currentColor" stroke-width="1.2" stroke-linecap="round" stroke-linejoin="round" />
  <path d="M161.49,76.67 C161.38,76.86 161.24,77.00 161.06,77.10" fill="currentColor" stroke="currentColor" stroke-width="1.2" stroke-linecap="round" stroke-linejoin="round" />
  <path d="M159.83,77.12 C159.65,77.03 159.50,76.90 159.37,76.72" fill="currentColor" stroke="currentColor" stroke-width="1.2" stroke-linecap="round" stroke-linejoin="round" />
  <line x1="164.03" y1="80.73" x2="167.66" y2="73.22" fill="currentColor" stroke="currentColor" stroke-width="1.2" stroke-linecap="round" stroke-linejoin="round" />
  <path d="M35.49,76.89 C35.29,77.11 35.04,77.23 34.75,77.23" fill="currentColor" stroke="currentColor" stroke-width="1.2" stroke-linecap="round" stroke-linejoin="round" />
  <path d="M34.75,77.23 C34.47,77.23 34.22,77.11 34.01,76.89" fill="currentColor" stroke="currentColor" stroke-width="1.2" stroke-linecap="round" stroke-linejoin="round" />
  <path d="M29.33,77.04 C29.09,77.16 28.82,77.23 28.53,77.23" fill="currentColor" stroke="currentColor" stroke-width="1.2" stroke-linecap="round" stroke-linejoin="round" />
  <path d="M28.53,77.23 C28.25,77.23 27.97,77.18 27.69,77.09" fill="currentColor" stroke="currentColor" stroke-width="1.2" stroke-linecap="round" stroke-linejoin="round" />
  <path d="M161.06,77.10 C160.87,77.21 160.66,77.26 160.41,77.26" fill="currentColor" stroke="currentColor" stroke-width="1.2" stroke-linecap="round" stroke-linejoin="round" />
  <path d="M160.41,77.26 C160.21,77.26 160.02,77.21 159.83,77.12" fill="currentColor" stroke="currentColor" stroke-width="1.2" stroke-linecap="round" stroke-linejoin="round" />
  <line x1="26.85" y1="76.68" x2="26.85" y2="77.79" fill="currentColor" stroke="currentColor" stroke-width="1.2" stroke-linecap="round" stroke-linejoin="round" />
  <path d="M162.08,77.62 C162.28,77.41 162.45,77.17 162.57,76.90" fill="currentColor" stroke="currentColor" stroke-width="1.2" stroke-linecap="round" stroke-linejoin="round" />
  <path d="M158.31,77.01 C158.52,77.41 158.81,77.72 159.18,77.95" fill="currentColor" stroke="currentColor" stroke-width="1.2" stroke-linecap="round" stroke-linejoin="round" />
  <path d="M30.01,77.94 C30.39,77.74 30.69,77.45 30.90,77.09" fill="currentColor" stroke="currentColor" stroke-width="1.2" stroke-linecap="round" stroke-linejoin="round" />
  <path d="M32.95,77.19 C33.17,77.53 33.43,77.80 33.74,77.98" fill="currentColor" stroke="currentColor" stroke-width="1.2" stroke-linecap="round" stroke-linejoin="round" />
  <path d="M35.77,77.98 C36.07,77.80 36.34,77.53 36.55,77.19" fill="currentColor" stroke="currentColor" stroke-width="1.2" stroke-linecap="round" stroke-linejoin="round" />
  <path d="M161.35,78.11 C161.63,77.99 161.87,77.83 162.08,77.62" fill="currentColor" stroke="currentColor" stroke-width="1.2" stroke-linecap="round" stroke-linejoin="round" />
  <path d="M26.85,77.79 C27.07,77.90 27.28,77.99 27.48,78.06" fill="currentColor" stroke="currentColor" stroke-width="1.2" stroke-linecap="round" stroke-linejoin="round" />
  <path d="M28.71,78.26 C29.20,78.25 29.64,78.15 30.01,77.94" fill="currentColor" stroke="currentColor" stroke-width="1.2" stroke-linecap="round" stroke-linejoin="round" />
  <path d="M33.74,77.98 C34.04,78.16 34.38,78.26 34.75,78.26" fill="currentColor" stroke="currentColor" stroke-width="1.2" stroke-linecap="round" stroke-linejoin="round" />
  <path d="M34.75,78.26 C35.13,78.26 35.47,78.16 35.77,77.98" fill="currentColor" stroke="currentColor" stroke-width="1.2" stroke-linecap="round" stroke-linejoin="round" />
  <path d="M159.18,77.95 C159.55,78.17 159.98,78.28 160.48,78.29" fill="currentColor" stroke="currentColor" stroke-width="1.2" stroke-linecap="round" stroke-linejoin="round" />
  <path d="M27.48,78.06 C27.68,78.13 27.88,78.18 28.08,78.21" fill="currentColor" stroke="currentColor" stroke-width="1.2" stroke-linecap="round" stroke-linejoin="round" />
  <line x1="23.19" y1="78.16" x2="24.34" y2="78.16" fill="currentColor" stroke="currentColor" stroke-width="1.2" stroke-linecap="round" stroke-linejoin="round" />
  <path d="M160.48,78.29 C160.79,78.29 161.08,78.23 161.35,78.11" fill="currentColor" stroke="currentColor" stroke-width="1.2" stroke-linecap="round" stroke-linejoin="round" />
  <path d="M28.08,78.21 C28.28,78.24 28.49,78.26 28.71,78.26" fill="currentColor" stroke="currentColor" stroke-width="1.2" stroke-linecap="round" stroke-linejoin="round" />
  <line x1="164.39" y1="77.89" x2="163.01" y2="80.73" fill="currentColor" stroke="currentColor" stroke-width="1.2" stroke-linecap="round" stroke-linejoin="round" />
  <line x1="163.01" y1="80.73" x2="164.03" y2="80.73" fill="currentColor" stroke="currentColor" stroke-width="1.2" stroke-linecap="round" stroke-linejoin="round" />
  <path d="M30.82,85.65 C34.65,79.61 42.50,77.50 48.88,80.58" fill="none" stroke="currentColor" stroke-width="1.0594529032707214" stroke-linecap="round" stroke-linejoin="round" />
  <path d="M160.37,93.22 C160.34,85.79 166.36,79.62 174.00,79.36" fill="none" stroke="currentColor" stroke-width="1.0594529032707214" stroke-linecap="round" stroke-linejoin="round" />
  <path d="M28.72,93.31 C28.63,90.70 29.31,88.03 30.82,85.65" fill="none" stroke="currentColor" stroke-width="1.0594529032707214" stroke-linecap="round" stroke-linejoin="round" />
  <line x1="174.25" y1="93.11" x2="8.00" y2="93.11" fill="none" stroke="currentColor" stroke-width="1.4891793251037597" stroke-linecap="round" stroke-linejoin="round" />
  <line x1="40.11" y1="95.43" x2="39.28" y2="95.43" fill="currentColor" stroke="currentColor" stroke-width="1.2" stroke-linecap="round" stroke-linejoin="round" />
  <line x1="39.68" y1="97.22" x2="41.01" y2="100.15" fill="currentColor" stroke="currentColor" stroke-width="1.2" stroke-linecap="round" stroke-linejoin="round" />
  <line x1="38.44" y1="100.15" x2="39.68" y2="97.22" fill="currentColor" stroke="currentColor" stroke-width="1.2" stroke-linecap="round" stroke-linejoin="round" />
  <line x1="39.28" y1="95.43" x2="35.71" y2="103.60" fill="currentColor" stroke="currentColor" stroke-width="1.2" stroke-linecap="round" stroke-linejoin="round" />
  <line x1="43.82" y1="103.60" x2="40.11" y2="95.43" fill="currentColor" stroke="currentColor" stroke-width="1.2" stroke-linecap="round" stroke-linejoin="round" />
  <line x1="41.01" y1="100.15" x2="38.44" y2="100.15" fill="currentColor" stroke="currentColor" stroke-width="1.2" stroke-linecap="round" stroke-linejoin="round" />
  <line x1="37.97" y1="101.20" x2="41.50" y2="101.20" fill="currentColor" stroke="currentColor" stroke-width="1.2" stroke-linecap="round" stroke-linejoin="round" />
  <line x1="36.93" y1="103.60" x2="37.97" y2="101.20" fill="currentColor" stroke="currentColor" stroke-width="1.2" stroke-linecap="round" stroke-linejoin="round" />
  <line x1="41.50" y1="101.20" x2="42.61" y2="103.60" fill="currentColor" stroke="currentColor" stroke-width="1.2" stroke-linecap="round" stroke-linejoin="round" />
  <line x1="35.71" y1="103.60" x2="36.93" y2="103.60" fill="currentColor" stroke="currentColor" stroke-width="1.2" stroke-linecap="round" stroke-linejoin="round" />
  <line x1="42.61" y1="103.60" x2="43.82" y2="103.60" fill="currentColor" stroke="currentColor" stroke-width="1.2" stroke-linecap="round" stroke-linejoin="round" />
</svg>