<svg xmlns="http://www.w3.org/2000/svg" viewBox="0 0 234.06 125.63" preserveAspectRatio="xMidYMid meet" shape-rendering="geometricPrecision" text-rendering="optimizeLegibility">
  <line x1="185.35" y1="18.67" x2="19.67" y2="106.13" fill="none" stroke="currentColor" stroke-width="1.4000000476837158" stroke-linecap="round" stroke-linejoin="round" />
  <line x1="19.67" y1="106.13" x2="218.10" y2="106.13" fill="none" stroke="currentColor" stroke-width="1.4000000476837158" stroke-linecap="round" stroke-linejoin="round" />
  <line x1="218.10" y1="106.13" x2="185.35" y2="18.67" fill="none" stroke="currentColor" stroke-width="1.4000000476837158" stroke-linecap="round" stroke-linejoin="round" />
  <line x1="185.35" y1="18.67" x2="118.78" y2="106.06" fill="none" stroke="currentColor" stroke-width="1.2" stroke-linecap="round" stroke-linejoin="round" />
  <path d="M13.94,115.38C13.97,115.46 13.98,115.52 13.99,115.57C13.99,115.62 13.97,115.65 13.94,115.68C13.92,115.70 13.87,115.72 13.80,115.73C13.74,115.73 13.65,115.74 13.54,115.74C13.42,115.74 13.34,115.73 13.27,115.73C13.20,115.72 13.15,115.71 13.12,115.70C13.09,115.69 13.06,115.67 13.05,115.65C13.03,115.63 13.01,115.60 13.00,115.57L12.40,113.88L9.51,113.88L8.94,115.55C8.93,115.58 8.92,115.61 8.90,115.63C8.88,115.66 8.86,115.68 8.82,115.69C8.79,115.71 8.74,115.72 8.68,115.73C8.62,115.73 8.53,115.74 8.43,115.74C8.33,115.74 8.25,115.73 8.18,115.72C8.11,115.71 8.07,115.70 8.04,115.67C8.01,115.65 8.00,115.61 8.00,115.56C8.00,115.51 8.02,115.45 8.05,115.37L10.38,108.92C10.39,108.88 10.41,108.84 10.44,108.82C10.46,108.79 10.49,108.77 10.54,108.76C10.58,108.75 10.64,108.74 10.71,108.73C10.78,108.73 10.87,108.72 10.97,108.72C11.09,108.72 11.18,108.73 11.26,108.73C11.33,108.74 11.39,108.75 11.44,108.76C11.49,108.77 11.52,108.79 11.55,108.82C11.57,108.85 11.59,108.88 11.61,108.92L13.94,115.38ZM10.95,109.68L10.94,109.68L9.74,113.14L12.16,113.14L10.95,109.68Z" fill="currentColor" stroke="currentColor" stroke-width="1.2" stroke-linejoin="round" />
  <path d="M226.06,113.71C226.06,113.93 226.03,114.13 225.98,114.32C225.92,114.50 225.84,114.67 225.74,114.81C225.64,114.96 225.52,115.09 225.38,115.20C225.24,115.31 225.08,115.40 224.90,115.48C224.72,115.55 224.53,115.61 224.33,115.65C224.13,115.69 223.90,115.70 223.64,115.70L221.82,115.70C221.74,115.70 221.66,115.68 221.59,115.62C221.51,115.57 221.48,115.47 221.48,115.33L221.48,109.13C221.48,108.99 221.51,108.89 221.59,108.84C221.66,108.78 221.74,108.75 221.82,108.75L223.40,108.75C223.82,108.75 224.16,108.79 224.42,108.87C224.69,108.95 224.91,109.07 225.08,109.22C225.26,109.37 225.39,109.55 225.48,109.77C225.57,109.99 225.62,110.24 225.62,110.51C225.62,110.68 225.60,110.83 225.56,110.98C225.52,111.13 225.46,111.27 225.38,111.40C225.31,111.53 225.21,111.64 225.09,111.74C224.98,111.84 224.84,111.92 224.69,111.99C224.88,112.02 225.06,112.09 225.23,112.18C225.39,112.28 225.54,112.40 225.66,112.55C225.78,112.69 225.88,112.87 225.95,113.06C226.02,113.26 226.06,113.48 226.06,113.71ZM224.67,110.60C224.67,110.43 224.64,110.28 224.60,110.15C224.55,110.01 224.48,109.89 224.38,109.80C224.28,109.70 224.15,109.63 223.99,109.58C223.82,109.53 223.61,109.51 223.35,109.51L222.39,109.51L222.39,111.76L223.44,111.76C223.68,111.76 223.88,111.73 224.02,111.66C224.17,111.60 224.29,111.52 224.39,111.41C224.48,111.30 224.56,111.18 224.60,111.04C224.65,110.90 224.67,110.75 224.67,110.60ZM225.09,113.77C225.09,113.56 225.05,113.38 224.99,113.22C224.92,113.06 224.82,112.93 224.70,112.82C224.57,112.71 224.41,112.63 224.22,112.58C224.03,112.52 223.79,112.49 223.50,112.49L222.39,112.49L222.39,114.94L223.73,114.94C223.94,114.94 224.13,114.92 224.29,114.87C224.44,114.82 224.58,114.74 224.70,114.64C224.82,114.55 224.92,114.42 224.98,114.28C225.05,114.13 225.09,113.96 225.09,113.77Z" fill="currentColor" stroke="currentColor" stroke-width="1.2" stroke-linejoin="round" />
  <path d="M187.00,14.05C187.00,14.11 187.00,14.16 187.00,14.20C186.99,14.25 186.99,14.28 186.98,14.32C186.97,14.35 186.96,14.38 186.94,14.40C186.93,14.43 186.90,14.46 186.87,14.49C186.83,14.53 186.76,14.58 186.64,14.66C186.53,14.73 186.38,14.80 186.21,14.87C186.04,14.94 185.85,15.00 185.63,15.05C185.41,15.10 185.17,15.12 184.91,15.12C184.46,15.12 184.05,15.05 183.69,14.90C183.32,14.75 183.01,14.52 182.76,14.23C182.50,13.94 182.30,13.57 182.17,13.14C182.03,12.71 181.96,12.21 181.96,11.65C181.96,11.08 182.03,10.56 182.18,10.11C182.33,9.66 182.54,9.28 182.81,8.96C183.08,8.65 183.40,8.41 183.77,8.25C184.15,8.08 184.56,8.00 185.01,8.00C185.22,8.00 185.41,8.02 185.60,8.06C185.79,8.09 185.97,8.14 186.13,8.20C186.29,8.26 186.43,8.32 186.56,8.40C186.68,8.47 186.77,8.54 186.82,8.58C186.86,8.63 186.90,8.67 186.91,8.69C186.92,8.72 186.94,8.75 186.95,8.78C186.95,8.82 186.96,8.86 186.97,8.90C186.97,8.95 186.97,9.00 186.97,9.07C186.97,9.14 186.97,9.20 186.96,9.25C186.96,9.30 186.95,9.34 186.93,9.38C186.92,9.41 186.90,9.44 186.88,9.45C186.86,9.47 186.84,9.48 186.81,9.48C186.76,9.48 186.69,9.44 186.60,9.37C186.51,9.30 186.39,9.23 186.25,9.14C186.11,9.06 185.94,8.98 185.74,8.91C185.53,8.84 185.29,8.81 185.01,8.81C184.70,8.81 184.42,8.87 184.17,8.99C183.92,9.11 183.70,9.30 183.52,9.54C183.34,9.78 183.20,10.07 183.11,10.41C183.01,10.76 182.96,11.15 182.96,11.60C182.96,12.04 183.00,12.43 183.10,12.77C183.19,13.11 183.33,13.39 183.51,13.61C183.69,13.84 183.90,14.01 184.16,14.13C184.42,14.25 184.71,14.31 185.04,14.31C185.31,14.31 185.55,14.27 185.76,14.20C185.96,14.14 186.14,14.06 186.28,13.97C186.43,13.89 186.55,13.82 186.64,13.75C186.73,13.68 186.81,13.65 186.86,13.65C186.89,13.65 186.91,13.65 186.93,13.66C186.94,13.67 186.96,13.69 186.97,13.72C186.98,13.75 186.99,13.79 186.99,13.85C187.00,13.90 187.00,13.97 187.00,14.05Z" fill="currentColor" stroke="currentColor" stroke-width="1.2" stroke-linejoin="round" />
  <path d="M123.08,117.46C123.08,117.49 123.07,117.51 123.05,117.53C123.04,117.56 123.02,117.57 122.98,117.59C122.94,117.60 122.90,117.61 122.84,117.62C122.79,117.63 122.71,117.63 122.62,117.63C122.54,117.63 122.47,117.63 122.41,117.62C122.35,117.61 122.31,117.60 122.27,117.59C122.24,117.57 122.21,117.56 122.20,117.53C122.19,117.51 122.18,117.49 122.18,117.46L122.18,111.41L122.17,111.41L119.69,117.49C119.68,117.51 119.67,117.53 119.65,117.55C119.63,117.57 119.60,117.58 119.56,117.60C119.52,117.61 119.48,117.62 119.43,117.62C119.37,117.63 119.31,117.63 119.24,117.63C119.17,117.63 119.10,117.63 119.05,117.62C118.99,117.61 118.95,117.60 118.91,117.59C118.88,117.58 118.85,117.56 118.83,117.54C118.81,117.53 118.80,117.51 118.79,117.49L116.42,111.41L116.42,111.41L116.42,117.46C116.42,117.49 116.41,117.51 116.39,117.53C116.38,117.56 116.36,117.57 116.32,117.59C116.28,117.60 116.24,117.61 116.18,117.62C116.12,117.63 116.05,117.63 115.96,117.63C115.87,117.63 115.80,117.63 115.74,117.62C115.69,117.61 115.64,117.60 115.61,117.59C115.57,117.57 115.55,117.56 115.54,117.53C115.53,117.51 115.52,117.49 115.52,117.46L115.52,111.07C115.52,110.92 115.56,110.81 115.64,110.75C115.72,110.68 115.80,110.65 115.90,110.65L116.46,110.65C116.57,110.65 116.67,110.66 116.76,110.68C116.85,110.70 116.92,110.74 116.99,110.78C117.05,110.83 117.10,110.89 117.15,110.96C117.19,111.03 117.23,111.12 117.26,111.21L119.27,116.25L119.30,116.25L121.40,111.23C121.43,111.12 121.48,111.03 121.52,110.95C121.57,110.88 121.62,110.82 121.68,110.77C121.73,110.73 121.79,110.70 121.86,110.68C121.93,110.66 122.01,110.65 122.10,110.65L122.68,110.65C122.74,110.65 122.79,110.66 122.84,110.67C122.89,110.69 122.93,110.71 122.96,110.75C122.99,110.78 123.02,110.82 123.04,110.88C123.07,110.93 123.08,110.99 123.08,111.07L123.08,117.46Z" fill="currentColor" stroke="currentColor" stroke-width="1.2" stroke-linejoin="round" />
</svg>