<svg xmlns="http://www.w3.org/2000/svg" viewBox="0 0 235.02 105.06" preserveAspectRatio="xMidYMid meet" shape-rendering="geometricPrecision" text-rendering="optimizeLegibility">
  <line x1="47.67" y1="97.06" x2="187.35" y2="97.06" fill="none" stroke="currentColor" stroke-width="1.4000000476837158" stroke-linecap="round" stroke-linejoin="round" />
  <line x1="187.35" y1="97.06" x2="133.45" y2="8.00" fill="none" stroke="currentColor" stroke-width="1.4000000476837158" stroke-linecap="round" stroke-linejoin="round" />
  <line x1="133.45" y1="8.00" x2="47.67" y2="97.06" fill="none" stroke="currentColor" stroke-width="1.4000000476837158" stroke-linecap="round" stroke-linejoin="round" />
  <line x1="8.00" y1="97.06" x2="227.02" y2="97.06" fill="none" stroke="currentColor" stroke-width="1.4000000476837158" stroke-linecap="round" stroke-linejoin="round" />
  <line x1="122.69" y1="19.17" x2="122.71" y2="19.15" fill="none" stroke="currentColor" stroke-width="1.000000011920929" stroke-linecap="round" stroke-linejoin="round" />
  <line x1="122.71" y1="19.15" x2="133.45" y2="8.00" fill="none" stroke="currentColor" stroke-width="1.000000011920929" stroke-linecap="round" stroke-linejoin="round" />
  <line x1="133.45" y1="8.00" x2="141.45" y2="21.22" fill="none" stroke="currentColor" stroke-width="1.000000011920929" stroke-linecap="round" stroke-linejoin="round" />
  <line x1="141.45" y1="21.22" x2="141.47" y2="21.26" fill="none" stroke="currentColor" stroke-width="1.000000011920929" stroke-linecap="round" stroke-linejoin="round" />
  <path d="M141.47,21.26 C139.13,22.69 136.38,23.50 133.45,23.50" fill="none" stroke="currentColor" stroke-width="1.000000011920929" stroke-linecap="round" stroke-linejoin="round" />
  <path d="M133.45,23.50 C129.27,23.50 125.48,21.85 122.69,19.17" fill="none" stroke="currentColor" stroke-width="1.000000011920929" stroke-linecap="round" stroke-linejoin="round" />
  <line x1="187.35" y1="97.06" x2="181.56" y2="87.44" fill="none" stroke="currentColor" stroke-width="1.000000011920929" stroke-linecap="round" stroke-linejoin="round" />
  <path d="M181.56,87.44 C185.68,84.96 191.10,85.33 194.86,88.71" fill="none" stroke="currentColor" stroke-width="1.000000011920929" stroke-linecap="round" stroke-linejoin="round" />
  <path d="M194.86,88.71 C197.32,90.93 198.58,93.99 198.58,97.06" fill="none" stroke="currentColor" stroke-width="1.000000011920929" stroke-linecap="round" stroke-linejoin="round" />
  <line x1="198.58" y1="97.06" x2="187.35" y2="97.06" fill="none" stroke="currentColor" stroke-width="1.000000011920929" stroke-linecap="round" stroke-linejoin="round" />
  <path d="M38.42,89.38 C42.66,84.41 50.14,83.81 55.11,88.05" fill="none" stroke="currentColor" stroke-width="1.000000011920929" stroke-linecap="round" stroke-linejoin="round" />
  <path d="M55.11,88.05 C55.34,88.24 55.56,88.44 55.77,88.65" fill="none" stroke="currentColor" stroke-width="1.000000011920929" stroke-linecap="round" stroke-linejoin="round" />
  <line x1="55.77" y1="88.65" x2="47.72" y2="97.06" fill="none" stroke="currentColor" stroke-width="1.000000011920929" stroke-linecap="round" stroke-linejoin="round" />
  <line x1="47.72" y1="97.06" x2="35.60" y2="97.06" fill="none" stroke="currentColor" stroke-width="1.000000011920929" stroke-linecap="round" stroke-linejoin="round" />
  <path d="M35.60,97.06 C35.60,94.34 36.52,91.61 38.42,89.38" fill="none" stroke="currentColor" stroke-width="1.000000011920929" stroke-linecap="round" stroke-linejoin="round" />
  <path d="M23.71,86.82C23.71,86.88 23.70,86.94 23.69,86.99C23.68,87.03 23.67,87.07 23.65,87.10C23.63,87.13 23.61,87.15 23.59,87.16C23.57,87.18 23.54,87.18 23.52,87.18L19.89,87.18C19.86,87.18 19.84,87.18 19.82,87.16C19.79,87.15 19.77,87.13 19.75,87.10C19.73,87.07 19.72,87.03 19.71,86.99C19.70,86.94 19.69,86.88 19.69,86.82C19.69,86.75 19.70,86.70 19.71,86.65C19.72,86.60 19.73,86.56 19.75,86.53C19.76,86.50 19.79,86.48 19.81,86.46C19.83,86.45 19.86,86.44 19.89,86.44L21.34,86.44L21.34,81.16L19.99,81.96C19.93,81.99 19.87,82.01 19.83,82.02C19.79,82.03 19.76,82.02 19.73,82.00C19.71,81.97 19.69,81.93 19.68,81.88C19.67,81.83 19.67,81.76 19.67,81.68C19.67,81.62 19.67,81.56 19.67,81.52C19.68,81.48 19.69,81.44 19.70,81.41C19.71,81.38 19.72,81.36 19.74,81.34C19.76,81.32 19.79,81.29 19.82,81.27L21.42,80.25C21.44,80.24 21.45,80.23 21.48,80.22C21.50,80.21 21.52,80.21 21.56,80.20C21.59,80.19 21.63,80.19 21.67,80.19C21.71,80.18 21.77,80.18 21.83,80.18C21.92,80.18 21.99,80.19 22.05,80.19C22.10,80.20 22.15,80.21 22.18,80.22C22.21,80.24 22.23,80.25 22.24,80.27C22.25,80.29 22.26,80.31 22.26,80.33L22.26,86.44L23.52,86.44C23.55,86.44 23.57,86.45 23.60,86.46C23.62,86.48 23.64,86.50 23.66,86.53C23.68,86.56 23.69,86.60 23.70,86.65C23.71,86.70 23.71,86.75 23.71,86.82Z" fill="currentColor" stroke="currentColor" stroke-width="1.2" stroke-linejoin="round" />
  <path d="M29.21,85.19C29.21,85.51 29.16,85.80 29.05,86.06C28.94,86.31 28.78,86.53 28.57,86.71C28.36,86.90 28.11,87.04 27.80,87.14C27.50,87.23 27.15,87.28 26.77,87.28C26.54,87.28 26.32,87.26 26.12,87.23C25.92,87.19 25.74,87.14 25.58,87.09C25.42,87.04 25.29,86.99 25.19,86.93C25.08,86.88 25.02,86.84 24.99,86.81C24.96,86.79 24.94,86.76 24.93,86.74C24.91,86.71 24.90,86.68 24.89,86.64C24.88,86.61 24.87,86.56 24.87,86.51C24.86,86.46 24.86,86.40 24.86,86.32C24.86,86.19 24.87,86.10 24.90,86.05C24.92,86.00 24.96,85.98 25.00,85.98C25.04,85.98 25.10,86.01 25.19,86.06C25.29,86.12 25.41,86.18 25.56,86.25C25.71,86.32 25.88,86.38 26.08,86.43C26.28,86.49 26.50,86.52 26.74,86.52C26.98,86.52 27.19,86.49 27.37,86.43C27.55,86.37 27.70,86.28 27.82,86.17C27.94,86.06 28.03,85.93 28.09,85.78C28.15,85.62 28.18,85.46 28.18,85.28C28.18,85.08 28.14,84.91 28.07,84.75C27.99,84.59 27.88,84.45 27.73,84.34C27.58,84.23 27.40,84.14 27.18,84.08C26.96,84.02 26.72,83.99 26.44,83.99L25.78,83.99C25.75,83.99 25.73,83.98 25.70,83.97C25.67,83.95 25.65,83.93 25.63,83.91C25.61,83.88 25.59,83.84 25.58,83.79C25.57,83.75 25.56,83.69 25.56,83.61C25.56,83.54 25.57,83.49 25.58,83.44C25.59,83.40 25.60,83.36 25.62,83.33C25.64,83.31 25.67,83.29 25.69,83.27C25.72,83.26 25.74,83.26 25.78,83.26L26.38,83.26C26.62,83.26 26.83,83.22 27.02,83.16C27.21,83.10 27.37,83.02 27.50,82.90C27.63,82.79 27.73,82.65 27.80,82.49C27.87,82.33 27.90,82.15 27.90,81.96C27.90,81.81 27.88,81.68 27.83,81.54C27.79,81.41 27.72,81.30 27.62,81.20C27.53,81.11 27.41,81.03 27.27,80.98C27.12,80.92 26.96,80.89 26.77,80.89C26.56,80.89 26.37,80.92 26.19,80.99C26.02,81.05 25.86,81.12 25.73,81.19C25.59,81.26 25.48,81.33 25.39,81.39C25.30,81.45 25.24,81.48 25.20,81.48C25.18,81.48 25.16,81.48 25.14,81.47C25.12,81.46 25.10,81.44 25.09,81.42C25.07,81.39 25.07,81.35 25.06,81.30C25.05,81.25 25.05,81.19 25.05,81.11C25.05,81.06 25.05,81.01 25.06,80.97C25.06,80.93 25.07,80.89 25.08,80.86C25.09,80.83 25.10,80.80 25.12,80.78C25.13,80.75 25.16,80.72 25.19,80.69C25.22,80.66 25.29,80.61 25.40,80.54C25.50,80.48 25.63,80.42 25.78,80.35C25.93,80.29 26.11,80.24 26.31,80.19C26.50,80.15 26.72,80.13 26.95,80.13C27.27,80.13 27.55,80.17 27.80,80.25C28.04,80.34 28.24,80.45 28.41,80.60C28.57,80.75 28.69,80.93 28.77,81.14C28.85,81.35 28.89,81.58 28.89,81.84C28.89,82.06 28.86,82.26 28.81,82.45C28.75,82.64 28.66,82.80 28.55,82.95C28.44,83.09 28.31,83.22 28.15,83.32C27.99,83.42 27.80,83.49 27.59,83.53L27.59,83.54C27.83,83.57 28.05,83.62 28.25,83.72C28.44,83.81 28.61,83.93 28.76,84.08C28.90,84.22 29.01,84.39 29.09,84.58C29.18,84.77 29.21,84.98 29.21,85.19Z" fill="currentColor" stroke="currentColor" stroke-width="1.2" stroke-linejoin="round" />
  <path d="M35.07,83.69C35.07,84.22 35.03,84.71 34.95,85.15C34.86,85.59 34.72,85.97 34.53,86.29C34.33,86.60 34.08,86.85 33.76,87.02C33.45,87.20 33.06,87.28 32.60,87.28C32.16,87.28 31.79,87.21 31.49,87.05C31.20,86.89 30.96,86.66 30.77,86.36C30.59,86.06 30.46,85.69 30.38,85.25C30.31,84.80 30.27,84.30 30.27,83.72C30.27,83.19 30.31,82.71 30.40,82.26C30.48,81.82 30.62,81.44 30.82,81.13C31.01,80.81 31.26,80.56 31.58,80.39C31.89,80.22 32.28,80.13 32.74,80.13C33.18,80.13 33.55,80.21 33.85,80.36C34.15,80.52 34.39,80.75 34.57,81.05C34.75,81.35 34.88,81.73 34.96,82.17C35.04,82.61 35.07,83.12 35.07,83.69ZM34.13,83.75C34.13,83.41 34.12,83.10 34.09,82.82C34.07,82.54 34.03,82.30 33.98,82.09C33.93,81.88 33.87,81.70 33.79,81.54C33.72,81.39 33.62,81.27 33.52,81.17C33.41,81.07 33.29,81.00 33.15,80.95C33.01,80.91 32.86,80.89 32.68,80.89C32.38,80.89 32.13,80.96 31.94,81.10C31.75,81.24 31.60,81.44 31.49,81.69C31.39,81.94 31.31,82.24 31.27,82.57C31.23,82.91 31.21,83.27 31.21,83.66C31.21,84.18 31.24,84.62 31.29,84.98C31.35,85.35 31.43,85.64 31.55,85.87C31.66,86.10 31.81,86.27 31.99,86.37C32.18,86.47 32.40,86.53 32.65,86.53C32.85,86.53 33.03,86.49 33.18,86.43C33.33,86.37 33.46,86.27 33.57,86.15C33.68,86.03 33.77,85.89 33.85,85.72C33.92,85.55 33.97,85.37 34.02,85.16C34.06,84.96 34.09,84.74 34.10,84.50C34.12,84.26 34.13,84.01 34.13,83.75Z" fill="currentColor" stroke="currentColor" stroke-width="1.2" stroke-linejoin="round" />
  <path d="M38.63,81.10C38.63,81.27 38.60,81.44 38.53,81.59C38.47,81.75 38.37,81.88 38.25,82.00C38.13,82.11 37.99,82.20 37.83,82.27C37.66,82.33 37.49,82.36 37.30,82.36C37.11,82.36 36.94,82.34 36.78,82.28C36.62,82.22 36.49,82.13 36.37,82.03C36.26,81.92 36.17,81.79 36.11,81.64C36.04,81.49 36.01,81.32 36.01,81.14C36.01,80.96 36.04,80.79 36.11,80.63C36.18,80.48 36.27,80.34 36.39,80.23C36.51,80.12 36.65,80.03 36.82,79.97C36.98,79.91 37.15,79.87 37.34,79.87C37.53,79.87 37.70,79.90 37.86,79.96C38.01,80.02 38.15,80.11 38.26,80.21C38.38,80.32 38.47,80.45 38.53,80.60C38.60,80.75 38.63,80.91 38.63,81.10ZM37.95,81.12C37.95,81.02 37.94,80.93 37.90,80.85C37.87,80.76 37.83,80.69 37.77,80.63C37.71,80.57 37.65,80.52 37.57,80.49C37.49,80.45 37.40,80.44 37.31,80.44C37.22,80.44 37.14,80.45 37.06,80.49C36.98,80.52 36.92,80.57 36.86,80.63C36.80,80.69 36.76,80.76 36.72,80.84C36.69,80.93 36.68,81.01 36.68,81.11C36.68,81.21 36.69,81.31 36.72,81.39C36.76,81.48 36.80,81.55 36.86,81.61C36.92,81.67 36.99,81.72 37.07,81.76C37.15,81.79 37.24,81.81 37.33,81.81C37.42,81.81 37.50,81.79 37.58,81.75C37.65,81.72 37.72,81.67 37.77,81.60C37.83,81.54 37.87,81.47 37.90,81.39C37.94,81.30 37.95,81.22 37.95,81.12Z" fill="currentColor" stroke="currentColor" stroke-width="1.2" stroke-linejoin="round" />
  <path d="M199.96,86.82C199.96,86.88 199.95,86.94 199.94,86.99C199.93,87.03 199.92,87.07 199.90,87.10C199.88,87.13 199.86,87.15 199.84,87.16C199.82,87.18 199.79,87.18 199.77,87.18L196.14,87.18C196.11,87.18 196.09,87.18 196.07,87.16C196.04,87.15 196.02,87.13 196.00,87.10C195.98,87.07 195.97,87.03 195.96,86.99C195.95,86.94 195.94,86.88 195.94,86.82C195.94,86.75 195.95,86.70 195.96,86.65C195.97,86.60 195.98,86.56 196.00,86.53C196.02,86.50 196.04,86.48 196.06,86.46C196.08,86.45 196.11,86.44 196.14,86.44L197.59,86.44L197.59,81.16L196.24,81.96C196.18,81.99 196.12,82.01 196.08,82.02C196.04,82.03 196.01,82.02 195.98,82.00C195.96,81.97 195.94,81.93 195.93,81.88C195.92,81.83 195.92,81.76 195.92,81.68C195.92,81.62 195.92,81.56 195.92,81.52C195.93,81.48 195.94,81.44 195.95,81.41C195.96,81.38 195.97,81.36 195.99,81.34C196.01,81.32 196.04,81.29 196.07,81.27L197.67,80.25C197.69,80.24 197.70,80.23 197.73,80.22C197.75,80.21 197.77,80.21 197.81,80.20C197.84,80.19 197.88,80.19 197.92,80.19C197.96,80.18 198.02,80.18 198.08,80.18C198.17,80.18 198.24,80.19 198.30,80.19C198.35,80.20 198.40,80.21 198.43,80.22C198.46,80.24 198.48,80.25 198.49,80.27C198.50,80.29 198.51,80.31 198.51,80.33L198.51,86.44L199.77,86.44C199.80,86.44 199.82,86.45 199.85,86.46C199.87,86.48 199.89,86.50 199.91,86.53C199.93,86.56 199.94,86.60 199.95,86.65C199.96,86.70 199.96,86.75 199.96,86.82Z" fill="currentColor" stroke="currentColor" stroke-width="1.2" stroke-linejoin="round" />
  <path d="M205.54,86.82C205.54,86.88 205.53,86.94 205.52,86.99C205.51,87.03 205.49,87.07 205.48,87.10C205.46,87.13 205.44,87.15 205.41,87.16C205.39,87.18 205.37,87.18 205.34,87.18L201.71,87.18C201.69,87.18 201.66,87.18 201.64,87.16C201.62,87.15 201.60,87.13 201.58,87.10C201.56,87.07 201.54,87.03 201.53,86.99C201.52,86.94 201.52,86.88 201.52,86.82C201.52,86.75 201.52,86.70 201.53,86.65C201.54,86.60 201.56,86.56 201.57,86.53C201.59,86.50 201.61,86.48 201.63,86.46C201.66,86.45 201.68,86.44 201.71,86.44L203.16,86.44L203.16,81.16L201.82,81.96C201.75,81.99 201.70,82.01 201.65,82.02C201.61,82.03 201.58,82.02 201.56,82.00C201.53,81.97 201.51,81.93 201.50,81.88C201.50,81.83 201.49,81.76 201.49,81.68C201.49,81.62 201.49,81.56 201.50,81.52C201.50,81.48 201.51,81.44 201.52,81.41C201.53,81.38 201.55,81.36 201.57,81.34C201.59,81.32 201.61,81.29 201.65,81.27L203.25,80.25C203.26,80.24 203.28,80.23 203.30,80.22C203.32,80.21 203.35,80.21 203.38,80.20C203.41,80.19 203.45,80.19 203.49,80.19C203.54,80.18 203.59,80.18 203.66,80.18C203.74,80.18 203.81,80.19 203.87,80.19C203.93,80.20 203.97,80.21 204.00,80.22C204.04,80.24 204.06,80.25 204.07,80.27C204.08,80.29 204.09,80.31 204.09,80.33L204.09,86.44L205.34,86.44C205.37,86.44 205.40,86.45 205.42,86.46C205.45,86.48 205.47,86.50 205.48,86.53C205.50,86.56 205.51,86.60 205.52,86.65C205.53,86.70 205.54,86.75 205.54,86.82Z" fill="currentColor" stroke="currentColor" stroke-width="1.2" stroke-linejoin="round" />
  <path d="M211.20,80.63C211.20,80.69 211.19,80.75 211.19,80.80C211.18,80.86 211.18,80.91 211.17,80.95C211.16,81.00 211.15,81.05 211.13,81.09C211.11,81.14 211.09,81.19 211.07,81.24L208.57,87.01C208.55,87.05 208.53,87.08 208.50,87.11C208.47,87.14 208.44,87.16 208.40,87.17C208.36,87.19 208.31,87.20 208.24,87.21C208.18,87.21 208.10,87.21 208.01,87.21C207.88,87.21 207.79,87.21 207.72,87.20C207.65,87.19 207.60,87.17 207.57,87.15C207.54,87.12 207.53,87.10 207.53,87.06C207.54,87.03 207.55,86.99 207.57,86.94L210.20,81.04L206.87,81.04C206.80,81.04 206.75,81.01 206.71,80.94C206.68,80.86 206.66,80.76 206.66,80.64C206.66,80.57 206.67,80.51 206.68,80.46C206.69,80.41 206.70,80.37 206.72,80.33C206.73,80.30 206.76,80.27 206.78,80.26C206.81,80.24 206.84,80.23 206.87,80.23L210.92,80.23C210.97,80.23 211.01,80.24 211.05,80.25C211.09,80.26 211.11,80.28 211.13,80.31C211.15,80.35 211.17,80.39 211.18,80.44C211.19,80.49 211.20,80.55 211.20,80.63Z" fill="currentColor" stroke="currentColor" stroke-width="1.2" stroke-linejoin="round" />
  <path d="M214.88,81.10C214.88,81.27 214.85,81.44 214.78,81.59C214.72,81.75 214.62,81.88 214.50,82.00C214.38,82.11 214.24,82.20 214.08,82.27C213.91,82.33 213.74,82.36 213.55,82.36C213.36,82.36 213.19,82.34 213.03,82.28C212.87,82.22 212.74,82.13 212.62,82.03C212.51,81.92 212.42,81.79 212.36,81.64C212.29,81.49 212.26,81.32 212.26,81.14C212.26,80.96 212.29,80.79 212.36,80.63C212.43,80.48 212.52,80.34 212.64,80.23C212.76,80.12 212.90,80.03 213.07,79.97C213.23,79.91 213.40,79.87 213.59,79.87C213.78,79.87 213.95,79.90 214.11,79.96C214.26,80.02 214.40,80.11 214.52,80.21C214.63,80.32 214.72,80.45 214.78,80.60C214.85,80.75 214.88,80.91 214.88,81.10ZM214.20,81.12C214.20,81.02 214.19,80.93 214.16,80.85C214.12,80.76 214.08,80.69 214.02,80.63C213.96,80.57 213.90,80.52 213.82,80.49C213.74,80.45 213.65,80.44 213.56,80.44C213.47,80.44 213.39,80.45 213.31,80.49C213.23,80.52 213.17,80.57 213.11,80.63C213.05,80.69 213.01,80.76 212.97,80.84C212.94,80.93 212.93,81.01 212.93,81.11C212.93,81.21 212.94,81.31 212.97,81.39C213.01,81.48 213.05,81.55 213.11,81.61C213.17,81.67 213.24,81.72 213.32,81.76C213.40,81.79 213.49,81.81 213.58,81.81C213.67,81.81 213.75,81.79 213.83,81.75C213.90,81.72 213.97,81.67 214.02,81.60C214.08,81.54 214.12,81.47 214.16,81.39C214.19,81.30 214.20,81.22 214.20,81.12Z" fill="currentColor" stroke="currentColor" stroke-width="1.2" stroke-linejoin="round" />
  <path d="M133.56,28.14C133.56,28.17 133.55,28.21 133.54,28.25C133.53,28.28 133.52,28.32 133.51,28.36C133.37,28.75 133.22,29.15 133.06,29.55C132.89,29.95 132.71,30.34 132.50,30.74C132.30,31.13 132.08,31.52 131.84,31.90C131.60,32.29 131.33,32.65 131.05,33.01C131.02,33.05 130.99,33.08 130.96,33.10C130.93,33.12 130.89,33.14 130.84,33.15C130.80,33.16 130.75,33.17 130.69,33.17C130.63,33.18 130.57,33.18 130.49,33.18C130.38,33.18 130.29,33.18 130.22,33.17C130.15,33.16 130.10,33.15 130.06,33.14C130.02,33.12 130.00,33.10 129.98,33.08C129.96,33.05 129.95,33.02 129.95,32.99L129.24,28.41C129.23,28.37 129.23,28.33 129.23,28.30C129.23,28.27 129.22,28.24 129.22,28.22C129.22,28.17 129.23,28.13 129.25,28.11C129.26,28.08 129.28,28.06 129.32,28.05C129.35,28.04 129.39,28.03 129.45,28.02C129.50,28.02 129.58,28.01 129.67,28.01C129.76,28.01 129.84,28.02 129.90,28.02C129.95,28.03 130.00,28.04 130.03,28.05C130.06,28.06 130.08,28.08 130.09,28.10C130.10,28.12 130.11,28.15 130.11,28.18L130.69,32.17L130.69,32.23L130.72,32.20C130.93,31.88 131.12,31.57 131.30,31.28C131.47,30.98 131.64,30.67 131.79,30.35C131.94,30.03 132.08,29.70 132.21,29.34C132.35,28.99 132.48,28.61 132.62,28.18C132.64,28.15 132.65,28.12 132.67,28.10C132.69,28.08 132.72,28.06 132.76,28.05C132.79,28.04 132.84,28.03 132.91,28.02C132.97,28.02 133.05,28.01 133.14,28.01C133.23,28.01 133.30,28.02 133.35,28.02C133.40,28.03 133.45,28.03 133.48,28.04C133.51,28.05 133.53,28.06 133.54,28.08C133.55,28.10 133.56,28.11 133.56,28.14Z" fill="currentColor" stroke="currentColor" stroke-width="1.2" stroke-linejoin="round" />
</svg>