<svg xmlns="http://www.w3.org/2000/svg" viewBox="0 0 266.27 149.62" preserveAspectRatio="xMidYMid meet" shape-rendering="geometricPrecision" text-rendering="optimizeLegibility">
  <path d="M59.82,64.69H173.20V121.39H59.82Z" fill-rule="evenodd" fill="currentColor" fill-opacity="0.283" stroke="currentColor" stroke-width="1.2" stroke-linejoin="round" />
  <path d="M116.51,64.69C116.51,33.40 141.91,8.00 173.20,8.00C204.50,8.00 229.90,33.40 229.90,64.69C229.90,95.99 204.50,121.39 173.20,121.39C141.91,121.39 116.51,95.99 116.51,64.69Z" fill-rule="evenodd" fill="var(--panel)" stroke="currentColor" stroke-width="1.4000000476837158" stroke-linejoin="round" />
  <line x1="20.51" y1="64.69" x2="258.27" y2="64.69" fill="none" stroke="currentColor" stroke-width="1.4000000476837158" stroke-linecap="round" stroke-linejoin="round" />
  <line x1="20.51" y1="121.39" x2="258.27" y2="121.39" fill="none" stroke="currentColor" stroke-width="1.4000000476837158" stroke-linecap="round" stroke-linejoin="round" />
  <line x1="59.82" y1="141.62" x2="59.82" y2="33.14" fill="none" stroke="currentColor" stroke-width="1.4000000476837158" stroke-linecap="round" stroke-linejoin="round" />
  <rect x="59.82" y="64.69" width="8.40" height="8.40" fill="none" stroke="currentColor" stroke-width="1.0" stroke-linecap="round" stroke-linejoin="round" />
  <path d="M53.76,89.76L52.61,89.76L51.32,91.42L50.54,89.76L49.53,89.76L50.70,92.08L48.55,94.69L49.69,94.69L51.12,92.85L52.02,94.69L53.02,94.69L51.77,92.20L53.76,89.76Z" fill="currentColor" stroke="currentColor" stroke-width="1.2" stroke-linejoin="round" />
  <path d="M90.96,56.16L89.81,56.16L88.52,57.82L87.74,56.16L86.73,56.16L87.90,58.48L85.75,61.09L86.89,61.09L88.32,59.25L89.22,61.09L90.22,61.09L88.97,58.60L90.96,56.16Z" fill="currentColor" stroke="currentColor" stroke-width="1.2" stroke-linejoin="round" />
  <path d="M171.79,64.69C171.79,63.91 172.42,63.28 173.20,63.28C173.98,63.28 174.61,63.91 174.61,64.69C174.61,65.47 173.98,66.10 173.20,66.10C172.42,66.10 171.79,65.47 171.79,64.69Z" fill-rule="evenodd" fill="currentColor" stroke="currentColor" stroke-width="1.2" stroke-linejoin="round" />
  <path d="M146.16,56.16L145.00,56.16L143.72,57.82L142.93,56.16L141.93,56.16L143.10,58.48L140.94,61.09L142.09,61.09L143.52,59.25L144.42,61.09L145.42,61.09L144.17,58.60L146.16,56.16Z" fill="currentColor" stroke="currentColor" stroke-width="1.2" stroke-linejoin="round" />
  <path d="M9.08,60.14L8.00,60.14L8.00,67.64L12.46,67.64L12.46,66.68L9.08,66.68L9.08,60.14Z" fill="currentColor" stroke="currentColor" stroke-width="1.2" stroke-linejoin="round" />
  <path d="M14.81,69.24L14.81,65.10L14.58,65.10L13.19,66.24L13.41,66.75L14.19,66.11L14.19,69.24L14.81,69.24Z" fill="currentColor" stroke="currentColor" stroke-width="1.2" stroke-linejoin="round" />
  <path d="M9.08,116.84L8.00,116.84L8.00,124.34L12.46,124.34L12.46,123.37L9.08,123.37L9.08,116.84Z" fill="currentColor" stroke="currentColor" stroke-width="1.2" stroke-linejoin="round" />
  <path d="M15.63,125.38L14.07,125.38C14.30,125.11 14.49,124.87 14.65,124.65C14.81,124.44 14.94,124.24 15.05,124.07C15.15,123.89 15.22,123.72 15.27,123.56C15.32,123.40 15.34,123.23 15.34,123.07C15.34,122.81 15.28,122.59 15.18,122.40C15.08,122.21 14.93,122.06 14.74,121.95C14.56,121.85 14.34,121.79 14.09,121.79C13.93,121.79 13.77,121.82 13.61,121.89C13.45,121.95 13.29,122.05 13.13,122.18L13.13,122.92C13.24,122.78 13.34,122.67 13.45,122.59C13.55,122.51 13.65,122.45 13.75,122.42C13.85,122.38 13.95,122.37 14.05,122.37C14.19,122.37 14.31,122.40 14.41,122.47C14.52,122.53 14.60,122.62 14.66,122.74C14.72,122.85 14.75,122.98 14.75,123.13C14.75,123.25 14.74,123.35 14.72,123.44C14.70,123.53 14.67,123.62 14.62,123.71C14.58,123.80 14.53,123.90 14.46,124.01C14.38,124.16 14.27,124.32 14.16,124.48C14.04,124.64 13.92,124.81 13.79,124.97C13.66,125.14 13.53,125.30 13.41,125.45C13.28,125.61 13.16,125.76 13.04,125.89L13.04,125.94L15.63,125.94L15.63,125.38Z" fill="currentColor" stroke="currentColor" stroke-width="1.2" stroke-linejoin="round" />
  <path d="M57.49,22.18L56.42,22.18L56.42,29.68L60.88,29.68L60.88,28.71L57.49,28.71L57.49,22.18Z" fill="currentColor" stroke="currentColor" stroke-width="1.2" stroke-linejoin="round" />
  <path d="M61.74,27.86C61.83,27.82 61.92,27.79 61.99,27.76C62.07,27.73 62.15,27.72 62.22,27.70C62.29,27.69 62.36,27.69 62.43,27.69C62.58,27.69 62.70,27.71 62.81,27.76C62.92,27.81 63.00,27.88 63.05,27.97C63.11,28.06 63.14,28.17 63.14,28.30C63.14,28.49 63.07,28.63 62.94,28.74C62.80,28.84 62.60,28.89 62.33,28.89L62.33,29.43C62.53,29.43 62.69,29.45 62.82,29.51C62.95,29.57 63.05,29.65 63.11,29.76C63.17,29.86 63.21,29.98 63.21,30.12C63.21,30.25 63.18,30.37 63.13,30.46C63.07,30.56 63.00,30.64 62.90,30.69C62.80,30.74 62.68,30.77 62.55,30.77C62.40,30.77 62.25,30.75 62.10,30.69C61.94,30.64 61.79,30.56 61.64,30.46L61.64,31.10C61.78,31.17 61.93,31.23 62.08,31.27C62.22,31.31 62.36,31.33 62.51,31.33C62.76,31.33 62.98,31.27 63.18,31.17C63.37,31.07 63.52,30.92 63.63,30.73C63.74,30.55 63.79,30.33 63.80,30.09C63.80,29.95 63.78,29.81 63.73,29.68C63.69,29.55 63.63,29.43 63.54,29.33C63.45,29.23 63.34,29.16 63.21,29.12C63.33,29.05 63.43,28.97 63.51,28.89C63.58,28.80 63.64,28.71 63.68,28.59C63.71,28.48 63.73,28.35 63.73,28.20C63.73,27.98 63.68,27.79 63.58,27.63C63.48,27.47 63.34,27.35 63.16,27.26C62.98,27.18 62.77,27.13 62.52,27.13C62.37,27.13 62.23,27.14 62.11,27.17C61.98,27.20 61.86,27.24 61.74,27.30L61.74,27.86Z" fill="currentColor" stroke="currentColor" stroke-width="1.2" stroke-linejoin="round" />
  <rect x="59.82" y="121.39" width="8.40" height="8.40" fill="none" stroke="currentColor" stroke-width="1.0" stroke-linecap="round" stroke-linejoin="round" />
</svg>