<svg xmlns="http://www.w3.org/2000/svg" viewBox="0 0 226.10 125.63" preserveAspectRatio="xMidYMid meet" shape-rendering="geometricPrecision" text-rendering="optimizeLegibility">
  <path d="M185.01,8.00 C185.22,8.00 185.41,8.02 185.60,8.06" fill="currentColor" stroke="currentColor" stroke-width="1.2" stroke-linecap="round" stroke-linejoin="round" />
  <path d="M183.77,8.25 C184.15,8.08 184.56,8.00 185.01,8.00" fill="currentColor" stroke="currentColor" stroke-width="1.2" stroke-linecap="round" stroke-linejoin="round" />
  <path d="M185.60,8.06 C185.79,8.09 185.97,8.14 186.13,8.20" fill="currentColor" stroke="currentColor" stroke-width="1.2" stroke-linecap="round" stroke-linejoin="round" />
  <path d="M186.13,8.20 C186.29,8.26 186.43,8.32 186.56,8.40" fill="currentColor" stroke="currentColor" stroke-width="1.2" stroke-linecap="round" stroke-linejoin="round" />
  <path d="M186.56,8.40 C186.68,8.47 186.77,8.54 186.82,8.58" fill="currentColor" stroke="currentColor" stroke-width="1.2" stroke-linecap="round" stroke-linejoin="round" />
  <path d="M182.81,8.96 C183.08,8.65 183.40,8.41 183.77,8.25" fill="currentColor" stroke="currentColor" stroke-width="1.2" stroke-linecap="round" stroke-linejoin="round" />
  <path d="M186.82,8.58 C186.86,8.63 186.90,8.67 186.91,8.69" fill="currentColor" stroke="currentColor" stroke-width="1.2" stroke-linecap="round" stroke-linejoin="round" />
  <path d="M186.91,8.69 C186.92,8.72 186.94,8.75 186.95,8.78" fill="currentColor" stroke="currentColor" stroke-width="1.2" stroke-linecap="round" stroke-linejoin="round" />
  <path d="M186.95,8.78 C186.95,8.82 186.96,8.86 186.97,8.90" fill="currentColor" stroke="currentColor" stroke-width="1.2" stroke-linecap="round" stroke-linejoin="round" />
  <path d="M185.74,8.91 C185.53,8.84 185.29,8.81 185.01,8.81" fill="currentColor" stroke="currentColor" stroke-width="1.2" stroke-linecap="round" stroke-linejoin="round" />
  <path d="M185.01,8.81 C184.70,8.81 184.42,8.87 184.17,8.99" fill="currentColor" stroke="currentColor" stroke-width="1.2" stroke-linecap="round" stroke-linejoin="round" />
  <path d="M186.97,8.90 C186.97,8.95 186.97,9.00 186.97,9.07" fill="currentColor" stroke="currentColor" stroke-width="1.2" stroke-linecap="round" stroke-linejoin="round" />
  <path d="M186.25,9.14 C186.11,9.06 185.94,8.98 185.74,8.91" fill="currentColor" stroke="currentColor" stroke-width="1.2" stroke-linecap="round" stroke-linejoin="round" />
  <path d="M186.97,9.07 C186.97,9.14 186.97,9.20 186.96,9.25" fill="currentColor" stroke="currentColor" stroke-width="1.2" stroke-linecap="round" stroke-linejoin="round" />
  <path d="M186.60,9.37 C186.51,9.30 186.39,9.23 186.25,9.14" fill="currentColor" stroke="currentColor" stroke-width="1.2" stroke-linecap="round" stroke-linejoin="round" />
  <path d="M184.17,8.99 C183.92,9.11 183.70,9.30 183.52,9.54" fill="currentColor" stroke="currentColor" stroke-width="1.2" stroke-linecap="round" stroke-linejoin="round" />
  <path d="M186.96,9.25 C186.96,9.30 186.95,9.34 186.93,9.38" fill="currentColor" stroke="currentColor" stroke-width="1.2" stroke-linecap="round" stroke-linejoin="round" />
  <path d="M186.93,9.38 C186.92,9.41 186.90,9.44 186.88,9.45" fill="currentColor" stroke="currentColor" stroke-width="1.2" stroke-linecap="round" stroke-linejoin="round" />
  <path d="M186.81,9.48 C186.76,9.48 186.69,9.44 186.60,9.37" fill="currentColor" stroke="currentColor" stroke-width="1.2" stroke-linecap="round" stroke-linejoin="round" />
  <path d="M186.88,9.45 C186.86,9.47 186.84,9.48 186.81,9.48" fill="currentColor" stroke="currentColor" stroke-width="1.2" stroke-linecap="round" stroke-linejoin="round" />
  <path d="M182.18,10.11 C182.33,9.66 182.54,9.28 182.81,8.96" fill="currentColor" stroke="currentColor" stroke-width="1.2" stroke-linecap="round" stroke-linejoin="round" />
  <path d="M183.52,9.54 C183.34,9.78 183.20,10.07 183.11,10.41" fill="currentColor" stroke="currentColor" stroke-width="1.2" stroke-linecap="round" stroke-linejoin="round" />
  <path d="M181.96,11.65 C181.96,11.08 182.03,10.56 182.18,10.11" fill="currentColor" stroke="currentColor" stroke-width="1.2" stroke-linecap="round" stroke-linejoin="round" />
  <path d="M183.11,10.41 C183.01,10.76 182.96,11.15 182.96,11.60" fill="currentColor" stroke="currentColor" stroke-width="1.2" stroke-linecap="round" stroke-linejoin="round" />
  <path d="M182.96,11.60 C182.96,12.04 183.00,12.43 183.10,12.77" fill="currentColor" stroke="currentColor" stroke-width="1.2" stroke-linecap="round" stroke-linejoin="round" />
  <path d="M182.17,13.14 C182.03,12.71 181.96,12.21 181.96,11.65" fill="currentColor" stroke="currentColor" stroke-width="1.2" stroke-linecap="round" stroke-linejoin="round" />
  <path d="M183.10,12.77 C183.19,13.11 183.33,13.39 183.51,13.61" fill="currentColor" stroke="currentColor" stroke-width="1.2" stroke-linecap="round" stroke-linejoin="round" />
  <path d="M186.86,13.65 C186.89,13.65 186.91,13.65 186.93,13.66" fill="currentColor" stroke="currentColor" stroke-width="1.2" stroke-linecap="round" stroke-linejoin="round" />
  <path d="M182.76,14.23 C182.50,13.94 182.30,13.57 182.17,13.14" fill="currentColor" stroke="currentColor" stroke-width="1.2" stroke-linecap="round" stroke-linejoin="round" />
  <path d="M186.93,13.66 C186.94,13.67 186.96,13.69 186.97,13.72" fill="currentColor" stroke="currentColor" stroke-width="1.2" stroke-linecap="round" stroke-linejoin="round" />
  <path d="M186.64,13.75 C186.73,13.68 186.81,13.65 186.86,13.65" fill="currentColor" stroke="currentColor" stroke-width="1.2" stroke-linecap="round" stroke-linejoin="round" />
  <path d="M186.97,13.72 C186.98,13.75 186.99,13.79 186.99,13.85" fill="currentColor" stroke="currentColor" stroke-width="1.2" stroke-linecap="round" stroke-linejoin="round" />
  <path d="M186.28,13.97 C186.43,13.89 186.55,13.82 186.64,13.75" fill="currentColor" stroke="currentColor" stroke-width="1.2" stroke-linecap="round" stroke-linejoin="round" />
  <path d="M183.51,13.61 C183.69,13.84 183.90,14.01 184.16,14.13" fill="currentColor" stroke="currentColor" stroke-width="1.2" stroke-linecap="round" stroke-linejoin="round" />
  <path d="M186.99,13.85 C187.00,13.90 187.00,13.97 187.00,14.05" fill="currentColor" stroke="currentColor" stroke-width="1.2" stroke-linecap="round" stroke-linejoin="round" />
  <path d="M185.76,14.20 C185.96,14.14 186.14,14.06 186.28,13.97" fill="currentColor" stroke="currentColor" stroke-width="1.2" stroke-linecap="round" stroke-linejoin="round" />
  <path d="M187.00,14.05 C187.00,14.11 187.00,14.16 187.00,14.20" fill="currentColor" stroke="currentColor" stroke-width="1.2" stroke-linecap="round" stroke-linejoin="round" />
  <path d="M184.16,14.13 C184.42,14.25 184.71,14.31 185.04,14.31" fill="currentColor" stroke="currentColor" stroke-width="1.2" stroke-linecap="round" stroke-linejoin="round" />
  <path d="M185.04,14.31 C185.31,14.31 185.55,14.27 185.76,14.20" fill="currentColor" stroke="currentColor" stroke-width="1.2" stroke-linecap="round" stroke-linejoin="round" />
  <path d="M187.00,14.20 C186.99,14.25 186.99,14.28 186.98,14.32" fill="currentColor" stroke="currentColor" stroke-width="1.2" stroke-linecap="round" stroke-linejoin="round" />
  <path d="M186.98,14.32 C186.97,14.35 186.96,14.38 186.94,14.40" fill="currentColor" stroke="currentColor" stroke-width="1.2" stroke-linecap="round" stroke-linejoin="round" />
  <path d="M186.94,14.40 C186.93,14.43 186.90,14.46 186.87,14.49" fill="currentColor" stroke="currentColor" stroke-width="1.2" stroke-linecap="round" stroke-linejoin="round" />
  <path d="M183.69,14.90 C183.32,14.75 183.01,14.52 182.76,14.23" fill="currentColor" stroke="currentColor" stroke-width="1.2" stroke-linecap="round" stroke-linejoin="round" />
  <path d="M186.87,14.49 C186.83,14.53 186.76,14.58 186.64,14.66" fill="currentColor" stroke="currentColor" stroke-width="1.2" stroke-linecap="round" stroke-linejoin="round" />
  <path d="M186.64,14.66 C186.53,14.73 186.38,14.80 186.21,14.87" fill="currentColor" stroke="currentColor" stroke-width="1.2" stroke-linecap="round" stroke-linejoin="round" />
  <path d="M186.21,14.87 C186.04,14.94 185.85,15.00 185.63,15.05" fill="currentColor" stroke="currentColor" stroke-width="1.2" stroke-linecap="round" stroke-linejoin="round" />
  <path d="M184.91,15.12 C184.46,15.12 184.05,15.05 183.69,14.90" fill="currentColor" stroke="currentColor" stroke-width="1.2" stroke-linecap="round" stroke-linejoin="round" />
  <path d="M185.63,15.05 C185.41,15.10 185.17,15.12 184.91,15.12" fill="currentColor" stroke="currentColor" stroke-width="1.2" stroke-linecap="round" stroke-linejoin="round" />
  <line x1="185.35" y1="18.67" x2="118.78" y2="106.06" fill="none" stroke="currentColor" stroke-width="1.2" stroke-linecap="round" stroke-linejoin="round" />
  <line x1="185.35" y1="18.67" x2="19.67" y2="106.13" fill="none" stroke="currentColor" stroke-width="1.4000000476837158" stroke-linecap="round" stroke-linejoin="round" />
  <line x1="19.67" y1="106.13" x2="218.10" y2="106.13" fill="none" stroke="currentColor" stroke-width="1.4000000476837158" stroke-linecap="round" stroke-linejoin="round" />
  <path d="M10.71,108.73 C10.78,108.73 10.87,108.72 10.97,108.72" fill="currentColor" stroke="currentColor" stroke-width="1.2" stroke-linecap="round" stroke-linejoin="round" />
  <path d="M10.97,108.72 C11.09,108.72 11.18,108.73 11.26,108.73" fill="currentColor" stroke="currentColor" stroke-width="1.2" stroke-linecap="round" stroke-linejoin="round" />
  <path d="M10.54,108.76 C10.58,108.75 10.64,108.74 10.71,108.73" fill="currentColor" stroke="currentColor" stroke-width="1.2" stroke-linecap="round" stroke-linejoin="round" />
  <path d="M11.26,108.73 C11.33,108.74 11.39,108.75 11.44,108.76" fill="currentColor" stroke="currentColor" stroke-width="1.2" stroke-linecap="round" stroke-linejoin="round" />
  <path d="M10.44,108.82 C10.46,108.79 10.49,108.77 10.54,108.76" fill="currentColor" stroke="currentColor" stroke-width="1.2" stroke-linecap="round" stroke-linejoin="round" />
  <path d="M11.44,108.76 C11.49,108.77 11.52,108.79 11.55,108.82" fill="currentColor" stroke="currentColor" stroke-width="1.2" stroke-linecap="round" stroke-linejoin="round" />
  <path d="M10.38,108.92 C10.39,108.88 10.41,108.84 10.44,108.82" fill="currentColor" stroke="currentColor" stroke-width="1.2" stroke-linecap="round" stroke-linejoin="round" />
  <path d="M11.55,108.82 C11.57,108.85 11.59,108.88 11.61,108.92" fill="currentColor" stroke="currentColor" stroke-width="1.2" stroke-linecap="round" stroke-linejoin="round" />
  <line x1="10.95" y1="109.68" x2="10.94" y2="109.68" fill="currentColor" stroke="currentColor" stroke-width="1.2" stroke-linecap="round" stroke-linejoin="round" />
  <line x1="115.90" y1="110.65" x2="116.46" y2="110.65" fill="currentColor" stroke="currentColor" stroke-width="1.2" stroke-linecap="round" stroke-linejoin="round" />
  <line x1="122.10" y1="110.65" x2="122.68" y2="110.65" fill="currentColor" stroke="currentColor" stroke-width="1.2" stroke-linecap="round" stroke-linejoin="round" />
  <path d="M122.68,110.65 C122.74,110.65 122.79,110.66 122.84,110.67" fill="currentColor" stroke="currentColor" stroke-width="1.2" stroke-linecap="round" stroke-linejoin="round" />
  <path d="M121.86,110.68 C121.93,110.66 122.01,110.65 122.10,110.65" fill="currentColor" stroke="currentColor" stroke-width="1.2" stroke-linecap="round" stroke-linejoin="round" />
  <path d="M116.46,110.65 C116.57,110.65 116.67,110.66 116.76,110.68" fill="currentColor" stroke="currentColor" stroke-width="1.2" stroke-linecap="round" stroke-linejoin="round" />
  <path d="M115.64,110.75 C115.72,110.68 115.80,110.65 115.90,110.65" fill="currentColor" stroke="currentColor" stroke-width="1.2" stroke-linecap="round" stroke-linejoin="round" />
  <path d="M122.84,110.67 C122.89,110.69 122.93,110.71 122.96,110.75" fill="currentColor" stroke="currentColor" stroke-width="1.2" stroke-linecap="round" stroke-linejoin="round" />
  <path d="M121.68,110.77 C121.73,110.73 121.79,110.70 121.86,110.68" fill="currentColor" stroke="currentColor" stroke-width="1.2" stroke-linecap="round" stroke-linejoin="round" />
  <path d="M116.76,110.68 C116.85,110.70 116.92,110.74 116.99,110.78" fill="currentColor" stroke="currentColor" stroke-width="1.2" stroke-linecap="round" stroke-linejoin="round" />
  <path d="M122.96,110.75 C122.99,110.78 123.02,110.82 123.04,110.88" fill="currentColor" stroke="currentColor" stroke-width="1.2" stroke-linecap="round" stroke-linejoin="round" />
  <path d="M121.52,110.95 C121.57,110.88 121.62,110.82 121.68,110.77" fill="currentColor" stroke="currentColor" stroke-width="1.2" stroke-linecap="round" stroke-linejoin="round" />
  <path d="M116.99,110.78 C117.05,110.83 117.10,110.89 117.15,110.96" fill="currentColor" stroke="currentColor" stroke-width="1.2" stroke-linecap="round" stroke-linejoin="round" />
  <path d="M115.52,111.07 C115.52,110.92 115.56,110.81 115.64,110.75" fill="currentColor" stroke="currentColor" stroke-width="1.2" stroke-linecap="round" stroke-linejoin="round" />
  <path d="M123.04,110.88 C123.07,110.93 123.08,110.99 123.08,111.07" fill="currentColor" stroke="currentColor" stroke-width="1.2" stroke-linecap="round" stroke-linejoin="round" />
  <path d="M117.15,110.96 C117.19,111.03 117.23,111.12 117.26,111.21" fill="currentColor" stroke="currentColor" stroke-width="1.2" stroke-linecap="round" stroke-linejoin="round" />
  <path d="M121.40,111.23 C121.43,111.12 121.48,111.03 121.52,110.95" fill="currentColor" stroke="currentColor" stroke-width="1.2" stroke-linecap="round" stroke-linejoin="round" />
  <line x1="122.18" y1="111.41" x2="122.17" y2="111.41" fill="currentColor" stroke="currentColor" stroke-width="1.2" stroke-linecap="round" stroke-linejoin="round" />
  <line x1="116.42" y1="111.41" x2="116.42" y2="111.41" fill="currentColor" stroke="currentColor" stroke-width="1.2" stroke-linecap="round" stroke-linejoin="round" />
  <line x1="10.94" y1="109.68" x2="9.74" y2="113.14" fill="currentColor" stroke="currentColor" stroke-width="1.2" stroke-linecap="round" stroke-linejoin="round" />
  <line x1="12.16" y1="113.14" x2="10.95" y2="109.68" fill="currentColor" stroke="currentColor" stroke-width="1.2" stroke-linecap="round" stroke-linejoin="round" />
  <line x1="8.05" y1="115.37" x2="10.38" y2="108.92" fill="currentColor" stroke="currentColor" stroke-width="1.2" stroke-linecap="round" stroke-linejoin="round" />
  <line x1="11.61" y1="108.92" x2="13.94" y2="115.38" fill="currentColor" stroke="currentColor" stroke-width="1.2" stroke-linecap="round" stroke-linejoin="round" />
  <line x1="9.74" y1="113.14" x2="12.16" y2="113.14" fill="currentColor" stroke="currentColor" stroke-width="1.2" stroke-linecap="round" stroke-linejoin="round" />
  <line x1="117.26" y1="111.21" x2="119.27" y2="116.25" fill="currentColor" stroke="currentColor" stroke-width="1.2" stroke-linecap="round" stroke-linejoin="round" />
  <line x1="119.30" y1="116.25" x2="121.40" y2="111.23" fill="currentColor" stroke="currentColor" stroke-width="1.2" stroke-linecap="round" stroke-linejoin="round" />
  <line x1="12.40" y1="113.88" x2="9.51" y2="113.88" fill="currentColor" stroke="currentColor" stroke-width="1.2" stroke-linecap="round" stroke-linejoin="round" />
  <line x1="115.52" y1="117.46" x2="115.52" y2="111.07" fill="currentColor" stroke="currentColor" stroke-width="1.2" stroke-linecap="round" stroke-linejoin="round" />
  <line x1="123.08" y1="111.07" x2="123.08" y2="117.46" fill="currentColor" stroke="currentColor" stroke-width="1.2" stroke-linecap="round" stroke-linejoin="round" />
  <line x1="122.18" y1="117.46" x2="122.18" y2="111.41" fill="currentColor" stroke="currentColor" stroke-width="1.2" stroke-linecap="round" stroke-linejoin="round" />
  <line x1="116.42" y1="111.41" x2="116.42" y2="117.46" fill="currentColor" stroke="currentColor" stroke-width="1.2" stroke-linecap="round" stroke-linejoin="round" />
  <line x1="122.17" y1="111.41" x2="119.69" y2="117.49" fill="currentColor" stroke="currentColor" stroke-width="1.2" stroke-linecap="round" stroke-linejoin="round" />
  <line x1="118.79" y1="117.49" x2="116.42" y2="111.41" fill="currentColor" stroke="currentColor" stroke-width="1.2" stroke-linecap="round" stroke-linejoin="round" />
  <line x1="9.51" y1="113.88" x2="8.94" y2="115.55" fill="currentColor" stroke="currentColor" stroke-width="1.2" stroke-linecap="round" stroke-linejoin="round" />
  <line x1="13.00" y1="115.57" x2="12.40" y2="113.88" fill="currentColor" stroke="currentColor" stroke-width="1.2" stroke-linecap="round" stroke-linejoin="round" />
  <path d="M8.00,115.56 C8.00,115.51 8.02,115.45 8.05,115.37" fill="currentColor" stroke="currentColor" stroke-width="1.2" stroke-linecap="round" stroke-linejoin="round" />
  <path d="M13.94,115.38 C13.97,115.46 13.98,115.52 13.99,115.57" fill="currentColor" stroke="currentColor" stroke-width="1.2" stroke-linecap="round" stroke-linejoin="round" />
  <path d="M8.94,115.55 C8.93,115.58 8.92,115.61 8.90,115.63" fill="currentColor" stroke="currentColor" stroke-width="1.2" stroke-linecap="round" stroke-linejoin="round" />
  <path d="M13.05,115.65 C13.03,115.63 13.01,115.60 13.00,115.57" fill="currentColor" stroke="currentColor" stroke-width="1.2" stroke-linecap="round" stroke-linejoin="round" />
  <path d="M8.04,115.67 C8.01,115.65 8.00,115.61 8.00,115.56" fill="currentColor" stroke="currentColor" stroke-width="1.2" stroke-linecap="round" stroke-linejoin="round" />
  <path d="M13.99,115.57 C13.99,115.62 13.97,115.65 13.94,115.68" fill="currentColor" stroke="currentColor" stroke-width="1.2" stroke-linecap="round" stroke-linejoin="round" />
  <path d="M8.90,115.63 C8.88,115.66 8.86,115.68 8.82,115.69" fill="currentColor" stroke="currentColor" stroke-width="1.2" stroke-linecap="round" stroke-linejoin="round" />
  <path d="M13.12,115.70 C13.09,115.69 13.06,115.67 13.05,115.65" fill="currentColor" stroke="currentColor" stroke-width="1.2" stroke-linecap="round" stroke-linejoin="round" />
  <path d="M8.18,115.72 C8.11,115.71 8.07,115.70 8.04,115.67" fill="currentColor" stroke="currentColor" stroke-width="1.2" stroke-linecap="round" stroke-linejoin="round" />
  <path d="M13.94,115.68 C13.92,115.70 13.87,115.72 13.80,115.73" fill="currentColor" stroke="currentColor" stroke-width="1.2" stroke-linecap="round" stroke-linejoin="round" />
  <path d="M8.82,115.69 C8.79,115.71 8.74,115.72 8.68,115.73" fill="currentColor" stroke="currentColor" stroke-width="1.2" stroke-linecap="round" stroke-linejoin="round" />
  <path d="M13.27,115.73 C13.20,115.72 13.15,115.71 13.12,115.70" fill="currentColor" stroke="currentColor" stroke-width="1.2" stroke-linecap="round" stroke-linejoin="round" />
  <path d="M8.43,115.74 C8.33,115.74 8.25,115.73 8.18,115.72" fill="currentColor" stroke="currentColor" stroke-width="1.2" stroke-linecap="round" stroke-linejoin="round" />
  <path d="M13.80,115.73 C13.74,115.73 13.65,115.74 13.54,115.74" fill="currentColor" stroke="currentColor" stroke-width="1.2" stroke-linecap="round" stroke-linejoin="round" />
  <path d="M8.68,115.73 C8.62,115.73 8.53,115.74 8.43,115.74" fill="currentColor" stroke="currentColor" stroke-width="1.2" stroke-linecap="round" stroke-linejoin="round" />
  <path d="M13.54,115.74 C13.42,115.74 13.34,115.73 13.27,115.73" fill="currentColor" stroke="currentColor" stroke-width="1.2" stroke-linecap="round" stroke-linejoin="round" />
  <line x1="119.27" y1="116.25" x2="119.30" y2="116.25" fill="currentColor" stroke="currentColor" stroke-width="1.2" stroke-linecap="round" stroke-linejoin="round" />
  <path d="M123.08,117.46 C123.08,117.49 123.07,117.51 123.05,117.53" fill="currentColor" stroke="currentColor" stroke-width="1.2" stroke-linecap="round" stroke-linejoin="round" />
  <path d="M122.20,117.53 C122.19,117.51 122.18,117.49 122.18,117.46" fill="currentColor" stroke="currentColor" stroke-width="1.2" stroke-linecap="round" stroke-linejoin="round" />
  <path d="M116.42,117.46 C116.42,117.49 116.41,117.51 116.39,117.53" fill="currentColor" stroke="currentColor" stroke-width="1.2" stroke-linecap="round" stroke-linejoin="round" />
  <path d="M115.54,117.53 C115.53,117.51 115.52,117.49 115.52,117.46" fill="currentColor" stroke="currentColor" stroke-width="1.2" stroke-linecap="round" stroke-linejoin="round" />
  <path d="M118.83,117.54 C118.81,117.53 118.80,117.51 118.79,117.49" fill="currentColor" stroke="currentColor" stroke-width="1.2" stroke-linecap="round" stroke-linejoin="round" />
  <path d="M119.69,117.49 C119.68,117.51 119.67,117.53 119.65,117.55" fill="currentColor" stroke="currentColor" stroke-width="1.2" stroke-linecap="round" stroke-linejoin="round" />
  <path d="M123.05,117.53 C123.04,117.56 123.02,117.57 122.98,117.59" fill="currentColor" stroke="currentColor" stroke-width="1.2" stroke-linecap="round" stroke-linejoin="round" />
  <path d="M122.27,117.59 C122.24,117.57 122.21,117.56 122.20,117.53" fill="currentColor" stroke="currentColor" stroke-width="1.2" stroke-linecap="round" stroke-linejoin="round" />
  <path d="M116.39,117.53 C116.38,117.56 116.36,117.57 116.32,117.59" fill="currentColor" stroke="currentColor" stroke-width="1.2" stroke-linecap="round" stroke-linejoin="round" />
  <path d="M115.61,117.59 C115.57,117.57 115.55,117.56 115.54,117.53" fill="currentColor" stroke="currentColor" stroke-width="1.2" stroke-linecap="round" stroke-linejoin="round" />
  <path d="M118.91,117.59 C118.88,117.58 118.85,117.56 118.83,117.54" fill="currentColor" stroke="currentColor" stroke-width="1.2" stroke-linecap="round" stroke-linejoin="round" />
  <path d="M119.65,117.55 C119.63,117.57 119.60,117.58 119.56,117.60" fill="currentColor" stroke="currentColor" stroke-width="1.2" stroke-linecap="round" stroke-linejoin="round" />
  <path d="M122.98,117.59 C122.94,117.60 122.90,117.61 122.84,117.62" fill="currentColor" stroke="currentColor" stroke-width="1.2" stroke-linecap="round" stroke-linejoin="round" />
  <path d="M122.41,117.62 C122.35,117.61 122.31,117.60 122.27,117.59" fill="currentColor" stroke="currentColor" stroke-width="1.2" stroke-linecap="round" stroke-linejoin="round" />
  <path d="M116.32,117.59 C116.28,117.60 116.24,117.61 116.18,117.62" fill="currentColor" stroke="currentColor" stroke-width="1.2" stroke-linecap="round" stroke-linejoin="round" />
  <path d="M115.74,117.62 C115.69,117.61 115.64,117.60 115.61,117.59" fill="currentColor" stroke="currentColor" stroke-width="1.2" stroke-linecap="round" stroke-linejoin="round" />
  <path d="M119.05,117.62 C118.99,117.61 118.95,117.60 118.91,117.59" fill="currentColor" stroke="currentColor" stroke-width="1.2" stroke-linecap="round" stroke-linejoin="round" />
  <path d="M119.56,117.60 C119.52,117.61 119.48,117.62 119.43,117.62" fill="currentColor" stroke="currentColor" stroke-width="1.2" stroke-linecap="round" stroke-linejoin="round" />
  <path d="M122.84,117.62 C122.79,117.63 122.71,117.63 122.62,117.63" fill="currentColor" stroke="currentColor" stroke-width="1.2" stroke-linecap="round" stroke-linejoin="round" />
  <path d="M122.62,117.63 C122.54,117.63 122.47,117.63 122.41,117.62" fill="currentColor" stroke="currentColor" stroke-width="1.2" stroke-linecap="round" stroke-linejoin="round" />
  <path d="M116.18,117.62 C116.12,117.63 116.05,117.63 115.96,117.63" fill="currentColor" stroke="currentColor" stroke-width="1.2" stroke-linecap="round" stroke-linejoin="round" />
  <path d="M115.96,117.63 C115.87,117.63 115.80,117.63 115.74,117.62" fill="currentColor" stroke="currentColor" stroke-width="1.2" stroke-linecap="round" stroke-linejoin="round" />
  <path d="M119.24,117.63 C119.17,117.63 119.10,117.63 119.05,117.62" fill="currentColor" stroke="currentColor" stroke-width="1.2" stroke-linecap="round" stroke-linejoin="round" />
  <path d="M119.43,117.62 C119.37,117.63 119.31,117.63 119.24,117.63" fill="currentColor" stroke="currentColor" stroke-width="1.2" stroke-linecap="round" stroke-linejoin="round" />
</svg>