<svg xmlns="http://www.w3.org/2000/svg" viewBox="0 0 154.00 149.93" preserveAspectRatio="xMidYMid meet" shape-rendering="geometricPrecision" text-rendering="optimizeLegibility">
  <line x1="12.08" y1="8.00" x2="11.30" y2="8.00" fill="currentColor" stroke="currentColor" stroke-width="1.2" stroke-linecap="round" stroke-linejoin="round" />
  <line x1="11.30" y1="8.00" x2="8.00" y2="15.73" fill="currentColor" stroke="currentColor" stroke-width="1.2" stroke-linecap="round" stroke-linejoin="round" />
  <line x1="15.52" y1="15.73" x2="12.08" y2="8.00" fill="currentColor" stroke="currentColor" stroke-width="1.2" stroke-linecap="round" stroke-linejoin="round" />
  <path d="M141.94,8.45 C141.64,8.34 141.29,8.28 140.87,8.28" fill="currentColor" stroke="currentColor" stroke-width="1.2" stroke-linecap="round" stroke-linejoin="round" />
  <line x1="140.87" y1="8.28" x2="138.64" y2="8.28" fill="currentColor" stroke="currentColor" stroke-width="1.2" stroke-linecap="round" stroke-linejoin="round" />
  <line x1="138.64" y1="8.28" x2="138.64" y2="15.97" fill="currentColor" stroke="currentColor" stroke-width="1.2" stroke-linecap="round" stroke-linejoin="round" />
  <path d="M142.68,8.90 C142.49,8.71 142.24,8.56 141.94,8.45" fill="currentColor" stroke="currentColor" stroke-width="1.2" stroke-linecap="round" stroke-linejoin="round" />
  <path d="M143.10,9.52 C143.01,9.29 142.87,9.08 142.68,8.90" fill="currentColor" stroke="currentColor" stroke-width="1.2" stroke-linecap="round" stroke-linejoin="round" />
  <line x1="139.74" y1="9.27" x2="140.76" y2="9.27" fill="currentColor" stroke="currentColor" stroke-width="1.2" stroke-linecap="round" stroke-linejoin="round" />
  <path d="M140.76,9.27 C141.09,9.27 141.36,9.32 141.56,9.42" fill="currentColor" stroke="currentColor" stroke-width="1.2" stroke-linecap="round" stroke-linejoin="round" />
  <line x1="139.74" y1="11.57" x2="139.74" y2="9.27" fill="currentColor" stroke="currentColor" stroke-width="1.2" stroke-linecap="round" stroke-linejoin="round" />
  <path d="M141.56,9.42 C141.76,9.52 141.90,9.65 141.98,9.81" fill="currentColor" stroke="currentColor" stroke-width="1.2" stroke-linecap="round" stroke-linejoin="round" />
  <path d="M143.24,10.24 C143.24,9.99 143.20,9.76 143.10,9.52" fill="currentColor" stroke="currentColor" stroke-width="1.2" stroke-linecap="round" stroke-linejoin="round" />
  <line x1="11.68" y1="9.69" x2="12.92" y2="12.47" fill="currentColor" stroke="currentColor" stroke-width="1.2" stroke-linecap="round" stroke-linejoin="round" />
  <line x1="10.53" y1="12.47" x2="11.68" y2="9.69" fill="currentColor" stroke="currentColor" stroke-width="1.2" stroke-linecap="round" stroke-linejoin="round" />
  <path d="M141.98,9.81 C142.06,9.97 142.10,10.15 142.10,10.34" fill="currentColor" stroke="currentColor" stroke-width="1.2" stroke-linecap="round" stroke-linejoin="round" />
  <path d="M142.95,11.24 C143.15,10.97 143.24,10.64 143.24,10.24" fill="currentColor" stroke="currentColor" stroke-width="1.2" stroke-linecap="round" stroke-linejoin="round" />
  <path d="M142.10,10.34 C142.10,10.75 141.97,11.06 141.70,11.27" fill="currentColor" stroke="currentColor" stroke-width="1.2" stroke-linecap="round" stroke-linejoin="round" />
  <path d="M142.07,11.89 C142.47,11.73 142.76,11.51 142.95,11.24" fill="currentColor" stroke="currentColor" stroke-width="1.2" stroke-linecap="round" stroke-linejoin="round" />
  <path d="M141.70,11.27 C141.43,11.47 141.02,11.57 140.48,11.57" fill="currentColor" stroke="currentColor" stroke-width="1.2" stroke-linecap="round" stroke-linejoin="round" />
  <line x1="140.48" y1="11.57" x2="139.74" y2="11.57" fill="currentColor" stroke="currentColor" stroke-width="1.2" stroke-linecap="round" stroke-linejoin="round" />
  <line x1="142.07" y1="11.91" x2="142.07" y2="11.89" fill="currentColor" stroke="currentColor" stroke-width="1.2" stroke-linecap="round" stroke-linejoin="round" />
  <path d="M143.06,12.29 C142.78,12.11 142.45,11.98 142.07,11.91" fill="currentColor" stroke="currentColor" stroke-width="1.2" stroke-linecap="round" stroke-linejoin="round" />
  <path d="M143.69,12.98 C143.54,12.71 143.33,12.48 143.06,12.29" fill="currentColor" stroke="currentColor" stroke-width="1.2" stroke-linecap="round" stroke-linejoin="round" />
  <line x1="12.92" y1="12.47" x2="10.53" y2="12.47" fill="currentColor" stroke="currentColor" stroke-width="1.2" stroke-linecap="round" stroke-linejoin="round" />
  <line x1="139.74" y1="12.56" x2="141.07" y2="12.56" fill="currentColor" stroke="currentColor" stroke-width="1.2" stroke-linecap="round" stroke-linejoin="round" />
  <path d="M141.07,12.56 C141.46,12.56 141.78,12.62 142.03,12.72" fill="currentColor" stroke="currentColor" stroke-width="1.2" stroke-linecap="round" stroke-linejoin="round" />
  <line x1="139.74" y1="14.98" x2="139.74" y2="12.56" fill="currentColor" stroke="currentColor" stroke-width="1.2" stroke-linecap="round" stroke-linejoin="round" />
  <path d="M142.03,12.72 C142.28,12.82 142.47,12.96 142.59,13.14" fill="currentColor" stroke="currentColor" stroke-width="1.2" stroke-linecap="round" stroke-linejoin="round" />
  <path d="M143.91,13.92 C143.91,13.57 143.84,13.26 143.69,12.98" fill="currentColor" stroke="currentColor" stroke-width="1.2" stroke-linecap="round" stroke-linejoin="round" />
  <path d="M142.59,13.14 C142.72,13.32 142.78,13.52 142.78,13.76" fill="currentColor" stroke="currentColor" stroke-width="1.2" stroke-linecap="round" stroke-linejoin="round" />
  <line x1="9.13" y1="15.73" x2="10.10" y2="13.46" fill="currentColor" stroke="currentColor" stroke-width="1.2" stroke-linecap="round" stroke-linejoin="round" />
  <line x1="10.10" y1="13.46" x2="13.37" y2="13.46" fill="currentColor" stroke="currentColor" stroke-width="1.2" stroke-linecap="round" stroke-linejoin="round" />
  <line x1="13.37" y1="13.46" x2="14.39" y2="15.73" fill="currentColor" stroke="currentColor" stroke-width="1.2" stroke-linecap="round" stroke-linejoin="round" />
  <path d="M142.78,13.76 C142.78,13.95 142.73,14.14 142.64,14.33" fill="currentColor" stroke="currentColor" stroke-width="1.2" stroke-linecap="round" stroke-linejoin="round" />
  <path d="M143.77,14.64 C143.87,14.40 143.92,14.16 143.91,13.92" fill="currentColor" stroke="currentColor" stroke-width="1.2" stroke-linecap="round" stroke-linejoin="round" />
  <path d="M142.64,14.33 C142.54,14.51 142.37,14.67 142.13,14.79" fill="currentColor" stroke="currentColor" stroke-width="1.2" stroke-linecap="round" stroke-linejoin="round" />
  <path d="M143.32,15.30 C143.53,15.10 143.68,14.88 143.77,14.64" fill="currentColor" stroke="currentColor" stroke-width="1.2" stroke-linecap="round" stroke-linejoin="round" />
  <path d="M142.13,14.79 C141.89,14.91 141.56,14.97 141.13,14.98" fill="currentColor" stroke="currentColor" stroke-width="1.2" stroke-linecap="round" stroke-linejoin="round" />
  <line x1="141.13" y1="14.98" x2="139.74" y2="14.98" fill="currentColor" stroke="currentColor" stroke-width="1.2" stroke-linecap="round" stroke-linejoin="round" />
  <path d="M142.50,15.78 C142.84,15.66 143.11,15.50 143.32,15.30" fill="currentColor" stroke="currentColor" stroke-width="1.2" stroke-linecap="round" stroke-linejoin="round" />
  <line x1="8.00" y1="15.73" x2="9.13" y2="15.73" fill="currentColor" stroke="currentColor" stroke-width="1.2" stroke-linecap="round" stroke-linejoin="round" />
  <line x1="14.39" y1="15.73" x2="15.52" y2="15.73" fill="currentColor" stroke="currentColor" stroke-width="1.2" stroke-linecap="round" stroke-linejoin="round" />
  <path d="M141.28,15.97 C141.76,15.96 142.17,15.90 142.50,15.78" fill="currentColor" stroke="currentColor" stroke-width="1.2" stroke-linecap="round" stroke-linejoin="round" />
  <line x1="138.64" y1="15.97" x2="141.28" y2="15.97" fill="currentColor" stroke="currentColor" stroke-width="1.2" stroke-linecap="round" stroke-linejoin="round" />
  <rect x="18.36" y="18.48" width="116.23" height="116.23" fill="none" stroke="currentColor" stroke-width="1.224999976158142" stroke-linecap="round" stroke-linejoin="round" />
  <path d="M18.39,18.62 C80.43,18.59 133.03,67.40 134.56,134.34" fill="currentColor" stroke="currentColor" stroke-width="1.22400004863739" stroke-linecap="round" stroke-linejoin="round" />
  <line x1="134.56" y1="134.34" x2="18.39" y2="18.62" fill="currentColor" stroke="currentColor" stroke-width="1.22400004863739" stroke-linecap="round" stroke-linejoin="round" />
  <path d="M144.08,134.10 C143.81,134.06 143.54,134.03 143.28,134.03" fill="currentColor" stroke="currentColor" stroke-width="1.2" stroke-linecap="round" stroke-linejoin="round" />
  <path d="M143.28,134.03 C142.67,134.04 142.10,134.14 141.59,134.34" fill="currentColor" stroke="currentColor" stroke-width="1.2" stroke-linecap="round" stroke-linejoin="round" />
  <path d="M13.32,134.26 C12.88,134.11 12.37,134.04 11.80,134.04" fill="currentColor" stroke="currentColor" stroke-width="1.2" stroke-linecap="round" stroke-linejoin="round" />
  <line x1="11.80" y1="134.04" x2="8.82" y2="134.04" fill="currentColor" stroke="currentColor" stroke-width="1.2" stroke-linecap="round" stroke-linejoin="round" />
  <line x1="8.82" y1="134.04" x2="8.82" y2="141.72" fill="currentColor" stroke="currentColor" stroke-width="1.2" stroke-linecap="round" stroke-linejoin="round" />
  <path d="M144.95,134.31 C144.64,134.22 144.36,134.15 144.08,134.10" fill="currentColor" stroke="currentColor" stroke-width="1.2" stroke-linecap="round" stroke-linejoin="round" />
  <path d="M14.47,134.87 C14.15,134.61 13.76,134.41 13.32,134.26" fill="currentColor" stroke="currentColor" stroke-width="1.2" stroke-linecap="round" stroke-linejoin="round" />
  <path d="M145.92,134.67 C145.57,134.52 145.25,134.40 144.95,134.31" fill="currentColor" stroke="currentColor" stroke-width="1.2" stroke-linecap="round" stroke-linejoin="round" />
  <path d="M141.59,134.34 C141.08,134.54 140.63,134.82 140.26,135.18" fill="currentColor" stroke="currentColor" stroke-width="1.2" stroke-linecap="round" stroke-linejoin="round" />
  <line x1="145.92" y1="135.85" x2="145.92" y2="134.67" fill="currentColor" stroke="currentColor" stroke-width="1.2" stroke-linecap="round" stroke-linejoin="round" />
  <path d="M15.28,135.74 C15.06,135.41 14.80,135.12 14.47,134.87" fill="currentColor" stroke="currentColor" stroke-width="1.2" stroke-linecap="round" stroke-linejoin="round" />
  <line x1="9.92" y1="135.03" x2="11.62" y2="135.03" fill="currentColor" stroke="currentColor" stroke-width="1.2" stroke-linecap="round" stroke-linejoin="round" />
  <path d="M11.62,135.03 C12.16,135.03 12.63,135.10 13.02,135.26" fill="currentColor" stroke="currentColor" stroke-width="1.2" stroke-linecap="round" stroke-linejoin="round" />
  <line x1="9.92" y1="140.73" x2="9.92" y2="135.03" fill="currentColor" stroke="currentColor" stroke-width="1.2" stroke-linecap="round" stroke-linejoin="round" />
  <path d="M143.27,135.05 C143.71,135.05 144.15,135.11 144.57,135.24" fill="currentColor" stroke="currentColor" stroke-width="1.2" stroke-linecap="round" stroke-linejoin="round" />
  <path d="M142.05,135.27 C142.42,135.13 142.83,135.05 143.27,135.05" fill="currentColor" stroke="currentColor" stroke-width="1.2" stroke-linecap="round" stroke-linejoin="round" />
  <path d="M140.26,135.18 C139.88,135.55 139.59,135.98 139.38,136.47" fill="currentColor" stroke="currentColor" stroke-width="1.2" stroke-linecap="round" stroke-linejoin="round" />
  <path d="M144.57,135.24 C145.00,135.37 145.45,135.58 145.92,135.85" fill="currentColor" stroke="currentColor" stroke-width="1.2" stroke-linecap="round" stroke-linejoin="round" />
  <path d="M13.02,135.26 C13.42,135.40 13.74,135.61 14.00,135.87" fill="currentColor" stroke="currentColor" stroke-width="1.2" stroke-linecap="round" stroke-linejoin="round" />
  <path d="M141.08,135.89 C141.35,135.62 141.68,135.42 142.05,135.27" fill="currentColor" stroke="currentColor" stroke-width="1.2" stroke-linecap="round" stroke-linejoin="round" />
  <path d="M15.75,136.78 C15.64,136.42 15.49,136.07 15.28,135.74" fill="currentColor" stroke="currentColor" stroke-width="1.2" stroke-linecap="round" stroke-linejoin="round" />
  <path d="M14.00,135.87 C14.26,136.14 14.45,136.44 14.57,136.78" fill="currentColor" stroke="currentColor" stroke-width="1.2" stroke-linecap="round" stroke-linejoin="round" />
  <path d="M140.44,136.82 C140.59,136.46 140.80,136.15 141.08,135.89" fill="currentColor" stroke="currentColor" stroke-width="1.2" stroke-linecap="round" stroke-linejoin="round" />
  <path d="M139.38,136.47 C139.17,136.96 139.07,137.51 139.06,138.09" fill="currentColor" stroke="currentColor" stroke-width="1.2" stroke-linecap="round" stroke-linejoin="round" />
  <path d="M14.57,136.78 C14.70,137.12 14.76,137.49 14.76,137.88" fill="currentColor" stroke="currentColor" stroke-width="1.2" stroke-linecap="round" stroke-linejoin="round" />
  <path d="M15.90,137.88 C15.90,137.51 15.85,137.15 15.75,136.78" fill="currentColor" stroke="currentColor" stroke-width="1.2" stroke-linecap="round" stroke-linejoin="round" />
  <path d="M140.20,137.99 C140.21,137.57 140.28,137.18 140.44,136.82" fill="currentColor" stroke="currentColor" stroke-width="1.2" stroke-linecap="round" stroke-linejoin="round" />
  <path d="M14.76,137.88 C14.76,138.07 14.73,138.29 14.68,138.54" fill="currentColor" stroke="currentColor" stroke-width="1.2" stroke-linecap="round" stroke-linejoin="round" />
  <path d="M15.72,139.04 C15.84,138.66 15.90,138.28 15.90,137.88" fill="currentColor" stroke="currentColor" stroke-width="1.2" stroke-linecap="round" stroke-linejoin="round" />
  <path d="M140.60,139.52 C140.34,139.08 140.21,138.57 140.20,137.99" fill="currentColor" stroke="currentColor" stroke-width="1.2" stroke-linecap="round" stroke-linejoin="round" />
  <path d="M139.06,138.09 C139.06,138.42 139.12,138.76 139.22,139.11" fill="currentColor" stroke="currentColor" stroke-width="1.2" stroke-linecap="round" stroke-linejoin="round" />
  <path d="M14.68,138.54 C14.62,138.79 14.53,139.04 14.40,139.29" fill="currentColor" stroke="currentColor" stroke-width="1.2" stroke-linecap="round" stroke-linejoin="round" />
  <path d="M15.19,140.09 C15.42,139.76 15.60,139.41 15.72,139.04" fill="currentColor" stroke="currentColor" stroke-width="1.2" stroke-linecap="round" stroke-linejoin="round" />
  <path d="M139.22,139.11 C139.32,139.47 139.48,139.81 139.69,140.14" fill="currentColor" stroke="currentColor" stroke-width="1.2" stroke-linecap="round" stroke-linejoin="round" />
  <path d="M14.40,139.29 C14.26,139.55 14.08,139.78 13.84,140.00" fill="currentColor" stroke="currentColor" stroke-width="1.2" stroke-linecap="round" stroke-linejoin="round" />
  <path d="M141.69,140.54 C141.22,140.29 140.86,139.95 140.60,139.52" fill="currentColor" stroke="currentColor" stroke-width="1.2" stroke-linecap="round" stroke-linejoin="round" />
  <path d="M13.84,140.00 C13.61,140.22 13.32,140.39 12.96,140.53" fill="currentColor" stroke="currentColor" stroke-width="1.2" stroke-linecap="round" stroke-linejoin="round" />
  <line x1="146.00" y1="141.25" x2="146.00" y2="140.04" fill="currentColor" stroke="currentColor" stroke-width="1.2" stroke-linecap="round" stroke-linejoin="round" />
  <path d="M146.00,140.04 C145.56,140.33 145.11,140.54 144.66,140.69" fill="currentColor" stroke="currentColor" stroke-width="1.2" stroke-linecap="round" stroke-linejoin="round" />
  <path d="M14.35,140.94 C14.68,140.69 14.96,140.41 15.19,140.09" fill="currentColor" stroke="currentColor" stroke-width="1.2" stroke-linecap="round" stroke-linejoin="round" />
  <path d="M139.69,140.14 C139.91,140.47 140.18,140.77 140.51,141.04" fill="currentColor" stroke="currentColor" stroke-width="1.2" stroke-linecap="round" stroke-linejoin="round" />
  <path d="M12.96,140.53 C12.61,140.66 12.18,140.73 11.68,140.73" fill="currentColor" stroke="currentColor" stroke-width="1.2" stroke-linecap="round" stroke-linejoin="round" />
  <path d="M143.32,140.91 C142.70,140.91 142.15,140.78 141.69,140.54" fill="currentColor" stroke="currentColor" stroke-width="1.2" stroke-linecap="round" stroke-linejoin="round" />
  <path d="M144.66,140.69 C144.20,140.84 143.75,140.91 143.32,140.91" fill="currentColor" stroke="currentColor" stroke-width="1.2" stroke-linecap="round" stroke-linejoin="round" />
  <line x1="11.68" y1="140.73" x2="9.92" y2="140.73" fill="currentColor" stroke="currentColor" stroke-width="1.2" stroke-linecap="round" stroke-linejoin="round" />
  <path d="M13.21,141.51 C13.64,141.37 14.02,141.19 14.35,140.94" fill="currentColor" stroke="currentColor" stroke-width="1.2" stroke-linecap="round" stroke-linejoin="round" />
  <path d="M140.51,141.04 C140.83,141.31 141.22,141.53 141.67,141.68" fill="currentColor" stroke="currentColor" stroke-width="1.2" stroke-linecap="round" stroke-linejoin="round" />
  <path d="M145.21,141.60 C145.49,141.50 145.75,141.38 146.00,141.25" fill="currentColor" stroke="currentColor" stroke-width="1.2" stroke-linecap="round" stroke-linejoin="round" />
  <path d="M11.81,141.72 C12.32,141.72 12.79,141.65 13.21,141.51" fill="currentColor" stroke="currentColor" stroke-width="1.2" stroke-linecap="round" stroke-linejoin="round" />
  <path d="M144.30,141.84 C144.63,141.78 144.93,141.70 145.21,141.60" fill="currentColor" stroke="currentColor" stroke-width="1.2" stroke-linecap="round" stroke-linejoin="round" />
  <path d="M141.67,141.68 C142.12,141.84 142.64,141.92 143.21,141.93" fill="currentColor" stroke="currentColor" stroke-width="1.2" stroke-linecap="round" stroke-linejoin="round" />
  <line x1="8.82" y1="141.72" x2="11.81" y2="141.72" fill="currentColor" stroke="currentColor" stroke-width="1.2" stroke-linecap="round" stroke-linejoin="round" />
  <path d="M143.21,141.93 C143.61,141.93 143.98,141.90 144.30,141.84" fill="currentColor" stroke="currentColor" stroke-width="1.2" stroke-linecap="round" stroke-linejoin="round" />
</svg>