<svg xmlns="http://www.w3.org/2000/svg" viewBox="0 0 177.51 133.22" preserveAspectRatio="xMidYMid meet" shape-rendering="geometricPrecision" text-rendering="optimizeLegibility">
  <line x1="32.16" y1="16.10" x2="29.46" y2="8.00" fill="currentColor" stroke="currentColor" stroke-width="1.2" stroke-linecap="round" stroke-linejoin="round" />
  <line x1="29.46" y1="8.00" x2="26.76" y2="16.10" fill="currentColor" stroke="currentColor" stroke-width="1.2" stroke-linecap="round" stroke-linejoin="round" />
  <line x1="24.38" y1="15.07" x2="23.40" y2="15.07" fill="currentColor" stroke="currentColor" stroke-width="1.2" stroke-linecap="round" stroke-linejoin="round" />
  <line x1="21.17" y1="15.07" x2="20.23" y2="15.07" fill="currentColor" stroke="currentColor" stroke-width="1.2" stroke-linecap="round" stroke-linejoin="round" />
  <line x1="26.76" y1="16.10" x2="29.46" y2="15.20" fill="currentColor" stroke="currentColor" stroke-width="1.2" stroke-linecap="round" stroke-linejoin="round" />
  <line x1="29.46" y1="15.20" x2="32.16" y2="16.10" fill="currentColor" stroke="currentColor" stroke-width="1.2" stroke-linecap="round" stroke-linejoin="round" />
  <line x1="23.40" y1="15.07" x2="21.85" y2="18.47" fill="currentColor" stroke="currentColor" stroke-width="1.2" stroke-linecap="round" stroke-linejoin="round" />
  <line x1="21.83" y1="18.47" x2="21.17" y2="15.07" fill="currentColor" stroke="currentColor" stroke-width="1.2" stroke-linecap="round" stroke-linejoin="round" />
  <line x1="20.23" y1="15.07" x2="21.19" y2="19.71" fill="currentColor" stroke="currentColor" stroke-width="1.2" stroke-linecap="round" stroke-linejoin="round" />
  <line x1="21.85" y1="18.47" x2="21.83" y2="18.47" fill="currentColor" stroke="currentColor" stroke-width="1.2" stroke-linecap="round" stroke-linejoin="round" />
  <line x1="20.84" y1="22.54" x2="24.38" y2="15.07" fill="currentColor" stroke="currentColor" stroke-width="1.2" stroke-linecap="round" stroke-linejoin="round" />
  <line x1="21.19" y1="19.71" x2="19.85" y2="22.54" fill="currentColor" stroke="currentColor" stroke-width="1.2" stroke-linecap="round" stroke-linejoin="round" />
  <line x1="19.85" y1="22.54" x2="20.84" y2="22.54" fill="currentColor" stroke="currentColor" stroke-width="1.2" stroke-linecap="round" stroke-linejoin="round" />
  <line x1="14.44" y1="33.49" x2="101.83" y2="33.49" fill="none" stroke="currentColor" stroke-width="1.0" stroke-linecap="round" stroke-linejoin="round" />
  <line x1="128.51" y1="35.95" x2="127.93" y2="35.95" fill="currentColor" stroke="currentColor" stroke-width="1.2" stroke-linecap="round" stroke-linejoin="round" />
  <line x1="134.05" y1="35.95" x2="133.47" y2="35.95" fill="currentColor" stroke="currentColor" stroke-width="1.2" stroke-linecap="round" stroke-linejoin="round" />
  <path d="M126.32,36.05 C126.12,36.01 125.92,35.99 125.72,35.99" fill="currentColor" stroke="currentColor" stroke-width="1.2" stroke-linecap="round" stroke-linejoin="round" />
  <path d="M125.72,35.99 C125.33,35.99 124.99,36.06 124.71,36.19" fill="currentColor" stroke="currentColor" stroke-width="1.2" stroke-linecap="round" stroke-linejoin="round" />
  <path d="M126.91,36.22 C126.71,36.14 126.51,36.09 126.32,36.05" fill="currentColor" stroke="currentColor" stroke-width="1.2" stroke-linecap="round" stroke-linejoin="round" />
  <path d="M124.71,36.19 C124.42,36.33 124.18,36.51 123.98,36.76" fill="currentColor" stroke="currentColor" stroke-width="1.2" stroke-linecap="round" stroke-linejoin="round" />
  <path d="M127.93,35.95 C127.60,36.28 127.30,36.64 127.04,37.04" fill="currentColor" stroke="currentColor" stroke-width="1.2" stroke-linecap="round" stroke-linejoin="round" />
  <path d="M134.94,37.04 C134.68,36.64 134.38,36.28 134.05,35.95" fill="currentColor" stroke="currentColor" stroke-width="1.2" stroke-linecap="round" stroke-linejoin="round" />
  <line x1="126.78" y1="37.14" x2="126.91" y2="36.22" fill="currentColor" stroke="currentColor" stroke-width="1.2" stroke-linecap="round" stroke-linejoin="round" />
  <path d="M125.82,36.87 C125.96,36.87 126.12,36.89 126.29,36.94" fill="currentColor" stroke="currentColor" stroke-width="1.2" stroke-linecap="round" stroke-linejoin="round" />
  <path d="M126.29,36.94 C126.46,36.98 126.62,37.05 126.78,37.14" fill="currentColor" stroke="currentColor" stroke-width="1.2" stroke-linecap="round" stroke-linejoin="round" />
  <path d="M124.73,37.32 C125.00,37.02 125.36,36.87 125.82,36.87" fill="currentColor" stroke="currentColor" stroke-width="1.2" stroke-linecap="round" stroke-linejoin="round" />
  <path d="M127.32,38.28 C127.58,37.44 127.98,36.66 128.51,35.95" fill="currentColor" stroke="currentColor" stroke-width="1.2" stroke-linecap="round" stroke-linejoin="round" />
  <path d="M133.47,35.95 C134.00,36.66 134.40,37.44 134.66,38.28" fill="currentColor" stroke="currentColor" stroke-width="1.2" stroke-linecap="round" stroke-linejoin="round" />
  <path d="M123.98,36.76 C123.79,37.00 123.64,37.28 123.54,37.60" fill="currentColor" stroke="currentColor" stroke-width="1.2" stroke-linecap="round" stroke-linejoin="round" />
  <path d="M127.04,37.04 C126.78,37.43 126.56,37.85 126.37,38.29" fill="currentColor" stroke="currentColor" stroke-width="1.2" stroke-linecap="round" stroke-linejoin="round" />
  <path d="M135.61,38.29 C135.43,37.85 135.20,37.43 134.94,37.04" fill="currentColor" stroke="currentColor" stroke-width="1.2" stroke-linecap="round" stroke-linejoin="round" />
  <path d="M124.26,38.65 C124.32,38.07 124.47,37.63 124.73,37.32" fill="currentColor" stroke="currentColor" stroke-width="1.2" stroke-linecap="round" stroke-linejoin="round" />
  <path d="M123.54,37.60 C123.43,37.92 123.37,38.27 123.34,38.65" fill="currentColor" stroke="currentColor" stroke-width="1.2" stroke-linecap="round" stroke-linejoin="round" />
  <line x1="109.85" y1="38.65" x2="108.87" y2="38.65" fill="currentColor" stroke="currentColor" stroke-width="1.2" stroke-linecap="round" stroke-linejoin="round" />
  <line x1="106.64" y1="38.65" x2="105.70" y2="38.65" fill="currentColor" stroke="currentColor" stroke-width="1.2" stroke-linecap="round" stroke-linejoin="round" />
  <line x1="125.26" y1="38.65" x2="124.26" y2="38.65" fill="currentColor" stroke="currentColor" stroke-width="1.2" stroke-linecap="round" stroke-linejoin="round" />
  <line x1="123.34" y1="38.65" x2="122.56" y2="38.65" fill="currentColor" stroke="currentColor" stroke-width="1.2" stroke-linecap="round" stroke-linejoin="round" />
  <line x1="133.52" y1="38.65" x2="132.36" y2="38.65" fill="currentColor" stroke="currentColor" stroke-width="1.2" stroke-linecap="round" stroke-linejoin="round" />
  <line x1="130.29" y1="38.65" x2="129.29" y2="38.65" fill="currentColor" stroke="currentColor" stroke-width="1.2" stroke-linecap="round" stroke-linejoin="round" />
  <path d="M126.37,38.29 C126.18,38.73 126.04,39.18 125.94,39.64" fill="currentColor" stroke="currentColor" stroke-width="1.2" stroke-linecap="round" stroke-linejoin="round" />
  <path d="M136.04,39.64 C135.94,39.18 135.80,38.73 135.61,38.29" fill="currentColor" stroke="currentColor" stroke-width="1.2" stroke-linecap="round" stroke-linejoin="round" />
  <line x1="122.56" y1="38.65" x2="122.44" y2="39.47" fill="currentColor" stroke="currentColor" stroke-width="1.2" stroke-linecap="round" stroke-linejoin="round" />
  <line x1="125.14" y1="39.47" x2="125.26" y2="38.65" fill="currentColor" stroke="currentColor" stroke-width="1.2" stroke-linecap="round" stroke-linejoin="round" />
  <line x1="122.44" y1="39.47" x2="123.23" y2="39.47" fill="currentColor" stroke="currentColor" stroke-width="1.2" stroke-linecap="round" stroke-linejoin="round" />
  <line x1="124.14" y1="39.47" x2="125.14" y2="39.47" fill="currentColor" stroke="currentColor" stroke-width="1.2" stroke-linecap="round" stroke-linejoin="round" />
  <line x1="132.36" y1="38.65" x2="131.08" y2="40.31" fill="currentColor" stroke="currentColor" stroke-width="1.2" stroke-linecap="round" stroke-linejoin="round" />
  <line x1="131.08" y1="40.31" x2="130.29" y2="38.65" fill="currentColor" stroke="currentColor" stroke-width="1.2" stroke-linecap="round" stroke-linejoin="round" />
  <path d="M126.93,41.03 C126.93,40.04 127.06,39.12 127.32,38.28" fill="currentColor" stroke="currentColor" stroke-width="1.2" stroke-linecap="round" stroke-linejoin="round" />
  <path d="M134.66,38.28 C134.93,39.12 135.06,40.04 135.06,41.03" fill="currentColor" stroke="currentColor" stroke-width="1.2" stroke-linecap="round" stroke-linejoin="round" />
  <line x1="129.29" y1="38.65" x2="130.46" y2="40.97" fill="currentColor" stroke="currentColor" stroke-width="1.2" stroke-linecap="round" stroke-linejoin="round" />
  <line x1="131.53" y1="41.09" x2="133.52" y2="38.65" fill="currentColor" stroke="currentColor" stroke-width="1.2" stroke-linecap="round" stroke-linejoin="round" />
  <path d="M125.94,39.64 C125.84,40.11 125.79,40.57 125.79,41.03" fill="currentColor" stroke="currentColor" stroke-width="1.2" stroke-linecap="round" stroke-linejoin="round" />
  <path d="M136.19,41.03 C136.19,40.57 136.14,40.11 136.04,39.64" fill="currentColor" stroke="currentColor" stroke-width="1.2" stroke-linecap="round" stroke-linejoin="round" />
  <line x1="108.87" y1="38.65" x2="107.32" y2="42.05" fill="currentColor" stroke="currentColor" stroke-width="1.2" stroke-linecap="round" stroke-linejoin="round" />
  <line x1="107.30" y1="42.05" x2="106.64" y2="38.65" fill="currentColor" stroke="currentColor" stroke-width="1.2" stroke-linecap="round" stroke-linejoin="round" />
  <line x1="105.70" y1="38.65" x2="106.66" y2="43.29" fill="currentColor" stroke="currentColor" stroke-width="1.2" stroke-linecap="round" stroke-linejoin="round" />
  <line x1="25.44" y1="41.48" x2="22.40" y2="41.48" fill="currentColor" stroke="currentColor" stroke-width="1.2" stroke-linecap="round" stroke-linejoin="round" />
  <path d="M125.79,41.03 C125.79,41.50 125.84,41.96 125.94,42.43" fill="currentColor" stroke="currentColor" stroke-width="1.2" stroke-linecap="round" stroke-linejoin="round" />
  <path d="M136.04,42.43 C136.14,41.96 136.19,41.50 136.19,41.03" fill="currentColor" stroke="currentColor" stroke-width="1.2" stroke-linecap="round" stroke-linejoin="round" />
  <line x1="25.44" y1="42.36" x2="25.44" y2="41.48" fill="currentColor" stroke="currentColor" stroke-width="1.2" stroke-linecap="round" stroke-linejoin="round" />
  <line x1="107.32" y1="42.05" x2="107.30" y2="42.05" fill="currentColor" stroke="currentColor" stroke-width="1.2" stroke-linecap="round" stroke-linejoin="round" />
  <line x1="130.46" y1="40.97" x2="128.30" y2="43.58" fill="currentColor" stroke="currentColor" stroke-width="1.2" stroke-linecap="round" stroke-linejoin="round" />
  <line x1="132.78" y1="43.58" x2="131.53" y2="41.09" fill="currentColor" stroke="currentColor" stroke-width="1.2" stroke-linecap="round" stroke-linejoin="round" />
  <line x1="23.29" y1="42.36" x2="25.44" y2="42.36" fill="currentColor" stroke="currentColor" stroke-width="1.2" stroke-linecap="round" stroke-linejoin="round" />
  <line x1="106.31" y1="46.11" x2="109.85" y2="38.65" fill="currentColor" stroke="currentColor" stroke-width="1.2" stroke-linecap="round" stroke-linejoin="round" />
  <path d="M127.32,43.79 C127.06,42.95 126.93,42.03 126.93,41.03" fill="currentColor" stroke="currentColor" stroke-width="1.2" stroke-linecap="round" stroke-linejoin="round" />
  <path d="M135.06,41.03 C135.06,42.03 134.93,42.95 134.66,43.79" fill="currentColor" stroke="currentColor" stroke-width="1.2" stroke-linecap="round" stroke-linejoin="round" />
  <line x1="123.23" y1="39.47" x2="122.44" y2="45.66" fill="currentColor" stroke="currentColor" stroke-width="1.2" stroke-linecap="round" stroke-linejoin="round" />
  <line x1="123.35" y1="45.66" x2="124.14" y2="39.47" fill="currentColor" stroke="currentColor" stroke-width="1.2" stroke-linecap="round" stroke-linejoin="round" />
  <line x1="129.45" y1="43.58" x2="130.88" y2="41.74" fill="currentColor" stroke="currentColor" stroke-width="1.2" stroke-linecap="round" stroke-linejoin="round" />
  <line x1="130.88" y1="41.74" x2="131.78" y2="43.58" fill="currentColor" stroke="currentColor" stroke-width="1.2" stroke-linecap="round" stroke-linejoin="round" />
  <path d="M125.94,42.43 C126.04,42.89 126.18,43.34 126.37,43.78" fill="currentColor" stroke="currentColor" stroke-width="1.2" stroke-linecap="round" stroke-linejoin="round" />
  <path d="M135.61,43.78 C135.80,43.34 135.94,42.89 136.04,42.43" fill="currentColor" stroke="currentColor" stroke-width="1.2" stroke-linecap="round" stroke-linejoin="round" />
  <line x1="23.29" y1="44.07" x2="23.29" y2="42.36" fill="currentColor" stroke="currentColor" stroke-width="1.2" stroke-linecap="round" stroke-linejoin="round" />
  <line x1="22.40" y1="41.48" x2="22.40" y2="45.03" fill="currentColor" stroke="currentColor" stroke-width="1.2" stroke-linecap="round" stroke-linejoin="round" />
  <line x1="128.30" y1="43.58" x2="129.45" y2="43.58" fill="currentColor" stroke="currentColor" stroke-width="1.2" stroke-linecap="round" stroke-linejoin="round" />
  <line x1="131.78" y1="43.58" x2="132.78" y2="43.58" fill="currentColor" stroke="currentColor" stroke-width="1.2" stroke-linecap="round" stroke-linejoin="round" />
  <line x1="169.13" y1="43.29" x2="169.51" y2="44.14" fill="currentColor" stroke="currentColor" stroke-width="1.2" stroke-linecap="round" stroke-linejoin="round" />
  <path d="M24.33,44.19 C24.03,44.09 23.68,44.05 23.29,44.07" fill="currentColor" stroke="currentColor" stroke-width="1.2" stroke-linecap="round" stroke-linejoin="round" />
  <path d="M126.37,43.78 C126.56,44.22 126.78,44.64 127.04,45.03" fill="currentColor" stroke="currentColor" stroke-width="1.2" stroke-linecap="round" stroke-linejoin="round" />
  <path d="M134.94,45.03 C135.20,44.64 135.43,44.22 135.61,43.78" fill="currentColor" stroke="currentColor" stroke-width="1.2" stroke-linecap="round" stroke-linejoin="round" />
  <path d="M25.11,44.63 C24.90,44.44 24.64,44.29 24.33,44.19" fill="currentColor" stroke="currentColor" stroke-width="1.2" stroke-linecap="round" stroke-linejoin="round" />
  <line x1="106.66" y1="43.29" x2="105.32" y2="46.11" fill="currentColor" stroke="currentColor" stroke-width="1.2" stroke-linecap="round" stroke-linejoin="round" />
  <line x1="27.21" y1="44.90" x2="31.71" y2="44.90" fill="none" stroke="currentColor" stroke-width="1.2" stroke-linecap="round" stroke-linejoin="round" />
  <line x1="14.44" y1="44.90" x2="101.83" y2="44.90" fill="none" stroke="currentColor" stroke-width="1.0" stroke-linecap="round" stroke-linejoin="round" />
  <path d="M128.51,46.11 C127.98,45.41 127.58,44.63 127.32,43.79" fill="currentColor" stroke="currentColor" stroke-width="1.2" stroke-linecap="round" stroke-linejoin="round" />
  <path d="M134.66,43.79 C134.40,44.63 134.00,45.41 133.47,46.11" fill="currentColor" stroke="currentColor" stroke-width="1.2" stroke-linecap="round" stroke-linejoin="round" />
  <path d="M22.40,45.03 C22.78,44.94 23.12,44.91 23.41,44.94" fill="currentColor" stroke="currentColor" stroke-width="1.2" stroke-linecap="round" stroke-linejoin="round" />
  <path d="M25.61,45.33 C25.49,45.06 25.33,44.83 25.11,44.63" fill="currentColor" stroke="currentColor" stroke-width="1.2" stroke-linecap="round" stroke-linejoin="round" />
  <path d="M23.41,44.94 C23.71,44.97 23.96,45.05 24.16,45.17" fill="currentColor" stroke="currentColor" stroke-width="1.2" stroke-linecap="round" stroke-linejoin="round" />
  <path d="M24.16,45.17 C24.37,45.29 24.53,45.44 24.63,45.62" fill="currentColor" stroke="currentColor" stroke-width="1.2" stroke-linecap="round" stroke-linejoin="round" />
  <path d="M127.04,45.03 C127.30,45.43 127.60,45.79 127.93,46.11" fill="currentColor" stroke="currentColor" stroke-width="1.2" stroke-linecap="round" stroke-linejoin="round" />
  <path d="M134.05,46.11 C134.38,45.79 134.68,45.43 134.94,45.03" fill="currentColor" stroke="currentColor" stroke-width="1.2" stroke-linecap="round" stroke-linejoin="round" />
  <line x1="122.44" y1="45.66" x2="123.35" y2="45.66" fill="currentColor" stroke="currentColor" stroke-width="1.2" stroke-linecap="round" stroke-linejoin="round" />
  <path d="M25.78,46.21 C25.78,45.89 25.72,45.60 25.61,45.33" fill="currentColor" stroke="currentColor" stroke-width="1.2" stroke-linecap="round" stroke-linejoin="round" />
  <path d="M24.63,45.62 C24.74,45.81 24.80,46.01 24.80,46.23" fill="currentColor" stroke="currentColor" stroke-width="1.2" stroke-linecap="round" stroke-linejoin="round" />
  <line x1="105.32" y1="46.11" x2="106.31" y2="46.11" fill="currentColor" stroke="currentColor" stroke-width="1.2" stroke-linecap="round" stroke-linejoin="round" />
  <line x1="127.93" y1="46.11" x2="128.51" y2="46.11" fill="currentColor" stroke="currentColor" stroke-width="1.2" stroke-linecap="round" stroke-linejoin="round" />
  <line x1="133.47" y1="46.11" x2="134.05" y2="46.11" fill="currentColor" stroke="currentColor" stroke-width="1.2" stroke-linecap="round" stroke-linejoin="round" />
  <path d="M24.80,46.23 C24.79,46.45 24.73,46.66 24.60,46.84" fill="currentColor" stroke="currentColor" stroke-width="1.2" stroke-linecap="round" stroke-linejoin="round" />
  <path d="M25.48,47.33 C25.68,47.01 25.77,46.63 25.78,46.21" fill="currentColor" stroke="currentColor" stroke-width="1.2" stroke-linecap="round" stroke-linejoin="round" />
  <path d="M24.60,46.84 C24.48,47.03 24.31,47.18 24.09,47.29" fill="currentColor" stroke="currentColor" stroke-width="1.2" stroke-linecap="round" stroke-linejoin="round" />
  <path d="M22.64,47.33 C22.39,47.25 22.14,47.12 21.90,46.96" fill="currentColor" stroke="currentColor" stroke-width="1.2" stroke-linecap="round" stroke-linejoin="round" />
  <path d="M24.09,47.29 C23.88,47.40 23.65,47.45 23.39,47.46" fill="currentColor" stroke="currentColor" stroke-width="1.2" stroke-linecap="round" stroke-linejoin="round" />
  <path d="M23.39,47.46 C23.14,47.46 22.89,47.42 22.64,47.33" fill="currentColor" stroke="currentColor" stroke-width="1.2" stroke-linecap="round" stroke-linejoin="round" />
  <line x1="21.90" y1="46.96" x2="21.90" y2="47.97" fill="currentColor" stroke="currentColor" stroke-width="1.2" stroke-linecap="round" stroke-linejoin="round" />
  <path d="M24.70,48.10 C25.03,47.92 25.29,47.66 25.48,47.33" fill="currentColor" stroke="currentColor" stroke-width="1.2" stroke-linecap="round" stroke-linejoin="round" />
  <path d="M21.90,47.97 C22.09,48.07 22.28,48.15 22.45,48.21" fill="currentColor" stroke="currentColor" stroke-width="1.2" stroke-linecap="round" stroke-linejoin="round" />
  <path d="M23.54,48.39 C23.98,48.38 24.36,48.29 24.70,48.10" fill="currentColor" stroke="currentColor" stroke-width="1.2" stroke-linecap="round" stroke-linejoin="round" />
  <path d="M22.45,48.21 C22.63,48.27 22.81,48.32 22.99,48.35" fill="currentColor" stroke="currentColor" stroke-width="1.2" stroke-linecap="round" stroke-linejoin="round" />
  <path d="M22.99,48.35 C23.16,48.37 23.35,48.39 23.54,48.39" fill="currentColor" stroke="currentColor" stroke-width="1.2" stroke-linecap="round" stroke-linejoin="round" />
  <line x1="14.44" y1="56.32" x2="101.83" y2="56.32" fill="none" stroke="currentColor" stroke-width="1.0" stroke-linecap="round" stroke-linejoin="round" />
  <line x1="14.44" y1="86.66" x2="101.83" y2="42.97" fill="none" stroke="currentColor" stroke-width="1.2" stroke-linecap="round" stroke-linejoin="round" />
  <line x1="29.46" y1="117.90" x2="29.46" y2="17.57" fill="none" stroke="currentColor" stroke-width="1.0" stroke-linecap="round" stroke-linejoin="round" />
  <line x1="14.44" y1="67.73" x2="101.83" y2="67.73" fill="none" stroke="currentColor" stroke-width="1.0" stroke-linecap="round" stroke-linejoin="round" />
  <line x1="29.46" y1="125.22" x2="29.46" y2="14.75" fill="none" stroke="currentColor" stroke-width="1.2" stroke-linecap="round" stroke-linejoin="round" />
  <line x1="52.29" y1="117.90" x2="52.29" y2="28.54" fill="none" stroke="currentColor" stroke-width="1.0" stroke-linecap="round" stroke-linejoin="round" />
  <line x1="18.05" y1="117.90" x2="18.05" y2="28.54" fill="none" stroke="currentColor" stroke-width="1.0" stroke-linecap="round" stroke-linejoin="round" />
  <line x1="40.88" y1="117.90" x2="40.88" y2="28.54" fill="none" stroke="currentColor" stroke-width="1.0" stroke-linecap="round" stroke-linejoin="round" />
  <line x1="97.95" y1="117.90" x2="97.95" y2="28.54" fill="none" stroke="currentColor" stroke-width="1.0" stroke-linecap="round" stroke-linejoin="round" />
  <line x1="75.12" y1="117.90" x2="75.12" y2="28.54" fill="none" stroke="currentColor" stroke-width="1.0" stroke-linecap="round" stroke-linejoin="round" />
  <line x1="86.53" y1="117.90" x2="86.53" y2="28.54" fill="none" stroke="currentColor" stroke-width="1.0" stroke-linecap="round" stroke-linejoin="round" />
  <line x1="63.71" y1="117.90" x2="63.71" y2="28.54" fill="none" stroke="currentColor" stroke-width="1.0" stroke-linecap="round" stroke-linejoin="round" />
  <line x1="14.44" y1="79.15" x2="101.83" y2="79.15" fill="none" stroke="currentColor" stroke-width="1.0" stroke-linecap="round" stroke-linejoin="round" />
  <line x1="14.44" y1="90.56" x2="101.83" y2="90.56" fill="none" stroke="currentColor" stroke-width="1.0" stroke-linecap="round" stroke-linejoin="round" />
  <line x1="111.81" y1="99.28" x2="112.71" y2="101.98" fill="currentColor" stroke="currentColor" stroke-width="1.2" stroke-linecap="round" stroke-linejoin="round" />
  <line x1="119.91" y1="101.98" x2="111.81" y2="99.28" fill="currentColor" stroke="currentColor" stroke-width="1.2" stroke-linecap="round" stroke-linejoin="round" />
  <line x1="86.54" y1="104.22" x2="86.54" y2="99.73" fill="none" stroke="currentColor" stroke-width="1.2" stroke-linecap="round" stroke-linejoin="round" />
  <line x1="8.00" y1="101.97" x2="113.16" y2="101.97" fill="none" stroke="currentColor" stroke-width="1.2" stroke-linecap="round" stroke-linejoin="round" />
  <line x1="112.71" y1="101.98" x2="111.81" y2="104.68" fill="currentColor" stroke="currentColor" stroke-width="1.2" stroke-linecap="round" stroke-linejoin="round" />
  <line x1="111.81" y1="104.68" x2="119.91" y2="101.98" fill="currentColor" stroke="currentColor" stroke-width="1.2" stroke-linecap="round" stroke-linejoin="round" />
  <line x1="84.54" y1="105.13" x2="84.17" y2="105.13" fill="currentColor" stroke="currentColor" stroke-width="1.2" stroke-linecap="round" stroke-linejoin="round" />
  <path d="M89.66,105.38 C89.39,105.22 89.09,105.13 88.76,105.13" fill="currentColor" stroke="currentColor" stroke-width="1.2" stroke-linecap="round" stroke-linejoin="round" />
  <path d="M88.76,105.13 C88.43,105.13 88.13,105.22 87.86,105.38" fill="currentColor" stroke="currentColor" stroke-width="1.2" stroke-linecap="round" stroke-linejoin="round" />
  <path d="M90.36,106.09 C90.16,105.79 89.93,105.55 89.66,105.38" fill="currentColor" stroke="currentColor" stroke-width="1.2" stroke-linecap="round" stroke-linejoin="round" />
  <path d="M87.86,105.38 C87.59,105.55 87.36,105.79 87.17,106.09" fill="currentColor" stroke="currentColor" stroke-width="1.2" stroke-linecap="round" stroke-linejoin="round" />
  <line x1="84.17" y1="105.13" x2="81.84" y2="107.03" fill="currentColor" stroke="currentColor" stroke-width="1.2" stroke-linecap="round" stroke-linejoin="round" />
  <line x1="111.31" y1="106.19" x2="110.15" y2="106.19" fill="currentColor" stroke="currentColor" stroke-width="1.2" stroke-linecap="round" stroke-linejoin="round" />
  <line x1="108.08" y1="106.19" x2="107.08" y2="106.19" fill="currentColor" stroke="currentColor" stroke-width="1.2" stroke-linecap="round" stroke-linejoin="round" />
  <path d="M88.11,106.37 C88.29,106.17 88.51,106.06 88.76,106.06" fill="currentColor" stroke="currentColor" stroke-width="1.2" stroke-linecap="round" stroke-linejoin="round" />
  <path d="M88.76,106.06 C89.01,106.06 89.23,106.17 89.42,106.37" fill="currentColor" stroke="currentColor" stroke-width="1.2" stroke-linecap="round" stroke-linejoin="round" />
  <path d="M90.80,107.20 C90.70,106.77 90.55,106.40 90.36,106.09" fill="currentColor" stroke="currentColor" stroke-width="1.2" stroke-linecap="round" stroke-linejoin="round" />
  <path d="M87.17,106.09 C86.97,106.40 86.82,106.77 86.72,107.20" fill="currentColor" stroke="currentColor" stroke-width="1.2" stroke-linecap="round" stroke-linejoin="round" />
  <path d="M87.69,107.25 C87.79,106.87 87.93,106.58 88.11,106.37" fill="currentColor" stroke="currentColor" stroke-width="1.2" stroke-linecap="round" stroke-linejoin="round" />
  <path d="M89.42,106.37 C89.60,106.58 89.74,106.87 89.83,107.25" fill="currentColor" stroke="currentColor" stroke-width="1.2" stroke-linecap="round" stroke-linejoin="round" />
  <line x1="110.15" y1="106.19" x2="108.87" y2="107.85" fill="currentColor" stroke="currentColor" stroke-width="1.2" stroke-linecap="round" stroke-linejoin="round" />
  <line x1="108.87" y1="107.85" x2="108.08" y2="106.19" fill="currentColor" stroke="currentColor" stroke-width="1.2" stroke-linecap="round" stroke-linejoin="round" />
  <line x1="82.22" y1="107.88" x2="83.52" y2="106.81" fill="currentColor" stroke="currentColor" stroke-width="1.2" stroke-linecap="round" stroke-linejoin="round" />
  <line x1="107.08" y1="106.19" x2="108.25" y2="108.51" fill="currentColor" stroke="currentColor" stroke-width="1.2" stroke-linecap="round" stroke-linejoin="round" />
  <line x1="109.32" y1="108.63" x2="111.31" y2="106.19" fill="currentColor" stroke="currentColor" stroke-width="1.2" stroke-linecap="round" stroke-linejoin="round" />
  <line x1="81.84" y1="107.03" x2="82.22" y2="107.88" fill="currentColor" stroke="currentColor" stroke-width="1.2" stroke-linecap="round" stroke-linejoin="round" />
  <path d="M90.96,108.63 C90.96,108.11 90.91,107.63 90.80,107.20" fill="currentColor" stroke="currentColor" stroke-width="1.2" stroke-linecap="round" stroke-linejoin="round" />
  <path d="M86.72,107.20 C86.62,107.63 86.56,108.11 86.56,108.63" fill="currentColor" stroke="currentColor" stroke-width="1.2" stroke-linecap="round" stroke-linejoin="round" />
  <path d="M87.54,108.63 C87.54,108.10 87.59,107.64 87.69,107.25" fill="currentColor" stroke="currentColor" stroke-width="1.2" stroke-linecap="round" stroke-linejoin="round" />
  <path d="M89.83,107.25 C89.93,107.64 89.98,108.10 89.98,108.63" fill="currentColor" stroke="currentColor" stroke-width="1.2" stroke-linecap="round" stroke-linejoin="round" />
  <line x1="84.54" y1="112.04" x2="84.54" y2="105.13" fill="currentColor" stroke="currentColor" stroke-width="1.2" stroke-linecap="round" stroke-linejoin="round" />
  <path d="M89.98,108.63 C89.98,109.17 89.93,109.63 89.83,110.01" fill="currentColor" stroke="currentColor" stroke-width="1.2" stroke-linecap="round" stroke-linejoin="round" />
  <path d="M87.69,110.01 C87.59,109.63 87.54,109.17 87.54,108.63" fill="currentColor" stroke="currentColor" stroke-width="1.2" stroke-linecap="round" stroke-linejoin="round" />
  <path d="M86.56,108.63 C86.56,109.16 86.62,109.64 86.72,110.06" fill="currentColor" stroke="currentColor" stroke-width="1.2" stroke-linecap="round" stroke-linejoin="round" />
  <path d="M90.80,110.06 C90.91,109.64 90.96,109.16 90.96,108.63" fill="currentColor" stroke="currentColor" stroke-width="1.2" stroke-linecap="round" stroke-linejoin="round" />
  <line x1="83.52" y1="106.81" x2="83.52" y2="112.04" fill="currentColor" stroke="currentColor" stroke-width="1.2" stroke-linecap="round" stroke-linejoin="round" />
  <line x1="108.25" y1="108.51" x2="106.09" y2="111.13" fill="currentColor" stroke="currentColor" stroke-width="1.2" stroke-linecap="round" stroke-linejoin="round" />
  <line x1="110.57" y1="111.13" x2="109.32" y2="108.63" fill="currentColor" stroke="currentColor" stroke-width="1.2" stroke-linecap="round" stroke-linejoin="round" />
  <line x1="107.24" y1="111.13" x2="108.67" y2="109.28" fill="currentColor" stroke="currentColor" stroke-width="1.2" stroke-linecap="round" stroke-linejoin="round" />
  <line x1="108.67" y1="109.28" x2="109.57" y2="111.13" fill="currentColor" stroke="currentColor" stroke-width="1.2" stroke-linecap="round" stroke-linejoin="round" />
  <path d="M89.83,110.01 C89.74,110.39 89.60,110.69 89.42,110.89" fill="currentColor" stroke="currentColor" stroke-width="1.2" stroke-linecap="round" stroke-linejoin="round" />
  <path d="M88.11,110.89 C87.93,110.69 87.79,110.39 87.69,110.01" fill="currentColor" stroke="currentColor" stroke-width="1.2" stroke-linecap="round" stroke-linejoin="round" />
  <path d="M86.72,110.06 C86.82,110.49 86.97,110.86 87.17,111.17" fill="currentColor" stroke="currentColor" stroke-width="1.2" stroke-linecap="round" stroke-linejoin="round" />
  <path d="M90.36,111.17 C90.55,110.86 90.70,110.49 90.80,110.06" fill="currentColor" stroke="currentColor" stroke-width="1.2" stroke-linecap="round" stroke-linejoin="round" />
  <path d="M89.42,110.89 C89.23,111.10 89.01,111.20 88.76,111.20" fill="currentColor" stroke="currentColor" stroke-width="1.2" stroke-linecap="round" stroke-linejoin="round" />
  <path d="M88.76,111.20 C88.51,111.20 88.29,111.10 88.11,110.89" fill="currentColor" stroke="currentColor" stroke-width="1.2" stroke-linecap="round" stroke-linejoin="round" />
  <line x1="106.09" y1="111.13" x2="107.24" y2="111.13" fill="currentColor" stroke="currentColor" stroke-width="1.2" stroke-linecap="round" stroke-linejoin="round" />
  <line x1="109.57" y1="111.13" x2="110.57" y2="111.13" fill="currentColor" stroke="currentColor" stroke-width="1.2" stroke-linecap="round" stroke-linejoin="round" />
  <path d="M87.17,111.17 C87.36,111.48 87.59,111.71 87.86,111.88" fill="currentColor" stroke="currentColor" stroke-width="1.2" stroke-linecap="round" stroke-linejoin="round" />
  <path d="M89.66,111.88 C89.93,111.71 90.16,111.48 90.36,111.17" fill="currentColor" stroke="currentColor" stroke-width="1.2" stroke-linecap="round" stroke-linejoin="round" />
  <path d="M87.86,111.88 C88.13,112.05 88.43,112.13 88.76,112.13" fill="currentColor" stroke="currentColor" stroke-width="1.2" stroke-linecap="round" stroke-linejoin="round" />
  <path d="M88.76,112.13 C89.09,112.13 89.39,112.05 89.66,111.88" fill="currentColor" stroke="currentColor" stroke-width="1.2" stroke-linecap="round" stroke-linejoin="round" />
  <line x1="83.52" y1="112.04" x2="84.54" y2="112.04" fill="currentColor" stroke="currentColor" stroke-width="1.2" stroke-linecap="round" stroke-linejoin="round" />
  <line x1="14.44" y1="113.39" x2="101.83" y2="113.39" fill="none" stroke="currentColor" stroke-width="1.0" stroke-linecap="round" stroke-linejoin="round" />
</svg>