<svg xmlns="http://www.w3.org/2000/svg" viewBox="0 0 167.93 157.60" preserveAspectRatio="xMidYMid meet" shape-rendering="geometricPrecision" text-rendering="optimizeLegibility">
  <line x1="88.94" y1="149.60" x2="88.04" y2="8.00" fill="none" stroke="currentColor" stroke-width="1.2" stroke-linecap="round" stroke-linejoin="round" />
  <path d="M12.69,31.90 C12.26,31.75 11.76,31.68 11.21,31.68" fill="currentColor" stroke="currentColor" stroke-width="1.2" stroke-linecap="round" stroke-linejoin="round" />
  <line x1="11.21" y1="31.68" x2="8.29" y2="31.68" fill="currentColor" stroke="currentColor" stroke-width="1.2" stroke-linecap="round" stroke-linejoin="round" />
  <line x1="8.29" y1="31.68" x2="8.29" y2="39.18" fill="currentColor" stroke="currentColor" stroke-width="1.2" stroke-linecap="round" stroke-linejoin="round" />
  <path d="M13.81,32.49 C13.50,32.24 13.12,32.04 12.69,31.90" fill="currentColor" stroke="currentColor" stroke-width="1.2" stroke-linecap="round" stroke-linejoin="round" />
  <path d="M14.60,33.34 C14.39,33.02 14.13,32.74 13.81,32.49" fill="currentColor" stroke="currentColor" stroke-width="1.2" stroke-linecap="round" stroke-linejoin="round" />
  <line x1="9.37" y1="32.64" x2="11.03" y2="32.64" fill="currentColor" stroke="currentColor" stroke-width="1.2" stroke-linecap="round" stroke-linejoin="round" />
  <path d="M11.03,32.64 C11.56,32.65 12.01,32.72 12.40,32.87" fill="currentColor" stroke="currentColor" stroke-width="1.2" stroke-linecap="round" stroke-linejoin="round" />
  <line x1="9.37" y1="38.21" x2="9.37" y2="32.64" fill="currentColor" stroke="currentColor" stroke-width="1.2" stroke-linecap="round" stroke-linejoin="round" />
  <path d="M12.40,32.87 C12.78,33.01 13.10,33.21 13.35,33.47" fill="currentColor" stroke="currentColor" stroke-width="1.2" stroke-linecap="round" stroke-linejoin="round" />
  <path d="M15.05,34.36 C14.95,34.00 14.80,33.66 14.60,33.34" fill="currentColor" stroke="currentColor" stroke-width="1.2" stroke-linecap="round" stroke-linejoin="round" />
  <path d="M13.35,33.47 C13.60,33.73 13.79,34.02 13.91,34.36" fill="currentColor" stroke="currentColor" stroke-width="1.2" stroke-linecap="round" stroke-linejoin="round" />
  <path d="M13.91,34.36 C14.03,34.69 14.09,35.05 14.09,35.43" fill="currentColor" stroke="currentColor" stroke-width="1.2" stroke-linecap="round" stroke-linejoin="round" />
  <path d="M15.20,35.43 C15.20,35.07 15.15,34.71 15.05,34.36" fill="currentColor" stroke="currentColor" stroke-width="1.2" stroke-linecap="round" stroke-linejoin="round" />
  <path d="M15.03,36.56 C15.14,36.19 15.20,35.81 15.20,35.43" fill="currentColor" stroke="currentColor" stroke-width="1.2" stroke-linecap="round" stroke-linejoin="round" />
  <path d="M14.09,35.43 C14.09,35.61 14.07,35.83 14.01,36.07" fill="currentColor" stroke="currentColor" stroke-width="1.2" stroke-linecap="round" stroke-linejoin="round" />
  <path d="M14.01,36.07 C13.96,36.31 13.87,36.56 13.74,36.81" fill="currentColor" stroke="currentColor" stroke-width="1.2" stroke-linecap="round" stroke-linejoin="round" />
  <path d="M14.51,37.58 C14.74,37.26 14.91,36.92 15.03,36.56" fill="currentColor" stroke="currentColor" stroke-width="1.2" stroke-linecap="round" stroke-linejoin="round" />
  <line x1="18.10" y1="36.67" x2="159.93" y2="77.31" fill="none" stroke="currentColor" stroke-width="1.2" stroke-linecap="round" stroke-linejoin="round" />
  <path d="M13.74,36.81 C13.61,37.05 13.43,37.28 13.20,37.50" fill="currentColor" stroke="currentColor" stroke-width="1.2" stroke-linecap="round" stroke-linejoin="round" />
  <path d="M13.20,37.50 C12.97,37.71 12.68,37.88 12.34,38.01" fill="currentColor" stroke="currentColor" stroke-width="1.2" stroke-linecap="round" stroke-linejoin="round" />
  <path d="M13.69,38.41 C14.01,38.17 14.29,37.89 14.51,37.58" fill="currentColor" stroke="currentColor" stroke-width="1.2" stroke-linecap="round" stroke-linejoin="round" />
  <path d="M12.34,38.01 C11.99,38.14 11.57,38.21 11.09,38.21" fill="currentColor" stroke="currentColor" stroke-width="1.2" stroke-linecap="round" stroke-linejoin="round" />
  <line x1="11.09" y1="38.21" x2="9.37" y2="38.21" fill="currentColor" stroke="currentColor" stroke-width="1.2" stroke-linecap="round" stroke-linejoin="round" />
  <path d="M12.58,38.97 C13.00,38.84 13.37,38.65 13.69,38.41" fill="currentColor" stroke="currentColor" stroke-width="1.2" stroke-linecap="round" stroke-linejoin="round" />
  <path d="M11.22,39.18 C11.72,39.17 12.17,39.11 12.58,38.97" fill="currentColor" stroke="currentColor" stroke-width="1.2" stroke-linecap="round" stroke-linejoin="round" />
  <line x1="8.29" y1="39.18" x2="11.22" y2="39.18" fill="currentColor" stroke="currentColor" stroke-width="1.2" stroke-linecap="round" stroke-linejoin="round" />
  <path d="M98.95,59.91 C98.46,61.75 97.46,63.48 95.96,64.86" fill="none" stroke="currentColor" stroke-width="1.0" stroke-linecap="round" stroke-linejoin="round" />
  <path d="M95.96,64.86 C93.90,66.77 91.27,67.68 88.66,67.62" fill="none" stroke="currentColor" stroke-width="1.0" stroke-linecap="round" stroke-linejoin="round" />
  <path d="M106.75,65.20 C106.49,65.20 106.27,65.26 106.06,65.38" fill="currentColor" stroke="currentColor" stroke-width="1.2" stroke-linecap="round" stroke-linejoin="round" />
  <path d="M107.43,65.38 C107.23,65.26 107.00,65.20 106.75,65.20" fill="currentColor" stroke="currentColor" stroke-width="1.2" stroke-linecap="round" stroke-linejoin="round" />
  <path d="M106.06,65.38 C105.86,65.50 105.70,65.66 105.58,65.86" fill="currentColor" stroke="currentColor" stroke-width="1.2" stroke-linecap="round" stroke-linejoin="round" />
  <path d="M107.91,65.86 C107.79,65.66 107.63,65.50 107.43,65.38" fill="currentColor" stroke="currentColor" stroke-width="1.2" stroke-linecap="round" stroke-linejoin="round" />
  <path d="M103.18,65.82 C102.91,65.65 102.61,65.57 102.28,65.57" fill="currentColor" stroke="currentColor" stroke-width="1.2" stroke-linecap="round" stroke-linejoin="round" />
  <path d="M102.28,65.57 C101.95,65.57 101.64,65.65 101.38,65.82" fill="currentColor" stroke="currentColor" stroke-width="1.2" stroke-linecap="round" stroke-linejoin="round" />
  <line x1="98.76" y1="65.57" x2="98.34" y2="65.57" fill="currentColor" stroke="currentColor" stroke-width="1.2" stroke-linecap="round" stroke-linejoin="round" />
  <line x1="98.34" y1="65.57" x2="94.89" y2="69.79" fill="currentColor" stroke="currentColor" stroke-width="1.2" stroke-linecap="round" stroke-linejoin="round" />
  <line x1="98.76" y1="69.36" x2="98.76" y2="65.57" fill="currentColor" stroke="currentColor" stroke-width="1.2" stroke-linecap="round" stroke-linejoin="round" />
  <path d="M106.75,65.73 C106.90,65.73 107.04,65.77 107.17,65.84" fill="currentColor" stroke="currentColor" stroke-width="1.2" stroke-linecap="round" stroke-linejoin="round" />
  <path d="M106.33,65.84 C106.45,65.77 106.59,65.73 106.75,65.73" fill="currentColor" stroke="currentColor" stroke-width="1.2" stroke-linecap="round" stroke-linejoin="round" />
  <path d="M103.87,66.53 C103.68,66.22 103.45,65.99 103.18,65.82" fill="currentColor" stroke="currentColor" stroke-width="1.2" stroke-linecap="round" stroke-linejoin="round" />
  <path d="M101.38,65.82 C101.11,65.99 100.87,66.22 100.68,66.53" fill="currentColor" stroke="currentColor" stroke-width="1.2" stroke-linecap="round" stroke-linejoin="round" />
  <path d="M107.17,65.84 C107.29,65.91 107.39,66.01 107.46,66.13" fill="currentColor" stroke="currentColor" stroke-width="1.2" stroke-linecap="round" stroke-linejoin="round" />
  <path d="M106.04,66.13 C106.11,66.01 106.21,65.91 106.33,65.84" fill="currentColor" stroke="currentColor" stroke-width="1.2" stroke-linecap="round" stroke-linejoin="round" />
  <path d="M105.58,65.86 C105.46,66.07 105.40,66.29 105.40,66.55" fill="currentColor" stroke="currentColor" stroke-width="1.2" stroke-linecap="round" stroke-linejoin="round" />
  <path d="M108.10,66.55 C108.09,66.29 108.03,66.07 107.91,65.86" fill="currentColor" stroke="currentColor" stroke-width="1.2" stroke-linecap="round" stroke-linejoin="round" />
  <path d="M107.46,66.13 C107.54,66.25 107.58,66.39 107.58,66.55" fill="currentColor" stroke="currentColor" stroke-width="1.2" stroke-linecap="round" stroke-linejoin="round" />
  <path d="M105.93,66.55 C105.93,66.39 105.96,66.25 106.04,66.13" fill="currentColor" stroke="currentColor" stroke-width="1.2" stroke-linecap="round" stroke-linejoin="round" />
  <path d="M101.62,66.81 C101.80,66.60 102.02,66.50 102.28,66.50" fill="currentColor" stroke="currentColor" stroke-width="1.2" stroke-linecap="round" stroke-linejoin="round" />
  <path d="M102.28,66.50 C102.53,66.50 102.75,66.60 102.93,66.81" fill="currentColor" stroke="currentColor" stroke-width="1.2" stroke-linecap="round" stroke-linejoin="round" />
  <path d="M104.32,67.64 C104.21,67.21 104.07,66.84 103.87,66.53" fill="currentColor" stroke="currentColor" stroke-width="1.2" stroke-linecap="round" stroke-linejoin="round" />
  <path d="M100.68,66.53 C100.49,66.84 100.34,67.21 100.23,67.64" fill="currentColor" stroke="currentColor" stroke-width="1.2" stroke-linecap="round" stroke-linejoin="round" />
  <path d="M107.58,66.55 C107.58,66.70 107.54,66.84 107.46,66.97" fill="currentColor" stroke="currentColor" stroke-width="1.2" stroke-linecap="round" stroke-linejoin="round" />
  <path d="M106.04,66.97 C105.96,66.84 105.93,66.70 105.93,66.55" fill="currentColor" stroke="currentColor" stroke-width="1.2" stroke-linecap="round" stroke-linejoin="round" />
  <path d="M105.40,66.55 C105.40,66.80 105.46,67.03 105.58,67.23" fill="currentColor" stroke="currentColor" stroke-width="1.2" stroke-linecap="round" stroke-linejoin="round" />
  <path d="M107.91,67.23 C108.03,67.03 108.09,66.80 108.10,66.55" fill="currentColor" stroke="currentColor" stroke-width="1.2" stroke-linecap="round" stroke-linejoin="round" />
  <path d="M101.20,67.69 C101.30,67.31 101.44,67.01 101.62,66.81" fill="currentColor" stroke="currentColor" stroke-width="1.2" stroke-linecap="round" stroke-linejoin="round" />
  <path d="M102.93,66.81 C103.11,67.01 103.25,67.31 103.35,67.69" fill="currentColor" stroke="currentColor" stroke-width="1.2" stroke-linecap="round" stroke-linejoin="round" />
  <path d="M107.46,66.97 C107.39,67.09 107.29,67.19 107.17,67.26" fill="currentColor" stroke="currentColor" stroke-width="1.2" stroke-linecap="round" stroke-linejoin="round" />
  <path d="M106.33,67.26 C106.21,67.19 106.11,67.09 106.04,66.97" fill="currentColor" stroke="currentColor" stroke-width="1.2" stroke-linecap="round" stroke-linejoin="round" />
  <path d="M105.58,67.23 C105.70,67.43 105.86,67.59 106.06,67.71" fill="currentColor" stroke="currentColor" stroke-width="1.2" stroke-linecap="round" stroke-linejoin="round" />
  <path d="M107.43,67.71 C107.63,67.59 107.79,67.43 107.91,67.23" fill="currentColor" stroke="currentColor" stroke-width="1.2" stroke-linecap="round" stroke-linejoin="round" />
  <path d="M107.17,67.26 C107.04,67.34 106.90,67.38 106.75,67.38" fill="currentColor" stroke="currentColor" stroke-width="1.2" stroke-linecap="round" stroke-linejoin="round" />
  <path d="M106.75,67.38 C106.59,67.38 106.45,67.34 106.33,67.26" fill="currentColor" stroke="currentColor" stroke-width="1.2" stroke-linecap="round" stroke-linejoin="round" />
  <line x1="97.76" y1="67.42" x2="97.78" y2="67.42" fill="currentColor" stroke="currentColor" stroke-width="1.2" stroke-linecap="round" stroke-linejoin="round" />
  <line x1="97.78" y1="67.42" x2="97.78" y2="69.36" fill="currentColor" stroke="currentColor" stroke-width="1.2" stroke-linecap="round" stroke-linejoin="round" />
  <line x1="96.20" y1="69.36" x2="97.76" y2="67.42" fill="currentColor" stroke="currentColor" stroke-width="1.2" stroke-linecap="round" stroke-linejoin="round" />
  <path d="M104.48,69.07 C104.47,68.54 104.42,68.06 104.32,67.64" fill="currentColor" stroke="currentColor" stroke-width="1.2" stroke-linecap="round" stroke-linejoin="round" />
  <path d="M100.23,67.64 C100.13,68.06 100.08,68.54 100.08,69.07" fill="currentColor" stroke="currentColor" stroke-width="1.2" stroke-linecap="round" stroke-linejoin="round" />
  <path d="M101.06,69.07 C101.06,68.53 101.11,68.07 101.20,67.69" fill="currentColor" stroke="currentColor" stroke-width="1.2" stroke-linecap="round" stroke-linejoin="round" />
  <path d="M103.35,67.69 C103.45,68.07 103.50,68.53 103.50,69.07" fill="currentColor" stroke="currentColor" stroke-width="1.2" stroke-linecap="round" stroke-linejoin="round" />
  <path d="M106.06,67.71 C106.27,67.83 106.49,67.89 106.75,67.90" fill="currentColor" stroke="currentColor" stroke-width="1.2" stroke-linecap="round" stroke-linejoin="round" />
  <path d="M106.75,67.90 C107.00,67.89 107.23,67.83 107.43,67.71" fill="currentColor" stroke="currentColor" stroke-width="1.2" stroke-linecap="round" stroke-linejoin="round" />
  <path d="M100.08,69.07 C100.08,69.59 100.13,70.07 100.23,70.50" fill="currentColor" stroke="currentColor" stroke-width="1.2" stroke-linecap="round" stroke-linejoin="round" />
  <path d="M104.32,70.50 C104.42,70.07 104.47,69.59 104.48,69.07" fill="currentColor" stroke="currentColor" stroke-width="1.2" stroke-linecap="round" stroke-linejoin="round" />
  <path d="M103.50,69.07 C103.50,69.60 103.45,70.06 103.35,70.45" fill="currentColor" stroke="currentColor" stroke-width="1.2" stroke-linecap="round" stroke-linejoin="round" />
  <path d="M101.20,70.45 C101.11,70.06 101.06,69.60 101.06,69.07" fill="currentColor" stroke="currentColor" stroke-width="1.2" stroke-linecap="round" stroke-linejoin="round" />
  <line x1="99.49" y1="70.24" x2="99.49" y2="69.36" fill="currentColor" stroke="currentColor" stroke-width="1.2" stroke-linecap="round" stroke-linejoin="round" />
  <line x1="99.49" y1="69.36" x2="98.76" y2="69.36" fill="currentColor" stroke="currentColor" stroke-width="1.2" stroke-linecap="round" stroke-linejoin="round" />
  <line x1="97.78" y1="69.36" x2="96.20" y2="69.36" fill="currentColor" stroke="currentColor" stroke-width="1.2" stroke-linecap="round" stroke-linejoin="round" />
  <line x1="94.89" y1="69.79" x2="94.89" y2="70.24" fill="currentColor" stroke="currentColor" stroke-width="1.2" stroke-linecap="round" stroke-linejoin="round" />
  <line x1="94.89" y1="70.24" x2="97.78" y2="70.24" fill="currentColor" stroke="currentColor" stroke-width="1.2" stroke-linecap="round" stroke-linejoin="round" />
  <line x1="97.78" y1="70.24" x2="97.78" y2="72.48" fill="currentColor" stroke="currentColor" stroke-width="1.2" stroke-linecap="round" stroke-linejoin="round" />
  <line x1="98.76" y1="72.48" x2="98.76" y2="70.24" fill="currentColor" stroke="currentColor" stroke-width="1.2" stroke-linecap="round" stroke-linejoin="round" />
  <line x1="98.76" y1="70.24" x2="99.49" y2="70.24" fill="currentColor" stroke="currentColor" stroke-width="1.2" stroke-linecap="round" stroke-linejoin="round" />
  <path d="M103.35,70.45 C103.25,70.83 103.11,71.12 102.93,71.33" fill="currentColor" stroke="currentColor" stroke-width="1.2" stroke-linecap="round" stroke-linejoin="round" />
  <path d="M101.62,71.33 C101.44,71.12 101.30,70.83 101.20,70.45" fill="currentColor" stroke="currentColor" stroke-width="1.2" stroke-linecap="round" stroke-linejoin="round" />
  <path d="M100.23,70.50 C100.34,70.93 100.49,71.30 100.68,71.61" fill="currentColor" stroke="currentColor" stroke-width="1.2" stroke-linecap="round" stroke-linejoin="round" />
  <path d="M103.87,71.61 C104.07,71.30 104.21,70.93 104.32,70.50" fill="currentColor" stroke="currentColor" stroke-width="1.2" stroke-linecap="round" stroke-linejoin="round" />
  <path d="M102.93,71.33 C102.75,71.53 102.53,71.64 102.28,71.64" fill="currentColor" stroke="currentColor" stroke-width="1.2" stroke-linecap="round" stroke-linejoin="round" />
  <path d="M102.28,71.64 C102.02,71.64 101.80,71.53 101.62,71.33" fill="currentColor" stroke="currentColor" stroke-width="1.2" stroke-linecap="round" stroke-linejoin="round" />
  <path d="M100.68,71.61 C100.87,71.91 101.11,72.15 101.38,72.32" fill="currentColor" stroke="currentColor" stroke-width="1.2" stroke-linecap="round" stroke-linejoin="round" />
  <path d="M103.18,72.32 C103.45,72.15 103.68,71.91 103.87,71.61" fill="currentColor" stroke="currentColor" stroke-width="1.2" stroke-linecap="round" stroke-linejoin="round" />
  <path d="M101.38,72.32 C101.64,72.48 101.95,72.57 102.28,72.57" fill="currentColor" stroke="currentColor" stroke-width="1.2" stroke-linecap="round" stroke-linejoin="round" />
  <path d="M102.28,72.57 C102.61,72.57 102.91,72.48 103.18,72.32" fill="currentColor" stroke="currentColor" stroke-width="1.2" stroke-linecap="round" stroke-linejoin="round" />
  <line x1="97.78" y1="72.48" x2="98.76" y2="72.48" fill="currentColor" stroke="currentColor" stroke-width="1.2" stroke-linecap="round" stroke-linejoin="round" />
  <line x1="11.98" y1="73.16" x2="11.22" y2="73.16" fill="currentColor" stroke="currentColor" stroke-width="1.2" stroke-linecap="round" stroke-linejoin="round" />
  <line x1="11.22" y1="73.16" x2="8.00" y2="80.70" fill="currentColor" stroke="currentColor" stroke-width="1.2" stroke-linecap="round" stroke-linejoin="round" />
  <line x1="15.34" y1="80.70" x2="11.98" y2="73.16" fill="currentColor" stroke="currentColor" stroke-width="1.2" stroke-linecap="round" stroke-linejoin="round" />
  <line x1="11.59" y1="74.81" x2="12.80" y2="77.52" fill="currentColor" stroke="currentColor" stroke-width="1.2" stroke-linecap="round" stroke-linejoin="round" />
  <line x1="10.46" y1="77.52" x2="11.59" y2="74.81" fill="currentColor" stroke="currentColor" stroke-width="1.2" stroke-linecap="round" stroke-linejoin="round" />
  <line x1="12.80" y1="77.52" x2="10.46" y2="77.52" fill="currentColor" stroke="currentColor" stroke-width="1.2" stroke-linecap="round" stroke-linejoin="round" />
  <path d="M83.53,83.02 C82.04,81.52 81.29,79.57 81.26,77.62" fill="none" stroke="currentColor" stroke-width="1.0" stroke-linecap="round" stroke-linejoin="round" />
  <path d="M45.90,77.62 C45.93,80.24 45.58,82.89 44.81,85.51" fill="none" stroke="currentColor" stroke-width="1.0" stroke-linecap="round" stroke-linejoin="round" />
  <line x1="17.94" y1="77.67" x2="159.67" y2="77.67" fill="none" stroke="currentColor" stroke-width="1.2" stroke-linecap="round" stroke-linejoin="round" />
  <line x1="17.90" y1="77.84" x2="159.72" y2="118.48" fill="none" stroke="currentColor" stroke-width="1.2" stroke-linecap="round" stroke-linejoin="round" />
  <line x1="9.10" y1="80.70" x2="10.05" y2="78.49" fill="currentColor" stroke="currentColor" stroke-width="1.2" stroke-linecap="round" stroke-linejoin="round" />
  <line x1="10.05" y1="78.49" x2="13.24" y2="78.49" fill="currentColor" stroke="currentColor" stroke-width="1.2" stroke-linecap="round" stroke-linejoin="round" />
  <line x1="13.24" y1="78.49" x2="14.24" y2="80.70" fill="currentColor" stroke="currentColor" stroke-width="1.2" stroke-linecap="round" stroke-linejoin="round" />
  <path d="M64.71,79.21 C64.46,79.21 64.23,79.27 64.03,79.39" fill="currentColor" stroke="currentColor" stroke-width="1.2" stroke-linecap="round" stroke-linejoin="round" />
  <path d="M65.40,79.39 C65.20,79.27 64.97,79.21 64.71,79.21" fill="currentColor" stroke="currentColor" stroke-width="1.2" stroke-linecap="round" stroke-linejoin="round" />
  <path d="M64.03,79.39 C63.83,79.51 63.67,79.67 63.55,79.88" fill="currentColor" stroke="currentColor" stroke-width="1.2" stroke-linecap="round" stroke-linejoin="round" />
  <path d="M65.88,79.88 C65.76,79.67 65.60,79.51 65.40,79.39" fill="currentColor" stroke="currentColor" stroke-width="1.2" stroke-linecap="round" stroke-linejoin="round" />
  <path d="M55.93,79.80 C55.63,79.66 55.27,79.58 54.86,79.58" fill="currentColor" stroke="currentColor" stroke-width="1.2" stroke-linecap="round" stroke-linejoin="round" />
  <path d="M54.86,79.58 C54.61,79.58 54.38,79.60 54.17,79.65" fill="currentColor" stroke="currentColor" stroke-width="1.2" stroke-linecap="round" stroke-linejoin="round" />
  <path d="M61.15,79.83 C60.88,79.67 60.58,79.58 60.24,79.58" fill="currentColor" stroke="currentColor" stroke-width="1.2" stroke-linecap="round" stroke-linejoin="round" />
  <path d="M60.24,79.58 C59.91,79.58 59.61,79.67 59.34,79.83" fill="currentColor" stroke="currentColor" stroke-width="1.2" stroke-linecap="round" stroke-linejoin="round" />
  <path d="M54.17,79.65 C53.96,79.70 53.76,79.77 53.55,79.87" fill="currentColor" stroke="currentColor" stroke-width="1.2" stroke-linecap="round" stroke-linejoin="round" />
  <path d="M64.71,79.74 C64.87,79.74 65.01,79.78 65.13,79.85" fill="currentColor" stroke="currentColor" stroke-width="1.2" stroke-linecap="round" stroke-linejoin="round" />
  <path d="M64.30,79.85 C64.42,79.78 64.56,79.74 64.71,79.74" fill="currentColor" stroke="currentColor" stroke-width="1.2" stroke-linecap="round" stroke-linejoin="round" />
  <path d="M56.62,80.42 C56.46,80.15 56.23,79.95 55.93,79.80" fill="currentColor" stroke="currentColor" stroke-width="1.2" stroke-linecap="round" stroke-linejoin="round" />
  <path d="M61.84,80.54 C61.65,80.24 61.41,80.00 61.15,79.83" fill="currentColor" stroke="currentColor" stroke-width="1.2" stroke-linecap="round" stroke-linejoin="round" />
  <path d="M59.34,79.83 C59.07,80.00 58.84,80.24 58.65,80.54" fill="currentColor" stroke="currentColor" stroke-width="1.2" stroke-linecap="round" stroke-linejoin="round" />
  <path d="M65.13,79.85 C65.26,79.92 65.36,80.02 65.43,80.14" fill="currentColor" stroke="currentColor" stroke-width="1.2" stroke-linecap="round" stroke-linejoin="round" />
  <path d="M64.00,80.14 C64.08,80.02 64.17,79.92 64.30,79.85" fill="currentColor" stroke="currentColor" stroke-width="1.2" stroke-linecap="round" stroke-linejoin="round" />
  <line x1="53.55" y1="79.87" x2="53.55" y2="80.80" fill="currentColor" stroke="currentColor" stroke-width="1.2" stroke-linecap="round" stroke-linejoin="round" />
  <path d="M63.55,79.88 C63.43,80.08 63.37,80.31 63.36,80.56" fill="currentColor" stroke="currentColor" stroke-width="1.2" stroke-linecap="round" stroke-linejoin="round" />
  <path d="M66.06,80.56 C66.06,80.31 66.00,80.08 65.88,79.88" fill="currentColor" stroke="currentColor" stroke-width="1.2" stroke-linecap="round" stroke-linejoin="round" />
  <path d="M65.43,80.14 C65.51,80.27 65.54,80.41 65.54,80.56" fill="currentColor" stroke="currentColor" stroke-width="1.2" stroke-linecap="round" stroke-linejoin="round" />
  <path d="M63.89,80.56 C63.90,80.41 63.93,80.27 64.00,80.14" fill="currentColor" stroke="currentColor" stroke-width="1.2" stroke-linecap="round" stroke-linejoin="round" />
  <path d="M56.87,81.36 C56.87,81.00 56.79,80.69 56.62,80.42" fill="currentColor" stroke="currentColor" stroke-width="1.2" stroke-linecap="round" stroke-linejoin="round" />
  <path d="M54.35,80.54 C54.47,80.52 54.59,80.51 54.71,80.51" fill="currentColor" stroke="currentColor" stroke-width="1.2" stroke-linecap="round" stroke-linejoin="round" />
  <path d="M54.71,80.51 C54.96,80.51 55.16,80.55 55.34,80.64" fill="currentColor" stroke="currentColor" stroke-width="1.2" stroke-linecap="round" stroke-linejoin="round" />
  <path d="M59.59,80.82 C59.77,80.62 59.99,80.51 60.24,80.51" fill="currentColor" stroke="currentColor" stroke-width="1.2" stroke-linecap="round" stroke-linejoin="round" />
  <path d="M60.24,80.51 C60.50,80.51 60.72,80.62 60.90,80.82" fill="currentColor" stroke="currentColor" stroke-width="1.2" stroke-linecap="round" stroke-linejoin="round" />
  <path d="M53.98,80.63 C54.11,80.59 54.23,80.56 54.35,80.54" fill="currentColor" stroke="currentColor" stroke-width="1.2" stroke-linecap="round" stroke-linejoin="round" />
  <path d="M62.29,81.65 C62.18,81.22 62.03,80.85 61.84,80.54" fill="currentColor" stroke="currentColor" stroke-width="1.2" stroke-linecap="round" stroke-linejoin="round" />
  <path d="M58.65,80.54 C58.46,80.85 58.31,81.22 58.20,81.65" fill="currentColor" stroke="currentColor" stroke-width="1.2" stroke-linecap="round" stroke-linejoin="round" />
  <path d="M65.54,80.56 C65.54,80.72 65.51,80.86 65.43,80.98" fill="currentColor" stroke="currentColor" stroke-width="1.2" stroke-linecap="round" stroke-linejoin="round" />
  <path d="M64.00,80.98 C63.93,80.86 63.90,80.72 63.89,80.56" fill="currentColor" stroke="currentColor" stroke-width="1.2" stroke-linecap="round" stroke-linejoin="round" />
  <path d="M63.36,80.56 C63.37,80.81 63.43,81.04 63.55,81.24" fill="currentColor" stroke="currentColor" stroke-width="1.2" stroke-linecap="round" stroke-linejoin="round" />
  <path d="M65.88,81.24 C66.00,81.04 66.06,80.81 66.06,80.56" fill="currentColor" stroke="currentColor" stroke-width="1.2" stroke-linecap="round" stroke-linejoin="round" />
  <path d="M53.55,80.80 C53.71,80.73 53.85,80.68 53.98,80.63" fill="currentColor" stroke="currentColor" stroke-width="1.2" stroke-linecap="round" stroke-linejoin="round" />
  <path d="M55.34,80.64 C55.52,80.72 55.65,80.83 55.75,80.99" fill="currentColor" stroke="currentColor" stroke-width="1.2" stroke-linecap="round" stroke-linejoin="round" />
  <line x1="8.00" y1="80.70" x2="9.10" y2="80.70" fill="currentColor" stroke="currentColor" stroke-width="1.2" stroke-linecap="round" stroke-linejoin="round" />
  <line x1="14.24" y1="80.70" x2="15.34" y2="80.70" fill="currentColor" stroke="currentColor" stroke-width="1.2" stroke-linecap="round" stroke-linejoin="round" />
  <path d="M59.17,81.70 C59.27,81.32 59.41,81.03 59.59,80.82" fill="currentColor" stroke="currentColor" stroke-width="1.2" stroke-linecap="round" stroke-linejoin="round" />
  <path d="M60.90,80.82 C61.08,81.03 61.22,81.32 61.32,81.70" fill="currentColor" stroke="currentColor" stroke-width="1.2" stroke-linecap="round" stroke-linejoin="round" />
  <path d="M65.43,80.98 C65.36,81.10 65.26,81.20 65.13,81.28" fill="currentColor" stroke="currentColor" stroke-width="1.2" stroke-linecap="round" stroke-linejoin="round" />
  <path d="M64.30,81.28 C64.17,81.20 64.08,81.10 64.00,80.98" fill="currentColor" stroke="currentColor" stroke-width="1.2" stroke-linecap="round" stroke-linejoin="round" />
  <path d="M55.75,80.99 C55.84,81.14 55.89,81.32 55.89,81.53" fill="currentColor" stroke="currentColor" stroke-width="1.2" stroke-linecap="round" stroke-linejoin="round" />
  <path d="M63.55,81.24 C63.67,81.45 63.83,81.61 64.03,81.73" fill="currentColor" stroke="currentColor" stroke-width="1.2" stroke-linecap="round" stroke-linejoin="round" />
  <path d="M65.40,81.73 C65.60,81.61 65.76,81.45 65.88,81.24" fill="currentColor" stroke="currentColor" stroke-width="1.2" stroke-linecap="round" stroke-linejoin="round" />
  <path d="M65.13,81.28 C65.01,81.35 64.87,81.39 64.71,81.39" fill="currentColor" stroke="currentColor" stroke-width="1.2" stroke-linecap="round" stroke-linejoin="round" />
  <path d="M64.71,81.39 C64.56,81.39 64.42,81.35 64.30,81.28" fill="currentColor" stroke="currentColor" stroke-width="1.2" stroke-linecap="round" stroke-linejoin="round" />
  <path d="M56.78,82.02 C56.84,81.83 56.87,81.61 56.87,81.36" fill="currentColor" stroke="currentColor" stroke-width="1.2" stroke-linecap="round" stroke-linejoin="round" />
  <path d="M55.89,81.53 C55.89,81.84 55.78,82.09 55.56,82.26" fill="currentColor" stroke="currentColor" stroke-width="1.2" stroke-linecap="round" stroke-linejoin="round" />
  <path d="M62.44,83.08 C62.44,82.56 62.39,82.08 62.29,81.65" fill="currentColor" stroke="currentColor" stroke-width="1.2" stroke-linecap="round" stroke-linejoin="round" />
  <path d="M58.20,81.65 C58.10,82.08 58.05,82.56 58.04,83.08" fill="currentColor" stroke="currentColor" stroke-width="1.2" stroke-linecap="round" stroke-linejoin="round" />
  <path d="M59.02,83.08 C59.02,82.55 59.07,82.09 59.17,81.70" fill="currentColor" stroke="currentColor" stroke-width="1.2" stroke-linecap="round" stroke-linejoin="round" />
  <path d="M61.32,81.70 C61.42,82.09 61.46,82.55 61.47,83.08" fill="currentColor" stroke="currentColor" stroke-width="1.2" stroke-linecap="round" stroke-linejoin="round" />
  <path d="M64.03,81.73 C64.23,81.85 64.46,81.91 64.71,81.91" fill="currentColor" stroke="currentColor" stroke-width="1.2" stroke-linecap="round" stroke-linejoin="round" />
  <path d="M64.71,81.91 C64.97,81.91 65.20,81.85 65.40,81.73" fill="currentColor" stroke="currentColor" stroke-width="1.2" stroke-linecap="round" stroke-linejoin="round" />
  <path d="M56.50,82.51 C56.63,82.37 56.73,82.21 56.78,82.02" fill="currentColor" stroke="currentColor" stroke-width="1.2" stroke-linecap="round" stroke-linejoin="round" />
  <path d="M55.56,82.26 C55.33,82.43 54.99,82.52 54.54,82.52" fill="currentColor" stroke="currentColor" stroke-width="1.2" stroke-linecap="round" stroke-linejoin="round" />
  <path d="M56.00,82.89 C56.21,82.78 56.38,82.65 56.50,82.51" fill="currentColor" stroke="currentColor" stroke-width="1.2" stroke-linecap="round" stroke-linejoin="round" />
  <line x1="54.54" y1="82.52" x2="54.54" y2="83.42" fill="currentColor" stroke="currentColor" stroke-width="1.2" stroke-linecap="round" stroke-linejoin="round" />
  <path d="M56.56,83.25 C56.41,83.08 56.23,82.96 56.00,82.89" fill="currentColor" stroke="currentColor" stroke-width="1.2" stroke-linecap="round" stroke-linejoin="round" />
  <path d="M88.66,85.28 C86.80,85.19 84.96,84.44 83.53,83.02" fill="none" stroke="currentColor" stroke-width="1.0" stroke-linecap="round" stroke-linejoin="round" />
  <line x1="81.66" y1="83.06" x2="80.61" y2="83.06" fill="currentColor" stroke="currentColor" stroke-width="1.2" stroke-linecap="round" stroke-linejoin="round" />
  <line x1="80.61" y1="83.06" x2="79.44" y2="84.57" fill="currentColor" stroke="currentColor" stroke-width="1.2" stroke-linecap="round" stroke-linejoin="round" />
  <line x1="79.44" y1="84.57" x2="78.73" y2="83.06" fill="currentColor" stroke="currentColor" stroke-width="1.2" stroke-linecap="round" stroke-linejoin="round" />
  <line x1="78.73" y1="83.06" x2="77.82" y2="83.06" fill="currentColor" stroke="currentColor" stroke-width="1.2" stroke-linecap="round" stroke-linejoin="round" />
  <line x1="77.82" y1="83.06" x2="78.88" y2="85.17" fill="currentColor" stroke="currentColor" stroke-width="1.2" stroke-linecap="round" stroke-linejoin="round" />
  <line x1="79.85" y1="85.28" x2="81.66" y2="83.06" fill="currentColor" stroke="currentColor" stroke-width="1.2" stroke-linecap="round" stroke-linejoin="round" />
  <path d="M58.04,83.08 C58.05,83.61 58.10,84.09 58.20,84.51" fill="currentColor" stroke="currentColor" stroke-width="1.2" stroke-linecap="round" stroke-linejoin="round" />
  <path d="M62.29,84.51 C62.39,84.09 62.44,83.61 62.44,83.08" fill="currentColor" stroke="currentColor" stroke-width="1.2" stroke-linecap="round" stroke-linejoin="round" />
  <path d="M61.47,83.08 C61.46,83.62 61.42,84.08 61.32,84.46" fill="currentColor" stroke="currentColor" stroke-width="1.2" stroke-linecap="round" stroke-linejoin="round" />
  <path d="M59.17,84.46 C59.07,84.08 59.02,83.62 59.02,83.08" fill="currentColor" stroke="currentColor" stroke-width="1.2" stroke-linecap="round" stroke-linejoin="round" />
  <path d="M56.88,83.83 C56.81,83.61 56.70,83.41 56.56,83.25" fill="currentColor" stroke="currentColor" stroke-width="1.2" stroke-linecap="round" stroke-linejoin="round" />
  <path d="M54.54,83.42 C54.87,83.41 55.14,83.45 55.35,83.55" fill="currentColor" stroke="currentColor" stroke-width="1.2" stroke-linecap="round" stroke-linejoin="round" />
  <path d="M55.35,83.55 C55.57,83.64 55.73,83.78 55.84,83.96" fill="currentColor" stroke="currentColor" stroke-width="1.2" stroke-linecap="round" stroke-linejoin="round" />
  <path d="M56.98,84.51 C56.98,84.27 56.95,84.05 56.88,83.83" fill="currentColor" stroke="currentColor" stroke-width="1.2" stroke-linecap="round" stroke-linejoin="round" />
  <path d="M55.84,83.96 C55.95,84.13 56.00,84.34 56.00,84.56" fill="currentColor" stroke="currentColor" stroke-width="1.2" stroke-linecap="round" stroke-linejoin="round" />
  <path d="M61.32,84.46 C61.22,84.84 61.08,85.14 60.90,85.34" fill="currentColor" stroke="currentColor" stroke-width="1.2" stroke-linecap="round" stroke-linejoin="round" />
  <path d="M59.59,85.34 C59.41,85.14 59.27,84.84 59.17,84.46" fill="currentColor" stroke="currentColor" stroke-width="1.2" stroke-linecap="round" stroke-linejoin="round" />
  <path d="M56.71,85.59 C56.89,85.28 56.98,84.92 56.98,84.51" fill="currentColor" stroke="currentColor" stroke-width="1.2" stroke-linecap="round" stroke-linejoin="round" />
  <path d="M58.20,84.51 C58.31,84.94 58.46,85.31 58.65,85.62" fill="currentColor" stroke="currentColor" stroke-width="1.2" stroke-linecap="round" stroke-linejoin="round" />
  <path d="M61.84,85.62 C62.03,85.31 62.18,84.94 62.29,84.51" fill="currentColor" stroke="currentColor" stroke-width="1.2" stroke-linecap="round" stroke-linejoin="round" />
  <path d="M56.00,84.56 C56.00,84.78 55.96,84.97 55.87,85.14" fill="currentColor" stroke="currentColor" stroke-width="1.2" stroke-linecap="round" stroke-linejoin="round" />
  <path d="M54.15,85.52 C53.90,85.44 53.64,85.31 53.38,85.13" fill="currentColor" stroke="currentColor" stroke-width="1.2" stroke-linecap="round" stroke-linejoin="round" />
  <line x1="53.38" y1="85.13" x2="53.38" y2="86.19" fill="currentColor" stroke="currentColor" stroke-width="1.2" stroke-linecap="round" stroke-linejoin="round" />
  <path d="M55.87,85.14 C55.78,85.30 55.65,85.43 55.49,85.51" fill="currentColor" stroke="currentColor" stroke-width="1.2" stroke-linecap="round" stroke-linejoin="round" />
  <line x1="78.88" y1="85.17" x2="76.92" y2="87.55" fill="currentColor" stroke="currentColor" stroke-width="1.2" stroke-linecap="round" stroke-linejoin="round" />
  <line x1="80.99" y1="87.55" x2="79.85" y2="85.28" fill="currentColor" stroke="currentColor" stroke-width="1.2" stroke-linecap="round" stroke-linejoin="round" />
  <path d="M60.90,85.34 C60.72,85.55 60.50,85.65 60.24,85.65" fill="currentColor" stroke="currentColor" stroke-width="1.2" stroke-linecap="round" stroke-linejoin="round" />
  <path d="M60.24,85.65 C59.99,85.65 59.77,85.55 59.59,85.34" fill="currentColor" stroke="currentColor" stroke-width="1.2" stroke-linecap="round" stroke-linejoin="round" />
  <path d="M55.49,85.51 C55.32,85.60 55.13,85.65 54.90,85.65" fill="currentColor" stroke="currentColor" stroke-width="1.2" stroke-linecap="round" stroke-linejoin="round" />
  <path d="M54.90,85.65 C54.65,85.65 54.40,85.61 54.15,85.52" fill="currentColor" stroke="currentColor" stroke-width="1.2" stroke-linecap="round" stroke-linejoin="round" />
  <path d="M55.95,86.32 C56.27,86.14 56.52,85.90 56.71,85.59" fill="currentColor" stroke="currentColor" stroke-width="1.2" stroke-linecap="round" stroke-linejoin="round" />
  <path d="M58.65,85.62 C58.84,85.93 59.07,86.16 59.34,86.33" fill="currentColor" stroke="currentColor" stroke-width="1.2" stroke-linecap="round" stroke-linejoin="round" />
  <path d="M61.15,86.33 C61.41,86.16 61.65,85.93 61.84,85.62" fill="currentColor" stroke="currentColor" stroke-width="1.2" stroke-linecap="round" stroke-linejoin="round" />
  <line x1="77.96" y1="87.55" x2="79.26" y2="85.87" fill="currentColor" stroke="currentColor" stroke-width="1.2" stroke-linecap="round" stroke-linejoin="round" />
  <line x1="79.26" y1="85.87" x2="80.08" y2="87.55" fill="currentColor" stroke="currentColor" stroke-width="1.2" stroke-linecap="round" stroke-linejoin="round" />
  <path d="M53.38,86.19 C53.63,86.32 53.87,86.41 54.12,86.48" fill="currentColor" stroke="currentColor" stroke-width="1.2" stroke-linecap="round" stroke-linejoin="round" />
  <path d="M54.83,86.58 C55.26,86.58 55.63,86.49 55.95,86.32" fill="currentColor" stroke="currentColor" stroke-width="1.2" stroke-linecap="round" stroke-linejoin="round" />
  <path d="M59.34,86.33 C59.61,86.50 59.91,86.58 60.24,86.58" fill="currentColor" stroke="currentColor" stroke-width="1.2" stroke-linecap="round" stroke-linejoin="round" />
  <path d="M60.24,86.58 C60.58,86.58 60.88,86.50 61.15,86.33" fill="currentColor" stroke="currentColor" stroke-width="1.2" stroke-linecap="round" stroke-linejoin="round" />
  <path d="M54.12,86.48 C54.36,86.55 54.60,86.58 54.83,86.58" fill="currentColor" stroke="currentColor" stroke-width="1.2" stroke-linecap="round" stroke-linejoin="round" />
  <line x1="76.92" y1="87.55" x2="77.96" y2="87.55" fill="currentColor" stroke="currentColor" stroke-width="1.2" stroke-linecap="round" stroke-linejoin="round" />
  <line x1="80.08" y1="87.55" x2="80.99" y2="87.55" fill="currentColor" stroke="currentColor" stroke-width="1.2" stroke-linecap="round" stroke-linejoin="round" />
</svg>