<svg xmlns="http://www.w3.org/2000/svg" viewBox="0 0 236.94 143.56" preserveAspectRatio="xMidYMid meet" shape-rendering="geometricPrecision" text-rendering="optimizeLegibility">
  <path d="M174.19,129.19C174.19,129.25 174.18,129.31 174.18,129.36C174.17,129.41 174.15,129.45 174.14,129.49C174.12,129.52 174.10,129.55 174.07,129.56C174.05,129.58 174.02,129.59 173.99,129.59L170.14,129.59C170.09,129.59 170.05,129.58 170.01,129.57C169.98,129.56 169.94,129.54 169.92,129.51C169.89,129.48 169.87,129.44 169.86,129.38C169.85,129.33 169.84,129.26 169.84,129.18C169.84,129.11 169.84,129.05 169.85,129.00C169.85,128.94 169.86,128.90 169.88,128.85C169.90,128.81 169.92,128.77 169.95,128.73C169.98,128.69 170.01,128.65 170.05,128.60L171.40,127.17C171.71,126.84 171.96,126.55 172.15,126.28C172.34,126.02 172.48,125.78 172.59,125.57C172.69,125.36 172.76,125.16 172.79,124.98C172.82,124.81 172.84,124.64 172.84,124.49C172.84,124.34 172.81,124.19 172.76,124.05C172.71,123.91 172.64,123.79 172.54,123.69C172.45,123.59 172.33,123.50 172.19,123.44C172.04,123.38 171.88,123.35 171.69,123.35C171.47,123.35 171.28,123.38 171.10,123.44C170.93,123.50 170.78,123.57 170.65,123.64C170.52,123.71 170.41,123.78 170.32,123.84C170.23,123.90 170.17,123.93 170.12,123.93C170.10,123.93 170.08,123.92 170.06,123.91C170.04,123.90 170.02,123.87 170.01,123.84C170.00,123.81 169.99,123.77 169.98,123.71C169.97,123.66 169.97,123.59 169.97,123.52C169.97,123.46 169.97,123.42 169.97,123.38C169.98,123.34 169.98,123.31 169.99,123.28C170.00,123.25 170.01,123.22 170.03,123.20C170.04,123.17 170.07,123.14 170.11,123.10C170.16,123.06 170.23,123.01 170.34,122.95C170.44,122.88 170.57,122.82 170.73,122.76C170.89,122.70 171.07,122.64 171.26,122.60C171.45,122.56 171.65,122.54 171.86,122.54C172.20,122.54 172.49,122.58 172.75,122.68C173.00,122.77 173.21,122.90 173.38,123.07C173.54,123.23 173.67,123.42 173.75,123.64C173.83,123.86 173.87,124.09 173.87,124.34C173.87,124.56 173.85,124.78 173.81,125.00C173.77,125.22 173.69,125.46 173.56,125.72C173.44,125.97 173.25,126.26 173.01,126.57C172.77,126.89 172.45,127.25 172.06,127.65L170.96,128.80L173.98,128.80C174.01,128.80 174.04,128.81 174.06,128.83C174.09,128.84 174.11,128.87 174.13,128.90C174.15,128.93 174.17,128.97 174.18,129.02C174.18,129.07 174.19,129.13 174.19,129.19Z" fill="currentColor" stroke="currentColor" stroke-width="1.2" stroke-linejoin="round" />
  <path d="M180.00,126.10C180.00,126.63 179.95,127.12 179.87,127.56C179.78,128.00 179.65,128.38 179.45,128.69C179.25,129.01 179.00,129.26 178.68,129.43C178.37,129.60 177.98,129.69 177.52,129.69C177.08,129.69 176.71,129.61 176.42,129.46C176.12,129.30 175.88,129.07 175.69,128.77C175.51,128.47 175.38,128.09 175.30,127.65C175.23,127.21 175.19,126.70 175.19,126.13C175.19,125.60 175.23,125.11 175.32,124.67C175.40,124.23 175.54,123.85 175.74,123.53C175.93,123.21 176.18,122.97 176.50,122.80C176.81,122.62 177.20,122.54 177.66,122.54C178.10,122.54 178.47,122.61 178.77,122.77C179.07,122.93 179.31,123.15 179.49,123.46C179.67,123.76 179.80,124.13 179.88,124.57C179.96,125.02 180.00,125.52 180.00,126.10ZM179.05,126.16C179.05,125.81 179.04,125.50 179.01,125.23C178.99,124.95 178.95,124.71 178.90,124.50C178.85,124.28 178.79,124.10 178.71,123.95C178.64,123.80 178.55,123.67 178.44,123.57C178.33,123.48 178.21,123.40 178.07,123.36C177.93,123.32 177.78,123.29 177.61,123.29C177.30,123.29 177.05,123.36 176.86,123.51C176.67,123.65 176.52,123.85 176.42,124.10C176.31,124.35 176.23,124.64 176.19,124.98C176.15,125.32 176.13,125.68 176.13,126.06C176.13,126.58 176.16,127.02 176.21,127.39C176.27,127.75 176.35,128.05 176.47,128.28C176.59,128.51 176.73,128.67 176.91,128.78C177.10,128.88 177.32,128.93 177.57,128.93C177.77,128.93 177.95,128.90 178.10,128.84C178.25,128.77 178.38,128.68 178.49,128.56C178.60,128.44 178.69,128.29 178.77,128.13C178.84,127.96 178.89,127.77 178.94,127.57C178.98,127.36 179.01,127.14 179.03,126.90C179.04,126.67 179.05,126.42 179.05,126.16Z" fill="currentColor" stroke="currentColor" stroke-width="1.2" stroke-linejoin="round" />
  <path d="M183.55,123.50C183.55,123.68 183.52,123.84 183.45,124.00C183.39,124.15 183.29,124.29 183.17,124.40C183.05,124.52 182.91,124.61 182.75,124.67C182.58,124.74 182.41,124.77 182.22,124.77C182.03,124.77 181.86,124.74 181.70,124.68C181.54,124.62 181.41,124.54 181.29,124.43C181.18,124.32 181.09,124.20 181.03,124.04C180.96,123.89 180.93,123.73 180.93,123.55C180.93,123.36 180.96,123.19 181.03,123.04C181.10,122.88 181.19,122.75 181.31,122.64C181.43,122.53 181.57,122.44 181.74,122.37C181.90,122.31 182.07,122.28 182.26,122.28C182.45,122.28 182.62,122.31 182.78,122.37C182.93,122.43 183.07,122.51 183.19,122.62C183.30,122.72 183.39,122.85 183.45,123.00C183.52,123.15 183.55,123.32 183.55,123.50ZM182.87,123.52C182.87,123.43 182.86,123.34 182.83,123.25C182.79,123.17 182.75,123.10 182.69,123.03C182.63,122.97 182.57,122.93 182.49,122.89C182.41,122.86 182.32,122.84 182.23,122.84C182.14,122.84 182.06,122.86 181.98,122.89C181.90,122.93 181.84,122.97 181.78,123.03C181.72,123.10 181.68,123.17 181.64,123.25C181.61,123.33 181.60,123.42 181.60,123.51C181.60,123.62 181.61,123.71 181.64,123.80C181.68,123.88 181.72,123.96 181.78,124.02C181.84,124.08 181.91,124.13 181.99,124.16C182.07,124.19 182.16,124.21 182.25,124.21C182.34,124.21 182.42,124.19 182.50,124.16C182.57,124.12 182.64,124.07 182.69,124.01C182.75,123.95 182.79,123.87 182.83,123.79C182.86,123.71 182.87,123.62 182.87,123.52Z" fill="currentColor" stroke="currentColor" stroke-width="1.2" stroke-linejoin="round" />
  <path d="M140.92,98.07C140.92,98.14 140.92,98.20 140.91,98.24C140.90,98.29 140.88,98.33 140.86,98.35C140.85,98.38 140.82,98.40 140.80,98.42C140.78,98.43 140.75,98.44 140.73,98.44L137.10,98.44C137.07,98.44 137.05,98.43 137.03,98.42C137.01,98.40 136.99,98.38 136.97,98.35C136.95,98.33 136.93,98.29 136.92,98.24C136.91,98.20 136.90,98.14 136.90,98.07C136.90,98.01 136.91,97.95 136.92,97.90C136.93,97.86 136.95,97.82 136.96,97.79C136.98,97.76 137.00,97.73 137.02,97.72C137.04,97.70 137.07,97.69 137.10,97.69L138.55,97.69L138.55,92.41L137.21,93.21C137.14,93.25 137.08,93.27 137.04,93.27C137.00,93.28 136.97,93.27 136.94,93.25C136.92,93.23 136.90,93.19 136.89,93.13C136.88,93.08 136.88,93.01 136.88,92.93C136.88,92.87 136.88,92.82 136.89,92.77C136.89,92.73 136.90,92.70 136.91,92.67C136.92,92.64 136.94,92.61 136.96,92.59C136.98,92.57 137.00,92.55 137.03,92.53L138.63,91.50C138.65,91.49 138.67,91.48 138.69,91.47C138.71,91.47 138.74,91.46 138.77,91.45C138.80,91.45 138.84,91.44 138.88,91.44C138.92,91.44 138.98,91.44 139.04,91.44C139.13,91.44 139.20,91.44 139.26,91.45C139.31,91.46 139.36,91.47 139.39,91.48C139.42,91.49 139.45,91.51 139.46,91.53C139.47,91.55 139.47,91.57 139.47,91.59L139.47,97.69L140.73,97.69C140.76,97.69 140.78,97.70 140.81,97.72C140.83,97.73 140.86,97.76 140.87,97.79C140.89,97.82 140.90,97.86 140.91,97.90C140.92,97.95 140.92,98.01 140.92,98.07Z" fill="currentColor" stroke="currentColor" stroke-width="1.2" stroke-linejoin="round" />
  <path d="M146.71,94.94C146.71,95.48 146.67,95.96 146.58,96.40C146.50,96.85 146.36,97.22 146.17,97.54C145.97,97.86 145.72,98.10 145.40,98.28C145.09,98.45 144.70,98.54 144.24,98.54C143.80,98.54 143.43,98.46 143.13,98.30C142.83,98.15 142.59,97.92 142.41,97.62C142.23,97.31 142.10,96.94 142.02,96.50C141.94,96.06 141.90,95.55 141.90,94.98C141.90,94.45 141.95,93.96 142.03,93.52C142.12,93.08 142.26,92.70 142.45,92.38C142.65,92.06 142.90,91.82 143.21,91.64C143.53,91.47 143.92,91.38 144.38,91.38C144.82,91.38 145.18,91.46 145.48,91.62C145.78,91.77 146.02,92.00 146.21,92.30C146.39,92.61 146.52,92.98 146.60,93.42C146.67,93.86 146.71,94.37 146.71,94.94ZM145.77,95.01C145.77,94.66 145.75,94.35 145.73,94.07C145.70,93.80 145.67,93.56 145.62,93.34C145.57,93.13 145.51,92.95 145.43,92.80C145.35,92.65 145.26,92.52 145.15,92.42C145.05,92.32 144.92,92.25 144.79,92.21C144.65,92.16 144.49,92.14 144.32,92.14C144.02,92.14 143.77,92.21 143.58,92.36C143.39,92.50 143.24,92.69 143.13,92.95C143.02,93.20 142.95,93.49 142.91,93.83C142.87,94.16 142.85,94.52 142.85,94.91C142.85,95.43 142.88,95.87 142.93,96.24C142.98,96.60 143.07,96.89 143.19,97.13C143.30,97.35 143.45,97.52 143.63,97.62C143.81,97.73 144.03,97.78 144.29,97.78C144.49,97.78 144.67,97.75 144.82,97.68C144.97,97.62 145.10,97.53 145.21,97.41C145.32,97.29 145.41,97.14 145.48,96.97C145.55,96.81 145.61,96.62 145.65,96.42C145.70,96.21 145.73,95.99 145.74,95.75C145.76,95.51 145.77,95.27 145.77,95.01Z" fill="currentColor" stroke="currentColor" stroke-width="1.2" stroke-linejoin="round" />
  <path d="M150.27,92.35C150.27,92.52 150.23,92.69 150.17,92.84C150.10,93.00 150.01,93.13 149.89,93.25C149.77,93.37 149.63,93.46 149.46,93.52C149.30,93.58 149.12,93.62 148.93,93.62C148.75,93.62 148.57,93.59 148.42,93.53C148.26,93.47 148.13,93.39 148.01,93.28C147.90,93.17 147.81,93.04 147.74,92.89C147.68,92.74 147.65,92.57 147.65,92.39C147.65,92.21 147.68,92.04 147.75,91.88C147.82,91.73 147.91,91.60 148.03,91.49C148.15,91.37 148.29,91.29 148.45,91.22C148.61,91.16 148.79,91.13 148.98,91.13C149.16,91.13 149.34,91.16 149.49,91.22C149.65,91.28 149.79,91.36 149.90,91.47C150.02,91.57 150.11,91.70 150.17,91.85C150.23,92.00 150.27,92.17 150.27,92.35ZM149.59,92.37C149.59,92.27 149.57,92.18 149.54,92.10C149.51,92.02 149.46,91.94 149.41,91.88C149.35,91.82 149.28,91.77 149.20,91.74C149.12,91.71 149.04,91.69 148.95,91.69C148.86,91.69 148.77,91.71 148.70,91.74C148.62,91.77 148.55,91.82 148.49,91.88C148.44,91.94 148.39,92.01 148.36,92.10C148.33,92.18 148.31,92.27 148.31,92.36C148.31,92.46 148.33,92.56 148.36,92.64C148.39,92.73 148.44,92.81 148.50,92.87C148.56,92.93 148.63,92.97 148.71,93.01C148.79,93.04 148.87,93.06 148.97,93.06C149.05,93.06 149.14,93.04 149.21,93.01C149.29,92.97 149.36,92.92 149.41,92.86C149.47,92.80 149.51,92.72 149.54,92.64C149.57,92.56 149.59,92.47 149.59,92.37Z" fill="currentColor" stroke="currentColor" stroke-width="1.2" stroke-linejoin="round" />
  <path d="M19.16,68.36C19.16,68.40 19.16,68.44 19.15,68.48C19.14,68.52 19.13,68.56 19.11,68.60C19.00,68.93 18.87,69.27 18.73,69.62C18.59,69.97 18.42,70.34 18.24,70.72C18.05,71.11 17.83,71.51 17.59,71.93C17.34,72.35 17.04,72.79 16.70,73.25L15.31,75.15C15.28,75.18 15.26,75.20 15.22,75.22C15.19,75.24 15.15,75.26 15.11,75.28C15.06,75.30 15.00,75.31 14.94,75.31C14.87,75.32 14.79,75.32 14.70,75.32C14.61,75.32 14.53,75.32 14.46,75.31C14.40,75.30 14.35,75.29 14.32,75.26C14.29,75.24 14.28,75.21 14.28,75.18C14.28,75.14 14.30,75.10 14.34,75.05L15.65,73.37L14.85,68.65C14.85,68.61 14.84,68.57 14.84,68.53C14.83,68.49 14.83,68.46 14.83,68.44C14.83,68.40 14.84,68.37 14.85,68.34C14.86,68.31 14.89,68.29 14.92,68.27C14.96,68.26 15.01,68.25 15.07,68.24C15.13,68.24 15.20,68.24 15.28,68.24C15.38,68.24 15.46,68.24 15.51,68.24C15.57,68.25 15.61,68.26 15.64,68.27C15.67,68.28 15.69,68.30 15.71,68.33C15.72,68.35 15.73,68.38 15.73,68.42L16.36,72.36L16.37,72.36C16.59,72.05 16.79,71.73 16.97,71.41C17.15,71.09 17.31,70.76 17.46,70.43C17.61,70.10 17.75,69.76 17.88,69.42C18.01,69.09 18.13,68.74 18.24,68.40C18.25,68.37 18.26,68.34 18.28,68.32C18.30,68.30 18.33,68.29 18.36,68.27C18.40,68.26 18.45,68.25 18.52,68.24C18.58,68.24 18.66,68.24 18.76,68.24C18.92,68.24 19.03,68.24 19.08,68.27C19.13,68.29 19.16,68.32 19.16,68.36Z" fill="currentColor" stroke="currentColor" stroke-width="1.2" stroke-linejoin="round" />
  <path d="M17.20,27.03L18.25,29.40C18.27,29.45 18.28,29.49 18.27,29.52C18.27,29.56 18.25,29.58 18.21,29.60C18.17,29.63 18.11,29.64 18.04,29.65C17.97,29.66 17.88,29.66 17.77,29.66C17.67,29.66 17.59,29.66 17.54,29.66C17.48,29.65 17.43,29.64 17.40,29.63C17.37,29.62 17.35,29.60 17.34,29.58C17.33,29.56 17.32,29.54 17.30,29.51L16.50,27.61L14.98,29.51C14.96,29.54 14.93,29.56 14.91,29.58C14.89,29.60 14.86,29.62 14.81,29.63C14.77,29.64 14.71,29.65 14.65,29.65C14.58,29.66 14.50,29.66 14.39,29.66C14.28,29.66 14.20,29.66 14.14,29.65C14.07,29.64 14.02,29.63 13.99,29.60C13.96,29.58 13.95,29.56 13.96,29.52C13.96,29.49 13.98,29.45 14.02,29.40L16.03,27.02L15.03,24.76C15.01,24.71 15.00,24.67 15.01,24.63C15.01,24.60 15.03,24.57 15.06,24.55C15.10,24.53 15.15,24.51 15.22,24.51C15.28,24.50 15.37,24.50 15.48,24.50C15.58,24.50 15.66,24.50 15.72,24.50C15.78,24.51 15.82,24.52 15.85,24.53C15.88,24.54 15.90,24.55 15.92,24.57C15.93,24.59 15.94,24.61 15.95,24.64L16.72,26.44L18.17,24.64C18.19,24.62 18.21,24.60 18.23,24.58C18.26,24.56 18.29,24.54 18.32,24.53C18.36,24.52 18.41,24.51 18.47,24.50C18.53,24.50 18.61,24.50 18.71,24.50C18.81,24.50 18.90,24.50 18.97,24.51C19.04,24.51 19.09,24.53 19.12,24.55C19.15,24.56 19.17,24.59 19.16,24.62C19.15,24.66 19.13,24.70 19.08,24.75L17.20,27.03Z" fill="currentColor" stroke="currentColor" stroke-width="1.2" stroke-linejoin="round" />
  <line x1="8.00" y1="135.42" x2="228.94" y2="135.56" fill="none" stroke="currentColor" stroke-width="1.4000000476837158" stroke-linecap="round" stroke-linejoin="round" />
  <line x1="228.94" y1="135.56" x2="8.00" y2="8.00" fill="none" stroke="currentColor" stroke-width="1.4000000476837158" stroke-linecap="round" stroke-linejoin="round" />
  <line x1="8.00" y1="8.00" x2="8.00" y2="135.42" fill="none" stroke="currentColor" stroke-width="1.4000000476837158" stroke-linecap="round" stroke-linejoin="round" />
  <line x1="228.94" y1="135.56" x2="8.00" y2="50.27" fill="none" stroke="currentColor" stroke-width="1.4000000476837158" stroke-linecap="round" stroke-linejoin="round" />
  <path d="M20.96,15.48 C18.37,19.96 13.54,22.96 8.00,22.96" fill="none" stroke="currentColor" stroke-width="1.000000011920929" stroke-linecap="round" stroke-linejoin="round" />
  <path d="M21.97,55.67 C19.81,61.27 14.36,65.25 8.00,65.25" fill="none" stroke="currentColor" stroke-width="1.000000011920929" stroke-linecap="round" stroke-linejoin="round" />
  <path d="M152.37,106.00 C153.90,102.01 155.75,98.18 157.86,94.52" fill="none" stroke="currentColor" stroke-width="1.000000011920929" stroke-linecap="round" stroke-linejoin="round" />
  <path d="M185.16,135.56 C185.16,129.99 186.20,124.67 188.10,119.77" fill="none" stroke="currentColor" stroke-width="1.000000011920929" stroke-linecap="round" stroke-linejoin="round" />
  <rect x="8.00" y="123.51" width="11.91" height="11.91" fill="none" stroke="currentColor" stroke-width="1.000000011920929" stroke-linecap="round" stroke-linejoin="round" />
</svg>