<svg xmlns="http://www.w3.org/2000/svg" viewBox="0 0 180.18 236.42" preserveAspectRatio="xMidYMid meet" shape-rendering="geometricPrecision" text-rendering="optimizeLegibility">
  <line x1="81.91" y1="63.07" x2="81.55" y2="63.07" fill="currentColor" stroke="currentColor" stroke-width="1.2" stroke-linecap="round" stroke-linejoin="round" />
  <path d="M63.57,63.07 C63.32,63.07 63.10,63.09 62.90,63.14" fill="currentColor" stroke="currentColor" stroke-width="1.2" stroke-linecap="round" stroke-linejoin="round" />
  <path d="M75.92,63.07 C75.65,63.07 75.39,63.12 75.14,63.23" fill="currentColor" stroke="currentColor" stroke-width="1.2" stroke-linecap="round" stroke-linejoin="round" />
  <line x1="73.79" y1="63.16" x2="69.52" y2="63.16" fill="currentColor" stroke="currentColor" stroke-width="1.2" stroke-linecap="round" stroke-linejoin="round" />
  <path d="M64.60,63.29 C64.31,63.15 63.96,63.07 63.57,63.07" fill="currentColor" stroke="currentColor" stroke-width="1.2" stroke-linecap="round" stroke-linejoin="round" />
  <path d="M76.97,63.34 C76.67,63.16 76.32,63.07 75.92,63.07" fill="currentColor" stroke="currentColor" stroke-width="1.2" stroke-linecap="round" stroke-linejoin="round" />
  <path d="M62.90,63.14 C62.69,63.19 62.49,63.26 62.30,63.35" fill="currentColor" stroke="currentColor" stroke-width="1.2" stroke-linecap="round" stroke-linejoin="round" />
  <path d="M94.75,63.22 C94.61,63.22 94.48,63.25 94.36,63.30" fill="currentColor" stroke="currentColor" stroke-width="1.2" stroke-linecap="round" stroke-linejoin="round" />
  <path d="M95.27,63.35 C95.12,63.27 94.95,63.22 94.75,63.22" fill="currentColor" stroke="currentColor" stroke-width="1.2" stroke-linecap="round" stroke-linejoin="round" />
  <path d="M94.36,63.30 C94.23,63.35 94.10,63.43 93.97,63.54" fill="currentColor" stroke="currentColor" stroke-width="1.2" stroke-linecap="round" stroke-linejoin="round" />
  <path d="M75.14,63.23 C74.88,63.33 74.62,63.49 74.36,63.70" fill="currentColor" stroke="currentColor" stroke-width="1.2" stroke-linecap="round" stroke-linejoin="round" />
  <path d="M95.62,63.71 C95.54,63.56 95.42,63.44 95.27,63.35" fill="currentColor" stroke="currentColor" stroke-width="1.2" stroke-linecap="round" stroke-linejoin="round" />
  <path d="M65.27,63.88 C65.11,63.63 64.89,63.43 64.60,63.29" fill="currentColor" stroke="currentColor" stroke-width="1.2" stroke-linecap="round" stroke-linejoin="round" />
  <line x1="69.52" y1="63.16" x2="69.52" y2="64.06" fill="currentColor" stroke="currentColor" stroke-width="1.2" stroke-linecap="round" stroke-linejoin="round" />
  <path d="M77.67,64.06 C77.50,63.75 77.27,63.51 76.97,63.34" fill="currentColor" stroke="currentColor" stroke-width="1.2" stroke-linecap="round" stroke-linejoin="round" />
  <path d="M94.47,63.73 C94.55,63.70 94.63,63.68 94.71,63.69" fill="currentColor" stroke="currentColor" stroke-width="1.2" stroke-linecap="round" stroke-linejoin="round" />
  <path d="M94.71,63.69 C94.82,63.69 94.92,63.71 95.00,63.77" fill="currentColor" stroke="currentColor" stroke-width="1.2" stroke-linecap="round" stroke-linejoin="round" />
  <path d="M94.23,63.87 C94.31,63.80 94.39,63.75 94.47,63.73" fill="currentColor" stroke="currentColor" stroke-width="1.2" stroke-linecap="round" stroke-linejoin="round" />
  <line x1="62.30" y1="63.35" x2="62.30" y2="64.25" fill="currentColor" stroke="currentColor" stroke-width="1.2" stroke-linecap="round" stroke-linejoin="round" />
  <line x1="93.97" y1="63.54" x2="93.97" y2="64.13" fill="currentColor" stroke="currentColor" stroke-width="1.2" stroke-linecap="round" stroke-linejoin="round" />
  <path d="M95.00,63.77 C95.09,63.82 95.16,63.89 95.20,63.98" fill="currentColor" stroke="currentColor" stroke-width="1.2" stroke-linecap="round" stroke-linejoin="round" />
  <path d="M95.75,64.25 C95.75,64.05 95.71,63.87 95.62,63.71" fill="currentColor" stroke="currentColor" stroke-width="1.2" stroke-linecap="round" stroke-linejoin="round" />
  <path d="M63.07,64.00 C63.19,63.98 63.30,63.97 63.42,63.97" fill="currentColor" stroke="currentColor" stroke-width="1.2" stroke-linecap="round" stroke-linejoin="round" />
  <line x1="81.55" y1="63.07" x2="79.30" y2="64.91" fill="currentColor" stroke="currentColor" stroke-width="1.2" stroke-linecap="round" stroke-linejoin="round" />
  <path d="M93.97,64.13 C94.06,64.02 94.14,63.93 94.23,63.87" fill="currentColor" stroke="currentColor" stroke-width="1.2" stroke-linecap="round" stroke-linejoin="round" />
  <path d="M63.42,63.97 C63.66,63.97 63.86,64.01 64.03,64.09" fill="currentColor" stroke="currentColor" stroke-width="1.2" stroke-linecap="round" stroke-linejoin="round" />
  <path d="M75.37,64.08 C75.53,64.03 75.69,64.00 75.85,64.00" fill="currentColor" stroke="currentColor" stroke-width="1.2" stroke-linecap="round" stroke-linejoin="round" />
  <path d="M62.71,64.09 C62.84,64.05 62.96,64.02 63.07,64.00" fill="currentColor" stroke="currentColor" stroke-width="1.2" stroke-linecap="round" stroke-linejoin="round" />
  <line x1="69.52" y1="64.06" x2="72.38" y2="64.06" fill="currentColor" stroke="currentColor" stroke-width="1.2" stroke-linecap="round" stroke-linejoin="round" />
  <path d="M75.85,64.00 C76.07,64.00 76.26,64.06 76.43,64.16" fill="currentColor" stroke="currentColor" stroke-width="1.2" stroke-linecap="round" stroke-linejoin="round" />
  <path d="M95.20,63.98 C95.25,64.08 95.28,64.18 95.28,64.31" fill="currentColor" stroke="currentColor" stroke-width="1.2" stroke-linecap="round" stroke-linejoin="round" />
  <path d="M62.30,64.25 C62.45,64.19 62.59,64.13 62.71,64.09" fill="currentColor" stroke="currentColor" stroke-width="1.2" stroke-linecap="round" stroke-linejoin="round" />
  <path d="M74.87,64.36 C75.04,64.23 75.21,64.14 75.37,64.08" fill="currentColor" stroke="currentColor" stroke-width="1.2" stroke-linecap="round" stroke-linejoin="round" />
  <path d="M64.03,64.09 C64.20,64.17 64.33,64.29 64.42,64.43" fill="currentColor" stroke="currentColor" stroke-width="1.2" stroke-linecap="round" stroke-linejoin="round" />
  <line x1="74.36" y1="63.70" x2="74.36" y2="64.89" fill="currentColor" stroke="currentColor" stroke-width="1.2" stroke-linecap="round" stroke-linejoin="round" />
  <path d="M65.51,64.80 C65.51,64.44 65.43,64.14 65.27,63.88" fill="currentColor" stroke="currentColor" stroke-width="1.2" stroke-linecap="round" stroke-linejoin="round" />
  <path d="M76.43,64.16 C76.60,64.27 76.73,64.41 76.83,64.60" fill="currentColor" stroke="currentColor" stroke-width="1.2" stroke-linecap="round" stroke-linejoin="round" />
  <path d="M95.28,64.31 C95.28,64.40 95.27,64.48 95.25,64.55" fill="currentColor" stroke="currentColor" stroke-width="1.2" stroke-linecap="round" stroke-linejoin="round" />
  <path d="M95.70,64.65 C95.73,64.52 95.75,64.39 95.75,64.25" fill="currentColor" stroke="currentColor" stroke-width="1.2" stroke-linecap="round" stroke-linejoin="round" />
  <path d="M77.93,65.13 C77.93,64.72 77.84,64.37 77.67,64.06" fill="currentColor" stroke="currentColor" stroke-width="1.2" stroke-linecap="round" stroke-linejoin="round" />
  <path d="M74.36,64.89 C74.53,64.67 74.71,64.49 74.87,64.36" fill="currentColor" stroke="currentColor" stroke-width="1.2" stroke-linecap="round" stroke-linejoin="round" />
  <path d="M95.25,64.55 C95.24,64.63 95.21,64.70 95.18,64.77" fill="currentColor" stroke="currentColor" stroke-width="1.2" stroke-linecap="round" stroke-linejoin="round" />
  <path d="M64.42,64.43 C64.52,64.58 64.56,64.76 64.56,64.96" fill="currentColor" stroke="currentColor" stroke-width="1.2" stroke-linecap="round" stroke-linejoin="round" />
  <path d="M95.52,65.06 C95.60,64.91 95.66,64.78 95.70,64.65" fill="currentColor" stroke="currentColor" stroke-width="1.2" stroke-linecap="round" stroke-linejoin="round" />
  <path d="M95.18,64.77 C95.14,64.84 95.10,64.93 95.05,65.01" fill="currentColor" stroke="currentColor" stroke-width="1.2" stroke-linecap="round" stroke-linejoin="round" />
  <path d="M76.83,64.60 C76.93,64.78 76.98,65.00 76.98,65.24" fill="currentColor" stroke="currentColor" stroke-width="1.2" stroke-linecap="round" stroke-linejoin="round" />
  <path d="M65.43,65.43 C65.49,65.25 65.51,65.04 65.51,64.80" fill="currentColor" stroke="currentColor" stroke-width="1.2" stroke-linecap="round" stroke-linejoin="round" />
  <path d="M95.05,65.01 C94.98,65.13 94.89,65.26 94.80,65.39" fill="currentColor" stroke="currentColor" stroke-width="1.2" stroke-linecap="round" stroke-linejoin="round" />
  <line x1="79.66" y1="65.74" x2="80.92" y2="64.70" fill="currentColor" stroke="currentColor" stroke-width="1.2" stroke-linecap="round" stroke-linejoin="round" />
  <path d="M95.20,65.53 C95.33,65.36 95.43,65.20 95.52,65.06" fill="currentColor" stroke="currentColor" stroke-width="1.2" stroke-linecap="round" stroke-linejoin="round" />
  <path d="M64.56,64.96 C64.56,65.26 64.46,65.50 64.24,65.67" fill="currentColor" stroke="currentColor" stroke-width="1.2" stroke-linecap="round" stroke-linejoin="round" />
  <line x1="79.30" y1="64.91" x2="79.66" y2="65.74" fill="currentColor" stroke="currentColor" stroke-width="1.2" stroke-linecap="round" stroke-linejoin="round" />
  <path d="M91.72,65.33 C91.51,65.33 91.32,65.37 91.15,65.44" fill="currentColor" stroke="currentColor" stroke-width="1.2" stroke-linecap="round" stroke-linejoin="round" />
  <path d="M88.97,65.33 C88.76,65.33 88.56,65.38 88.35,65.49" fill="currentColor" stroke="currentColor" stroke-width="1.2" stroke-linecap="round" stroke-linejoin="round" />
  <line x1="87.70" y1="65.41" x2="86.84" y2="65.41" fill="currentColor" stroke="currentColor" stroke-width="1.2" stroke-linecap="round" stroke-linejoin="round" />
  <path d="M89.71,65.53 C89.49,65.39 89.25,65.33 88.97,65.33" fill="currentColor" stroke="currentColor" stroke-width="1.2" stroke-linecap="round" stroke-linejoin="round" />
  <path d="M92.48,65.54 C92.27,65.40 92.01,65.33 91.72,65.33" fill="currentColor" stroke="currentColor" stroke-width="1.2" stroke-linecap="round" stroke-linejoin="round" />
  <path d="M76.98,65.24 C76.98,65.42 76.96,65.59 76.93,65.73" fill="currentColor" stroke="currentColor" stroke-width="1.2" stroke-linecap="round" stroke-linejoin="round" />
  <path d="M77.81,65.92 C77.89,65.66 77.93,65.40 77.93,65.13" fill="currentColor" stroke="currentColor" stroke-width="1.2" stroke-linecap="round" stroke-linejoin="round" />
  <path d="M91.15,65.44 C90.98,65.51 90.82,65.60 90.67,65.72" fill="currentColor" stroke="currentColor" stroke-width="1.2" stroke-linecap="round" stroke-linejoin="round" />
  <path d="M94.80,65.39 C94.71,65.52 94.61,65.65 94.50,65.79" fill="currentColor" stroke="currentColor" stroke-width="1.2" stroke-linecap="round" stroke-linejoin="round" />
  <path d="M65.16,65.91 C65.28,65.77 65.37,65.62 65.43,65.43" fill="currentColor" stroke="currentColor" stroke-width="1.2" stroke-linecap="round" stroke-linejoin="round" />
  <line x1="87.70" y1="65.99" x2="87.70" y2="65.41" fill="currentColor" stroke="currentColor" stroke-width="1.2" stroke-linecap="round" stroke-linejoin="round" />
  <path d="M88.35,65.49 C88.14,65.60 87.92,65.76 87.70,65.99" fill="currentColor" stroke="currentColor" stroke-width="1.2" stroke-linecap="round" stroke-linejoin="round" />
  <path d="M64.24,65.67 C64.02,65.83 63.69,65.92 63.26,65.92" fill="currentColor" stroke="currentColor" stroke-width="1.2" stroke-linecap="round" stroke-linejoin="round" />
  <path d="M90.27,66.11 C90.12,65.85 89.93,65.66 89.71,65.53" fill="currentColor" stroke="currentColor" stroke-width="1.2" stroke-linecap="round" stroke-linejoin="round" />
  <path d="M94.73,66.12 C94.91,65.90 95.07,65.70 95.20,65.53" fill="currentColor" stroke="currentColor" stroke-width="1.2" stroke-linecap="round" stroke-linejoin="round" />
  <path d="M92.98,66.13 C92.87,65.88 92.70,65.68 92.48,65.54" fill="currentColor" stroke="currentColor" stroke-width="1.2" stroke-linecap="round" stroke-linejoin="round" />
  <path d="M90.67,65.72 C90.53,65.84 90.39,65.97 90.27,66.11" fill="currentColor" stroke="currentColor" stroke-width="1.2" stroke-linecap="round" stroke-linejoin="round" />
  <path d="M76.93,65.73 C76.89,65.88 76.84,66.03 76.77,66.17" fill="currentColor" stroke="currentColor" stroke-width="1.2" stroke-linecap="round" stroke-linejoin="round" />
  <path d="M94.50,65.79 C94.40,65.92 94.30,66.05 94.19,66.18" fill="currentColor" stroke="currentColor" stroke-width="1.2" stroke-linecap="round" stroke-linejoin="round" />
  <path d="M88.39,66.10 C88.51,66.07 88.64,66.05 88.78,66.05" fill="currentColor" stroke="currentColor" stroke-width="1.2" stroke-linecap="round" stroke-linejoin="round" />
  <path d="M64.67,66.28 C64.87,66.17 65.03,66.05 65.16,65.91" fill="currentColor" stroke="currentColor" stroke-width="1.2" stroke-linecap="round" stroke-linejoin="round" />
  <path d="M88.78,66.05 C88.93,66.05 89.06,66.09 89.18,66.16" fill="currentColor" stroke="currentColor" stroke-width="1.2" stroke-linecap="round" stroke-linejoin="round" />
  <path d="M91.40,66.05 C91.57,66.05 91.72,66.09 91.85,66.17" fill="currentColor" stroke="currentColor" stroke-width="1.2" stroke-linecap="round" stroke-linejoin="round" />
  <line x1="95.99" y1="66.12" x2="94.73" y2="66.12" fill="currentColor" stroke="currentColor" stroke-width="1.2" stroke-linecap="round" stroke-linejoin="round" />
  <path d="M90.93,66.21 C91.10,66.10 91.25,66.05 91.40,66.05" fill="currentColor" stroke="currentColor" stroke-width="1.2" stroke-linecap="round" stroke-linejoin="round" />
  <path d="M88.04,66.28 C88.15,66.20 88.27,66.14 88.39,66.10" fill="currentColor" stroke="currentColor" stroke-width="1.2" stroke-linecap="round" stroke-linejoin="round" />
  <path d="M89.18,66.16 C89.29,66.23 89.39,66.34 89.46,66.49" fill="currentColor" stroke="currentColor" stroke-width="1.2" stroke-linecap="round" stroke-linejoin="round" />
  <path d="M77.45,66.74 C77.62,66.46 77.74,66.18 77.81,65.92" fill="currentColor" stroke="currentColor" stroke-width="1.2" stroke-linecap="round" stroke-linejoin="round" />
  <path d="M91.85,66.17 C91.99,66.25 92.09,66.36 92.18,66.51" fill="currentColor" stroke="currentColor" stroke-width="1.2" stroke-linecap="round" stroke-linejoin="round" />
  <line x1="95.99" y1="66.57" x2="95.99" y2="66.12" fill="currentColor" stroke="currentColor" stroke-width="1.2" stroke-linecap="round" stroke-linejoin="round" />
  <path d="M94.19,66.18 C94.09,66.30 93.99,66.42 93.90,66.53" fill="currentColor" stroke="currentColor" stroke-width="1.2" stroke-linecap="round" stroke-linejoin="round" />
  <line x1="63.26" y1="65.92" x2="63.26" y2="66.79" fill="currentColor" stroke="currentColor" stroke-width="1.2" stroke-linecap="round" stroke-linejoin="round" />
  <path d="M90.43,66.60 C90.59,66.44 90.75,66.31 90.93,66.21" fill="currentColor" stroke="currentColor" stroke-width="1.2" stroke-linecap="round" stroke-linejoin="round" />
  <path d="M76.77,66.17 C76.71,66.32 76.62,66.48 76.52,66.65" fill="currentColor" stroke="currentColor" stroke-width="1.2" stroke-linecap="round" stroke-linejoin="round" />
  <line x1="81.91" y1="69.76" x2="81.91" y2="63.07" fill="currentColor" stroke="currentColor" stroke-width="1.2" stroke-linecap="round" stroke-linejoin="round" />
  <path d="M87.70,66.60 C87.82,66.47 87.93,66.36 88.04,66.28" fill="currentColor" stroke="currentColor" stroke-width="1.2" stroke-linecap="round" stroke-linejoin="round" />
  <path d="M65.21,66.62 C65.07,66.46 64.89,66.35 64.67,66.28" fill="currentColor" stroke="currentColor" stroke-width="1.2" stroke-linecap="round" stroke-linejoin="round" />
  <line x1="70.80" y1="69.85" x2="73.79" y2="63.16" fill="currentColor" stroke="currentColor" stroke-width="1.2" stroke-linecap="round" stroke-linejoin="round" />
  <line x1="93.90" y1="66.53" x2="93.90" y2="66.57" fill="currentColor" stroke="currentColor" stroke-width="1.2" stroke-linecap="round" stroke-linejoin="round" />
  <line x1="93.90" y1="66.57" x2="95.99" y2="66.57" fill="currentColor" stroke="currentColor" stroke-width="1.2" stroke-linecap="round" stroke-linejoin="round" />
  <path d="M93.16,67.03 C93.16,66.69 93.10,66.39 92.98,66.13" fill="currentColor" stroke="currentColor" stroke-width="1.2" stroke-linecap="round" stroke-linejoin="round" />
  <line x1="72.38" y1="64.06" x2="69.96" y2="69.48" fill="currentColor" stroke="currentColor" stroke-width="1.2" stroke-linecap="round" stroke-linejoin="round" />
  <path d="M89.46,66.49 C89.53,66.63 89.57,66.83 89.57,67.06" fill="currentColor" stroke="currentColor" stroke-width="1.2" stroke-linecap="round" stroke-linejoin="round" />
  <path d="M92.18,66.51 C92.26,66.66 92.30,66.85 92.30,67.07" fill="currentColor" stroke="currentColor" stroke-width="1.2" stroke-linecap="round" stroke-linejoin="round" />
  <path d="M63.26,66.79 C63.57,66.78 63.83,66.82 64.04,66.91" fill="currentColor" stroke="currentColor" stroke-width="1.2" stroke-linecap="round" stroke-linejoin="round" />
  <path d="M65.52,67.18 C65.45,66.97 65.35,66.78 65.21,66.62" fill="currentColor" stroke="currentColor" stroke-width="1.2" stroke-linecap="round" stroke-linejoin="round" />
  <path d="M76.52,66.65 C76.37,66.90 76.21,67.15 76.02,67.41" fill="currentColor" stroke="currentColor" stroke-width="1.2" stroke-linecap="round" stroke-linejoin="round" />
  <path d="M64.04,66.91 C64.25,67.01 64.41,67.14 64.51,67.31" fill="currentColor" stroke="currentColor" stroke-width="1.2" stroke-linecap="round" stroke-linejoin="round" />
  <path d="M76.82,67.69 C77.08,67.35 77.29,67.03 77.45,66.74" fill="currentColor" stroke="currentColor" stroke-width="1.2" stroke-linecap="round" stroke-linejoin="round" />
  <line x1="80.92" y1="64.70" x2="80.92" y2="69.76" fill="currentColor" stroke="currentColor" stroke-width="1.2" stroke-linecap="round" stroke-linejoin="round" />
  <path d="M65.62,67.85 C65.62,67.62 65.59,67.40 65.52,67.18" fill="currentColor" stroke="currentColor" stroke-width="1.2" stroke-linecap="round" stroke-linejoin="round" />
  <line x1="86.84" y1="65.41" x2="86.84" y2="69.76" fill="currentColor" stroke="currentColor" stroke-width="1.2" stroke-linecap="round" stroke-linejoin="round" />
  <path d="M64.51,67.31 C64.62,67.48 64.67,67.68 64.67,67.90" fill="currentColor" stroke="currentColor" stroke-width="1.2" stroke-linecap="round" stroke-linejoin="round" />
  <path d="M76.02,67.41 C75.84,67.67 75.64,67.94 75.43,68.20" fill="currentColor" stroke="currentColor" stroke-width="1.2" stroke-linecap="round" stroke-linejoin="round" />
  <path d="M64.67,67.90 C64.67,68.11 64.63,68.30 64.54,68.45" fill="currentColor" stroke="currentColor" stroke-width="1.2" stroke-linecap="round" stroke-linejoin="round" />
  <line x1="87.70" y1="69.76" x2="87.70" y2="66.60" fill="currentColor" stroke="currentColor" stroke-width="1.2" stroke-linecap="round" stroke-linejoin="round" />
  <line x1="90.43" y1="69.76" x2="90.43" y2="66.60" fill="currentColor" stroke="currentColor" stroke-width="1.2" stroke-linecap="round" stroke-linejoin="round" />
  <path d="M75.88,68.86 C76.24,68.43 76.56,68.04 76.82,67.69" fill="currentColor" stroke="currentColor" stroke-width="1.2" stroke-linecap="round" stroke-linejoin="round" />
  <path d="M65.35,68.89 C65.53,68.59 65.62,68.24 65.62,67.85" fill="currentColor" stroke="currentColor" stroke-width="1.2" stroke-linecap="round" stroke-linejoin="round" />
  <line x1="93.16" y1="69.76" x2="93.16" y2="67.03" fill="currentColor" stroke="currentColor" stroke-width="1.2" stroke-linecap="round" stroke-linejoin="round" />
  <line x1="89.57" y1="67.06" x2="89.57" y2="69.76" fill="currentColor" stroke="currentColor" stroke-width="1.2" stroke-linecap="round" stroke-linejoin="round" />
  <line x1="92.30" y1="67.07" x2="92.30" y2="69.76" fill="currentColor" stroke="currentColor" stroke-width="1.2" stroke-linecap="round" stroke-linejoin="round" />
  <path d="M75.43,68.20 C75.22,68.47 75.01,68.73 74.81,68.98" fill="currentColor" stroke="currentColor" stroke-width="1.2" stroke-linecap="round" stroke-linejoin="round" />
  <path d="M64.54,68.45 C64.45,68.61 64.33,68.73 64.17,68.82" fill="currentColor" stroke="currentColor" stroke-width="1.2" stroke-linecap="round" stroke-linejoin="round" />
  <path d="M62.88,68.83 C62.63,68.74 62.39,68.62 62.13,68.45" fill="currentColor" stroke="currentColor" stroke-width="1.2" stroke-linecap="round" stroke-linejoin="round" />
  <line x1="78.40" y1="68.86" x2="75.88" y2="68.86" fill="currentColor" stroke="currentColor" stroke-width="1.2" stroke-linecap="round" stroke-linejoin="round" />
  <path d="M64.17,68.82 C64.01,68.91 63.82,68.95 63.61,68.95" fill="currentColor" stroke="currentColor" stroke-width="1.2" stroke-linecap="round" stroke-linejoin="round" />
  <path d="M63.61,68.95 C63.36,68.95 63.12,68.91 62.88,68.83" fill="currentColor" stroke="currentColor" stroke-width="1.2" stroke-linecap="round" stroke-linejoin="round" />
  <line x1="62.13" y1="68.45" x2="62.13" y2="69.47" fill="currentColor" stroke="currentColor" stroke-width="1.2" stroke-linecap="round" stroke-linejoin="round" />
  <path d="M64.62,69.59 C64.93,69.43 65.17,69.19 65.35,68.89" fill="currentColor" stroke="currentColor" stroke-width="1.2" stroke-linecap="round" stroke-linejoin="round" />
  <line x1="78.40" y1="69.76" x2="78.40" y2="68.86" fill="currentColor" stroke="currentColor" stroke-width="1.2" stroke-linecap="round" stroke-linejoin="round" />
  <path d="M74.81,68.98 C74.60,69.24 74.40,69.47 74.22,69.70" fill="currentColor" stroke="currentColor" stroke-width="1.2" stroke-linecap="round" stroke-linejoin="round" />
  <polygon points="8.00,39.57 104.16,8.00 138.82,99.53 42.65,131.10" fill="none" stroke="currentColor" stroke-width="1.4079999446868896" stroke-linecap="round" stroke-linejoin="round" />
  <path d="M62.13,69.47 C62.37,69.60 62.61,69.69 62.84,69.75" fill="currentColor" stroke="currentColor" stroke-width="1.2" stroke-linecap="round" stroke-linejoin="round" />
  <line x1="69.96" y1="69.48" x2="70.80" y2="69.85" fill="currentColor" stroke="currentColor" stroke-width="1.2" stroke-linecap="round" stroke-linejoin="round" />
  <path d="M63.54,69.85 C63.95,69.85 64.31,69.76 64.62,69.59" fill="currentColor" stroke="currentColor" stroke-width="1.2" stroke-linecap="round" stroke-linejoin="round" />
  <line x1="74.22" y1="69.70" x2="74.22" y2="69.76" fill="currentColor" stroke="currentColor" stroke-width="1.2" stroke-linecap="round" stroke-linejoin="round" />
  <line x1="80.92" y1="69.76" x2="81.91" y2="69.76" fill="currentColor" stroke="currentColor" stroke-width="1.2" stroke-linecap="round" stroke-linejoin="round" />
  <line x1="74.22" y1="69.76" x2="78.40" y2="69.76" fill="currentColor" stroke="currentColor" stroke-width="1.2" stroke-linecap="round" stroke-linejoin="round" />
  <line x1="86.84" y1="69.76" x2="87.70" y2="69.76" fill="currentColor" stroke="currentColor" stroke-width="1.2" stroke-linecap="round" stroke-linejoin="round" />
  <line x1="89.57" y1="69.76" x2="90.43" y2="69.76" fill="currentColor" stroke="currentColor" stroke-width="1.2" stroke-linecap="round" stroke-linejoin="round" />
  <line x1="92.30" y1="69.76" x2="93.16" y2="69.76" fill="currentColor" stroke="currentColor" stroke-width="1.2" stroke-linecap="round" stroke-linejoin="round" />
  <path d="M62.84,69.75 C63.08,69.82 63.31,69.85 63.54,69.85" fill="currentColor" stroke="currentColor" stroke-width="1.2" stroke-linecap="round" stroke-linejoin="round" />
  <line x1="139.14" y1="99.67" x2="171.78" y2="99.32" fill="none" stroke="currentColor" stroke-width="1.408999991416931" stroke-linecap="round" stroke-linejoin="round" />
  <line x1="145.64" y1="111.87" x2="145.28" y2="111.87" fill="currentColor" stroke="currentColor" stroke-width="1.2" stroke-linecap="round" stroke-linejoin="round" />
  <line x1="155.32" y1="111.87" x2="154.97" y2="111.87" fill="currentColor" stroke="currentColor" stroke-width="1.2" stroke-linecap="round" stroke-linejoin="round" />
  <path d="M149.33,111.87 C149.07,111.87 148.81,111.92 148.55,112.03" fill="currentColor" stroke="currentColor" stroke-width="1.2" stroke-linecap="round" stroke-linejoin="round" />
  <path d="M150.38,112.14 C150.08,111.96 149.73,111.88 149.33,111.87" fill="currentColor" stroke="currentColor" stroke-width="1.2" stroke-linecap="round" stroke-linejoin="round" />
  <path d="M168.16,112.02 C168.03,112.02 167.90,112.05 167.77,112.10" fill="currentColor" stroke="currentColor" stroke-width="1.2" stroke-linecap="round" stroke-linejoin="round" />
  <path d="M168.69,112.15 C168.54,112.07 168.36,112.02 168.16,112.02" fill="currentColor" stroke="currentColor" stroke-width="1.2" stroke-linecap="round" stroke-linejoin="round" />
  <path d="M167.77,112.10 C167.64,112.15 167.51,112.23 167.38,112.34" fill="currentColor" stroke="currentColor" stroke-width="1.2" stroke-linecap="round" stroke-linejoin="round" />
  <path d="M148.55,112.03 C148.30,112.13 148.04,112.29 147.77,112.50" fill="currentColor" stroke="currentColor" stroke-width="1.2" stroke-linecap="round" stroke-linejoin="round" />
  <path d="M169.04,112.51 C168.95,112.36 168.84,112.24 168.69,112.15" fill="currentColor" stroke="currentColor" stroke-width="1.2" stroke-linecap="round" stroke-linejoin="round" />
  <path d="M151.09,112.86 C150.92,112.55 150.68,112.31 150.38,112.14" fill="currentColor" stroke="currentColor" stroke-width="1.2" stroke-linecap="round" stroke-linejoin="round" />
  <path d="M167.89,112.53 C167.97,112.50 168.05,112.49 168.13,112.49" fill="currentColor" stroke="currentColor" stroke-width="1.2" stroke-linecap="round" stroke-linejoin="round" />
  <path d="M168.13,112.49 C168.24,112.49 168.33,112.51 168.42,112.57" fill="currentColor" stroke="currentColor" stroke-width="1.2" stroke-linecap="round" stroke-linejoin="round" />
  <path d="M167.64,112.67 C167.72,112.60 167.81,112.55 167.89,112.53" fill="currentColor" stroke="currentColor" stroke-width="1.2" stroke-linecap="round" stroke-linejoin="round" />
  <line x1="167.38" y1="112.34" x2="167.38" y2="112.93" fill="currentColor" stroke="currentColor" stroke-width="1.2" stroke-linecap="round" stroke-linejoin="round" />
  <path d="M168.42,112.57 C168.50,112.62 168.57,112.69 168.62,112.78" fill="currentColor" stroke="currentColor" stroke-width="1.2" stroke-linecap="round" stroke-linejoin="round" />
  <path d="M169.17,113.05 C169.17,112.85 169.12,112.67 169.04,112.51" fill="currentColor" stroke="currentColor" stroke-width="1.2" stroke-linecap="round" stroke-linejoin="round" />
  <line x1="145.28" y1="111.87" x2="143.02" y2="113.71" fill="currentColor" stroke="currentColor" stroke-width="1.2" stroke-linecap="round" stroke-linejoin="round" />
  <line x1="154.97" y1="111.87" x2="152.71" y2="113.71" fill="currentColor" stroke="currentColor" stroke-width="1.2" stroke-linecap="round" stroke-linejoin="round" />
  <path d="M167.38,112.93 C167.47,112.82 167.56,112.73 167.64,112.67" fill="currentColor" stroke="currentColor" stroke-width="1.2" stroke-linecap="round" stroke-linejoin="round" />
  <path d="M148.78,112.88 C148.95,112.83 149.10,112.80 149.26,112.80" fill="currentColor" stroke="currentColor" stroke-width="1.2" stroke-linecap="round" stroke-linejoin="round" />
  <path d="M149.26,112.80 C149.48,112.80 149.68,112.86 149.85,112.96" fill="currentColor" stroke="currentColor" stroke-width="1.2" stroke-linecap="round" stroke-linejoin="round" />
  <path d="M168.62,112.78 C168.67,112.88 168.69,112.98 168.69,113.11" fill="currentColor" stroke="currentColor" stroke-width="1.2" stroke-linecap="round" stroke-linejoin="round" />
  <path d="M148.29,113.16 C148.46,113.03 148.62,112.94 148.78,112.88" fill="currentColor" stroke="currentColor" stroke-width="1.2" stroke-linecap="round" stroke-linejoin="round" />
  <line x1="147.77" y1="112.50" x2="147.77" y2="113.69" fill="currentColor" stroke="currentColor" stroke-width="1.2" stroke-linecap="round" stroke-linejoin="round" />
  <path d="M149.85,112.96 C150.01,113.07 150.15,113.21 150.25,113.40" fill="currentColor" stroke="currentColor" stroke-width="1.2" stroke-linecap="round" stroke-linejoin="round" />
  <path d="M168.69,113.11 C168.69,113.20 168.68,113.28 168.67,113.35" fill="currentColor" stroke="currentColor" stroke-width="1.2" stroke-linecap="round" stroke-linejoin="round" />
  <path d="M169.11,113.45 C169.15,113.32 169.17,113.19 169.17,113.05" fill="currentColor" stroke="currentColor" stroke-width="1.2" stroke-linecap="round" stroke-linejoin="round" />
  <path d="M151.34,113.93 C151.34,113.53 151.26,113.17 151.09,112.86" fill="currentColor" stroke="currentColor" stroke-width="1.2" stroke-linecap="round" stroke-linejoin="round" />
  <path d="M147.77,113.69 C147.95,113.47 148.12,113.29 148.29,113.16" fill="currentColor" stroke="currentColor" stroke-width="1.2" stroke-linecap="round" stroke-linejoin="round" />
  <path d="M168.67,113.35 C168.65,113.43 168.62,113.50 168.59,113.57" fill="currentColor" stroke="currentColor" stroke-width="1.2" stroke-linecap="round" stroke-linejoin="round" />
  <path d="M168.93,113.86 C169.01,113.71 169.07,113.58 169.11,113.45" fill="currentColor" stroke="currentColor" stroke-width="1.2" stroke-linecap="round" stroke-linejoin="round" />
  <path d="M168.59,113.57 C168.56,113.65 168.51,113.73 168.46,113.81" fill="currentColor" stroke="currentColor" stroke-width="1.2" stroke-linecap="round" stroke-linejoin="round" />
  <path d="M150.25,113.40 C150.34,113.58 150.39,113.80 150.40,114.04" fill="currentColor" stroke="currentColor" stroke-width="1.2" stroke-linecap="round" stroke-linejoin="round" />
  <path d="M168.46,113.81 C168.39,113.93 168.31,114.06 168.21,114.19" fill="currentColor" stroke="currentColor" stroke-width="1.2" stroke-linecap="round" stroke-linejoin="round" />
  <line x1="143.39" y1="114.54" x2="144.65" y2="113.50" fill="currentColor" stroke="currentColor" stroke-width="1.2" stroke-linecap="round" stroke-linejoin="round" />
  <line x1="153.08" y1="114.54" x2="154.34" y2="113.50" fill="currentColor" stroke="currentColor" stroke-width="1.2" stroke-linecap="round" stroke-linejoin="round" />
  <path d="M168.61,114.33 C168.74,114.16 168.85,114.00 168.93,113.86" fill="currentColor" stroke="currentColor" stroke-width="1.2" stroke-linecap="round" stroke-linejoin="round" />
  <line x1="143.02" y1="113.71" x2="143.39" y2="114.54" fill="currentColor" stroke="currentColor" stroke-width="1.2" stroke-linecap="round" stroke-linejoin="round" />
  <line x1="152.71" y1="113.71" x2="153.08" y2="114.54" fill="currentColor" stroke="currentColor" stroke-width="1.2" stroke-linecap="round" stroke-linejoin="round" />
  <path d="M165.13,114.13 C164.93,114.13 164.74,114.17 164.56,114.24" fill="currentColor" stroke="currentColor" stroke-width="1.2" stroke-linecap="round" stroke-linejoin="round" />
  <path d="M162.38,114.13 C162.18,114.13 161.97,114.18 161.76,114.29" fill="currentColor" stroke="currentColor" stroke-width="1.2" stroke-linecap="round" stroke-linejoin="round" />
  <line x1="161.11" y1="114.22" x2="160.25" y2="114.22" fill="currentColor" stroke="currentColor" stroke-width="1.2" stroke-linecap="round" stroke-linejoin="round" />
  <path d="M163.13,114.33 C162.91,114.20 162.66,114.13 162.38,114.13" fill="currentColor" stroke="currentColor" stroke-width="1.2" stroke-linecap="round" stroke-linejoin="round" />
  <path d="M165.90,114.34 C165.68,114.20 165.43,114.13 165.13,114.13" fill="currentColor" stroke="currentColor" stroke-width="1.2" stroke-linecap="round" stroke-linejoin="round" />
  <path d="M150.40,114.04 C150.40,114.22 150.38,114.39 150.34,114.54" fill="currentColor" stroke="currentColor" stroke-width="1.2" stroke-linecap="round" stroke-linejoin="round" />
  <path d="M151.23,114.72 C151.31,114.46 151.34,114.20 151.34,113.93" fill="currentColor" stroke="currentColor" stroke-width="1.2" stroke-linecap="round" stroke-linejoin="round" />
  <path d="M164.56,114.24 C164.39,114.31 164.23,114.40 164.09,114.52" fill="currentColor" stroke="currentColor" stroke-width="1.2" stroke-linecap="round" stroke-linejoin="round" />
  <path d="M168.21,114.19 C168.12,114.32 168.02,114.45 167.92,114.59" fill="currentColor" stroke="currentColor" stroke-width="1.2" stroke-linecap="round" stroke-linejoin="round" />
  <line x1="161.11" y1="114.79" x2="161.11" y2="114.22" fill="currentColor" stroke="currentColor" stroke-width="1.2" stroke-linecap="round" stroke-linejoin="round" />
  <path d="M161.76,114.29 C161.55,114.40 161.34,114.56 161.11,114.79" fill="currentColor" stroke="currentColor" stroke-width="1.2" stroke-linecap="round" stroke-linejoin="round" />
  <path d="M163.68,114.91 C163.53,114.66 163.35,114.46 163.13,114.33" fill="currentColor" stroke="currentColor" stroke-width="1.2" stroke-linecap="round" stroke-linejoin="round" />
  <path d="M168.14,114.92 C168.32,114.70 168.48,114.50 168.61,114.33" fill="currentColor" stroke="currentColor" stroke-width="1.2" stroke-linecap="round" stroke-linejoin="round" />
  <path d="M166.40,114.93 C166.28,114.68 166.11,114.48 165.90,114.34" fill="currentColor" stroke="currentColor" stroke-width="1.2" stroke-linecap="round" stroke-linejoin="round" />
  <path d="M164.09,114.52 C163.94,114.64 163.80,114.77 163.68,114.91" fill="currentColor" stroke="currentColor" stroke-width="1.2" stroke-linecap="round" stroke-linejoin="round" />
  <path d="M150.34,114.54 C150.31,114.68 150.26,114.83 150.19,114.97" fill="currentColor" stroke="currentColor" stroke-width="1.2" stroke-linecap="round" stroke-linejoin="round" />
  <path d="M167.92,114.59 C167.81,114.72 167.71,114.85 167.61,114.98" fill="currentColor" stroke="currentColor" stroke-width="1.2" stroke-linecap="round" stroke-linejoin="round" />
  <path d="M161.80,114.90 C161.92,114.87 162.05,114.85 162.20,114.85" fill="currentColor" stroke="currentColor" stroke-width="1.2" stroke-linecap="round" stroke-linejoin="round" />
  <path d="M162.20,114.85 C162.34,114.85 162.47,114.89 162.59,114.96" fill="currentColor" stroke="currentColor" stroke-width="1.2" stroke-linecap="round" stroke-linejoin="round" />
  <path d="M164.81,114.85 C164.98,114.85 165.13,114.89 165.27,114.97" fill="currentColor" stroke="currentColor" stroke-width="1.2" stroke-linecap="round" stroke-linejoin="round" />
  <line x1="169.40" y1="114.92" x2="168.14" y2="114.92" fill="currentColor" stroke="currentColor" stroke-width="1.2" stroke-linecap="round" stroke-linejoin="round" />
  <path d="M164.34,115.01 C164.51,114.90 164.67,114.85 164.81,114.85" fill="currentColor" stroke="currentColor" stroke-width="1.2" stroke-linecap="round" stroke-linejoin="round" />
  <path d="M161.46,115.08 C161.57,115.00 161.68,114.94 161.80,114.90" fill="currentColor" stroke="currentColor" stroke-width="1.2" stroke-linecap="round" stroke-linejoin="round" />
  <path d="M162.59,114.96 C162.71,115.03 162.80,115.14 162.87,115.29" fill="currentColor" stroke="currentColor" stroke-width="1.2" stroke-linecap="round" stroke-linejoin="round" />
  <path d="M150.87,115.54 C151.03,115.26 151.15,114.98 151.23,114.72" fill="currentColor" stroke="currentColor" stroke-width="1.2" stroke-linecap="round" stroke-linejoin="round" />
  <path d="M165.27,114.97 C165.40,115.05 165.51,115.16 165.59,115.31" fill="currentColor" stroke="currentColor" stroke-width="1.2" stroke-linecap="round" stroke-linejoin="round" />
  <line x1="169.40" y1="115.37" x2="169.40" y2="114.92" fill="currentColor" stroke="currentColor" stroke-width="1.2" stroke-linecap="round" stroke-linejoin="round" />
  <path d="M167.61,114.98 C167.50,115.10 167.40,115.22 167.31,115.33" fill="currentColor" stroke="currentColor" stroke-width="1.2" stroke-linecap="round" stroke-linejoin="round" />
  <path d="M163.84,115.41 C164.00,115.24 164.17,115.11 164.34,115.01" fill="currentColor" stroke="currentColor" stroke-width="1.2" stroke-linecap="round" stroke-linejoin="round" />
  <path d="M150.19,114.97 C150.12,115.12 150.03,115.28 149.93,115.46" fill="currentColor" stroke="currentColor" stroke-width="1.2" stroke-linecap="round" stroke-linejoin="round" />
  <line x1="145.64" y1="118.56" x2="145.64" y2="111.87" fill="currentColor" stroke="currentColor" stroke-width="1.2" stroke-linecap="round" stroke-linejoin="round" />
  <line x1="155.32" y1="118.56" x2="155.32" y2="111.87" fill="currentColor" stroke="currentColor" stroke-width="1.2" stroke-linecap="round" stroke-linejoin="round" />
  <path d="M161.11,115.41 C161.23,115.27 161.35,115.16 161.46,115.08" fill="currentColor" stroke="currentColor" stroke-width="1.2" stroke-linecap="round" stroke-linejoin="round" />
  <line x1="171.22" y1="98.98" x2="171.57" y2="131.61" fill="none" stroke="currentColor" stroke-width="1.408999991416931" stroke-linecap="round" stroke-linejoin="round" />
  <line x1="139.08" y1="98.98" x2="139.43" y2="131.61" fill="none" stroke="currentColor" stroke-width="1.4079999446868896" stroke-linecap="round" stroke-linejoin="round" />
  <line x1="167.31" y1="115.33" x2="167.31" y2="115.37" fill="currentColor" stroke="currentColor" stroke-width="1.2" stroke-linecap="round" stroke-linejoin="round" />
  <line x1="167.31" y1="115.37" x2="169.40" y2="115.37" fill="currentColor" stroke="currentColor" stroke-width="1.2" stroke-linecap="round" stroke-linejoin="round" />
  <path d="M166.57,115.83 C166.57,115.49 166.51,115.19 166.40,114.93" fill="currentColor" stroke="currentColor" stroke-width="1.2" stroke-linecap="round" stroke-linejoin="round" />
  <path d="M162.87,115.29 C162.94,115.43 162.98,115.63 162.98,115.86" fill="currentColor" stroke="currentColor" stroke-width="1.2" stroke-linecap="round" stroke-linejoin="round" />
  <path d="M165.59,115.31 C165.67,115.47 165.71,115.65 165.71,115.87" fill="currentColor" stroke="currentColor" stroke-width="1.2" stroke-linecap="round" stroke-linejoin="round" />
  <path d="M149.93,115.46 C149.79,115.70 149.62,115.95 149.44,116.21" fill="currentColor" stroke="currentColor" stroke-width="1.2" stroke-linecap="round" stroke-linejoin="round" />
  <path d="M150.23,116.49 C150.49,116.15 150.71,115.83 150.87,115.54" fill="currentColor" stroke="currentColor" stroke-width="1.2" stroke-linecap="round" stroke-linejoin="round" />
  <line x1="144.65" y1="113.50" x2="144.65" y2="118.56" fill="currentColor" stroke="currentColor" stroke-width="1.2" stroke-linecap="round" stroke-linejoin="round" />
  <line x1="154.34" y1="113.50" x2="154.34" y2="118.56" fill="currentColor" stroke="currentColor" stroke-width="1.2" stroke-linecap="round" stroke-linejoin="round" />
  <line x1="160.25" y1="114.22" x2="160.25" y2="118.56" fill="currentColor" stroke="currentColor" stroke-width="1.2" stroke-linecap="round" stroke-linejoin="round" />
  <path d="M149.44,116.21 C149.25,116.47 149.05,116.74 148.85,117.00" fill="currentColor" stroke="currentColor" stroke-width="1.2" stroke-linecap="round" stroke-linejoin="round" />
  <line x1="161.11" y1="118.56" x2="161.11" y2="115.41" fill="currentColor" stroke="currentColor" stroke-width="1.2" stroke-linecap="round" stroke-linejoin="round" />
  <line x1="163.84" y1="118.56" x2="163.84" y2="115.41" fill="currentColor" stroke="currentColor" stroke-width="1.2" stroke-linecap="round" stroke-linejoin="round" />
  <path d="M149.29,117.66 C149.66,117.23 149.97,116.84 150.23,116.49" fill="currentColor" stroke="currentColor" stroke-width="1.2" stroke-linecap="round" stroke-linejoin="round" />
  <line x1="166.57" y1="118.56" x2="166.57" y2="115.83" fill="currentColor" stroke="currentColor" stroke-width="1.2" stroke-linecap="round" stroke-linejoin="round" />
  <line x1="162.98" y1="115.86" x2="162.98" y2="118.56" fill="currentColor" stroke="currentColor" stroke-width="1.2" stroke-linecap="round" stroke-linejoin="round" />
  <line x1="165.71" y1="115.87" x2="165.71" y2="118.56" fill="currentColor" stroke="currentColor" stroke-width="1.2" stroke-linecap="round" stroke-linejoin="round" />
  <path d="M148.85,117.00 C148.64,117.27 148.43,117.53 148.22,117.78" fill="currentColor" stroke="currentColor" stroke-width="1.2" stroke-linecap="round" stroke-linejoin="round" />
  <line x1="151.82" y1="117.66" x2="149.29" y2="117.66" fill="currentColor" stroke="currentColor" stroke-width="1.2" stroke-linecap="round" stroke-linejoin="round" />
  <line x1="151.82" y1="118.56" x2="151.82" y2="117.66" fill="currentColor" stroke="currentColor" stroke-width="1.2" stroke-linecap="round" stroke-linejoin="round" />
  <path d="M148.22,117.78 C148.01,118.04 147.82,118.27 147.64,118.50" fill="currentColor" stroke="currentColor" stroke-width="1.2" stroke-linecap="round" stroke-linejoin="round" />
  <line x1="147.64" y1="118.50" x2="147.64" y2="118.56" fill="currentColor" stroke="currentColor" stroke-width="1.2" stroke-linecap="round" stroke-linejoin="round" />
  <line x1="144.65" y1="118.56" x2="145.64" y2="118.56" fill="currentColor" stroke="currentColor" stroke-width="1.2" stroke-linecap="round" stroke-linejoin="round" />
  <line x1="154.34" y1="118.56" x2="155.32" y2="118.56" fill="currentColor" stroke="currentColor" stroke-width="1.2" stroke-linecap="round" stroke-linejoin="round" />
  <line x1="147.64" y1="118.56" x2="151.82" y2="118.56" fill="currentColor" stroke="currentColor" stroke-width="1.2" stroke-linecap="round" stroke-linejoin="round" />
  <line x1="160.25" y1="118.56" x2="161.11" y2="118.56" fill="currentColor" stroke="currentColor" stroke-width="1.2" stroke-linecap="round" stroke-linejoin="round" />
  <line x1="162.98" y1="118.56" x2="163.84" y2="118.56" fill="currentColor" stroke="currentColor" stroke-width="1.2" stroke-linecap="round" stroke-linejoin="round" />
  <line x1="165.71" y1="118.56" x2="166.57" y2="118.56" fill="currentColor" stroke="currentColor" stroke-width="1.2" stroke-linecap="round" stroke-linejoin="round" />
  <rect x="132.50" y="124.67" width="6.68" height="6.68" fill="none" stroke="currentColor" stroke-width="1.0" stroke-linecap="round" stroke-linejoin="round" />
  <line x1="139.55" y1="131.63" x2="172.18" y2="131.28" fill="none" stroke="currentColor" stroke-width="1.4079999446868896" stroke-linecap="round" stroke-linejoin="round" />
  <rect x="42.64" y="131.60" width="96.82" height="96.82" fill="none" stroke="currentColor" stroke-width="1.4079999446868896" stroke-linecap="round" stroke-linejoin="round" />
</svg>