<svg xmlns="http://www.w3.org/2000/svg" viewBox="0 0 198.71 92.86" preserveAspectRatio="xMidYMid meet" shape-rendering="geometricPrecision" text-rendering="optimizeLegibility">
  <path d="M81.49,8.06 C81.24,8.02 80.99,8.00 80.74,8.00" fill="currentColor" stroke="currentColor" stroke-width="1.2" stroke-linecap="round" stroke-linejoin="round" />
  <path d="M80.74,8.00 C80.17,8.00 79.64,8.10 79.16,8.29" fill="currentColor" stroke="currentColor" stroke-width="1.2" stroke-linecap="round" stroke-linejoin="round" />
  <path d="M82.30,8.25 C82.02,8.17 81.75,8.10 81.49,8.06" fill="currentColor" stroke="currentColor" stroke-width="1.2" stroke-linecap="round" stroke-linejoin="round" />
  <path d="M83.21,8.59 C82.89,8.45 82.58,8.34 82.30,8.25" fill="currentColor" stroke="currentColor" stroke-width="1.2" stroke-linecap="round" stroke-linejoin="round" />
  <line x1="172.96" y1="8.63" x2="170.16" y2="8.63" fill="currentColor" stroke="currentColor" stroke-width="1.2" stroke-linecap="round" stroke-linejoin="round" />
  <path d="M79.16,8.29 C78.68,8.47 78.26,8.74 77.91,9.08" fill="currentColor" stroke="currentColor" stroke-width="1.2" stroke-linecap="round" stroke-linejoin="round" />
  <path d="M174.38,8.84 C173.96,8.70 173.49,8.63 172.96,8.63" fill="currentColor" stroke="currentColor" stroke-width="1.2" stroke-linecap="round" stroke-linejoin="round" />
  <path d="M80.73,8.95 C81.14,8.95 81.55,9.01 81.95,9.13" fill="currentColor" stroke="currentColor" stroke-width="1.2" stroke-linecap="round" stroke-linejoin="round" />
  <path d="M79.59,9.16 C79.94,9.02 80.32,8.95 80.73,8.95" fill="currentColor" stroke="currentColor" stroke-width="1.2" stroke-linecap="round" stroke-linejoin="round" />
  <path d="M175.46,9.41 C175.15,9.17 174.79,8.98 174.38,8.84" fill="currentColor" stroke="currentColor" stroke-width="1.2" stroke-linecap="round" stroke-linejoin="round" />
  <line x1="83.21" y1="9.70" x2="83.21" y2="8.59" fill="currentColor" stroke="currentColor" stroke-width="1.2" stroke-linecap="round" stroke-linejoin="round" />
  <path d="M81.95,9.13 C82.35,9.25 82.77,9.44 83.21,9.70" fill="currentColor" stroke="currentColor" stroke-width="1.2" stroke-linecap="round" stroke-linejoin="round" />
  <path d="M78.68,9.73 C78.94,9.49 79.24,9.30 79.59,9.16" fill="currentColor" stroke="currentColor" stroke-width="1.2" stroke-linecap="round" stroke-linejoin="round" />
  <line x1="171.19" y1="9.56" x2="172.79" y2="9.56" fill="currentColor" stroke="currentColor" stroke-width="1.2" stroke-linecap="round" stroke-linejoin="round" />
  <path d="M172.79,9.56 C173.29,9.56 173.73,9.63 174.10,9.77" fill="currentColor" stroke="currentColor" stroke-width="1.2" stroke-linecap="round" stroke-linejoin="round" />
  <path d="M77.91,9.08 C77.55,9.42 77.28,9.82 77.09,10.28" fill="currentColor" stroke="currentColor" stroke-width="1.2" stroke-linecap="round" stroke-linejoin="round" />
  <path d="M176.21,10.23 C176.01,9.92 175.76,9.65 175.46,9.41" fill="currentColor" stroke="currentColor" stroke-width="1.2" stroke-linecap="round" stroke-linejoin="round" />
  <path d="M174.10,9.77 C174.47,9.91 174.77,10.11 175.01,10.35" fill="currentColor" stroke="currentColor" stroke-width="1.2" stroke-linecap="round" stroke-linejoin="round" />
  <path d="M78.08,10.61 C78.22,10.27 78.42,9.98 78.68,9.73" fill="currentColor" stroke="currentColor" stroke-width="1.2" stroke-linecap="round" stroke-linejoin="round" />
  <path d="M176.65,11.20 C176.55,10.86 176.41,10.54 176.21,10.23" fill="currentColor" stroke="currentColor" stroke-width="1.2" stroke-linecap="round" stroke-linejoin="round" />
  <path d="M175.01,10.35 C175.25,10.60 175.43,10.88 175.55,11.20" fill="currentColor" stroke="currentColor" stroke-width="1.2" stroke-linecap="round" stroke-linejoin="round" />
  <path d="M77.09,10.28 C76.89,10.74 76.80,11.25 76.79,11.80" fill="currentColor" stroke="currentColor" stroke-width="1.2" stroke-linecap="round" stroke-linejoin="round" />
  <path d="M77.86,11.71 C77.86,11.31 77.93,10.94 78.08,10.61" fill="currentColor" stroke="currentColor" stroke-width="1.2" stroke-linecap="round" stroke-linejoin="round" />
  <path d="M176.79,12.23 C176.79,11.89 176.74,11.54 176.65,11.20" fill="currentColor" stroke="currentColor" stroke-width="1.2" stroke-linecap="round" stroke-linejoin="round" />
  <path d="M175.55,11.20 C175.67,11.52 175.73,11.87 175.73,12.23" fill="currentColor" stroke="currentColor" stroke-width="1.2" stroke-linecap="round" stroke-linejoin="round" />
  <line x1="170.16" y1="8.63" x2="170.16" y2="15.83" fill="currentColor" stroke="currentColor" stroke-width="1.2" stroke-linecap="round" stroke-linejoin="round" />
  <line x1="171.19" y1="14.90" x2="171.19" y2="9.56" fill="currentColor" stroke="currentColor" stroke-width="1.2" stroke-linecap="round" stroke-linejoin="round" />
  <path d="M76.79,11.80 C76.79,12.11 76.84,12.42 76.94,12.75" fill="currentColor" stroke="currentColor" stroke-width="1.2" stroke-linecap="round" stroke-linejoin="round" />
  <path d="M78.23,13.13 C77.99,12.72 77.86,12.25 77.86,11.71" fill="currentColor" stroke="currentColor" stroke-width="1.2" stroke-linecap="round" stroke-linejoin="round" />
  <path d="M175.73,12.23 C175.73,12.41 175.70,12.62 175.65,12.85" fill="currentColor" stroke="currentColor" stroke-width="1.2" stroke-linecap="round" stroke-linejoin="round" />
  <path d="M176.62,13.31 C176.73,12.96 176.79,12.60 176.79,12.23" fill="currentColor" stroke="currentColor" stroke-width="1.2" stroke-linecap="round" stroke-linejoin="round" />
  <line x1="9.58" y1="13.01" x2="8.54" y2="13.01" fill="currentColor" stroke="currentColor" stroke-width="1.2" stroke-linecap="round" stroke-linejoin="round" />
  <path d="M175.65,12.85 C175.60,13.08 175.51,13.31 175.39,13.55" fill="currentColor" stroke="currentColor" stroke-width="1.2" stroke-linecap="round" stroke-linejoin="round" />
  <path d="M76.94,12.75 C77.03,13.08 77.18,13.40 77.38,13.72" fill="currentColor" stroke="currentColor" stroke-width="1.2" stroke-linecap="round" stroke-linejoin="round" />
  <path d="M79.25,14.09 C78.81,13.86 78.47,13.54 78.23,13.13" fill="currentColor" stroke="currentColor" stroke-width="1.2" stroke-linecap="round" stroke-linejoin="round" />
  <path d="M176.13,14.30 C176.35,13.99 176.51,13.66 176.62,13.31" fill="currentColor" stroke="currentColor" stroke-width="1.2" stroke-linecap="round" stroke-linejoin="round" />
  <path d="M175.39,13.55 C175.26,13.79 175.09,14.01 174.87,14.22" fill="currentColor" stroke="currentColor" stroke-width="1.2" stroke-linecap="round" stroke-linejoin="round" />
  <path d="M83.29,13.63 C82.88,13.89 82.46,14.09 82.03,14.23" fill="currentColor" stroke="currentColor" stroke-width="1.2" stroke-linecap="round" stroke-linejoin="round" />
  <path d="M77.38,13.72 C77.58,14.03 77.83,14.31 78.14,14.56" fill="currentColor" stroke="currentColor" stroke-width="1.2" stroke-linecap="round" stroke-linejoin="round" />
  <line x1="83.29" y1="14.76" x2="83.29" y2="13.63" fill="currentColor" stroke="currentColor" stroke-width="1.2" stroke-linecap="round" stroke-linejoin="round" />
  <path d="M80.77,14.44 C80.19,14.44 79.68,14.32 79.25,14.09" fill="currentColor" stroke="currentColor" stroke-width="1.2" stroke-linecap="round" stroke-linejoin="round" />
  <path d="M82.03,14.23 C81.60,14.37 81.18,14.44 80.77,14.44" fill="currentColor" stroke="currentColor" stroke-width="1.2" stroke-linecap="round" stroke-linejoin="round" />
  <path d="M174.87,14.22 C174.65,14.42 174.37,14.58 174.04,14.71" fill="currentColor" stroke="currentColor" stroke-width="1.2" stroke-linecap="round" stroke-linejoin="round" />
  <path d="M175.34,15.10 C175.65,14.87 175.91,14.60 176.13,14.30" fill="currentColor" stroke="currentColor" stroke-width="1.2" stroke-linecap="round" stroke-linejoin="round" />
  <path d="M174.04,14.71 C173.71,14.83 173.31,14.90 172.84,14.90" fill="currentColor" stroke="currentColor" stroke-width="1.2" stroke-linecap="round" stroke-linejoin="round" />
  <path d="M78.14,14.56 C78.45,14.81 78.82,15.01 79.24,15.16" fill="currentColor" stroke="currentColor" stroke-width="1.2" stroke-linecap="round" stroke-linejoin="round" />
  <line x1="172.84" y1="14.90" x2="171.19" y2="14.90" fill="currentColor" stroke="currentColor" stroke-width="1.2" stroke-linecap="round" stroke-linejoin="round" />
  <path d="M82.55,15.08 C82.81,14.99 83.05,14.88 83.29,14.76" fill="currentColor" stroke="currentColor" stroke-width="1.2" stroke-linecap="round" stroke-linejoin="round" />
  <path d="M81.70,15.31 C82.01,15.25 82.29,15.18 82.55,15.08" fill="currentColor" stroke="currentColor" stroke-width="1.2" stroke-linecap="round" stroke-linejoin="round" />
  <path d="M79.24,15.16 C79.66,15.31 80.14,15.39 80.68,15.39" fill="currentColor" stroke="currentColor" stroke-width="1.2" stroke-linecap="round" stroke-linejoin="round" />
  <path d="M80.68,15.39 C81.05,15.39 81.39,15.36 81.70,15.31" fill="currentColor" stroke="currentColor" stroke-width="1.2" stroke-linecap="round" stroke-linejoin="round" />
  <path d="M174.28,15.63 C174.68,15.50 175.03,15.33 175.34,15.10" fill="currentColor" stroke="currentColor" stroke-width="1.2" stroke-linecap="round" stroke-linejoin="round" />
  <path d="M172.97,15.83 C173.44,15.83 173.88,15.76 174.28,15.63" fill="currentColor" stroke="currentColor" stroke-width="1.2" stroke-linecap="round" stroke-linejoin="round" />
  <line x1="170.16" y1="15.83" x2="172.97" y2="15.83" fill="currentColor" stroke="currentColor" stroke-width="1.2" stroke-linecap="round" stroke-linejoin="round" />
  <line x1="9.58" y1="19.29" x2="9.58" y2="13.01" fill="currentColor" stroke="currentColor" stroke-width="1.2" stroke-linecap="round" stroke-linejoin="round" />
  <line x1="8.54" y1="13.01" x2="8.54" y2="20.21" fill="currentColor" stroke="currentColor" stroke-width="1.2" stroke-linecap="round" stroke-linejoin="round" />
  <line x1="14.67" y1="18.15" x2="14.48" y2="18.15" fill="currentColor" stroke="currentColor" stroke-width="1.2" stroke-linecap="round" stroke-linejoin="round" />
  <line x1="18.20" y1="18.30" x2="190.71" y2="18.30" fill="none" stroke="currentColor" stroke-width="1.1900000095367431" stroke-linecap="round" stroke-linejoin="round" />
  <line x1="14.48" y1="18.15" x2="13.24" y2="19.15" fill="currentColor" stroke="currentColor" stroke-width="1.2" stroke-linecap="round" stroke-linejoin="round" />
  <line x1="12.83" y1="19.29" x2="9.58" y2="19.29" fill="currentColor" stroke="currentColor" stroke-width="1.2" stroke-linecap="round" stroke-linejoin="round" />
  <line x1="13.45" y1="19.60" x2="14.13" y2="19.04" fill="currentColor" stroke="currentColor" stroke-width="1.2" stroke-linecap="round" stroke-linejoin="round" />
  <line x1="13.24" y1="19.15" x2="13.45" y2="19.60" fill="currentColor" stroke="currentColor" stroke-width="1.2" stroke-linecap="round" stroke-linejoin="round" />
  <line x1="12.83" y1="20.21" x2="12.83" y2="19.29" fill="currentColor" stroke="currentColor" stroke-width="1.2" stroke-linecap="round" stroke-linejoin="round" />
  <line x1="14.67" y1="21.80" x2="14.67" y2="18.15" fill="currentColor" stroke="currentColor" stroke-width="1.2" stroke-linecap="round" stroke-linejoin="round" />
  <line x1="8.54" y1="20.21" x2="12.83" y2="20.21" fill="currentColor" stroke="currentColor" stroke-width="1.2" stroke-linecap="round" stroke-linejoin="round" />
  <line x1="14.13" y1="19.04" x2="14.13" y2="21.80" fill="currentColor" stroke="currentColor" stroke-width="1.2" stroke-linecap="round" stroke-linejoin="round" />
  <line x1="14.13" y1="21.80" x2="14.67" y2="21.80" fill="currentColor" stroke="currentColor" stroke-width="1.2" stroke-linecap="round" stroke-linejoin="round" />
  <line x1="79.96" y1="18.27" x2="109.85" y2="74.39" fill="none" stroke="currentColor" stroke-width="1.1900000095367431" stroke-linecap="round" stroke-linejoin="round" />
  <line x1="109.85" y1="74.39" x2="172.17" y2="18.27" fill="none" stroke="currentColor" stroke-width="1.1900000095367431" stroke-linecap="round" stroke-linejoin="round" />
  <line x1="47.57" y1="74.41" x2="79.96" y2="18.27" fill="none" stroke="currentColor" stroke-width="1.1900000095367431" stroke-linecap="round" stroke-linejoin="round" />
  <line x1="47.40" y1="74.45" x2="172.38" y2="18.27" fill="none" stroke="currentColor" stroke-width="1.1900000095367431" stroke-linecap="round" stroke-linejoin="round" />
  <line x1="9.03" y1="69.42" x2="8.00" y2="69.42" fill="currentColor" stroke="currentColor" stroke-width="1.2" stroke-linecap="round" stroke-linejoin="round" />
  <line x1="9.03" y1="75.70" x2="9.03" y2="69.42" fill="currentColor" stroke="currentColor" stroke-width="1.2" stroke-linecap="round" stroke-linejoin="round" />
  <line x1="8.00" y1="69.42" x2="8.00" y2="76.62" fill="currentColor" stroke="currentColor" stroke-width="1.2" stroke-linecap="round" stroke-linejoin="round" />
  <line x1="18.20" y1="74.40" x2="190.71" y2="74.40" fill="none" stroke="currentColor" stroke-width="1.1900000095367431" stroke-linecap="round" stroke-linejoin="round" />
  <path d="M13.50,74.56 C13.36,74.56 13.21,74.59 13.08,74.64" fill="currentColor" stroke="currentColor" stroke-width="1.2" stroke-linecap="round" stroke-linejoin="round" />
  <path d="M14.07,74.70 C13.91,74.61 13.72,74.56 13.50,74.56" fill="currentColor" stroke="currentColor" stroke-width="1.2" stroke-linecap="round" stroke-linejoin="round" />
  <path d="M13.08,74.64 C12.94,74.70 12.79,74.79 12.65,74.90" fill="currentColor" stroke="currentColor" stroke-width="1.2" stroke-linecap="round" stroke-linejoin="round" />
  <path d="M14.46,75.10 C14.37,74.93 14.24,74.80 14.07,74.70" fill="currentColor" stroke="currentColor" stroke-width="1.2" stroke-linecap="round" stroke-linejoin="round" />
  <path d="M13.20,75.11 C13.29,75.08 13.38,75.06 13.46,75.07" fill="currentColor" stroke="currentColor" stroke-width="1.2" stroke-linecap="round" stroke-linejoin="round" />
  <path d="M13.46,75.07 C13.58,75.07 13.69,75.10 13.78,75.15" fill="currentColor" stroke="currentColor" stroke-width="1.2" stroke-linecap="round" stroke-linejoin="round" />
  <path d="M12.93,75.26 C13.02,75.19 13.11,75.14 13.20,75.11" fill="currentColor" stroke="currentColor" stroke-width="1.2" stroke-linecap="round" stroke-linejoin="round" />
  <line x1="12.65" y1="74.90" x2="12.65" y2="75.55" fill="currentColor" stroke="currentColor" stroke-width="1.2" stroke-linecap="round" stroke-linejoin="round" />
  <path d="M13.78,75.15 C13.87,75.21 13.95,75.29 14.00,75.39" fill="currentColor" stroke="currentColor" stroke-width="1.2" stroke-linecap="round" stroke-linejoin="round" />
  <path d="M14.60,75.68 C14.60,75.46 14.55,75.27 14.46,75.10" fill="currentColor" stroke="currentColor" stroke-width="1.2" stroke-linecap="round" stroke-linejoin="round" />
  <path d="M12.65,75.55 C12.75,75.43 12.84,75.33 12.93,75.26" fill="currentColor" stroke="currentColor" stroke-width="1.2" stroke-linecap="round" stroke-linejoin="round" />
  <path d="M14.00,75.39 C14.05,75.49 14.08,75.61 14.08,75.74" fill="currentColor" stroke="currentColor" stroke-width="1.2" stroke-linecap="round" stroke-linejoin="round" />
  <line x1="12.29" y1="75.70" x2="9.03" y2="75.70" fill="currentColor" stroke="currentColor" stroke-width="1.2" stroke-linecap="round" stroke-linejoin="round" />
  <path d="M14.08,75.74 C14.08,75.84 14.07,75.93 14.05,76.01" fill="currentColor" stroke="currentColor" stroke-width="1.2" stroke-linecap="round" stroke-linejoin="round" />
  <path d="M14.54,76.11 C14.58,75.97 14.60,75.83 14.60,75.68" fill="currentColor" stroke="currentColor" stroke-width="1.2" stroke-linecap="round" stroke-linejoin="round" />
  <path d="M14.05,76.01 C14.03,76.09 14.01,76.17 13.97,76.25" fill="currentColor" stroke="currentColor" stroke-width="1.2" stroke-linecap="round" stroke-linejoin="round" />
  <line x1="12.29" y1="76.62" x2="12.29" y2="75.70" fill="currentColor" stroke="currentColor" stroke-width="1.2" stroke-linecap="round" stroke-linejoin="round" />
  <path d="M14.34,76.56 C14.43,76.40 14.49,76.26 14.54,76.11" fill="currentColor" stroke="currentColor" stroke-width="1.2" stroke-linecap="round" stroke-linejoin="round" />
  <path d="M13.97,76.25 C13.93,76.33 13.88,76.42 13.83,76.51" fill="currentColor" stroke="currentColor" stroke-width="1.2" stroke-linecap="round" stroke-linejoin="round" />
  <line x1="8.00" y1="76.62" x2="12.29" y2="76.62" fill="currentColor" stroke="currentColor" stroke-width="1.2" stroke-linecap="round" stroke-linejoin="round" />
  <path d="M13.83,76.51 C13.75,76.64 13.66,76.78 13.56,76.92" fill="currentColor" stroke="currentColor" stroke-width="1.2" stroke-linecap="round" stroke-linejoin="round" />
  <path d="M13.99,77.08 C14.13,76.89 14.25,76.72 14.34,76.56" fill="currentColor" stroke="currentColor" stroke-width="1.2" stroke-linecap="round" stroke-linejoin="round" />
  <path d="M13.56,76.92 C13.46,77.07 13.35,77.21 13.24,77.36" fill="currentColor" stroke="currentColor" stroke-width="1.2" stroke-linecap="round" stroke-linejoin="round" />
  <path d="M13.48,77.72 C13.68,77.48 13.85,77.27 13.99,77.08" fill="currentColor" stroke="currentColor" stroke-width="1.2" stroke-linecap="round" stroke-linejoin="round" />
  <line x1="110.52" y1="77.54" x2="108.43" y2="77.54" fill="currentColor" stroke="currentColor" stroke-width="1.2" stroke-linecap="round" stroke-linejoin="round" />
  <path d="M13.24,77.36 C13.12,77.50 13.01,77.64 12.90,77.78" fill="currentColor" stroke="currentColor" stroke-width="1.2" stroke-linecap="round" stroke-linejoin="round" />
  <path d="M111.53,77.70 C111.25,77.59 110.91,77.54 110.52,77.54" fill="currentColor" stroke="currentColor" stroke-width="1.2" stroke-linecap="round" stroke-linejoin="round" />
  <line x1="45.60" y1="77.62" x2="44.87" y2="77.62" fill="currentColor" stroke="currentColor" stroke-width="1.2" stroke-linecap="round" stroke-linejoin="round" />
  <line x1="14.86" y1="77.72" x2="13.48" y2="77.72" fill="currentColor" stroke="currentColor" stroke-width="1.2" stroke-linecap="round" stroke-linejoin="round" />
  <path d="M112.22,78.11 C112.04,77.94 111.81,77.80 111.53,77.70" fill="currentColor" stroke="currentColor" stroke-width="1.2" stroke-linecap="round" stroke-linejoin="round" />
  <line x1="14.86" y1="78.21" x2="14.86" y2="77.72" fill="currentColor" stroke="currentColor" stroke-width="1.2" stroke-linecap="round" stroke-linejoin="round" />
  <path d="M12.90,77.78 C12.78,77.92 12.68,78.05 12.58,78.17" fill="currentColor" stroke="currentColor" stroke-width="1.2" stroke-linecap="round" stroke-linejoin="round" />
  <line x1="12.58" y1="78.17" x2="12.58" y2="78.21" fill="currentColor" stroke="currentColor" stroke-width="1.2" stroke-linecap="round" stroke-linejoin="round" />
  <line x1="12.58" y1="78.21" x2="14.86" y2="78.21" fill="currentColor" stroke="currentColor" stroke-width="1.2" stroke-linecap="round" stroke-linejoin="round" />
  <path d="M112.61,78.70 C112.53,78.49 112.40,78.29 112.22,78.11" fill="currentColor" stroke="currentColor" stroke-width="1.2" stroke-linecap="round" stroke-linejoin="round" />
  <line x1="109.47" y1="78.46" x2="110.42" y2="78.46" fill="currentColor" stroke="currentColor" stroke-width="1.2" stroke-linecap="round" stroke-linejoin="round" />
  <path d="M110.42,78.46 C110.73,78.47 110.98,78.51 111.17,78.60" fill="currentColor" stroke="currentColor" stroke-width="1.2" stroke-linecap="round" stroke-linejoin="round" />
  <path d="M111.17,78.60 C111.35,78.70 111.48,78.82 111.56,78.97" fill="currentColor" stroke="currentColor" stroke-width="1.2" stroke-linecap="round" stroke-linejoin="round" />
  <path d="M112.74,79.37 C112.74,79.14 112.70,78.92 112.61,78.70" fill="currentColor" stroke="currentColor" stroke-width="1.2" stroke-linecap="round" stroke-linejoin="round" />
  <path d="M111.56,78.97 C111.64,79.12 111.68,79.29 111.68,79.47" fill="currentColor" stroke="currentColor" stroke-width="1.2" stroke-linecap="round" stroke-linejoin="round" />
  <line x1="109.47" y1="80.62" x2="109.47" y2="78.46" fill="currentColor" stroke="currentColor" stroke-width="1.2" stroke-linecap="round" stroke-linejoin="round" />
  <path d="M112.47,80.31 C112.65,80.06 112.74,79.75 112.74,79.37" fill="currentColor" stroke="currentColor" stroke-width="1.2" stroke-linecap="round" stroke-linejoin="round" />
  <path d="M111.68,79.47 C111.68,79.85 111.55,80.14 111.30,80.33" fill="currentColor" stroke="currentColor" stroke-width="1.2" stroke-linecap="round" stroke-linejoin="round" />
  <path d="M111.30,80.33 C111.05,80.52 110.67,80.62 110.15,80.62" fill="currentColor" stroke="currentColor" stroke-width="1.2" stroke-linecap="round" stroke-linejoin="round" />
  <line x1="45.22" y1="79.21" x2="46.38" y2="81.81" fill="currentColor" stroke="currentColor" stroke-width="1.2" stroke-linecap="round" stroke-linejoin="round" />
  <line x1="44.14" y1="81.81" x2="45.22" y2="79.21" fill="currentColor" stroke="currentColor" stroke-width="1.2" stroke-linecap="round" stroke-linejoin="round" />
  <path d="M111.64,80.91 C112.02,80.76 112.29,80.56 112.47,80.31" fill="currentColor" stroke="currentColor" stroke-width="1.2" stroke-linecap="round" stroke-linejoin="round" />
  <line x1="110.15" y1="80.62" x2="109.47" y2="80.62" fill="currentColor" stroke="currentColor" stroke-width="1.2" stroke-linecap="round" stroke-linejoin="round" />
  <line x1="111.64" y1="80.94" x2="111.64" y2="80.91" fill="currentColor" stroke="currentColor" stroke-width="1.2" stroke-linecap="round" stroke-linejoin="round" />
  <path d="M112.57,81.30 C112.31,81.12 112.00,81.00 111.64,80.94" fill="currentColor" stroke="currentColor" stroke-width="1.2" stroke-linecap="round" stroke-linejoin="round" />
  <line x1="108.43" y1="77.54" x2="108.43" y2="84.74" fill="currentColor" stroke="currentColor" stroke-width="1.2" stroke-linecap="round" stroke-linejoin="round" />
  <line x1="44.87" y1="77.62" x2="41.78" y2="84.86" fill="currentColor" stroke="currentColor" stroke-width="1.2" stroke-linecap="round" stroke-linejoin="round" />
  <line x1="48.82" y1="84.86" x2="45.60" y2="77.62" fill="currentColor" stroke="currentColor" stroke-width="1.2" stroke-linecap="round" stroke-linejoin="round" />
  <line x1="109.47" y1="81.55" x2="110.71" y2="81.55" fill="currentColor" stroke="currentColor" stroke-width="1.2" stroke-linecap="round" stroke-linejoin="round" />
  <path d="M113.16,81.94 C113.03,81.68 112.83,81.47 112.57,81.30" fill="currentColor" stroke="currentColor" stroke-width="1.2" stroke-linecap="round" stroke-linejoin="round" />
  <path d="M110.71,81.55 C111.08,81.55 111.37,81.60 111.61,81.69" fill="currentColor" stroke="currentColor" stroke-width="1.2" stroke-linecap="round" stroke-linejoin="round" />
  <line x1="46.38" y1="81.81" x2="44.14" y2="81.81" fill="currentColor" stroke="currentColor" stroke-width="1.2" stroke-linecap="round" stroke-linejoin="round" />
  <path d="M111.61,81.69 C111.85,81.79 112.02,81.92 112.14,82.09" fill="currentColor" stroke="currentColor" stroke-width="1.2" stroke-linecap="round" stroke-linejoin="round" />
  <path d="M112.14,82.09 C112.25,82.25 112.31,82.45 112.31,82.67" fill="currentColor" stroke="currentColor" stroke-width="1.2" stroke-linecap="round" stroke-linejoin="round" />
  <path d="M113.37,82.81 C113.37,82.49 113.30,82.20 113.16,81.94" fill="currentColor" stroke="currentColor" stroke-width="1.2" stroke-linecap="round" stroke-linejoin="round" />
  <line x1="109.47" y1="83.81" x2="109.47" y2="81.55" fill="currentColor" stroke="currentColor" stroke-width="1.2" stroke-linecap="round" stroke-linejoin="round" />
  <line x1="43.74" y1="82.74" x2="46.80" y2="82.74" fill="currentColor" stroke="currentColor" stroke-width="1.2" stroke-linecap="round" stroke-linejoin="round" />
  <path d="M112.31,82.67 C112.31,82.85 112.27,83.03 112.18,83.20" fill="currentColor" stroke="currentColor" stroke-width="1.2" stroke-linecap="round" stroke-linejoin="round" />
  <path d="M113.24,83.49 C113.33,83.26 113.37,83.04 113.37,82.81" fill="currentColor" stroke="currentColor" stroke-width="1.2" stroke-linecap="round" stroke-linejoin="round" />
  <path d="M112.18,83.20 C112.09,83.38 111.93,83.52 111.70,83.63" fill="currentColor" stroke="currentColor" stroke-width="1.2" stroke-linecap="round" stroke-linejoin="round" />
  <path d="M111.70,83.63 C111.48,83.75 111.17,83.80 110.76,83.81" fill="currentColor" stroke="currentColor" stroke-width="1.2" stroke-linecap="round" stroke-linejoin="round" />
  <path d="M112.82,84.11 C113.01,83.92 113.15,83.71 113.24,83.49" fill="currentColor" stroke="currentColor" stroke-width="1.2" stroke-linecap="round" stroke-linejoin="round" />
  <line x1="42.83" y1="84.86" x2="43.74" y2="82.74" fill="currentColor" stroke="currentColor" stroke-width="1.2" stroke-linecap="round" stroke-linejoin="round" />
  <line x1="46.80" y1="82.74" x2="47.76" y2="84.86" fill="currentColor" stroke="currentColor" stroke-width="1.2" stroke-linecap="round" stroke-linejoin="round" />
  <line x1="110.76" y1="83.81" x2="109.47" y2="83.81" fill="currentColor" stroke="currentColor" stroke-width="1.2" stroke-linecap="round" stroke-linejoin="round" />
  <path d="M112.05,84.56 C112.37,84.45 112.62,84.30 112.82,84.11" fill="currentColor" stroke="currentColor" stroke-width="1.2" stroke-linecap="round" stroke-linejoin="round" />
  <path d="M110.90,84.74 C111.35,84.73 111.74,84.67 112.05,84.56" fill="currentColor" stroke="currentColor" stroke-width="1.2" stroke-linecap="round" stroke-linejoin="round" />
  <line x1="108.43" y1="84.74" x2="110.90" y2="84.74" fill="currentColor" stroke="currentColor" stroke-width="1.2" stroke-linecap="round" stroke-linejoin="round" />
  <line x1="41.78" y1="84.86" x2="42.83" y2="84.86" fill="currentColor" stroke="currentColor" stroke-width="1.2" stroke-linecap="round" stroke-linejoin="round" />
  <line x1="47.76" y1="84.86" x2="48.82" y2="84.86" fill="currentColor" stroke="currentColor" stroke-width="1.2" stroke-linecap="round" stroke-linejoin="round" />
</svg>