<svg xmlns="http://www.w3.org/2000/svg" viewBox="0 0 174.59 165.93" preserveAspectRatio="xMidYMid meet" shape-rendering="geometricPrecision" text-rendering="optimizeLegibility">
  <path d="M76.09,8.07 C75.82,8.02 75.56,8.00 75.30,8.00" fill="currentColor" stroke="currentColor" stroke-width="1.2" stroke-linecap="round" stroke-linejoin="round" />
  <path d="M75.30,8.00 C74.70,8.00 74.14,8.10 73.64,8.30" fill="currentColor" stroke="currentColor" stroke-width="1.2" stroke-linecap="round" stroke-linejoin="round" />
  <path d="M76.93,8.27 C76.64,8.18 76.35,8.11 76.09,8.07" fill="currentColor" stroke="currentColor" stroke-width="1.2" stroke-linecap="round" stroke-linejoin="round" />
  <path d="M77.89,8.62 C77.55,8.48 77.23,8.36 76.93,8.27" fill="currentColor" stroke="currentColor" stroke-width="1.2" stroke-linecap="round" stroke-linejoin="round" />
  <path d="M73.64,8.30 C73.13,8.50 72.70,8.77 72.33,9.13" fill="currentColor" stroke="currentColor" stroke-width="1.2" stroke-linecap="round" stroke-linejoin="round" />
  <line x1="77.89" y1="9.78" x2="77.89" y2="8.62" fill="currentColor" stroke="currentColor" stroke-width="1.2" stroke-linecap="round" stroke-linejoin="round" />
  <path d="M75.29,9.00 C75.72,9.00 76.15,9.06 76.57,9.19" fill="currentColor" stroke="currentColor" stroke-width="1.2" stroke-linecap="round" stroke-linejoin="round" />
  <path d="M74.09,9.22 C74.45,9.07 74.85,9.00 75.29,9.00" fill="currentColor" stroke="currentColor" stroke-width="1.2" stroke-linecap="round" stroke-linejoin="round" />
  <path d="M72.33,9.13 C71.96,9.49 71.67,9.91 71.47,10.39" fill="currentColor" stroke="currentColor" stroke-width="1.2" stroke-linecap="round" stroke-linejoin="round" />
  <path d="M76.57,9.19 C76.99,9.31 77.43,9.51 77.89,9.78" fill="currentColor" stroke="currentColor" stroke-width="1.2" stroke-linecap="round" stroke-linejoin="round" />
  <path d="M73.13,9.82 C73.41,9.56 73.72,9.36 74.09,9.22" fill="currentColor" stroke="currentColor" stroke-width="1.2" stroke-linecap="round" stroke-linejoin="round" />
  <path d="M72.50,10.73 C72.65,10.38 72.86,10.08 73.13,9.82" fill="currentColor" stroke="currentColor" stroke-width="1.2" stroke-linecap="round" stroke-linejoin="round" />
  <path d="M71.47,10.39 C71.26,10.88 71.16,11.41 71.16,11.99" fill="currentColor" stroke="currentColor" stroke-width="1.2" stroke-linecap="round" stroke-linejoin="round" />
  <path d="M72.28,11.89 C72.28,11.47 72.35,11.08 72.50,10.73" fill="currentColor" stroke="currentColor" stroke-width="1.2" stroke-linecap="round" stroke-linejoin="round" />
  <path d="M72.67,13.38 C72.41,12.95 72.28,12.45 72.28,11.89" fill="currentColor" stroke="currentColor" stroke-width="1.2" stroke-linecap="round" stroke-linejoin="round" />
  <path d="M71.16,11.99 C71.16,12.31 71.21,12.64 71.31,12.98" fill="currentColor" stroke="currentColor" stroke-width="1.2" stroke-linecap="round" stroke-linejoin="round" />
  <path d="M71.31,12.98 C71.41,13.33 71.57,13.67 71.78,13.99" fill="currentColor" stroke="currentColor" stroke-width="1.2" stroke-linecap="round" stroke-linejoin="round" />
  <path d="M73.73,14.38 C73.28,14.14 72.92,13.81 72.67,13.38" fill="currentColor" stroke="currentColor" stroke-width="1.2" stroke-linecap="round" stroke-linejoin="round" />
  <line x1="77.97" y1="15.08" x2="77.97" y2="13.90" fill="currentColor" stroke="currentColor" stroke-width="1.2" stroke-linecap="round" stroke-linejoin="round" />
  <path d="M77.97,13.90 C77.54,14.18 77.10,14.39 76.65,14.53" fill="currentColor" stroke="currentColor" stroke-width="1.2" stroke-linecap="round" stroke-linejoin="round" />
  <path d="M71.78,13.99 C71.99,14.32 72.25,14.62 72.57,14.88" fill="currentColor" stroke="currentColor" stroke-width="1.2" stroke-linecap="round" stroke-linejoin="round" />
  <path d="M75.33,14.75 C74.72,14.75 74.19,14.62 73.73,14.38" fill="currentColor" stroke="currentColor" stroke-width="1.2" stroke-linecap="round" stroke-linejoin="round" />
  <path d="M76.65,14.53 C76.20,14.68 75.76,14.75 75.33,14.75" fill="currentColor" stroke="currentColor" stroke-width="1.2" stroke-linecap="round" stroke-linejoin="round" />
  <path d="M72.57,14.88 C72.90,15.14 73.28,15.35 73.72,15.51" fill="currentColor" stroke="currentColor" stroke-width="1.2" stroke-linecap="round" stroke-linejoin="round" />
  <path d="M77.19,15.43 C77.46,15.33 77.72,15.21 77.97,15.08" fill="currentColor" stroke="currentColor" stroke-width="1.2" stroke-linecap="round" stroke-linejoin="round" />
  <path d="M76.30,15.66 C76.62,15.61 76.92,15.53 77.19,15.43" fill="currentColor" stroke="currentColor" stroke-width="1.2" stroke-linecap="round" stroke-linejoin="round" />
  <path d="M73.72,15.51 C74.16,15.66 74.67,15.74 75.23,15.75" fill="currentColor" stroke="currentColor" stroke-width="1.2" stroke-linecap="round" stroke-linejoin="round" />
  <path d="M75.23,15.75 C75.63,15.75 75.98,15.72 76.30,15.66" fill="currentColor" stroke="currentColor" stroke-width="1.2" stroke-linecap="round" stroke-linejoin="round" />
  <path d="M82.61,18.46 C120.38,15.87 153.15,44.42 155.74,82.20" fill="none" stroke="currentColor" stroke-width="1.2060000419616699" stroke-linecap="round" stroke-linejoin="round" />
  <path d="M18.87,91.60 C16.28,53.82 44.83,21.06 82.61,18.46" fill="none" stroke="currentColor" stroke-width="1.2060000419616699" stroke-linecap="round" stroke-linejoin="round" />
  <line x1="76.56" y1="19.14" x2="87.17" y2="86.79" fill="none" stroke="currentColor" stroke-width="1.2060000419616699" stroke-linecap="round" stroke-linejoin="round" />
  <line x1="155.90" y1="86.79" x2="76.56" y2="19.14" fill="none" stroke="currentColor" stroke-width="1.2060000419616699" stroke-linecap="round" stroke-linejoin="round" />
  <line x1="76.56" y1="19.14" x2="18.71" y2="86.79" fill="none" stroke="currentColor" stroke-width="1.2060000419616699" stroke-linecap="round" stroke-linejoin="round" />
  <line x1="54.41" y1="64.32" x2="51.36" y2="64.32" fill="currentColor" stroke="currentColor" stroke-width="1.2" stroke-linecap="round" stroke-linejoin="round" />
  <line x1="51.36" y1="64.32" x2="51.36" y2="67.89" fill="currentColor" stroke="currentColor" stroke-width="1.2" stroke-linecap="round" stroke-linejoin="round" />
  <line x1="54.41" y1="65.21" x2="54.41" y2="64.32" fill="currentColor" stroke="currentColor" stroke-width="1.2" stroke-linecap="round" stroke-linejoin="round" />
  <path d="M71.39,64.39 C71.25,64.39 71.12,64.41 70.98,64.47" fill="currentColor" stroke="currentColor" stroke-width="1.2" stroke-linecap="round" stroke-linejoin="round" />
  <path d="M71.93,64.52 C71.78,64.43 71.60,64.39 71.39,64.39" fill="currentColor" stroke="currentColor" stroke-width="1.2" stroke-linecap="round" stroke-linejoin="round" />
  <path d="M70.98,64.47 C70.85,64.52 70.72,64.60 70.58,64.71" fill="currentColor" stroke="currentColor" stroke-width="1.2" stroke-linecap="round" stroke-linejoin="round" />
  <path d="M72.30,64.90 C72.21,64.74 72.09,64.61 71.93,64.52" fill="currentColor" stroke="currentColor" stroke-width="1.2" stroke-linecap="round" stroke-linejoin="round" />
  <line x1="70.58" y1="64.71" x2="70.58" y2="65.33" fill="currentColor" stroke="currentColor" stroke-width="1.2" stroke-linecap="round" stroke-linejoin="round" />
  <path d="M71.10,64.91 C71.19,64.88 71.27,64.87 71.35,64.87" fill="currentColor" stroke="currentColor" stroke-width="1.2" stroke-linecap="round" stroke-linejoin="round" />
  <path d="M71.35,64.87 C71.47,64.87 71.57,64.90 71.66,64.95" fill="currentColor" stroke="currentColor" stroke-width="1.2" stroke-linecap="round" stroke-linejoin="round" />
  <path d="M72.43,65.46 C72.43,65.25 72.39,65.06 72.30,64.90" fill="currentColor" stroke="currentColor" stroke-width="1.2" stroke-linecap="round" stroke-linejoin="round" />
  <path d="M70.85,65.06 C70.93,64.99 71.02,64.94 71.10,64.91" fill="currentColor" stroke="currentColor" stroke-width="1.2" stroke-linecap="round" stroke-linejoin="round" />
  <path d="M71.66,64.95 C71.74,65.01 71.81,65.08 71.86,65.18" fill="currentColor" stroke="currentColor" stroke-width="1.2" stroke-linecap="round" stroke-linejoin="round" />
  <path d="M70.58,65.33 C70.67,65.22 70.76,65.12 70.85,65.06" fill="currentColor" stroke="currentColor" stroke-width="1.2" stroke-linecap="round" stroke-linejoin="round" />
  <path d="M71.86,65.18 C71.91,65.28 71.94,65.39 71.94,65.51" fill="currentColor" stroke="currentColor" stroke-width="1.2" stroke-linecap="round" stroke-linejoin="round" />
  <line x1="52.25" y1="66.93" x2="52.25" y2="65.21" fill="currentColor" stroke="currentColor" stroke-width="1.2" stroke-linecap="round" stroke-linejoin="round" />
  <line x1="52.25" y1="65.21" x2="54.41" y2="65.21" fill="currentColor" stroke="currentColor" stroke-width="1.2" stroke-linecap="round" stroke-linejoin="round" />
  <path d="M72.37,65.87 C72.41,65.73 72.43,65.60 72.43,65.46" fill="currentColor" stroke="currentColor" stroke-width="1.2" stroke-linecap="round" stroke-linejoin="round" />
  <path d="M71.94,65.51 C71.94,65.61 71.93,65.69 71.91,65.77" fill="currentColor" stroke="currentColor" stroke-width="1.2" stroke-linecap="round" stroke-linejoin="round" />
  <path d="M71.91,65.77 C71.90,65.85 71.87,65.92 71.83,66.00" fill="currentColor" stroke="currentColor" stroke-width="1.2" stroke-linecap="round" stroke-linejoin="round" />
  <path d="M72.19,66.29 C72.27,66.15 72.34,66.00 72.37,65.87" fill="currentColor" stroke="currentColor" stroke-width="1.2" stroke-linecap="round" stroke-linejoin="round" />
  <path d="M71.83,66.00 C71.80,66.07 71.75,66.16 71.70,66.25" fill="currentColor" stroke="currentColor" stroke-width="1.2" stroke-linecap="round" stroke-linejoin="round" />
  <path d="M71.70,66.25 C71.63,66.37 71.54,66.50 71.44,66.64" fill="currentColor" stroke="currentColor" stroke-width="1.2" stroke-linecap="round" stroke-linejoin="round" />
  <path d="M71.86,66.79 C71.99,66.61 72.10,66.44 72.19,66.29" fill="currentColor" stroke="currentColor" stroke-width="1.2" stroke-linecap="round" stroke-linejoin="round" />
  <path d="M69.04,66.80 C68.81,66.65 68.55,66.58 68.24,66.58" fill="currentColor" stroke="currentColor" stroke-width="1.2" stroke-linecap="round" stroke-linejoin="round" />
  <path d="M68.24,66.58 C68.03,66.58 67.83,66.62 67.65,66.69" fill="currentColor" stroke="currentColor" stroke-width="1.2" stroke-linecap="round" stroke-linejoin="round" />
  <path d="M66.16,66.78 C65.93,66.65 65.67,66.58 65.38,66.58" fill="currentColor" stroke="currentColor" stroke-width="1.2" stroke-linecap="round" stroke-linejoin="round" />
  <path d="M65.38,66.58 C65.17,66.58 64.96,66.63 64.74,66.74" fill="currentColor" stroke="currentColor" stroke-width="1.2" stroke-linecap="round" stroke-linejoin="round" />
  <path d="M61.29,66.61 C61.15,66.59 60.99,66.58 60.82,66.58" fill="currentColor" stroke="currentColor" stroke-width="1.2" stroke-linecap="round" stroke-linejoin="round" />
  <path d="M60.82,66.58 C60.36,66.58 59.96,66.68 59.63,66.88" fill="currentColor" stroke="currentColor" stroke-width="1.2" stroke-linecap="round" stroke-linejoin="round" />
  <path d="M61.71,66.72 C61.58,66.68 61.44,66.64 61.29,66.61" fill="currentColor" stroke="currentColor" stroke-width="1.2" stroke-linecap="round" stroke-linejoin="round" />
  <path d="M71.44,66.64 C71.35,66.78 71.24,66.91 71.14,67.05" fill="currentColor" stroke="currentColor" stroke-width="1.2" stroke-linecap="round" stroke-linejoin="round" />
  <line x1="63.17" y1="66.67" x2="63.17" y2="71.18" fill="currentColor" stroke="currentColor" stroke-width="1.2" stroke-linecap="round" stroke-linejoin="round" />
  <line x1="64.07" y1="67.26" x2="64.07" y2="66.67" fill="currentColor" stroke="currentColor" stroke-width="1.2" stroke-linecap="round" stroke-linejoin="round" />
  <line x1="64.07" y1="66.67" x2="63.17" y2="66.67" fill="currentColor" stroke="currentColor" stroke-width="1.2" stroke-linecap="round" stroke-linejoin="round" />
  <path d="M67.65,66.69 C67.47,66.76 67.31,66.86 67.15,66.98" fill="currentColor" stroke="currentColor" stroke-width="1.2" stroke-linecap="round" stroke-linejoin="round" />
  <path d="M62.12,66.89 C61.98,66.82 61.84,66.77 61.71,66.72" fill="currentColor" stroke="currentColor" stroke-width="1.2" stroke-linecap="round" stroke-linejoin="round" />
  <path d="M64.74,66.74 C64.52,66.86 64.30,67.03 64.07,67.26" fill="currentColor" stroke="currentColor" stroke-width="1.2" stroke-linecap="round" stroke-linejoin="round" />
  <path d="M66.73,67.39 C66.58,67.12 66.39,66.92 66.16,66.78" fill="currentColor" stroke="currentColor" stroke-width="1.2" stroke-linecap="round" stroke-linejoin="round" />
  <path d="M71.37,67.40 C71.56,67.17 71.72,66.97 71.86,66.79" fill="currentColor" stroke="currentColor" stroke-width="1.2" stroke-linecap="round" stroke-linejoin="round" />
  <path d="M69.55,67.41 C69.43,67.15 69.26,66.94 69.04,66.80" fill="currentColor" stroke="currentColor" stroke-width="1.2" stroke-linecap="round" stroke-linejoin="round" />
  <path d="M59.63,66.88 C59.30,67.07 59.04,67.35 58.86,67.72" fill="currentColor" stroke="currentColor" stroke-width="1.2" stroke-linecap="round" stroke-linejoin="round" />
  <line x1="62.12" y1="67.84" x2="62.12" y2="66.89" fill="currentColor" stroke="currentColor" stroke-width="1.2" stroke-linecap="round" stroke-linejoin="round" />
  <path d="M53.30,67.05 C52.99,66.95 52.64,66.91 52.25,66.93" fill="currentColor" stroke="currentColor" stroke-width="1.2" stroke-linecap="round" stroke-linejoin="round" />
  <path d="M67.15,66.98 C67.00,67.11 66.86,67.24 66.73,67.39" fill="currentColor" stroke="currentColor" stroke-width="1.2" stroke-linecap="round" stroke-linejoin="round" />
  <path d="M54.08,67.50 C53.87,67.30 53.61,67.15 53.30,67.05" fill="currentColor" stroke="currentColor" stroke-width="1.2" stroke-linecap="round" stroke-linejoin="round" />
  <path d="M71.14,67.05 C71.03,67.19 70.92,67.33 70.81,67.46" fill="currentColor" stroke="currentColor" stroke-width="1.2" stroke-linecap="round" stroke-linejoin="round" />
  <path d="M64.78,67.38 C64.91,67.35 65.04,67.33 65.19,67.33" fill="currentColor" stroke="currentColor" stroke-width="1.2" stroke-linecap="round" stroke-linejoin="round" />
  <path d="M67.42,67.49 C67.60,67.38 67.76,67.33 67.91,67.33" fill="currentColor" stroke="currentColor" stroke-width="1.2" stroke-linecap="round" stroke-linejoin="round" />
  <path d="M65.19,67.33 C65.34,67.33 65.48,67.37 65.60,67.44" fill="currentColor" stroke="currentColor" stroke-width="1.2" stroke-linecap="round" stroke-linejoin="round" />
  <path d="M67.91,67.33 C68.08,67.33 68.24,67.37 68.38,67.45" fill="currentColor" stroke="currentColor" stroke-width="1.2" stroke-linecap="round" stroke-linejoin="round" />
  <path d="M64.42,67.56 C64.54,67.48 64.66,67.42 64.78,67.38" fill="currentColor" stroke="currentColor" stroke-width="1.2" stroke-linecap="round" stroke-linejoin="round" />
  <line x1="72.68" y1="67.40" x2="71.37" y2="67.40" fill="currentColor" stroke="currentColor" stroke-width="1.2" stroke-linecap="round" stroke-linejoin="round" />
  <line x1="72.68" y1="67.86" x2="72.68" y2="67.40" fill="currentColor" stroke="currentColor" stroke-width="1.2" stroke-linecap="round" stroke-linejoin="round" />
  <path d="M60.88,67.40 C61.01,67.40 61.13,67.41 61.26,67.44" fill="currentColor" stroke="currentColor" stroke-width="1.2" stroke-linecap="round" stroke-linejoin="round" />
  <path d="M60.16,67.59 C60.36,67.47 60.60,67.40 60.88,67.40" fill="currentColor" stroke="currentColor" stroke-width="1.2" stroke-linecap="round" stroke-linejoin="round" />
  <path d="M69.74,68.35 C69.74,67.99 69.68,67.68 69.55,67.41" fill="currentColor" stroke="currentColor" stroke-width="1.2" stroke-linecap="round" stroke-linejoin="round" />
  <path d="M65.60,67.44 C65.72,67.51 65.82,67.62 65.89,67.78" fill="currentColor" stroke="currentColor" stroke-width="1.2" stroke-linecap="round" stroke-linejoin="round" />
  <path d="M61.26,67.44 C61.39,67.47 61.52,67.51 61.66,67.58" fill="currentColor" stroke="currentColor" stroke-width="1.2" stroke-linecap="round" stroke-linejoin="round" />
  <path d="M68.38,67.45 C68.52,67.53 68.63,67.65 68.72,67.81" fill="currentColor" stroke="currentColor" stroke-width="1.2" stroke-linecap="round" stroke-linejoin="round" />
  <path d="M70.81,67.46 C70.70,67.59 70.60,67.71 70.51,67.83" fill="currentColor" stroke="currentColor" stroke-width="1.2" stroke-linecap="round" stroke-linejoin="round" />
  <path d="M66.90,67.90 C67.07,67.73 67.24,67.60 67.42,67.49" fill="currentColor" stroke="currentColor" stroke-width="1.2" stroke-linecap="round" stroke-linejoin="round" />
  <path d="M54.58,68.20 C54.46,67.93 54.30,67.69 54.08,67.50" fill="currentColor" stroke="currentColor" stroke-width="1.2" stroke-linecap="round" stroke-linejoin="round" />
  <path d="M64.07,67.90 C64.19,67.76 64.31,67.65 64.42,67.56" fill="currentColor" stroke="currentColor" stroke-width="1.2" stroke-linecap="round" stroke-linejoin="round" />
  <path d="M61.66,67.58 C61.80,67.64 61.96,67.73 62.12,67.84" fill="currentColor" stroke="currentColor" stroke-width="1.2" stroke-linecap="round" stroke-linejoin="round" />
  <path d="M59.68,68.13 C59.79,67.90 59.95,67.72 60.16,67.59" fill="currentColor" stroke="currentColor" stroke-width="1.2" stroke-linecap="round" stroke-linejoin="round" />
  <path d="M58.86,67.72 C58.68,68.08 58.59,68.51 58.58,69.01" fill="currentColor" stroke="currentColor" stroke-width="1.2" stroke-linecap="round" stroke-linejoin="round" />
  <path d="M51.36,67.89 C51.74,67.81 52.07,67.78 52.37,67.81" fill="currentColor" stroke="currentColor" stroke-width="1.2" stroke-linecap="round" stroke-linejoin="round" />
  <path d="M65.89,67.78 C65.97,67.93 66.01,68.13 66.01,68.38" fill="currentColor" stroke="currentColor" stroke-width="1.2" stroke-linecap="round" stroke-linejoin="round" />
  <path d="M52.37,67.81 C52.67,67.84 52.92,67.91 53.13,68.03" fill="currentColor" stroke="currentColor" stroke-width="1.2" stroke-linecap="round" stroke-linejoin="round" />
  <path d="M68.72,67.81 C68.80,67.97 68.84,68.16 68.84,68.39" fill="currentColor" stroke="currentColor" stroke-width="1.2" stroke-linecap="round" stroke-linejoin="round" />
  <line x1="70.51" y1="67.83" x2="70.51" y2="67.86" fill="currentColor" stroke="currentColor" stroke-width="1.2" stroke-linecap="round" stroke-linejoin="round" />
  <line x1="70.51" y1="67.86" x2="72.68" y2="67.86" fill="currentColor" stroke="currentColor" stroke-width="1.2" stroke-linecap="round" stroke-linejoin="round" />
  <line x1="64.07" y1="71.18" x2="64.07" y2="67.90" fill="currentColor" stroke="currentColor" stroke-width="1.2" stroke-linecap="round" stroke-linejoin="round" />
  <line x1="66.90" y1="71.18" x2="66.90" y2="67.90" fill="currentColor" stroke="currentColor" stroke-width="1.2" stroke-linecap="round" stroke-linejoin="round" />
  <path d="M53.13,68.03 C53.33,68.16 53.49,68.31 53.60,68.49" fill="currentColor" stroke="currentColor" stroke-width="1.2" stroke-linecap="round" stroke-linejoin="round" />
  <path d="M59.50,68.93 C59.50,68.62 59.56,68.35 59.68,68.13" fill="currentColor" stroke="currentColor" stroke-width="1.2" stroke-linecap="round" stroke-linejoin="round" />
  <path d="M54.75,69.08 C54.75,68.76 54.69,68.47 54.58,68.20" fill="currentColor" stroke="currentColor" stroke-width="1.2" stroke-linecap="round" stroke-linejoin="round" />
  <line x1="69.74" y1="71.18" x2="69.74" y2="68.35" fill="currentColor" stroke="currentColor" stroke-width="1.2" stroke-linecap="round" stroke-linejoin="round" />
  <line x1="66.01" y1="68.38" x2="66.01" y2="71.18" fill="currentColor" stroke="currentColor" stroke-width="1.2" stroke-linecap="round" stroke-linejoin="round" />
  <line x1="68.84" y1="68.39" x2="68.84" y2="71.18" fill="currentColor" stroke="currentColor" stroke-width="1.2" stroke-linecap="round" stroke-linejoin="round" />
  <path d="M53.60,68.49 C53.71,68.68 53.76,68.88 53.76,69.10" fill="currentColor" stroke="currentColor" stroke-width="1.2" stroke-linecap="round" stroke-linejoin="round" />
  <path d="M59.69,69.74 C59.56,69.51 59.50,69.24 59.50,68.93" fill="currentColor" stroke="currentColor" stroke-width="1.2" stroke-linecap="round" stroke-linejoin="round" />
  <path d="M58.58,69.01 C58.59,69.46 58.68,69.85 58.88,70.19" fill="currentColor" stroke="currentColor" stroke-width="1.2" stroke-linecap="round" stroke-linejoin="round" />
  <path d="M54.46,70.21 C54.65,69.89 54.75,69.51 54.75,69.08" fill="currentColor" stroke="currentColor" stroke-width="1.2" stroke-linecap="round" stroke-linejoin="round" />
  <path d="M53.76,69.10 C53.76,69.33 53.70,69.54 53.57,69.72" fill="currentColor" stroke="currentColor" stroke-width="1.2" stroke-linecap="round" stroke-linejoin="round" />
  <path d="M53.57,69.72 C53.44,69.91 53.27,70.06 53.06,70.17" fill="currentColor" stroke="currentColor" stroke-width="1.2" stroke-linecap="round" stroke-linejoin="round" />
  <path d="M60.22,70.25 C59.99,70.13 59.81,69.96 59.69,69.74" fill="currentColor" stroke="currentColor" stroke-width="1.2" stroke-linecap="round" stroke-linejoin="round" />
  <path d="M51.59,70.21 C51.34,70.13 51.09,70.00 50.84,69.84" fill="currentColor" stroke="currentColor" stroke-width="1.2" stroke-linecap="round" stroke-linejoin="round" />
  <line x1="50.84" y1="69.84" x2="50.84" y2="70.85" fill="currentColor" stroke="currentColor" stroke-width="1.2" stroke-linecap="round" stroke-linejoin="round" />
  <line x1="62.23" y1="71.01" x2="62.23" y2="70.13" fill="currentColor" stroke="currentColor" stroke-width="1.2" stroke-linecap="round" stroke-linejoin="round" />
  <path d="M62.23,70.13 C62.00,70.23 61.79,70.30 61.60,70.36" fill="currentColor" stroke="currentColor" stroke-width="1.2" stroke-linecap="round" stroke-linejoin="round" />
  <path d="M53.06,70.17 C52.84,70.28 52.61,70.34 52.34,70.34" fill="currentColor" stroke="currentColor" stroke-width="1.2" stroke-linecap="round" stroke-linejoin="round" />
  <path d="M58.88,70.19 C59.07,70.53 59.34,70.79 59.68,70.98" fill="currentColor" stroke="currentColor" stroke-width="1.2" stroke-linecap="round" stroke-linejoin="round" />
  <path d="M52.34,70.34 C52.09,70.34 51.84,70.30 51.59,70.21" fill="currentColor" stroke="currentColor" stroke-width="1.2" stroke-linecap="round" stroke-linejoin="round" />
  <path d="M53.66,70.99 C54.00,70.80 54.26,70.54 54.46,70.21" fill="currentColor" stroke="currentColor" stroke-width="1.2" stroke-linecap="round" stroke-linejoin="round" />
  <path d="M61.03,70.43 C60.72,70.43 60.45,70.37 60.22,70.25" fill="currentColor" stroke="currentColor" stroke-width="1.2" stroke-linecap="round" stroke-linejoin="round" />
  <path d="M61.60,70.36 C61.41,70.41 61.22,70.43 61.03,70.43" fill="currentColor" stroke="currentColor" stroke-width="1.2" stroke-linecap="round" stroke-linejoin="round" />
  <path d="M50.84,70.85 C51.04,70.95 51.23,71.03 51.41,71.10" fill="currentColor" stroke="currentColor" stroke-width="1.2" stroke-linecap="round" stroke-linejoin="round" />
  <path d="M59.68,70.98 C60.03,71.17 60.42,71.27 60.88,71.28" fill="currentColor" stroke="currentColor" stroke-width="1.2" stroke-linecap="round" stroke-linejoin="round" />
  <path d="M52.50,71.28 C52.94,71.27 53.33,71.18 53.66,70.99" fill="currentColor" stroke="currentColor" stroke-width="1.2" stroke-linecap="round" stroke-linejoin="round" />
  <path d="M61.85,71.14 C62.00,71.11 62.12,71.06 62.23,71.01" fill="currentColor" stroke="currentColor" stroke-width="1.2" stroke-linecap="round" stroke-linejoin="round" />
  <path d="M51.41,71.10 C51.58,71.16 51.76,71.20 51.94,71.23" fill="currentColor" stroke="currentColor" stroke-width="1.2" stroke-linecap="round" stroke-linejoin="round" />
  <path d="M61.37,71.24 C61.54,71.21 61.70,71.18 61.85,71.14" fill="currentColor" stroke="currentColor" stroke-width="1.2" stroke-linecap="round" stroke-linejoin="round" />
  <line x1="63.17" y1="71.18" x2="64.07" y2="71.18" fill="currentColor" stroke="currentColor" stroke-width="1.2" stroke-linecap="round" stroke-linejoin="round" />
  <line x1="66.01" y1="71.18" x2="66.90" y2="71.18" fill="currentColor" stroke="currentColor" stroke-width="1.2" stroke-linecap="round" stroke-linejoin="round" />
  <line x1="68.84" y1="71.18" x2="69.74" y2="71.18" fill="currentColor" stroke="currentColor" stroke-width="1.2" stroke-linecap="round" stroke-linejoin="round" />
  <path d="M51.94,71.23 C52.12,71.26 52.31,71.28 52.50,71.28" fill="currentColor" stroke="currentColor" stroke-width="1.2" stroke-linecap="round" stroke-linejoin="round" />
  <path d="M60.88,71.28 C61.04,71.27 61.20,71.26 61.37,71.24" fill="currentColor" stroke="currentColor" stroke-width="1.2" stroke-linecap="round" stroke-linejoin="round" />
  <path d="M155.74,82.20 C158.33,119.97 129.78,152.74 92.00,155.33" fill="none" stroke="currentColor" stroke-width="1.2060000419616699" stroke-linecap="round" stroke-linejoin="round" />
  <path d="M164.65,82.40 C164.36,82.29 164.01,82.23 163.60,82.23" fill="currentColor" stroke="currentColor" stroke-width="1.2" stroke-linecap="round" stroke-linejoin="round" />
  <line x1="163.60" y1="82.23" x2="161.41" y2="82.23" fill="currentColor" stroke="currentColor" stroke-width="1.2" stroke-linecap="round" stroke-linejoin="round" />
  <line x1="161.41" y1="82.23" x2="161.41" y2="89.78" fill="currentColor" stroke="currentColor" stroke-width="1.2" stroke-linecap="round" stroke-linejoin="round" />
  <path d="M165.37,82.84 C165.19,82.65 164.95,82.51 164.65,82.40" fill="currentColor" stroke="currentColor" stroke-width="1.2" stroke-linecap="round" stroke-linejoin="round" />
  <path d="M165.79,83.45 C165.70,83.23 165.56,83.02 165.37,82.84" fill="currentColor" stroke="currentColor" stroke-width="1.2" stroke-linecap="round" stroke-linejoin="round" />
  <line x1="162.49" y1="83.20" x2="163.49" y2="83.20" fill="currentColor" stroke="currentColor" stroke-width="1.2" stroke-linecap="round" stroke-linejoin="round" />
  <path d="M163.49,83.20 C163.82,83.21 164.08,83.26 164.28,83.35" fill="currentColor" stroke="currentColor" stroke-width="1.2" stroke-linecap="round" stroke-linejoin="round" />
  <line x1="162.49" y1="85.46" x2="162.49" y2="83.20" fill="currentColor" stroke="currentColor" stroke-width="1.2" stroke-linecap="round" stroke-linejoin="round" />
  <line x1="12.01" y1="83.27" x2="11.24" y2="83.27" fill="currentColor" stroke="currentColor" stroke-width="1.2" stroke-linecap="round" stroke-linejoin="round" />
  <line x1="11.24" y1="83.27" x2="8.00" y2="90.86" fill="currentColor" stroke="currentColor" stroke-width="1.2" stroke-linecap="round" stroke-linejoin="round" />
  <line x1="15.38" y1="90.86" x2="12.01" y2="83.27" fill="currentColor" stroke="currentColor" stroke-width="1.2" stroke-linecap="round" stroke-linejoin="round" />
  <path d="M164.28,83.35 C164.47,83.45 164.61,83.57 164.69,83.73" fill="currentColor" stroke="currentColor" stroke-width="1.2" stroke-linecap="round" stroke-linejoin="round" />
  <path d="M165.93,84.16 C165.93,83.92 165.88,83.68 165.79,83.45" fill="currentColor" stroke="currentColor" stroke-width="1.2" stroke-linecap="round" stroke-linejoin="round" />
  <path d="M164.69,83.73 C164.77,83.89 164.81,84.07 164.81,84.26" fill="currentColor" stroke="currentColor" stroke-width="1.2" stroke-linecap="round" stroke-linejoin="round" />
  <path d="M165.65,85.14 C165.83,84.88 165.93,84.55 165.93,84.16" fill="currentColor" stroke="currentColor" stroke-width="1.2" stroke-linecap="round" stroke-linejoin="round" />
  <path d="M164.81,84.26 C164.81,84.66 164.68,84.96 164.41,85.16" fill="currentColor" stroke="currentColor" stroke-width="1.2" stroke-linecap="round" stroke-linejoin="round" />
  <line x1="11.61" y1="84.93" x2="12.83" y2="87.66" fill="currentColor" stroke="currentColor" stroke-width="1.2" stroke-linecap="round" stroke-linejoin="round" />
  <line x1="10.48" y1="87.66" x2="11.61" y2="84.93" fill="currentColor" stroke="currentColor" stroke-width="1.2" stroke-linecap="round" stroke-linejoin="round" />
  <path d="M164.77,85.77 C165.17,85.62 165.46,85.40 165.65,85.14" fill="currentColor" stroke="currentColor" stroke-width="1.2" stroke-linecap="round" stroke-linejoin="round" />
  <path d="M164.41,85.16 C164.15,85.36 163.75,85.46 163.21,85.46" fill="currentColor" stroke="currentColor" stroke-width="1.2" stroke-linecap="round" stroke-linejoin="round" />
  <line x1="163.21" y1="85.46" x2="162.49" y2="85.46" fill="currentColor" stroke="currentColor" stroke-width="1.2" stroke-linecap="round" stroke-linejoin="round" />
  <line x1="164.77" y1="85.80" x2="164.77" y2="85.77" fill="currentColor" stroke="currentColor" stroke-width="1.2" stroke-linecap="round" stroke-linejoin="round" />
  <path d="M165.75,86.17 C165.48,85.99 165.15,85.87 164.77,85.80" fill="currentColor" stroke="currentColor" stroke-width="1.2" stroke-linecap="round" stroke-linejoin="round" />
  <path d="M166.37,86.85 C166.22,86.58 166.02,86.35 165.75,86.17" fill="currentColor" stroke="currentColor" stroke-width="1.2" stroke-linecap="round" stroke-linejoin="round" />
  <line x1="162.49" y1="86.44" x2="163.80" y2="86.44" fill="currentColor" stroke="currentColor" stroke-width="1.2" stroke-linecap="round" stroke-linejoin="round" />
  <path d="M163.80,86.44 C164.18,86.44 164.49,86.49 164.74,86.59" fill="currentColor" stroke="currentColor" stroke-width="1.2" stroke-linecap="round" stroke-linejoin="round" />
  <line x1="162.49" y1="88.81" x2="162.49" y2="86.44" fill="currentColor" stroke="currentColor" stroke-width="1.2" stroke-linecap="round" stroke-linejoin="round" />
  <path d="M164.74,86.59 C164.99,86.69 165.17,86.82 165.29,87.00" fill="currentColor" stroke="currentColor" stroke-width="1.2" stroke-linecap="round" stroke-linejoin="round" />
  <line x1="18.71" y1="86.79" x2="155.90" y2="86.79" fill="none" stroke="currentColor" stroke-width="1.2060000419616699" stroke-linecap="round" stroke-linejoin="round" />
  <path d="M166.59,87.77 C166.59,87.42 166.51,87.12 166.37,86.85" fill="currentColor" stroke="currentColor" stroke-width="1.2" stroke-linecap="round" stroke-linejoin="round" />
  <path d="M165.29,87.00 C165.41,87.18 165.47,87.38 165.47,87.61" fill="currentColor" stroke="currentColor" stroke-width="1.2" stroke-linecap="round" stroke-linejoin="round" />
  <path d="M165.47,87.61 C165.48,87.80 165.43,87.99 165.34,88.17" fill="currentColor" stroke="currentColor" stroke-width="1.2" stroke-linecap="round" stroke-linejoin="round" />
  <line x1="12.83" y1="87.66" x2="10.48" y2="87.66" fill="currentColor" stroke="currentColor" stroke-width="1.2" stroke-linecap="round" stroke-linejoin="round" />
  <path d="M166.45,88.47 C166.54,88.24 166.59,88.00 166.59,87.77" fill="currentColor" stroke="currentColor" stroke-width="1.2" stroke-linecap="round" stroke-linejoin="round" />
  <path d="M165.34,88.17 C165.24,88.35 165.08,88.50 164.84,88.62" fill="currentColor" stroke="currentColor" stroke-width="1.2" stroke-linecap="round" stroke-linejoin="round" />
  <path d="M166.00,89.12 C166.21,88.92 166.36,88.71 166.45,88.47" fill="currentColor" stroke="currentColor" stroke-width="1.2" stroke-linecap="round" stroke-linejoin="round" />
  <path d="M164.84,88.62 C164.60,88.74 164.28,88.80 163.85,88.81" fill="currentColor" stroke="currentColor" stroke-width="1.2" stroke-linecap="round" stroke-linejoin="round" />
  <line x1="9.11" y1="90.86" x2="10.06" y2="88.63" fill="currentColor" stroke="currentColor" stroke-width="1.2" stroke-linecap="round" stroke-linejoin="round" />
  <line x1="10.06" y1="88.63" x2="13.27" y2="88.63" fill="currentColor" stroke="currentColor" stroke-width="1.2" stroke-linecap="round" stroke-linejoin="round" />
  <line x1="13.27" y1="88.63" x2="14.28" y2="90.86" fill="currentColor" stroke="currentColor" stroke-width="1.2" stroke-linecap="round" stroke-linejoin="round" />
  <line x1="163.85" y1="88.81" x2="162.49" y2="88.81" fill="currentColor" stroke="currentColor" stroke-width="1.2" stroke-linecap="round" stroke-linejoin="round" />
  <path d="M165.20,89.60 C165.53,89.48 165.80,89.32 166.00,89.12" fill="currentColor" stroke="currentColor" stroke-width="1.2" stroke-linecap="round" stroke-linejoin="round" />
  <path d="M164.00,89.78 C164.47,89.78 164.87,89.72 165.20,89.60" fill="currentColor" stroke="currentColor" stroke-width="1.2" stroke-linecap="round" stroke-linejoin="round" />
  <line x1="161.41" y1="89.78" x2="164.00" y2="89.78" fill="currentColor" stroke="currentColor" stroke-width="1.2" stroke-linecap="round" stroke-linejoin="round" />
  <line x1="90.57" y1="90.15" x2="89.56" y2="90.15" fill="currentColor" stroke="currentColor" stroke-width="1.2" stroke-linecap="round" stroke-linejoin="round" />
  <line x1="89.56" y1="90.15" x2="87.05" y2="93.25" fill="currentColor" stroke="currentColor" stroke-width="1.2" stroke-linecap="round" stroke-linejoin="round" />
  <line x1="87.05" y1="93.25" x2="84.55" y2="90.15" fill="currentColor" stroke="currentColor" stroke-width="1.2" stroke-linecap="round" stroke-linejoin="round" />
  <line x1="84.55" y1="90.15" x2="83.53" y2="90.15" fill="currentColor" stroke="currentColor" stroke-width="1.2" stroke-linecap="round" stroke-linejoin="round" />
  <line x1="83.53" y1="90.15" x2="83.53" y2="97.70" fill="currentColor" stroke="currentColor" stroke-width="1.2" stroke-linecap="round" stroke-linejoin="round" />
  <line x1="90.57" y1="97.70" x2="90.57" y2="90.15" fill="currentColor" stroke="currentColor" stroke-width="1.2" stroke-linecap="round" stroke-linejoin="round" />
  <line x1="8.00" y1="90.86" x2="9.11" y2="90.86" fill="currentColor" stroke="currentColor" stroke-width="1.2" stroke-linecap="round" stroke-linejoin="round" />
  <line x1="14.28" y1="90.86" x2="15.38" y2="90.86" fill="currentColor" stroke="currentColor" stroke-width="1.2" stroke-linecap="round" stroke-linejoin="round" />
  <path d="M92.00,155.33 C54.23,157.93 21.46,129.37 18.87,91.60" fill="none" stroke="currentColor" stroke-width="1.2060000419616699" stroke-linecap="round" stroke-linejoin="round" />
  <line x1="84.61" y1="97.70" x2="84.61" y2="91.82" fill="currentColor" stroke="currentColor" stroke-width="1.2" stroke-linecap="round" stroke-linejoin="round" />
  <line x1="84.61" y1="91.82" x2="84.64" y2="91.82" fill="currentColor" stroke="currentColor" stroke-width="1.2" stroke-linecap="round" stroke-linejoin="round" />
  <line x1="84.64" y1="91.82" x2="86.96" y2="94.75" fill="currentColor" stroke="currentColor" stroke-width="1.2" stroke-linecap="round" stroke-linejoin="round" />
  <line x1="87.14" y1="94.75" x2="89.46" y2="91.82" fill="currentColor" stroke="currentColor" stroke-width="1.2" stroke-linecap="round" stroke-linejoin="round" />
  <line x1="89.46" y1="91.82" x2="89.49" y2="91.82" fill="currentColor" stroke="currentColor" stroke-width="1.2" stroke-linecap="round" stroke-linejoin="round" />
  <line x1="89.49" y1="91.82" x2="89.49" y2="97.70" fill="currentColor" stroke="currentColor" stroke-width="1.2" stroke-linecap="round" stroke-linejoin="round" />
  <line x1="86.96" y1="94.75" x2="87.14" y2="94.75" fill="currentColor" stroke="currentColor" stroke-width="1.2" stroke-linecap="round" stroke-linejoin="round" />
  <line x1="83.53" y1="97.70" x2="84.61" y2="97.70" fill="currentColor" stroke="currentColor" stroke-width="1.2" stroke-linecap="round" stroke-linejoin="round" />
  <line x1="89.49" y1="97.70" x2="90.57" y2="97.70" fill="currentColor" stroke="currentColor" stroke-width="1.2" stroke-linecap="round" stroke-linejoin="round" />
</svg>