<svg xmlns="http://www.w3.org/2000/svg" viewBox="0 0 285.02 277.45" preserveAspectRatio="xMidYMid meet" shape-rendering="geometricPrecision" text-rendering="optimizeLegibility">
  <line x1="11.10" y1="28.09" x2="261.21" y2="28.09" fill="none" stroke="currentColor" stroke-width="1.0" stroke-linecap="round" stroke-linejoin="round" />
  <line x1="11.10" y1="39.30" x2="261.21" y2="39.30" fill="none" stroke="currentColor" stroke-width="1.0" stroke-linecap="round" stroke-linejoin="round" />
  <line x1="11.10" y1="50.53" x2="261.21" y2="50.53" fill="none" stroke="currentColor" stroke-width="1.0" stroke-linecap="round" stroke-linejoin="round" />
  <line x1="11.10" y1="61.75" x2="261.21" y2="61.75" fill="none" stroke="currentColor" stroke-width="1.0" stroke-linecap="round" stroke-linejoin="round" />
  <line x1="11.10" y1="72.96" x2="261.21" y2="72.96" fill="none" stroke="currentColor" stroke-width="1.0" stroke-linecap="round" stroke-linejoin="round" />
  <line x1="11.10" y1="84.18" x2="261.21" y2="84.18" fill="none" stroke="currentColor" stroke-width="1.0" stroke-linecap="round" stroke-linejoin="round" />
  <line x1="11.10" y1="95.40" x2="261.21" y2="95.40" fill="none" stroke="currentColor" stroke-width="1.0" stroke-linecap="round" stroke-linejoin="round" />
  <line x1="11.10" y1="106.62" x2="261.21" y2="106.62" fill="none" stroke="currentColor" stroke-width="1.0" stroke-linecap="round" stroke-linejoin="round" />
  <line x1="11.10" y1="117.84" x2="261.21" y2="117.84" fill="none" stroke="currentColor" stroke-width="1.0" stroke-linecap="round" stroke-linejoin="round" />
  <line x1="11.10" y1="129.06" x2="261.21" y2="129.06" fill="none" stroke="currentColor" stroke-width="1.0" stroke-linecap="round" stroke-linejoin="round" />
  <line x1="267.30" y1="137.03" x2="268.38" y2="140.27" fill="currentColor" stroke="currentColor" stroke-width="1.2" stroke-linecap="round" stroke-linejoin="round" />
  <line x1="277.02" y1="140.27" x2="267.30" y2="137.03" fill="currentColor" stroke="currentColor" stroke-width="1.2" stroke-linecap="round" stroke-linejoin="round" />
  <line x1="136.15" y1="269.45" x2="136.15" y2="8.00" fill="none" stroke="currentColor" stroke-width="1.4000000476837158" stroke-linecap="round" stroke-linejoin="round" />
  <line x1="46.41" y1="265.40" x2="46.41" y2="14.99" fill="none" stroke="currentColor" stroke-width="1.0" stroke-linecap="round" stroke-linejoin="round" />
  <line x1="225.89" y1="265.40" x2="225.89" y2="14.99" fill="none" stroke="currentColor" stroke-width="1.0" stroke-linecap="round" stroke-linejoin="round" />
  <line x1="248.34" y1="265.40" x2="248.34" y2="14.99" fill="none" stroke="currentColor" stroke-width="1.0" stroke-linecap="round" stroke-linejoin="round" />
  <line x1="23.97" y1="265.40" x2="23.97" y2="14.99" fill="none" stroke="currentColor" stroke-width="1.0" stroke-linecap="round" stroke-linejoin="round" />
  <line x1="259.56" y1="265.40" x2="259.56" y2="14.99" fill="none" stroke="currentColor" stroke-width="1.0" stroke-linecap="round" stroke-linejoin="round" />
  <line x1="12.75" y1="265.40" x2="12.75" y2="14.99" fill="none" stroke="currentColor" stroke-width="1.0" stroke-linecap="round" stroke-linejoin="round" />
  <line x1="8.00" y1="140.27" x2="268.92" y2="140.27" fill="none" stroke="currentColor" stroke-width="1.4000000476837158" stroke-linecap="round" stroke-linejoin="round" />
  <line x1="68.84" y1="265.56" x2="68.84" y2="15.15" fill="none" stroke="currentColor" stroke-width="1.0" stroke-linecap="round" stroke-linejoin="round" />
  <line x1="80.06" y1="265.56" x2="80.06" y2="15.15" fill="none" stroke="currentColor" stroke-width="1.0" stroke-linecap="round" stroke-linejoin="round" />
  <line x1="91.28" y1="265.56" x2="91.28" y2="15.15" fill="none" stroke="currentColor" stroke-width="1.0" stroke-linecap="round" stroke-linejoin="round" />
  <line x1="102.49" y1="265.56" x2="102.49" y2="15.15" fill="none" stroke="currentColor" stroke-width="1.0" stroke-linecap="round" stroke-linejoin="round" />
  <line x1="113.71" y1="265.56" x2="113.71" y2="15.15" fill="none" stroke="currentColor" stroke-width="1.0" stroke-linecap="round" stroke-linejoin="round" />
  <line x1="124.93" y1="265.56" x2="124.93" y2="15.15" fill="none" stroke="currentColor" stroke-width="1.0" stroke-linecap="round" stroke-linejoin="round" />
  <line x1="57.62" y1="265.56" x2="57.62" y2="15.15" fill="none" stroke="currentColor" stroke-width="1.0" stroke-linecap="round" stroke-linejoin="round" />
  <line x1="181.02" y1="265.56" x2="181.02" y2="15.15" fill="none" stroke="currentColor" stroke-width="1.0" stroke-linecap="round" stroke-linejoin="round" />
  <line x1="192.24" y1="265.56" x2="192.24" y2="15.15" fill="none" stroke="currentColor" stroke-width="1.0" stroke-linecap="round" stroke-linejoin="round" />
  <line x1="203.46" y1="265.56" x2="203.46" y2="15.15" fill="none" stroke="currentColor" stroke-width="1.0" stroke-linecap="round" stroke-linejoin="round" />
  <line x1="214.68" y1="265.56" x2="214.68" y2="15.15" fill="none" stroke="currentColor" stroke-width="1.0" stroke-linecap="round" stroke-linejoin="round" />
  <line x1="158.58" y1="265.56" x2="158.58" y2="15.15" fill="none" stroke="currentColor" stroke-width="1.0" stroke-linecap="round" stroke-linejoin="round" />
  <line x1="169.81" y1="265.56" x2="169.81" y2="15.15" fill="none" stroke="currentColor" stroke-width="1.0" stroke-linecap="round" stroke-linejoin="round" />
  <line x1="147.37" y1="265.56" x2="147.37" y2="15.15" fill="none" stroke="currentColor" stroke-width="1.0" stroke-linecap="round" stroke-linejoin="round" />
  <line x1="237.11" y1="265.56" x2="237.11" y2="15.15" fill="none" stroke="currentColor" stroke-width="1.0" stroke-linecap="round" stroke-linejoin="round" />
  <line x1="35.19" y1="265.56" x2="35.19" y2="15.15" fill="none" stroke="currentColor" stroke-width="1.0" stroke-linecap="round" stroke-linejoin="round" />
  <line x1="268.38" y1="140.27" x2="267.30" y2="143.51" fill="currentColor" stroke="currentColor" stroke-width="1.2" stroke-linecap="round" stroke-linejoin="round" />
  <line x1="267.30" y1="143.51" x2="277.02" y2="140.27" fill="currentColor" stroke="currentColor" stroke-width="1.2" stroke-linecap="round" stroke-linejoin="round" />
  <path d="M265.87,147.21 C265.96,147.21 266.04,147.21 266.09,147.21" fill="currentColor" stroke="currentColor" stroke-width="1.2" stroke-linecap="round" stroke-linejoin="round" />
  <path d="M268.60,147.21 C268.65,147.21 268.72,147.21 268.81,147.21" fill="currentColor" stroke="currentColor" stroke-width="1.2" stroke-linecap="round" stroke-linejoin="round" />
  <path d="M265.63,147.22 C265.69,147.21 265.77,147.21 265.87,147.21" fill="currentColor" stroke="currentColor" stroke-width="1.2" stroke-linecap="round" stroke-linejoin="round" />
  <path d="M268.81,147.21 C268.91,147.21 268.99,147.21 269.05,147.22" fill="currentColor" stroke="currentColor" stroke-width="1.2" stroke-linecap="round" stroke-linejoin="round" />
  <path d="M266.09,147.21 C266.14,147.22 266.18,147.23 266.21,147.24" fill="currentColor" stroke="currentColor" stroke-width="1.2" stroke-linecap="round" stroke-linejoin="round" />
  <path d="M268.47,147.24 C268.50,147.23 268.55,147.22 268.60,147.21" fill="currentColor" stroke="currentColor" stroke-width="1.2" stroke-linecap="round" stroke-linejoin="round" />
  <path d="M269.05,147.22 C269.12,147.22 269.16,147.24 269.19,147.26" fill="currentColor" stroke="currentColor" stroke-width="1.2" stroke-linecap="round" stroke-linejoin="round" />
  <path d="M265.49,147.26 C265.52,147.24 265.57,147.22 265.63,147.22" fill="currentColor" stroke="currentColor" stroke-width="1.2" stroke-linecap="round" stroke-linejoin="round" />
  <path d="M266.21,147.24 C266.24,147.25 266.26,147.26 266.27,147.28" fill="currentColor" stroke="currentColor" stroke-width="1.2" stroke-linecap="round" stroke-linejoin="round" />
  <path d="M268.38,147.29 C268.40,147.27 268.43,147.25 268.47,147.24" fill="currentColor" stroke="currentColor" stroke-width="1.2" stroke-linecap="round" stroke-linejoin="round" />
  <path d="M269.19,147.26 C269.22,147.27 269.23,147.30 269.23,147.33" fill="currentColor" stroke="currentColor" stroke-width="1.2" stroke-linecap="round" stroke-linejoin="round" />
  <path d="M265.44,147.34 C265.44,147.31 265.46,147.28 265.49,147.26" fill="currentColor" stroke="currentColor" stroke-width="1.2" stroke-linecap="round" stroke-linejoin="round" />
  <path d="M266.27,147.28 C266.28,147.30 266.29,147.32 266.30,147.35" fill="currentColor" stroke="currentColor" stroke-width="1.2" stroke-linecap="round" stroke-linejoin="round" />
  <path d="M268.32,147.35 C268.34,147.33 268.36,147.31 268.38,147.29" fill="currentColor" stroke="currentColor" stroke-width="1.2" stroke-linecap="round" stroke-linejoin="round" />
  <path d="M269.23,147.33 C269.22,147.37 269.20,147.41 269.16,147.46" fill="currentColor" stroke="currentColor" stroke-width="1.2" stroke-linecap="round" stroke-linejoin="round" />
  <path d="M265.46,147.47 C265.44,147.42 265.43,147.38 265.44,147.34" fill="currentColor" stroke="currentColor" stroke-width="1.2" stroke-linecap="round" stroke-linejoin="round" />
  <line x1="266.30" y1="147.35" x2="267.00" y2="149.15" fill="currentColor" stroke="currentColor" stroke-width="1.2" stroke-linecap="round" stroke-linejoin="round" />
  <line x1="267.00" y1="149.15" x2="268.32" y2="147.35" fill="currentColor" stroke="currentColor" stroke-width="1.2" stroke-linecap="round" stroke-linejoin="round" />
  <line x1="266.37" y1="149.73" x2="265.46" y2="147.47" fill="currentColor" stroke="currentColor" stroke-width="1.2" stroke-linecap="round" stroke-linejoin="round" />
  <line x1="269.16" y1="147.46" x2="267.44" y2="149.74" fill="currentColor" stroke="currentColor" stroke-width="1.2" stroke-linecap="round" stroke-linejoin="round" />
  <line x1="264.54" y1="152.11" x2="266.37" y2="149.73" fill="currentColor" stroke="currentColor" stroke-width="1.2" stroke-linecap="round" stroke-linejoin="round" />
  <line x1="267.44" y1="149.74" x2="268.40" y2="152.11" fill="currentColor" stroke="currentColor" stroke-width="1.2" stroke-linecap="round" stroke-linejoin="round" />
  <line x1="267.53" y1="152.22" x2="266.80" y2="150.32" fill="currentColor" stroke="currentColor" stroke-width="1.2" stroke-linecap="round" stroke-linejoin="round" />
  <line x1="266.80" y1="150.32" x2="265.41" y2="152.22" fill="currentColor" stroke="currentColor" stroke-width="1.2" stroke-linecap="round" stroke-linejoin="round" />
  <line x1="11.10" y1="151.49" x2="261.21" y2="151.49" fill="none" stroke="currentColor" stroke-width="1.0" stroke-linecap="round" stroke-linejoin="round" />
  <path d="M268.40,152.11 C268.42,152.16 268.42,152.20 268.42,152.23" fill="currentColor" stroke="currentColor" stroke-width="1.2" stroke-linecap="round" stroke-linejoin="round" />
  <path d="M264.48,152.23 C264.48,152.20 264.50,152.16 264.54,152.11" fill="currentColor" stroke="currentColor" stroke-width="1.2" stroke-linecap="round" stroke-linejoin="round" />
  <path d="M267.56,152.29 C267.55,152.27 267.54,152.25 267.53,152.22" fill="currentColor" stroke="currentColor" stroke-width="1.2" stroke-linecap="round" stroke-linejoin="round" />
  <path d="M265.41,152.22 C265.39,152.25 265.37,152.27 265.35,152.29" fill="currentColor" stroke="currentColor" stroke-width="1.2" stroke-linecap="round" stroke-linejoin="round" />
  <path d="M268.42,152.23 C268.41,152.27 268.39,152.29 268.36,152.31" fill="currentColor" stroke="currentColor" stroke-width="1.2" stroke-linecap="round" stroke-linejoin="round" />
  <path d="M264.51,152.31 C264.49,152.29 264.47,152.27 264.48,152.23" fill="currentColor" stroke="currentColor" stroke-width="1.2" stroke-linecap="round" stroke-linejoin="round" />
  <path d="M265.35,152.29 C265.33,152.31 265.30,152.33 265.26,152.34" fill="currentColor" stroke="currentColor" stroke-width="1.2" stroke-linecap="round" stroke-linejoin="round" />
  <path d="M267.62,152.34 C267.59,152.33 267.57,152.31 267.56,152.29" fill="currentColor" stroke="currentColor" stroke-width="1.2" stroke-linecap="round" stroke-linejoin="round" />
  <path d="M268.36,152.31 C268.32,152.34 268.27,152.35 268.21,152.36" fill="currentColor" stroke="currentColor" stroke-width="1.2" stroke-linecap="round" stroke-linejoin="round" />
  <path d="M264.64,152.36 C264.58,152.35 264.54,152.34 264.51,152.31" fill="currentColor" stroke="currentColor" stroke-width="1.2" stroke-linecap="round" stroke-linejoin="round" />
  <path d="M265.26,152.34 C265.22,152.35 265.17,152.36 265.11,152.36" fill="currentColor" stroke="currentColor" stroke-width="1.2" stroke-linecap="round" stroke-linejoin="round" />
  <path d="M267.74,152.37 C267.69,152.36 267.65,152.35 267.62,152.34" fill="currentColor" stroke="currentColor" stroke-width="1.2" stroke-linecap="round" stroke-linejoin="round" />
  <path d="M268.21,152.36 C268.14,152.37 268.06,152.37 267.96,152.37" fill="currentColor" stroke="currentColor" stroke-width="1.2" stroke-linecap="round" stroke-linejoin="round" />
  <path d="M264.87,152.37 C264.78,152.37 264.70,152.37 264.64,152.36" fill="currentColor" stroke="currentColor" stroke-width="1.2" stroke-linecap="round" stroke-linejoin="round" />
  <path d="M265.11,152.36 C265.05,152.37 264.97,152.37 264.87,152.37" fill="currentColor" stroke="currentColor" stroke-width="1.2" stroke-linecap="round" stroke-linejoin="round" />
  <path d="M267.96,152.37 C267.87,152.37 267.80,152.37 267.74,152.37" fill="currentColor" stroke="currentColor" stroke-width="1.2" stroke-linecap="round" stroke-linejoin="round" />
  <line x1="11.10" y1="162.71" x2="261.21" y2="162.71" fill="none" stroke="currentColor" stroke-width="1.0" stroke-linecap="round" stroke-linejoin="round" />
  <line x1="11.10" y1="173.93" x2="261.21" y2="173.93" fill="none" stroke="currentColor" stroke-width="1.0" stroke-linecap="round" stroke-linejoin="round" />
  <line x1="11.10" y1="185.15" x2="261.21" y2="185.15" fill="none" stroke="currentColor" stroke-width="1.0" stroke-linecap="round" stroke-linejoin="round" />
  <line x1="11.10" y1="196.37" x2="261.21" y2="196.37" fill="none" stroke="currentColor" stroke-width="1.0" stroke-linecap="round" stroke-linejoin="round" />
  <line x1="11.10" y1="207.58" x2="261.21" y2="207.58" fill="none" stroke="currentColor" stroke-width="1.0" stroke-linecap="round" stroke-linejoin="round" />
  <line x1="11.10" y1="218.80" x2="261.21" y2="218.80" fill="none" stroke="currentColor" stroke-width="1.0" stroke-linecap="round" stroke-linejoin="round" />
  <line x1="11.10" y1="230.02" x2="261.21" y2="230.02" fill="none" stroke="currentColor" stroke-width="1.0" stroke-linecap="round" stroke-linejoin="round" />
  <line x1="11.10" y1="241.24" x2="261.21" y2="241.24" fill="none" stroke="currentColor" stroke-width="1.0" stroke-linecap="round" stroke-linejoin="round" />
  <line x1="11.10" y1="252.46" x2="261.21" y2="252.46" fill="none" stroke="currentColor" stroke-width="1.0" stroke-linecap="round" stroke-linejoin="round" />
  <line x1="11.10" y1="263.68" x2="261.21" y2="263.68" fill="none" stroke="currentColor" stroke-width="1.0" stroke-linecap="round" stroke-linejoin="round" />
</svg>