<svg xmlns="http://www.w3.org/2000/svg" viewBox="0 0 293.36 124.89" preserveAspectRatio="xMidYMid meet" shape-rendering="geometricPrecision" text-rendering="optimizeLegibility">
  <line x1="8.00" y1="116.89" x2="146.68" y2="8.00" fill="none" stroke="currentColor" stroke-width="1.2" stroke-linecap="round" stroke-linejoin="round" />
  <line x1="146.68" y1="8.00" x2="285.36" y2="116.89" fill="none" stroke="currentColor" stroke-width="1.2" stroke-linecap="round" stroke-linejoin="round" />
  <line x1="285.36" y1="116.89" x2="8.00" y2="116.89" fill="none" stroke="currentColor" stroke-width="1.2" stroke-linecap="round" stroke-linejoin="round" />
  <line x1="128.79" y1="116.89" x2="146.68" y2="8.00" fill="none" stroke="currentColor" stroke-width="1.0" stroke-linecap="round" stroke-linejoin="round" />
  <path d="M270.80,105.44 C268.32,108.59 266.84,112.57 266.84,116.89" fill="none" stroke="currentColor" stroke-width="1.0" stroke-linecap="round" stroke-linejoin="round" />
  <path d="M26.52,116.89 C26.52,112.59 25.05,108.62 22.58,105.47" fill="none" stroke="currentColor" stroke-width="1.0" stroke-linecap="round" stroke-linejoin="round" />
  <path d="M142.62,116.89 C142.62,110.02 137.61,104.32 131.05,103.24" fill="none" stroke="currentColor" stroke-width="1.0" stroke-linecap="round" stroke-linejoin="round" />
  <path d="M144.39,21.65 C145.14,21.77 145.90,21.83 146.68,21.83" fill="none" stroke="currentColor" stroke-width="1.0" stroke-linecap="round" stroke-linejoin="round" />
  <path d="M146.68,21.83 C151.09,21.83 155.03,19.76 157.56,16.54" fill="none" stroke="currentColor" stroke-width="1.0" stroke-linecap="round" stroke-linejoin="round" />
  <path d="M133.76,18.12 C136.24,21.29 139.87,23.52 144.01,24.20" fill="none" stroke="currentColor" stroke-width="1.0" stroke-linecap="round" stroke-linejoin="round" />
  <path d="M153.41,25.17L148.56,25.17L148.56,26.19L151.80,26.19L149.05,32.35L150.01,32.77L153.41,25.17Z" fill="currentColor" stroke="currentColor" stroke-width="1.2" stroke-linejoin="round" />
  <path d="M158.69,28.92C158.68,28.34 158.63,27.82 158.51,27.35C158.40,26.87 158.23,26.47 158.02,26.13C157.81,25.79 157.55,25.53 157.26,25.35C156.96,25.17 156.63,25.07 156.27,25.07C155.90,25.07 155.57,25.17 155.28,25.35C154.98,25.53 154.73,25.79 154.51,26.13C154.30,26.47 154.14,26.87 154.02,27.35C153.91,27.82 153.85,28.34 153.85,28.92C153.85,29.50 153.91,30.03 154.02,30.50C154.14,30.97 154.30,31.37 154.51,31.71C154.73,32.05 154.98,32.31 155.28,32.49C155.57,32.68 155.90,32.77 156.27,32.77C156.63,32.77 156.96,32.68 157.26,32.49C157.55,32.31 157.81,32.05 158.02,31.71C158.23,31.37 158.40,30.97 158.51,30.50C158.63,30.03 158.68,29.50 158.69,28.92ZM157.61,28.92C157.61,29.51 157.55,30.02 157.45,30.44C157.34,30.86 157.19,31.18 156.99,31.41C156.79,31.63 156.55,31.75 156.27,31.75C155.99,31.75 155.75,31.63 155.55,31.41C155.35,31.18 155.19,30.86 155.09,30.44C154.98,30.02 154.93,29.51 154.92,28.92C154.93,28.33 154.98,27.83 155.09,27.41C155.19,26.99 155.35,26.66 155.55,26.44C155.75,26.21 155.99,26.10 156.27,26.09C156.55,26.10 156.79,26.21 156.99,26.44C157.19,26.66 157.34,26.99 157.45,27.41C157.55,27.83 157.61,28.33 157.61,28.92Z" fill="currentColor" stroke="currentColor" stroke-width="1.2" stroke-linejoin="round" />
  <path d="M161.18,25.25C161.35,25.25 161.51,25.29 161.65,25.37C161.78,25.45 161.89,25.55 161.97,25.69C162.05,25.83 162.09,25.98 162.10,26.15C162.09,26.32 162.05,26.47 161.97,26.61C161.89,26.75 161.78,26.86 161.65,26.94C161.51,27.02 161.35,27.06 161.18,27.06C161.01,27.06 160.86,27.02 160.72,26.94C160.59,26.86 160.48,26.75 160.40,26.61C160.32,26.47 160.28,26.32 160.28,26.15C160.28,25.98 160.32,25.83 160.40,25.69C160.48,25.55 160.59,25.45 160.72,25.37C160.86,25.29 161.01,25.25 161.18,25.25ZM161.18,24.66C160.91,24.67 160.65,24.73 160.43,24.86C160.21,25.00 160.03,25.17 159.90,25.40C159.77,25.62 159.70,25.87 159.70,26.15C159.70,26.43 159.77,26.68 159.90,26.90C160.03,27.12 160.21,27.30 160.43,27.43C160.65,27.56 160.91,27.63 161.18,27.63C161.46,27.63 161.71,27.56 161.94,27.43C162.16,27.30 162.34,27.12 162.47,26.90C162.60,26.68 162.67,26.43 162.67,26.15C162.67,25.87 162.60,25.62 162.47,25.40C162.34,25.17 162.16,25.00 161.94,24.86C161.71,24.73 161.46,24.67 161.18,24.66Z" fill="currentColor" stroke="currentColor" stroke-width="1.2" stroke-linejoin="round" />
  <path d="M148.89,104.34L144.04,104.34L144.04,105.36L147.29,105.36L144.54,111.52L145.50,111.94L148.89,104.34Z" fill="currentColor" stroke="currentColor" stroke-width="1.2" stroke-linejoin="round" />
  <path d="M153.45,104.34L150.11,104.34L150.11,108.24C150.53,108.15 150.90,108.11 151.22,108.15C151.55,108.18 151.82,108.26 152.05,108.40C152.27,108.53 152.45,108.69 152.57,108.90C152.68,109.10 152.74,109.32 152.74,109.56C152.74,109.81 152.67,110.04 152.53,110.24C152.39,110.44 152.20,110.61 151.97,110.73C151.74,110.85 151.48,110.91 151.19,110.91C150.92,110.91 150.64,110.87 150.37,110.78C150.09,110.68 149.82,110.55 149.55,110.37L149.55,111.48C149.77,111.59 149.97,111.67 150.17,111.74C150.36,111.81 150.56,111.86 150.75,111.89C150.95,111.92 151.15,111.94 151.37,111.94C151.85,111.93 152.27,111.83 152.64,111.62C153.00,111.42 153.29,111.14 153.50,110.78C153.71,110.42 153.82,110.01 153.82,109.54C153.82,109.19 153.76,108.87 153.63,108.57C153.51,108.28 153.33,108.02 153.09,107.81C152.86,107.59 152.57,107.43 152.23,107.32C151.90,107.21 151.52,107.16 151.09,107.19L151.09,105.30L153.45,105.30L153.45,104.34Z" fill="currentColor" stroke="currentColor" stroke-width="1.2" stroke-linejoin="round" />
  <path d="M156.67,104.41C156.84,104.41 157.00,104.46 157.13,104.53C157.27,104.61 157.38,104.72 157.46,104.86C157.54,104.99 157.58,105.14 157.58,105.32C157.58,105.49 157.54,105.64 157.46,105.78C157.38,105.91 157.27,106.02 157.13,106.10C157.00,106.19 156.84,106.23 156.67,106.23C156.50,106.23 156.35,106.19 156.21,106.10C156.08,106.02 155.97,105.91 155.89,105.78C155.81,105.64 155.77,105.49 155.77,105.32C155.77,105.14 155.81,104.99 155.89,104.86C155.97,104.72 156.08,104.61 156.21,104.53C156.35,104.46 156.50,104.41 156.67,104.41ZM156.67,103.83C156.39,103.83 156.14,103.90 155.92,104.03C155.70,104.16 155.52,104.34 155.39,104.56C155.26,104.79 155.19,105.04 155.19,105.32C155.19,105.59 155.26,105.84 155.39,106.07C155.52,106.29 155.70,106.47 155.92,106.60C156.14,106.73 156.39,106.80 156.67,106.80C156.95,106.80 157.20,106.73 157.42,106.60C157.65,106.47 157.82,106.29 157.95,106.07C158.09,105.84 158.15,105.59 158.16,105.32C158.15,105.04 158.09,104.79 157.95,104.56C157.82,104.34 157.65,104.16 157.42,104.03C157.20,103.90 156.95,103.83 156.67,103.83Z" fill="currentColor" stroke="currentColor" stroke-width="1.2" stroke-linejoin="round" />
  <path d="M130.28,27.19L129.82,27.19L126.03,31.83L126.03,32.32L129.21,32.32L129.21,34.79L130.28,34.79L130.28,32.32L131.08,32.32L131.08,31.36L130.28,31.36L130.28,27.19ZM129.18,29.22L129.21,29.22L129.21,31.36L127.47,31.36L129.18,29.22Z" fill="currentColor" stroke="currentColor" stroke-width="1.2" stroke-linejoin="round" />
  <path d="M135.85,27.29L132.51,27.29L132.51,31.19C132.93,31.10 133.30,31.06 133.62,31.10C133.95,31.13 134.22,31.21 134.45,31.34C134.68,31.48 134.85,31.64 134.97,31.85C135.09,32.05 135.14,32.27 135.15,32.51C135.14,32.76 135.07,32.99 134.93,33.19C134.79,33.39 134.61,33.56 134.37,33.68C134.14,33.80 133.88,33.86 133.59,33.86C133.32,33.86 133.04,33.82 132.77,33.72C132.49,33.63 132.22,33.50 131.95,33.31L131.95,34.42C132.17,34.53 132.37,34.62 132.57,34.69C132.76,34.76 132.96,34.81 133.15,34.84C133.35,34.87 133.55,34.89 133.77,34.89C134.25,34.88 134.67,34.78 135.04,34.57C135.40,34.37 135.69,34.09 135.90,33.73C136.11,33.37 136.22,32.96 136.22,32.49C136.22,32.14 136.16,31.82 136.03,31.52C135.91,31.23 135.73,30.97 135.49,30.76C135.26,30.54 134.97,30.38 134.64,30.27C134.30,30.16 133.92,30.11 133.49,30.14L133.49,28.25L135.85,28.25L135.85,27.29Z" fill="currentColor" stroke="currentColor" stroke-width="1.2" stroke-linejoin="round" />
  <path d="M139.07,27.36C139.24,27.36 139.40,27.40 139.53,27.48C139.67,27.56 139.78,27.67 139.86,27.81C139.94,27.94 139.98,28.09 139.99,28.26C139.98,28.44 139.94,28.59 139.86,28.73C139.78,28.86 139.67,28.97 139.53,29.05C139.40,29.13 139.24,29.18 139.07,29.18C138.90,29.18 138.75,29.13 138.61,29.05C138.48,28.97 138.37,28.86 138.29,28.73C138.21,28.59 138.17,28.44 138.17,28.26C138.17,28.09 138.21,27.94 138.29,27.81C138.37,27.67 138.48,27.56 138.61,27.48C138.75,27.40 138.90,27.36 139.07,27.36ZM139.07,26.78C138.79,26.78 138.54,26.85 138.32,26.98C138.10,27.11 137.92,27.29 137.79,27.51C137.66,27.74 137.59,27.99 137.59,28.26C137.59,28.54 137.66,28.79 137.79,29.02C137.92,29.24 138.10,29.42 138.32,29.55C138.54,29.68 138.79,29.75 139.07,29.75C139.35,29.75 139.60,29.68 139.82,29.55C140.05,29.42 140.22,29.24 140.36,29.02C140.49,28.79 140.55,28.54 140.56,28.26C140.55,27.99 140.49,27.74 140.36,27.51C140.22,27.29 140.05,27.11 139.82,26.98C139.60,26.85 139.35,26.78 139.07,26.78Z" fill="currentColor" stroke="currentColor" stroke-width="1.2" stroke-linejoin="round" />
  <path d="M36.72,106.90L35.57,106.90L34.28,108.56L33.50,106.90L32.50,106.90L33.67,109.22L31.51,111.84L32.65,111.84L34.08,109.99L34.99,111.84L35.99,111.84L34.73,109.34L36.72,106.90Z" fill="currentColor" stroke="currentColor" stroke-width="1.2" stroke-linejoin="round" />
  <path d="M261.33,106.90L260.35,106.90L258.80,110.30L258.78,110.30L258.12,106.90L257.18,106.90L258.14,111.54L256.80,114.37L257.79,114.37L261.33,106.90Z" fill="currentColor" stroke="currentColor" stroke-width="1.2" stroke-linejoin="round" />
</svg>