<svg xmlns="http://www.w3.org/2000/svg" viewBox="0 0 198.55 155.55" preserveAspectRatio="xMidYMid meet" shape-rendering="geometricPrecision" text-rendering="optimizeLegibility">
  <path d="M116.86,79.37 C114.65,81.92 111.40,83.54 107.76,83.54" fill="none" stroke="currentColor" stroke-width="1.000000011920929" stroke-linecap="round" stroke-linejoin="round" />
  <path d="M107.76,83.54 C103.75,83.54 100.20,81.57 98.02,78.54" fill="none" stroke="currentColor" stroke-width="1.000000011920929" stroke-linecap="round" stroke-linejoin="round" />
  <path d="M183.77,30.92 C179.03,30.92 174.82,28.60 172.23,25.03" fill="none" stroke="currentColor" stroke-width="1.000000011920929" stroke-linecap="round" stroke-linejoin="round" />
  <path d="M101.91,93.07C101.91,93.13 101.90,93.19 101.89,93.24C101.88,93.28 101.87,93.32 101.85,93.35C101.83,93.38 101.81,93.40 101.79,93.41C101.76,93.42 101.74,93.43 101.71,93.43L98.08,93.43C98.06,93.43 98.03,93.42 98.01,93.41C97.99,93.40 97.97,93.38 97.95,93.35C97.93,93.32 97.92,93.28 97.90,93.24C97.90,93.19 97.89,93.13 97.89,93.07C97.89,93.00 97.90,92.95 97.90,92.90C97.92,92.85 97.93,92.81 97.95,92.78C97.96,92.75 97.98,92.73 98.01,92.71C98.03,92.70 98.05,92.69 98.08,92.69L99.53,92.69L99.53,87.40L98.19,88.20C98.12,88.24 98.07,88.26 98.03,88.27C97.99,88.28 97.95,88.27 97.93,88.24C97.90,88.22 97.88,88.18 97.88,88.13C97.87,88.08 97.86,88.01 97.86,87.92C97.86,87.86 97.86,87.81 97.87,87.77C97.88,87.73 97.88,87.69 97.90,87.66C97.90,87.63 97.92,87.61 97.94,87.59C97.96,87.57 97.99,87.54 98.02,87.52L99.62,86.50C99.63,86.48 99.65,86.48 99.67,86.47C99.69,86.46 99.72,86.46 99.75,86.45C99.79,86.44 99.82,86.44 99.87,86.43C99.91,86.43 99.96,86.43 100.03,86.43C100.11,86.43 100.18,86.43 100.24,86.44C100.30,86.45 100.34,86.46 100.38,86.47C100.41,86.48 100.43,86.50 100.44,86.52C100.45,86.54 100.46,86.56 100.46,86.58L100.46,92.69L101.71,92.69C101.74,92.69 101.77,92.70 101.79,92.71C101.82,92.73 101.84,92.75 101.86,92.78C101.87,92.81 101.88,92.85 101.89,92.90C101.90,92.95 101.91,93.00 101.91,93.07Z" fill="currentColor" stroke="currentColor" stroke-width="1.2" stroke-linejoin="round" />
  <path d="M107.47,93.03C107.47,93.10 107.46,93.15 107.45,93.20C107.44,93.26 107.43,93.30 107.42,93.33C107.40,93.37 107.38,93.39 107.35,93.41C107.32,93.42 107.29,93.43 107.26,93.43L103.42,93.43C103.37,93.43 103.33,93.42 103.29,93.41C103.25,93.40 103.22,93.38 103.19,93.35C103.17,93.32 103.15,93.28 103.13,93.23C103.12,93.17 103.12,93.11 103.12,93.03C103.12,92.96 103.12,92.89 103.12,92.84C103.13,92.79 103.14,92.74 103.16,92.70C103.18,92.66 103.20,92.62 103.23,92.57C103.25,92.53 103.29,92.49 103.33,92.44L104.68,91.01C104.99,90.68 105.24,90.39 105.43,90.13C105.62,89.87 105.76,89.63 105.86,89.41C105.96,89.20 106.03,89.00 106.06,88.83C106.10,88.65 106.11,88.49 106.11,88.33C106.11,88.18 106.09,88.03 106.04,87.90C105.99,87.76 105.91,87.64 105.82,87.53C105.73,87.43 105.61,87.35 105.46,87.29C105.32,87.23 105.15,87.19 104.97,87.19C104.75,87.19 104.55,87.23 104.38,87.29C104.21,87.35 104.05,87.41 103.92,87.48C103.79,87.56 103.68,87.62 103.60,87.68C103.51,87.74 103.44,87.77 103.40,87.77C103.38,87.77 103.35,87.77 103.33,87.75C103.31,87.74 103.30,87.72 103.28,87.68C103.27,87.65 103.26,87.61 103.26,87.55C103.25,87.50 103.24,87.44 103.24,87.36C103.24,87.31 103.25,87.26 103.25,87.22C103.25,87.18 103.26,87.15 103.27,87.12C103.28,87.09 103.29,87.06 103.30,87.04C103.32,87.01 103.35,86.98 103.39,86.95C103.43,86.91 103.51,86.86 103.61,86.79C103.72,86.73 103.85,86.66 104.01,86.60C104.17,86.54 104.34,86.49 104.54,86.44C104.73,86.40 104.93,86.38 105.14,86.38C105.48,86.38 105.77,86.43 106.02,86.52C106.28,86.62 106.49,86.75 106.65,86.91C106.82,87.07 106.94,87.27 107.03,87.48C107.11,87.70 107.15,87.94 107.15,88.18C107.15,88.41 107.13,88.63 107.09,88.85C107.05,89.07 106.97,89.30 106.84,89.56C106.71,89.82 106.53,90.10 106.29,90.41C106.05,90.73 105.73,91.09 105.33,91.50L104.23,92.65L107.26,92.65C107.29,92.65 107.31,92.65 107.34,92.67C107.37,92.69 107.39,92.71 107.41,92.74C107.43,92.78 107.44,92.82 107.45,92.86C107.46,92.91 107.47,92.97 107.47,93.03Z" fill="currentColor" stroke="currentColor" stroke-width="1.2" stroke-linejoin="round" />
  <path d="M112.99,91.44C112.99,91.76 112.93,92.05 112.82,92.31C112.71,92.56 112.55,92.78 112.34,92.96C112.14,93.15 111.88,93.29 111.57,93.38C111.27,93.48 110.93,93.53 110.54,93.53C110.31,93.53 110.09,93.51 109.89,93.48C109.69,93.44 109.51,93.39 109.35,93.34C109.19,93.29 109.06,93.24 108.96,93.18C108.86,93.13 108.79,93.08 108.76,93.06C108.74,93.03 108.72,93.01 108.70,92.98C108.69,92.96 108.67,92.93 108.66,92.89C108.65,92.86 108.65,92.81 108.64,92.76C108.63,92.71 108.63,92.65 108.63,92.57C108.63,92.44 108.64,92.35 108.67,92.30C108.69,92.25 108.73,92.23 108.78,92.23C108.81,92.23 108.87,92.26 108.97,92.31C109.06,92.37 109.18,92.43 109.33,92.50C109.48,92.56 109.65,92.63 109.85,92.68C110.05,92.74 110.27,92.77 110.52,92.77C110.75,92.77 110.96,92.74 111.14,92.68C111.32,92.62 111.47,92.53 111.59,92.42C111.71,92.31 111.80,92.18 111.86,92.03C111.93,91.87 111.96,91.71 111.96,91.53C111.96,91.33 111.92,91.15 111.84,91.00C111.76,90.84 111.65,90.70 111.50,90.59C111.35,90.47 111.17,90.39 110.95,90.33C110.74,90.27 110.49,90.23 110.22,90.23L109.56,90.23C109.53,90.23 109.50,90.23 109.47,90.22C109.45,90.20 109.42,90.18 109.40,90.15C109.38,90.13 109.37,90.09 109.35,90.04C109.34,89.99 109.34,89.93 109.34,89.86C109.34,89.79 109.34,89.73 109.35,89.69C109.36,89.64 109.38,89.61 109.40,89.58C109.42,89.56 109.44,89.54 109.46,89.52C109.49,89.51 109.52,89.50 109.55,89.50L110.16,89.50C110.39,89.50 110.61,89.47 110.79,89.41C110.98,89.35 111.14,89.26 111.27,89.15C111.40,89.04 111.50,88.90 111.57,88.74C111.64,88.58 111.68,88.40 111.68,88.20C111.68,88.06 111.65,87.92 111.61,87.79C111.56,87.66 111.49,87.55 111.40,87.45C111.30,87.36 111.19,87.28 111.04,87.22C110.90,87.17 110.73,87.14 110.54,87.14C110.33,87.14 110.14,87.17 109.97,87.24C109.79,87.30 109.64,87.37 109.50,87.44C109.37,87.51 109.25,87.58 109.16,87.64C109.07,87.70 109.01,87.73 108.98,87.73C108.95,87.73 108.93,87.73 108.91,87.72C108.89,87.71 108.87,87.69 108.86,87.66C108.85,87.64 108.84,87.60 108.83,87.55C108.83,87.50 108.83,87.44 108.83,87.36C108.83,87.31 108.83,87.26 108.83,87.22C108.83,87.18 108.84,87.14 108.85,87.11C108.86,87.08 108.88,87.05 108.89,87.03C108.90,87.00 108.93,86.97 108.96,86.94C109.00,86.91 109.06,86.86 109.17,86.79C109.27,86.73 109.40,86.66 109.55,86.60C109.71,86.54 109.88,86.49 110.08,86.44C110.28,86.40 110.49,86.38 110.72,86.38C111.04,86.38 111.33,86.42 111.57,86.50C111.81,86.58 112.02,86.70 112.18,86.85C112.34,87.00 112.46,87.18 112.54,87.39C112.62,87.60 112.67,87.83 112.67,88.09C112.67,88.30 112.64,88.51 112.58,88.70C112.52,88.88 112.44,89.05 112.33,89.20C112.22,89.34 112.08,89.46 111.92,89.57C111.76,89.67 111.57,89.74 111.36,89.78L111.36,89.79C111.60,89.81 111.82,89.87 112.02,89.97C112.22,90.06 112.39,90.18 112.53,90.33C112.67,90.47 112.79,90.64 112.87,90.83C112.95,91.02 112.99,91.22 112.99,91.44Z" fill="currentColor" stroke="currentColor" stroke-width="1.2" stroke-linejoin="round" />
  <path d="M116.83,87.35C116.83,87.52 116.79,87.69 116.73,87.84C116.66,87.99 116.57,88.13 116.45,88.24C116.33,88.36 116.19,88.45 116.02,88.52C115.86,88.58 115.69,88.61 115.50,88.61C115.31,88.61 115.13,88.58 114.98,88.52C114.82,88.47 114.69,88.38 114.57,88.27C114.46,88.17 114.37,88.04 114.30,87.89C114.24,87.74 114.21,87.57 114.21,87.39C114.21,87.21 114.24,87.04 114.31,86.88C114.38,86.72 114.47,86.59 114.59,86.48C114.71,86.37 114.85,86.28 115.01,86.22C115.17,86.15 115.35,86.12 115.54,86.12C115.72,86.12 115.90,86.15 116.05,86.21C116.21,86.27 116.35,86.36 116.46,86.46C116.58,86.57 116.67,86.70 116.73,86.85C116.80,87.00 116.83,87.16 116.83,87.35ZM116.15,87.37C116.15,87.27 116.13,87.18 116.10,87.10C116.07,87.01 116.03,86.94 115.97,86.88C115.91,86.82 115.84,86.77 115.76,86.74C115.69,86.70 115.60,86.68 115.51,86.68C115.42,86.68 115.33,86.70 115.26,86.74C115.18,86.77 115.11,86.82 115.06,86.88C115.00,86.94 114.95,87.01 114.92,87.09C114.89,87.18 114.87,87.26 114.87,87.36C114.87,87.46 114.89,87.55 114.92,87.64C114.95,87.73 115.00,87.80 115.06,87.86C115.12,87.92 115.19,87.97 115.27,88.00C115.35,88.04 115.43,88.05 115.53,88.05C115.61,88.05 115.70,88.04 115.77,88.00C115.85,87.96 115.92,87.92 115.97,87.85C116.03,87.79 116.07,87.72 116.10,87.64C116.13,87.55 116.15,87.46 116.15,87.37Z" fill="currentColor" stroke="currentColor" stroke-width="1.2" stroke-linejoin="round" />
  <path d="M172.39,38.98C172.39,39.28 172.35,39.58 172.25,39.86C172.16,40.15 172.02,40.40 171.82,40.62C171.63,40.83 171.38,41.01 171.09,41.14C170.79,41.27 170.44,41.33 170.03,41.33C169.74,41.33 169.49,41.30 169.27,41.23C169.04,41.15 168.85,41.05 168.69,40.92C168.52,40.79 168.38,40.62 168.28,40.43C168.17,40.24 168.08,40.02 168.01,39.77C167.95,39.52 167.90,39.25 167.87,38.96C167.84,38.67 167.83,38.35 167.83,38.01C167.83,37.72 167.84,37.42 167.88,37.11C167.91,36.81 167.97,36.51 168.05,36.23C168.13,35.95 168.24,35.68 168.38,35.43C168.52,35.18 168.70,34.97 168.91,34.78C169.13,34.60 169.38,34.45 169.68,34.35C169.98,34.24 170.32,34.18 170.72,34.18C170.85,34.18 170.98,34.19 171.12,34.21C171.26,34.22 171.38,34.25 171.50,34.27C171.61,34.30 171.71,34.33 171.79,34.36C171.86,34.39 171.92,34.42 171.94,34.44C171.97,34.46 171.99,34.48 172.00,34.50C172.01,34.53 172.02,34.55 172.03,34.58C172.03,34.61 172.04,34.64 172.04,34.67C172.05,34.70 172.05,34.75 172.05,34.80C172.05,34.86 172.05,34.92 172.05,34.96C172.04,35.01 172.04,35.05 172.02,35.08C172.01,35.10 172.00,35.12 171.98,35.14C171.96,35.15 171.93,35.16 171.90,35.16C171.86,35.16 171.81,35.15 171.74,35.12C171.67,35.10 171.59,35.07 171.49,35.04C171.39,35.01 171.28,34.98 171.14,34.96C171.00,34.93 170.84,34.92 170.66,34.92C170.32,34.92 170.04,34.99 169.80,35.12C169.56,35.26 169.36,35.44 169.21,35.67C169.06,35.90 168.95,36.17 168.87,36.47C168.80,36.77 168.76,37.09 168.75,37.42C168.84,37.36 168.94,37.31 169.06,37.26C169.18,37.20 169.30,37.15 169.44,37.11C169.58,37.07 169.72,37.03 169.88,37.01C170.03,36.98 170.20,36.97 170.37,36.97C170.75,36.97 171.07,37.02 171.32,37.12C171.58,37.22 171.79,37.36 171.95,37.54C172.11,37.72 172.22,37.94 172.29,38.18C172.36,38.43 172.39,38.69 172.39,38.98ZM171.46,39.07C171.46,38.86 171.44,38.67 171.40,38.50C171.36,38.33 171.29,38.18 171.19,38.07C171.09,37.95 170.96,37.86 170.80,37.79C170.64,37.73 170.44,37.70 170.21,37.70C170.07,37.70 169.94,37.71 169.81,37.73C169.68,37.75 169.55,37.79 169.43,37.83C169.30,37.87 169.18,37.92 169.07,37.97C168.96,38.03 168.85,38.09 168.76,38.15C168.76,38.61 168.79,39.00 168.85,39.31C168.91,39.62 169.00,39.87 169.11,40.06C169.22,40.25 169.36,40.38 169.53,40.46C169.70,40.55 169.89,40.59 170.12,40.59C170.35,40.59 170.55,40.54 170.72,40.46C170.89,40.37 171.02,40.26 171.14,40.11C171.25,39.96 171.33,39.80 171.38,39.62C171.43,39.44 171.46,39.26 171.46,39.07Z" fill="currentColor" stroke="currentColor" stroke-width="1.2" stroke-linejoin="round" />
  <path d="M177.76,39.00C177.76,39.37 177.70,39.70 177.57,39.99C177.45,40.28 177.27,40.52 177.04,40.72C176.81,40.92 176.54,41.07 176.22,41.18C175.90,41.28 175.55,41.33 175.16,41.33C174.95,41.33 174.74,41.32 174.55,41.29C174.36,41.26 174.19,41.22 174.04,41.17C173.89,41.13 173.76,41.08 173.67,41.04C173.57,41.00 173.51,40.96 173.48,40.94C173.45,40.92 173.43,40.89 173.42,40.87C173.41,40.85 173.40,40.82 173.39,40.79C173.39,40.76 173.38,40.72 173.38,40.68C173.37,40.63 173.37,40.58 173.37,40.51C173.37,40.45 173.37,40.39 173.38,40.35C173.38,40.30 173.39,40.26 173.41,40.23C173.42,40.20 173.44,40.18 173.46,40.16C173.48,40.15 173.50,40.14 173.53,40.14C173.56,40.14 173.62,40.16 173.69,40.21C173.77,40.25 173.87,40.30 174.00,40.35C174.12,40.40 174.28,40.45 174.47,40.50C174.66,40.55 174.88,40.57 175.14,40.57C175.38,40.57 175.60,40.54 175.80,40.48C176.00,40.43 176.17,40.34 176.32,40.21C176.46,40.09 176.57,39.94 176.66,39.76C176.74,39.57 176.78,39.35 176.78,39.08C176.78,38.86 176.75,38.66 176.68,38.49C176.61,38.32 176.50,38.18 176.35,38.07C176.21,37.96 176.02,37.87 175.80,37.82C175.58,37.76 175.32,37.73 175.01,37.73C174.79,37.73 174.60,37.74 174.45,37.77C174.29,37.79 174.14,37.80 174.00,37.80C173.90,37.80 173.83,37.77 173.79,37.73C173.75,37.68 173.73,37.59 173.73,37.46L173.73,34.63C173.73,34.51 173.75,34.42 173.81,34.37C173.86,34.31 173.94,34.28 174.05,34.28L177.12,34.28C177.15,34.28 177.18,34.29 177.21,34.30C177.23,34.32 177.26,34.35 177.27,34.38C177.29,34.41 177.31,34.45 177.32,34.50C177.32,34.55 177.33,34.61 177.33,34.68C177.33,34.81 177.31,34.91 177.27,34.98C177.24,35.05 177.19,35.09 177.12,35.09L174.53,35.09L174.53,37.04C174.66,37.02 174.78,37.01 174.92,37.00C175.04,37.00 175.20,37.00 175.37,37.00C175.77,37.00 176.11,37.05 176.41,37.14C176.71,37.24 176.95,37.37 177.15,37.54C177.35,37.72 177.50,37.93 177.60,38.17C177.71,38.42 177.76,38.70 177.76,39.00Z" fill="currentColor" stroke="currentColor" stroke-width="1.2" stroke-linejoin="round" />
  <path d="M181.58,35.14C181.58,35.32 181.54,35.48 181.48,35.64C181.41,35.79 181.32,35.93 181.20,36.04C181.08,36.16 180.94,36.25 180.77,36.32C180.61,36.38 180.43,36.41 180.24,36.41C180.06,36.41 179.88,36.38 179.73,36.32C179.57,36.26 179.44,36.18 179.32,36.07C179.21,35.97 179.12,35.84 179.05,35.69C178.99,35.54 178.96,35.37 178.96,35.19C178.96,35.00 178.99,34.84 179.06,34.68C179.13,34.52 179.22,34.39 179.34,34.28C179.46,34.17 179.60,34.08 179.76,34.02C179.92,33.95 180.10,33.92 180.29,33.92C180.47,33.92 180.65,33.95 180.80,34.01C180.96,34.07 181.10,34.16 181.21,34.26C181.33,34.37 181.42,34.49 181.48,34.64C181.54,34.80 181.58,34.96 181.58,35.14ZM180.90,35.17C180.90,35.07 180.88,34.98 180.85,34.89C180.82,34.81 180.77,34.74 180.72,34.68C180.66,34.62 180.59,34.57 180.51,34.53C180.43,34.50 180.35,34.48 180.26,34.48C180.17,34.48 180.08,34.50 180.01,34.53C179.93,34.57 179.86,34.62 179.80,34.68C179.75,34.74 179.70,34.81 179.67,34.89C179.64,34.97 179.62,35.06 179.62,35.16C179.62,35.26 179.64,35.35 179.67,35.44C179.70,35.53 179.75,35.60 179.81,35.66C179.87,35.72 179.94,35.77 180.02,35.80C180.10,35.84 180.18,35.85 180.28,35.85C180.36,35.85 180.45,35.84 180.52,35.80C180.60,35.76 180.67,35.71 180.72,35.65C180.78,35.59 180.82,35.52 180.85,35.43C180.88,35.35 180.90,35.26 180.90,35.17Z" fill="currentColor" stroke="currentColor" stroke-width="1.2" stroke-linejoin="round" />
  <path d="M156.35,129.71L157.40,132.07C157.42,132.12 157.43,132.17 157.42,132.20C157.42,132.23 157.40,132.26 157.36,132.28C157.32,132.30 157.26,132.32 157.19,132.33C157.12,132.34 157.03,132.34 156.92,132.34C156.82,132.34 156.74,132.34 156.69,132.33C156.63,132.33 156.58,132.32 156.55,132.31C156.52,132.29 156.50,132.28 156.49,132.26C156.48,132.24 156.47,132.22 156.46,132.19L155.65,130.28L154.13,132.19C154.11,132.22 154.09,132.24 154.06,132.26C154.04,132.28 154.01,132.29 153.96,132.30C153.92,132.31 153.87,132.32 153.80,132.33C153.73,132.34 153.65,132.34 153.54,132.34C153.44,132.34 153.35,132.34 153.29,132.33C153.22,132.32 153.17,132.30 153.14,132.28C153.11,132.26 153.10,132.23 153.11,132.20C153.11,132.17 153.13,132.13 153.17,132.08L155.18,129.69L154.18,127.44C154.16,127.39 154.15,127.35 154.16,127.31C154.16,127.28 154.18,127.25 154.21,127.23C154.25,127.21 154.30,127.19 154.37,127.19C154.43,127.18 154.52,127.18 154.63,127.18C154.73,127.18 154.81,127.18 154.87,127.18C154.93,127.19 154.97,127.20 155.00,127.21C155.03,127.22 155.05,127.23 155.07,127.25C155.08,127.27 155.09,127.29 155.10,127.31L155.87,129.12L157.32,127.31C157.34,127.29 157.36,127.27 157.38,127.26C157.41,127.24 157.44,127.22 157.48,127.21C157.52,127.20 157.56,127.19 157.62,127.18C157.68,127.18 157.76,127.18 157.86,127.18C157.96,127.18 158.05,127.18 158.12,127.19C158.19,127.19 158.24,127.21 158.27,127.22C158.30,127.24 158.32,127.27 158.31,127.30C158.31,127.34 158.28,127.38 158.23,127.43L156.35,129.71Z" fill="currentColor" stroke="currentColor" stroke-width="1.2" stroke-linejoin="round" />
  <path d="M13.94,147.19C13.97,147.27 13.98,147.34 13.99,147.39C13.99,147.43 13.97,147.47 13.94,147.50C13.92,147.52 13.87,147.54 13.80,147.54C13.74,147.55 13.65,147.55 13.54,147.55C13.42,147.55 13.34,147.55 13.27,147.55C13.20,147.54 13.15,147.53 13.12,147.52C13.09,147.51 13.06,147.49 13.04,147.47C13.03,147.45 13.01,147.42 13.00,147.39L12.40,145.70L9.51,145.70L8.94,147.37C8.93,147.40 8.92,147.43 8.90,147.45C8.88,147.47 8.86,147.49 8.82,147.51C8.79,147.53 8.74,147.54 8.68,147.54C8.62,147.55 8.53,147.55 8.43,147.55C8.33,147.55 8.24,147.55 8.18,147.54C8.11,147.53 8.07,147.52 8.04,147.49C8.01,147.47 8.00,147.43 8.00,147.38C8.00,147.33 8.02,147.27 8.05,147.19L10.38,140.73C10.39,140.69 10.41,140.66 10.43,140.64C10.46,140.61 10.49,140.59 10.54,140.58C10.58,140.56 10.64,140.55 10.71,140.55C10.78,140.54 10.87,140.54 10.97,140.54C11.09,140.54 11.18,140.54 11.26,140.55C11.33,140.55 11.39,140.56 11.44,140.58C11.49,140.59 11.52,140.61 11.55,140.64C11.57,140.67 11.59,140.70 11.61,140.74L13.94,147.19ZM10.95,141.50L10.94,141.50L9.74,144.96L12.16,144.96L10.95,141.50Z" fill="currentColor" stroke="currentColor" stroke-width="1.2" stroke-linejoin="round" />
  <path d="M190.49,145.53C190.49,145.75 190.46,145.95 190.41,146.13C190.35,146.32 190.27,146.48 190.17,146.63C190.07,146.78 189.95,146.91 189.81,147.02C189.67,147.13 189.51,147.22 189.33,147.30C189.16,147.37 188.97,147.43 188.76,147.47C188.56,147.50 188.33,147.52 188.07,147.52L186.25,147.52C186.17,147.52 186.09,147.49 186.02,147.44C185.95,147.38 185.91,147.29 185.91,147.15L185.91,140.95C185.91,140.81 185.95,140.71 186.02,140.66C186.09,140.60 186.17,140.57 186.25,140.57L187.83,140.57C188.25,140.57 188.59,140.61 188.85,140.69C189.12,140.77 189.34,140.88 189.52,141.03C189.69,141.18 189.83,141.37 189.92,141.59C190.01,141.81 190.05,142.05 190.05,142.33C190.05,142.49 190.03,142.65 189.99,142.80C189.95,142.95 189.89,143.09 189.82,143.22C189.74,143.34 189.64,143.46 189.53,143.56C189.41,143.66 189.28,143.74 189.13,143.81C189.32,143.84 189.49,143.91 189.66,144.00C189.82,144.10 189.97,144.22 190.09,144.36C190.22,144.51 190.31,144.68 190.38,144.88C190.46,145.08 190.49,145.29 190.49,145.53ZM189.10,142.42C189.10,142.25 189.08,142.10 189.03,141.96C188.98,141.83 188.91,141.71 188.81,141.62C188.71,141.52 188.58,141.45 188.42,141.40C188.26,141.35 188.04,141.32 187.78,141.32L186.82,141.32L186.82,143.57L187.88,143.57C188.12,143.57 188.31,143.54 188.46,143.48C188.60,143.42 188.72,143.33 188.82,143.23C188.92,143.12 188.99,143.00 189.03,142.86C189.08,142.72 189.10,142.57 189.10,142.42ZM189.52,145.58C189.52,145.38 189.49,145.19 189.42,145.04C189.35,144.88 189.26,144.75 189.13,144.64C189.00,144.53 188.84,144.45 188.65,144.39C188.46,144.34 188.22,144.31 187.93,144.31L186.82,144.31L186.82,146.76L188.17,146.76C188.38,146.76 188.56,146.73 188.72,146.68C188.88,146.63 189.02,146.56 189.14,146.46C189.26,146.36 189.35,146.24 189.42,146.09C189.49,145.95 189.52,145.78 189.52,145.58Z" fill="currentColor" stroke="currentColor" stroke-width="1.2" stroke-linejoin="round" />
  <path d="M190.55,14.05C190.55,14.11 190.55,14.16 190.55,14.20C190.54,14.25 190.54,14.28 190.53,14.32C190.52,14.35 190.51,14.38 190.49,14.40C190.48,14.43 190.45,14.46 190.42,14.49C190.38,14.53 190.31,14.58 190.19,14.66C190.08,14.73 189.93,14.80 189.76,14.87C189.59,14.94 189.40,15.00 189.18,15.05C188.96,15.10 188.72,15.12 188.46,15.12C188.01,15.12 187.60,15.05 187.24,14.90C186.87,14.75 186.56,14.52 186.31,14.23C186.05,13.94 185.85,13.57 185.72,13.14C185.58,12.71 185.51,12.21 185.51,11.65C185.51,11.08 185.58,10.56 185.73,10.11C185.88,9.66 186.09,9.28 186.36,8.96C186.63,8.65 186.95,8.41 187.32,8.25C187.70,8.08 188.11,8.00 188.56,8.00C188.77,8.00 188.96,8.02 189.15,8.06C189.34,8.09 189.52,8.14 189.68,8.20C189.84,8.26 189.98,8.32 190.11,8.40C190.23,8.47 190.32,8.54 190.37,8.58C190.41,8.63 190.45,8.67 190.46,8.69C190.47,8.72 190.49,8.75 190.50,8.78C190.50,8.82 190.51,8.86 190.52,8.90C190.52,8.95 190.52,9.00 190.52,9.07C190.52,9.14 190.52,9.20 190.51,9.25C190.51,9.30 190.50,9.34 190.48,9.38C190.47,9.41 190.45,9.44 190.43,9.45C190.41,9.47 190.39,9.48 190.36,9.48C190.31,9.48 190.24,9.44 190.15,9.37C190.06,9.30 189.94,9.23 189.80,9.14C189.66,9.06 189.49,8.98 189.29,8.91C189.08,8.84 188.84,8.81 188.56,8.81C188.25,8.81 187.97,8.87 187.72,8.99C187.47,9.12 187.25,9.30 187.07,9.54C186.89,9.78 186.75,10.07 186.66,10.41C186.56,10.76 186.51,11.15 186.51,11.60C186.51,12.04 186.55,12.43 186.65,12.77C186.74,13.11 186.88,13.39 187.06,13.62C187.24,13.84 187.45,14.02 187.71,14.13C187.97,14.25 188.26,14.31 188.59,14.31C188.86,14.31 189.10,14.27 189.31,14.20C189.51,14.14 189.69,14.06 189.83,13.98C189.98,13.89 190.10,13.82 190.19,13.75C190.28,13.68 190.36,13.65 190.41,13.65C190.44,13.65 190.46,13.65 190.48,13.66C190.49,13.67 190.51,13.69 190.52,13.72C190.53,13.75 190.54,13.80 190.54,13.85C190.55,13.90 190.55,13.97 190.55,14.05Z" fill="currentColor" stroke="currentColor" stroke-width="1.2" stroke-linejoin="round" />
  <line x1="183.77" y1="137.13" x2="107.76" y2="71.53" fill="none" stroke="currentColor" stroke-width="1.4000000476837158" stroke-linecap="round" stroke-linejoin="round" />
  <line x1="16.90" y1="137.13" x2="183.77" y2="137.13" fill="none" stroke="currentColor" stroke-width="1.4000000476837158" stroke-linecap="round" stroke-linejoin="round" />
  <line x1="183.77" y1="137.13" x2="183.77" y2="16.66" fill="none" stroke="currentColor" stroke-width="1.4000000476837158" stroke-linecap="round" stroke-linejoin="round" />
  <line x1="183.77" y1="16.66" x2="16.90" y2="137.13" fill="none" stroke="currentColor" stroke-width="1.4000000476837158" stroke-linecap="round" stroke-linejoin="round" />
  <rect x="171.99" y="125.68" width="11.45" height="11.45" fill="none" stroke="currentColor" stroke-width="1.000000011920929" stroke-linecap="round" stroke-linejoin="round" />
  <path d="M161.30,137.14 C161.30,131.87 163.13,126.60 166.81,122.38" fill="none" stroke="currentColor" stroke-width="1.000000011920929" stroke-linecap="round" stroke-linejoin="round" />
</svg>