<svg xmlns="http://www.w3.org/2000/svg" viewBox="0 0 124.61 130.38" preserveAspectRatio="xMidYMid meet" shape-rendering="geometricPrecision" text-rendering="optimizeLegibility">
  <path d="M53.53,110.03H67.88V110.53H53.53Z" fill="currentColor" stroke="currentColor" stroke-width="1.2" stroke-linejoin="round" />
  <path d="M107.01,54.53H116.61V55.03H107.01Z" fill="currentColor" stroke="currentColor" stroke-width="1.2" stroke-linejoin="round" />
  <rect x="17.80" y="13.70" width="85.18" height="85.18" fill="none" stroke="currentColor" stroke-width="1.4000000476837158" stroke-linecap="round" stroke-linejoin="round" />
  <path d="M14.04,105.63C14.07,105.71 14.08,105.77 14.09,105.82C14.09,105.87 14.07,105.90 14.04,105.93C14.02,105.95 13.97,105.97 13.90,105.98C13.84,105.98 13.75,105.99 13.64,105.99C13.52,105.99 13.44,105.99 13.37,105.98C13.30,105.97 13.25,105.97 13.22,105.95C13.19,105.94 13.16,105.92 13.15,105.90C13.13,105.88 13.11,105.85 13.10,105.82L12.50,104.13L9.61,104.13L9.04,105.80C9.03,105.83 9.02,105.86 9.00,105.88C8.98,105.91 8.96,105.93 8.92,105.94C8.89,105.96 8.84,105.97 8.78,105.98C8.72,105.98 8.63,105.99 8.53,105.99C8.43,105.99 8.35,105.98 8.28,105.97C8.21,105.97 8.17,105.95 8.14,105.92C8.11,105.90 8.10,105.86 8.10,105.81C8.10,105.76 8.12,105.70 8.15,105.62L10.48,99.17C10.49,99.13 10.51,99.10 10.54,99.07C10.56,99.05 10.59,99.03 10.64,99.01C10.68,99.00 10.74,98.99 10.81,98.98C10.88,98.98 10.97,98.97 11.07,98.97C11.19,98.97 11.28,98.98 11.36,98.98C11.43,98.99 11.49,99.00 11.54,99.01C11.59,99.03 11.62,99.05 11.65,99.07C11.67,99.10 11.69,99.13 11.71,99.17L14.04,105.63ZM11.05,99.93L11.04,99.93L9.84,103.39L12.26,103.39L11.05,99.93Z" fill="currentColor" stroke="currentColor" stroke-width="1.2" stroke-linejoin="round" />
  <path d="M111.78,103.96C111.78,104.18 111.76,104.38 111.70,104.57C111.65,104.75 111.57,104.92 111.47,105.06C111.37,105.21 111.25,105.34 111.11,105.45C110.96,105.56 110.80,105.65 110.63,105.73C110.45,105.81 110.26,105.86 110.06,105.90C109.86,105.94 109.62,105.95 109.36,105.95L107.55,105.95C107.46,105.95 107.39,105.93 107.31,105.87C107.24,105.82 107.20,105.72 107.20,105.58L107.20,99.38C107.20,99.24 107.24,99.14 107.31,99.09C107.39,99.03 107.46,99.01 107.55,99.01L109.13,99.01C109.54,99.01 109.88,99.05 110.15,99.12C110.41,99.20 110.63,99.32 110.81,99.47C110.99,99.62 111.12,99.80 111.21,100.02C111.30,100.24 111.34,100.49 111.34,100.76C111.34,100.93 111.32,101.08 111.29,101.23C111.25,101.38 111.19,101.52 111.11,101.65C111.03,101.78 110.94,101.89 110.82,101.99C110.70,102.09 110.57,102.17 110.42,102.24C110.61,102.27 110.79,102.34 110.95,102.43C111.12,102.53 111.26,102.65 111.38,102.80C111.51,102.94 111.61,103.12 111.68,103.31C111.75,103.51 111.78,103.73 111.78,103.96ZM110.39,100.85C110.39,100.68 110.37,100.53 110.32,100.40C110.28,100.26 110.20,100.14 110.10,100.05C110.00,99.95 109.87,99.88 109.71,99.83C109.55,99.78 109.34,99.76 109.07,99.76L108.12,99.76L108.12,102.01L109.17,102.01C109.41,102.01 109.60,101.98 109.75,101.91C109.90,101.85 110.02,101.77 110.11,101.66C110.21,101.56 110.28,101.43 110.33,101.29C110.37,101.15 110.39,101.00 110.39,100.85ZM110.81,104.02C110.81,103.81 110.78,103.63 110.71,103.47C110.65,103.31 110.55,103.18 110.42,103.07C110.30,102.96 110.14,102.88 109.95,102.83C109.75,102.77 109.51,102.74 109.22,102.74L108.12,102.74L108.12,105.19L109.46,105.19C109.67,105.19 109.85,105.17 110.01,105.12C110.17,105.07 110.31,104.99 110.43,104.89C110.55,104.80 110.64,104.67 110.71,104.53C110.78,104.38 110.81,104.21 110.81,104.02Z" fill="currentColor" stroke="currentColor" stroke-width="1.2" stroke-linejoin="round" />
  <path d="M110.52,14.05C110.52,14.11 110.52,14.16 110.52,14.20C110.51,14.25 110.51,14.28 110.50,14.32C110.49,14.35 110.48,14.38 110.46,14.40C110.45,14.43 110.43,14.46 110.39,14.49C110.35,14.53 110.28,14.58 110.16,14.66C110.05,14.73 109.91,14.80 109.74,14.87C109.57,14.94 109.37,15.00 109.15,15.05C108.93,15.10 108.69,15.12 108.43,15.12C107.98,15.12 107.57,15.05 107.21,14.90C106.84,14.75 106.53,14.52 106.28,14.23C106.02,13.94 105.83,13.57 105.69,13.14C105.55,12.71 105.48,12.21 105.48,11.65C105.48,11.08 105.55,10.56 105.70,10.11C105.85,9.66 106.06,9.28 106.33,8.96C106.60,8.65 106.92,8.41 107.29,8.25C107.67,8.08 108.08,8.00 108.54,8.00C108.74,8.00 108.93,8.02 109.12,8.06C109.31,8.09 109.49,8.14 109.65,8.20C109.81,8.26 109.95,8.32 110.08,8.40C110.20,8.47 110.29,8.54 110.34,8.58C110.39,8.63 110.42,8.67 110.43,8.69C110.45,8.72 110.46,8.75 110.47,8.78C110.48,8.82 110.48,8.86 110.49,8.90C110.49,8.95 110.50,9.00 110.50,9.07C110.50,9.14 110.49,9.20 110.49,9.25C110.48,9.30 110.47,9.34 110.45,9.38C110.44,9.41 110.42,9.44 110.40,9.45C110.38,9.47 110.36,9.48 110.33,9.48C110.28,9.48 110.21,9.44 110.12,9.37C110.03,9.30 109.92,9.23 109.77,9.14C109.63,9.06 109.46,8.98 109.26,8.91C109.06,8.84 108.81,8.81 108.53,8.81C108.22,8.81 107.94,8.87 107.69,8.99C107.44,9.12 107.22,9.30 107.04,9.54C106.86,9.78 106.73,10.07 106.63,10.41C106.53,10.76 106.48,11.15 106.48,11.60C106.48,12.04 106.53,12.43 106.62,12.77C106.72,13.11 106.85,13.39 107.03,13.62C107.21,13.84 107.42,14.02 107.68,14.13C107.94,14.25 108.23,14.31 108.56,14.31C108.83,14.31 109.07,14.27 109.28,14.20C109.49,14.14 109.66,14.06 109.81,13.98C109.95,13.89 110.07,13.82 110.16,13.75C110.26,13.68 110.33,13.65 110.38,13.65C110.41,13.65 110.43,13.65 110.45,13.66C110.47,13.67 110.48,13.69 110.49,13.72C110.50,13.75 110.51,13.80 110.52,13.85C110.52,13.90 110.52,13.97 110.52,14.05Z" fill="currentColor" stroke="currentColor" stroke-width="1.2" stroke-linejoin="round" />
  <path d="M13.34,11.46C13.34,12.06 13.27,12.59 13.11,13.04C12.96,13.49 12.73,13.86 12.44,14.15C12.14,14.45 11.78,14.67 11.35,14.82C10.92,14.96 10.41,15.04 9.81,15.04L8.34,15.04C8.26,15.04 8.18,15.01 8.11,14.95C8.04,14.90 8.00,14.80 8.00,14.66L8.00,8.46C8.00,8.32 8.04,8.23 8.11,8.17C8.18,8.11 8.26,8.09 8.34,8.09L9.92,8.09C10.52,8.09 11.03,8.16 11.44,8.32C11.86,8.48 12.21,8.70 12.49,8.99C12.77,9.28 12.98,9.64 13.13,10.05C13.27,10.47 13.34,10.94 13.34,11.46ZM12.37,11.50C12.37,11.12 12.32,10.77 12.23,10.45C12.14,10.12 11.99,9.84 11.79,9.61C11.60,9.37 11.34,9.19 11.04,9.05C10.74,8.92 10.34,8.85 9.86,8.85L8.92,8.85L8.92,14.26L9.87,14.26C10.32,14.26 10.69,14.21 11.00,14.10C11.30,13.99 11.55,13.82 11.76,13.59C11.96,13.36 12.12,13.07 12.22,12.72C12.32,12.38 12.37,11.97 12.37,11.50Z" fill="currentColor" stroke="currentColor" stroke-width="1.2" stroke-linejoin="round" />
  <text x="58.13" y="122.38" font-size="11.0" fill="currentColor" stroke="none" font-family="'Iowan Old Style', 'Sitka Text', Charter, Cambria, Georgia, serif">y</text>
  <text x="60.72" y="111.48" font-size="11.0" fill="currentColor" stroke="none" font-family="'Iowan Old Style', 'Sitka Text', Charter, Cambria, Georgia, serif">x</text>
  <text x="55.16" y="111.82" font-size="11.0" fill="currentColor" stroke="none" font-family="'Iowan Old Style', 'Sitka Text', Charter, Cambria, Georgia, serif">3</text>
  <text x="109.45" y="55.97" font-size="11.0" fill="currentColor" stroke="none" font-family="'Iowan Old Style', 'Sitka Text', Charter, Cambria, Georgia, serif">x</text>
  <text x="109.01" y="67.21" font-size="11.0" fill="currentColor" stroke="none" font-family="'Iowan Old Style', 'Sitka Text', Charter, Cambria, Georgia, serif">8</text>
</svg>