<svg xmlns="http://www.w3.org/2000/svg" viewBox="0 0 134.92 134.94" preserveAspectRatio="xMidYMid meet" shape-rendering="geometricPrecision" text-rendering="optimizeLegibility">
  <rect x="8.00" y="8.00" width="118.92" height="118.92" fill="none" stroke="currentColor" stroke-width="1.2499999523162841" stroke-linecap="round" stroke-linejoin="round" />
  <path d="M34.61,68.62 C34.45,68.60 34.27,68.58 34.08,68.58" fill="currentColor" stroke="currentColor" stroke-width="1.2" stroke-linecap="round" stroke-linejoin="round" />
  <path d="M42.34,68.58 C42.11,68.58 41.89,68.63 41.69,68.71" fill="currentColor" stroke="currentColor" stroke-width="1.2" stroke-linecap="round" stroke-linejoin="round" />
  <path d="M39.16,68.58 C38.93,68.58 38.69,68.64 38.45,68.77" fill="currentColor" stroke="currentColor" stroke-width="1.2" stroke-linecap="round" stroke-linejoin="round" />
  <line x1="28.21" y1="68.68" x2="27.03" y2="68.68" fill="currentColor" stroke="currentColor" stroke-width="1.2" stroke-linecap="round" stroke-linejoin="round" />
  <line x1="24.92" y1="68.68" x2="23.91" y2="68.68" fill="currentColor" stroke="currentColor" stroke-width="1.2" stroke-linecap="round" stroke-linejoin="round" />
  <line x1="37.70" y1="68.68" x2="36.70" y2="68.68" fill="currentColor" stroke="currentColor" stroke-width="1.2" stroke-linecap="round" stroke-linejoin="round" />
  <path d="M35.08,68.74 C34.93,68.69 34.77,68.65 34.61,68.62" fill="currentColor" stroke="currentColor" stroke-width="1.2" stroke-linecap="round" stroke-linejoin="round" />
  <path d="M40.03,68.81 C39.77,68.66 39.48,68.58 39.16,68.58" fill="currentColor" stroke="currentColor" stroke-width="1.2" stroke-linecap="round" stroke-linejoin="round" />
  <path d="M43.23,68.83 C42.98,68.67 42.69,68.58 42.34,68.58" fill="currentColor" stroke="currentColor" stroke-width="1.2" stroke-linecap="round" stroke-linejoin="round" />
  <path d="M34.08,68.58 C33.57,68.59 33.13,68.70 32.76,68.92" fill="currentColor" stroke="currentColor" stroke-width="1.2" stroke-linecap="round" stroke-linejoin="round" />
  <path d="M35.54,68.93 C35.38,68.86 35.22,68.80 35.08,68.74" fill="currentColor" stroke="currentColor" stroke-width="1.2" stroke-linecap="round" stroke-linejoin="round" />
  <path d="M41.69,68.71 C41.49,68.79 41.30,68.90 41.13,69.03" fill="currentColor" stroke="currentColor" stroke-width="1.2" stroke-linecap="round" stroke-linejoin="round" />
  <line x1="37.70" y1="69.34" x2="37.70" y2="68.68" fill="currentColor" stroke="currentColor" stroke-width="1.2" stroke-linecap="round" stroke-linejoin="round" />
  <path d="M38.45,68.77 C38.20,68.89 37.95,69.09 37.70,69.34" fill="currentColor" stroke="currentColor" stroke-width="1.2" stroke-linecap="round" stroke-linejoin="round" />
  <path d="M40.66,69.49 C40.49,69.19 40.28,68.97 40.03,68.81" fill="currentColor" stroke="currentColor" stroke-width="1.2" stroke-linecap="round" stroke-linejoin="round" />
  <path d="M43.81,69.51 C43.67,69.22 43.48,68.99 43.23,68.83" fill="currentColor" stroke="currentColor" stroke-width="1.2" stroke-linecap="round" stroke-linejoin="round" />
  <path d="M41.13,69.03 C40.97,69.17 40.81,69.32 40.66,69.49" fill="currentColor" stroke="currentColor" stroke-width="1.2" stroke-linecap="round" stroke-linejoin="round" />
  <path d="M32.76,68.92 C32.39,69.14 32.10,69.45 31.90,69.85" fill="currentColor" stroke="currentColor" stroke-width="1.2" stroke-linecap="round" stroke-linejoin="round" />
  <path d="M38.49,69.48 C38.63,69.44 38.78,69.42 38.95,69.42" fill="currentColor" stroke="currentColor" stroke-width="1.2" stroke-linecap="round" stroke-linejoin="round" />
  <line x1="35.54" y1="69.99" x2="35.54" y2="68.93" fill="currentColor" stroke="currentColor" stroke-width="1.2" stroke-linecap="round" stroke-linejoin="round" />
  <path d="M38.95,69.42 C39.12,69.42 39.27,69.46 39.41,69.54" fill="currentColor" stroke="currentColor" stroke-width="1.2" stroke-linecap="round" stroke-linejoin="round" />
  <path d="M41.97,69.42 C42.17,69.42 42.34,69.47 42.50,69.56" fill="currentColor" stroke="currentColor" stroke-width="1.2" stroke-linecap="round" stroke-linejoin="round" />
  <path d="M41.43,69.60 C41.63,69.48 41.81,69.42 41.97,69.42" fill="currentColor" stroke="currentColor" stroke-width="1.2" stroke-linecap="round" stroke-linejoin="round" />
  <path d="M34.15,69.50 C34.29,69.50 34.43,69.51 34.58,69.54" fill="currentColor" stroke="currentColor" stroke-width="1.2" stroke-linecap="round" stroke-linejoin="round" />
  <line x1="27.03" y1="68.68" x2="25.72" y2="70.37" fill="currentColor" stroke="currentColor" stroke-width="1.2" stroke-linecap="round" stroke-linejoin="round" />
  <line x1="25.72" y1="70.37" x2="24.92" y2="68.68" fill="currentColor" stroke="currentColor" stroke-width="1.2" stroke-linecap="round" stroke-linejoin="round" />
  <path d="M38.09,69.68 C38.22,69.59 38.36,69.52 38.49,69.48" fill="currentColor" stroke="currentColor" stroke-width="1.2" stroke-linecap="round" stroke-linejoin="round" />
  <path d="M33.35,69.71 C33.58,69.57 33.84,69.50 34.15,69.50" fill="currentColor" stroke="currentColor" stroke-width="1.2" stroke-linecap="round" stroke-linejoin="round" />
  <path d="M34.58,69.54 C34.72,69.57 34.86,69.62 35.02,69.70" fill="currentColor" stroke="currentColor" stroke-width="1.2" stroke-linecap="round" stroke-linejoin="round" />
  <path d="M39.41,69.54 C39.54,69.62 39.65,69.75 39.73,69.92" fill="currentColor" stroke="currentColor" stroke-width="1.2" stroke-linecap="round" stroke-linejoin="round" />
  <path d="M42.50,69.56 C42.66,69.65 42.78,69.78 42.87,69.95" fill="currentColor" stroke="currentColor" stroke-width="1.2" stroke-linecap="round" stroke-linejoin="round" />
  <path d="M40.85,70.06 C41.04,69.87 41.23,69.72 41.43,69.60" fill="currentColor" stroke="currentColor" stroke-width="1.2" stroke-linecap="round" stroke-linejoin="round" />
  <path d="M35.02,69.70 C35.18,69.77 35.35,69.87 35.54,69.99" fill="currentColor" stroke="currentColor" stroke-width="1.2" stroke-linecap="round" stroke-linejoin="round" />
  <line x1="23.91" y1="68.68" x2="25.09" y2="71.05" fill="currentColor" stroke="currentColor" stroke-width="1.2" stroke-linecap="round" stroke-linejoin="round" />
  <path d="M37.70,70.06 C37.83,69.90 37.97,69.77 38.09,69.68" fill="currentColor" stroke="currentColor" stroke-width="1.2" stroke-linecap="round" stroke-linejoin="round" />
  <line x1="26.18" y1="71.17" x2="28.21" y2="68.68" fill="currentColor" stroke="currentColor" stroke-width="1.2" stroke-linecap="round" stroke-linejoin="round" />
  <path d="M32.81,70.31 C32.94,70.05 33.12,69.86 33.35,69.71" fill="currentColor" stroke="currentColor" stroke-width="1.2" stroke-linecap="round" stroke-linejoin="round" />
  <path d="M44.01,70.55 C44.01,70.15 43.94,69.81 43.81,69.51" fill="currentColor" stroke="currentColor" stroke-width="1.2" stroke-linecap="round" stroke-linejoin="round" />
  <path d="M39.73,69.92 C39.81,70.09 39.86,70.31 39.86,70.59" fill="currentColor" stroke="currentColor" stroke-width="1.2" stroke-linecap="round" stroke-linejoin="round" />
  <path d="M42.87,69.95 C42.97,70.13 43.01,70.34 43.02,70.60" fill="currentColor" stroke="currentColor" stroke-width="1.2" stroke-linecap="round" stroke-linejoin="round" />
  <path d="M31.90,69.85 C31.70,70.26 31.60,70.74 31.60,71.29" fill="currentColor" stroke="currentColor" stroke-width="1.2" stroke-linecap="round" stroke-linejoin="round" />
  <path d="M32.61,71.20 C32.62,70.86 32.68,70.56 32.81,70.31" fill="currentColor" stroke="currentColor" stroke-width="1.2" stroke-linecap="round" stroke-linejoin="round" />
  <line x1="36.70" y1="68.68" x2="36.70" y2="73.71" fill="currentColor" stroke="currentColor" stroke-width="1.2" stroke-linecap="round" stroke-linejoin="round" />
  <path d="M32.83,72.10 C32.69,71.85 32.62,71.55 32.61,71.20" fill="currentColor" stroke="currentColor" stroke-width="1.2" stroke-linecap="round" stroke-linejoin="round" />
  <line x1="37.70" y1="73.71" x2="37.70" y2="70.06" fill="currentColor" stroke="currentColor" stroke-width="1.2" stroke-linecap="round" stroke-linejoin="round" />
  <line x1="40.85" y1="73.71" x2="40.85" y2="70.06" fill="currentColor" stroke="currentColor" stroke-width="1.2" stroke-linecap="round" stroke-linejoin="round" />
  <path d="M31.60,71.29 C31.60,71.79 31.71,72.23 31.92,72.60" fill="currentColor" stroke="currentColor" stroke-width="1.2" stroke-linecap="round" stroke-linejoin="round" />
  <line x1="44.01" y1="73.71" x2="44.01" y2="70.55" fill="currentColor" stroke="currentColor" stroke-width="1.2" stroke-linecap="round" stroke-linejoin="round" />
  <line x1="39.86" y1="70.59" x2="39.86" y2="73.71" fill="currentColor" stroke="currentColor" stroke-width="1.2" stroke-linecap="round" stroke-linejoin="round" />
  <line x1="43.02" y1="70.60" x2="43.02" y2="73.71" fill="currentColor" stroke="currentColor" stroke-width="1.2" stroke-linecap="round" stroke-linejoin="round" />
  <line x1="25.09" y1="71.05" x2="22.90" y2="73.71" fill="currentColor" stroke="currentColor" stroke-width="1.2" stroke-linecap="round" stroke-linejoin="round" />
  <path d="M33.42,72.67 C33.16,72.54 32.97,72.35 32.83,72.10" fill="currentColor" stroke="currentColor" stroke-width="1.2" stroke-linecap="round" stroke-linejoin="round" />
  <line x1="27.46" y1="73.71" x2="26.18" y2="71.17" fill="currentColor" stroke="currentColor" stroke-width="1.2" stroke-linecap="round" stroke-linejoin="round" />
  <path d="M35.65,72.54 C35.40,72.65 35.17,72.73 34.95,72.79" fill="currentColor" stroke="currentColor" stroke-width="1.2" stroke-linecap="round" stroke-linejoin="round" />
  <line x1="24.06" y1="73.71" x2="25.52" y2="71.83" fill="currentColor" stroke="currentColor" stroke-width="1.2" stroke-linecap="round" stroke-linejoin="round" />
  <line x1="25.52" y1="71.83" x2="26.44" y2="73.71" fill="currentColor" stroke="currentColor" stroke-width="1.2" stroke-linecap="round" stroke-linejoin="round" />
  <path d="M34.32,72.87 C33.97,72.87 33.67,72.80 33.42,72.67" fill="currentColor" stroke="currentColor" stroke-width="1.2" stroke-linecap="round" stroke-linejoin="round" />
  <path d="M34.95,72.79 C34.74,72.84 34.53,72.87 34.32,72.87" fill="currentColor" stroke="currentColor" stroke-width="1.2" stroke-linecap="round" stroke-linejoin="round" />
  <line x1="35.65" y1="73.52" x2="35.65" y2="72.54" fill="currentColor" stroke="currentColor" stroke-width="1.2" stroke-linecap="round" stroke-linejoin="round" />
  <path d="M31.92,72.60 C32.14,72.98 32.44,73.28 32.82,73.49" fill="currentColor" stroke="currentColor" stroke-width="1.2" stroke-linecap="round" stroke-linejoin="round" />
  <path d="M35.23,73.67 C35.39,73.62 35.54,73.57 35.65,73.52" fill="currentColor" stroke="currentColor" stroke-width="1.2" stroke-linecap="round" stroke-linejoin="round" />
  <path d="M32.82,73.49 C33.20,73.70 33.65,73.81 34.15,73.81" fill="currentColor" stroke="currentColor" stroke-width="1.2" stroke-linecap="round" stroke-linejoin="round" />
  <line x1="22.90" y1="73.71" x2="24.06" y2="73.71" fill="currentColor" stroke="currentColor" stroke-width="1.2" stroke-linecap="round" stroke-linejoin="round" />
  <line x1="26.44" y1="73.71" x2="27.46" y2="73.71" fill="currentColor" stroke="currentColor" stroke-width="1.2" stroke-linecap="round" stroke-linejoin="round" />
  <line x1="36.70" y1="73.71" x2="37.70" y2="73.71" fill="currentColor" stroke="currentColor" stroke-width="1.2" stroke-linecap="round" stroke-linejoin="round" />
  <line x1="39.86" y1="73.71" x2="40.85" y2="73.71" fill="currentColor" stroke="currentColor" stroke-width="1.2" stroke-linecap="round" stroke-linejoin="round" />
  <line x1="43.02" y1="73.71" x2="44.01" y2="73.71" fill="currentColor" stroke="currentColor" stroke-width="1.2" stroke-linecap="round" stroke-linejoin="round" />
  <path d="M34.70,73.77 C34.88,73.75 35.06,73.71 35.23,73.67" fill="currentColor" stroke="currentColor" stroke-width="1.2" stroke-linecap="round" stroke-linejoin="round" />
  <path d="M34.15,73.81 C34.33,73.81 34.51,73.80 34.70,73.77" fill="currentColor" stroke="currentColor" stroke-width="1.2" stroke-linecap="round" stroke-linejoin="round" />
  <rect x="8.00" y="77.47" width="49.48" height="49.47" fill="none" stroke="currentColor" stroke-width="1.2499999523162841" stroke-linecap="round" stroke-linejoin="round" />
</svg>