<svg xmlns="http://www.w3.org/2000/svg" viewBox="0 0 258.26 72.51" preserveAspectRatio="xMidYMid meet" shape-rendering="geometricPrecision" text-rendering="optimizeLegibility">
  <line x1="179.99" y1="8.00" x2="8.00" y2="64.51" fill="none" stroke="currentColor" stroke-width="1.4000000476837158" stroke-linecap="round" stroke-linejoin="round" />
  <line x1="8.00" y1="64.51" x2="148.02" y2="64.51" fill="none" stroke="currentColor" stroke-width="1.4000000476837158" stroke-linecap="round" stroke-linejoin="round" />
  <line x1="148.02" y1="64.51" x2="179.99" y2="8.00" fill="none" stroke="currentColor" stroke-width="1.4000000476837158" stroke-linecap="round" stroke-linejoin="round" />
  <line x1="250.26" y1="64.51" x2="8.00" y2="64.51" fill="none" stroke="currentColor" stroke-width="1.4000000476837158" stroke-linecap="round" stroke-linejoin="round" />
  <path d="M154.40,53.31 C158.30,55.52 160.94,59.71 160.94,64.51" fill="none" stroke="currentColor" stroke-width="1.0" stroke-linecap="round" stroke-linejoin="round" />
  <path d="M171.56,22.89 C167.89,20.81 165.07,17.41 163.73,13.34" fill="none" stroke="currentColor" stroke-width="1.0" stroke-linecap="round" stroke-linejoin="round" />
  <path d="M32.05,56.63 C32.86,59.11 33.30,61.76 33.30,64.51" fill="none" stroke="currentColor" stroke-width="1.0" stroke-linecap="round" stroke-linejoin="round" />
  <path d="M43.66,59.27L44.71,61.63C44.73,61.68 44.74,61.72 44.73,61.76C44.73,61.79 44.71,61.82 44.67,61.84C44.63,61.86 44.57,61.88 44.50,61.89C44.43,61.90 44.34,61.90 44.23,61.90C44.13,61.90 44.05,61.90 43.99,61.89C43.94,61.89 43.89,61.88 43.86,61.86C43.83,61.85 43.81,61.84 43.80,61.82C43.79,61.80 43.77,61.77 43.76,61.75L42.96,59.84L41.44,61.75C41.42,61.77 41.39,61.80 41.37,61.82C41.35,61.84 41.31,61.85 41.27,61.86C41.23,61.87 41.17,61.88 41.11,61.89C41.04,61.90 40.95,61.90 40.85,61.90C40.74,61.90 40.66,61.90 40.59,61.89C40.53,61.88 40.48,61.86 40.45,61.84C40.42,61.82 40.41,61.79 40.41,61.76C40.42,61.73 40.44,61.69 40.48,61.64L42.49,59.25L41.49,57.00C41.47,56.95 41.46,56.90 41.46,56.87C41.47,56.84 41.49,56.81 41.52,56.79C41.56,56.77 41.61,56.75 41.67,56.74C41.74,56.74 41.83,56.73 41.94,56.73C42.04,56.73 42.12,56.74 42.18,56.74C42.24,56.75 42.28,56.76 42.31,56.77C42.34,56.78 42.36,56.79 42.38,56.81C42.39,56.83 42.40,56.85 42.41,56.87L43.18,58.68L44.63,56.87C44.65,56.85 44.67,56.83 44.69,56.81C44.71,56.80 44.74,56.78 44.78,56.77C44.82,56.76 44.87,56.75 44.93,56.74C44.99,56.74 45.07,56.73 45.17,56.73C45.27,56.73 45.36,56.74 45.43,56.74C45.50,56.75 45.55,56.76 45.58,56.78C45.61,56.80 45.62,56.83 45.62,56.86C45.61,56.89 45.59,56.94 45.54,56.99L43.66,59.27Z" fill="currentColor" stroke="currentColor" stroke-width="1.2" stroke-linejoin="round" />
  <path d="M157.94,27.66C157.94,27.73 157.93,27.78 157.92,27.83C157.91,27.88 157.90,27.93 157.89,27.96C157.87,27.99 157.85,28.02 157.82,28.03C157.79,28.05 157.77,28.06 157.73,28.06L153.89,28.06C153.84,28.06 153.80,28.05 153.76,28.04C153.72,28.03 153.69,28.01 153.66,27.98C153.64,27.95 153.62,27.91 153.61,27.85C153.59,27.80 153.59,27.73 153.59,27.66C153.59,27.58 153.59,27.52 153.60,27.47C153.60,27.41 153.61,27.37 153.63,27.33C153.65,27.28 153.67,27.24 153.70,27.20C153.72,27.16 153.76,27.12 153.80,27.07L155.15,25.64C155.46,25.31 155.71,25.02 155.90,24.76C156.09,24.49 156.23,24.26 156.33,24.04C156.44,23.83 156.50,23.63 156.54,23.46C156.57,23.28 156.58,23.12 156.58,22.96C156.58,22.81 156.56,22.66 156.51,22.52C156.46,22.39 156.39,22.27 156.29,22.16C156.20,22.06 156.08,21.98 155.93,21.91C155.79,21.85 155.63,21.82 155.44,21.82C155.22,21.82 155.03,21.85 154.85,21.91C154.68,21.98 154.53,22.04 154.40,22.11C154.26,22.18 154.16,22.25 154.07,22.31C153.98,22.37 153.91,22.40 153.87,22.40C153.85,22.40 153.82,22.40 153.81,22.38C153.79,22.37 153.77,22.34 153.76,22.31C153.74,22.28 153.73,22.24 153.73,22.18C153.72,22.13 153.72,22.06 153.72,21.99C153.72,21.94 153.72,21.89 153.72,21.85C153.72,21.81 153.73,21.78 153.74,21.75C153.75,21.72 153.76,21.69 153.78,21.67C153.79,21.64 153.82,21.61 153.86,21.57C153.90,21.54 153.98,21.48 154.08,21.42C154.19,21.36 154.32,21.29 154.48,21.23C154.64,21.17 154.82,21.11 155.01,21.07C155.20,21.03 155.40,21.01 155.61,21.01C155.95,21.01 156.24,21.05 156.50,21.15C156.75,21.24 156.96,21.37 157.12,21.54C157.29,21.70 157.41,21.89 157.50,22.11C157.58,22.33 157.62,22.56 157.62,22.81C157.62,23.03 157.60,23.25 157.56,23.47C157.52,23.69 157.44,23.93 157.31,24.19C157.19,24.44 157.00,24.73 156.76,25.04C156.52,25.36 156.20,25.72 155.81,26.13L154.70,27.27L157.73,27.27C157.76,27.27 157.78,27.28 157.81,27.30C157.84,27.31 157.86,27.34 157.88,27.37C157.90,27.40 157.91,27.44 157.92,27.49C157.93,27.54 157.94,27.60 157.94,27.66Z" fill="currentColor" stroke="currentColor" stroke-width="1.2" stroke-linejoin="round" />
  <path d="M161.54,25.46L162.59,27.82C162.62,27.87 162.62,27.91 162.62,27.95C162.61,27.98 162.59,28.01 162.55,28.03C162.51,28.05 162.46,28.07 162.39,28.08C162.32,28.09 162.23,28.09 162.12,28.09C162.02,28.09 161.94,28.09 161.88,28.08C161.82,28.08 161.78,28.07 161.75,28.06C161.71,28.04 161.69,28.03 161.68,28.01C161.67,27.99 161.66,27.97 161.65,27.94L160.84,26.03L159.32,27.94C159.30,27.97 159.28,27.99 159.26,28.01C159.23,28.03 159.20,28.04 159.16,28.05C159.11,28.06 159.06,28.07 158.99,28.08C158.93,28.09 158.84,28.09 158.73,28.09C158.63,28.09 158.54,28.09 158.48,28.08C158.42,28.07 158.37,28.05 158.34,28.03C158.31,28.01 158.29,27.98 158.30,27.95C158.31,27.92 158.33,27.88 158.36,27.83L160.37,25.44L159.38,23.19C159.36,23.14 159.35,23.09 159.35,23.06C159.35,23.03 159.37,23.00 159.41,22.98C159.44,22.96 159.49,22.94 159.56,22.93C159.63,22.93 159.72,22.92 159.83,22.92C159.93,22.92 160.01,22.93 160.07,22.93C160.12,22.94 160.17,22.95 160.20,22.96C160.23,22.97 160.25,22.98 160.26,23.00C160.27,23.02 160.29,23.04 160.30,23.06L161.06,24.87L162.51,23.06C162.54,23.04 162.56,23.02 162.58,23.00C162.60,22.99 162.63,22.97 162.67,22.96C162.71,22.95 162.76,22.94 162.82,22.93C162.88,22.93 162.95,22.92 163.05,22.92C163.16,22.92 163.25,22.93 163.31,22.93C163.38,22.94 163.43,22.95 163.46,22.97C163.50,22.99 163.51,23.02 163.51,23.05C163.50,23.08 163.47,23.13 163.43,23.18L161.54,25.46Z" fill="currentColor" stroke="currentColor" stroke-width="1.2" stroke-linejoin="round" />
  <path d="M166.90,55.68C166.90,55.99 166.85,56.28 166.76,56.57C166.67,56.85 166.52,57.10 166.33,57.32C166.14,57.53 165.89,57.71 165.59,57.84C165.30,57.97 164.95,58.03 164.54,58.03C164.25,58.03 164.00,58.00 163.77,57.93C163.55,57.86 163.36,57.75 163.19,57.62C163.03,57.49 162.89,57.33 162.78,57.13C162.67,56.94 162.59,56.72 162.52,56.47C162.45,56.22 162.41,55.95 162.38,55.66C162.35,55.37 162.33,55.05 162.33,54.71C162.33,54.42 162.35,54.12 162.38,53.81C162.41,53.51 162.47,53.21 162.55,52.93C162.64,52.65 162.75,52.38 162.89,52.13C163.03,51.89 163.21,51.67 163.42,51.48C163.63,51.30 163.89,51.15 164.19,51.05C164.48,50.94 164.83,50.89 165.22,50.89C165.36,50.89 165.49,50.89 165.63,50.91C165.76,50.93 165.89,50.95 166.00,50.97C166.12,51.00 166.21,51.03 166.29,51.06C166.37,51.10 166.42,51.12 166.45,51.14C166.47,51.16 166.49,51.18 166.50,51.21C166.52,51.23 166.53,51.25 166.53,51.28C166.54,51.31 166.55,51.34 166.55,51.37C166.55,51.41 166.56,51.45 166.56,51.50C166.56,51.56 166.55,51.62 166.55,51.66C166.55,51.71 166.54,51.75 166.53,51.78C166.52,51.81 166.50,51.83 166.48,51.84C166.46,51.86 166.44,51.86 166.41,51.86C166.37,51.86 166.31,51.85 166.24,51.83C166.18,51.80 166.09,51.77 166.00,51.74C165.90,51.71 165.78,51.68 165.65,51.66C165.51,51.63 165.35,51.62 165.16,51.62C164.83,51.62 164.55,51.69 164.31,51.83C164.07,51.96 163.87,52.14 163.72,52.37C163.56,52.60 163.45,52.87 163.38,53.17C163.31,53.47 163.26,53.79 163.25,54.12C163.35,54.07 163.45,54.01 163.57,53.96C163.68,53.90 163.81,53.86 163.95,53.81C164.09,53.77 164.23,53.74 164.39,53.71C164.54,53.68 164.70,53.67 164.88,53.67C165.26,53.67 165.57,53.72 165.83,53.82C166.09,53.92 166.30,54.06 166.46,54.24C166.62,54.43 166.73,54.64 166.80,54.88C166.87,55.13 166.90,55.40 166.90,55.68ZM165.96,55.77C165.96,55.56 165.94,55.37 165.90,55.20C165.86,55.03 165.79,54.89 165.70,54.77C165.60,54.65 165.47,54.56 165.31,54.49C165.15,54.43 164.95,54.40 164.71,54.40C164.58,54.40 164.45,54.41 164.32,54.43C164.18,54.46 164.06,54.49 163.93,54.53C163.81,54.57 163.69,54.62 163.58,54.68C163.46,54.73 163.36,54.79 163.27,54.85C163.27,55.32 163.30,55.70 163.36,56.02C163.42,56.33 163.50,56.58 163.62,56.76C163.73,56.95 163.87,57.09 164.04,57.17C164.21,57.25 164.40,57.29 164.63,57.29C164.86,57.29 165.06,57.24 165.22,57.16C165.39,57.07 165.53,56.96 165.64,56.81C165.75,56.67 165.84,56.50 165.89,56.32C165.94,56.14 165.96,55.96 165.96,55.77Z" fill="currentColor" stroke="currentColor" stroke-width="1.2" stroke-linejoin="round" />
  <path d="M172.35,54.18C172.35,54.48 172.33,54.79 172.30,55.10C172.26,55.40 172.20,55.70 172.11,55.98C172.03,56.27 171.91,56.54 171.77,56.78C171.62,57.03 171.44,57.25 171.22,57.44C171.00,57.62 170.74,57.77 170.44,57.88C170.13,57.98 169.78,58.03 169.38,58.03C169.23,58.03 169.08,58.02 168.93,58.00C168.79,57.98 168.66,57.96 168.54,57.93C168.42,57.90 168.33,57.87 168.25,57.84C168.17,57.81 168.11,57.78 168.08,57.74C168.04,57.71 168.01,57.67 168.00,57.61C167.98,57.56 167.97,57.48 167.97,57.39C167.97,57.31 167.98,57.25 167.98,57.20C167.99,57.15 168.00,57.12 168.01,57.09C168.02,57.07 168.03,57.05 168.05,57.04C168.07,57.03 168.10,57.03 168.12,57.03C168.16,57.03 168.22,57.04 168.29,57.07C168.36,57.10 168.45,57.13 168.56,57.16C168.67,57.19 168.80,57.22 168.95,57.25C169.09,57.27 169.26,57.29 169.44,57.29C169.79,57.29 170.09,57.22 170.33,57.09C170.58,56.95 170.79,56.77 170.94,56.55C171.10,56.32 171.22,56.06 171.30,55.76C171.38,55.46 171.42,55.15 171.43,54.82C171.24,54.93 171.01,55.03 170.74,55.12C170.48,55.20 170.18,55.25 169.83,55.25C169.45,55.25 169.12,55.19 168.86,55.09C168.59,54.98 168.38,54.84 168.22,54.66C168.06,54.47 167.95,54.26 167.88,54.01C167.81,53.75 167.77,53.48 167.77,53.18C167.77,52.88 167.82,52.58 167.91,52.31C168.00,52.03 168.14,51.78 168.33,51.57C168.52,51.36 168.76,51.19 169.05,51.07C169.35,50.94 169.70,50.88 170.11,50.88C170.40,50.88 170.65,50.92 170.88,50.99C171.10,51.06 171.29,51.17 171.46,51.31C171.62,51.44 171.76,51.61 171.88,51.81C171.99,52.00 172.09,52.22 172.15,52.47C172.22,52.72 172.27,52.98 172.31,53.27C172.34,53.56 172.35,53.86 172.35,54.18ZM171.41,54.08C171.41,53.62 171.38,53.24 171.32,52.92C171.26,52.61 171.17,52.36 171.05,52.16C170.93,51.97 170.79,51.83 170.62,51.74C170.44,51.66 170.25,51.62 170.02,51.62C169.79,51.62 169.59,51.66 169.42,51.74C169.26,51.83 169.12,51.94 169.02,52.08C168.91,52.22 168.83,52.38 168.78,52.56C168.73,52.74 168.71,52.92 168.71,53.11C168.71,53.32 168.73,53.52 168.78,53.69C168.82,53.87 168.89,54.02 168.99,54.14C169.09,54.26 169.23,54.36 169.39,54.42C169.55,54.49 169.75,54.52 169.98,54.52C170.25,54.52 170.51,54.48 170.76,54.40C171.01,54.32 171.23,54.21 171.41,54.08Z" fill="currentColor" stroke="currentColor" stroke-width="1.2" stroke-linejoin="round" />
  <path d="M176.08,51.85C176.08,52.02 176.05,52.19 175.98,52.34C175.92,52.49 175.82,52.63 175.71,52.75C175.59,52.86 175.44,52.95 175.28,53.02C175.12,53.08 174.94,53.11 174.75,53.11C174.56,53.11 174.39,53.08 174.23,53.03C174.08,52.97 173.94,52.88 173.83,52.78C173.71,52.67 173.62,52.54 173.56,52.39C173.49,52.24 173.46,52.07 173.46,51.89C173.46,51.71 173.50,51.54 173.56,51.38C173.63,51.23 173.73,51.09 173.85,50.98C173.97,50.87 174.11,50.78 174.27,50.72C174.43,50.65 174.60,50.62 174.79,50.62C174.98,50.62 175.15,50.65 175.31,50.71C175.47,50.77 175.60,50.86 175.72,50.96C175.83,51.07 175.92,51.20 175.99,51.35C176.05,51.50 176.08,51.66 176.08,51.85ZM175.41,51.87C175.41,51.77 175.39,51.68 175.36,51.60C175.33,51.51 175.28,51.44 175.22,51.38C175.17,51.32 175.10,51.27 175.02,51.24C174.94,51.20 174.86,51.19 174.76,51.19C174.67,51.19 174.59,51.20 174.51,51.24C174.44,51.27 174.37,51.32 174.31,51.38C174.25,51.44 174.21,51.51 174.18,51.59C174.14,51.68 174.13,51.76 174.13,51.86C174.13,51.96 174.14,52.06 174.18,52.14C174.21,52.23 174.25,52.30 174.31,52.36C174.37,52.42 174.44,52.47 174.52,52.50C174.60,52.54 174.69,52.56 174.78,52.56C174.87,52.56 174.95,52.54 175.03,52.50C175.11,52.47 175.17,52.42 175.23,52.35C175.28,52.29 175.33,52.22 175.36,52.14C175.39,52.05 175.41,51.96 175.41,51.87Z" fill="currentColor" stroke="currentColor" stroke-width="1.2" stroke-linejoin="round" />
</svg>