<svg xmlns="http://www.w3.org/2000/svg" viewBox="0 0 169.21 146.78" preserveAspectRatio="xMidYMid meet" shape-rendering="geometricPrecision" text-rendering="optimizeLegibility">
  <line x1="44.86" y1="8.00" x2="23.77" y2="138.78" fill="none" stroke="currentColor" stroke-width="1.4000000476837158" stroke-linecap="round" stroke-linejoin="round" />
  <path d="M28.52,16.44 C28.57,16.44 28.64,16.43 28.72,16.43" fill="currentColor" stroke="currentColor" stroke-width="1.2" stroke-linecap="round" stroke-linejoin="round" />
  <path d="M28.72,16.43 C28.81,16.43 28.87,16.44 28.93,16.44" fill="currentColor" stroke="currentColor" stroke-width="1.2" stroke-linecap="round" stroke-linejoin="round" />
  <path d="M31.37,16.44 C31.42,16.44 31.48,16.43 31.56,16.43" fill="currentColor" stroke="currentColor" stroke-width="1.2" stroke-linecap="round" stroke-linejoin="round" />
  <path d="M31.56,16.43 C31.63,16.43 31.70,16.44 31.75,16.44" fill="currentColor" stroke="currentColor" stroke-width="1.2" stroke-linecap="round" stroke-linejoin="round" />
  <path d="M34.22,16.44 C34.28,16.44 34.35,16.43 34.43,16.43" fill="currentColor" stroke="currentColor" stroke-width="1.2" stroke-linecap="round" stroke-linejoin="round" />
  <path d="M34.43,16.43 C34.51,16.43 34.57,16.44 34.62,16.44" fill="currentColor" stroke="currentColor" stroke-width="1.2" stroke-linecap="round" stroke-linejoin="round" />
  <path d="M28.39,16.47 C28.42,16.45 28.46,16.44 28.52,16.44" fill="currentColor" stroke="currentColor" stroke-width="1.2" stroke-linecap="round" stroke-linejoin="round" />
  <path d="M28.93,16.44 C28.98,16.44 29.01,16.45 29.04,16.46" fill="currentColor" stroke="currentColor" stroke-width="1.2" stroke-linecap="round" stroke-linejoin="round" />
  <path d="M31.26,16.47 C31.29,16.45 31.33,16.44 31.37,16.44" fill="currentColor" stroke="currentColor" stroke-width="1.2" stroke-linecap="round" stroke-linejoin="round" />
  <path d="M31.75,16.44 C31.80,16.44 31.84,16.45 31.87,16.46" fill="currentColor" stroke="currentColor" stroke-width="1.2" stroke-linecap="round" stroke-linejoin="round" />
  <path d="M34.09,16.46 C34.12,16.45 34.17,16.44 34.22,16.44" fill="currentColor" stroke="currentColor" stroke-width="1.2" stroke-linecap="round" stroke-linejoin="round" />
  <path d="M34.62,16.44 C34.67,16.44 34.71,16.45 34.74,16.46" fill="currentColor" stroke="currentColor" stroke-width="1.2" stroke-linecap="round" stroke-linejoin="round" />
  <path d="M34.74,16.46 C34.76,16.47 34.78,16.48 34.79,16.49" fill="currentColor" stroke="currentColor" stroke-width="1.2" stroke-linecap="round" stroke-linejoin="round" />
  <path d="M29.04,16.46 C29.07,16.48 29.09,16.49 29.10,16.51" fill="currentColor" stroke="currentColor" stroke-width="1.2" stroke-linecap="round" stroke-linejoin="round" />
  <path d="M31.87,16.46 C31.90,16.48 31.92,16.49 31.93,16.51" fill="currentColor" stroke="currentColor" stroke-width="1.2" stroke-linecap="round" stroke-linejoin="round" />
  <path d="M34.01,16.51 C34.03,16.49 34.05,16.48 34.09,16.46" fill="currentColor" stroke="currentColor" stroke-width="1.2" stroke-linecap="round" stroke-linejoin="round" />
  <path d="M31.19,16.52 C31.20,16.50 31.23,16.48 31.26,16.47" fill="currentColor" stroke="currentColor" stroke-width="1.2" stroke-linecap="round" stroke-linejoin="round" />
  <path d="M28.32,16.53 C28.34,16.50 28.36,16.48 28.39,16.47" fill="currentColor" stroke="currentColor" stroke-width="1.2" stroke-linecap="round" stroke-linejoin="round" />
  <path d="M34.79,16.49 C34.80,16.51 34.80,16.53 34.80,16.54" fill="currentColor" stroke="currentColor" stroke-width="1.2" stroke-linecap="round" stroke-linejoin="round" />
  <path d="M31.93,16.51 C31.94,16.53 31.95,16.55 31.95,16.58" fill="currentColor" stroke="currentColor" stroke-width="1.2" stroke-linecap="round" stroke-linejoin="round" />
  <path d="M29.10,16.51 C29.11,16.53 29.11,16.56 29.12,16.59" fill="currentColor" stroke="currentColor" stroke-width="1.2" stroke-linecap="round" stroke-linejoin="round" />
  <path d="M33.97,16.59 C33.97,16.56 33.99,16.53 34.01,16.51" fill="currentColor" stroke="currentColor" stroke-width="1.2" stroke-linecap="round" stroke-linejoin="round" />
  <path d="M31.14,16.59 C31.16,16.56 31.17,16.54 31.19,16.52" fill="currentColor" stroke="currentColor" stroke-width="1.2" stroke-linecap="round" stroke-linejoin="round" />
  <path d="M28.30,16.62 C28.30,16.58 28.31,16.55 28.32,16.53" fill="currentColor" stroke="currentColor" stroke-width="1.2" stroke-linecap="round" stroke-linejoin="round" />
  <path d="M34.80,16.54 C34.80,16.58 34.80,16.62 34.79,16.65" fill="currentColor" stroke="currentColor" stroke-width="1.2" stroke-linecap="round" stroke-linejoin="round" />
  <line x1="31.95" y1="16.58" x2="32.32" y2="20.20" fill="currentColor" stroke="currentColor" stroke-width="1.2" stroke-linecap="round" stroke-linejoin="round" />
  <line x1="29.12" y1="16.59" x2="29.46" y2="20.22" fill="currentColor" stroke="currentColor" stroke-width="1.2" stroke-linecap="round" stroke-linejoin="round" />
  <line x1="29.48" y1="20.22" x2="31.14" y2="16.59" fill="currentColor" stroke="currentColor" stroke-width="1.2" stroke-linecap="round" stroke-linejoin="round" />
  <path d="M33.62,17.56 C33.75,17.23 33.86,16.90 33.97,16.59" fill="currentColor" stroke="currentColor" stroke-width="1.2" stroke-linecap="round" stroke-linejoin="round" />
  <path d="M28.31,16.69 C28.30,16.67 28.30,16.64 28.30,16.62" fill="currentColor" stroke="currentColor" stroke-width="1.2" stroke-linecap="round" stroke-linejoin="round" />
  <path d="M34.79,16.65 C34.78,16.69 34.77,16.72 34.76,16.75" fill="currentColor" stroke="currentColor" stroke-width="1.2" stroke-linecap="round" stroke-linejoin="round" />
  <path d="M28.31,16.78 C28.31,16.75 28.31,16.72 28.31,16.69" fill="currentColor" stroke="currentColor" stroke-width="1.2" stroke-linecap="round" stroke-linejoin="round" />
  <path d="M34.76,16.75 C34.64,17.10 34.50,17.46 34.35,17.83" fill="currentColor" stroke="currentColor" stroke-width="1.2" stroke-linecap="round" stroke-linejoin="round" />
  <line x1="28.78" y1="20.95" x2="28.31" y2="16.78" fill="currentColor" stroke="currentColor" stroke-width="1.2" stroke-linecap="round" stroke-linejoin="round" />
  <path d="M33.22,18.52 C33.36,18.21 33.50,17.88 33.62,17.56" fill="currentColor" stroke="currentColor" stroke-width="1.2" stroke-linecap="round" stroke-linejoin="round" />
  <line x1="31.65" y1="20.95" x2="31.33" y2="17.73" fill="currentColor" stroke="currentColor" stroke-width="1.2" stroke-linecap="round" stroke-linejoin="round" />
  <line x1="31.33" y1="17.73" x2="29.85" y2="20.94" fill="currentColor" stroke="currentColor" stroke-width="1.2" stroke-linecap="round" stroke-linejoin="round" />
  <path d="M34.35,17.83 C34.21,18.19 34.04,18.55 33.87,18.91" fill="currentColor" stroke="currentColor" stroke-width="1.2" stroke-linecap="round" stroke-linejoin="round" />
  <path d="M32.79,19.42 C32.94,19.13 33.08,18.83 33.22,18.52" fill="currentColor" stroke="currentColor" stroke-width="1.2" stroke-linecap="round" stroke-linejoin="round" />
  <line x1="96.43" y1="18.78" x2="147.99" y2="132.69" fill="none" stroke="currentColor" stroke-width="1.4000000476837158" stroke-linecap="round" stroke-linejoin="round" />
  <path d="M33.87,18.91 C33.69,19.27 33.50,19.62 33.29,19.97" fill="currentColor" stroke="currentColor" stroke-width="1.2" stroke-linecap="round" stroke-linejoin="round" />
  <path d="M32.34,20.20 C32.49,19.96 32.64,19.70 32.79,19.42" fill="currentColor" stroke="currentColor" stroke-width="1.2" stroke-linecap="round" stroke-linejoin="round" />
  <path d="M33.29,19.97 C33.09,20.32 32.87,20.65 32.63,20.97" fill="currentColor" stroke="currentColor" stroke-width="1.2" stroke-linecap="round" stroke-linejoin="round" />
  <path d="M31.68,28.33 C32.42,23.66 36.46,20.09 41.34,20.09" fill="none" stroke="currentColor" stroke-width="1.000000011920929" stroke-linecap="round" stroke-linejoin="round" />
  <path d="M41.34,20.09 C41.87,20.09 42.40,20.13 42.91,20.22" fill="none" stroke="currentColor" stroke-width="1.000000011920929" stroke-linecap="round" stroke-linejoin="round" />
  <line x1="32.32" y1="20.20" x2="32.32" y2="20.24" fill="currentColor" stroke="currentColor" stroke-width="1.2" stroke-linecap="round" stroke-linejoin="round" />
  <line x1="32.32" y1="20.24" x2="32.34" y2="20.20" fill="currentColor" stroke="currentColor" stroke-width="1.2" stroke-linecap="round" stroke-linejoin="round" />
  <line x1="29.46" y1="20.22" x2="29.46" y2="20.27" fill="currentColor" stroke="currentColor" stroke-width="1.2" stroke-linecap="round" stroke-linejoin="round" />
  <line x1="29.46" y1="20.27" x2="29.48" y2="20.22" fill="currentColor" stroke="currentColor" stroke-width="1.2" stroke-linecap="round" stroke-linejoin="round" />
  <path d="M29.85,20.94 C29.83,20.98 29.81,21.01 29.78,21.03" fill="currentColor" stroke="currentColor" stroke-width="1.2" stroke-linecap="round" stroke-linejoin="round" />
  <path d="M31.67,21.04 C31.66,21.01 31.65,20.99 31.65,20.95" fill="currentColor" stroke="currentColor" stroke-width="1.2" stroke-linecap="round" stroke-linejoin="round" />
  <path d="M28.81,21.04 C28.79,21.01 28.78,20.99 28.78,20.95" fill="currentColor" stroke="currentColor" stroke-width="1.2" stroke-linecap="round" stroke-linejoin="round" />
  <path d="M32.63,20.97 C32.61,21.01 32.58,21.04 32.55,21.06" fill="currentColor" stroke="currentColor" stroke-width="1.2" stroke-linecap="round" stroke-linejoin="round" />
  <path d="M29.78,21.03 C29.76,21.05 29.72,21.07 29.68,21.09" fill="currentColor" stroke="currentColor" stroke-width="1.2" stroke-linecap="round" stroke-linejoin="round" />
  <path d="M31.75,21.09 C31.71,21.08 31.69,21.06 31.67,21.04" fill="currentColor" stroke="currentColor" stroke-width="1.2" stroke-linecap="round" stroke-linejoin="round" />
  <path d="M28.90,21.09 C28.86,21.08 28.83,21.06 28.81,21.04" fill="currentColor" stroke="currentColor" stroke-width="1.2" stroke-linecap="round" stroke-linejoin="round" />
  <path d="M32.55,21.06 C32.51,21.08 32.47,21.09 32.43,21.10" fill="currentColor" stroke="currentColor" stroke-width="1.2" stroke-linecap="round" stroke-linejoin="round" />
  <path d="M29.68,21.09 C29.64,21.10 29.58,21.11 29.52,21.12" fill="currentColor" stroke="currentColor" stroke-width="1.2" stroke-linecap="round" stroke-linejoin="round" />
  <path d="M31.88,21.12 C31.83,21.11 31.78,21.10 31.75,21.09" fill="currentColor" stroke="currentColor" stroke-width="1.2" stroke-linecap="round" stroke-linejoin="round" />
  <path d="M29.05,21.12 C28.99,21.11 28.94,21.10 28.90,21.09" fill="currentColor" stroke="currentColor" stroke-width="1.2" stroke-linecap="round" stroke-linejoin="round" />
  <path d="M32.43,21.10 C32.39,21.11 32.34,21.12 32.28,21.12" fill="currentColor" stroke="currentColor" stroke-width="1.2" stroke-linecap="round" stroke-linejoin="round" />
  <path d="M32.10,21.13 C32.01,21.13 31.94,21.13 31.88,21.12" fill="currentColor" stroke="currentColor" stroke-width="1.2" stroke-linecap="round" stroke-linejoin="round" />
  <path d="M29.52,21.12 C29.46,21.13 29.38,21.13 29.29,21.13" fill="currentColor" stroke="currentColor" stroke-width="1.2" stroke-linecap="round" stroke-linejoin="round" />
  <path d="M29.29,21.13 C29.20,21.13 29.12,21.13 29.05,21.12" fill="currentColor" stroke="currentColor" stroke-width="1.2" stroke-linecap="round" stroke-linejoin="round" />
  <path d="M32.28,21.12 C32.23,21.13 32.16,21.13 32.10,21.13" fill="currentColor" stroke="currentColor" stroke-width="1.2" stroke-linecap="round" stroke-linejoin="round" />
  <line x1="15.80" y1="25.81" x2="128.81" y2="43.76" fill="none" stroke="currentColor" stroke-width="1.4000000476837158" stroke-linecap="round" stroke-linejoin="round" />
  <path d="M114.96,26.52 C114.98,26.51 115.01,26.50 115.04,26.50" fill="currentColor" stroke="currentColor" stroke-width="1.2" stroke-linecap="round" stroke-linejoin="round" />
  <line x1="115.04" y1="26.50" x2="117.57" y2="26.50" fill="currentColor" stroke="currentColor" stroke-width="1.2" stroke-linecap="round" stroke-linejoin="round" />
  <path d="M117.57,26.50 C117.63,26.50 117.68,26.51 117.70,26.54" fill="currentColor" stroke="currentColor" stroke-width="1.2" stroke-linecap="round" stroke-linejoin="round" />
  <path d="M114.89,26.59 C114.91,26.56 114.93,26.54 114.96,26.52" fill="currentColor" stroke="currentColor" stroke-width="1.2" stroke-linecap="round" stroke-linejoin="round" />
  <path d="M117.70,26.54 C117.73,26.57 117.74,26.61 117.74,26.66" fill="currentColor" stroke="currentColor" stroke-width="1.2" stroke-linecap="round" stroke-linejoin="round" />
  <path d="M114.84,26.68 C114.86,26.65 114.87,26.61 114.89,26.59" fill="currentColor" stroke="currentColor" stroke-width="1.2" stroke-linecap="round" stroke-linejoin="round" />
  <path d="M117.74,26.66 C117.74,26.68 117.74,26.70 117.73,26.73" fill="currentColor" stroke="currentColor" stroke-width="1.2" stroke-linecap="round" stroke-linejoin="round" />
  <path d="M114.81,26.80 C114.81,26.76 114.83,26.72 114.84,26.68" fill="currentColor" stroke="currentColor" stroke-width="1.2" stroke-linecap="round" stroke-linejoin="round" />
  <path d="M117.73,26.73 C117.73,26.76 117.73,26.80 117.72,26.83" fill="currentColor" stroke="currentColor" stroke-width="1.2" stroke-linecap="round" stroke-linejoin="round" />
  <path d="M114.79,26.91 C114.79,26.87 114.80,26.83 114.81,26.80" fill="currentColor" stroke="currentColor" stroke-width="1.2" stroke-linecap="round" stroke-linejoin="round" />
  <path d="M117.72,26.83 C117.71,26.86 117.71,26.90 117.70,26.93" fill="currentColor" stroke="currentColor" stroke-width="1.2" stroke-linecap="round" stroke-linejoin="round" />
  <path d="M114.78,27.00 C114.78,26.98 114.78,26.94 114.79,26.91" fill="currentColor" stroke="currentColor" stroke-width="1.2" stroke-linecap="round" stroke-linejoin="round" />
  <path d="M117.70,26.93 C117.69,26.97 117.69,27.00 117.68,27.02" fill="currentColor" stroke="currentColor" stroke-width="1.2" stroke-linecap="round" stroke-linejoin="round" />
  <path d="M114.81,27.13 C114.79,27.11 114.78,27.06 114.78,27.00" fill="currentColor" stroke="currentColor" stroke-width="1.2" stroke-linecap="round" stroke-linejoin="round" />
  <path d="M117.68,27.02 C117.66,27.09 117.63,27.16 117.59,27.22" fill="currentColor" stroke="currentColor" stroke-width="1.2" stroke-linecap="round" stroke-linejoin="round" />
  <path d="M114.91,27.17 C114.86,27.17 114.83,27.16 114.81,27.13" fill="currentColor" stroke="currentColor" stroke-width="1.2" stroke-linecap="round" stroke-linejoin="round" />
  <line x1="114.24" y1="30.19" x2="116.74" y2="27.17" fill="currentColor" stroke="currentColor" stroke-width="1.2" stroke-linecap="round" stroke-linejoin="round" />
  <line x1="116.74" y1="27.17" x2="114.91" y2="27.17" fill="currentColor" stroke="currentColor" stroke-width="1.2" stroke-linecap="round" stroke-linejoin="round" />
  <path d="M117.59,27.22 C117.55,27.29 117.49,27.36 117.42,27.44" fill="currentColor" stroke="currentColor" stroke-width="1.2" stroke-linecap="round" stroke-linejoin="round" />
  <line x1="117.42" y1="27.44" x2="114.94" y2="30.46" fill="currentColor" stroke="currentColor" stroke-width="1.2" stroke-linecap="round" stroke-linejoin="round" />
  <path d="M114.13,30.33 C114.16,30.29 114.20,30.24 114.24,30.19" fill="currentColor" stroke="currentColor" stroke-width="1.2" stroke-linecap="round" stroke-linejoin="round" />
  <path d="M114.06,30.43 C114.08,30.40 114.11,30.37 114.13,30.33" fill="currentColor" stroke="currentColor" stroke-width="1.2" stroke-linecap="round" stroke-linejoin="round" />
  <path d="M102.06,31.24 C103.29,30.68 104.66,30.37 106.10,30.37" fill="none" stroke="currentColor" stroke-width="1.000000011920929" stroke-linecap="round" stroke-linejoin="round" />
  <path d="M106.10,30.37 C111.49,30.37 115.88,34.75 115.88,40.15" fill="none" stroke="currentColor" stroke-width="1.000000011920929" stroke-linecap="round" stroke-linejoin="round" />
  <path d="M114.02,30.50 C114.03,30.48 114.04,30.46 114.06,30.43" fill="currentColor" stroke="currentColor" stroke-width="1.2" stroke-linecap="round" stroke-linejoin="round" />
  <line x1="114.94" y1="30.46" x2="116.95" y2="30.46" fill="currentColor" stroke="currentColor" stroke-width="1.2" stroke-linecap="round" stroke-linejoin="round" />
  <path d="M116.95,30.46 C116.99,30.46 117.02,30.48 117.04,30.51" fill="currentColor" stroke="currentColor" stroke-width="1.2" stroke-linecap="round" stroke-linejoin="round" />
  <path d="M113.99,30.57 C114.00,30.55 114.01,30.52 114.02,30.50" fill="currentColor" stroke="currentColor" stroke-width="1.2" stroke-linecap="round" stroke-linejoin="round" />
  <path d="M117.04,30.51 C117.06,30.54 117.07,30.58 117.07,30.63" fill="currentColor" stroke="currentColor" stroke-width="1.2" stroke-linecap="round" stroke-linejoin="round" />
  <path d="M113.97,30.65 C113.98,30.61 113.99,30.59 113.99,30.57" fill="currentColor" stroke="currentColor" stroke-width="1.2" stroke-linecap="round" stroke-linejoin="round" />
  <path d="M117.07,30.63 C117.07,30.66 117.07,30.69 117.06,30.73" fill="currentColor" stroke="currentColor" stroke-width="1.2" stroke-linecap="round" stroke-linejoin="round" />
  <path d="M113.95,30.75 C113.96,30.71 113.96,30.68 113.97,30.65" fill="currentColor" stroke="currentColor" stroke-width="1.2" stroke-linecap="round" stroke-linejoin="round" />
  <path d="M117.06,30.73 C117.06,30.76 117.05,30.80 117.04,30.83" fill="currentColor" stroke="currentColor" stroke-width="1.2" stroke-linecap="round" stroke-linejoin="round" />
  <path d="M113.93,30.86 C113.94,30.83 113.94,30.79 113.95,30.75" fill="currentColor" stroke="currentColor" stroke-width="1.2" stroke-linecap="round" stroke-linejoin="round" />
  <path d="M117.04,30.83 C117.04,30.87 117.02,30.90 117.01,30.94" fill="currentColor" stroke="currentColor" stroke-width="1.2" stroke-linecap="round" stroke-linejoin="round" />
  <path d="M113.92,30.95 C113.92,30.93 113.92,30.90 113.93,30.86" fill="currentColor" stroke="currentColor" stroke-width="1.2" stroke-linecap="round" stroke-linejoin="round" />
  <path d="M117.01,30.94 C117.00,30.98 116.98,31.01 116.96,31.04" fill="currentColor" stroke="currentColor" stroke-width="1.2" stroke-linecap="round" stroke-linejoin="round" />
  <path d="M113.96,31.09 C113.93,31.05 113.92,31.01 113.92,30.95" fill="currentColor" stroke="currentColor" stroke-width="1.2" stroke-linecap="round" stroke-linejoin="round" />
  <path d="M116.96,31.04 C116.94,31.07 116.92,31.10 116.90,31.11" fill="currentColor" stroke="currentColor" stroke-width="1.2" stroke-linecap="round" stroke-linejoin="round" />
  <path d="M114.10,31.14 C114.04,31.14 113.99,31.12 113.96,31.09" fill="currentColor" stroke="currentColor" stroke-width="1.2" stroke-linecap="round" stroke-linejoin="round" />
  <path d="M116.90,31.11 C116.88,31.13 116.85,31.14 116.82,31.14" fill="currentColor" stroke="currentColor" stroke-width="1.2" stroke-linecap="round" stroke-linejoin="round" />
  <line x1="116.82" y1="31.14" x2="114.10" y2="31.14" fill="currentColor" stroke="currentColor" stroke-width="1.2" stroke-linecap="round" stroke-linejoin="round" />
  <path d="M115.88,40.15 C115.88,40.67 115.83,41.18 115.76,41.68" fill="none" stroke="currentColor" stroke-width="1.000000011920929" stroke-linecap="round" stroke-linejoin="round" />
  <line x1="8.00" y1="121.79" x2="161.21" y2="108.03" fill="none" stroke="currentColor" stroke-width="1.4000000476837158" stroke-linecap="round" stroke-linejoin="round" />
  <path d="M147.52,109.27 C147.54,109.55 147.56,109.84 147.56,110.14" fill="none" stroke="currentColor" stroke-width="1.000000011920929" stroke-linecap="round" stroke-linejoin="round" />
  <path d="M147.56,110.14 C147.57,114.10 145.24,117.51 141.84,119.05" fill="none" stroke="currentColor" stroke-width="1.000000011920929" stroke-linecap="round" stroke-linejoin="round" />
  <path d="M148.61,116.33 C148.66,116.32 148.73,116.32 148.81,116.32" fill="currentColor" stroke="currentColor" stroke-width="1.2" stroke-linecap="round" stroke-linejoin="round" />
  <path d="M148.81,116.32 C148.89,116.32 148.96,116.32 149.01,116.33" fill="currentColor" stroke="currentColor" stroke-width="1.2" stroke-linecap="round" stroke-linejoin="round" />
  <path d="M151.75,116.33 C151.80,116.32 151.88,116.32 151.97,116.32" fill="currentColor" stroke="currentColor" stroke-width="1.2" stroke-linecap="round" stroke-linejoin="round" />
  <path d="M151.97,116.32 C152.11,116.32 152.21,116.33 152.26,116.35" fill="currentColor" stroke="currentColor" stroke-width="1.2" stroke-linecap="round" stroke-linejoin="round" />
  <path d="M148.48,116.36 C148.51,116.34 148.55,116.33 148.61,116.33" fill="currentColor" stroke="currentColor" stroke-width="1.2" stroke-linecap="round" stroke-linejoin="round" />
  <path d="M149.01,116.33 C149.06,116.33 149.10,116.34 149.13,116.35" fill="currentColor" stroke="currentColor" stroke-width="1.2" stroke-linecap="round" stroke-linejoin="round" />
  <path d="M151.61,116.36 C151.64,116.34 151.69,116.33 151.75,116.33" fill="currentColor" stroke="currentColor" stroke-width="1.2" stroke-linecap="round" stroke-linejoin="round" />
  <path d="M152.26,116.35 C152.31,116.37 152.33,116.40 152.33,116.44" fill="currentColor" stroke="currentColor" stroke-width="1.2" stroke-linecap="round" stroke-linejoin="round" />
  <path d="M149.13,116.35 C149.16,116.36 149.18,116.38 149.19,116.40" fill="currentColor" stroke="currentColor" stroke-width="1.2" stroke-linecap="round" stroke-linejoin="round" />
  <path d="M151.53,116.40 C151.55,116.38 151.57,116.37 151.61,116.36" fill="currentColor" stroke="currentColor" stroke-width="1.2" stroke-linecap="round" stroke-linejoin="round" />
  <path d="M148.41,116.42 C148.42,116.39 148.45,116.37 148.48,116.36" fill="currentColor" stroke="currentColor" stroke-width="1.2" stroke-linecap="round" stroke-linejoin="round" />
  <path d="M151.49,116.47 C151.50,116.44 151.51,116.42 151.53,116.40" fill="currentColor" stroke="currentColor" stroke-width="1.2" stroke-linecap="round" stroke-linejoin="round" />
  <path d="M149.19,116.40 C149.20,116.43 149.21,116.46 149.21,116.49" fill="currentColor" stroke="currentColor" stroke-width="1.2" stroke-linecap="round" stroke-linejoin="round" />
  <path d="M148.40,116.51 C148.40,116.47 148.40,116.44 148.41,116.42" fill="currentColor" stroke="currentColor" stroke-width="1.2" stroke-linecap="round" stroke-linejoin="round" />
  <path d="M152.33,116.44 C152.33,116.47 152.33,116.51 152.32,116.55" fill="currentColor" stroke="currentColor" stroke-width="1.2" stroke-linecap="round" stroke-linejoin="round" />
  <path d="M151.17,117.40 C151.28,117.10 151.39,116.78 151.49,116.47" fill="currentColor" stroke="currentColor" stroke-width="1.2" stroke-linecap="round" stroke-linejoin="round" />
  <line x1="149.21" y1="116.49" x2="149.78" y2="120.07" fill="currentColor" stroke="currentColor" stroke-width="1.2" stroke-linecap="round" stroke-linejoin="round" />
  <path d="M148.40,116.59 C148.40,116.56 148.40,116.53 148.40,116.51" fill="currentColor" stroke="currentColor" stroke-width="1.2" stroke-linecap="round" stroke-linejoin="round" />
  <path d="M152.32,116.55 C152.32,116.59 152.30,116.62 152.29,116.65" fill="currentColor" stroke="currentColor" stroke-width="1.2" stroke-linecap="round" stroke-linejoin="round" />
  <path d="M148.42,116.70 C148.41,116.66 148.40,116.62 148.40,116.59" fill="currentColor" stroke="currentColor" stroke-width="1.2" stroke-linecap="round" stroke-linejoin="round" />
  <path d="M152.29,116.65 C152.18,116.95 152.06,117.26 151.94,117.58" fill="currentColor" stroke="currentColor" stroke-width="1.2" stroke-linecap="round" stroke-linejoin="round" />
  <line x1="149.14" y1="120.99" x2="148.42" y2="116.70" fill="currentColor" stroke="currentColor" stroke-width="1.2" stroke-linecap="round" stroke-linejoin="round" />
  <path d="M150.79,118.32 C150.93,118.02 151.05,117.71 151.17,117.40" fill="currentColor" stroke="currentColor" stroke-width="1.2" stroke-linecap="round" stroke-linejoin="round" />
  <path d="M151.94,117.58 C151.81,117.90 151.66,118.23 151.49,118.58" fill="currentColor" stroke="currentColor" stroke-width="1.2" stroke-linecap="round" stroke-linejoin="round" />
  <path d="M150.34,119.21 C150.50,118.91 150.65,118.62 150.79,118.32" fill="currentColor" stroke="currentColor" stroke-width="1.2" stroke-linecap="round" stroke-linejoin="round" />
  <path d="M151.49,118.58 C151.32,118.93 151.12,119.30 150.90,119.68" fill="currentColor" stroke="currentColor" stroke-width="1.2" stroke-linecap="round" stroke-linejoin="round" />
  <path d="M149.79,120.07 C149.99,119.79 150.18,119.50 150.34,119.21" fill="currentColor" stroke="currentColor" stroke-width="1.2" stroke-linecap="round" stroke-linejoin="round" />
  <path d="M150.90,119.68 C150.67,120.06 150.40,120.46 150.09,120.88" fill="currentColor" stroke="currentColor" stroke-width="1.2" stroke-linecap="round" stroke-linejoin="round" />
  <line x1="149.78" y1="120.07" x2="149.79" y2="120.07" fill="currentColor" stroke="currentColor" stroke-width="1.2" stroke-linecap="round" stroke-linejoin="round" />
  <line x1="150.09" y1="120.88" x2="148.83" y2="122.61" fill="currentColor" stroke="currentColor" stroke-width="1.2" stroke-linecap="round" stroke-linejoin="round" />
  <line x1="147.95" y1="122.52" x2="149.14" y2="120.99" fill="currentColor" stroke="currentColor" stroke-width="1.2" stroke-linecap="round" stroke-linejoin="round" />
  <path d="M25.25,129.77 C20.87,129.08 17.46,125.48 17.04,121.02" fill="none" stroke="currentColor" stroke-width="1.000000011920929" stroke-linecap="round" stroke-linejoin="round" />
  <path d="M147.89,122.64 C147.90,122.60 147.92,122.56 147.95,122.52" fill="currentColor" stroke="currentColor" stroke-width="1.2" stroke-linecap="round" stroke-linejoin="round" />
  <path d="M148.83,122.61 C148.81,122.63 148.78,122.65 148.75,122.67" fill="currentColor" stroke="currentColor" stroke-width="1.2" stroke-linecap="round" stroke-linejoin="round" />
  <path d="M147.93,122.71 C147.90,122.69 147.89,122.67 147.89,122.64" fill="currentColor" stroke="currentColor" stroke-width="1.2" stroke-linecap="round" stroke-linejoin="round" />
  <path d="M148.75,122.67 C148.72,122.69 148.69,122.71 148.64,122.73" fill="currentColor" stroke="currentColor" stroke-width="1.2" stroke-linecap="round" stroke-linejoin="round" />
  <path d="M148.06,122.75 C148.00,122.75 147.96,122.73 147.93,122.71" fill="currentColor" stroke="currentColor" stroke-width="1.2" stroke-linecap="round" stroke-linejoin="round" />
  <path d="M148.64,122.73 C148.60,122.74 148.55,122.75 148.49,122.76" fill="currentColor" stroke="currentColor" stroke-width="1.2" stroke-linecap="round" stroke-linejoin="round" />
  <path d="M148.28,122.77 C148.19,122.77 148.12,122.76 148.06,122.75" fill="currentColor" stroke="currentColor" stroke-width="1.2" stroke-linecap="round" stroke-linejoin="round" />
  <path d="M148.49,122.76 C148.43,122.76 148.36,122.77 148.28,122.77" fill="currentColor" stroke="currentColor" stroke-width="1.2" stroke-linecap="round" stroke-linejoin="round" />
  <path d="M14.58,128.82 C14.64,128.81 14.72,128.81 14.82,128.81" fill="currentColor" stroke="currentColor" stroke-width="1.2" stroke-linecap="round" stroke-linejoin="round" />
  <path d="M14.82,128.81 C14.92,128.81 14.99,128.81 15.04,128.81" fill="currentColor" stroke="currentColor" stroke-width="1.2" stroke-linecap="round" stroke-linejoin="round" />
  <path d="M17.54,128.81 C17.60,128.81 17.67,128.81 17.75,128.81" fill="currentColor" stroke="currentColor" stroke-width="1.2" stroke-linecap="round" stroke-linejoin="round" />
  <path d="M17.75,128.81 C17.85,128.81 17.93,128.81 17.99,128.82" fill="currentColor" stroke="currentColor" stroke-width="1.2" stroke-linecap="round" stroke-linejoin="round" />
  <path d="M15.04,128.81 C15.09,128.82 15.13,128.83 15.16,128.84" fill="currentColor" stroke="currentColor" stroke-width="1.2" stroke-linecap="round" stroke-linejoin="round" />
  <path d="M17.41,128.84 C17.44,128.83 17.49,128.82 17.54,128.81" fill="currentColor" stroke="currentColor" stroke-width="1.2" stroke-linecap="round" stroke-linejoin="round" />
  <path d="M14.44,128.86 C14.47,128.84 14.52,128.82 14.58,128.82" fill="currentColor" stroke="currentColor" stroke-width="1.2" stroke-linecap="round" stroke-linejoin="round" />
  <path d="M17.99,128.82 C18.06,128.82 18.10,128.84 18.13,128.85" fill="currentColor" stroke="currentColor" stroke-width="1.2" stroke-linecap="round" stroke-linejoin="round" />
  <path d="M15.16,128.84 C15.19,128.85 15.21,128.86 15.22,128.88" fill="currentColor" stroke="currentColor" stroke-width="1.2" stroke-linecap="round" stroke-linejoin="round" />
  <path d="M17.32,128.88 C17.34,128.86 17.37,128.85 17.41,128.84" fill="currentColor" stroke="currentColor" stroke-width="1.2" stroke-linecap="round" stroke-linejoin="round" />
  <path d="M18.13,128.85 C18.16,128.87 18.17,128.89 18.17,128.92" fill="currentColor" stroke="currentColor" stroke-width="1.2" stroke-linecap="round" stroke-linejoin="round" />
  <path d="M14.39,128.93 C14.39,128.90 14.41,128.88 14.44,128.86" fill="currentColor" stroke="currentColor" stroke-width="1.2" stroke-linecap="round" stroke-linejoin="round" />
  <path d="M15.22,128.88 C15.23,128.89 15.24,128.91 15.25,128.93" fill="currentColor" stroke="currentColor" stroke-width="1.2" stroke-linecap="round" stroke-linejoin="round" />
  <path d="M17.26,128.93 C17.29,128.91 17.31,128.90 17.32,128.88" fill="currentColor" stroke="currentColor" stroke-width="1.2" stroke-linecap="round" stroke-linejoin="round" />
  <path d="M18.17,128.92 C18.16,128.95 18.14,128.99 18.10,129.04" fill="currentColor" stroke="currentColor" stroke-width="1.2" stroke-linecap="round" stroke-linejoin="round" />
  <path d="M14.41,129.05 C14.39,129.00 14.39,128.96 14.39,128.93" fill="currentColor" stroke="currentColor" stroke-width="1.2" stroke-linecap="round" stroke-linejoin="round" />
  <line x1="15.25" y1="128.93" x2="15.95" y2="130.58" fill="currentColor" stroke="currentColor" stroke-width="1.2" stroke-linecap="round" stroke-linejoin="round" />
  <line x1="15.95" y1="130.58" x2="17.26" y2="128.93" fill="currentColor" stroke="currentColor" stroke-width="1.2" stroke-linecap="round" stroke-linejoin="round" />
  <line x1="18.10" y1="129.04" x2="16.38" y2="131.11" fill="currentColor" stroke="currentColor" stroke-width="1.2" stroke-linecap="round" stroke-linejoin="round" />
  <line x1="15.32" y1="131.10" x2="14.41" y2="129.05" fill="currentColor" stroke="currentColor" stroke-width="1.2" stroke-linecap="round" stroke-linejoin="round" />
  <line x1="13.49" y1="133.27" x2="15.32" y2="131.10" fill="currentColor" stroke="currentColor" stroke-width="1.2" stroke-linecap="round" stroke-linejoin="round" />
  <line x1="16.38" y1="131.11" x2="17.34" y2="133.26" fill="currentColor" stroke="currentColor" stroke-width="1.2" stroke-linecap="round" stroke-linejoin="round" />
  <line x1="16.48" y1="133.37" x2="15.75" y2="131.63" fill="currentColor" stroke="currentColor" stroke-width="1.2" stroke-linecap="round" stroke-linejoin="round" />
  <line x1="15.75" y1="131.63" x2="14.37" y2="133.37" fill="currentColor" stroke="currentColor" stroke-width="1.2" stroke-linecap="round" stroke-linejoin="round" />
  <path d="M17.34,133.26 C17.36,133.31 17.37,133.34 17.36,133.38" fill="currentColor" stroke="currentColor" stroke-width="1.2" stroke-linecap="round" stroke-linejoin="round" />
  <path d="M13.44,133.38 C13.44,133.35 13.46,133.31 13.49,133.27" fill="currentColor" stroke="currentColor" stroke-width="1.2" stroke-linecap="round" stroke-linejoin="round" />
  <path d="M16.51,133.43 C16.50,133.41 16.49,133.39 16.48,133.37" fill="currentColor" stroke="currentColor" stroke-width="1.2" stroke-linecap="round" stroke-linejoin="round" />
  <path d="M14.37,133.37 C14.35,133.39 14.33,133.41 14.30,133.43" fill="currentColor" stroke="currentColor" stroke-width="1.2" stroke-linecap="round" stroke-linejoin="round" />
  <path d="M17.36,133.38 C17.36,133.41 17.34,133.43 17.30,133.45" fill="currentColor" stroke="currentColor" stroke-width="1.2" stroke-linecap="round" stroke-linejoin="round" />
  <path d="M13.47,133.45 C13.44,133.43 13.43,133.41 13.44,133.38" fill="currentColor" stroke="currentColor" stroke-width="1.2" stroke-linecap="round" stroke-linejoin="round" />
  <path d="M16.57,133.47 C16.54,133.46 16.52,133.45 16.51,133.43" fill="currentColor" stroke="currentColor" stroke-width="1.2" stroke-linecap="round" stroke-linejoin="round" />
  <path d="M14.30,133.43 C14.28,133.45 14.25,133.46 14.21,133.47" fill="currentColor" stroke="currentColor" stroke-width="1.2" stroke-linecap="round" stroke-linejoin="round" />
  <path d="M17.30,133.45 C17.26,133.47 17.21,133.48 17.15,133.49" fill="currentColor" stroke="currentColor" stroke-width="1.2" stroke-linecap="round" stroke-linejoin="round" />
  <path d="M13.60,133.49 C13.54,133.48 13.50,133.47 13.47,133.45" fill="currentColor" stroke="currentColor" stroke-width="1.2" stroke-linecap="round" stroke-linejoin="round" />
  <path d="M14.21,133.47 C14.18,133.48 14.12,133.49 14.07,133.49" fill="currentColor" stroke="currentColor" stroke-width="1.2" stroke-linecap="round" stroke-linejoin="round" />
  <path d="M16.69,133.50 C16.64,133.49 16.60,133.48 16.57,133.47" fill="currentColor" stroke="currentColor" stroke-width="1.2" stroke-linecap="round" stroke-linejoin="round" />
  <path d="M17.15,133.49 C17.09,133.50 17.01,133.50 16.90,133.50" fill="currentColor" stroke="currentColor" stroke-width="1.2" stroke-linecap="round" stroke-linejoin="round" />
  <path d="M13.83,133.50 C13.73,133.50 13.66,133.50 13.60,133.49" fill="currentColor" stroke="currentColor" stroke-width="1.2" stroke-linecap="round" stroke-linejoin="round" />
  <path d="M14.07,133.49 C14.01,133.50 13.93,133.50 13.83,133.50" fill="currentColor" stroke="currentColor" stroke-width="1.2" stroke-linecap="round" stroke-linejoin="round" />
  <path d="M16.90,133.50 C16.81,133.50 16.74,133.50 16.69,133.50" fill="currentColor" stroke="currentColor" stroke-width="1.2" stroke-linecap="round" stroke-linejoin="round" />
</svg>