<svg xmlns="http://www.w3.org/2000/svg" viewBox="0 0 117.07 102.04" preserveAspectRatio="xMidYMid meet" shape-rendering="geometricPrecision" text-rendering="optimizeLegibility">
  <line x1="65.16" y1="8.00" x2="85.10" y2="8.00" fill="none" stroke="currentColor" stroke-width="1.0" stroke-linecap="round" stroke-linejoin="round" />
  <line x1="82.62" y1="16.54" x2="79.82" y2="8.14" fill="currentColor" stroke="currentColor" stroke-width="1.2" stroke-linecap="round" stroke-linejoin="round" />
  <line x1="79.82" y1="8.14" x2="77.02" y2="16.54" fill="currentColor" stroke="currentColor" stroke-width="1.2" stroke-linecap="round" stroke-linejoin="round" />
  <line x1="77.02" y1="16.54" x2="79.82" y2="15.61" fill="currentColor" stroke="currentColor" stroke-width="1.2" stroke-linecap="round" stroke-linejoin="round" />
  <line x1="79.82" y1="15.61" x2="82.62" y2="16.54" fill="currentColor" stroke="currentColor" stroke-width="1.2" stroke-linecap="round" stroke-linejoin="round" />
  <line x1="8.01" y1="37.28" x2="64.60" y2="37.28" fill="none" stroke="currentColor" stroke-width="1.6" stroke-linecap="round" stroke-linejoin="round" />
  <path d="M84.70,43.76 C84.42,43.76 84.16,43.78 83.93,43.83" fill="currentColor" stroke="currentColor" stroke-width="1.2" stroke-linecap="round" stroke-linejoin="round" />
  <path d="M85.87,44.00 C85.54,43.84 85.15,43.76 84.70,43.76" fill="currentColor" stroke="currentColor" stroke-width="1.2" stroke-linecap="round" stroke-linejoin="round" />
  <path d="M91.61,44.03 C91.31,43.85 90.98,43.76 90.61,43.76" fill="currentColor" stroke="currentColor" stroke-width="1.2" stroke-linecap="round" stroke-linejoin="round" />
  <path d="M90.61,43.76 C90.25,43.76 89.92,43.85 89.62,44.03" fill="currentColor" stroke="currentColor" stroke-width="1.2" stroke-linecap="round" stroke-linejoin="round" />
  <path d="M83.93,43.83 C83.70,43.89 83.48,43.97 83.26,44.08" fill="currentColor" stroke="currentColor" stroke-width="1.2" stroke-linecap="round" stroke-linejoin="round" />
  <path d="M86.63,44.68 C86.45,44.39 86.19,44.16 85.87,44.00" fill="currentColor" stroke="currentColor" stroke-width="1.2" stroke-linecap="round" stroke-linejoin="round" />
  <path d="M92.37,44.82 C92.16,44.48 91.90,44.22 91.61,44.03" fill="currentColor" stroke="currentColor" stroke-width="1.2" stroke-linecap="round" stroke-linejoin="round" />
  <path d="M89.62,44.03 C89.33,44.22 89.07,44.48 88.86,44.82" fill="currentColor" stroke="currentColor" stroke-width="1.2" stroke-linecap="round" stroke-linejoin="round" />
  <line x1="83.26" y1="44.08" x2="83.25" y2="45.10" fill="currentColor" stroke="currentColor" stroke-width="1.2" stroke-linecap="round" stroke-linejoin="round" />
  <path d="M84.13,44.81 C84.26,44.79 84.40,44.78 84.53,44.78" fill="currentColor" stroke="currentColor" stroke-width="1.2" stroke-linecap="round" stroke-linejoin="round" />
  <path d="M84.53,44.78 C84.80,44.78 85.03,44.83 85.22,44.92" fill="currentColor" stroke="currentColor" stroke-width="1.2" stroke-linecap="round" stroke-linejoin="round" />
  <path d="M83.72,44.91 C83.87,44.87 84.00,44.83 84.13,44.81" fill="currentColor" stroke="currentColor" stroke-width="1.2" stroke-linecap="round" stroke-linejoin="round" />
  <path d="M89.89,45.12 C90.09,44.90 90.33,44.78 90.61,44.78" fill="currentColor" stroke="currentColor" stroke-width="1.2" stroke-linecap="round" stroke-linejoin="round" />
  <path d="M90.61,44.78 C90.89,44.78 91.13,44.90 91.33,45.12" fill="currentColor" stroke="currentColor" stroke-width="1.2" stroke-linecap="round" stroke-linejoin="round" />
  <path d="M83.25,45.10 C83.43,45.02 83.58,44.96 83.72,44.91" fill="currentColor" stroke="currentColor" stroke-width="1.2" stroke-linecap="round" stroke-linejoin="round" />
  <path d="M85.22,44.92 C85.41,45.01 85.56,45.14 85.67,45.30" fill="currentColor" stroke="currentColor" stroke-width="1.2" stroke-linecap="round" stroke-linejoin="round" />
  <path d="M86.91,45.71 C86.90,45.32 86.81,44.97 86.63,44.68" fill="currentColor" stroke="currentColor" stroke-width="1.2" stroke-linecap="round" stroke-linejoin="round" />
  <path d="M92.86,46.03 C92.75,45.56 92.58,45.15 92.37,44.82" fill="currentColor" stroke="currentColor" stroke-width="1.2" stroke-linecap="round" stroke-linejoin="round" />
  <path d="M88.86,44.82 C88.65,45.15 88.48,45.56 88.37,46.03" fill="currentColor" stroke="currentColor" stroke-width="1.2" stroke-linecap="round" stroke-linejoin="round" />
  <path d="M85.67,45.30 C85.77,45.47 85.83,45.67 85.83,45.90" fill="currentColor" stroke="currentColor" stroke-width="1.2" stroke-linecap="round" stroke-linejoin="round" />
  <path d="M89.43,46.09 C89.54,45.67 89.69,45.35 89.89,45.12" fill="currentColor" stroke="currentColor" stroke-width="1.2" stroke-linecap="round" stroke-linejoin="round" />
  <path d="M91.33,45.12 C91.53,45.35 91.69,45.67 91.79,46.09" fill="currentColor" stroke="currentColor" stroke-width="1.2" stroke-linecap="round" stroke-linejoin="round" />
  <path d="M86.81,46.44 C86.87,46.23 86.91,45.99 86.91,45.71" fill="currentColor" stroke="currentColor" stroke-width="1.2" stroke-linecap="round" stroke-linejoin="round" />
  <path d="M85.83,45.90 C85.83,46.25 85.71,46.51 85.46,46.70" fill="currentColor" stroke="currentColor" stroke-width="1.2" stroke-linecap="round" stroke-linejoin="round" />
  <path d="M99.83,46.36 C99.68,46.33 99.50,46.32 99.31,46.32" fill="currentColor" stroke="currentColor" stroke-width="1.2" stroke-linecap="round" stroke-linejoin="round" />
  <path d="M107.43,46.32 C107.20,46.32 106.98,46.36 106.78,46.44" fill="currentColor" stroke="currentColor" stroke-width="1.2" stroke-linecap="round" stroke-linejoin="round" />
  <path d="M104.31,46.32 C104.08,46.32 103.84,46.38 103.60,46.50" fill="currentColor" stroke="currentColor" stroke-width="1.2" stroke-linecap="round" stroke-linejoin="round" />
  <line x1="102.87" y1="46.42" x2="101.89" y2="46.42" fill="currentColor" stroke="currentColor" stroke-width="1.2" stroke-linecap="round" stroke-linejoin="round" />
  <path d="M100.29,46.48 C100.14,46.43 99.99,46.39 99.83,46.36" fill="currentColor" stroke="currentColor" stroke-width="1.2" stroke-linecap="round" stroke-linejoin="round" />
  <path d="M105.15,46.55 C104.90,46.40 104.62,46.32 104.31,46.32" fill="currentColor" stroke="currentColor" stroke-width="1.2" stroke-linecap="round" stroke-linejoin="round" />
  <path d="M108.30,46.56 C108.05,46.40 107.77,46.32 107.43,46.32" fill="currentColor" stroke="currentColor" stroke-width="1.2" stroke-linecap="round" stroke-linejoin="round" />
  <path d="M99.31,46.32 C98.81,46.32 98.38,46.43 98.02,46.65" fill="currentColor" stroke="currentColor" stroke-width="1.2" stroke-linecap="round" stroke-linejoin="round" />
  <path d="M100.74,46.66 C100.59,46.59 100.44,46.53 100.29,46.48" fill="currentColor" stroke="currentColor" stroke-width="1.2" stroke-linecap="round" stroke-linejoin="round" />
  <path d="M106.78,46.44 C106.59,46.52 106.41,46.63 106.24,46.76" fill="currentColor" stroke="currentColor" stroke-width="1.2" stroke-linecap="round" stroke-linejoin="round" />
  <path d="M86.50,46.98 C86.64,46.83 86.74,46.65 86.81,46.44" fill="currentColor" stroke="currentColor" stroke-width="1.2" stroke-linecap="round" stroke-linejoin="round" />
  <line x1="102.87" y1="47.07" x2="102.87" y2="46.42" fill="currentColor" stroke="currentColor" stroke-width="1.2" stroke-linecap="round" stroke-linejoin="round" />
  <path d="M103.60,46.50 C103.36,46.63 103.12,46.81 102.87,47.07" fill="currentColor" stroke="currentColor" stroke-width="1.2" stroke-linecap="round" stroke-linejoin="round" />
  <path d="M93.03,47.61 C93.03,47.03 92.97,46.50 92.86,46.03" fill="currentColor" stroke="currentColor" stroke-width="1.2" stroke-linecap="round" stroke-linejoin="round" />
  <path d="M88.37,46.03 C88.25,46.50 88.20,47.03 88.19,47.61" fill="currentColor" stroke="currentColor" stroke-width="1.2" stroke-linecap="round" stroke-linejoin="round" />
  <path d="M85.46,46.70 C85.21,46.89 84.84,46.99 84.34,46.99" fill="currentColor" stroke="currentColor" stroke-width="1.2" stroke-linecap="round" stroke-linejoin="round" />
  <path d="M89.27,47.61 C89.27,47.02 89.33,46.51 89.43,46.09" fill="currentColor" stroke="currentColor" stroke-width="1.2" stroke-linecap="round" stroke-linejoin="round" />
  <path d="M91.79,46.09 C91.90,46.51 91.96,47.02 91.96,47.61" fill="currentColor" stroke="currentColor" stroke-width="1.2" stroke-linecap="round" stroke-linejoin="round" />
  <path d="M105.78,47.21 C105.61,46.92 105.40,46.70 105.15,46.55" fill="currentColor" stroke="currentColor" stroke-width="1.2" stroke-linecap="round" stroke-linejoin="round" />
  <path d="M108.87,47.23 C108.73,46.95 108.54,46.72 108.30,46.56" fill="currentColor" stroke="currentColor" stroke-width="1.2" stroke-linecap="round" stroke-linejoin="round" />
  <path d="M106.24,46.76 C106.08,46.90 105.92,47.05 105.78,47.21" fill="currentColor" stroke="currentColor" stroke-width="1.2" stroke-linecap="round" stroke-linejoin="round" />
  <path d="M98.02,46.65 C97.65,46.86 97.37,47.17 97.17,47.57" fill="currentColor" stroke="currentColor" stroke-width="1.2" stroke-linecap="round" stroke-linejoin="round" />
  <path d="M103.65,47.20 C103.78,47.16 103.93,47.14 104.10,47.14" fill="currentColor" stroke="currentColor" stroke-width="1.2" stroke-linecap="round" stroke-linejoin="round" />
  <line x1="100.74" y1="47.70" x2="100.74" y2="46.66" fill="currentColor" stroke="currentColor" stroke-width="1.2" stroke-linecap="round" stroke-linejoin="round" />
  <path d="M85.95,47.40 C86.18,47.27 86.36,47.14 86.50,46.98" fill="currentColor" stroke="currentColor" stroke-width="1.2" stroke-linecap="round" stroke-linejoin="round" />
  <path d="M104.10,47.14 C104.26,47.14 104.41,47.18 104.54,47.26" fill="currentColor" stroke="currentColor" stroke-width="1.2" stroke-linecap="round" stroke-linejoin="round" />
  <path d="M107.07,47.14 C107.26,47.14 107.43,47.19 107.58,47.28" fill="currentColor" stroke="currentColor" stroke-width="1.2" stroke-linecap="round" stroke-linejoin="round" />
  <path d="M106.53,47.32 C106.72,47.20 106.90,47.14 107.07,47.14" fill="currentColor" stroke="currentColor" stroke-width="1.2" stroke-linecap="round" stroke-linejoin="round" />
  <path d="M99.38,47.22 C99.52,47.22 99.66,47.23 99.80,47.26" fill="currentColor" stroke="currentColor" stroke-width="1.2" stroke-linecap="round" stroke-linejoin="round" />
  <path d="M103.26,47.40 C103.38,47.31 103.51,47.24 103.65,47.20" fill="currentColor" stroke="currentColor" stroke-width="1.2" stroke-linecap="round" stroke-linejoin="round" />
  <path d="M98.59,47.43 C98.82,47.29 99.08,47.22 99.38,47.22" fill="currentColor" stroke="currentColor" stroke-width="1.2" stroke-linecap="round" stroke-linejoin="round" />
  <path d="M99.80,47.26 C99.94,47.29 100.08,47.34 100.24,47.41" fill="currentColor" stroke="currentColor" stroke-width="1.2" stroke-linecap="round" stroke-linejoin="round" />
  <path d="M104.54,47.26 C104.68,47.34 104.78,47.46 104.86,47.63" fill="currentColor" stroke="currentColor" stroke-width="1.2" stroke-linecap="round" stroke-linejoin="round" />
  <path d="M107.58,47.28 C107.73,47.36 107.86,47.49 107.95,47.67" fill="currentColor" stroke="currentColor" stroke-width="1.2" stroke-linecap="round" stroke-linejoin="round" />
  <line x1="84.34" y1="46.99" x2="84.34" y2="47.98" fill="currentColor" stroke="currentColor" stroke-width="1.2" stroke-linecap="round" stroke-linejoin="round" />
  <path d="M105.97,47.77 C106.15,47.58 106.33,47.43 106.53,47.32" fill="currentColor" stroke="currentColor" stroke-width="1.2" stroke-linecap="round" stroke-linejoin="round" />
  <path d="M100.24,47.41 C100.39,47.48 100.56,47.58 100.74,47.70" fill="currentColor" stroke="currentColor" stroke-width="1.2" stroke-linecap="round" stroke-linejoin="round" />
  <path d="M102.87,47.77 C103.00,47.61 103.13,47.49 103.26,47.40" fill="currentColor" stroke="currentColor" stroke-width="1.2" stroke-linecap="round" stroke-linejoin="round" />
  <path d="M86.56,47.79 C86.40,47.61 86.20,47.48 85.95,47.40" fill="currentColor" stroke="currentColor" stroke-width="1.2" stroke-linecap="round" stroke-linejoin="round" />
  <path d="M98.07,48.01 C98.19,47.76 98.37,47.57 98.59,47.43" fill="currentColor" stroke="currentColor" stroke-width="1.2" stroke-linecap="round" stroke-linejoin="round" />
  <path d="M109.07,48.25 C109.07,47.86 109.00,47.52 108.87,47.23" fill="currentColor" stroke="currentColor" stroke-width="1.2" stroke-linecap="round" stroke-linejoin="round" />
  <path d="M104.86,47.63 C104.94,47.80 104.99,48.02 104.99,48.29" fill="currentColor" stroke="currentColor" stroke-width="1.2" stroke-linecap="round" stroke-linejoin="round" />
  <path d="M107.95,47.67 C108.04,47.84 108.09,48.05 108.09,48.30" fill="currentColor" stroke="currentColor" stroke-width="1.2" stroke-linecap="round" stroke-linejoin="round" />
  <path d="M84.34,47.98 C84.70,47.96 85.00,48.01 85.23,48.12" fill="currentColor" stroke="currentColor" stroke-width="1.2" stroke-linecap="round" stroke-linejoin="round" />
  <path d="M86.91,48.43 C86.84,48.18 86.72,47.97 86.56,47.79" fill="currentColor" stroke="currentColor" stroke-width="1.2" stroke-linecap="round" stroke-linejoin="round" />
  <path d="M97.17,47.57 C96.97,47.96 96.87,48.43 96.87,48.98" fill="currentColor" stroke="currentColor" stroke-width="1.2" stroke-linecap="round" stroke-linejoin="round" />
  <path d="M85.23,48.12 C85.47,48.22 85.65,48.37 85.77,48.57" fill="currentColor" stroke="currentColor" stroke-width="1.2" stroke-linecap="round" stroke-linejoin="round" />
  <path d="M91.96,47.61 C91.96,48.20 91.90,48.70 91.79,49.12" fill="currentColor" stroke="currentColor" stroke-width="1.2" stroke-linecap="round" stroke-linejoin="round" />
  <path d="M89.43,49.12 C89.33,48.70 89.27,48.20 89.27,47.61" fill="currentColor" stroke="currentColor" stroke-width="1.2" stroke-linecap="round" stroke-linejoin="round" />
  <path d="M88.19,47.61 C88.20,48.19 88.25,48.71 88.37,49.18" fill="currentColor" stroke="currentColor" stroke-width="1.2" stroke-linecap="round" stroke-linejoin="round" />
  <path d="M92.86,49.18 C92.97,48.71 93.03,48.19 93.03,47.61" fill="currentColor" stroke="currentColor" stroke-width="1.2" stroke-linecap="round" stroke-linejoin="round" />
  <path d="M97.87,48.89 C97.88,48.56 97.94,48.26 98.07,48.01" fill="currentColor" stroke="currentColor" stroke-width="1.2" stroke-linecap="round" stroke-linejoin="round" />
  <path d="M87.03,49.18 C87.03,48.92 86.99,48.67 86.91,48.43" fill="currentColor" stroke="currentColor" stroke-width="1.2" stroke-linecap="round" stroke-linejoin="round" />
  <line x1="101.89" y1="46.42" x2="101.89" y2="51.36" fill="currentColor" stroke="currentColor" stroke-width="1.2" stroke-linecap="round" stroke-linejoin="round" />
  <path d="M85.77,48.57 C85.89,48.76 85.95,48.99 85.95,49.23" fill="currentColor" stroke="currentColor" stroke-width="1.2" stroke-linecap="round" stroke-linejoin="round" />
  <path d="M98.08,49.77 C97.94,49.53 97.87,49.23 97.87,48.89" fill="currentColor" stroke="currentColor" stroke-width="1.2" stroke-linecap="round" stroke-linejoin="round" />
  <path d="M85.95,49.23 C85.95,49.48 85.90,49.69 85.80,49.87" fill="currentColor" stroke="currentColor" stroke-width="1.2" stroke-linecap="round" stroke-linejoin="round" />
  <line x1="102.87" y1="51.36" x2="102.87" y2="47.77" fill="currentColor" stroke="currentColor" stroke-width="1.2" stroke-linecap="round" stroke-linejoin="round" />
  <line x1="105.97" y1="51.36" x2="105.97" y2="47.77" fill="currentColor" stroke="currentColor" stroke-width="1.2" stroke-linecap="round" stroke-linejoin="round" />
  <path d="M91.79,49.12 C91.69,49.54 91.53,49.87 91.33,50.09" fill="currentColor" stroke="currentColor" stroke-width="1.2" stroke-linecap="round" stroke-linejoin="round" />
  <path d="M89.89,50.09 C89.69,49.87 89.54,49.54 89.43,49.12" fill="currentColor" stroke="currentColor" stroke-width="1.2" stroke-linecap="round" stroke-linejoin="round" />
  <path d="M96.87,48.98 C96.88,49.47 96.98,49.90 97.19,50.27" fill="currentColor" stroke="currentColor" stroke-width="1.2" stroke-linecap="round" stroke-linejoin="round" />
  <path d="M86.72,50.37 C86.92,50.03 87.02,49.63 87.03,49.18" fill="currentColor" stroke="currentColor" stroke-width="1.2" stroke-linecap="round" stroke-linejoin="round" />
  <path d="M88.37,49.18 C88.48,49.65 88.65,50.06 88.86,50.40" fill="currentColor" stroke="currentColor" stroke-width="1.2" stroke-linecap="round" stroke-linejoin="round" />
  <path d="M92.37,50.40 C92.58,50.06 92.75,49.65 92.86,49.18" fill="currentColor" stroke="currentColor" stroke-width="1.2" stroke-linecap="round" stroke-linejoin="round" />
  <line x1="109.07" y1="51.36" x2="109.07" y2="48.25" fill="currentColor" stroke="currentColor" stroke-width="1.2" stroke-linecap="round" stroke-linejoin="round" />
  <line x1="104.99" y1="48.29" x2="104.99" y2="51.36" fill="currentColor" stroke="currentColor" stroke-width="1.2" stroke-linecap="round" stroke-linejoin="round" />
  <line x1="108.09" y1="48.30" x2="108.09" y2="51.36" fill="currentColor" stroke="currentColor" stroke-width="1.2" stroke-linecap="round" stroke-linejoin="round" />
  <path d="M98.66,50.33 C98.41,50.20 98.22,50.02 98.08,49.77" fill="currentColor" stroke="currentColor" stroke-width="1.2" stroke-linecap="round" stroke-linejoin="round" />
  <path d="M85.80,49.87 C85.70,50.05 85.56,50.19 85.38,50.28" fill="currentColor" stroke="currentColor" stroke-width="1.2" stroke-linecap="round" stroke-linejoin="round" />
  <path d="M83.91,50.29 C83.63,50.20 83.35,50.05 83.07,49.86" fill="currentColor" stroke="currentColor" stroke-width="1.2" stroke-linecap="round" stroke-linejoin="round" />
  <path d="M91.33,50.09 C91.13,50.32 90.89,50.43 90.61,50.43" fill="currentColor" stroke="currentColor" stroke-width="1.2" stroke-linecap="round" stroke-linejoin="round" />
  <path d="M90.61,50.43 C90.33,50.43 90.09,50.32 89.89,50.09" fill="currentColor" stroke="currentColor" stroke-width="1.2" stroke-linecap="round" stroke-linejoin="round" />
  <path d="M100.85,50.20 C100.61,50.31 100.38,50.39 100.17,50.45" fill="currentColor" stroke="currentColor" stroke-width="1.2" stroke-linecap="round" stroke-linejoin="round" />
  <path d="M85.38,50.28 C85.20,50.38 84.99,50.43 84.74,50.43" fill="currentColor" stroke="currentColor" stroke-width="1.2" stroke-linecap="round" stroke-linejoin="round" />
  <path d="M84.74,50.43 C84.47,50.43 84.19,50.39 83.91,50.29" fill="currentColor" stroke="currentColor" stroke-width="1.2" stroke-linecap="round" stroke-linejoin="round" />
  <path d="M99.54,50.53 C99.21,50.53 98.91,50.46 98.66,50.33" fill="currentColor" stroke="currentColor" stroke-width="1.2" stroke-linecap="round" stroke-linejoin="round" />
  <line x1="83.07" y1="49.86" x2="83.07" y2="51.03" fill="currentColor" stroke="currentColor" stroke-width="1.2" stroke-linecap="round" stroke-linejoin="round" />
  <path d="M100.17,50.45 C99.96,50.50 99.75,50.53 99.54,50.53" fill="currentColor" stroke="currentColor" stroke-width="1.2" stroke-linecap="round" stroke-linejoin="round" />
  <line x1="100.85" y1="51.17" x2="100.85" y2="50.20" fill="currentColor" stroke="currentColor" stroke-width="1.2" stroke-linecap="round" stroke-linejoin="round" />
  <path d="M97.19,50.27 C97.41,50.64 97.70,50.93 98.07,51.14" fill="currentColor" stroke="currentColor" stroke-width="1.2" stroke-linecap="round" stroke-linejoin="round" />
  <path d="M85.89,51.16 C86.25,50.97 86.52,50.71 86.72,50.37" fill="currentColor" stroke="currentColor" stroke-width="1.2" stroke-linecap="round" stroke-linejoin="round" />
  <path d="M88.86,50.40 C89.07,50.74 89.33,51.00 89.62,51.18" fill="currentColor" stroke="currentColor" stroke-width="1.2" stroke-linecap="round" stroke-linejoin="round" />
  <path d="M91.61,51.18 C91.90,51.00 92.16,50.74 92.37,50.40" fill="currentColor" stroke="currentColor" stroke-width="1.2" stroke-linecap="round" stroke-linejoin="round" />
  <line x1="79.82" y1="15.14" x2="79.82" y2="86.75" fill="none" stroke="currentColor" stroke-width="1.0" stroke-linecap="round" stroke-linejoin="round" />
  <rect x="8.00" y="8.50" width="56.69" height="85.04" fill="none" stroke="currentColor" stroke-width="1.6" stroke-linecap="round" stroke-linejoin="round" />
  <path d="M83.07,51.03 C83.34,51.16 83.61,51.27 83.87,51.34" fill="currentColor" stroke="currentColor" stroke-width="1.2" stroke-linecap="round" stroke-linejoin="round" />
  <path d="M100.44,51.31 C100.60,51.27 100.74,51.22 100.85,51.17" fill="currentColor" stroke="currentColor" stroke-width="1.2" stroke-linecap="round" stroke-linejoin="round" />
  <path d="M98.07,51.14 C98.45,51.35 98.88,51.45 99.38,51.46" fill="currentColor" stroke="currentColor" stroke-width="1.2" stroke-linecap="round" stroke-linejoin="round" />
  <path d="M84.66,51.46 C85.13,51.45 85.54,51.36 85.89,51.16" fill="currentColor" stroke="currentColor" stroke-width="1.2" stroke-linecap="round" stroke-linejoin="round" />
  <path d="M89.62,51.18 C89.92,51.36 90.25,51.45 90.61,51.46" fill="currentColor" stroke="currentColor" stroke-width="1.2" stroke-linecap="round" stroke-linejoin="round" />
  <path d="M90.61,51.46 C90.98,51.45 91.31,51.36 91.61,51.18" fill="currentColor" stroke="currentColor" stroke-width="1.2" stroke-linecap="round" stroke-linejoin="round" />
  <line x1="101.89" y1="51.36" x2="102.87" y2="51.36" fill="currentColor" stroke="currentColor" stroke-width="1.2" stroke-linecap="round" stroke-linejoin="round" />
  <line x1="104.99" y1="51.36" x2="105.97" y2="51.36" fill="currentColor" stroke="currentColor" stroke-width="1.2" stroke-linecap="round" stroke-linejoin="round" />
  <line x1="108.09" y1="51.36" x2="109.07" y2="51.36" fill="currentColor" stroke="currentColor" stroke-width="1.2" stroke-linecap="round" stroke-linejoin="round" />
  <path d="M99.92,51.41 C100.10,51.39 100.28,51.35 100.44,51.31" fill="currentColor" stroke="currentColor" stroke-width="1.2" stroke-linecap="round" stroke-linejoin="round" />
  <path d="M83.87,51.34 C84.14,51.42 84.40,51.45 84.66,51.46" fill="currentColor" stroke="currentColor" stroke-width="1.2" stroke-linecap="round" stroke-linejoin="round" />
  <path d="M99.38,51.46 C99.55,51.45 99.73,51.44 99.92,51.41" fill="currentColor" stroke="currentColor" stroke-width="1.2" stroke-linecap="round" stroke-linejoin="round" />
  <line x1="36.42" y1="93.37" x2="36.42" y2="38.06" fill="none" stroke="currentColor" stroke-width="1.6" stroke-linecap="round" stroke-linejoin="round" />
  <line x1="82.62" y1="85.35" x2="79.82" y2="86.28" fill="currentColor" stroke="currentColor" stroke-width="1.2" stroke-linecap="round" stroke-linejoin="round" />
  <line x1="79.82" y1="86.28" x2="77.02" y2="85.35" fill="currentColor" stroke="currentColor" stroke-width="1.2" stroke-linecap="round" stroke-linejoin="round" />
  <line x1="77.02" y1="85.35" x2="79.82" y2="93.75" fill="currentColor" stroke="currentColor" stroke-width="1.2" stroke-linecap="round" stroke-linejoin="round" />
  <line x1="79.82" y1="93.75" x2="82.62" y2="85.35" fill="currentColor" stroke="currentColor" stroke-width="1.2" stroke-linecap="round" stroke-linejoin="round" />
  <line x1="65.16" y1="94.04" x2="85.10" y2="94.04" fill="none" stroke="currentColor" stroke-width="1.0" stroke-linecap="round" stroke-linejoin="round" />
</svg>