<svg xmlns="http://www.w3.org/2000/svg" viewBox="0 0 135.93 132.95" preserveAspectRatio="xMidYMid meet" shape-rendering="geometricPrecision" text-rendering="optimizeLegibility">
  <path d="M127.93,37.24L77.29,8.00L26.65,37.24L26.65,95.71L77.29,124.95L127.93,95.71L127.93,37.24Z" fill-rule="evenodd" fill="currentColor" fill-opacity="0.216" stroke="currentColor" stroke-width="1.4000000476837158" stroke-linejoin="round" />
  <path d="M26.65,37.24L77.29,124.95L127.93,37.24L26.65,37.24Z" fill-rule="evenodd" fill="var(--panel)" stroke="none" />
  <path d="M13.01,34.47C13.01,34.50 13.00,34.52 12.98,34.54C12.97,34.57 12.94,34.58 12.91,34.60C12.87,34.61 12.83,34.62 12.77,34.63C12.71,34.64 12.63,34.64 12.55,34.64C12.46,34.64 12.38,34.64 12.32,34.63C12.27,34.62 12.22,34.61 12.18,34.60C12.15,34.58 12.12,34.57 12.11,34.54C12.09,34.52 12.09,34.50 12.09,34.47L12.09,31.39L8.92,31.39L8.92,34.47C8.92,34.50 8.92,34.52 8.90,34.54C8.89,34.57 8.86,34.58 8.83,34.60C8.79,34.61 8.74,34.62 8.68,34.63C8.63,34.64 8.55,34.64 8.46,34.64C8.38,34.64 8.30,34.64 8.24,34.63C8.18,34.62 8.13,34.61 8.10,34.60C8.06,34.58 8.04,34.57 8.02,34.54C8.01,34.52 8.00,34.50 8.00,34.47L8.00,27.80C8.00,27.77 8.01,27.74 8.02,27.72C8.04,27.70 8.06,27.68 8.10,27.67C8.13,27.66 8.18,27.65 8.24,27.64C8.30,27.63 8.38,27.63 8.46,27.63C8.55,27.63 8.63,27.63 8.68,27.64C8.74,27.65 8.79,27.66 8.83,27.67C8.86,27.68 8.89,27.70 8.90,27.72C8.92,27.74 8.92,27.77 8.92,27.80L8.92,30.58L12.09,30.58L12.09,27.80C12.09,27.77 12.09,27.74 12.11,27.72C12.12,27.70 12.15,27.68 12.18,27.67C12.22,27.66 12.27,27.65 12.32,27.64C12.38,27.63 12.46,27.63 12.55,27.63C12.63,27.63 12.71,27.63 12.77,27.64C12.83,27.65 12.87,27.66 12.91,27.67C12.94,27.68 12.97,27.70 12.98,27.72C13.00,27.74 13.01,27.77 13.01,27.80L13.01,34.47Z" fill="currentColor" stroke="currentColor" stroke-width="1.2" stroke-linejoin="round" />
</svg>