<svg xmlns="http://www.w3.org/2000/svg" viewBox="0 0 151.74 95.73" preserveAspectRatio="xMidYMid meet" shape-rendering="geometricPrecision" text-rendering="optimizeLegibility">
  <line x1="61.23" y1="39.61" x2="62.70" y2="39.61" fill="currentColor" stroke="currentColor" stroke-width="1.2" stroke-linecap="round" stroke-linejoin="round" />
  <path d="M62.70,39.61 C62.88,39.61 63.02,39.61 63.14,39.62" fill="currentColor" stroke="currentColor" stroke-width="1.2" stroke-linecap="round" stroke-linejoin="round" />
  <path d="M63.14,39.62 C63.26,39.63 63.36,39.64 63.45,39.65" fill="currentColor" stroke="currentColor" stroke-width="1.2" stroke-linecap="round" stroke-linejoin="round" />
  <path d="M60.99,39.69 C61.07,39.64 61.14,39.61 61.23,39.61" fill="currentColor" stroke="currentColor" stroke-width="1.2" stroke-linecap="round" stroke-linejoin="round" />
  <path d="M63.45,39.65 C63.72,39.70 63.96,39.77 64.17,39.87" fill="currentColor" stroke="currentColor" stroke-width="1.2" stroke-linecap="round" stroke-linejoin="round" />
  <path d="M60.88,39.98 C60.88,39.84 60.92,39.75 60.99,39.69" fill="currentColor" stroke="currentColor" stroke-width="1.2" stroke-linecap="round" stroke-linejoin="round" />
  <path d="M64.17,39.87 C64.37,39.97 64.55,40.10 64.68,40.25" fill="currentColor" stroke="currentColor" stroke-width="1.2" stroke-linecap="round" stroke-linejoin="round" />
  <line x1="62.58" y1="40.37" x2="61.81" y2="40.37" fill="currentColor" stroke="currentColor" stroke-width="1.2" stroke-linecap="round" stroke-linejoin="round" />
  <path d="M63.03,40.39 C62.92,40.38 62.77,40.37 62.58,40.37" fill="currentColor" stroke="currentColor" stroke-width="1.2" stroke-linecap="round" stroke-linejoin="round" />
  <path d="M63.33,40.44 C63.24,40.42 63.14,40.40 63.03,40.39" fill="currentColor" stroke="currentColor" stroke-width="1.2" stroke-linecap="round" stroke-linejoin="round" />
  <path d="M64.68,40.25 C64.82,40.41 64.93,40.58 65.00,40.78" fill="currentColor" stroke="currentColor" stroke-width="1.2" stroke-linecap="round" stroke-linejoin="round" />
  <path d="M123.32,40.52 C123.42,40.52 123.50,40.52 123.55,40.53" fill="currentColor" stroke="currentColor" stroke-width="1.2" stroke-linecap="round" stroke-linejoin="round" />
  <path d="M126.31,40.53 C126.37,40.52 126.44,40.52 126.54,40.52" fill="currentColor" stroke="currentColor" stroke-width="1.2" stroke-linecap="round" stroke-linejoin="round" />
  <path d="M143.38,40.52 C143.45,40.52 143.51,40.52 143.56,40.53" fill="currentColor" stroke="currentColor" stroke-width="1.2" stroke-linecap="round" stroke-linejoin="round" />
  <path d="M123.05,40.53 C123.12,40.52 123.21,40.52 123.32,40.52" fill="currentColor" stroke="currentColor" stroke-width="1.2" stroke-linecap="round" stroke-linejoin="round" />
  <path d="M126.54,40.52 C126.65,40.52 126.74,40.52 126.80,40.53" fill="currentColor" stroke="currentColor" stroke-width="1.2" stroke-linecap="round" stroke-linejoin="round" />
  <path d="M140.55,40.62 C140.80,40.50 141.09,40.44 141.41,40.44" fill="currentColor" stroke="currentColor" stroke-width="1.2" stroke-linecap="round" stroke-linejoin="round" />
  <path d="M143.06,40.56 C143.13,40.53 143.24,40.52 143.38,40.52" fill="currentColor" stroke="currentColor" stroke-width="1.2" stroke-linecap="round" stroke-linejoin="round" />
  <path d="M123.55,40.53 C123.61,40.53 123.66,40.54 123.69,40.55" fill="currentColor" stroke="currentColor" stroke-width="1.2" stroke-linecap="round" stroke-linejoin="round" />
  <path d="M126.16,40.55 C126.20,40.54 126.25,40.53 126.31,40.53" fill="currentColor" stroke="currentColor" stroke-width="1.2" stroke-linecap="round" stroke-linejoin="round" />
  <path d="M141.41,40.44 C141.73,40.44 142.00,40.51 142.23,40.64" fill="currentColor" stroke="currentColor" stroke-width="1.2" stroke-linecap="round" stroke-linejoin="round" />
  <path d="M143.56,40.53 C143.61,40.53 143.65,40.54 143.67,40.56" fill="currentColor" stroke="currentColor" stroke-width="1.2" stroke-linecap="round" stroke-linejoin="round" />
  <path d="M126.80,40.53 C126.87,40.54 126.92,40.55 126.95,40.57" fill="currentColor" stroke="currentColor" stroke-width="1.2" stroke-linecap="round" stroke-linejoin="round" />
  <path d="M122.90,40.57 C122.93,40.55 122.98,40.54 123.05,40.53" fill="currentColor" stroke="currentColor" stroke-width="1.2" stroke-linecap="round" stroke-linejoin="round" />
  <path d="M123.69,40.55 C123.72,40.56 123.74,40.58 123.75,40.59" fill="currentColor" stroke="currentColor" stroke-width="1.2" stroke-linecap="round" stroke-linejoin="round" />
  <path d="M126.07,40.60 C126.09,40.58 126.12,40.57 126.16,40.55" fill="currentColor" stroke="currentColor" stroke-width="1.2" stroke-linecap="round" stroke-linejoin="round" />
  <path d="M143.67,40.56 C143.70,40.57 143.72,40.59 143.73,40.61" fill="currentColor" stroke="currentColor" stroke-width="1.2" stroke-linecap="round" stroke-linejoin="round" />
  <path d="M126.95,40.57 C126.99,40.58 127.00,40.61 126.99,40.64" fill="currentColor" stroke="currentColor" stroke-width="1.2" stroke-linecap="round" stroke-linejoin="round" />
  <path d="M122.84,40.65 C122.84,40.62 122.86,40.59 122.90,40.57" fill="currentColor" stroke="currentColor" stroke-width="1.2" stroke-linecap="round" stroke-linejoin="round" />
  <path d="M142.94,40.68 C142.95,40.62 142.99,40.58 143.06,40.56" fill="currentColor" stroke="currentColor" stroke-width="1.2" stroke-linecap="round" stroke-linejoin="round" />
  <path d="M123.75,40.59 C123.76,40.61 123.77,40.63 123.79,40.66" fill="currentColor" stroke="currentColor" stroke-width="1.2" stroke-linecap="round" stroke-linejoin="round" />
  <path d="M126.00,40.66 C126.02,40.64 126.05,40.62 126.07,40.60" fill="currentColor" stroke="currentColor" stroke-width="1.2" stroke-linecap="round" stroke-linejoin="round" />
  <path d="M63.94,40.85 C63.82,40.66 63.62,40.52 63.33,40.44" fill="currentColor" stroke="currentColor" stroke-width="1.2" stroke-linecap="round" stroke-linejoin="round" />
  <path d="M143.73,40.61 C143.74,40.63 143.74,40.65 143.73,40.68" fill="currentColor" stroke="currentColor" stroke-width="1.2" stroke-linecap="round" stroke-linejoin="round" />
  <path d="M126.99,40.64 C126.99,40.68 126.96,40.72 126.92,40.77" fill="currentColor" stroke="currentColor" stroke-width="1.2" stroke-linecap="round" stroke-linejoin="round" />
  <path d="M122.87,40.78 C122.85,40.73 122.84,40.69 122.84,40.65" fill="currentColor" stroke="currentColor" stroke-width="1.2" stroke-linecap="round" stroke-linejoin="round" />
  <path d="M139.89,41.10 C140.08,40.90 140.30,40.74 140.55,40.62" fill="currentColor" stroke="currentColor" stroke-width="1.2" stroke-linecap="round" stroke-linejoin="round" />
  <path d="M142.23,40.64 C142.45,40.77 142.66,40.94 142.84,41.17" fill="currentColor" stroke="currentColor" stroke-width="1.2" stroke-linecap="round" stroke-linejoin="round" />
  <line x1="142.84" y1="41.17" x2="142.94" y2="40.68" fill="currentColor" stroke="currentColor" stroke-width="1.2" stroke-linecap="round" stroke-linejoin="round" />
  <path d="M65.00,40.78 C65.07,40.98 65.10,41.20 65.10,41.44" fill="currentColor" stroke="currentColor" stroke-width="1.2" stroke-linecap="round" stroke-linejoin="round" />
  <path d="M64.13,41.54 C64.13,41.26 64.07,41.03 63.94,40.85" fill="currentColor" stroke="currentColor" stroke-width="1.2" stroke-linecap="round" stroke-linejoin="round" />
  <path d="M141.40,41.21 C141.20,41.21 141.03,41.25 140.87,41.34" fill="currentColor" stroke="currentColor" stroke-width="1.2" stroke-linecap="round" stroke-linejoin="round" />
  <path d="M142.06,41.39 C141.86,41.27 141.64,41.21 141.40,41.21" fill="currentColor" stroke="currentColor" stroke-width="1.2" stroke-linecap="round" stroke-linejoin="round" />
  <path d="M139.41,41.77 C139.54,41.52 139.70,41.30 139.89,41.10" fill="currentColor" stroke="currentColor" stroke-width="1.2" stroke-linecap="round" stroke-linejoin="round" />
  <path d="M140.87,41.34 C140.72,41.43 140.58,41.55 140.46,41.70" fill="currentColor" stroke="currentColor" stroke-width="1.2" stroke-linecap="round" stroke-linejoin="round" />
  <line x1="61.81" y1="40.37" x2="61.81" y2="42.71" fill="currentColor" stroke="currentColor" stroke-width="1.2" stroke-linecap="round" stroke-linejoin="round" />
  <line x1="123.79" y1="40.66" x2="124.55" y2="42.46" fill="currentColor" stroke="currentColor" stroke-width="1.2" stroke-linecap="round" stroke-linejoin="round" />
  <line x1="124.55" y1="42.46" x2="126.00" y2="40.66" fill="currentColor" stroke="currentColor" stroke-width="1.2" stroke-linecap="round" stroke-linejoin="round" />
  <path d="M142.60,41.95 C142.43,41.70 142.25,41.51 142.06,41.39" fill="currentColor" stroke="currentColor" stroke-width="1.2" stroke-linecap="round" stroke-linejoin="round" />
  <path d="M65.10,41.44 C65.10,41.67 65.07,41.88 65.01,42.06" fill="currentColor" stroke="currentColor" stroke-width="1.2" stroke-linecap="round" stroke-linejoin="round" />
  <path d="M64.04,42.00 C64.10,41.86 64.13,41.70 64.13,41.54" fill="currentColor" stroke="currentColor" stroke-width="1.2" stroke-linecap="round" stroke-linejoin="round" />
  <line x1="123.86" y1="43.04" x2="122.87" y2="40.78" fill="currentColor" stroke="currentColor" stroke-width="1.2" stroke-linecap="round" stroke-linejoin="round" />
  <line x1="126.92" y1="40.77" x2="125.03" y2="43.05" fill="currentColor" stroke="currentColor" stroke-width="1.2" stroke-linecap="round" stroke-linejoin="round" />
  <path d="M140.46,41.70 C140.34,41.86 140.24,42.03 140.15,42.22" fill="currentColor" stroke="currentColor" stroke-width="1.2" stroke-linecap="round" stroke-linejoin="round" />
  <path d="M139.08,42.55 C139.16,42.28 139.27,42.03 139.41,41.77" fill="currentColor" stroke="currentColor" stroke-width="1.2" stroke-linecap="round" stroke-linejoin="round" />
  <path d="M63.78,42.38 C63.90,42.27 63.99,42.15 64.04,42.00" fill="currentColor" stroke="currentColor" stroke-width="1.2" stroke-linecap="round" stroke-linejoin="round" />
  <path d="M65.01,42.06 C64.95,42.25 64.86,42.41 64.74,42.55" fill="currentColor" stroke="currentColor" stroke-width="1.2" stroke-linecap="round" stroke-linejoin="round" />
  <rect x="130.42" y="41.94" width="4.37" height="0.80" fill="currentColor" stroke="currentColor" stroke-width="1.2" stroke-linecap="round" stroke-linejoin="round" />
  <line x1="142.42" y1="42.83" x2="142.60" y2="41.95" fill="currentColor" stroke="currentColor" stroke-width="1.2" stroke-linecap="round" stroke-linejoin="round" />
  <path d="M63.34,42.62 C63.52,42.56 63.66,42.48 63.78,42.38" fill="currentColor" stroke="currentColor" stroke-width="1.2" stroke-linecap="round" stroke-linejoin="round" />
  <path d="M140.15,42.22 C140.06,42.41 139.99,42.61 139.93,42.81" fill="currentColor" stroke="currentColor" stroke-width="1.2" stroke-linecap="round" stroke-linejoin="round" />
  <path d="M62.71,42.71 C62.95,42.71 63.16,42.68 63.34,42.62" fill="currentColor" stroke="currentColor" stroke-width="1.2" stroke-linecap="round" stroke-linejoin="round" />
  <line x1="61.81" y1="42.71" x2="62.71" y2="42.71" fill="currentColor" stroke="currentColor" stroke-width="1.2" stroke-linecap="round" stroke-linejoin="round" />
  <path d="M64.74,42.55 C64.62,42.69 64.48,42.82 64.31,42.92" fill="currentColor" stroke="currentColor" stroke-width="1.2" stroke-linecap="round" stroke-linejoin="round" />
  <path d="M138.90,43.33 C138.93,43.07 139.00,42.81 139.08,42.55" fill="currentColor" stroke="currentColor" stroke-width="1.2" stroke-linecap="round" stroke-linejoin="round" />
  <path d="M64.31,42.92 C64.15,43.03 63.97,43.11 63.76,43.18" fill="currentColor" stroke="currentColor" stroke-width="1.2" stroke-linecap="round" stroke-linejoin="round" />
  <line x1="143.73" y1="40.68" x2="142.77" y2="45.52" fill="currentColor" stroke="currentColor" stroke-width="1.2" stroke-linecap="round" stroke-linejoin="round" />
  <rect x="8.00" y="8.00" width="110.40" height="70.20" fill="none" stroke="currentColor" stroke-width="1.4000000476837158" stroke-linecap="round" stroke-linejoin="round" />
  <path d="M139.93,42.81 C139.88,43.02 139.84,43.22 139.81,43.41" fill="currentColor" stroke="currentColor" stroke-width="1.2" stroke-linecap="round" stroke-linejoin="round" />
  <line x1="60.88" y1="46.42" x2="60.88" y2="39.98" fill="currentColor" stroke="currentColor" stroke-width="1.2" stroke-linecap="round" stroke-linejoin="round" />
  <path d="M142.12,43.70 C142.25,43.44 142.35,43.15 142.42,42.83" fill="currentColor" stroke="currentColor" stroke-width="1.2" stroke-linecap="round" stroke-linejoin="round" />
  <path d="M63.76,43.18 C63.88,43.23 63.98,43.30 64.07,43.38" fill="currentColor" stroke="currentColor" stroke-width="1.2" stroke-linecap="round" stroke-linejoin="round" />
  <line x1="62.42" y1="43.46" x2="61.81" y2="43.46" fill="currentColor" stroke="currentColor" stroke-width="1.2" stroke-linecap="round" stroke-linejoin="round" />
  <path d="M62.97,43.55 C62.82,43.49 62.64,43.46 62.42,43.46" fill="currentColor" stroke="currentColor" stroke-width="1.2" stroke-linecap="round" stroke-linejoin="round" />
  <path d="M64.07,43.38 C64.17,43.45 64.25,43.54 64.33,43.65" fill="currentColor" stroke="currentColor" stroke-width="1.2" stroke-linecap="round" stroke-linejoin="round" />
  <path d="M138.84,44.01 C138.84,43.81 138.86,43.58 138.90,43.33" fill="currentColor" stroke="currentColor" stroke-width="1.2" stroke-linecap="round" stroke-linejoin="round" />
  <path d="M139.81,43.41 C139.78,43.61 139.77,43.79 139.77,43.94" fill="currentColor" stroke="currentColor" stroke-width="1.2" stroke-linecap="round" stroke-linejoin="round" />
  <path d="M63.36,43.82 C63.25,43.70 63.12,43.62 62.97,43.55" fill="currentColor" stroke="currentColor" stroke-width="1.2" stroke-linecap="round" stroke-linejoin="round" />
  <path d="M64.33,43.65 C64.41,43.76 64.49,43.88 64.56,44.02" fill="currentColor" stroke="currentColor" stroke-width="1.2" stroke-linecap="round" stroke-linejoin="round" />
  <path d="M63.65,44.22 C63.57,44.06 63.47,43.93 63.36,43.82" fill="currentColor" stroke="currentColor" stroke-width="1.2" stroke-linecap="round" stroke-linejoin="round" />
  <path d="M141.67,44.38 C141.84,44.19 141.99,43.96 142.12,43.70" fill="currentColor" stroke="currentColor" stroke-width="1.2" stroke-linecap="round" stroke-linejoin="round" />
  <path d="M139.77,43.94 C139.77,44.07 139.78,44.19 139.80,44.32" fill="currentColor" stroke="currentColor" stroke-width="1.2" stroke-linecap="round" stroke-linejoin="round" />
  <line x1="121.85" y1="45.42" x2="123.86" y2="43.04" fill="currentColor" stroke="currentColor" stroke-width="1.2" stroke-linecap="round" stroke-linejoin="round" />
  <line x1="125.03" y1="43.05" x2="126.08" y2="45.42" fill="currentColor" stroke="currentColor" stroke-width="1.2" stroke-linecap="round" stroke-linejoin="round" />
  <path d="M64.56,44.02 C64.63,44.16 64.70,44.32 64.78,44.50" fill="currentColor" stroke="currentColor" stroke-width="1.2" stroke-linecap="round" stroke-linejoin="round" />
  <path d="M138.90,44.65 C138.86,44.44 138.84,44.23 138.84,44.01" fill="currentColor" stroke="currentColor" stroke-width="1.2" stroke-linecap="round" stroke-linejoin="round" />
  <path d="M63.88,44.73 C63.80,44.55 63.73,44.37 63.65,44.22" fill="currentColor" stroke="currentColor" stroke-width="1.2" stroke-linecap="round" stroke-linejoin="round" />
  <path d="M139.80,44.32 C139.82,44.44 139.86,44.55 139.91,44.66" fill="currentColor" stroke="currentColor" stroke-width="1.2" stroke-linecap="round" stroke-linejoin="round" />
  <line x1="125.14" y1="45.53" x2="124.33" y2="43.63" fill="currentColor" stroke="currentColor" stroke-width="1.2" stroke-linecap="round" stroke-linejoin="round" />
  <line x1="124.33" y1="43.63" x2="122.81" y2="45.53" fill="currentColor" stroke="currentColor" stroke-width="1.2" stroke-linecap="round" stroke-linejoin="round" />
  <path d="M141.11,44.83 C141.31,44.72 141.49,44.57 141.67,44.38" fill="currentColor" stroke="currentColor" stroke-width="1.2" stroke-linecap="round" stroke-linejoin="round" />
  <path d="M139.91,44.66 C139.97,44.76 140.04,44.84 140.14,44.90" fill="currentColor" stroke="currentColor" stroke-width="1.2" stroke-linecap="round" stroke-linejoin="round" />
  <path d="M142.15,44.61 C142.11,44.72 142.02,44.85 141.90,44.98" fill="currentColor" stroke="currentColor" stroke-width="1.2" stroke-linecap="round" stroke-linejoin="round" />
  <path d="M140.52,45.00 C140.71,45.00 140.91,44.94 141.11,44.83" fill="currentColor" stroke="currentColor" stroke-width="1.2" stroke-linecap="round" stroke-linejoin="round" />
  <path d="M139.13,45.21 C139.02,45.04 138.94,44.86 138.90,44.65" fill="currentColor" stroke="currentColor" stroke-width="1.2" stroke-linecap="round" stroke-linejoin="round" />
  <line x1="61.81" y1="43.46" x2="61.81" y2="46.42" fill="currentColor" stroke="currentColor" stroke-width="1.2" stroke-linecap="round" stroke-linejoin="round" />
  <path d="M140.14,44.90 C140.24,44.97 140.36,45.00 140.52,45.00" fill="currentColor" stroke="currentColor" stroke-width="1.2" stroke-linecap="round" stroke-linejoin="round" />
  <line x1="141.98" y1="45.52" x2="142.15" y2="44.61" fill="currentColor" stroke="currentColor" stroke-width="1.2" stroke-linecap="round" stroke-linejoin="round" />
  <path d="M141.90,44.98 C141.78,45.12 141.64,45.24 141.47,45.36" fill="currentColor" stroke="currentColor" stroke-width="1.2" stroke-linecap="round" stroke-linejoin="round" />
  <line x1="64.78" y1="44.50" x2="65.40" y2="46.03" fill="currentColor" stroke="currentColor" stroke-width="1.2" stroke-linecap="round" stroke-linejoin="round" />
  <path d="M139.58,45.60 C139.39,45.50 139.24,45.37 139.13,45.21" fill="currentColor" stroke="currentColor" stroke-width="1.2" stroke-linecap="round" stroke-linejoin="round" />
  <path d="M126.08,45.42 C126.11,45.47 126.11,45.51 126.11,45.54" fill="currentColor" stroke="currentColor" stroke-width="1.2" stroke-linecap="round" stroke-linejoin="round" />
  <path d="M121.79,45.55 C121.80,45.51 121.82,45.47 121.85,45.42" fill="currentColor" stroke="currentColor" stroke-width="1.2" stroke-linecap="round" stroke-linejoin="round" />
  <path d="M141.47,45.36 C141.30,45.47 141.12,45.57 140.91,45.64" fill="currentColor" stroke="currentColor" stroke-width="1.2" stroke-linecap="round" stroke-linejoin="round" />
  <line x1="64.52" y1="46.37" x2="63.88" y2="44.73" fill="currentColor" stroke="currentColor" stroke-width="1.2" stroke-linecap="round" stroke-linejoin="round" />
  <path d="M141.98,45.60 C141.97,45.58 141.97,45.55 141.98,45.52" fill="currentColor" stroke="currentColor" stroke-width="1.2" stroke-linecap="round" stroke-linejoin="round" />
  <path d="M125.17,45.60 C125.16,45.58 125.15,45.56 125.14,45.53" fill="currentColor" stroke="currentColor" stroke-width="1.2" stroke-linecap="round" stroke-linejoin="round" />
  <path d="M122.81,45.53 C122.79,45.56 122.77,45.58 122.75,45.60" fill="currentColor" stroke="currentColor" stroke-width="1.2" stroke-linecap="round" stroke-linejoin="round" />
  <path d="M142.77,45.52 C142.75,45.58 142.71,45.62 142.65,45.65" fill="currentColor" stroke="currentColor" stroke-width="1.2" stroke-linecap="round" stroke-linejoin="round" />
  <path d="M126.11,45.54 C126.10,45.58 126.08,45.60 126.04,45.63" fill="currentColor" stroke="currentColor" stroke-width="1.2" stroke-linecap="round" stroke-linejoin="round" />
  <path d="M121.83,45.63 C121.80,45.60 121.78,45.58 121.79,45.55" fill="currentColor" stroke="currentColor" stroke-width="1.2" stroke-linecap="round" stroke-linejoin="round" />
  <path d="M142.04,45.64 C142.01,45.63 141.99,45.62 141.98,45.60" fill="currentColor" stroke="currentColor" stroke-width="1.2" stroke-linecap="round" stroke-linejoin="round" />
  <path d="M122.75,45.60 C122.72,45.62 122.69,45.64 122.65,45.65" fill="currentColor" stroke="currentColor" stroke-width="1.2" stroke-linecap="round" stroke-linejoin="round" />
  <path d="M125.24,45.65 C125.20,45.64 125.18,45.62 125.17,45.60" fill="currentColor" stroke="currentColor" stroke-width="1.2" stroke-linecap="round" stroke-linejoin="round" />
  <path d="M126.04,45.63 C126.00,45.65 125.95,45.66 125.88,45.67" fill="currentColor" stroke="currentColor" stroke-width="1.2" stroke-linecap="round" stroke-linejoin="round" />
  <path d="M121.97,45.67 C121.91,45.66 121.86,45.65 121.83,45.63" fill="currentColor" stroke="currentColor" stroke-width="1.2" stroke-linecap="round" stroke-linejoin="round" />
  <path d="M142.15,45.67 C142.10,45.67 142.06,45.66 142.04,45.64" fill="currentColor" stroke="currentColor" stroke-width="1.2" stroke-linecap="round" stroke-linejoin="round" />
  <path d="M122.65,45.65 C122.60,45.66 122.55,45.67 122.48,45.67" fill="currentColor" stroke="currentColor" stroke-width="1.2" stroke-linecap="round" stroke-linejoin="round" />
  <path d="M125.37,45.68 C125.31,45.67 125.27,45.66 125.24,45.65" fill="currentColor" stroke="currentColor" stroke-width="1.2" stroke-linecap="round" stroke-linejoin="round" />
  <path d="M142.65,45.65 C142.58,45.67 142.48,45.68 142.33,45.68" fill="currentColor" stroke="currentColor" stroke-width="1.2" stroke-linecap="round" stroke-linejoin="round" />
  <path d="M125.88,45.67 C125.81,45.68 125.72,45.68 125.61,45.68" fill="currentColor" stroke="currentColor" stroke-width="1.2" stroke-linecap="round" stroke-linejoin="round" />
  <path d="M122.22,45.68 C122.12,45.68 122.03,45.68 121.97,45.67" fill="currentColor" stroke="currentColor" stroke-width="1.2" stroke-linecap="round" stroke-linejoin="round" />
  <path d="M122.48,45.67 C122.42,45.68 122.33,45.68 122.22,45.68" fill="currentColor" stroke="currentColor" stroke-width="1.2" stroke-linecap="round" stroke-linejoin="round" />
  <path d="M142.33,45.68 C142.25,45.68 142.20,45.68 142.15,45.67" fill="currentColor" stroke="currentColor" stroke-width="1.2" stroke-linecap="round" stroke-linejoin="round" />
  <path d="M140.29,45.75 C140.00,45.75 139.77,45.70 139.58,45.60" fill="currentColor" stroke="currentColor" stroke-width="1.2" stroke-linecap="round" stroke-linejoin="round" />
  <path d="M125.61,45.68 C125.51,45.68 125.43,45.68 125.37,45.68" fill="currentColor" stroke="currentColor" stroke-width="1.2" stroke-linecap="round" stroke-linejoin="round" />
  <path d="M140.91,45.64 C140.71,45.72 140.50,45.75 140.29,45.75" fill="currentColor" stroke="currentColor" stroke-width="1.2" stroke-linecap="round" stroke-linejoin="round" />
  <path d="M65.40,46.03 C65.45,46.15 65.48,46.25 65.50,46.30" fill="currentColor" stroke="currentColor" stroke-width="1.2" stroke-linecap="round" stroke-linejoin="round" />
  <path d="M65.50,46.30 C65.51,46.35 65.52,46.39 65.52,46.42" fill="currentColor" stroke="currentColor" stroke-width="1.2" stroke-linecap="round" stroke-linejoin="round" />
  <path d="M64.57,46.48 C64.55,46.45 64.53,46.41 64.52,46.37" fill="currentColor" stroke="currentColor" stroke-width="1.2" stroke-linecap="round" stroke-linejoin="round" />
  <path d="M65.52,46.42 C65.52,46.45 65.51,46.47 65.50,46.49" fill="currentColor" stroke="currentColor" stroke-width="1.2" stroke-linecap="round" stroke-linejoin="round" />
  <path d="M61.81,46.42 C61.81,46.45 61.80,46.47 61.78,46.49" fill="currentColor" stroke="currentColor" stroke-width="1.2" stroke-linecap="round" stroke-linejoin="round" />
  <path d="M60.90,46.49 C60.89,46.47 60.88,46.45 60.88,46.42" fill="currentColor" stroke="currentColor" stroke-width="1.2" stroke-linecap="round" stroke-linejoin="round" />
  <path d="M64.65,46.54 C64.62,46.53 64.59,46.51 64.57,46.48" fill="currentColor" stroke="currentColor" stroke-width="1.2" stroke-linecap="round" stroke-linejoin="round" />
  <path d="M61.78,46.49 C61.77,46.51 61.74,46.53 61.71,46.54" fill="currentColor" stroke="currentColor" stroke-width="1.2" stroke-linecap="round" stroke-linejoin="round" />
  <path d="M60.98,46.54 C60.94,46.53 60.92,46.51 60.90,46.49" fill="currentColor" stroke="currentColor" stroke-width="1.2" stroke-linecap="round" stroke-linejoin="round" />
  <path d="M65.50,46.49 C65.49,46.51 65.47,46.53 65.43,46.55" fill="currentColor" stroke="currentColor" stroke-width="1.2" stroke-linecap="round" stroke-linejoin="round" />
  <path d="M61.71,46.54 C61.67,46.56 61.63,46.57 61.57,46.58" fill="currentColor" stroke="currentColor" stroke-width="1.2" stroke-linecap="round" stroke-linejoin="round" />
  <path d="M61.12,46.58 C61.06,46.57 61.01,46.56 60.98,46.54" fill="currentColor" stroke="currentColor" stroke-width="1.2" stroke-linecap="round" stroke-linejoin="round" />
  <path d="M64.79,46.58 C64.74,46.57 64.69,46.56 64.65,46.54" fill="currentColor" stroke="currentColor" stroke-width="1.2" stroke-linecap="round" stroke-linejoin="round" />
  <path d="M65.43,46.55 C65.40,46.56 65.35,46.57 65.28,46.58" fill="currentColor" stroke="currentColor" stroke-width="1.2" stroke-linecap="round" stroke-linejoin="round" />
  <path d="M61.57,46.58 C61.51,46.59 61.43,46.59 61.34,46.59" fill="currentColor" stroke="currentColor" stroke-width="1.2" stroke-linecap="round" stroke-linejoin="round" />
  <path d="M61.34,46.59 C61.25,46.59 61.18,46.59 61.12,46.58" fill="currentColor" stroke="currentColor" stroke-width="1.2" stroke-linecap="round" stroke-linejoin="round" />
  <path d="M65.28,46.58 C65.22,46.59 65.13,46.59 65.02,46.59" fill="currentColor" stroke="currentColor" stroke-width="1.2" stroke-linecap="round" stroke-linejoin="round" />
  <path d="M65.02,46.59 C64.93,46.59 64.85,46.59 64.79,46.58" fill="currentColor" stroke="currentColor" stroke-width="1.2" stroke-linecap="round" stroke-linejoin="round" />
  <line x1="62.64" y1="81.93" x2="63.44" y2="81.93" fill="currentColor" stroke="currentColor" stroke-width="1.2" stroke-linecap="round" stroke-linejoin="round" />
  <path d="M53.76,82.49 C53.86,82.49 53.93,82.49 53.99,82.50" fill="currentColor" stroke="currentColor" stroke-width="1.2" stroke-linecap="round" stroke-linejoin="round" />
  <path d="M56.74,82.50 C56.80,82.49 56.88,82.49 56.98,82.49" fill="currentColor" stroke="currentColor" stroke-width="1.2" stroke-linecap="round" stroke-linejoin="round" />
  <path d="M73.82,82.49 C73.89,82.49 73.95,82.49 74.00,82.50" fill="currentColor" stroke="currentColor" stroke-width="1.2" stroke-linecap="round" stroke-linejoin="round" />
  <path d="M53.49,82.50 C53.56,82.50 53.64,82.49 53.76,82.49" fill="currentColor" stroke="currentColor" stroke-width="1.2" stroke-linecap="round" stroke-linejoin="round" />
  <path d="M56.98,82.49 C57.09,82.49 57.17,82.50 57.24,82.50" fill="currentColor" stroke="currentColor" stroke-width="1.2" stroke-linecap="round" stroke-linejoin="round" />
  <path d="M70.99,82.60 C71.24,82.48 71.53,82.42 71.85,82.42" fill="currentColor" stroke="currentColor" stroke-width="1.2" stroke-linecap="round" stroke-linejoin="round" />
  <path d="M73.50,82.53 C73.57,82.50 73.67,82.49 73.82,82.49" fill="currentColor" stroke="currentColor" stroke-width="1.2" stroke-linecap="round" stroke-linejoin="round" />
  <path d="M53.99,82.50 C54.05,82.51 54.09,82.51 54.12,82.52" fill="currentColor" stroke="currentColor" stroke-width="1.2" stroke-linecap="round" stroke-linejoin="round" />
  <path d="M56.60,82.53 C56.64,82.51 56.69,82.51 56.74,82.50" fill="currentColor" stroke="currentColor" stroke-width="1.2" stroke-linecap="round" stroke-linejoin="round" />
  <path d="M71.85,82.42 C72.16,82.42 72.44,82.48 72.66,82.61" fill="currentColor" stroke="currentColor" stroke-width="1.2" stroke-linecap="round" stroke-linejoin="round" />
  <path d="M74.00,82.50 C74.05,82.51 74.08,82.52 74.11,82.53" fill="currentColor" stroke="currentColor" stroke-width="1.2" stroke-linecap="round" stroke-linejoin="round" />
  <path d="M57.24,82.50 C57.31,82.51 57.36,82.52 57.39,82.54" fill="currentColor" stroke="currentColor" stroke-width="1.2" stroke-linecap="round" stroke-linejoin="round" />
  <path d="M53.33,82.55 C53.37,82.52 53.42,82.51 53.49,82.50" fill="currentColor" stroke="currentColor" stroke-width="1.2" stroke-linecap="round" stroke-linejoin="round" />
  <path d="M54.12,82.52 C54.15,82.53 54.18,82.55 54.19,82.57" fill="currentColor" stroke="currentColor" stroke-width="1.2" stroke-linecap="round" stroke-linejoin="round" />
  <path d="M56.51,82.57 C56.53,82.55 56.56,82.54 56.60,82.53" fill="currentColor" stroke="currentColor" stroke-width="1.2" stroke-linecap="round" stroke-linejoin="round" />
  <path d="M74.11,82.53 C74.14,82.54 74.16,82.56 74.17,82.58" fill="currentColor" stroke="currentColor" stroke-width="1.2" stroke-linecap="round" stroke-linejoin="round" />
  <path d="M57.39,82.54 C57.42,82.56 57.44,82.58 57.43,82.62" fill="currentColor" stroke="currentColor" stroke-width="1.2" stroke-linecap="round" stroke-linejoin="round" />
  <path d="M53.28,82.63 C53.28,82.59 53.30,82.57 53.33,82.55" fill="currentColor" stroke="currentColor" stroke-width="1.2" stroke-linecap="round" stroke-linejoin="round" />
  <path d="M73.38,82.65 C73.39,82.60 73.43,82.55 73.50,82.53" fill="currentColor" stroke="currentColor" stroke-width="1.2" stroke-linecap="round" stroke-linejoin="round" />
  <path d="M54.19,82.57 C54.20,82.59 54.21,82.61 54.22,82.63" fill="currentColor" stroke="currentColor" stroke-width="1.2" stroke-linecap="round" stroke-linejoin="round" />
  <path d="M56.44,82.63 C56.46,82.61 56.48,82.59 56.51,82.57" fill="currentColor" stroke="currentColor" stroke-width="1.2" stroke-linecap="round" stroke-linejoin="round" />
  <path d="M74.17,82.58 C74.17,82.60 74.17,82.63 74.17,82.65" fill="currentColor" stroke="currentColor" stroke-width="1.2" stroke-linecap="round" stroke-linejoin="round" />
  <path d="M57.43,82.62 C57.43,82.65 57.40,82.69 57.35,82.74" fill="currentColor" stroke="currentColor" stroke-width="1.2" stroke-linecap="round" stroke-linejoin="round" />
  <path d="M53.30,82.76 C53.28,82.70 53.27,82.66 53.28,82.63" fill="currentColor" stroke="currentColor" stroke-width="1.2" stroke-linecap="round" stroke-linejoin="round" />
  <path d="M70.33,83.07 C70.52,82.88 70.74,82.72 70.99,82.60" fill="currentColor" stroke="currentColor" stroke-width="1.2" stroke-linecap="round" stroke-linejoin="round" />
  <path d="M72.66,82.61 C72.89,82.74 73.10,82.92 73.27,83.14" fill="currentColor" stroke="currentColor" stroke-width="1.2" stroke-linecap="round" stroke-linejoin="round" />
  <line x1="73.27" y1="83.14" x2="73.38" y2="82.65" fill="currentColor" stroke="currentColor" stroke-width="1.2" stroke-linecap="round" stroke-linejoin="round" />
  <line x1="62.64" y1="84.38" x2="62.64" y2="81.93" fill="currentColor" stroke="currentColor" stroke-width="1.2" stroke-linecap="round" stroke-linejoin="round" />
  <line x1="63.44" y1="81.93" x2="63.44" y2="84.38" fill="currentColor" stroke="currentColor" stroke-width="1.2" stroke-linecap="round" stroke-linejoin="round" />
  <path d="M71.84,83.18 C71.64,83.18 71.47,83.23 71.31,83.32" fill="currentColor" stroke="currentColor" stroke-width="1.2" stroke-linecap="round" stroke-linejoin="round" />
  <path d="M72.49,83.36 C72.30,83.24 72.08,83.18 71.84,83.18" fill="currentColor" stroke="currentColor" stroke-width="1.2" stroke-linecap="round" stroke-linejoin="round" />
  <path d="M69.85,83.75 C69.98,83.50 70.14,83.27 70.33,83.07" fill="currentColor" stroke="currentColor" stroke-width="1.2" stroke-linecap="round" stroke-linejoin="round" />
  <path d="M71.31,83.32 C71.16,83.41 71.02,83.53 70.90,83.68" fill="currentColor" stroke="currentColor" stroke-width="1.2" stroke-linecap="round" stroke-linejoin="round" />
  <line x1="54.22" y1="82.63" x2="54.99" y2="84.44" fill="currentColor" stroke="currentColor" stroke-width="1.2" stroke-linecap="round" stroke-linejoin="round" />
  <line x1="54.99" y1="84.44" x2="56.44" y2="82.63" fill="currentColor" stroke="currentColor" stroke-width="1.2" stroke-linecap="round" stroke-linejoin="round" />
  <path d="M73.04,83.92 C72.87,83.67 72.69,83.49 72.49,83.36" fill="currentColor" stroke="currentColor" stroke-width="1.2" stroke-linecap="round" stroke-linejoin="round" />
  <line x1="54.30" y1="85.01" x2="53.30" y2="82.76" fill="currentColor" stroke="currentColor" stroke-width="1.2" stroke-linecap="round" stroke-linejoin="round" />
  <line x1="57.35" y1="82.74" x2="55.47" y2="85.03" fill="currentColor" stroke="currentColor" stroke-width="1.2" stroke-linecap="round" stroke-linejoin="round" />
  <path d="M70.90,83.68 C70.78,83.83 70.67,84.00 70.59,84.19" fill="currentColor" stroke="currentColor" stroke-width="1.2" stroke-linecap="round" stroke-linejoin="round" />
  <path d="M69.52,84.52 C69.60,84.26 69.71,84.00 69.85,83.75" fill="currentColor" stroke="currentColor" stroke-width="1.2" stroke-linecap="round" stroke-linejoin="round" />
  <line x1="72.86" y1="84.81" x2="73.04" y2="83.92" fill="currentColor" stroke="currentColor" stroke-width="1.2" stroke-linecap="round" stroke-linejoin="round" />
  <line x1="60.19" y1="84.38" x2="62.64" y2="84.38" fill="currentColor" stroke="currentColor" stroke-width="1.2" stroke-linecap="round" stroke-linejoin="round" />
  <line x1="63.44" y1="84.38" x2="65.89" y2="84.38" fill="currentColor" stroke="currentColor" stroke-width="1.2" stroke-linecap="round" stroke-linejoin="round" />
  <path d="M70.59,84.19 C70.50,84.38 70.43,84.58 70.37,84.79" fill="currentColor" stroke="currentColor" stroke-width="1.2" stroke-linecap="round" stroke-linejoin="round" />
  <line x1="60.19" y1="85.18" x2="60.19" y2="84.38" fill="currentColor" stroke="currentColor" stroke-width="1.2" stroke-linecap="round" stroke-linejoin="round" />
  <line x1="65.89" y1="84.38" x2="65.89" y2="85.18" fill="currentColor" stroke="currentColor" stroke-width="1.2" stroke-linecap="round" stroke-linejoin="round" />
  <path d="M69.33,85.30 C69.37,85.05 69.43,84.79 69.52,84.52" fill="currentColor" stroke="currentColor" stroke-width="1.2" stroke-linecap="round" stroke-linejoin="round" />
  <line x1="74.17" y1="82.65" x2="73.20" y2="87.49" fill="currentColor" stroke="currentColor" stroke-width="1.2" stroke-linecap="round" stroke-linejoin="round" />
  <path d="M70.37,84.79 C70.32,84.99 70.27,85.19 70.25,85.39" fill="currentColor" stroke="currentColor" stroke-width="1.2" stroke-linecap="round" stroke-linejoin="round" />
  <line x1="62.64" y1="85.18" x2="60.19" y2="85.18" fill="currentColor" stroke="currentColor" stroke-width="1.2" stroke-linecap="round" stroke-linejoin="round" />
  <line x1="65.89" y1="85.18" x2="63.44" y2="85.18" fill="currentColor" stroke="currentColor" stroke-width="1.2" stroke-linecap="round" stroke-linejoin="round" />
  <path d="M72.56,85.67 C72.69,85.41 72.79,85.12 72.86,84.81" fill="currentColor" stroke="currentColor" stroke-width="1.2" stroke-linecap="round" stroke-linejoin="round" />
  <path d="M69.28,85.98 C69.28,85.78 69.30,85.56 69.33,85.30" fill="currentColor" stroke="currentColor" stroke-width="1.2" stroke-linecap="round" stroke-linejoin="round" />
  <path d="M70.25,85.39 C70.22,85.58 70.21,85.76 70.21,85.92" fill="currentColor" stroke="currentColor" stroke-width="1.2" stroke-linecap="round" stroke-linejoin="round" />
  <path d="M72.10,86.35 C72.28,86.16 72.43,85.93 72.56,85.67" fill="currentColor" stroke="currentColor" stroke-width="1.2" stroke-linecap="round" stroke-linejoin="round" />
  <path d="M70.21,85.92 C70.21,86.04 70.22,86.17 70.24,86.29" fill="currentColor" stroke="currentColor" stroke-width="1.2" stroke-linecap="round" stroke-linejoin="round" />
  <line x1="52.29" y1="87.40" x2="54.30" y2="85.01" fill="currentColor" stroke="currentColor" stroke-width="1.2" stroke-linecap="round" stroke-linejoin="round" />
  <line x1="55.47" y1="85.03" x2="56.52" y2="87.39" fill="currentColor" stroke="currentColor" stroke-width="1.2" stroke-linecap="round" stroke-linejoin="round" />
  <path d="M69.34,86.62 C69.30,86.41 69.28,86.20 69.28,85.98" fill="currentColor" stroke="currentColor" stroke-width="1.2" stroke-linecap="round" stroke-linejoin="round" />
  <line x1="62.64" y1="87.63" x2="62.64" y2="85.18" fill="currentColor" stroke="currentColor" stroke-width="1.2" stroke-linecap="round" stroke-linejoin="round" />
  <line x1="63.44" y1="85.18" x2="63.44" y2="87.63" fill="currentColor" stroke="currentColor" stroke-width="1.2" stroke-linecap="round" stroke-linejoin="round" />
  <path d="M70.24,86.29 C70.26,86.42 70.29,86.53 70.35,86.63" fill="currentColor" stroke="currentColor" stroke-width="1.2" stroke-linecap="round" stroke-linejoin="round" />
  <line x1="55.58" y1="87.51" x2="54.77" y2="85.60" fill="currentColor" stroke="currentColor" stroke-width="1.2" stroke-linecap="round" stroke-linejoin="round" />
  <line x1="54.77" y1="85.60" x2="53.25" y2="87.51" fill="currentColor" stroke="currentColor" stroke-width="1.2" stroke-linecap="round" stroke-linejoin="round" />
  <path d="M71.55,86.81 C71.75,86.70 71.93,86.55 72.10,86.35" fill="currentColor" stroke="currentColor" stroke-width="1.2" stroke-linecap="round" stroke-linejoin="round" />
  <path d="M70.35,86.63 C70.41,86.73 70.48,86.81 70.58,86.88" fill="currentColor" stroke="currentColor" stroke-width="1.2" stroke-linecap="round" stroke-linejoin="round" />
  <path d="M72.59,86.58 C72.55,86.69 72.46,86.82 72.34,86.96" fill="currentColor" stroke="currentColor" stroke-width="1.2" stroke-linecap="round" stroke-linejoin="round" />
  <path d="M70.95,86.97 C71.15,86.97 71.35,86.92 71.55,86.81" fill="currentColor" stroke="currentColor" stroke-width="1.2" stroke-linecap="round" stroke-linejoin="round" />
  <path d="M69.57,87.18 C69.46,87.02 69.38,86.83 69.34,86.62" fill="currentColor" stroke="currentColor" stroke-width="1.2" stroke-linecap="round" stroke-linejoin="round" />
  <path d="M70.58,86.88 C70.67,86.94 70.80,86.97 70.95,86.97" fill="currentColor" stroke="currentColor" stroke-width="1.2" stroke-linecap="round" stroke-linejoin="round" />
  <line x1="72.42" y1="87.49" x2="72.59" y2="86.58" fill="currentColor" stroke="currentColor" stroke-width="1.2" stroke-linecap="round" stroke-linejoin="round" />
  <path d="M72.34,86.96 C72.22,87.09 72.07,87.22 71.91,87.33" fill="currentColor" stroke="currentColor" stroke-width="1.2" stroke-linecap="round" stroke-linejoin="round" />
  <path d="M70.02,87.58 C69.83,87.48 69.68,87.35 69.57,87.18" fill="currentColor" stroke="currentColor" stroke-width="1.2" stroke-linecap="round" stroke-linejoin="round" />
  <path d="M56.52,87.39 C56.54,87.44 56.55,87.48 56.55,87.52" fill="currentColor" stroke="currentColor" stroke-width="1.2" stroke-linecap="round" stroke-linejoin="round" />
  <path d="M52.23,87.52 C52.23,87.49 52.25,87.45 52.29,87.40" fill="currentColor" stroke="currentColor" stroke-width="1.2" stroke-linecap="round" stroke-linejoin="round" />
  <path d="M71.91,87.33 C71.74,87.45 71.56,87.54 71.35,87.62" fill="currentColor" stroke="currentColor" stroke-width="1.2" stroke-linecap="round" stroke-linejoin="round" />
  <path d="M72.42,87.57 C72.40,87.55 72.40,87.52 72.42,87.49" fill="currentColor" stroke="currentColor" stroke-width="1.2" stroke-linecap="round" stroke-linejoin="round" />
  <path d="M55.61,87.58 C55.60,87.56 55.59,87.53 55.58,87.51" fill="currentColor" stroke="currentColor" stroke-width="1.2" stroke-linecap="round" stroke-linejoin="round" />
  <path d="M53.25,87.51 C53.23,87.53 53.21,87.56 53.18,87.58" fill="currentColor" stroke="currentColor" stroke-width="1.2" stroke-linecap="round" stroke-linejoin="round" />
  <path d="M73.20,87.49 C73.19,87.55 73.15,87.60 73.09,87.62" fill="currentColor" stroke="currentColor" stroke-width="1.2" stroke-linecap="round" stroke-linejoin="round" />
  <path d="M56.55,87.52 C56.54,87.55 56.52,87.58 56.48,87.60" fill="currentColor" stroke="currentColor" stroke-width="1.2" stroke-linecap="round" stroke-linejoin="round" />
  <path d="M52.27,87.60 C52.23,87.58 52.22,87.55 52.23,87.52" fill="currentColor" stroke="currentColor" stroke-width="1.2" stroke-linecap="round" stroke-linejoin="round" />
  <path d="M72.47,87.62 C72.45,87.61 72.43,87.59 72.42,87.57" fill="currentColor" stroke="currentColor" stroke-width="1.2" stroke-linecap="round" stroke-linejoin="round" />
  <path d="M53.18,87.58 C53.16,87.60 53.13,87.61 53.08,87.62" fill="currentColor" stroke="currentColor" stroke-width="1.2" stroke-linecap="round" stroke-linejoin="round" />
  <path d="M55.67,87.62 C55.64,87.61 55.62,87.60 55.61,87.58" fill="currentColor" stroke="currentColor" stroke-width="1.2" stroke-linecap="round" stroke-linejoin="round" />
  <path d="M56.48,87.60 C56.44,87.62 56.38,87.64 56.31,87.65" fill="currentColor" stroke="currentColor" stroke-width="1.2" stroke-linecap="round" stroke-linejoin="round" />
  <path d="M52.41,87.65 C52.34,87.64 52.30,87.62 52.27,87.60" fill="currentColor" stroke="currentColor" stroke-width="1.2" stroke-linecap="round" stroke-linejoin="round" />
  <line x1="63.44" y1="87.63" x2="62.64" y2="87.63" fill="currentColor" stroke="currentColor" stroke-width="1.2" stroke-linecap="round" stroke-linejoin="round" />
  <path d="M72.59,87.65 C72.54,87.64 72.50,87.63 72.47,87.62" fill="currentColor" stroke="currentColor" stroke-width="1.2" stroke-linecap="round" stroke-linejoin="round" />
  <path d="M53.08,87.62 C53.04,87.63 52.99,87.64 52.92,87.65" fill="currentColor" stroke="currentColor" stroke-width="1.2" stroke-linecap="round" stroke-linejoin="round" />
  <path d="M55.81,87.65 C55.75,87.65 55.71,87.64 55.67,87.62" fill="currentColor" stroke="currentColor" stroke-width="1.2" stroke-linecap="round" stroke-linejoin="round" />
  <path d="M73.09,87.62 C73.02,87.65 72.91,87.66 72.76,87.66" fill="currentColor" stroke="currentColor" stroke-width="1.2" stroke-linecap="round" stroke-linejoin="round" />
  <path d="M56.31,87.65 C56.25,87.65 56.15,87.66 56.04,87.66" fill="currentColor" stroke="currentColor" stroke-width="1.2" stroke-linecap="round" stroke-linejoin="round" />
  <path d="M52.66,87.66 C52.56,87.66 52.47,87.65 52.41,87.65" fill="currentColor" stroke="currentColor" stroke-width="1.2" stroke-linecap="round" stroke-linejoin="round" />
  <path d="M52.92,87.65 C52.85,87.66 52.77,87.66 52.66,87.66" fill="currentColor" stroke="currentColor" stroke-width="1.2" stroke-linecap="round" stroke-linejoin="round" />
  <path d="M72.76,87.66 C72.69,87.66 72.63,87.66 72.59,87.65" fill="currentColor" stroke="currentColor" stroke-width="1.2" stroke-linecap="round" stroke-linejoin="round" />
  <path d="M70.73,87.73 C70.44,87.73 70.21,87.68 70.02,87.58" fill="currentColor" stroke="currentColor" stroke-width="1.2" stroke-linecap="round" stroke-linejoin="round" />
  <path d="M56.04,87.66 C55.94,87.66 55.86,87.66 55.81,87.65" fill="currentColor" stroke="currentColor" stroke-width="1.2" stroke-linecap="round" stroke-linejoin="round" />
  <path d="M71.35,87.62 C71.15,87.69 70.94,87.73 70.73,87.73" fill="currentColor" stroke="currentColor" stroke-width="1.2" stroke-linecap="round" stroke-linejoin="round" />
</svg>