<svg xmlns="http://www.w3.org/2000/svg" viewBox="0 0 210.66 132.39" preserveAspectRatio="xMidYMid meet" shape-rendering="geometricPrecision" text-rendering="optimizeLegibility">
  <line x1="46.77" y1="8.00" x2="19.50" y2="89.87" fill="none" stroke="currentColor" stroke-width="1.4000000476837158" stroke-linecap="round" stroke-linejoin="round" />
  <line x1="19.50" y1="89.87" x2="202.66" y2="90.01" fill="none" stroke="currentColor" stroke-width="1.4000000476837158" stroke-linecap="round" stroke-linejoin="round" />
  <line x1="202.66" y1="90.01" x2="46.77" y2="8.00" fill="none" stroke="currentColor" stroke-width="1.4000000476837158" stroke-linecap="round" stroke-linejoin="round" />
  <line x1="46.77" y1="8.00" x2="8.00" y2="124.39" fill="none" stroke="currentColor" stroke-width="1.4000000476837158" stroke-linecap="round" stroke-linejoin="round" />
  <line x1="8.00" y1="124.39" x2="132.25" y2="52.97" fill="none" stroke="currentColor" stroke-width="1.4000000476837158" stroke-linecap="round" stroke-linejoin="round" />
  <line x1="132.25" y1="52.97" x2="46.77" y2="8.00" fill="none" stroke="currentColor" stroke-width="1.4000000476837158" stroke-linecap="round" stroke-linejoin="round" />
  <path d="M51.32,27.68C51.32,27.98 51.26,28.24 51.15,28.48C51.05,28.71 50.89,28.91 50.69,29.07C50.49,29.23 50.24,29.35 49.94,29.44C49.64,29.52 49.30,29.56 48.92,29.56C48.56,29.56 48.24,29.52 47.96,29.45C47.68,29.37 47.43,29.26 47.24,29.11C47.04,28.97 46.89,28.79 46.79,28.57C46.68,28.36 46.63,28.11 46.63,27.84C46.63,27.62 46.67,27.42 46.74,27.23C46.81,27.05 46.91,26.88 47.05,26.73C47.18,26.58 47.35,26.43 47.54,26.30C47.74,26.16 47.96,26.04 48.21,25.91C48.00,25.80 47.81,25.69 47.64,25.56C47.48,25.44 47.34,25.30 47.22,25.16C47.11,25.01 47.02,24.86 46.96,24.69C46.90,24.53 46.87,24.35 46.87,24.16C46.87,23.91 46.92,23.69 47.01,23.47C47.09,23.26 47.23,23.07 47.40,22.92C47.58,22.76 47.81,22.63 48.08,22.54C48.35,22.45 48.67,22.41 49.04,22.41C49.39,22.41 49.69,22.45 49.95,22.53C50.20,22.62 50.42,22.73 50.58,22.88C50.75,23.02 50.87,23.19 50.95,23.39C51.03,23.59 51.07,23.80 51.07,24.02C51.07,24.21 51.04,24.38 50.98,24.55C50.92,24.72 50.83,24.88 50.72,25.03C50.60,25.18 50.46,25.32 50.30,25.45C50.13,25.58 49.94,25.70 49.73,25.82C49.98,25.94 50.21,26.07 50.40,26.20C50.60,26.34 50.77,26.48 50.90,26.63C51.04,26.78 51.14,26.94 51.21,27.11C51.28,27.28 51.32,27.47 51.32,27.68ZM50.15,24.11C50.15,23.96 50.13,23.82 50.08,23.70C50.03,23.58 49.95,23.48 49.85,23.39C49.75,23.30 49.62,23.24 49.48,23.19C49.33,23.15 49.16,23.13 48.97,23.13C48.58,23.13 48.29,23.21 48.09,23.39C47.89,23.56 47.79,23.80 47.79,24.11C47.79,24.25 47.82,24.38 47.86,24.50C47.91,24.62 47.99,24.73 48.09,24.84C48.19,24.95 48.32,25.05 48.48,25.15C48.63,25.26 48.82,25.36 49.03,25.47C49.39,25.29 49.67,25.08 49.87,24.86C50.06,24.63 50.15,24.38 50.15,24.11ZM50.38,27.77C50.38,27.61 50.35,27.46 50.29,27.32C50.23,27.19 50.14,27.06 50.01,26.95C49.89,26.83 49.74,26.72 49.55,26.61C49.37,26.50 49.15,26.39 48.91,26.27C48.68,26.38 48.49,26.49 48.32,26.60C48.15,26.71 48.01,26.83 47.90,26.94C47.79,27.06 47.71,27.19 47.65,27.32C47.59,27.45 47.57,27.59 47.57,27.75C47.57,28.10 47.68,28.37 47.92,28.56C48.16,28.75 48.52,28.84 48.99,28.84C49.45,28.84 49.79,28.75 50.03,28.55C50.26,28.36 50.38,28.10 50.38,27.77Z" fill="currentColor" stroke="currentColor" stroke-width="1.2" stroke-linejoin="round" />
  <path d="M56.73,29.06C56.73,29.13 56.72,29.18 56.71,29.23C56.71,29.28 56.69,29.33 56.68,29.36C56.66,29.39 56.64,29.42 56.61,29.43C56.59,29.45 56.56,29.46 56.53,29.46L52.68,29.46C52.63,29.46 52.59,29.45 52.55,29.44C52.51,29.43 52.48,29.41 52.46,29.38C52.43,29.35 52.41,29.31 52.40,29.26C52.39,29.20 52.38,29.14 52.38,29.06C52.38,28.98 52.38,28.92 52.39,28.87C52.39,28.81 52.40,28.77 52.42,28.73C52.44,28.68 52.46,28.64 52.49,28.60C52.51,28.56 52.55,28.52 52.59,28.47L53.94,27.04C54.25,26.71 54.50,26.42 54.69,26.16C54.88,25.90 55.02,25.66 55.12,25.44C55.23,25.23 55.29,25.03 55.33,24.86C55.36,24.68 55.38,24.52 55.38,24.36C55.38,24.21 55.35,24.06 55.30,23.92C55.25,23.79 55.18,23.67 55.08,23.56C54.99,23.46 54.87,23.38 54.73,23.32C54.58,23.25 54.42,23.22 54.23,23.22C54.01,23.22 53.82,23.25 53.64,23.32C53.47,23.38 53.32,23.44 53.19,23.51C53.06,23.58 52.95,23.65 52.86,23.71C52.77,23.77 52.71,23.80 52.66,23.80C52.64,23.80 52.62,23.80 52.60,23.78C52.58,23.77 52.56,23.74 52.55,23.71C52.54,23.68 52.53,23.64 52.52,23.58C52.51,23.53 52.51,23.46 52.51,23.39C52.51,23.34 52.51,23.29 52.51,23.25C52.52,23.21 52.52,23.18 52.53,23.15C52.54,23.12 52.55,23.09 52.57,23.07C52.58,23.04 52.61,23.01 52.65,22.97C52.70,22.94 52.77,22.89 52.88,22.82C52.98,22.76 53.11,22.69 53.27,22.63C53.43,22.57 53.61,22.51 53.80,22.47C53.99,22.43 54.19,22.41 54.40,22.41C54.74,22.41 55.03,22.46 55.29,22.55C55.54,22.64 55.75,22.77 55.92,22.94C56.08,23.10 56.21,23.30 56.29,23.51C56.37,23.73 56.41,23.96 56.41,24.21C56.41,24.43 56.39,24.65 56.35,24.88C56.31,25.10 56.23,25.33 56.10,25.59C55.98,25.85 55.79,26.13 55.55,26.44C55.31,26.76 54.99,27.12 54.60,27.53L53.50,28.68L56.52,28.68C56.55,28.68 56.58,28.68 56.60,28.70C56.63,28.71 56.65,28.74 56.67,28.77C56.69,28.80 56.71,28.84 56.71,28.89C56.72,28.94 56.73,29.00 56.73,29.06Z" fill="currentColor" stroke="currentColor" stroke-width="1.2" stroke-linejoin="round" />
  <path d="M60.51,23.37C60.51,23.55 60.48,23.71 60.42,23.87C60.35,24.02 60.26,24.16 60.14,24.27C60.02,24.39 59.88,24.48 59.71,24.54C59.55,24.61 59.37,24.64 59.18,24.64C58.99,24.64 58.82,24.61 58.66,24.55C58.51,24.49 58.37,24.41 58.26,24.30C58.15,24.20 58.05,24.07 57.99,23.92C57.93,23.77 57.89,23.60 57.89,23.42C57.89,23.23 57.93,23.06 58.00,22.91C58.06,22.75 58.16,22.62 58.28,22.51C58.40,22.40 58.54,22.31 58.70,22.25C58.86,22.18 59.04,22.15 59.23,22.15C59.41,22.15 59.58,22.18 59.74,22.24C59.90,22.30 60.04,22.38 60.15,22.49C60.26,22.60 60.35,22.72 60.42,22.87C60.48,23.02 60.51,23.19 60.51,23.37ZM59.84,23.39C59.84,23.30 59.82,23.21 59.79,23.12C59.76,23.04 59.71,22.97 59.66,22.91C59.60,22.85 59.53,22.80 59.45,22.76C59.37,22.73 59.29,22.71 59.19,22.71C59.10,22.71 59.02,22.73 58.94,22.76C58.87,22.80 58.80,22.85 58.74,22.91C58.69,22.97 58.64,23.04 58.61,23.12C58.58,23.20 58.56,23.29 58.56,23.38C58.56,23.49 58.58,23.58 58.61,23.67C58.64,23.75 58.69,23.83 58.74,23.89C58.80,23.95 58.87,24.00 58.96,24.03C59.04,24.07 59.12,24.08 59.22,24.08C59.30,24.08 59.38,24.06 59.46,24.03C59.54,23.99 59.60,23.94 59.66,23.88C59.71,23.82 59.76,23.75 59.79,23.66C59.82,23.58 59.84,23.49 59.84,23.39Z" fill="currentColor" stroke="currentColor" stroke-width="1.2" stroke-linejoin="round" />
  <path d="M74.68,86.06 C73.97,84.83 72.92,83.77 71.57,83.06" fill="none" stroke="currentColor" stroke-width="1.000000011920929" stroke-linecap="round" stroke-linejoin="round" />
  <path d="M71.57,83.06 C67.78,81.07 63.11,82.52 61.14,86.29" fill="none" stroke="currentColor" stroke-width="1.000000011920929" stroke-linecap="round" stroke-linejoin="round" />
  <path d="M61.14,86.29 C60.54,87.45 60.26,88.68 60.27,89.90" fill="none" stroke="currentColor" stroke-width="1.000000011920929" stroke-linecap="round" stroke-linejoin="round" />
  <path d="M186.73,81.62 C185.33,84.29 184.76,87.18 184.92,89.99" fill="none" stroke="currentColor" stroke-width="1.000000011920929" stroke-linecap="round" stroke-linejoin="round" />
  <path d="M21.99,116.34 C20.51,113.76 18.30,111.56 15.47,110.08" fill="none" stroke="currentColor" stroke-width="1.000000011920929" stroke-linecap="round" stroke-linejoin="round" />
  <path d="M15.47,110.08 C14.70,109.67 13.91,109.33 13.10,109.06" fill="none" stroke="currentColor" stroke-width="1.000000011920929" stroke-linecap="round" stroke-linejoin="round" />
  <path d="M43.31,18.39 C48.34,20.09 53.98,17.95 56.50,13.12" fill="none" stroke="currentColor" stroke-width="1.000000011920929" stroke-linecap="round" stroke-linejoin="round" />
  <path d="M63.50,79.05C63.50,79.12 63.49,79.18 63.48,79.22C63.47,79.27 63.46,79.31 63.44,79.33C63.42,79.36 63.40,79.38 63.38,79.40C63.36,79.41 63.33,79.42 63.31,79.42L59.68,79.42C59.65,79.42 59.63,79.41 59.61,79.40C59.58,79.38 59.56,79.36 59.54,79.33C59.52,79.31 59.51,79.27 59.50,79.22C59.49,79.18 59.48,79.12 59.48,79.05C59.48,78.99 59.49,78.93 59.50,78.88C59.51,78.84 59.52,78.80 59.54,78.77C59.55,78.74 59.57,78.71 59.60,78.70C59.62,78.68 59.65,78.67 59.68,78.67L61.13,78.67L61.13,73.39L59.78,74.19C59.71,74.23 59.66,74.25 59.62,74.25C59.58,74.26 59.54,74.25 59.52,74.23C59.49,74.21 59.48,74.17 59.47,74.11C59.46,74.06 59.46,73.99 59.46,73.91C59.46,73.85 59.46,73.80 59.46,73.75C59.47,73.71 59.48,73.68 59.49,73.65C59.50,73.62 59.51,73.59 59.53,73.57C59.55,73.55 59.58,73.53 59.61,73.51L61.21,72.48C61.23,72.47 61.24,72.46 61.27,72.45C61.29,72.45 61.31,72.44 61.35,72.43C61.38,72.43 61.42,72.42 61.46,72.42C61.50,72.42 61.56,72.42 61.62,72.42C61.71,72.42 61.78,72.42 61.84,72.43C61.89,72.44 61.94,72.45 61.97,72.46C62.00,72.47 62.02,72.49 62.03,72.51C62.04,72.53 62.05,72.55 62.05,72.57L62.05,78.67L63.31,78.67C63.34,78.67 63.36,78.68 63.39,78.70C63.41,78.71 63.43,78.74 63.45,78.77C63.46,78.80 63.48,78.84 63.49,78.88C63.49,78.93 63.50,78.99 63.50,79.05Z" fill="currentColor" stroke="currentColor" stroke-width="1.2" stroke-linejoin="round" />
  <path d="M69.03,77.18C69.03,77.55 68.96,77.89 68.84,78.18C68.71,78.47 68.54,78.71 68.31,78.91C68.08,79.11 67.81,79.26 67.49,79.36C67.17,79.47 66.82,79.52 66.43,79.52C66.22,79.52 66.01,79.50 65.82,79.47C65.63,79.44 65.46,79.40 65.30,79.36C65.15,79.32 65.03,79.27 64.93,79.23C64.84,79.19 64.77,79.15 64.75,79.13C64.72,79.10 64.70,79.08 64.69,79.06C64.68,79.04 64.67,79.01 64.66,78.98C64.65,78.95 64.65,78.91 64.64,78.86C64.64,78.82 64.64,78.76 64.64,78.70C64.64,78.64 64.64,78.58 64.65,78.53C64.65,78.48 64.66,78.45 64.68,78.41C64.69,78.38 64.71,78.36 64.73,78.35C64.75,78.33 64.77,78.33 64.79,78.33C64.83,78.33 64.89,78.35 64.96,78.39C65.04,78.44 65.14,78.49 65.26,78.54C65.39,78.59 65.55,78.64 65.74,78.69C65.93,78.73 66.15,78.76 66.40,78.76C66.65,78.76 66.87,78.73 67.07,78.67C67.27,78.61 67.44,78.52 67.58,78.40C67.73,78.28 67.84,78.13 67.93,77.94C68.01,77.76 68.05,77.53 68.05,77.27C68.05,77.05 68.01,76.85 67.94,76.68C67.87,76.51 67.77,76.37 67.62,76.26C67.48,76.14 67.29,76.06 67.07,76.00C66.85,75.95 66.58,75.92 66.28,75.92C66.06,75.92 65.87,75.93 65.71,75.95C65.56,75.97 65.41,75.98 65.27,75.98C65.17,75.98 65.10,75.96 65.06,75.91C65.01,75.87 64.99,75.78 64.99,75.65L64.99,72.82C64.99,72.70 65.02,72.61 65.08,72.55C65.13,72.50 65.21,72.47 65.32,72.47L68.39,72.47C68.42,72.47 68.45,72.47 68.48,72.49C68.50,72.51 68.52,72.53 68.54,72.56C68.56,72.60 68.57,72.64 68.58,72.69C68.59,72.74 68.60,72.80 68.60,72.86C68.60,72.99 68.58,73.09 68.54,73.16C68.51,73.24 68.46,73.27 68.39,73.27L65.80,73.27L65.80,75.22C65.92,75.20 66.05,75.19 66.18,75.19C66.31,75.19 66.46,75.18 66.64,75.18C67.03,75.18 67.38,75.23 67.68,75.33C67.98,75.42 68.22,75.56 68.42,75.73C68.62,75.90 68.77,76.11 68.87,76.36C68.98,76.61 69.03,76.88 69.03,77.18Z" fill="currentColor" stroke="currentColor" stroke-width="1.2" stroke-linejoin="round" />
  <path d="M74.63,79.02C74.63,79.08 74.63,79.14 74.62,79.19C74.61,79.24 74.60,79.28 74.58,79.32C74.57,79.35 74.54,79.38 74.52,79.39C74.49,79.41 74.46,79.42 74.43,79.42L70.59,79.42C70.54,79.42 70.50,79.41 70.46,79.40C70.42,79.38 70.39,79.36 70.36,79.33C70.33,79.31 70.32,79.27 70.30,79.21C70.29,79.16 70.28,79.09 70.28,79.01C70.28,78.94 70.29,78.88 70.29,78.82C70.30,78.77 70.31,78.72 70.33,78.68C70.34,78.64 70.37,78.60 70.39,78.56C70.42,78.52 70.46,78.47 70.50,78.43L71.85,77.00C72.16,76.67 72.41,76.37 72.60,76.11C72.78,75.85 72.93,75.61 73.03,75.40C73.13,75.18 73.20,74.99 73.23,74.81C73.26,74.64 73.28,74.47 73.28,74.32C73.28,74.16 73.26,74.02 73.21,73.88C73.15,73.74 73.08,73.62 72.99,73.52C72.89,73.41 72.77,73.33 72.63,73.27C72.49,73.21 72.32,73.18 72.14,73.18C71.92,73.18 71.72,73.21 71.55,73.27C71.38,73.33 71.22,73.40 71.09,73.47C70.96,73.54 70.85,73.61 70.76,73.67C70.68,73.73 70.61,73.76 70.57,73.76C70.54,73.76 70.52,73.75 70.50,73.74C70.48,73.72 70.46,73.70 70.45,73.67C70.44,73.64 70.43,73.59 70.42,73.54C70.42,73.49 70.41,73.42 70.41,73.35C70.41,73.29 70.41,73.25 70.42,73.21C70.42,73.17 70.43,73.13 70.44,73.10C70.45,73.08 70.46,73.05 70.47,73.02C70.49,73.00 70.51,72.97 70.56,72.93C70.60,72.89 70.67,72.84 70.78,72.78C70.89,72.71 71.02,72.65 71.18,72.59C71.34,72.52 71.51,72.47 71.70,72.43C71.90,72.39 72.10,72.36 72.31,72.36C72.65,72.36 72.94,72.41 73.19,72.51C73.44,72.60 73.65,72.73 73.82,72.90C73.99,73.06 74.11,73.25 74.19,73.47C74.28,73.69 74.32,73.92 74.32,74.17C74.32,74.39 74.30,74.61 74.26,74.83C74.22,75.05 74.14,75.29 74.01,75.55C73.88,75.80 73.70,76.09 73.46,76.40C73.22,76.71 72.90,77.07 72.50,77.48L71.40,78.63L74.42,78.63C74.45,78.63 74.48,78.64 74.51,78.66C74.53,78.67 74.56,78.70 74.58,78.73C74.60,78.76 74.61,78.80 74.62,78.85C74.63,78.90 74.63,78.95 74.63,79.02Z" fill="currentColor" stroke="currentColor" stroke-width="1.2" stroke-linejoin="round" />
  <path d="M78.42,73.33C78.42,73.51 78.39,73.67 78.32,73.82C78.26,73.98 78.16,74.11 78.04,74.23C77.92,74.35 77.78,74.44 77.62,74.50C77.45,74.57 77.28,74.60 77.09,74.60C76.90,74.60 76.73,74.57 76.57,74.51C76.41,74.45 76.28,74.37 76.16,74.26C76.05,74.15 75.96,74.02 75.90,73.87C75.83,73.72 75.80,73.56 75.80,73.37C75.80,73.19 75.83,73.02 75.90,72.87C75.97,72.71 76.06,72.58 76.18,72.47C76.30,72.35 76.44,72.27 76.60,72.20C76.77,72.14 76.94,72.11 77.13,72.11C77.32,72.11 77.49,72.14 77.65,72.20C77.80,72.26 77.94,72.34 78.05,72.45C78.17,72.55 78.26,72.68 78.32,72.83C78.39,72.98 78.42,73.15 78.42,73.33ZM77.74,73.35C77.74,73.26 77.73,73.16 77.69,73.08C77.66,73.00 77.62,72.92 77.56,72.86C77.50,72.80 77.44,72.75 77.36,72.72C77.28,72.69 77.19,72.67 77.10,72.67C77.01,72.67 76.93,72.69 76.85,72.72C76.77,72.75 76.71,72.80 76.65,72.86C76.59,72.92 76.55,73.00 76.51,73.08C76.48,73.16 76.46,73.25 76.46,73.34C76.46,73.44 76.48,73.54 76.51,73.63C76.55,73.71 76.59,73.79 76.65,73.85C76.71,73.91 76.78,73.95 76.86,73.99C76.94,74.02 77.03,74.04 77.12,74.04C77.21,74.04 77.29,74.02 77.37,73.99C77.44,73.95 77.51,73.90 77.56,73.84C77.62,73.78 77.66,73.70 77.69,73.62C77.73,73.54 77.74,73.45 77.74,73.35Z" fill="currentColor" stroke="currentColor" stroke-width="1.2" stroke-linejoin="round" />
  <path d="M169.97,86.66C169.97,86.72 169.97,86.78 169.96,86.83C169.95,86.88 169.94,86.92 169.92,86.96C169.91,86.99 169.89,87.01 169.86,87.03C169.83,87.05 169.80,87.06 169.77,87.06L165.93,87.06C165.88,87.06 165.84,87.05 165.80,87.04C165.76,87.02 165.73,87.00 165.70,86.97C165.67,86.95 165.66,86.90 165.64,86.85C165.63,86.80 165.62,86.73 165.62,86.65C165.62,86.58 165.63,86.52 165.63,86.46C165.64,86.41 165.65,86.36 165.67,86.32C165.68,86.28 165.71,86.24 165.73,86.20C165.76,86.16 165.80,86.11 165.84,86.07L167.19,84.64C167.50,84.31 167.75,84.01 167.94,83.75C168.12,83.49 168.27,83.25 168.37,83.04C168.47,82.82 168.54,82.63 168.57,82.45C168.60,82.28 168.62,82.11 168.62,81.96C168.62,81.80 168.60,81.66 168.55,81.52C168.50,81.38 168.42,81.26 168.33,81.16C168.23,81.05 168.11,80.97 167.97,80.91C167.83,80.85 167.66,80.82 167.48,80.82C167.26,80.82 167.06,80.85 166.89,80.91C166.72,80.97 166.56,81.04 166.43,81.11C166.30,81.18 166.19,81.25 166.10,81.31C166.02,81.37 165.95,81.40 165.91,81.40C165.88,81.40 165.86,81.39 165.84,81.38C165.82,81.36 165.81,81.34 165.79,81.31C165.78,81.28 165.77,81.23 165.76,81.18C165.76,81.13 165.75,81.06 165.75,80.99C165.75,80.93 165.75,80.89 165.76,80.85C165.76,80.81 165.77,80.77 165.78,80.74C165.79,80.71 165.80,80.69 165.81,80.66C165.83,80.64 165.85,80.61 165.90,80.57C165.94,80.53 166.01,80.48 166.12,80.42C166.23,80.35 166.36,80.29 166.52,80.23C166.68,80.16 166.85,80.11 167.04,80.07C167.24,80.02 167.44,80.00 167.65,80.00C167.99,80.00 168.28,80.05 168.53,80.14C168.78,80.24 168.99,80.37 169.16,80.54C169.33,80.70 169.45,80.89 169.53,81.11C169.62,81.33 169.66,81.56 169.66,81.81C169.66,82.03 169.64,82.25 169.60,82.47C169.56,82.69 169.48,82.93 169.35,83.19C169.22,83.44 169.04,83.73 168.80,84.04C168.56,84.35 168.24,84.71 167.84,85.12L166.74,86.27L169.76,86.27C169.79,86.27 169.82,86.28 169.85,86.30C169.87,86.31 169.90,86.33 169.92,86.37C169.94,86.40 169.95,86.44 169.96,86.49C169.97,86.54 169.97,86.59 169.97,86.66Z" fill="currentColor" stroke="currentColor" stroke-width="1.2" stroke-linejoin="round" />
  <path d="M175.71,85.27C175.71,85.57 175.66,85.84 175.55,86.07C175.44,86.31 175.29,86.51 175.08,86.67C174.88,86.83 174.63,86.95 174.34,87.03C174.04,87.12 173.70,87.16 173.31,87.16C172.96,87.16 172.64,87.12 172.35,87.04C172.07,86.97 171.83,86.86 171.63,86.71C171.44,86.56 171.29,86.38 171.18,86.17C171.08,85.95 171.03,85.71 171.03,85.43C171.03,85.21 171.06,85.01 171.13,84.83C171.21,84.65 171.31,84.48 171.44,84.33C171.58,84.17 171.74,84.03 171.94,83.89C172.14,83.76 172.36,83.63 172.61,83.51C172.39,83.40 172.20,83.28 172.04,83.16C171.87,83.04 171.73,82.90 171.62,82.76C171.50,82.61 171.42,82.46 171.36,82.29C171.30,82.13 171.27,81.95 171.27,81.75C171.27,81.51 171.31,81.28 171.40,81.07C171.49,80.86 171.62,80.67 171.80,80.51C171.97,80.36 172.20,80.23 172.47,80.14C172.75,80.05 173.07,80.00 173.43,80.00C173.78,80.00 174.09,80.05 174.34,80.13C174.60,80.21 174.81,80.33 174.98,80.47C175.14,80.62 175.27,80.79 175.35,80.99C175.42,81.18 175.46,81.39 175.46,81.62C175.46,81.80 175.43,81.98 175.37,82.15C175.32,82.31 175.23,82.47 175.11,82.62C175.00,82.77 174.86,82.92 174.69,83.05C174.53,83.18 174.34,83.30 174.12,83.41C174.37,83.54 174.60,83.67 174.80,83.80C175.00,83.93 175.17,84.07 175.30,84.23C175.43,84.38 175.54,84.54 175.61,84.71C175.68,84.88 175.71,85.07 175.71,85.27ZM174.55,81.71C174.55,81.56 174.52,81.42 174.47,81.30C174.42,81.18 174.34,81.07 174.24,80.99C174.14,80.90 174.02,80.83 173.87,80.79C173.72,80.75 173.55,80.72 173.36,80.72C172.98,80.72 172.68,80.81 172.49,80.99C172.29,81.16 172.19,81.40 172.19,81.71C172.19,81.85 172.21,81.98 172.26,82.10C172.31,82.21 172.38,82.33 172.49,82.44C172.59,82.54 172.72,82.65 172.87,82.75C173.03,82.85 173.21,82.96 173.43,83.07C173.79,82.88 174.07,82.68 174.26,82.45C174.45,82.23 174.55,81.98 174.55,81.71ZM174.78,85.37C174.78,85.20 174.75,85.05 174.68,84.92C174.62,84.79 174.53,84.66 174.41,84.54C174.28,84.43 174.13,84.32 173.95,84.21C173.76,84.10 173.55,83.98 173.30,83.87C173.08,83.98 172.88,84.09 172.71,84.20C172.54,84.31 172.40,84.42 172.29,84.54C172.18,84.66 172.10,84.78 172.04,84.92C171.99,85.05 171.96,85.19 171.96,85.35C171.96,85.69 172.08,85.96 172.32,86.15C172.56,86.34 172.91,86.44 173.38,86.44C173.84,86.44 174.19,86.34 174.42,86.15C174.66,85.96 174.78,85.70 174.78,85.37Z" fill="currentColor" stroke="currentColor" stroke-width="1.2" stroke-linejoin="round" />
  <path d="M179.34,80.97C179.34,81.14 179.30,81.31 179.24,81.46C179.17,81.62 179.08,81.75 178.96,81.87C178.84,81.99 178.70,82.08 178.53,82.14C178.37,82.20 178.19,82.24 178.00,82.24C177.82,82.24 177.64,82.21 177.49,82.15C177.33,82.09 177.20,82.01 177.08,81.90C176.97,81.79 176.88,81.66 176.81,81.51C176.75,81.36 176.71,81.19 176.71,81.01C176.71,80.83 176.75,80.66 176.82,80.50C176.89,80.35 176.98,80.22 177.10,80.11C177.22,79.99 177.36,79.91 177.52,79.84C177.68,79.78 177.86,79.75 178.05,79.75C178.23,79.75 178.40,79.78 178.56,79.84C178.72,79.90 178.86,79.98 178.97,80.09C179.09,80.19 179.17,80.32 179.24,80.47C179.30,80.62 179.34,80.79 179.34,80.97ZM178.66,80.99C178.66,80.89 178.64,80.80 178.61,80.72C178.58,80.64 178.53,80.56 178.48,80.50C178.42,80.44 178.35,80.39 178.27,80.36C178.19,80.33 178.11,80.31 178.01,80.31C177.92,80.31 177.84,80.33 177.76,80.36C177.69,80.39 177.62,80.44 177.56,80.50C177.51,80.56 177.46,80.63 177.43,80.72C177.40,80.80 177.38,80.89 177.38,80.98C177.38,81.08 177.40,81.18 177.43,81.26C177.46,81.35 177.51,81.43 177.57,81.49C177.63,81.55 177.70,81.59 177.78,81.63C177.86,81.66 177.94,81.68 178.04,81.68C178.12,81.68 178.20,81.66 178.28,81.63C178.36,81.59 178.42,81.54 178.48,81.48C178.54,81.42 178.58,81.34 178.61,81.26C178.64,81.18 178.66,81.09 178.66,80.99Z" fill="currentColor" stroke="currentColor" stroke-width="1.2" stroke-linejoin="round" />
  <path d="M22.83,107.64L23.88,110.01C23.91,110.06 23.91,110.10 23.91,110.13C23.90,110.17 23.88,110.19 23.84,110.21C23.80,110.24 23.75,110.25 23.68,110.26C23.61,110.27 23.52,110.27 23.41,110.27C23.31,110.27 23.23,110.27 23.17,110.27C23.11,110.26 23.07,110.25 23.04,110.24C23.00,110.23 22.98,110.21 22.97,110.19C22.96,110.17 22.95,110.15 22.94,110.12L22.13,108.22L20.61,110.12C20.59,110.15 20.57,110.17 20.55,110.19C20.52,110.21 20.49,110.23 20.45,110.24C20.40,110.25 20.35,110.26 20.28,110.26C20.22,110.27 20.13,110.27 20.02,110.27C19.92,110.27 19.84,110.27 19.77,110.26C19.71,110.25 19.66,110.24 19.63,110.21C19.60,110.19 19.59,110.17 19.59,110.13C19.60,110.10 19.62,110.06 19.65,110.01L21.66,107.63L20.67,105.37C20.65,105.32 20.64,105.28 20.64,105.24C20.64,105.21 20.66,105.18 20.70,105.16C20.73,105.14 20.78,105.12 20.85,105.12C20.92,105.11 21.01,105.11 21.12,105.11C21.22,105.11 21.30,105.11 21.35,105.11C21.41,105.12 21.46,105.13 21.49,105.14C21.52,105.15 21.54,105.16 21.55,105.18C21.56,105.20 21.57,105.22 21.59,105.25L22.35,107.05L23.80,105.25C23.82,105.23 23.85,105.21 23.87,105.19C23.89,105.17 23.92,105.15 23.96,105.14C24.00,105.13 24.05,105.12 24.11,105.11C24.17,105.11 24.24,105.11 24.34,105.11C24.45,105.11 24.54,105.11 24.60,105.12C24.67,105.12 24.72,105.14 24.75,105.15C24.79,105.17 24.80,105.20 24.79,105.23C24.79,105.27 24.76,105.31 24.72,105.36L22.83,107.64Z" fill="currentColor" stroke="currentColor" stroke-width="1.2" stroke-linejoin="round" />
</svg>