<svg xmlns="http://www.w3.org/2000/svg" viewBox="0 0 173.37 105.08" preserveAspectRatio="xMidYMid meet" shape-rendering="geometricPrecision" text-rendering="optimizeLegibility">
  <line x1="102.27" y1="97.06" x2="48.37" y2="8.00" fill="none" stroke="currentColor" stroke-width="1.4000000476837158" stroke-linecap="round" stroke-linejoin="round" />
  <line x1="48.37" y1="8.00" x2="8.00" y2="97.06" fill="none" stroke="currentColor" stroke-width="1.4000000476837158" stroke-linecap="round" stroke-linejoin="round" />
  <line x1="8.00" y1="97.06" x2="165.37" y2="97.06" fill="none" stroke="currentColor" stroke-width="1.4000000476837158" stroke-linecap="round" stroke-linejoin="round" />
  <path d="M56.39,21.26 C54.05,22.69 51.30,23.50 48.37,23.50" fill="none" stroke="currentColor" stroke-width="1.000000011920929" stroke-linecap="round" stroke-linejoin="round" />
  <path d="M48.37,23.50 C46.08,23.50 43.91,23.01 41.96,22.12" fill="none" stroke="currentColor" stroke-width="1.000000011920929" stroke-linecap="round" stroke-linejoin="round" />
  <path d="M96.48,87.44 C100.60,84.96 106.02,85.33 109.78,88.71" fill="none" stroke="currentColor" stroke-width="1.000000011920929" stroke-linecap="round" stroke-linejoin="round" />
  <path d="M109.78,88.71 C112.24,90.92 113.50,93.99 113.50,97.06" fill="none" stroke="currentColor" stroke-width="1.000000011920929" stroke-linecap="round" stroke-linejoin="round" />
  <path d="M12.94,86.18 C16.69,88.00 19.38,91.74 19.62,96.19" fill="none" stroke="currentColor" stroke-width="1.000000011920929" stroke-linecap="round" stroke-linejoin="round" />
  <path d="M19.62,96.19 C19.64,96.49 19.65,96.78 19.64,97.08" fill="none" stroke="currentColor" stroke-width="1.000000011920929" stroke-linecap="round" stroke-linejoin="round" />
  <path d="M25.12,80.63C25.12,80.69 25.11,80.75 25.11,80.80C25.10,80.86 25.10,80.91 25.09,80.95C25.08,81.00 25.07,81.05 25.05,81.09C25.03,81.14 25.01,81.19 24.99,81.24L22.49,87.00C22.47,87.05 22.45,87.08 22.42,87.11C22.40,87.14 22.36,87.16 22.32,87.17C22.28,87.19 22.23,87.20 22.16,87.21C22.10,87.21 22.02,87.21 21.93,87.21C21.80,87.21 21.71,87.21 21.64,87.20C21.57,87.19 21.52,87.17 21.49,87.15C21.46,87.12 21.45,87.09 21.45,87.06C21.46,87.03 21.47,86.99 21.49,86.94L24.12,81.04L20.79,81.04C20.72,81.04 20.67,81.01 20.63,80.94C20.60,80.86 20.58,80.76 20.58,80.63C20.58,80.57 20.59,80.51 20.60,80.46C20.60,80.41 20.62,80.37 20.64,80.33C20.65,80.30 20.68,80.27 20.70,80.26C20.73,80.24 20.76,80.23 20.79,80.23L24.84,80.23C24.89,80.23 24.93,80.24 24.97,80.25C25.01,80.26 25.03,80.28 25.05,80.31C25.07,80.34 25.09,80.39 25.10,80.44C25.11,80.49 25.12,80.55 25.12,80.63Z" fill="currentColor" stroke="currentColor" stroke-width="1.2" stroke-linejoin="round" />
  <path d="M30.82,83.69C30.82,84.22 30.78,84.71 30.69,85.15C30.61,85.59 30.47,85.97 30.27,86.29C30.08,86.60 29.82,86.85 29.51,87.02C29.19,87.20 28.81,87.28 28.34,87.28C27.91,87.28 27.54,87.21 27.24,87.05C26.94,86.89 26.70,86.66 26.52,86.36C26.33,86.06 26.20,85.69 26.13,85.25C26.05,84.80 26.01,84.30 26.01,83.72C26.01,83.19 26.06,82.71 26.14,82.26C26.23,81.82 26.37,81.44 26.56,81.13C26.75,80.81 27.01,80.56 27.32,80.39C27.64,80.22 28.02,80.13 28.48,80.13C28.92,80.13 29.29,80.21 29.59,80.36C29.89,80.52 30.13,80.75 30.31,81.05C30.50,81.35 30.63,81.73 30.70,82.17C30.78,82.61 30.82,83.12 30.82,83.69ZM29.87,83.75C29.87,83.41 29.86,83.10 29.84,82.82C29.81,82.54 29.77,82.30 29.73,82.09C29.68,81.88 29.62,81.70 29.54,81.54C29.46,81.39 29.37,81.27 29.26,81.17C29.15,81.07 29.03,81.00 28.89,80.95C28.76,80.91 28.60,80.89 28.43,80.89C28.12,80.89 27.88,80.96 27.69,81.10C27.50,81.24 27.35,81.44 27.24,81.69C27.13,81.94 27.06,82.24 27.02,82.57C26.98,82.91 26.96,83.27 26.96,83.66C26.96,84.18 26.98,84.62 27.04,84.98C27.09,85.35 27.18,85.64 27.29,85.87C27.41,86.10 27.56,86.27 27.74,86.37C27.92,86.47 28.14,86.53 28.40,86.53C28.60,86.53 28.77,86.49 28.93,86.43C29.08,86.37 29.21,86.27 29.32,86.15C29.43,86.03 29.52,85.89 29.59,85.72C29.66,85.55 29.72,85.37 29.76,85.16C29.80,84.96 29.83,84.74 29.85,84.50C29.87,84.26 29.87,84.01 29.87,83.75Z" fill="currentColor" stroke="currentColor" stroke-width="1.2" stroke-linejoin="round" />
  <path d="M34.37,81.10C34.37,81.27 34.34,81.44 34.28,81.59C34.21,81.74 34.12,81.88 34.00,82.00C33.88,82.11 33.73,82.20 33.57,82.27C33.41,82.33 33.23,82.36 33.04,82.36C32.85,82.36 32.68,82.33 32.52,82.28C32.37,82.22 32.23,82.13 32.12,82.03C32.00,81.92 31.91,81.79 31.85,81.64C31.79,81.49 31.75,81.32 31.75,81.14C31.75,80.96 31.79,80.79 31.86,80.63C31.92,80.48 32.02,80.34 32.14,80.23C32.26,80.12 32.40,80.03 32.56,79.97C32.72,79.90 32.90,79.87 33.09,79.87C33.27,79.87 33.44,79.90 33.60,79.96C33.76,80.02 33.89,80.11 34.01,80.21C34.12,80.32 34.21,80.45 34.28,80.60C34.34,80.75 34.37,80.91 34.37,81.10ZM33.70,81.12C33.70,81.02 33.68,80.93 33.65,80.85C33.62,80.76 33.57,80.69 33.52,80.63C33.46,80.57 33.39,80.52 33.31,80.49C33.23,80.45 33.15,80.44 33.05,80.44C32.96,80.44 32.88,80.45 32.80,80.49C32.73,80.52 32.66,80.57 32.60,80.63C32.55,80.69 32.50,80.76 32.47,80.84C32.44,80.93 32.42,81.01 32.42,81.11C32.42,81.21 32.44,81.31 32.47,81.39C32.50,81.48 32.55,81.55 32.60,81.61C32.66,81.67 32.73,81.72 32.81,81.75C32.89,81.79 32.98,81.81 33.08,81.81C33.16,81.81 33.24,81.79 33.32,81.75C33.40,81.72 33.46,81.67 33.52,81.60C33.57,81.54 33.62,81.47 33.65,81.39C33.68,81.30 33.70,81.21 33.70,81.12Z" fill="currentColor" stroke="currentColor" stroke-width="1.2" stroke-linejoin="round" />
  <path d="M114.88,86.82C114.88,86.88 114.87,86.94 114.86,86.99C114.85,87.03 114.84,87.07 114.82,87.10C114.80,87.13 114.78,87.15 114.76,87.16C114.74,87.18 114.71,87.18 114.69,87.18L111.06,87.18C111.03,87.18 111.01,87.18 110.99,87.16C110.96,87.15 110.94,87.13 110.92,87.10C110.90,87.07 110.89,87.03 110.88,86.99C110.87,86.94 110.86,86.88 110.86,86.82C110.86,86.75 110.87,86.70 110.88,86.65C110.89,86.60 110.90,86.56 110.92,86.53C110.93,86.50 110.96,86.48 110.98,86.46C111.00,86.45 111.03,86.44 111.06,86.44L112.51,86.44L112.51,81.16L111.16,81.96C111.10,81.99 111.04,82.01 111.00,82.02C110.96,82.03 110.93,82.02 110.90,82.00C110.88,81.97 110.86,81.93 110.85,81.88C110.84,81.83 110.84,81.76 110.84,81.68C110.84,81.62 110.84,81.56 110.84,81.52C110.85,81.48 110.86,81.44 110.87,81.41C110.88,81.38 110.89,81.36 110.91,81.34C110.93,81.32 110.96,81.29 110.99,81.27L112.59,80.25C112.61,80.24 112.62,80.23 112.65,80.22C112.67,80.21 112.69,80.21 112.73,80.20C112.76,80.19 112.80,80.19 112.84,80.19C112.88,80.18 112.94,80.18 113.00,80.18C113.09,80.18 113.16,80.19 113.22,80.19C113.27,80.20 113.32,80.21 113.35,80.22C113.38,80.24 113.40,80.25 113.41,80.27C113.42,80.29 113.43,80.31 113.43,80.33L113.43,86.44L114.69,86.44C114.72,86.44 114.74,86.45 114.77,86.46C114.79,86.48 114.81,86.50 114.83,86.53C114.85,86.56 114.86,86.60 114.87,86.65C114.88,86.70 114.88,86.75 114.88,86.82Z" fill="currentColor" stroke="currentColor" stroke-width="1.2" stroke-linejoin="round" />
  <path d="M120.45,86.82C120.45,86.88 120.45,86.94 120.44,86.99C120.43,87.03 120.41,87.07 120.40,87.10C120.38,87.13 120.36,87.15 120.33,87.16C120.31,87.18 120.29,87.18 120.26,87.18L116.63,87.18C116.61,87.18 116.58,87.18 116.56,87.16C116.54,87.15 116.52,87.13 116.50,87.10C116.48,87.07 116.46,87.03 116.45,86.99C116.44,86.94 116.44,86.88 116.44,86.82C116.44,86.75 116.44,86.70 116.45,86.65C116.46,86.60 116.48,86.56 116.49,86.53C116.51,86.50 116.53,86.48 116.55,86.46C116.58,86.45 116.60,86.44 116.63,86.44L118.08,86.44L118.08,81.16L116.74,81.96C116.67,81.99 116.62,82.01 116.57,82.02C116.53,82.03 116.50,82.02 116.47,82.00C116.45,81.97 116.43,81.93 116.42,81.88C116.41,81.83 116.41,81.76 116.41,81.68C116.41,81.62 116.41,81.56 116.42,81.52C116.42,81.48 116.43,81.44 116.44,81.41C116.45,81.38 116.47,81.36 116.49,81.34C116.51,81.32 116.53,81.29 116.57,81.27L118.17,80.25C118.18,80.24 118.20,80.23 118.22,80.22C118.24,80.21 118.27,80.21 118.30,80.20C118.33,80.19 118.37,80.19 118.41,80.19C118.46,80.18 118.51,80.18 118.57,80.18C118.66,80.18 118.73,80.19 118.79,80.19C118.85,80.20 118.89,80.21 118.92,80.22C118.96,80.24 118.98,80.25 118.99,80.27C119.00,80.29 119.00,80.31 119.00,80.33L119.00,86.44L120.26,86.44C120.29,86.44 120.32,86.45 120.34,86.46C120.37,86.48 120.39,86.50 120.40,86.53C120.42,86.56 120.43,86.60 120.44,86.65C120.45,86.70 120.45,86.75 120.45,86.82Z" fill="currentColor" stroke="currentColor" stroke-width="1.2" stroke-linejoin="round" />
  <path d="M126.07,83.43C126.07,83.73 126.05,84.04 126.01,84.35C125.98,84.65 125.92,84.95 125.83,85.23C125.74,85.52 125.63,85.79 125.48,86.03C125.34,86.28 125.16,86.50 124.94,86.69C124.72,86.87 124.45,87.02 124.15,87.13C123.85,87.23 123.50,87.28 123.10,87.28C122.94,87.28 122.79,87.27 122.65,87.26C122.50,87.23 122.37,87.21 122.26,87.18C122.14,87.15 122.04,87.12 121.96,87.09C121.88,87.06 121.83,87.03 121.79,86.99C121.76,86.96 121.73,86.92 121.71,86.86C121.70,86.81 121.69,86.73 121.69,86.64C121.69,86.56 121.69,86.50 121.70,86.45C121.70,86.40 121.71,86.37 121.72,86.34C121.73,86.32 121.75,86.30 121.77,86.29C121.79,86.28 121.81,86.28 121.84,86.28C121.88,86.28 121.93,86.29 122.01,86.32C122.08,86.35 122.17,86.38 122.28,86.41C122.39,86.44 122.51,86.47 122.66,86.50C122.81,86.52 122.97,86.54 123.16,86.54C123.50,86.54 123.80,86.47 124.05,86.34C124.30,86.20 124.50,86.02 124.66,85.80C124.82,85.57 124.94,85.31 125.01,85.01C125.09,84.71 125.14,84.40 125.14,84.07C124.95,84.18 124.73,84.28 124.46,84.37C124.20,84.45 123.89,84.50 123.55,84.50C123.16,84.50 122.84,84.44 122.57,84.34C122.31,84.23 122.10,84.09 121.94,83.91C121.78,83.72 121.67,83.51 121.60,83.26C121.53,83.01 121.49,82.73 121.49,82.43C121.49,82.13 121.54,81.83 121.63,81.56C121.71,81.28 121.85,81.03 122.04,80.82C122.23,80.61 122.48,80.44 122.77,80.32C123.06,80.19 123.41,80.13 123.82,80.13C124.11,80.13 124.37,80.17 124.59,80.24C124.82,80.31 125.01,80.42 125.18,80.56C125.34,80.70 125.48,80.86 125.59,81.06C125.71,81.25 125.80,81.47 125.87,81.72C125.94,81.97 125.99,82.23 126.02,82.52C126.05,82.81 126.07,83.11 126.07,83.43ZM125.13,83.33C125.13,82.87 125.10,82.49 125.04,82.17C124.97,81.86 124.89,81.61 124.77,81.41C124.65,81.22 124.50,81.08 124.33,80.99C124.16,80.91 123.96,80.87 123.74,80.87C123.50,80.87 123.30,80.91 123.14,80.99C122.98,81.08 122.84,81.19 122.73,81.33C122.63,81.47 122.55,81.63 122.50,81.81C122.45,81.99 122.43,82.17 122.43,82.36C122.43,82.58 122.45,82.77 122.49,82.94C122.54,83.12 122.61,83.27 122.71,83.39C122.81,83.51 122.94,83.61 123.10,83.67C123.26,83.74 123.46,83.77 123.70,83.77C123.97,83.77 124.23,83.73 124.48,83.65C124.73,83.57 124.94,83.46 125.13,83.33Z" fill="currentColor" stroke="currentColor" stroke-width="1.2" stroke-linejoin="round" />
  <path d="M129.80,81.10C129.80,81.27 129.77,81.44 129.70,81.59C129.63,81.74 129.54,81.88 129.42,82.00C129.30,82.11 129.16,82.20 129.00,82.27C128.83,82.33 128.66,82.36 128.47,82.36C128.28,82.36 128.11,82.33 127.95,82.28C127.79,82.22 127.66,82.13 127.54,82.03C127.43,81.92 127.34,81.79 127.28,81.64C127.21,81.49 127.18,81.32 127.18,81.14C127.18,80.96 127.21,80.79 127.28,80.63C127.35,80.48 127.44,80.34 127.56,80.23C127.68,80.12 127.82,80.03 127.98,79.97C128.15,79.90 128.32,79.87 128.51,79.87C128.70,79.87 128.87,79.90 129.03,79.96C129.18,80.02 129.32,80.11 129.43,80.21C129.55,80.32 129.64,80.45 129.70,80.60C129.77,80.75 129.80,80.91 129.80,81.10ZM129.12,81.12C129.12,81.02 129.11,80.93 129.07,80.85C129.04,80.76 129.00,80.69 128.94,80.63C128.88,80.57 128.82,80.52 128.74,80.49C128.66,80.45 128.57,80.44 128.48,80.44C128.39,80.44 128.31,80.45 128.23,80.49C128.15,80.52 128.08,80.57 128.03,80.63C127.97,80.69 127.93,80.76 127.89,80.84C127.86,80.93 127.84,81.01 127.84,81.11C127.84,81.21 127.86,81.31 127.89,81.39C127.93,81.48 127.97,81.55 128.03,81.61C128.09,81.67 128.16,81.72 128.24,81.75C128.32,81.79 128.41,81.81 128.50,81.81C128.59,81.81 128.67,81.79 128.74,81.75C128.82,81.72 128.89,81.67 128.94,81.60C129.00,81.54 129.04,81.47 129.07,81.39C129.11,81.30 129.12,81.21 129.12,81.12Z" fill="currentColor" stroke="currentColor" stroke-width="1.2" stroke-linejoin="round" />
  <path d="M51.34,28.14C51.34,28.17 51.34,28.21 51.33,28.25C51.32,28.28 51.30,28.32 51.29,28.36C51.16,28.75 51.01,29.15 50.84,29.55C50.67,29.94 50.49,30.34 50.29,30.74C50.08,31.13 49.86,31.52 49.62,31.90C49.38,32.28 49.11,32.65 48.83,33.01C48.80,33.05 48.77,33.08 48.74,33.10C48.71,33.12 48.67,33.14 48.63,33.15C48.58,33.16 48.53,33.17 48.47,33.17C48.42,33.18 48.35,33.18 48.27,33.18C48.16,33.18 48.07,33.18 48.00,33.17C47.93,33.16 47.88,33.15 47.84,33.14C47.81,33.12 47.78,33.10 47.76,33.08C47.75,33.05 47.74,33.02 47.73,32.99L47.02,28.40C47.01,28.36 47.01,28.33 47.01,28.30C47.01,28.27 47.01,28.24 47.01,28.22C47.01,28.17 47.01,28.13 47.03,28.11C47.04,28.08 47.07,28.06 47.10,28.05C47.13,28.04 47.17,28.03 47.23,28.02C47.29,28.01 47.36,28.01 47.45,28.01C47.55,28.01 47.62,28.01 47.68,28.02C47.74,28.03 47.78,28.03 47.81,28.05C47.84,28.06 47.86,28.08 47.87,28.10C47.88,28.12 47.89,28.15 47.89,28.18L48.47,32.17L48.47,32.23L48.50,32.20C48.71,31.88 48.91,31.57 49.08,31.27C49.26,30.98 49.42,30.67 49.57,30.35C49.72,30.03 49.86,29.69 50.00,29.34C50.13,28.99 50.27,28.61 50.41,28.18C50.42,28.15 50.43,28.12 50.45,28.10C50.47,28.08 50.50,28.06 50.54,28.05C50.58,28.03 50.63,28.03 50.69,28.02C50.75,28.01 50.83,28.01 50.92,28.01C51.01,28.01 51.08,28.01 51.13,28.02C51.19,28.03 51.23,28.03 51.26,28.04C51.29,28.05 51.31,28.06 51.32,28.08C51.34,28.10 51.34,28.11 51.34,28.14Z" fill="currentColor" stroke="currentColor" stroke-width="1.2" stroke-linejoin="round" />
</svg>