<svg xmlns="http://www.w3.org/2000/svg" viewBox="0 0 141.50 145.72" preserveAspectRatio="xMidYMid meet" shape-rendering="geometricPrecision" text-rendering="optimizeLegibility">
  <path d="M31.87,62.04 C49.03,53.16 70.18,59.87 79.07,77.03" fill="currentColor" stroke="currentColor" stroke-width="1.2609999895095825" stroke-linecap="round" stroke-linejoin="round" />
  <line x1="133.50" y1="128.26" x2="12.77" y2="8.00" fill="currentColor" stroke="currentColor" stroke-width="1.2609999895095825" stroke-linecap="round" stroke-linejoin="round" />
  <line x1="12.77" y1="8.00" x2="12.62" y2="128.42" fill="currentColor" stroke="currentColor" stroke-width="1.2609999895095825" stroke-linecap="round" stroke-linejoin="round" />
  <path d="M16.89,109.24 C8.00,92.08 14.71,70.93 31.87,62.04" fill="currentColor" stroke="currentColor" stroke-width="1.2609999895095825" stroke-linecap="round" stroke-linejoin="round" />
  <line x1="47.88" y1="93.29" x2="82.94" y2="93.29" fill="none" stroke="currentColor" stroke-width="1.2609999895095825" stroke-linecap="round" stroke-linejoin="round" />
  <line x1="67.38" y1="95.66" x2="66.35" y2="95.66" fill="currentColor" stroke="currentColor" stroke-width="1.2" stroke-linecap="round" stroke-linejoin="round" />
  <line x1="63.98" y1="95.66" x2="62.99" y2="95.66" fill="currentColor" stroke="currentColor" stroke-width="1.2" stroke-linecap="round" stroke-linejoin="round" />
  <line x1="66.35" y1="95.66" x2="64.70" y2="99.27" fill="currentColor" stroke="currentColor" stroke-width="1.2" stroke-linecap="round" stroke-linejoin="round" />
  <line x1="64.68" y1="99.27" x2="63.98" y2="95.66" fill="currentColor" stroke="currentColor" stroke-width="1.2" stroke-linecap="round" stroke-linejoin="round" />
  <line x1="62.99" y1="95.66" x2="64.00" y2="100.59" fill="currentColor" stroke="currentColor" stroke-width="1.2" stroke-linecap="round" stroke-linejoin="round" />
  <line x1="64.70" y1="99.27" x2="64.68" y2="99.27" fill="currentColor" stroke="currentColor" stroke-width="1.2" stroke-linecap="round" stroke-linejoin="round" />
  <line x1="63.63" y1="103.59" x2="67.38" y2="95.66" fill="currentColor" stroke="currentColor" stroke-width="1.2" stroke-linecap="round" stroke-linejoin="round" />
  <path d="M79.07,77.03 C87.95,94.19 81.24,115.33 64.08,124.22" fill="currentColor" stroke="currentColor" stroke-width="1.2609999895095825" stroke-linecap="round" stroke-linejoin="round" />
  <line x1="64.00" y1="100.59" x2="62.58" y2="103.59" fill="currentColor" stroke="currentColor" stroke-width="1.2" stroke-linecap="round" stroke-linejoin="round" />
  <line x1="62.58" y1="103.59" x2="63.63" y2="103.59" fill="currentColor" stroke="currentColor" stroke-width="1.2" stroke-linecap="round" stroke-linejoin="round" />
  <line x1="19.74" y1="121.14" x2="12.77" y2="121.14" fill="none" stroke="currentColor" stroke-width="1.0489999771118164" stroke-linecap="round" stroke-linejoin="round" />
  <path d="M64.08,124.22 C46.92,133.11 25.78,126.40 16.89,109.24" fill="currentColor" stroke="currentColor" stroke-width="1.2609999895095825" stroke-linecap="round" stroke-linejoin="round" />
  <line x1="12.77" y1="121.14" x2="12.77" y2="121.31" fill="none" stroke="currentColor" stroke-width="1.0489999771118164" stroke-linecap="round" stroke-linejoin="round" />
  <line x1="19.74" y1="128.10" x2="19.74" y2="121.14" fill="none" stroke="currentColor" stroke-width="1.0489999771118164" stroke-linecap="round" stroke-linejoin="round" />
  <line x1="19.51" y1="128.10" x2="19.74" y2="128.10" fill="none" stroke="currentColor" stroke-width="1.0489999771118164" stroke-linecap="round" stroke-linejoin="round" />
  <line x1="12.62" y1="128.42" x2="133.50" y2="128.26" fill="currentColor" stroke="currentColor" stroke-width="1.2609999895095825" stroke-linecap="round" stroke-linejoin="round" />
  <line x1="68.46" y1="132.48" x2="67.24" y2="132.48" fill="currentColor" stroke="currentColor" stroke-width="1.2" stroke-linecap="round" stroke-linejoin="round" />
  <line x1="65.04" y1="132.48" x2="63.98" y2="132.48" fill="currentColor" stroke="currentColor" stroke-width="1.2" stroke-linecap="round" stroke-linejoin="round" />
  <line x1="67.24" y1="132.48" x2="65.87" y2="134.24" fill="currentColor" stroke="currentColor" stroke-width="1.2" stroke-linecap="round" stroke-linejoin="round" />
  <line x1="65.87" y1="134.24" x2="65.04" y2="132.48" fill="currentColor" stroke="currentColor" stroke-width="1.2" stroke-linecap="round" stroke-linejoin="round" />
  <line x1="63.98" y1="132.48" x2="65.22" y2="134.94" fill="currentColor" stroke="currentColor" stroke-width="1.2" stroke-linecap="round" stroke-linejoin="round" />
  <line x1="66.35" y1="135.07" x2="68.46" y2="132.48" fill="currentColor" stroke="currentColor" stroke-width="1.2" stroke-linecap="round" stroke-linejoin="round" />
  <line x1="65.22" y1="134.94" x2="62.93" y2="137.72" fill="currentColor" stroke="currentColor" stroke-width="1.2" stroke-linecap="round" stroke-linejoin="round" />
  <line x1="67.68" y1="137.72" x2="66.35" y2="135.07" fill="currentColor" stroke="currentColor" stroke-width="1.2" stroke-linecap="round" stroke-linejoin="round" />
  <line x1="64.14" y1="137.72" x2="65.66" y2="135.76" fill="currentColor" stroke="currentColor" stroke-width="1.2" stroke-linecap="round" stroke-linejoin="round" />
  <line x1="65.66" y1="135.76" x2="66.62" y2="137.72" fill="currentColor" stroke="currentColor" stroke-width="1.2" stroke-linecap="round" stroke-linejoin="round" />
  <line x1="62.93" y1="137.72" x2="64.14" y2="137.72" fill="currentColor" stroke="currentColor" stroke-width="1.2" stroke-linecap="round" stroke-linejoin="round" />
  <line x1="66.62" y1="137.72" x2="67.68" y2="137.72" fill="currentColor" stroke="currentColor" stroke-width="1.2" stroke-linecap="round" stroke-linejoin="round" />
</svg>