<svg xmlns="http://www.w3.org/2000/svg" viewBox="0 0 183.32 185.11" preserveAspectRatio="xMidYMid meet" shape-rendering="geometricPrecision" text-rendering="optimizeLegibility">
  <line x1="90.04" y1="17.72" x2="86.80" y2="8.00" fill="currentColor" stroke="currentColor" stroke-width="1.2" stroke-linecap="round" stroke-linejoin="round" />
  <line x1="86.80" y1="8.00" x2="83.56" y2="17.72" fill="currentColor" stroke="currentColor" stroke-width="1.2" stroke-linecap="round" stroke-linejoin="round" />
  <path d="M79.17,12.53 C79.23,12.53 79.29,12.53 79.37,12.53" fill="currentColor" stroke="currentColor" stroke-width="1.2" stroke-linecap="round" stroke-linejoin="round" />
  <path d="M79.37,12.53 C79.46,12.53 79.53,12.53 79.58,12.53" fill="currentColor" stroke="currentColor" stroke-width="1.2" stroke-linecap="round" stroke-linejoin="round" />
  <path d="M82.31,12.53 C82.37,12.53 82.44,12.53 82.53,12.53" fill="currentColor" stroke="currentColor" stroke-width="1.2" stroke-linecap="round" stroke-linejoin="round" />
  <path d="M82.53,12.53 C82.68,12.53 82.77,12.54 82.82,12.56" fill="currentColor" stroke="currentColor" stroke-width="1.2" stroke-linecap="round" stroke-linejoin="round" />
  <path d="M79.04,12.56 C79.08,12.55 79.12,12.54 79.17,12.53" fill="currentColor" stroke="currentColor" stroke-width="1.2" stroke-linecap="round" stroke-linejoin="round" />
  <path d="M79.58,12.53 C79.63,12.54 79.67,12.55 79.69,12.56" fill="currentColor" stroke="currentColor" stroke-width="1.2" stroke-linecap="round" stroke-linejoin="round" />
  <path d="M82.17,12.56 C82.20,12.55 82.25,12.54 82.31,12.53" fill="currentColor" stroke="currentColor" stroke-width="1.2" stroke-linecap="round" stroke-linejoin="round" />
  <path d="M82.82,12.56 C82.87,12.58 82.90,12.60 82.90,12.64" fill="currentColor" stroke="currentColor" stroke-width="1.2" stroke-linecap="round" stroke-linejoin="round" />
  <path d="M79.69,12.56 C79.72,12.57 79.74,12.59 79.75,12.61" fill="currentColor" stroke="currentColor" stroke-width="1.2" stroke-linecap="round" stroke-linejoin="round" />
  <path d="M82.09,12.61 C82.11,12.59 82.14,12.57 82.17,12.56" fill="currentColor" stroke="currentColor" stroke-width="1.2" stroke-linecap="round" stroke-linejoin="round" />
  <path d="M78.98,12.62 C78.99,12.60 79.01,12.58 79.04,12.56" fill="currentColor" stroke="currentColor" stroke-width="1.2" stroke-linecap="round" stroke-linejoin="round" />
  <path d="M82.06,12.67 C82.06,12.65 82.07,12.62 82.09,12.61" fill="currentColor" stroke="currentColor" stroke-width="1.2" stroke-linecap="round" stroke-linejoin="round" />
  <path d="M79.75,12.61 C79.76,12.63 79.77,12.66 79.78,12.69" fill="currentColor" stroke="currentColor" stroke-width="1.2" stroke-linecap="round" stroke-linejoin="round" />
  <path d="M78.96,12.71 C78.96,12.68 78.97,12.65 78.98,12.62" fill="currentColor" stroke="currentColor" stroke-width="1.2" stroke-linecap="round" stroke-linejoin="round" />
  <path d="M82.90,12.64 C82.90,12.68 82.89,12.72 82.89,12.75" fill="currentColor" stroke="currentColor" stroke-width="1.2" stroke-linecap="round" stroke-linejoin="round" />
  <path d="M81.73,13.61 C81.85,13.30 81.95,12.99 82.06,12.67" fill="currentColor" stroke="currentColor" stroke-width="1.2" stroke-linecap="round" stroke-linejoin="round" />
  <line x1="79.78" y1="12.69" x2="80.35" y2="16.28" fill="currentColor" stroke="currentColor" stroke-width="1.2" stroke-linecap="round" stroke-linejoin="round" />
  <path d="M78.96,12.80 C78.96,12.76 78.96,12.73 78.96,12.71" fill="currentColor" stroke="currentColor" stroke-width="1.2" stroke-linecap="round" stroke-linejoin="round" />
  <path d="M82.89,12.75 C82.88,12.79 82.87,12.83 82.85,12.86" fill="currentColor" stroke="currentColor" stroke-width="1.2" stroke-linecap="round" stroke-linejoin="round" />
  <path d="M78.98,12.90 C78.97,12.86 78.97,12.83 78.96,12.80" fill="currentColor" stroke="currentColor" stroke-width="1.2" stroke-linecap="round" stroke-linejoin="round" />
  <path d="M82.85,12.86 C82.74,13.15 82.63,13.46 82.50,13.78" fill="currentColor" stroke="currentColor" stroke-width="1.2" stroke-linecap="round" stroke-linejoin="round" />
  <line x1="79.71" y1="17.19" x2="78.98" y2="12.90" fill="currentColor" stroke="currentColor" stroke-width="1.2" stroke-linecap="round" stroke-linejoin="round" />
  <path d="M24.54,13.23 C24.60,13.23 24.68,13.22 24.76,13.22" fill="currentColor" stroke="currentColor" stroke-width="1.2" stroke-linecap="round" stroke-linejoin="round" />
  <path d="M24.76,13.22 C24.85,13.22 24.93,13.23 24.99,13.23" fill="currentColor" stroke="currentColor" stroke-width="1.2" stroke-linecap="round" stroke-linejoin="round" />
  <path d="M24.40,13.27 C24.43,13.25 24.48,13.24 24.54,13.23" fill="currentColor" stroke="currentColor" stroke-width="1.2" stroke-linecap="round" stroke-linejoin="round" />
  <path d="M24.99,13.23 C25.05,13.24 25.09,13.25 25.13,13.27" fill="currentColor" stroke="currentColor" stroke-width="1.2" stroke-linecap="round" stroke-linejoin="round" />
  <path d="M24.32,13.32 C24.34,13.30 24.36,13.28 24.40,13.27" fill="currentColor" stroke="currentColor" stroke-width="1.2" stroke-linecap="round" stroke-linejoin="round" />
  <path d="M25.13,13.27 C25.16,13.28 25.19,13.30 25.20,13.32" fill="currentColor" stroke="currentColor" stroke-width="1.2" stroke-linecap="round" stroke-linejoin="round" />
  <path d="M24.30,13.39 C24.30,13.36 24.31,13.34 24.32,13.32" fill="currentColor" stroke="currentColor" stroke-width="1.2" stroke-linecap="round" stroke-linejoin="round" />
  <path d="M25.20,13.32 C25.22,13.34 25.23,13.36 25.23,13.39" fill="currentColor" stroke="currentColor" stroke-width="1.2" stroke-linecap="round" stroke-linejoin="round" />
  <line x1="24.30" y1="19.83" x2="24.30" y2="13.39" fill="currentColor" stroke="currentColor" stroke-width="1.2" stroke-linecap="round" stroke-linejoin="round" />
  <line x1="25.23" y1="13.39" x2="25.23" y2="19.40" fill="currentColor" stroke="currentColor" stroke-width="1.2" stroke-linecap="round" stroke-linejoin="round" />
  <path d="M81.35,14.52 C81.49,14.22 81.62,13.92 81.73,13.61" fill="currentColor" stroke="currentColor" stroke-width="1.2" stroke-linecap="round" stroke-linejoin="round" />
  <path d="M82.50,13.78 C82.37,14.10 82.22,14.44 82.06,14.79" fill="currentColor" stroke="currentColor" stroke-width="1.2" stroke-linecap="round" stroke-linejoin="round" />
  <path d="M80.90,15.41 C81.07,15.12 81.22,14.82 81.35,14.52" fill="currentColor" stroke="currentColor" stroke-width="1.2" stroke-linecap="round" stroke-linejoin="round" />
  <path d="M82.06,14.79 C81.89,15.14 81.69,15.51 81.46,15.89" fill="currentColor" stroke="currentColor" stroke-width="1.2" stroke-linecap="round" stroke-linejoin="round" />
  <path d="M80.36,16.28 C80.56,15.99 80.74,15.71 80.90,15.41" fill="currentColor" stroke="currentColor" stroke-width="1.2" stroke-linecap="round" stroke-linejoin="round" />
  <path d="M81.46,15.89 C81.24,16.27 80.97,16.67 80.65,17.09" fill="currentColor" stroke="currentColor" stroke-width="1.2" stroke-linecap="round" stroke-linejoin="round" />
  <line x1="86.80" y1="177.11" x2="86.80" y2="16.10" fill="none" stroke="currentColor" stroke-width="1.4000000476837158" stroke-linecap="round" stroke-linejoin="round" />
  <line x1="80.35" y1="16.28" x2="80.36" y2="16.28" fill="currentColor" stroke="currentColor" stroke-width="1.2" stroke-linecap="round" stroke-linejoin="round" />
  <line x1="83.56" y1="17.72" x2="86.80" y2="16.64" fill="currentColor" stroke="currentColor" stroke-width="1.2" stroke-linecap="round" stroke-linejoin="round" />
  <line x1="86.80" y1="16.64" x2="90.04" y2="17.72" fill="currentColor" stroke="currentColor" stroke-width="1.2" stroke-linecap="round" stroke-linejoin="round" />
  <line x1="80.65" y1="17.09" x2="79.39" y2="18.81" fill="currentColor" stroke="currentColor" stroke-width="1.2" stroke-linecap="round" stroke-linejoin="round" />
  <line x1="78.52" y1="18.72" x2="79.71" y2="17.19" fill="currentColor" stroke="currentColor" stroke-width="1.2" stroke-linecap="round" stroke-linejoin="round" />
  <path d="M78.46,18.84 C78.46,18.81 78.48,18.77 78.52,18.72" fill="currentColor" stroke="currentColor" stroke-width="1.2" stroke-linecap="round" stroke-linejoin="round" />
  <path d="M79.39,18.81 C79.37,18.84 79.35,18.86 79.32,18.88" fill="currentColor" stroke="currentColor" stroke-width="1.2" stroke-linecap="round" stroke-linejoin="round" />
  <path d="M78.50,18.92 C78.47,18.90 78.45,18.87 78.46,18.84" fill="currentColor" stroke="currentColor" stroke-width="1.2" stroke-linecap="round" stroke-linejoin="round" />
  <path d="M79.32,18.88 C79.29,18.90 79.25,18.92 79.21,18.93" fill="currentColor" stroke="currentColor" stroke-width="1.2" stroke-linecap="round" stroke-linejoin="round" />
  <path d="M78.63,18.96 C78.57,18.95 78.53,18.94 78.50,18.92" fill="currentColor" stroke="currentColor" stroke-width="1.2" stroke-linecap="round" stroke-linejoin="round" />
  <path d="M79.21,18.93 C79.17,18.95 79.12,18.96 79.06,18.96" fill="currentColor" stroke="currentColor" stroke-width="1.2" stroke-linecap="round" stroke-linejoin="round" />
  <path d="M78.84,18.97 C78.75,18.97 78.68,18.97 78.63,18.96" fill="currentColor" stroke="currentColor" stroke-width="1.2" stroke-linecap="round" stroke-linejoin="round" />
  <path d="M79.06,18.96 C78.99,18.97 78.92,18.97 78.84,18.97" fill="currentColor" stroke="currentColor" stroke-width="1.2" stroke-linecap="round" stroke-linejoin="round" />
  <line x1="25.23" y1="19.40" x2="27.72" y2="19.40" fill="currentColor" stroke="currentColor" stroke-width="1.2" stroke-linecap="round" stroke-linejoin="round" />
  <path d="M27.72,19.40 C27.75,19.40 27.78,19.41 27.80,19.43" fill="currentColor" stroke="currentColor" stroke-width="1.2" stroke-linecap="round" stroke-linejoin="round" />
  <path d="M27.80,19.43 C27.82,19.44 27.84,19.47 27.86,19.50" fill="currentColor" stroke="currentColor" stroke-width="1.2" stroke-linecap="round" stroke-linejoin="round" />
  <path d="M27.86,19.50 C27.88,19.53 27.89,19.57 27.89,19.62" fill="currentColor" stroke="currentColor" stroke-width="1.2" stroke-linecap="round" stroke-linejoin="round" />
  <path d="M27.89,19.62 C27.90,19.67 27.91,19.73 27.91,19.80" fill="currentColor" stroke="currentColor" stroke-width="1.2" stroke-linecap="round" stroke-linejoin="round" />
  <path d="M27.91,19.80 C27.91,19.87 27.90,19.93 27.89,19.98" fill="currentColor" stroke="currentColor" stroke-width="1.2" stroke-linecap="round" stroke-linejoin="round" />
  <path d="M24.41,20.12 C24.34,20.06 24.30,19.97 24.30,19.83" fill="currentColor" stroke="currentColor" stroke-width="1.2" stroke-linecap="round" stroke-linejoin="round" />
  <path d="M27.89,19.98 C27.89,20.03 27.88,20.07 27.86,20.10" fill="currentColor" stroke="currentColor" stroke-width="1.2" stroke-linecap="round" stroke-linejoin="round" />
  <path d="M27.86,20.10 C27.84,20.14 27.82,20.16 27.80,20.18" fill="currentColor" stroke="currentColor" stroke-width="1.2" stroke-linecap="round" stroke-linejoin="round" />
  <path d="M24.65,20.20 C24.56,20.20 24.48,20.18 24.41,20.12" fill="currentColor" stroke="currentColor" stroke-width="1.2" stroke-linecap="round" stroke-linejoin="round" />
  <path d="M27.80,20.18 C27.78,20.20 27.75,20.20 27.72,20.20" fill="currentColor" stroke="currentColor" stroke-width="1.2" stroke-linecap="round" stroke-linejoin="round" />
  <line x1="27.72" y1="20.20" x2="24.65" y2="20.20" fill="currentColor" stroke="currentColor" stroke-width="1.2" stroke-linecap="round" stroke-linejoin="round" />
  <line x1="19.64" y1="170.57" x2="19.64" y2="26.05" fill="none" stroke="currentColor" stroke-width="1.0" stroke-linecap="round" stroke-linejoin="round" />
  <line x1="33.08" y1="170.57" x2="33.08" y2="26.05" fill="none" stroke="currentColor" stroke-width="1.0" stroke-linecap="round" stroke-linejoin="round" />
  <line x1="46.51" y1="170.57" x2="46.51" y2="26.05" fill="none" stroke="currentColor" stroke-width="1.0" stroke-linecap="round" stroke-linejoin="round" />
  <line x1="59.94" y1="170.57" x2="59.94" y2="26.05" fill="none" stroke="currentColor" stroke-width="1.0" stroke-linecap="round" stroke-linejoin="round" />
  <line x1="73.37" y1="170.57" x2="73.37" y2="26.05" fill="none" stroke="currentColor" stroke-width="1.0" stroke-linecap="round" stroke-linejoin="round" />
  <line x1="140.53" y1="170.57" x2="140.53" y2="26.05" fill="none" stroke="currentColor" stroke-width="1.0" stroke-linecap="round" stroke-linejoin="round" />
  <line x1="153.96" y1="170.57" x2="153.96" y2="26.05" fill="none" stroke="currentColor" stroke-width="1.0" stroke-linecap="round" stroke-linejoin="round" />
  <line x1="113.67" y1="170.57" x2="113.67" y2="26.05" fill="none" stroke="currentColor" stroke-width="1.0" stroke-linecap="round" stroke-linejoin="round" />
  <line x1="127.10" y1="170.57" x2="127.10" y2="26.05" fill="none" stroke="currentColor" stroke-width="1.0" stroke-linecap="round" stroke-linejoin="round" />
  <line x1="100.23" y1="170.57" x2="100.23" y2="26.05" fill="none" stroke="currentColor" stroke-width="1.0" stroke-linecap="round" stroke-linejoin="round" />
  <line x1="30.73" y1="26.48" x2="102.59" y2="170.24" fill="none" stroke="currentColor" stroke-width="1.4000000476837158" stroke-linecap="round" stroke-linejoin="round" />
  <line x1="14.08" y1="31.15" x2="159.52" y2="31.15" fill="none" stroke="currentColor" stroke-width="1.0" stroke-linecap="round" stroke-linejoin="round" />
  <line x1="14.08" y1="44.58" x2="159.52" y2="44.58" fill="none" stroke="currentColor" stroke-width="1.0" stroke-linecap="round" stroke-linejoin="round" />
  <line x1="14.08" y1="58.01" x2="159.52" y2="58.01" fill="none" stroke="currentColor" stroke-width="1.0" stroke-linecap="round" stroke-linejoin="round" />
  <line x1="14.08" y1="71.45" x2="159.52" y2="71.45" fill="none" stroke="currentColor" stroke-width="1.0" stroke-linecap="round" stroke-linejoin="round" />
  <path d="M81.28,81.70 C81.31,81.70 81.36,81.70 81.42,81.70" fill="currentColor" stroke="currentColor" stroke-width="1.2" stroke-linecap="round" stroke-linejoin="round" />
  <path d="M81.42,81.70 C81.50,81.70 81.56,81.70 81.62,81.71" fill="currentColor" stroke="currentColor" stroke-width="1.2" stroke-linecap="round" stroke-linejoin="round" />
  <path d="M81.17,81.71 C81.20,81.71 81.24,81.70 81.28,81.70" fill="currentColor" stroke="currentColor" stroke-width="1.2" stroke-linecap="round" stroke-linejoin="round" />
  <path d="M81.62,81.71 C81.67,81.71 81.71,81.72 81.74,81.73" fill="currentColor" stroke="currentColor" stroke-width="1.2" stroke-linecap="round" stroke-linejoin="round" />
  <path d="M81.10,81.73 C81.12,81.73 81.14,81.72 81.17,81.71" fill="currentColor" stroke="currentColor" stroke-width="1.2" stroke-linecap="round" stroke-linejoin="round" />
  <path d="M81.05,81.76 C81.06,81.75 81.08,81.74 81.10,81.73" fill="currentColor" stroke="currentColor" stroke-width="1.2" stroke-linecap="round" stroke-linejoin="round" />
  <path d="M81.74,81.73 C81.77,81.75 81.79,81.76 81.80,81.78" fill="currentColor" stroke="currentColor" stroke-width="1.2" stroke-linecap="round" stroke-linejoin="round" />
  <line x1="79.59" y1="82.69" x2="81.05" y2="81.76" fill="currentColor" stroke="currentColor" stroke-width="1.2" stroke-linecap="round" stroke-linejoin="round" />
  <path d="M81.80,81.78 C81.81,81.80 81.81,81.82 81.81,81.84" fill="currentColor" stroke="currentColor" stroke-width="1.2" stroke-linecap="round" stroke-linejoin="round" />
  <line x1="81.81" y1="81.84" x2="81.81" y2="87.39" fill="currentColor" stroke="currentColor" stroke-width="1.2" stroke-linecap="round" stroke-linejoin="round" />
  <line x1="80.97" y1="87.39" x2="80.97" y2="82.58" fill="currentColor" stroke="currentColor" stroke-width="1.2" stroke-linecap="round" stroke-linejoin="round" />
  <line x1="80.97" y1="82.58" x2="79.75" y2="83.31" fill="currentColor" stroke="currentColor" stroke-width="1.2" stroke-linecap="round" stroke-linejoin="round" />
  <path d="M79.52,82.75 C79.54,82.73 79.57,82.71 79.59,82.69" fill="currentColor" stroke="currentColor" stroke-width="1.2" stroke-linecap="round" stroke-linejoin="round" />
  <path d="M79.48,82.82 C79.49,82.79 79.51,82.77 79.52,82.75" fill="currentColor" stroke="currentColor" stroke-width="1.2" stroke-linecap="round" stroke-linejoin="round" />
  <path d="M79.46,82.91 C79.47,82.88 79.47,82.84 79.48,82.82" fill="currentColor" stroke="currentColor" stroke-width="1.2" stroke-linecap="round" stroke-linejoin="round" />
  <path d="M79.45,83.06 C79.45,83.00 79.46,82.95 79.46,82.91" fill="currentColor" stroke="currentColor" stroke-width="1.2" stroke-linecap="round" stroke-linejoin="round" />
  <path d="M79.47,83.24 C79.46,83.19 79.45,83.13 79.45,83.06" fill="currentColor" stroke="currentColor" stroke-width="1.2" stroke-linecap="round" stroke-linejoin="round" />
  <path d="M79.51,83.35 C79.49,83.33 79.47,83.29 79.47,83.24" fill="currentColor" stroke="currentColor" stroke-width="1.2" stroke-linecap="round" stroke-linejoin="round" />
  <path d="M79.75,83.31 C79.69,83.34 79.64,83.36 79.60,83.37" fill="currentColor" stroke="currentColor" stroke-width="1.2" stroke-linecap="round" stroke-linejoin="round" />
  <path d="M79.60,83.37 C79.56,83.37 79.53,83.37 79.51,83.35" fill="currentColor" stroke="currentColor" stroke-width="1.2" stroke-linecap="round" stroke-linejoin="round" />
  <line x1="14.08" y1="84.88" x2="159.52" y2="84.88" fill="none" stroke="currentColor" stroke-width="1.0" stroke-linecap="round" stroke-linejoin="round" />
  <line x1="84.14" y1="84.88" x2="89.46" y2="84.88" fill="none" stroke="currentColor" stroke-width="1.000000011920929" stroke-linecap="round" stroke-linejoin="round" />
  <path d="M79.58,87.41 C79.60,87.39 79.63,87.39 79.65,87.39" fill="currentColor" stroke="currentColor" stroke-width="1.2" stroke-linecap="round" stroke-linejoin="round" />
  <line x1="79.65" y1="87.39" x2="80.97" y2="87.39" fill="currentColor" stroke="currentColor" stroke-width="1.2" stroke-linecap="round" stroke-linejoin="round" />
  <line x1="81.81" y1="87.39" x2="82.95" y2="87.39" fill="currentColor" stroke="currentColor" stroke-width="1.2" stroke-linecap="round" stroke-linejoin="round" />
  <path d="M82.95,87.39 C82.98,87.39 83.00,87.39 83.03,87.41" fill="currentColor" stroke="currentColor" stroke-width="1.2" stroke-linecap="round" stroke-linejoin="round" />
  <path d="M79.53,87.47 C79.54,87.44 79.56,87.42 79.58,87.41" fill="currentColor" stroke="currentColor" stroke-width="1.2" stroke-linecap="round" stroke-linejoin="round" />
  <path d="M83.03,87.41 C83.05,87.42 83.07,87.44 83.08,87.47" fill="currentColor" stroke="currentColor" stroke-width="1.2" stroke-linecap="round" stroke-linejoin="round" />
  <path d="M79.49,87.58 C79.50,87.54 79.51,87.50 79.53,87.47" fill="currentColor" stroke="currentColor" stroke-width="1.2" stroke-linecap="round" stroke-linejoin="round" />
  <path d="M83.08,87.47 C83.10,87.50 83.11,87.54 83.12,87.58" fill="currentColor" stroke="currentColor" stroke-width="1.2" stroke-linecap="round" stroke-linejoin="round" />
  <path d="M79.48,87.73 C79.48,87.67 79.48,87.62 79.49,87.58" fill="currentColor" stroke="currentColor" stroke-width="1.2" stroke-linecap="round" stroke-linejoin="round" />
  <path d="M83.12,87.58 C83.13,87.62 83.13,87.67 83.13,87.73" fill="currentColor" stroke="currentColor" stroke-width="1.2" stroke-linecap="round" stroke-linejoin="round" />
  <path d="M83.13,87.73 C83.13,87.79 83.12,87.84 83.12,87.88" fill="currentColor" stroke="currentColor" stroke-width="1.2" stroke-linecap="round" stroke-linejoin="round" />
  <path d="M79.49,87.88 C79.48,87.84 79.48,87.79 79.48,87.73" fill="currentColor" stroke="currentColor" stroke-width="1.2" stroke-linecap="round" stroke-linejoin="round" />
  <path d="M83.12,87.88 C83.11,87.93 83.09,87.96 83.08,87.99" fill="currentColor" stroke="currentColor" stroke-width="1.2" stroke-linecap="round" stroke-linejoin="round" />
  <path d="M79.53,87.99 C79.52,87.96 79.50,87.93 79.49,87.88" fill="currentColor" stroke="currentColor" stroke-width="1.2" stroke-linecap="round" stroke-linejoin="round" />
  <path d="M83.08,87.99 C83.06,88.01 83.04,88.03 83.02,88.04" fill="currentColor" stroke="currentColor" stroke-width="1.2" stroke-linecap="round" stroke-linejoin="round" />
  <path d="M79.59,88.04 C79.57,88.03 79.55,88.01 79.53,87.99" fill="currentColor" stroke="currentColor" stroke-width="1.2" stroke-linecap="round" stroke-linejoin="round" />
  <path d="M83.02,88.04 C83.00,88.05 82.98,88.06 82.95,88.06" fill="currentColor" stroke="currentColor" stroke-width="1.2" stroke-linecap="round" stroke-linejoin="round" />
  <path d="M79.65,88.06 C79.63,88.06 79.61,88.05 79.59,88.04" fill="currentColor" stroke="currentColor" stroke-width="1.2" stroke-linecap="round" stroke-linejoin="round" />
  <line x1="82.95" y1="88.06" x2="79.65" y2="88.06" fill="currentColor" stroke="currentColor" stroke-width="1.2" stroke-linecap="round" stroke-linejoin="round" />
  <line x1="165.60" y1="95.07" x2="166.68" y2="98.31" fill="currentColor" stroke="currentColor" stroke-width="1.2" stroke-linecap="round" stroke-linejoin="round" />
  <line x1="175.32" y1="98.31" x2="165.60" y2="95.07" fill="currentColor" stroke="currentColor" stroke-width="1.2" stroke-linecap="round" stroke-linejoin="round" />
  <line x1="100.24" y1="100.96" x2="100.24" y2="95.66" fill="none" stroke="currentColor" stroke-width="1.000000011920929" stroke-linecap="round" stroke-linejoin="round" />
  <line x1="166.68" y1="98.31" x2="165.60" y2="101.55" fill="currentColor" stroke="currentColor" stroke-width="1.2" stroke-linecap="round" stroke-linejoin="round" />
  <line x1="165.60" y1="101.55" x2="175.32" y2="98.31" fill="currentColor" stroke="currentColor" stroke-width="1.2" stroke-linecap="round" stroke-linejoin="round" />
  <line x1="8.00" y1="98.31" x2="167.22" y2="98.31" fill="none" stroke="currentColor" stroke-width="1.4000000476837158" stroke-linecap="round" stroke-linejoin="round" />
  <path d="M100.22,102.01 C100.26,102.01 100.31,102.01 100.36,102.01" fill="currentColor" stroke="currentColor" stroke-width="1.2" stroke-linecap="round" stroke-linejoin="round" />
  <path d="M100.36,102.01 C100.44,102.01 100.51,102.01 100.56,102.02" fill="currentColor" stroke="currentColor" stroke-width="1.2" stroke-linecap="round" stroke-linejoin="round" />
  <path d="M100.12,102.03 C100.15,102.02 100.18,102.02 100.22,102.01" fill="currentColor" stroke="currentColor" stroke-width="1.2" stroke-linecap="round" stroke-linejoin="round" />
  <path d="M100.56,102.02 C100.61,102.03 100.65,102.04 100.68,102.05" fill="currentColor" stroke="currentColor" stroke-width="1.2" stroke-linecap="round" stroke-linejoin="round" />
  <path d="M100.04,102.05 C100.06,102.04 100.09,102.03 100.12,102.03" fill="currentColor" stroke="currentColor" stroke-width="1.2" stroke-linecap="round" stroke-linejoin="round" />
  <path d="M99.99,102.07 C100.01,102.06 100.02,102.05 100.04,102.05" fill="currentColor" stroke="currentColor" stroke-width="1.2" stroke-linecap="round" stroke-linejoin="round" />
  <path d="M100.68,102.05 C100.71,102.06 100.73,102.07 100.74,102.09" fill="currentColor" stroke="currentColor" stroke-width="1.2" stroke-linecap="round" stroke-linejoin="round" />
  <line x1="98.54" y1="103.00" x2="99.99" y2="102.07" fill="currentColor" stroke="currentColor" stroke-width="1.2" stroke-linecap="round" stroke-linejoin="round" />
  <path d="M100.74,102.09 C100.75,102.11 100.76,102.13 100.76,102.15" fill="currentColor" stroke="currentColor" stroke-width="1.2" stroke-linecap="round" stroke-linejoin="round" />
  <line x1="100.76" y1="102.15" x2="100.76" y2="107.70" fill="currentColor" stroke="currentColor" stroke-width="1.2" stroke-linecap="round" stroke-linejoin="round" />
  <line x1="99.92" y1="107.70" x2="99.92" y2="102.90" fill="currentColor" stroke="currentColor" stroke-width="1.2" stroke-linecap="round" stroke-linejoin="round" />
  <line x1="99.92" y1="102.90" x2="98.69" y2="103.62" fill="currentColor" stroke="currentColor" stroke-width="1.2" stroke-linecap="round" stroke-linejoin="round" />
  <path d="M98.47,103.06 C98.49,103.04 98.51,103.02 98.54,103.00" fill="currentColor" stroke="currentColor" stroke-width="1.2" stroke-linecap="round" stroke-linejoin="round" />
  <path d="M98.43,103.13 C98.44,103.10 98.45,103.08 98.47,103.06" fill="currentColor" stroke="currentColor" stroke-width="1.2" stroke-linecap="round" stroke-linejoin="round" />
  <path d="M98.40,103.23 C98.41,103.19 98.42,103.16 98.43,103.13" fill="currentColor" stroke="currentColor" stroke-width="1.2" stroke-linecap="round" stroke-linejoin="round" />
  <path d="M98.40,103.37 C98.40,103.31 98.40,103.27 98.40,103.23" fill="currentColor" stroke="currentColor" stroke-width="1.2" stroke-linecap="round" stroke-linejoin="round" />
  <path d="M167.48,103.26 C167.54,103.25 167.62,103.25 167.72,103.25" fill="currentColor" stroke="currentColor" stroke-width="1.2" stroke-linecap="round" stroke-linejoin="round" />
  <path d="M167.72,103.25 C167.82,103.25 167.89,103.25 167.94,103.26" fill="currentColor" stroke="currentColor" stroke-width="1.2" stroke-linecap="round" stroke-linejoin="round" />
  <path d="M170.44,103.26 C170.50,103.25 170.57,103.25 170.66,103.25" fill="currentColor" stroke="currentColor" stroke-width="1.2" stroke-linecap="round" stroke-linejoin="round" />
  <path d="M170.66,103.25 C170.75,103.25 170.83,103.25 170.89,103.26" fill="currentColor" stroke="currentColor" stroke-width="1.2" stroke-linecap="round" stroke-linejoin="round" />
  <path d="M167.94,103.26 C167.99,103.26 168.03,103.27 168.06,103.28" fill="currentColor" stroke="currentColor" stroke-width="1.2" stroke-linecap="round" stroke-linejoin="round" />
  <path d="M170.31,103.28 C170.34,103.27 170.39,103.26 170.44,103.26" fill="currentColor" stroke="currentColor" stroke-width="1.2" stroke-linecap="round" stroke-linejoin="round" />
  <path d="M167.34,103.30 C167.37,103.28 167.42,103.27 167.48,103.26" fill="currentColor" stroke="currentColor" stroke-width="1.2" stroke-linecap="round" stroke-linejoin="round" />
  <path d="M170.89,103.26 C170.96,103.27 171.00,103.28 171.03,103.29" fill="currentColor" stroke="currentColor" stroke-width="1.2" stroke-linecap="round" stroke-linejoin="round" />
  <path d="M168.06,103.28 C168.09,103.29 168.11,103.30 168.12,103.32" fill="currentColor" stroke="currentColor" stroke-width="1.2" stroke-linecap="round" stroke-linejoin="round" />
  <path d="M170.22,103.32 C170.25,103.31 170.27,103.29 170.31,103.28" fill="currentColor" stroke="currentColor" stroke-width="1.2" stroke-linecap="round" stroke-linejoin="round" />
  <path d="M171.03,103.29 C171.06,103.31 171.07,103.33 171.07,103.37" fill="currentColor" stroke="currentColor" stroke-width="1.2" stroke-linecap="round" stroke-linejoin="round" />
  <path d="M167.29,103.38 C167.29,103.34 167.31,103.32 167.34,103.30" fill="currentColor" stroke="currentColor" stroke-width="1.2" stroke-linecap="round" stroke-linejoin="round" />
  <path d="M168.12,103.32 C168.13,103.34 168.14,103.35 168.15,103.38" fill="currentColor" stroke="currentColor" stroke-width="1.2" stroke-linecap="round" stroke-linejoin="round" />
  <path d="M170.17,103.38 C170.19,103.36 170.21,103.34 170.22,103.32" fill="currentColor" stroke="currentColor" stroke-width="1.2" stroke-linecap="round" stroke-linejoin="round" />
  <path d="M171.07,103.37 C171.06,103.40 171.04,103.43 171.00,103.48" fill="currentColor" stroke="currentColor" stroke-width="1.2" stroke-linecap="round" stroke-linejoin="round" />
  <path d="M98.41,103.55 C98.40,103.51 98.40,103.44 98.40,103.37" fill="currentColor" stroke="currentColor" stroke-width="1.2" stroke-linecap="round" stroke-linejoin="round" />
  <path d="M167.32,103.49 C167.29,103.44 167.29,103.41 167.29,103.38" fill="currentColor" stroke="currentColor" stroke-width="1.2" stroke-linecap="round" stroke-linejoin="round" />
  <line x1="168.15" y1="103.38" x2="168.85" y2="105.02" fill="currentColor" stroke="currentColor" stroke-width="1.2" stroke-linecap="round" stroke-linejoin="round" />
  <line x1="168.85" y1="105.02" x2="170.17" y2="103.38" fill="currentColor" stroke="currentColor" stroke-width="1.2" stroke-linecap="round" stroke-linejoin="round" />
  <line x1="171.00" y1="103.48" x2="169.28" y2="105.56" fill="currentColor" stroke="currentColor" stroke-width="1.2" stroke-linecap="round" stroke-linejoin="round" />
  <line x1="168.22" y1="105.54" x2="167.32" y2="103.49" fill="currentColor" stroke="currentColor" stroke-width="1.2" stroke-linecap="round" stroke-linejoin="round" />
  <path d="M98.46,103.66 C98.43,103.64 98.42,103.60 98.41,103.55" fill="currentColor" stroke="currentColor" stroke-width="1.2" stroke-linecap="round" stroke-linejoin="round" />
  <path d="M98.69,103.62 C98.63,103.66 98.58,103.67 98.55,103.68" fill="currentColor" stroke="currentColor" stroke-width="1.2" stroke-linecap="round" stroke-linejoin="round" />
  <path d="M98.55,103.68 C98.51,103.69 98.48,103.68 98.46,103.66" fill="currentColor" stroke="currentColor" stroke-width="1.2" stroke-linecap="round" stroke-linejoin="round" />
  <line x1="166.39" y1="107.71" x2="168.22" y2="105.54" fill="currentColor" stroke="currentColor" stroke-width="1.2" stroke-linecap="round" stroke-linejoin="round" />
  <line x1="169.28" y1="105.56" x2="170.24" y2="107.70" fill="currentColor" stroke="currentColor" stroke-width="1.2" stroke-linecap="round" stroke-linejoin="round" />
  <line x1="169.38" y1="107.81" x2="168.65" y2="106.08" fill="currentColor" stroke="currentColor" stroke-width="1.2" stroke-linecap="round" stroke-linejoin="round" />
  <line x1="168.65" y1="106.08" x2="167.27" y2="107.81" fill="currentColor" stroke="currentColor" stroke-width="1.2" stroke-linecap="round" stroke-linejoin="round" />
  <path d="M98.53,107.72 C98.55,107.71 98.57,107.70 98.60,107.70" fill="currentColor" stroke="currentColor" stroke-width="1.2" stroke-linecap="round" stroke-linejoin="round" />
  <line x1="98.60" y1="107.70" x2="99.92" y2="107.70" fill="currentColor" stroke="currentColor" stroke-width="1.2" stroke-linecap="round" stroke-linejoin="round" />
  <line x1="100.76" y1="107.70" x2="101.90" y2="107.70" fill="currentColor" stroke="currentColor" stroke-width="1.2" stroke-linecap="round" stroke-linejoin="round" />
  <path d="M101.90,107.70 C101.92,107.70 101.95,107.71 101.97,107.72" fill="currentColor" stroke="currentColor" stroke-width="1.2" stroke-linecap="round" stroke-linejoin="round" />
  <path d="M170.24,107.70 C170.26,107.75 170.27,107.79 170.26,107.82" fill="currentColor" stroke="currentColor" stroke-width="1.2" stroke-linecap="round" stroke-linejoin="round" />
  <path d="M166.34,107.82 C166.34,107.79 166.36,107.75 166.39,107.71" fill="currentColor" stroke="currentColor" stroke-width="1.2" stroke-linecap="round" stroke-linejoin="round" />
  <path d="M98.47,107.79 C98.49,107.76 98.51,107.74 98.53,107.72" fill="currentColor" stroke="currentColor" stroke-width="1.2" stroke-linecap="round" stroke-linejoin="round" />
  <path d="M101.97,107.72 C101.99,107.74 102.01,107.76 102.03,107.79" fill="currentColor" stroke="currentColor" stroke-width="1.2" stroke-linecap="round" stroke-linejoin="round" />
  <path d="M98.44,107.89 C98.45,107.85 98.46,107.81 98.47,107.79" fill="currentColor" stroke="currentColor" stroke-width="1.2" stroke-linecap="round" stroke-linejoin="round" />
  <path d="M102.03,107.79 C102.04,107.81 102.05,107.85 102.06,107.89" fill="currentColor" stroke="currentColor" stroke-width="1.2" stroke-linecap="round" stroke-linejoin="round" />
  <path d="M169.41,107.87 C169.40,107.85 169.39,107.83 169.38,107.81" fill="currentColor" stroke="currentColor" stroke-width="1.2" stroke-linecap="round" stroke-linejoin="round" />
  <path d="M167.27,107.81 C167.25,107.83 167.23,107.85 167.20,107.87" fill="currentColor" stroke="currentColor" stroke-width="1.2" stroke-linecap="round" stroke-linejoin="round" />
  <path d="M170.26,107.82 C170.26,107.85 170.24,107.87 170.20,107.89" fill="currentColor" stroke="currentColor" stroke-width="1.2" stroke-linecap="round" stroke-linejoin="round" />
  <path d="M166.37,107.89 C166.34,107.87 166.33,107.85 166.34,107.82" fill="currentColor" stroke="currentColor" stroke-width="1.2" stroke-linecap="round" stroke-linejoin="round" />
  <path d="M169.47,107.92 C169.44,107.90 169.42,107.89 169.41,107.87" fill="currentColor" stroke="currentColor" stroke-width="1.2" stroke-linecap="round" stroke-linejoin="round" />
  <path d="M167.20,107.87 C167.18,107.89 167.15,107.90 167.11,107.91" fill="currentColor" stroke="currentColor" stroke-width="1.2" stroke-linecap="round" stroke-linejoin="round" />
  <path d="M98.42,108.04 C98.42,107.98 98.43,107.93 98.44,107.89" fill="currentColor" stroke="currentColor" stroke-width="1.2" stroke-linecap="round" stroke-linejoin="round" />
  <path d="M102.06,107.89 C102.07,107.93 102.07,107.98 102.07,108.04" fill="currentColor" stroke="currentColor" stroke-width="1.2" stroke-linecap="round" stroke-linejoin="round" />
  <path d="M170.20,107.89 C170.16,107.91 170.11,107.93 170.05,107.94" fill="currentColor" stroke="currentColor" stroke-width="1.2" stroke-linecap="round" stroke-linejoin="round" />
  <path d="M166.50,107.94 C166.44,107.93 166.40,107.91 166.37,107.89" fill="currentColor" stroke="currentColor" stroke-width="1.2" stroke-linecap="round" stroke-linejoin="round" />
  <path d="M167.11,107.91 C167.08,107.92 167.03,107.93 166.97,107.94" fill="currentColor" stroke="currentColor" stroke-width="1.2" stroke-linecap="round" stroke-linejoin="round" />
  <path d="M169.59,107.94 C169.54,107.94 169.50,107.93 169.47,107.92" fill="currentColor" stroke="currentColor" stroke-width="1.2" stroke-linecap="round" stroke-linejoin="round" />
  <path d="M170.05,107.94 C169.99,107.94 169.91,107.95 169.81,107.95" fill="currentColor" stroke="currentColor" stroke-width="1.2" stroke-linecap="round" stroke-linejoin="round" />
  <path d="M166.73,107.95 C166.63,107.95 166.56,107.94 166.50,107.94" fill="currentColor" stroke="currentColor" stroke-width="1.2" stroke-linecap="round" stroke-linejoin="round" />
  <path d="M166.97,107.94 C166.91,107.94 166.83,107.95 166.73,107.95" fill="currentColor" stroke="currentColor" stroke-width="1.2" stroke-linecap="round" stroke-linejoin="round" />
  <path d="M169.81,107.95 C169.71,107.95 169.64,107.95 169.59,107.94" fill="currentColor" stroke="currentColor" stroke-width="1.2" stroke-linecap="round" stroke-linejoin="round" />
  <path d="M102.07,108.04 C102.07,108.10 102.07,108.16 102.06,108.20" fill="currentColor" stroke="currentColor" stroke-width="1.2" stroke-linecap="round" stroke-linejoin="round" />
  <path d="M98.44,108.20 C98.43,108.16 98.42,108.10 98.42,108.04" fill="currentColor" stroke="currentColor" stroke-width="1.2" stroke-linecap="round" stroke-linejoin="round" />
  <path d="M102.06,108.20 C102.05,108.24 102.04,108.27 102.02,108.30" fill="currentColor" stroke="currentColor" stroke-width="1.2" stroke-linecap="round" stroke-linejoin="round" />
  <path d="M98.48,108.30 C98.46,108.27 98.45,108.24 98.44,108.20" fill="currentColor" stroke="currentColor" stroke-width="1.2" stroke-linecap="round" stroke-linejoin="round" />
  <path d="M102.02,108.30 C102.00,108.33 101.99,108.35 101.96,108.36" fill="currentColor" stroke="currentColor" stroke-width="1.2" stroke-linecap="round" stroke-linejoin="round" />
  <path d="M98.53,108.36 C98.51,108.35 98.50,108.33 98.48,108.30" fill="currentColor" stroke="currentColor" stroke-width="1.2" stroke-linecap="round" stroke-linejoin="round" />
  <path d="M101.96,108.36 C101.94,108.37 101.92,108.37 101.90,108.37" fill="currentColor" stroke="currentColor" stroke-width="1.2" stroke-linecap="round" stroke-linejoin="round" />
  <path d="M98.60,108.37 C98.58,108.37 98.55,108.37 98.53,108.36" fill="currentColor" stroke="currentColor" stroke-width="1.2" stroke-linecap="round" stroke-linejoin="round" />
  <line x1="101.90" y1="108.37" x2="98.60" y2="108.37" fill="currentColor" stroke="currentColor" stroke-width="1.2" stroke-linecap="round" stroke-linejoin="round" />
  <line x1="14.08" y1="111.74" x2="159.52" y2="111.74" fill="none" stroke="currentColor" stroke-width="1.0" stroke-linecap="round" stroke-linejoin="round" />
  <line x1="14.08" y1="125.18" x2="159.52" y2="125.18" fill="none" stroke="currentColor" stroke-width="1.0" stroke-linecap="round" stroke-linejoin="round" />
  <line x1="14.08" y1="138.61" x2="159.52" y2="138.61" fill="none" stroke="currentColor" stroke-width="1.0" stroke-linecap="round" stroke-linejoin="round" />
  <line x1="14.08" y1="152.04" x2="159.52" y2="152.04" fill="none" stroke="currentColor" stroke-width="1.0" stroke-linecap="round" stroke-linejoin="round" />
  <line x1="14.08" y1="165.47" x2="159.52" y2="165.47" fill="none" stroke="currentColor" stroke-width="1.0" stroke-linecap="round" stroke-linejoin="round" />
</svg>