<svg xmlns="http://www.w3.org/2000/svg" viewBox="0 0 184.59 161.01" preserveAspectRatio="xMidYMid meet" shape-rendering="geometricPrecision" text-rendering="optimizeLegibility">
  <line x1="153.96" y1="14.19" x2="153.03" y2="14.19" fill="currentColor" stroke="currentColor" stroke-width="1.2" stroke-linecap="round" stroke-linejoin="round" />
  <line x1="153.03" y1="14.19" x2="152.69" y2="16.60" fill="currentColor" stroke="currentColor" stroke-width="1.2" stroke-linecap="round" stroke-linejoin="round" />
  <line x1="152.69" y1="16.60" x2="152.29" y2="16.60" fill="currentColor" stroke="currentColor" stroke-width="1.2" stroke-linecap="round" stroke-linejoin="round" />
  <path d="M152.29,16.60 C151.82,16.60 151.41,16.67 151.05,16.81" fill="currentColor" stroke="currentColor" stroke-width="1.2" stroke-linecap="round" stroke-linejoin="round" />
  <path d="M151.05,16.81 C150.69,16.94 150.39,17.12 150.13,17.34" fill="currentColor" stroke="currentColor" stroke-width="1.2" stroke-linecap="round" stroke-linejoin="round" />
  <line x1="152.33" y1="17.38" x2="152.58" y2="17.38" fill="currentColor" stroke="currentColor" stroke-width="1.2" stroke-linecap="round" stroke-linejoin="round" />
  <path d="M151.33,17.57 C151.62,17.45 151.95,17.38 152.33,17.38" fill="currentColor" stroke="currentColor" stroke-width="1.2" stroke-linecap="round" stroke-linejoin="round" />
  <path d="M150.13,17.34 C149.88,17.56 149.67,17.80 149.51,18.06" fill="currentColor" stroke="currentColor" stroke-width="1.2" stroke-linecap="round" stroke-linejoin="round" />
  <path d="M150.60,18.06 C150.79,17.86 151.03,17.69 151.33,17.57" fill="currentColor" stroke="currentColor" stroke-width="1.2" stroke-linecap="round" stroke-linejoin="round" />
  <line x1="152.91" y1="21.69" x2="153.96" y2="14.19" fill="currentColor" stroke="currentColor" stroke-width="1.2" stroke-linecap="round" stroke-linejoin="round" />
  <path d="M150.15,18.75 C150.25,18.50 150.40,18.27 150.60,18.06" fill="currentColor" stroke="currentColor" stroke-width="1.2" stroke-linecap="round" stroke-linejoin="round" />
  <path d="M149.51,18.06 C149.35,18.32 149.23,18.58 149.16,18.84" fill="currentColor" stroke="currentColor" stroke-width="1.2" stroke-linecap="round" stroke-linejoin="round" />
  <path d="M150.00,19.53 C150.00,19.27 150.05,19.01 150.15,18.75" fill="currentColor" stroke="currentColor" stroke-width="1.2" stroke-linecap="round" stroke-linejoin="round" />
  <path d="M149.16,18.84 C149.08,19.10 149.05,19.34 149.05,19.56" fill="currentColor" stroke="currentColor" stroke-width="1.2" stroke-linecap="round" stroke-linejoin="round" />
  <line x1="152.58" y1="17.38" x2="152.07" y2="21.05" fill="currentColor" stroke="currentColor" stroke-width="1.2" stroke-linecap="round" stroke-linejoin="round" />
  <path d="M150.43,20.67 C150.15,20.41 150.00,20.03 150.00,19.53" fill="currentColor" stroke="currentColor" stroke-width="1.2" stroke-linecap="round" stroke-linejoin="round" />
  <path d="M149.05,19.56 C149.05,20.30 149.27,20.86 149.72,21.25" fill="currentColor" stroke="currentColor" stroke-width="1.2" stroke-linecap="round" stroke-linejoin="round" />
  <path d="M151.64,21.07 C151.11,21.07 150.71,20.94 150.43,20.67" fill="currentColor" stroke="currentColor" stroke-width="1.2" stroke-linecap="round" stroke-linejoin="round" />
  <path d="M152.07,21.05 C151.99,21.06 151.92,21.07 151.85,21.07" fill="currentColor" stroke="currentColor" stroke-width="1.2" stroke-linecap="round" stroke-linejoin="round" />
  <path d="M151.85,21.07 C151.78,21.07 151.71,21.07 151.64,21.07" fill="currentColor" stroke="currentColor" stroke-width="1.2" stroke-linecap="round" stroke-linejoin="round" />
  <path d="M149.72,21.25 C150.17,21.64 150.81,21.84 151.64,21.84" fill="currentColor" stroke="currentColor" stroke-width="1.2" stroke-linecap="round" stroke-linejoin="round" />
  <path d="M152.31,21.81 C152.51,21.78 152.71,21.74 152.91,21.69" fill="currentColor" stroke="currentColor" stroke-width="1.2" stroke-linecap="round" stroke-linejoin="round" />
  <path d="M151.64,21.84 C151.88,21.84 152.10,21.83 152.31,21.81" fill="currentColor" stroke="currentColor" stroke-width="1.2" stroke-linecap="round" stroke-linejoin="round" />
  <path d="M146.76,24.62 C147.13,24.58 147.51,24.56 147.90,24.56" fill="none" stroke="currentColor" stroke-width="1.0" stroke-linecap="round" stroke-linejoin="round" />
  <path d="M147.90,24.56 C150.01,24.56 151.97,25.21 153.59,26.33" fill="none" stroke="currentColor" stroke-width="1.0" stroke-linecap="round" stroke-linejoin="round" />
  <polygon points="32.09,60.22 35.03,53.81 41.44,56.74 38.50,63.15" fill="none" stroke="currentColor" stroke-width="1.0" stroke-linecap="round" stroke-linejoin="round" />
  <line x1="159.12" y1="133.24" x2="144.88" y2="8.00" fill="none" stroke="currentColor" stroke-width="1.2" stroke-linecap="round" stroke-linejoin="round" />
  <line x1="162.54" y1="13.36" x2="66.21" y2="153.01" fill="none" stroke="currentColor" stroke-width="1.2" stroke-linecap="round" stroke-linejoin="round" />
  <line x1="8.00" y1="112.85" x2="35.03" y2="53.81" fill="none" stroke="currentColor" stroke-width="1.2" stroke-linecap="round" stroke-linejoin="round" />
  <line x1="35.03" y1="53.81" x2="176.59" y2="118.61" fill="none" stroke="currentColor" stroke-width="1.2" stroke-linecap="round" stroke-linejoin="round" />
  <path d="M102.87,88.46 C102.87,87.31 103.12,86.21 103.57,85.22" fill="none" stroke="currentColor" stroke-width="1.0" stroke-linecap="round" stroke-linejoin="round" />
  <line x1="98.10" y1="87.28" x2="97.14" y2="87.28" fill="currentColor" stroke="currentColor" stroke-width="1.2" stroke-linecap="round" stroke-linejoin="round" />
  <line x1="97.68" y1="90.22" x2="98.10" y2="87.28" fill="currentColor" stroke="currentColor" stroke-width="1.2" stroke-linecap="round" stroke-linejoin="round" />
  <path d="M98.90,89.69 C98.67,89.69 98.47,89.73 98.28,89.82" fill="currentColor" stroke="currentColor" stroke-width="1.2" stroke-linecap="round" stroke-linejoin="round" />
  <path d="M99.81,89.98 C99.55,89.79 99.25,89.70 98.90,89.69" fill="currentColor" stroke="currentColor" stroke-width="1.2" stroke-linecap="round" stroke-linejoin="round" />
  <path d="M98.28,89.82 C98.09,89.90 97.90,90.04 97.70,90.24" fill="currentColor" stroke="currentColor" stroke-width="1.2" stroke-linecap="round" stroke-linejoin="round" />
  <line x1="97.70" y1="90.24" x2="97.68" y2="90.22" fill="currentColor" stroke="currentColor" stroke-width="1.2" stroke-linecap="round" stroke-linejoin="round" />
  <path d="M100.42,90.77 C100.27,90.43 100.07,90.17 99.81,89.98" fill="currentColor" stroke="currentColor" stroke-width="1.2" stroke-linecap="round" stroke-linejoin="round" />
  <path d="M98.33,90.55 C98.44,90.52 98.53,90.51 98.61,90.51" fill="currentColor" stroke="currentColor" stroke-width="1.2" stroke-linecap="round" stroke-linejoin="round" />
  <path d="M98.00,90.66 C98.11,90.61 98.22,90.57 98.33,90.55" fill="currentColor" stroke="currentColor" stroke-width="1.2" stroke-linecap="round" stroke-linejoin="round" />
  <path d="M98.61,90.51 C98.95,90.51 99.21,90.63 99.39,90.88" fill="currentColor" stroke="currentColor" stroke-width="1.2" stroke-linecap="round" stroke-linejoin="round" />
  <path d="M97.71,90.86 C97.79,90.78 97.88,90.72 98.00,90.66" fill="currentColor" stroke="currentColor" stroke-width="1.2" stroke-linecap="round" stroke-linejoin="round" />
  <path d="M97.56,91.13 C97.58,91.03 97.63,90.94 97.71,90.86" fill="currentColor" stroke="currentColor" stroke-width="1.2" stroke-linecap="round" stroke-linejoin="round" />
  <line x1="97.14" y1="87.28" x2="96.12" y2="94.86" fill="currentColor" stroke="currentColor" stroke-width="1.2" stroke-linecap="round" stroke-linejoin="round" />
  <path d="M100.64,91.95 C100.63,91.50 100.56,91.11 100.42,90.77" fill="currentColor" stroke="currentColor" stroke-width="1.2" stroke-linecap="round" stroke-linejoin="round" />
  <path d="M99.39,90.88 C99.58,91.12 99.68,91.47 99.68,91.93" fill="currentColor" stroke="currentColor" stroke-width="1.2" stroke-linecap="round" stroke-linejoin="round" />
  <path d="M106.28,94.94 C104.22,93.52 102.87,91.15 102.87,88.46" fill="none" stroke="currentColor" stroke-width="1.0" stroke-linecap="round" stroke-linejoin="round" />
  <path d="M100.54,92.76 C100.61,92.49 100.64,92.21 100.64,91.95" fill="currentColor" stroke="currentColor" stroke-width="1.2" stroke-linecap="round" stroke-linejoin="round" />
  <path d="M99.68,91.93 C99.68,92.37 99.60,92.76 99.44,93.10" fill="currentColor" stroke="currentColor" stroke-width="1.2" stroke-linecap="round" stroke-linejoin="round" />
  <line x1="97.13" y1="94.17" x2="97.56" y2="91.13" fill="currentColor" stroke="currentColor" stroke-width="1.2" stroke-linecap="round" stroke-linejoin="round" />
  <path d="M100.22,93.57 C100.37,93.31 100.48,93.04 100.54,92.76" fill="currentColor" stroke="currentColor" stroke-width="1.2" stroke-linecap="round" stroke-linejoin="round" />
  <path d="M99.44,93.10 C99.28,93.43 99.05,93.69 98.75,93.88" fill="currentColor" stroke="currentColor" stroke-width="1.2" stroke-linecap="round" stroke-linejoin="round" />
  <path d="M99.63,94.26 C99.88,94.06 100.07,93.83 100.22,93.57" fill="currentColor" stroke="currentColor" stroke-width="1.2" stroke-linecap="round" stroke-linejoin="round" />
  <path d="M98.75,93.88 C98.45,94.07 98.08,94.16 97.65,94.17" fill="currentColor" stroke="currentColor" stroke-width="1.2" stroke-linecap="round" stroke-linejoin="round" />
  <line x1="97.65" y1="94.17" x2="97.13" y2="94.17" fill="currentColor" stroke="currentColor" stroke-width="1.2" stroke-linecap="round" stroke-linejoin="round" />
  <path d="M98.71,94.75 C99.08,94.63 99.38,94.47 99.63,94.26" fill="currentColor" stroke="currentColor" stroke-width="1.2" stroke-linecap="round" stroke-linejoin="round" />
  <path d="M97.43,94.94 C97.92,94.93 98.35,94.87 98.71,94.75" fill="currentColor" stroke="currentColor" stroke-width="1.2" stroke-linecap="round" stroke-linejoin="round" />
  <path d="M96.12,94.86 C96.21,94.88 96.34,94.89 96.48,94.90" fill="currentColor" stroke="currentColor" stroke-width="1.2" stroke-linecap="round" stroke-linejoin="round" />
  <path d="M96.48,94.90 C96.62,94.91 96.78,94.92 96.94,94.93" fill="currentColor" stroke="currentColor" stroke-width="1.2" stroke-linecap="round" stroke-linejoin="round" />
  <path d="M96.94,94.93 C97.10,94.93 97.27,94.94 97.43,94.94" fill="currentColor" stroke="currentColor" stroke-width="1.2" stroke-linecap="round" stroke-linejoin="round" />
  <path d="M21.00,107.37 C20.86,107.35 20.72,107.35 20.60,107.35" fill="currentColor" stroke="currentColor" stroke-width="1.2" stroke-linecap="round" stroke-linejoin="round" />
  <path d="M21.42,107.42 C21.29,107.40 21.15,107.38 21.00,107.37" fill="currentColor" stroke="currentColor" stroke-width="1.2" stroke-linecap="round" stroke-linejoin="round" />
  <path d="M20.60,107.35 C20.12,107.35 19.70,107.41 19.33,107.53" fill="currentColor" stroke="currentColor" stroke-width="1.2" stroke-linecap="round" stroke-linejoin="round" />
  <path d="M21.77,107.50 C21.68,107.47 21.56,107.45 21.42,107.42" fill="currentColor" stroke="currentColor" stroke-width="1.2" stroke-linecap="round" stroke-linejoin="round" />
  <path d="M19.33,107.53 C18.96,107.65 18.65,107.82 18.38,108.03" fill="currentColor" stroke="currentColor" stroke-width="1.2" stroke-linecap="round" stroke-linejoin="round" />
  <path d="M19.66,108.26 C19.96,108.16 20.32,108.13 20.75,108.16" fill="currentColor" stroke="currentColor" stroke-width="1.2" stroke-linecap="round" stroke-linejoin="round" />
  <path d="M18.38,108.03 C18.12,108.24 17.90,108.49 17.74,108.76" fill="currentColor" stroke="currentColor" stroke-width="1.2" stroke-linecap="round" stroke-linejoin="round" />
  <path d="M18.93,108.69 C19.12,108.51 19.37,108.36 19.66,108.26" fill="currentColor" stroke="currentColor" stroke-width="1.2" stroke-linecap="round" stroke-linejoin="round" />
  <path d="M18.49,109.29 C18.59,109.07 18.74,108.87 18.93,108.69" fill="currentColor" stroke="currentColor" stroke-width="1.2" stroke-linecap="round" stroke-linejoin="round" />
  <path d="M17.74,108.76 C17.57,109.04 17.45,109.33 17.37,109.64" fill="currentColor" stroke="currentColor" stroke-width="1.2" stroke-linecap="round" stroke-linejoin="round" />
  <line x1="20.75" y1="108.16" x2="20.34" y2="111.01" fill="currentColor" stroke="currentColor" stroke-width="1.2" stroke-linecap="round" stroke-linejoin="round" />
  <path d="M11.00,106.33 C13.47,107.47 15.18,109.96 15.18,112.85" fill="none" stroke="currentColor" stroke-width="1.0" stroke-linecap="round" stroke-linejoin="round" />
  <path d="M18.27,109.91 C18.31,109.71 18.38,109.50 18.49,109.29" fill="currentColor" stroke="currentColor" stroke-width="1.2" stroke-linecap="round" stroke-linejoin="round" />
  <line x1="21.08" y1="112.44" x2="21.77" y2="107.50" fill="currentColor" stroke="currentColor" stroke-width="1.2" stroke-linecap="round" stroke-linejoin="round" />
  <path d="M17.37,109.64 C17.29,109.95 17.25,110.26 17.25,110.58" fill="currentColor" stroke="currentColor" stroke-width="1.2" stroke-linecap="round" stroke-linejoin="round" />
  <path d="M18.21,110.42 C18.20,110.28 18.22,110.11 18.27,109.91" fill="currentColor" stroke="currentColor" stroke-width="1.2" stroke-linecap="round" stroke-linejoin="round" />
  <path d="M18.33,111.12 C18.25,110.92 18.21,110.68 18.21,110.42" fill="currentColor" stroke="currentColor" stroke-width="1.2" stroke-linecap="round" stroke-linejoin="round" />
  <path d="M17.25,110.58 C17.25,110.94 17.33,111.27 17.47,111.57" fill="currentColor" stroke="currentColor" stroke-width="1.2" stroke-linecap="round" stroke-linejoin="round" />
  <path d="M20.34,111.01 C20.24,111.14 20.13,111.26 20.00,111.38" fill="currentColor" stroke="currentColor" stroke-width="1.2" stroke-linecap="round" stroke-linejoin="round" />
  <path d="M18.68,111.59 C18.53,111.48 18.42,111.32 18.33,111.12" fill="currentColor" stroke="currentColor" stroke-width="1.2" stroke-linecap="round" stroke-linejoin="round" />
  <path d="M20.00,111.38 C19.86,111.49 19.73,111.58 19.59,111.66" fill="currentColor" stroke="currentColor" stroke-width="1.2" stroke-linecap="round" stroke-linejoin="round" />
  <path d="M19.18,111.77 C18.99,111.77 18.82,111.71 18.68,111.59" fill="currentColor" stroke="currentColor" stroke-width="1.2" stroke-linecap="round" stroke-linejoin="round" />
  <path d="M19.59,111.66 C19.45,111.73 19.31,111.77 19.18,111.77" fill="currentColor" stroke="currentColor" stroke-width="1.2" stroke-linecap="round" stroke-linejoin="round" />
  <line x1="20.21" y1="111.84" x2="20.23" y2="111.87" fill="currentColor" stroke="currentColor" stroke-width="1.2" stroke-linecap="round" stroke-linejoin="round" />
  <path d="M17.47,111.57 C17.61,111.86 17.81,112.10 18.05,112.27" fill="currentColor" stroke="currentColor" stroke-width="1.2" stroke-linecap="round" stroke-linejoin="round" />
  <path d="M19.58,112.35 C19.80,112.22 20.01,112.06 20.21,111.84" fill="currentColor" stroke="currentColor" stroke-width="1.2" stroke-linecap="round" stroke-linejoin="round" />
  <line x1="20.23" y1="111.87" x2="20.14" y2="112.44" fill="currentColor" stroke="currentColor" stroke-width="1.2" stroke-linecap="round" stroke-linejoin="round" />
  <path d="M18.05,112.27 C18.29,112.44 18.57,112.53 18.88,112.54" fill="currentColor" stroke="currentColor" stroke-width="1.2" stroke-linecap="round" stroke-linejoin="round" />
  <line x1="20.14" y1="112.44" x2="21.08" y2="112.44" fill="currentColor" stroke="currentColor" stroke-width="1.2" stroke-linecap="round" stroke-linejoin="round" />
  <path d="M18.88,112.54 C19.12,112.54 19.35,112.47 19.58,112.35" fill="currentColor" stroke="currentColor" stroke-width="1.2" stroke-linecap="round" stroke-linejoin="round" />
  <path d="M15.18,112.85 C15.18,114.37 14.71,115.78 13.90,116.94" fill="none" stroke="currentColor" stroke-width="1.0" stroke-linecap="round" stroke-linejoin="round" />
  <path d="M164.78,113.20 C163.47,116.07 160.72,118.14 157.46,118.52" fill="none" stroke="currentColor" stroke-width="1.0" stroke-linecap="round" stroke-linejoin="round" />
  <path d="M165.83,118.54 C165.68,118.52 165.55,118.52 165.42,118.52" fill="currentColor" stroke="currentColor" stroke-width="1.2" stroke-linecap="round" stroke-linejoin="round" />
  <path d="M166.27,118.60 C166.12,118.58 165.97,118.55 165.83,118.54" fill="currentColor" stroke="currentColor" stroke-width="1.2" stroke-linecap="round" stroke-linejoin="round" />
  <path d="M165.42,118.52 C164.94,118.52 164.50,118.60 164.10,118.75" fill="currentColor" stroke="currentColor" stroke-width="1.2" stroke-linecap="round" stroke-linejoin="round" />
  <line x1="166.15" y1="119.43" x2="166.27" y2="118.60" fill="currentColor" stroke="currentColor" stroke-width="1.2" stroke-linecap="round" stroke-linejoin="round" />
  <path d="M164.10,118.75 C163.71,118.91 163.37,119.13 163.09,119.40" fill="currentColor" stroke="currentColor" stroke-width="1.2" stroke-linecap="round" stroke-linejoin="round" />
  <path d="M165.43,119.35 C165.55,119.35 165.67,119.36 165.78,119.37" fill="currentColor" stroke="currentColor" stroke-width="1.2" stroke-linecap="round" stroke-linejoin="round" />
  <path d="M165.78,119.37 C165.90,119.38 166.02,119.40 166.15,119.43" fill="currentColor" stroke="currentColor" stroke-width="1.2" stroke-linecap="round" stroke-linejoin="round" />
  <path d="M164.50,119.53 C164.78,119.41 165.09,119.35 165.43,119.35" fill="currentColor" stroke="currentColor" stroke-width="1.2" stroke-linecap="round" stroke-linejoin="round" />
  <path d="M163.79,120.00 C163.99,119.80 164.23,119.65 164.50,119.53" fill="currentColor" stroke="currentColor" stroke-width="1.2" stroke-linecap="round" stroke-linejoin="round" />
  <path d="M163.09,119.40 C162.81,119.67 162.60,119.99 162.45,120.34" fill="currentColor" stroke="currentColor" stroke-width="1.2" stroke-linecap="round" stroke-linejoin="round" />
  <path d="M163.34,120.66 C163.44,120.42 163.59,120.20 163.79,120.00" fill="currentColor" stroke="currentColor" stroke-width="1.2" stroke-linecap="round" stroke-linejoin="round" />
  <path d="M162.45,120.34 C162.30,120.70 162.23,121.08 162.22,121.49" fill="currentColor" stroke="currentColor" stroke-width="1.2" stroke-linecap="round" stroke-linejoin="round" />
  <path d="M163.18,121.43 C163.18,121.17 163.23,120.91 163.34,120.66" fill="currentColor" stroke="currentColor" stroke-width="1.2" stroke-linecap="round" stroke-linejoin="round" />
  <path d="M163.54,122.53 C163.31,122.27 163.18,121.90 163.18,121.43" fill="currentColor" stroke="currentColor" stroke-width="1.2" stroke-linecap="round" stroke-linejoin="round" />
  <path d="M162.22,121.49 C162.23,121.95 162.32,122.35 162.49,122.69" fill="currentColor" stroke="currentColor" stroke-width="1.2" stroke-linecap="round" stroke-linejoin="round" />
  <path d="M165.89,122.51 C165.66,122.65 165.44,122.75 165.22,122.82" fill="currentColor" stroke="currentColor" stroke-width="1.2" stroke-linecap="round" stroke-linejoin="round" />
  <path d="M164.53,122.93 C164.11,122.92 163.78,122.79 163.54,122.53" fill="currentColor" stroke="currentColor" stroke-width="1.2" stroke-linecap="round" stroke-linejoin="round" />
  <path d="M165.22,122.82 C165.01,122.89 164.78,122.93 164.53,122.93" fill="currentColor" stroke="currentColor" stroke-width="1.2" stroke-linecap="round" stroke-linejoin="round" />
  <line x1="165.78" y1="123.41" x2="165.89" y2="122.51" fill="currentColor" stroke="currentColor" stroke-width="1.2" stroke-linecap="round" stroke-linejoin="round" />
  <path d="M162.49,122.69 C162.67,123.03 162.92,123.29 163.25,123.48" fill="currentColor" stroke="currentColor" stroke-width="1.2" stroke-linecap="round" stroke-linejoin="round" />
  <path d="M165.10,123.68 C165.32,123.62 165.54,123.53 165.78,123.41" fill="currentColor" stroke="currentColor" stroke-width="1.2" stroke-linecap="round" stroke-linejoin="round" />
  <path d="M163.25,123.48 C163.57,123.66 163.95,123.76 164.40,123.76" fill="currentColor" stroke="currentColor" stroke-width="1.2" stroke-linecap="round" stroke-linejoin="round" />
  <path d="M164.40,123.76 C164.65,123.76 164.88,123.74 165.10,123.68" fill="currentColor" stroke="currentColor" stroke-width="1.2" stroke-linecap="round" stroke-linejoin="round" />
  <line x1="66.21" y1="153.01" x2="8.00" y2="112.85" fill="none" stroke="currentColor" stroke-width="1.2" stroke-linecap="round" stroke-linejoin="round" />
  <polygon points="60.41,149.01 64.41,143.20 70.21,147.20 66.21,153.01" fill="none" stroke="currentColor" stroke-width="1.0" stroke-linecap="round" stroke-linejoin="round" />
</svg>