<svg xmlns="http://www.w3.org/2000/svg" viewBox="0 0 183.32 185.12" preserveAspectRatio="xMidYMid meet" shape-rendering="geometricPrecision" text-rendering="optimizeLegibility">
  <line x1="90.04" y1="17.72" x2="86.80" y2="8.00" fill="currentColor" stroke="currentColor" stroke-width="1.2" stroke-linecap="round" stroke-linejoin="round" />
  <line x1="86.80" y1="8.00" x2="83.56" y2="17.72" fill="currentColor" stroke="currentColor" stroke-width="1.2" stroke-linecap="round" stroke-linejoin="round" />
  <path d="M79.17,13.95 C79.23,13.95 79.29,13.95 79.37,13.95" fill="currentColor" stroke="currentColor" stroke-width="1.2" stroke-linecap="round" stroke-linejoin="round" />
  <path d="M79.37,13.95 C79.46,13.95 79.53,13.95 79.58,13.95" fill="currentColor" stroke="currentColor" stroke-width="1.2" stroke-linecap="round" stroke-linejoin="round" />
  <path d="M82.31,13.95 C82.37,13.95 82.44,13.95 82.53,13.95" fill="currentColor" stroke="currentColor" stroke-width="1.2" stroke-linecap="round" stroke-linejoin="round" />
  <path d="M82.53,13.95 C82.68,13.95 82.77,13.96 82.82,13.98" fill="currentColor" stroke="currentColor" stroke-width="1.2" stroke-linecap="round" stroke-linejoin="round" />
  <path d="M79.58,13.95 C79.63,13.96 79.67,13.97 79.69,13.98" fill="currentColor" stroke="currentColor" stroke-width="1.2" stroke-linecap="round" stroke-linejoin="round" />
  <path d="M82.17,13.98 C82.20,13.97 82.25,13.96 82.31,13.95" fill="currentColor" stroke="currentColor" stroke-width="1.2" stroke-linecap="round" stroke-linejoin="round" />
  <path d="M79.04,13.98 C79.08,13.97 79.12,13.96 79.17,13.95" fill="currentColor" stroke="currentColor" stroke-width="1.2" stroke-linecap="round" stroke-linejoin="round" />
  <path d="M82.09,14.03 C82.11,14.01 82.14,13.99 82.17,13.98" fill="currentColor" stroke="currentColor" stroke-width="1.2" stroke-linecap="round" stroke-linejoin="round" />
  <path d="M79.69,13.98 C79.72,13.99 79.74,14.01 79.75,14.03" fill="currentColor" stroke="currentColor" stroke-width="1.2" stroke-linecap="round" stroke-linejoin="round" />
  <path d="M78.98,14.04 C78.99,14.02 79.01,14.00 79.04,13.98" fill="currentColor" stroke="currentColor" stroke-width="1.2" stroke-linecap="round" stroke-linejoin="round" />
  <path d="M82.82,13.98 C82.87,14.00 82.90,14.02 82.90,14.06" fill="currentColor" stroke="currentColor" stroke-width="1.2" stroke-linecap="round" stroke-linejoin="round" />
  <path d="M82.06,14.09 C82.06,14.07 82.07,14.05 82.09,14.03" fill="currentColor" stroke="currentColor" stroke-width="1.2" stroke-linecap="round" stroke-linejoin="round" />
  <path d="M79.75,14.03 C79.76,14.05 79.77,14.08 79.78,14.11" fill="currentColor" stroke="currentColor" stroke-width="1.2" stroke-linecap="round" stroke-linejoin="round" />
  <path d="M78.96,14.13 C78.96,14.10 78.97,14.07 78.98,14.04" fill="currentColor" stroke="currentColor" stroke-width="1.2" stroke-linecap="round" stroke-linejoin="round" />
  <path d="M82.90,14.06 C82.90,14.10 82.89,14.14 82.89,14.17" fill="currentColor" stroke="currentColor" stroke-width="1.2" stroke-linecap="round" stroke-linejoin="round" />
  <path d="M78.96,14.22 C78.96,14.18 78.96,14.15 78.96,14.13" fill="currentColor" stroke="currentColor" stroke-width="1.2" stroke-linecap="round" stroke-linejoin="round" />
  <path d="M82.89,14.17 C82.88,14.21 82.87,14.25 82.85,14.28" fill="currentColor" stroke="currentColor" stroke-width="1.2" stroke-linecap="round" stroke-linejoin="round" />
  <path d="M78.98,14.32 C78.97,14.28 78.97,14.25 78.96,14.22" fill="currentColor" stroke="currentColor" stroke-width="1.2" stroke-linecap="round" stroke-linejoin="round" />
  <path d="M81.73,15.03 C81.85,14.72 81.95,14.41 82.06,14.09" fill="currentColor" stroke="currentColor" stroke-width="1.2" stroke-linecap="round" stroke-linejoin="round" />
  <path d="M82.85,14.28 C82.74,14.57 82.63,14.88 82.50,15.20" fill="currentColor" stroke="currentColor" stroke-width="1.2" stroke-linecap="round" stroke-linejoin="round" />
  <path d="M81.35,15.94 C81.49,15.64 81.62,15.34 81.73,15.03" fill="currentColor" stroke="currentColor" stroke-width="1.2" stroke-linecap="round" stroke-linejoin="round" />
  <path d="M82.50,15.20 C82.37,15.52 82.22,15.86 82.06,16.21" fill="currentColor" stroke="currentColor" stroke-width="1.2" stroke-linecap="round" stroke-linejoin="round" />
  <line x1="79.78" y1="14.11" x2="80.35" y2="17.70" fill="currentColor" stroke="currentColor" stroke-width="1.2" stroke-linecap="round" stroke-linejoin="round" />
  <path d="M80.90,16.83 C81.07,16.54 81.22,16.24 81.35,15.94" fill="currentColor" stroke="currentColor" stroke-width="1.2" stroke-linecap="round" stroke-linejoin="round" />
  <line x1="79.71" y1="18.61" x2="78.98" y2="14.32" fill="currentColor" stroke="currentColor" stroke-width="1.2" stroke-linecap="round" stroke-linejoin="round" />
  <path d="M82.06,16.21 C81.89,16.56 81.69,16.93 81.46,17.31" fill="currentColor" stroke="currentColor" stroke-width="1.2" stroke-linecap="round" stroke-linejoin="round" />
  <line x1="83.56" y1="17.72" x2="86.80" y2="16.64" fill="currentColor" stroke="currentColor" stroke-width="1.2" stroke-linecap="round" stroke-linejoin="round" />
  <line x1="86.80" y1="16.64" x2="90.04" y2="17.72" fill="currentColor" stroke="currentColor" stroke-width="1.2" stroke-linecap="round" stroke-linejoin="round" />
  <path d="M80.36,17.70 C80.56,17.41 80.74,17.13 80.90,16.83" fill="currentColor" stroke="currentColor" stroke-width="1.2" stroke-linecap="round" stroke-linejoin="round" />
  <line x1="80.35" y1="17.70" x2="80.36" y2="17.70" fill="currentColor" stroke="currentColor" stroke-width="1.2" stroke-linecap="round" stroke-linejoin="round" />
  <path d="M81.46,17.31 C81.24,17.69 80.97,18.09 80.65,18.51" fill="currentColor" stroke="currentColor" stroke-width="1.2" stroke-linecap="round" stroke-linejoin="round" />
  <line x1="80.65" y1="18.51" x2="79.39" y2="20.23" fill="currentColor" stroke="currentColor" stroke-width="1.2" stroke-linecap="round" stroke-linejoin="round" />
  <line x1="78.52" y1="20.14" x2="79.71" y2="18.61" fill="currentColor" stroke="currentColor" stroke-width="1.2" stroke-linecap="round" stroke-linejoin="round" />
  <path d="M78.46,20.26 C78.46,20.23 78.48,20.19 78.52,20.14" fill="currentColor" stroke="currentColor" stroke-width="1.2" stroke-linecap="round" stroke-linejoin="round" />
  <path d="M79.39,20.23 C79.37,20.26 79.35,20.28 79.32,20.30" fill="currentColor" stroke="currentColor" stroke-width="1.2" stroke-linecap="round" stroke-linejoin="round" />
  <path d="M78.50,20.34 C78.47,20.32 78.45,20.29 78.46,20.26" fill="currentColor" stroke="currentColor" stroke-width="1.2" stroke-linecap="round" stroke-linejoin="round" />
  <path d="M79.32,20.30 C79.29,20.32 79.25,20.34 79.21,20.35" fill="currentColor" stroke="currentColor" stroke-width="1.2" stroke-linecap="round" stroke-linejoin="round" />
  <path d="M78.63,20.38 C78.57,20.37 78.53,20.36 78.50,20.34" fill="currentColor" stroke="currentColor" stroke-width="1.2" stroke-linecap="round" stroke-linejoin="round" />
  <path d="M79.21,20.35 C79.17,20.37 79.12,20.38 79.06,20.38" fill="currentColor" stroke="currentColor" stroke-width="1.2" stroke-linecap="round" stroke-linejoin="round" />
  <path d="M78.84,20.39 C78.75,20.39 78.68,20.39 78.63,20.38" fill="currentColor" stroke="currentColor" stroke-width="1.2" stroke-linecap="round" stroke-linejoin="round" />
  <path d="M79.06,20.38 C78.99,20.39 78.92,20.39 78.84,20.39" fill="currentColor" stroke="currentColor" stroke-width="1.2" stroke-linecap="round" stroke-linejoin="round" />
  <line x1="14.09" y1="31.15" x2="159.52" y2="31.15" fill="none" stroke="currentColor" stroke-width="1.0" stroke-linecap="round" stroke-linejoin="round" />
  <line x1="14.09" y1="44.58" x2="159.52" y2="44.58" fill="none" stroke="currentColor" stroke-width="1.0" stroke-linecap="round" stroke-linejoin="round" />
  <line x1="14.09" y1="58.01" x2="159.52" y2="58.01" fill="none" stroke="currentColor" stroke-width="1.0" stroke-linecap="round" stroke-linejoin="round" />
  <line x1="14.09" y1="71.45" x2="159.52" y2="71.45" fill="none" stroke="currentColor" stroke-width="1.0" stroke-linecap="round" stroke-linejoin="round" />
  <path d="M81.27,81.70 C81.31,81.70 81.36,81.70 81.42,81.70" fill="currentColor" stroke="currentColor" stroke-width="1.2" stroke-linecap="round" stroke-linejoin="round" />
  <path d="M81.42,81.70 C81.50,81.70 81.56,81.70 81.62,81.71" fill="currentColor" stroke="currentColor" stroke-width="1.2" stroke-linecap="round" stroke-linejoin="round" />
  <path d="M81.17,81.71 C81.20,81.71 81.24,81.70 81.27,81.70" fill="currentColor" stroke="currentColor" stroke-width="1.2" stroke-linecap="round" stroke-linejoin="round" />
  <path d="M81.62,81.71 C81.67,81.71 81.71,81.72 81.74,81.73" fill="currentColor" stroke="currentColor" stroke-width="1.2" stroke-linecap="round" stroke-linejoin="round" />
  <path d="M81.10,81.73 C81.12,81.72 81.14,81.72 81.17,81.71" fill="currentColor" stroke="currentColor" stroke-width="1.2" stroke-linecap="round" stroke-linejoin="round" />
  <path d="M81.05,81.76 C81.06,81.75 81.08,81.74 81.10,81.73" fill="currentColor" stroke="currentColor" stroke-width="1.2" stroke-linecap="round" stroke-linejoin="round" />
  <path d="M81.74,81.73 C81.77,81.75 81.79,81.76 81.80,81.78" fill="currentColor" stroke="currentColor" stroke-width="1.2" stroke-linecap="round" stroke-linejoin="round" />
  <path d="M81.80,81.78 C81.81,81.80 81.81,81.81 81.81,81.83" fill="currentColor" stroke="currentColor" stroke-width="1.2" stroke-linecap="round" stroke-linejoin="round" />
  <line x1="79.59" y1="82.69" x2="81.05" y2="81.76" fill="currentColor" stroke="currentColor" stroke-width="1.2" stroke-linecap="round" stroke-linejoin="round" />
  <path d="M79.52,82.75 C79.54,82.73 79.57,82.71 79.59,82.69" fill="currentColor" stroke="currentColor" stroke-width="1.2" stroke-linecap="round" stroke-linejoin="round" />
  <path d="M79.48,82.82 C79.49,82.79 79.51,82.77 79.52,82.75" fill="currentColor" stroke="currentColor" stroke-width="1.2" stroke-linecap="round" stroke-linejoin="round" />
  <path d="M79.46,82.91 C79.47,82.87 79.47,82.84 79.48,82.82" fill="currentColor" stroke="currentColor" stroke-width="1.2" stroke-linecap="round" stroke-linejoin="round" />
  <line x1="80.97" y1="82.58" x2="79.75" y2="83.31" fill="currentColor" stroke="currentColor" stroke-width="1.2" stroke-linecap="round" stroke-linejoin="round" />
  <path d="M79.45,83.05 C79.45,83.00 79.46,82.95 79.46,82.91" fill="currentColor" stroke="currentColor" stroke-width="1.2" stroke-linecap="round" stroke-linejoin="round" />
  <path d="M79.47,83.24 C79.46,83.19 79.45,83.13 79.45,83.05" fill="currentColor" stroke="currentColor" stroke-width="1.2" stroke-linecap="round" stroke-linejoin="round" />
  <path d="M79.51,83.35 C79.49,83.32 79.47,83.29 79.47,83.24" fill="currentColor" stroke="currentColor" stroke-width="1.2" stroke-linecap="round" stroke-linejoin="round" />
  <path d="M79.75,83.31 C79.69,83.34 79.64,83.36 79.60,83.37" fill="currentColor" stroke="currentColor" stroke-width="1.2" stroke-linecap="round" stroke-linejoin="round" />
  <path d="M79.60,83.37 C79.56,83.37 79.53,83.37 79.51,83.35" fill="currentColor" stroke="currentColor" stroke-width="1.2" stroke-linecap="round" stroke-linejoin="round" />
  <line x1="81.81" y1="81.83" x2="81.81" y2="87.39" fill="currentColor" stroke="currentColor" stroke-width="1.2" stroke-linecap="round" stroke-linejoin="round" />
  <line x1="84.14" y1="84.88" x2="89.46" y2="84.88" fill="none" stroke="currentColor" stroke-width="1.000000011920929" stroke-linecap="round" stroke-linejoin="round" />
  <line x1="14.09" y1="84.88" x2="159.52" y2="84.88" fill="none" stroke="currentColor" stroke-width="1.0" stroke-linecap="round" stroke-linejoin="round" />
  <line x1="80.97" y1="87.39" x2="80.97" y2="82.58" fill="currentColor" stroke="currentColor" stroke-width="1.2" stroke-linecap="round" stroke-linejoin="round" />
  <line x1="79.65" y1="87.39" x2="80.97" y2="87.39" fill="currentColor" stroke="currentColor" stroke-width="1.2" stroke-linecap="round" stroke-linejoin="round" />
  <line x1="81.81" y1="87.39" x2="82.95" y2="87.39" fill="currentColor" stroke="currentColor" stroke-width="1.2" stroke-linecap="round" stroke-linejoin="round" />
  <path d="M79.58,87.41 C79.60,87.39 79.63,87.39 79.65,87.39" fill="currentColor" stroke="currentColor" stroke-width="1.2" stroke-linecap="round" stroke-linejoin="round" />
  <path d="M82.95,87.39 C82.98,87.39 83.00,87.39 83.03,87.41" fill="currentColor" stroke="currentColor" stroke-width="1.2" stroke-linecap="round" stroke-linejoin="round" />
  <path d="M79.53,87.47 C79.54,87.44 79.56,87.42 79.58,87.41" fill="currentColor" stroke="currentColor" stroke-width="1.2" stroke-linecap="round" stroke-linejoin="round" />
  <path d="M83.03,87.41 C83.05,87.42 83.07,87.44 83.08,87.47" fill="currentColor" stroke="currentColor" stroke-width="1.2" stroke-linecap="round" stroke-linejoin="round" />
  <path d="M79.49,87.58 C79.50,87.53 79.51,87.50 79.53,87.47" fill="currentColor" stroke="currentColor" stroke-width="1.2" stroke-linecap="round" stroke-linejoin="round" />
  <path d="M83.08,87.47 C83.10,87.50 83.11,87.53 83.12,87.58" fill="currentColor" stroke="currentColor" stroke-width="1.2" stroke-linecap="round" stroke-linejoin="round" />
  <path d="M79.48,87.73 C79.48,87.67 79.48,87.62 79.49,87.58" fill="currentColor" stroke="currentColor" stroke-width="1.2" stroke-linecap="round" stroke-linejoin="round" />
  <path d="M83.12,87.58 C83.13,87.62 83.13,87.67 83.13,87.73" fill="currentColor" stroke="currentColor" stroke-width="1.2" stroke-linecap="round" stroke-linejoin="round" />
  <path d="M83.13,87.73 C83.13,87.79 83.12,87.84 83.12,87.88" fill="currentColor" stroke="currentColor" stroke-width="1.2" stroke-linecap="round" stroke-linejoin="round" />
  <path d="M79.49,87.88 C79.48,87.84 79.48,87.79 79.48,87.73" fill="currentColor" stroke="currentColor" stroke-width="1.2" stroke-linecap="round" stroke-linejoin="round" />
  <path d="M83.12,87.88 C83.11,87.93 83.09,87.96 83.08,87.99" fill="currentColor" stroke="currentColor" stroke-width="1.2" stroke-linecap="round" stroke-linejoin="round" />
  <path d="M79.53,87.99 C79.52,87.96 79.50,87.93 79.49,87.88" fill="currentColor" stroke="currentColor" stroke-width="1.2" stroke-linecap="round" stroke-linejoin="round" />
  <path d="M83.08,87.99 C83.06,88.01 83.04,88.03 83.02,88.04" fill="currentColor" stroke="currentColor" stroke-width="1.2" stroke-linecap="round" stroke-linejoin="round" />
  <path d="M79.59,88.04 C79.57,88.03 79.55,88.01 79.53,87.99" fill="currentColor" stroke="currentColor" stroke-width="1.2" stroke-linecap="round" stroke-linejoin="round" />
  <path d="M83.02,88.04 C83.00,88.05 82.98,88.06 82.95,88.06" fill="currentColor" stroke="currentColor" stroke-width="1.2" stroke-linecap="round" stroke-linejoin="round" />
  <path d="M79.65,88.06 C79.63,88.06 79.61,88.05 79.59,88.04" fill="currentColor" stroke="currentColor" stroke-width="1.2" stroke-linecap="round" stroke-linejoin="round" />
  <line x1="82.95" y1="88.06" x2="79.65" y2="88.06" fill="currentColor" stroke="currentColor" stroke-width="1.2" stroke-linecap="round" stroke-linejoin="round" />
  <line x1="86.80" y1="177.12" x2="86.80" y2="16.10" fill="none" stroke="currentColor" stroke-width="1.4000000476837158" stroke-linecap="round" stroke-linejoin="round" />
  <line x1="165.60" y1="95.07" x2="166.68" y2="98.31" fill="currentColor" stroke="currentColor" stroke-width="1.2" stroke-linecap="round" stroke-linejoin="round" />
  <line x1="175.32" y1="98.31" x2="165.60" y2="95.07" fill="currentColor" stroke="currentColor" stroke-width="1.2" stroke-linecap="round" stroke-linejoin="round" />
  <line x1="100.24" y1="100.96" x2="100.24" y2="95.66" fill="none" stroke="currentColor" stroke-width="1.000000011920929" stroke-linecap="round" stroke-linejoin="round" />
  <line x1="19.64" y1="170.57" x2="19.64" y2="26.05" fill="none" stroke="currentColor" stroke-width="1.0" stroke-linecap="round" stroke-linejoin="round" />
  <line x1="33.08" y1="170.57" x2="33.08" y2="26.05" fill="none" stroke="currentColor" stroke-width="1.0" stroke-linecap="round" stroke-linejoin="round" />
  <line x1="46.51" y1="170.57" x2="46.51" y2="26.05" fill="none" stroke="currentColor" stroke-width="1.0" stroke-linecap="round" stroke-linejoin="round" />
  <line x1="59.94" y1="170.57" x2="59.94" y2="26.05" fill="none" stroke="currentColor" stroke-width="1.0" stroke-linecap="round" stroke-linejoin="round" />
  <line x1="73.37" y1="170.57" x2="73.37" y2="26.05" fill="none" stroke="currentColor" stroke-width="1.0" stroke-linecap="round" stroke-linejoin="round" />
  <line x1="140.53" y1="170.57" x2="140.53" y2="26.05" fill="none" stroke="currentColor" stroke-width="1.0" stroke-linecap="round" stroke-linejoin="round" />
  <line x1="153.96" y1="170.57" x2="153.96" y2="26.05" fill="none" stroke="currentColor" stroke-width="1.0" stroke-linecap="round" stroke-linejoin="round" />
  <line x1="113.67" y1="170.57" x2="113.67" y2="26.05" fill="none" stroke="currentColor" stroke-width="1.0" stroke-linecap="round" stroke-linejoin="round" />
  <line x1="127.10" y1="170.57" x2="127.10" y2="26.05" fill="none" stroke="currentColor" stroke-width="1.0" stroke-linecap="round" stroke-linejoin="round" />
  <line x1="100.24" y1="170.57" x2="100.24" y2="26.05" fill="none" stroke="currentColor" stroke-width="1.0" stroke-linecap="round" stroke-linejoin="round" />
  <line x1="8.00" y1="98.31" x2="167.22" y2="98.31" fill="none" stroke="currentColor" stroke-width="1.4000000476837158" stroke-linecap="round" stroke-linejoin="round" />
  <line x1="77.13" y1="25.22" x2="150.21" y2="171.42" fill="none" stroke="currentColor" stroke-width="1.4000000476837158" stroke-linecap="round" stroke-linejoin="round" />
  <line x1="166.68" y1="98.31" x2="165.60" y2="101.55" fill="currentColor" stroke="currentColor" stroke-width="1.2" stroke-linecap="round" stroke-linejoin="round" />
  <line x1="165.60" y1="101.55" x2="175.32" y2="98.31" fill="currentColor" stroke="currentColor" stroke-width="1.2" stroke-linecap="round" stroke-linejoin="round" />
  <path d="M100.22,102.01 C100.26,102.01 100.31,102.01 100.36,102.01" fill="currentColor" stroke="currentColor" stroke-width="1.2" stroke-linecap="round" stroke-linejoin="round" />
  <path d="M100.36,102.01 C100.44,102.01 100.51,102.01 100.56,102.02" fill="currentColor" stroke="currentColor" stroke-width="1.2" stroke-linecap="round" stroke-linejoin="round" />
  <path d="M100.12,102.03 C100.15,102.02 100.18,102.01 100.22,102.01" fill="currentColor" stroke="currentColor" stroke-width="1.2" stroke-linecap="round" stroke-linejoin="round" />
  <path d="M100.56,102.02 C100.61,102.03 100.65,102.04 100.68,102.05" fill="currentColor" stroke="currentColor" stroke-width="1.2" stroke-linecap="round" stroke-linejoin="round" />
  <path d="M100.04,102.04 C100.06,102.04 100.09,102.03 100.12,102.03" fill="currentColor" stroke="currentColor" stroke-width="1.2" stroke-linecap="round" stroke-linejoin="round" />
  <path d="M99.99,102.07 C100.01,102.06 100.02,102.05 100.04,102.04" fill="currentColor" stroke="currentColor" stroke-width="1.2" stroke-linecap="round" stroke-linejoin="round" />
  <path d="M100.68,102.05 C100.71,102.06 100.73,102.07 100.74,102.09" fill="currentColor" stroke="currentColor" stroke-width="1.2" stroke-linecap="round" stroke-linejoin="round" />
  <path d="M100.74,102.09 C100.75,102.11 100.76,102.13 100.76,102.15" fill="currentColor" stroke="currentColor" stroke-width="1.2" stroke-linecap="round" stroke-linejoin="round" />
  <line x1="98.54" y1="103.00" x2="99.99" y2="102.07" fill="currentColor" stroke="currentColor" stroke-width="1.2" stroke-linecap="round" stroke-linejoin="round" />
  <path d="M98.47,103.06 C98.49,103.04 98.51,103.02 98.54,103.00" fill="currentColor" stroke="currentColor" stroke-width="1.2" stroke-linecap="round" stroke-linejoin="round" />
  <path d="M98.43,103.13 C98.44,103.10 98.45,103.08 98.47,103.06" fill="currentColor" stroke="currentColor" stroke-width="1.2" stroke-linecap="round" stroke-linejoin="round" />
  <path d="M98.40,103.23 C98.41,103.19 98.42,103.15 98.43,103.13" fill="currentColor" stroke="currentColor" stroke-width="1.2" stroke-linecap="round" stroke-linejoin="round" />
  <path d="M165.35,103.25 C165.45,103.25 165.52,103.25 165.57,103.26" fill="currentColor" stroke="currentColor" stroke-width="1.2" stroke-linecap="round" stroke-linejoin="round" />
  <path d="M168.07,103.26 C168.13,103.25 168.20,103.25 168.28,103.25" fill="currentColor" stroke="currentColor" stroke-width="1.2" stroke-linecap="round" stroke-linejoin="round" />
  <path d="M165.11,103.26 C165.17,103.25 165.25,103.25 165.35,103.25" fill="currentColor" stroke="currentColor" stroke-width="1.2" stroke-linecap="round" stroke-linejoin="round" />
  <path d="M168.28,103.25 C168.38,103.25 168.46,103.25 168.52,103.26" fill="currentColor" stroke="currentColor" stroke-width="1.2" stroke-linecap="round" stroke-linejoin="round" />
  <line x1="99.92" y1="102.89" x2="98.69" y2="103.62" fill="currentColor" stroke="currentColor" stroke-width="1.2" stroke-linecap="round" stroke-linejoin="round" />
  <path d="M165.57,103.26 C165.62,103.26 165.66,103.27 165.69,103.28" fill="currentColor" stroke="currentColor" stroke-width="1.2" stroke-linecap="round" stroke-linejoin="round" />
  <path d="M167.94,103.28 C167.97,103.27 168.02,103.26 168.07,103.26" fill="currentColor" stroke="currentColor" stroke-width="1.2" stroke-linecap="round" stroke-linejoin="round" />
  <path d="M168.52,103.26 C168.59,103.27 168.63,103.28 168.66,103.29" fill="currentColor" stroke="currentColor" stroke-width="1.2" stroke-linecap="round" stroke-linejoin="round" />
  <path d="M164.97,103.30 C165.00,103.28 165.05,103.27 165.11,103.26" fill="currentColor" stroke="currentColor" stroke-width="1.2" stroke-linecap="round" stroke-linejoin="round" />
  <path d="M98.40,103.37 C98.40,103.31 98.40,103.27 98.40,103.23" fill="currentColor" stroke="currentColor" stroke-width="1.2" stroke-linecap="round" stroke-linejoin="round" />
  <path d="M165.69,103.28 C165.72,103.29 165.74,103.30 165.75,103.32" fill="currentColor" stroke="currentColor" stroke-width="1.2" stroke-linecap="round" stroke-linejoin="round" />
  <path d="M167.85,103.32 C167.87,103.31 167.90,103.29 167.94,103.28" fill="currentColor" stroke="currentColor" stroke-width="1.2" stroke-linecap="round" stroke-linejoin="round" />
  <path d="M168.66,103.29 C168.69,103.31 168.70,103.33 168.70,103.37" fill="currentColor" stroke="currentColor" stroke-width="1.2" stroke-linecap="round" stroke-linejoin="round" />
  <path d="M164.92,103.38 C164.92,103.34 164.94,103.32 164.97,103.30" fill="currentColor" stroke="currentColor" stroke-width="1.2" stroke-linecap="round" stroke-linejoin="round" />
  <path d="M165.75,103.32 C165.76,103.34 165.77,103.35 165.78,103.38" fill="currentColor" stroke="currentColor" stroke-width="1.2" stroke-linecap="round" stroke-linejoin="round" />
  <path d="M167.80,103.38 C167.82,103.36 167.84,103.34 167.85,103.32" fill="currentColor" stroke="currentColor" stroke-width="1.2" stroke-linecap="round" stroke-linejoin="round" />
  <path d="M168.70,103.37 C168.69,103.40 168.67,103.43 168.63,103.48" fill="currentColor" stroke="currentColor" stroke-width="1.2" stroke-linecap="round" stroke-linejoin="round" />
  <path d="M164.94,103.49 C164.92,103.44 164.92,103.41 164.92,103.38" fill="currentColor" stroke="currentColor" stroke-width="1.2" stroke-linecap="round" stroke-linejoin="round" />
  <path d="M98.41,103.55 C98.40,103.50 98.40,103.44 98.40,103.37" fill="currentColor" stroke="currentColor" stroke-width="1.2" stroke-linecap="round" stroke-linejoin="round" />
  <path d="M98.46,103.66 C98.43,103.64 98.42,103.60 98.41,103.55" fill="currentColor" stroke="currentColor" stroke-width="1.2" stroke-linecap="round" stroke-linejoin="round" />
  <path d="M98.69,103.62 C98.63,103.65 98.58,103.67 98.55,103.68" fill="currentColor" stroke="currentColor" stroke-width="1.2" stroke-linecap="round" stroke-linejoin="round" />
  <path d="M98.55,103.68 C98.51,103.69 98.48,103.68 98.46,103.66" fill="currentColor" stroke="currentColor" stroke-width="1.2" stroke-linecap="round" stroke-linejoin="round" />
  <line x1="165.78" y1="103.38" x2="166.48" y2="105.02" fill="currentColor" stroke="currentColor" stroke-width="1.2" stroke-linecap="round" stroke-linejoin="round" />
  <line x1="166.48" y1="105.02" x2="167.80" y2="103.38" fill="currentColor" stroke="currentColor" stroke-width="1.2" stroke-linecap="round" stroke-linejoin="round" />
  <line x1="165.85" y1="105.54" x2="164.94" y2="103.49" fill="currentColor" stroke="currentColor" stroke-width="1.2" stroke-linecap="round" stroke-linejoin="round" />
  <line x1="168.63" y1="103.48" x2="166.91" y2="105.56" fill="currentColor" stroke="currentColor" stroke-width="1.2" stroke-linecap="round" stroke-linejoin="round" />
  <line x1="100.76" y1="102.15" x2="100.76" y2="107.70" fill="currentColor" stroke="currentColor" stroke-width="1.2" stroke-linecap="round" stroke-linejoin="round" />
  <line x1="99.92" y1="107.70" x2="99.92" y2="102.89" fill="currentColor" stroke="currentColor" stroke-width="1.2" stroke-linecap="round" stroke-linejoin="round" />
  <line x1="164.02" y1="107.71" x2="165.85" y2="105.54" fill="currentColor" stroke="currentColor" stroke-width="1.2" stroke-linecap="round" stroke-linejoin="round" />
  <line x1="166.91" y1="105.56" x2="167.87" y2="107.70" fill="currentColor" stroke="currentColor" stroke-width="1.2" stroke-linecap="round" stroke-linejoin="round" />
  <line x1="167.01" y1="107.81" x2="166.28" y2="106.08" fill="currentColor" stroke="currentColor" stroke-width="1.2" stroke-linecap="round" stroke-linejoin="round" />
  <line x1="166.28" y1="106.08" x2="164.90" y2="107.81" fill="currentColor" stroke="currentColor" stroke-width="1.2" stroke-linecap="round" stroke-linejoin="round" />
  <line x1="98.60" y1="107.70" x2="99.92" y2="107.70" fill="currentColor" stroke="currentColor" stroke-width="1.2" stroke-linecap="round" stroke-linejoin="round" />
  <line x1="100.76" y1="107.70" x2="101.90" y2="107.70" fill="currentColor" stroke="currentColor" stroke-width="1.2" stroke-linecap="round" stroke-linejoin="round" />
  <path d="M98.53,107.72 C98.55,107.71 98.57,107.70 98.60,107.70" fill="currentColor" stroke="currentColor" stroke-width="1.2" stroke-linecap="round" stroke-linejoin="round" />
  <path d="M101.90,107.70 C101.92,107.70 101.95,107.71 101.97,107.72" fill="currentColor" stroke="currentColor" stroke-width="1.2" stroke-linecap="round" stroke-linejoin="round" />
  <path d="M98.47,107.78 C98.49,107.76 98.51,107.74 98.53,107.72" fill="currentColor" stroke="currentColor" stroke-width="1.2" stroke-linecap="round" stroke-linejoin="round" />
  <path d="M101.97,107.72 C101.99,107.74 102.01,107.76 102.03,107.78" fill="currentColor" stroke="currentColor" stroke-width="1.2" stroke-linecap="round" stroke-linejoin="round" />
  <path d="M167.87,107.70 C167.89,107.75 167.90,107.79 167.89,107.82" fill="currentColor" stroke="currentColor" stroke-width="1.2" stroke-linecap="round" stroke-linejoin="round" />
  <path d="M163.97,107.82 C163.97,107.79 163.99,107.75 164.02,107.71" fill="currentColor" stroke="currentColor" stroke-width="1.2" stroke-linecap="round" stroke-linejoin="round" />
  <path d="M98.44,107.89 C98.45,107.85 98.46,107.81 98.47,107.78" fill="currentColor" stroke="currentColor" stroke-width="1.2" stroke-linecap="round" stroke-linejoin="round" />
  <path d="M102.03,107.78 C102.04,107.81 102.05,107.85 102.06,107.89" fill="currentColor" stroke="currentColor" stroke-width="1.2" stroke-linecap="round" stroke-linejoin="round" />
  <path d="M167.04,107.87 C167.03,107.85 167.02,107.83 167.01,107.81" fill="currentColor" stroke="currentColor" stroke-width="1.2" stroke-linecap="round" stroke-linejoin="round" />
  <path d="M164.90,107.81 C164.88,107.83 164.86,107.85 164.83,107.87" fill="currentColor" stroke="currentColor" stroke-width="1.2" stroke-linecap="round" stroke-linejoin="round" />
  <path d="M167.89,107.82 C167.89,107.85 167.87,107.87 167.83,107.89" fill="currentColor" stroke="currentColor" stroke-width="1.2" stroke-linecap="round" stroke-linejoin="round" />
  <path d="M164.00,107.89 C163.97,107.87 163.96,107.85 163.97,107.82" fill="currentColor" stroke="currentColor" stroke-width="1.2" stroke-linecap="round" stroke-linejoin="round" />
  <path d="M164.83,107.87 C164.81,107.89 164.78,107.90 164.74,107.91" fill="currentColor" stroke="currentColor" stroke-width="1.2" stroke-linecap="round" stroke-linejoin="round" />
  <path d="M167.10,107.92 C167.07,107.90 167.05,107.89 167.04,107.87" fill="currentColor" stroke="currentColor" stroke-width="1.2" stroke-linecap="round" stroke-linejoin="round" />
  <path d="M167.83,107.89 C167.79,107.91 167.74,107.93 167.68,107.94" fill="currentColor" stroke="currentColor" stroke-width="1.2" stroke-linecap="round" stroke-linejoin="round" />
  <path d="M164.13,107.94 C164.07,107.93 164.03,107.91 164.00,107.89" fill="currentColor" stroke="currentColor" stroke-width="1.2" stroke-linecap="round" stroke-linejoin="round" />
  <path d="M164.74,107.91 C164.71,107.92 164.66,107.93 164.60,107.94" fill="currentColor" stroke="currentColor" stroke-width="1.2" stroke-linecap="round" stroke-linejoin="round" />
  <path d="M167.22,107.94 C167.17,107.94 167.13,107.93 167.10,107.92" fill="currentColor" stroke="currentColor" stroke-width="1.2" stroke-linecap="round" stroke-linejoin="round" />
  <path d="M167.68,107.94 C167.62,107.94 167.54,107.95 167.43,107.95" fill="currentColor" stroke="currentColor" stroke-width="1.2" stroke-linecap="round" stroke-linejoin="round" />
  <path d="M164.36,107.95 C164.26,107.95 164.19,107.94 164.13,107.94" fill="currentColor" stroke="currentColor" stroke-width="1.2" stroke-linecap="round" stroke-linejoin="round" />
  <path d="M164.60,107.94 C164.54,107.94 164.46,107.95 164.36,107.95" fill="currentColor" stroke="currentColor" stroke-width="1.2" stroke-linecap="round" stroke-linejoin="round" />
  <path d="M167.43,107.95 C167.34,107.95 167.27,107.95 167.22,107.94" fill="currentColor" stroke="currentColor" stroke-width="1.2" stroke-linecap="round" stroke-linejoin="round" />
  <path d="M98.42,108.04 C98.42,107.98 98.43,107.93 98.44,107.89" fill="currentColor" stroke="currentColor" stroke-width="1.2" stroke-linecap="round" stroke-linejoin="round" />
  <path d="M102.06,107.89 C102.07,107.93 102.07,107.98 102.07,108.04" fill="currentColor" stroke="currentColor" stroke-width="1.2" stroke-linecap="round" stroke-linejoin="round" />
  <path d="M102.07,108.04 C102.07,108.10 102.07,108.15 102.06,108.20" fill="currentColor" stroke="currentColor" stroke-width="1.2" stroke-linecap="round" stroke-linejoin="round" />
  <path d="M98.44,108.20 C98.43,108.15 98.42,108.10 98.42,108.04" fill="currentColor" stroke="currentColor" stroke-width="1.2" stroke-linecap="round" stroke-linejoin="round" />
  <path d="M102.06,108.20 C102.05,108.24 102.04,108.27 102.02,108.30" fill="currentColor" stroke="currentColor" stroke-width="1.2" stroke-linecap="round" stroke-linejoin="round" />
  <path d="M98.48,108.30 C98.46,108.27 98.45,108.24 98.44,108.20" fill="currentColor" stroke="currentColor" stroke-width="1.2" stroke-linecap="round" stroke-linejoin="round" />
  <path d="M102.02,108.30 C102.00,108.33 101.99,108.34 101.96,108.36" fill="currentColor" stroke="currentColor" stroke-width="1.2" stroke-linecap="round" stroke-linejoin="round" />
  <path d="M98.53,108.36 C98.51,108.34 98.50,108.33 98.48,108.30" fill="currentColor" stroke="currentColor" stroke-width="1.2" stroke-linecap="round" stroke-linejoin="round" />
  <path d="M101.96,108.36 C101.94,108.37 101.92,108.37 101.90,108.37" fill="currentColor" stroke="currentColor" stroke-width="1.2" stroke-linecap="round" stroke-linejoin="round" />
  <path d="M98.60,108.37 C98.57,108.37 98.55,108.37 98.53,108.36" fill="currentColor" stroke="currentColor" stroke-width="1.2" stroke-linecap="round" stroke-linejoin="round" />
  <line x1="101.90" y1="108.37" x2="98.60" y2="108.37" fill="currentColor" stroke="currentColor" stroke-width="1.2" stroke-linecap="round" stroke-linejoin="round" />
  <line x1="14.09" y1="111.74" x2="159.52" y2="111.74" fill="none" stroke="currentColor" stroke-width="1.0" stroke-linecap="round" stroke-linejoin="round" />
  <line x1="14.09" y1="125.18" x2="159.52" y2="125.18" fill="none" stroke="currentColor" stroke-width="1.0" stroke-linecap="round" stroke-linejoin="round" />
  <line x1="14.09" y1="138.61" x2="159.52" y2="138.61" fill="none" stroke="currentColor" stroke-width="1.0" stroke-linecap="round" stroke-linejoin="round" />
  <line x1="14.09" y1="152.04" x2="159.52" y2="152.04" fill="none" stroke="currentColor" stroke-width="1.0" stroke-linecap="round" stroke-linejoin="round" />
  <line x1="14.09" y1="165.47" x2="159.52" y2="165.47" fill="none" stroke="currentColor" stroke-width="1.0" stroke-linecap="round" stroke-linejoin="round" />
</svg>