<svg xmlns="http://www.w3.org/2000/svg" viewBox="0 0 305.89 154.79" preserveAspectRatio="xMidYMid meet" shape-rendering="geometricPrecision" text-rendering="optimizeLegibility">
  <line x1="63.98" y1="97.06" x2="233.00" y2="97.06" fill="none" stroke="currentColor" stroke-width="1.4000000476837158" stroke-linecap="round" stroke-linejoin="round" />
  <line x1="233.00" y1="97.06" x2="149.76" y2="8.00" fill="none" stroke="currentColor" stroke-width="1.4000000476837158" stroke-linecap="round" stroke-linejoin="round" />
  <line x1="149.76" y1="8.00" x2="63.98" y2="97.06" fill="none" stroke="currentColor" stroke-width="1.4000000476837158" stroke-linecap="round" stroke-linejoin="round" />
  <line x1="8.00" y1="97.06" x2="297.89" y2="97.06" fill="none" stroke="currentColor" stroke-width="1.4000000476837158" stroke-linecap="round" stroke-linejoin="round" />
  <path d="M51.91,97.06 C51.91,94.34 52.84,91.61 54.74,89.38" fill="none" stroke="currentColor" stroke-width="1.000000011920929" stroke-linecap="round" stroke-linejoin="round" />
  <path d="M54.74,89.38 C58.97,84.41 66.45,83.81 71.43,88.05" fill="none" stroke="currentColor" stroke-width="1.000000011920929" stroke-linecap="round" stroke-linejoin="round" />
  <path d="M71.43,88.05 C71.65,88.24 71.87,88.44 72.08,88.65" fill="none" stroke="currentColor" stroke-width="1.000000011920929" stroke-linecap="round" stroke-linejoin="round" />
  <path d="M57.05,79.34C57.05,79.37 57.04,79.41 57.03,79.45C57.02,79.49 57.01,79.52 57.00,79.56C56.86,79.95 56.71,80.35 56.55,80.75C56.38,81.15 56.20,81.54 55.99,81.94C55.79,82.33 55.57,82.72 55.33,83.11C55.09,83.49 54.82,83.85 54.54,84.21C54.51,84.25 54.48,84.28 54.45,84.30C54.42,84.32 54.38,84.34 54.33,84.35C54.29,84.36 54.24,84.37 54.18,84.38C54.12,84.38 54.06,84.38 53.98,84.38C53.87,84.38 53.78,84.38 53.71,84.37C53.64,84.36 53.59,84.35 53.55,84.34C53.51,84.32 53.49,84.30 53.47,84.28C53.45,84.25 53.44,84.22 53.44,84.19L52.73,79.61C52.72,79.57 52.72,79.53 52.72,79.50C52.72,79.47 52.71,79.44 52.71,79.42C52.71,79.37 52.72,79.33 52.74,79.31C52.75,79.29 52.77,79.26 52.81,79.25C52.84,79.24 52.88,79.23 52.94,79.22C52.99,79.22 53.07,79.21 53.16,79.21C53.25,79.21 53.33,79.22 53.39,79.22C53.44,79.23 53.49,79.24 53.52,79.25C53.55,79.26 53.57,79.28 53.58,79.30C53.59,79.32 53.60,79.35 53.60,79.38L54.18,83.37L54.18,83.44L54.21,83.40C54.42,83.08 54.61,82.77 54.79,82.48C54.96,82.18 55.13,81.87 55.28,81.55C55.43,81.23 55.57,80.90 55.70,80.55C55.84,80.19 55.97,79.81 56.11,79.38C56.12,79.35 56.14,79.32 56.16,79.30C56.18,79.28 56.21,79.26 56.25,79.25C56.28,79.24 56.33,79.23 56.40,79.22C56.46,79.22 56.54,79.21 56.63,79.21C56.72,79.21 56.79,79.22 56.84,79.22C56.89,79.23 56.93,79.23 56.97,79.24C57.00,79.25 57.02,79.26 57.03,79.28C57.04,79.30 57.05,79.32 57.05,79.34Z" fill="currentColor" stroke="currentColor" stroke-width="1.2" stroke-linejoin="round" />
  <path d="M242.19,83.98C242.19,84.05 242.18,84.11 242.17,84.15C242.16,84.20 242.15,84.24 242.13,84.27C242.11,84.30 242.09,84.32 242.07,84.33C242.04,84.34 242.02,84.35 241.99,84.35L238.36,84.35C238.34,84.35 238.31,84.34 238.29,84.33C238.27,84.32 238.25,84.30 238.23,84.27C238.21,84.24 238.20,84.20 238.18,84.15C238.18,84.11 238.17,84.05 238.17,83.98C238.17,83.92 238.18,83.86 238.18,83.82C238.20,83.77 238.21,83.73 238.23,83.70C238.24,83.67 238.26,83.65 238.28,83.63C238.31,83.62 238.33,83.61 238.36,83.61L239.81,83.61L239.81,78.32L238.47,79.12C238.40,79.16 238.35,79.18 238.31,79.19C238.26,79.19 238.23,79.19 238.21,79.16C238.18,79.14 238.16,79.10 238.16,79.05C238.15,78.99 238.14,78.93 238.14,78.84C238.14,78.78 238.15,78.73 238.15,78.69C238.16,78.64 238.16,78.61 238.18,78.58C238.18,78.55 238.20,78.53 238.22,78.50C238.24,78.48 238.27,78.46 238.30,78.44L239.90,77.41C239.91,77.40 239.93,77.39 239.95,77.39C239.97,77.38 240.00,77.37 240.03,77.37C240.06,77.36 240.10,77.35 240.15,77.35C240.19,77.35 240.24,77.35 240.31,77.35C240.39,77.35 240.46,77.35 240.52,77.36C240.58,77.37 240.62,77.38 240.66,77.39C240.69,77.40 240.71,77.42 240.72,77.44C240.73,77.46 240.74,77.48 240.74,77.50L240.74,83.61L241.99,83.61C242.02,83.61 242.05,83.62 242.07,83.63C242.10,83.65 242.12,83.67 242.14,83.70C242.15,83.73 242.16,83.77 242.17,83.82C242.18,83.86 242.19,83.92 242.19,83.98Z" fill="currentColor" stroke="currentColor" stroke-width="1.2" stroke-linejoin="round" />
  <path d="M248.04,82.37C248.04,82.49 248.02,82.58 247.99,82.65C247.95,82.72 247.90,82.75 247.84,82.75L247.05,82.75L247.05,84.21C247.05,84.24 247.05,84.27 247.03,84.29C247.02,84.31 246.99,84.32 246.96,84.34C246.92,84.35 246.87,84.36 246.82,84.37C246.76,84.38 246.69,84.38 246.60,84.38C246.51,84.38 246.44,84.38 246.38,84.37C246.32,84.36 246.28,84.35 246.24,84.34C246.21,84.32 246.19,84.31 246.18,84.29C246.16,84.27 246.16,84.24 246.16,84.21L246.16,82.75L243.29,82.75C243.25,82.75 243.21,82.75 243.18,82.74C243.15,82.73 243.13,82.71 243.10,82.68C243.08,82.65 243.06,82.61 243.05,82.55C243.05,82.50 243.04,82.43 243.04,82.35C243.04,82.28 243.04,82.22 243.05,82.16C243.05,82.11 243.06,82.06 243.07,82.01C243.08,81.97 243.09,81.93 243.11,81.88C243.13,81.84 243.15,81.80 243.18,81.75L245.68,77.53C245.70,77.50 245.72,77.48 245.76,77.46C245.79,77.44 245.83,77.42 245.89,77.40C245.94,77.39 246.01,77.38 246.09,77.37C246.17,77.37 246.26,77.37 246.37,77.37C246.48,77.37 246.59,77.37 246.67,77.38C246.76,77.39 246.83,77.40 246.89,77.41C246.94,77.43 246.98,77.45 247.01,77.47C247.04,77.49 247.05,77.52 247.05,77.55L247.05,81.99L247.84,81.99C247.90,81.99 247.95,82.02 247.99,82.08C248.02,82.15 248.04,82.24 248.04,82.37ZM246.16,78.18L246.15,78.18L243.88,81.99L246.16,81.99L246.16,78.18Z" fill="currentColor" stroke="currentColor" stroke-width="1.2" stroke-linejoin="round" />
  <path d="M253.55,80.86C253.55,81.39 253.51,81.88 253.42,82.32C253.34,82.76 253.20,83.14 253.01,83.45C252.81,83.77 252.56,84.02 252.24,84.19C251.93,84.36 251.54,84.45 251.08,84.45C250.64,84.45 250.27,84.37 249.97,84.22C249.67,84.06 249.43,83.83 249.25,83.53C249.07,83.23 248.94,82.85 248.86,82.41C248.78,81.97 248.74,81.46 248.74,80.89C248.74,80.36 248.79,79.87 248.87,79.43C248.96,78.99 249.10,78.61 249.29,78.29C249.49,77.97 249.74,77.73 250.05,77.56C250.37,77.38 250.76,77.30 251.21,77.30C251.66,77.30 252.02,77.37 252.32,77.53C252.62,77.69 252.86,77.91 253.05,78.22C253.23,78.52 253.36,78.89 253.44,79.33C253.51,79.78 253.55,80.28 253.55,80.86ZM252.61,80.92C252.61,80.57 252.59,80.26 252.57,79.99C252.54,79.71 252.51,79.47 252.46,79.26C252.41,79.04 252.35,78.86 252.27,78.71C252.19,78.56 252.10,78.43 251.99,78.33C251.89,78.24 251.76,78.16 251.63,78.12C251.49,78.08 251.33,78.05 251.16,78.05C250.86,78.05 250.61,78.12 250.42,78.27C250.23,78.41 250.08,78.61 249.97,78.86C249.86,79.11 249.79,79.40 249.75,79.74C249.71,80.08 249.69,80.44 249.69,80.82C249.69,81.34 249.72,81.78 249.77,82.15C249.82,82.51 249.91,82.81 250.03,83.04C250.14,83.27 250.29,83.43 250.47,83.54C250.65,83.64 250.87,83.69 251.13,83.69C251.33,83.69 251.51,83.66 251.66,83.60C251.81,83.53 251.94,83.44 252.05,83.32C252.16,83.20 252.25,83.05 252.32,82.89C252.39,82.72 252.45,82.53 252.49,82.33C252.54,82.12 252.57,81.90 252.58,81.66C252.60,81.43 252.61,81.18 252.61,80.92Z" fill="currentColor" stroke="currentColor" stroke-width="1.2" stroke-linejoin="round" />
  <path d="M257.11,78.26C257.11,78.44 257.07,78.60 257.01,78.76C256.94,78.91 256.85,79.05 256.73,79.16C256.61,79.28 256.47,79.37 256.30,79.43C256.14,79.50 255.97,79.53 255.78,79.53C255.59,79.53 255.41,79.50 255.26,79.44C255.10,79.38 254.97,79.30 254.85,79.19C254.74,79.08 254.65,78.96 254.58,78.80C254.52,78.65 254.49,78.49 254.49,78.31C254.49,78.12 254.52,77.95 254.59,77.80C254.66,77.64 254.75,77.51 254.87,77.40C254.99,77.29 255.13,77.20 255.29,77.13C255.45,77.07 255.63,77.04 255.82,77.04C256.00,77.04 256.18,77.07 256.33,77.13C256.49,77.19 256.63,77.27 256.74,77.38C256.86,77.48 256.95,77.61 257.01,77.76C257.07,77.91 257.11,78.08 257.11,78.26ZM256.43,78.28C256.43,78.19 256.41,78.10 256.38,78.01C256.35,77.93 256.31,77.86 256.25,77.79C256.19,77.73 256.12,77.69 256.04,77.65C255.97,77.62 255.88,77.60 255.79,77.60C255.70,77.60 255.61,77.62 255.54,77.65C255.46,77.69 255.39,77.73 255.34,77.79C255.28,77.86 255.23,77.93 255.20,78.01C255.17,78.09 255.15,78.18 255.15,78.27C255.15,78.38 255.17,78.47 255.20,78.56C255.23,78.64 255.28,78.72 255.34,78.78C255.40,78.84 255.47,78.89 255.55,78.92C255.63,78.95 255.71,78.97 255.81,78.97C255.89,78.97 255.98,78.95 256.05,78.92C256.13,78.88 256.20,78.83 256.25,78.77C256.31,78.71 256.35,78.63 256.38,78.55C256.41,78.47 256.43,78.38 256.43,78.28Z" fill="currentColor" stroke="currentColor" stroke-width="1.2" stroke-linejoin="round" />
  <path d="M160.21,33.08C160.21,33.45 160.14,33.78 160.02,34.07C159.89,34.36 159.72,34.61 159.49,34.81C159.26,35.00 158.99,35.16 158.67,35.26C158.35,35.36 158.00,35.42 157.61,35.42C157.40,35.42 157.19,35.40 157.00,35.37C156.81,35.34 156.64,35.30 156.49,35.26C156.33,35.21 156.21,35.17 156.11,35.13C156.02,35.08 155.96,35.05 155.93,35.02C155.90,35.00 155.88,34.98 155.87,34.95C155.86,34.93 155.85,34.91 155.84,34.88C155.83,34.85 155.83,34.81 155.82,34.76C155.82,34.71 155.82,34.66 155.82,34.59C155.82,34.53 155.82,34.48 155.83,34.43C155.83,34.38 155.84,34.34 155.86,34.31C155.87,34.28 155.89,34.26 155.91,34.24C155.93,34.23 155.95,34.22 155.97,34.22C156.01,34.22 156.07,34.25 156.14,34.29C156.22,34.34 156.32,34.38 156.44,34.44C156.57,34.49 156.73,34.54 156.92,34.58C157.11,34.63 157.33,34.65 157.59,34.65C157.83,34.65 158.05,34.62 158.25,34.57C158.45,34.51 158.62,34.42 158.76,34.30C158.91,34.18 159.02,34.02 159.11,33.84C159.19,33.65 159.23,33.43 159.23,33.17C159.23,32.94 159.19,32.75 159.12,32.58C159.05,32.41 158.95,32.27 158.80,32.15C158.66,32.04 158.47,31.96 158.25,31.90C158.03,31.85 157.76,31.82 157.46,31.82C157.24,31.82 157.05,31.83 156.89,31.85C156.74,31.87 156.59,31.88 156.45,31.88C156.35,31.88 156.28,31.86 156.24,31.81C156.19,31.77 156.17,31.68 156.17,31.54L156.17,28.71C156.17,28.60 156.20,28.51 156.26,28.45C156.31,28.39 156.39,28.36 156.50,28.36L159.57,28.36C159.60,28.36 159.63,28.37 159.66,28.39C159.68,28.40 159.71,28.43 159.72,28.46C159.74,28.49 159.75,28.53 159.76,28.58C159.77,28.63 159.78,28.69 159.78,28.76C159.78,28.89 159.76,28.99 159.72,29.06C159.69,29.13 159.64,29.17 159.57,29.17L156.98,29.17L156.98,31.12C157.10,31.10 157.23,31.09 157.36,31.09C157.49,31.08 157.65,31.08 157.82,31.08C158.21,31.08 158.56,31.13 158.86,31.22C159.16,31.32 159.40,31.45 159.60,31.63C159.80,31.80 159.95,32.01 160.05,32.26C160.16,32.50 160.21,32.78 160.21,33.08Z" fill="currentColor" stroke="currentColor" stroke-width="1.2" stroke-linejoin="round" />
  <path d="M163.84,32.71L164.90,35.08C164.92,35.13 164.93,35.17 164.92,35.20C164.92,35.24 164.89,35.27 164.85,35.29C164.81,35.31 164.76,35.32 164.69,35.33C164.62,35.34 164.53,35.35 164.42,35.35C164.32,35.35 164.24,35.34 164.18,35.34C164.13,35.33 164.08,35.32 164.05,35.31C164.01,35.30 163.99,35.28 163.98,35.26C163.97,35.24 163.96,35.22 163.95,35.20L163.15,33.29L161.63,35.20C161.60,35.22 161.58,35.24 161.56,35.26C161.54,35.28 161.50,35.30 161.46,35.31C161.42,35.32 161.36,35.33 161.29,35.34C161.23,35.34 161.14,35.35 161.04,35.35C160.93,35.35 160.85,35.34 160.78,35.33C160.72,35.32 160.67,35.31 160.64,35.29C160.61,35.27 160.60,35.24 160.60,35.21C160.61,35.17 160.63,35.13 160.66,35.08L162.67,32.70L161.68,30.44C161.66,30.39 161.65,30.35 161.65,30.32C161.66,30.28 161.68,30.25 161.71,30.23C161.74,30.21 161.79,30.20 161.86,30.19C161.93,30.18 162.02,30.18 162.13,30.18C162.23,30.18 162.31,30.18 162.37,30.19C162.42,30.19 162.47,30.20 162.50,30.21C162.53,30.22 162.55,30.24 162.56,30.25C162.57,30.27 162.59,30.29 162.60,30.32L163.37,32.12L164.82,30.32C164.84,30.30 164.86,30.28 164.88,30.26C164.90,30.24 164.93,30.23 164.97,30.21C165.01,30.20 165.06,30.19 165.12,30.19C165.18,30.18 165.26,30.18 165.35,30.18C165.46,30.18 165.55,30.18 165.62,30.19C165.68,30.20 165.73,30.21 165.77,30.23C165.80,30.25 165.81,30.27 165.81,30.31C165.80,30.34 165.78,30.38 165.73,30.43L163.84,32.71Z" fill="currentColor" stroke="currentColor" stroke-width="1.2" stroke-linejoin="round" />
  <line x1="149.76" y1="8.00" x2="149.76" y2="146.79" fill="none" stroke="currentColor" stroke-width="1.4000000476837158" stroke-linecap="round" stroke-linejoin="round" />
  <path d="M139.49,18.78 C142.16,21.28 145.75,22.81 149.69,22.81" fill="none" stroke="currentColor" stroke-width="1.000000011920929" stroke-linecap="round" stroke-linejoin="round" />
  <path d="M149.74,25.86 C154.48,25.86 158.79,23.99 161.96,20.94" fill="none" stroke="currentColor" stroke-width="1.000000011920929" stroke-linecap="round" stroke-linejoin="round" />
  <path d="M224.89,88.41 C227.01,86.41 229.88,85.18 233.04,85.18" fill="none" stroke="currentColor" stroke-width="1.000000011920929" stroke-linecap="round" stroke-linejoin="round" />
  <path d="M233.04,85.18 C239.60,85.18 244.92,90.50 244.92,97.06" fill="none" stroke="currentColor" stroke-width="1.000000011920929" stroke-linecap="round" stroke-linejoin="round" />
  <rect x="149.69" y="97.06" width="9.97" height="9.97" fill="none" stroke="currentColor" stroke-width="1.000000011920929" stroke-linecap="round" stroke-linejoin="round" />
  <path d="M140.85,31.02C140.85,31.14 140.83,31.23 140.79,31.30C140.76,31.37 140.71,31.40 140.64,31.40L139.86,31.40L139.86,32.86C139.86,32.89 139.85,32.91 139.84,32.93C139.82,32.95 139.80,32.97 139.76,32.98C139.73,33.00 139.68,33.01 139.62,33.02C139.57,33.02 139.49,33.03 139.40,33.03C139.32,33.03 139.25,33.02 139.19,33.02C139.13,33.01 139.09,33.00 139.05,32.98C139.02,32.97 138.99,32.95 138.98,32.93C138.97,32.91 138.96,32.89 138.96,32.86L138.96,31.40L136.09,31.40C136.05,31.40 136.02,31.39 135.99,31.38C135.96,31.37 135.93,31.35 135.91,31.33C135.89,31.30 135.87,31.26 135.86,31.20C135.85,31.15 135.85,31.08 135.85,30.99C135.85,30.92 135.85,30.86 135.85,30.81C135.86,30.76 135.86,30.71 135.87,30.66C135.88,30.62 135.90,30.57 135.92,30.53C135.94,30.49 135.96,30.45 135.98,30.40L138.48,26.18C138.50,26.15 138.53,26.13 138.56,26.10C138.60,26.08 138.64,26.07 138.69,26.05C138.75,26.04 138.81,26.03 138.89,26.02C138.97,26.02 139.06,26.01 139.17,26.01C139.29,26.01 139.39,26.02 139.48,26.03C139.57,26.04 139.64,26.05 139.69,26.06C139.75,26.08 139.79,26.09 139.82,26.12C139.85,26.14 139.86,26.17 139.86,26.20L139.86,30.64L140.64,30.64C140.70,30.64 140.75,30.67 140.79,30.73C140.83,30.79 140.85,30.89 140.85,31.02ZM138.96,26.82L138.95,26.82L136.69,30.64L138.96,30.64L138.96,26.82Z" fill="currentColor" stroke="currentColor" stroke-width="1.2" stroke-linejoin="round" />
  <path d="M144.16,30.39L145.21,32.76C145.23,32.81 145.24,32.85 145.23,32.88C145.23,32.92 145.21,32.95 145.16,32.97C145.13,32.99 145.07,33.00 145.00,33.01C144.93,33.02 144.84,33.03 144.73,33.03C144.63,33.03 144.55,33.02 144.49,33.02C144.44,33.01 144.39,33.00 144.36,32.99C144.33,32.98 144.31,32.96 144.29,32.94C144.28,32.92 144.27,32.90 144.26,32.88L143.46,30.97L141.94,32.88C141.92,32.90 141.89,32.92 141.87,32.94C141.85,32.96 141.81,32.98 141.77,32.99C141.73,33.00 141.67,33.01 141.61,33.02C141.54,33.02 141.45,33.03 141.35,33.03C141.24,33.03 141.16,33.02 141.09,33.01C141.03,33.00 140.98,32.99 140.95,32.97C140.92,32.95 140.91,32.92 140.91,32.89C140.92,32.85 140.94,32.81 140.98,32.76L142.99,30.38L141.99,28.12C141.97,28.07 141.96,28.03 141.96,28.00C141.97,27.96 141.99,27.94 142.02,27.91C142.05,27.89 142.11,27.88 142.17,27.87C142.24,27.86 142.33,27.86 142.44,27.86C142.54,27.86 142.62,27.86 142.68,27.87C142.74,27.87 142.78,27.88 142.81,27.89C142.84,27.90 142.86,27.92 142.87,27.94C142.89,27.95 142.90,27.97 142.91,28.00L143.68,29.80L145.13,28.00C145.15,27.98 145.17,27.96 145.19,27.94C145.21,27.92 145.24,27.91 145.28,27.89C145.32,27.88 145.37,27.87 145.43,27.87C145.49,27.86 145.57,27.86 145.66,27.86C145.77,27.86 145.86,27.86 145.93,27.87C146.00,27.88 146.05,27.89 146.08,27.91C146.11,27.93 146.12,27.95 146.12,27.99C146.11,28.02 146.09,28.06 146.04,28.11L144.16,30.39Z" fill="currentColor" stroke="currentColor" stroke-width="1.2" stroke-linejoin="round" />
</svg>