<svg xmlns="http://www.w3.org/2000/svg" viewBox="0 0 139.52 139.52" preserveAspectRatio="xMidYMid meet" shape-rendering="geometricPrecision" text-rendering="optimizeLegibility">
  <path d="M26.08,37.00 C44.16,12.89 78.41,8.00 102.52,26.08" fill="none" stroke="currentColor" stroke-width="1.6" stroke-linecap="round" stroke-linejoin="round" />
  <path d="M107.84,30.40 C96.52,20.99 84.15,15.12 69.97,15.46" fill="currentColor" stroke="currentColor" stroke-width="1.1990000128746032" stroke-linecap="round" stroke-linejoin="round" />
  <line x1="69.97" y1="15.25" x2="69.97" y2="69.78" fill="none" stroke="currentColor" stroke-width="1.1990000128746032" stroke-linecap="round" stroke-linejoin="round" />
  <line x1="69.97" y1="15.46" x2="124.29" y2="69.78" fill="currentColor" stroke="currentColor" stroke-width="1.1990000128746032" stroke-linecap="round" stroke-linejoin="round" />
  <path d="M102.52,26.08 C126.62,44.16 131.52,78.41 113.43,102.52" fill="none" stroke="currentColor" stroke-width="1.6" stroke-linecap="round" stroke-linejoin="round" />
  <path d="M124.29,69.78 C123.95,56.14 119.68,42.89 107.84,30.40" fill="currentColor" stroke="currentColor" stroke-width="1.1990000128746032" stroke-linecap="round" stroke-linejoin="round" />
  <path d="M37.00,113.44 C12.89,95.35 8.00,61.11 26.08,37.00" fill="none" stroke="currentColor" stroke-width="1.6" stroke-linecap="round" stroke-linejoin="round" />
  <rect x="69.97" y="61.83" width="7.96" height="7.96" fill="none" stroke="currentColor" stroke-width="1.0" stroke-linecap="round" stroke-linejoin="round" />
  <path d="M68.82,69.79 C68.82,69.15 69.33,68.64 69.97,68.64" fill="currentColor" stroke="currentColor" stroke-width="1.2" stroke-linecap="round" stroke-linejoin="round" />
  <path d="M69.97,68.64 C70.60,68.64 71.11,69.15 71.11,69.79" fill="currentColor" stroke="currentColor" stroke-width="1.2" stroke-linecap="round" stroke-linejoin="round" />
  <line x1="69.97" y1="69.78" x2="124.45" y2="69.78" fill="none" stroke="currentColor" stroke-width="1.1990000128746032" stroke-linecap="round" stroke-linejoin="round" />
  <path d="M71.11,69.79 C71.11,70.42 70.60,70.93 69.97,70.93" fill="currentColor" stroke="currentColor" stroke-width="1.2" stroke-linecap="round" stroke-linejoin="round" />
  <path d="M69.97,70.93 C69.33,70.93 68.82,70.42 68.82,69.79" fill="currentColor" stroke="currentColor" stroke-width="1.2" stroke-linecap="round" stroke-linejoin="round" />
  <line x1="66.50" y1="70.47" x2="65.50" y2="70.47" fill="currentColor" stroke="currentColor" stroke-width="1.2" stroke-linecap="round" stroke-linejoin="round" />
  <line x1="65.50" y1="70.47" x2="63.01" y2="73.54" fill="currentColor" stroke="currentColor" stroke-width="1.2" stroke-linecap="round" stroke-linejoin="round" />
  <line x1="63.01" y1="73.54" x2="60.52" y2="70.47" fill="currentColor" stroke="currentColor" stroke-width="1.2" stroke-linecap="round" stroke-linejoin="round" />
  <line x1="60.52" y1="70.47" x2="59.51" y2="70.47" fill="currentColor" stroke="currentColor" stroke-width="1.2" stroke-linecap="round" stroke-linejoin="round" />
  <line x1="59.51" y1="70.47" x2="59.51" y2="77.96" fill="currentColor" stroke="currentColor" stroke-width="1.2" stroke-linecap="round" stroke-linejoin="round" />
  <line x1="66.50" y1="77.96" x2="66.50" y2="70.47" fill="currentColor" stroke="currentColor" stroke-width="1.2" stroke-linecap="round" stroke-linejoin="round" />
  <line x1="60.59" y1="77.96" x2="60.59" y2="72.13" fill="currentColor" stroke="currentColor" stroke-width="1.2" stroke-linecap="round" stroke-linejoin="round" />
  <line x1="60.59" y1="72.13" x2="60.61" y2="72.13" fill="currentColor" stroke="currentColor" stroke-width="1.2" stroke-linecap="round" stroke-linejoin="round" />
  <line x1="60.61" y1="72.13" x2="62.92" y2="75.03" fill="currentColor" stroke="currentColor" stroke-width="1.2" stroke-linecap="round" stroke-linejoin="round" />
  <line x1="63.10" y1="75.03" x2="65.40" y2="72.13" fill="currentColor" stroke="currentColor" stroke-width="1.2" stroke-linecap="round" stroke-linejoin="round" />
  <line x1="65.40" y1="72.13" x2="65.43" y2="72.13" fill="currentColor" stroke="currentColor" stroke-width="1.2" stroke-linecap="round" stroke-linejoin="round" />
  <line x1="65.43" y1="72.13" x2="65.43" y2="77.96" fill="currentColor" stroke="currentColor" stroke-width="1.2" stroke-linecap="round" stroke-linejoin="round" />
  <line x1="62.92" y1="75.03" x2="63.10" y2="75.03" fill="currentColor" stroke="currentColor" stroke-width="1.2" stroke-linecap="round" stroke-linejoin="round" />
  <line x1="59.51" y1="77.96" x2="60.59" y2="77.96" fill="currentColor" stroke="currentColor" stroke-width="1.2" stroke-linecap="round" stroke-linejoin="round" />
  <line x1="65.43" y1="77.96" x2="66.50" y2="77.96" fill="currentColor" stroke="currentColor" stroke-width="1.2" stroke-linecap="round" stroke-linejoin="round" />
  <path d="M113.43,102.52 C95.35,126.63 61.11,131.52 37.00,113.44" fill="none" stroke="currentColor" stroke-width="1.6" stroke-linecap="round" stroke-linejoin="round" />
</svg>