<svg xmlns="http://www.w3.org/2000/svg" viewBox="0 0 285.02 285.55" preserveAspectRatio="xMidYMid meet" shape-rendering="geometricPrecision" text-rendering="optimizeLegibility">
  <line x1="139.39" y1="17.72" x2="136.15" y2="8.00" fill="currentColor" stroke="currentColor" stroke-width="1.2" stroke-linecap="round" stroke-linejoin="round" />
  <line x1="136.15" y1="8.00" x2="132.91" y2="17.72" fill="currentColor" stroke="currentColor" stroke-width="1.2" stroke-linecap="round" stroke-linejoin="round" />
  <path d="M124.88,11.79 C124.93,11.78 125.00,11.78 125.08,11.78" fill="currentColor" stroke="currentColor" stroke-width="1.2" stroke-linecap="round" stroke-linejoin="round" />
  <path d="M125.08,11.78 C125.17,11.78 125.24,11.78 125.29,11.79" fill="currentColor" stroke="currentColor" stroke-width="1.2" stroke-linecap="round" stroke-linejoin="round" />
  <path d="M128.03,11.79 C128.09,11.78 128.16,11.78 128.25,11.78" fill="currentColor" stroke="currentColor" stroke-width="1.2" stroke-linecap="round" stroke-linejoin="round" />
  <path d="M128.25,11.78 C128.40,11.78 128.49,11.79 128.54,11.81" fill="currentColor" stroke="currentColor" stroke-width="1.2" stroke-linecap="round" stroke-linejoin="round" />
  <path d="M124.75,11.82 C124.78,11.81 124.83,11.80 124.88,11.79" fill="currentColor" stroke="currentColor" stroke-width="1.2" stroke-linecap="round" stroke-linejoin="round" />
  <path d="M125.29,11.79 C125.34,11.80 125.38,11.80 125.40,11.82" fill="currentColor" stroke="currentColor" stroke-width="1.2" stroke-linecap="round" stroke-linejoin="round" />
  <path d="M127.89,11.82 C127.92,11.81 127.97,11.80 128.03,11.79" fill="currentColor" stroke="currentColor" stroke-width="1.2" stroke-linecap="round" stroke-linejoin="round" />
  <path d="M128.54,11.81 C128.59,11.84 128.62,11.87 128.62,11.91" fill="currentColor" stroke="currentColor" stroke-width="1.2" stroke-linecap="round" stroke-linejoin="round" />
  <path d="M125.40,11.82 C125.43,11.83 125.45,11.85 125.46,11.87" fill="currentColor" stroke="currentColor" stroke-width="1.2" stroke-linecap="round" stroke-linejoin="round" />
  <path d="M127.81,11.87 C127.83,11.85 127.85,11.83 127.89,11.82" fill="currentColor" stroke="currentColor" stroke-width="1.2" stroke-linecap="round" stroke-linejoin="round" />
  <path d="M124.68,11.89 C124.70,11.86 124.72,11.84 124.75,11.82" fill="currentColor" stroke="currentColor" stroke-width="1.2" stroke-linecap="round" stroke-linejoin="round" />
  <path d="M127.77,11.94 C127.78,11.91 127.79,11.89 127.81,11.87" fill="currentColor" stroke="currentColor" stroke-width="1.2" stroke-linecap="round" stroke-linejoin="round" />
  <path d="M125.46,11.87 C125.47,11.90 125.48,11.93 125.49,11.96" fill="currentColor" stroke="currentColor" stroke-width="1.2" stroke-linecap="round" stroke-linejoin="round" />
  <path d="M124.67,11.99 C124.67,11.95 124.67,11.91 124.68,11.89" fill="currentColor" stroke="currentColor" stroke-width="1.2" stroke-linecap="round" stroke-linejoin="round" />
  <path d="M128.62,11.91 C128.62,11.95 128.61,11.99 128.61,12.03" fill="currentColor" stroke="currentColor" stroke-width="1.2" stroke-linecap="round" stroke-linejoin="round" />
  <path d="M127.45,12.97 C127.56,12.63 127.67,12.29 127.77,11.94" fill="currentColor" stroke="currentColor" stroke-width="1.2" stroke-linecap="round" stroke-linejoin="round" />
  <line x1="125.49" y1="11.96" x2="126.06" y2="15.91" fill="currentColor" stroke="currentColor" stroke-width="1.2" stroke-linecap="round" stroke-linejoin="round" />
  <path d="M124.67,12.08 C124.67,12.04 124.67,12.01 124.67,11.99" fill="currentColor" stroke="currentColor" stroke-width="1.2" stroke-linecap="round" stroke-linejoin="round" />
  <path d="M128.61,12.03 C128.60,12.07 128.59,12.11 128.57,12.15" fill="currentColor" stroke="currentColor" stroke-width="1.2" stroke-linecap="round" stroke-linejoin="round" />
  <path d="M124.69,12.20 C124.68,12.15 124.68,12.11 124.67,12.08" fill="currentColor" stroke="currentColor" stroke-width="1.2" stroke-linecap="round" stroke-linejoin="round" />
  <path d="M128.57,12.15 C128.46,12.47 128.35,12.81 128.22,13.16" fill="currentColor" stroke="currentColor" stroke-width="1.2" stroke-linecap="round" stroke-linejoin="round" />
  <line x1="125.42" y1="16.92" x2="124.69" y2="12.20" fill="currentColor" stroke="currentColor" stroke-width="1.2" stroke-linecap="round" stroke-linejoin="round" />
  <path d="M127.07,13.98 C127.21,13.64 127.33,13.31 127.45,12.97" fill="currentColor" stroke="currentColor" stroke-width="1.2" stroke-linecap="round" stroke-linejoin="round" />
  <path d="M128.22,13.16 C128.09,13.52 127.94,13.89 127.77,14.27" fill="currentColor" stroke="currentColor" stroke-width="1.2" stroke-linecap="round" stroke-linejoin="round" />
  <path d="M126.62,14.96 C126.78,14.63 126.93,14.31 127.07,13.98" fill="currentColor" stroke="currentColor" stroke-width="1.2" stroke-linecap="round" stroke-linejoin="round" />
  <path d="M127.77,14.27 C127.60,14.66 127.41,15.06 127.18,15.48" fill="currentColor" stroke="currentColor" stroke-width="1.2" stroke-linecap="round" stroke-linejoin="round" />
  <path d="M126.07,15.91 C126.27,15.60 126.45,15.28 126.62,14.96" fill="currentColor" stroke="currentColor" stroke-width="1.2" stroke-linecap="round" stroke-linejoin="round" />
  <path d="M127.18,15.48 C126.95,15.90 126.68,16.34 126.37,16.80" fill="currentColor" stroke="currentColor" stroke-width="1.2" stroke-linecap="round" stroke-linejoin="round" />
  <line x1="126.06" y1="15.91" x2="126.07" y2="15.91" fill="currentColor" stroke="currentColor" stroke-width="1.2" stroke-linecap="round" stroke-linejoin="round" />
  <line x1="136.16" y1="277.55" x2="136.16" y2="16.10" fill="none" stroke="currentColor" stroke-width="1.4000000476837158" stroke-linecap="round" stroke-linejoin="round" />
  <line x1="132.91" y1="17.72" x2="136.15" y2="16.64" fill="currentColor" stroke="currentColor" stroke-width="1.2" stroke-linecap="round" stroke-linejoin="round" />
  <line x1="136.15" y1="16.64" x2="139.39" y2="17.72" fill="currentColor" stroke="currentColor" stroke-width="1.2" stroke-linecap="round" stroke-linejoin="round" />
  <line x1="126.37" y1="16.80" x2="125.10" y2="18.69" fill="currentColor" stroke="currentColor" stroke-width="1.2" stroke-linecap="round" stroke-linejoin="round" />
  <line x1="124.22" y1="18.60" x2="125.42" y2="16.92" fill="currentColor" stroke="currentColor" stroke-width="1.2" stroke-linecap="round" stroke-linejoin="round" />
  <path d="M124.16,18.73 C124.17,18.69 124.19,18.65 124.22,18.60" fill="currentColor" stroke="currentColor" stroke-width="1.2" stroke-linecap="round" stroke-linejoin="round" />
  <path d="M125.10,18.69 C125.08,18.72 125.05,18.75 125.02,18.77" fill="currentColor" stroke="currentColor" stroke-width="1.2" stroke-linecap="round" stroke-linejoin="round" />
  <path d="M124.20,18.81 C124.17,18.79 124.16,18.76 124.16,18.73" fill="currentColor" stroke="currentColor" stroke-width="1.2" stroke-linecap="round" stroke-linejoin="round" />
  <path d="M125.02,18.77 C125.00,18.79 124.96,18.81 124.92,18.83" fill="currentColor" stroke="currentColor" stroke-width="1.2" stroke-linecap="round" stroke-linejoin="round" />
  <path d="M124.33,18.86 C124.27,18.85 124.23,18.83 124.20,18.81" fill="currentColor" stroke="currentColor" stroke-width="1.2" stroke-linecap="round" stroke-linejoin="round" />
  <path d="M124.92,18.83 C124.87,18.84 124.82,18.85 124.76,18.86" fill="currentColor" stroke="currentColor" stroke-width="1.2" stroke-linecap="round" stroke-linejoin="round" />
  <path d="M124.55,18.87 C124.46,18.87 124.39,18.87 124.33,18.86" fill="currentColor" stroke="currentColor" stroke-width="1.2" stroke-linecap="round" stroke-linejoin="round" />
  <path d="M124.76,18.86 C124.70,18.87 124.63,18.87 124.55,18.87" fill="currentColor" stroke="currentColor" stroke-width="1.2" stroke-linecap="round" stroke-linejoin="round" />
  <line x1="46.41" y1="273.50" x2="46.41" y2="23.09" fill="none" stroke="currentColor" stroke-width="1.0" stroke-linecap="round" stroke-linejoin="round" />
  <line x1="225.89" y1="273.50" x2="225.89" y2="23.09" fill="none" stroke="currentColor" stroke-width="1.0" stroke-linecap="round" stroke-linejoin="round" />
  <line x1="248.34" y1="273.50" x2="248.34" y2="23.09" fill="none" stroke="currentColor" stroke-width="1.0" stroke-linecap="round" stroke-linejoin="round" />
  <line x1="23.97" y1="273.50" x2="23.97" y2="23.09" fill="none" stroke="currentColor" stroke-width="1.0" stroke-linecap="round" stroke-linejoin="round" />
  <line x1="259.56" y1="273.50" x2="259.56" y2="23.09" fill="none" stroke="currentColor" stroke-width="1.0" stroke-linecap="round" stroke-linejoin="round" />
  <line x1="12.75" y1="273.50" x2="12.75" y2="23.09" fill="none" stroke="currentColor" stroke-width="1.0" stroke-linecap="round" stroke-linejoin="round" />
  <line x1="68.84" y1="273.66" x2="68.84" y2="23.25" fill="none" stroke="currentColor" stroke-width="1.0" stroke-linecap="round" stroke-linejoin="round" />
  <line x1="80.06" y1="273.66" x2="80.06" y2="23.25" fill="none" stroke="currentColor" stroke-width="1.0" stroke-linecap="round" stroke-linejoin="round" />
  <line x1="91.28" y1="273.66" x2="91.28" y2="23.25" fill="none" stroke="currentColor" stroke-width="1.0" stroke-linecap="round" stroke-linejoin="round" />
  <line x1="102.49" y1="273.66" x2="102.49" y2="23.25" fill="none" stroke="currentColor" stroke-width="1.0" stroke-linecap="round" stroke-linejoin="round" />
  <line x1="113.71" y1="273.66" x2="113.71" y2="23.25" fill="none" stroke="currentColor" stroke-width="1.0" stroke-linecap="round" stroke-linejoin="round" />
  <line x1="124.93" y1="273.66" x2="124.93" y2="23.25" fill="none" stroke="currentColor" stroke-width="1.0" stroke-linecap="round" stroke-linejoin="round" />
  <line x1="57.62" y1="273.66" x2="57.62" y2="23.25" fill="none" stroke="currentColor" stroke-width="1.0" stroke-linecap="round" stroke-linejoin="round" />
  <line x1="181.02" y1="273.66" x2="181.02" y2="23.25" fill="none" stroke="currentColor" stroke-width="1.0" stroke-linecap="round" stroke-linejoin="round" />
  <line x1="192.24" y1="273.66" x2="192.24" y2="23.25" fill="none" stroke="currentColor" stroke-width="1.0" stroke-linecap="round" stroke-linejoin="round" />
  <line x1="203.46" y1="273.66" x2="203.46" y2="23.25" fill="none" stroke="currentColor" stroke-width="1.0" stroke-linecap="round" stroke-linejoin="round" />
  <line x1="214.68" y1="273.66" x2="214.68" y2="23.25" fill="none" stroke="currentColor" stroke-width="1.0" stroke-linecap="round" stroke-linejoin="round" />
  <line x1="158.58" y1="273.66" x2="158.58" y2="23.25" fill="none" stroke="currentColor" stroke-width="1.0" stroke-linecap="round" stroke-linejoin="round" />
  <line x1="169.81" y1="273.66" x2="169.81" y2="23.25" fill="none" stroke="currentColor" stroke-width="1.0" stroke-linecap="round" stroke-linejoin="round" />
  <line x1="147.37" y1="273.66" x2="147.37" y2="23.25" fill="none" stroke="currentColor" stroke-width="1.0" stroke-linecap="round" stroke-linejoin="round" />
  <line x1="237.12" y1="273.66" x2="237.12" y2="23.25" fill="none" stroke="currentColor" stroke-width="1.0" stroke-linecap="round" stroke-linejoin="round" />
  <line x1="35.19" y1="273.66" x2="35.19" y2="23.25" fill="none" stroke="currentColor" stroke-width="1.0" stroke-linecap="round" stroke-linejoin="round" />
  <line x1="11.10" y1="24.97" x2="261.21" y2="24.97" fill="none" stroke="currentColor" stroke-width="1.0" stroke-linecap="round" stroke-linejoin="round" />
  <line x1="11.10" y1="36.19" x2="261.21" y2="36.19" fill="none" stroke="currentColor" stroke-width="1.0" stroke-linecap="round" stroke-linejoin="round" />
  <line x1="11.10" y1="47.40" x2="261.21" y2="47.40" fill="none" stroke="currentColor" stroke-width="1.0" stroke-linecap="round" stroke-linejoin="round" />
  <line x1="11.10" y1="58.63" x2="261.21" y2="58.63" fill="none" stroke="currentColor" stroke-width="1.0" stroke-linecap="round" stroke-linejoin="round" />
  <line x1="11.10" y1="69.85" x2="261.21" y2="69.85" fill="none" stroke="currentColor" stroke-width="1.0" stroke-linecap="round" stroke-linejoin="round" />
  <line x1="11.10" y1="81.06" x2="261.21" y2="81.06" fill="none" stroke="currentColor" stroke-width="1.0" stroke-linecap="round" stroke-linejoin="round" />
  <line x1="11.10" y1="92.28" x2="261.21" y2="92.28" fill="none" stroke="currentColor" stroke-width="1.0" stroke-linecap="round" stroke-linejoin="round" />
  <line x1="11.10" y1="103.50" x2="261.21" y2="103.50" fill="none" stroke="currentColor" stroke-width="1.0" stroke-linecap="round" stroke-linejoin="round" />
  <line x1="11.10" y1="114.72" x2="261.21" y2="114.72" fill="none" stroke="currentColor" stroke-width="1.0" stroke-linecap="round" stroke-linejoin="round" />
  <line x1="11.10" y1="125.94" x2="261.21" y2="125.94" fill="none" stroke="currentColor" stroke-width="1.0" stroke-linecap="round" stroke-linejoin="round" />
  <line x1="11.10" y1="137.16" x2="261.21" y2="137.16" fill="none" stroke="currentColor" stroke-width="1.0" stroke-linecap="round" stroke-linejoin="round" />
  <line x1="267.30" y1="145.13" x2="268.38" y2="148.37" fill="currentColor" stroke="currentColor" stroke-width="1.2" stroke-linecap="round" stroke-linejoin="round" />
  <line x1="277.02" y1="148.37" x2="267.30" y2="145.13" fill="currentColor" stroke="currentColor" stroke-width="1.2" stroke-linecap="round" stroke-linejoin="round" />
  <line x1="8.00" y1="148.37" x2="268.92" y2="148.37" fill="none" stroke="currentColor" stroke-width="1.4000000476837158" stroke-linecap="round" stroke-linejoin="round" />
  <line x1="268.38" y1="148.37" x2="267.30" y2="151.61" fill="currentColor" stroke="currentColor" stroke-width="1.2" stroke-linecap="round" stroke-linejoin="round" />
  <line x1="267.30" y1="151.61" x2="277.02" y2="148.37" fill="currentColor" stroke="currentColor" stroke-width="1.2" stroke-linecap="round" stroke-linejoin="round" />
  <path d="M265.63,155.32 C265.69,155.31 265.77,155.31 265.87,155.31" fill="currentColor" stroke="currentColor" stroke-width="1.2" stroke-linecap="round" stroke-linejoin="round" />
  <path d="M265.87,155.31 C265.96,155.31 266.04,155.31 266.09,155.31" fill="currentColor" stroke="currentColor" stroke-width="1.2" stroke-linecap="round" stroke-linejoin="round" />
  <path d="M268.60,155.31 C268.65,155.31 268.72,155.31 268.81,155.31" fill="currentColor" stroke="currentColor" stroke-width="1.2" stroke-linecap="round" stroke-linejoin="round" />
  <path d="M268.81,155.31 C268.91,155.31 268.99,155.31 269.05,155.32" fill="currentColor" stroke="currentColor" stroke-width="1.2" stroke-linecap="round" stroke-linejoin="round" />
  <path d="M266.09,155.31 C266.14,155.32 266.18,155.33 266.21,155.34" fill="currentColor" stroke="currentColor" stroke-width="1.2" stroke-linecap="round" stroke-linejoin="round" />
  <path d="M268.47,155.34 C268.50,155.33 268.55,155.32 268.60,155.31" fill="currentColor" stroke="currentColor" stroke-width="1.2" stroke-linecap="round" stroke-linejoin="round" />
  <path d="M265.49,155.36 C265.52,155.34 265.57,155.32 265.63,155.32" fill="currentColor" stroke="currentColor" stroke-width="1.2" stroke-linecap="round" stroke-linejoin="round" />
  <path d="M269.05,155.32 C269.12,155.32 269.16,155.34 269.19,155.36" fill="currentColor" stroke="currentColor" stroke-width="1.2" stroke-linecap="round" stroke-linejoin="round" />
  <path d="M266.21,155.34 C266.24,155.35 266.26,155.36 266.27,155.38" fill="currentColor" stroke="currentColor" stroke-width="1.2" stroke-linecap="round" stroke-linejoin="round" />
  <path d="M268.38,155.39 C268.40,155.37 268.43,155.35 268.47,155.34" fill="currentColor" stroke="currentColor" stroke-width="1.2" stroke-linecap="round" stroke-linejoin="round" />
  <path d="M269.19,155.36 C269.22,155.37 269.23,155.40 269.23,155.43" fill="currentColor" stroke="currentColor" stroke-width="1.2" stroke-linecap="round" stroke-linejoin="round" />
  <path d="M265.44,155.44 C265.44,155.41 265.46,155.38 265.49,155.36" fill="currentColor" stroke="currentColor" stroke-width="1.2" stroke-linecap="round" stroke-linejoin="round" />
  <path d="M266.27,155.38 C266.28,155.40 266.29,155.42 266.30,155.45" fill="currentColor" stroke="currentColor" stroke-width="1.2" stroke-linecap="round" stroke-linejoin="round" />
  <path d="M268.32,155.45 C268.34,155.43 268.36,155.41 268.38,155.39" fill="currentColor" stroke="currentColor" stroke-width="1.2" stroke-linecap="round" stroke-linejoin="round" />
  <path d="M269.23,155.43 C269.22,155.47 269.20,155.51 269.16,155.56" fill="currentColor" stroke="currentColor" stroke-width="1.2" stroke-linecap="round" stroke-linejoin="round" />
  <path d="M265.46,155.57 C265.44,155.52 265.43,155.48 265.44,155.44" fill="currentColor" stroke="currentColor" stroke-width="1.2" stroke-linecap="round" stroke-linejoin="round" />
  <line x1="266.30" y1="155.45" x2="267.00" y2="157.25" fill="currentColor" stroke="currentColor" stroke-width="1.2" stroke-linecap="round" stroke-linejoin="round" />
  <line x1="267.00" y1="157.25" x2="268.32" y2="155.45" fill="currentColor" stroke="currentColor" stroke-width="1.2" stroke-linecap="round" stroke-linejoin="round" />
  <line x1="269.16" y1="155.56" x2="267.44" y2="157.84" fill="currentColor" stroke="currentColor" stroke-width="1.2" stroke-linecap="round" stroke-linejoin="round" />
  <line x1="266.37" y1="157.83" x2="265.46" y2="155.57" fill="currentColor" stroke="currentColor" stroke-width="1.2" stroke-linecap="round" stroke-linejoin="round" />
  <line x1="264.54" y1="160.21" x2="266.37" y2="157.83" fill="currentColor" stroke="currentColor" stroke-width="1.2" stroke-linecap="round" stroke-linejoin="round" />
  <line x1="267.44" y1="157.84" x2="268.40" y2="160.21" fill="currentColor" stroke="currentColor" stroke-width="1.2" stroke-linecap="round" stroke-linejoin="round" />
  <line x1="267.53" y1="160.32" x2="266.80" y2="158.42" fill="currentColor" stroke="currentColor" stroke-width="1.2" stroke-linecap="round" stroke-linejoin="round" />
  <line x1="266.80" y1="158.42" x2="265.41" y2="160.32" fill="currentColor" stroke="currentColor" stroke-width="1.2" stroke-linecap="round" stroke-linejoin="round" />
  <line x1="11.10" y1="159.59" x2="261.21" y2="159.59" fill="none" stroke="currentColor" stroke-width="1.0" stroke-linecap="round" stroke-linejoin="round" />
  <path d="M268.40,160.21 C268.42,160.26 268.42,160.30 268.42,160.33" fill="currentColor" stroke="currentColor" stroke-width="1.2" stroke-linecap="round" stroke-linejoin="round" />
  <path d="M264.48,160.33 C264.48,160.30 264.50,160.26 264.54,160.21" fill="currentColor" stroke="currentColor" stroke-width="1.2" stroke-linecap="round" stroke-linejoin="round" />
  <path d="M267.56,160.39 C267.55,160.37 267.54,160.35 267.53,160.32" fill="currentColor" stroke="currentColor" stroke-width="1.2" stroke-linecap="round" stroke-linejoin="round" />
  <path d="M265.41,160.32 C265.39,160.35 265.37,160.37 265.35,160.39" fill="currentColor" stroke="currentColor" stroke-width="1.2" stroke-linecap="round" stroke-linejoin="round" />
  <path d="M268.42,160.33 C268.41,160.37 268.39,160.39 268.36,160.41" fill="currentColor" stroke="currentColor" stroke-width="1.2" stroke-linecap="round" stroke-linejoin="round" />
  <path d="M264.51,160.41 C264.49,160.39 264.47,160.37 264.48,160.33" fill="currentColor" stroke="currentColor" stroke-width="1.2" stroke-linecap="round" stroke-linejoin="round" />
  <path d="M267.62,160.44 C267.59,160.43 267.57,160.41 267.56,160.39" fill="currentColor" stroke="currentColor" stroke-width="1.2" stroke-linecap="round" stroke-linejoin="round" />
  <path d="M265.35,160.39 C265.33,160.41 265.30,160.43 265.26,160.44" fill="currentColor" stroke="currentColor" stroke-width="1.2" stroke-linecap="round" stroke-linejoin="round" />
  <path d="M268.36,160.41 C268.32,160.44 268.27,160.45 268.21,160.46" fill="currentColor" stroke="currentColor" stroke-width="1.2" stroke-linecap="round" stroke-linejoin="round" />
  <path d="M264.64,160.46 C264.58,160.45 264.54,160.44 264.51,160.41" fill="currentColor" stroke="currentColor" stroke-width="1.2" stroke-linecap="round" stroke-linejoin="round" />
  <path d="M265.26,160.44 C265.22,160.45 265.17,160.46 265.11,160.46" fill="currentColor" stroke="currentColor" stroke-width="1.2" stroke-linecap="round" stroke-linejoin="round" />
  <path d="M267.74,160.47 C267.69,160.46 267.65,160.45 267.62,160.44" fill="currentColor" stroke="currentColor" stroke-width="1.2" stroke-linecap="round" stroke-linejoin="round" />
  <path d="M268.21,160.46 C268.14,160.47 268.06,160.47 267.96,160.47" fill="currentColor" stroke="currentColor" stroke-width="1.2" stroke-linecap="round" stroke-linejoin="round" />
  <path d="M264.87,160.47 C264.78,160.47 264.70,160.47 264.64,160.46" fill="currentColor" stroke="currentColor" stroke-width="1.2" stroke-linecap="round" stroke-linejoin="round" />
  <path d="M265.11,160.46 C265.05,160.47 264.97,160.47 264.87,160.47" fill="currentColor" stroke="currentColor" stroke-width="1.2" stroke-linecap="round" stroke-linejoin="round" />
  <path d="M267.96,160.47 C267.87,160.47 267.80,160.47 267.74,160.47" fill="currentColor" stroke="currentColor" stroke-width="1.2" stroke-linecap="round" stroke-linejoin="round" />
  <line x1="11.10" y1="170.81" x2="261.21" y2="170.81" fill="none" stroke="currentColor" stroke-width="1.0" stroke-linecap="round" stroke-linejoin="round" />
  <line x1="11.10" y1="182.03" x2="261.21" y2="182.03" fill="none" stroke="currentColor" stroke-width="1.0" stroke-linecap="round" stroke-linejoin="round" />
  <line x1="11.10" y1="193.25" x2="261.21" y2="193.25" fill="none" stroke="currentColor" stroke-width="1.0" stroke-linecap="round" stroke-linejoin="round" />
  <line x1="11.10" y1="204.47" x2="261.21" y2="204.47" fill="none" stroke="currentColor" stroke-width="1.0" stroke-linecap="round" stroke-linejoin="round" />
  <line x1="11.10" y1="215.68" x2="261.21" y2="215.68" fill="none" stroke="currentColor" stroke-width="1.0" stroke-linecap="round" stroke-linejoin="round" />
  <line x1="11.10" y1="226.90" x2="261.21" y2="226.90" fill="none" stroke="currentColor" stroke-width="1.0" stroke-linecap="round" stroke-linejoin="round" />
  <line x1="11.10" y1="238.12" x2="261.21" y2="238.12" fill="none" stroke="currentColor" stroke-width="1.0" stroke-linecap="round" stroke-linejoin="round" />
  <line x1="11.10" y1="249.34" x2="261.21" y2="249.34" fill="none" stroke="currentColor" stroke-width="1.0" stroke-linecap="round" stroke-linejoin="round" />
  <line x1="11.10" y1="260.56" x2="261.21" y2="260.56" fill="none" stroke="currentColor" stroke-width="1.0" stroke-linecap="round" stroke-linejoin="round" />
  <line x1="11.10" y1="271.78" x2="261.21" y2="271.78" fill="none" stroke="currentColor" stroke-width="1.0" stroke-linecap="round" stroke-linejoin="round" />
</svg>