<svg xmlns="http://www.w3.org/2000/svg" viewBox="0 0 194.88 163.89" preserveAspectRatio="xMidYMid meet" shape-rendering="geometricPrecision" text-rendering="optimizeLegibility">
  <line x1="118.65" y1="8.00" x2="16.66" y2="76.03" fill="none" stroke="currentColor" stroke-width="1.4000000476837158" stroke-linecap="round" stroke-linejoin="round" />
  <path d="M60.19,35.18 C60.26,35.17 60.35,35.17 60.46,35.17" fill="currentColor" stroke="currentColor" stroke-width="1.2" stroke-linecap="round" stroke-linejoin="round" />
  <path d="M60.46,35.17 C60.56,35.17 60.64,35.17 60.69,35.18" fill="currentColor" stroke="currentColor" stroke-width="1.2" stroke-linecap="round" stroke-linejoin="round" />
  <path d="M63.45,35.18 C63.51,35.17 63.58,35.17 63.68,35.17" fill="currentColor" stroke="currentColor" stroke-width="1.2" stroke-linecap="round" stroke-linejoin="round" />
  <path d="M63.68,35.17 C63.79,35.17 63.88,35.17 63.94,35.18" fill="currentColor" stroke="currentColor" stroke-width="1.2" stroke-linecap="round" stroke-linejoin="round" />
  <path d="M60.69,35.18 C60.75,35.18 60.80,35.19 60.83,35.20" fill="currentColor" stroke="currentColor" stroke-width="1.2" stroke-linecap="round" stroke-linejoin="round" />
  <path d="M63.30,35.20 C63.34,35.19 63.39,35.18 63.45,35.18" fill="currentColor" stroke="currentColor" stroke-width="1.2" stroke-linecap="round" stroke-linejoin="round" />
  <path d="M60.04,35.22 C60.07,35.20 60.12,35.19 60.19,35.18" fill="currentColor" stroke="currentColor" stroke-width="1.2" stroke-linecap="round" stroke-linejoin="round" />
  <path d="M63.94,35.18 C64.01,35.19 64.06,35.20 64.09,35.22" fill="currentColor" stroke="currentColor" stroke-width="1.2" stroke-linecap="round" stroke-linejoin="round" />
  <path d="M60.83,35.20 C60.86,35.21 60.88,35.23 60.89,35.24" fill="currentColor" stroke="currentColor" stroke-width="1.2" stroke-linecap="round" stroke-linejoin="round" />
  <path d="M63.21,35.25 C63.23,35.23 63.26,35.22 63.30,35.20" fill="currentColor" stroke="currentColor" stroke-width="1.2" stroke-linecap="round" stroke-linejoin="round" />
  <path d="M64.09,35.22 C64.13,35.24 64.14,35.26 64.13,35.30" fill="currentColor" stroke="currentColor" stroke-width="1.2" stroke-linecap="round" stroke-linejoin="round" />
  <path d="M59.98,35.31 C59.98,35.27 60.00,35.24 60.04,35.22" fill="currentColor" stroke="currentColor" stroke-width="1.2" stroke-linecap="round" stroke-linejoin="round" />
  <path d="M60.89,35.24 C60.90,35.26 60.91,35.28 60.93,35.31" fill="currentColor" stroke="currentColor" stroke-width="1.2" stroke-linecap="round" stroke-linejoin="round" />
  <path d="M63.14,35.31 C63.16,35.29 63.19,35.27 63.21,35.25" fill="currentColor" stroke="currentColor" stroke-width="1.2" stroke-linecap="round" stroke-linejoin="round" />
  <path d="M64.13,35.30 C64.13,35.33 64.10,35.37 64.06,35.42" fill="currentColor" stroke="currentColor" stroke-width="1.2" stroke-linecap="round" stroke-linejoin="round" />
  <path d="M60.01,35.43 C59.99,35.38 59.98,35.34 59.98,35.31" fill="currentColor" stroke="currentColor" stroke-width="1.2" stroke-linecap="round" stroke-linejoin="round" />
  <line x1="60.93" y1="35.31" x2="61.69" y2="37.11" fill="currentColor" stroke="currentColor" stroke-width="1.2" stroke-linecap="round" stroke-linejoin="round" />
  <line x1="61.69" y1="37.11" x2="63.14" y2="35.31" fill="currentColor" stroke="currentColor" stroke-width="1.2" stroke-linecap="round" stroke-linejoin="round" />
  <line x1="64.06" y1="35.42" x2="62.17" y2="37.70" fill="currentColor" stroke="currentColor" stroke-width="1.2" stroke-linecap="round" stroke-linejoin="round" />
  <line x1="61.00" y1="37.69" x2="60.01" y2="35.43" fill="currentColor" stroke="currentColor" stroke-width="1.2" stroke-linecap="round" stroke-linejoin="round" />
  <line x1="58.99" y1="40.07" x2="61.00" y2="37.69" fill="currentColor" stroke="currentColor" stroke-width="1.2" stroke-linecap="round" stroke-linejoin="round" />
  <line x1="62.17" y1="37.70" x2="63.22" y2="40.07" fill="currentColor" stroke="currentColor" stroke-width="1.2" stroke-linecap="round" stroke-linejoin="round" />
  <line x1="62.28" y1="40.19" x2="61.47" y2="38.28" fill="currentColor" stroke="currentColor" stroke-width="1.2" stroke-linecap="round" stroke-linejoin="round" />
  <line x1="61.47" y1="38.28" x2="59.95" y2="40.19" fill="currentColor" stroke="currentColor" stroke-width="1.2" stroke-linecap="round" stroke-linejoin="round" />
  <path d="M63.22,40.07 C63.25,40.12 63.25,40.16 63.25,40.19" fill="currentColor" stroke="currentColor" stroke-width="1.2" stroke-linecap="round" stroke-linejoin="round" />
  <path d="M58.93,40.20 C58.94,40.16 58.96,40.12 58.99,40.07" fill="currentColor" stroke="currentColor" stroke-width="1.2" stroke-linecap="round" stroke-linejoin="round" />
  <path d="M62.31,40.25 C62.30,40.23 62.29,40.21 62.28,40.19" fill="currentColor" stroke="currentColor" stroke-width="1.2" stroke-linecap="round" stroke-linejoin="round" />
  <path d="M59.95,40.19 C59.93,40.21 59.91,40.23 59.89,40.25" fill="currentColor" stroke="currentColor" stroke-width="1.2" stroke-linecap="round" stroke-linejoin="round" />
  <path d="M63.25,40.19 C63.24,40.23 63.22,40.26 63.18,40.28" fill="currentColor" stroke="currentColor" stroke-width="1.2" stroke-linecap="round" stroke-linejoin="round" />
  <path d="M58.97,40.28 C58.94,40.26 58.93,40.23 58.93,40.20" fill="currentColor" stroke="currentColor" stroke-width="1.2" stroke-linecap="round" stroke-linejoin="round" />
  <path d="M62.38,40.30 C62.34,40.29 62.32,40.27 62.31,40.25" fill="currentColor" stroke="currentColor" stroke-width="1.2" stroke-linecap="round" stroke-linejoin="round" />
  <path d="M59.89,40.25 C59.86,40.27 59.83,40.29 59.79,40.30" fill="currentColor" stroke="currentColor" stroke-width="1.2" stroke-linecap="round" stroke-linejoin="round" />
  <path d="M63.18,40.28 C63.14,40.30 63.09,40.31 63.02,40.32" fill="currentColor" stroke="currentColor" stroke-width="1.2" stroke-linecap="round" stroke-linejoin="round" />
  <path d="M59.11,40.32 C59.05,40.31 59.00,40.30 58.97,40.28" fill="currentColor" stroke="currentColor" stroke-width="1.2" stroke-linecap="round" stroke-linejoin="round" />
  <path d="M59.79,40.30 C59.74,40.31 59.69,40.32 59.62,40.33" fill="currentColor" stroke="currentColor" stroke-width="1.2" stroke-linecap="round" stroke-linejoin="round" />
  <path d="M62.51,40.33 C62.45,40.32 62.41,40.31 62.38,40.30" fill="currentColor" stroke="currentColor" stroke-width="1.2" stroke-linecap="round" stroke-linejoin="round" />
  <path d="M63.02,40.32 C62.95,40.33 62.86,40.34 62.75,40.34" fill="currentColor" stroke="currentColor" stroke-width="1.2" stroke-linecap="round" stroke-linejoin="round" />
  <path d="M59.36,40.34 C59.26,40.34 59.18,40.33 59.11,40.32" fill="currentColor" stroke="currentColor" stroke-width="1.2" stroke-linecap="round" stroke-linejoin="round" />
  <path d="M59.62,40.33 C59.56,40.33 59.47,40.34 59.36,40.34" fill="currentColor" stroke="currentColor" stroke-width="1.2" stroke-linecap="round" stroke-linejoin="round" />
  <path d="M62.75,40.34 C62.65,40.34 62.57,40.33 62.51,40.33" fill="currentColor" stroke="currentColor" stroke-width="1.2" stroke-linecap="round" stroke-linejoin="round" />
  <line x1="16.66" y1="76.03" x2="16.66" y2="144.17" fill="none" stroke="currentColor" stroke-width="1.4000000476837158" stroke-linecap="round" stroke-linejoin="round" />
  <path d="M11.04,106.60 C11.12,106.59 11.22,106.59 11.32,106.59" fill="currentColor" stroke="currentColor" stroke-width="1.2" stroke-linecap="round" stroke-linejoin="round" />
  <path d="M11.32,106.59 C11.44,106.59 11.54,106.60 11.63,106.60" fill="currentColor" stroke="currentColor" stroke-width="1.2" stroke-linecap="round" stroke-linejoin="round" />
  <path d="M10.85,106.63 C10.90,106.61 10.97,106.60 11.04,106.60" fill="currentColor" stroke="currentColor" stroke-width="1.2" stroke-linecap="round" stroke-linejoin="round" />
  <path d="M11.63,106.60 C11.72,106.61 11.79,106.63 11.85,106.64" fill="currentColor" stroke="currentColor" stroke-width="1.2" stroke-linecap="round" stroke-linejoin="round" />
  <path d="M10.71,106.68 C10.75,106.66 10.79,106.64 10.85,106.63" fill="currentColor" stroke="currentColor" stroke-width="1.2" stroke-linecap="round" stroke-linejoin="round" />
  <path d="M11.85,106.64 C11.90,106.65 11.94,106.67 11.97,106.70" fill="currentColor" stroke="currentColor" stroke-width="1.2" stroke-linecap="round" stroke-linejoin="round" />
  <path d="M10.64,106.76 C10.65,106.73 10.68,106.70 10.71,106.68" fill="currentColor" stroke="currentColor" stroke-width="1.2" stroke-linecap="round" stroke-linejoin="round" />
  <path d="M11.97,106.70 C12.00,106.72 12.01,106.75 12.01,106.78" fill="currentColor" stroke="currentColor" stroke-width="1.2" stroke-linecap="round" stroke-linejoin="round" />
  <line x1="8.13" y1="110.98" x2="10.64" y2="106.76" fill="currentColor" stroke="currentColor" stroke-width="1.2" stroke-linecap="round" stroke-linejoin="round" />
  <line x1="12.01" y1="106.78" x2="12.01" y2="111.22" fill="currentColor" stroke="currentColor" stroke-width="1.2" stroke-linecap="round" stroke-linejoin="round" />
  <line x1="11.11" y1="107.40" x2="11.10" y2="107.40" fill="currentColor" stroke="currentColor" stroke-width="1.2" stroke-linecap="round" stroke-linejoin="round" />
  <line x1="11.10" y1="107.40" x2="8.84" y2="111.22" fill="currentColor" stroke="currentColor" stroke-width="1.2" stroke-linecap="round" stroke-linejoin="round" />
  <line x1="11.11" y1="111.22" x2="11.11" y2="107.40" fill="currentColor" stroke="currentColor" stroke-width="1.2" stroke-linecap="round" stroke-linejoin="round" />
  <path d="M8.07,111.11 C8.09,111.07 8.11,111.03 8.13,110.98" fill="currentColor" stroke="currentColor" stroke-width="1.2" stroke-linecap="round" stroke-linejoin="round" />
  <path d="M8.03,111.24 C8.04,111.20 8.05,111.15 8.07,111.11" fill="currentColor" stroke="currentColor" stroke-width="1.2" stroke-linecap="round" stroke-linejoin="round" />
  <line x1="12.01" y1="111.22" x2="12.80" y2="111.22" fill="currentColor" stroke="currentColor" stroke-width="1.2" stroke-linecap="round" stroke-linejoin="round" />
  <path d="M12.80,111.22 C12.86,111.22 12.91,111.25 12.94,111.31" fill="currentColor" stroke="currentColor" stroke-width="1.2" stroke-linecap="round" stroke-linejoin="round" />
  <line x1="8.84" y1="111.22" x2="11.11" y2="111.22" fill="currentColor" stroke="currentColor" stroke-width="1.2" stroke-linecap="round" stroke-linejoin="round" />
  <path d="M8.00,111.39 C8.01,111.33 8.02,111.28 8.03,111.24" fill="currentColor" stroke="currentColor" stroke-width="1.2" stroke-linecap="round" stroke-linejoin="round" />
  <path d="M12.94,111.31 C12.98,111.37 13.00,111.47 13.00,111.60" fill="currentColor" stroke="currentColor" stroke-width="1.2" stroke-linecap="round" stroke-linejoin="round" />
  <path d="M8.00,111.57 C8.00,111.50 8.00,111.44 8.00,111.39" fill="currentColor" stroke="currentColor" stroke-width="1.2" stroke-linecap="round" stroke-linejoin="round" />
  <path d="M8.01,111.78 C8.00,111.73 8.00,111.66 8.00,111.57" fill="currentColor" stroke="currentColor" stroke-width="1.2" stroke-linecap="round" stroke-linejoin="round" />
  <path d="M13.00,111.60 C13.00,111.72 12.98,111.81 12.95,111.88" fill="currentColor" stroke="currentColor" stroke-width="1.2" stroke-linecap="round" stroke-linejoin="round" />
  <path d="M8.06,111.90 C8.04,111.87 8.02,111.83 8.01,111.78" fill="currentColor" stroke="currentColor" stroke-width="1.2" stroke-linecap="round" stroke-linejoin="round" />
  <path d="M12.95,111.88 C12.91,111.94 12.86,111.98 12.80,111.98" fill="currentColor" stroke="currentColor" stroke-width="1.2" stroke-linecap="round" stroke-linejoin="round" />
  <path d="M8.14,111.96 C8.11,111.95 8.08,111.93 8.06,111.90" fill="currentColor" stroke="currentColor" stroke-width="1.2" stroke-linecap="round" stroke-linejoin="round" />
  <path d="M8.25,111.98 C8.20,111.98 8.17,111.97 8.14,111.96" fill="currentColor" stroke="currentColor" stroke-width="1.2" stroke-linecap="round" stroke-linejoin="round" />
  <line x1="12.80" y1="111.98" x2="12.01" y2="111.98" fill="currentColor" stroke="currentColor" stroke-width="1.2" stroke-linecap="round" stroke-linejoin="round" />
  <line x1="12.01" y1="111.98" x2="12.01" y2="113.44" fill="currentColor" stroke="currentColor" stroke-width="1.2" stroke-linecap="round" stroke-linejoin="round" />
  <line x1="11.11" y1="113.44" x2="11.11" y2="111.98" fill="currentColor" stroke="currentColor" stroke-width="1.2" stroke-linecap="round" stroke-linejoin="round" />
  <line x1="11.11" y1="111.98" x2="8.25" y2="111.98" fill="currentColor" stroke="currentColor" stroke-width="1.2" stroke-linecap="round" stroke-linejoin="round" />
  <path d="M12.01,113.44 C12.01,113.47 12.00,113.49 11.99,113.51" fill="currentColor" stroke="currentColor" stroke-width="1.2" stroke-linecap="round" stroke-linejoin="round" />
  <path d="M11.13,113.51 C11.12,113.49 11.11,113.47 11.11,113.44" fill="currentColor" stroke="currentColor" stroke-width="1.2" stroke-linecap="round" stroke-linejoin="round" />
  <path d="M11.99,113.51 C11.98,113.53 11.95,113.55 11.92,113.56" fill="currentColor" stroke="currentColor" stroke-width="1.2" stroke-linecap="round" stroke-linejoin="round" />
  <path d="M11.20,113.56 C11.17,113.55 11.15,113.53 11.13,113.51" fill="currentColor" stroke="currentColor" stroke-width="1.2" stroke-linecap="round" stroke-linejoin="round" />
  <path d="M11.92,113.56 C11.88,113.58 11.83,113.59 11.78,113.60" fill="currentColor" stroke="currentColor" stroke-width="1.2" stroke-linecap="round" stroke-linejoin="round" />
  <path d="M11.34,113.60 C11.28,113.59 11.24,113.58 11.20,113.56" fill="currentColor" stroke="currentColor" stroke-width="1.2" stroke-linecap="round" stroke-linejoin="round" />
  <path d="M11.78,113.60 C11.72,113.60 11.64,113.61 11.56,113.61" fill="currentColor" stroke="currentColor" stroke-width="1.2" stroke-linecap="round" stroke-linejoin="round" />
  <path d="M11.56,113.61 C11.47,113.61 11.40,113.60 11.34,113.60" fill="currentColor" stroke="currentColor" stroke-width="1.2" stroke-linecap="round" stroke-linejoin="round" />
  <rect x="16.66" y="134.29" width="9.88" height="9.88" fill="none" stroke="currentColor" stroke-width="1.000000011920929" stroke-linecap="round" stroke-linejoin="round" />
  <line x1="16.66" y1="144.17" x2="186.88" y2="144.17" fill="none" stroke="currentColor" stroke-width="1.4000000476837158" stroke-linecap="round" stroke-linejoin="round" />
  <path d="M103.19,149.00 C103.50,148.82 103.89,148.73 104.35,148.73" fill="currentColor" stroke="currentColor" stroke-width="1.2" stroke-linecap="round" stroke-linejoin="round" />
  <path d="M104.35,148.73 C104.79,148.73 105.16,148.81 105.46,148.97" fill="currentColor" stroke="currentColor" stroke-width="1.2" stroke-linecap="round" stroke-linejoin="round" />
  <path d="M98.85,148.79 C98.90,148.79 98.95,148.79 99.01,148.79" fill="currentColor" stroke="currentColor" stroke-width="1.2" stroke-linecap="round" stroke-linejoin="round" />
  <path d="M99.01,148.79 C99.10,148.79 99.17,148.79 99.23,148.80" fill="currentColor" stroke="currentColor" stroke-width="1.2" stroke-linecap="round" stroke-linejoin="round" />
  <path d="M98.74,148.81 C98.77,148.80 98.81,148.79 98.85,148.79" fill="currentColor" stroke="currentColor" stroke-width="1.2" stroke-linecap="round" stroke-linejoin="round" />
  <path d="M99.23,148.80 C99.29,148.81 99.33,148.82 99.36,148.83" fill="currentColor" stroke="currentColor" stroke-width="1.2" stroke-linecap="round" stroke-linejoin="round" />
  <path d="M98.66,148.83 C98.68,148.82 98.71,148.81 98.74,148.81" fill="currentColor" stroke="currentColor" stroke-width="1.2" stroke-linecap="round" stroke-linejoin="round" />
  <path d="M98.61,148.85 C98.62,148.84 98.64,148.83 98.66,148.83" fill="currentColor" stroke="currentColor" stroke-width="1.2" stroke-linecap="round" stroke-linejoin="round" />
  <path d="M99.36,148.83 C99.40,148.84 99.42,148.86 99.43,148.88" fill="currentColor" stroke="currentColor" stroke-width="1.2" stroke-linecap="round" stroke-linejoin="round" />
  <line x1="97.01" y1="149.88" x2="98.61" y2="148.85" fill="currentColor" stroke="currentColor" stroke-width="1.2" stroke-linecap="round" stroke-linejoin="round" />
  <path d="M99.43,148.88 C99.44,148.90 99.44,148.92 99.44,148.94" fill="currentColor" stroke="currentColor" stroke-width="1.2" stroke-linecap="round" stroke-linejoin="round" />
  <line x1="99.44" y1="148.94" x2="99.44" y2="155.05" fill="currentColor" stroke="currentColor" stroke-width="1.2" stroke-linecap="round" stroke-linejoin="round" />
  <path d="M105.46,148.97 C105.76,149.12 106.00,149.35 106.18,149.66" fill="currentColor" stroke="currentColor" stroke-width="1.2" stroke-linecap="round" stroke-linejoin="round" />
  <path d="M102.43,149.73 C102.62,149.41 102.87,149.17 103.19,149.00" fill="currentColor" stroke="currentColor" stroke-width="1.2" stroke-linecap="round" stroke-linejoin="round" />
  <path d="M104.76,149.56 C104.62,149.51 104.47,149.49 104.29,149.49" fill="currentColor" stroke="currentColor" stroke-width="1.2" stroke-linecap="round" stroke-linejoin="round" />
  <path d="M104.29,149.49 C103.99,149.49 103.74,149.56 103.55,149.71" fill="currentColor" stroke="currentColor" stroke-width="1.2" stroke-linecap="round" stroke-linejoin="round" />
  <path d="M105.13,149.77 C105.02,149.68 104.90,149.60 104.76,149.56" fill="currentColor" stroke="currentColor" stroke-width="1.2" stroke-linecap="round" stroke-linejoin="round" />
  <path d="M103.55,149.71 C103.36,149.85 103.21,150.05 103.10,150.30" fill="currentColor" stroke="currentColor" stroke-width="1.2" stroke-linecap="round" stroke-linejoin="round" />
  <path d="M102.01,150.87 C102.09,150.43 102.23,150.05 102.43,149.73" fill="currentColor" stroke="currentColor" stroke-width="1.2" stroke-linecap="round" stroke-linejoin="round" />
  <line x1="98.52" y1="155.05" x2="98.52" y2="149.76" fill="currentColor" stroke="currentColor" stroke-width="1.2" stroke-linecap="round" stroke-linejoin="round" />
  <line x1="98.52" y1="149.76" x2="97.18" y2="150.56" fill="currentColor" stroke="currentColor" stroke-width="1.2" stroke-linecap="round" stroke-linejoin="round" />
  <path d="M105.40,150.15 C105.33,150.00 105.24,149.87 105.13,149.77" fill="currentColor" stroke="currentColor" stroke-width="1.2" stroke-linecap="round" stroke-linejoin="round" />
  <path d="M96.93,149.94 C96.95,149.92 96.97,149.90 97.01,149.88" fill="currentColor" stroke="currentColor" stroke-width="1.2" stroke-linecap="round" stroke-linejoin="round" />
  <path d="M96.88,150.02 C96.89,149.99 96.91,149.97 96.93,149.94" fill="currentColor" stroke="currentColor" stroke-width="1.2" stroke-linecap="round" stroke-linejoin="round" />
  <path d="M96.86,150.13 C96.86,150.08 96.87,150.05 96.88,150.02" fill="currentColor" stroke="currentColor" stroke-width="1.2" stroke-linecap="round" stroke-linejoin="round" />
  <path d="M96.85,150.28 C96.85,150.22 96.85,150.17 96.86,150.13" fill="currentColor" stroke="currentColor" stroke-width="1.2" stroke-linecap="round" stroke-linejoin="round" />
  <path d="M105.59,150.69 C105.54,150.48 105.48,150.30 105.40,150.15" fill="currentColor" stroke="currentColor" stroke-width="1.2" stroke-linecap="round" stroke-linejoin="round" />
  <path d="M96.86,150.49 C96.85,150.43 96.85,150.36 96.85,150.28" fill="currentColor" stroke="currentColor" stroke-width="1.2" stroke-linecap="round" stroke-linejoin="round" />
  <path d="M103.10,150.30 C103.00,150.55 102.92,150.84 102.88,151.18" fill="currentColor" stroke="currentColor" stroke-width="1.2" stroke-linecap="round" stroke-linejoin="round" />
  <path d="M96.91,150.60 C96.89,150.58 96.87,150.54 96.86,150.49" fill="currentColor" stroke="currentColor" stroke-width="1.2" stroke-linecap="round" stroke-linejoin="round" />
  <path d="M97.18,150.56 C97.11,150.60 97.06,150.62 97.01,150.63" fill="currentColor" stroke="currentColor" stroke-width="1.2" stroke-linecap="round" stroke-linejoin="round" />
  <path d="M97.01,150.63 C96.97,150.63 96.94,150.63 96.91,150.60" fill="currentColor" stroke="currentColor" stroke-width="1.2" stroke-linecap="round" stroke-linejoin="round" />
  <path d="M105.70,151.43 C105.68,151.15 105.64,150.91 105.59,150.69" fill="currentColor" stroke="currentColor" stroke-width="1.2" stroke-linecap="round" stroke-linejoin="round" />
  <path d="M101.88,152.33 C101.88,151.80 101.92,151.31 102.01,150.87" fill="currentColor" stroke="currentColor" stroke-width="1.2" stroke-linecap="round" stroke-linejoin="round" />
  <path d="M102.88,151.18 C102.84,151.51 102.82,151.88 102.82,152.26" fill="currentColor" stroke="currentColor" stroke-width="1.2" stroke-linecap="round" stroke-linejoin="round" />
  <path d="M105.74,152.36 C105.74,152.01 105.73,151.70 105.70,151.43" fill="currentColor" stroke="currentColor" stroke-width="1.2" stroke-linecap="round" stroke-linejoin="round" />
  <path d="M102.82,152.26 C102.82,152.78 102.85,153.22 102.90,153.59" fill="currentColor" stroke="currentColor" stroke-width="1.2" stroke-linecap="round" stroke-linejoin="round" />
  <path d="M101.99,153.85 C101.92,153.41 101.88,152.90 101.88,152.33" fill="currentColor" stroke="currentColor" stroke-width="1.2" stroke-linecap="round" stroke-linejoin="round" />
  <path d="M105.71,153.10 C105.73,152.87 105.74,152.62 105.74,152.36" fill="currentColor" stroke="currentColor" stroke-width="1.2" stroke-linecap="round" stroke-linejoin="round" />
  <path d="M105.63,153.77 C105.67,153.56 105.70,153.34 105.71,153.10" fill="currentColor" stroke="currentColor" stroke-width="1.2" stroke-linecap="round" stroke-linejoin="round" />
  <path d="M102.90,153.59 C102.96,153.95 103.04,154.25 103.16,154.48" fill="currentColor" stroke="currentColor" stroke-width="1.2" stroke-linecap="round" stroke-linejoin="round" />
  <path d="M105.46,154.33 C105.53,154.16 105.58,153.97 105.63,153.77" fill="currentColor" stroke="currentColor" stroke-width="1.2" stroke-linecap="round" stroke-linejoin="round" />
  <path d="M102.38,154.97 C102.20,154.66 102.07,154.29 101.99,153.85" fill="currentColor" stroke="currentColor" stroke-width="1.2" stroke-linecap="round" stroke-linejoin="round" />
  <path d="M105.18,154.76 C105.29,154.64 105.38,154.49 105.46,154.33" fill="currentColor" stroke="currentColor" stroke-width="1.2" stroke-linecap="round" stroke-linejoin="round" />
  <path d="M103.16,154.48 C103.27,154.71 103.42,154.87 103.60,154.98" fill="currentColor" stroke="currentColor" stroke-width="1.2" stroke-linecap="round" stroke-linejoin="round" />
  <path d="M104.79,155.03 C104.94,154.97 105.07,154.88 105.18,154.76" fill="currentColor" stroke="currentColor" stroke-width="1.2" stroke-linecap="round" stroke-linejoin="round" />
  <path d="M106.14,154.89 C105.94,155.21 105.69,155.45 105.37,155.63" fill="currentColor" stroke="currentColor" stroke-width="1.2" stroke-linecap="round" stroke-linejoin="round" />
  <path d="M103.10,155.65 C102.81,155.50 102.57,155.27 102.38,154.97" fill="currentColor" stroke="currentColor" stroke-width="1.2" stroke-linecap="round" stroke-linejoin="round" />
  <path d="M103.60,154.98 C103.79,155.08 104.01,155.13 104.26,155.13" fill="currentColor" stroke="currentColor" stroke-width="1.2" stroke-linecap="round" stroke-linejoin="round" />
  <path d="M104.26,155.13 C104.46,155.13 104.64,155.10 104.79,155.03" fill="currentColor" stroke="currentColor" stroke-width="1.2" stroke-linecap="round" stroke-linejoin="round" />
  <path d="M96.99,155.07 C97.02,155.05 97.04,155.05 97.07,155.05" fill="currentColor" stroke="currentColor" stroke-width="1.2" stroke-linecap="round" stroke-linejoin="round" />
  <line x1="97.07" y1="155.05" x2="98.52" y2="155.05" fill="currentColor" stroke="currentColor" stroke-width="1.2" stroke-linecap="round" stroke-linejoin="round" />
  <line x1="99.44" y1="155.05" x2="100.70" y2="155.05" fill="currentColor" stroke="currentColor" stroke-width="1.2" stroke-linecap="round" stroke-linejoin="round" />
  <path d="M100.70,155.05 C100.73,155.05 100.76,155.05 100.78,155.07" fill="currentColor" stroke="currentColor" stroke-width="1.2" stroke-linecap="round" stroke-linejoin="round" />
  <path d="M96.93,155.14 C96.95,155.11 96.97,155.09 96.99,155.07" fill="currentColor" stroke="currentColor" stroke-width="1.2" stroke-linecap="round" stroke-linejoin="round" />
  <path d="M100.78,155.07 C100.81,155.09 100.83,155.11 100.84,155.14" fill="currentColor" stroke="currentColor" stroke-width="1.2" stroke-linecap="round" stroke-linejoin="round" />
  <path d="M96.89,155.25 C96.90,155.21 96.92,155.17 96.93,155.14" fill="currentColor" stroke="currentColor" stroke-width="1.2" stroke-linecap="round" stroke-linejoin="round" />
  <path d="M100.84,155.14 C100.86,155.17 100.87,155.21 100.88,155.25" fill="currentColor" stroke="currentColor" stroke-width="1.2" stroke-linecap="round" stroke-linejoin="round" />
  <path d="M96.88,155.42 C96.88,155.36 96.88,155.30 96.89,155.25" fill="currentColor" stroke="currentColor" stroke-width="1.2" stroke-linecap="round" stroke-linejoin="round" />
  <path d="M100.88,155.25 C100.89,155.30 100.89,155.36 100.89,155.42" fill="currentColor" stroke="currentColor" stroke-width="1.2" stroke-linecap="round" stroke-linejoin="round" />
  <path d="M100.89,155.42 C100.89,155.49 100.89,155.55 100.88,155.59" fill="currentColor" stroke="currentColor" stroke-width="1.2" stroke-linecap="round" stroke-linejoin="round" />
  <path d="M96.89,155.59 C96.88,155.55 96.88,155.49 96.88,155.42" fill="currentColor" stroke="currentColor" stroke-width="1.2" stroke-linecap="round" stroke-linejoin="round" />
  <path d="M100.88,155.59 C100.87,155.64 100.85,155.68 100.84,155.71" fill="currentColor" stroke="currentColor" stroke-width="1.2" stroke-linecap="round" stroke-linejoin="round" />
  <path d="M96.94,155.71 C96.92,155.68 96.90,155.64 96.89,155.59" fill="currentColor" stroke="currentColor" stroke-width="1.2" stroke-linecap="round" stroke-linejoin="round" />
  <path d="M105.37,155.63 C105.06,155.80 104.67,155.89 104.21,155.89" fill="currentColor" stroke="currentColor" stroke-width="1.2" stroke-linecap="round" stroke-linejoin="round" />
  <path d="M104.21,155.89 C103.77,155.89 103.40,155.81 103.10,155.65" fill="currentColor" stroke="currentColor" stroke-width="1.2" stroke-linecap="round" stroke-linejoin="round" />
  <path d="M100.84,155.71 C100.82,155.74 100.80,155.76 100.77,155.77" fill="currentColor" stroke="currentColor" stroke-width="1.2" stroke-linecap="round" stroke-linejoin="round" />
  <path d="M97.00,155.77 C96.98,155.76 96.96,155.74 96.94,155.71" fill="currentColor" stroke="currentColor" stroke-width="1.2" stroke-linecap="round" stroke-linejoin="round" />
  <path d="M100.77,155.77 C100.75,155.78 100.73,155.79 100.70,155.79" fill="currentColor" stroke="currentColor" stroke-width="1.2" stroke-linecap="round" stroke-linejoin="round" />
  <path d="M97.07,155.79 C97.05,155.79 97.02,155.78 97.00,155.77" fill="currentColor" stroke="currentColor" stroke-width="1.2" stroke-linecap="round" stroke-linejoin="round" />
  <line x1="100.70" y1="155.79" x2="97.07" y2="155.79" fill="currentColor" stroke="currentColor" stroke-width="1.2" stroke-linecap="round" stroke-linejoin="round" />
</svg>