<svg xmlns="http://www.w3.org/2000/svg" viewBox="0 0 231.98 223.88" preserveAspectRatio="xMidYMid meet" shape-rendering="geometricPrecision" text-rendering="optimizeLegibility">
  <line x1="111.94" y1="215.88" x2="111.94" y2="8.00" fill="none" stroke="currentColor" stroke-width="1.4000000476837158" stroke-linecap="round" stroke-linejoin="round" />
  <line x1="26.90" y1="206.43" x2="26.90" y2="17.45" fill="none" stroke="currentColor" stroke-width="1.0" stroke-linecap="round" stroke-linejoin="round" />
  <line x1="41.07" y1="206.43" x2="41.07" y2="17.45" fill="none" stroke="currentColor" stroke-width="1.0" stroke-linecap="round" stroke-linejoin="round" />
  <line x1="55.25" y1="206.43" x2="55.25" y2="17.45" fill="none" stroke="currentColor" stroke-width="1.0" stroke-linecap="round" stroke-linejoin="round" />
  <line x1="69.42" y1="206.43" x2="69.42" y2="17.45" fill="none" stroke="currentColor" stroke-width="1.0" stroke-linecap="round" stroke-linejoin="round" />
  <line x1="83.59" y1="206.43" x2="83.59" y2="17.45" fill="none" stroke="currentColor" stroke-width="1.0" stroke-linecap="round" stroke-linejoin="round" />
  <line x1="97.77" y1="206.43" x2="97.77" y2="17.45" fill="none" stroke="currentColor" stroke-width="1.0" stroke-linecap="round" stroke-linejoin="round" />
  <line x1="168.63" y1="206.43" x2="168.63" y2="17.45" fill="none" stroke="currentColor" stroke-width="1.0" stroke-linecap="round" stroke-linejoin="round" />
  <line x1="182.81" y1="206.43" x2="182.81" y2="17.45" fill="none" stroke="currentColor" stroke-width="1.0" stroke-linecap="round" stroke-linejoin="round" />
  <line x1="196.98" y1="206.43" x2="196.98" y2="17.45" fill="none" stroke="currentColor" stroke-width="1.0" stroke-linecap="round" stroke-linejoin="round" />
  <line x1="140.29" y1="206.43" x2="140.29" y2="17.45" fill="none" stroke="currentColor" stroke-width="1.0" stroke-linecap="round" stroke-linejoin="round" />
  <line x1="154.46" y1="206.43" x2="154.46" y2="17.45" fill="none" stroke="currentColor" stroke-width="1.0" stroke-linecap="round" stroke-linejoin="round" />
  <line x1="126.11" y1="206.43" x2="126.11" y2="17.45" fill="none" stroke="currentColor" stroke-width="1.0" stroke-linecap="round" stroke-linejoin="round" />
  <line x1="17.45" y1="26.90" x2="206.43" y2="26.90" fill="none" stroke="currentColor" stroke-width="1.0" stroke-linecap="round" stroke-linejoin="round" />
  <line x1="17.45" y1="41.07" x2="206.43" y2="41.07" fill="none" stroke="currentColor" stroke-width="1.0" stroke-linecap="round" stroke-linejoin="round" />
  <line x1="17.45" y1="55.25" x2="206.43" y2="55.25" fill="none" stroke="currentColor" stroke-width="1.0" stroke-linecap="round" stroke-linejoin="round" />
  <line x1="17.45" y1="69.42" x2="206.43" y2="69.42" fill="none" stroke="currentColor" stroke-width="1.0" stroke-linecap="round" stroke-linejoin="round" />
  <line x1="17.45" y1="83.60" x2="206.43" y2="83.60" fill="none" stroke="currentColor" stroke-width="1.0" stroke-linecap="round" stroke-linejoin="round" />
  <line x1="17.45" y1="97.77" x2="206.43" y2="97.77" fill="none" stroke="currentColor" stroke-width="1.0" stroke-linecap="round" stroke-linejoin="round" />
  <line x1="214.26" y1="108.70" x2="215.34" y2="111.94" fill="currentColor" stroke="currentColor" stroke-width="1.2" stroke-linecap="round" stroke-linejoin="round" />
  <line x1="223.98" y1="111.94" x2="214.26" y2="108.70" fill="currentColor" stroke="currentColor" stroke-width="1.2" stroke-linecap="round" stroke-linejoin="round" />
  <line x1="8.00" y1="111.94" x2="215.88" y2="111.94" fill="none" stroke="currentColor" stroke-width="1.4000000476837158" stroke-linecap="round" stroke-linejoin="round" />
  <line x1="215.34" y1="111.94" x2="214.26" y2="115.18" fill="currentColor" stroke="currentColor" stroke-width="1.2" stroke-linecap="round" stroke-linejoin="round" />
  <line x1="214.26" y1="115.18" x2="223.98" y2="111.94" fill="currentColor" stroke="currentColor" stroke-width="1.2" stroke-linecap="round" stroke-linejoin="round" />
  <path d="M212.09,119.31 C212.16,119.30 212.25,119.30 212.36,119.30" fill="currentColor" stroke="currentColor" stroke-width="1.2" stroke-linecap="round" stroke-linejoin="round" />
  <path d="M212.36,119.30 C212.46,119.30 212.54,119.30 212.60,119.30" fill="currentColor" stroke="currentColor" stroke-width="1.2" stroke-linecap="round" stroke-linejoin="round" />
  <path d="M215.35,119.30 C215.41,119.30 215.48,119.30 215.58,119.30" fill="currentColor" stroke="currentColor" stroke-width="1.2" stroke-linecap="round" stroke-linejoin="round" />
  <path d="M215.58,119.30 C215.69,119.30 215.78,119.30 215.84,119.31" fill="currentColor" stroke="currentColor" stroke-width="1.2" stroke-linecap="round" stroke-linejoin="round" />
  <path d="M212.60,119.30 C212.65,119.31 212.70,119.32 212.73,119.33" fill="currentColor" stroke="currentColor" stroke-width="1.2" stroke-linecap="round" stroke-linejoin="round" />
  <path d="M215.20,119.33 C215.24,119.32 215.29,119.31 215.35,119.30" fill="currentColor" stroke="currentColor" stroke-width="1.2" stroke-linecap="round" stroke-linejoin="round" />
  <path d="M211.94,119.35 C211.97,119.33 212.02,119.31 212.09,119.31" fill="currentColor" stroke="currentColor" stroke-width="1.2" stroke-linecap="round" stroke-linejoin="round" />
  <path d="M215.84,119.31 C215.91,119.31 215.96,119.33 215.99,119.34" fill="currentColor" stroke="currentColor" stroke-width="1.2" stroke-linecap="round" stroke-linejoin="round" />
  <path d="M212.73,119.33 C212.76,119.34 212.78,119.35 212.79,119.37" fill="currentColor" stroke="currentColor" stroke-width="1.2" stroke-linecap="round" stroke-linejoin="round" />
  <path d="M215.11,119.38 C215.13,119.36 215.16,119.34 215.20,119.33" fill="currentColor" stroke="currentColor" stroke-width="1.2" stroke-linecap="round" stroke-linejoin="round" />
  <path d="M215.99,119.34 C216.03,119.36 216.04,119.39 216.04,119.42" fill="currentColor" stroke="currentColor" stroke-width="1.2" stroke-linecap="round" stroke-linejoin="round" />
  <path d="M211.88,119.43 C211.88,119.40 211.90,119.37 211.94,119.35" fill="currentColor" stroke="currentColor" stroke-width="1.2" stroke-linecap="round" stroke-linejoin="round" />
  <path d="M212.79,119.37 C212.80,119.39 212.82,119.41 212.83,119.43" fill="currentColor" stroke="currentColor" stroke-width="1.2" stroke-linecap="round" stroke-linejoin="round" />
  <path d="M215.04,119.43 C215.07,119.41 215.09,119.39 215.11,119.38" fill="currentColor" stroke="currentColor" stroke-width="1.2" stroke-linecap="round" stroke-linejoin="round" />
  <path d="M216.04,119.42 C216.03,119.46 216.00,119.50 215.96,119.55" fill="currentColor" stroke="currentColor" stroke-width="1.2" stroke-linecap="round" stroke-linejoin="round" />
  <path d="M211.91,119.56 C211.89,119.51 211.88,119.46 211.88,119.43" fill="currentColor" stroke="currentColor" stroke-width="1.2" stroke-linecap="round" stroke-linejoin="round" />
  <line x1="212.83" y1="119.43" x2="213.59" y2="121.24" fill="currentColor" stroke="currentColor" stroke-width="1.2" stroke-linecap="round" stroke-linejoin="round" />
  <line x1="213.59" y1="121.24" x2="215.04" y2="119.43" fill="currentColor" stroke="currentColor" stroke-width="1.2" stroke-linecap="round" stroke-linejoin="round" />
  <line x1="215.96" y1="119.55" x2="214.07" y2="121.83" fill="currentColor" stroke="currentColor" stroke-width="1.2" stroke-linecap="round" stroke-linejoin="round" />
  <line x1="212.90" y1="121.81" x2="211.91" y2="119.56" fill="currentColor" stroke="currentColor" stroke-width="1.2" stroke-linecap="round" stroke-linejoin="round" />
  <line x1="210.89" y1="124.20" x2="212.90" y2="121.81" fill="currentColor" stroke="currentColor" stroke-width="1.2" stroke-linecap="round" stroke-linejoin="round" />
  <line x1="214.07" y1="121.83" x2="215.12" y2="124.19" fill="currentColor" stroke="currentColor" stroke-width="1.2" stroke-linecap="round" stroke-linejoin="round" />
  <line x1="214.18" y1="124.31" x2="213.37" y2="122.40" fill="currentColor" stroke="currentColor" stroke-width="1.2" stroke-linecap="round" stroke-linejoin="round" />
  <line x1="213.37" y1="122.40" x2="211.85" y2="124.31" fill="currentColor" stroke="currentColor" stroke-width="1.2" stroke-linecap="round" stroke-linejoin="round" />
  <path d="M215.12,124.19 C215.15,124.24 215.15,124.29 215.15,124.32" fill="currentColor" stroke="currentColor" stroke-width="1.2" stroke-linecap="round" stroke-linejoin="round" />
  <path d="M210.83,124.32 C210.84,124.29 210.86,124.25 210.89,124.20" fill="currentColor" stroke="currentColor" stroke-width="1.2" stroke-linecap="round" stroke-linejoin="round" />
  <path d="M214.21,124.38 C214.20,124.36 214.19,124.34 214.18,124.31" fill="currentColor" stroke="currentColor" stroke-width="1.2" stroke-linecap="round" stroke-linejoin="round" />
  <path d="M211.85,124.31 C211.83,124.34 211.81,124.36 211.79,124.38" fill="currentColor" stroke="currentColor" stroke-width="1.2" stroke-linecap="round" stroke-linejoin="round" />
  <path d="M215.15,124.32 C215.14,124.35 215.12,124.38 215.08,124.40" fill="currentColor" stroke="currentColor" stroke-width="1.2" stroke-linecap="round" stroke-linejoin="round" />
  <path d="M210.87,124.40 C210.84,124.38 210.83,124.35 210.83,124.32" fill="currentColor" stroke="currentColor" stroke-width="1.2" stroke-linecap="round" stroke-linejoin="round" />
  <path d="M214.28,124.43 C214.24,124.41 214.22,124.40 214.21,124.38" fill="currentColor" stroke="currentColor" stroke-width="1.2" stroke-linecap="round" stroke-linejoin="round" />
  <path d="M211.79,124.38 C211.76,124.40 211.73,124.41 211.69,124.42" fill="currentColor" stroke="currentColor" stroke-width="1.2" stroke-linecap="round" stroke-linejoin="round" />
  <path d="M215.08,124.40 C215.04,124.42 214.99,124.44 214.92,124.45" fill="currentColor" stroke="currentColor" stroke-width="1.2" stroke-linecap="round" stroke-linejoin="round" />
  <path d="M211.01,124.45 C210.95,124.44 210.90,124.42 210.87,124.40" fill="currentColor" stroke="currentColor" stroke-width="1.2" stroke-linecap="round" stroke-linejoin="round" />
  <path d="M211.69,124.42 C211.64,124.43 211.59,124.44 211.52,124.45" fill="currentColor" stroke="currentColor" stroke-width="1.2" stroke-linecap="round" stroke-linejoin="round" />
  <path d="M214.41,124.45 C214.35,124.45 214.31,124.44 214.28,124.43" fill="currentColor" stroke="currentColor" stroke-width="1.2" stroke-linecap="round" stroke-linejoin="round" />
  <path d="M214.92,124.45 C214.85,124.46 214.76,124.46 214.65,124.46" fill="currentColor" stroke="currentColor" stroke-width="1.2" stroke-linecap="round" stroke-linejoin="round" />
  <path d="M211.26,124.46 C211.16,124.46 211.08,124.46 211.01,124.45" fill="currentColor" stroke="currentColor" stroke-width="1.2" stroke-linecap="round" stroke-linejoin="round" />
  <path d="M211.52,124.45 C211.46,124.46 211.37,124.46 211.26,124.46" fill="currentColor" stroke="currentColor" stroke-width="1.2" stroke-linecap="round" stroke-linejoin="round" />
  <path d="M214.65,124.46 C214.55,124.46 214.47,124.46 214.41,124.45" fill="currentColor" stroke="currentColor" stroke-width="1.2" stroke-linecap="round" stroke-linejoin="round" />
  <line x1="17.45" y1="126.12" x2="206.43" y2="126.12" fill="none" stroke="currentColor" stroke-width="1.0" stroke-linecap="round" stroke-linejoin="round" />
  <line x1="17.45" y1="140.29" x2="206.43" y2="140.29" fill="none" stroke="currentColor" stroke-width="1.0" stroke-linecap="round" stroke-linejoin="round" />
  <line x1="17.45" y1="154.46" x2="206.43" y2="154.46" fill="none" stroke="currentColor" stroke-width="1.0" stroke-linecap="round" stroke-linejoin="round" />
  <line x1="17.45" y1="168.64" x2="206.43" y2="168.64" fill="none" stroke="currentColor" stroke-width="1.0" stroke-linecap="round" stroke-linejoin="round" />
  <line x1="17.45" y1="182.81" x2="206.43" y2="182.81" fill="none" stroke="currentColor" stroke-width="1.0" stroke-linecap="round" stroke-linejoin="round" />
  <line x1="17.45" y1="196.98" x2="206.43" y2="196.98" fill="none" stroke="currentColor" stroke-width="1.0" stroke-linecap="round" stroke-linejoin="round" />
</svg>