<svg xmlns="http://www.w3.org/2000/svg" viewBox="0 0 96.55 230.55" preserveAspectRatio="xMidYMid meet" shape-rendering="geometricPrecision" text-rendering="optimizeLegibility">
  <path d="M25.04,19.24 C39.41,8.00 60.21,10.55 71.46,24.93" fill="none" stroke="currentColor" stroke-width="1.4000000476837158" stroke-linecap="round" stroke-linejoin="round" />
  <rect x="12.24" y="12.23" width="66.23" height="198.59" fill="none" stroke="currentColor" stroke-width="1.4000000476837158" stroke-linecap="round" stroke-linejoin="round" />
  <path d="M19.35,65.66 C8.11,51.28 10.65,30.49 25.04,19.24" fill="none" stroke="currentColor" stroke-width="1.4000000476837158" stroke-linecap="round" stroke-linejoin="round" />
  <path d="M71.46,24.93 C82.70,39.31 80.15,60.10 65.77,71.35" fill="none" stroke="currentColor" stroke-width="1.4000000476837158" stroke-linecap="round" stroke-linejoin="round" />
  <line x1="48.00" y1="35.42" x2="47.07" y2="35.42" fill="currentColor" stroke="currentColor" stroke-width="1.2" stroke-linecap="round" stroke-linejoin="round" />
  <line x1="47.07" y1="35.42" x2="46.73" y2="37.83" fill="currentColor" stroke="currentColor" stroke-width="1.2" stroke-linecap="round" stroke-linejoin="round" />
  <line x1="46.95" y1="42.92" x2="48.00" y2="35.42" fill="currentColor" stroke="currentColor" stroke-width="1.2" stroke-linecap="round" stroke-linejoin="round" />
  <line x1="46.73" y1="37.83" x2="46.33" y2="37.83" fill="currentColor" stroke="currentColor" stroke-width="1.2" stroke-linecap="round" stroke-linejoin="round" />
  <path d="M46.33,37.83 C45.86,37.83 45.45,37.90 45.09,38.04" fill="currentColor" stroke="currentColor" stroke-width="1.2" stroke-linecap="round" stroke-linejoin="round" />
  <path d="M45.09,38.04 C44.73,38.17 44.43,38.35 44.17,38.57" fill="currentColor" stroke="currentColor" stroke-width="1.2" stroke-linecap="round" stroke-linejoin="round" />
  <path d="M44.17,38.57 C43.92,38.79 43.71,39.03 43.55,39.29" fill="currentColor" stroke="currentColor" stroke-width="1.2" stroke-linecap="round" stroke-linejoin="round" />
  <path d="M45.36,38.80 C45.66,38.68 45.99,38.61 46.37,38.61" fill="currentColor" stroke="currentColor" stroke-width="1.2" stroke-linecap="round" stroke-linejoin="round" />
  <line x1="46.37" y1="38.61" x2="46.62" y2="38.61" fill="currentColor" stroke="currentColor" stroke-width="1.2" stroke-linecap="round" stroke-linejoin="round" />
  <line x1="46.62" y1="38.61" x2="46.11" y2="42.28" fill="currentColor" stroke="currentColor" stroke-width="1.2" stroke-linecap="round" stroke-linejoin="round" />
  <path d="M44.63,39.29 C44.83,39.09 45.07,38.92 45.36,38.80" fill="currentColor" stroke="currentColor" stroke-width="1.2" stroke-linecap="round" stroke-linejoin="round" />
  <path d="M43.55,39.29 C43.39,39.55 43.27,39.81 43.20,40.07" fill="currentColor" stroke="currentColor" stroke-width="1.2" stroke-linecap="round" stroke-linejoin="round" />
  <path d="M44.19,39.98 C44.29,39.73 44.44,39.50 44.63,39.29" fill="currentColor" stroke="currentColor" stroke-width="1.2" stroke-linecap="round" stroke-linejoin="round" />
  <path d="M44.04,40.76 C44.04,40.50 44.09,40.24 44.19,39.98" fill="currentColor" stroke="currentColor" stroke-width="1.2" stroke-linecap="round" stroke-linejoin="round" />
  <path d="M43.20,40.07 C43.12,40.33 43.09,40.57 43.09,40.79" fill="currentColor" stroke="currentColor" stroke-width="1.2" stroke-linecap="round" stroke-linejoin="round" />
  <path d="M44.47,41.90 C44.19,41.64 44.04,41.26 44.04,40.76" fill="currentColor" stroke="currentColor" stroke-width="1.2" stroke-linecap="round" stroke-linejoin="round" />
  <path d="M43.09,40.79 C43.09,41.53 43.32,42.09 43.76,42.48" fill="currentColor" stroke="currentColor" stroke-width="1.2" stroke-linecap="round" stroke-linejoin="round" />
  <path d="M45.68,42.30 C45.15,42.30 44.75,42.17 44.47,41.90" fill="currentColor" stroke="currentColor" stroke-width="1.2" stroke-linecap="round" stroke-linejoin="round" />
  <path d="M46.11,42.28 C46.03,42.29 45.96,42.30 45.89,42.30" fill="currentColor" stroke="currentColor" stroke-width="1.2" stroke-linecap="round" stroke-linejoin="round" />
  <path d="M45.89,42.30 C45.82,42.30 45.75,42.30 45.68,42.30" fill="currentColor" stroke="currentColor" stroke-width="1.2" stroke-linecap="round" stroke-linejoin="round" />
  <path d="M43.76,42.48 C44.21,42.87 44.85,43.07 45.68,43.07" fill="currentColor" stroke="currentColor" stroke-width="1.2" stroke-linecap="round" stroke-linejoin="round" />
  <path d="M46.35,43.04 C46.55,43.01 46.75,42.97 46.95,42.92" fill="currentColor" stroke="currentColor" stroke-width="1.2" stroke-linecap="round" stroke-linejoin="round" />
  <path d="M45.68,43.07 C45.92,43.07 46.14,43.06 46.35,43.04" fill="currentColor" stroke="currentColor" stroke-width="1.2" stroke-linecap="round" stroke-linejoin="round" />
  <line x1="12.34" y1="45.29" x2="78.47" y2="45.29" fill="none" stroke="currentColor" stroke-width="1.0" stroke-linecap="round" stroke-linejoin="round" />
  <path d="M65.77,71.35 C51.39,82.59 30.59,80.04 19.35,65.66" fill="none" stroke="currentColor" stroke-width="1.4000000476837158" stroke-linecap="round" stroke-linejoin="round" />
  <path d="M24.95,85.38 C39.35,74.12 60.18,76.67 71.44,91.08" fill="none" stroke="currentColor" stroke-width="1.4000000476837158" stroke-linecap="round" stroke-linejoin="round" />
  <path d="M19.26,131.88 C8.00,117.47 10.55,96.64 24.95,85.38" fill="none" stroke="currentColor" stroke-width="1.4000000476837158" stroke-linecap="round" stroke-linejoin="round" />
  <path d="M71.44,91.08 C82.70,105.48 80.15,126.31 65.75,137.57" fill="none" stroke="currentColor" stroke-width="1.4000000476837158" stroke-linecap="round" stroke-linejoin="round" />
  <line x1="86.11" y1="107.43" x2="85.18" y2="107.43" fill="currentColor" stroke="currentColor" stroke-width="1.2" stroke-linecap="round" stroke-linejoin="round" />
  <line x1="85.18" y1="107.43" x2="84.12" y2="114.93" fill="currentColor" stroke="currentColor" stroke-width="1.2" stroke-linecap="round" stroke-linejoin="round" />
  <line x1="85.64" y1="110.78" x2="86.11" y2="107.43" fill="currentColor" stroke="currentColor" stroke-width="1.2" stroke-linecap="round" stroke-linejoin="round" />
  <path d="M88.10,110.08 C87.91,109.92 87.68,109.84 87.38,109.84" fill="currentColor" stroke="currentColor" stroke-width="1.2" stroke-linecap="round" stroke-linejoin="round" />
  <path d="M87.38,109.84 C87.09,109.84 86.80,109.92 86.51,110.08" fill="currentColor" stroke="currentColor" stroke-width="1.2" stroke-linecap="round" stroke-linejoin="round" />
  <path d="M88.47,110.70 C88.40,110.44 88.28,110.23 88.10,110.08" fill="currentColor" stroke="currentColor" stroke-width="1.2" stroke-linecap="round" stroke-linejoin="round" />
  <path d="M86.51,110.08 C86.22,110.25 85.94,110.49 85.66,110.81" fill="currentColor" stroke="currentColor" stroke-width="1.2" stroke-linecap="round" stroke-linejoin="round" />
  <path d="M86.52,110.70 C86.69,110.60 86.85,110.54 87.01,110.54" fill="currentColor" stroke="currentColor" stroke-width="1.2" stroke-linecap="round" stroke-linejoin="round" />
  <path d="M87.01,110.54 C87.21,110.54 87.37,110.63 87.47,110.79" fill="currentColor" stroke="currentColor" stroke-width="1.2" stroke-linecap="round" stroke-linejoin="round" />
  <path d="M88.50,111.56 C88.55,111.25 88.53,110.96 88.47,110.70" fill="currentColor" stroke="currentColor" stroke-width="1.2" stroke-linecap="round" stroke-linejoin="round" />
  <path d="M86.01,111.12 C86.18,110.95 86.35,110.81 86.52,110.70" fill="currentColor" stroke="currentColor" stroke-width="1.2" stroke-linecap="round" stroke-linejoin="round" />
  <line x1="85.66" y1="110.81" x2="85.64" y2="110.78" fill="currentColor" stroke="currentColor" stroke-width="1.2" stroke-linecap="round" stroke-linejoin="round" />
  <path d="M87.47,110.79 C87.58,110.95 87.61,111.19 87.57,111.51" fill="currentColor" stroke="currentColor" stroke-width="1.2" stroke-linecap="round" stroke-linejoin="round" />
  <path d="M85.51,111.72 C85.67,111.50 85.83,111.30 86.01,111.12" fill="currentColor" stroke="currentColor" stroke-width="1.2" stroke-linecap="round" stroke-linejoin="round" />
  <line x1="87.57" y1="111.51" x2="87.09" y2="114.93" fill="currentColor" stroke="currentColor" stroke-width="1.2" stroke-linecap="round" stroke-linejoin="round" />
  <line x1="88.03" y1="114.93" x2="88.50" y2="111.56" fill="currentColor" stroke="currentColor" stroke-width="1.2" stroke-linecap="round" stroke-linejoin="round" />
  <line x1="85.06" y1="114.93" x2="85.51" y2="111.72" fill="currentColor" stroke="currentColor" stroke-width="1.2" stroke-linecap="round" stroke-linejoin="round" />
  <line x1="84.12" y1="114.93" x2="85.06" y2="114.93" fill="currentColor" stroke="currentColor" stroke-width="1.2" stroke-linecap="round" stroke-linejoin="round" />
  <line x1="87.09" y1="114.93" x2="88.03" y2="114.93" fill="currentColor" stroke="currentColor" stroke-width="1.2" stroke-linecap="round" stroke-linejoin="round" />
  <path d="M65.75,137.57 C51.35,148.83 30.52,146.28 19.26,131.88" fill="none" stroke="currentColor" stroke-width="1.4000000476837158" stroke-linecap="round" stroke-linejoin="round" />
  <path d="M24.95,151.61 C39.35,140.36 60.18,142.90 71.44,157.31" fill="none" stroke="currentColor" stroke-width="1.4000000476837158" stroke-linecap="round" stroke-linejoin="round" />
  <path d="M19.26,198.11 C8.00,183.70 10.55,162.88 24.95,151.61" fill="none" stroke="currentColor" stroke-width="1.4000000476837158" stroke-linecap="round" stroke-linejoin="round" />
  <path d="M71.44,157.31 C82.70,171.71 80.15,192.54 65.75,203.80" fill="none" stroke="currentColor" stroke-width="1.4000000476837158" stroke-linecap="round" stroke-linejoin="round" />
  <path d="M65.75,203.80 C51.35,215.06 30.52,212.51 19.26,198.11" fill="none" stroke="currentColor" stroke-width="1.4000000476837158" stroke-linecap="round" stroke-linejoin="round" />
  <line x1="45.06" y1="214.89" x2="44.10" y2="214.89" fill="currentColor" stroke="currentColor" stroke-width="1.2" stroke-linecap="round" stroke-linejoin="round" />
  <line x1="44.10" y1="214.89" x2="43.08" y2="222.47" fill="currentColor" stroke="currentColor" stroke-width="1.2" stroke-linecap="round" stroke-linejoin="round" />
  <line x1="44.64" y1="217.83" x2="45.06" y2="214.89" fill="currentColor" stroke="currentColor" stroke-width="1.2" stroke-linecap="round" stroke-linejoin="round" />
  <path d="M45.86,217.30 C45.63,217.30 45.43,217.34 45.24,217.42" fill="currentColor" stroke="currentColor" stroke-width="1.2" stroke-linecap="round" stroke-linejoin="round" />
  <path d="M46.77,217.59 C46.51,217.40 46.21,217.30 45.86,217.30" fill="currentColor" stroke="currentColor" stroke-width="1.2" stroke-linecap="round" stroke-linejoin="round" />
  <path d="M45.24,217.42 C45.05,217.51 44.86,217.65 44.66,217.85" fill="currentColor" stroke="currentColor" stroke-width="1.2" stroke-linecap="round" stroke-linejoin="round" />
  <path d="M47.38,218.38 C47.23,218.04 47.03,217.78 46.77,217.59" fill="currentColor" stroke="currentColor" stroke-width="1.2" stroke-linecap="round" stroke-linejoin="round" />
  <line x1="44.66" y1="217.85" x2="44.64" y2="217.83" fill="currentColor" stroke="currentColor" stroke-width="1.2" stroke-linecap="round" stroke-linejoin="round" />
  <path d="M45.29,218.15 C45.40,218.13 45.49,218.11 45.57,218.11" fill="currentColor" stroke="currentColor" stroke-width="1.2" stroke-linecap="round" stroke-linejoin="round" />
  <path d="M45.57,218.11 C45.91,218.12 46.17,218.24 46.35,218.49" fill="currentColor" stroke="currentColor" stroke-width="1.2" stroke-linecap="round" stroke-linejoin="round" />
  <path d="M44.95,218.27 C45.07,218.22 45.18,218.18 45.29,218.15" fill="currentColor" stroke="currentColor" stroke-width="1.2" stroke-linecap="round" stroke-linejoin="round" />
  <path d="M44.67,218.47 C44.75,218.39 44.84,218.32 44.95,218.27" fill="currentColor" stroke="currentColor" stroke-width="1.2" stroke-linecap="round" stroke-linejoin="round" />
  <path d="M47.60,219.55 C47.59,219.11 47.52,218.72 47.38,218.38" fill="currentColor" stroke="currentColor" stroke-width="1.2" stroke-linecap="round" stroke-linejoin="round" />
  <path d="M44.52,218.74 C44.54,218.64 44.59,218.55 44.67,218.47" fill="currentColor" stroke="currentColor" stroke-width="1.2" stroke-linecap="round" stroke-linejoin="round" />
  <path d="M46.35,218.49 C46.54,218.73 46.64,219.08 46.64,219.53" fill="currentColor" stroke="currentColor" stroke-width="1.2" stroke-linecap="round" stroke-linejoin="round" />
  <line x1="44.09" y1="221.78" x2="44.52" y2="218.74" fill="currentColor" stroke="currentColor" stroke-width="1.2" stroke-linecap="round" stroke-linejoin="round" />
  <path d="M46.64,219.53 C46.64,219.98 46.56,220.37 46.40,220.71" fill="currentColor" stroke="currentColor" stroke-width="1.2" stroke-linecap="round" stroke-linejoin="round" />
  <path d="M47.50,220.37 C47.57,220.09 47.60,219.82 47.60,219.55" fill="currentColor" stroke="currentColor" stroke-width="1.2" stroke-linecap="round" stroke-linejoin="round" />
  <path d="M47.18,221.18 C47.33,220.92 47.44,220.65 47.50,220.37" fill="currentColor" stroke="currentColor" stroke-width="1.2" stroke-linecap="round" stroke-linejoin="round" />
  <path d="M46.40,220.71 C46.24,221.04 46.01,221.30 45.71,221.49" fill="currentColor" stroke="currentColor" stroke-width="1.2" stroke-linecap="round" stroke-linejoin="round" />
  <path d="M46.59,221.87 C46.84,221.67 47.03,221.44 47.18,221.18" fill="currentColor" stroke="currentColor" stroke-width="1.2" stroke-linecap="round" stroke-linejoin="round" />
  <path d="M45.71,221.49 C45.41,221.68 45.04,221.77 44.60,221.78" fill="currentColor" stroke="currentColor" stroke-width="1.2" stroke-linecap="round" stroke-linejoin="round" />
  <line x1="44.60" y1="221.78" x2="44.09" y2="221.78" fill="currentColor" stroke="currentColor" stroke-width="1.2" stroke-linecap="round" stroke-linejoin="round" />
  <path d="M45.67,222.36 C46.04,222.24 46.34,222.08 46.59,221.87" fill="currentColor" stroke="currentColor" stroke-width="1.2" stroke-linecap="round" stroke-linejoin="round" />
  <path d="M44.38,222.55 C44.88,222.54 45.31,222.48 45.67,222.36" fill="currentColor" stroke="currentColor" stroke-width="1.2" stroke-linecap="round" stroke-linejoin="round" />
  <path d="M43.08,222.47 C43.17,222.48 43.29,222.50 43.44,222.51" fill="currentColor" stroke="currentColor" stroke-width="1.2" stroke-linecap="round" stroke-linejoin="round" />
  <path d="M43.44,222.51 C43.58,222.52 43.74,222.53 43.90,222.54" fill="currentColor" stroke="currentColor" stroke-width="1.2" stroke-linecap="round" stroke-linejoin="round" />
  <path d="M43.90,222.54 C44.06,222.54 44.23,222.54 44.38,222.55" fill="currentColor" stroke="currentColor" stroke-width="1.2" stroke-linecap="round" stroke-linejoin="round" />
</svg>