<svg xmlns="http://www.w3.org/2000/svg" viewBox="0 0 258.26 72.51" preserveAspectRatio="xMidYMid meet" shape-rendering="geometricPrecision" text-rendering="optimizeLegibility">
  <line x1="179.99" y1="8.00" x2="8.00" y2="64.51" fill="none" stroke="currentColor" stroke-width="1.4000000476837158" stroke-linecap="round" stroke-linejoin="round" />
  <path d="M32.05,56.63 C32.86,59.11 33.30,61.76 33.30,64.51" fill="none" stroke="currentColor" stroke-width="1.0" stroke-linecap="round" stroke-linejoin="round" />
  <path d="M41.67,56.74 C41.74,56.74 41.83,56.73 41.94,56.73" fill="currentColor" stroke="currentColor" stroke-width="1.2" stroke-linecap="round" stroke-linejoin="round" />
  <path d="M41.94,56.73 C42.04,56.73 42.12,56.74 42.18,56.74" fill="currentColor" stroke="currentColor" stroke-width="1.2" stroke-linecap="round" stroke-linejoin="round" />
  <path d="M44.93,56.74 C44.99,56.74 45.07,56.73 45.17,56.73" fill="currentColor" stroke="currentColor" stroke-width="1.2" stroke-linecap="round" stroke-linejoin="round" />
  <path d="M45.17,56.73 C45.27,56.73 45.36,56.74 45.43,56.74" fill="currentColor" stroke="currentColor" stroke-width="1.2" stroke-linecap="round" stroke-linejoin="round" />
  <path d="M42.18,56.74 C42.24,56.75 42.28,56.76 42.31,56.77" fill="currentColor" stroke="currentColor" stroke-width="1.2" stroke-linecap="round" stroke-linejoin="round" />
  <path d="M44.78,56.77 C44.82,56.76 44.87,56.75 44.93,56.74" fill="currentColor" stroke="currentColor" stroke-width="1.2" stroke-linecap="round" stroke-linejoin="round" />
  <path d="M41.52,56.79 C41.56,56.77 41.61,56.75 41.67,56.74" fill="currentColor" stroke="currentColor" stroke-width="1.2" stroke-linecap="round" stroke-linejoin="round" />
  <path d="M45.43,56.74 C45.50,56.75 45.55,56.76 45.58,56.78" fill="currentColor" stroke="currentColor" stroke-width="1.2" stroke-linecap="round" stroke-linejoin="round" />
  <path d="M42.31,56.77 C42.34,56.78 42.36,56.79 42.38,56.81" fill="currentColor" stroke="currentColor" stroke-width="1.2" stroke-linecap="round" stroke-linejoin="round" />
  <path d="M44.69,56.81 C44.71,56.80 44.74,56.78 44.78,56.77" fill="currentColor" stroke="currentColor" stroke-width="1.2" stroke-linecap="round" stroke-linejoin="round" />
  <path d="M45.58,56.78 C45.61,56.80 45.62,56.83 45.62,56.86" fill="currentColor" stroke="currentColor" stroke-width="1.2" stroke-linecap="round" stroke-linejoin="round" />
  <path d="M41.46,56.87 C41.47,56.84 41.49,56.81 41.52,56.79" fill="currentColor" stroke="currentColor" stroke-width="1.2" stroke-linecap="round" stroke-linejoin="round" />
  <path d="M42.38,56.81 C42.39,56.83 42.40,56.85 42.41,56.87" fill="currentColor" stroke="currentColor" stroke-width="1.2" stroke-linecap="round" stroke-linejoin="round" />
  <path d="M44.63,56.87 C44.65,56.85 44.67,56.83 44.69,56.81" fill="currentColor" stroke="currentColor" stroke-width="1.2" stroke-linecap="round" stroke-linejoin="round" />
  <path d="M45.62,56.86 C45.61,56.89 45.59,56.94 45.54,56.99" fill="currentColor" stroke="currentColor" stroke-width="1.2" stroke-linecap="round" stroke-linejoin="round" />
  <path d="M41.49,57.00 C41.47,56.95 41.46,56.90 41.46,56.87" fill="currentColor" stroke="currentColor" stroke-width="1.2" stroke-linecap="round" stroke-linejoin="round" />
  <line x1="42.41" y1="56.87" x2="43.18" y2="58.68" fill="currentColor" stroke="currentColor" stroke-width="1.2" stroke-linecap="round" stroke-linejoin="round" />
  <line x1="43.18" y1="58.68" x2="44.63" y2="56.87" fill="currentColor" stroke="currentColor" stroke-width="1.2" stroke-linecap="round" stroke-linejoin="round" />
  <line x1="45.54" y1="56.99" x2="43.66" y2="59.27" fill="currentColor" stroke="currentColor" stroke-width="1.2" stroke-linecap="round" stroke-linejoin="round" />
  <line x1="42.49" y1="59.25" x2="41.49" y2="57.00" fill="currentColor" stroke="currentColor" stroke-width="1.2" stroke-linecap="round" stroke-linejoin="round" />
  <line x1="40.48" y1="61.64" x2="42.49" y2="59.25" fill="currentColor" stroke="currentColor" stroke-width="1.2" stroke-linecap="round" stroke-linejoin="round" />
  <line x1="43.66" y1="59.27" x2="44.71" y2="61.63" fill="currentColor" stroke="currentColor" stroke-width="1.2" stroke-linecap="round" stroke-linejoin="round" />
  <line x1="43.76" y1="61.75" x2="42.96" y2="59.84" fill="currentColor" stroke="currentColor" stroke-width="1.2" stroke-linecap="round" stroke-linejoin="round" />
  <line x1="42.96" y1="59.84" x2="41.44" y2="61.75" fill="currentColor" stroke="currentColor" stroke-width="1.2" stroke-linecap="round" stroke-linejoin="round" />
  <path d="M44.71,61.63 C44.73,61.68 44.74,61.72 44.73,61.76" fill="currentColor" stroke="currentColor" stroke-width="1.2" stroke-linecap="round" stroke-linejoin="round" />
  <path d="M40.41,61.76 C40.42,61.73 40.44,61.69 40.48,61.64" fill="currentColor" stroke="currentColor" stroke-width="1.2" stroke-linecap="round" stroke-linejoin="round" />
  <path d="M43.80,61.82 C43.79,61.80 43.77,61.77 43.76,61.75" fill="currentColor" stroke="currentColor" stroke-width="1.2" stroke-linecap="round" stroke-linejoin="round" />
  <path d="M41.44,61.75 C41.42,61.77 41.39,61.80 41.37,61.82" fill="currentColor" stroke="currentColor" stroke-width="1.2" stroke-linecap="round" stroke-linejoin="round" />
  <path d="M44.73,61.76 C44.73,61.79 44.71,61.82 44.67,61.84" fill="currentColor" stroke="currentColor" stroke-width="1.2" stroke-linecap="round" stroke-linejoin="round" />
  <path d="M40.45,61.84 C40.42,61.82 40.41,61.79 40.41,61.76" fill="currentColor" stroke="currentColor" stroke-width="1.2" stroke-linecap="round" stroke-linejoin="round" />
  <path d="M43.86,61.86 C43.83,61.85 43.81,61.84 43.80,61.82" fill="currentColor" stroke="currentColor" stroke-width="1.2" stroke-linecap="round" stroke-linejoin="round" />
  <path d="M41.37,61.82 C41.35,61.84 41.31,61.85 41.27,61.86" fill="currentColor" stroke="currentColor" stroke-width="1.2" stroke-linecap="round" stroke-linejoin="round" />
  <path d="M44.67,61.84 C44.63,61.86 44.57,61.88 44.50,61.89" fill="currentColor" stroke="currentColor" stroke-width="1.2" stroke-linecap="round" stroke-linejoin="round" />
  <path d="M40.59,61.89 C40.53,61.88 40.48,61.86 40.45,61.84" fill="currentColor" stroke="currentColor" stroke-width="1.2" stroke-linecap="round" stroke-linejoin="round" />
  <path d="M41.27,61.86 C41.23,61.87 41.17,61.88 41.11,61.89" fill="currentColor" stroke="currentColor" stroke-width="1.2" stroke-linecap="round" stroke-linejoin="round" />
  <path d="M43.99,61.89 C43.94,61.89 43.89,61.88 43.86,61.86" fill="currentColor" stroke="currentColor" stroke-width="1.2" stroke-linecap="round" stroke-linejoin="round" />
  <path d="M44.50,61.89 C44.43,61.90 44.34,61.90 44.23,61.90" fill="currentColor" stroke="currentColor" stroke-width="1.2" stroke-linecap="round" stroke-linejoin="round" />
  <path d="M40.85,61.90 C40.74,61.90 40.66,61.90 40.59,61.89" fill="currentColor" stroke="currentColor" stroke-width="1.2" stroke-linecap="round" stroke-linejoin="round" />
  <path d="M41.11,61.89 C41.04,61.90 40.95,61.90 40.85,61.90" fill="currentColor" stroke="currentColor" stroke-width="1.2" stroke-linecap="round" stroke-linejoin="round" />
  <path d="M44.23,61.90 C44.13,61.90 44.05,61.90 43.99,61.89" fill="currentColor" stroke="currentColor" stroke-width="1.2" stroke-linecap="round" stroke-linejoin="round" />
  <line x1="8.00" y1="64.51" x2="148.02" y2="64.51" fill="none" stroke="currentColor" stroke-width="1.4000000476837158" stroke-linecap="round" stroke-linejoin="round" />
  <line x1="250.26" y1="64.51" x2="8.00" y2="64.51" fill="none" stroke="currentColor" stroke-width="1.4000000476837158" stroke-linecap="round" stroke-linejoin="round" />
</svg>