<svg xmlns="http://www.w3.org/2000/svg" viewBox="0 0 227.42 79.43" preserveAspectRatio="xMidYMid meet" shape-rendering="geometricPrecision" text-rendering="optimizeLegibility">
  <line x1="18.16" y1="11.94" x2="217.51" y2="11.94" fill="none" stroke="currentColor" stroke-width="1.4000000476837158" stroke-linecap="round" stroke-linejoin="round" />
  <line x1="18.16" y1="65.81" x2="219.42" y2="65.81" fill="none" stroke="currentColor" stroke-width="1.4000000476837158" stroke-linecap="round" stroke-linejoin="round" />
  <line x1="63.05" y1="65.80" x2="93.62" y2="12.10" fill="none" stroke="currentColor" stroke-width="1.4000000476837158" stroke-linecap="round" stroke-linejoin="round" />
  <line x1="93.62" y1="12.10" x2="186.65" y2="65.86" fill="none" stroke="currentColor" stroke-width="1.4000000476837158" stroke-linecap="round" stroke-linejoin="round" />
  <polygon points="93.62,12.07 102.28,17.06 97.28,25.72 88.62,20.72" fill="none" stroke="currentColor" stroke-width="1.000000011920929" stroke-linecap="round" stroke-linejoin="round" />
  <path d="M58.11,49.45C58.11,49.47 58.11,49.49 58.11,49.53C58.11,49.56 58.10,49.60 58.09,49.63C58.09,49.67 58.08,49.71 58.07,49.75C58.06,49.78 58.06,49.81 58.05,49.84C58.03,49.92 58.00,49.99 57.95,50.06C57.91,50.13 57.84,50.21 57.77,50.31L55.03,53.63L57.25,53.63C57.29,53.63 57.32,53.64 57.35,53.67C57.37,53.71 57.38,53.75 57.38,53.81C57.38,53.84 57.38,53.88 57.37,53.92C57.37,53.96 57.36,53.99 57.35,54.03C57.34,54.07 57.33,54.11 57.31,54.15C57.30,54.20 57.28,54.23 57.26,54.27C57.24,54.30 57.22,54.32 57.19,54.34C57.17,54.36 57.14,54.37 57.10,54.37L54.11,54.37C54.05,54.37 53.99,54.35 53.96,54.32C53.93,54.28 53.91,54.23 53.91,54.16C53.91,54.14 53.92,54.11 53.93,54.07C53.93,54.03 53.94,53.99 53.95,53.95C53.95,53.90 53.96,53.87 53.97,53.83C53.98,53.79 53.99,53.77 53.99,53.75C54.00,53.72 54.01,53.69 54.02,53.67C54.03,53.65 54.05,53.62 54.07,53.59C54.09,53.56 54.12,53.52 54.15,53.48C54.18,53.44 54.22,53.39 54.27,53.33L57.02,50.01L55.00,50.01C54.95,50.01 54.92,50.00 54.89,49.97C54.87,49.94 54.86,49.89 54.86,49.82C54.86,49.79 54.86,49.76 54.87,49.72C54.87,49.68 54.88,49.64 54.89,49.60C54.90,49.55 54.91,49.51 54.93,49.47C54.94,49.43 54.96,49.39 54.98,49.36C55.00,49.33 55.03,49.31 55.06,49.29C55.08,49.27 55.11,49.26 55.14,49.26L57.93,49.26C58.00,49.26 58.05,49.28 58.07,49.31C58.10,49.35 58.11,49.39 58.11,49.45Z" fill="currentColor" stroke="currentColor" stroke-width="1.2" stroke-linejoin="round" />
  <path d="M80.10,57.38L81.16,59.74C81.18,59.79 81.19,59.83 81.18,59.87C81.17,59.90 81.15,59.93 81.11,59.95C81.07,59.97 81.02,59.99 80.95,59.99C80.88,60.00 80.79,60.01 80.68,60.01C80.58,60.01 80.50,60.01 80.44,60.00C80.38,59.99 80.34,59.99 80.31,59.97C80.27,59.96 80.25,59.94 80.24,59.92C80.23,59.90 80.22,59.88 80.21,59.86L79.40,57.95L77.88,59.86C77.86,59.88 77.84,59.90 77.82,59.92C77.79,59.94 77.76,59.96 77.72,59.97C77.68,59.98 77.62,59.99 77.55,60.00C77.49,60.00 77.40,60.01 77.29,60.01C77.19,60.01 77.11,60.00 77.04,59.99C76.98,59.99 76.93,59.97 76.90,59.95C76.87,59.93 76.86,59.90 76.86,59.87C76.87,59.84 76.89,59.79 76.92,59.74L78.93,57.36L77.94,55.10C77.92,55.05 77.91,55.01 77.91,54.98C77.92,54.94 77.93,54.92 77.97,54.89C78.00,54.87 78.05,54.86 78.12,54.85C78.19,54.84 78.28,54.84 78.39,54.84C78.49,54.84 78.57,54.84 78.63,54.85C78.68,54.85 78.73,54.86 78.76,54.87C78.79,54.88 78.81,54.90 78.82,54.92C78.83,54.93 78.85,54.96 78.86,54.98L79.63,56.79L81.08,54.98C81.10,54.96 81.12,54.94 81.14,54.92C81.16,54.90 81.19,54.89 81.23,54.88C81.27,54.86 81.32,54.85 81.38,54.85C81.44,54.84 81.52,54.84 81.61,54.84C81.72,54.84 81.81,54.84 81.88,54.85C81.94,54.86 81.99,54.87 82.03,54.89C82.06,54.91 82.07,54.93 82.07,54.97C82.06,55.00 82.03,55.04 81.99,55.09L80.10,57.38Z" fill="currentColor" stroke="currentColor" stroke-width="1.2" stroke-linejoin="round" />
  <path d="M119.50,14.26C119.50,14.30 119.50,14.34 119.49,14.38C119.48,14.42 119.47,14.46 119.45,14.50C119.34,14.82 119.21,15.16 119.07,15.51C118.93,15.87 118.76,16.24 118.58,16.62C118.39,17.01 118.17,17.41 117.93,17.83C117.68,18.24 117.38,18.69 117.04,19.15L115.65,21.04C115.62,21.07 115.60,21.10 115.56,21.12C115.53,21.14 115.49,21.16 115.45,21.17C115.40,21.19 115.34,21.20 115.28,21.21C115.21,21.22 115.13,21.22 115.04,21.22C114.95,21.22 114.87,21.22 114.80,21.21C114.74,21.20 114.69,21.18 114.66,21.16C114.63,21.14 114.62,21.11 114.62,21.08C114.62,21.04 114.64,21.00 114.68,20.95L115.99,19.27L115.19,14.54C115.19,14.50 115.18,14.46 115.18,14.43C115.17,14.39 115.17,14.36 115.17,14.34C115.17,14.30 115.18,14.26 115.19,14.24C115.20,14.21 115.23,14.19 115.26,14.17C115.30,14.16 115.35,14.14 115.41,14.14C115.47,14.13 115.54,14.13 115.62,14.13C115.72,14.13 115.80,14.13 115.85,14.14C115.91,14.14 115.95,14.15 115.98,14.17C116.01,14.18 116.03,14.20 116.05,14.22C116.06,14.25 116.07,14.28 116.07,14.31L116.70,18.26L116.71,18.26C116.93,17.94 117.13,17.63 117.31,17.31C117.49,16.98 117.65,16.66 117.80,16.32C117.95,15.99 118.09,15.66 118.22,15.32C118.35,14.98 118.47,14.64 118.58,14.29C118.59,14.26 118.60,14.24 118.62,14.22C118.64,14.20 118.67,14.18 118.70,14.17C118.74,14.15 118.79,14.14 118.86,14.14C118.92,14.13 119.00,14.13 119.10,14.13C119.26,14.13 119.37,14.14 119.42,14.16C119.47,14.18 119.50,14.22 119.50,14.26Z" fill="currentColor" stroke="currentColor" stroke-width="1.2" stroke-linejoin="round" />
  <path d="M11.60,14.58C11.60,14.65 11.60,14.71 11.59,14.76C11.59,14.81 11.57,14.85 11.56,14.88C11.54,14.92 11.52,14.94 11.50,14.96C11.48,14.97 11.45,14.98 11.42,14.98L8.34,14.98C8.26,14.98 8.18,14.95 8.11,14.90C8.04,14.84 8.00,14.75 8.00,14.61L8.00,8.17C8.00,8.14 8.01,8.12 8.02,8.10C8.04,8.07 8.06,8.06 8.10,8.05C8.13,8.03 8.18,8.02 8.24,8.01C8.30,8.00 8.38,8.00 8.46,8.00C8.55,8.00 8.63,8.00 8.68,8.01C8.74,8.02 8.79,8.03 8.83,8.05C8.86,8.06 8.89,8.07 8.90,8.10C8.92,8.12 8.92,8.14 8.92,8.17L8.92,14.18L11.42,14.18C11.45,14.18 11.48,14.19 11.50,14.21C11.52,14.22 11.54,14.24 11.56,14.28C11.57,14.31 11.59,14.35 11.59,14.40C11.60,14.45 11.60,14.51 11.60,14.58Z" fill="currentColor" stroke="currentColor" stroke-width="1.2" stroke-linejoin="round" />
  <path d="M14.87,16.75C14.87,16.79 14.87,16.83 14.86,16.86C14.85,16.89 14.84,16.91 14.83,16.93C14.82,16.95 14.81,16.96 14.79,16.97C14.78,16.98 14.76,16.98 14.75,16.98L12.44,16.98C12.42,16.98 12.41,16.98 12.39,16.97C12.38,16.96 12.37,16.95 12.35,16.93C12.34,16.91 12.33,16.89 12.32,16.86C12.32,16.83 12.31,16.79 12.31,16.75C12.31,16.71 12.32,16.67 12.32,16.64C12.33,16.61 12.34,16.59 12.35,16.57C12.36,16.55 12.37,16.54 12.39,16.53C12.40,16.51 12.42,16.51 12.44,16.51L13.36,16.51L13.36,13.15L12.50,13.66C12.46,13.68 12.43,13.69 12.40,13.70C12.37,13.70 12.35,13.70 12.34,13.68C12.32,13.67 12.31,13.64 12.30,13.61C12.30,13.57 12.30,13.53 12.30,13.48C12.30,13.44 12.30,13.41 12.30,13.38C12.30,13.35 12.31,13.33 12.32,13.31C12.32,13.29 12.33,13.28 12.35,13.26C12.36,13.25 12.37,13.24 12.40,13.22L13.41,12.57C13.42,12.56 13.43,12.56 13.45,12.55C13.46,12.55 13.48,12.54 13.50,12.54C13.52,12.53 13.54,12.53 13.57,12.53C13.60,12.53 13.63,12.53 13.67,12.53C13.73,12.53 13.77,12.53 13.81,12.53C13.85,12.54 13.88,12.55 13.90,12.55C13.92,12.56 13.93,12.57 13.94,12.58C13.94,12.60 13.95,12.61 13.95,12.62L13.95,16.51L14.75,16.51C14.77,16.51 14.78,16.51 14.80,16.53C14.81,16.54 14.83,16.55 14.84,16.57C14.85,16.59 14.86,16.61 14.86,16.64C14.87,16.67 14.87,16.71 14.87,16.75Z" fill="currentColor" stroke="currentColor" stroke-width="1.2" stroke-linejoin="round" />
  <path d="M12.84,69.02C12.84,69.10 12.84,69.16 12.83,69.20C12.83,69.25 12.81,69.29 12.80,69.33C12.78,69.36 12.76,69.39 12.74,69.40C12.72,69.42 12.69,69.43 12.66,69.43L9.58,69.43C9.50,69.43 9.42,69.40 9.35,69.34C9.28,69.29 9.24,69.19 9.24,69.05L9.24,62.62C9.24,62.59 9.25,62.56 9.26,62.54C9.28,62.52 9.30,62.50 9.34,62.49C9.37,62.48 9.42,62.47 9.48,62.46C9.54,62.45 9.62,62.44 9.70,62.44C9.79,62.44 9.87,62.45 9.93,62.46C9.98,62.47 10.03,62.48 10.07,62.49C10.10,62.50 10.13,62.52 10.14,62.54C10.16,62.56 10.16,62.59 10.16,62.62L10.16,68.63L12.66,68.63C12.69,68.63 12.72,68.63 12.74,68.65C12.76,68.67 12.78,68.69 12.80,68.72C12.81,68.75 12.83,68.79 12.83,68.84C12.84,68.89 12.84,68.95 12.84,69.02Z" fill="currentColor" stroke="currentColor" stroke-width="1.2" stroke-linejoin="round" />
  <path d="M16.10,71.17C16.10,71.21 16.10,71.25 16.09,71.28C16.09,71.31 16.08,71.34 16.07,71.36C16.06,71.38 16.04,71.40 16.03,71.41C16.01,71.42 15.99,71.43 15.97,71.43L13.53,71.43C13.49,71.43 13.47,71.42 13.44,71.41C13.42,71.41 13.40,71.39 13.38,71.38C13.36,71.36 13.35,71.33 13.34,71.30C13.34,71.26 13.33,71.22 13.33,71.17C13.33,71.12 13.33,71.08 13.34,71.05C13.34,71.02 13.35,70.99 13.36,70.96C13.37,70.93 13.38,70.91 13.40,70.88C13.42,70.86 13.44,70.83 13.47,70.80L14.33,69.89C14.52,69.68 14.68,69.49 14.80,69.32C14.92,69.16 15.01,69.01 15.08,68.87C15.14,68.73 15.19,68.61 15.21,68.50C15.23,68.39 15.24,68.28 15.24,68.18C15.24,68.08 15.22,67.99 15.19,67.90C15.16,67.82 15.11,67.74 15.05,67.67C14.99,67.61 14.92,67.55 14.82,67.52C14.73,67.48 14.63,67.46 14.51,67.46C14.37,67.46 14.25,67.48 14.14,67.52C14.03,67.55 13.93,67.60 13.85,67.64C13.76,67.69 13.69,67.73 13.64,67.77C13.58,67.81 13.54,67.83 13.51,67.83C13.50,67.83 13.48,67.82 13.47,67.81C13.46,67.80 13.45,67.79 13.44,67.77C13.43,67.75 13.42,67.72 13.42,67.69C13.42,67.65 13.41,67.61 13.41,67.56C13.41,67.53 13.41,67.50 13.42,67.48C13.42,67.45 13.42,67.43 13.43,67.41C13.43,67.39 13.44,67.37 13.45,67.36C13.46,67.34 13.48,67.32 13.51,67.30C13.53,67.28 13.58,67.24 13.65,67.20C13.71,67.16 13.80,67.12 13.90,67.08C14.00,67.04 14.11,67.01 14.24,66.98C14.36,66.95 14.49,66.94 14.62,66.94C14.83,66.94 15.02,66.97 15.18,67.03C15.34,67.09 15.48,67.17 15.58,67.28C15.69,67.38 15.77,67.50 15.82,67.64C15.87,67.78 15.90,67.93 15.90,68.09C15.90,68.23 15.89,68.37 15.86,68.51C15.84,68.65 15.78,68.80 15.70,68.96C15.62,69.13 15.50,69.31 15.35,69.51C15.20,69.71 15.00,69.94 14.74,70.20L14.04,70.93L15.97,70.93C15.98,70.93 16.00,70.93 16.02,70.94C16.04,70.95 16.05,70.97 16.06,70.99C16.08,71.01 16.09,71.04 16.09,71.07C16.10,71.10 16.10,71.13 16.10,71.17Z" fill="currentColor" stroke="currentColor" stroke-width="1.2" stroke-linejoin="round" />
  <path d="M53.14,65.81 C53.14,60.31 57.60,55.86 63.09,55.86" fill="none" stroke="currentColor" stroke-width="1.000000011920929" stroke-linecap="round" stroke-linejoin="round" />
  <path d="M63.09,55.86 C64.88,55.86 66.55,56.32 67.99,57.14" fill="none" stroke="currentColor" stroke-width="1.000000011920929" stroke-linecap="round" stroke-linejoin="round" />
  <path d="M69.76,54.01 C73.65,56.22 76.37,60.30 76.62,65.09" fill="none" stroke="currentColor" stroke-width="1.000000011920929" stroke-linecap="round" stroke-linejoin="round" />
  <path d="M76.62,65.09 C76.64,65.33 76.64,65.58 76.64,65.82" fill="none" stroke="currentColor" stroke-width="1.000000011920929" stroke-linecap="round" stroke-linejoin="round" />
  <path d="M109.28,11.96 C109.28,14.86 108.49,17.60 107.09,19.95" fill="none" stroke="currentColor" stroke-width="1.000000011920929" stroke-linecap="round" stroke-linejoin="round" />
</svg>