<svg xmlns="http://www.w3.org/2000/svg" viewBox="0 0 185.99 185.11" preserveAspectRatio="xMidYMid meet" shape-rendering="geometricPrecision" text-rendering="optimizeLegibility">
  <line x1="22.32" y1="170.57" x2="22.32" y2="26.05" fill="none" stroke="currentColor" stroke-width="1.0" stroke-linecap="round" stroke-linejoin="round" />
  <line x1="35.75" y1="170.57" x2="35.75" y2="26.05" fill="none" stroke="currentColor" stroke-width="1.0" stroke-linecap="round" stroke-linejoin="round" />
  <line x1="49.18" y1="170.57" x2="49.18" y2="26.05" fill="none" stroke="currentColor" stroke-width="1.0" stroke-linecap="round" stroke-linejoin="round" />
  <line x1="62.62" y1="170.57" x2="62.62" y2="26.05" fill="none" stroke="currentColor" stroke-width="1.0" stroke-linecap="round" stroke-linejoin="round" />
  <line x1="76.05" y1="170.57" x2="76.05" y2="26.05" fill="none" stroke="currentColor" stroke-width="1.0" stroke-linecap="round" stroke-linejoin="round" />
  <line x1="143.21" y1="170.57" x2="143.21" y2="26.05" fill="none" stroke="currentColor" stroke-width="1.0" stroke-linecap="round" stroke-linejoin="round" />
  <line x1="156.64" y1="170.57" x2="156.64" y2="26.05" fill="none" stroke="currentColor" stroke-width="1.0" stroke-linecap="round" stroke-linejoin="round" />
  <line x1="116.34" y1="170.57" x2="116.34" y2="26.05" fill="none" stroke="currentColor" stroke-width="1.0" stroke-linecap="round" stroke-linejoin="round" />
  <line x1="129.78" y1="170.57" x2="129.78" y2="26.05" fill="none" stroke="currentColor" stroke-width="1.0" stroke-linecap="round" stroke-linejoin="round" />
  <line x1="102.91" y1="170.57" x2="102.91" y2="26.05" fill="none" stroke="currentColor" stroke-width="1.0" stroke-linecap="round" stroke-linejoin="round" />
  <line x1="16.76" y1="71.45" x2="162.20" y2="71.45" fill="none" stroke="currentColor" stroke-width="1.0" stroke-linecap="round" stroke-linejoin="round" />
  <line x1="16.76" y1="84.88" x2="162.20" y2="84.88" fill="none" stroke="currentColor" stroke-width="1.0" stroke-linecap="round" stroke-linejoin="round" />
  <line x1="16.76" y1="125.18" x2="162.20" y2="125.18" fill="none" stroke="currentColor" stroke-width="1.0" stroke-linecap="round" stroke-linejoin="round" />
  <line x1="16.76" y1="138.61" x2="162.20" y2="138.61" fill="none" stroke="currentColor" stroke-width="1.0" stroke-linecap="round" stroke-linejoin="round" />
  <line x1="16.76" y1="152.04" x2="162.20" y2="152.04" fill="none" stroke="currentColor" stroke-width="1.0" stroke-linecap="round" stroke-linejoin="round" />
  <line x1="16.76" y1="165.47" x2="162.20" y2="165.47" fill="none" stroke="currentColor" stroke-width="1.0" stroke-linecap="round" stroke-linejoin="round" />
  <line x1="16.76" y1="111.74" x2="162.20" y2="111.74" fill="none" stroke="currentColor" stroke-width="1.0" stroke-linecap="round" stroke-linejoin="round" />
  <line x1="16.76" y1="58.01" x2="162.20" y2="58.01" fill="none" stroke="currentColor" stroke-width="1.0" stroke-linecap="round" stroke-linejoin="round" />
  <line x1="16.76" y1="44.58" x2="162.20" y2="44.58" fill="none" stroke="currentColor" stroke-width="1.0" stroke-linecap="round" stroke-linejoin="round" />
  <line x1="16.76" y1="31.15" x2="162.20" y2="31.15" fill="none" stroke="currentColor" stroke-width="1.0" stroke-linecap="round" stroke-linejoin="round" />
  <path d="M86.12,87.70C86.12,87.76 86.11,87.82 86.10,87.86C86.10,87.90 86.08,87.93 86.07,87.96C86.05,87.99 86.03,88.01 86.01,88.02C85.99,88.03 85.97,88.03 85.94,88.03L82.64,88.03C82.62,88.03 82.60,88.03 82.58,88.02C82.56,88.01 82.54,87.99 82.52,87.96C82.51,87.93 82.49,87.90 82.48,87.86C82.47,87.82 82.47,87.76 82.47,87.70C82.47,87.64 82.47,87.59 82.48,87.55C82.49,87.51 82.50,87.47 82.52,87.45C82.53,87.42 82.55,87.40 82.57,87.38C82.59,87.37 82.62,87.36 82.64,87.36L83.96,87.36L83.96,82.56L82.74,83.28C82.68,83.32 82.63,83.33 82.59,83.34C82.55,83.35 82.52,83.34 82.50,83.32C82.48,83.30 82.46,83.26 82.46,83.21C82.45,83.17 82.44,83.10 82.44,83.03C82.44,82.97 82.45,82.93 82.45,82.89C82.46,82.85 82.46,82.82 82.47,82.79C82.48,82.76 82.50,82.74 82.51,82.72C82.53,82.70 82.56,82.68 82.58,82.66L84.04,81.73C84.05,81.72 84.07,81.71 84.09,81.71C84.11,81.70 84.13,81.69 84.16,81.69C84.19,81.68 84.23,81.68 84.26,81.67C84.30,81.67 84.35,81.67 84.41,81.67C84.49,81.67 84.55,81.67 84.61,81.68C84.66,81.69 84.70,81.70 84.73,81.71C84.76,81.72 84.78,81.73 84.79,81.75C84.80,81.77 84.80,81.79 84.80,81.81L84.80,87.36L85.94,87.36C85.97,87.36 85.99,87.37 86.02,87.38C86.04,87.40 86.06,87.42 86.07,87.45C86.09,87.47 86.10,87.51 86.11,87.55C86.12,87.59 86.12,87.64 86.12,87.70Z" fill="currentColor" stroke="currentColor" stroke-width="1.2" stroke-linejoin="round" />
  <path d="M169.74,106.30L170.70,108.45C170.72,108.50 170.72,108.54 170.72,108.57C170.71,108.60 170.69,108.62 170.66,108.64C170.62,108.66 170.57,108.68 170.51,108.68C170.44,108.69 170.36,108.70 170.26,108.70C170.17,108.70 170.10,108.69 170.05,108.69C169.99,108.68 169.95,108.68 169.92,108.67C169.90,108.65 169.88,108.64 169.87,108.62C169.86,108.60 169.85,108.58 169.84,108.56L169.10,106.83L167.72,108.56C167.70,108.58 167.68,108.60 167.66,108.62C167.64,108.64 167.61,108.65 167.57,108.66C167.53,108.67 167.48,108.68 167.42,108.69C167.36,108.69 167.28,108.70 167.19,108.70C167.09,108.70 167.01,108.69 166.96,108.68C166.90,108.68 166.85,108.66 166.83,108.64C166.80,108.62 166.79,108.60 166.79,108.57C166.80,108.54 166.82,108.50 166.85,108.46L168.67,106.29L167.77,104.24C167.75,104.19 167.74,104.16 167.75,104.12C167.75,104.09 167.77,104.07 167.80,104.05C167.83,104.03 167.88,104.02 167.94,104.01C168.00,104.00 168.08,104.00 168.18,104.00C168.27,104.00 168.34,104.00 168.40,104.01C168.45,104.01 168.49,104.02 168.52,104.03C168.54,104.04 168.56,104.05 168.57,104.07C168.59,104.08 168.60,104.10 168.61,104.13L169.30,105.77L170.62,104.13C170.64,104.11 170.66,104.09 170.68,104.07C170.70,104.06 170.73,104.04 170.76,104.03C170.80,104.02 170.85,104.01 170.90,104.01C170.95,104.00 171.02,104.00 171.11,104.00C171.21,104.00 171.29,104.00 171.35,104.01C171.41,104.02 171.46,104.03 171.49,104.04C171.52,104.06 171.53,104.08 171.52,104.11C171.52,104.15 171.50,104.18 171.45,104.23L169.74,106.30Z" fill="currentColor" stroke="currentColor" stroke-width="1.2" stroke-linejoin="round" />
  <line x1="10.68" y1="98.31" x2="169.89" y2="98.31" fill="none" stroke="currentColor" stroke-width="1.4000000476837158" stroke-linecap="round" stroke-linejoin="round" />
  <path d="M168.27,95.07L169.35,98.31L168.27,101.55L177.99,98.31L168.27,95.07Z" fill-rule="evenodd" fill="currentColor" stroke="currentColor" stroke-width="1.2" stroke-linejoin="round" />
  <line x1="89.48" y1="177.11" x2="89.48" y2="16.10" fill="none" stroke="currentColor" stroke-width="1.4000000476837158" stroke-linecap="round" stroke-linejoin="round" />
  <path d="M86.24,17.72L89.48,16.64L92.72,17.72L89.48,8.00L86.24,17.72Z" fill-rule="evenodd" fill="currentColor" stroke="currentColor" stroke-width="1.2" stroke-linejoin="round" />
  <line x1="87.55" y1="84.88" x2="91.41" y2="84.88" fill="none" stroke="currentColor" stroke-width="1.000000011920929" stroke-linecap="round" stroke-linejoin="round" />
  <line x1="102.91" y1="100.24" x2="102.91" y2="96.38" fill="none" stroke="currentColor" stroke-width="1.000000011920929" stroke-linecap="round" stroke-linejoin="round" />
  <path d="M104.89,107.66C104.89,107.72 104.88,107.77 104.87,107.82C104.86,107.86 104.85,107.89 104.83,107.92C104.82,107.94 104.80,107.96 104.78,107.97C104.76,107.99 104.73,107.99 104.71,107.99L101.41,107.99C101.39,107.99 101.37,107.99 101.35,107.97C101.33,107.96 101.31,107.94 101.29,107.92C101.27,107.89 101.26,107.86 101.25,107.82C101.24,107.77 101.23,107.72 101.23,107.66C101.23,107.60 101.24,107.55 101.25,107.51C101.26,107.47 101.27,107.43 101.29,107.40C101.30,107.38 101.32,107.35 101.34,107.34C101.36,107.33 101.38,107.32 101.41,107.32L102.73,107.32L102.73,102.51L101.51,103.24C101.45,103.27 101.40,103.29 101.36,103.30C101.32,103.31 101.29,103.30 101.27,103.28C101.24,103.26 101.23,103.22 101.22,103.17C101.21,103.12 101.21,103.06 101.21,102.99C101.21,102.93 101.21,102.88 101.22,102.85C101.22,102.81 101.23,102.77 101.24,102.75C101.25,102.72 101.26,102.70 101.28,102.68C101.30,102.66 101.32,102.64 101.35,102.62L102.81,101.69C102.82,101.68 102.84,101.67 102.85,101.66C102.88,101.66 102.90,101.65 102.93,101.64C102.96,101.64 102.99,101.63 103.03,101.63C103.07,101.63 103.12,101.63 103.18,101.63C103.26,101.63 103.32,101.63 103.37,101.64C103.43,101.65 103.46,101.65 103.49,101.67C103.52,101.68 103.54,101.69 103.55,101.71C103.56,101.73 103.57,101.75 103.57,101.77L103.57,107.32L104.71,107.32C104.74,107.32 104.76,107.33 104.78,107.34C104.81,107.35 104.82,107.38 104.84,107.40C104.85,107.43 104.87,107.47 104.87,107.51C104.88,107.55 104.89,107.60 104.89,107.66Z" fill="currentColor" stroke="currentColor" stroke-width="1.2" stroke-linejoin="round" />
  <path d="M84.97,14.36C84.97,14.40 84.97,14.44 84.96,14.47C84.96,14.51 84.94,14.55 84.93,14.58C84.82,14.87 84.70,15.18 84.58,15.50C84.45,15.82 84.30,16.16 84.13,16.51C83.96,16.86 83.76,17.23 83.54,17.61C83.31,17.99 83.04,18.39 82.73,18.81L81.47,20.53C81.45,20.56 81.42,20.58 81.39,20.60C81.36,20.62 81.33,20.64 81.29,20.65C81.24,20.67 81.19,20.68 81.13,20.68C81.07,20.69 81.00,20.69 80.92,20.69C80.83,20.69 80.76,20.69 80.70,20.68C80.65,20.67 80.60,20.66 80.57,20.64C80.54,20.62 80.53,20.59 80.53,20.56C80.54,20.53 80.56,20.49 80.59,20.44L81.78,18.91L81.06,14.62C81.05,14.58 81.04,14.55 81.04,14.52C81.04,14.48 81.04,14.45 81.04,14.43C81.04,14.40 81.04,14.37 81.05,14.34C81.07,14.32 81.09,14.30 81.12,14.28C81.15,14.27 81.20,14.26 81.25,14.25C81.30,14.25 81.37,14.25 81.45,14.25C81.53,14.25 81.60,14.25 81.65,14.25C81.70,14.26 81.74,14.27 81.77,14.28C81.80,14.29 81.82,14.31 81.83,14.33C81.84,14.35 81.85,14.38 81.85,14.41L82.42,18.00L82.43,18.00C82.63,17.71 82.82,17.43 82.98,17.13C83.14,16.84 83.29,16.54 83.43,16.24C83.57,15.94 83.69,15.64 83.81,15.33C83.92,15.02 84.03,14.71 84.13,14.39C84.14,14.37 84.15,14.35 84.17,14.33C84.19,14.31 84.21,14.29 84.25,14.28C84.28,14.27 84.33,14.26 84.39,14.25C84.45,14.25 84.52,14.25 84.61,14.25C84.75,14.25 84.85,14.26 84.90,14.28C84.95,14.30 84.97,14.32 84.97,14.36Z" fill="currentColor" stroke="currentColor" stroke-width="1.2" stroke-linejoin="round" />
  <line x1="14.93" y1="146.00" x2="135.99" y2="24.93" fill="none" stroke="currentColor" stroke-width="1.4000000476837158" stroke-linecap="round" stroke-linejoin="round" />
  <line x1="14.93" y1="50.63" x2="135.99" y2="171.69" fill="none" stroke="currentColor" stroke-width="1.4000000476837158" stroke-linecap="round" stroke-linejoin="round" />
  <path d="M11.60,149.59C11.60,149.66 11.60,149.72 11.59,149.77C11.59,149.82 11.57,149.86 11.56,149.89C11.54,149.92 11.52,149.95 11.50,149.97C11.48,149.98 11.45,149.99 11.42,149.99L8.34,149.99C8.26,149.99 8.18,149.96 8.11,149.91C8.04,149.85 8.00,149.75 8.00,149.61L8.00,143.18C8.00,143.15 8.01,143.13 8.02,143.10C8.04,143.08 8.06,143.07 8.10,143.05C8.13,143.04 8.18,143.03 8.24,143.02C8.30,143.01 8.38,143.01 8.46,143.01C8.55,143.01 8.63,143.01 8.69,143.02C8.74,143.03 8.79,143.04 8.83,143.05C8.86,143.07 8.89,143.08 8.90,143.10C8.92,143.13 8.92,143.15 8.92,143.18L8.92,149.19L11.42,149.19C11.45,149.19 11.48,149.20 11.50,149.21C11.52,149.23 11.54,149.25 11.56,149.28C11.57,149.31 11.59,149.35 11.59,149.40C11.60,149.45 11.60,149.51 11.60,149.59Z" fill="currentColor" stroke="currentColor" stroke-width="1.2" stroke-linejoin="round" />
  <path d="M14.92,151.55C14.92,151.59 14.91,151.63 14.91,151.66C14.90,151.68 14.90,151.71 14.89,151.73C14.88,151.75 14.86,151.76 14.85,151.77C14.83,151.78 14.81,151.79 14.79,151.79L12.53,151.79C12.50,151.79 12.47,151.78 12.45,151.78C12.43,151.77 12.41,151.76 12.39,151.74C12.38,151.72 12.36,151.70 12.36,151.67C12.35,151.64 12.35,151.60 12.35,151.55C12.35,151.51 12.35,151.47 12.35,151.44C12.35,151.41 12.36,151.38 12.37,151.36C12.38,151.33 12.39,151.31 12.41,151.28C12.43,151.26 12.45,151.23 12.47,151.20L13.27,150.36C13.45,150.17 13.60,149.99 13.71,149.84C13.82,149.68 13.91,149.54 13.97,149.41C14.03,149.29 14.07,149.17 14.09,149.07C14.11,148.96 14.12,148.87 14.12,148.78C14.12,148.69 14.10,148.60 14.07,148.52C14.04,148.44 14.00,148.36 13.94,148.30C13.89,148.24 13.82,148.19 13.73,148.16C13.65,148.12 13.55,148.10 13.44,148.10C13.31,148.10 13.20,148.12 13.09,148.16C12.99,148.19 12.90,148.23 12.82,148.27C12.74,148.32 12.68,148.36 12.63,148.39C12.58,148.43 12.54,148.45 12.51,148.45C12.50,148.45 12.49,148.44 12.47,148.43C12.46,148.42 12.45,148.41 12.45,148.39C12.44,148.37 12.43,148.35 12.43,148.32C12.42,148.28 12.42,148.25 12.42,148.20C12.42,148.17 12.42,148.14 12.42,148.12C12.43,148.10 12.43,148.08 12.43,148.06C12.44,148.04 12.45,148.03 12.46,148.01C12.46,148.00 12.48,147.98 12.51,147.96C12.53,147.93 12.58,147.90 12.64,147.87C12.70,147.83 12.78,147.79 12.87,147.75C12.97,147.72 13.07,147.68 13.18,147.66C13.30,147.63 13.42,147.62 13.54,147.62C13.74,147.62 13.91,147.65 14.06,147.70C14.21,147.76 14.34,147.84 14.43,147.94C14.53,148.03 14.61,148.15 14.66,148.27C14.70,148.40 14.73,148.54 14.73,148.69C14.73,148.82 14.72,148.95 14.69,149.08C14.67,149.21 14.62,149.35 14.55,149.50C14.47,149.65 14.36,149.82 14.22,150.01C14.08,150.19 13.89,150.40 13.66,150.65L13.01,151.33L14.79,151.33C14.81,151.33 14.82,151.33 14.84,151.34C14.86,151.35 14.87,151.36 14.88,151.38C14.89,151.40 14.90,151.43 14.91,151.45C14.91,151.48 14.92,151.52 14.92,151.55Z" fill="currentColor" stroke="currentColor" stroke-width="1.2" stroke-linejoin="round" />
  <path d="M11.60,54.37C11.60,54.44 11.60,54.50 11.59,54.55C11.59,54.60 11.57,54.64 11.56,54.68C11.54,54.71 11.52,54.73 11.50,54.75C11.48,54.77 11.45,54.77 11.42,54.77L8.34,54.77C8.26,54.77 8.18,54.75 8.11,54.69C8.04,54.64 8.00,54.54 8.00,54.40L8.00,47.96C8.00,47.94 8.01,47.91 8.02,47.89C8.04,47.87 8.06,47.85 8.10,47.84C8.13,47.83 8.18,47.81 8.24,47.81C8.30,47.80 8.38,47.79 8.46,47.79C8.55,47.79 8.63,47.80 8.69,47.81C8.74,47.81 8.79,47.83 8.83,47.84C8.86,47.85 8.89,47.87 8.90,47.89C8.92,47.91 8.92,47.94 8.92,47.96L8.92,53.97L11.42,53.97C11.45,53.97 11.48,53.98 11.50,54.00C11.52,54.01 11.54,54.04 11.56,54.07C11.57,54.10 11.59,54.14 11.59,54.19C11.60,54.24 11.60,54.30 11.60,54.37Z" fill="currentColor" stroke="currentColor" stroke-width="1.2" stroke-linejoin="round" />
  <path d="M14.93,56.36C14.93,56.40 14.92,56.43 14.92,56.46C14.91,56.49 14.90,56.51 14.89,56.53C14.88,56.54 14.87,56.55 14.85,56.56C14.84,56.57 14.83,56.57 14.81,56.57L12.67,56.57C12.65,56.57 12.64,56.57 12.62,56.56C12.61,56.55 12.60,56.54 12.59,56.53C12.58,56.51 12.57,56.49 12.56,56.46C12.55,56.43 12.55,56.40 12.55,56.36C12.55,56.32 12.55,56.29 12.56,56.26C12.57,56.23 12.57,56.21 12.58,56.19C12.59,56.17 12.61,56.16 12.62,56.15C12.63,56.14 12.65,56.14 12.67,56.14L13.52,56.14L13.52,53.01L12.73,53.49C12.69,53.51 12.66,53.52 12.63,53.52C12.61,53.53 12.59,53.52 12.57,53.51C12.56,53.50 12.55,53.47 12.54,53.44C12.54,53.41 12.54,53.37 12.54,53.32C12.54,53.28 12.54,53.25 12.54,53.23C12.54,53.20 12.55,53.18 12.55,53.16C12.56,53.15 12.57,53.13 12.58,53.12C12.59,53.11 12.61,53.09 12.63,53.08L13.57,52.48C13.58,52.47 13.59,52.46 13.60,52.46C13.62,52.46 13.63,52.45 13.65,52.45C13.67,52.44 13.69,52.44 13.72,52.44C13.75,52.44 13.78,52.44 13.81,52.44C13.87,52.44 13.91,52.44 13.94,52.44C13.98,52.45 14.00,52.45 14.02,52.46C14.04,52.47 14.05,52.48 14.06,52.49C14.07,52.50 14.07,52.51 14.07,52.53L14.07,56.14L14.81,56.14C14.83,56.14 14.84,56.14 14.86,56.15C14.87,56.16 14.89,56.17 14.90,56.19C14.90,56.21 14.91,56.23 14.92,56.26C14.92,56.29 14.93,56.32 14.93,56.36Z" fill="currentColor" stroke="currentColor" stroke-width="1.2" stroke-linejoin="round" />
</svg>