<svg xmlns="http://www.w3.org/2000/svg" viewBox="0 0 135.93 132.95" preserveAspectRatio="xMidYMid meet" shape-rendering="geometricPrecision" text-rendering="optimizeLegibility">
  <line x1="127.93" y1="37.24" x2="77.29" y2="8.00" fill="currentColor" stroke="currentColor" stroke-width="1.4000000476837158" stroke-linecap="round" stroke-linejoin="round" />
  <line x1="77.29" y1="8.00" x2="26.65" y2="37.24" fill="currentColor" stroke="currentColor" stroke-width="1.4000000476837158" stroke-linecap="round" stroke-linejoin="round" />
  <path d="M8.24,27.64 C8.30,27.63 8.38,27.63 8.46,27.63" fill="currentColor" stroke="currentColor" stroke-width="1.2" stroke-linecap="round" stroke-linejoin="round" />
  <path d="M8.46,27.63 C8.55,27.63 8.63,27.63 8.68,27.64" fill="currentColor" stroke="currentColor" stroke-width="1.2" stroke-linecap="round" stroke-linejoin="round" />
  <path d="M12.32,27.64 C12.38,27.63 12.46,27.63 12.55,27.63" fill="currentColor" stroke="currentColor" stroke-width="1.2" stroke-linecap="round" stroke-linejoin="round" />
  <path d="M12.55,27.63 C12.63,27.63 12.71,27.63 12.77,27.64" fill="currentColor" stroke="currentColor" stroke-width="1.2" stroke-linecap="round" stroke-linejoin="round" />
  <path d="M8.10,27.67 C8.13,27.66 8.18,27.65 8.24,27.64" fill="currentColor" stroke="currentColor" stroke-width="1.2" stroke-linecap="round" stroke-linejoin="round" />
  <path d="M8.68,27.64 C8.74,27.65 8.79,27.66 8.83,27.67" fill="currentColor" stroke="currentColor" stroke-width="1.2" stroke-linecap="round" stroke-linejoin="round" />
  <path d="M12.18,27.67 C12.22,27.66 12.27,27.65 12.32,27.64" fill="currentColor" stroke="currentColor" stroke-width="1.2" stroke-linecap="round" stroke-linejoin="round" />
  <path d="M12.77,27.64 C12.83,27.65 12.87,27.66 12.91,27.67" fill="currentColor" stroke="currentColor" stroke-width="1.2" stroke-linecap="round" stroke-linejoin="round" />
  <path d="M8.02,27.72 C8.04,27.70 8.06,27.68 8.10,27.67" fill="currentColor" stroke="currentColor" stroke-width="1.2" stroke-linecap="round" stroke-linejoin="round" />
  <path d="M8.83,27.67 C8.86,27.68 8.89,27.70 8.90,27.72" fill="currentColor" stroke="currentColor" stroke-width="1.2" stroke-linecap="round" stroke-linejoin="round" />
  <path d="M12.11,27.72 C12.12,27.70 12.15,27.68 12.18,27.67" fill="currentColor" stroke="currentColor" stroke-width="1.2" stroke-linecap="round" stroke-linejoin="round" />
  <path d="M12.91,27.67 C12.94,27.68 12.97,27.70 12.98,27.72" fill="currentColor" stroke="currentColor" stroke-width="1.2" stroke-linecap="round" stroke-linejoin="round" />
  <path d="M8.00,27.80 C8.00,27.77 8.01,27.74 8.02,27.72" fill="currentColor" stroke="currentColor" stroke-width="1.2" stroke-linecap="round" stroke-linejoin="round" />
  <path d="M8.90,27.72 C8.92,27.74 8.92,27.77 8.92,27.80" fill="currentColor" stroke="currentColor" stroke-width="1.2" stroke-linecap="round" stroke-linejoin="round" />
  <path d="M12.09,27.80 C12.09,27.77 12.09,27.74 12.11,27.72" fill="currentColor" stroke="currentColor" stroke-width="1.2" stroke-linecap="round" stroke-linejoin="round" />
  <path d="M12.98,27.72 C13.00,27.74 13.01,27.77 13.01,27.80" fill="currentColor" stroke="currentColor" stroke-width="1.2" stroke-linecap="round" stroke-linejoin="round" />
  <line x1="8.00" y1="34.47" x2="8.00" y2="27.80" fill="currentColor" stroke="currentColor" stroke-width="1.2" stroke-linecap="round" stroke-linejoin="round" />
  <line x1="8.92" y1="27.80" x2="8.92" y2="30.58" fill="currentColor" stroke="currentColor" stroke-width="1.2" stroke-linecap="round" stroke-linejoin="round" />
  <line x1="12.09" y1="30.58" x2="12.09" y2="27.80" fill="currentColor" stroke="currentColor" stroke-width="1.2" stroke-linecap="round" stroke-linejoin="round" />
  <line x1="13.01" y1="27.80" x2="13.01" y2="34.47" fill="currentColor" stroke="currentColor" stroke-width="1.2" stroke-linecap="round" stroke-linejoin="round" />
  <line x1="8.92" y1="30.58" x2="12.09" y2="30.58" fill="currentColor" stroke="currentColor" stroke-width="1.2" stroke-linecap="round" stroke-linejoin="round" />
  <line x1="12.09" y1="34.47" x2="12.09" y2="31.39" fill="currentColor" stroke="currentColor" stroke-width="1.2" stroke-linecap="round" stroke-linejoin="round" />
  <line x1="12.09" y1="31.39" x2="8.92" y2="31.39" fill="currentColor" stroke="currentColor" stroke-width="1.2" stroke-linecap="round" stroke-linejoin="round" />
  <line x1="8.92" y1="31.39" x2="8.92" y2="34.47" fill="currentColor" stroke="currentColor" stroke-width="1.2" stroke-linecap="round" stroke-linejoin="round" />
  <path d="M13.01,34.47 C13.01,34.50 13.00,34.52 12.98,34.54" fill="currentColor" stroke="currentColor" stroke-width="1.2" stroke-linecap="round" stroke-linejoin="round" />
  <path d="M12.11,34.54 C12.09,34.52 12.09,34.50 12.09,34.47" fill="currentColor" stroke="currentColor" stroke-width="1.2" stroke-linecap="round" stroke-linejoin="round" />
  <path d="M8.92,34.47 C8.92,34.50 8.92,34.52 8.90,34.54" fill="currentColor" stroke="currentColor" stroke-width="1.2" stroke-linecap="round" stroke-linejoin="round" />
  <path d="M8.02,34.54 C8.01,34.52 8.00,34.50 8.00,34.47" fill="currentColor" stroke="currentColor" stroke-width="1.2" stroke-linecap="round" stroke-linejoin="round" />
  <path d="M12.98,34.54 C12.97,34.57 12.94,34.58 12.91,34.60" fill="currentColor" stroke="currentColor" stroke-width="1.2" stroke-linecap="round" stroke-linejoin="round" />
  <path d="M12.18,34.60 C12.15,34.58 12.12,34.57 12.11,34.54" fill="currentColor" stroke="currentColor" stroke-width="1.2" stroke-linecap="round" stroke-linejoin="round" />
  <path d="M8.90,34.54 C8.89,34.57 8.86,34.58 8.83,34.60" fill="currentColor" stroke="currentColor" stroke-width="1.2" stroke-linecap="round" stroke-linejoin="round" />
  <path d="M8.10,34.60 C8.06,34.58 8.04,34.57 8.02,34.54" fill="currentColor" stroke="currentColor" stroke-width="1.2" stroke-linecap="round" stroke-linejoin="round" />
  <path d="M12.91,34.60 C12.87,34.61 12.83,34.62 12.77,34.63" fill="currentColor" stroke="currentColor" stroke-width="1.2" stroke-linecap="round" stroke-linejoin="round" />
  <path d="M12.32,34.63 C12.27,34.62 12.22,34.61 12.18,34.60" fill="currentColor" stroke="currentColor" stroke-width="1.2" stroke-linecap="round" stroke-linejoin="round" />
  <path d="M8.83,34.60 C8.79,34.61 8.74,34.62 8.68,34.63" fill="currentColor" stroke="currentColor" stroke-width="1.2" stroke-linecap="round" stroke-linejoin="round" />
  <path d="M8.24,34.63 C8.18,34.62 8.13,34.61 8.10,34.60" fill="currentColor" stroke="currentColor" stroke-width="1.2" stroke-linecap="round" stroke-linejoin="round" />
  <path d="M12.77,34.63 C12.71,34.64 12.63,34.64 12.55,34.64" fill="currentColor" stroke="currentColor" stroke-width="1.2" stroke-linecap="round" stroke-linejoin="round" />
  <path d="M12.55,34.64 C12.46,34.64 12.38,34.64 12.32,34.63" fill="currentColor" stroke="currentColor" stroke-width="1.2" stroke-linecap="round" stroke-linejoin="round" />
  <path d="M8.68,34.63 C8.63,34.64 8.55,34.64 8.46,34.64" fill="currentColor" stroke="currentColor" stroke-width="1.2" stroke-linecap="round" stroke-linejoin="round" />
  <path d="M8.46,34.64 C8.38,34.64 8.30,34.64 8.24,34.63" fill="currentColor" stroke="currentColor" stroke-width="1.2" stroke-linecap="round" stroke-linejoin="round" />
  <line x1="26.65" y1="37.24" x2="26.65" y2="95.71" fill="currentColor" stroke="currentColor" stroke-width="1.4000000476837158" stroke-linecap="round" stroke-linejoin="round" />
  <line x1="127.93" y1="95.71" x2="127.93" y2="37.24" fill="currentColor" stroke="currentColor" stroke-width="1.4000000476837158" stroke-linecap="round" stroke-linejoin="round" />
  <line x1="26.65" y1="37.24" x2="77.29" y2="124.95" fill="currentColor" stroke="currentColor" stroke-width="1.4000000476837158" stroke-linecap="round" stroke-linejoin="round" />
  <line x1="77.29" y1="124.95" x2="127.93" y2="37.24" fill="currentColor" stroke="currentColor" stroke-width="1.4000000476837158" stroke-linecap="round" stroke-linejoin="round" />
  <line x1="127.93" y1="37.24" x2="26.65" y2="37.24" fill="currentColor" stroke="currentColor" stroke-width="1.4000000476837158" stroke-linecap="round" stroke-linejoin="round" />
  <line x1="26.65" y1="95.71" x2="77.29" y2="124.95" fill="currentColor" stroke="currentColor" stroke-width="1.4000000476837158" stroke-linecap="round" stroke-linejoin="round" />
  <line x1="77.29" y1="124.95" x2="127.93" y2="95.71" fill="currentColor" stroke="currentColor" stroke-width="1.4000000476837158" stroke-linecap="round" stroke-linejoin="round" />
</svg>