<svg xmlns="http://www.w3.org/2000/svg" viewBox="0 0 373.08 122.06" preserveAspectRatio="xMidYMid meet" shape-rendering="geometricPrecision" text-rendering="optimizeLegibility">
  <polygon points="211.33,8.00 365.08,8.00 324.94,103.62 171.19,103.62" fill="none" stroke="currentColor" stroke-width="1.2" stroke-linecap="round" stroke-linejoin="round" />
  <polygon points="36.09,36.69 143.72,36.69 115.62,103.62 8.00,103.62" fill="none" stroke="currentColor" stroke-width="1.2" stroke-linecap="round" stroke-linejoin="round" />
  <path d="M186.36,53.21 C186.22,53.20 186.09,53.19 185.96,53.19" fill="currentColor" stroke="currentColor" stroke-width="1.2" stroke-linecap="round" stroke-linejoin="round" />
  <path d="M185.96,53.19 C185.47,53.19 185.03,53.27 184.64,53.43" fill="currentColor" stroke="currentColor" stroke-width="1.2" stroke-linecap="round" stroke-linejoin="round" />
  <path d="M186.81,53.28 C186.65,53.25 186.51,53.23 186.36,53.21" fill="currentColor" stroke="currentColor" stroke-width="1.2" stroke-linecap="round" stroke-linejoin="round" />
  <line x1="186.69" y1="54.10" x2="186.81" y2="53.28" fill="currentColor" stroke="currentColor" stroke-width="1.2" stroke-linecap="round" stroke-linejoin="round" />
  <path d="M184.64,53.43 C184.25,53.58 183.91,53.80 183.63,54.07" fill="currentColor" stroke="currentColor" stroke-width="1.2" stroke-linecap="round" stroke-linejoin="round" />
  <path d="M185.04,54.20 C185.32,54.09 185.63,54.03 185.97,54.03" fill="currentColor" stroke="currentColor" stroke-width="1.2" stroke-linecap="round" stroke-linejoin="round" />
  <path d="M185.97,54.03 C186.09,54.03 186.20,54.03 186.32,54.04" fill="currentColor" stroke="currentColor" stroke-width="1.2" stroke-linecap="round" stroke-linejoin="round" />
  <path d="M186.32,54.04 C186.44,54.06 186.56,54.08 186.69,54.10" fill="currentColor" stroke="currentColor" stroke-width="1.2" stroke-linecap="round" stroke-linejoin="round" />
  <path d="M183.63,54.07 C183.35,54.35 183.14,54.66 182.99,55.02" fill="currentColor" stroke="currentColor" stroke-width="1.2" stroke-linecap="round" stroke-linejoin="round" />
  <path d="M184.33,54.67 C184.53,54.48 184.76,54.32 185.04,54.20" fill="currentColor" stroke="currentColor" stroke-width="1.2" stroke-linecap="round" stroke-linejoin="round" />
  <path d="M183.88,55.34 C183.98,55.09 184.13,54.87 184.33,54.67" fill="currentColor" stroke="currentColor" stroke-width="1.2" stroke-linecap="round" stroke-linejoin="round" />
  <path d="M182.99,55.02 C182.84,55.37 182.76,55.76 182.76,56.16" fill="currentColor" stroke="currentColor" stroke-width="1.2" stroke-linecap="round" stroke-linejoin="round" />
  <path d="M183.72,56.10 C183.72,55.84 183.77,55.59 183.88,55.34" fill="currentColor" stroke="currentColor" stroke-width="1.2" stroke-linecap="round" stroke-linejoin="round" />
  <path d="M184.08,57.20 C183.84,56.94 183.72,56.58 183.72,56.10" fill="currentColor" stroke="currentColor" stroke-width="1.2" stroke-linecap="round" stroke-linejoin="round" />
  <path d="M182.76,56.16 C182.76,56.62 182.85,57.03 183.03,57.37" fill="currentColor" stroke="currentColor" stroke-width="1.2" stroke-linecap="round" stroke-linejoin="round" />
  <path d="M186.42,57.18 C186.19,57.32 185.97,57.42 185.76,57.49" fill="currentColor" stroke="currentColor" stroke-width="1.2" stroke-linecap="round" stroke-linejoin="round" />
  <line x1="186.31" y1="58.08" x2="186.42" y2="57.18" fill="currentColor" stroke="currentColor" stroke-width="1.2" stroke-linecap="round" stroke-linejoin="round" />
  <path d="M185.07,57.60 C184.65,57.60 184.32,57.46 184.08,57.20" fill="currentColor" stroke="currentColor" stroke-width="1.2" stroke-linecap="round" stroke-linejoin="round" />
  <path d="M183.03,57.37 C183.21,57.71 183.46,57.97 183.78,58.15" fill="currentColor" stroke="currentColor" stroke-width="1.2" stroke-linecap="round" stroke-linejoin="round" />
  <path d="M185.76,57.49 C185.54,57.57 185.31,57.60 185.07,57.60" fill="currentColor" stroke="currentColor" stroke-width="1.2" stroke-linecap="round" stroke-linejoin="round" />
  <path d="M185.64,58.35 C185.85,58.30 186.08,58.21 186.31,58.08" fill="currentColor" stroke="currentColor" stroke-width="1.2" stroke-linecap="round" stroke-linejoin="round" />
  <path d="M183.78,58.15 C184.11,58.34 184.49,58.43 184.94,58.44" fill="currentColor" stroke="currentColor" stroke-width="1.2" stroke-linecap="round" stroke-linejoin="round" />
  <path d="M184.94,58.44 C185.19,58.44 185.42,58.41 185.64,58.35" fill="currentColor" stroke="currentColor" stroke-width="1.2" stroke-linecap="round" stroke-linejoin="round" />
  <path d="M17.62,67.58 C17.48,67.57 17.35,67.56 17.23,67.56" fill="currentColor" stroke="currentColor" stroke-width="1.2" stroke-linecap="round" stroke-linejoin="round" />
  <path d="M17.23,67.56 C16.74,67.56 16.32,67.63 15.95,67.75" fill="currentColor" stroke="currentColor" stroke-width="1.2" stroke-linecap="round" stroke-linejoin="round" />
  <path d="M18.05,67.64 C17.91,67.61 17.77,67.59 17.62,67.58" fill="currentColor" stroke="currentColor" stroke-width="1.2" stroke-linecap="round" stroke-linejoin="round" />
  <path d="M18.39,67.71 C18.30,67.68 18.18,67.66 18.05,67.64" fill="currentColor" stroke="currentColor" stroke-width="1.2" stroke-linecap="round" stroke-linejoin="round" />
  <line x1="17.70" y1="72.65" x2="18.39" y2="67.71" fill="currentColor" stroke="currentColor" stroke-width="1.2" stroke-linecap="round" stroke-linejoin="round" />
  <path d="M15.95,67.75 C15.58,67.87 15.27,68.03 15.00,68.25" fill="currentColor" stroke="currentColor" stroke-width="1.2" stroke-linecap="round" stroke-linejoin="round" />
  <path d="M15.00,68.25 C14.74,68.46 14.53,68.70 14.36,68.98" fill="currentColor" stroke="currentColor" stroke-width="1.2" stroke-linecap="round" stroke-linejoin="round" />
  <path d="M16.29,68.48 C16.58,68.38 16.94,68.34 17.37,68.37" fill="currentColor" stroke="currentColor" stroke-width="1.2" stroke-linecap="round" stroke-linejoin="round" />
  <line x1="17.37" y1="68.37" x2="16.96" y2="71.22" fill="currentColor" stroke="currentColor" stroke-width="1.2" stroke-linecap="round" stroke-linejoin="round" />
  <path d="M15.55,68.90 C15.74,68.72 15.99,68.58 16.29,68.48" fill="currentColor" stroke="currentColor" stroke-width="1.2" stroke-linecap="round" stroke-linejoin="round" />
  <path d="M15.11,69.50 C15.21,69.28 15.36,69.08 15.55,68.90" fill="currentColor" stroke="currentColor" stroke-width="1.2" stroke-linecap="round" stroke-linejoin="round" />
  <path d="M14.36,68.98 C14.19,69.25 14.07,69.54 13.99,69.85" fill="currentColor" stroke="currentColor" stroke-width="1.2" stroke-linecap="round" stroke-linejoin="round" />
  <path d="M14.89,70.12 C14.93,69.92 15.00,69.72 15.11,69.50" fill="currentColor" stroke="currentColor" stroke-width="1.2" stroke-linecap="round" stroke-linejoin="round" />
  <path d="M13.99,69.85 C13.91,70.16 13.87,70.48 13.87,70.79" fill="currentColor" stroke="currentColor" stroke-width="1.2" stroke-linecap="round" stroke-linejoin="round" />
  <path d="M14.83,70.63 C14.83,70.49 14.85,70.32 14.89,70.12" fill="currentColor" stroke="currentColor" stroke-width="1.2" stroke-linecap="round" stroke-linejoin="round" />
  <path d="M14.95,71.33 C14.87,71.13 14.83,70.89 14.83,70.63" fill="currentColor" stroke="currentColor" stroke-width="1.2" stroke-linecap="round" stroke-linejoin="round" />
  <path d="M13.87,70.79 C13.88,71.16 13.95,71.49 14.09,71.78" fill="currentColor" stroke="currentColor" stroke-width="1.2" stroke-linecap="round" stroke-linejoin="round" />
  <path d="M16.96,71.22 C16.86,71.35 16.75,71.48 16.62,71.59" fill="currentColor" stroke="currentColor" stroke-width="1.2" stroke-linecap="round" stroke-linejoin="round" />
  <path d="M15.30,71.81 C15.15,71.69 15.04,71.53 14.95,71.33" fill="currentColor" stroke="currentColor" stroke-width="1.2" stroke-linecap="round" stroke-linejoin="round" />
  <path d="M16.62,71.59 C16.49,71.71 16.35,71.80 16.21,71.87" fill="currentColor" stroke="currentColor" stroke-width="1.2" stroke-linecap="round" stroke-linejoin="round" />
  <path d="M14.09,71.78 C14.23,72.07 14.43,72.31 14.67,72.48" fill="currentColor" stroke="currentColor" stroke-width="1.2" stroke-linecap="round" stroke-linejoin="round" />
  <path d="M15.81,71.98 C15.61,71.98 15.45,71.92 15.30,71.81" fill="currentColor" stroke="currentColor" stroke-width="1.2" stroke-linecap="round" stroke-linejoin="round" />
  <path d="M16.21,71.87 C16.07,71.94 15.93,71.98 15.81,71.98" fill="currentColor" stroke="currentColor" stroke-width="1.2" stroke-linecap="round" stroke-linejoin="round" />
  <path d="M16.20,72.56 C16.42,72.44 16.64,72.27 16.83,72.06" fill="currentColor" stroke="currentColor" stroke-width="1.2" stroke-linecap="round" stroke-linejoin="round" />
  <line x1="16.83" y1="72.06" x2="16.85" y2="72.08" fill="currentColor" stroke="currentColor" stroke-width="1.2" stroke-linecap="round" stroke-linejoin="round" />
  <line x1="16.85" y1="72.08" x2="16.76" y2="72.65" fill="currentColor" stroke="currentColor" stroke-width="1.2" stroke-linecap="round" stroke-linejoin="round" />
  <path d="M14.67,72.48 C14.92,72.66 15.19,72.75 15.50,72.75" fill="currentColor" stroke="currentColor" stroke-width="1.2" stroke-linecap="round" stroke-linejoin="round" />
  <path d="M15.50,72.75 C15.74,72.75 15.97,72.69 16.20,72.56" fill="currentColor" stroke="currentColor" stroke-width="1.2" stroke-linecap="round" stroke-linejoin="round" />
  <line x1="16.76" y1="72.65" x2="17.70" y2="72.65" fill="currentColor" stroke="currentColor" stroke-width="1.2" stroke-linecap="round" stroke-linejoin="round" />
  <line x1="59.71" y1="106.40" x2="58.75" y2="106.40" fill="currentColor" stroke="currentColor" stroke-width="1.2" stroke-linecap="round" stroke-linejoin="round" />
  <line x1="58.75" y1="106.40" x2="57.73" y2="113.98" fill="currentColor" stroke="currentColor" stroke-width="1.2" stroke-linecap="round" stroke-linejoin="round" />
  <line x1="59.29" y1="109.34" x2="59.71" y2="106.40" fill="currentColor" stroke="currentColor" stroke-width="1.2" stroke-linecap="round" stroke-linejoin="round" />
  <line x1="252.06" y1="106.40" x2="251.12" y2="106.40" fill="currentColor" stroke="currentColor" stroke-width="1.2" stroke-linecap="round" stroke-linejoin="round" />
  <line x1="251.12" y1="106.40" x2="250.78" y2="108.81" fill="currentColor" stroke="currentColor" stroke-width="1.2" stroke-linecap="round" stroke-linejoin="round" />
  <line x1="251.00" y1="113.90" x2="252.06" y2="106.40" fill="currentColor" stroke="currentColor" stroke-width="1.2" stroke-linecap="round" stroke-linejoin="round" />
  <path d="M60.51,108.81 C60.28,108.81 60.08,108.85 59.89,108.93" fill="currentColor" stroke="currentColor" stroke-width="1.2" stroke-linecap="round" stroke-linejoin="round" />
  <path d="M61.42,109.10 C61.16,108.91 60.86,108.81 60.51,108.81" fill="currentColor" stroke="currentColor" stroke-width="1.2" stroke-linecap="round" stroke-linejoin="round" />
  <line x1="250.78" y1="108.81" x2="250.39" y2="108.81" fill="currentColor" stroke="currentColor" stroke-width="1.2" stroke-linecap="round" stroke-linejoin="round" />
  <path d="M250.39,108.81 C249.92,108.81 249.50,108.88 249.15,109.02" fill="currentColor" stroke="currentColor" stroke-width="1.2" stroke-linecap="round" stroke-linejoin="round" />
  <path d="M59.89,108.93 C59.70,109.02 59.51,109.16 59.31,109.36" fill="currentColor" stroke="currentColor" stroke-width="1.2" stroke-linecap="round" stroke-linejoin="round" />
  <path d="M249.15,109.02 C248.79,109.15 248.48,109.33 248.23,109.55" fill="currentColor" stroke="currentColor" stroke-width="1.2" stroke-linecap="round" stroke-linejoin="round" />
  <path d="M62.02,109.89 C61.88,109.55 61.68,109.29 61.42,109.10" fill="currentColor" stroke="currentColor" stroke-width="1.2" stroke-linecap="round" stroke-linejoin="round" />
  <line x1="59.31" y1="109.36" x2="59.29" y2="109.34" fill="currentColor" stroke="currentColor" stroke-width="1.2" stroke-linecap="round" stroke-linejoin="round" />
  <path d="M248.23,109.55 C247.97,109.77 247.77,110.01 247.61,110.27" fill="currentColor" stroke="currentColor" stroke-width="1.2" stroke-linecap="round" stroke-linejoin="round" />
  <path d="M249.42,109.78 C249.71,109.66 250.05,109.60 250.43,109.59" fill="currentColor" stroke="currentColor" stroke-width="1.2" stroke-linecap="round" stroke-linejoin="round" />
  <line x1="250.43" y1="109.59" x2="250.67" y2="109.59" fill="currentColor" stroke="currentColor" stroke-width="1.2" stroke-linecap="round" stroke-linejoin="round" />
  <line x1="250.67" y1="109.59" x2="250.17" y2="113.26" fill="currentColor" stroke="currentColor" stroke-width="1.2" stroke-linecap="round" stroke-linejoin="round" />
  <path d="M59.94,109.66 C60.05,109.64 60.14,109.62 60.22,109.62" fill="currentColor" stroke="currentColor" stroke-width="1.2" stroke-linecap="round" stroke-linejoin="round" />
  <path d="M60.22,109.62 C60.56,109.63 60.82,109.75 61.00,110.00" fill="currentColor" stroke="currentColor" stroke-width="1.2" stroke-linecap="round" stroke-linejoin="round" />
  <path d="M59.60,109.78 C59.72,109.73 59.83,109.69 59.94,109.66" fill="currentColor" stroke="currentColor" stroke-width="1.2" stroke-linecap="round" stroke-linejoin="round" />
  <path d="M248.69,110.27 C248.89,110.07 249.13,109.90 249.42,109.78" fill="currentColor" stroke="currentColor" stroke-width="1.2" stroke-linecap="round" stroke-linejoin="round" />
  <path d="M59.32,109.98 C59.40,109.90 59.49,109.83 59.60,109.78" fill="currentColor" stroke="currentColor" stroke-width="1.2" stroke-linecap="round" stroke-linejoin="round" />
  <path d="M62.25,111.06 C62.24,110.62 62.17,110.23 62.02,109.89" fill="currentColor" stroke="currentColor" stroke-width="1.2" stroke-linecap="round" stroke-linejoin="round" />
  <path d="M59.17,110.25 C59.19,110.15 59.24,110.06 59.32,109.98" fill="currentColor" stroke="currentColor" stroke-width="1.2" stroke-linecap="round" stroke-linejoin="round" />
  <path d="M61.00,110.00 C61.19,110.24 61.29,110.59 61.29,111.04" fill="currentColor" stroke="currentColor" stroke-width="1.2" stroke-linecap="round" stroke-linejoin="round" />
  <line x1="58.74" y1="113.29" x2="59.17" y2="110.25" fill="currentColor" stroke="currentColor" stroke-width="1.2" stroke-linecap="round" stroke-linejoin="round" />
  <path d="M247.61,110.27 C247.45,110.53 247.33,110.80 247.26,111.06" fill="currentColor" stroke="currentColor" stroke-width="1.2" stroke-linecap="round" stroke-linejoin="round" />
  <path d="M248.25,110.96 C248.35,110.71 248.50,110.48 248.69,110.27" fill="currentColor" stroke="currentColor" stroke-width="1.2" stroke-linecap="round" stroke-linejoin="round" />
  <path d="M248.10,111.75 C248.10,111.48 248.15,111.22 248.25,110.96" fill="currentColor" stroke="currentColor" stroke-width="1.2" stroke-linecap="round" stroke-linejoin="round" />
  <path d="M61.29,111.04 C61.29,111.49 61.21,111.88 61.05,112.22" fill="currentColor" stroke="currentColor" stroke-width="1.2" stroke-linecap="round" stroke-linejoin="round" />
  <path d="M247.26,111.06 C247.18,111.32 247.14,111.55 247.14,111.77" fill="currentColor" stroke="currentColor" stroke-width="1.2" stroke-linecap="round" stroke-linejoin="round" />
  <path d="M62.15,111.88 C62.21,111.60 62.25,111.33 62.25,111.06" fill="currentColor" stroke="currentColor" stroke-width="1.2" stroke-linecap="round" stroke-linejoin="round" />
  <path d="M248.52,112.88 C248.24,112.62 248.10,112.24 248.10,111.75" fill="currentColor" stroke="currentColor" stroke-width="1.2" stroke-linecap="round" stroke-linejoin="round" />
  <path d="M247.14,111.77 C247.15,112.51 247.37,113.07 247.82,113.46" fill="currentColor" stroke="currentColor" stroke-width="1.2" stroke-linecap="round" stroke-linejoin="round" />
  <path d="M61.83,112.69 C61.98,112.43 62.09,112.16 62.15,111.88" fill="currentColor" stroke="currentColor" stroke-width="1.2" stroke-linecap="round" stroke-linejoin="round" />
  <path d="M61.05,112.22 C60.89,112.55 60.66,112.81 60.36,113.00" fill="currentColor" stroke="currentColor" stroke-width="1.2" stroke-linecap="round" stroke-linejoin="round" />
  <path d="M61.24,113.38 C61.49,113.18 61.68,112.95 61.83,112.69" fill="currentColor" stroke="currentColor" stroke-width="1.2" stroke-linecap="round" stroke-linejoin="round" />
  <path d="M249.74,113.29 C249.21,113.28 248.80,113.15 248.52,112.88" fill="currentColor" stroke="currentColor" stroke-width="1.2" stroke-linecap="round" stroke-linejoin="round" />
  <path d="M60.36,113.00 C60.06,113.19 59.69,113.28 59.25,113.29" fill="currentColor" stroke="currentColor" stroke-width="1.2" stroke-linecap="round" stroke-linejoin="round" />
  <path d="M250.17,113.26 C250.09,113.27 250.02,113.28 249.95,113.28" fill="currentColor" stroke="currentColor" stroke-width="1.2" stroke-linecap="round" stroke-linejoin="round" />
  <path d="M249.95,113.28 C249.88,113.28 249.81,113.29 249.74,113.29" fill="currentColor" stroke="currentColor" stroke-width="1.2" stroke-linecap="round" stroke-linejoin="round" />
  <line x1="59.25" y1="113.29" x2="58.74" y2="113.29" fill="currentColor" stroke="currentColor" stroke-width="1.2" stroke-linecap="round" stroke-linejoin="round" />
  <path d="M60.32,113.87 C60.69,113.75 60.99,113.59 61.24,113.38" fill="currentColor" stroke="currentColor" stroke-width="1.2" stroke-linecap="round" stroke-linejoin="round" />
  <path d="M247.82,113.46 C248.26,113.85 248.90,114.05 249.74,114.06" fill="currentColor" stroke="currentColor" stroke-width="1.2" stroke-linecap="round" stroke-linejoin="round" />
  <path d="M59.03,114.06 C59.53,114.05 59.96,113.99 60.32,113.87" fill="currentColor" stroke="currentColor" stroke-width="1.2" stroke-linecap="round" stroke-linejoin="round" />
  <path d="M250.40,114.02 C250.61,114.00 250.81,113.96 251.00,113.90" fill="currentColor" stroke="currentColor" stroke-width="1.2" stroke-linecap="round" stroke-linejoin="round" />
  <path d="M57.73,113.98 C57.82,113.99 57.94,114.01 58.09,114.02" fill="currentColor" stroke="currentColor" stroke-width="1.2" stroke-linecap="round" stroke-linejoin="round" />
  <path d="M58.09,114.02 C58.23,114.03 58.38,114.04 58.55,114.05" fill="currentColor" stroke="currentColor" stroke-width="1.2" stroke-linecap="round" stroke-linejoin="round" />
  <path d="M249.74,114.06 C249.98,114.06 250.20,114.04 250.40,114.02" fill="currentColor" stroke="currentColor" stroke-width="1.2" stroke-linecap="round" stroke-linejoin="round" />
  <path d="M58.55,114.05 C58.71,114.05 58.88,114.05 59.03,114.06" fill="currentColor" stroke="currentColor" stroke-width="1.2" stroke-linecap="round" stroke-linejoin="round" />
</svg>