<svg xmlns="http://www.w3.org/2000/svg" viewBox="0 0 191.77 146.89" preserveAspectRatio="xMidYMid meet" shape-rendering="geometricPrecision" text-rendering="optimizeLegibility">
  <line x1="183.77" y1="8.00" x2="16.90" y2="128.47" fill="none" stroke="currentColor" stroke-width="1.4000000476837158" stroke-linecap="round" stroke-linejoin="round" />
  <path d="M107.76,74.88 C103.75,74.88 100.20,72.90 98.02,69.88" fill="none" stroke="currentColor" stroke-width="1.000000011920929" stroke-linecap="round" stroke-linejoin="round" />
  <path d="M104.54,77.78 C104.73,77.74 104.93,77.72 105.14,77.72" fill="currentColor" stroke="currentColor" stroke-width="1.2" stroke-linecap="round" stroke-linejoin="round" />
  <path d="M105.14,77.72 C105.48,77.72 105.77,77.76 106.02,77.86" fill="currentColor" stroke="currentColor" stroke-width="1.2" stroke-linecap="round" stroke-linejoin="round" />
  <path d="M99.87,77.77 C99.91,77.77 99.96,77.77 100.03,77.77" fill="currentColor" stroke="currentColor" stroke-width="1.2" stroke-linecap="round" stroke-linejoin="round" />
  <path d="M100.03,77.77 C100.11,77.77 100.18,77.77 100.24,77.78" fill="currentColor" stroke="currentColor" stroke-width="1.2" stroke-linecap="round" stroke-linejoin="round" />
  <path d="M99.75,77.79 C99.79,77.78 99.82,77.77 99.87,77.77" fill="currentColor" stroke="currentColor" stroke-width="1.2" stroke-linecap="round" stroke-linejoin="round" />
  <path d="M100.24,77.78 C100.30,77.79 100.34,77.80 100.38,77.81" fill="currentColor" stroke="currentColor" stroke-width="1.2" stroke-linecap="round" stroke-linejoin="round" />
  <path d="M104.01,77.94 C104.17,77.88 104.34,77.82 104.54,77.78" fill="currentColor" stroke="currentColor" stroke-width="1.2" stroke-linecap="round" stroke-linejoin="round" />
  <path d="M99.67,77.81 C99.69,77.80 99.72,77.79 99.75,77.79" fill="currentColor" stroke="currentColor" stroke-width="1.2" stroke-linecap="round" stroke-linejoin="round" />
  <path d="M99.62,77.83 C99.63,77.82 99.65,77.81 99.67,77.81" fill="currentColor" stroke="currentColor" stroke-width="1.2" stroke-linecap="round" stroke-linejoin="round" />
  <path d="M100.38,77.81 C100.41,77.82 100.43,77.84 100.44,77.86" fill="currentColor" stroke="currentColor" stroke-width="1.2" stroke-linecap="round" stroke-linejoin="round" />
  <line x1="98.02" y1="78.86" x2="99.62" y2="77.83" fill="currentColor" stroke="currentColor" stroke-width="1.2" stroke-linecap="round" stroke-linejoin="round" />
  <path d="M100.44,77.86 C100.45,77.88 100.46,77.90 100.46,77.92" fill="currentColor" stroke="currentColor" stroke-width="1.2" stroke-linecap="round" stroke-linejoin="round" />
  <path d="M106.02,77.86 C106.28,77.95 106.49,78.08 106.65,78.25" fill="currentColor" stroke="currentColor" stroke-width="1.2" stroke-linecap="round" stroke-linejoin="round" />
  <line x1="100.46" y1="77.92" x2="100.46" y2="84.03" fill="currentColor" stroke="currentColor" stroke-width="1.2" stroke-linecap="round" stroke-linejoin="round" />
  <path d="M103.61,78.13 C103.72,78.06 103.85,78.00 104.01,77.94" fill="currentColor" stroke="currentColor" stroke-width="1.2" stroke-linecap="round" stroke-linejoin="round" />
  <path d="M103.39,78.28 C103.43,78.24 103.51,78.19 103.61,78.13" fill="currentColor" stroke="currentColor" stroke-width="1.2" stroke-linecap="round" stroke-linejoin="round" />
  <path d="M106.65,78.25 C106.82,78.41 106.94,78.60 107.03,78.82" fill="currentColor" stroke="currentColor" stroke-width="1.2" stroke-linecap="round" stroke-linejoin="round" />
  <path d="M103.30,78.38 C103.32,78.35 103.35,78.32 103.39,78.28" fill="currentColor" stroke="currentColor" stroke-width="1.2" stroke-linecap="round" stroke-linejoin="round" />
  <path d="M103.27,78.46 C103.28,78.43 103.29,78.40 103.30,78.38" fill="currentColor" stroke="currentColor" stroke-width="1.2" stroke-linecap="round" stroke-linejoin="round" />
  <path d="M103.25,78.56 C103.25,78.52 103.26,78.49 103.27,78.46" fill="currentColor" stroke="currentColor" stroke-width="1.2" stroke-linecap="round" stroke-linejoin="round" />
  <path d="M105.46,78.62 C105.32,78.56 105.15,78.53 104.97,78.53" fill="currentColor" stroke="currentColor" stroke-width="1.2" stroke-linecap="round" stroke-linejoin="round" />
  <path d="M104.97,78.53 C104.75,78.53 104.55,78.56 104.38,78.62" fill="currentColor" stroke="currentColor" stroke-width="1.2" stroke-linecap="round" stroke-linejoin="round" />
  <path d="M103.24,78.70 C103.24,78.64 103.25,78.60 103.25,78.56" fill="currentColor" stroke="currentColor" stroke-width="1.2" stroke-linecap="round" stroke-linejoin="round" />
  <path d="M105.82,78.87 C105.73,78.77 105.61,78.68 105.46,78.62" fill="currentColor" stroke="currentColor" stroke-width="1.2" stroke-linecap="round" stroke-linejoin="round" />
  <path d="M104.38,78.62 C104.21,78.68 104.05,78.75 103.92,78.82" fill="currentColor" stroke="currentColor" stroke-width="1.2" stroke-linecap="round" stroke-linejoin="round" />
  <path d="M103.26,78.89 C103.25,78.84 103.24,78.77 103.24,78.70" fill="currentColor" stroke="currentColor" stroke-width="1.2" stroke-linecap="round" stroke-linejoin="round" />
  <line x1="99.53" y1="84.03" x2="99.53" y2="78.74" fill="currentColor" stroke="currentColor" stroke-width="1.2" stroke-linecap="round" stroke-linejoin="round" />
  <line x1="99.53" y1="78.74" x2="98.19" y2="79.54" fill="currentColor" stroke="currentColor" stroke-width="1.2" stroke-linecap="round" stroke-linejoin="round" />
  <path d="M103.92,78.82 C103.79,78.89 103.68,78.96 103.60,79.02" fill="currentColor" stroke="currentColor" stroke-width="1.2" stroke-linecap="round" stroke-linejoin="round" />
  <path d="M107.03,78.82 C107.11,79.04 107.15,79.27 107.15,79.52" fill="currentColor" stroke="currentColor" stroke-width="1.2" stroke-linecap="round" stroke-linejoin="round" />
  <path d="M97.94,78.92 C97.96,78.90 97.99,78.88 98.02,78.86" fill="currentColor" stroke="currentColor" stroke-width="1.2" stroke-linecap="round" stroke-linejoin="round" />
  <path d="M106.04,79.23 C105.99,79.09 105.91,78.97 105.82,78.87" fill="currentColor" stroke="currentColor" stroke-width="1.2" stroke-linecap="round" stroke-linejoin="round" />
  <path d="M103.28,79.02 C103.27,78.99 103.26,78.95 103.26,78.89" fill="currentColor" stroke="currentColor" stroke-width="1.2" stroke-linecap="round" stroke-linejoin="round" />
  <path d="M97.90,79.00 C97.90,78.97 97.92,78.95 97.94,78.92" fill="currentColor" stroke="currentColor" stroke-width="1.2" stroke-linecap="round" stroke-linejoin="round" />
  <path d="M97.87,79.11 C97.88,79.06 97.88,79.03 97.90,79.00" fill="currentColor" stroke="currentColor" stroke-width="1.2" stroke-linecap="round" stroke-linejoin="round" />
  <path d="M103.60,79.02 C103.51,79.08 103.44,79.11 103.40,79.11" fill="currentColor" stroke="currentColor" stroke-width="1.2" stroke-linecap="round" stroke-linejoin="round" />
  <path d="M103.33,79.09 C103.31,79.08 103.30,79.05 103.28,79.02" fill="currentColor" stroke="currentColor" stroke-width="1.2" stroke-linecap="round" stroke-linejoin="round" />
  <path d="M103.40,79.11 C103.38,79.11 103.35,79.10 103.33,79.09" fill="currentColor" stroke="currentColor" stroke-width="1.2" stroke-linecap="round" stroke-linejoin="round" />
  <path d="M97.86,79.26 C97.86,79.20 97.86,79.15 97.87,79.11" fill="currentColor" stroke="currentColor" stroke-width="1.2" stroke-linecap="round" stroke-linejoin="round" />
  <path d="M106.11,79.67 C106.11,79.52 106.09,79.37 106.04,79.23" fill="currentColor" stroke="currentColor" stroke-width="1.2" stroke-linecap="round" stroke-linejoin="round" />
  <path d="M97.88,79.47 C97.87,79.41 97.86,79.34 97.86,79.26" fill="currentColor" stroke="currentColor" stroke-width="1.2" stroke-linecap="round" stroke-linejoin="round" />
  <path d="M97.93,79.58 C97.90,79.56 97.88,79.52 97.88,79.47" fill="currentColor" stroke="currentColor" stroke-width="1.2" stroke-linecap="round" stroke-linejoin="round" />
  <path d="M107.15,79.52 C107.15,79.74 107.13,79.96 107.09,80.18" fill="currentColor" stroke="currentColor" stroke-width="1.2" stroke-linecap="round" stroke-linejoin="round" />
  <path d="M98.19,79.54 C98.12,79.58 98.07,79.60 98.03,79.61" fill="currentColor" stroke="currentColor" stroke-width="1.2" stroke-linecap="round" stroke-linejoin="round" />
  <path d="M98.03,79.61 C97.99,79.61 97.95,79.61 97.93,79.58" fill="currentColor" stroke="currentColor" stroke-width="1.2" stroke-linecap="round" stroke-linejoin="round" />
  <path d="M106.06,80.16 C106.10,79.99 106.11,79.82 106.11,79.67" fill="currentColor" stroke="currentColor" stroke-width="1.2" stroke-linecap="round" stroke-linejoin="round" />
  <path d="M105.86,80.75 C105.96,80.54 106.03,80.34 106.06,80.16" fill="currentColor" stroke="currentColor" stroke-width="1.2" stroke-linecap="round" stroke-linejoin="round" />
  <path d="M107.09,80.18 C107.05,80.40 106.97,80.64 106.84,80.90" fill="currentColor" stroke="currentColor" stroke-width="1.2" stroke-linecap="round" stroke-linejoin="round" />
  <path d="M105.43,81.46 C105.62,81.20 105.76,80.96 105.86,80.75" fill="currentColor" stroke="currentColor" stroke-width="1.2" stroke-linecap="round" stroke-linejoin="round" />
  <path d="M106.84,80.90 C106.71,81.15 106.53,81.44 106.29,81.75" fill="currentColor" stroke="currentColor" stroke-width="1.2" stroke-linecap="round" stroke-linejoin="round" />
  <path d="M104.68,82.35 C104.99,82.02 105.24,81.73 105.43,81.46" fill="currentColor" stroke="currentColor" stroke-width="1.2" stroke-linecap="round" stroke-linejoin="round" />
  <path d="M106.29,81.75 C106.05,82.07 105.73,82.43 105.33,82.83" fill="currentColor" stroke="currentColor" stroke-width="1.2" stroke-linecap="round" stroke-linejoin="round" />
  <line x1="103.33" y1="83.78" x2="104.68" y2="82.35" fill="currentColor" stroke="currentColor" stroke-width="1.2" stroke-linecap="round" stroke-linejoin="round" />
  <line x1="105.33" y1="82.83" x2="104.23" y2="83.98" fill="currentColor" stroke="currentColor" stroke-width="1.2" stroke-linecap="round" stroke-linejoin="round" />
  <path d="M103.23,83.91 C103.25,83.87 103.29,83.83 103.33,83.78" fill="currentColor" stroke="currentColor" stroke-width="1.2" stroke-linecap="round" stroke-linejoin="round" />
  <path d="M103.16,84.03 C103.18,83.99 103.20,83.95 103.23,83.91" fill="currentColor" stroke="currentColor" stroke-width="1.2" stroke-linecap="round" stroke-linejoin="round" />
  <line x1="104.23" y1="83.98" x2="107.26" y2="83.98" fill="currentColor" stroke="currentColor" stroke-width="1.2" stroke-linecap="round" stroke-linejoin="round" />
  <path d="M107.26,83.98 C107.29,83.98 107.31,83.99 107.34,84.01" fill="currentColor" stroke="currentColor" stroke-width="1.2" stroke-linecap="round" stroke-linejoin="round" />
  <path d="M107.34,84.01 C107.37,84.02 107.39,84.05 107.41,84.08" fill="currentColor" stroke="currentColor" stroke-width="1.2" stroke-linecap="round" stroke-linejoin="round" />
  <path d="M98.01,84.05 C98.03,84.03 98.05,84.03 98.08,84.03" fill="currentColor" stroke="currentColor" stroke-width="1.2" stroke-linecap="round" stroke-linejoin="round" />
  <line x1="98.08" y1="84.03" x2="99.53" y2="84.03" fill="currentColor" stroke="currentColor" stroke-width="1.2" stroke-linecap="round" stroke-linejoin="round" />
  <line x1="100.46" y1="84.03" x2="101.71" y2="84.03" fill="currentColor" stroke="currentColor" stroke-width="1.2" stroke-linecap="round" stroke-linejoin="round" />
  <path d="M101.71,84.03 C101.74,84.03 101.77,84.03 101.79,84.05" fill="currentColor" stroke="currentColor" stroke-width="1.2" stroke-linecap="round" stroke-linejoin="round" />
  <path d="M103.12,84.18 C103.13,84.12 103.14,84.08 103.16,84.03" fill="currentColor" stroke="currentColor" stroke-width="1.2" stroke-linecap="round" stroke-linejoin="round" />
  <path d="M97.95,84.12 C97.96,84.09 97.98,84.07 98.01,84.05" fill="currentColor" stroke="currentColor" stroke-width="1.2" stroke-linecap="round" stroke-linejoin="round" />
  <path d="M101.79,84.05 C101.82,84.07 101.84,84.09 101.86,84.12" fill="currentColor" stroke="currentColor" stroke-width="1.2" stroke-linecap="round" stroke-linejoin="round" />
  <path d="M107.41,84.08 C107.43,84.11 107.44,84.15 107.45,84.20" fill="currentColor" stroke="currentColor" stroke-width="1.2" stroke-linecap="round" stroke-linejoin="round" />
  <path d="M97.90,84.24 C97.92,84.19 97.93,84.15 97.95,84.12" fill="currentColor" stroke="currentColor" stroke-width="1.2" stroke-linecap="round" stroke-linejoin="round" />
  <path d="M101.86,84.12 C101.87,84.15 101.88,84.19 101.89,84.24" fill="currentColor" stroke="currentColor" stroke-width="1.2" stroke-linecap="round" stroke-linejoin="round" />
  <path d="M103.12,84.36 C103.12,84.29 103.12,84.23 103.12,84.18" fill="currentColor" stroke="currentColor" stroke-width="1.2" stroke-linecap="round" stroke-linejoin="round" />
  <path d="M107.45,84.20 C107.46,84.25 107.47,84.31 107.47,84.37" fill="currentColor" stroke="currentColor" stroke-width="1.2" stroke-linecap="round" stroke-linejoin="round" />
  <path d="M97.89,84.40 C97.89,84.34 97.90,84.28 97.90,84.24" fill="currentColor" stroke="currentColor" stroke-width="1.2" stroke-linecap="round" stroke-linejoin="round" />
  <path d="M101.89,84.24 C101.90,84.28 101.91,84.34 101.91,84.40" fill="currentColor" stroke="currentColor" stroke-width="1.2" stroke-linecap="round" stroke-linejoin="round" />
  <path d="M103.13,84.56 C103.12,84.51 103.12,84.44 103.12,84.36" fill="currentColor" stroke="currentColor" stroke-width="1.2" stroke-linecap="round" stroke-linejoin="round" />
  <path d="M107.47,84.37 C107.47,84.43 107.46,84.49 107.45,84.54" fill="currentColor" stroke="currentColor" stroke-width="1.2" stroke-linecap="round" stroke-linejoin="round" />
  <path d="M101.91,84.40 C101.91,84.47 101.90,84.53 101.89,84.57" fill="currentColor" stroke="currentColor" stroke-width="1.2" stroke-linecap="round" stroke-linejoin="round" />
  <path d="M97.90,84.57 C97.90,84.53 97.89,84.47 97.89,84.40" fill="currentColor" stroke="currentColor" stroke-width="1.2" stroke-linecap="round" stroke-linejoin="round" />
  <path d="M107.45,84.54 C107.44,84.59 107.43,84.63 107.42,84.67" fill="currentColor" stroke="currentColor" stroke-width="1.2" stroke-linecap="round" stroke-linejoin="round" />
  <path d="M103.19,84.69 C103.17,84.66 103.15,84.62 103.13,84.56" fill="currentColor" stroke="currentColor" stroke-width="1.2" stroke-linecap="round" stroke-linejoin="round" />
  <path d="M101.89,84.57 C101.88,84.62 101.87,84.66 101.85,84.69" fill="currentColor" stroke="currentColor" stroke-width="1.2" stroke-linecap="round" stroke-linejoin="round" />
  <path d="M97.95,84.69 C97.93,84.66 97.92,84.62 97.90,84.57" fill="currentColor" stroke="currentColor" stroke-width="1.2" stroke-linecap="round" stroke-linejoin="round" />
  <path d="M107.42,84.67 C107.40,84.70 107.38,84.73 107.35,84.74" fill="currentColor" stroke="currentColor" stroke-width="1.2" stroke-linecap="round" stroke-linejoin="round" />
  <path d="M101.85,84.69 C101.83,84.71 101.81,84.74 101.79,84.75" fill="currentColor" stroke="currentColor" stroke-width="1.2" stroke-linecap="round" stroke-linejoin="round" />
  <path d="M98.01,84.75 C97.99,84.74 97.97,84.71 97.95,84.69" fill="currentColor" stroke="currentColor" stroke-width="1.2" stroke-linecap="round" stroke-linejoin="round" />
  <path d="M103.29,84.75 C103.25,84.74 103.22,84.72 103.19,84.69" fill="currentColor" stroke="currentColor" stroke-width="1.2" stroke-linecap="round" stroke-linejoin="round" />
  <path d="M107.35,84.74 C107.32,84.76 107.29,84.77 107.26,84.77" fill="currentColor" stroke="currentColor" stroke-width="1.2" stroke-linecap="round" stroke-linejoin="round" />
  <path d="M101.79,84.75 C101.76,84.76 101.74,84.77 101.71,84.77" fill="currentColor" stroke="currentColor" stroke-width="1.2" stroke-linecap="round" stroke-linejoin="round" />
  <path d="M98.08,84.77 C98.06,84.77 98.03,84.76 98.01,84.75" fill="currentColor" stroke="currentColor" stroke-width="1.2" stroke-linecap="round" stroke-linejoin="round" />
  <path d="M103.42,84.77 C103.37,84.77 103.33,84.76 103.29,84.75" fill="currentColor" stroke="currentColor" stroke-width="1.2" stroke-linecap="round" stroke-linejoin="round" />
  <line x1="101.71" y1="84.77" x2="98.08" y2="84.77" fill="currentColor" stroke="currentColor" stroke-width="1.2" stroke-linecap="round" stroke-linejoin="round" />
  <line x1="107.26" y1="84.77" x2="103.42" y2="84.77" fill="currentColor" stroke="currentColor" stroke-width="1.2" stroke-linecap="round" stroke-linejoin="round" />
  <line x1="16.90" y1="128.47" x2="183.77" y2="128.47" fill="none" stroke="currentColor" stroke-width="1.4000000476837158" stroke-linecap="round" stroke-linejoin="round" />
  <path d="M10.71,131.89 C10.78,131.88 10.87,131.88 10.97,131.88" fill="currentColor" stroke="currentColor" stroke-width="1.2" stroke-linecap="round" stroke-linejoin="round" />
  <path d="M10.97,131.88 C11.09,131.88 11.18,131.88 11.26,131.89" fill="currentColor" stroke="currentColor" stroke-width="1.2" stroke-linecap="round" stroke-linejoin="round" />
  <path d="M10.54,131.91 C10.58,131.90 10.64,131.89 10.71,131.89" fill="currentColor" stroke="currentColor" stroke-width="1.2" stroke-linecap="round" stroke-linejoin="round" />
  <path d="M11.26,131.89 C11.33,131.89 11.39,131.90 11.44,131.91" fill="currentColor" stroke="currentColor" stroke-width="1.2" stroke-linecap="round" stroke-linejoin="round" />
  <path d="M10.43,131.97 C10.46,131.95 10.49,131.93 10.54,131.91" fill="currentColor" stroke="currentColor" stroke-width="1.2" stroke-linecap="round" stroke-linejoin="round" />
  <path d="M11.44,131.91 C11.49,131.93 11.52,131.95 11.55,131.98" fill="currentColor" stroke="currentColor" stroke-width="1.2" stroke-linecap="round" stroke-linejoin="round" />
  <path d="M10.38,132.07 C10.39,132.03 10.41,132.00 10.43,131.97" fill="currentColor" stroke="currentColor" stroke-width="1.2" stroke-linecap="round" stroke-linejoin="round" />
  <path d="M11.55,131.98 C11.57,132.00 11.59,132.04 11.61,132.08" fill="currentColor" stroke="currentColor" stroke-width="1.2" stroke-linecap="round" stroke-linejoin="round" />
  <line x1="8.05" y1="138.53" x2="10.38" y2="132.07" fill="currentColor" stroke="currentColor" stroke-width="1.2" stroke-linecap="round" stroke-linejoin="round" />
  <line x1="11.61" y1="132.08" x2="13.94" y2="138.53" fill="currentColor" stroke="currentColor" stroke-width="1.2" stroke-linecap="round" stroke-linejoin="round" />
  <line x1="10.95" y1="132.83" x2="10.94" y2="132.83" fill="currentColor" stroke="currentColor" stroke-width="1.2" stroke-linecap="round" stroke-linejoin="round" />
  <line x1="10.94" y1="132.83" x2="9.74" y2="136.30" fill="currentColor" stroke="currentColor" stroke-width="1.2" stroke-linecap="round" stroke-linejoin="round" />
  <line x1="12.16" y1="136.30" x2="10.95" y2="132.83" fill="currentColor" stroke="currentColor" stroke-width="1.2" stroke-linecap="round" stroke-linejoin="round" />
  <line x1="9.74" y1="136.30" x2="12.16" y2="136.30" fill="currentColor" stroke="currentColor" stroke-width="1.2" stroke-linecap="round" stroke-linejoin="round" />
  <line x1="13.00" y1="138.73" x2="12.40" y2="137.03" fill="currentColor" stroke="currentColor" stroke-width="1.2" stroke-linecap="round" stroke-linejoin="round" />
  <line x1="12.40" y1="137.03" x2="9.51" y2="137.03" fill="currentColor" stroke="currentColor" stroke-width="1.2" stroke-linecap="round" stroke-linejoin="round" />
  <line x1="9.51" y1="137.03" x2="8.94" y2="138.70" fill="currentColor" stroke="currentColor" stroke-width="1.2" stroke-linecap="round" stroke-linejoin="round" />
  <path d="M8.00,138.72 C8.00,138.67 8.02,138.61 8.05,138.53" fill="currentColor" stroke="currentColor" stroke-width="1.2" stroke-linecap="round" stroke-linejoin="round" />
  <path d="M13.94,138.53 C13.97,138.61 13.98,138.67 13.99,138.72" fill="currentColor" stroke="currentColor" stroke-width="1.2" stroke-linecap="round" stroke-linejoin="round" />
  <path d="M8.94,138.70 C8.93,138.74 8.92,138.76 8.90,138.79" fill="currentColor" stroke="currentColor" stroke-width="1.2" stroke-linecap="round" stroke-linejoin="round" />
  <path d="M8.04,138.83 C8.01,138.80 8.00,138.77 8.00,138.72" fill="currentColor" stroke="currentColor" stroke-width="1.2" stroke-linecap="round" stroke-linejoin="round" />
  <path d="M13.99,138.72 C13.99,138.77 13.97,138.81 13.94,138.83" fill="currentColor" stroke="currentColor" stroke-width="1.2" stroke-linecap="round" stroke-linejoin="round" />
  <path d="M13.04,138.81 C13.03,138.78 13.01,138.76 13.00,138.73" fill="currentColor" stroke="currentColor" stroke-width="1.2" stroke-linecap="round" stroke-linejoin="round" />
  <path d="M8.90,138.79 C8.88,138.81 8.86,138.83 8.82,138.85" fill="currentColor" stroke="currentColor" stroke-width="1.2" stroke-linecap="round" stroke-linejoin="round" />
  <path d="M13.12,138.86 C13.09,138.84 13.06,138.83 13.04,138.81" fill="currentColor" stroke="currentColor" stroke-width="1.2" stroke-linecap="round" stroke-linejoin="round" />
  <path d="M8.18,138.88 C8.11,138.87 8.07,138.85 8.04,138.83" fill="currentColor" stroke="currentColor" stroke-width="1.2" stroke-linecap="round" stroke-linejoin="round" />
  <path d="M13.94,138.83 C13.92,138.86 13.87,138.87 13.80,138.88" fill="currentColor" stroke="currentColor" stroke-width="1.2" stroke-linecap="round" stroke-linejoin="round" />
  <path d="M8.82,138.85 C8.79,138.86 8.74,138.87 8.68,138.88" fill="currentColor" stroke="currentColor" stroke-width="1.2" stroke-linecap="round" stroke-linejoin="round" />
  <path d="M13.27,138.88 C13.20,138.88 13.15,138.87 13.12,138.86" fill="currentColor" stroke="currentColor" stroke-width="1.2" stroke-linecap="round" stroke-linejoin="round" />
  <path d="M8.43,138.89 C8.33,138.89 8.24,138.89 8.18,138.88" fill="currentColor" stroke="currentColor" stroke-width="1.2" stroke-linecap="round" stroke-linejoin="round" />
  <path d="M13.80,138.88 C13.74,138.89 13.65,138.89 13.54,138.89" fill="currentColor" stroke="currentColor" stroke-width="1.2" stroke-linecap="round" stroke-linejoin="round" />
  <path d="M8.68,138.88 C8.62,138.89 8.53,138.89 8.43,138.89" fill="currentColor" stroke="currentColor" stroke-width="1.2" stroke-linecap="round" stroke-linejoin="round" />
  <path d="M13.54,138.89 C13.42,138.89 13.34,138.89 13.27,138.88" fill="currentColor" stroke="currentColor" stroke-width="1.2" stroke-linecap="round" stroke-linejoin="round" />
</svg>