<svg xmlns="http://www.w3.org/2000/svg" viewBox="0 0 279.21 68.19" preserveAspectRatio="xMidYMid meet" shape-rendering="geometricPrecision" text-rendering="optimizeLegibility">
  <rect x="16.46" y="13.16" width="86.72" height="37.73" fill="none" stroke="currentColor" stroke-width="1.4000000476837158" stroke-linecap="round" stroke-linejoin="round" />
  <rect x="16.46" y="43.81" width="7.08" height="7.08" fill="none" stroke="currentColor" stroke-width="1.000000011920929" stroke-linecap="round" stroke-linejoin="round" />
  <rect x="16.46" y="13.16" width="7.08" height="7.08" fill="none" stroke="currentColor" stroke-width="1.000000011920929" stroke-linecap="round" stroke-linejoin="round" />
  <rect x="96.10" y="13.16" width="7.08" height="7.08" fill="none" stroke="currentColor" stroke-width="1.000000011920929" stroke-linecap="round" stroke-linejoin="round" />
  <rect x="96.10" y="43.81" width="7.08" height="7.08" fill="none" stroke="currentColor" stroke-width="1.000000011920929" stroke-linecap="round" stroke-linejoin="round" />
  <path d="M59.18,58.11C59.18,58.42 59.13,58.71 59.02,58.97C58.91,59.22 58.75,59.44 58.54,59.63C58.33,59.81 58.08,59.95 57.77,60.05C57.47,60.15 57.12,60.19 56.74,60.19C56.51,60.19 56.29,60.18 56.09,60.14C55.89,60.10 55.71,60.06 55.55,60.00C55.39,59.95 55.26,59.90 55.16,59.84C55.05,59.79 54.99,59.75 54.96,59.72C54.93,59.70 54.91,59.67 54.90,59.65C54.88,59.62 54.87,59.59 54.86,59.56C54.85,59.52 54.84,59.48 54.84,59.42C54.83,59.37 54.83,59.31 54.83,59.23C54.83,59.10 54.84,59.01 54.87,58.96C54.89,58.91 54.93,58.89 54.97,58.89C55.01,58.89 55.07,58.92 55.16,58.98C55.26,59.03 55.38,59.09 55.53,59.16C55.68,59.23 55.85,59.29 56.05,59.35C56.25,59.40 56.47,59.43 56.71,59.43C56.95,59.43 57.16,59.40 57.34,59.34C57.52,59.28 57.67,59.19 57.79,59.08C57.91,58.97 58.00,58.84 58.06,58.69C58.12,58.54 58.15,58.37 58.15,58.19C58.15,57.99 58.11,57.82 58.04,57.66C57.96,57.50 57.85,57.37 57.70,57.25C57.55,57.14 57.37,57.05 57.15,56.99C56.93,56.93 56.69,56.90 56.41,56.90L55.75,56.90C55.72,56.90 55.70,56.89 55.67,56.88C55.64,56.87 55.62,56.85 55.60,56.82C55.58,56.79 55.56,56.75 55.55,56.70C55.54,56.66 55.53,56.60 55.53,56.52C55.53,56.45 55.54,56.40 55.55,56.35C55.56,56.31 55.57,56.27 55.59,56.24C55.61,56.22 55.64,56.20 55.66,56.19C55.69,56.17 55.71,56.17 55.75,56.17L56.35,56.17C56.59,56.17 56.80,56.14 56.99,56.08C57.18,56.01 57.34,55.93 57.47,55.81C57.60,55.70 57.70,55.56 57.77,55.40C57.84,55.24 57.87,55.06 57.87,54.87C57.87,54.72 57.85,54.59 57.80,54.46C57.76,54.33 57.69,54.21 57.59,54.11C57.50,54.02 57.38,53.94 57.24,53.89C57.09,53.83 56.93,53.80 56.74,53.80C56.53,53.80 56.34,53.83 56.16,53.90C55.99,53.96 55.83,54.03 55.70,54.10C55.56,54.17 55.45,54.24 55.36,54.30C55.27,54.36 55.21,54.39 55.17,54.39C55.15,54.39 55.13,54.39 55.11,54.38C55.09,54.37 55.07,54.35 55.06,54.33C55.04,54.30 55.04,54.26 55.03,54.21C55.02,54.17 55.02,54.10 55.02,54.02C55.02,53.97 55.02,53.92 55.03,53.88C55.03,53.84 55.04,53.80 55.05,53.77C55.06,53.74 55.07,53.72 55.09,53.69C55.10,53.67 55.13,53.64 55.16,53.60C55.19,53.57 55.26,53.52 55.37,53.45C55.47,53.39 55.60,53.33 55.75,53.26C55.90,53.20 56.08,53.15 56.28,53.11C56.47,53.06 56.69,53.04 56.92,53.04C57.24,53.04 57.52,53.08 57.77,53.16C58.01,53.25 58.21,53.36 58.38,53.51C58.54,53.66 58.66,53.84 58.74,54.05C58.82,54.26 58.86,54.49 58.86,54.75C58.86,54.97 58.83,55.17 58.78,55.36C58.72,55.55 58.63,55.71 58.52,55.86C58.41,56.00 58.28,56.13 58.12,56.23C57.95,56.33 57.77,56.40 57.56,56.44L57.56,56.45C57.80,56.48 58.02,56.54 58.22,56.63C58.41,56.73 58.58,56.85 58.73,56.99C58.87,57.13 58.98,57.30 59.06,57.49C59.14,57.68 59.18,57.89 59.18,58.11Z" fill="currentColor" stroke="currentColor" stroke-width="1.2" stroke-linejoin="round" />
  <path d="M62.84,57.49L63.89,59.86C63.92,59.91 63.92,59.95 63.92,59.98C63.91,60.02 63.89,60.04 63.85,60.07C63.81,60.09 63.76,60.10 63.69,60.11C63.62,60.12 63.53,60.12 63.42,60.12C63.32,60.12 63.24,60.12 63.18,60.12C63.12,60.11 63.08,60.10 63.05,60.09C63.01,60.08 62.99,60.06 62.98,60.04C62.97,60.02 62.96,60.00 62.95,59.97L62.14,58.07L60.62,59.97C60.60,60.00 60.58,60.02 60.56,60.04C60.53,60.06 60.50,60.08 60.46,60.09C60.41,60.10 60.36,60.11 60.29,60.11C60.23,60.12 60.14,60.12 60.03,60.12C59.93,60.12 59.85,60.12 59.78,60.11C59.72,60.10 59.67,60.09 59.64,60.07C59.61,60.04 59.60,60.02 59.60,59.99C59.61,59.95 59.63,59.91 59.66,59.86L61.67,57.48L60.68,55.22C60.66,55.17 60.65,55.13 60.65,55.09C60.65,55.06 60.67,55.03 60.71,55.01C60.74,54.99 60.79,54.98 60.86,54.97C60.93,54.96 61.02,54.96 61.13,54.96C61.23,54.96 61.31,54.96 61.36,54.97C61.42,54.97 61.47,54.98 61.50,54.99C61.53,55.00 61.55,55.02 61.56,55.03C61.57,55.05 61.58,55.07 61.60,55.10L62.36,56.90L63.81,55.10C63.83,55.08 63.86,55.06 63.88,55.04C63.90,55.02 63.93,55.01 63.97,54.99C64.01,54.98 64.06,54.97 64.12,54.97C64.18,54.96 64.25,54.96 64.35,54.96C64.46,54.96 64.55,54.96 64.61,54.97C64.68,54.98 64.73,54.99 64.76,55.01C64.80,55.02 64.81,55.05 64.81,55.08C64.80,55.12 64.77,55.16 64.73,55.21L62.84,57.49Z" fill="currentColor" stroke="currentColor" stroke-width="1.2" stroke-linejoin="round" />
  <path d="M11.25,31.97L12.30,34.34C12.32,34.39 12.33,34.43 12.32,34.46C12.32,34.50 12.30,34.53 12.26,34.55C12.22,34.57 12.16,34.58 12.09,34.59C12.02,34.60 11.93,34.61 11.82,34.61C11.72,34.61 11.64,34.60 11.58,34.60C11.53,34.59 11.48,34.58 11.45,34.57C11.42,34.56 11.40,34.54 11.39,34.52C11.38,34.50 11.36,34.48 11.35,34.46L10.55,32.55L9.03,34.46C9.01,34.48 8.98,34.50 8.96,34.52C8.94,34.54 8.90,34.56 8.86,34.57C8.82,34.58 8.76,34.59 8.70,34.60C8.63,34.60 8.54,34.61 8.44,34.61C8.33,34.61 8.25,34.60 8.19,34.59C8.12,34.58 8.07,34.57 8.04,34.55C8.01,34.53 8.00,34.50 8.01,34.47C8.01,34.43 8.03,34.39 8.07,34.34L10.08,31.96L9.08,29.70C9.06,29.65 9.05,29.61 9.06,29.58C9.06,29.54 9.08,29.52 9.11,29.49C9.15,29.47 9.20,29.46 9.26,29.45C9.33,29.44 9.42,29.44 9.53,29.44C9.63,29.44 9.71,29.44 9.77,29.45C9.83,29.45 9.87,29.46 9.90,29.47C9.93,29.48 9.95,29.50 9.97,29.52C9.98,29.53 9.99,29.55 10.00,29.58L10.77,31.38L12.22,29.58C12.24,29.56 12.26,29.54 12.28,29.52C12.31,29.50 12.33,29.49 12.37,29.47C12.41,29.46 12.46,29.45 12.52,29.45C12.58,29.44 12.66,29.44 12.76,29.44C12.86,29.44 12.95,29.44 13.02,29.45C13.09,29.46 13.14,29.47 13.17,29.49C13.20,29.51 13.22,29.53 13.21,29.57C13.20,29.60 13.18,29.64 13.13,29.69L11.25,31.97Z" fill="currentColor" stroke="currentColor" stroke-width="1.2" stroke-linejoin="round" />
  <line x1="159.04" y1="50.89" x2="249.28" y2="50.89" fill="none" stroke="currentColor" stroke-width="1.4000000476837158" stroke-linecap="round" stroke-linejoin="round" />
  <line x1="249.28" y1="50.89" x2="267.32" y2="8.00" fill="none" stroke="currentColor" stroke-width="1.4000000476837158" stroke-linecap="round" stroke-linejoin="round" />
  <line x1="267.32" y1="8.00" x2="159.04" y2="50.89" fill="none" stroke="currentColor" stroke-width="1.4000000476837158" stroke-linecap="round" stroke-linejoin="round" />
  <path d="M210.66,58.11C210.66,58.42 210.61,58.71 210.50,58.97C210.39,59.22 210.23,59.44 210.02,59.63C209.81,59.81 209.55,59.95 209.25,60.05C208.95,60.15 208.60,60.19 208.22,60.19C207.99,60.19 207.77,60.18 207.57,60.14C207.36,60.10 207.18,60.06 207.03,60.00C206.87,59.95 206.74,59.90 206.63,59.84C206.53,59.79 206.47,59.75 206.44,59.72C206.41,59.70 206.39,59.67 206.38,59.65C206.36,59.62 206.35,59.59 206.34,59.56C206.33,59.52 206.32,59.48 206.31,59.42C206.31,59.37 206.31,59.31 206.31,59.23C206.31,59.10 206.32,59.01 206.34,58.96C206.37,58.91 206.41,58.89 206.45,58.89C206.48,58.89 206.55,58.92 206.64,58.98C206.74,59.03 206.86,59.09 207.01,59.16C207.16,59.23 207.33,59.29 207.53,59.35C207.73,59.40 207.95,59.43 208.19,59.43C208.43,59.43 208.64,59.40 208.81,59.34C208.99,59.28 209.14,59.19 209.27,59.08C209.39,58.97 209.48,58.84 209.54,58.69C209.60,58.54 209.63,58.37 209.63,58.19C209.63,57.99 209.59,57.82 209.52,57.66C209.44,57.50 209.33,57.37 209.18,57.25C209.03,57.14 208.85,57.05 208.63,56.99C208.41,56.93 208.17,56.90 207.89,56.90L207.23,56.90C207.20,56.90 207.17,56.89 207.15,56.88C207.12,56.87 207.10,56.85 207.08,56.82C207.06,56.79 207.04,56.75 207.03,56.70C207.02,56.66 207.01,56.60 207.01,56.52C207.01,56.45 207.02,56.40 207.03,56.35C207.04,56.31 207.05,56.27 207.07,56.24C207.09,56.22 207.11,56.20 207.14,56.19C207.16,56.17 207.19,56.17 207.23,56.17L207.83,56.17C208.07,56.17 208.28,56.14 208.47,56.08C208.66,56.01 208.82,55.93 208.95,55.81C209.08,55.70 209.18,55.56 209.25,55.40C209.32,55.24 209.35,55.06 209.35,54.87C209.35,54.72 209.33,54.59 209.28,54.46C209.24,54.33 209.17,54.21 209.07,54.11C208.98,54.02 208.86,53.94 208.72,53.89C208.57,53.83 208.40,53.80 208.21,53.80C208.01,53.80 207.81,53.83 207.64,53.90C207.47,53.96 207.31,54.03 207.18,54.10C207.04,54.17 206.93,54.24 206.84,54.30C206.75,54.36 206.69,54.39 206.65,54.39C206.63,54.39 206.60,54.39 206.58,54.38C206.56,54.37 206.55,54.35 206.53,54.33C206.52,54.30 206.51,54.26 206.51,54.21C206.50,54.17 206.50,54.10 206.50,54.02C206.50,53.97 206.50,53.92 206.51,53.88C206.51,53.84 206.52,53.80 206.53,53.77C206.54,53.74 206.55,53.72 206.56,53.69C206.58,53.67 206.60,53.64 206.64,53.60C206.67,53.57 206.74,53.52 206.84,53.45C206.95,53.39 207.08,53.33 207.23,53.26C207.38,53.20 207.56,53.15 207.75,53.11C207.95,53.06 208.17,53.04 208.40,53.04C208.72,53.04 209.00,53.08 209.24,53.16C209.49,53.25 209.69,53.36 209.85,53.51C210.02,53.66 210.14,53.84 210.22,54.05C210.30,54.26 210.34,54.49 210.34,54.75C210.34,54.97 210.31,55.17 210.25,55.36C210.20,55.55 210.11,55.71 210.00,55.86C209.89,56.00 209.75,56.13 209.59,56.23C209.43,56.33 209.25,56.40 209.04,56.44L209.04,56.45C209.28,56.48 209.49,56.54 209.69,56.63C209.89,56.73 210.06,56.85 210.21,56.99C210.35,57.13 210.46,57.30 210.54,57.49C210.62,57.68 210.66,57.89 210.66,58.11Z" fill="currentColor" stroke="currentColor" stroke-width="1.2" stroke-linejoin="round" />
  <path d="M214.32,57.49L215.37,59.86C215.39,59.91 215.40,59.95 215.40,59.98C215.39,60.02 215.37,60.04 215.33,60.07C215.29,60.09 215.23,60.10 215.16,60.11C215.10,60.12 215.00,60.12 214.89,60.12C214.79,60.12 214.71,60.12 214.66,60.12C214.60,60.11 214.56,60.10 214.52,60.09C214.49,60.08 214.47,60.06 214.46,60.04C214.45,60.02 214.44,60.00 214.43,59.97L213.62,58.07L212.10,59.97C212.08,60.00 212.06,60.02 212.03,60.04C212.01,60.06 211.98,60.08 211.93,60.09C211.89,60.10 211.84,60.11 211.77,60.11C211.70,60.12 211.62,60.12 211.51,60.12C211.41,60.12 211.32,60.12 211.26,60.11C211.19,60.10 211.15,60.09 211.12,60.07C211.08,60.04 211.07,60.02 211.08,59.99C211.08,59.95 211.10,59.91 211.14,59.86L213.15,57.48L212.15,55.22C212.13,55.17 212.12,55.13 212.13,55.09C212.13,55.06 212.15,55.03 212.18,55.01C212.22,54.99 212.27,54.98 212.34,54.97C212.41,54.96 212.49,54.96 212.61,54.96C212.71,54.96 212.78,54.96 212.84,54.97C212.90,54.97 212.94,54.98 212.97,54.99C213.00,55.00 213.03,55.02 213.04,55.03C213.05,55.05 213.06,55.07 213.07,55.10L213.84,56.90L215.29,55.10C215.31,55.08 215.33,55.06 215.36,55.04C215.38,55.02 215.41,55.01 215.45,54.99C215.49,54.98 215.54,54.97 215.59,54.97C215.65,54.96 215.73,54.96 215.83,54.96C215.94,54.96 216.02,54.96 216.09,54.97C216.16,54.98 216.21,54.99 216.24,55.01C216.27,55.02 216.29,55.05 216.28,55.08C216.28,55.12 216.25,55.16 216.20,55.21L214.32,57.49Z" fill="currentColor" stroke="currentColor" stroke-width="1.2" stroke-linejoin="round" />
  <path d="M265.64,36.09C265.64,36.16 265.64,36.22 265.63,36.27C265.62,36.32 265.61,36.36 265.59,36.39C265.57,36.43 265.55,36.45 265.52,36.47C265.50,36.48 265.47,36.49 265.44,36.49L261.60,36.49C261.55,36.49 261.50,36.49 261.46,36.47C261.43,36.46 261.39,36.44 261.37,36.41C261.34,36.38 261.32,36.34 261.31,36.29C261.30,36.23 261.29,36.17 261.29,36.09C261.29,36.02 261.29,35.96 261.30,35.90C261.30,35.85 261.31,35.80 261.33,35.76C261.35,35.72 261.37,35.68 261.40,35.64C261.43,35.59 261.46,35.55 261.50,35.50L262.85,34.08C263.16,33.75 263.41,33.45 263.60,33.19C263.79,32.93 263.93,32.69 264.04,32.47C264.14,32.26 264.21,32.07 264.24,31.89C264.27,31.71 264.29,31.55 264.29,31.40C264.29,31.24 264.26,31.10 264.21,30.96C264.16,30.82 264.09,30.70 263.99,30.60C263.90,30.49 263.78,30.41 263.64,30.35C263.49,30.29 263.33,30.26 263.14,30.26C262.92,30.26 262.73,30.29 262.55,30.35C262.38,30.41 262.23,30.47 262.10,30.55C261.97,30.62 261.86,30.68 261.77,30.75C261.68,30.81 261.62,30.84 261.57,30.84C261.55,30.84 261.53,30.83 261.51,30.82C261.49,30.80 261.47,30.78 261.46,30.75C261.45,30.71 261.44,30.67 261.43,30.62C261.42,30.56 261.42,30.50 261.42,30.42C261.42,30.37 261.42,30.32 261.42,30.28C261.43,30.24 261.43,30.21 261.44,30.18C261.45,30.15 261.46,30.13 261.48,30.10C261.49,30.08 261.52,30.04 261.56,30.01C261.61,29.97 261.68,29.92 261.79,29.85C261.89,29.79 262.02,29.73 262.18,29.66C262.34,29.60 262.52,29.55 262.71,29.51C262.90,29.46 263.10,29.44 263.31,29.44C263.65,29.44 263.95,29.49 264.20,29.58C264.45,29.68 264.66,29.81 264.83,29.97C264.99,30.14 265.12,30.33 265.20,30.55C265.28,30.76 265.32,31.00 265.32,31.25C265.32,31.47 265.30,31.69 265.26,31.91C265.22,32.13 265.14,32.37 265.01,32.62C264.89,32.88 264.70,33.16 264.46,33.48C264.22,33.79 263.91,34.15 263.51,34.56L262.41,35.71L265.43,35.71C265.46,35.71 265.49,35.72 265.51,35.73C265.54,35.75 265.56,35.77 265.58,35.81C265.60,35.84 265.62,35.88 265.63,35.93C265.64,35.97 265.64,36.03 265.64,36.09Z" fill="currentColor" stroke="currentColor" stroke-width="1.2" stroke-linejoin="round" />
  <path d="M269.24,33.89L270.30,36.26C270.32,36.31 270.33,36.35 270.32,36.38C270.32,36.42 270.29,36.44 270.25,36.47C270.21,36.49 270.16,36.50 270.09,36.51C270.02,36.52 269.93,36.52 269.82,36.52C269.72,36.52 269.64,36.52 269.58,36.52C269.53,36.51 269.48,36.50 269.45,36.49C269.41,36.48 269.39,36.46 269.38,36.44C269.37,36.42 269.36,36.40 269.35,36.37L268.54,34.47L267.03,36.37C267.00,36.40 266.98,36.42 266.96,36.44C266.94,36.46 266.90,36.48 266.86,36.49C266.82,36.50 266.76,36.51 266.69,36.51C266.63,36.52 266.54,36.52 266.44,36.52C266.33,36.52 266.25,36.52 266.18,36.51C266.12,36.50 266.07,36.49 266.04,36.47C266.01,36.44 266.00,36.42 266.00,36.39C266.01,36.35 266.03,36.31 266.06,36.26L268.07,33.88L267.08,31.62C267.06,31.57 267.05,31.53 267.05,31.49C267.06,31.46 267.07,31.43 267.11,31.41C267.14,31.39 267.19,31.38 267.26,31.37C267.33,31.36 267.42,31.36 267.53,31.36C267.63,31.36 267.71,31.36 267.77,31.37C267.82,31.37 267.87,31.38 267.90,31.39C267.93,31.40 267.95,31.42 267.96,31.43C267.97,31.45 267.99,31.47 268.00,31.50L268.77,33.30L270.22,31.50C270.24,31.48 270.26,31.46 270.28,31.44C270.30,31.42 270.33,31.41 270.37,31.39C270.41,31.38 270.46,31.37 270.52,31.37C270.58,31.36 270.66,31.36 270.75,31.36C270.86,31.36 270.95,31.36 271.02,31.37C271.08,31.38 271.13,31.39 271.17,31.41C271.20,31.42 271.21,31.45 271.21,31.48C271.20,31.52 271.17,31.56 271.13,31.61L269.24,33.89Z" fill="currentColor" stroke="currentColor" stroke-width="1.2" stroke-linejoin="round" />
  <path d="M206.17,25.24C206.17,25.36 206.15,25.45 206.12,25.52C206.08,25.59 206.03,25.62 205.97,25.62L205.18,25.62L205.18,27.08C205.18,27.11 205.18,27.14 205.16,27.15C205.15,27.17 205.12,27.19 205.09,27.21C205.05,27.22 205.00,27.23 204.95,27.24C204.89,27.25 204.82,27.25 204.73,27.25C204.64,27.25 204.57,27.25 204.51,27.24C204.45,27.23 204.41,27.22 204.37,27.21C204.34,27.19 204.32,27.17 204.30,27.15C204.29,27.14 204.29,27.11 204.29,27.08L204.29,25.62L201.42,25.62C201.37,25.62 201.34,25.62 201.31,25.61C201.28,25.60 201.26,25.57 201.23,25.55C201.21,25.52 201.19,25.48 201.18,25.42C201.17,25.37 201.17,25.30 201.17,25.21C201.17,25.15 201.17,25.08 201.18,25.03C201.18,24.98 201.19,24.93 201.20,24.88C201.21,24.84 201.22,24.80 201.24,24.75C201.26,24.71 201.28,24.67 201.30,24.62L203.81,20.40C203.83,20.37 203.85,20.35 203.89,20.33C203.92,20.31 203.96,20.29 204.02,20.27C204.07,20.26 204.14,20.25 204.22,20.24C204.29,20.24 204.39,20.24 204.49,20.24C204.61,20.24 204.72,20.24 204.80,20.25C204.89,20.26 204.96,20.27 205.02,20.28C205.07,20.30 205.11,20.32 205.14,20.34C205.17,20.36 205.18,20.39 205.18,20.42L205.18,24.86L205.97,24.86C206.03,24.86 206.08,24.89 206.11,24.95C206.15,25.02 206.17,25.11 206.17,25.24ZM204.29,21.05L204.27,21.05L202.01,24.86L204.29,24.86L204.29,21.05Z" fill="currentColor" stroke="currentColor" stroke-width="1.2" stroke-linejoin="round" />
  <path d="M209.48,24.62L210.53,26.98C210.55,27.03 210.56,27.07 210.55,27.11C210.55,27.14 210.53,27.17 210.49,27.19C210.45,27.21 210.39,27.23 210.32,27.24C210.25,27.25 210.16,27.25 210.05,27.25C209.95,27.25 209.87,27.25 209.82,27.24C209.76,27.24 209.71,27.23 209.68,27.21C209.65,27.20 209.63,27.19 209.62,27.17C209.61,27.15 209.60,27.12 209.59,27.10L208.78,25.19L207.26,27.10C207.24,27.12 207.22,27.15 207.19,27.17C207.17,27.19 207.14,27.20 207.09,27.21C207.05,27.22 207.00,27.23 206.93,27.24C206.86,27.25 206.78,27.25 206.67,27.25C206.57,27.25 206.48,27.25 206.42,27.24C206.35,27.23 206.30,27.21 206.27,27.19C206.24,27.17 206.23,27.14 206.24,27.11C206.24,27.08 206.26,27.04 206.30,26.99L208.31,24.60L207.31,22.35C207.29,22.30 207.28,22.25 207.29,22.22C207.29,22.19 207.31,22.16 207.34,22.14C207.38,22.12 207.43,22.10 207.50,22.09C207.56,22.09 207.65,22.08 207.76,22.08C207.86,22.08 207.94,22.09 208.00,22.09C208.06,22.10 208.10,22.10 208.13,22.12C208.16,22.13 208.18,22.14 208.20,22.16C208.21,22.18 208.22,22.20 208.23,22.22L209.00,24.03L210.45,22.22C210.47,22.20 210.49,22.18 210.51,22.16C210.54,22.15 210.57,22.13 210.61,22.12C210.65,22.11 210.69,22.10 210.75,22.09C210.81,22.09 210.89,22.08 210.99,22.08C211.09,22.08 211.18,22.09 211.25,22.09C211.32,22.10 211.37,22.11 211.40,22.13C211.43,22.15 211.45,22.18 211.44,22.21C211.44,22.24 211.41,22.29 211.36,22.34L209.48,24.62Z" fill="currentColor" stroke="currentColor" stroke-width="1.2" stroke-linejoin="round" />
</svg>