<svg xmlns="http://www.w3.org/2000/svg" viewBox="0 0 249.16 109.13" preserveAspectRatio="xMidYMid meet" shape-rendering="geometricPrecision" text-rendering="optimizeLegibility">
  <line x1="50.47" y1="29.50" x2="50.47" y2="101.13" fill="none" stroke="currentColor" stroke-width="1.4000000476837158" stroke-linecap="round" stroke-linejoin="round" />
  <line x1="50.47" y1="101.13" x2="241.16" y2="101.13" fill="none" stroke="currentColor" stroke-width="1.4000000476837158" stroke-linecap="round" stroke-linejoin="round" />
  <line x1="191.94" y1="101.13" x2="8.00" y2="8.00" fill="none" stroke="currentColor" stroke-width="1.4000000476837158" stroke-linecap="round" stroke-linejoin="round" />
  <rect x="50.46" y="91.76" width="9.37" height="9.37" fill="none" stroke="currentColor" stroke-width="1.0" stroke-linecap="round" stroke-linejoin="round" />
  <path d="M183.19,96.69 C184.81,93.50 188.12,91.32 191.94,91.32" fill="none" stroke="currentColor" stroke-width="1.0" stroke-linecap="round" stroke-linejoin="round" />
  <path d="M191.94,91.32 C197.35,91.32 201.75,95.71 201.75,101.13" fill="none" stroke="currentColor" stroke-width="1.0" stroke-linecap="round" stroke-linejoin="round" />
  <path d="M50.47,39.31 C45.05,39.31 40.66,34.91 40.66,29.50" fill="none" stroke="currentColor" stroke-width="1.0" stroke-linecap="round" stroke-linejoin="round" />
  <path d="M40.66,29.50 C40.66,27.90 41.04,26.40 41.71,25.06" fill="none" stroke="currentColor" stroke-width="1.0" stroke-linecap="round" stroke-linejoin="round" />
  <path d="M39.32,34.13L38.17,34.13L36.88,35.79L36.10,34.13L35.10,34.13L36.26,36.45L34.11,39.07L35.25,39.07L36.68,37.22L37.58,39.07L38.58,39.07L37.33,36.57L39.32,34.13Z" fill="currentColor" stroke="currentColor" stroke-width="1.2" stroke-linejoin="round" />
  <path d="M200.73,82.65L199.75,82.65L198.20,86.05L198.18,86.05L197.52,82.65L196.58,82.65L197.54,87.29L196.20,90.12L197.19,90.12L200.73,82.65Z" fill="currentColor" stroke="currentColor" stroke-width="1.2" stroke-linejoin="round" />
</svg>