<svg xmlns="http://www.w3.org/2000/svg" viewBox="0 0 205.43 87.61" preserveAspectRatio="xMidYMid meet" shape-rendering="geometricPrecision" text-rendering="optimizeLegibility">
  <line x1="169.29" y1="79.61" x2="197.43" y2="8.00" fill="none" stroke="currentColor" stroke-width="1.2" stroke-linecap="round" stroke-linejoin="round" />
  <line x1="197.43" y1="8.00" x2="8.00" y2="79.61" fill="none" stroke="currentColor" stroke-width="1.2" stroke-linecap="round" stroke-linejoin="round" />
  <line x1="8.00" y1="79.61" x2="169.29" y2="79.61" fill="none" stroke="currentColor" stroke-width="1.2" stroke-linecap="round" stroke-linejoin="round" />
  <path d="M159.16,79.61 C159.16,74.02 163.70,69.48 169.29,69.48" fill="none" stroke="currentColor" stroke-width="1.0" stroke-linecap="round" stroke-linejoin="round" />
  <path d="M169.29,69.48 C170.60,69.48 171.84,69.73 172.99,70.18" fill="none" stroke="currentColor" stroke-width="1.0" stroke-linecap="round" stroke-linejoin="round" />
  <path d="M193.74,17.43 C191.08,16.39 188.96,14.25 187.95,11.57" fill="none" stroke="currentColor" stroke-width="1.0" stroke-linecap="round" stroke-linejoin="round" />
  <path d="M151.13,73.54C151.57,73.26 151.97,72.94 152.34,72.56C152.71,72.18 153.03,71.77 153.29,71.33C153.56,70.89 153.77,70.43 153.92,69.96C154.06,69.50 154.14,69.03 154.14,68.58C154.14,68.18 154.08,67.82 153.96,67.48C153.85,67.15 153.68,66.86 153.47,66.62C153.25,66.37 153.00,66.18 152.71,66.04C152.42,65.91 152.10,65.84 151.75,65.84C151.41,65.84 151.09,65.90 150.81,66.03C150.53,66.15 150.29,66.32 150.09,66.53C149.89,66.74 149.74,66.98 149.63,67.24C149.53,67.51 149.47,67.78 149.47,68.06C149.47,68.47 149.57,68.84 149.76,69.17C149.94,69.50 150.19,69.76 150.51,69.95C150.83,70.14 151.19,70.24 151.59,70.25C151.79,70.25 151.99,70.22 152.20,70.16C152.40,70.11 152.59,70.03 152.76,69.93C152.68,70.25 152.55,70.57 152.35,70.90C152.15,71.22 151.89,71.54 151.58,71.86C151.26,72.17 150.89,72.47 150.47,72.74L151.13,73.54ZM150.55,68.05C150.55,67.82 150.60,67.61 150.71,67.43C150.81,67.25 150.96,67.12 151.14,67.01C151.32,66.91 151.54,66.86 151.78,66.86C152.01,66.86 152.22,66.93 152.41,67.05C152.60,67.17 152.75,67.34 152.86,67.54C152.97,67.74 153.03,67.97 153.03,68.21C153.03,68.30 153.03,68.39 153.02,68.49C153.02,68.58 153.00,68.69 152.98,68.82C152.77,68.96 152.57,69.06 152.37,69.13C152.16,69.19 151.98,69.23 151.82,69.22C151.58,69.22 151.37,69.17 151.18,69.06C150.99,68.96 150.83,68.82 150.72,68.64C150.61,68.46 150.55,68.27 150.55,68.05Z" fill="currentColor" stroke="currentColor" stroke-width="1.2" stroke-linejoin="round" />
  <path d="M159.96,65.94L155.11,65.94L155.11,66.96L158.36,66.96L155.61,73.12L156.56,73.54L159.96,65.94Z" fill="currentColor" stroke="currentColor" stroke-width="1.2" stroke-linejoin="round" />
  <path d="M162.24,66.01C162.41,66.01 162.56,66.05 162.70,66.13C162.84,66.21 162.95,66.32 163.03,66.46C163.11,66.59 163.15,66.74 163.15,66.91C163.15,67.08 163.11,67.24 163.03,67.38C162.95,67.51 162.84,67.62 162.70,67.70C162.56,67.78 162.41,67.83 162.24,67.83C162.07,67.83 161.91,67.78 161.78,67.70C161.65,67.62 161.54,67.51 161.46,67.38C161.38,67.24 161.34,67.08 161.34,66.91C161.34,66.74 161.38,66.59 161.46,66.46C161.54,66.32 161.65,66.21 161.78,66.13C161.91,66.05 162.07,66.01 162.24,66.01ZM162.24,65.43C161.96,65.43 161.71,65.50 161.49,65.63C161.26,65.76 161.09,65.94 160.96,66.16C160.82,66.39 160.76,66.64 160.75,66.91C160.76,67.19 160.82,67.44 160.96,67.67C161.09,67.89 161.26,68.07 161.49,68.20C161.71,68.33 161.96,68.40 162.24,68.40C162.52,68.40 162.77,68.33 162.99,68.20C163.21,68.07 163.39,67.89 163.52,67.67C163.65,67.44 163.72,67.19 163.72,66.91C163.72,66.64 163.65,66.39 163.52,66.16C163.39,65.94 163.21,65.76 162.99,65.63C162.77,65.50 162.52,65.43 162.24,65.43Z" fill="currentColor" stroke="currentColor" stroke-width="1.2" stroke-linejoin="round" />
  <path d="M187.95,18.23L186.80,18.23L185.51,19.89L184.73,18.23L183.73,18.23L184.89,20.55L182.74,23.17L183.88,23.17L185.31,21.32L186.21,23.17L187.22,23.17L185.96,20.67L187.95,18.23Z" fill="currentColor" stroke="currentColor" stroke-width="1.2" stroke-linejoin="round" />
</svg>