<svg xmlns="http://www.w3.org/2000/svg" viewBox="0 0 180.55 120.76" preserveAspectRatio="xMidYMid meet" shape-rendering="geometricPrecision" text-rendering="optimizeLegibility">
  <path d="M170.52,8.07 C170.23,8.02 169.94,8.00 169.66,8.00" fill="currentColor" stroke="currentColor" stroke-width="1.2" stroke-linecap="round" stroke-linejoin="round" />
  <path d="M169.66,8.00 C169.01,8.00 168.41,8.11 167.86,8.32" fill="currentColor" stroke="currentColor" stroke-width="1.2" stroke-linecap="round" stroke-linejoin="round" />
  <path d="M171.43,8.29 C171.11,8.19 170.80,8.12 170.52,8.07" fill="currentColor" stroke="currentColor" stroke-width="1.2" stroke-linecap="round" stroke-linejoin="round" />
  <line x1="11.65" y1="8.22" x2="8.47" y2="8.22" fill="currentColor" stroke="currentColor" stroke-width="1.2" stroke-linecap="round" stroke-linejoin="round" />
  <path d="M13.26,8.46 C12.79,8.30 12.25,8.22 11.65,8.22" fill="currentColor" stroke="currentColor" stroke-width="1.2" stroke-linecap="round" stroke-linejoin="round" />
  <path d="M172.47,8.67 C172.10,8.52 171.75,8.39 171.43,8.29" fill="currentColor" stroke="currentColor" stroke-width="1.2" stroke-linecap="round" stroke-linejoin="round" />
  <path d="M167.86,8.32 C167.32,8.54 166.84,8.84 166.44,9.23" fill="currentColor" stroke="currentColor" stroke-width="1.2" stroke-linecap="round" stroke-linejoin="round" />
  <path d="M14.49,9.10 C14.15,8.83 13.74,8.61 13.26,8.46" fill="currentColor" stroke="currentColor" stroke-width="1.2" stroke-linecap="round" stroke-linejoin="round" />
  <path d="M169.65,9.08 C170.12,9.08 170.58,9.15 171.04,9.29" fill="currentColor" stroke="currentColor" stroke-width="1.2" stroke-linecap="round" stroke-linejoin="round" />
  <path d="M168.35,9.32 C168.75,9.16 169.18,9.09 169.65,9.08" fill="currentColor" stroke="currentColor" stroke-width="1.2" stroke-linecap="round" stroke-linejoin="round" />
  <line x1="9.64" y1="9.27" x2="11.45" y2="9.27" fill="currentColor" stroke="currentColor" stroke-width="1.2" stroke-linecap="round" stroke-linejoin="round" />
  <path d="M11.45,9.27 C12.03,9.27 12.52,9.36 12.94,9.52" fill="currentColor" stroke="currentColor" stroke-width="1.2" stroke-linecap="round" stroke-linejoin="round" />
  <path d="M15.34,10.03 C15.12,9.68 14.83,9.38 14.49,9.10" fill="currentColor" stroke="currentColor" stroke-width="1.2" stroke-linecap="round" stroke-linejoin="round" />
  <path d="M171.04,9.29 C171.49,9.43 171.97,9.64 172.47,9.93" fill="currentColor" stroke="currentColor" stroke-width="1.2" stroke-linecap="round" stroke-linejoin="round" />
  <path d="M167.32,9.97 C167.61,9.69 167.95,9.47 168.35,9.32" fill="currentColor" stroke="currentColor" stroke-width="1.2" stroke-linecap="round" stroke-linejoin="round" />
  <path d="M12.94,9.52 C13.36,9.68 13.71,9.90 13.99,10.17" fill="currentColor" stroke="currentColor" stroke-width="1.2" stroke-linecap="round" stroke-linejoin="round" />
  <path d="M166.44,9.23 C166.04,9.61 165.73,10.07 165.51,10.59" fill="currentColor" stroke="currentColor" stroke-width="1.2" stroke-linecap="round" stroke-linejoin="round" />
  <path d="M166.63,10.97 C166.80,10.59 167.02,10.25 167.32,9.97" fill="currentColor" stroke="currentColor" stroke-width="1.2" stroke-linecap="round" stroke-linejoin="round" />
  <path d="M15.84,11.14 C15.74,10.75 15.57,10.38 15.34,10.03" fill="currentColor" stroke="currentColor" stroke-width="1.2" stroke-linecap="round" stroke-linejoin="round" />
  <path d="M13.99,10.17 C14.26,10.45 14.46,10.77 14.59,11.14" fill="currentColor" stroke="currentColor" stroke-width="1.2" stroke-linecap="round" stroke-linejoin="round" />
  <path d="M165.51,10.59 C165.29,11.12 165.18,11.70 165.18,12.32" fill="currentColor" stroke="currentColor" stroke-width="1.2" stroke-linecap="round" stroke-linejoin="round" />
  <path d="M166.39,12.22 C166.39,11.76 166.47,11.34 166.63,10.97" fill="currentColor" stroke="currentColor" stroke-width="1.2" stroke-linecap="round" stroke-linejoin="round" />
  <path d="M16.00,12.31 C16.01,11.92 15.95,11.53 15.84,11.14" fill="currentColor" stroke="currentColor" stroke-width="1.2" stroke-linecap="round" stroke-linejoin="round" />
  <path d="M14.59,11.14 C14.73,11.50 14.79,11.90 14.79,12.31" fill="currentColor" stroke="currentColor" stroke-width="1.2" stroke-linecap="round" stroke-linejoin="round" />
  <line x1="8.47" y1="8.22" x2="8.47" y2="16.40" fill="currentColor" stroke="currentColor" stroke-width="1.2" stroke-linecap="round" stroke-linejoin="round" />
  <path d="M14.79,12.31 C14.79,12.52 14.77,12.75 14.71,13.01" fill="currentColor" stroke="currentColor" stroke-width="1.2" stroke-linecap="round" stroke-linejoin="round" />
  <path d="M165.18,12.32 C165.17,12.67 165.23,13.03 165.34,13.40" fill="currentColor" stroke="currentColor" stroke-width="1.2" stroke-linecap="round" stroke-linejoin="round" />
  <path d="M15.81,13.54 C15.94,13.14 16.00,12.73 16.00,12.31" fill="currentColor" stroke="currentColor" stroke-width="1.2" stroke-linecap="round" stroke-linejoin="round" />
  <path d="M166.81,13.84 C166.53,13.37 166.39,12.83 166.39,12.22" fill="currentColor" stroke="currentColor" stroke-width="1.2" stroke-linecap="round" stroke-linejoin="round" />
  <path d="M14.71,13.01 C14.65,13.27 14.55,13.54 14.41,13.81" fill="currentColor" stroke="currentColor" stroke-width="1.2" stroke-linecap="round" stroke-linejoin="round" />
  <path d="M165.34,13.40 C165.45,13.78 165.62,14.15 165.84,14.50" fill="currentColor" stroke="currentColor" stroke-width="1.2" stroke-linecap="round" stroke-linejoin="round" />
  <path d="M15.25,14.66 C15.50,14.31 15.68,13.94 15.81,13.54" fill="currentColor" stroke="currentColor" stroke-width="1.2" stroke-linecap="round" stroke-linejoin="round" />
  <path d="M14.41,13.81 C14.27,14.09 14.07,14.34 13.82,14.57" fill="currentColor" stroke="currentColor" stroke-width="1.2" stroke-linecap="round" stroke-linejoin="round" />
  <path d="M167.96,14.92 C167.47,14.66 167.09,14.30 166.81,13.84" fill="currentColor" stroke="currentColor" stroke-width="1.2" stroke-linecap="round" stroke-linejoin="round" />
  <path d="M172.55,14.40 C172.09,14.70 171.61,14.93 171.12,15.08" fill="currentColor" stroke="currentColor" stroke-width="1.2" stroke-linecap="round" stroke-linejoin="round" />
  <path d="M13.82,14.57 C13.57,14.80 13.26,14.98 12.88,15.12" fill="currentColor" stroke="currentColor" stroke-width="1.2" stroke-linecap="round" stroke-linejoin="round" />
  <path d="M165.84,14.50 C166.07,14.85 166.36,15.17 166.71,15.46" fill="currentColor" stroke="currentColor" stroke-width="1.2" stroke-linecap="round" stroke-linejoin="round" />
  <line x1="172.55" y1="15.68" x2="172.55" y2="14.40" fill="currentColor" stroke="currentColor" stroke-width="1.2" stroke-linecap="round" stroke-linejoin="round" />
  <path d="M14.36,15.57 C14.71,15.30 15.01,15.00 15.25,14.66" fill="currentColor" stroke="currentColor" stroke-width="1.2" stroke-linecap="round" stroke-linejoin="round" />
  <path d="M169.70,15.32 C169.04,15.32 168.46,15.18 167.96,14.92" fill="currentColor" stroke="currentColor" stroke-width="1.2" stroke-linecap="round" stroke-linejoin="round" />
  <path d="M171.12,15.08 C170.64,15.24 170.16,15.32 169.70,15.32" fill="currentColor" stroke="currentColor" stroke-width="1.2" stroke-linecap="round" stroke-linejoin="round" />
  <path d="M12.88,15.12 C12.50,15.27 12.05,15.34 11.52,15.34" fill="currentColor" stroke="currentColor" stroke-width="1.2" stroke-linecap="round" stroke-linejoin="round" />
  <line x1="11.52" y1="15.34" x2="9.64" y2="15.34" fill="currentColor" stroke="currentColor" stroke-width="1.2" stroke-linecap="round" stroke-linejoin="round" />
  <path d="M166.71,15.46 C167.06,15.74 167.47,15.97 167.95,16.14" fill="currentColor" stroke="currentColor" stroke-width="1.2" stroke-linecap="round" stroke-linejoin="round" />
  <path d="M171.71,16.05 C172.01,15.95 172.29,15.82 172.55,15.68" fill="currentColor" stroke="currentColor" stroke-width="1.2" stroke-linecap="round" stroke-linejoin="round" />
  <path d="M13.15,16.18 C13.60,16.03 14.00,15.82 14.36,15.57" fill="currentColor" stroke="currentColor" stroke-width="1.2" stroke-linecap="round" stroke-linejoin="round" />
  <path d="M170.75,16.31 C171.10,16.25 171.42,16.16 171.71,16.05" fill="currentColor" stroke="currentColor" stroke-width="1.2" stroke-linecap="round" stroke-linejoin="round" />
  <path d="M167.95,16.14 C168.43,16.31 168.98,16.40 169.59,16.40" fill="currentColor" stroke="currentColor" stroke-width="1.2" stroke-linecap="round" stroke-linejoin="round" />
  <path d="M11.66,16.40 C12.20,16.40 12.69,16.32 13.15,16.18" fill="currentColor" stroke="currentColor" stroke-width="1.2" stroke-linecap="round" stroke-linejoin="round" />
  <path d="M169.59,16.40 C170.02,16.40 170.40,16.37 170.75,16.31" fill="currentColor" stroke="currentColor" stroke-width="1.2" stroke-linecap="round" stroke-linejoin="round" />
  <line x1="8.47" y1="16.40" x2="11.66" y2="16.40" fill="currentColor" stroke="currentColor" stroke-width="1.2" stroke-linecap="round" stroke-linejoin="round" />
  <line x1="18.55" y1="103.20" x2="161.03" y2="19.38" fill="none" stroke="currentColor" stroke-width="1.4000000476837158" stroke-linecap="round" stroke-linejoin="round" />
  <rect x="18.55" y="19.38" width="142.47" height="84.14" fill="none" stroke="currentColor" stroke-width="1.6" stroke-linecap="round" stroke-linejoin="round" />
  <path d="M94.47,63.10 C94.09,63.10 93.75,63.17 93.44,63.30" fill="currentColor" stroke="currentColor" stroke-width="1.2" stroke-linecap="round" stroke-linejoin="round" />
  <path d="M95.52,63.32 C95.20,63.18 94.85,63.10 94.47,63.10" fill="currentColor" stroke="currentColor" stroke-width="1.2" stroke-linecap="round" stroke-linejoin="round" />
  <path d="M93.44,63.30 C93.14,63.44 92.88,63.62 92.66,63.86" fill="currentColor" stroke="currentColor" stroke-width="1.2" stroke-linecap="round" stroke-linejoin="round" />
  <path d="M96.34,63.95 C96.11,63.68 95.84,63.47 95.52,63.32" fill="currentColor" stroke="currentColor" stroke-width="1.2" stroke-linecap="round" stroke-linejoin="round" />
  <path d="M92.66,63.86 C92.44,64.09 92.27,64.34 92.16,64.63" fill="currentColor" stroke="currentColor" stroke-width="1.2" stroke-linecap="round" stroke-linejoin="round" />
  <path d="M93.80,64.38 C94.00,64.27 94.24,64.22 94.50,64.22" fill="currentColor" stroke="currentColor" stroke-width="1.2" stroke-linecap="round" stroke-linejoin="round" />
  <path d="M94.50,64.22 C94.75,64.22 94.99,64.28 95.19,64.42" fill="currentColor" stroke="currentColor" stroke-width="1.2" stroke-linecap="round" stroke-linejoin="round" />
  <path d="M96.88,64.90 C96.75,64.53 96.57,64.22 96.34,63.95" fill="currentColor" stroke="currentColor" stroke-width="1.2" stroke-linecap="round" stroke-linejoin="round" />
  <path d="M93.33,64.84 C93.44,64.65 93.60,64.49 93.80,64.38" fill="currentColor" stroke="currentColor" stroke-width="1.2" stroke-linecap="round" stroke-linejoin="round" />
  <path d="M95.19,64.42 C95.40,64.55 95.56,64.73 95.68,64.96" fill="currentColor" stroke="currentColor" stroke-width="1.2" stroke-linecap="round" stroke-linejoin="round" />
  <path d="M92.16,64.63 C92.04,64.92 91.98,65.22 91.98,65.52" fill="currentColor" stroke="currentColor" stroke-width="1.2" stroke-linecap="round" stroke-linejoin="round" />
  <path d="M93.15,65.51 C93.16,65.25 93.21,65.03 93.33,64.84" fill="currentColor" stroke="currentColor" stroke-width="1.2" stroke-linecap="round" stroke-linejoin="round" />
  <path d="M95.68,64.96 C95.80,65.18 95.86,65.42 95.86,65.69" fill="currentColor" stroke="currentColor" stroke-width="1.2" stroke-linecap="round" stroke-linejoin="round" />
  <path d="M97.08,66.09 C97.07,65.65 97.01,65.26 96.88,64.90" fill="currentColor" stroke="currentColor" stroke-width="1.2" stroke-linecap="round" stroke-linejoin="round" />
  <path d="M93.34,66.16 C93.22,65.97 93.16,65.75 93.15,65.51" fill="currentColor" stroke="currentColor" stroke-width="1.2" stroke-linecap="round" stroke-linejoin="round" />
  <path d="M95.86,65.69 C95.87,65.79 95.86,65.89 95.86,65.99" fill="currentColor" stroke="currentColor" stroke-width="1.2" stroke-linecap="round" stroke-linejoin="round" />
  <path d="M104.61,65.94 C104.43,65.91 104.24,65.90 104.04,65.90" fill="currentColor" stroke="currentColor" stroke-width="1.2" stroke-linecap="round" stroke-linejoin="round" />
  <path d="M112.89,65.90 C112.64,65.90 112.40,65.94 112.19,66.03" fill="currentColor" stroke="currentColor" stroke-width="1.2" stroke-linecap="round" stroke-linejoin="round" />
  <path d="M109.49,65.90 C109.23,65.89 108.98,65.96 108.71,66.09" fill="currentColor" stroke="currentColor" stroke-width="1.2" stroke-linecap="round" stroke-linejoin="round" />
  <path d="M105.10,66.07 C104.94,66.01 104.78,65.97 104.61,65.94" fill="currentColor" stroke="currentColor" stroke-width="1.2" stroke-linecap="round" stroke-linejoin="round" />
  <path d="M110.41,66.14 C110.14,65.98 109.82,65.90 109.49,65.90" fill="currentColor" stroke="currentColor" stroke-width="1.2" stroke-linecap="round" stroke-linejoin="round" />
  <path d="M113.84,66.16 C113.57,65.98 113.26,65.90 112.89,65.90" fill="currentColor" stroke="currentColor" stroke-width="1.2" stroke-linecap="round" stroke-linejoin="round" />
  <path d="M104.04,65.90 C103.49,65.90 103.02,66.02 102.62,66.25" fill="currentColor" stroke="currentColor" stroke-width="1.2" stroke-linecap="round" stroke-linejoin="round" />
  <path d="M91.98,65.52 C91.99,65.97 92.09,66.38 92.29,66.73" fill="currentColor" stroke="currentColor" stroke-width="1.2" stroke-linecap="round" stroke-linejoin="round" />
  <path d="M105.60,66.27 C105.43,66.19 105.26,66.12 105.10,66.07" fill="currentColor" stroke="currentColor" stroke-width="1.2" stroke-linecap="round" stroke-linejoin="round" />
  <path d="M95.86,65.99 C95.85,66.09 95.83,66.21 95.80,66.35" fill="currentColor" stroke="currentColor" stroke-width="1.2" stroke-linecap="round" stroke-linejoin="round" />
  <path d="M112.19,66.03 C111.97,66.11 111.77,66.23 111.59,66.38" fill="currentColor" stroke="currentColor" stroke-width="1.2" stroke-linecap="round" stroke-linejoin="round" />
  <line x1="107.91" y1="66.71" x2="107.91" y2="66.00" fill="currentColor" stroke="currentColor" stroke-width="1.2" stroke-linecap="round" stroke-linejoin="round" />
  <path d="M93.84,66.62 C93.64,66.50 93.47,66.35 93.34,66.16" fill="currentColor" stroke="currentColor" stroke-width="1.2" stroke-linecap="round" stroke-linejoin="round" />
  <path d="M108.71,66.09 C108.45,66.23 108.19,66.43 107.91,66.71" fill="currentColor" stroke="currentColor" stroke-width="1.2" stroke-linecap="round" stroke-linejoin="round" />
  <path d="M111.09,66.86 C110.91,66.55 110.68,66.30 110.41,66.14" fill="currentColor" stroke="currentColor" stroke-width="1.2" stroke-linecap="round" stroke-linejoin="round" />
  <path d="M95.80,66.35 C95.58,66.50 95.36,66.62 95.14,66.69" fill="currentColor" stroke="currentColor" stroke-width="1.2" stroke-linecap="round" stroke-linejoin="round" />
  <path d="M114.46,66.89 C114.31,66.57 114.11,66.33 113.84,66.16" fill="currentColor" stroke="currentColor" stroke-width="1.2" stroke-linecap="round" stroke-linejoin="round" />
  <path d="M111.59,66.38 C111.41,66.52 111.25,66.69 111.09,66.86" fill="currentColor" stroke="currentColor" stroke-width="1.2" stroke-linecap="round" stroke-linejoin="round" />
  <path d="M94.55,66.79 C94.29,66.79 94.05,66.73 93.84,66.62" fill="currentColor" stroke="currentColor" stroke-width="1.2" stroke-linecap="round" stroke-linejoin="round" />
  <path d="M95.14,66.69 C94.92,66.76 94.72,66.79 94.55,66.79" fill="currentColor" stroke="currentColor" stroke-width="1.2" stroke-linecap="round" stroke-linejoin="round" />
  <path d="M102.62,66.25 C102.22,66.49 101.92,66.82 101.70,67.25" fill="currentColor" stroke="currentColor" stroke-width="1.2" stroke-linecap="round" stroke-linejoin="round" />
  <path d="M108.77,66.86 C108.91,66.81 109.07,66.79 109.25,66.79" fill="currentColor" stroke="currentColor" stroke-width="1.2" stroke-linecap="round" stroke-linejoin="round" />
  <path d="M96.83,67.60 C96.99,67.09 97.07,66.58 97.08,66.09" fill="currentColor" stroke="currentColor" stroke-width="1.2" stroke-linecap="round" stroke-linejoin="round" />
  <path d="M109.25,66.79 C109.43,66.79 109.59,66.84 109.74,66.92" fill="currentColor" stroke="currentColor" stroke-width="1.2" stroke-linecap="round" stroke-linejoin="round" />
  <path d="M112.50,66.79 C112.70,66.79 112.89,66.84 113.05,66.94" fill="currentColor" stroke="currentColor" stroke-width="1.2" stroke-linecap="round" stroke-linejoin="round" />
  <path d="M111.91,66.98 C112.12,66.86 112.32,66.79 112.50,66.79" fill="currentColor" stroke="currentColor" stroke-width="1.2" stroke-linecap="round" stroke-linejoin="round" />
  <path d="M104.11,66.88 C104.26,66.88 104.41,66.89 104.57,66.92" fill="currentColor" stroke="currentColor" stroke-width="1.2" stroke-linecap="round" stroke-linejoin="round" />
  <path d="M108.34,67.07 C108.47,66.97 108.62,66.90 108.77,66.86" fill="currentColor" stroke="currentColor" stroke-width="1.2" stroke-linecap="round" stroke-linejoin="round" />
  <path d="M103.25,67.11 C103.50,66.96 103.78,66.88 104.11,66.88" fill="currentColor" stroke="currentColor" stroke-width="1.2" stroke-linecap="round" stroke-linejoin="round" />
  <path d="M104.57,66.92 C104.72,66.96 104.88,67.01 105.04,67.09" fill="currentColor" stroke="currentColor" stroke-width="1.2" stroke-linecap="round" stroke-linejoin="round" />
  <path d="M109.74,66.92 C109.89,67.01 110.00,67.15 110.09,67.33" fill="currentColor" stroke="currentColor" stroke-width="1.2" stroke-linecap="round" stroke-linejoin="round" />
  <path d="M113.05,66.94 C113.22,67.03 113.36,67.18 113.46,67.36" fill="currentColor" stroke="currentColor" stroke-width="1.2" stroke-linecap="round" stroke-linejoin="round" />
  <path d="M92.29,66.73 C92.50,67.09 92.77,67.38 93.12,67.59" fill="currentColor" stroke="currentColor" stroke-width="1.2" stroke-linecap="round" stroke-linejoin="round" />
  <path d="M111.30,67.48 C111.49,67.27 111.69,67.11 111.91,66.98" fill="currentColor" stroke="currentColor" stroke-width="1.2" stroke-linecap="round" stroke-linejoin="round" />
  <path d="M105.04,67.09 C105.21,67.16 105.40,67.27 105.60,67.40" fill="currentColor" stroke="currentColor" stroke-width="1.2" stroke-linecap="round" stroke-linejoin="round" />
  <path d="M107.91,67.48 C108.06,67.30 108.20,67.17 108.34,67.07" fill="currentColor" stroke="currentColor" stroke-width="1.2" stroke-linecap="round" stroke-linejoin="round" />
  <path d="M102.68,67.74 C102.81,67.47 103.00,67.26 103.25,67.11" fill="currentColor" stroke="currentColor" stroke-width="1.2" stroke-linecap="round" stroke-linejoin="round" />
  <path d="M114.68,68.00 C114.68,67.58 114.60,67.21 114.46,66.89" fill="currentColor" stroke="currentColor" stroke-width="1.2" stroke-linecap="round" stroke-linejoin="round" />
  <path d="M110.09,67.33 C110.18,67.51 110.22,67.75 110.23,68.04" fill="currentColor" stroke="currentColor" stroke-width="1.2" stroke-linecap="round" stroke-linejoin="round" />
  <path d="M94.96,67.82 C95.18,67.75 95.38,67.67 95.57,67.56" fill="currentColor" stroke="currentColor" stroke-width="1.2" stroke-linecap="round" stroke-linejoin="round" />
  <path d="M113.46,67.36 C113.56,67.55 113.61,67.78 113.61,68.05" fill="currentColor" stroke="currentColor" stroke-width="1.2" stroke-linecap="round" stroke-linejoin="round" />
  <path d="M93.12,67.59 C93.46,67.80 93.86,67.90 94.29,67.91" fill="currentColor" stroke="currentColor" stroke-width="1.2" stroke-linecap="round" stroke-linejoin="round" />
  <path d="M94.29,67.91 C94.51,67.91 94.74,67.88 94.96,67.82" fill="currentColor" stroke="currentColor" stroke-width="1.2" stroke-linecap="round" stroke-linejoin="round" />
  <path d="M101.70,67.25 C101.49,67.69 101.38,68.20 101.37,68.80" fill="currentColor" stroke="currentColor" stroke-width="1.2" stroke-linecap="round" stroke-linejoin="round" />
  <path d="M95.57,67.56 C95.49,67.91 95.34,68.26 95.12,68.62" fill="currentColor" stroke="currentColor" stroke-width="1.2" stroke-linecap="round" stroke-linejoin="round" />
  <path d="M102.46,68.70 C102.47,68.34 102.54,68.02 102.68,67.74" fill="currentColor" stroke="currentColor" stroke-width="1.2" stroke-linecap="round" stroke-linejoin="round" />
  <path d="M96.15,69.09 C96.44,68.61 96.67,68.11 96.83,67.60" fill="currentColor" stroke="currentColor" stroke-width="1.2" stroke-linecap="round" stroke-linejoin="round" />
  <line x1="106.84" y1="66.00" x2="106.84" y2="71.39" fill="currentColor" stroke="currentColor" stroke-width="1.2" stroke-linecap="round" stroke-linejoin="round" />
  <path d="M95.12,68.62 C94.91,68.97 94.62,69.32 94.28,69.67" fill="currentColor" stroke="currentColor" stroke-width="1.2" stroke-linecap="round" stroke-linejoin="round" />
  <path d="M102.69,69.66 C102.54,69.40 102.47,69.07 102.46,68.70" fill="currentColor" stroke="currentColor" stroke-width="1.2" stroke-linecap="round" stroke-linejoin="round" />
  <line x1="107.91" y1="71.39" x2="107.91" y2="67.48" fill="currentColor" stroke="currentColor" stroke-width="1.2" stroke-linecap="round" stroke-linejoin="round" />
  <line x1="111.30" y1="71.39" x2="111.30" y2="67.48" fill="currentColor" stroke="currentColor" stroke-width="1.2" stroke-linecap="round" stroke-linejoin="round" />
  <path d="M101.37,68.80 C101.38,69.33 101.49,69.80 101.73,70.20" fill="currentColor" stroke="currentColor" stroke-width="1.2" stroke-linecap="round" stroke-linejoin="round" />
  <line x1="114.68" y1="71.39" x2="114.68" y2="68.00" fill="currentColor" stroke="currentColor" stroke-width="1.2" stroke-linecap="round" stroke-linejoin="round" />
  <line x1="110.23" y1="68.04" x2="110.23" y2="71.39" fill="currentColor" stroke="currentColor" stroke-width="1.2" stroke-linecap="round" stroke-linejoin="round" />
  <line x1="113.61" y1="68.05" x2="113.61" y2="71.39" fill="currentColor" stroke="currentColor" stroke-width="1.2" stroke-linecap="round" stroke-linejoin="round" />
  <path d="M95.11,70.43 C95.51,70.02 95.86,69.57 96.15,69.09" fill="currentColor" stroke="currentColor" stroke-width="1.2" stroke-linecap="round" stroke-linejoin="round" />
  <path d="M103.32,70.27 C103.05,70.13 102.84,69.93 102.69,69.66" fill="currentColor" stroke="currentColor" stroke-width="1.2" stroke-linecap="round" stroke-linejoin="round" />
  <path d="M94.28,69.67 C93.93,70.01 93.53,70.33 93.07,70.63" fill="currentColor" stroke="currentColor" stroke-width="1.2" stroke-linecap="round" stroke-linejoin="round" />
  <path d="M105.72,70.13 C105.45,70.25 105.20,70.34 104.97,70.40" fill="currentColor" stroke="currentColor" stroke-width="1.2" stroke-linecap="round" stroke-linejoin="round" />
  <path d="M104.29,70.49 C103.92,70.49 103.60,70.42 103.32,70.27" fill="currentColor" stroke="currentColor" stroke-width="1.2" stroke-linecap="round" stroke-linejoin="round" />
  <path d="M104.97,70.40 C104.74,70.46 104.52,70.49 104.29,70.49" fill="currentColor" stroke="currentColor" stroke-width="1.2" stroke-linecap="round" stroke-linejoin="round" />
  <line x1="105.72" y1="71.18" x2="105.72" y2="70.13" fill="currentColor" stroke="currentColor" stroke-width="1.2" stroke-linecap="round" stroke-linejoin="round" />
  <path d="M101.73,70.20 C101.95,70.61 102.27,70.92 102.68,71.15" fill="currentColor" stroke="currentColor" stroke-width="1.2" stroke-linecap="round" stroke-linejoin="round" />
  <path d="M93.79,71.50 C94.27,71.20 94.71,70.84 95.11,70.43" fill="currentColor" stroke="currentColor" stroke-width="1.2" stroke-linecap="round" stroke-linejoin="round" />
  <line x1="93.07" y1="70.63" x2="93.79" y2="71.50" fill="currentColor" stroke="currentColor" stroke-width="1.2" stroke-linecap="round" stroke-linejoin="round" />
  <path d="M105.27,71.34 C105.44,71.29 105.59,71.24 105.72,71.18" fill="currentColor" stroke="currentColor" stroke-width="1.2" stroke-linecap="round" stroke-linejoin="round" />
  <path d="M102.68,71.15 C103.09,71.38 103.57,71.49 104.11,71.50" fill="currentColor" stroke="currentColor" stroke-width="1.2" stroke-linecap="round" stroke-linejoin="round" />
  <line x1="106.84" y1="71.39" x2="107.91" y2="71.39" fill="currentColor" stroke="currentColor" stroke-width="1.2" stroke-linecap="round" stroke-linejoin="round" />
  <line x1="110.23" y1="71.39" x2="111.30" y2="71.39" fill="currentColor" stroke="currentColor" stroke-width="1.2" stroke-linecap="round" stroke-linejoin="round" />
  <line x1="113.61" y1="71.39" x2="114.68" y2="71.39" fill="currentColor" stroke="currentColor" stroke-width="1.2" stroke-linecap="round" stroke-linejoin="round" />
  <path d="M104.69,71.45 C104.90,71.43 105.09,71.39 105.27,71.34" fill="currentColor" stroke="currentColor" stroke-width="1.2" stroke-linecap="round" stroke-linejoin="round" />
  <path d="M104.11,71.50 C104.30,71.50 104.50,71.48 104.69,71.45" fill="currentColor" stroke="currentColor" stroke-width="1.2" stroke-linecap="round" stroke-linejoin="round" />
  <line x1="12.34" y1="104.53" x2="11.52" y2="104.53" fill="currentColor" stroke="currentColor" stroke-width="1.2" stroke-linecap="round" stroke-linejoin="round" />
  <line x1="167.55" y1="104.58" x2="165.18" y2="104.58" fill="currentColor" stroke="currentColor" stroke-width="1.2" stroke-linecap="round" stroke-linejoin="round" />
  <path d="M168.69,104.76 C168.37,104.65 167.99,104.58 167.55,104.58" fill="currentColor" stroke="currentColor" stroke-width="1.2" stroke-linecap="round" stroke-linejoin="round" />
  <path d="M169.47,105.24 C169.27,105.04 169.01,104.88 168.69,104.76" fill="currentColor" stroke="currentColor" stroke-width="1.2" stroke-linecap="round" stroke-linejoin="round" />
  <path d="M169.93,105.91 C169.83,105.66 169.68,105.44 169.47,105.24" fill="currentColor" stroke="currentColor" stroke-width="1.2" stroke-linecap="round" stroke-linejoin="round" />
  <line x1="166.35" y1="105.64" x2="167.43" y2="105.64" fill="currentColor" stroke="currentColor" stroke-width="1.2" stroke-linecap="round" stroke-linejoin="round" />
  <path d="M167.43,105.64 C167.79,105.64 168.07,105.69 168.28,105.79" fill="currentColor" stroke="currentColor" stroke-width="1.2" stroke-linecap="round" stroke-linejoin="round" />
  <path d="M168.28,105.79 C168.49,105.90 168.64,106.03 168.73,106.21" fill="currentColor" stroke="currentColor" stroke-width="1.2" stroke-linecap="round" stroke-linejoin="round" />
  <path d="M170.07,106.67 C170.07,106.41 170.02,106.15 169.93,105.91" fill="currentColor" stroke="currentColor" stroke-width="1.2" stroke-linecap="round" stroke-linejoin="round" />
  <path d="M168.73,106.21 C168.82,106.38 168.86,106.57 168.86,106.77" fill="currentColor" stroke="currentColor" stroke-width="1.2" stroke-linecap="round" stroke-linejoin="round" />
  <line x1="166.35" y1="108.09" x2="166.35" y2="105.64" fill="currentColor" stroke="currentColor" stroke-width="1.2" stroke-linecap="round" stroke-linejoin="round" />
  <path d="M169.77,107.73 C169.97,107.45 170.07,107.09 170.07,106.67" fill="currentColor" stroke="currentColor" stroke-width="1.2" stroke-linecap="round" stroke-linejoin="round" />
  <path d="M168.86,106.77 C168.86,107.22 168.72,107.54 168.43,107.76" fill="currentColor" stroke="currentColor" stroke-width="1.2" stroke-linecap="round" stroke-linejoin="round" />
  <line x1="11.91" y1="106.33" x2="13.24" y2="109.29" fill="currentColor" stroke="currentColor" stroke-width="1.2" stroke-linecap="round" stroke-linejoin="round" />
  <path d="M168.43,107.76 C168.14,107.98 167.71,108.09 167.13,108.09" fill="currentColor" stroke="currentColor" stroke-width="1.2" stroke-linecap="round" stroke-linejoin="round" />
  <path d="M168.82,108.42 C169.25,108.25 169.56,108.02 169.77,107.73" fill="currentColor" stroke="currentColor" stroke-width="1.2" stroke-linecap="round" stroke-linejoin="round" />
  <line x1="167.13" y1="108.09" x2="166.35" y2="108.09" fill="currentColor" stroke="currentColor" stroke-width="1.2" stroke-linecap="round" stroke-linejoin="round" />
  <line x1="168.82" y1="108.45" x2="168.82" y2="108.42" fill="currentColor" stroke="currentColor" stroke-width="1.2" stroke-linecap="round" stroke-linejoin="round" />
  <line x1="11.52" y1="104.53" x2="8.00" y2="112.76" fill="currentColor" stroke="currentColor" stroke-width="1.2" stroke-linecap="round" stroke-linejoin="round" />
  <line x1="16.00" y1="112.76" x2="12.34" y2="104.53" fill="currentColor" stroke="currentColor" stroke-width="1.2" stroke-linecap="round" stroke-linejoin="round" />
  <path d="M169.88,108.85 C169.58,108.66 169.23,108.52 168.82,108.45" fill="currentColor" stroke="currentColor" stroke-width="1.2" stroke-linecap="round" stroke-linejoin="round" />
  <line x1="165.18" y1="104.58" x2="165.18" y2="112.76" fill="currentColor" stroke="currentColor" stroke-width="1.2" stroke-linecap="round" stroke-linejoin="round" />
  <line x1="166.35" y1="109.14" x2="167.77" y2="109.14" fill="currentColor" stroke="currentColor" stroke-width="1.2" stroke-linecap="round" stroke-linejoin="round" />
  <path d="M170.55,109.59 C170.39,109.29 170.17,109.05 169.88,108.85" fill="currentColor" stroke="currentColor" stroke-width="1.2" stroke-linecap="round" stroke-linejoin="round" />
  <path d="M167.77,109.14 C168.18,109.14 168.52,109.20 168.79,109.30" fill="currentColor" stroke="currentColor" stroke-width="1.2" stroke-linecap="round" stroke-linejoin="round" />
  <line x1="13.24" y1="109.29" x2="10.69" y2="109.29" fill="currentColor" stroke="currentColor" stroke-width="1.2" stroke-linecap="round" stroke-linejoin="round" />
  <path d="M168.79,109.30 C169.05,109.41 169.25,109.56 169.38,109.75" fill="currentColor" stroke="currentColor" stroke-width="1.2" stroke-linecap="round" stroke-linejoin="round" />
  <path d="M169.38,109.75 C169.51,109.94 169.58,110.16 169.58,110.41" fill="currentColor" stroke="currentColor" stroke-width="1.2" stroke-linecap="round" stroke-linejoin="round" />
  <path d="M170.79,110.58 C170.79,110.21 170.71,109.88 170.55,109.59" fill="currentColor" stroke="currentColor" stroke-width="1.2" stroke-linecap="round" stroke-linejoin="round" />
  <line x1="10.24" y1="110.35" x2="13.71" y2="110.35" fill="currentColor" stroke="currentColor" stroke-width="1.2" stroke-linecap="round" stroke-linejoin="round" />
  <path d="M169.58,110.41 C169.58,110.62 169.53,110.82 169.43,111.02" fill="currentColor" stroke="currentColor" stroke-width="1.2" stroke-linecap="round" stroke-linejoin="round" />
  <path d="M170.64,111.35 C170.74,111.09 170.79,110.84 170.79,110.58" fill="currentColor" stroke="currentColor" stroke-width="1.2" stroke-linecap="round" stroke-linejoin="round" />
  <path d="M169.43,111.02 C169.33,111.22 169.15,111.38 168.89,111.51" fill="currentColor" stroke="currentColor" stroke-width="1.2" stroke-linecap="round" stroke-linejoin="round" />
  <line x1="9.20" y1="112.76" x2="10.24" y2="110.35" fill="currentColor" stroke="currentColor" stroke-width="1.2" stroke-linecap="round" stroke-linejoin="round" />
  <line x1="13.71" y1="110.35" x2="14.80" y2="112.76" fill="currentColor" stroke="currentColor" stroke-width="1.2" stroke-linecap="round" stroke-linejoin="round" />
  <path d="M168.89,111.51 C168.64,111.64 168.28,111.70 167.82,111.71" fill="currentColor" stroke="currentColor" stroke-width="1.2" stroke-linecap="round" stroke-linejoin="round" />
  <path d="M170.16,112.05 C170.38,111.84 170.54,111.60 170.64,111.35" fill="currentColor" stroke="currentColor" stroke-width="1.2" stroke-linecap="round" stroke-linejoin="round" />
  <line x1="167.82" y1="111.71" x2="166.35" y2="111.71" fill="currentColor" stroke="currentColor" stroke-width="1.2" stroke-linecap="round" stroke-linejoin="round" />
  <path d="M169.29,112.56 C169.64,112.43 169.93,112.26 170.16,112.05" fill="currentColor" stroke="currentColor" stroke-width="1.2" stroke-linecap="round" stroke-linejoin="round" />
  <path d="M167.98,112.76 C168.49,112.76 168.93,112.69 169.29,112.56" fill="currentColor" stroke="currentColor" stroke-width="1.2" stroke-linecap="round" stroke-linejoin="round" />
  <line x1="8.00" y1="112.76" x2="9.20" y2="112.76" fill="currentColor" stroke="currentColor" stroke-width="1.2" stroke-linecap="round" stroke-linejoin="round" />
  <line x1="14.80" y1="112.76" x2="16.00" y2="112.76" fill="currentColor" stroke="currentColor" stroke-width="1.2" stroke-linecap="round" stroke-linejoin="round" />
  <line x1="165.18" y1="112.76" x2="167.98" y2="112.76" fill="currentColor" stroke="currentColor" stroke-width="1.2" stroke-linecap="round" stroke-linejoin="round" />
</svg>