<svg xmlns="http://www.w3.org/2000/svg" viewBox="0 0 368.35 131.80" preserveAspectRatio="xMidYMid meet" shape-rendering="geometricPrecision" text-rendering="optimizeLegibility">
  <path d="M127.59,108.40L123.34,108.40L123.34,115.90L127.69,115.90L127.69,114.94L124.41,114.94L124.41,112.60L127.48,112.60L127.48,111.64L124.41,111.64L124.41,109.37L127.59,109.37L127.59,108.40Z" fill="currentColor" stroke="currentColor" stroke-width="1.2" stroke-linejoin="round" />
  <line x1="106.28" y1="34.48" x2="102.43" y2="37.75" fill="none" stroke="currentColor" stroke-width="1.0" stroke-linecap="round" stroke-linejoin="round" />
  <line x1="105.58" y1="33.65" x2="101.72" y2="36.92" fill="none" stroke="currentColor" stroke-width="1.0" stroke-linecap="round" stroke-linejoin="round" />
  <polygon points="15.86,75.60 98.26,79.43 110.14,31.20 28.65,35.40" fill="none" stroke="currentColor" stroke-width="1.2" stroke-linecap="round" stroke-linejoin="round" />
  <path d="M22.29,33.56L25.21,33.56C25.71,33.56 26.16,33.49 26.58,33.36C26.99,33.22 27.36,33.03 27.69,32.80C28.01,32.56 28.28,32.28 28.51,31.96C28.73,31.65 28.90,31.31 29.02,30.94C29.14,30.58 29.20,30.20 29.20,29.81C29.20,29.45 29.15,29.10 29.05,28.74C28.95,28.38 28.80,28.05 28.59,27.73C28.38,27.41 28.12,27.12 27.81,26.87C27.49,26.62 27.12,26.42 26.68,26.28C26.25,26.14 25.76,26.06 25.20,26.06L22.29,26.06L22.29,33.56ZM23.37,27.03L25.03,27.03C25.55,27.03 26.01,27.10 26.39,27.25C26.78,27.40 27.10,27.60 27.35,27.85C27.60,28.11 27.78,28.41 27.90,28.74C28.03,29.07 28.09,29.43 28.09,29.81C28.09,30.00 28.06,30.21 28.01,30.46C27.96,30.70 27.86,30.94 27.73,31.19C27.60,31.44 27.42,31.67 27.19,31.88C26.97,32.09 26.68,32.26 26.33,32.39C25.99,32.52 25.57,32.59 25.08,32.59L23.37,32.59L23.37,27.03Z" fill="currentColor" stroke="currentColor" stroke-width="1.2" stroke-linejoin="round" />
  <path d="M11.98,76.69L11.22,76.69L8.00,84.24L9.10,84.24L10.05,82.02L13.24,82.02L14.24,84.24L15.34,84.24L11.98,76.69ZM11.59,78.34L12.80,81.06L10.46,81.06L11.59,78.34Z" fill="currentColor" stroke="currentColor" stroke-width="1.2" stroke-linejoin="round" />
  <path d="M117.65,22.91C117.32,22.77 117.00,22.65 116.70,22.56C116.41,22.47 116.13,22.40 115.86,22.36C115.60,22.31 115.34,22.29 115.08,22.29C114.48,22.30 113.93,22.40 113.43,22.59C112.93,22.79 112.50,23.06 112.13,23.42C111.76,23.77 111.48,24.19 111.27,24.67C111.07,25.15 110.97,25.68 110.97,26.25C110.97,26.57 111.02,26.90 111.12,27.25C111.22,27.59 111.37,27.92 111.58,28.25C111.79,28.57 112.05,28.87 112.37,29.13C112.69,29.39 113.07,29.60 113.51,29.75C113.95,29.91 114.45,29.99 115.01,29.99C115.41,29.99 115.76,29.96 116.08,29.91C116.40,29.85 116.69,29.77 116.96,29.67C117.23,29.58 117.49,29.46 117.73,29.33L117.73,28.15C117.31,28.43 116.87,28.64 116.42,28.78C115.98,28.93 115.54,29.00 115.11,29.00C114.51,29.00 113.98,28.88 113.53,28.64C113.07,28.40 112.72,28.07 112.46,27.64C112.21,27.21 112.08,26.72 112.08,26.15C112.08,25.74 112.16,25.36 112.30,25.01C112.45,24.66 112.66,24.36 112.93,24.10C113.20,23.84 113.52,23.64 113.88,23.50C114.24,23.36 114.64,23.29 115.07,23.28C115.50,23.28 115.92,23.35 116.34,23.47C116.76,23.60 117.20,23.80 117.65,24.06L117.65,22.91Z" fill="currentColor" stroke="currentColor" stroke-width="1.2" stroke-linejoin="round" />
  <path d="M100.20,89.01L102.78,89.01C103.25,89.01 103.64,88.95 103.97,88.83C104.30,88.71 104.57,88.55 104.77,88.36C104.97,88.16 105.12,87.95 105.21,87.71C105.31,87.48 105.35,87.25 105.35,87.01C105.35,86.67 105.28,86.37 105.13,86.10C104.99,85.83 104.78,85.61 104.51,85.43C104.24,85.25 103.92,85.12 103.55,85.05L103.55,85.03C103.94,84.87 104.23,84.66 104.41,84.40C104.60,84.14 104.69,83.81 104.69,83.42C104.69,83.19 104.65,82.95 104.56,82.73C104.47,82.50 104.33,82.30 104.14,82.11C103.96,81.93 103.72,81.79 103.43,81.68C103.13,81.57 102.79,81.52 102.38,81.51L100.20,81.51L100.20,89.01ZM101.28,82.48L102.27,82.48C102.60,82.48 102.86,82.53 103.05,82.62C103.24,82.72 103.38,82.85 103.46,83.00C103.54,83.16 103.58,83.33 103.58,83.52C103.58,83.93 103.45,84.23 103.19,84.43C102.93,84.62 102.53,84.72 102.00,84.72L101.28,84.72L101.28,82.48ZM101.28,85.69L102.58,85.69C102.96,85.69 103.27,85.74 103.51,85.84C103.76,85.94 103.94,86.08 104.06,86.25C104.18,86.43 104.24,86.63 104.24,86.86C104.24,87.05 104.20,87.23 104.10,87.42C104.01,87.59 103.85,87.74 103.61,87.86C103.38,87.98 103.05,88.04 102.63,88.05L101.28,88.05L101.28,85.69Z" fill="currentColor" stroke="currentColor" stroke-width="1.2" stroke-linejoin="round" />
  <path d="M18.04,68.82 C20.57,69.62 22.54,71.82 22.93,74.62" fill="none" stroke="currentColor" stroke-width="1.0" stroke-linecap="round" stroke-linejoin="round" />
  <path d="M22.93,74.62 C22.99,75.06 23.01,75.50 22.99,75.93" fill="none" stroke="currentColor" stroke-width="1.0" stroke-linecap="round" stroke-linejoin="round" />
  <path d="M35.79,35.04 C35.96,38.68 33.33,41.92 29.65,42.43" fill="none" stroke="currentColor" stroke-width="1.0" stroke-linecap="round" stroke-linejoin="round" />
  <path d="M29.65,42.43 C28.56,42.58 27.49,42.47 26.50,42.16" fill="none" stroke="currentColor" stroke-width="1.0" stroke-linecap="round" stroke-linejoin="round" />
  <path d="M108.37,38.40 C105.50,37.70 103.22,35.31 102.79,32.22" fill="none" stroke="currentColor" stroke-width="1.0" stroke-linecap="round" stroke-linejoin="round" />
  <path d="M102.79,32.22 C102.76,32.00 102.74,31.78 102.73,31.57" fill="none" stroke="currentColor" stroke-width="1.0" stroke-linecap="round" stroke-linejoin="round" />
  <path d="M91.04,79.09 C91.19,75.68 93.76,72.75 97.26,72.26" fill="none" stroke="currentColor" stroke-width="1.0" stroke-linecap="round" stroke-linejoin="round" />
  <path d="M97.26,72.26 C98.20,72.13 99.12,72.19 99.98,72.40" fill="none" stroke="currentColor" stroke-width="1.0" stroke-linecap="round" stroke-linejoin="round" />
  <line x1="19.81" y1="72.91" x2="23.81" y2="70.16" fill="none" stroke="currentColor" stroke-width="1.0" stroke-linecap="round" stroke-linejoin="round" />
  <line x1="31.34" y1="39.73" x2="34.35" y2="43.54" fill="none" stroke="currentColor" stroke-width="1.0" stroke-linecap="round" stroke-linejoin="round" />
  <line x1="32.31" y1="38.96" x2="35.32" y2="42.77" fill="none" stroke="currentColor" stroke-width="1.0" stroke-linecap="round" stroke-linejoin="round" />
  <line x1="106.99" y1="35.30" x2="103.13" y2="38.58" fill="none" stroke="currentColor" stroke-width="1.0" stroke-linecap="round" stroke-linejoin="round" />
  <line x1="91.95" y1="71.80" x2="94.82" y2="75.80" fill="none" stroke="currentColor" stroke-width="1.0" stroke-linecap="round" stroke-linejoin="round" />
  <line x1="92.97" y1="71.06" x2="95.84" y2="75.07" fill="none" stroke="currentColor" stroke-width="1.0" stroke-linecap="round" stroke-linejoin="round" />
  <line x1="93.99" y1="70.33" x2="96.86" y2="74.33" fill="none" stroke="currentColor" stroke-width="1.0" stroke-linecap="round" stroke-linejoin="round" />
  <line x1="90.93" y1="72.54" x2="93.80" y2="76.54" fill="none" stroke="currentColor" stroke-width="1.0" stroke-linecap="round" stroke-linejoin="round" />
  <line x1="297.09" y1="31.17" x2="291.17" y2="36.20" fill="none" stroke="currentColor" stroke-width="1.0" stroke-linecap="round" stroke-linejoin="round" />
  <line x1="296.01" y1="29.90" x2="290.09" y2="34.92" fill="none" stroke="currentColor" stroke-width="1.0" stroke-linecap="round" stroke-linejoin="round" />
  <polygon points="131.30,107.02 281.47,114.00 303.12,26.10 154.62,33.76" fill="none" stroke="currentColor" stroke-width="1.2" stroke-linecap="round" stroke-linejoin="round" />
  <path d="M153.05,22.95L151.98,22.95L151.98,26.21L147.78,26.21L147.78,22.95L146.70,22.95L146.70,30.45L147.78,30.45L147.78,27.18L151.98,27.18L151.98,30.45L153.05,30.45L153.05,22.95Z" fill="currentColor" stroke="currentColor" stroke-width="1.2" stroke-linejoin="round" />
  <path d="M311.06,20.02L308.55,20.02L308.55,20.99L309.99,20.99L309.99,22.53C309.73,22.62 309.47,22.69 309.20,22.74C308.93,22.80 308.65,22.83 308.36,22.83C307.91,22.83 307.50,22.76 307.13,22.62C306.76,22.48 306.44,22.29 306.18,22.03C305.91,21.78 305.70,21.48 305.55,21.13C305.40,20.78 305.33,20.40 305.32,19.98C305.33,19.57 305.40,19.19 305.55,18.85C305.69,18.50 305.90,18.20 306.16,17.93C306.42,17.68 306.73,17.47 307.08,17.33C307.43,17.19 307.81,17.11 308.22,17.11C308.67,17.11 309.12,17.17 309.57,17.30C310.02,17.42 310.47,17.60 310.91,17.85L310.91,16.76C310.62,16.64 310.36,16.53 310.12,16.45C309.89,16.37 309.67,16.30 309.46,16.25C309.26,16.21 309.06,16.17 308.86,16.15C308.66,16.13 308.46,16.12 308.24,16.12C307.66,16.12 307.13,16.22 306.65,16.42C306.16,16.61 305.73,16.89 305.37,17.24C305.01,17.59 304.72,18.00 304.52,18.47C304.32,18.95 304.22,19.46 304.21,20.01C304.22,20.57 304.32,21.07 304.51,21.54C304.71,22.00 304.99,22.40 305.35,22.74C305.71,23.08 306.13,23.35 306.61,23.53C307.10,23.72 307.63,23.82 308.21,23.82C308.55,23.82 308.88,23.80 309.19,23.76C309.50,23.71 309.81,23.65 310.11,23.56C310.42,23.47 310.73,23.35 311.06,23.20L311.06,20.02Z" fill="currentColor" stroke="currentColor" stroke-width="1.2" stroke-linejoin="round" />
  <path d="M286.93,116.30L282.93,116.30L282.93,123.80L284.01,123.80L284.01,120.31L286.93,120.31L286.93,119.34L284.01,119.34L284.01,117.26L286.93,117.26L286.93,116.30Z" fill="currentColor" stroke="currentColor" stroke-width="1.2" stroke-linejoin="round" />
  <path d="M134.51,97.02 C138.24,98.21 141.15,101.45 141.72,105.58" fill="none" stroke="currentColor" stroke-width="1.0" stroke-linecap="round" stroke-linejoin="round" />
  <path d="M141.72,105.58 C141.81,106.23 141.84,106.88 141.81,107.51" fill="none" stroke="currentColor" stroke-width="1.0" stroke-linecap="round" stroke-linejoin="round" />
  <path d="M165.13,33.22 C165.38,38.56 161.52,43.32 156.12,44.06" fill="none" stroke="currentColor" stroke-width="1.0" stroke-linecap="round" stroke-linejoin="round" />
  <path d="M156.12,44.06 C154.51,44.28 152.94,44.13 151.49,43.66" fill="none" stroke="currentColor" stroke-width="1.0" stroke-linecap="round" stroke-linejoin="round" />
  <path d="M300.29,37.21 C295.89,36.12 292.38,32.46 291.72,27.70" fill="none" stroke="currentColor" stroke-width="1.0" stroke-linecap="round" stroke-linejoin="round" />
  <path d="M291.72,27.70 C291.68,27.37 291.65,27.03 291.63,26.70" fill="none" stroke="currentColor" stroke-width="1.0" stroke-linecap="round" stroke-linejoin="round" />
  <path d="M271.07,113.51 C271.28,108.57 275.00,104.34 280.06,103.64" fill="none" stroke="currentColor" stroke-width="1.0" stroke-linecap="round" stroke-linejoin="round" />
  <path d="M280.06,103.64 C281.41,103.45 282.74,103.53 283.99,103.84" fill="none" stroke="currentColor" stroke-width="1.0" stroke-linecap="round" stroke-linejoin="round" />
  <line x1="137.12" y1="103.05" x2="143.02" y2="99.01" fill="none" stroke="currentColor" stroke-width="1.0" stroke-linecap="round" stroke-linejoin="round" />
  <line x1="158.59" y1="40.11" x2="163.01" y2="45.70" fill="none" stroke="currentColor" stroke-width="1.0" stroke-linecap="round" stroke-linejoin="round" />
  <line x1="159.87" y1="39.01" x2="164.29" y2="44.60" fill="none" stroke="currentColor" stroke-width="1.0" stroke-linecap="round" stroke-linejoin="round" />
  <line x1="298.17" y1="32.45" x2="292.25" y2="37.47" fill="none" stroke="currentColor" stroke-width="1.0" stroke-linecap="round" stroke-linejoin="round" />
  <line x1="272.38" y1="102.97" x2="276.53" y2="108.75" fill="none" stroke="currentColor" stroke-width="1.0" stroke-linecap="round" stroke-linejoin="round" />
  <line x1="273.86" y1="101.90" x2="278.01" y2="107.69" fill="none" stroke="currentColor" stroke-width="1.0" stroke-linecap="round" stroke-linejoin="round" />
  <line x1="275.33" y1="100.84" x2="279.48" y2="106.62" fill="none" stroke="currentColor" stroke-width="1.0" stroke-linecap="round" stroke-linejoin="round" />
  <line x1="270.90" y1="104.03" x2="275.05" y2="109.81" fill="none" stroke="currentColor" stroke-width="1.0" stroke-linecap="round" stroke-linejoin="round" />
  <path d="M15.08,50.96C15.25,50.88 15.41,50.82 15.55,50.78C15.69,50.73 15.83,50.69 15.96,50.67C16.09,50.65 16.22,50.64 16.35,50.64C16.62,50.64 16.85,50.69 17.04,50.78C17.24,50.87 17.39,51.00 17.49,51.17C17.60,51.33 17.65,51.53 17.65,51.76C17.65,52.11 17.53,52.37 17.28,52.56C17.03,52.75 16.66,52.85 16.17,52.85L16.17,53.84C16.52,53.83 16.82,53.87 17.06,53.98C17.30,54.09 17.48,54.24 17.59,54.43C17.71,54.63 17.77,54.85 17.77,55.10C17.77,55.34 17.72,55.55 17.62,55.73C17.52,55.91 17.38,56.05 17.21,56.15C17.02,56.24 16.81,56.29 16.56,56.30C16.29,56.30 16.01,56.25 15.74,56.15C15.46,56.06 15.18,55.92 14.89,55.72L14.89,56.89C15.16,57.03 15.43,57.13 15.70,57.21C15.96,57.28 16.23,57.32 16.49,57.32C16.95,57.31 17.36,57.22 17.71,57.03C18.07,56.83 18.35,56.57 18.54,56.23C18.74,55.89 18.85,55.49 18.85,55.04C18.85,54.78 18.81,54.53 18.74,54.29C18.66,54.05 18.54,53.84 18.38,53.65C18.23,53.47 18.02,53.34 17.77,53.26C18.00,53.14 18.18,53.00 18.32,52.84C18.46,52.69 18.57,52.51 18.63,52.30C18.70,52.10 18.73,51.85 18.73,51.58C18.73,51.18 18.63,50.83 18.46,50.54C18.27,50.25 18.02,50.02 17.69,49.86C17.36,49.70 16.97,49.62 16.52,49.62C16.24,49.62 15.99,49.64 15.76,49.70C15.53,49.75 15.30,49.83 15.08,49.94L15.08,50.96Z" fill="currentColor" stroke="currentColor" stroke-width="1.2" stroke-linejoin="round" />
  <path d="M68.09,22.72C67.44,23.15 66.89,23.64 66.45,24.18C66.00,24.72 65.66,25.30 65.43,25.90C65.21,26.51 65.09,27.13 65.09,27.76C65.09,28.29 65.19,28.75 65.40,29.15C65.60,29.55 65.88,29.86 66.24,30.08C66.60,30.30 67.02,30.41 67.51,30.42C67.81,30.42 68.09,30.36 68.36,30.24C68.62,30.12 68.86,29.96 69.06,29.75C69.27,29.55 69.43,29.31 69.54,29.04C69.66,28.77 69.72,28.48 69.72,28.17C69.71,27.76 69.62,27.38 69.44,27.05C69.26,26.73 69.01,26.47 68.69,26.28C68.38,26.09 68.02,25.99 67.62,25.98C67.37,25.99 67.15,26.02 66.96,26.08C66.76,26.14 66.59,26.21 66.44,26.29C66.55,25.94 66.71,25.59 66.94,25.25C67.16,24.91 67.43,24.59 67.74,24.30C68.05,24.00 68.38,23.75 68.74,23.54L68.09,22.72ZM66.21,27.40C66.36,27.30 66.50,27.22 66.62,27.16C66.75,27.11 66.87,27.07 66.99,27.04C67.11,27.02 67.25,27.01 67.40,27.01C67.64,27.01 67.85,27.06 68.04,27.16C68.22,27.26 68.37,27.40 68.48,27.57C68.59,27.74 68.64,27.94 68.64,28.16C68.64,28.41 68.59,28.63 68.49,28.81C68.39,28.99 68.25,29.14 68.07,29.24C67.89,29.34 67.68,29.39 67.44,29.40C67.24,29.39 67.06,29.35 66.88,29.26C66.70,29.17 66.55,29.03 66.43,28.86C66.30,28.69 66.21,28.48 66.17,28.23C66.13,27.99 66.14,27.71 66.21,27.40Z" fill="currentColor" stroke="currentColor" stroke-width="1.2" stroke-linejoin="round" />
  <path d="M58.48,80.43L53.63,80.43L53.63,81.46L56.87,81.46L54.12,87.62L55.08,88.03L58.48,80.43Z" fill="currentColor" stroke="currentColor" stroke-width="1.2" stroke-linejoin="round" />
  <path d="M227.18,21.76L226.03,21.76L224.74,23.43L223.96,21.76L222.96,21.76L224.12,24.09L221.97,26.70L223.11,26.70L224.54,24.85L225.44,26.70L226.44,26.70L225.19,24.21L227.18,21.76Z" fill="currentColor" stroke="currentColor" stroke-width="1.2" stroke-linejoin="round" />
  <path d="M342.49,13.08C342.49,12.09 342.62,11.17 342.88,10.33C343.14,9.48 343.54,8.71 344.07,8.00L343.49,8.00C343.16,8.33 342.86,8.69 342.60,9.08C342.34,9.48 342.12,9.89 341.93,10.33C341.74,10.77 341.60,11.23 341.50,11.69C341.40,12.15 341.35,12.62 341.35,13.08C341.35,13.54 341.40,14.01 341.50,14.47C341.60,14.93 341.74,15.39 341.93,15.83C342.12,16.27 342.34,16.68 342.60,17.08C342.86,17.48 343.16,17.83 343.49,18.16L344.07,18.16C343.54,17.45 343.14,16.68 342.88,15.84C342.62,14.99 342.49,14.07 342.49,13.08Z" fill="currentColor" stroke="currentColor" stroke-width="1.2" stroke-linejoin="round" />
  <path d="M348.53,10.93C348.37,10.86 348.22,10.80 348.07,10.75C347.93,10.70 347.78,10.66 347.62,10.64C347.46,10.61 347.29,10.59 347.10,10.59C346.60,10.60 346.16,10.71 345.80,10.92C345.44,11.14 345.16,11.44 344.96,11.84C344.76,12.24 344.66,12.71 344.66,13.26C344.66,13.74 344.77,14.17 344.98,14.54C345.19,14.91 345.48,15.20 345.86,15.41C346.23,15.62 346.67,15.73 347.16,15.73C347.34,15.73 347.52,15.72 347.70,15.69C347.89,15.66 348.06,15.63 348.22,15.59C348.39,15.54 348.53,15.50 348.64,15.44L348.64,14.48C348.39,14.59 348.17,14.67 347.96,14.72C347.74,14.78 347.54,14.81 347.33,14.81C346.99,14.81 346.70,14.74 346.45,14.61C346.20,14.48 346.00,14.29 345.87,14.05C345.73,13.80 345.66,13.51 345.66,13.17C345.66,12.83 345.72,12.54 345.85,12.29C345.98,12.04 346.15,11.85 346.38,11.71C346.60,11.57 346.87,11.50 347.16,11.50C347.31,11.49 347.45,11.51 347.58,11.54C347.72,11.57 347.87,11.62 348.02,11.69C348.17,11.76 348.34,11.86 348.53,11.98L348.53,10.93Z" fill="currentColor" stroke="currentColor" stroke-width="1.2" stroke-linejoin="round" />
  <path d="M349.67,10.69L349.67,15.63L350.65,15.63L350.65,12.04C350.78,11.89 350.91,11.76 351.04,11.67C351.17,11.58 351.30,11.51 351.43,11.48C351.57,11.44 351.72,11.42 351.88,11.42C352.04,11.42 352.19,11.46 352.33,11.54C352.46,11.62 352.57,11.74 352.65,11.91C352.73,12.08 352.77,12.30 352.77,12.56L352.77,15.63L353.75,15.63L353.75,12.04C353.93,11.86 354.12,11.71 354.31,11.59C354.51,11.47 354.69,11.42 354.85,11.42C355.04,11.42 355.21,11.46 355.37,11.55C355.52,11.64 355.64,11.77 355.73,11.94C355.82,12.11 355.87,12.32 355.87,12.57L355.87,15.63L356.85,15.63L356.85,12.53C356.85,12.14 356.78,11.80 356.65,11.51C356.52,11.22 356.33,11.00 356.08,10.84C355.84,10.68 355.55,10.60 355.21,10.59C354.98,10.60 354.76,10.64 354.57,10.72C354.37,10.80 354.19,10.90 354.03,11.04C353.86,11.17 353.71,11.32 353.56,11.48C353.40,11.19 353.19,10.97 352.94,10.82C352.69,10.67 352.41,10.59 352.09,10.59C351.86,10.59 351.62,10.65 351.39,10.78C351.15,10.90 350.90,11.09 350.65,11.34L350.65,10.69L349.67,10.69Z" fill="currentColor" stroke="currentColor" stroke-width="1.2" stroke-linejoin="round" />
  <path d="M359.22,13.08C359.22,14.07 359.09,14.99 358.83,15.84C358.57,16.68 358.17,17.45 357.64,18.16L358.22,18.16C358.55,17.83 358.84,17.48 359.10,17.08C359.37,16.68 359.59,16.27 359.78,15.83C359.96,15.39 360.10,14.93 360.20,14.47C360.30,14.01 360.35,13.54 360.35,13.08C360.35,12.62 360.30,12.15 360.20,11.69C360.10,11.23 359.96,10.77 359.78,10.33C359.59,9.89 359.37,9.48 359.10,9.08C358.84,8.69 358.55,8.33 358.22,8.00L357.64,8.00C358.17,8.71 358.57,9.48 358.83,10.33C359.09,11.17 359.22,12.09 359.22,13.08Z" fill="currentColor" stroke="currentColor" stroke-width="1.2" stroke-linejoin="round" />
</svg>