<svg xmlns="http://www.w3.org/2000/svg" viewBox="0 0 122.86 117.17" preserveAspectRatio="xMidYMid meet" shape-rendering="geometricPrecision" text-rendering="optimizeLegibility">
  <polygon points="15.44,109.17 96.19,52.55 56.09,12.45 15.44,52.55" fill="none" stroke="currentColor" stroke-width="1.4000000476837158" stroke-linecap="round" stroke-linejoin="round" />
  <line x1="15.44" y1="52.55" x2="96.19" y2="52.55" fill="none" stroke="currentColor" stroke-width="1.4000000476837158" stroke-linecap="round" stroke-linejoin="round" />
  <rect x="15.44" y="52.55" width="7.10" height="7.10" fill="none" stroke="currentColor" stroke-width="1.000000011920929" stroke-linecap="round" stroke-linejoin="round" />
  <polygon points="51.07,17.47 56.09,12.45 61.11,17.47 56.09,22.50" fill="none" stroke="currentColor" stroke-width="1.000000011920929" stroke-linecap="round" stroke-linejoin="round" />
  <path d="M32.46,29.81L33.51,32.17C33.53,32.22 33.54,32.26 33.54,32.30C33.53,32.33 33.51,32.36 33.47,32.38C33.43,32.40 33.37,32.42 33.30,32.43C33.24,32.44 33.14,32.44 33.03,32.44C32.93,32.44 32.85,32.44 32.80,32.43C32.74,32.43 32.69,32.42 32.66,32.41C32.63,32.39 32.61,32.38 32.60,32.36C32.59,32.34 32.58,32.32 32.57,32.29L31.76,30.38L30.24,32.29C30.22,32.32 30.20,32.34 30.17,32.36C30.15,32.38 30.12,32.39 30.07,32.40C30.03,32.41 29.98,32.42 29.91,32.43C29.84,32.44 29.76,32.44 29.65,32.44C29.55,32.44 29.46,32.44 29.40,32.43C29.33,32.42 29.29,32.40 29.26,32.38C29.22,32.36 29.21,32.33 29.22,32.30C29.22,32.27 29.24,32.23 29.28,32.18L31.29,29.79L30.29,27.54C30.27,27.49 30.26,27.44 30.27,27.41C30.27,27.38 30.29,27.35 30.32,27.33C30.36,27.31 30.41,27.29 30.48,27.28C30.55,27.28 30.63,27.27 30.75,27.27C30.85,27.27 30.92,27.28 30.98,27.28C31.04,27.29 31.08,27.30 31.11,27.31C31.14,27.32 31.17,27.33 31.18,27.35C31.19,27.37 31.20,27.39 31.21,27.41L31.98,29.22L33.43,27.41C33.45,27.39 33.47,27.37 33.50,27.35C33.52,27.34 33.55,27.32 33.59,27.31C33.63,27.30 33.68,27.29 33.73,27.28C33.79,27.28 33.87,27.27 33.97,27.27C34.08,27.27 34.16,27.28 34.23,27.28C34.30,27.29 34.35,27.30 34.38,27.32C34.41,27.34 34.43,27.37 34.42,27.40C34.42,27.43 34.39,27.48 34.34,27.53L32.46,29.81Z" fill="currentColor" stroke="currentColor" stroke-width="1.2" stroke-linejoin="round" />
  <path d="M81.91,29.81L82.96,32.17C82.99,32.22 82.99,32.26 82.99,32.30C82.98,32.33 82.96,32.36 82.92,32.38C82.88,32.40 82.83,32.42 82.76,32.43C82.69,32.44 82.60,32.44 82.49,32.44C82.39,32.44 82.31,32.44 82.25,32.43C82.19,32.43 82.15,32.42 82.12,32.41C82.08,32.39 82.06,32.38 82.05,32.36C82.04,32.34 82.03,32.32 82.02,32.29L81.21,30.38L79.69,32.29C79.67,32.32 79.65,32.34 79.63,32.36C79.60,32.38 79.57,32.39 79.53,32.40C79.48,32.41 79.43,32.42 79.36,32.43C79.30,32.44 79.21,32.44 79.10,32.44C79.00,32.44 78.92,32.44 78.85,32.43C78.79,32.42 78.74,32.40 78.71,32.38C78.68,32.36 78.67,32.33 78.67,32.30C78.68,32.27 78.70,32.23 78.73,32.18L80.74,29.79L79.75,27.54C79.73,27.49 79.72,27.44 79.72,27.41C79.72,27.38 79.74,27.35 79.78,27.33C79.81,27.31 79.86,27.29 79.93,27.28C80.00,27.28 80.09,27.27 80.20,27.27C80.30,27.27 80.38,27.28 80.44,27.28C80.49,27.29 80.54,27.30 80.57,27.31C80.60,27.32 80.62,27.33 80.63,27.35C80.64,27.37 80.66,27.39 80.67,27.41L81.43,29.22L82.88,27.41C82.91,27.39 82.93,27.37 82.95,27.35C82.97,27.34 83.00,27.32 83.04,27.31C83.08,27.30 83.13,27.29 83.19,27.28C83.25,27.28 83.32,27.27 83.42,27.27C83.53,27.27 83.62,27.28 83.68,27.28C83.75,27.29 83.80,27.30 83.83,27.32C83.87,27.34 83.88,27.37 83.88,27.40C83.87,27.43 83.84,27.48 83.80,27.53L81.91,29.81Z" fill="currentColor" stroke="currentColor" stroke-width="1.2" stroke-linejoin="round" />
  <path d="M11.25,78.91L12.30,81.27C12.32,81.32 12.33,81.36 12.32,81.40C12.32,81.43 12.30,81.46 12.26,81.48C12.22,81.50 12.16,81.52 12.09,81.53C12.02,81.54 11.93,81.54 11.82,81.54C11.72,81.54 11.64,81.54 11.58,81.53C11.53,81.53 11.48,81.52 11.45,81.50C11.42,81.49 11.40,81.48 11.39,81.46C11.38,81.44 11.36,81.41 11.35,81.39L10.55,79.48L9.03,81.39C9.01,81.41 8.98,81.44 8.96,81.46C8.94,81.48 8.90,81.49 8.86,81.50C8.82,81.51 8.76,81.52 8.70,81.53C8.63,81.54 8.54,81.54 8.44,81.54C8.33,81.54 8.25,81.54 8.19,81.53C8.12,81.52 8.07,81.50 8.04,81.48C8.01,81.46 8.00,81.43 8.01,81.40C8.01,81.37 8.03,81.33 8.07,81.28L10.08,78.89L9.08,76.64C9.06,76.59 9.05,76.54 9.06,76.51C9.06,76.48 9.08,76.45 9.11,76.43C9.15,76.41 9.20,76.39 9.26,76.38C9.33,76.38 9.42,76.37 9.53,76.37C9.63,76.37 9.71,76.38 9.77,76.38C9.83,76.39 9.87,76.39 9.90,76.41C9.93,76.42 9.95,76.43 9.97,76.45C9.98,76.47 9.99,76.49 10.00,76.51L10.77,78.32L12.22,76.51C12.24,76.49 12.26,76.47 12.28,76.45C12.31,76.44 12.33,76.42 12.37,76.41C12.41,76.40 12.46,76.39 12.52,76.38C12.58,76.38 12.66,76.37 12.76,76.37C12.86,76.37 12.95,76.38 13.02,76.38C13.09,76.39 13.14,76.40 13.17,76.42C13.20,76.44 13.22,76.47 13.21,76.50C13.20,76.53 13.18,76.58 13.13,76.63L11.25,78.91Z" fill="currentColor" stroke="currentColor" stroke-width="1.2" stroke-linejoin="round" />
  <path d="M98.13,8.22C97.79,8.94 97.54,9.68 97.37,10.43C97.20,11.19 97.12,11.95 97.12,12.72C97.12,13.49 97.21,14.25 97.38,15.01C97.55,15.76 97.79,16.51 98.12,17.23C98.14,17.28 98.15,17.31 98.15,17.34C98.15,17.37 98.14,17.40 98.11,17.42C98.09,17.44 98.05,17.45 98.00,17.46C97.95,17.47 97.88,17.47 97.79,17.47C97.72,17.47 97.67,17.47 97.62,17.47C97.57,17.47 97.53,17.46 97.50,17.45C97.47,17.44 97.44,17.42 97.42,17.41C97.40,17.40 97.38,17.38 97.37,17.36C97.18,17.00 97.00,16.63 96.86,16.25C96.71,15.88 96.59,15.50 96.49,15.11C96.39,14.72 96.31,14.33 96.26,13.94C96.21,13.54 96.19,13.14 96.19,12.74C96.19,12.33 96.21,11.93 96.27,11.54C96.33,11.15 96.40,10.75 96.51,10.37C96.61,9.98 96.73,9.60 96.88,9.22C97.03,8.84 97.19,8.47 97.37,8.10C97.38,8.09 97.39,8.08 97.40,8.06C97.42,8.05 97.44,8.04 97.47,8.03C97.50,8.02 97.54,8.01 97.59,8.01C97.64,8.00 97.70,8.00 97.78,8.00C97.86,8.00 97.93,8.01 97.98,8.02C98.03,8.03 98.07,8.04 98.10,8.06C98.13,8.08 98.14,8.10 98.15,8.13C98.15,8.16 98.15,8.19 98.13,8.22Z" fill="currentColor" stroke="currentColor" stroke-width="1.2" stroke-linejoin="round" />
  <path d="M103.10,14.75C103.10,14.81 103.10,14.87 103.10,14.91C103.09,14.95 103.09,14.99 103.08,15.02C103.07,15.05 103.06,15.08 103.05,15.10C103.03,15.13 103.01,15.16 102.96,15.21C102.92,15.25 102.84,15.31 102.73,15.37C102.63,15.44 102.50,15.50 102.37,15.55C102.24,15.60 102.09,15.64 101.93,15.68C101.78,15.71 101.61,15.72 101.44,15.72C101.10,15.72 100.79,15.67 100.52,15.55C100.25,15.44 100.03,15.27 99.85,15.05C99.67,14.83 99.53,14.56 99.43,14.24C99.34,13.92 99.29,13.55 99.29,13.13C99.29,12.65 99.35,12.24 99.46,11.90C99.58,11.56 99.74,11.28 99.94,11.06C100.14,10.84 100.38,10.68 100.66,10.58C100.93,10.47 101.23,10.42 101.55,10.42C101.70,10.42 101.85,10.43 102.00,10.46C102.14,10.49 102.27,10.53 102.39,10.57C102.52,10.62 102.62,10.67 102.72,10.73C102.81,10.79 102.88,10.85 102.93,10.89C102.97,10.93 103.00,10.97 103.01,10.99C103.03,11.02 103.04,11.05 103.06,11.08C103.07,11.11 103.07,11.15 103.08,11.20C103.08,11.24 103.08,11.29 103.08,11.36C103.08,11.50 103.07,11.59 103.03,11.65C103.00,11.71 102.96,11.73 102.92,11.73C102.86,11.73 102.80,11.70 102.73,11.64C102.66,11.59 102.57,11.52 102.46,11.45C102.36,11.38 102.23,11.31 102.07,11.25C101.92,11.19 101.74,11.16 101.53,11.16C101.11,11.16 100.78,11.33 100.56,11.66C100.33,11.98 100.21,12.46 100.21,13.08C100.21,13.39 100.24,13.67 100.30,13.90C100.36,14.13 100.45,14.33 100.56,14.49C100.68,14.65 100.82,14.76 100.98,14.84C101.15,14.92 101.34,14.96 101.56,14.96C101.76,14.96 101.94,14.92 102.09,14.86C102.25,14.79 102.38,14.72 102.49,14.65C102.61,14.57 102.70,14.50 102.78,14.44C102.86,14.37 102.92,14.34 102.96,14.34C102.98,14.34 103.00,14.35 103.02,14.36C103.04,14.38 103.06,14.40 103.07,14.44C103.08,14.47 103.09,14.51 103.10,14.57C103.10,14.62 103.10,14.68 103.10,14.75Z" fill="currentColor" stroke="currentColor" stroke-width="1.2" stroke-linejoin="round" />
  <path d="M111.45,15.49C111.45,15.52 111.44,15.54 111.43,15.56C111.41,15.58 111.39,15.60 111.36,15.61C111.33,15.63 111.28,15.64 111.22,15.64C111.17,15.65 111.10,15.65 111.01,15.65C110.92,15.65 110.85,15.65 110.79,15.64C110.73,15.64 110.69,15.63 110.65,15.61C110.62,15.60 110.59,15.58 110.58,15.56C110.57,15.54 110.56,15.52 110.56,15.49L110.56,12.55C110.56,12.35 110.54,12.16 110.50,11.99C110.47,11.82 110.41,11.68 110.33,11.56C110.25,11.43 110.15,11.34 110.03,11.28C109.91,11.21 109.77,11.18 109.60,11.18C109.40,11.18 109.19,11.26 108.99,11.42C108.78,11.57 108.56,11.80 108.31,12.11L108.31,15.49C108.31,15.52 108.30,15.54 108.29,15.56C108.27,15.58 108.25,15.60 108.21,15.61C108.18,15.63 108.13,15.64 108.08,15.64C108.02,15.65 107.95,15.65 107.86,15.65C107.78,15.65 107.71,15.65 107.65,15.64C107.59,15.64 107.54,15.63 107.51,15.61C107.48,15.60 107.45,15.58 107.44,15.56C107.43,15.54 107.42,15.52 107.42,15.49L107.42,12.55C107.42,12.35 107.40,12.16 107.36,11.99C107.32,11.82 107.26,11.68 107.19,11.56C107.11,11.43 107.01,11.34 106.89,11.28C106.77,11.21 106.63,11.18 106.46,11.18C106.26,11.18 106.05,11.26 105.84,11.42C105.64,11.57 105.41,11.80 105.17,12.11L105.17,15.49C105.17,15.52 105.16,15.54 105.14,15.56C105.13,15.58 105.11,15.60 105.08,15.61C105.04,15.63 105.00,15.64 104.94,15.64C104.88,15.65 104.81,15.65 104.72,15.65C104.63,15.65 104.56,15.65 104.50,15.64C104.45,15.64 104.40,15.63 104.37,15.61C104.33,15.60 104.31,15.58 104.30,15.56C104.29,15.54 104.28,15.52 104.28,15.49L104.28,10.65C104.28,10.62 104.29,10.60 104.30,10.58C104.31,10.56 104.33,10.54 104.36,10.53C104.39,10.51 104.43,10.50 104.48,10.49C104.53,10.49 104.60,10.49 104.68,10.49C104.76,10.49 104.83,10.49 104.88,10.49C104.93,10.50 104.97,10.51 105.00,10.53C105.03,10.54 105.05,10.56 105.06,10.58C105.07,10.60 105.08,10.62 105.08,10.65L105.08,11.29C105.35,10.99 105.62,10.77 105.87,10.62C106.13,10.48 106.39,10.41 106.65,10.41C106.85,10.41 107.03,10.44 107.19,10.48C107.35,10.53 107.49,10.59 107.61,10.68C107.73,10.76 107.83,10.86 107.92,10.98C108.01,11.09 108.08,11.22 108.14,11.37C108.30,11.19 108.45,11.04 108.60,10.92C108.74,10.80 108.88,10.70 109.01,10.63C109.15,10.55 109.28,10.50 109.41,10.46C109.53,10.43 109.66,10.41 109.79,10.41C110.10,10.41 110.36,10.47 110.57,10.58C110.79,10.68 110.96,10.83 111.09,11.01C111.22,11.20 111.31,11.41 111.37,11.66C111.42,11.90 111.45,12.16 111.45,12.43L111.45,15.49Z" fill="currentColor" stroke="currentColor" stroke-width="1.2" stroke-linejoin="round" />
  <path d="M114.86,12.74C114.86,13.14 114.84,13.54 114.78,13.94C114.73,14.33 114.66,14.72 114.56,15.11C114.46,15.50 114.34,15.88 114.19,16.25C114.05,16.63 113.88,17.00 113.68,17.36C113.67,17.38 113.66,17.40 113.64,17.41C113.61,17.42 113.59,17.44 113.55,17.45C113.52,17.46 113.48,17.47 113.43,17.47C113.39,17.47 113.33,17.47 113.27,17.47C113.17,17.47 113.10,17.47 113.05,17.46C113.00,17.45 112.96,17.44 112.94,17.42C112.91,17.40 112.90,17.37 112.90,17.34C112.91,17.31 112.92,17.28 112.93,17.23C113.26,16.51 113.51,15.77 113.68,15.01C113.85,14.25 113.93,13.49 113.93,12.72C113.93,11.95 113.85,11.19 113.68,10.44C113.51,9.68 113.26,8.94 112.92,8.22C112.91,8.19 112.90,8.16 112.91,8.13C112.91,8.10 112.92,8.08 112.95,8.06C112.98,8.04 113.02,8.03 113.07,8.02C113.12,8.01 113.19,8.00 113.27,8.00C113.35,8.00 113.41,8.00 113.46,8.01C113.51,8.01 113.55,8.02 113.58,8.03C113.61,8.04 113.63,8.05 113.65,8.06C113.66,8.08 113.67,8.09 113.68,8.10C114.05,8.84 114.34,9.59 114.55,10.37C114.76,11.14 114.86,11.93 114.86,12.74Z" fill="currentColor" stroke="currentColor" stroke-width="1.2" stroke-linejoin="round" />
  <line x1="56.40" y1="90.75" x2="57.11" y2="90.14" fill="none" stroke="currentColor" stroke-width="1.6" stroke-linecap="round" stroke-linejoin="round" />
  <line x1="57.11" y1="90.14" x2="58.51" y2="94.96" fill="none" stroke="currentColor" stroke-width="1.6" stroke-linecap="round" stroke-linejoin="round" />
  <line x1="58.50" y1="94.96" x2="62.59" y2="83.61" fill="none" stroke="currentColor" stroke-width="1.5760000467300415" stroke-linecap="round" stroke-linejoin="round" />
  <line x1="62.59" y1="83.61" x2="70.17" y2="83.61" fill="none" stroke="currentColor" stroke-width="1.5760000467300415" stroke-linecap="round" stroke-linejoin="round" />
  <text x="62.79" y="96.71" font-size="11.0" fill="currentColor" stroke="none" font-family="'Iowan Old Style', 'Sitka Text', Charter, Cambria, Georgia, serif">3</text>
</svg>