<svg xmlns="http://www.w3.org/2000/svg" viewBox="0 0 220.45 122.43" preserveAspectRatio="xMidYMid meet" shape-rendering="geometricPrecision" text-rendering="optimizeLegibility">
  <line x1="126.38" y1="91.48" x2="126.38" y2="8.00" fill="none" stroke="currentColor" stroke-width="1.4000000476837158" stroke-linecap="round" stroke-linejoin="round" />
  <rect x="116.86" y="81.81" width="9.48" height="9.48" fill="none" stroke="currentColor" stroke-width="1.0" stroke-linecap="round" stroke-linejoin="round" />
  <path d="M46.34,42.99L43.00,42.99L43.00,46.90C43.41,46.80 43.78,46.77 44.11,46.80C44.43,46.84 44.71,46.92 44.94,47.05C45.16,47.18 45.33,47.35 45.45,47.55C45.57,47.75 45.63,47.98 45.63,48.22C45.63,48.47 45.56,48.69 45.42,48.90C45.28,49.10 45.09,49.26 44.86,49.38C44.62,49.51 44.37,49.57 44.08,49.57C43.80,49.57 43.53,49.52 43.26,49.43C42.98,49.34 42.71,49.20 42.44,49.02L42.44,50.13C42.65,50.24 42.86,50.33 43.05,50.40C43.25,50.47 43.45,50.52 43.64,50.55C43.84,50.58 44.04,50.59 44.26,50.59C44.73,50.59 45.16,50.49 45.52,50.28C45.89,50.07 46.18,49.79 46.39,49.43C46.60,49.07 46.71,48.66 46.71,48.20C46.71,47.85 46.65,47.53 46.52,47.23C46.40,46.93 46.22,46.68 45.98,46.46C45.74,46.25 45.46,46.08 45.12,45.97C44.79,45.86 44.41,45.82 43.98,45.84L43.98,43.96L46.34,43.96L46.34,42.99Z" fill="currentColor" stroke="currentColor" stroke-width="1.2" stroke-linejoin="round" />
  <path d="M54.49,45.80C54.34,45.73 54.18,45.67 54.04,45.62C53.89,45.57 53.74,45.53 53.58,45.50C53.43,45.47 53.25,45.46 53.06,45.46C52.56,45.46 52.13,45.57 51.76,45.79C51.40,46.00 51.12,46.31 50.92,46.71C50.72,47.10 50.62,47.57 50.62,48.12C50.62,48.61 50.73,49.04 50.94,49.41C51.15,49.78 51.45,50.07 51.82,50.27C52.20,50.48 52.63,50.59 53.13,50.59C53.30,50.59 53.48,50.58 53.67,50.55C53.85,50.53 54.03,50.49 54.19,50.45C54.35,50.41 54.49,50.36 54.60,50.31L54.60,49.34C54.36,49.45 54.13,49.53 53.92,49.59C53.71,49.64 53.50,49.67 53.29,49.67C52.95,49.67 52.66,49.60 52.41,49.47C52.16,49.34 51.97,49.15 51.83,48.91C51.69,48.67 51.62,48.37 51.62,48.03C51.62,47.69 51.69,47.40 51.81,47.15C51.94,46.90 52.12,46.71 52.34,46.57C52.57,46.43 52.83,46.36 53.13,46.36C53.27,46.36 53.41,46.37 53.55,46.40C53.69,46.43 53.83,46.48 53.99,46.55C54.14,46.62 54.31,46.72 54.49,46.84L54.49,45.80Z" fill="currentColor" stroke="currentColor" stroke-width="1.2" stroke-linejoin="round" />
  <path d="M55.63,45.56L55.63,50.49L56.61,50.49L56.61,46.91C56.75,46.75 56.88,46.63 57.00,46.54C57.13,46.44 57.26,46.38 57.40,46.34C57.53,46.30 57.68,46.28 57.85,46.28C58.01,46.28 58.16,46.32 58.29,46.40C58.42,46.48 58.53,46.60 58.61,46.77C58.69,46.94 58.73,47.16 58.74,47.43L58.74,50.49L59.72,50.49L59.72,46.91C59.89,46.72 60.08,46.57 60.28,46.45C60.47,46.34 60.65,46.28 60.81,46.28C61.00,46.28 61.18,46.33 61.33,46.41C61.48,46.50 61.61,46.63 61.70,46.80C61.79,46.98 61.84,47.19 61.84,47.44L61.84,50.49L62.82,50.49L62.82,47.39C62.82,47.00 62.75,46.66 62.61,46.37C62.48,46.08 62.29,45.86 62.05,45.70C61.80,45.54 61.51,45.46 61.18,45.46C60.94,45.46 60.73,45.50 60.53,45.58C60.34,45.66 60.16,45.77 59.99,45.90C59.82,46.04 59.67,46.18 59.53,46.35C59.36,46.05 59.15,45.83 58.90,45.68C58.65,45.53 58.37,45.46 58.05,45.46C57.82,45.46 57.59,45.52 57.35,45.64C57.11,45.76 56.87,45.95 56.61,46.20L56.61,45.56L55.63,45.56Z" fill="currentColor" stroke="currentColor" stroke-width="1.2" stroke-linejoin="round" />
  <path d="M178.17,45.65L177.01,45.65L175.72,47.31L174.94,45.65L173.94,45.65L175.11,47.97L172.95,50.58L174.10,50.58L175.53,48.74L176.43,50.58L177.43,50.58L176.17,48.09L178.17,45.65Z" fill="currentColor" stroke="currentColor" stroke-width="1.2" stroke-linejoin="round" />
  <path d="M60.43,106.73L59.97,106.73L56.18,111.37L56.18,111.86L59.36,111.86L59.36,114.33L60.43,114.33L60.43,111.86L61.24,111.86L61.24,110.90L60.43,110.90L60.43,106.73ZM59.33,108.76L59.36,108.76L59.36,110.90L57.62,110.90L59.33,108.76Z" fill="currentColor" stroke="currentColor" stroke-width="1.2" stroke-linejoin="round" />
  <path d="M68.93,109.63C68.78,109.56 68.63,109.50 68.48,109.45C68.33,109.40 68.18,109.36 68.02,109.33C67.87,109.31 67.69,109.29 67.51,109.29C67.00,109.29 66.57,109.40 66.21,109.62C65.84,109.84 65.56,110.14 65.36,110.54C65.17,110.94 65.07,111.41 65.06,111.95C65.07,112.44 65.18,112.87 65.39,113.24C65.60,113.61 65.89,113.90 66.27,114.11C66.64,114.32 67.08,114.42 67.57,114.43C67.75,114.43 67.93,114.41 68.11,114.39C68.29,114.36 68.47,114.33 68.63,114.29C68.79,114.24 68.93,114.20 69.04,114.14L69.04,113.18C68.80,113.29 68.57,113.37 68.36,113.42C68.15,113.48 67.94,113.51 67.74,113.51C67.40,113.51 67.10,113.44 66.85,113.31C66.60,113.18 66.41,112.99 66.27,112.75C66.14,112.50 66.07,112.21 66.06,111.87C66.07,111.53 66.13,111.24 66.26,110.99C66.38,110.74 66.56,110.54 66.79,110.40C67.01,110.27 67.27,110.20 67.57,110.19C67.71,110.19 67.85,110.21 67.99,110.24C68.13,110.27 68.27,110.32 68.43,110.39C68.58,110.46 68.75,110.55 68.93,110.68L68.93,109.63Z" fill="currentColor" stroke="currentColor" stroke-width="1.2" stroke-linejoin="round" />
  <path d="M70.08,109.39L70.08,114.33L71.06,114.33L71.06,110.74C71.19,110.59 71.32,110.46 71.45,110.37C71.57,110.28 71.70,110.21 71.84,110.17C71.98,110.13 72.12,110.11 72.29,110.12C72.45,110.12 72.60,110.15 72.74,110.23C72.87,110.31 72.98,110.44 73.06,110.61C73.14,110.78 73.18,110.99 73.18,111.26L73.18,114.33L74.16,114.33L74.16,110.74C74.34,110.56 74.53,110.41 74.72,110.29C74.92,110.17 75.10,110.11 75.26,110.12C75.45,110.12 75.62,110.16 75.77,110.25C75.93,110.34 76.05,110.47 76.14,110.64C76.23,110.81 76.28,111.02 76.28,111.27L76.28,114.33L77.26,114.33L77.26,111.23C77.26,110.84 77.19,110.50 77.06,110.21C76.92,109.92 76.74,109.69 76.49,109.53C76.25,109.37 75.96,109.29 75.62,109.29C75.39,109.29 75.17,109.33 74.98,109.42C74.78,109.50 74.60,109.60 74.43,109.74C74.27,109.87 74.11,110.02 73.97,110.18C73.81,109.89 73.60,109.67 73.35,109.52C73.10,109.37 72.81,109.29 72.50,109.29C72.27,109.29 72.03,109.35 71.79,109.48C71.56,109.60 71.31,109.79 71.06,110.04L71.06,109.39L70.08,109.39Z" fill="currentColor" stroke="currentColor" stroke-width="1.2" stroke-linejoin="round" />
  <path d="M159.87,108.07C160.04,108.00 160.20,107.93 160.34,107.89C160.48,107.84 160.62,107.81 160.75,107.78C160.88,107.76 161.01,107.75 161.15,107.75C161.41,107.75 161.64,107.80 161.83,107.89C162.03,107.98 162.18,108.11 162.28,108.28C162.39,108.44 162.44,108.64 162.44,108.87C162.44,109.22 162.32,109.48 162.07,109.67C161.83,109.86 161.45,109.96 160.96,109.96L160.96,110.95C161.32,110.94 161.61,110.98 161.85,111.09C162.09,111.20 162.27,111.35 162.39,111.54C162.51,111.74 162.57,111.96 162.57,112.21C162.56,112.45 162.51,112.66 162.42,112.84C162.32,113.02 162.18,113.16 162.00,113.26C161.82,113.35 161.60,113.40 161.35,113.41C161.08,113.41 160.80,113.36 160.53,113.26C160.25,113.17 159.97,113.03 159.68,112.83L159.68,114.00C159.95,114.14 160.22,114.24 160.49,114.32C160.76,114.39 161.02,114.43 161.28,114.43C161.74,114.43 162.15,114.33 162.51,114.14C162.86,113.95 163.14,113.68 163.34,113.34C163.54,113.00 163.64,112.60 163.64,112.15C163.64,111.89 163.60,111.64 163.53,111.40C163.45,111.16 163.33,110.95 163.18,110.76C163.02,110.58 162.81,110.45 162.57,110.37C162.79,110.25 162.98,110.11 163.12,109.95C163.26,109.80 163.36,109.62 163.42,109.41C163.49,109.21 163.52,108.96 163.52,108.69C163.52,108.29 163.43,107.94 163.25,107.65C163.07,107.36 162.81,107.13 162.48,106.97C162.15,106.81 161.76,106.73 161.31,106.73C161.03,106.73 160.78,106.76 160.55,106.81C160.32,106.86 160.09,106.94 159.87,107.05L159.87,108.07Z" fill="currentColor" stroke="currentColor" stroke-width="1.2" stroke-linejoin="round" />
  <path d="M171.86,109.63C171.70,109.56 171.55,109.50 171.41,109.45C171.26,109.40 171.11,109.36 170.95,109.33C170.79,109.31 170.62,109.29 170.43,109.29C169.93,109.29 169.50,109.40 169.13,109.62C168.77,109.84 168.49,110.14 168.29,110.54C168.09,110.94 167.99,111.41 167.99,111.95C167.99,112.44 168.10,112.87 168.31,113.24C168.52,113.61 168.82,113.90 169.19,114.11C169.57,114.32 170.00,114.42 170.49,114.43C170.67,114.43 170.85,114.41 171.03,114.39C171.22,114.36 171.39,114.33 171.56,114.29C171.72,114.24 171.86,114.20 171.97,114.14L171.97,113.18C171.72,113.29 171.50,113.37 171.29,113.42C171.08,113.48 170.87,113.51 170.66,113.51C170.32,113.51 170.03,113.44 169.78,113.31C169.53,113.18 169.33,112.99 169.20,112.75C169.06,112.50 168.99,112.21 168.99,111.87C168.99,111.53 169.06,111.24 169.18,110.99C169.31,110.74 169.48,110.54 169.71,110.40C169.93,110.27 170.20,110.20 170.49,110.19C170.64,110.19 170.78,110.21 170.92,110.24C171.05,110.27 171.20,110.32 171.35,110.39C171.51,110.46 171.67,110.55 171.86,110.68L171.86,109.63Z" fill="currentColor" stroke="currentColor" stroke-width="1.2" stroke-linejoin="round" />
  <path d="M173.00,109.39L173.00,114.33L173.98,114.33L173.98,110.74C174.12,110.59 174.25,110.46 174.37,110.37C174.50,110.28 174.63,110.21 174.76,110.17C174.90,110.13 175.05,110.11 175.21,110.12C175.38,110.12 175.52,110.15 175.66,110.23C175.79,110.31 175.90,110.44 175.98,110.61C176.06,110.78 176.10,110.99 176.10,111.26L176.10,114.33L177.08,114.33L177.08,110.74C177.26,110.56 177.45,110.41 177.65,110.29C177.84,110.17 178.02,110.11 178.18,110.12C178.37,110.12 178.54,110.16 178.70,110.25C178.85,110.34 178.97,110.47 179.06,110.64C179.16,110.81 179.20,111.02 179.21,111.27L179.21,114.33L180.18,114.33L180.18,111.23C180.18,110.84 180.12,110.50 179.98,110.21C179.85,109.92 179.66,109.69 179.42,109.53C179.17,109.37 178.88,109.29 178.55,109.29C178.31,109.29 178.10,109.33 177.90,109.42C177.70,109.50 177.52,109.60 177.36,109.74C177.19,109.87 177.04,110.02 176.90,110.18C176.73,109.89 176.52,109.67 176.27,109.52C176.02,109.37 175.74,109.29 175.42,109.29C175.19,109.29 174.96,109.35 174.72,109.48C174.48,109.60 174.23,109.79 173.98,110.04L173.98,109.39L173.00,109.39Z" fill="currentColor" stroke="currentColor" stroke-width="1.2" stroke-linejoin="round" />
  <line x1="8.00" y1="92.07" x2="8.00" y2="107.91" fill="none" stroke="currentColor" stroke-width="1.0" stroke-linecap="round" stroke-linejoin="round" />
  <line x1="126.37" y1="92.07" x2="126.37" y2="107.91" fill="none" stroke="currentColor" stroke-width="1.0" stroke-linecap="round" stroke-linejoin="round" />
  <line x1="212.45" y1="92.07" x2="212.45" y2="107.91" fill="none" stroke="currentColor" stroke-width="1.0" stroke-linecap="round" stroke-linejoin="round" />
  <line x1="131.65" y1="102.40" x2="207.10" y2="102.40" fill="none" stroke="currentColor" stroke-width="1.0" stroke-linecap="round" stroke-linejoin="round" />
  <path d="M132.59,104.28L131.96,102.40L132.59,100.53L126.96,102.40L132.59,104.28Z" fill-rule="evenodd" fill="currentColor" stroke="currentColor" stroke-width="1.2" stroke-linejoin="round" />
  <path d="M206.16,100.53L206.79,102.40L206.16,104.28L211.79,102.40L206.16,100.53Z" fill-rule="evenodd" fill="currentColor" stroke="currentColor" stroke-width="1.2" stroke-linejoin="round" />
  <line x1="13.21" y1="102.40" x2="121.23" y2="102.40" fill="none" stroke="currentColor" stroke-width="1.0" stroke-linecap="round" stroke-linejoin="round" />
  <path d="M14.15,104.28L13.52,102.40L14.15,100.53L8.52,102.40L14.15,104.28Z" fill-rule="evenodd" fill="currentColor" stroke="currentColor" stroke-width="1.2" stroke-linejoin="round" />
  <path d="M120.29,100.53L120.92,102.40L120.29,104.28L125.92,102.40L120.29,100.53Z" fill-rule="evenodd" fill="currentColor" stroke="currentColor" stroke-width="1.2" stroke-linejoin="round" />
  <line x1="9.62" y1="91.48" x2="211.23" y2="91.48" fill="none" stroke="currentColor" stroke-width="1.4000000476837158" stroke-linecap="round" stroke-linejoin="round" />
  <line x1="211.23" y1="91.48" x2="126.38" y2="8.00" fill="none" stroke="currentColor" stroke-width="1.4000000476837158" stroke-linecap="round" stroke-linejoin="round" />
  <line x1="126.38" y1="8.00" x2="9.62" y2="91.48" fill="none" stroke="currentColor" stroke-width="1.4000000476837158" stroke-linecap="round" stroke-linejoin="round" />
</svg>