<svg xmlns="http://www.w3.org/2000/svg" viewBox="0 0 166.46 111.31" preserveAspectRatio="xMidYMid meet" shape-rendering="geometricPrecision" text-rendering="optimizeLegibility">
  <path d="M85.03,8.08 C85.10,8.03 85.18,8.00 85.26,8.00" fill="currentColor" stroke="currentColor" stroke-width="1.2" stroke-linecap="round" stroke-linejoin="round" />
  <line x1="85.26" y1="8.00" x2="86.83" y2="8.00" fill="currentColor" stroke="currentColor" stroke-width="1.2" stroke-linecap="round" stroke-linejoin="round" />
  <path d="M86.83,8.00 C87.44,8.00 87.94,8.08 88.36,8.23" fill="currentColor" stroke="currentColor" stroke-width="1.2" stroke-linecap="round" stroke-linejoin="round" />
  <path d="M84.92,8.38 C84.92,8.24 84.95,8.14 85.03,8.08" fill="currentColor" stroke="currentColor" stroke-width="1.2" stroke-linecap="round" stroke-linejoin="round" />
  <path d="M88.36,8.23 C88.77,8.39 89.12,8.61 89.40,8.90" fill="currentColor" stroke="currentColor" stroke-width="1.2" stroke-linecap="round" stroke-linejoin="round" />
  <line x1="84.92" y1="14.57" x2="84.92" y2="8.38" fill="currentColor" stroke="currentColor" stroke-width="1.2" stroke-linecap="round" stroke-linejoin="round" />
  <path d="M87.96,8.97 C87.65,8.83 87.26,8.77 86.78,8.77" fill="currentColor" stroke="currentColor" stroke-width="1.2" stroke-linecap="round" stroke-linejoin="round" />
  <line x1="86.78" y1="8.77" x2="85.84" y2="8.77" fill="currentColor" stroke="currentColor" stroke-width="1.2" stroke-linecap="round" stroke-linejoin="round" />
  <line x1="85.84" y1="8.77" x2="85.84" y2="14.18" fill="currentColor" stroke="currentColor" stroke-width="1.2" stroke-linecap="round" stroke-linejoin="round" />
  <path d="M89.40,8.90 C89.68,9.20 89.90,9.55 90.04,9.97" fill="currentColor" stroke="currentColor" stroke-width="1.2" stroke-linecap="round" stroke-linejoin="round" />
  <path d="M88.71,9.52 C88.51,9.28 88.26,9.10 87.96,8.97" fill="currentColor" stroke="currentColor" stroke-width="1.2" stroke-linecap="round" stroke-linejoin="round" />
  <path d="M89.15,10.36 C89.06,10.04 88.91,9.76 88.71,9.52" fill="currentColor" stroke="currentColor" stroke-width="1.2" stroke-linecap="round" stroke-linejoin="round" />
  <path d="M90.04,9.97 C90.19,10.38 90.26,10.85 90.26,11.37" fill="currentColor" stroke="currentColor" stroke-width="1.2" stroke-linecap="round" stroke-linejoin="round" />
  <path d="M89.29,11.41 C89.29,11.04 89.24,10.68 89.15,10.36" fill="currentColor" stroke="currentColor" stroke-width="1.2" stroke-linecap="round" stroke-linejoin="round" />
  <path d="M90.26,11.37 C90.26,11.97 90.18,12.50 90.03,12.95" fill="currentColor" stroke="currentColor" stroke-width="1.2" stroke-linecap="round" stroke-linejoin="round" />
  <path d="M89.14,12.64 C89.24,12.29 89.29,11.88 89.29,11.41" fill="currentColor" stroke="currentColor" stroke-width="1.2" stroke-linecap="round" stroke-linejoin="round" />
  <path d="M9.59,11.83 C9.67,11.78 9.75,11.75 9.83,11.75" fill="currentColor" stroke="currentColor" stroke-width="1.2" stroke-linecap="round" stroke-linejoin="round" />
  <line x1="9.83" y1="11.75" x2="13.13" y2="11.75" fill="currentColor" stroke="currentColor" stroke-width="1.2" stroke-linecap="round" stroke-linejoin="round" />
  <path d="M13.13,11.75 C13.15,11.75 13.18,11.76 13.20,11.77" fill="currentColor" stroke="currentColor" stroke-width="1.2" stroke-linecap="round" stroke-linejoin="round" />
  <path d="M13.20,11.77 C13.23,11.79 13.25,11.81 13.26,11.84" fill="currentColor" stroke="currentColor" stroke-width="1.2" stroke-linecap="round" stroke-linejoin="round" />
  <path d="M9.48,12.13 C9.48,11.99 9.52,11.89 9.59,11.83" fill="currentColor" stroke="currentColor" stroke-width="1.2" stroke-linecap="round" stroke-linejoin="round" />
  <path d="M13.26,11.84 C13.28,11.87 13.29,11.91 13.29,11.96" fill="currentColor" stroke="currentColor" stroke-width="1.2" stroke-linecap="round" stroke-linejoin="round" />
  <path d="M13.29,11.96 C13.30,12.01 13.31,12.07 13.31,12.14" fill="currentColor" stroke="currentColor" stroke-width="1.2" stroke-linecap="round" stroke-linejoin="round" />
  <line x1="9.48" y1="18.32" x2="9.48" y2="12.13" fill="currentColor" stroke="currentColor" stroke-width="1.2" stroke-linecap="round" stroke-linejoin="round" />
  <path d="M13.31,12.14 C13.31,12.21 13.30,12.26 13.29,12.31" fill="currentColor" stroke="currentColor" stroke-width="1.2" stroke-linecap="round" stroke-linejoin="round" />
  <path d="M13.29,12.31 C13.29,12.36 13.28,12.40 13.26,12.43" fill="currentColor" stroke="currentColor" stroke-width="1.2" stroke-linecap="round" stroke-linejoin="round" />
  <path d="M13.26,12.43 C13.25,12.46 13.23,12.48 13.20,12.50" fill="currentColor" stroke="currentColor" stroke-width="1.2" stroke-linecap="round" stroke-linejoin="round" />
  <path d="M13.20,12.50 C13.18,12.51 13.15,12.52 13.13,12.52" fill="currentColor" stroke="currentColor" stroke-width="1.2" stroke-linecap="round" stroke-linejoin="round" />
  <line x1="13.13" y1="12.52" x2="10.41" y2="12.52" fill="currentColor" stroke="currentColor" stroke-width="1.2" stroke-linecap="round" stroke-linejoin="round" />
  <line x1="10.41" y1="12.52" x2="10.41" y2="14.70" fill="currentColor" stroke="currentColor" stroke-width="1.2" stroke-linecap="round" stroke-linejoin="round" />
  <path d="M88.67,13.50 C88.88,13.27 89.03,12.98 89.14,12.64" fill="currentColor" stroke="currentColor" stroke-width="1.2" stroke-linecap="round" stroke-linejoin="round" />
  <path d="M90.03,12.95 C89.88,13.40 89.65,13.77 89.36,14.07" fill="currentColor" stroke="currentColor" stroke-width="1.2" stroke-linecap="round" stroke-linejoin="round" />
  <path d="M87.91,14.01 C88.22,13.90 88.47,13.73 88.67,13.50" fill="currentColor" stroke="currentColor" stroke-width="1.2" stroke-linecap="round" stroke-linejoin="round" />
  <path d="M86.79,14.18 C87.23,14.18 87.61,14.12 87.91,14.01" fill="currentColor" stroke="currentColor" stroke-width="1.2" stroke-linecap="round" stroke-linejoin="round" />
  <path d="M89.36,14.07 C89.06,14.36 88.70,14.58 88.27,14.73" fill="currentColor" stroke="currentColor" stroke-width="1.2" stroke-linecap="round" stroke-linejoin="round" />
  <line x1="85.84" y1="14.18" x2="86.79" y2="14.18" fill="currentColor" stroke="currentColor" stroke-width="1.2" stroke-linecap="round" stroke-linejoin="round" />
  <path d="M85.03,14.87 C84.95,14.81 84.92,14.71 84.92,14.57" fill="currentColor" stroke="currentColor" stroke-width="1.2" stroke-linecap="round" stroke-linejoin="round" />
  <line x1="10.41" y1="14.70" x2="12.74" y2="14.70" fill="currentColor" stroke="currentColor" stroke-width="1.2" stroke-linecap="round" stroke-linejoin="round" />
  <path d="M12.74,14.70 C12.77,14.70 12.79,14.71 12.82,14.72" fill="currentColor" stroke="currentColor" stroke-width="1.2" stroke-linecap="round" stroke-linejoin="round" />
  <path d="M12.82,14.72 C12.84,14.74 12.86,14.76 12.88,14.79" fill="currentColor" stroke="currentColor" stroke-width="1.2" stroke-linecap="round" stroke-linejoin="round" />
  <path d="M88.27,14.73 C87.84,14.88 87.33,14.95 86.73,14.95" fill="currentColor" stroke="currentColor" stroke-width="1.2" stroke-linecap="round" stroke-linejoin="round" />
  <path d="M12.88,14.79 C12.89,14.82 12.90,14.86 12.91,14.91" fill="currentColor" stroke="currentColor" stroke-width="1.2" stroke-linecap="round" stroke-linejoin="round" />
  <path d="M85.26,14.95 C85.18,14.95 85.10,14.92 85.03,14.87" fill="currentColor" stroke="currentColor" stroke-width="1.2" stroke-linecap="round" stroke-linejoin="round" />
  <path d="M12.91,14.91 C12.92,14.96 12.92,15.02 12.92,15.09" fill="currentColor" stroke="currentColor" stroke-width="1.2" stroke-linecap="round" stroke-linejoin="round" />
  <line x1="86.73" y1="14.95" x2="85.26" y2="14.95" fill="currentColor" stroke="currentColor" stroke-width="1.2" stroke-linecap="round" stroke-linejoin="round" />
  <path d="M12.92,15.09 C12.92,15.15 12.92,15.21 12.91,15.25" fill="currentColor" stroke="currentColor" stroke-width="1.2" stroke-linecap="round" stroke-linejoin="round" />
  <path d="M12.91,15.25 C12.90,15.30 12.89,15.34 12.88,15.37" fill="currentColor" stroke="currentColor" stroke-width="1.2" stroke-linecap="round" stroke-linejoin="round" />
  <path d="M12.88,15.37 C12.86,15.39 12.84,15.41 12.82,15.43" fill="currentColor" stroke="currentColor" stroke-width="1.2" stroke-linecap="round" stroke-linejoin="round" />
  <path d="M12.82,15.43 C12.79,15.44 12.77,15.45 12.74,15.45" fill="currentColor" stroke="currentColor" stroke-width="1.2" stroke-linecap="round" stroke-linejoin="round" />
  <line x1="12.74" y1="15.45" x2="10.41" y2="15.45" fill="currentColor" stroke="currentColor" stroke-width="1.2" stroke-linecap="round" stroke-linejoin="round" />
  <line x1="10.41" y1="15.45" x2="10.41" y2="17.93" fill="currentColor" stroke="currentColor" stroke-width="1.2" stroke-linecap="round" stroke-linejoin="round" />
  <line x1="10.41" y1="17.93" x2="13.16" y2="17.93" fill="currentColor" stroke="currentColor" stroke-width="1.2" stroke-linecap="round" stroke-linejoin="round" />
  <path d="M13.16,17.93 C13.19,17.93 13.22,17.94 13.24,17.95" fill="currentColor" stroke="currentColor" stroke-width="1.2" stroke-linecap="round" stroke-linejoin="round" />
  <path d="M13.24,17.95 C13.26,17.97 13.29,17.99 13.30,18.02" fill="currentColor" stroke="currentColor" stroke-width="1.2" stroke-linecap="round" stroke-linejoin="round" />
  <path d="M13.30,18.02 C13.32,18.05 13.33,18.09 13.34,18.14" fill="currentColor" stroke="currentColor" stroke-width="1.2" stroke-linecap="round" stroke-linejoin="round" />
  <path d="M13.34,18.14 C13.35,18.19 13.35,18.25 13.35,18.32" fill="currentColor" stroke="currentColor" stroke-width="1.2" stroke-linecap="round" stroke-linejoin="round" />
  <path d="M13.35,18.32 C13.35,18.38 13.35,18.44 13.34,18.49" fill="currentColor" stroke="currentColor" stroke-width="1.2" stroke-linecap="round" stroke-linejoin="round" />
  <path d="M9.59,18.62 C9.52,18.56 9.48,18.46 9.48,18.32" fill="currentColor" stroke="currentColor" stroke-width="1.2" stroke-linecap="round" stroke-linejoin="round" />
  <path d="M13.34,18.49 C13.33,18.54 13.32,18.58 13.30,18.61" fill="currentColor" stroke="currentColor" stroke-width="1.2" stroke-linecap="round" stroke-linejoin="round" />
  <path d="M13.30,18.61 C13.29,18.64 13.26,18.66 13.24,18.68" fill="currentColor" stroke="currentColor" stroke-width="1.2" stroke-linecap="round" stroke-linejoin="round" />
  <path d="M9.83,18.70 C9.75,18.70 9.67,18.67 9.59,18.62" fill="currentColor" stroke="currentColor" stroke-width="1.2" stroke-linecap="round" stroke-linejoin="round" />
  <path d="M13.24,18.68 C13.22,18.69 13.19,18.70 13.16,18.70" fill="currentColor" stroke="currentColor" stroke-width="1.2" stroke-linecap="round" stroke-linejoin="round" />
  <rect x="16.72" y="18.70" width="141.73" height="70.87" fill="none" stroke="currentColor" stroke-width="1.4000000476837158" stroke-linecap="round" stroke-linejoin="round" />
  <line x1="13.16" y1="18.70" x2="9.83" y2="18.70" fill="currentColor" stroke="currentColor" stroke-width="1.2" stroke-linecap="round" stroke-linejoin="round" />
  <line x1="87.59" y1="18.70" x2="16.72" y2="89.57" fill="none" stroke="currentColor" stroke-width="1.6" stroke-linecap="round" stroke-linejoin="round" />
  <line x1="87.60" y1="18.70" x2="158.46" y2="89.57" fill="none" stroke="currentColor" stroke-width="1.6" stroke-linecap="round" stroke-linejoin="round" />
  <path d="M97.81,28.93 C92.17,34.57 83.01,34.57 77.36,28.93" fill="none" stroke="currentColor" stroke-width="1.000000011920929" stroke-linecap="round" stroke-linejoin="round" />
  <path d="M85.55,36.59 C85.61,36.59 85.68,36.58 85.78,36.58" fill="currentColor" stroke="currentColor" stroke-width="1.2" stroke-linecap="round" stroke-linejoin="round" />
  <path d="M85.78,36.58 C85.87,36.58 85.94,36.59 86.00,36.59" fill="currentColor" stroke="currentColor" stroke-width="1.2" stroke-linecap="round" stroke-linejoin="round" />
  <path d="M89.01,36.59 C89.07,36.59 89.15,36.58 89.24,36.58" fill="currentColor" stroke="currentColor" stroke-width="1.2" stroke-linecap="round" stroke-linejoin="round" />
  <path d="M89.24,36.58 C89.33,36.58 89.40,36.59 89.45,36.59" fill="currentColor" stroke="currentColor" stroke-width="1.2" stroke-linecap="round" stroke-linejoin="round" />
  <path d="M85.42,36.62 C85.45,36.61 85.50,36.60 85.55,36.59" fill="currentColor" stroke="currentColor" stroke-width="1.2" stroke-linecap="round" stroke-linejoin="round" />
  <path d="M86.00,36.59 C86.06,36.60 86.10,36.61 86.13,36.62" fill="currentColor" stroke="currentColor" stroke-width="1.2" stroke-linecap="round" stroke-linejoin="round" />
  <path d="M88.86,36.62 C88.90,36.61 88.95,36.60 89.01,36.59" fill="currentColor" stroke="currentColor" stroke-width="1.2" stroke-linecap="round" stroke-linejoin="round" />
  <path d="M89.45,36.59 C89.51,36.60 89.55,36.60 89.58,36.61" fill="currentColor" stroke="currentColor" stroke-width="1.2" stroke-linecap="round" stroke-linejoin="round" />
  <path d="M89.58,36.61 C89.61,36.62 89.63,36.63 89.64,36.65" fill="currentColor" stroke="currentColor" stroke-width="1.2" stroke-linecap="round" stroke-linejoin="round" />
  <path d="M86.13,36.62 C86.16,36.63 86.18,36.65 86.19,36.67" fill="currentColor" stroke="currentColor" stroke-width="1.2" stroke-linecap="round" stroke-linejoin="round" />
  <path d="M88.77,36.67 C88.79,36.65 88.82,36.63 88.86,36.62" fill="currentColor" stroke="currentColor" stroke-width="1.2" stroke-linecap="round" stroke-linejoin="round" />
  <path d="M85.35,36.68 C85.37,36.66 85.39,36.64 85.42,36.62" fill="currentColor" stroke="currentColor" stroke-width="1.2" stroke-linecap="round" stroke-linejoin="round" />
  <path d="M89.64,36.65 C89.66,36.67 89.66,36.69 89.66,36.71" fill="currentColor" stroke="currentColor" stroke-width="1.2" stroke-linecap="round" stroke-linejoin="round" />
  <path d="M86.19,36.67 C86.20,36.70 86.21,36.72 86.22,36.76" fill="currentColor" stroke="currentColor" stroke-width="1.2" stroke-linecap="round" stroke-linejoin="round" />
  <path d="M88.73,36.76 C88.74,36.72 88.76,36.70 88.77,36.67" fill="currentColor" stroke="currentColor" stroke-width="1.2" stroke-linecap="round" stroke-linejoin="round" />
  <path d="M85.33,36.79 C85.33,36.74 85.34,36.71 85.35,36.68" fill="currentColor" stroke="currentColor" stroke-width="1.2" stroke-linecap="round" stroke-linejoin="round" />
  <path d="M89.66,36.71 C89.66,36.74 89.66,36.78 89.65,36.82" fill="currentColor" stroke="currentColor" stroke-width="1.2" stroke-linecap="round" stroke-linejoin="round" />
  <line x1="86.22" y1="36.76" x2="86.80" y2="40.74" fill="currentColor" stroke="currentColor" stroke-width="1.2" stroke-linecap="round" stroke-linejoin="round" />
  <path d="M88.32,37.92 C88.45,37.56 88.59,37.18 88.73,36.76" fill="currentColor" stroke="currentColor" stroke-width="1.2" stroke-linecap="round" stroke-linejoin="round" />
  <path d="M85.33,36.87 C85.33,36.84 85.33,36.81 85.33,36.79" fill="currentColor" stroke="currentColor" stroke-width="1.2" stroke-linecap="round" stroke-linejoin="round" />
  <path d="M89.65,36.82 C89.64,36.86 89.62,36.89 89.61,36.93" fill="currentColor" stroke="currentColor" stroke-width="1.2" stroke-linecap="round" stroke-linejoin="round" />
  <path d="M85.34,36.98 C85.34,36.94 85.33,36.90 85.33,36.87" fill="currentColor" stroke="currentColor" stroke-width="1.2" stroke-linecap="round" stroke-linejoin="round" />
  <path d="M89.61,36.93 C89.48,37.32 89.33,37.72 89.16,38.12" fill="currentColor" stroke="currentColor" stroke-width="1.2" stroke-linecap="round" stroke-linejoin="round" />
  <line x1="86.06" y1="41.56" x2="85.34" y2="36.98" fill="currentColor" stroke="currentColor" stroke-width="1.2" stroke-linecap="round" stroke-linejoin="round" />
  <path d="M87.89,38.92 C88.04,38.60 88.18,38.27 88.32,37.92" fill="currentColor" stroke="currentColor" stroke-width="1.2" stroke-linecap="round" stroke-linejoin="round" />
  <path d="M89.16,38.12 C89.00,38.52 88.81,38.91 88.61,39.31" fill="currentColor" stroke="currentColor" stroke-width="1.2" stroke-linecap="round" stroke-linejoin="round" />
  <path d="M87.40,39.85 C87.58,39.55 87.74,39.24 87.89,38.92" fill="currentColor" stroke="currentColor" stroke-width="1.2" stroke-linecap="round" stroke-linejoin="round" />
  <path d="M88.61,39.31 C88.41,39.71 88.18,40.09 87.94,40.48" fill="currentColor" stroke="currentColor" stroke-width="1.2" stroke-linecap="round" stroke-linejoin="round" />
  <path d="M86.82,40.77 C87.03,40.45 87.23,40.15 87.40,39.85" fill="currentColor" stroke="currentColor" stroke-width="1.2" stroke-linecap="round" stroke-linejoin="round" />
  <path d="M87.94,40.48 C87.70,40.86 87.44,41.22 87.15,41.58" fill="currentColor" stroke="currentColor" stroke-width="1.2" stroke-linecap="round" stroke-linejoin="round" />
  <line x1="86.80" y1="40.74" x2="86.80" y2="40.81" fill="currentColor" stroke="currentColor" stroke-width="1.2" stroke-linecap="round" stroke-linejoin="round" />
  <line x1="86.80" y1="40.81" x2="86.82" y2="40.77" fill="currentColor" stroke="currentColor" stroke-width="1.2" stroke-linecap="round" stroke-linejoin="round" />
  <path d="M86.08,41.65 C86.07,41.62 86.06,41.59 86.06,41.56" fill="currentColor" stroke="currentColor" stroke-width="1.2" stroke-linecap="round" stroke-linejoin="round" />
  <path d="M87.15,41.58 C87.13,41.62 87.10,41.65 87.06,41.67" fill="currentColor" stroke="currentColor" stroke-width="1.2" stroke-linecap="round" stroke-linejoin="round" />
  <path d="M86.17,41.71 C86.13,41.69 86.10,41.67 86.08,41.65" fill="currentColor" stroke="currentColor" stroke-width="1.2" stroke-linecap="round" stroke-linejoin="round" />
  <path d="M87.06,41.67 C87.03,41.69 86.99,41.71 86.95,41.72" fill="currentColor" stroke="currentColor" stroke-width="1.2" stroke-linecap="round" stroke-linejoin="round" />
  <path d="M86.32,41.74 C86.26,41.73 86.20,41.72 86.17,41.71" fill="currentColor" stroke="currentColor" stroke-width="1.2" stroke-linecap="round" stroke-linejoin="round" />
  <path d="M86.95,41.72 C86.90,41.73 86.85,41.74 86.80,41.75" fill="currentColor" stroke="currentColor" stroke-width="1.2" stroke-linecap="round" stroke-linejoin="round" />
  <path d="M86.59,41.75 C86.48,41.75 86.39,41.75 86.32,41.74" fill="currentColor" stroke="currentColor" stroke-width="1.2" stroke-linecap="round" stroke-linejoin="round" />
  <path d="M86.80,41.75 C86.74,41.75 86.67,41.75 86.59,41.75" fill="currentColor" stroke="currentColor" stroke-width="1.2" stroke-linecap="round" stroke-linejoin="round" />
  <path d="M10.71,88.69 C10.78,88.68 10.87,88.68 10.97,88.68" fill="currentColor" stroke="currentColor" stroke-width="1.2" stroke-linecap="round" stroke-linejoin="round" />
  <path d="M10.97,88.68 C11.09,88.68 11.18,88.68 11.26,88.69" fill="currentColor" stroke="currentColor" stroke-width="1.2" stroke-linecap="round" stroke-linejoin="round" />
  <path d="M10.54,88.72 C10.58,88.70 10.64,88.69 10.71,88.69" fill="currentColor" stroke="currentColor" stroke-width="1.2" stroke-linecap="round" stroke-linejoin="round" />
  <path d="M11.26,88.69 C11.33,88.69 11.39,88.70 11.44,88.72" fill="currentColor" stroke="currentColor" stroke-width="1.2" stroke-linecap="round" stroke-linejoin="round" />
  <path d="M10.44,88.78 C10.46,88.75 10.49,88.73 10.54,88.72" fill="currentColor" stroke="currentColor" stroke-width="1.2" stroke-linecap="round" stroke-linejoin="round" />
  <path d="M11.44,88.72 C11.49,88.73 11.52,88.75 11.55,88.78" fill="currentColor" stroke="currentColor" stroke-width="1.2" stroke-linecap="round" stroke-linejoin="round" />
  <path d="M10.38,88.87 C10.39,88.83 10.41,88.80 10.44,88.78" fill="currentColor" stroke="currentColor" stroke-width="1.2" stroke-linecap="round" stroke-linejoin="round" />
  <path d="M11.55,88.78 C11.57,88.81 11.59,88.84 11.61,88.88" fill="currentColor" stroke="currentColor" stroke-width="1.2" stroke-linecap="round" stroke-linejoin="round" />
  <line x1="8.05" y1="95.33" x2="10.38" y2="88.87" fill="currentColor" stroke="currentColor" stroke-width="1.2" stroke-linecap="round" stroke-linejoin="round" />
  <line x1="11.61" y1="88.88" x2="13.94" y2="95.33" fill="currentColor" stroke="currentColor" stroke-width="1.2" stroke-linecap="round" stroke-linejoin="round" />
  <line x1="10.95" y1="89.64" x2="10.94" y2="89.64" fill="currentColor" stroke="currentColor" stroke-width="1.2" stroke-linecap="round" stroke-linejoin="round" />
  <line x1="10.94" y1="89.64" x2="9.74" y2="93.10" fill="currentColor" stroke="currentColor" stroke-width="1.2" stroke-linecap="round" stroke-linejoin="round" />
  <line x1="12.16" y1="93.10" x2="10.95" y2="89.64" fill="currentColor" stroke="currentColor" stroke-width="1.2" stroke-linecap="round" stroke-linejoin="round" />
  <line x1="9.74" y1="93.10" x2="12.16" y2="93.10" fill="currentColor" stroke="currentColor" stroke-width="1.2" stroke-linecap="round" stroke-linejoin="round" />
  <line x1="13.00" y1="95.53" x2="12.40" y2="93.84" fill="currentColor" stroke="currentColor" stroke-width="1.2" stroke-linecap="round" stroke-linejoin="round" />
  <line x1="12.40" y1="93.84" x2="9.51" y2="93.84" fill="currentColor" stroke="currentColor" stroke-width="1.2" stroke-linecap="round" stroke-linejoin="round" />
  <line x1="9.51" y1="93.84" x2="8.94" y2="95.51" fill="currentColor" stroke="currentColor" stroke-width="1.2" stroke-linecap="round" stroke-linejoin="round" />
  <path d="M8.00,95.52 C8.00,95.47 8.02,95.41 8.05,95.33" fill="currentColor" stroke="currentColor" stroke-width="1.2" stroke-linecap="round" stroke-linejoin="round" />
  <path d="M13.94,95.33 C13.97,95.41 13.98,95.48 13.99,95.52" fill="currentColor" stroke="currentColor" stroke-width="1.2" stroke-linecap="round" stroke-linejoin="round" />
  <path d="M8.94,95.51 C8.93,95.54 8.92,95.57 8.90,95.59" fill="currentColor" stroke="currentColor" stroke-width="1.2" stroke-linecap="round" stroke-linejoin="round" />
  <path d="M8.04,95.63 C8.01,95.60 8.00,95.57 8.00,95.52" fill="currentColor" stroke="currentColor" stroke-width="1.2" stroke-linecap="round" stroke-linejoin="round" />
  <path d="M13.99,95.52 C13.99,95.57 13.97,95.61 13.94,95.63" fill="currentColor" stroke="currentColor" stroke-width="1.2" stroke-linecap="round" stroke-linejoin="round" />
  <path d="M13.05,95.61 C13.03,95.59 13.01,95.56 13.00,95.53" fill="currentColor" stroke="currentColor" stroke-width="1.2" stroke-linecap="round" stroke-linejoin="round" />
  <path d="M8.90,95.59 C8.88,95.61 8.86,95.63 8.82,95.65" fill="currentColor" stroke="currentColor" stroke-width="1.2" stroke-linecap="round" stroke-linejoin="round" />
  <path d="M13.12,95.66 C13.09,95.65 13.06,95.63 13.05,95.61" fill="currentColor" stroke="currentColor" stroke-width="1.2" stroke-linecap="round" stroke-linejoin="round" />
  <path d="M8.18,95.68 C8.11,95.67 8.07,95.65 8.04,95.63" fill="currentColor" stroke="currentColor" stroke-width="1.2" stroke-linecap="round" stroke-linejoin="round" />
  <path d="M13.94,95.63 C13.92,95.66 13.87,95.68 13.80,95.68" fill="currentColor" stroke="currentColor" stroke-width="1.2" stroke-linecap="round" stroke-linejoin="round" />
  <path d="M8.82,95.65 C8.79,95.66 8.74,95.68 8.68,95.68" fill="currentColor" stroke="currentColor" stroke-width="1.2" stroke-linecap="round" stroke-linejoin="round" />
  <path d="M13.27,95.69 C13.20,95.68 13.15,95.67 13.12,95.66" fill="currentColor" stroke="currentColor" stroke-width="1.2" stroke-linecap="round" stroke-linejoin="round" />
  <path d="M8.43,95.69 C8.33,95.69 8.25,95.69 8.18,95.68" fill="currentColor" stroke="currentColor" stroke-width="1.2" stroke-linecap="round" stroke-linejoin="round" />
  <path d="M13.80,95.68 C13.74,95.69 13.65,95.69 13.54,95.69" fill="currentColor" stroke="currentColor" stroke-width="1.2" stroke-linecap="round" stroke-linejoin="round" />
  <path d="M8.68,95.68 C8.62,95.69 8.53,95.69 8.43,95.69" fill="currentColor" stroke="currentColor" stroke-width="1.2" stroke-linecap="round" stroke-linejoin="round" />
  <path d="M13.54,95.69 C13.42,95.69 13.34,95.69 13.27,95.69" fill="currentColor" stroke="currentColor" stroke-width="1.2" stroke-linecap="round" stroke-linejoin="round" />
  <path d="M79.30,96.23 C79.38,96.23 79.47,96.22 79.58,96.22" fill="currentColor" stroke="currentColor" stroke-width="1.2" stroke-linecap="round" stroke-linejoin="round" />
  <path d="M79.58,96.22 C79.70,96.22 79.80,96.23 79.89,96.24" fill="currentColor" stroke="currentColor" stroke-width="1.2" stroke-linecap="round" stroke-linejoin="round" />
  <path d="M79.10,96.26 C79.16,96.25 79.22,96.24 79.30,96.23" fill="currentColor" stroke="currentColor" stroke-width="1.2" stroke-linecap="round" stroke-linejoin="round" />
  <path d="M79.89,96.24 C79.98,96.24 80.05,96.26 80.10,96.27" fill="currentColor" stroke="currentColor" stroke-width="1.2" stroke-linecap="round" stroke-linejoin="round" />
  <path d="M78.97,96.31 C79.01,96.29 79.05,96.27 79.10,96.26" fill="currentColor" stroke="currentColor" stroke-width="1.2" stroke-linecap="round" stroke-linejoin="round" />
  <path d="M80.10,96.27 C80.16,96.29 80.20,96.30 80.23,96.33" fill="currentColor" stroke="currentColor" stroke-width="1.2" stroke-linecap="round" stroke-linejoin="round" />
  <path d="M78.89,96.39 C78.91,96.36 78.94,96.34 78.97,96.31" fill="currentColor" stroke="currentColor" stroke-width="1.2" stroke-linecap="round" stroke-linejoin="round" />
  <path d="M80.23,96.33 C80.25,96.35 80.27,96.38 80.27,96.41" fill="currentColor" stroke="currentColor" stroke-width="1.2" stroke-linecap="round" stroke-linejoin="round" />
  <line x1="76.39" y1="100.61" x2="78.89" y2="96.39" fill="currentColor" stroke="currentColor" stroke-width="1.2" stroke-linecap="round" stroke-linejoin="round" />
  <line x1="80.27" y1="96.41" x2="80.27" y2="100.85" fill="currentColor" stroke="currentColor" stroke-width="1.2" stroke-linecap="round" stroke-linejoin="round" />
  <line x1="79.37" y1="97.03" x2="79.36" y2="97.03" fill="currentColor" stroke="currentColor" stroke-width="1.2" stroke-linecap="round" stroke-linejoin="round" />
  <line x1="79.36" y1="97.03" x2="77.10" y2="100.85" fill="currentColor" stroke="currentColor" stroke-width="1.2" stroke-linecap="round" stroke-linejoin="round" />
  <line x1="79.37" y1="100.85" x2="79.37" y2="97.03" fill="currentColor" stroke="currentColor" stroke-width="1.2" stroke-linecap="round" stroke-linejoin="round" />
  <path d="M91.13,98.21 C91.38,98.07 91.64,97.99 91.90,97.99" fill="currentColor" stroke="currentColor" stroke-width="1.2" stroke-linecap="round" stroke-linejoin="round" />
  <path d="M91.90,97.99 C92.10,97.99 92.28,98.02 92.44,98.06" fill="currentColor" stroke="currentColor" stroke-width="1.2" stroke-linecap="round" stroke-linejoin="round" />
  <path d="M94.66,98.05 C94.79,98.01 94.92,97.99 95.04,97.99" fill="currentColor" stroke="currentColor" stroke-width="1.2" stroke-linecap="round" stroke-linejoin="round" />
  <path d="M95.04,97.99 C95.36,97.99 95.62,98.05 95.83,98.16" fill="currentColor" stroke="currentColor" stroke-width="1.2" stroke-linecap="round" stroke-linejoin="round" />
  <path d="M85.91,98.16 C86.18,98.05 86.48,98.00 86.80,98.00" fill="currentColor" stroke="currentColor" stroke-width="1.2" stroke-linecap="round" stroke-linejoin="round" />
  <path d="M86.80,98.00 C86.95,98.00 87.10,98.01 87.25,98.04" fill="currentColor" stroke="currentColor" stroke-width="1.2" stroke-linecap="round" stroke-linejoin="round" />
  <path d="M87.25,98.04 C87.39,98.07 87.53,98.11 87.65,98.15" fill="currentColor" stroke="currentColor" stroke-width="1.2" stroke-linecap="round" stroke-linejoin="round" />
  <path d="M94.27,98.21 C94.40,98.13 94.53,98.08 94.66,98.05" fill="currentColor" stroke="currentColor" stroke-width="1.2" stroke-linecap="round" stroke-linejoin="round" />
  <path d="M92.44,98.06 C92.60,98.11 92.74,98.18 92.86,98.26" fill="currentColor" stroke="currentColor" stroke-width="1.2" stroke-linecap="round" stroke-linejoin="round" />
  <path d="M89.74,98.08 C89.79,98.07 89.85,98.07 89.94,98.07" fill="currentColor" stroke="currentColor" stroke-width="1.2" stroke-linecap="round" stroke-linejoin="round" />
  <path d="M89.94,98.07 C90.02,98.07 90.08,98.07 90.13,98.08" fill="currentColor" stroke="currentColor" stroke-width="1.2" stroke-linecap="round" stroke-linejoin="round" />
  <path d="M89.61,98.11 C89.65,98.09 89.69,98.08 89.74,98.08" fill="currentColor" stroke="currentColor" stroke-width="1.2" stroke-linecap="round" stroke-linejoin="round" />
  <path d="M90.13,98.08 C90.19,98.08 90.22,98.09 90.25,98.11" fill="currentColor" stroke="currentColor" stroke-width="1.2" stroke-linecap="round" stroke-linejoin="round" />
  <path d="M89.55,98.16 C89.56,98.14 89.58,98.13 89.61,98.11" fill="currentColor" stroke="currentColor" stroke-width="1.2" stroke-linecap="round" stroke-linejoin="round" />
  <path d="M90.25,98.11 C90.28,98.13 90.30,98.14 90.31,98.16" fill="currentColor" stroke="currentColor" stroke-width="1.2" stroke-linecap="round" stroke-linejoin="round" />
  <path d="M87.65,98.15 C87.77,98.20 87.88,98.26 87.97,98.32" fill="currentColor" stroke="currentColor" stroke-width="1.2" stroke-linecap="round" stroke-linejoin="round" />
  <path d="M85.20,98.64 C85.40,98.43 85.64,98.26 85.91,98.16" fill="currentColor" stroke="currentColor" stroke-width="1.2" stroke-linecap="round" stroke-linejoin="round" />
  <path d="M95.83,98.16 C96.04,98.27 96.21,98.41 96.34,98.60" fill="currentColor" stroke="currentColor" stroke-width="1.2" stroke-linecap="round" stroke-linejoin="round" />
  <path d="M89.53,98.24 C89.53,98.21 89.54,98.18 89.55,98.16" fill="currentColor" stroke="currentColor" stroke-width="1.2" stroke-linecap="round" stroke-linejoin="round" />
  <path d="M90.31,98.16 C90.33,98.18 90.33,98.21 90.33,98.24" fill="currentColor" stroke="currentColor" stroke-width="1.2" stroke-linecap="round" stroke-linejoin="round" />
  <path d="M90.33,98.88 C90.61,98.57 90.87,98.35 91.13,98.21" fill="currentColor" stroke="currentColor" stroke-width="1.2" stroke-linecap="round" stroke-linejoin="round" />
  <path d="M93.85,98.50 C93.99,98.38 94.13,98.28 94.27,98.21" fill="currentColor" stroke="currentColor" stroke-width="1.2" stroke-linecap="round" stroke-linejoin="round" />
  <line x1="89.53" y1="103.07" x2="89.53" y2="98.24" fill="currentColor" stroke="currentColor" stroke-width="1.2" stroke-linecap="round" stroke-linejoin="round" />
  <line x1="90.33" y1="98.24" x2="90.33" y2="98.88" fill="currentColor" stroke="currentColor" stroke-width="1.2" stroke-linecap="round" stroke-linejoin="round" />
  <path d="M92.86,98.26 C92.99,98.34 93.09,98.45 93.17,98.56" fill="currentColor" stroke="currentColor" stroke-width="1.2" stroke-linecap="round" stroke-linejoin="round" />
  <path d="M87.97,98.32 C88.07,98.38 88.14,98.43 88.18,98.47" fill="currentColor" stroke="currentColor" stroke-width="1.2" stroke-linecap="round" stroke-linejoin="round" />
  <path d="M88.18,98.47 C88.22,98.51 88.25,98.55 88.27,98.57" fill="currentColor" stroke="currentColor" stroke-width="1.2" stroke-linecap="round" stroke-linejoin="round" />
  <path d="M93.39,98.95 C93.55,98.78 93.70,98.63 93.85,98.50" fill="currentColor" stroke="currentColor" stroke-width="1.2" stroke-linecap="round" stroke-linejoin="round" />
  <path d="M93.17,98.56 C93.26,98.68 93.33,98.81 93.39,98.95" fill="currentColor" stroke="currentColor" stroke-width="1.2" stroke-linecap="round" stroke-linejoin="round" />
  <path d="M88.27,98.57 C88.28,98.60 88.30,98.63 88.31,98.66" fill="currentColor" stroke="currentColor" stroke-width="1.2" stroke-linecap="round" stroke-linejoin="round" />
  <path d="M96.34,98.60 C96.47,98.78 96.56,98.99 96.62,99.24" fill="currentColor" stroke="currentColor" stroke-width="1.2" stroke-linecap="round" stroke-linejoin="round" />
  <path d="M84.72,99.49 C84.83,99.14 84.99,98.86 85.20,98.64" fill="currentColor" stroke="currentColor" stroke-width="1.2" stroke-linecap="round" stroke-linejoin="round" />
  <path d="M88.31,98.66 C88.32,98.70 88.33,98.74 88.33,98.78" fill="currentColor" stroke="currentColor" stroke-width="1.2" stroke-linecap="round" stroke-linejoin="round" />
  <path d="M87.33,98.84 C87.18,98.78 87.00,98.75 86.79,98.75" fill="currentColor" stroke="currentColor" stroke-width="1.2" stroke-linecap="round" stroke-linejoin="round" />
  <path d="M86.79,98.75 C86.36,98.75 86.04,98.91 85.81,99.24" fill="currentColor" stroke="currentColor" stroke-width="1.2" stroke-linecap="round" stroke-linejoin="round" />
  <path d="M95.29,98.86 C95.16,98.80 95.02,98.76 94.86,98.76" fill="currentColor" stroke="currentColor" stroke-width="1.2" stroke-linecap="round" stroke-linejoin="round" />
  <path d="M94.86,98.76 C94.65,98.76 94.45,98.84 94.24,99.00" fill="currentColor" stroke="currentColor" stroke-width="1.2" stroke-linecap="round" stroke-linejoin="round" />
  <path d="M92.14,98.86 C92.02,98.80 91.88,98.76 91.71,98.76" fill="currentColor" stroke="currentColor" stroke-width="1.2" stroke-linecap="round" stroke-linejoin="round" />
  <path d="M91.71,98.76 C91.51,98.76 91.30,98.84 91.10,99.00" fill="currentColor" stroke="currentColor" stroke-width="1.2" stroke-linecap="round" stroke-linejoin="round" />
  <path d="M88.33,98.78 C88.33,98.82 88.34,98.88 88.34,98.94" fill="currentColor" stroke="currentColor" stroke-width="1.2" stroke-linecap="round" stroke-linejoin="round" />
  <path d="M87.72,99.03 C87.61,98.96 87.48,98.89 87.33,98.84" fill="currentColor" stroke="currentColor" stroke-width="1.2" stroke-linecap="round" stroke-linejoin="round" />
  <path d="M95.59,99.14 C95.51,99.02 95.41,98.92 95.29,98.86" fill="currentColor" stroke="currentColor" stroke-width="1.2" stroke-linecap="round" stroke-linejoin="round" />
  <path d="M92.44,99.14 C92.36,99.02 92.26,98.92 92.14,98.86" fill="currentColor" stroke="currentColor" stroke-width="1.2" stroke-linecap="round" stroke-linejoin="round" />
  <path d="M88.34,98.94 C88.34,99.08 88.32,99.18 88.29,99.23" fill="currentColor" stroke="currentColor" stroke-width="1.2" stroke-linecap="round" stroke-linejoin="round" />
  <path d="M94.24,99.00 C94.03,99.16 93.81,99.39 93.56,99.69" fill="currentColor" stroke="currentColor" stroke-width="1.2" stroke-linecap="round" stroke-linejoin="round" />
  <path d="M91.10,99.00 C90.89,99.16 90.66,99.39 90.42,99.69" fill="currentColor" stroke="currentColor" stroke-width="1.2" stroke-linecap="round" stroke-linejoin="round" />
  <path d="M87.98,99.23 C87.92,99.17 87.83,99.10 87.72,99.03" fill="currentColor" stroke="currentColor" stroke-width="1.2" stroke-linecap="round" stroke-linejoin="round" />
  <path d="M95.76,99.57 C95.72,99.41 95.67,99.26 95.59,99.14" fill="currentColor" stroke="currentColor" stroke-width="1.2" stroke-linecap="round" stroke-linejoin="round" />
  <path d="M92.62,99.57 C92.58,99.41 92.52,99.26 92.44,99.14" fill="currentColor" stroke="currentColor" stroke-width="1.2" stroke-linecap="round" stroke-linejoin="round" />
  <path d="M88.17,99.32 C88.12,99.32 88.05,99.29 87.98,99.23" fill="currentColor" stroke="currentColor" stroke-width="1.2" stroke-linecap="round" stroke-linejoin="round" />
  <path d="M88.29,99.23 C88.26,99.29 88.22,99.32 88.17,99.32" fill="currentColor" stroke="currentColor" stroke-width="1.2" stroke-linecap="round" stroke-linejoin="round" />
  <path d="M85.81,99.24 C85.58,99.57 85.47,100.04 85.47,100.66" fill="currentColor" stroke="currentColor" stroke-width="1.2" stroke-linecap="round" stroke-linejoin="round" />
  <path d="M96.62,99.24 C96.68,99.48 96.70,99.74 96.70,100.01" fill="currentColor" stroke="currentColor" stroke-width="1.2" stroke-linecap="round" stroke-linejoin="round" />
  <path d="M84.54,100.71 C84.54,100.24 84.60,99.83 84.72,99.49" fill="currentColor" stroke="currentColor" stroke-width="1.2" stroke-linecap="round" stroke-linejoin="round" />
  <path d="M95.81,100.13 C95.81,99.93 95.79,99.74 95.76,99.57" fill="currentColor" stroke="currentColor" stroke-width="1.2" stroke-linecap="round" stroke-linejoin="round" />
  <path d="M92.68,100.13 C92.68,99.93 92.66,99.74 92.62,99.57" fill="currentColor" stroke="currentColor" stroke-width="1.2" stroke-linecap="round" stroke-linejoin="round" />
  <line x1="93.56" y1="99.69" x2="93.56" y2="103.07" fill="currentColor" stroke="currentColor" stroke-width="1.2" stroke-linecap="round" stroke-linejoin="round" />
  <line x1="90.42" y1="99.69" x2="90.42" y2="103.07" fill="currentColor" stroke="currentColor" stroke-width="1.2" stroke-linecap="round" stroke-linejoin="round" />
  <line x1="96.70" y1="100.01" x2="96.70" y2="103.07" fill="currentColor" stroke="currentColor" stroke-width="1.2" stroke-linecap="round" stroke-linejoin="round" />
  <line x1="95.81" y1="103.07" x2="95.81" y2="100.13" fill="currentColor" stroke="currentColor" stroke-width="1.2" stroke-linecap="round" stroke-linejoin="round" />
  <line x1="92.68" y1="103.07" x2="92.68" y2="100.13" fill="currentColor" stroke="currentColor" stroke-width="1.2" stroke-linecap="round" stroke-linejoin="round" />
  <path d="M76.33,100.74 C76.34,100.70 76.37,100.66 76.39,100.61" fill="currentColor" stroke="currentColor" stroke-width="1.2" stroke-linecap="round" stroke-linejoin="round" />
  <path d="M85.47,100.66 C85.47,100.98 85.50,101.25 85.56,101.48" fill="currentColor" stroke="currentColor" stroke-width="1.2" stroke-linecap="round" stroke-linejoin="round" />
  <path d="M84.69,101.82 C84.59,101.50 84.54,101.13 84.54,100.71" fill="currentColor" stroke="currentColor" stroke-width="1.2" stroke-linecap="round" stroke-linejoin="round" />
  <path d="M76.28,100.87 C76.29,100.83 76.31,100.78 76.33,100.74" fill="currentColor" stroke="currentColor" stroke-width="1.2" stroke-linecap="round" stroke-linejoin="round" />
  <line x1="80.27" y1="100.85" x2="81.05" y2="100.85" fill="currentColor" stroke="currentColor" stroke-width="1.2" stroke-linecap="round" stroke-linejoin="round" />
  <path d="M81.05,100.85 C81.11,100.85 81.16,100.88 81.20,100.94" fill="currentColor" stroke="currentColor" stroke-width="1.2" stroke-linecap="round" stroke-linejoin="round" />
  <line x1="77.10" y1="100.85" x2="79.37" y2="100.85" fill="currentColor" stroke="currentColor" stroke-width="1.2" stroke-linecap="round" stroke-linejoin="round" />
  <path d="M76.26,101.02 C76.27,100.96 76.27,100.92 76.28,100.87" fill="currentColor" stroke="currentColor" stroke-width="1.2" stroke-linecap="round" stroke-linejoin="round" />
  <path d="M81.20,100.94 C81.24,101.00 81.26,101.10 81.26,101.23" fill="currentColor" stroke="currentColor" stroke-width="1.2" stroke-linecap="round" stroke-linejoin="round" />
  <path d="M76.26,101.20 C76.26,101.13 76.26,101.07 76.26,101.02" fill="currentColor" stroke="currentColor" stroke-width="1.2" stroke-linecap="round" stroke-linejoin="round" />
  <path d="M76.27,101.41 C76.26,101.36 76.26,101.29 76.26,101.20" fill="currentColor" stroke="currentColor" stroke-width="1.2" stroke-linecap="round" stroke-linejoin="round" />
  <path d="M81.26,101.23 C81.26,101.35 81.24,101.44 81.20,101.51" fill="currentColor" stroke="currentColor" stroke-width="1.2" stroke-linecap="round" stroke-linejoin="round" />
  <path d="M76.32,101.53 C76.29,101.51 76.28,101.46 76.27,101.41" fill="currentColor" stroke="currentColor" stroke-width="1.2" stroke-linecap="round" stroke-linejoin="round" />
  <path d="M85.56,101.48 C85.62,101.72 85.70,101.91 85.82,102.07" fill="currentColor" stroke="currentColor" stroke-width="1.2" stroke-linecap="round" stroke-linejoin="round" />
  <path d="M81.20,101.51 C81.17,101.58 81.12,101.61 81.05,101.61" fill="currentColor" stroke="currentColor" stroke-width="1.2" stroke-linecap="round" stroke-linejoin="round" />
  <path d="M76.40,101.59 C76.37,101.58 76.34,101.56 76.32,101.53" fill="currentColor" stroke="currentColor" stroke-width="1.2" stroke-linecap="round" stroke-linejoin="round" />
  <path d="M76.50,101.61 C76.46,101.61 76.42,101.60 76.40,101.59" fill="currentColor" stroke="currentColor" stroke-width="1.2" stroke-linecap="round" stroke-linejoin="round" />
  <line x1="81.05" y1="101.61" x2="80.27" y2="101.61" fill="currentColor" stroke="currentColor" stroke-width="1.2" stroke-linecap="round" stroke-linejoin="round" />
  <line x1="80.27" y1="101.61" x2="80.27" y2="103.07" fill="currentColor" stroke="currentColor" stroke-width="1.2" stroke-linecap="round" stroke-linejoin="round" />
  <line x1="79.37" y1="103.07" x2="79.37" y2="101.61" fill="currentColor" stroke="currentColor" stroke-width="1.2" stroke-linecap="round" stroke-linejoin="round" />
  <line x1="79.37" y1="101.61" x2="76.50" y2="101.61" fill="currentColor" stroke="currentColor" stroke-width="1.2" stroke-linecap="round" stroke-linejoin="round" />
  <path d="M85.10,102.63 C84.92,102.41 84.78,102.14 84.69,101.82" fill="currentColor" stroke="currentColor" stroke-width="1.2" stroke-linecap="round" stroke-linejoin="round" />
  <path d="M88.03,102.02 C88.11,101.96 88.17,101.93 88.21,101.93" fill="currentColor" stroke="currentColor" stroke-width="1.2" stroke-linecap="round" stroke-linejoin="round" />
  <path d="M88.21,101.93 C88.24,101.93 88.26,101.93 88.28,101.95" fill="currentColor" stroke="currentColor" stroke-width="1.2" stroke-linecap="round" stroke-linejoin="round" />
  <path d="M88.28,101.95 C88.29,101.96 88.31,101.99 88.32,102.02" fill="currentColor" stroke="currentColor" stroke-width="1.2" stroke-linecap="round" stroke-linejoin="round" />
  <path d="M87.75,102.23 C87.86,102.15 87.96,102.08 88.03,102.02" fill="currentColor" stroke="currentColor" stroke-width="1.2" stroke-linecap="round" stroke-linejoin="round" />
  <path d="M88.32,102.02 C88.33,102.05 88.34,102.10 88.35,102.15" fill="currentColor" stroke="currentColor" stroke-width="1.2" stroke-linecap="round" stroke-linejoin="round" />
  <path d="M85.82,102.07 C85.93,102.23 86.07,102.35 86.24,102.42" fill="currentColor" stroke="currentColor" stroke-width="1.2" stroke-linecap="round" stroke-linejoin="round" />
  <path d="M88.35,102.15 C88.35,102.20 88.36,102.26 88.36,102.33" fill="currentColor" stroke="currentColor" stroke-width="1.2" stroke-linecap="round" stroke-linejoin="round" />
  <path d="M87.35,102.44 C87.50,102.38 87.63,102.31 87.75,102.23" fill="currentColor" stroke="currentColor" stroke-width="1.2" stroke-linecap="round" stroke-linejoin="round" />
  <path d="M88.36,102.33 C88.36,102.40 88.36,102.45 88.35,102.49" fill="currentColor" stroke="currentColor" stroke-width="1.2" stroke-linecap="round" stroke-linejoin="round" />
  <path d="M86.24,102.42 C86.40,102.50 86.60,102.54 86.81,102.54" fill="currentColor" stroke="currentColor" stroke-width="1.2" stroke-linecap="round" stroke-linejoin="round" />
  <path d="M86.81,102.54 C87.01,102.54 87.19,102.51 87.35,102.44" fill="currentColor" stroke="currentColor" stroke-width="1.2" stroke-linecap="round" stroke-linejoin="round" />
  <path d="M88.35,102.49 C88.35,102.54 88.34,102.57 88.33,102.60" fill="currentColor" stroke="currentColor" stroke-width="1.2" stroke-linecap="round" stroke-linejoin="round" />
  <path d="M88.33,102.60 C88.32,102.64 88.31,102.66 88.30,102.69" fill="currentColor" stroke="currentColor" stroke-width="1.2" stroke-linecap="round" stroke-linejoin="round" />
  <path d="M85.77,103.13 C85.51,103.02 85.28,102.85 85.10,102.63" fill="currentColor" stroke="currentColor" stroke-width="1.2" stroke-linecap="round" stroke-linejoin="round" />
  <path d="M88.30,102.69 C88.29,102.71 88.26,102.74 88.21,102.79" fill="currentColor" stroke="currentColor" stroke-width="1.2" stroke-linecap="round" stroke-linejoin="round" />
  <path d="M88.21,102.79 C88.17,102.83 88.09,102.89 87.99,102.95" fill="currentColor" stroke="currentColor" stroke-width="1.2" stroke-linecap="round" stroke-linejoin="round" />
  <path d="M87.99,102.95 C87.88,103.02 87.76,103.08 87.62,103.13" fill="currentColor" stroke="currentColor" stroke-width="1.2" stroke-linecap="round" stroke-linejoin="round" />
  <path d="M80.27,103.07 C80.27,103.10 80.26,103.12 80.25,103.14" fill="currentColor" stroke="currentColor" stroke-width="1.2" stroke-linecap="round" stroke-linejoin="round" />
  <path d="M79.39,103.14 C79.38,103.12 79.37,103.10 79.37,103.07" fill="currentColor" stroke="currentColor" stroke-width="1.2" stroke-linecap="round" stroke-linejoin="round" />
  <path d="M96.70,103.07 C96.70,103.10 96.70,103.12 96.68,103.14" fill="currentColor" stroke="currentColor" stroke-width="1.2" stroke-linecap="round" stroke-linejoin="round" />
  <path d="M95.83,103.14 C95.82,103.12 95.81,103.10 95.81,103.07" fill="currentColor" stroke="currentColor" stroke-width="1.2" stroke-linecap="round" stroke-linejoin="round" />
  <path d="M93.56,103.07 C93.56,103.10 93.56,103.12 93.54,103.14" fill="currentColor" stroke="currentColor" stroke-width="1.2" stroke-linecap="round" stroke-linejoin="round" />
  <path d="M92.69,103.14 C92.68,103.12 92.68,103.10 92.68,103.07" fill="currentColor" stroke="currentColor" stroke-width="1.2" stroke-linecap="round" stroke-linejoin="round" />
  <path d="M90.42,103.07 C90.42,103.10 90.41,103.12 90.40,103.14" fill="currentColor" stroke="currentColor" stroke-width="1.2" stroke-linecap="round" stroke-linejoin="round" />
  <path d="M89.55,103.14 C89.54,103.12 89.53,103.10 89.53,103.07" fill="currentColor" stroke="currentColor" stroke-width="1.2" stroke-linecap="round" stroke-linejoin="round" />
  <path d="M87.62,103.13 C87.49,103.18 87.34,103.23 87.19,103.26" fill="currentColor" stroke="currentColor" stroke-width="1.2" stroke-linecap="round" stroke-linejoin="round" />
  <path d="M86.70,103.31 C86.35,103.31 86.04,103.25 85.77,103.13" fill="currentColor" stroke="currentColor" stroke-width="1.2" stroke-linecap="round" stroke-linejoin="round" />
  <path d="M80.25,103.14 C80.23,103.16 80.21,103.18 80.17,103.19" fill="currentColor" stroke="currentColor" stroke-width="1.2" stroke-linecap="round" stroke-linejoin="round" />
  <path d="M79.46,103.19 C79.43,103.18 79.40,103.16 79.39,103.14" fill="currentColor" stroke="currentColor" stroke-width="1.2" stroke-linecap="round" stroke-linejoin="round" />
  <path d="M96.68,103.14 C96.67,103.16 96.64,103.18 96.61,103.19" fill="currentColor" stroke="currentColor" stroke-width="1.2" stroke-linecap="round" stroke-linejoin="round" />
  <path d="M95.91,103.19 C95.87,103.18 95.85,103.16 95.83,103.14" fill="currentColor" stroke="currentColor" stroke-width="1.2" stroke-linecap="round" stroke-linejoin="round" />
  <path d="M93.54,103.14 C93.53,103.16 93.50,103.18 93.47,103.19" fill="currentColor" stroke="currentColor" stroke-width="1.2" stroke-linecap="round" stroke-linejoin="round" />
  <path d="M92.76,103.19 C92.73,103.18 92.71,103.16 92.69,103.14" fill="currentColor" stroke="currentColor" stroke-width="1.2" stroke-linecap="round" stroke-linejoin="round" />
  <path d="M90.40,103.14 C90.38,103.16 90.36,103.18 90.33,103.19" fill="currentColor" stroke="currentColor" stroke-width="1.2" stroke-linecap="round" stroke-linejoin="round" />
  <path d="M89.62,103.19 C89.59,103.18 89.56,103.16 89.55,103.14" fill="currentColor" stroke="currentColor" stroke-width="1.2" stroke-linecap="round" stroke-linejoin="round" />
  <path d="M80.17,103.19 C80.14,103.21 80.09,103.22 80.03,103.23" fill="currentColor" stroke="currentColor" stroke-width="1.2" stroke-linecap="round" stroke-linejoin="round" />
  <path d="M79.60,103.23 C79.54,103.22 79.50,103.21 79.46,103.19" fill="currentColor" stroke="currentColor" stroke-width="1.2" stroke-linecap="round" stroke-linejoin="round" />
  <path d="M96.61,103.19 C96.58,103.21 96.54,103.22 96.48,103.23" fill="currentColor" stroke="currentColor" stroke-width="1.2" stroke-linecap="round" stroke-linejoin="round" />
  <path d="M96.04,103.23 C95.99,103.22 95.94,103.21 95.91,103.19" fill="currentColor" stroke="currentColor" stroke-width="1.2" stroke-linecap="round" stroke-linejoin="round" />
  <path d="M93.47,103.19 C93.43,103.21 93.39,103.22 93.33,103.23" fill="currentColor" stroke="currentColor" stroke-width="1.2" stroke-linecap="round" stroke-linejoin="round" />
  <path d="M92.90,103.23 C92.85,103.22 92.80,103.21 92.76,103.19" fill="currentColor" stroke="currentColor" stroke-width="1.2" stroke-linecap="round" stroke-linejoin="round" />
  <path d="M90.33,103.19 C90.30,103.21 90.25,103.22 90.19,103.23" fill="currentColor" stroke="currentColor" stroke-width="1.2" stroke-linecap="round" stroke-linejoin="round" />
  <path d="M89.76,103.23 C89.70,103.22 89.66,103.21 89.62,103.19" fill="currentColor" stroke="currentColor" stroke-width="1.2" stroke-linecap="round" stroke-linejoin="round" />
  <path d="M80.03,103.23 C79.97,103.23 79.90,103.24 79.81,103.24" fill="currentColor" stroke="currentColor" stroke-width="1.2" stroke-linecap="round" stroke-linejoin="round" />
  <path d="M79.81,103.24 C79.73,103.24 79.65,103.23 79.60,103.23" fill="currentColor" stroke="currentColor" stroke-width="1.2" stroke-linecap="round" stroke-linejoin="round" />
  <path d="M96.48,103.23 C96.42,103.23 96.35,103.24 96.26,103.24" fill="currentColor" stroke="currentColor" stroke-width="1.2" stroke-linecap="round" stroke-linejoin="round" />
  <path d="M96.26,103.24 C96.17,103.24 96.10,103.23 96.04,103.23" fill="currentColor" stroke="currentColor" stroke-width="1.2" stroke-linecap="round" stroke-linejoin="round" />
  <path d="M93.33,103.23 C93.27,103.23 93.20,103.24 93.12,103.24" fill="currentColor" stroke="currentColor" stroke-width="1.2" stroke-linecap="round" stroke-linejoin="round" />
  <path d="M93.12,103.24 C93.03,103.24 92.96,103.23 92.90,103.23" fill="currentColor" stroke="currentColor" stroke-width="1.2" stroke-linecap="round" stroke-linejoin="round" />
  <path d="M90.19,103.23 C90.14,103.23 90.06,103.24 89.97,103.24" fill="currentColor" stroke="currentColor" stroke-width="1.2" stroke-linecap="round" stroke-linejoin="round" />
  <path d="M89.97,103.24 C89.89,103.24 89.82,103.23 89.76,103.23" fill="currentColor" stroke="currentColor" stroke-width="1.2" stroke-linecap="round" stroke-linejoin="round" />
  <path d="M87.19,103.26 C87.03,103.29 86.87,103.31 86.70,103.31" fill="currentColor" stroke="currentColor" stroke-width="1.2" stroke-linecap="round" stroke-linejoin="round" />
</svg>