<svg xmlns="http://www.w3.org/2000/svg" viewBox="0 0 203.65 114.08" preserveAspectRatio="xMidYMid meet" shape-rendering="geometricPrecision" text-rendering="optimizeLegibility">
  <path d="M42.99,41.20 C76.19,8.00 130.07,8.00 163.27,41.20" fill="none" stroke="currentColor" stroke-width="1.4000000476837158" stroke-linecap="round" stroke-linejoin="round" />
  <path d="M163.27,41.20 C179.86,57.78 188.16,79.53 188.17,101.29" fill="none" stroke="currentColor" stroke-width="1.4000000476837158" stroke-linecap="round" stroke-linejoin="round" />
  <path d="M18.09,101.29 C18.11,79.53 26.40,57.78 42.99,41.20" fill="none" stroke="currentColor" stroke-width="1.4000000476837158" stroke-linecap="round" stroke-linejoin="round" />
  <path d="M192.42,55.92 C192.79,55.75 193.21,55.67 193.66,55.67" fill="currentColor" stroke="currentColor" stroke-width="1.2" stroke-linecap="round" stroke-linejoin="round" />
  <path d="M193.66,55.67 C193.86,55.67 194.06,55.69 194.25,55.73" fill="currentColor" stroke="currentColor" stroke-width="1.2" stroke-linecap="round" stroke-linejoin="round" />
  <path d="M194.25,55.73 C194.44,55.76 194.61,55.81 194.77,55.87" fill="currentColor" stroke="currentColor" stroke-width="1.2" stroke-linecap="round" stroke-linejoin="round" />
  <path d="M8.11,55.84 C8.18,55.78 8.26,55.76 8.34,55.76" fill="currentColor" stroke="currentColor" stroke-width="1.2" stroke-linecap="round" stroke-linejoin="round" />
  <line x1="8.34" y1="55.76" x2="9.92" y2="55.76" fill="currentColor" stroke="currentColor" stroke-width="1.2" stroke-linecap="round" stroke-linejoin="round" />
  <path d="M9.92,55.76 C10.52,55.76 11.03,55.83 11.44,55.99" fill="currentColor" stroke="currentColor" stroke-width="1.2" stroke-linecap="round" stroke-linejoin="round" />
  <path d="M8.00,56.13 C8.00,55.99 8.04,55.89 8.11,55.84" fill="currentColor" stroke="currentColor" stroke-width="1.2" stroke-linecap="round" stroke-linejoin="round" />
  <path d="M194.77,55.87 C194.93,55.93 195.08,55.99 195.20,56.07" fill="currentColor" stroke="currentColor" stroke-width="1.2" stroke-linecap="round" stroke-linejoin="round" />
  <path d="M191.45,56.63 C191.72,56.32 192.04,56.08 192.42,55.92" fill="currentColor" stroke="currentColor" stroke-width="1.2" stroke-linecap="round" stroke-linejoin="round" />
  <path d="M11.44,55.99 C11.86,56.15 12.21,56.37 12.49,56.66" fill="currentColor" stroke="currentColor" stroke-width="1.2" stroke-linecap="round" stroke-linejoin="round" />
  <path d="M195.20,56.07 C195.33,56.14 195.41,56.20 195.46,56.25" fill="currentColor" stroke="currentColor" stroke-width="1.2" stroke-linecap="round" stroke-linejoin="round" />
  <line x1="8.00" y1="62.33" x2="8.00" y2="56.13" fill="currentColor" stroke="currentColor" stroke-width="1.2" stroke-linecap="round" stroke-linejoin="round" />
  <path d="M195.46,56.25 C195.51,56.30 195.54,56.34 195.56,56.36" fill="currentColor" stroke="currentColor" stroke-width="1.2" stroke-linecap="round" stroke-linejoin="round" />
  <path d="M195.56,56.36 C195.57,56.39 195.58,56.42 195.59,56.45" fill="currentColor" stroke="currentColor" stroke-width="1.2" stroke-linecap="round" stroke-linejoin="round" />
  <path d="M195.59,56.45 C195.60,56.49 195.61,56.53 195.61,56.57" fill="currentColor" stroke="currentColor" stroke-width="1.2" stroke-linecap="round" stroke-linejoin="round" />
  <path d="M194.38,56.58 C194.18,56.51 193.94,56.48 193.66,56.48" fill="currentColor" stroke="currentColor" stroke-width="1.2" stroke-linecap="round" stroke-linejoin="round" />
  <path d="M193.66,56.48 C193.35,56.48 193.07,56.54 192.81,56.66" fill="currentColor" stroke="currentColor" stroke-width="1.2" stroke-linecap="round" stroke-linejoin="round" />
  <path d="M11.04,56.72 C10.74,56.59 10.34,56.52 9.86,56.52" fill="currentColor" stroke="currentColor" stroke-width="1.2" stroke-linecap="round" stroke-linejoin="round" />
  <line x1="9.86" y1="56.52" x2="8.92" y2="56.52" fill="currentColor" stroke="currentColor" stroke-width="1.2" stroke-linecap="round" stroke-linejoin="round" />
  <line x1="8.92" y1="56.52" x2="8.92" y2="61.93" fill="currentColor" stroke="currentColor" stroke-width="1.2" stroke-linecap="round" stroke-linejoin="round" />
  <path d="M195.61,56.57 C195.62,56.62 195.62,56.67 195.62,56.74" fill="currentColor" stroke="currentColor" stroke-width="1.2" stroke-linecap="round" stroke-linejoin="round" />
  <path d="M194.90,56.81 C194.76,56.73 194.59,56.65 194.38,56.58" fill="currentColor" stroke="currentColor" stroke-width="1.2" stroke-linecap="round" stroke-linejoin="round" />
  <path d="M190.83,57.78 C190.98,57.33 191.18,56.95 191.45,56.63" fill="currentColor" stroke="currentColor" stroke-width="1.2" stroke-linecap="round" stroke-linejoin="round" />
  <path d="M192.81,56.66 C192.56,56.78 192.35,56.97 192.17,57.21" fill="currentColor" stroke="currentColor" stroke-width="1.2" stroke-linecap="round" stroke-linejoin="round" />
  <path d="M12.49,56.66 C12.77,56.95 12.98,57.31 13.13,57.72" fill="currentColor" stroke="currentColor" stroke-width="1.2" stroke-linecap="round" stroke-linejoin="round" />
  <path d="M11.79,57.28 C11.60,57.04 11.34,56.85 11.04,56.72" fill="currentColor" stroke="currentColor" stroke-width="1.2" stroke-linecap="round" stroke-linejoin="round" />
  <path d="M195.62,56.74 C195.62,56.81 195.62,56.87 195.61,56.92" fill="currentColor" stroke="currentColor" stroke-width="1.2" stroke-linecap="round" stroke-linejoin="round" />
  <path d="M195.24,57.04 C195.16,56.97 195.04,56.90 194.90,56.81" fill="currentColor" stroke="currentColor" stroke-width="1.2" stroke-linecap="round" stroke-linejoin="round" />
  <path d="M195.61,56.92 C195.60,56.97 195.59,57.01 195.58,57.05" fill="currentColor" stroke="currentColor" stroke-width="1.2" stroke-linecap="round" stroke-linejoin="round" />
  <path d="M195.46,57.15 C195.40,57.15 195.34,57.11 195.24,57.04" fill="currentColor" stroke="currentColor" stroke-width="1.2" stroke-linecap="round" stroke-linejoin="round" />
  <path d="M195.58,57.05 C195.56,57.08 195.55,57.11 195.53,57.12" fill="currentColor" stroke="currentColor" stroke-width="1.2" stroke-linecap="round" stroke-linejoin="round" />
  <path d="M195.53,57.12 C195.51,57.14 195.48,57.15 195.46,57.15" fill="currentColor" stroke="currentColor" stroke-width="1.2" stroke-linecap="round" stroke-linejoin="round" />
  <path d="M192.17,57.21 C191.99,57.45 191.85,57.74 191.75,58.08" fill="currentColor" stroke="currentColor" stroke-width="1.2" stroke-linecap="round" stroke-linejoin="round" />
  <path d="M12.23,58.12 C12.14,57.79 11.99,57.51 11.79,57.28" fill="currentColor" stroke="currentColor" stroke-width="1.2" stroke-linecap="round" stroke-linejoin="round" />
  <path d="M13.13,57.72 C13.27,58.14 13.34,58.61 13.34,59.13" fill="currentColor" stroke="currentColor" stroke-width="1.2" stroke-linecap="round" stroke-linejoin="round" />
  <path d="M190.61,59.32 C190.61,58.75 190.68,58.23 190.83,57.78" fill="currentColor" stroke="currentColor" stroke-width="1.2" stroke-linecap="round" stroke-linejoin="round" />
  <path d="M191.75,58.08 C191.65,58.43 191.60,58.82 191.60,59.27" fill="currentColor" stroke="currentColor" stroke-width="1.2" stroke-linecap="round" stroke-linejoin="round" />
  <path d="M12.37,59.17 C12.37,58.79 12.33,58.44 12.23,58.12" fill="currentColor" stroke="currentColor" stroke-width="1.2" stroke-linecap="round" stroke-linejoin="round" />
  <polygon points="18.09,58.77 18.09,101.29 188.17,101.29 188.17,58.77" fill="none" stroke="currentColor" stroke-width="1.4000000476837158" stroke-linecap="round" stroke-linejoin="round" />
  <path d="M13.34,59.13 C13.34,59.73 13.27,60.26 13.11,60.70" fill="currentColor" stroke="currentColor" stroke-width="1.2" stroke-linecap="round" stroke-linejoin="round" />
  <path d="M12.22,60.39 C12.32,60.05 12.37,59.64 12.37,59.17" fill="currentColor" stroke="currentColor" stroke-width="1.2" stroke-linecap="round" stroke-linejoin="round" />
  <path d="M191.60,59.27 C191.60,59.71 191.65,60.10 191.75,60.44" fill="currentColor" stroke="currentColor" stroke-width="1.2" stroke-linecap="round" stroke-linejoin="round" />
  <path d="M190.81,60.81 C190.67,60.38 190.61,59.88 190.61,59.32" fill="currentColor" stroke="currentColor" stroke-width="1.2" stroke-linecap="round" stroke-linejoin="round" />
  <path d="M11.76,61.26 C11.96,61.03 12.12,60.74 12.22,60.39" fill="currentColor" stroke="currentColor" stroke-width="1.2" stroke-linecap="round" stroke-linejoin="round" />
  <path d="M191.75,60.44 C191.84,60.77 191.98,61.06 192.15,61.28" fill="currentColor" stroke="currentColor" stroke-width="1.2" stroke-linecap="round" stroke-linejoin="round" />
  <path d="M13.11,60.70 C12.96,61.15 12.73,61.53 12.44,61.82" fill="currentColor" stroke="currentColor" stroke-width="1.2" stroke-linecap="round" stroke-linejoin="round" />
  <path d="M191.40,61.90 C191.15,61.61 190.95,61.24 190.81,60.81" fill="currentColor" stroke="currentColor" stroke-width="1.2" stroke-linecap="round" stroke-linejoin="round" />
  <path d="M11.00,61.77 C11.30,61.65 11.56,61.48 11.76,61.26" fill="currentColor" stroke="currentColor" stroke-width="1.2" stroke-linecap="round" stroke-linejoin="round" />
  <path d="M192.15,61.28 C192.33,61.51 192.55,61.68 192.81,61.80" fill="currentColor" stroke="currentColor" stroke-width="1.2" stroke-linecap="round" stroke-linejoin="round" />
  <path d="M195.29,61.42 C195.38,61.35 195.46,61.31 195.51,61.31" fill="currentColor" stroke="currentColor" stroke-width="1.2" stroke-linecap="round" stroke-linejoin="round" />
  <path d="M195.51,61.31 C195.53,61.31 195.56,61.32 195.57,61.33" fill="currentColor" stroke="currentColor" stroke-width="1.2" stroke-linecap="round" stroke-linejoin="round" />
  <path d="M195.57,61.33 C195.59,61.34 195.61,61.36 195.62,61.39" fill="currentColor" stroke="currentColor" stroke-width="1.2" stroke-linecap="round" stroke-linejoin="round" />
  <path d="M195.62,61.39 C195.63,61.42 195.64,61.46 195.64,61.52" fill="currentColor" stroke="currentColor" stroke-width="1.2" stroke-linecap="round" stroke-linejoin="round" />
  <path d="M194.93,61.64 C195.08,61.56 195.19,61.48 195.29,61.42" fill="currentColor" stroke="currentColor" stroke-width="1.2" stroke-linecap="round" stroke-linejoin="round" />
  <path d="M195.64,61.52 C195.65,61.57 195.65,61.64 195.65,61.72" fill="currentColor" stroke="currentColor" stroke-width="1.2" stroke-linecap="round" stroke-linejoin="round" />
  <path d="M194.40,61.87 C194.61,61.81 194.79,61.73 194.93,61.64" fill="currentColor" stroke="currentColor" stroke-width="1.2" stroke-linecap="round" stroke-linejoin="round" />
  <path d="M195.65,61.72 C195.65,61.78 195.65,61.83 195.64,61.87" fill="currentColor" stroke="currentColor" stroke-width="1.2" stroke-linecap="round" stroke-linejoin="round" />
  <path d="M9.87,61.93 C10.32,61.93 10.69,61.88 11.00,61.77" fill="currentColor" stroke="currentColor" stroke-width="1.2" stroke-linecap="round" stroke-linejoin="round" />
  <path d="M192.81,61.80 C193.06,61.92 193.36,61.97 193.68,61.98" fill="currentColor" stroke="currentColor" stroke-width="1.2" stroke-linecap="round" stroke-linejoin="round" />
  <path d="M12.44,61.82 C12.14,62.12 11.78,62.34 11.35,62.49" fill="currentColor" stroke="currentColor" stroke-width="1.2" stroke-linecap="round" stroke-linejoin="round" />
  <path d="M195.64,61.87 C195.64,61.92 195.63,61.95 195.62,61.99" fill="currentColor" stroke="currentColor" stroke-width="1.2" stroke-linecap="round" stroke-linejoin="round" />
  <path d="M193.68,61.98 C193.96,61.97 194.20,61.94 194.40,61.87" fill="currentColor" stroke="currentColor" stroke-width="1.2" stroke-linecap="round" stroke-linejoin="round" />
  <path d="M192.33,62.57 C191.97,62.42 191.66,62.19 191.40,61.90" fill="currentColor" stroke="currentColor" stroke-width="1.2" stroke-linecap="round" stroke-linejoin="round" />
  <line x1="8.92" y1="61.93" x2="9.87" y2="61.93" fill="currentColor" stroke="currentColor" stroke-width="1.2" stroke-linecap="round" stroke-linejoin="round" />
  <path d="M195.62,61.99 C195.62,62.02 195.60,62.05 195.59,62.07" fill="currentColor" stroke="currentColor" stroke-width="1.2" stroke-linecap="round" stroke-linejoin="round" />
  <path d="M195.59,62.07 C195.58,62.10 195.55,62.13 195.51,62.16" fill="currentColor" stroke="currentColor" stroke-width="1.2" stroke-linecap="round" stroke-linejoin="round" />
  <path d="M195.51,62.16 C195.48,62.20 195.40,62.25 195.29,62.33" fill="currentColor" stroke="currentColor" stroke-width="1.2" stroke-linecap="round" stroke-linejoin="round" />
  <path d="M195.29,62.33 C195.17,62.40 195.03,62.47 194.86,62.54" fill="currentColor" stroke="currentColor" stroke-width="1.2" stroke-linecap="round" stroke-linejoin="round" />
  <path d="M8.11,62.62 C8.04,62.57 8.00,62.47 8.00,62.33" fill="currentColor" stroke="currentColor" stroke-width="1.2" stroke-linecap="round" stroke-linejoin="round" />
  <path d="M11.35,62.49 C10.92,62.63 10.41,62.71 9.81,62.71" fill="currentColor" stroke="currentColor" stroke-width="1.2" stroke-linecap="round" stroke-linejoin="round" />
  <path d="M194.86,62.54 C194.69,62.61 194.50,62.67 194.28,62.72" fill="currentColor" stroke="currentColor" stroke-width="1.2" stroke-linecap="round" stroke-linejoin="round" />
  <path d="M193.55,62.79 C193.10,62.79 192.69,62.72 192.33,62.57" fill="currentColor" stroke="currentColor" stroke-width="1.2" stroke-linecap="round" stroke-linejoin="round" />
  <path d="M8.34,62.71 C8.26,62.71 8.18,62.68 8.11,62.62" fill="currentColor" stroke="currentColor" stroke-width="1.2" stroke-linecap="round" stroke-linejoin="round" />
  <line x1="9.81" y1="62.71" x2="8.34" y2="62.71" fill="currentColor" stroke="currentColor" stroke-width="1.2" stroke-linecap="round" stroke-linejoin="round" />
  <path d="M194.28,62.72 C194.06,62.77 193.81,62.79 193.55,62.79" fill="currentColor" stroke="currentColor" stroke-width="1.2" stroke-linecap="round" stroke-linejoin="round" />
  <path d="M10.81,99.08 C10.88,99.07 10.97,99.07 11.07,99.07" fill="currentColor" stroke="currentColor" stroke-width="1.2" stroke-linecap="round" stroke-linejoin="round" />
  <path d="M11.07,99.07 C11.19,99.07 11.28,99.07 11.36,99.08" fill="currentColor" stroke="currentColor" stroke-width="1.2" stroke-linecap="round" stroke-linejoin="round" />
  <path d="M10.64,99.11 C10.68,99.09 10.74,99.08 10.81,99.08" fill="currentColor" stroke="currentColor" stroke-width="1.2" stroke-linecap="round" stroke-linejoin="round" />
  <path d="M11.36,99.08 C11.43,99.08 11.50,99.09 11.54,99.11" fill="currentColor" stroke="currentColor" stroke-width="1.2" stroke-linecap="round" stroke-linejoin="round" />
  <path d="M190.82,99.18 C190.89,99.13 190.97,99.10 191.05,99.10" fill="currentColor" stroke="currentColor" stroke-width="1.2" stroke-linecap="round" stroke-linejoin="round" />
  <line x1="191.05" y1="99.10" x2="192.63" y2="99.10" fill="currentColor" stroke="currentColor" stroke-width="1.2" stroke-linecap="round" stroke-linejoin="round" />
  <path d="M192.63,99.10 C193.05,99.10 193.39,99.14 193.65,99.22" fill="currentColor" stroke="currentColor" stroke-width="1.2" stroke-linecap="round" stroke-linejoin="round" />
  <path d="M10.54,99.17 C10.56,99.14 10.59,99.12 10.64,99.11" fill="currentColor" stroke="currentColor" stroke-width="1.2" stroke-linecap="round" stroke-linejoin="round" />
  <path d="M11.54,99.11 C11.59,99.12 11.62,99.14 11.65,99.17" fill="currentColor" stroke="currentColor" stroke-width="1.2" stroke-linecap="round" stroke-linejoin="round" />
  <path d="M10.48,99.26 C10.49,99.22 10.51,99.19 10.54,99.17" fill="currentColor" stroke="currentColor" stroke-width="1.2" stroke-linecap="round" stroke-linejoin="round" />
  <path d="M11.65,99.17 C11.67,99.19 11.69,99.23 11.71,99.27" fill="currentColor" stroke="currentColor" stroke-width="1.2" stroke-linecap="round" stroke-linejoin="round" />
  <path d="M190.71,99.48 C190.71,99.34 190.75,99.24 190.82,99.18" fill="currentColor" stroke="currentColor" stroke-width="1.2" stroke-linecap="round" stroke-linejoin="round" />
  <path d="M193.65,99.22 C193.92,99.30 194.14,99.41 194.32,99.56" fill="currentColor" stroke="currentColor" stroke-width="1.2" stroke-linecap="round" stroke-linejoin="round" />
  <line x1="8.15" y1="105.72" x2="10.48" y2="99.26" fill="currentColor" stroke="currentColor" stroke-width="1.2" stroke-linecap="round" stroke-linejoin="round" />
  <line x1="11.71" y1="99.27" x2="14.04" y2="105.72" fill="currentColor" stroke="currentColor" stroke-width="1.2" stroke-linecap="round" stroke-linejoin="round" />
  <line x1="190.71" y1="105.67" x2="190.71" y2="99.48" fill="currentColor" stroke="currentColor" stroke-width="1.2" stroke-linecap="round" stroke-linejoin="round" />
  <path d="M194.32,99.56 C194.49,99.71 194.63,99.90 194.72,100.12" fill="currentColor" stroke="currentColor" stroke-width="1.2" stroke-linecap="round" stroke-linejoin="round" />
  <path d="M193.22,99.93 C193.06,99.88 192.84,99.85 192.58,99.85" fill="currentColor" stroke="currentColor" stroke-width="1.2" stroke-linecap="round" stroke-linejoin="round" />
  <line x1="192.58" y1="99.85" x2="191.62" y2="99.85" fill="currentColor" stroke="currentColor" stroke-width="1.2" stroke-linecap="round" stroke-linejoin="round" />
  <line x1="191.62" y1="99.85" x2="191.62" y2="102.10" fill="currentColor" stroke="currentColor" stroke-width="1.2" stroke-linecap="round" stroke-linejoin="round" />
  <path d="M193.61,100.15 C193.51,100.05 193.38,99.98 193.22,99.93" fill="currentColor" stroke="currentColor" stroke-width="1.2" stroke-linecap="round" stroke-linejoin="round" />
  <line x1="11.05" y1="100.02" x2="11.04" y2="100.02" fill="currentColor" stroke="currentColor" stroke-width="1.2" stroke-linecap="round" stroke-linejoin="round" />
  <line x1="11.04" y1="100.02" x2="9.84" y2="103.49" fill="currentColor" stroke="currentColor" stroke-width="1.2" stroke-linecap="round" stroke-linejoin="round" />
  <line x1="12.26" y1="103.49" x2="11.05" y2="100.02" fill="currentColor" stroke="currentColor" stroke-width="1.2" stroke-linecap="round" stroke-linejoin="round" />
  <path d="M194.72,100.12 C194.81,100.33 194.85,100.58 194.85,100.86" fill="currentColor" stroke="currentColor" stroke-width="1.2" stroke-linecap="round" stroke-linejoin="round" />
  <path d="M193.83,100.49 C193.78,100.36 193.71,100.24 193.61,100.15" fill="currentColor" stroke="currentColor" stroke-width="1.2" stroke-linecap="round" stroke-linejoin="round" />
  <path d="M193.90,100.95 C193.90,100.78 193.88,100.63 193.83,100.49" fill="currentColor" stroke="currentColor" stroke-width="1.2" stroke-linecap="round" stroke-linejoin="round" />
  <path d="M194.85,100.86 C194.85,101.02 194.83,101.18 194.79,101.33" fill="currentColor" stroke="currentColor" stroke-width="1.2" stroke-linecap="round" stroke-linejoin="round" />
  <path d="M193.83,101.39 C193.88,101.24 193.90,101.10 193.90,100.95" fill="currentColor" stroke="currentColor" stroke-width="1.2" stroke-linecap="round" stroke-linejoin="round" />
  <line x1="188.17" y1="101.29" x2="18.09" y2="101.29" fill="none" stroke="currentColor" stroke-width="1.4000000476837158" stroke-linecap="round" stroke-linejoin="round" />
  <path d="M194.79,101.33 C194.75,101.48 194.69,101.62 194.62,101.75" fill="currentColor" stroke="currentColor" stroke-width="1.2" stroke-linecap="round" stroke-linejoin="round" />
  <path d="M193.62,101.76 C193.72,101.65 193.79,101.53 193.83,101.39" fill="currentColor" stroke="currentColor" stroke-width="1.2" stroke-linecap="round" stroke-linejoin="round" />
  <path d="M194.62,101.75 C194.54,101.87 194.44,101.99 194.33,102.09" fill="currentColor" stroke="currentColor" stroke-width="1.2" stroke-linecap="round" stroke-linejoin="round" />
  <path d="M193.26,102.01 C193.40,101.95 193.52,101.86 193.62,101.76" fill="currentColor" stroke="currentColor" stroke-width="1.2" stroke-linecap="round" stroke-linejoin="round" />
  <path d="M192.68,102.10 C192.92,102.10 193.11,102.07 193.26,102.01" fill="currentColor" stroke="currentColor" stroke-width="1.2" stroke-linecap="round" stroke-linejoin="round" />
  <path d="M194.33,102.09 C194.21,102.19 194.08,102.27 193.93,102.33" fill="currentColor" stroke="currentColor" stroke-width="1.2" stroke-linecap="round" stroke-linejoin="round" />
  <line x1="191.62" y1="102.10" x2="192.68" y2="102.10" fill="currentColor" stroke="currentColor" stroke-width="1.2" stroke-linecap="round" stroke-linejoin="round" />
  <path d="M193.93,102.33 C194.12,102.37 194.29,102.44 194.46,102.53" fill="currentColor" stroke="currentColor" stroke-width="1.2" stroke-linecap="round" stroke-linejoin="round" />
  <path d="M194.46,102.53 C194.62,102.62 194.77,102.75 194.89,102.89" fill="currentColor" stroke="currentColor" stroke-width="1.2" stroke-linecap="round" stroke-linejoin="round" />
  <path d="M193.45,102.92 C193.26,102.87 193.02,102.84 192.73,102.84" fill="currentColor" stroke="currentColor" stroke-width="1.2" stroke-linecap="round" stroke-linejoin="round" />
  <line x1="192.73" y1="102.84" x2="191.62" y2="102.84" fill="currentColor" stroke="currentColor" stroke-width="1.2" stroke-linecap="round" stroke-linejoin="round" />
  <line x1="191.62" y1="102.84" x2="191.62" y2="105.29" fill="currentColor" stroke="currentColor" stroke-width="1.2" stroke-linecap="round" stroke-linejoin="round" />
  <path d="M194.89,102.89 C195.02,103.04 195.11,103.21 195.18,103.41" fill="currentColor" stroke="currentColor" stroke-width="1.2" stroke-linecap="round" stroke-linejoin="round" />
  <path d="M193.93,103.17 C193.80,103.06 193.64,102.98 193.45,102.92" fill="currentColor" stroke="currentColor" stroke-width="1.2" stroke-linecap="round" stroke-linejoin="round" />
  <path d="M194.22,103.56 C194.15,103.41 194.06,103.27 193.93,103.17" fill="currentColor" stroke="currentColor" stroke-width="1.2" stroke-linecap="round" stroke-linejoin="round" />
  <path d="M195.18,103.41 C195.25,103.60 195.29,103.82 195.29,104.06" fill="currentColor" stroke="currentColor" stroke-width="1.2" stroke-linecap="round" stroke-linejoin="round" />
  <line x1="9.84" y1="103.49" x2="12.26" y2="103.49" fill="currentColor" stroke="currentColor" stroke-width="1.2" stroke-linecap="round" stroke-linejoin="round" />
  <path d="M194.32,104.11 C194.32,103.90 194.29,103.72 194.22,103.56" fill="currentColor" stroke="currentColor" stroke-width="1.2" stroke-linecap="round" stroke-linejoin="round" />
  <path d="M195.29,104.06 C195.29,104.28 195.26,104.48 195.21,104.66" fill="currentColor" stroke="currentColor" stroke-width="1.2" stroke-linecap="round" stroke-linejoin="round" />
  <path d="M194.22,104.62 C194.28,104.48 194.32,104.31 194.32,104.11" fill="currentColor" stroke="currentColor" stroke-width="1.2" stroke-linecap="round" stroke-linejoin="round" />
  <line x1="13.10" y1="105.92" x2="12.50" y2="104.22" fill="currentColor" stroke="currentColor" stroke-width="1.2" stroke-linecap="round" stroke-linejoin="round" />
  <line x1="12.50" y1="104.22" x2="9.61" y2="104.22" fill="currentColor" stroke="currentColor" stroke-width="1.2" stroke-linecap="round" stroke-linejoin="round" />
  <line x1="9.61" y1="104.22" x2="9.04" y2="105.89" fill="currentColor" stroke="currentColor" stroke-width="1.2" stroke-linecap="round" stroke-linejoin="round" />
  <path d="M193.94,104.99 C194.06,104.89 194.15,104.77 194.22,104.62" fill="currentColor" stroke="currentColor" stroke-width="1.2" stroke-linecap="round" stroke-linejoin="round" />
  <path d="M195.21,104.66 C195.15,104.85 195.07,105.01 194.97,105.16" fill="currentColor" stroke="currentColor" stroke-width="1.2" stroke-linecap="round" stroke-linejoin="round" />
  <path d="M193.52,105.21 C193.68,105.16 193.81,105.09 193.94,104.99" fill="currentColor" stroke="currentColor" stroke-width="1.2" stroke-linecap="round" stroke-linejoin="round" />
  <path d="M194.97,105.16 C194.87,105.31 194.75,105.43 194.61,105.55" fill="currentColor" stroke="currentColor" stroke-width="1.2" stroke-linecap="round" stroke-linejoin="round" />
  <path d="M192.97,105.29 C193.18,105.29 193.36,105.26 193.52,105.21" fill="currentColor" stroke="currentColor" stroke-width="1.2" stroke-linecap="round" stroke-linejoin="round" />
  <line x1="191.62" y1="105.29" x2="192.97" y2="105.29" fill="currentColor" stroke="currentColor" stroke-width="1.2" stroke-linecap="round" stroke-linejoin="round" />
  <path d="M194.61,105.55 C194.47,105.66 194.31,105.75 194.13,105.82" fill="currentColor" stroke="currentColor" stroke-width="1.2" stroke-linecap="round" stroke-linejoin="round" />
  <path d="M190.82,105.97 C190.75,105.91 190.71,105.81 190.71,105.67" fill="currentColor" stroke="currentColor" stroke-width="1.2" stroke-linecap="round" stroke-linejoin="round" />
  <path d="M8.10,105.91 C8.10,105.86 8.12,105.80 8.15,105.72" fill="currentColor" stroke="currentColor" stroke-width="1.2" stroke-linecap="round" stroke-linejoin="round" />
  <path d="M14.04,105.72 C14.07,105.80 14.08,105.87 14.09,105.91" fill="currentColor" stroke="currentColor" stroke-width="1.2" stroke-linecap="round" stroke-linejoin="round" />
  <path d="M194.13,105.82 C193.96,105.90 193.77,105.96 193.56,105.99" fill="currentColor" stroke="currentColor" stroke-width="1.2" stroke-linecap="round" stroke-linejoin="round" />
  <path d="M9.04,105.89 C9.03,105.93 9.02,105.95 9.00,105.98" fill="currentColor" stroke="currentColor" stroke-width="1.2" stroke-linecap="round" stroke-linejoin="round" />
  <path d="M8.14,106.02 C8.11,105.99 8.10,105.96 8.10,105.91" fill="currentColor" stroke="currentColor" stroke-width="1.2" stroke-linecap="round" stroke-linejoin="round" />
  <path d="M14.09,105.91 C14.09,105.96 14.07,106.00 14.04,106.02" fill="currentColor" stroke="currentColor" stroke-width="1.2" stroke-linecap="round" stroke-linejoin="round" />
  <path d="M13.15,106.00 C13.13,105.98 13.11,105.95 13.10,105.92" fill="currentColor" stroke="currentColor" stroke-width="1.2" stroke-linecap="round" stroke-linejoin="round" />
  <path d="M191.05,106.05 C190.97,106.05 190.89,106.02 190.82,105.97" fill="currentColor" stroke="currentColor" stroke-width="1.2" stroke-linecap="round" stroke-linejoin="round" />
  <path d="M9.00,105.98 C8.98,106.00 8.96,106.02 8.92,106.04" fill="currentColor" stroke="currentColor" stroke-width="1.2" stroke-linecap="round" stroke-linejoin="round" />
  <path d="M193.56,105.99 C193.36,106.03 193.13,106.05 192.87,106.05" fill="currentColor" stroke="currentColor" stroke-width="1.2" stroke-linecap="round" stroke-linejoin="round" />
  <path d="M13.22,106.05 C13.19,106.04 13.16,106.02 13.15,106.00" fill="currentColor" stroke="currentColor" stroke-width="1.2" stroke-linecap="round" stroke-linejoin="round" />
  <path d="M8.28,106.07 C8.21,106.06 8.17,106.04 8.14,106.02" fill="currentColor" stroke="currentColor" stroke-width="1.2" stroke-linecap="round" stroke-linejoin="round" />
  <path d="M14.04,106.02 C14.02,106.05 13.97,106.06 13.90,106.07" fill="currentColor" stroke="currentColor" stroke-width="1.2" stroke-linecap="round" stroke-linejoin="round" />
  <path d="M8.92,106.04 C8.89,106.05 8.84,106.06 8.78,106.07" fill="currentColor" stroke="currentColor" stroke-width="1.2" stroke-linecap="round" stroke-linejoin="round" />
  <path d="M13.37,106.07 C13.30,106.07 13.25,106.06 13.22,106.05" fill="currentColor" stroke="currentColor" stroke-width="1.2" stroke-linecap="round" stroke-linejoin="round" />
  <line x1="192.87" y1="106.05" x2="191.05" y2="106.05" fill="currentColor" stroke="currentColor" stroke-width="1.2" stroke-linecap="round" stroke-linejoin="round" />
  <path d="M8.53,106.08 C8.43,106.08 8.35,106.08 8.28,106.07" fill="currentColor" stroke="currentColor" stroke-width="1.2" stroke-linecap="round" stroke-linejoin="round" />
  <path d="M13.90,106.07 C13.84,106.08 13.75,106.08 13.64,106.08" fill="currentColor" stroke="currentColor" stroke-width="1.2" stroke-linecap="round" stroke-linejoin="round" />
  <path d="M8.78,106.07 C8.72,106.08 8.63,106.08 8.53,106.08" fill="currentColor" stroke="currentColor" stroke-width="1.2" stroke-linecap="round" stroke-linejoin="round" />
  <path d="M13.64,106.08 C13.53,106.08 13.44,106.08 13.37,106.07" fill="currentColor" stroke="currentColor" stroke-width="1.2" stroke-linecap="round" stroke-linejoin="round" />
</svg>