<svg xmlns="http://www.w3.org/2000/svg" viewBox="0 0 125.54 113.30" preserveAspectRatio="xMidYMid meet" shape-rendering="geometricPrecision" text-rendering="optimizeLegibility">
  <path d="M64.75,8.06 C64.51,8.02 64.27,8.00 64.04,8.00" fill="currentColor" stroke="currentColor" stroke-width="1.2" stroke-linecap="round" stroke-linejoin="round" />
  <path d="M64.04,8.00 C63.50,8.00 63.00,8.09 62.54,8.27" fill="currentColor" stroke="currentColor" stroke-width="1.2" stroke-linecap="round" stroke-linejoin="round" />
  <path d="M65.52,8.24 C65.25,8.16 65.00,8.10 64.75,8.06" fill="currentColor" stroke="currentColor" stroke-width="1.2" stroke-linecap="round" stroke-linejoin="round" />
  <path d="M66.38,8.56 C66.07,8.43 65.79,8.32 65.52,8.24" fill="currentColor" stroke="currentColor" stroke-width="1.2" stroke-linecap="round" stroke-linejoin="round" />
  <path d="M62.54,8.27 C62.09,8.45 61.69,8.70 61.36,9.02" fill="currentColor" stroke="currentColor" stroke-width="1.2" stroke-linecap="round" stroke-linejoin="round" />
  <line x1="66.38" y1="9.61" x2="66.38" y2="8.56" fill="currentColor" stroke="currentColor" stroke-width="1.2" stroke-linecap="round" stroke-linejoin="round" />
  <path d="M64.03,8.90 C64.42,8.90 64.81,8.96 65.19,9.07" fill="currentColor" stroke="currentColor" stroke-width="1.2" stroke-linecap="round" stroke-linejoin="round" />
  <path d="M62.95,9.10 C63.28,8.97 63.64,8.90 64.03,8.90" fill="currentColor" stroke="currentColor" stroke-width="1.2" stroke-linecap="round" stroke-linejoin="round" />
  <path d="M61.36,9.02 C61.02,9.34 60.76,9.72 60.58,10.16" fill="currentColor" stroke="currentColor" stroke-width="1.2" stroke-linecap="round" stroke-linejoin="round" />
  <path d="M65.19,9.07 C65.57,9.19 65.97,9.37 66.38,9.61" fill="currentColor" stroke="currentColor" stroke-width="1.2" stroke-linecap="round" stroke-linejoin="round" />
  <path d="M62.09,9.64 C62.33,9.41 62.62,9.23 62.95,9.10" fill="currentColor" stroke="currentColor" stroke-width="1.2" stroke-linecap="round" stroke-linejoin="round" />
  <path d="M61.52,10.47 C61.65,10.15 61.84,9.88 62.09,9.64" fill="currentColor" stroke="currentColor" stroke-width="1.2" stroke-linecap="round" stroke-linejoin="round" />
  <path d="M60.58,10.16 C60.40,10.60 60.31,11.08 60.30,11.60" fill="currentColor" stroke="currentColor" stroke-width="1.2" stroke-linecap="round" stroke-linejoin="round" />
  <path d="M61.31,11.51 C61.31,11.13 61.38,10.79 61.52,10.47" fill="currentColor" stroke="currentColor" stroke-width="1.2" stroke-linecap="round" stroke-linejoin="round" />
  <path d="M61.66,12.86 C61.43,12.47 61.32,12.02 61.31,11.51" fill="currentColor" stroke="currentColor" stroke-width="1.2" stroke-linecap="round" stroke-linejoin="round" />
  <path d="M60.30,11.60 C60.30,11.89 60.35,12.19 60.44,12.50" fill="currentColor" stroke="currentColor" stroke-width="1.2" stroke-linecap="round" stroke-linejoin="round" />
  <path d="M60.44,12.50 C60.53,12.81 60.67,13.12 60.86,13.41" fill="currentColor" stroke="currentColor" stroke-width="1.2" stroke-linecap="round" stroke-linejoin="round" />
  <path d="M62.63,13.77 C62.21,13.55 61.89,13.25 61.66,12.86" fill="currentColor" stroke="currentColor" stroke-width="1.2" stroke-linecap="round" stroke-linejoin="round" />
  <line x1="66.45" y1="14.40" x2="66.45" y2="13.33" fill="currentColor" stroke="currentColor" stroke-width="1.2" stroke-linecap="round" stroke-linejoin="round" />
  <path d="M66.45,13.33 C66.06,13.58 65.67,13.77 65.26,13.90" fill="currentColor" stroke="currentColor" stroke-width="1.2" stroke-linecap="round" stroke-linejoin="round" />
  <path d="M60.86,13.41 C61.05,13.71 61.29,13.97 61.58,14.21" fill="currentColor" stroke="currentColor" stroke-width="1.2" stroke-linecap="round" stroke-linejoin="round" />
  <path d="M64.07,14.10 C63.52,14.10 63.04,13.98 62.63,13.77" fill="currentColor" stroke="currentColor" stroke-width="1.2" stroke-linecap="round" stroke-linejoin="round" />
  <path d="M65.26,13.90 C64.86,14.03 64.46,14.10 64.07,14.10" fill="currentColor" stroke="currentColor" stroke-width="1.2" stroke-linecap="round" stroke-linejoin="round" />
  <path d="M61.58,14.21 C61.87,14.45 62.22,14.64 62.62,14.78" fill="currentColor" stroke="currentColor" stroke-width="1.2" stroke-linecap="round" stroke-linejoin="round" />
  <path d="M65.75,14.71 C66.00,14.62 66.23,14.52 66.45,14.40" fill="currentColor" stroke="currentColor" stroke-width="1.2" stroke-linecap="round" stroke-linejoin="round" />
  <path d="M64.95,14.92 C65.24,14.87 65.51,14.80 65.75,14.71" fill="currentColor" stroke="currentColor" stroke-width="1.2" stroke-linecap="round" stroke-linejoin="round" />
  <path d="M62.62,14.78 C63.02,14.92 63.47,14.99 63.98,15.00" fill="currentColor" stroke="currentColor" stroke-width="1.2" stroke-linecap="round" stroke-linejoin="round" />
  <path d="M63.98,15.00 C64.34,15.00 64.66,14.97 64.95,14.92" fill="currentColor" stroke="currentColor" stroke-width="1.2" stroke-linecap="round" stroke-linejoin="round" />
  <line x1="17.14" y1="97.67" x2="63.41" y2="17.52" fill="none" stroke="currentColor" stroke-width="1.2" stroke-linecap="round" stroke-linejoin="round" />
  <line x1="63.41" y1="17.52" x2="109.70" y2="97.66" fill="none" stroke="currentColor" stroke-width="1.2" stroke-linecap="round" stroke-linejoin="round" />
  <line x1="33.35" y1="52.51" x2="32.48" y2="52.51" fill="currentColor" stroke="currentColor" stroke-width="1.2" stroke-linecap="round" stroke-linejoin="round" />
  <line x1="32.48" y1="52.51" x2="31.55" y2="59.40" fill="currentColor" stroke="currentColor" stroke-width="1.2" stroke-linecap="round" stroke-linejoin="round" />
  <line x1="32.97" y1="55.18" x2="33.35" y2="52.51" fill="currentColor" stroke="currentColor" stroke-width="1.2" stroke-linecap="round" stroke-linejoin="round" />
  <path d="M34.08,54.70 C33.87,54.70 33.68,54.74 33.51,54.81" fill="currentColor" stroke="currentColor" stroke-width="1.2" stroke-linecap="round" stroke-linejoin="round" />
  <path d="M94.54,54.72 C94.41,54.71 94.29,54.70 94.18,54.70" fill="currentColor" stroke="currentColor" stroke-width="1.2" stroke-linecap="round" stroke-linejoin="round" />
  <path d="M94.18,54.70 C93.75,54.70 93.36,54.76 93.03,54.87" fill="currentColor" stroke="currentColor" stroke-width="1.2" stroke-linecap="round" stroke-linejoin="round" />
  <path d="M34.91,54.96 C34.67,54.79 34.39,54.71 34.08,54.70" fill="currentColor" stroke="currentColor" stroke-width="1.2" stroke-linecap="round" stroke-linejoin="round" />
  <path d="M94.93,54.77 C94.81,54.75 94.68,54.73 94.54,54.72" fill="currentColor" stroke="currentColor" stroke-width="1.2" stroke-linecap="round" stroke-linejoin="round" />
  <path d="M95.24,54.84 C95.16,54.81 95.05,54.79 94.93,54.77" fill="currentColor" stroke="currentColor" stroke-width="1.2" stroke-linecap="round" stroke-linejoin="round" />
  <path d="M33.51,54.81 C33.35,54.89 33.17,55.02 32.99,55.20" fill="currentColor" stroke="currentColor" stroke-width="1.2" stroke-linecap="round" stroke-linejoin="round" />
  <line x1="94.61" y1="59.33" x2="95.24" y2="54.84" fill="currentColor" stroke="currentColor" stroke-width="1.2" stroke-linecap="round" stroke-linejoin="round" />
  <path d="M93.03,54.87 C92.69,54.98 92.40,55.13 92.17,55.33" fill="currentColor" stroke="currentColor" stroke-width="1.2" stroke-linecap="round" stroke-linejoin="round" />
  <path d="M35.46,55.68 C35.32,55.38 35.14,55.14 34.91,54.96" fill="currentColor" stroke="currentColor" stroke-width="1.2" stroke-linecap="round" stroke-linejoin="round" />
  <line x1="32.99" y1="55.20" x2="32.97" y2="55.18" fill="currentColor" stroke="currentColor" stroke-width="1.2" stroke-linecap="round" stroke-linejoin="round" />
  <path d="M92.17,55.33 C91.93,55.52 91.73,55.74 91.58,55.99" fill="currentColor" stroke="currentColor" stroke-width="1.2" stroke-linecap="round" stroke-linejoin="round" />
  <path d="M93.33,55.54 C93.60,55.44 93.93,55.41 94.31,55.44" fill="currentColor" stroke="currentColor" stroke-width="1.2" stroke-linecap="round" stroke-linejoin="round" />
  <line x1="94.31" y1="55.44" x2="93.94" y2="58.03" fill="currentColor" stroke="currentColor" stroke-width="1.2" stroke-linecap="round" stroke-linejoin="round" />
  <path d="M33.56,55.48 C33.66,55.45 33.75,55.44 33.82,55.44" fill="currentColor" stroke="currentColor" stroke-width="1.2" stroke-linecap="round" stroke-linejoin="round" />
  <path d="M33.82,55.44 C34.12,55.45 34.36,55.56 34.53,55.78" fill="currentColor" stroke="currentColor" stroke-width="1.2" stroke-linecap="round" stroke-linejoin="round" />
  <path d="M33.26,55.59 C33.36,55.54 33.46,55.50 33.56,55.48" fill="currentColor" stroke="currentColor" stroke-width="1.2" stroke-linecap="round" stroke-linejoin="round" />
  <path d="M92.66,55.92 C92.84,55.76 93.06,55.63 93.33,55.54" fill="currentColor" stroke="currentColor" stroke-width="1.2" stroke-linecap="round" stroke-linejoin="round" />
  <path d="M32.99,55.76 C33.07,55.69 33.15,55.63 33.26,55.59" fill="currentColor" stroke="currentColor" stroke-width="1.2" stroke-linecap="round" stroke-linejoin="round" />
  <path d="M35.66,56.75 C35.65,56.35 35.59,55.99 35.46,55.68" fill="currentColor" stroke="currentColor" stroke-width="1.2" stroke-linecap="round" stroke-linejoin="round" />
  <path d="M32.86,56.01 C32.88,55.92 32.92,55.83 32.99,55.76" fill="currentColor" stroke="currentColor" stroke-width="1.2" stroke-linecap="round" stroke-linejoin="round" />
  <path d="M34.53,55.78 C34.70,56.00 34.79,56.32 34.79,56.73" fill="currentColor" stroke="currentColor" stroke-width="1.2" stroke-linecap="round" stroke-linejoin="round" />
  <path d="M92.26,56.46 C92.35,56.27 92.49,56.09 92.66,55.92" fill="currentColor" stroke="currentColor" stroke-width="1.2" stroke-linecap="round" stroke-linejoin="round" />
  <path d="M91.58,55.99 C91.43,56.24 91.31,56.50 91.24,56.79" fill="currentColor" stroke="currentColor" stroke-width="1.2" stroke-linecap="round" stroke-linejoin="round" />
  <line x1="32.47" y1="58.77" x2="32.86" y2="56.01" fill="currentColor" stroke="currentColor" stroke-width="1.2" stroke-linecap="round" stroke-linejoin="round" />
  <path d="M92.06,57.03 C92.10,56.85 92.16,56.66 92.26,56.46" fill="currentColor" stroke="currentColor" stroke-width="1.2" stroke-linecap="round" stroke-linejoin="round" />
  <path d="M34.79,56.73 C34.79,57.14 34.71,57.49 34.57,57.80" fill="currentColor" stroke="currentColor" stroke-width="1.2" stroke-linecap="round" stroke-linejoin="round" />
  <path d="M35.57,57.49 C35.63,57.24 35.66,56.99 35.66,56.75" fill="currentColor" stroke="currentColor" stroke-width="1.2" stroke-linecap="round" stroke-linejoin="round" />
  <path d="M91.24,56.79 C91.17,57.07 91.14,57.35 91.14,57.64" fill="currentColor" stroke="currentColor" stroke-width="1.2" stroke-linecap="round" stroke-linejoin="round" />
  <path d="M92.00,57.49 C92.00,57.37 92.02,57.21 92.06,57.03" fill="currentColor" stroke="currentColor" stroke-width="1.2" stroke-linecap="round" stroke-linejoin="round" />
  <path d="M92.12,58.13 C92.04,57.95 92.01,57.73 92.00,57.49" fill="currentColor" stroke="currentColor" stroke-width="1.2" stroke-linecap="round" stroke-linejoin="round" />
  <path d="M35.28,58.23 C35.41,57.99 35.51,57.75 35.57,57.49" fill="currentColor" stroke="currentColor" stroke-width="1.2" stroke-linecap="round" stroke-linejoin="round" />
  <path d="M91.14,57.64 C91.14,57.97 91.20,58.27 91.33,58.54" fill="currentColor" stroke="currentColor" stroke-width="1.2" stroke-linecap="round" stroke-linejoin="round" />
  <path d="M34.57,57.80 C34.43,58.10 34.22,58.34 33.94,58.51" fill="currentColor" stroke="currentColor" stroke-width="1.2" stroke-linecap="round" stroke-linejoin="round" />
  <path d="M93.94,58.03 C93.85,58.15 93.75,58.26 93.63,58.37" fill="currentColor" stroke="currentColor" stroke-width="1.2" stroke-linecap="round" stroke-linejoin="round" />
  <path d="M92.43,58.56 C92.30,58.46 92.20,58.31 92.12,58.13" fill="currentColor" stroke="currentColor" stroke-width="1.2" stroke-linecap="round" stroke-linejoin="round" />
  <path d="M34.74,58.86 C34.97,58.67 35.15,58.46 35.28,58.23" fill="currentColor" stroke="currentColor" stroke-width="1.2" stroke-linecap="round" stroke-linejoin="round" />
  <path d="M93.63,58.37 C93.51,58.47 93.39,58.55 93.26,58.62" fill="currentColor" stroke="currentColor" stroke-width="1.2" stroke-linecap="round" stroke-linejoin="round" />
  <path d="M33.94,58.51 C33.67,58.68 33.33,58.77 32.94,58.77" fill="currentColor" stroke="currentColor" stroke-width="1.2" stroke-linecap="round" stroke-linejoin="round" />
  <path d="M91.33,58.54 C91.46,58.81 91.64,59.02 91.86,59.18" fill="currentColor" stroke="currentColor" stroke-width="1.2" stroke-linecap="round" stroke-linejoin="round" />
  <path d="M92.89,58.72 C92.72,58.72 92.57,58.67 92.43,58.56" fill="currentColor" stroke="currentColor" stroke-width="1.2" stroke-linecap="round" stroke-linejoin="round" />
  <path d="M93.26,58.62 C93.13,58.69 93.01,58.72 92.89,58.72" fill="currentColor" stroke="currentColor" stroke-width="1.2" stroke-linecap="round" stroke-linejoin="round" />
  <line x1="32.94" y1="58.77" x2="32.47" y2="58.77" fill="currentColor" stroke="currentColor" stroke-width="1.2" stroke-linecap="round" stroke-linejoin="round" />
  <path d="M93.25,59.25 C93.46,59.14 93.65,58.98 93.82,58.79" fill="currentColor" stroke="currentColor" stroke-width="1.2" stroke-linecap="round" stroke-linejoin="round" />
  <line x1="93.82" y1="58.79" x2="93.84" y2="58.81" fill="currentColor" stroke="currentColor" stroke-width="1.2" stroke-linecap="round" stroke-linejoin="round" />
  <line x1="93.84" y1="58.81" x2="93.76" y2="59.33" fill="currentColor" stroke="currentColor" stroke-width="1.2" stroke-linecap="round" stroke-linejoin="round" />
  <path d="M33.91,59.30 C34.24,59.19 34.52,59.04 34.74,58.86" fill="currentColor" stroke="currentColor" stroke-width="1.2" stroke-linecap="round" stroke-linejoin="round" />
  <path d="M91.86,59.18 C92.08,59.34 92.34,59.42 92.61,59.42" fill="currentColor" stroke="currentColor" stroke-width="1.2" stroke-linecap="round" stroke-linejoin="round" />
  <path d="M92.61,59.42 C92.83,59.42 93.04,59.36 93.25,59.25" fill="currentColor" stroke="currentColor" stroke-width="1.2" stroke-linecap="round" stroke-linejoin="round" />
  <path d="M32.74,59.47 C33.19,59.47 33.58,59.41 33.91,59.30" fill="currentColor" stroke="currentColor" stroke-width="1.2" stroke-linecap="round" stroke-linejoin="round" />
  <line x1="93.76" y1="59.33" x2="94.61" y2="59.33" fill="currentColor" stroke="currentColor" stroke-width="1.2" stroke-linecap="round" stroke-linejoin="round" />
  <path d="M31.55,59.40 C31.64,59.41 31.75,59.43 31.88,59.44" fill="currentColor" stroke="currentColor" stroke-width="1.2" stroke-linecap="round" stroke-linejoin="round" />
  <path d="M31.88,59.44 C32.01,59.45 32.15,59.46 32.30,59.46" fill="currentColor" stroke="currentColor" stroke-width="1.2" stroke-linecap="round" stroke-linejoin="round" />
  <path d="M32.30,59.46 C32.45,59.47 32.59,59.47 32.74,59.47" fill="currentColor" stroke="currentColor" stroke-width="1.2" stroke-linecap="round" stroke-linejoin="round" />
  <line x1="11.62" y1="95.31" x2="10.93" y2="95.31" fill="currentColor" stroke="currentColor" stroke-width="1.2" stroke-linecap="round" stroke-linejoin="round" />
  <line x1="10.93" y1="95.31" x2="8.00" y2="102.16" fill="currentColor" stroke="currentColor" stroke-width="1.2" stroke-linecap="round" stroke-linejoin="round" />
  <line x1="14.67" y1="102.16" x2="11.62" y2="95.31" fill="currentColor" stroke="currentColor" stroke-width="1.2" stroke-linecap="round" stroke-linejoin="round" />
  <path d="M115.79,95.50 C115.52,95.40 115.21,95.35 114.84,95.35" fill="currentColor" stroke="currentColor" stroke-width="1.2" stroke-linecap="round" stroke-linejoin="round" />
  <line x1="114.84" y1="95.35" x2="112.86" y2="95.35" fill="currentColor" stroke="currentColor" stroke-width="1.2" stroke-linecap="round" stroke-linejoin="round" />
  <line x1="112.86" y1="95.35" x2="112.86" y2="102.16" fill="currentColor" stroke="currentColor" stroke-width="1.2" stroke-linecap="round" stroke-linejoin="round" />
  <path d="M116.44,95.89 C116.27,95.73 116.05,95.60 115.79,95.50" fill="currentColor" stroke="currentColor" stroke-width="1.2" stroke-linecap="round" stroke-linejoin="round" />
  <path d="M116.82,96.45 C116.74,96.25 116.61,96.06 116.44,95.89" fill="currentColor" stroke="currentColor" stroke-width="1.2" stroke-linecap="round" stroke-linejoin="round" />
  <line x1="113.84" y1="96.23" x2="114.74" y2="96.23" fill="currentColor" stroke="currentColor" stroke-width="1.2" stroke-linecap="round" stroke-linejoin="round" />
  <path d="M114.74,96.23 C115.04,96.23 115.27,96.27 115.45,96.36" fill="currentColor" stroke="currentColor" stroke-width="1.2" stroke-linecap="round" stroke-linejoin="round" />
  <line x1="113.84" y1="98.27" x2="113.84" y2="96.23" fill="currentColor" stroke="currentColor" stroke-width="1.2" stroke-linecap="round" stroke-linejoin="round" />
  <path d="M115.45,96.36 C115.62,96.44 115.75,96.56 115.82,96.70" fill="currentColor" stroke="currentColor" stroke-width="1.2" stroke-linecap="round" stroke-linejoin="round" />
  <path d="M116.94,97.09 C116.94,96.87 116.90,96.66 116.82,96.45" fill="currentColor" stroke="currentColor" stroke-width="1.2" stroke-linecap="round" stroke-linejoin="round" />
  <path d="M115.82,96.70 C115.90,96.85 115.93,97.00 115.93,97.18" fill="currentColor" stroke="currentColor" stroke-width="1.2" stroke-linecap="round" stroke-linejoin="round" />
  <line x1="11.26" y1="96.81" x2="12.36" y2="99.27" fill="currentColor" stroke="currentColor" stroke-width="1.2" stroke-linecap="round" stroke-linejoin="round" />
  <line x1="10.24" y1="99.27" x2="11.26" y2="96.81" fill="currentColor" stroke="currentColor" stroke-width="1.2" stroke-linecap="round" stroke-linejoin="round" />
  <path d="M116.69,97.97 C116.86,97.74 116.94,97.44 116.94,97.09" fill="currentColor" stroke="currentColor" stroke-width="1.2" stroke-linecap="round" stroke-linejoin="round" />
  <path d="M115.93,97.18 C115.93,97.54 115.81,97.81 115.57,97.99" fill="currentColor" stroke="currentColor" stroke-width="1.2" stroke-linecap="round" stroke-linejoin="round" />
  <line x1="109.70" y1="97.66" x2="17.14" y2="97.67" fill="none" stroke="currentColor" stroke-width="1.2" stroke-linecap="round" stroke-linejoin="round" />
  <path d="M115.90,98.55 C116.25,98.40 116.52,98.21 116.69,97.97" fill="currentColor" stroke="currentColor" stroke-width="1.2" stroke-linecap="round" stroke-linejoin="round" />
  <path d="M115.57,97.99 C115.34,98.18 114.97,98.27 114.49,98.27" fill="currentColor" stroke="currentColor" stroke-width="1.2" stroke-linecap="round" stroke-linejoin="round" />
  <line x1="114.49" y1="98.27" x2="113.84" y2="98.27" fill="currentColor" stroke="currentColor" stroke-width="1.2" stroke-linecap="round" stroke-linejoin="round" />
  <line x1="115.90" y1="98.57" x2="115.90" y2="98.55" fill="currentColor" stroke="currentColor" stroke-width="1.2" stroke-linecap="round" stroke-linejoin="round" />
  <path d="M116.78,98.91 C116.53,98.74 116.24,98.63 115.90,98.57" fill="currentColor" stroke="currentColor" stroke-width="1.2" stroke-linecap="round" stroke-linejoin="round" />
  <path d="M117.34,99.52 C117.21,99.27 117.02,99.07 116.78,98.91" fill="currentColor" stroke="currentColor" stroke-width="1.2" stroke-linecap="round" stroke-linejoin="round" />
  <line x1="113.84" y1="99.14" x2="115.02" y2="99.14" fill="currentColor" stroke="currentColor" stroke-width="1.2" stroke-linecap="round" stroke-linejoin="round" />
  <path d="M115.02,99.14 C115.36,99.15 115.65,99.19 115.87,99.28" fill="currentColor" stroke="currentColor" stroke-width="1.2" stroke-linecap="round" stroke-linejoin="round" />
  <line x1="113.84" y1="101.29" x2="113.84" y2="99.14" fill="currentColor" stroke="currentColor" stroke-width="1.2" stroke-linecap="round" stroke-linejoin="round" />
  <line x1="12.36" y1="99.27" x2="10.24" y2="99.27" fill="currentColor" stroke="currentColor" stroke-width="1.2" stroke-linecap="round" stroke-linejoin="round" />
  <path d="M115.87,99.28 C116.09,99.37 116.26,99.50 116.37,99.65" fill="currentColor" stroke="currentColor" stroke-width="1.2" stroke-linecap="round" stroke-linejoin="round" />
  <path d="M117.54,100.35 C117.54,100.04 117.47,99.76 117.34,99.52" fill="currentColor" stroke="currentColor" stroke-width="1.2" stroke-linecap="round" stroke-linejoin="round" />
  <path d="M116.37,99.65 C116.48,99.81 116.53,100.00 116.53,100.21" fill="currentColor" stroke="currentColor" stroke-width="1.2" stroke-linecap="round" stroke-linejoin="round" />
  <line x1="9.00" y1="102.16" x2="9.86" y2="100.15" fill="currentColor" stroke="currentColor" stroke-width="1.2" stroke-linecap="round" stroke-linejoin="round" />
  <line x1="9.86" y1="100.15" x2="12.76" y2="100.15" fill="currentColor" stroke="currentColor" stroke-width="1.2" stroke-linecap="round" stroke-linejoin="round" />
  <line x1="12.76" y1="100.15" x2="13.67" y2="102.16" fill="currentColor" stroke="currentColor" stroke-width="1.2" stroke-linecap="round" stroke-linejoin="round" />
  <path d="M116.53,100.21 C116.53,100.38 116.49,100.55 116.41,100.71" fill="currentColor" stroke="currentColor" stroke-width="1.2" stroke-linecap="round" stroke-linejoin="round" />
  <path d="M117.41,100.98 C117.50,100.77 117.54,100.56 117.54,100.35" fill="currentColor" stroke="currentColor" stroke-width="1.2" stroke-linecap="round" stroke-linejoin="round" />
  <path d="M64.91,100.55 C64.78,100.54 64.66,100.53 64.54,100.53" fill="currentColor" stroke="currentColor" stroke-width="1.2" stroke-linecap="round" stroke-linejoin="round" />
  <path d="M64.54,100.53 C64.10,100.53 63.70,100.60 63.34,100.74" fill="currentColor" stroke="currentColor" stroke-width="1.2" stroke-linecap="round" stroke-linejoin="round" />
  <path d="M65.31,100.61 C65.17,100.58 65.04,100.56 64.91,100.55" fill="currentColor" stroke="currentColor" stroke-width="1.2" stroke-linecap="round" stroke-linejoin="round" />
  <line x1="65.20" y1="101.36" x2="65.31" y2="100.61" fill="currentColor" stroke="currentColor" stroke-width="1.2" stroke-linecap="round" stroke-linejoin="round" />
  <path d="M116.41,100.71 C116.32,100.88 116.17,101.01 115.96,101.12" fill="currentColor" stroke="currentColor" stroke-width="1.2" stroke-linecap="round" stroke-linejoin="round" />
  <path d="M63.34,100.74 C62.98,100.89 62.68,101.08 62.42,101.33" fill="currentColor" stroke="currentColor" stroke-width="1.2" stroke-linecap="round" stroke-linejoin="round" />
  <path d="M117.01,101.57 C117.19,101.39 117.33,101.20 117.41,100.98" fill="currentColor" stroke="currentColor" stroke-width="1.2" stroke-linecap="round" stroke-linejoin="round" />
  <path d="M115.96,101.12 C115.75,101.23 115.45,101.28 115.07,101.29" fill="currentColor" stroke="currentColor" stroke-width="1.2" stroke-linecap="round" stroke-linejoin="round" />
  <line x1="115.07" y1="101.29" x2="113.84" y2="101.29" fill="currentColor" stroke="currentColor" stroke-width="1.2" stroke-linecap="round" stroke-linejoin="round" />
  <path d="M63.70,101.45 C63.96,101.34 64.24,101.29 64.55,101.29" fill="currentColor" stroke="currentColor" stroke-width="1.2" stroke-linecap="round" stroke-linejoin="round" />
  <path d="M64.55,101.29 C64.66,101.29 64.76,101.29 64.87,101.30" fill="currentColor" stroke="currentColor" stroke-width="1.2" stroke-linecap="round" stroke-linejoin="round" />
  <path d="M64.87,101.30 C64.98,101.31 65.09,101.33 65.20,101.36" fill="currentColor" stroke="currentColor" stroke-width="1.2" stroke-linecap="round" stroke-linejoin="round" />
  <path d="M62.42,101.33 C62.17,101.58 61.97,101.87 61.84,102.19" fill="currentColor" stroke="currentColor" stroke-width="1.2" stroke-linecap="round" stroke-linejoin="round" />
  <path d="M63.06,101.88 C63.24,101.70 63.45,101.55 63.70,101.45" fill="currentColor" stroke="currentColor" stroke-width="1.2" stroke-linecap="round" stroke-linejoin="round" />
  <path d="M116.29,102.00 C116.58,101.89 116.83,101.75 117.01,101.57" fill="currentColor" stroke="currentColor" stroke-width="1.2" stroke-linecap="round" stroke-linejoin="round" />
  <path d="M62.65,102.48 C62.74,102.26 62.88,102.06 63.06,101.88" fill="currentColor" stroke="currentColor" stroke-width="1.2" stroke-linecap="round" stroke-linejoin="round" />
  <path d="M115.20,102.16 C115.63,102.16 115.99,102.11 116.29,102.00" fill="currentColor" stroke="currentColor" stroke-width="1.2" stroke-linecap="round" stroke-linejoin="round" />
  <line x1="8.00" y1="102.16" x2="9.00" y2="102.16" fill="currentColor" stroke="currentColor" stroke-width="1.2" stroke-linecap="round" stroke-linejoin="round" />
  <line x1="13.67" y1="102.16" x2="14.67" y2="102.16" fill="currentColor" stroke="currentColor" stroke-width="1.2" stroke-linecap="round" stroke-linejoin="round" />
  <line x1="112.86" y1="102.16" x2="115.20" y2="102.16" fill="currentColor" stroke="currentColor" stroke-width="1.2" stroke-linecap="round" stroke-linejoin="round" />
  <path d="M61.84,102.19 C61.70,102.51 61.63,102.86 61.63,103.23" fill="currentColor" stroke="currentColor" stroke-width="1.2" stroke-linecap="round" stroke-linejoin="round" />
  <path d="M62.50,103.18 C62.50,102.94 62.55,102.71 62.65,102.48" fill="currentColor" stroke="currentColor" stroke-width="1.2" stroke-linecap="round" stroke-linejoin="round" />
  <path d="M62.83,104.18 C62.62,103.94 62.51,103.61 62.50,103.18" fill="currentColor" stroke="currentColor" stroke-width="1.2" stroke-linecap="round" stroke-linejoin="round" />
  <path d="M61.63,103.23 C61.64,103.65 61.72,104.01 61.88,104.32" fill="currentColor" stroke="currentColor" stroke-width="1.2" stroke-linecap="round" stroke-linejoin="round" />
  <path d="M64.96,104.16 C64.76,104.28 64.55,104.38 64.36,104.44" fill="currentColor" stroke="currentColor" stroke-width="1.2" stroke-linecap="round" stroke-linejoin="round" />
  <line x1="64.86" y1="104.98" x2="64.96" y2="104.16" fill="currentColor" stroke="currentColor" stroke-width="1.2" stroke-linecap="round" stroke-linejoin="round" />
  <path d="M63.73,104.54 C63.35,104.53 63.05,104.41 62.83,104.18" fill="currentColor" stroke="currentColor" stroke-width="1.2" stroke-linecap="round" stroke-linejoin="round" />
  <path d="M61.88,104.32 C62.04,104.63 62.27,104.87 62.56,105.04" fill="currentColor" stroke="currentColor" stroke-width="1.2" stroke-linecap="round" stroke-linejoin="round" />
  <path d="M64.36,104.44 C64.16,104.50 63.95,104.54 63.73,104.54" fill="currentColor" stroke="currentColor" stroke-width="1.2" stroke-linecap="round" stroke-linejoin="round" />
  <path d="M64.25,105.22 C64.45,105.17 64.65,105.09 64.86,104.98" fill="currentColor" stroke="currentColor" stroke-width="1.2" stroke-linecap="round" stroke-linejoin="round" />
  <path d="M62.56,105.04 C62.86,105.21 63.21,105.29 63.61,105.30" fill="currentColor" stroke="currentColor" stroke-width="1.2" stroke-linecap="round" stroke-linejoin="round" />
  <path d="M63.61,105.30 C63.84,105.30 64.05,105.27 64.25,105.22" fill="currentColor" stroke="currentColor" stroke-width="1.2" stroke-linecap="round" stroke-linejoin="round" />
</svg>