<svg xmlns="http://www.w3.org/2000/svg" viewBox="0 0 227.66 111.86" preserveAspectRatio="xMidYMid meet" shape-rendering="geometricPrecision" text-rendering="optimizeLegibility">
  <polygon points="80.35,18.54 212.19,18.54 174.45,93.31 42.61,93.31" fill="none" stroke="currentColor" stroke-width="1.4891793251037597" stroke-linecap="round" stroke-linejoin="round" />
  <path d="M160.37,93.42 C160.34,85.98 166.36,79.81 174.00,79.56" fill="none" stroke="currentColor" stroke-width="1.0594529032707214" stroke-linecap="round" stroke-linejoin="round" />
  <path d="M174.00,79.56 C176.39,79.48 178.67,79.99 180.68,80.96" fill="none" stroke="currentColor" stroke-width="1.0594529032707214" stroke-linecap="round" stroke-linejoin="round" />
  <path d="M205.34,31.63 C200.35,29.08 197.18,23.94 197.25,18.38" fill="none" stroke="currentColor" stroke-width="1.0594529032707214" stroke-linecap="round" stroke-linejoin="round" />
  <path d="M28.72,93.51 C28.63,90.89 29.31,88.23 30.82,85.84" fill="none" stroke="currentColor" stroke-width="1.0594529032707214" stroke-linecap="round" stroke-linejoin="round" />
  <path d="M30.82,85.84 C34.65,79.81 42.50,77.70 48.88,80.77" fill="none" stroke="currentColor" stroke-width="1.0594529032707214" stroke-linecap="round" stroke-linejoin="round" />
  <path d="M24.34,78.35L24.34,70.71L23.93,70.71L21.30,72.82L21.72,73.76L23.19,72.57L23.19,78.35L24.34,78.35Z" fill="currentColor" stroke="currentColor" stroke-width="1.2" stroke-linejoin="round" />
  <path d="M30.85,70.82L27.42,70.82L27.42,74.74C27.85,74.64 28.23,74.61 28.56,74.64C28.90,74.68 29.18,74.76 29.41,74.89C29.64,75.03 29.82,75.19 29.94,75.40C30.06,75.60 30.12,75.82 30.13,76.07C30.12,76.32 30.05,76.54 29.91,76.75C29.76,76.95 29.57,77.12 29.33,77.24C29.09,77.36 28.82,77.42 28.53,77.43C28.25,77.43 27.97,77.38 27.69,77.29C27.40,77.19 27.13,77.06 26.85,76.87L26.85,77.99C27.07,78.10 27.28,78.19 27.48,78.26C27.68,78.33 27.88,78.38 28.08,78.41C28.28,78.44 28.49,78.45 28.71,78.45C29.20,78.45 29.64,78.34 30.01,78.14C30.39,77.93 30.69,77.65 30.90,77.29C31.12,76.93 31.23,76.51 31.23,76.04C31.23,75.69 31.16,75.37 31.04,75.07C30.91,74.78 30.73,74.52 30.48,74.30C30.24,74.08 29.95,73.92 29.60,73.81C29.26,73.70 28.87,73.66 28.43,73.68L28.43,71.79L30.85,71.79L30.85,70.82Z" fill="currentColor" stroke="currentColor" stroke-width="1.2" stroke-linejoin="round" />
  <path d="M37.24,74.58C37.24,74.00 37.18,73.47 37.06,73.00C36.94,72.53 36.77,72.12 36.55,71.78C36.34,71.44 36.07,71.18 35.77,70.99C35.47,70.81 35.13,70.72 34.75,70.71C34.38,70.72 34.04,70.81 33.74,70.99C33.43,71.18 33.17,71.44 32.95,71.78C32.73,72.12 32.57,72.53 32.45,73.00C32.33,73.47 32.27,74.00 32.27,74.58C32.27,75.17 32.33,75.69 32.45,76.17C32.57,76.64 32.73,77.05 32.95,77.39C33.17,77.73 33.43,77.99 33.74,78.18C34.04,78.36 34.38,78.45 34.75,78.45C35.13,78.45 35.47,78.36 35.77,78.18C36.07,77.99 36.34,77.73 36.55,77.39C36.77,77.05 36.94,76.64 37.06,76.17C37.18,75.69 37.24,75.17 37.24,74.58ZM36.13,74.58C36.13,75.18 36.08,75.68 35.96,76.11C35.86,76.53 35.70,76.86 35.49,77.08C35.29,77.31 35.04,77.42 34.75,77.43C34.47,77.42 34.22,77.31 34.01,77.08C33.81,76.86 33.65,76.53 33.54,76.11C33.43,75.68 33.38,75.18 33.37,74.58C33.38,73.99 33.43,73.49 33.54,73.06C33.65,72.64 33.81,72.31 34.01,72.09C34.22,71.86 34.47,71.75 34.75,71.74C35.04,71.75 35.29,71.86 35.49,72.09C35.70,72.31 35.86,72.64 35.96,73.06C36.08,73.49 36.13,73.99 36.13,74.58Z" fill="currentColor" stroke="currentColor" stroke-width="1.2" stroke-linejoin="round" />
  <path d="M39.80,70.89C39.98,70.89 40.13,70.93 40.27,71.01C40.42,71.09 40.53,71.20 40.61,71.34C40.69,71.47 40.74,71.63 40.74,71.80C40.74,71.97 40.69,72.12 40.61,72.26C40.53,72.40 40.42,72.51 40.27,72.59C40.13,72.67 39.98,72.71 39.80,72.72C39.63,72.71 39.47,72.67 39.33,72.59C39.19,72.51 39.08,72.40 39.00,72.26C38.92,72.12 38.88,71.97 38.87,71.80C38.88,71.63 38.92,71.47 39.00,71.34C39.08,71.20 39.19,71.09 39.33,71.01C39.47,70.93 39.63,70.89 39.80,70.89ZM39.80,70.30C39.51,70.31 39.26,70.38 39.03,70.51C38.80,70.64 38.62,70.82 38.48,71.04C38.35,71.27 38.28,71.52 38.28,71.80C38.28,72.08 38.35,72.33 38.48,72.55C38.62,72.78 38.80,72.96 39.03,73.09C39.26,73.22 39.51,73.29 39.80,73.29C40.09,73.29 40.34,73.22 40.57,73.09C40.80,72.96 40.98,72.78 41.12,72.55C41.25,72.33 41.32,72.08 41.32,71.80C41.32,71.52 41.25,71.27 41.12,71.04C40.98,70.82 40.80,70.64 40.57,70.51C40.34,70.38 40.09,70.31 39.80,70.30Z" fill="currentColor" stroke="currentColor" stroke-width="1.2" stroke-linejoin="round" />
  <path d="M161.08,70.75C160.41,71.18 159.85,71.67 159.39,72.22C158.93,72.76 158.59,73.34 158.35,73.95C158.12,74.55 158.00,75.17 158.00,75.81C158.00,76.34 158.10,76.81 158.31,77.21C158.52,77.61 158.81,77.92 159.18,78.14C159.55,78.37 159.98,78.48 160.48,78.48C160.79,78.48 161.08,78.42 161.35,78.30C161.63,78.19 161.87,78.02 162.08,77.82C162.28,77.61 162.45,77.37 162.57,77.10C162.69,76.83 162.75,76.54 162.75,76.23C162.74,75.81 162.65,75.43 162.46,75.10C162.28,74.77 162.02,74.51 161.70,74.32C161.38,74.13 161.01,74.03 160.59,74.03C160.34,74.03 160.11,74.06 159.91,74.12C159.71,74.19 159.54,74.26 159.38,74.34C159.49,73.98 159.66,73.64 159.90,73.29C160.13,72.95 160.40,72.63 160.72,72.33C161.04,72.04 161.38,71.78 161.74,71.57L161.08,70.75ZM159.15,75.45C159.31,75.35 159.45,75.27 159.57,75.21C159.70,75.16 159.82,75.11 159.95,75.09C160.07,75.07 160.21,75.06 160.37,75.06C160.61,75.06 160.83,75.11 161.02,75.21C161.22,75.31 161.37,75.45 161.48,75.62C161.59,75.80 161.64,75.99 161.64,76.22C161.64,76.47 161.59,76.68 161.49,76.87C161.38,77.05 161.24,77.20 161.06,77.30C160.87,77.40 160.66,77.46 160.41,77.46C160.21,77.46 160.02,77.41 159.83,77.32C159.65,77.23 159.50,77.09 159.37,76.92C159.24,76.75 159.15,76.54 159.11,76.29C159.06,76.04 159.08,75.77 159.15,75.45Z" fill="currentColor" stroke="currentColor" stroke-width="1.2" stroke-linejoin="round" />
  <path d="M167.66,73.42L166.66,73.42L165.07,76.84L165.04,76.84L164.37,73.42L163.41,73.42L164.39,78.09L163.01,80.93L164.03,80.93L167.66,73.42Z" fill="currentColor" stroke="currentColor" stroke-width="1.2" stroke-linejoin="round" />
  <path d="M195.92,26.64L194.74,26.64L193.42,28.31L192.62,26.64L191.59,26.64L192.78,28.97L190.57,31.60L191.75,31.60L193.21,29.74L194.14,31.60L195.17,31.60L193.88,29.09L195.92,26.64Z" fill="currentColor" stroke="currentColor" stroke-width="1.2" stroke-linejoin="round" />
  <path d="M40.11,95.63L39.28,95.63L35.71,103.79L36.93,103.79L37.97,101.40L41.50,101.40L42.61,103.79L43.82,103.79L40.11,95.63ZM39.68,97.41L41.01,100.35L38.44,100.35L39.68,97.41Z" fill="currentColor" stroke="currentColor" stroke-width="1.2" stroke-linejoin="round" />
  <path d="M175.36,103.86L178.20,103.86C178.72,103.85 179.16,103.79 179.53,103.66C179.89,103.53 180.18,103.36 180.41,103.15C180.63,102.94 180.80,102.70 180.90,102.45C181.00,102.20 181.05,101.94 181.05,101.69C181.05,101.32 180.97,100.99 180.81,100.70C180.65,100.41 180.42,100.17 180.12,99.98C179.83,99.78 179.47,99.65 179.06,99.57L179.06,99.55C179.49,99.38 179.81,99.15 180.01,98.87C180.22,98.58 180.32,98.23 180.32,97.81C180.32,97.55 180.27,97.30 180.18,97.05C180.08,96.81 179.92,96.59 179.72,96.39C179.51,96.19 179.24,96.03 178.92,95.92C178.60,95.80 178.21,95.74 177.77,95.74L175.36,95.74L175.36,103.86ZM176.55,96.78L177.65,96.78C178.01,96.79 178.30,96.84 178.51,96.94C178.72,97.04 178.87,97.18 178.96,97.35C179.05,97.52 179.10,97.71 179.10,97.92C179.10,98.35 178.95,98.68 178.66,98.89C178.37,99.11 177.93,99.21 177.34,99.21L176.55,99.21L176.55,96.78ZM176.55,100.26L177.99,100.26C178.40,100.26 178.75,100.32 179.02,100.42C179.29,100.53 179.49,100.68 179.62,100.87C179.76,101.06 179.82,101.28 179.82,101.52C179.83,101.73 179.78,101.93 179.67,102.13C179.57,102.32 179.39,102.48 179.13,102.61C178.87,102.74 178.51,102.81 178.05,102.81L176.55,102.81L176.55,100.26Z" fill="currentColor" stroke="currentColor" stroke-width="1.2" stroke-linejoin="round" />
  <path d="M219.58,8.67C219.20,8.51 218.85,8.39 218.53,8.29C218.20,8.19 217.89,8.12 217.60,8.07C217.31,8.02 217.02,8.00 216.73,8.00C216.07,8.00 215.46,8.11 214.91,8.32C214.36,8.53 213.88,8.83 213.47,9.22C213.07,9.60 212.75,10.05 212.53,10.57C212.30,11.09 212.19,11.66 212.19,12.29C212.19,12.63 212.24,12.99 212.35,13.36C212.47,13.73 212.64,14.09 212.87,14.45C213.10,14.80 213.39,15.12 213.74,15.40C214.10,15.68 214.52,15.91 215.00,16.08C215.49,16.24 216.04,16.33 216.66,16.33C217.09,16.33 217.48,16.30 217.84,16.24C218.19,16.18 218.51,16.10 218.81,15.99C219.11,15.88 219.40,15.76 219.66,15.62L219.66,14.35C219.19,14.64 218.71,14.87 218.22,15.03C217.73,15.18 217.24,15.26 216.77,15.26C216.10,15.26 215.52,15.13 215.01,14.87C214.51,14.61 214.12,14.25 213.84,13.79C213.56,13.33 213.42,12.79 213.42,12.18C213.42,11.73 213.50,11.32 213.67,10.94C213.83,10.56 214.06,10.24 214.36,9.96C214.66,9.68 215.00,9.46 215.41,9.31C215.81,9.15 216.25,9.08 216.72,9.07C217.20,9.07 217.67,9.14 218.13,9.28C218.59,9.41 219.07,9.63 219.58,9.92L219.58,8.67Z" fill="currentColor" stroke="currentColor" stroke-width="1.2" stroke-linejoin="round" />
  <path d="M74.35,16.32L77.58,16.32C78.13,16.31 78.63,16.24 79.09,16.09C79.55,15.95 79.96,15.75 80.31,15.49C80.67,15.23 80.97,14.93 81.22,14.59C81.47,14.24 81.66,13.87 81.79,13.48C81.92,13.08 81.98,12.68 81.98,12.26C81.98,11.87 81.93,11.48 81.82,11.10C81.71,10.71 81.54,10.35 81.31,10.00C81.09,9.65 80.80,9.34 80.45,9.07C80.10,8.80 79.68,8.59 79.21,8.43C78.73,8.28 78.18,8.20 77.57,8.20L74.35,8.20L74.35,16.32ZM75.54,9.24L77.37,9.24C77.96,9.25 78.46,9.33 78.88,9.48C79.31,9.64 79.66,9.86 79.94,10.14C80.21,10.41 80.42,10.73 80.56,11.10C80.69,11.46 80.76,11.85 80.76,12.26C80.76,12.46 80.73,12.69 80.67,12.95C80.61,13.21 80.51,13.48 80.37,13.75C80.22,14.02 80.02,14.27 79.77,14.50C79.52,14.73 79.20,14.91 78.82,15.05C78.43,15.19 77.97,15.26 77.44,15.27L75.54,15.27L75.54,9.24Z" fill="currentColor" stroke="currentColor" stroke-width="1.2" stroke-linejoin="round" />
  <line x1="174.25" y1="93.31" x2="8.00" y2="93.31" fill="none" stroke="currentColor" stroke-width="1.4891793251037597" stroke-linecap="round" stroke-linejoin="round" />
</svg>