<svg xmlns="http://www.w3.org/2000/svg" viewBox="0 0 292.66 166.60" preserveAspectRatio="xMidYMid meet" shape-rendering="geometricPrecision" text-rendering="optimizeLegibility">
  <line x1="121.18" y1="8.00" x2="184.99" y2="158.60" fill="none" stroke="currentColor" stroke-width="1.4000000476837158" stroke-linecap="round" stroke-linejoin="round" />
  <line x1="63.17" y1="154.66" x2="224.68" y2="9.62" fill="none" stroke="currentColor" stroke-width="1.4000000476837158" stroke-linecap="round" stroke-linejoin="round" />
  <path d="M124.01,43.68 C124.08,43.67 124.17,43.67 124.28,43.67" fill="currentColor" stroke="currentColor" stroke-width="1.2" stroke-linecap="round" stroke-linejoin="round" />
  <path d="M124.28,43.67 C124.38,43.67 124.46,43.67 124.52,43.67" fill="currentColor" stroke="currentColor" stroke-width="1.2" stroke-linecap="round" stroke-linejoin="round" />
  <path d="M127.27,43.67 C127.33,43.67 127.41,43.67 127.50,43.67" fill="currentColor" stroke="currentColor" stroke-width="1.2" stroke-linecap="round" stroke-linejoin="round" />
  <path d="M127.50,43.67 C127.61,43.67 127.70,43.67 127.77,43.68" fill="currentColor" stroke="currentColor" stroke-width="1.2" stroke-linecap="round" stroke-linejoin="round" />
  <path d="M128.47,55.46 C128.47,50.17 131.69,45.62 136.28,43.67" fill="none" stroke="currentColor" stroke-width="1.0" stroke-linecap="round" stroke-linejoin="round" />
  <path d="M124.52,43.67 C124.57,43.68 124.62,43.69 124.65,43.70" fill="currentColor" stroke="currentColor" stroke-width="1.2" stroke-linecap="round" stroke-linejoin="round" />
  <path d="M127.12,43.70 C127.16,43.69 127.21,43.68 127.27,43.67" fill="currentColor" stroke="currentColor" stroke-width="1.2" stroke-linecap="round" stroke-linejoin="round" />
  <path d="M123.86,43.72 C123.89,43.70 123.94,43.68 124.01,43.68" fill="currentColor" stroke="currentColor" stroke-width="1.2" stroke-linecap="round" stroke-linejoin="round" />
  <path d="M127.77,43.68 C127.83,43.68 127.88,43.70 127.92,43.71" fill="currentColor" stroke="currentColor" stroke-width="1.2" stroke-linecap="round" stroke-linejoin="round" />
  <path d="M124.65,43.70 C124.68,43.71 124.70,43.72 124.71,43.74" fill="currentColor" stroke="currentColor" stroke-width="1.2" stroke-linecap="round" stroke-linejoin="round" />
  <path d="M127.03,43.75 C127.05,43.73 127.08,43.71 127.12,43.70" fill="currentColor" stroke="currentColor" stroke-width="1.2" stroke-linecap="round" stroke-linejoin="round" />
  <path d="M127.92,43.71 C127.95,43.73 127.96,43.76 127.96,43.79" fill="currentColor" stroke="currentColor" stroke-width="1.2" stroke-linecap="round" stroke-linejoin="round" />
  <path d="M123.80,43.80 C123.81,43.77 123.83,43.74 123.86,43.72" fill="currentColor" stroke="currentColor" stroke-width="1.2" stroke-linecap="round" stroke-linejoin="round" />
  <path d="M124.71,43.74 C124.73,43.76 124.74,43.78 124.75,43.81" fill="currentColor" stroke="currentColor" stroke-width="1.2" stroke-linecap="round" stroke-linejoin="round" />
  <path d="M126.97,43.81 C126.99,43.78 127.01,43.76 127.03,43.75" fill="currentColor" stroke="currentColor" stroke-width="1.2" stroke-linecap="round" stroke-linejoin="round" />
  <path d="M127.96,43.79 C127.95,43.83 127.93,43.87 127.88,43.92" fill="currentColor" stroke="currentColor" stroke-width="1.2" stroke-linecap="round" stroke-linejoin="round" />
  <path d="M123.83,43.93 C123.81,43.88 123.80,43.84 123.80,43.80" fill="currentColor" stroke="currentColor" stroke-width="1.2" stroke-linecap="round" stroke-linejoin="round" />
  <line x1="124.75" y1="43.81" x2="125.52" y2="45.61" fill="currentColor" stroke="currentColor" stroke-width="1.2" stroke-linecap="round" stroke-linejoin="round" />
  <line x1="125.52" y1="45.61" x2="126.97" y2="43.81" fill="currentColor" stroke="currentColor" stroke-width="1.2" stroke-linecap="round" stroke-linejoin="round" />
  <line x1="127.88" y1="43.92" x2="125.99" y2="46.20" fill="currentColor" stroke="currentColor" stroke-width="1.2" stroke-linecap="round" stroke-linejoin="round" />
  <line x1="124.82" y1="46.19" x2="123.83" y2="43.93" fill="currentColor" stroke="currentColor" stroke-width="1.2" stroke-linecap="round" stroke-linejoin="round" />
  <line x1="122.82" y1="48.57" x2="124.82" y2="46.19" fill="currentColor" stroke="currentColor" stroke-width="1.2" stroke-linecap="round" stroke-linejoin="round" />
  <line x1="125.99" y1="46.20" x2="127.05" y2="48.56" fill="currentColor" stroke="currentColor" stroke-width="1.2" stroke-linecap="round" stroke-linejoin="round" />
  <line x1="126.10" y1="48.68" x2="125.30" y2="46.78" fill="currentColor" stroke="currentColor" stroke-width="1.2" stroke-linecap="round" stroke-linejoin="round" />
  <line x1="125.30" y1="46.78" x2="123.78" y2="48.68" fill="currentColor" stroke="currentColor" stroke-width="1.2" stroke-linecap="round" stroke-linejoin="round" />
  <path d="M127.05,48.56 C127.07,48.61 127.08,48.66 127.07,48.69" fill="currentColor" stroke="currentColor" stroke-width="1.2" stroke-linecap="round" stroke-linejoin="round" />
  <path d="M122.75,48.69 C122.76,48.66 122.78,48.62 122.82,48.57" fill="currentColor" stroke="currentColor" stroke-width="1.2" stroke-linecap="round" stroke-linejoin="round" />
  <path d="M126.13,48.75 C126.12,48.73 126.11,48.71 126.10,48.68" fill="currentColor" stroke="currentColor" stroke-width="1.2" stroke-linecap="round" stroke-linejoin="round" />
  <path d="M123.78,48.68 C123.75,48.71 123.73,48.73 123.71,48.75" fill="currentColor" stroke="currentColor" stroke-width="1.2" stroke-linecap="round" stroke-linejoin="round" />
  <path d="M127.07,48.69 C127.07,48.72 127.04,48.75 127.00,48.77" fill="currentColor" stroke="currentColor" stroke-width="1.2" stroke-linecap="round" stroke-linejoin="round" />
  <path d="M122.79,48.77 C122.76,48.75 122.75,48.73 122.75,48.69" fill="currentColor" stroke="currentColor" stroke-width="1.2" stroke-linecap="round" stroke-linejoin="round" />
  <path d="M126.20,48.80 C126.17,48.79 126.14,48.77 126.13,48.75" fill="currentColor" stroke="currentColor" stroke-width="1.2" stroke-linecap="round" stroke-linejoin="round" />
  <path d="M123.71,48.75 C123.69,48.77 123.65,48.78 123.61,48.80" fill="currentColor" stroke="currentColor" stroke-width="1.2" stroke-linecap="round" stroke-linejoin="round" />
  <path d="M127.00,48.77 C126.96,48.80 126.91,48.81 126.84,48.82" fill="currentColor" stroke="currentColor" stroke-width="1.2" stroke-linecap="round" stroke-linejoin="round" />
  <path d="M122.93,48.82 C122.87,48.81 122.82,48.80 122.79,48.77" fill="currentColor" stroke="currentColor" stroke-width="1.2" stroke-linecap="round" stroke-linejoin="round" />
  <path d="M123.61,48.80 C123.57,48.81 123.51,48.82 123.45,48.82" fill="currentColor" stroke="currentColor" stroke-width="1.2" stroke-linecap="round" stroke-linejoin="round" />
  <path d="M126.33,48.83 C126.28,48.82 126.23,48.81 126.20,48.80" fill="currentColor" stroke="currentColor" stroke-width="1.2" stroke-linecap="round" stroke-linejoin="round" />
  <path d="M126.84,48.82 C126.77,48.83 126.68,48.83 126.57,48.83" fill="currentColor" stroke="currentColor" stroke-width="1.2" stroke-linecap="round" stroke-linejoin="round" />
  <path d="M123.19,48.83 C123.08,48.83 123.00,48.83 122.93,48.82" fill="currentColor" stroke="currentColor" stroke-width="1.2" stroke-linecap="round" stroke-linejoin="round" />
  <path d="M123.45,48.82 C123.38,48.83 123.29,48.83 123.19,48.83" fill="currentColor" stroke="currentColor" stroke-width="1.2" stroke-linecap="round" stroke-linejoin="round" />
  <path d="M126.57,48.83 C126.47,48.83 126.39,48.83 126.33,48.83" fill="currentColor" stroke="currentColor" stroke-width="1.2" stroke-linecap="round" stroke-linejoin="round" />
  <path d="M8.24,50.50 C8.30,50.49 8.38,50.48 8.46,50.48" fill="currentColor" stroke="currentColor" stroke-width="1.2" stroke-linecap="round" stroke-linejoin="round" />
  <path d="M8.46,50.48 C8.55,50.48 8.63,50.49 8.69,50.50" fill="currentColor" stroke="currentColor" stroke-width="1.2" stroke-linecap="round" stroke-linejoin="round" />
  <path d="M8.10,50.53 C8.13,50.52 8.18,50.51 8.24,50.50" fill="currentColor" stroke="currentColor" stroke-width="1.2" stroke-linecap="round" stroke-linejoin="round" />
  <path d="M8.69,50.50 C8.74,50.51 8.79,50.52 8.83,50.53" fill="currentColor" stroke="currentColor" stroke-width="1.2" stroke-linecap="round" stroke-linejoin="round" />
  <path d="M8.02,50.58 C8.04,50.56 8.06,50.54 8.10,50.53" fill="currentColor" stroke="currentColor" stroke-width="1.2" stroke-linecap="round" stroke-linejoin="round" />
  <path d="M8.83,50.53 C8.86,50.54 8.89,50.56 8.90,50.58" fill="currentColor" stroke="currentColor" stroke-width="1.2" stroke-linecap="round" stroke-linejoin="round" />
  <path d="M8.00,50.65 C8.00,50.63 8.01,50.60 8.02,50.58" fill="currentColor" stroke="currentColor" stroke-width="1.2" stroke-linecap="round" stroke-linejoin="round" />
  <path d="M8.90,50.58 C8.92,50.60 8.92,50.63 8.92,50.65" fill="currentColor" stroke="currentColor" stroke-width="1.2" stroke-linecap="round" stroke-linejoin="round" />
  <line x1="8.00" y1="57.09" x2="8.00" y2="50.65" fill="currentColor" stroke="currentColor" stroke-width="1.2" stroke-linecap="round" stroke-linejoin="round" />
  <line x1="8.92" y1="50.65" x2="8.92" y2="56.66" fill="currentColor" stroke="currentColor" stroke-width="1.2" stroke-linecap="round" stroke-linejoin="round" />
  <path d="M13.72,55.02 C13.75,55.02 13.78,55.02 13.82,55.02" fill="currentColor" stroke="currentColor" stroke-width="1.2" stroke-linecap="round" stroke-linejoin="round" />
  <path d="M13.82,55.02 C13.87,55.02 13.91,55.02 13.94,55.02" fill="currentColor" stroke="currentColor" stroke-width="1.2" stroke-linecap="round" stroke-linejoin="round" />
  <path d="M13.65,55.03 C13.67,55.02 13.69,55.02 13.72,55.02" fill="currentColor" stroke="currentColor" stroke-width="1.2" stroke-linecap="round" stroke-linejoin="round" />
  <path d="M13.94,55.02 C13.98,55.03 14.00,55.03 14.02,55.04" fill="currentColor" stroke="currentColor" stroke-width="1.2" stroke-linecap="round" stroke-linejoin="round" />
  <path d="M13.61,55.04 C13.62,55.04 13.63,55.03 13.65,55.03" fill="currentColor" stroke="currentColor" stroke-width="1.2" stroke-linecap="round" stroke-linejoin="round" />
  <path d="M13.57,55.06 C13.58,55.05 13.59,55.04 13.61,55.04" fill="currentColor" stroke="currentColor" stroke-width="1.2" stroke-linecap="round" stroke-linejoin="round" />
  <path d="M14.02,55.04 C14.04,55.05 14.05,55.06 14.06,55.07" fill="currentColor" stroke="currentColor" stroke-width="1.2" stroke-linecap="round" stroke-linejoin="round" />
  <line x1="12.63" y1="55.66" x2="13.57" y2="55.06" fill="currentColor" stroke="currentColor" stroke-width="1.2" stroke-linecap="round" stroke-linejoin="round" />
  <path d="M14.06,55.07 C14.07,55.08 14.07,55.09 14.07,55.11" fill="currentColor" stroke="currentColor" stroke-width="1.2" stroke-linecap="round" stroke-linejoin="round" />
  <line x1="14.07" y1="55.11" x2="14.07" y2="58.72" fill="currentColor" stroke="currentColor" stroke-width="1.2" stroke-linecap="round" stroke-linejoin="round" />
  <line x1="16.90" y1="55.46" x2="284.66" y2="55.46" fill="none" stroke="currentColor" stroke-width="1.4000000476837158" stroke-linecap="round" stroke-linejoin="round" />
  <line x1="13.52" y1="58.72" x2="13.52" y2="55.59" fill="currentColor" stroke="currentColor" stroke-width="1.2" stroke-linecap="round" stroke-linejoin="round" />
  <line x1="13.52" y1="55.59" x2="12.73" y2="56.06" fill="currentColor" stroke="currentColor" stroke-width="1.2" stroke-linecap="round" stroke-linejoin="round" />
  <path d="M12.58,55.70 C12.59,55.69 12.61,55.67 12.63,55.66" fill="currentColor" stroke="currentColor" stroke-width="1.2" stroke-linecap="round" stroke-linejoin="round" />
  <path d="M12.56,55.74 C12.56,55.73 12.57,55.71 12.58,55.70" fill="currentColor" stroke="currentColor" stroke-width="1.2" stroke-linecap="round" stroke-linejoin="round" />
  <path d="M12.54,55.81 C12.54,55.78 12.55,55.76 12.56,55.74" fill="currentColor" stroke="currentColor" stroke-width="1.2" stroke-linecap="round" stroke-linejoin="round" />
  <path d="M12.54,55.90 C12.54,55.86 12.54,55.83 12.54,55.81" fill="currentColor" stroke="currentColor" stroke-width="1.2" stroke-linecap="round" stroke-linejoin="round" />
  <path d="M12.54,56.02 C12.54,55.99 12.54,55.95 12.54,55.90" fill="currentColor" stroke="currentColor" stroke-width="1.2" stroke-linecap="round" stroke-linejoin="round" />
  <path d="M12.57,56.09 C12.56,56.07 12.55,56.05 12.54,56.02" fill="currentColor" stroke="currentColor" stroke-width="1.2" stroke-linecap="round" stroke-linejoin="round" />
  <path d="M12.73,56.06 C12.69,56.09 12.66,56.10 12.63,56.10" fill="currentColor" stroke="currentColor" stroke-width="1.2" stroke-linecap="round" stroke-linejoin="round" />
  <path d="M12.63,56.10 C12.61,56.11 12.59,56.10 12.57,56.09" fill="currentColor" stroke="currentColor" stroke-width="1.2" stroke-linecap="round" stroke-linejoin="round" />
  <line x1="8.92" y1="56.66" x2="11.42" y2="56.66" fill="currentColor" stroke="currentColor" stroke-width="1.2" stroke-linecap="round" stroke-linejoin="round" />
  <path d="M11.42,56.66 C11.45,56.66 11.48,56.67 11.50,56.69" fill="currentColor" stroke="currentColor" stroke-width="1.2" stroke-linecap="round" stroke-linejoin="round" />
  <path d="M11.50,56.69 C11.52,56.71 11.54,56.73 11.56,56.76" fill="currentColor" stroke="currentColor" stroke-width="1.2" stroke-linecap="round" stroke-linejoin="round" />
  <path d="M11.56,56.76 C11.57,56.79 11.59,56.83 11.59,56.88" fill="currentColor" stroke="currentColor" stroke-width="1.2" stroke-linecap="round" stroke-linejoin="round" />
  <path d="M11.59,56.88 C11.60,56.93 11.60,56.99 11.60,57.06" fill="currentColor" stroke="currentColor" stroke-width="1.2" stroke-linecap="round" stroke-linejoin="round" />
  <path d="M11.60,57.06 C11.60,57.13 11.60,57.19 11.59,57.24" fill="currentColor" stroke="currentColor" stroke-width="1.2" stroke-linecap="round" stroke-linejoin="round" />
  <path d="M8.11,57.38 C8.04,57.33 8.00,57.23 8.00,57.09" fill="currentColor" stroke="currentColor" stroke-width="1.2" stroke-linecap="round" stroke-linejoin="round" />
  <path d="M11.59,57.24 C11.59,57.29 11.57,57.33 11.56,57.37" fill="currentColor" stroke="currentColor" stroke-width="1.2" stroke-linecap="round" stroke-linejoin="round" />
  <path d="M11.56,57.37 C11.54,57.40 11.52,57.42 11.50,57.44" fill="currentColor" stroke="currentColor" stroke-width="1.2" stroke-linecap="round" stroke-linejoin="round" />
  <path d="M8.34,57.47 C8.26,57.47 8.18,57.44 8.11,57.38" fill="currentColor" stroke="currentColor" stroke-width="1.2" stroke-linecap="round" stroke-linejoin="round" />
  <path d="M11.50,57.44 C11.48,57.46 11.45,57.47 11.42,57.47" fill="currentColor" stroke="currentColor" stroke-width="1.2" stroke-linecap="round" stroke-linejoin="round" />
  <line x1="11.42" y1="57.47" x2="8.34" y2="57.47" fill="currentColor" stroke="currentColor" stroke-width="1.2" stroke-linecap="round" stroke-linejoin="round" />
  <path d="M12.62,58.73 C12.63,58.72 12.65,58.72 12.67,58.72" fill="currentColor" stroke="currentColor" stroke-width="1.2" stroke-linecap="round" stroke-linejoin="round" />
  <line x1="12.67" y1="58.72" x2="13.52" y2="58.72" fill="currentColor" stroke="currentColor" stroke-width="1.2" stroke-linecap="round" stroke-linejoin="round" />
  <line x1="14.07" y1="58.72" x2="14.81" y2="58.72" fill="currentColor" stroke="currentColor" stroke-width="1.2" stroke-linecap="round" stroke-linejoin="round" />
  <path d="M14.81,58.72 C14.83,58.72 14.84,58.72 14.86,58.73" fill="currentColor" stroke="currentColor" stroke-width="1.2" stroke-linecap="round" stroke-linejoin="round" />
  <path d="M12.59,58.77 C12.59,58.75 12.61,58.74 12.62,58.73" fill="currentColor" stroke="currentColor" stroke-width="1.2" stroke-linecap="round" stroke-linejoin="round" />
  <path d="M14.86,58.73 C14.87,58.74 14.89,58.75 14.90,58.77" fill="currentColor" stroke="currentColor" stroke-width="1.2" stroke-linecap="round" stroke-linejoin="round" />
  <path d="M12.56,58.84 C12.57,58.81 12.58,58.79 12.59,58.77" fill="currentColor" stroke="currentColor" stroke-width="1.2" stroke-linecap="round" stroke-linejoin="round" />
  <path d="M14.90,58.77 C14.91,58.79 14.91,58.81 14.92,58.84" fill="currentColor" stroke="currentColor" stroke-width="1.2" stroke-linecap="round" stroke-linejoin="round" />
  <path d="M12.55,58.94 C12.55,58.90 12.56,58.87 12.56,58.84" fill="currentColor" stroke="currentColor" stroke-width="1.2" stroke-linecap="round" stroke-linejoin="round" />
  <path d="M14.92,58.84 C14.92,58.87 14.93,58.90 14.93,58.94" fill="currentColor" stroke="currentColor" stroke-width="1.2" stroke-linecap="round" stroke-linejoin="round" />
  <path d="M14.93,58.94 C14.93,58.98 14.92,59.01 14.92,59.04" fill="currentColor" stroke="currentColor" stroke-width="1.2" stroke-linecap="round" stroke-linejoin="round" />
  <path d="M12.56,59.04 C12.56,59.01 12.55,58.98 12.55,58.94" fill="currentColor" stroke="currentColor" stroke-width="1.2" stroke-linecap="round" stroke-linejoin="round" />
  <path d="M14.92,59.04 C14.91,59.07 14.90,59.09 14.89,59.11" fill="currentColor" stroke="currentColor" stroke-width="1.2" stroke-linecap="round" stroke-linejoin="round" />
  <path d="M12.59,59.11 C12.58,59.09 12.57,59.07 12.56,59.04" fill="currentColor" stroke="currentColor" stroke-width="1.2" stroke-linecap="round" stroke-linejoin="round" />
  <path d="M14.89,59.11 C14.88,59.12 14.87,59.13 14.85,59.14" fill="currentColor" stroke="currentColor" stroke-width="1.2" stroke-linecap="round" stroke-linejoin="round" />
  <path d="M12.62,59.14 C12.61,59.13 12.60,59.12 12.59,59.11" fill="currentColor" stroke="currentColor" stroke-width="1.2" stroke-linecap="round" stroke-linejoin="round" />
  <path d="M14.85,59.14 C14.84,59.15 14.83,59.15 14.81,59.15" fill="currentColor" stroke="currentColor" stroke-width="1.2" stroke-linecap="round" stroke-linejoin="round" />
  <path d="M12.67,59.15 C12.65,59.15 12.64,59.15 12.62,59.14" fill="currentColor" stroke="currentColor" stroke-width="1.2" stroke-linecap="round" stroke-linejoin="round" />
  <line x1="14.81" y1="59.15" x2="12.67" y2="59.15" fill="currentColor" stroke="currentColor" stroke-width="1.2" stroke-linecap="round" stroke-linejoin="round" />
  <path d="M150.11,87.79 C146.78,87.79 143.78,86.34 141.71,84.04" fill="none" stroke="currentColor" stroke-width="1.0" stroke-linecap="round" stroke-linejoin="round" />
  <path d="M154.53,86.89 C153.17,87.47 151.68,87.79 150.11,87.79" fill="none" stroke="currentColor" stroke-width="1.0" stroke-linecap="round" stroke-linejoin="round" />
  <path d="M146.14,90.01 C146.17,90.00 146.20,89.99 146.23,89.99" fill="currentColor" stroke="currentColor" stroke-width="1.2" stroke-linecap="round" stroke-linejoin="round" />
  <line x1="146.23" y1="89.99" x2="149.02" y2="89.99" fill="currentColor" stroke="currentColor" stroke-width="1.2" stroke-linecap="round" stroke-linejoin="round" />
  <path d="M149.02,89.99 C149.08,89.99 149.13,90.00 149.16,90.04" fill="currentColor" stroke="currentColor" stroke-width="1.2" stroke-linecap="round" stroke-linejoin="round" />
  <path d="M146.07,90.09 C146.09,90.06 146.11,90.03 146.14,90.01" fill="currentColor" stroke="currentColor" stroke-width="1.2" stroke-linecap="round" stroke-linejoin="round" />
  <path d="M149.16,90.04 C149.18,90.07 149.20,90.11 149.20,90.17" fill="currentColor" stroke="currentColor" stroke-width="1.2" stroke-linecap="round" stroke-linejoin="round" />
  <path d="M146.01,90.19 C146.03,90.15 146.05,90.12 146.07,90.09" fill="currentColor" stroke="currentColor" stroke-width="1.2" stroke-linecap="round" stroke-linejoin="round" />
  <path d="M149.20,90.17 C149.20,90.19 149.20,90.21 149.19,90.25" fill="currentColor" stroke="currentColor" stroke-width="1.2" stroke-linecap="round" stroke-linejoin="round" />
  <path d="M145.97,90.32 C145.98,90.28 145.99,90.24 146.01,90.19" fill="currentColor" stroke="currentColor" stroke-width="1.2" stroke-linecap="round" stroke-linejoin="round" />
  <path d="M149.19,90.25 C149.19,90.28 149.18,90.32 149.18,90.36" fill="currentColor" stroke="currentColor" stroke-width="1.2" stroke-linecap="round" stroke-linejoin="round" />
  <path d="M145.95,90.44 C145.96,90.40 145.96,90.36 145.97,90.32" fill="currentColor" stroke="currentColor" stroke-width="1.2" stroke-linecap="round" stroke-linejoin="round" />
  <path d="M149.18,90.36 C149.17,90.39 149.16,90.43 149.16,90.47" fill="currentColor" stroke="currentColor" stroke-width="1.2" stroke-linecap="round" stroke-linejoin="round" />
  <path d="M145.94,90.55 C145.94,90.51 145.95,90.48 145.95,90.44" fill="currentColor" stroke="currentColor" stroke-width="1.2" stroke-linecap="round" stroke-linejoin="round" />
  <path d="M149.16,90.47 C149.15,90.51 149.14,90.54 149.13,90.56" fill="currentColor" stroke="currentColor" stroke-width="1.2" stroke-linecap="round" stroke-linejoin="round" />
  <path d="M145.98,90.69 C145.96,90.66 145.94,90.61 145.94,90.55" fill="currentColor" stroke="currentColor" stroke-width="1.2" stroke-linecap="round" stroke-linejoin="round" />
  <path d="M149.13,90.56 C149.11,90.64 149.08,90.72 149.04,90.79" fill="currentColor" stroke="currentColor" stroke-width="1.2" stroke-linecap="round" stroke-linejoin="round" />
  <path d="M146.08,90.73 C146.04,90.73 146.00,90.72 145.98,90.69" fill="currentColor" stroke="currentColor" stroke-width="1.2" stroke-linecap="round" stroke-linejoin="round" />
  <line x1="145.35" y1="94.05" x2="148.10" y2="90.73" fill="currentColor" stroke="currentColor" stroke-width="1.2" stroke-linecap="round" stroke-linejoin="round" />
  <line x1="148.10" y1="90.73" x2="146.08" y2="90.73" fill="currentColor" stroke="currentColor" stroke-width="1.2" stroke-linecap="round" stroke-linejoin="round" />
  <path d="M149.04,90.79 C148.99,90.86 148.93,90.94 148.85,91.03" fill="currentColor" stroke="currentColor" stroke-width="1.2" stroke-linecap="round" stroke-linejoin="round" />
  <line x1="148.85" y1="91.03" x2="146.12" y2="94.35" fill="currentColor" stroke="currentColor" stroke-width="1.2" stroke-linecap="round" stroke-linejoin="round" />
  <path d="M145.24,94.20 C145.27,94.16 145.31,94.11 145.35,94.05" fill="currentColor" stroke="currentColor" stroke-width="1.2" stroke-linecap="round" stroke-linejoin="round" />
  <path d="M145.15,94.31 C145.18,94.28 145.20,94.25 145.24,94.20" fill="currentColor" stroke="currentColor" stroke-width="1.2" stroke-linecap="round" stroke-linejoin="round" />
  <path d="M145.11,94.39 C145.12,94.37 145.13,94.34 145.15,94.31" fill="currentColor" stroke="currentColor" stroke-width="1.2" stroke-linecap="round" stroke-linejoin="round" />
  <line x1="146.12" y1="94.35" x2="148.33" y2="94.35" fill="currentColor" stroke="currentColor" stroke-width="1.2" stroke-linecap="round" stroke-linejoin="round" />
  <path d="M148.33,94.35 C148.38,94.35 148.41,94.37 148.43,94.40" fill="currentColor" stroke="currentColor" stroke-width="1.2" stroke-linecap="round" stroke-linejoin="round" />
  <path d="M145.08,94.47 C145.09,94.44 145.10,94.42 145.11,94.39" fill="currentColor" stroke="currentColor" stroke-width="1.2" stroke-linecap="round" stroke-linejoin="round" />
  <path d="M148.43,94.40 C148.45,94.43 148.46,94.48 148.46,94.54" fill="currentColor" stroke="currentColor" stroke-width="1.2" stroke-linecap="round" stroke-linejoin="round" />
  <path d="M145.06,94.55 C145.06,94.52 145.07,94.49 145.08,94.47" fill="currentColor" stroke="currentColor" stroke-width="1.2" stroke-linecap="round" stroke-linejoin="round" />
  <path d="M148.46,94.54 C148.46,94.57 148.46,94.60 148.46,94.64" fill="currentColor" stroke="currentColor" stroke-width="1.2" stroke-linecap="round" stroke-linejoin="round" />
  <path d="M145.03,94.67 C145.04,94.63 145.05,94.59 145.06,94.55" fill="currentColor" stroke="currentColor" stroke-width="1.2" stroke-linecap="round" stroke-linejoin="round" />
  <path d="M148.46,94.64 C148.45,94.68 148.45,94.72 148.44,94.76" fill="currentColor" stroke="currentColor" stroke-width="1.2" stroke-linecap="round" stroke-linejoin="round" />
  <path d="M145.01,94.79 C145.02,94.75 145.02,94.71 145.03,94.67" fill="currentColor" stroke="currentColor" stroke-width="1.2" stroke-linecap="round" stroke-linejoin="round" />
  <path d="M148.44,94.76 C148.43,94.80 148.41,94.84 148.40,94.88" fill="currentColor" stroke="currentColor" stroke-width="1.2" stroke-linecap="round" stroke-linejoin="round" />
  <path d="M145.00,94.89 C145.00,94.86 145.00,94.83 145.01,94.79" fill="currentColor" stroke="currentColor" stroke-width="1.2" stroke-linecap="round" stroke-linejoin="round" />
  <path d="M148.40,94.88 C148.38,94.92 148.37,94.96 148.35,94.99" fill="currentColor" stroke="currentColor" stroke-width="1.2" stroke-linecap="round" stroke-linejoin="round" />
  <path d="M145.05,95.04 C145.01,95.00 145.00,94.95 145.00,94.89" fill="currentColor" stroke="currentColor" stroke-width="1.2" stroke-linecap="round" stroke-linejoin="round" />
  <path d="M148.35,94.99 C148.32,95.02 148.30,95.05 148.27,95.07" fill="currentColor" stroke="currentColor" stroke-width="1.2" stroke-linecap="round" stroke-linejoin="round" />
  <path d="M145.20,95.10 C145.13,95.10 145.08,95.08 145.05,95.04" fill="currentColor" stroke="currentColor" stroke-width="1.2" stroke-linecap="round" stroke-linejoin="round" />
  <path d="M148.27,95.07 C148.25,95.09 148.22,95.10 148.19,95.10" fill="currentColor" stroke="currentColor" stroke-width="1.2" stroke-linecap="round" stroke-linejoin="round" />
  <line x1="148.19" y1="95.10" x2="145.20" y2="95.10" fill="currentColor" stroke="currentColor" stroke-width="1.2" stroke-linecap="round" stroke-linejoin="round" />
  <path d="M8.24,107.50 C8.30,107.50 8.38,107.49 8.46,107.49" fill="currentColor" stroke="currentColor" stroke-width="1.2" stroke-linecap="round" stroke-linejoin="round" />
  <path d="M8.46,107.49 C8.55,107.49 8.63,107.50 8.69,107.50" fill="currentColor" stroke="currentColor" stroke-width="1.2" stroke-linecap="round" stroke-linejoin="round" />
  <path d="M8.10,107.54 C8.13,107.52 8.18,107.51 8.24,107.50" fill="currentColor" stroke="currentColor" stroke-width="1.2" stroke-linecap="round" stroke-linejoin="round" />
  <path d="M8.69,107.50 C8.74,107.51 8.79,107.52 8.83,107.54" fill="currentColor" stroke="currentColor" stroke-width="1.2" stroke-linecap="round" stroke-linejoin="round" />
  <path d="M8.02,107.59 C8.04,107.57 8.06,107.55 8.10,107.54" fill="currentColor" stroke="currentColor" stroke-width="1.2" stroke-linecap="round" stroke-linejoin="round" />
  <path d="M8.83,107.54 C8.86,107.55 8.89,107.57 8.90,107.59" fill="currentColor" stroke="currentColor" stroke-width="1.2" stroke-linecap="round" stroke-linejoin="round" />
  <path d="M8.00,107.66 C8.00,107.63 8.01,107.61 8.02,107.59" fill="currentColor" stroke="currentColor" stroke-width="1.2" stroke-linecap="round" stroke-linejoin="round" />
  <path d="M8.90,107.59 C8.92,107.61 8.92,107.63 8.92,107.66" fill="currentColor" stroke="currentColor" stroke-width="1.2" stroke-linecap="round" stroke-linejoin="round" />
  <line x1="8.00" y1="114.10" x2="8.00" y2="107.66" fill="currentColor" stroke="currentColor" stroke-width="1.2" stroke-linecap="round" stroke-linejoin="round" />
  <line x1="8.92" y1="107.66" x2="8.92" y2="113.67" fill="currentColor" stroke="currentColor" stroke-width="1.2" stroke-linecap="round" stroke-linejoin="round" />
  <path d="M13.18,112.03 C13.30,112.01 13.42,111.99 13.54,111.99" fill="currentColor" stroke="currentColor" stroke-width="1.2" stroke-linecap="round" stroke-linejoin="round" />
  <path d="M13.54,111.99 C13.74,111.99 13.92,112.02 14.06,112.08" fill="currentColor" stroke="currentColor" stroke-width="1.2" stroke-linecap="round" stroke-linejoin="round" />
  <path d="M12.87,112.13 C12.97,112.09 13.07,112.06 13.18,112.03" fill="currentColor" stroke="currentColor" stroke-width="1.2" stroke-linecap="round" stroke-linejoin="round" />
  <path d="M14.06,112.08 C14.21,112.13 14.34,112.21 14.43,112.31" fill="currentColor" stroke="currentColor" stroke-width="1.2" stroke-linecap="round" stroke-linejoin="round" />
  <path d="M12.64,112.24 C12.70,112.20 12.78,112.16 12.87,112.13" fill="currentColor" stroke="currentColor" stroke-width="1.2" stroke-linecap="round" stroke-linejoin="round" />
  <path d="M12.51,112.33 C12.53,112.31 12.58,112.28 12.64,112.24" fill="currentColor" stroke="currentColor" stroke-width="1.2" stroke-linecap="round" stroke-linejoin="round" />
  <path d="M14.43,112.31 C14.53,112.40 14.61,112.52 14.66,112.65" fill="currentColor" stroke="currentColor" stroke-width="1.2" stroke-linecap="round" stroke-linejoin="round" />
  <path d="M12.46,112.38 C12.47,112.37 12.48,112.35 12.51,112.33" fill="currentColor" stroke="currentColor" stroke-width="1.2" stroke-linecap="round" stroke-linejoin="round" />
  <path d="M12.44,112.43 C12.44,112.41 12.45,112.40 12.46,112.38" fill="currentColor" stroke="currentColor" stroke-width="1.2" stroke-linecap="round" stroke-linejoin="round" />
  <path d="M12.42,112.49 C12.43,112.47 12.43,112.45 12.44,112.43" fill="currentColor" stroke="currentColor" stroke-width="1.2" stroke-linecap="round" stroke-linejoin="round" />
  <line x1="16.90" y1="112.47" x2="284.66" y2="112.47" fill="none" stroke="currentColor" stroke-width="1.4000000476837158" stroke-linecap="round" stroke-linejoin="round" />
  <path d="M99.09,122.41 C96.73,119.78 95.28,116.29 95.28,112.47" fill="none" stroke="currentColor" stroke-width="1.0" stroke-linecap="round" stroke-linejoin="round" />
  <path d="M13.73,112.53 C13.65,112.49 13.55,112.48 13.44,112.48" fill="currentColor" stroke="currentColor" stroke-width="1.2" stroke-linecap="round" stroke-linejoin="round" />
  <path d="M13.44,112.48 C13.31,112.48 13.19,112.49 13.09,112.53" fill="currentColor" stroke="currentColor" stroke-width="1.2" stroke-linecap="round" stroke-linejoin="round" />
  <path d="M12.42,112.57 C12.42,112.54 12.42,112.51 12.42,112.49" fill="currentColor" stroke="currentColor" stroke-width="1.2" stroke-linecap="round" stroke-linejoin="round" />
  <path d="M13.94,112.68 C13.89,112.61 13.82,112.57 13.73,112.53" fill="currentColor" stroke="currentColor" stroke-width="1.2" stroke-linecap="round" stroke-linejoin="round" />
  <path d="M13.09,112.53 C12.99,112.57 12.90,112.60 12.82,112.65" fill="currentColor" stroke="currentColor" stroke-width="1.2" stroke-linecap="round" stroke-linejoin="round" />
  <path d="M12.43,112.69 C12.42,112.66 12.42,112.62 12.42,112.57" fill="currentColor" stroke="currentColor" stroke-width="1.2" stroke-linecap="round" stroke-linejoin="round" />
  <path d="M12.82,112.65 C12.75,112.69 12.68,112.73 12.63,112.76" fill="currentColor" stroke="currentColor" stroke-width="1.2" stroke-linecap="round" stroke-linejoin="round" />
  <path d="M14.66,112.65 C14.70,112.78 14.73,112.91 14.73,113.06" fill="currentColor" stroke="currentColor" stroke-width="1.2" stroke-linecap="round" stroke-linejoin="round" />
  <path d="M14.07,112.89 C14.04,112.81 14.00,112.74 13.94,112.68" fill="currentColor" stroke="currentColor" stroke-width="1.2" stroke-linecap="round" stroke-linejoin="round" />
  <path d="M12.44,112.76 C12.44,112.75 12.43,112.72 12.43,112.69" fill="currentColor" stroke="currentColor" stroke-width="1.2" stroke-linecap="round" stroke-linejoin="round" />
  <path d="M12.63,112.76 C12.58,112.80 12.54,112.82 12.51,112.82" fill="currentColor" stroke="currentColor" stroke-width="1.2" stroke-linecap="round" stroke-linejoin="round" />
  <path d="M12.47,112.81 C12.46,112.80 12.45,112.78 12.44,112.76" fill="currentColor" stroke="currentColor" stroke-width="1.2" stroke-linecap="round" stroke-linejoin="round" />
  <path d="M12.51,112.82 C12.50,112.82 12.49,112.81 12.47,112.81" fill="currentColor" stroke="currentColor" stroke-width="1.2" stroke-linecap="round" stroke-linejoin="round" />
  <path d="M14.12,113.15 C14.12,113.06 14.10,112.97 14.07,112.89" fill="currentColor" stroke="currentColor" stroke-width="1.2" stroke-linecap="round" stroke-linejoin="round" />
  <path d="M14.73,113.06 C14.73,113.19 14.72,113.32 14.69,113.45" fill="currentColor" stroke="currentColor" stroke-width="1.2" stroke-linecap="round" stroke-linejoin="round" />
  <path d="M14.09,113.44 C14.11,113.34 14.12,113.24 14.12,113.15" fill="currentColor" stroke="currentColor" stroke-width="1.2" stroke-linecap="round" stroke-linejoin="round" />
  <path d="M13.97,113.79 C14.03,113.66 14.07,113.54 14.09,113.44" fill="currentColor" stroke="currentColor" stroke-width="1.2" stroke-linecap="round" stroke-linejoin="round" />
  <path d="M14.69,113.45 C14.67,113.58 14.62,113.72 14.55,113.87" fill="currentColor" stroke="currentColor" stroke-width="1.2" stroke-linecap="round" stroke-linejoin="round" />
  <line x1="8.92" y1="113.67" x2="11.42" y2="113.67" fill="currentColor" stroke="currentColor" stroke-width="1.2" stroke-linecap="round" stroke-linejoin="round" />
  <path d="M11.42,113.67 C11.45,113.67 11.48,113.68 11.50,113.70" fill="currentColor" stroke="currentColor" stroke-width="1.2" stroke-linecap="round" stroke-linejoin="round" />
  <path d="M11.50,113.70 C11.52,113.71 11.54,113.74 11.56,113.77" fill="currentColor" stroke="currentColor" stroke-width="1.2" stroke-linecap="round" stroke-linejoin="round" />
  <path d="M11.56,113.77 C11.57,113.80 11.59,113.84 11.59,113.89" fill="currentColor" stroke="currentColor" stroke-width="1.2" stroke-linecap="round" stroke-linejoin="round" />
  <path d="M13.71,114.21 C13.82,114.05 13.91,113.91 13.97,113.79" fill="currentColor" stroke="currentColor" stroke-width="1.2" stroke-linecap="round" stroke-linejoin="round" />
  <path d="M14.55,113.87 C14.47,114.03 14.36,114.19 14.22,114.38" fill="currentColor" stroke="currentColor" stroke-width="1.2" stroke-linecap="round" stroke-linejoin="round" />
  <path d="M11.59,113.89 C11.60,113.94 11.60,114.00 11.60,114.07" fill="currentColor" stroke="currentColor" stroke-width="1.2" stroke-linecap="round" stroke-linejoin="round" />
  <path d="M11.60,114.07 C11.60,114.14 11.60,114.20 11.59,114.25" fill="currentColor" stroke="currentColor" stroke-width="1.2" stroke-linecap="round" stroke-linejoin="round" />
  <path d="M8.11,114.39 C8.04,114.33 8.00,114.24 8.00,114.10" fill="currentColor" stroke="currentColor" stroke-width="1.2" stroke-linecap="round" stroke-linejoin="round" />
  <path d="M13.27,114.73 C13.45,114.54 13.60,114.36 13.71,114.21" fill="currentColor" stroke="currentColor" stroke-width="1.2" stroke-linecap="round" stroke-linejoin="round" />
  <path d="M11.59,114.25 C11.59,114.30 11.57,114.34 11.56,114.37" fill="currentColor" stroke="currentColor" stroke-width="1.2" stroke-linecap="round" stroke-linejoin="round" />
  <path d="M11.56,114.37 C11.54,114.41 11.52,114.43 11.50,114.45" fill="currentColor" stroke="currentColor" stroke-width="1.2" stroke-linecap="round" stroke-linejoin="round" />
  <path d="M14.22,114.38 C14.08,114.56 13.89,114.78 13.66,115.02" fill="currentColor" stroke="currentColor" stroke-width="1.2" stroke-linecap="round" stroke-linejoin="round" />
  <path d="M8.34,114.47 C8.26,114.47 8.18,114.45 8.11,114.39" fill="currentColor" stroke="currentColor" stroke-width="1.2" stroke-linecap="round" stroke-linejoin="round" />
  <path d="M11.50,114.45 C11.48,114.46 11.45,114.47 11.42,114.47" fill="currentColor" stroke="currentColor" stroke-width="1.2" stroke-linecap="round" stroke-linejoin="round" />
  <line x1="11.42" y1="114.47" x2="8.34" y2="114.47" fill="currentColor" stroke="currentColor" stroke-width="1.2" stroke-linecap="round" stroke-linejoin="round" />
  <line x1="12.47" y1="115.58" x2="13.27" y2="114.73" fill="currentColor" stroke="currentColor" stroke-width="1.2" stroke-linecap="round" stroke-linejoin="round" />
  <line x1="13.66" y1="115.02" x2="13.00" y2="115.70" fill="currentColor" stroke="currentColor" stroke-width="1.2" stroke-linecap="round" stroke-linejoin="round" />
  <path d="M12.41,115.65 C12.43,115.63 12.45,115.60 12.47,115.58" fill="currentColor" stroke="currentColor" stroke-width="1.2" stroke-linecap="round" stroke-linejoin="round" />
  <path d="M12.37,115.73 C12.38,115.70 12.39,115.68 12.41,115.65" fill="currentColor" stroke="currentColor" stroke-width="1.2" stroke-linecap="round" stroke-linejoin="round" />
  <line x1="13.00" y1="115.70" x2="14.79" y2="115.70" fill="currentColor" stroke="currentColor" stroke-width="1.2" stroke-linecap="round" stroke-linejoin="round" />
  <path d="M14.79,115.70 C14.81,115.70 14.83,115.70 14.84,115.71" fill="currentColor" stroke="currentColor" stroke-width="1.2" stroke-linecap="round" stroke-linejoin="round" />
  <path d="M14.84,115.71 C14.86,115.72 14.87,115.74 14.88,115.75" fill="currentColor" stroke="currentColor" stroke-width="1.2" stroke-linecap="round" stroke-linejoin="round" />
  <path d="M12.35,115.81 C12.35,115.78 12.36,115.75 12.37,115.73" fill="currentColor" stroke="currentColor" stroke-width="1.2" stroke-linecap="round" stroke-linejoin="round" />
  <path d="M14.88,115.75 C14.89,115.77 14.90,115.80 14.91,115.83" fill="currentColor" stroke="currentColor" stroke-width="1.2" stroke-linecap="round" stroke-linejoin="round" />
  <path d="M12.35,115.92 C12.35,115.88 12.35,115.84 12.35,115.81" fill="currentColor" stroke="currentColor" stroke-width="1.2" stroke-linecap="round" stroke-linejoin="round" />
  <path d="M14.91,115.83 C14.91,115.85 14.92,115.89 14.92,115.93" fill="currentColor" stroke="currentColor" stroke-width="1.2" stroke-linecap="round" stroke-linejoin="round" />
  <path d="M12.36,116.04 C12.35,116.01 12.35,115.97 12.35,115.92" fill="currentColor" stroke="currentColor" stroke-width="1.2" stroke-linecap="round" stroke-linejoin="round" />
  <path d="M14.92,115.93 C14.92,115.96 14.91,116.00 14.91,116.03" fill="currentColor" stroke="currentColor" stroke-width="1.2" stroke-linecap="round" stroke-linejoin="round" />
  <path d="M14.91,116.03 C14.90,116.06 14.90,116.08 14.89,116.10" fill="currentColor" stroke="currentColor" stroke-width="1.2" stroke-linecap="round" stroke-linejoin="round" />
  <path d="M12.39,116.11 C12.38,116.10 12.36,116.07 12.36,116.04" fill="currentColor" stroke="currentColor" stroke-width="1.2" stroke-linecap="round" stroke-linejoin="round" />
  <path d="M14.89,116.10 C14.88,116.12 14.86,116.14 14.85,116.15" fill="currentColor" stroke="currentColor" stroke-width="1.2" stroke-linecap="round" stroke-linejoin="round" />
  <path d="M12.45,116.15 C12.43,116.14 12.41,116.13 12.39,116.11" fill="currentColor" stroke="currentColor" stroke-width="1.2" stroke-linecap="round" stroke-linejoin="round" />
  <path d="M14.85,116.15 C14.83,116.16 14.82,116.16 14.79,116.16" fill="currentColor" stroke="currentColor" stroke-width="1.2" stroke-linecap="round" stroke-linejoin="round" />
  <path d="M12.53,116.16 C12.50,116.16 12.47,116.16 12.45,116.15" fill="currentColor" stroke="currentColor" stroke-width="1.2" stroke-linecap="round" stroke-linejoin="round" />
  <line x1="14.79" y1="116.16" x2="12.53" y2="116.16" fill="currentColor" stroke="currentColor" stroke-width="1.2" stroke-linecap="round" stroke-linejoin="round" />
  <path d="M88.74,117.45 C88.80,117.44 88.88,117.44 88.96,117.44" fill="currentColor" stroke="currentColor" stroke-width="1.2" stroke-linecap="round" stroke-linejoin="round" />
  <path d="M88.96,117.44 C89.06,117.44 89.13,117.44 89.19,117.45" fill="currentColor" stroke="currentColor" stroke-width="1.2" stroke-linecap="round" stroke-linejoin="round" />
  <path d="M92.19,117.45 C92.26,117.44 92.34,117.44 92.44,117.44" fill="currentColor" stroke="currentColor" stroke-width="1.2" stroke-linecap="round" stroke-linejoin="round" />
  <path d="M92.44,117.44 C92.60,117.44 92.70,117.45 92.76,117.47" fill="currentColor" stroke="currentColor" stroke-width="1.2" stroke-linecap="round" stroke-linejoin="round" />
  <path d="M88.60,117.48 C88.64,117.47 88.68,117.46 88.74,117.45" fill="currentColor" stroke="currentColor" stroke-width="1.2" stroke-linecap="round" stroke-linejoin="round" />
  <path d="M89.19,117.45 C89.25,117.46 89.29,117.46 89.32,117.48" fill="currentColor" stroke="currentColor" stroke-width="1.2" stroke-linecap="round" stroke-linejoin="round" />
  <path d="M92.04,117.48 C92.08,117.47 92.13,117.46 92.19,117.45" fill="currentColor" stroke="currentColor" stroke-width="1.2" stroke-linecap="round" stroke-linejoin="round" />
  <path d="M92.76,117.47 C92.81,117.50 92.84,117.53 92.84,117.57" fill="currentColor" stroke="currentColor" stroke-width="1.2" stroke-linecap="round" stroke-linejoin="round" />
  <path d="M89.32,117.48 C89.35,117.49 89.37,117.51 89.38,117.53" fill="currentColor" stroke="currentColor" stroke-width="1.2" stroke-linecap="round" stroke-linejoin="round" />
  <path d="M91.96,117.53 C91.98,117.51 92.00,117.49 92.04,117.48" fill="currentColor" stroke="currentColor" stroke-width="1.2" stroke-linecap="round" stroke-linejoin="round" />
  <path d="M88.53,117.55 C88.54,117.52 88.57,117.50 88.60,117.48" fill="currentColor" stroke="currentColor" stroke-width="1.2" stroke-linecap="round" stroke-linejoin="round" />
  <path d="M91.92,117.60 C91.92,117.57 91.93,117.55 91.96,117.53" fill="currentColor" stroke="currentColor" stroke-width="1.2" stroke-linecap="round" stroke-linejoin="round" />
  <path d="M89.38,117.53 C89.40,117.56 89.40,117.59 89.41,117.62" fill="currentColor" stroke="currentColor" stroke-width="1.2" stroke-linecap="round" stroke-linejoin="round" />
  <path d="M88.51,117.65 C88.51,117.61 88.52,117.57 88.53,117.55" fill="currentColor" stroke="currentColor" stroke-width="1.2" stroke-linecap="round" stroke-linejoin="round" />
  <path d="M92.84,117.57 C92.84,117.61 92.84,117.65 92.83,117.69" fill="currentColor" stroke="currentColor" stroke-width="1.2" stroke-linecap="round" stroke-linejoin="round" />
  <path d="M91.56,118.63 C91.68,118.29 91.80,117.95 91.92,117.60" fill="currentColor" stroke="currentColor" stroke-width="1.2" stroke-linecap="round" stroke-linejoin="round" />
  <line x1="89.41" y1="117.62" x2="90.04" y2="121.57" fill="currentColor" stroke="currentColor" stroke-width="1.2" stroke-linecap="round" stroke-linejoin="round" />
  <path d="M88.51,117.74 C88.51,117.70 88.51,117.67 88.51,117.65" fill="currentColor" stroke="currentColor" stroke-width="1.2" stroke-linecap="round" stroke-linejoin="round" />
  <path d="M92.83,117.69 C92.82,117.73 92.81,117.77 92.79,117.81" fill="currentColor" stroke="currentColor" stroke-width="1.2" stroke-linecap="round" stroke-linejoin="round" />
  <path d="M88.53,117.86 C88.52,117.81 88.52,117.77 88.51,117.74" fill="currentColor" stroke="currentColor" stroke-width="1.2" stroke-linecap="round" stroke-linejoin="round" />
  <path d="M92.79,117.81 C92.67,118.13 92.54,118.47 92.40,118.82" fill="currentColor" stroke="currentColor" stroke-width="1.2" stroke-linecap="round" stroke-linejoin="round" />
  <line x1="89.33" y1="122.58" x2="88.53" y2="117.86" fill="currentColor" stroke="currentColor" stroke-width="1.2" stroke-linecap="round" stroke-linejoin="round" />
  <path d="M91.14,119.64 C91.29,119.30 91.43,118.97 91.56,118.63" fill="currentColor" stroke="currentColor" stroke-width="1.2" stroke-linecap="round" stroke-linejoin="round" />
  <path d="M92.40,118.82 C92.26,119.18 92.10,119.55 91.92,119.93" fill="currentColor" stroke="currentColor" stroke-width="1.2" stroke-linecap="round" stroke-linejoin="round" />
  <path d="M90.65,120.62 C90.83,120.29 90.99,119.97 91.14,119.64" fill="currentColor" stroke="currentColor" stroke-width="1.2" stroke-linecap="round" stroke-linejoin="round" />
  <path d="M91.92,119.93 C91.73,120.32 91.51,120.72 91.26,121.14" fill="currentColor" stroke="currentColor" stroke-width="1.2" stroke-linecap="round" stroke-linejoin="round" />
  <path d="M90.05,121.57 C90.27,121.26 90.47,120.94 90.65,120.62" fill="currentColor" stroke="currentColor" stroke-width="1.2" stroke-linecap="round" stroke-linejoin="round" />
  <path d="M91.26,121.14 C91.01,121.56 90.72,122.00 90.37,122.46" fill="currentColor" stroke="currentColor" stroke-width="1.2" stroke-linecap="round" stroke-linejoin="round" />
  <line x1="90.04" y1="121.57" x2="90.05" y2="121.57" fill="currentColor" stroke="currentColor" stroke-width="1.2" stroke-linecap="round" stroke-linejoin="round" />
  <line x1="90.37" y1="122.46" x2="88.98" y2="124.35" fill="currentColor" stroke="currentColor" stroke-width="1.2" stroke-linecap="round" stroke-linejoin="round" />
  <line x1="88.02" y1="124.26" x2="89.33" y2="122.58" fill="currentColor" stroke="currentColor" stroke-width="1.2" stroke-linecap="round" stroke-linejoin="round" />
  <path d="M87.96,124.39 C87.96,124.35 87.98,124.31 88.02,124.26" fill="currentColor" stroke="currentColor" stroke-width="1.2" stroke-linecap="round" stroke-linejoin="round" />
  <path d="M88.98,124.35 C88.96,124.38 88.93,124.41 88.90,124.43" fill="currentColor" stroke="currentColor" stroke-width="1.2" stroke-linecap="round" stroke-linejoin="round" />
  <path d="M88.00,124.47 C87.97,124.45 87.95,124.42 87.96,124.39" fill="currentColor" stroke="currentColor" stroke-width="1.2" stroke-linecap="round" stroke-linejoin="round" />
  <path d="M88.90,124.43 C88.87,124.45 88.83,124.47 88.78,124.49" fill="currentColor" stroke="currentColor" stroke-width="1.2" stroke-linecap="round" stroke-linejoin="round" />
  <path d="M88.14,124.52 C88.08,124.51 88.03,124.49 88.00,124.47" fill="currentColor" stroke="currentColor" stroke-width="1.2" stroke-linecap="round" stroke-linejoin="round" />
  <path d="M88.78,124.49 C88.74,124.50 88.68,124.51 88.61,124.52" fill="currentColor" stroke="currentColor" stroke-width="1.2" stroke-linecap="round" stroke-linejoin="round" />
  <path d="M88.38,124.53 C88.28,124.53 88.20,124.53 88.14,124.52" fill="currentColor" stroke="currentColor" stroke-width="1.2" stroke-linecap="round" stroke-linejoin="round" />
  <path d="M88.61,124.52 C88.55,124.53 88.47,124.53 88.38,124.53" fill="currentColor" stroke="currentColor" stroke-width="1.2" stroke-linecap="round" stroke-linejoin="round" />
</svg>