<svg xmlns="http://www.w3.org/2000/svg" viewBox="0 0 264.81 260.15" preserveAspectRatio="xMidYMid meet" shape-rendering="geometricPrecision" text-rendering="optimizeLegibility">
  <line x1="129.04" y1="17.72" x2="125.80" y2="8.00" fill="currentColor" stroke="currentColor" stroke-width="1.2" stroke-linecap="round" stroke-linejoin="round" />
  <line x1="125.80" y1="8.00" x2="122.56" y2="17.72" fill="currentColor" stroke="currentColor" stroke-width="1.2" stroke-linecap="round" stroke-linejoin="round" />
  <path d="M114.45,12.88 C114.49,12.88 114.56,12.88 114.63,12.88" fill="currentColor" stroke="currentColor" stroke-width="1.2" stroke-linecap="round" stroke-linejoin="round" />
  <path d="M114.63,12.88 C114.71,12.88 114.77,12.88 114.82,12.88" fill="currentColor" stroke="currentColor" stroke-width="1.2" stroke-linecap="round" stroke-linejoin="round" />
  <path d="M117.31,12.88 C117.36,12.88 117.43,12.88 117.51,12.88" fill="currentColor" stroke="currentColor" stroke-width="1.2" stroke-linecap="round" stroke-linejoin="round" />
  <path d="M117.51,12.88 C117.64,12.88 117.73,12.89 117.78,12.91" fill="currentColor" stroke="currentColor" stroke-width="1.2" stroke-linecap="round" stroke-linejoin="round" />
  <path d="M114.33,12.91 C114.36,12.90 114.40,12.89 114.45,12.88" fill="currentColor" stroke="currentColor" stroke-width="1.2" stroke-linecap="round" stroke-linejoin="round" />
  <path d="M114.82,12.88 C114.86,12.89 114.90,12.90 114.92,12.91" fill="currentColor" stroke="currentColor" stroke-width="1.2" stroke-linecap="round" stroke-linejoin="round" />
  <path d="M117.18,12.91 C117.21,12.90 117.26,12.89 117.31,12.88" fill="currentColor" stroke="currentColor" stroke-width="1.2" stroke-linecap="round" stroke-linejoin="round" />
  <path d="M117.78,12.91 C117.82,12.93 117.84,12.95 117.84,12.99" fill="currentColor" stroke="currentColor" stroke-width="1.2" stroke-linecap="round" stroke-linejoin="round" />
  <path d="M114.92,12.91 C114.95,12.92 114.96,12.94 114.98,12.96" fill="currentColor" stroke="currentColor" stroke-width="1.2" stroke-linecap="round" stroke-linejoin="round" />
  <path d="M117.11,12.96 C117.13,12.94 117.15,12.92 117.18,12.91" fill="currentColor" stroke="currentColor" stroke-width="1.2" stroke-linecap="round" stroke-linejoin="round" />
  <path d="M114.27,12.97 C114.28,12.95 114.30,12.93 114.33,12.91" fill="currentColor" stroke="currentColor" stroke-width="1.2" stroke-linecap="round" stroke-linejoin="round" />
  <path d="M117.08,13.02 C117.08,13.00 117.09,12.98 117.11,12.96" fill="currentColor" stroke="currentColor" stroke-width="1.2" stroke-linecap="round" stroke-linejoin="round" />
  <path d="M114.98,12.96 C114.99,12.98 114.99,13.01 115.00,13.04" fill="currentColor" stroke="currentColor" stroke-width="1.2" stroke-linecap="round" stroke-linejoin="round" />
  <path d="M114.25,13.06 C114.25,13.03 114.26,13.00 114.27,12.97" fill="currentColor" stroke="currentColor" stroke-width="1.2" stroke-linecap="round" stroke-linejoin="round" />
  <path d="M117.84,12.99 C117.84,13.03 117.84,13.07 117.83,13.10" fill="currentColor" stroke="currentColor" stroke-width="1.2" stroke-linecap="round" stroke-linejoin="round" />
  <path d="M116.78,13.96 C116.89,13.65 116.99,13.34 117.08,13.02" fill="currentColor" stroke="currentColor" stroke-width="1.2" stroke-linecap="round" stroke-linejoin="round" />
  <line x1="115.00" y1="13.04" x2="115.52" y2="16.63" fill="currentColor" stroke="currentColor" stroke-width="1.2" stroke-linecap="round" stroke-linejoin="round" />
  <path d="M114.26,13.15 C114.25,13.11 114.25,13.08 114.25,13.06" fill="currentColor" stroke="currentColor" stroke-width="1.2" stroke-linecap="round" stroke-linejoin="round" />
  <path d="M117.83,13.10 C117.83,13.14 117.82,13.18 117.80,13.21" fill="currentColor" stroke="currentColor" stroke-width="1.2" stroke-linecap="round" stroke-linejoin="round" />
  <path d="M114.27,13.25 C114.26,13.21 114.26,13.18 114.26,13.15" fill="currentColor" stroke="currentColor" stroke-width="1.2" stroke-linecap="round" stroke-linejoin="round" />
  <path d="M117.80,13.21 C117.71,13.50 117.60,13.81 117.48,14.13" fill="currentColor" stroke="currentColor" stroke-width="1.2" stroke-linecap="round" stroke-linejoin="round" />
  <line x1="114.93" y1="17.54" x2="114.27" y2="13.25" fill="currentColor" stroke="currentColor" stroke-width="1.2" stroke-linecap="round" stroke-linejoin="round" />
  <path d="M116.43,14.87 C116.56,14.57 116.68,14.27 116.78,13.96" fill="currentColor" stroke="currentColor" stroke-width="1.2" stroke-linecap="round" stroke-linejoin="round" />
  <path d="M117.48,14.13 C117.37,14.45 117.23,14.79 117.08,15.14" fill="currentColor" stroke="currentColor" stroke-width="1.2" stroke-linecap="round" stroke-linejoin="round" />
  <path d="M116.03,15.76 C116.17,15.47 116.31,15.17 116.43,14.87" fill="currentColor" stroke="currentColor" stroke-width="1.2" stroke-linecap="round" stroke-linejoin="round" />
  <path d="M117.08,15.14 C116.92,15.49 116.74,15.86 116.54,16.24" fill="currentColor" stroke="currentColor" stroke-width="1.2" stroke-linecap="round" stroke-linejoin="round" />
  <path d="M115.53,16.63 C115.71,16.34 115.88,16.06 116.03,15.76" fill="currentColor" stroke="currentColor" stroke-width="1.2" stroke-linecap="round" stroke-linejoin="round" />
  <line x1="125.80" y1="252.15" x2="125.80" y2="16.10" fill="none" stroke="currentColor" stroke-width="1.4000000476837158" stroke-linecap="round" stroke-linejoin="round" />
  <path d="M116.54,16.24 C116.33,16.62 116.08,17.02 115.80,17.44" fill="currentColor" stroke="currentColor" stroke-width="1.2" stroke-linecap="round" stroke-linejoin="round" />
  <line x1="115.52" y1="16.63" x2="115.53" y2="16.63" fill="currentColor" stroke="currentColor" stroke-width="1.2" stroke-linecap="round" stroke-linejoin="round" />
  <line x1="122.56" y1="17.72" x2="125.80" y2="16.64" fill="currentColor" stroke="currentColor" stroke-width="1.2" stroke-linecap="round" stroke-linejoin="round" />
  <line x1="125.80" y1="16.64" x2="129.04" y2="17.72" fill="currentColor" stroke="currentColor" stroke-width="1.2" stroke-linecap="round" stroke-linejoin="round" />
  <line x1="115.80" y1="17.44" x2="114.64" y2="19.16" fill="currentColor" stroke="currentColor" stroke-width="1.2" stroke-linecap="round" stroke-linejoin="round" />
  <line x1="113.85" y1="19.07" x2="114.93" y2="17.54" fill="currentColor" stroke="currentColor" stroke-width="1.2" stroke-linecap="round" stroke-linejoin="round" />
  <path d="M113.79,19.19 C113.80,19.16 113.81,19.12 113.85,19.07" fill="currentColor" stroke="currentColor" stroke-width="1.2" stroke-linecap="round" stroke-linejoin="round" />
  <path d="M114.64,19.16 C114.63,19.19 114.60,19.21 114.58,19.23" fill="currentColor" stroke="currentColor" stroke-width="1.2" stroke-linecap="round" stroke-linejoin="round" />
  <path d="M113.83,19.27 C113.80,19.25 113.79,19.22 113.79,19.19" fill="currentColor" stroke="currentColor" stroke-width="1.2" stroke-linecap="round" stroke-linejoin="round" />
  <path d="M114.58,19.23 C114.55,19.25 114.52,19.27 114.48,19.28" fill="currentColor" stroke="currentColor" stroke-width="1.2" stroke-linecap="round" stroke-linejoin="round" />
  <path d="M113.95,19.31 C113.90,19.30 113.85,19.29 113.83,19.27" fill="currentColor" stroke="currentColor" stroke-width="1.2" stroke-linecap="round" stroke-linejoin="round" />
  <path d="M114.48,19.28 C114.44,19.30 114.39,19.31 114.34,19.31" fill="currentColor" stroke="currentColor" stroke-width="1.2" stroke-linecap="round" stroke-linejoin="round" />
  <path d="M114.15,19.32 C114.07,19.32 114.00,19.32 113.95,19.31" fill="currentColor" stroke="currentColor" stroke-width="1.2" stroke-linecap="round" stroke-linejoin="round" />
  <path d="M114.34,19.31 C114.28,19.32 114.22,19.32 114.15,19.32" fill="currentColor" stroke="currentColor" stroke-width="1.2" stroke-linecap="round" stroke-linejoin="round" />
  <line x1="36.05" y1="249.53" x2="36.05" y2="21.21" fill="none" stroke="currentColor" stroke-width="1.0" stroke-linecap="round" stroke-linejoin="round" />
  <line x1="215.53" y1="249.53" x2="215.53" y2="21.21" fill="none" stroke="currentColor" stroke-width="1.0" stroke-linecap="round" stroke-linejoin="round" />
  <line x1="237.98" y1="249.53" x2="237.98" y2="21.21" fill="none" stroke="currentColor" stroke-width="1.0" stroke-linecap="round" stroke-linejoin="round" />
  <line x1="13.61" y1="249.53" x2="13.61" y2="21.21" fill="none" stroke="currentColor" stroke-width="1.0" stroke-linecap="round" stroke-linejoin="round" />
  <line x1="58.48" y1="249.67" x2="58.48" y2="21.36" fill="none" stroke="currentColor" stroke-width="1.0" stroke-linecap="round" stroke-linejoin="round" />
  <line x1="69.70" y1="249.67" x2="69.70" y2="21.36" fill="none" stroke="currentColor" stroke-width="1.0" stroke-linecap="round" stroke-linejoin="round" />
  <line x1="80.92" y1="249.67" x2="80.92" y2="21.36" fill="none" stroke="currentColor" stroke-width="1.0" stroke-linecap="round" stroke-linejoin="round" />
  <line x1="92.14" y1="249.67" x2="92.14" y2="21.36" fill="none" stroke="currentColor" stroke-width="1.0" stroke-linecap="round" stroke-linejoin="round" />
  <line x1="103.36" y1="249.67" x2="103.36" y2="21.36" fill="none" stroke="currentColor" stroke-width="1.0" stroke-linecap="round" stroke-linejoin="round" />
  <line x1="114.57" y1="249.67" x2="114.57" y2="21.36" fill="none" stroke="currentColor" stroke-width="1.0" stroke-linecap="round" stroke-linejoin="round" />
  <line x1="47.26" y1="249.67" x2="47.26" y2="21.36" fill="none" stroke="currentColor" stroke-width="1.0" stroke-linecap="round" stroke-linejoin="round" />
  <line x1="170.66" y1="249.67" x2="170.66" y2="21.36" fill="none" stroke="currentColor" stroke-width="1.0" stroke-linecap="round" stroke-linejoin="round" />
  <line x1="181.88" y1="249.67" x2="181.88" y2="21.36" fill="none" stroke="currentColor" stroke-width="1.0" stroke-linecap="round" stroke-linejoin="round" />
  <line x1="193.10" y1="249.67" x2="193.10" y2="21.36" fill="none" stroke="currentColor" stroke-width="1.0" stroke-linecap="round" stroke-linejoin="round" />
  <line x1="204.32" y1="249.67" x2="204.32" y2="21.36" fill="none" stroke="currentColor" stroke-width="1.0" stroke-linecap="round" stroke-linejoin="round" />
  <line x1="148.22" y1="249.67" x2="148.22" y2="21.36" fill="none" stroke="currentColor" stroke-width="1.0" stroke-linecap="round" stroke-linejoin="round" />
  <line x1="159.45" y1="249.67" x2="159.45" y2="21.36" fill="none" stroke="currentColor" stroke-width="1.0" stroke-linecap="round" stroke-linejoin="round" />
  <line x1="137.01" y1="249.67" x2="137.01" y2="21.36" fill="none" stroke="currentColor" stroke-width="1.0" stroke-linecap="round" stroke-linejoin="round" />
  <line x1="226.76" y1="249.67" x2="226.76" y2="21.36" fill="none" stroke="currentColor" stroke-width="1.0" stroke-linecap="round" stroke-linejoin="round" />
  <line x1="24.83" y1="249.67" x2="24.83" y2="21.36" fill="none" stroke="currentColor" stroke-width="1.0" stroke-linecap="round" stroke-linejoin="round" />
  <line x1="11.28" y1="23.44" x2="243.41" y2="23.44" fill="none" stroke="currentColor" stroke-width="1.0" stroke-linecap="round" stroke-linejoin="round" />
  <line x1="11.28" y1="34.65" x2="243.41" y2="34.65" fill="none" stroke="currentColor" stroke-width="1.0" stroke-linecap="round" stroke-linejoin="round" />
  <line x1="11.28" y1="45.88" x2="243.41" y2="45.88" fill="none" stroke="currentColor" stroke-width="1.0" stroke-linecap="round" stroke-linejoin="round" />
  <line x1="11.28" y1="57.10" x2="243.41" y2="57.10" fill="none" stroke="currentColor" stroke-width="1.0" stroke-linecap="round" stroke-linejoin="round" />
  <line x1="11.28" y1="68.31" x2="243.41" y2="68.31" fill="none" stroke="currentColor" stroke-width="1.0" stroke-linecap="round" stroke-linejoin="round" />
  <line x1="11.28" y1="79.53" x2="243.41" y2="79.53" fill="none" stroke="currentColor" stroke-width="1.0" stroke-linecap="round" stroke-linejoin="round" />
  <line x1="11.28" y1="90.75" x2="243.41" y2="90.75" fill="none" stroke="currentColor" stroke-width="1.0" stroke-linecap="round" stroke-linejoin="round" />
  <line x1="11.28" y1="101.97" x2="243.41" y2="101.97" fill="none" stroke="currentColor" stroke-width="1.0" stroke-linecap="round" stroke-linejoin="round" />
  <line x1="11.28" y1="113.19" x2="243.41" y2="113.19" fill="none" stroke="currentColor" stroke-width="1.0" stroke-linecap="round" stroke-linejoin="round" />
  <line x1="11.28" y1="124.41" x2="243.41" y2="124.41" fill="none" stroke="currentColor" stroke-width="1.0" stroke-linecap="round" stroke-linejoin="round" />
  <line x1="247.09" y1="132.38" x2="248.17" y2="135.62" fill="currentColor" stroke="currentColor" stroke-width="1.2" stroke-linecap="round" stroke-linejoin="round" />
  <line x1="256.81" y1="135.62" x2="247.09" y2="132.38" fill="currentColor" stroke="currentColor" stroke-width="1.2" stroke-linecap="round" stroke-linejoin="round" />
  <line x1="8.00" y1="135.62" x2="248.71" y2="135.62" fill="none" stroke="currentColor" stroke-width="1.4000000476837158" stroke-linecap="round" stroke-linejoin="round" />
  <line x1="248.17" y1="135.62" x2="247.09" y2="138.86" fill="currentColor" stroke="currentColor" stroke-width="1.2" stroke-linecap="round" stroke-linejoin="round" />
  <line x1="247.09" y1="138.86" x2="256.81" y2="135.62" fill="currentColor" stroke="currentColor" stroke-width="1.2" stroke-linecap="round" stroke-linejoin="round" />
  <path d="M249.52,143.03 C249.57,143.03 249.65,143.02 249.74,143.02" fill="currentColor" stroke="currentColor" stroke-width="1.2" stroke-linecap="round" stroke-linejoin="round" />
  <path d="M249.74,143.02 C249.82,143.02 249.89,143.03 249.93,143.03" fill="currentColor" stroke="currentColor" stroke-width="1.2" stroke-linecap="round" stroke-linejoin="round" />
  <path d="M252.22,143.03 C252.27,143.03 252.33,143.02 252.41,143.02" fill="currentColor" stroke="currentColor" stroke-width="1.2" stroke-linecap="round" stroke-linejoin="round" />
  <path d="M252.41,143.02 C252.50,143.02 252.57,143.03 252.63,143.03" fill="currentColor" stroke="currentColor" stroke-width="1.2" stroke-linecap="round" stroke-linejoin="round" />
  <path d="M249.93,143.03 C249.98,143.04 250.02,143.04 250.04,143.05" fill="currentColor" stroke="currentColor" stroke-width="1.2" stroke-linecap="round" stroke-linejoin="round" />
  <path d="M252.09,143.06 C252.13,143.04 252.17,143.04 252.22,143.03" fill="currentColor" stroke="currentColor" stroke-width="1.2" stroke-linecap="round" stroke-linejoin="round" />
  <path d="M249.39,143.07 C249.42,143.05 249.46,143.04 249.52,143.03" fill="currentColor" stroke="currentColor" stroke-width="1.2" stroke-linecap="round" stroke-linejoin="round" />
  <path d="M252.63,143.03 C252.69,143.04 252.73,143.05 252.75,143.07" fill="currentColor" stroke="currentColor" stroke-width="1.2" stroke-linecap="round" stroke-linejoin="round" />
  <path d="M250.04,143.05 C250.07,143.06 250.09,143.08 250.10,143.09" fill="currentColor" stroke="currentColor" stroke-width="1.2" stroke-linecap="round" stroke-linejoin="round" />
  <path d="M252.02,143.10 C252.04,143.08 252.06,143.07 252.09,143.06" fill="currentColor" stroke="currentColor" stroke-width="1.2" stroke-linecap="round" stroke-linejoin="round" />
  <path d="M252.75,143.07 C252.78,143.08 252.79,143.11 252.79,143.14" fill="currentColor" stroke="currentColor" stroke-width="1.2" stroke-linecap="round" stroke-linejoin="round" />
  <path d="M249.34,143.15 C249.34,143.12 249.36,143.09 249.39,143.07" fill="currentColor" stroke="currentColor" stroke-width="1.2" stroke-linecap="round" stroke-linejoin="round" />
  <path d="M250.10,143.09 C250.11,143.11 250.12,143.13 250.13,143.15" fill="currentColor" stroke="currentColor" stroke-width="1.2" stroke-linecap="round" stroke-linejoin="round" />
  <path d="M251.97,143.15 C251.98,143.13 252.00,143.11 252.02,143.10" fill="currentColor" stroke="currentColor" stroke-width="1.2" stroke-linecap="round" stroke-linejoin="round" />
  <path d="M252.79,143.14 C252.78,143.17 252.76,143.21 252.72,143.25" fill="currentColor" stroke="currentColor" stroke-width="1.2" stroke-linecap="round" stroke-linejoin="round" />
  <path d="M249.36,143.26 C249.35,143.22 249.34,143.18 249.34,143.15" fill="currentColor" stroke="currentColor" stroke-width="1.2" stroke-linecap="round" stroke-linejoin="round" />
  <line x1="250.13" y1="143.15" x2="250.76" y2="144.79" fill="currentColor" stroke="currentColor" stroke-width="1.2" stroke-linecap="round" stroke-linejoin="round" />
  <line x1="250.76" y1="144.79" x2="251.97" y2="143.15" fill="currentColor" stroke="currentColor" stroke-width="1.2" stroke-linecap="round" stroke-linejoin="round" />
  <line x1="252.72" y1="143.25" x2="251.16" y2="145.33" fill="currentColor" stroke="currentColor" stroke-width="1.2" stroke-linecap="round" stroke-linejoin="round" />
  <line x1="250.19" y1="145.31" x2="249.36" y2="143.26" fill="currentColor" stroke="currentColor" stroke-width="1.2" stroke-linecap="round" stroke-linejoin="round" />
  <line x1="248.52" y1="147.48" x2="250.19" y2="145.31" fill="currentColor" stroke="currentColor" stroke-width="1.2" stroke-linecap="round" stroke-linejoin="round" />
  <line x1="251.16" y1="145.33" x2="252.03" y2="147.48" fill="currentColor" stroke="currentColor" stroke-width="1.2" stroke-linecap="round" stroke-linejoin="round" />
  <line x1="251.25" y1="147.58" x2="250.58" y2="145.85" fill="currentColor" stroke="currentColor" stroke-width="1.2" stroke-linecap="round" stroke-linejoin="round" />
  <line x1="250.58" y1="145.85" x2="249.32" y2="147.58" fill="currentColor" stroke="currentColor" stroke-width="1.2" stroke-linecap="round" stroke-linejoin="round" />
  <line x1="11.28" y1="146.84" x2="243.41" y2="146.84" fill="none" stroke="currentColor" stroke-width="1.0" stroke-linecap="round" stroke-linejoin="round" />
  <path d="M252.03,147.48 C252.05,147.52 252.06,147.56 252.05,147.59" fill="currentColor" stroke="currentColor" stroke-width="1.2" stroke-linecap="round" stroke-linejoin="round" />
  <path d="M248.47,147.59 C248.47,147.56 248.49,147.53 248.52,147.48" fill="currentColor" stroke="currentColor" stroke-width="1.2" stroke-linecap="round" stroke-linejoin="round" />
  <path d="M251.27,147.65 C251.27,147.63 251.26,147.61 251.25,147.58" fill="currentColor" stroke="currentColor" stroke-width="1.2" stroke-linecap="round" stroke-linejoin="round" />
  <path d="M249.32,147.58 C249.30,147.61 249.28,147.63 249.26,147.65" fill="currentColor" stroke="currentColor" stroke-width="1.2" stroke-linecap="round" stroke-linejoin="round" />
  <path d="M252.05,147.59 C252.05,147.62 252.03,147.65 252.00,147.67" fill="currentColor" stroke="currentColor" stroke-width="1.2" stroke-linecap="round" stroke-linejoin="round" />
  <path d="M248.50,147.67 C248.48,147.65 248.47,147.62 248.47,147.59" fill="currentColor" stroke="currentColor" stroke-width="1.2" stroke-linecap="round" stroke-linejoin="round" />
  <path d="M251.33,147.69 C251.30,147.68 251.28,147.66 251.27,147.65" fill="currentColor" stroke="currentColor" stroke-width="1.2" stroke-linecap="round" stroke-linejoin="round" />
  <path d="M249.26,147.65 C249.24,147.66 249.22,147.68 249.18,147.69" fill="currentColor" stroke="currentColor" stroke-width="1.2" stroke-linecap="round" stroke-linejoin="round" />
  <path d="M252.00,147.67 C251.96,147.69 251.92,147.70 251.86,147.71" fill="currentColor" stroke="currentColor" stroke-width="1.2" stroke-linecap="round" stroke-linejoin="round" />
  <path d="M248.62,147.71 C248.57,147.70 248.53,147.69 248.50,147.67" fill="currentColor" stroke="currentColor" stroke-width="1.2" stroke-linecap="round" stroke-linejoin="round" />
  <path d="M249.18,147.69 C249.15,147.70 249.10,147.70 249.05,147.71" fill="currentColor" stroke="currentColor" stroke-width="1.2" stroke-linecap="round" stroke-linejoin="round" />
  <path d="M251.44,147.71 C251.39,147.71 251.36,147.70 251.33,147.69" fill="currentColor" stroke="currentColor" stroke-width="1.2" stroke-linecap="round" stroke-linejoin="round" />
  <path d="M251.86,147.71 C251.80,147.72 251.73,147.72 251.64,147.72" fill="currentColor" stroke="currentColor" stroke-width="1.2" stroke-linecap="round" stroke-linejoin="round" />
  <path d="M248.83,147.72 C248.74,147.72 248.67,147.72 248.62,147.71" fill="currentColor" stroke="currentColor" stroke-width="1.2" stroke-linecap="round" stroke-linejoin="round" />
  <path d="M249.05,147.71 C248.99,147.72 248.92,147.72 248.83,147.72" fill="currentColor" stroke="currentColor" stroke-width="1.2" stroke-linecap="round" stroke-linejoin="round" />
  <path d="M251.64,147.72 C251.55,147.72 251.49,147.72 251.44,147.71" fill="currentColor" stroke="currentColor" stroke-width="1.2" stroke-linecap="round" stroke-linejoin="round" />
  <line x1="11.28" y1="158.06" x2="243.41" y2="158.06" fill="none" stroke="currentColor" stroke-width="1.0" stroke-linecap="round" stroke-linejoin="round" />
  <line x1="11.28" y1="169.28" x2="243.41" y2="169.28" fill="none" stroke="currentColor" stroke-width="1.0" stroke-linecap="round" stroke-linejoin="round" />
  <line x1="11.28" y1="180.50" x2="243.41" y2="180.50" fill="none" stroke="currentColor" stroke-width="1.0" stroke-linecap="round" stroke-linejoin="round" />
  <line x1="11.28" y1="191.72" x2="243.41" y2="191.72" fill="none" stroke="currentColor" stroke-width="1.0" stroke-linecap="round" stroke-linejoin="round" />
  <line x1="11.28" y1="202.93" x2="243.41" y2="202.93" fill="none" stroke="currentColor" stroke-width="1.0" stroke-linecap="round" stroke-linejoin="round" />
  <line x1="11.28" y1="214.15" x2="243.41" y2="214.15" fill="none" stroke="currentColor" stroke-width="1.0" stroke-linecap="round" stroke-linejoin="round" />
  <line x1="11.28" y1="225.37" x2="243.41" y2="225.37" fill="none" stroke="currentColor" stroke-width="1.0" stroke-linecap="round" stroke-linejoin="round" />
  <line x1="11.28" y1="236.59" x2="243.41" y2="236.59" fill="none" stroke="currentColor" stroke-width="1.0" stroke-linecap="round" stroke-linejoin="round" />
  <line x1="11.28" y1="247.81" x2="243.41" y2="247.81" fill="none" stroke="currentColor" stroke-width="1.0" stroke-linecap="round" stroke-linejoin="round" />
</svg>