<svg xmlns="http://www.w3.org/2000/svg" viewBox="0 0 165.50 160.41" preserveAspectRatio="xMidYMid meet" shape-rendering="geometricPrecision" text-rendering="optimizeLegibility">
  <path d="M30.90,42.41 C51.76,14.07 91.70,8.00 120.04,28.87" fill="none" stroke="currentColor" stroke-width="1.6" stroke-linecap="round" stroke-linejoin="round" />
  <path d="M115.04,11.70 C114.75,11.65 114.46,11.63 114.19,11.63" fill="currentColor" stroke="currentColor" stroke-width="1.2" stroke-linecap="round" stroke-linejoin="round" />
  <path d="M114.19,11.63 C113.53,11.63 112.93,11.74 112.39,11.95" fill="currentColor" stroke="currentColor" stroke-width="1.2" stroke-linecap="round" stroke-linejoin="round" />
  <path d="M115.96,11.92 C115.63,11.82 115.33,11.75 115.04,11.70" fill="currentColor" stroke="currentColor" stroke-width="1.2" stroke-linecap="round" stroke-linejoin="round" />
  <path d="M116.99,12.30 C116.62,12.15 116.28,12.02 115.96,11.92" fill="currentColor" stroke="currentColor" stroke-width="1.2" stroke-linecap="round" stroke-linejoin="round" />
  <path d="M112.39,11.95 C111.84,12.17 111.37,12.47 110.97,12.85" fill="currentColor" stroke="currentColor" stroke-width="1.2" stroke-linecap="round" stroke-linejoin="round" />
  <line x1="116.99" y1="13.56" x2="116.99" y2="12.30" fill="currentColor" stroke="currentColor" stroke-width="1.2" stroke-linecap="round" stroke-linejoin="round" />
  <path d="M114.17,12.71 C114.64,12.71 115.10,12.78 115.56,12.92" fill="currentColor" stroke="currentColor" stroke-width="1.2" stroke-linecap="round" stroke-linejoin="round" />
  <path d="M112.87,12.95 C113.27,12.79 113.70,12.71 114.17,12.71" fill="currentColor" stroke="currentColor" stroke-width="1.2" stroke-linecap="round" stroke-linejoin="round" />
  <path d="M110.97,12.85 C110.56,13.24 110.25,13.70 110.03,14.22" fill="currentColor" stroke="currentColor" stroke-width="1.2" stroke-linecap="round" stroke-linejoin="round" />
  <path d="M115.56,12.92 C116.02,13.05 116.49,13.27 116.99,13.56" fill="currentColor" stroke="currentColor" stroke-width="1.2" stroke-linecap="round" stroke-linejoin="round" />
  <path d="M111.84,13.60 C112.13,13.32 112.48,13.10 112.87,12.95" fill="currentColor" stroke="currentColor" stroke-width="1.2" stroke-linecap="round" stroke-linejoin="round" />
  <path d="M111.16,14.59 C111.32,14.21 111.55,13.88 111.84,13.60" fill="currentColor" stroke="currentColor" stroke-width="1.2" stroke-linecap="round" stroke-linejoin="round" />
  <path d="M110.03,14.22 C109.81,14.75 109.70,15.32 109.70,15.95" fill="currentColor" stroke="currentColor" stroke-width="1.2" stroke-linecap="round" stroke-linejoin="round" />
  <path d="M110.91,15.84 C110.91,15.39 110.99,14.97 111.16,14.59" fill="currentColor" stroke="currentColor" stroke-width="1.2" stroke-linecap="round" stroke-linejoin="round" />
  <path d="M111.33,17.46 C111.05,17.00 110.91,16.46 110.91,15.84" fill="currentColor" stroke="currentColor" stroke-width="1.2" stroke-linecap="round" stroke-linejoin="round" />
  <path d="M109.70,15.95 C109.70,16.30 109.75,16.66 109.86,17.03" fill="currentColor" stroke="currentColor" stroke-width="1.2" stroke-linecap="round" stroke-linejoin="round" />
  <path d="M109.86,17.03 C109.97,17.41 110.14,17.77 110.37,18.13" fill="currentColor" stroke="currentColor" stroke-width="1.2" stroke-linecap="round" stroke-linejoin="round" />
  <path d="M112.49,18.55 C111.99,18.29 111.61,17.93 111.33,17.46" fill="currentColor" stroke="currentColor" stroke-width="1.2" stroke-linecap="round" stroke-linejoin="round" />
  <line x1="117.08" y1="19.31" x2="117.08" y2="18.03" fill="currentColor" stroke="currentColor" stroke-width="1.2" stroke-linecap="round" stroke-linejoin="round" />
  <path d="M117.08,18.03 C116.61,18.33 116.14,18.55 115.65,18.71" fill="currentColor" stroke="currentColor" stroke-width="1.2" stroke-linecap="round" stroke-linejoin="round" />
  <path d="M110.37,18.13 C110.59,18.48 110.88,18.80 111.23,19.09" fill="currentColor" stroke="currentColor" stroke-width="1.2" stroke-linecap="round" stroke-linejoin="round" />
  <path d="M114.22,18.95 C113.56,18.94 112.98,18.81 112.49,18.55" fill="currentColor" stroke="currentColor" stroke-width="1.2" stroke-linecap="round" stroke-linejoin="round" />
  <path d="M115.65,18.71 C115.16,18.87 114.69,18.95 114.22,18.95" fill="currentColor" stroke="currentColor" stroke-width="1.2" stroke-linecap="round" stroke-linejoin="round" />
  <path d="M111.23,19.09 C111.58,19.37 112.00,19.60 112.47,19.77" fill="currentColor" stroke="currentColor" stroke-width="1.2" stroke-linecap="round" stroke-linejoin="round" />
  <path d="M116.24,19.68 C116.53,19.57 116.81,19.45 117.08,19.31" fill="currentColor" stroke="currentColor" stroke-width="1.2" stroke-linecap="round" stroke-linejoin="round" />
  <path d="M115.27,19.93 C115.62,19.87 115.94,19.79 116.24,19.68" fill="currentColor" stroke="currentColor" stroke-width="1.2" stroke-linecap="round" stroke-linejoin="round" />
  <path d="M112.47,19.77 C112.95,19.94 113.50,20.02 114.11,20.03" fill="currentColor" stroke="currentColor" stroke-width="1.2" stroke-linecap="round" stroke-linejoin="round" />
  <path d="M114.11,20.03 C114.54,20.03 114.93,20.00 115.27,19.93" fill="currentColor" stroke="currentColor" stroke-width="1.2" stroke-linecap="round" stroke-linejoin="round" />
  <line x1="145.69" y1="80.11" x2="112.01" y2="24.31" fill="none" stroke="currentColor" stroke-width="1.599999976158142" stroke-linecap="round" stroke-linejoin="round" />
  <line x1="112.01" y1="24.31" x2="82.82" y2="79.78" fill="none" stroke="currentColor" stroke-width="1.599999976158142" stroke-linecap="round" stroke-linejoin="round" />
  <path d="M120.04,28.87 C148.38,49.73 154.44,89.67 133.58,118.01" fill="none" stroke="currentColor" stroke-width="1.6" stroke-linecap="round" stroke-linejoin="round" />
  <path d="M44.44,131.55 C16.10,110.68 10.03,70.75 30.90,42.41" fill="none" stroke="currentColor" stroke-width="1.6" stroke-linecap="round" stroke-linejoin="round" />
  <line x1="78.93" y1="63.39" x2="77.67" y2="63.39" fill="currentColor" stroke="currentColor" stroke-width="1.2" stroke-linecap="round" stroke-linejoin="round" />
  <line x1="77.67" y1="63.39" x2="76.26" y2="65.21" fill="currentColor" stroke="currentColor" stroke-width="1.2" stroke-linecap="round" stroke-linejoin="round" />
  <line x1="76.26" y1="65.21" x2="75.41" y2="63.39" fill="currentColor" stroke="currentColor" stroke-width="1.2" stroke-linecap="round" stroke-linejoin="round" />
  <line x1="75.41" y1="63.39" x2="74.32" y2="63.39" fill="currentColor" stroke="currentColor" stroke-width="1.2" stroke-linecap="round" stroke-linejoin="round" />
  <line x1="74.32" y1="63.39" x2="75.59" y2="65.93" fill="currentColor" stroke="currentColor" stroke-width="1.2" stroke-linecap="round" stroke-linejoin="round" />
  <line x1="76.76" y1="66.06" x2="78.93" y2="63.39" fill="currentColor" stroke="currentColor" stroke-width="1.2" stroke-linecap="round" stroke-linejoin="round" />
  <line x1="75.59" y1="65.93" x2="73.24" y2="68.78" fill="currentColor" stroke="currentColor" stroke-width="1.2" stroke-linecap="round" stroke-linejoin="round" />
  <line x1="78.12" y1="68.78" x2="76.76" y2="66.06" fill="currentColor" stroke="currentColor" stroke-width="1.2" stroke-linecap="round" stroke-linejoin="round" />
  <line x1="74.49" y1="68.78" x2="76.05" y2="66.77" fill="currentColor" stroke="currentColor" stroke-width="1.2" stroke-linecap="round" stroke-linejoin="round" />
  <line x1="76.05" y1="66.77" x2="77.03" y2="68.78" fill="currentColor" stroke="currentColor" stroke-width="1.2" stroke-linecap="round" stroke-linejoin="round" />
  <line x1="133.63" y1="68.59" x2="132.56" y2="68.59" fill="currentColor" stroke="currentColor" stroke-width="1.2" stroke-linecap="round" stroke-linejoin="round" />
  <line x1="132.56" y1="68.59" x2="130.87" y2="72.30" fill="currentColor" stroke="currentColor" stroke-width="1.2" stroke-linecap="round" stroke-linejoin="round" />
  <line x1="130.85" y1="72.30" x2="130.13" y2="68.59" fill="currentColor" stroke="currentColor" stroke-width="1.2" stroke-linecap="round" stroke-linejoin="round" />
  <line x1="130.13" y1="68.59" x2="129.11" y2="68.59" fill="currentColor" stroke="currentColor" stroke-width="1.2" stroke-linecap="round" stroke-linejoin="round" />
  <line x1="129.11" y1="68.59" x2="130.15" y2="73.66" fill="currentColor" stroke="currentColor" stroke-width="1.2" stroke-linecap="round" stroke-linejoin="round" />
  <line x1="129.77" y1="76.74" x2="133.63" y2="68.59" fill="currentColor" stroke="currentColor" stroke-width="1.2" stroke-linecap="round" stroke-linejoin="round" />
  <line x1="73.24" y1="68.78" x2="74.49" y2="68.78" fill="currentColor" stroke="currentColor" stroke-width="1.2" stroke-linecap="round" stroke-linejoin="round" />
  <line x1="77.03" y1="68.78" x2="78.12" y2="68.78" fill="currentColor" stroke="currentColor" stroke-width="1.2" stroke-linecap="round" stroke-linejoin="round" />
  <path d="M76.23,72.26 C79.64,69.67 84.20,69.65 87.58,71.86" fill="none" stroke="currentColor" stroke-width="1.2" stroke-linecap="round" stroke-linejoin="round" />
  <path d="M139.56,70.66 C139.81,70.52 140.06,70.39 140.32,70.27" fill="none" stroke="currentColor" stroke-width="1.2" stroke-linecap="round" stroke-linejoin="round" />
  <path d="M134.08,79.68 C134.23,76.06 136.18,72.59 139.56,70.66" fill="none" stroke="currentColor" stroke-width="1.2" stroke-linecap="round" stroke-linejoin="round" />
  <path d="M72.35,80.70 C72.16,77.53 73.51,74.32 76.23,72.26" fill="none" stroke="currentColor" stroke-width="1.2" stroke-linecap="round" stroke-linejoin="round" />
  <line x1="130.87" y1="72.30" x2="130.85" y2="72.30" fill="currentColor" stroke="currentColor" stroke-width="1.2" stroke-linecap="round" stroke-linejoin="round" />
  <line x1="130.15" y1="73.66" x2="128.69" y2="76.74" fill="currentColor" stroke="currentColor" stroke-width="1.2" stroke-linecap="round" stroke-linejoin="round" />
  <path d="M12.79,76.10 C12.32,75.94 11.78,75.86 11.18,75.86" fill="currentColor" stroke="currentColor" stroke-width="1.2" stroke-linecap="round" stroke-linejoin="round" />
  <line x1="11.18" y1="75.86" x2="8.00" y2="75.86" fill="currentColor" stroke="currentColor" stroke-width="1.2" stroke-linecap="round" stroke-linejoin="round" />
  <line x1="8.00" y1="75.86" x2="8.00" y2="84.04" fill="currentColor" stroke="currentColor" stroke-width="1.2" stroke-linecap="round" stroke-linejoin="round" />
  <path d="M14.02,76.74 C13.68,76.47 13.27,76.26 12.79,76.10" fill="currentColor" stroke="currentColor" stroke-width="1.2" stroke-linecap="round" stroke-linejoin="round" />
  <line x1="128.69" y1="76.74" x2="129.77" y2="76.74" fill="currentColor" stroke="currentColor" stroke-width="1.2" stroke-linecap="round" stroke-linejoin="round" />
  <path d="M14.87,77.68 C14.65,77.33 14.37,77.02 14.02,76.74" fill="currentColor" stroke="currentColor" stroke-width="1.2" stroke-linecap="round" stroke-linejoin="round" />
  <path d="M155.40,76.94 C155.08,76.82 154.70,76.76 154.26,76.76" fill="currentColor" stroke="currentColor" stroke-width="1.2" stroke-linecap="round" stroke-linejoin="round" />
  <line x1="154.26" y1="76.76" x2="151.88" y2="76.76" fill="currentColor" stroke="currentColor" stroke-width="1.2" stroke-linecap="round" stroke-linejoin="round" />
  <line x1="151.88" y1="76.76" x2="151.88" y2="84.94" fill="currentColor" stroke="currentColor" stroke-width="1.2" stroke-linecap="round" stroke-linejoin="round" />
  <line x1="9.17" y1="76.91" x2="10.99" y2="76.91" fill="currentColor" stroke="currentColor" stroke-width="1.2" stroke-linecap="round" stroke-linejoin="round" />
  <path d="M10.99,76.91 C11.56,76.92 12.06,77.00 12.48,77.16" fill="currentColor" stroke="currentColor" stroke-width="1.2" stroke-linecap="round" stroke-linejoin="round" />
  <line x1="9.17" y1="82.99" x2="9.17" y2="76.91" fill="currentColor" stroke="currentColor" stroke-width="1.2" stroke-linecap="round" stroke-linejoin="round" />
  <path d="M156.18,77.41 C155.98,77.21 155.72,77.05 155.40,76.94" fill="currentColor" stroke="currentColor" stroke-width="1.2" stroke-linecap="round" stroke-linejoin="round" />
  <path d="M12.48,77.16 C12.90,77.32 13.24,77.54 13.52,77.82" fill="currentColor" stroke="currentColor" stroke-width="1.2" stroke-linecap="round" stroke-linejoin="round" />
  <path d="M156.63,78.08 C156.54,77.84 156.39,77.61 156.18,77.41" fill="currentColor" stroke="currentColor" stroke-width="1.2" stroke-linecap="round" stroke-linejoin="round" />
  <path d="M15.37,78.78 C15.26,78.39 15.10,78.03 14.87,77.68" fill="currentColor" stroke="currentColor" stroke-width="1.2" stroke-linecap="round" stroke-linejoin="round" />
  <line x1="153.06" y1="77.81" x2="154.14" y2="77.81" fill="currentColor" stroke="currentColor" stroke-width="1.2" stroke-linecap="round" stroke-linejoin="round" />
  <path d="M154.14,77.81 C154.50,77.81 154.78,77.87 154.99,77.97" fill="currentColor" stroke="currentColor" stroke-width="1.2" stroke-linecap="round" stroke-linejoin="round" />
  <line x1="153.06" y1="80.26" x2="153.06" y2="77.81" fill="currentColor" stroke="currentColor" stroke-width="1.2" stroke-linecap="round" stroke-linejoin="round" />
  <path d="M13.52,77.82 C13.79,78.10 13.99,78.42 14.13,78.78" fill="currentColor" stroke="currentColor" stroke-width="1.2" stroke-linecap="round" stroke-linejoin="round" />
  <path d="M154.99,77.97 C155.20,78.07 155.35,78.21 155.44,78.38" fill="currentColor" stroke="currentColor" stroke-width="1.2" stroke-linecap="round" stroke-linejoin="round" />
  <path d="M156.78,78.84 C156.78,78.58 156.73,78.33 156.63,78.08" fill="currentColor" stroke="currentColor" stroke-width="1.2" stroke-linecap="round" stroke-linejoin="round" />
  <path d="M155.44,78.38 C155.53,78.55 155.57,78.74 155.57,78.95" fill="currentColor" stroke="currentColor" stroke-width="1.2" stroke-linecap="round" stroke-linejoin="round" />
  <path d="M14.13,78.78 C14.26,79.15 14.33,79.54 14.33,79.95" fill="currentColor" stroke="currentColor" stroke-width="1.2" stroke-linecap="round" stroke-linejoin="round" />
  <path d="M15.54,79.95 C15.54,79.56 15.48,79.17 15.37,78.78" fill="currentColor" stroke="currentColor" stroke-width="1.2" stroke-linecap="round" stroke-linejoin="round" />
  <path d="M156.48,79.91 C156.68,79.62 156.78,79.27 156.78,78.84" fill="currentColor" stroke="currentColor" stroke-width="1.2" stroke-linecap="round" stroke-linejoin="round" />
  <path d="M155.57,78.95 C155.57,79.39 155.43,79.72 155.14,79.93" fill="currentColor" stroke="currentColor" stroke-width="1.2" stroke-linecap="round" stroke-linejoin="round" />
  <path d="M155.53,80.60 C155.96,80.42 156.27,80.20 156.48,79.91" fill="currentColor" stroke="currentColor" stroke-width="1.2" stroke-linecap="round" stroke-linejoin="round" />
  <path d="M155.14,79.93 C154.85,80.15 154.42,80.26 153.84,80.26" fill="currentColor" stroke="currentColor" stroke-width="1.2" stroke-linecap="round" stroke-linejoin="round" />
  <path d="M15.34,81.18 C15.47,80.78 15.54,80.37 15.54,79.95" fill="currentColor" stroke="currentColor" stroke-width="1.2" stroke-linecap="round" stroke-linejoin="round" />
  <path d="M14.33,79.95 C14.33,80.16 14.30,80.39 14.24,80.65" fill="currentColor" stroke="currentColor" stroke-width="1.2" stroke-linecap="round" stroke-linejoin="round" />
  <line x1="18.22" y1="80.11" x2="145.69" y2="80.11" fill="none" stroke="currentColor" stroke-width="1.599999976158142" stroke-linecap="round" stroke-linejoin="round" />
  <line x1="153.84" y1="80.26" x2="153.06" y2="80.26" fill="currentColor" stroke="currentColor" stroke-width="1.2" stroke-linecap="round" stroke-linejoin="round" />
  <line x1="155.53" y1="80.62" x2="155.53" y2="80.60" fill="currentColor" stroke="currentColor" stroke-width="1.2" stroke-linecap="round" stroke-linejoin="round" />
  <path d="M156.58,81.03 C156.29,80.83 155.94,80.70 155.53,80.62" fill="currentColor" stroke="currentColor" stroke-width="1.2" stroke-linecap="round" stroke-linejoin="round" />
  <path d="M14.24,80.65 C14.18,80.92 14.08,81.18 13.94,81.46" fill="currentColor" stroke="currentColor" stroke-width="1.2" stroke-linecap="round" stroke-linejoin="round" />
  <path d="M157.26,81.76 C157.10,81.47 156.88,81.23 156.58,81.03" fill="currentColor" stroke="currentColor" stroke-width="1.2" stroke-linecap="round" stroke-linejoin="round" />
  <path d="M14.79,82.30 C15.03,81.95 15.22,81.58 15.34,81.18" fill="currentColor" stroke="currentColor" stroke-width="1.2" stroke-linecap="round" stroke-linejoin="round" />
  <line x1="153.06" y1="81.32" x2="154.48" y2="81.32" fill="currentColor" stroke="currentColor" stroke-width="1.2" stroke-linecap="round" stroke-linejoin="round" />
  <path d="M154.48,81.32 C154.89,81.32 155.23,81.37 155.49,81.48" fill="currentColor" stroke="currentColor" stroke-width="1.2" stroke-linecap="round" stroke-linejoin="round" />
  <line x1="153.06" y1="83.88" x2="153.06" y2="81.32" fill="currentColor" stroke="currentColor" stroke-width="1.2" stroke-linecap="round" stroke-linejoin="round" />
  <path d="M13.94,81.46 C13.80,81.73 13.60,81.98 13.35,82.21" fill="currentColor" stroke="currentColor" stroke-width="1.2" stroke-linecap="round" stroke-linejoin="round" />
  <path d="M155.49,81.48 C155.76,81.59 155.96,81.74 156.09,81.93" fill="currentColor" stroke="currentColor" stroke-width="1.2" stroke-linecap="round" stroke-linejoin="round" />
  <path d="M157.50,82.76 C157.50,82.39 157.42,82.05 157.26,81.76" fill="currentColor" stroke="currentColor" stroke-width="1.2" stroke-linecap="round" stroke-linejoin="round" />
  <path d="M156.09,81.93 C156.22,82.12 156.29,82.34 156.29,82.59" fill="currentColor" stroke="currentColor" stroke-width="1.2" stroke-linecap="round" stroke-linejoin="round" />
  <path d="M13.35,82.21 C13.10,82.44 12.79,82.63 12.41,82.77" fill="currentColor" stroke="currentColor" stroke-width="1.2" stroke-linecap="round" stroke-linejoin="round" />
  <path d="M13.89,83.21 C14.24,82.95 14.54,82.64 14.79,82.30" fill="currentColor" stroke="currentColor" stroke-width="1.2" stroke-linecap="round" stroke-linejoin="round" />
  <path d="M156.29,82.59 C156.29,82.80 156.24,83.00 156.14,83.20" fill="currentColor" stroke="currentColor" stroke-width="1.2" stroke-linecap="round" stroke-linejoin="round" />
  <path d="M157.35,83.52 C157.45,83.27 157.50,83.01 157.50,82.76" fill="currentColor" stroke="currentColor" stroke-width="1.2" stroke-linecap="round" stroke-linejoin="round" />
  <path d="M12.41,82.77 C12.03,82.91 11.58,82.98 11.05,82.99" fill="currentColor" stroke="currentColor" stroke-width="1.2" stroke-linecap="round" stroke-linejoin="round" />
  <line x1="11.05" y1="82.99" x2="9.17" y2="82.99" fill="currentColor" stroke="currentColor" stroke-width="1.2" stroke-linecap="round" stroke-linejoin="round" />
  <path d="M156.14,83.20 C156.04,83.39 155.86,83.55 155.60,83.68" fill="currentColor" stroke="currentColor" stroke-width="1.2" stroke-linecap="round" stroke-linejoin="round" />
  <path d="M12.68,83.82 C13.13,83.67 13.54,83.47 13.89,83.21" fill="currentColor" stroke="currentColor" stroke-width="1.2" stroke-linecap="round" stroke-linejoin="round" />
  <line x1="82.56" y1="83.43" x2="81.73" y2="83.43" fill="currentColor" stroke="currentColor" stroke-width="1.2" stroke-linecap="round" stroke-linejoin="round" />
  <line x1="81.73" y1="83.43" x2="78.22" y2="91.66" fill="currentColor" stroke="currentColor" stroke-width="1.2" stroke-linecap="round" stroke-linejoin="round" />
  <line x1="86.22" y1="91.66" x2="82.56" y2="83.43" fill="currentColor" stroke="currentColor" stroke-width="1.2" stroke-linecap="round" stroke-linejoin="round" />
  <path d="M156.86,84.23 C157.09,84.01 157.25,83.78 157.35,83.52" fill="currentColor" stroke="currentColor" stroke-width="1.2" stroke-linecap="round" stroke-linejoin="round" />
  <path d="M155.60,83.68 C155.35,83.81 154.99,83.88 154.53,83.88" fill="currentColor" stroke="currentColor" stroke-width="1.2" stroke-linecap="round" stroke-linejoin="round" />
  <path d="M11.19,84.04 C11.73,84.04 12.23,83.96 12.68,83.82" fill="currentColor" stroke="currentColor" stroke-width="1.2" stroke-linecap="round" stroke-linejoin="round" />
  <line x1="154.53" y1="83.88" x2="153.06" y2="83.88" fill="currentColor" stroke="currentColor" stroke-width="1.2" stroke-linecap="round" stroke-linejoin="round" />
  <line x1="8.00" y1="84.04" x2="11.19" y2="84.04" fill="currentColor" stroke="currentColor" stroke-width="1.2" stroke-linecap="round" stroke-linejoin="round" />
  <path d="M156.00,84.74 C156.35,84.61 156.64,84.44 156.86,84.23" fill="currentColor" stroke="currentColor" stroke-width="1.2" stroke-linecap="round" stroke-linejoin="round" />
  <path d="M154.69,84.94 C155.20,84.93 155.64,84.87 156.00,84.74" fill="currentColor" stroke="currentColor" stroke-width="1.2" stroke-linecap="round" stroke-linejoin="round" />
  <line x1="151.88" y1="84.94" x2="154.69" y2="84.94" fill="currentColor" stroke="currentColor" stroke-width="1.2" stroke-linecap="round" stroke-linejoin="round" />
  <line x1="82.13" y1="85.23" x2="83.45" y2="88.19" fill="currentColor" stroke="currentColor" stroke-width="1.2" stroke-linecap="round" stroke-linejoin="round" />
  <line x1="80.90" y1="88.19" x2="82.13" y2="85.23" fill="currentColor" stroke="currentColor" stroke-width="1.2" stroke-linecap="round" stroke-linejoin="round" />
  <line x1="83.45" y1="88.19" x2="80.90" y2="88.19" fill="currentColor" stroke="currentColor" stroke-width="1.2" stroke-linecap="round" stroke-linejoin="round" />
  <line x1="79.42" y1="91.66" x2="80.45" y2="89.24" fill="currentColor" stroke="currentColor" stroke-width="1.2" stroke-linecap="round" stroke-linejoin="round" />
  <line x1="80.45" y1="89.24" x2="83.93" y2="89.24" fill="currentColor" stroke="currentColor" stroke-width="1.2" stroke-linecap="round" stroke-linejoin="round" />
  <line x1="83.93" y1="89.24" x2="85.02" y2="91.66" fill="currentColor" stroke="currentColor" stroke-width="1.2" stroke-linecap="round" stroke-linejoin="round" />
  <line x1="78.22" y1="91.66" x2="79.42" y2="91.66" fill="currentColor" stroke="currentColor" stroke-width="1.2" stroke-linecap="round" stroke-linejoin="round" />
  <line x1="85.02" y1="91.66" x2="86.22" y2="91.66" fill="currentColor" stroke="currentColor" stroke-width="1.2" stroke-linecap="round" stroke-linejoin="round" />
  <path d="M133.58,118.01 C112.71,146.35 72.78,152.41 44.44,131.55" fill="none" stroke="currentColor" stroke-width="1.6" stroke-linecap="round" stroke-linejoin="round" />
</svg>