<svg xmlns="http://www.w3.org/2000/svg" viewBox="0 0 352.65 160.45" preserveAspectRatio="xMidYMid meet" shape-rendering="geometricPrecision" text-rendering="optimizeLegibility">
  <line x1="51.16" y1="34.46" x2="51.16" y2="142.52" fill="none" stroke="currentColor" stroke-width="1.0" stroke-linecap="round" stroke-linejoin="round" />
  <line x1="70.21" y1="34.53" x2="70.21" y2="142.58" fill="none" stroke="currentColor" stroke-width="1.0" stroke-linecap="round" stroke-linejoin="round" />
  <line x1="89.25" y1="34.53" x2="89.25" y2="142.58" fill="none" stroke="currentColor" stroke-width="1.0" stroke-linecap="round" stroke-linejoin="round" />
  <line x1="108.30" y1="34.53" x2="108.30" y2="142.58" fill="none" stroke="currentColor" stroke-width="1.0" stroke-linecap="round" stroke-linejoin="round" />
  <line x1="127.34" y1="34.53" x2="127.34" y2="142.58" fill="none" stroke="currentColor" stroke-width="1.0" stroke-linecap="round" stroke-linejoin="round" />
  <line x1="25.91" y1="116.87" x2="133.97" y2="116.87" fill="none" stroke="currentColor" stroke-width="1.0" stroke-linecap="round" stroke-linejoin="round" />
  <line x1="25.91" y1="97.89" x2="133.97" y2="97.89" fill="none" stroke="currentColor" stroke-width="1.0" stroke-linecap="round" stroke-linejoin="round" />
  <line x1="25.91" y1="78.92" x2="133.97" y2="78.92" fill="none" stroke="currentColor" stroke-width="1.0" stroke-linecap="round" stroke-linejoin="round" />
  <line x1="25.91" y1="59.94" x2="133.97" y2="59.94" fill="none" stroke="currentColor" stroke-width="1.0" stroke-linecap="round" stroke-linejoin="round" />
  <line x1="25.91" y1="40.97" x2="133.97" y2="40.97" fill="none" stroke="currentColor" stroke-width="1.0" stroke-linecap="round" stroke-linejoin="round" />
  <line x1="235.33" y1="34.46" x2="235.33" y2="142.52" fill="none" stroke="currentColor" stroke-width="1.0" stroke-linecap="round" stroke-linejoin="round" />
  <line x1="254.37" y1="34.53" x2="254.37" y2="142.58" fill="none" stroke="currentColor" stroke-width="1.0" stroke-linecap="round" stroke-linejoin="round" />
  <line x1="273.42" y1="34.53" x2="273.42" y2="142.58" fill="none" stroke="currentColor" stroke-width="1.0" stroke-linecap="round" stroke-linejoin="round" />
  <line x1="292.46" y1="34.53" x2="292.46" y2="142.58" fill="none" stroke="currentColor" stroke-width="1.0" stroke-linecap="round" stroke-linejoin="round" />
  <line x1="311.51" y1="34.53" x2="311.51" y2="142.58" fill="none" stroke="currentColor" stroke-width="1.0" stroke-linecap="round" stroke-linejoin="round" />
  <line x1="210.08" y1="116.87" x2="318.14" y2="116.87" fill="none" stroke="currentColor" stroke-width="1.0" stroke-linecap="round" stroke-linejoin="round" />
  <line x1="210.08" y1="97.89" x2="318.14" y2="97.89" fill="none" stroke="currentColor" stroke-width="1.0" stroke-linecap="round" stroke-linejoin="round" />
  <line x1="210.08" y1="78.92" x2="318.14" y2="78.92" fill="none" stroke="currentColor" stroke-width="1.0" stroke-linecap="round" stroke-linejoin="round" />
  <line x1="210.08" y1="59.94" x2="318.14" y2="59.94" fill="none" stroke="currentColor" stroke-width="1.0" stroke-linecap="round" stroke-linejoin="round" />
  <line x1="210.08" y1="40.97" x2="318.14" y2="40.97" fill="none" stroke="currentColor" stroke-width="1.0" stroke-linecap="round" stroke-linejoin="round" />
  <line x1="32.11" y1="148.74" x2="32.11" y2="21.51" fill="none" stroke="currentColor" stroke-width="1.2099999904632568" stroke-linecap="round" stroke-linejoin="round" />
  <path d="M28.07,23.53L32.11,22.19L36.14,23.53L32.11,11.42L28.07,23.53Z" fill-rule="evenodd" fill="currentColor" stroke="currentColor" stroke-width="1.2" stroke-linejoin="round" />
  <line x1="19.24" y1="135.86" x2="150.43" y2="135.86" fill="none" stroke="currentColor" stroke-width="1.2099999904632568" stroke-linecap="round" stroke-linejoin="round" />
  <path d="M148.41,131.82L149.76,135.86L148.41,139.90L160.52,135.86L148.41,131.82Z" fill-rule="evenodd" fill="currentColor" stroke="currentColor" stroke-width="1.2" stroke-linejoin="round" />
  <line x1="19.81" y1="148.50" x2="136.55" y2="31.75" fill="none" stroke="currentColor" stroke-width="1.4369999885559082" stroke-linecap="round" stroke-linejoin="round" />
  <path d="M10.91,44.23L10.91,36.79L10.51,36.79L8.00,38.84L8.41,39.75L9.81,38.60L9.81,44.23L10.91,44.23Z" fill="currentColor" stroke="currentColor" stroke-width="1.2" stroke-linejoin="round" />
  <path d="M17.82,40.56C17.82,40.00 17.76,39.48 17.65,39.02C17.54,38.56 17.38,38.16 17.17,37.83C16.96,37.50 16.71,37.24 16.42,37.06C16.13,36.89 15.81,36.80 15.45,36.79C15.09,36.80 14.77,36.89 14.48,37.06C14.19,37.24 13.94,37.50 13.73,37.83C13.52,38.16 13.36,38.56 13.25,39.02C13.14,39.48 13.08,40.00 13.08,40.56C13.08,41.13 13.14,41.64 13.25,42.11C13.36,42.57 13.52,42.96 13.73,43.29C13.94,43.63 14.19,43.88 14.48,44.06C14.77,44.24 15.09,44.33 15.45,44.33C15.81,44.33 16.13,44.24 16.42,44.06C16.71,43.88 16.96,43.63 17.17,43.29C17.38,42.96 17.54,42.57 17.65,42.11C17.76,41.64 17.82,41.13 17.82,40.56ZM16.76,40.56C16.76,41.14 16.71,41.63 16.61,42.05C16.50,42.46 16.35,42.77 16.15,42.99C15.96,43.22 15.72,43.33 15.45,43.33C15.18,43.33 14.94,43.22 14.74,42.99C14.55,42.77 14.40,42.46 14.29,42.05C14.19,41.63 14.14,41.14 14.14,40.56C14.14,39.99 14.19,39.49 14.29,39.08C14.40,38.67 14.55,38.35 14.74,38.13C14.94,37.91 15.18,37.80 15.45,37.80C15.72,37.80 15.96,37.91 16.15,38.13C16.35,38.35 16.50,38.67 16.61,39.08C16.71,39.49 16.76,39.99 16.76,40.56Z" fill="currentColor" stroke="currentColor" stroke-width="1.2" stroke-linejoin="round" />
  <path d="M23.20,40.56C23.20,40.00 23.14,39.48 23.03,39.02C22.92,38.56 22.76,38.16 22.55,37.83C22.34,37.50 22.09,37.24 21.80,37.06C21.51,36.89 21.19,36.80 20.83,36.79C20.48,36.80 20.15,36.89 19.86,37.06C19.57,37.24 19.32,37.50 19.12,37.83C18.91,38.16 18.75,38.56 18.64,39.02C18.52,39.48 18.47,40.00 18.47,40.56C18.47,41.13 18.52,41.64 18.64,42.11C18.75,42.57 18.91,42.96 19.12,43.29C19.32,43.63 19.57,43.88 19.86,44.06C20.15,44.24 20.48,44.33 20.83,44.33C21.19,44.33 21.51,44.24 21.80,44.06C22.09,43.88 22.34,43.63 22.55,43.29C22.76,42.96 22.92,42.57 23.03,42.11C23.14,41.64 23.20,41.13 23.20,40.56ZM22.15,40.56C22.15,41.14 22.09,41.63 21.99,42.05C21.89,42.46 21.73,42.77 21.54,42.99C21.34,43.22 21.11,43.33 20.83,43.33C20.56,43.33 20.32,43.22 20.13,42.99C19.93,42.77 19.78,42.46 19.68,42.05C19.57,41.63 19.52,41.14 19.52,40.56C19.52,39.99 19.57,39.49 19.68,39.08C19.78,38.67 19.93,38.35 20.13,38.13C20.32,37.91 20.56,37.80 20.83,37.80C21.11,37.80 21.34,37.91 21.54,38.13C21.73,38.35 21.89,38.67 21.99,39.08C22.09,39.49 22.15,39.99 22.15,40.56Z" fill="currentColor" stroke="currentColor" stroke-width="1.2" stroke-linejoin="round" />
  <path d="M140.14,22.94L139.09,22.94L139.09,30.28L143.46,30.28L143.46,29.33L140.14,29.33L140.14,22.94Z" fill="currentColor" stroke="currentColor" stroke-width="1.2" stroke-linejoin="round" />
  <path d="M145.78,32.57L145.78,27.92L145.53,27.92L143.96,29.20L144.22,29.77L145.09,29.05L145.09,32.57L145.78,32.57Z" fill="currentColor" stroke="currentColor" stroke-width="1.2" stroke-linejoin="round" />
  <path d="M125.56,152.35L125.56,144.91L125.16,144.91L122.65,146.95L123.06,147.87L124.46,146.72L124.46,152.35L125.56,152.35Z" fill="currentColor" stroke="currentColor" stroke-width="1.2" stroke-linejoin="round" />
  <path d="M132.47,148.68C132.47,148.11 132.41,147.59 132.30,147.13C132.19,146.67 132.03,146.28 131.82,145.94C131.61,145.61 131.36,145.36 131.07,145.18C130.78,145.00 130.46,144.91 130.10,144.91C129.74,144.91 129.42,145.00 129.13,145.18C128.84,145.36 128.59,145.61 128.38,145.94C128.17,146.28 128.01,146.67 127.90,147.13C127.79,147.59 127.73,148.11 127.73,148.68C127.73,149.24 127.79,149.76 127.90,150.22C128.01,150.68 128.17,151.08 128.38,151.41C128.59,151.74 128.84,152.00 129.13,152.17C129.42,152.35 129.74,152.44 130.10,152.44C130.46,152.44 130.78,152.35 131.07,152.17C131.36,152.00 131.61,151.74 131.82,151.41C132.03,151.08 132.19,150.68 132.30,150.22C132.41,149.76 132.47,149.24 132.47,148.68ZM131.42,148.68C131.41,149.25 131.36,149.75 131.26,150.16C131.15,150.57 131.00,150.89 130.81,151.11C130.61,151.33 130.37,151.44 130.10,151.44C129.83,151.44 129.59,151.33 129.40,151.11C129.20,150.89 129.05,150.57 128.94,150.16C128.84,149.75 128.79,149.25 128.79,148.68C128.79,148.10 128.84,147.61 128.94,147.19C129.05,146.78 129.20,146.46 129.40,146.24C129.59,146.02 129.83,145.91 130.10,145.91C130.37,145.91 130.61,146.02 130.81,146.24C131.00,146.46 131.15,146.78 131.26,147.19C131.36,147.61 131.41,148.10 131.42,148.68Z" fill="currentColor" stroke="currentColor" stroke-width="1.2" stroke-linejoin="round" />
  <path d="M60.28,8.00L59.23,8.00L59.23,15.34L63.60,15.34L63.60,14.40L60.28,14.40L60.28,8.00Z" fill="currentColor" stroke="currentColor" stroke-width="1.2" stroke-linejoin="round" />
  <path d="M65.92,17.63L65.92,12.98L65.67,12.98L64.10,14.26L64.36,14.83L65.23,14.11L65.23,17.63L65.92,17.63Z" fill="currentColor" stroke="currentColor" stroke-width="1.2" stroke-linejoin="round" />
  <path d="M69.55,10.41C69.43,10.41 69.33,10.44 69.23,10.50C69.13,10.56 69.05,10.63 69.00,10.73C68.94,10.83 68.91,10.94 68.91,11.06C68.91,11.18 68.94,11.29 69.00,11.38C69.05,11.48 69.13,11.56 69.23,11.61C69.33,11.67 69.43,11.70 69.55,11.70C69.67,11.70 69.78,11.67 69.88,11.61C69.98,11.56 70.05,11.48 70.11,11.38C70.17,11.29 70.20,11.18 70.20,11.06C70.20,10.94 70.17,10.83 70.11,10.73C70.05,10.63 69.98,10.56 69.88,10.50C69.78,10.44 69.67,10.41 69.55,10.41ZM69.55,14.15C69.43,14.15 69.33,14.18 69.23,14.24C69.13,14.29 69.05,14.37 69.00,14.47C68.94,14.56 68.91,14.67 68.91,14.79C68.91,14.91 68.94,15.02 69.00,15.12C69.05,15.22 69.13,15.29 69.23,15.35C69.33,15.41 69.43,15.44 69.55,15.44C69.67,15.44 69.78,15.41 69.88,15.35C69.98,15.29 70.05,15.22 70.11,15.12C70.17,15.02 70.20,14.91 70.20,14.79C70.20,14.67 70.17,14.56 70.11,14.47C70.05,14.37 69.98,14.29 69.88,14.24C69.78,14.18 69.67,14.15 69.55,14.15Z" fill="currentColor" stroke="currentColor" stroke-width="1.2" stroke-linejoin="round" />
  <path d="M79.96,10.51L79.00,10.51L77.48,13.83L77.46,13.83L76.81,10.51L75.90,10.51L76.83,15.05L75.52,17.82L76.49,17.82L79.96,10.51Z" fill="currentColor" stroke="currentColor" stroke-width="1.2" stroke-linejoin="round" />
  <path d="M83.28,9.93H88.36V10.81H83.28ZM83.28,12.27H88.36V13.16H83.28Z" fill="currentColor" stroke="currentColor" stroke-width="1.2" stroke-linejoin="round" />
  <path d="M94.15,8.00L93.24,8.00L92.22,15.34L93.12,15.34L93.47,12.89L95.69,15.34L96.86,15.34L94.49,12.79L96.70,10.51L95.54,10.51L93.52,12.61L93.50,12.59L94.15,8.00Z" fill="currentColor" stroke="currentColor" stroke-width="1.2" stroke-linejoin="round" />
  <path d="M99.10,17.63L99.10,12.98L98.85,12.98L97.28,14.26L97.54,14.83L98.41,14.11L98.41,17.63L99.10,17.63Z" fill="currentColor" stroke="currentColor" stroke-width="1.2" stroke-linejoin="round" />
  <path d="M105.03,10.51L103.90,10.51L102.64,12.13L101.87,10.51L100.89,10.51L102.03,12.78L99.92,15.34L101.04,15.34L102.44,13.53L103.33,15.34L104.31,15.34L103.08,12.90L105.03,10.51Z" fill="currentColor" stroke="currentColor" stroke-width="1.2" stroke-linejoin="round" />
  <path d="M153.34,142.58L152.21,142.58L150.95,144.20L150.18,142.58L149.20,142.58L150.34,144.85L148.23,147.41L149.35,147.41L150.75,145.60L151.63,147.41L152.61,147.41L151.39,144.97L153.34,142.58Z" fill="currentColor" stroke="currentColor" stroke-width="1.2" stroke-linejoin="round" />
  <path d="M25.08,17.44L24.12,17.44L22.60,20.76L22.58,20.76L21.93,17.44L21.02,17.44L21.95,21.98L20.64,24.75L21.61,24.75L25.08,17.44Z" fill="currentColor" stroke="currentColor" stroke-width="1.2" stroke-linejoin="round" />
  <line x1="216.23" y1="148.74" x2="216.23" y2="21.52" fill="none" stroke="currentColor" stroke-width="1.2099999904632568" stroke-linecap="round" stroke-linejoin="round" />
  <path d="M212.19,23.53L216.23,22.19L220.27,23.53L216.23,11.42L212.19,23.53Z" fill-rule="evenodd" fill="currentColor" stroke="currentColor" stroke-width="1.2" stroke-linejoin="round" />
  <line x1="203.36" y1="135.86" x2="334.55" y2="135.86" fill="none" stroke="currentColor" stroke-width="1.2099999904632568" stroke-linecap="round" stroke-linejoin="round" />
  <path d="M332.53,131.82L333.88,135.86L332.53,139.90L344.65,135.86L332.53,131.82Z" fill-rule="evenodd" fill="currentColor" stroke="currentColor" stroke-width="1.2" stroke-linejoin="round" />
  <path d="M195.03,44.23L195.03,36.79L194.63,36.79L192.12,38.84L192.53,39.76L193.93,38.60L193.93,44.23L195.03,44.23Z" fill="currentColor" stroke="currentColor" stroke-width="1.2" stroke-linejoin="round" />
  <path d="M201.94,40.56C201.94,40.00 201.88,39.48 201.77,39.02C201.66,38.56 201.50,38.16 201.29,37.83C201.08,37.50 200.83,37.24 200.54,37.07C200.25,36.89 199.93,36.80 199.57,36.79C199.21,36.80 198.89,36.89 198.60,37.07C198.31,37.24 198.06,37.50 197.85,37.83C197.65,38.16 197.49,38.56 197.37,39.02C197.26,39.48 197.20,40.00 197.20,40.56C197.20,41.13 197.26,41.65 197.37,42.11C197.49,42.57 197.65,42.96 197.85,43.30C198.06,43.63 198.31,43.88 198.60,44.06C198.89,44.24 199.21,44.33 199.57,44.33C199.93,44.33 200.25,44.24 200.54,44.06C200.83,43.88 201.08,43.63 201.29,43.30C201.50,42.96 201.66,42.57 201.77,42.11C201.88,41.65 201.94,41.13 201.94,40.56ZM200.89,40.56C200.89,41.14 200.83,41.63 200.73,42.05C200.62,42.46 200.47,42.77 200.28,43.00C200.08,43.22 199.85,43.33 199.57,43.33C199.30,43.33 199.06,43.22 198.87,43.00C198.67,42.77 198.52,42.46 198.42,42.05C198.31,41.63 198.26,41.14 198.26,40.56C198.26,39.99 198.31,39.49 198.42,39.08C198.52,38.67 198.67,38.35 198.87,38.13C199.06,37.91 199.30,37.80 199.57,37.80C199.85,37.80 200.08,37.91 200.28,38.13C200.47,38.35 200.62,38.67 200.73,39.08C200.83,39.49 200.89,39.99 200.89,40.56Z" fill="currentColor" stroke="currentColor" stroke-width="1.2" stroke-linejoin="round" />
  <path d="M207.32,40.56C207.32,40.00 207.27,39.48 207.15,39.02C207.04,38.56 206.88,38.16 206.67,37.83C206.47,37.50 206.22,37.24 205.93,37.07C205.64,36.89 205.31,36.80 204.96,36.79C204.60,36.80 204.28,36.89 203.99,37.07C203.70,37.24 203.45,37.50 203.24,37.83C203.03,38.16 202.87,38.56 202.76,39.02C202.65,39.48 202.59,40.00 202.59,40.56C202.59,41.13 202.65,41.65 202.76,42.11C202.87,42.57 203.03,42.96 203.24,43.30C203.45,43.63 203.70,43.88 203.99,44.06C204.28,44.24 204.60,44.33 204.96,44.33C205.31,44.33 205.64,44.24 205.93,44.06C206.22,43.88 206.47,43.63 206.67,43.30C206.88,42.96 207.04,42.57 207.15,42.11C207.27,41.65 207.32,41.13 207.32,40.56ZM206.27,40.56C206.27,41.14 206.22,41.63 206.11,42.05C206.01,42.46 205.86,42.77 205.66,43.00C205.46,43.22 205.23,43.33 204.96,43.33C204.68,43.33 204.45,43.22 204.25,43.00C204.05,42.77 203.90,42.46 203.80,42.05C203.69,41.63 203.64,41.14 203.64,40.56C203.64,39.99 203.69,39.49 203.80,39.08C203.90,38.67 204.05,38.35 204.25,38.13C204.45,37.91 204.68,37.80 204.96,37.80C205.23,37.80 205.46,37.91 205.66,38.13C205.86,38.35 206.01,38.67 206.11,39.08C206.22,39.49 206.27,39.99 206.27,40.56Z" fill="currentColor" stroke="currentColor" stroke-width="1.2" stroke-linejoin="round" />
  <path d="M324.26,22.94L323.21,22.94L323.21,30.28L327.58,30.28L327.58,29.33L324.26,29.33L324.26,22.94Z" fill="currentColor" stroke="currentColor" stroke-width="1.2" stroke-linejoin="round" />
  <path d="M330.83,31.94L329.07,31.94C329.33,31.64 329.55,31.37 329.73,31.13C329.91,30.89 330.05,30.67 330.17,30.47C330.28,30.27 330.37,30.08 330.42,29.90C330.47,29.72 330.50,29.54 330.50,29.35C330.50,29.07 330.44,28.82 330.32,28.60C330.20,28.39 330.04,28.22 329.83,28.10C329.62,27.98 329.38,27.92 329.10,27.92C328.92,27.92 328.73,27.96 328.56,28.03C328.38,28.10 328.20,28.21 328.02,28.36L328.02,29.18C328.14,29.03 328.26,28.90 328.38,28.81C328.49,28.72 328.61,28.66 328.72,28.62C328.83,28.58 328.94,28.56 329.05,28.56C329.20,28.57 329.34,28.60 329.46,28.68C329.57,28.75 329.67,28.85 329.74,28.98C329.80,29.11 329.84,29.26 329.84,29.43C329.84,29.55 329.83,29.67 329.80,29.77C329.78,29.87 329.74,29.97 329.70,30.08C329.65,30.18 329.59,30.29 329.52,30.41C329.42,30.58 329.30,30.75 329.17,30.93C329.04,31.12 328.91,31.30 328.76,31.49C328.62,31.67 328.47,31.85 328.33,32.03C328.18,32.20 328.05,32.37 327.92,32.52L327.92,32.57L330.83,32.57L330.83,31.94Z" fill="currentColor" stroke="currentColor" stroke-width="1.2" stroke-linejoin="round" />
  <path d="M313.71,145.01L310.45,145.01L310.45,148.83C310.86,148.73 311.22,148.70 311.53,148.73C311.85,148.77 312.12,148.85 312.34,148.98C312.57,149.11 312.74,149.27 312.85,149.47C312.97,149.67 313.03,149.88 313.03,150.12C313.02,150.36 312.95,150.58 312.82,150.78C312.68,150.98 312.50,151.14 312.27,151.26C312.04,151.38 311.79,151.44 311.51,151.44C311.24,151.44 310.97,151.40 310.70,151.31C310.43,151.22 310.16,151.08 309.90,150.91L309.90,151.99C310.11,152.10 310.31,152.19 310.50,152.25C310.69,152.32 310.89,152.37 311.08,152.40C311.27,152.43 311.47,152.45 311.68,152.44C312.15,152.44 312.56,152.34 312.92,152.14C313.28,151.94 313.56,151.66 313.77,151.31C313.97,150.96 314.08,150.55 314.08,150.10C314.08,149.76 314.02,149.44 313.90,149.15C313.78,148.86 313.60,148.61 313.37,148.40C313.14,148.19 312.86,148.03 312.53,147.92C312.20,147.82 311.83,147.77 311.41,147.79L311.41,145.95L313.71,145.95L313.71,145.01Z" fill="currentColor" stroke="currentColor" stroke-width="1.2" stroke-linejoin="round" />
  <path d="M244.40,8.00L243.35,8.00L243.35,15.34L247.72,15.34L247.72,14.40L244.40,14.40L244.40,8.00Z" fill="currentColor" stroke="currentColor" stroke-width="1.2" stroke-linejoin="round" />
  <path d="M250.97,17.01L249.21,17.01C249.46,16.70 249.68,16.43 249.86,16.19C250.04,15.95 250.19,15.73 250.31,15.53C250.42,15.33 250.50,15.14 250.56,14.96C250.61,14.78 250.64,14.60 250.64,14.41C250.63,14.13 250.57,13.88 250.46,13.67C250.34,13.45 250.18,13.29 249.97,13.16C249.76,13.04 249.51,12.98 249.24,12.98C249.05,12.98 248.87,13.02 248.69,13.09C248.52,13.16 248.34,13.27 248.15,13.42L248.15,14.25C248.28,14.09 248.40,13.97 248.51,13.88C248.63,13.79 248.74,13.72 248.86,13.68C248.97,13.64 249.08,13.63 249.19,13.63C249.34,13.63 249.48,13.67 249.59,13.74C249.71,13.81 249.81,13.91 249.87,14.04C249.94,14.17 249.98,14.32 249.98,14.49C249.98,14.61 249.96,14.73 249.94,14.83C249.92,14.93 249.88,15.04 249.83,15.14C249.79,15.24 249.73,15.35 249.65,15.47C249.55,15.64 249.44,15.81 249.31,16.00C249.18,16.18 249.04,16.36 248.90,16.55C248.75,16.73 248.61,16.91 248.47,17.09C248.32,17.27 248.19,17.43 248.06,17.58L248.06,17.63L250.97,17.63L250.97,17.01Z" fill="currentColor" stroke="currentColor" stroke-width="1.2" stroke-linejoin="round" />
  <path d="M253.68,10.41C253.56,10.41 253.45,10.44 253.35,10.50C253.25,10.56 253.18,10.64 253.12,10.73C253.06,10.83 253.03,10.94 253.03,11.06C253.03,11.18 253.06,11.29 253.12,11.38C253.18,11.48 253.25,11.56 253.35,11.62C253.45,11.67 253.56,11.70 253.68,11.70C253.80,11.70 253.90,11.67 254.00,11.62C254.10,11.56 254.18,11.48 254.23,11.38C254.29,11.29 254.32,11.18 254.32,11.06C254.32,10.94 254.29,10.83 254.23,10.73C254.18,10.64 254.10,10.56 254.00,10.50C253.90,10.44 253.80,10.41 253.68,10.41ZM253.68,14.15C253.56,14.15 253.45,14.18 253.35,14.24C253.25,14.29 253.18,14.37 253.12,14.47C253.06,14.57 253.03,14.67 253.03,14.79C253.03,14.91 253.06,15.02 253.12,15.12C253.18,15.22 253.25,15.29 253.35,15.35C253.45,15.41 253.56,15.44 253.68,15.44C253.80,15.44 253.90,15.41 254.00,15.35C254.10,15.29 254.18,15.22 254.23,15.12C254.29,15.02 254.32,14.91 254.32,14.79C254.32,14.67 254.29,14.57 254.23,14.47C254.18,14.37 254.10,14.29 254.00,14.24C253.90,14.18 253.80,14.15 253.68,14.15Z" fill="currentColor" stroke="currentColor" stroke-width="1.2" stroke-linejoin="round" />
  <path d="M264.08,10.51L263.12,10.51L261.60,13.84L261.58,13.84L260.93,10.51L260.02,10.51L260.95,15.05L259.64,17.82L260.61,17.82L264.08,10.51Z" fill="currentColor" stroke="currentColor" stroke-width="1.2" stroke-linejoin="round" />
  <path d="M267.40,9.93H272.49V10.81H267.40ZM267.40,12.28H272.49V13.16H267.40Z" fill="currentColor" stroke="currentColor" stroke-width="1.2" stroke-linejoin="round" />
  <path d="M278.28,8.00L277.36,8.00L276.34,15.34L277.24,15.34L277.59,12.89L279.82,15.34L280.98,15.34L278.61,12.79L280.83,10.51L279.66,10.51L277.64,12.61L277.62,12.59L278.28,8.00Z" fill="currentColor" stroke="currentColor" stroke-width="1.2" stroke-linejoin="round" />
  <path d="M284.15,17.01L282.39,17.01C282.65,16.70 282.87,16.43 283.05,16.19C283.23,15.95 283.38,15.73 283.49,15.53C283.60,15.33 283.69,15.14 283.74,14.96C283.79,14.78 283.82,14.60 283.82,14.41C283.82,14.13 283.76,13.88 283.64,13.67C283.52,13.45 283.36,13.29 283.15,13.16C282.94,13.04 282.70,12.98 282.42,12.98C282.24,12.98 282.05,13.02 281.88,13.09C281.70,13.16 281.52,13.27 281.34,13.42L281.34,14.25C281.46,14.09 281.58,13.97 281.70,13.88C281.81,13.79 281.93,13.72 282.04,13.68C282.15,13.64 282.26,13.63 282.37,13.63C282.52,13.63 282.66,13.67 282.78,13.74C282.89,13.81 282.99,13.91 283.06,14.04C283.12,14.17 283.16,14.32 283.16,14.49C283.16,14.61 283.15,14.73 283.12,14.83C283.10,14.93 283.06,15.04 283.02,15.14C282.97,15.24 282.91,15.35 282.84,15.47C282.74,15.64 282.62,15.81 282.49,16.00C282.36,16.18 282.23,16.36 282.08,16.55C281.94,16.73 281.79,16.91 281.65,17.09C281.50,17.27 281.37,17.43 281.24,17.58L281.24,17.63L284.15,17.63L284.15,17.01Z" fill="currentColor" stroke="currentColor" stroke-width="1.2" stroke-linejoin="round" />
  <path d="M289.15,10.51L288.02,10.51L286.76,12.13L285.99,10.51L285.01,10.51L286.15,12.78L284.04,15.34L285.16,15.34L286.56,13.53L287.45,15.34L288.43,15.34L287.20,12.90L289.15,10.51Z" fill="currentColor" stroke="currentColor" stroke-width="1.2" stroke-linejoin="round" />
  <path d="M337.46,142.58L336.33,142.58L335.07,144.20L334.30,142.58L333.32,142.58L334.46,144.85L332.35,147.41L333.47,147.41L334.87,145.60L335.76,147.41L336.74,147.41L335.51,144.97L337.46,142.58Z" fill="currentColor" stroke="currentColor" stroke-width="1.2" stroke-linejoin="round" />
  <path d="M209.20,17.44L208.24,17.44L206.72,20.76L206.70,20.76L206.05,17.44L205.14,17.44L206.08,21.98L204.76,24.75L205.73,24.75L209.20,17.44Z" fill="currentColor" stroke="currentColor" stroke-width="1.2" stroke-linejoin="round" />
  <line x1="203.96" y1="148.46" x2="320.67" y2="31.75" fill="none" stroke="currentColor" stroke-width="1.4369999885559082" stroke-linecap="round" stroke-linejoin="round" />
</svg>