<svg xmlns="http://www.w3.org/2000/svg" viewBox="0 0 186.78 185.12" preserveAspectRatio="xMidYMid meet" shape-rendering="geometricPrecision" text-rendering="optimizeLegibility">
  <path d="M172.75,105.56L173.71,107.70C173.73,107.75 173.73,107.79 173.73,107.82C173.72,107.85 173.70,107.87 173.67,107.89C173.63,107.91 173.58,107.93 173.52,107.94C173.45,107.94 173.37,107.95 173.27,107.95C173.18,107.95 173.11,107.95 173.06,107.94C173.01,107.94 172.96,107.93 172.93,107.92C172.91,107.90 172.89,107.89 172.88,107.87C172.87,107.85 172.86,107.83 172.85,107.81L172.11,106.08L170.73,107.81C170.71,107.83 170.69,107.85 170.67,107.87C170.65,107.89 170.62,107.90 170.58,107.91C170.54,107.92 170.49,107.93 170.43,107.94C170.37,107.94 170.29,107.95 170.20,107.95C170.10,107.95 170.02,107.94 169.97,107.94C169.91,107.93 169.86,107.91 169.84,107.89C169.81,107.87 169.80,107.85 169.80,107.82C169.81,107.79 169.83,107.75 169.86,107.71L171.68,105.54L170.78,103.49C170.76,103.44 170.75,103.41 170.76,103.38C170.76,103.34 170.78,103.32 170.81,103.30C170.84,103.28 170.89,103.27 170.95,103.26C171.01,103.25 171.09,103.25 171.19,103.25C171.28,103.25 171.36,103.25 171.41,103.26C171.46,103.26 171.50,103.27 171.53,103.28C171.55,103.29 171.57,103.30 171.58,103.32C171.60,103.34 171.61,103.35 171.62,103.38L172.32,105.02L173.63,103.38C173.65,103.36 173.67,103.34 173.69,103.32C173.71,103.31 173.74,103.29 173.77,103.28C173.81,103.27 173.86,103.26 173.91,103.26C173.96,103.25 174.03,103.25 174.12,103.25C174.22,103.25 174.30,103.25 174.36,103.26C174.42,103.27 174.47,103.28 174.50,103.29C174.53,103.31 174.54,103.33 174.53,103.37C174.53,103.40 174.51,103.43 174.46,103.48L172.75,105.56Z" fill="currentColor" stroke="currentColor" stroke-width="1.2" stroke-linejoin="round" />
  <line x1="11.47" y1="98.31" x2="170.68" y2="98.31" fill="none" stroke="currentColor" stroke-width="1.4000000476837158" stroke-linecap="round" stroke-linejoin="round" />
  <path d="M169.06,95.07L170.14,98.31L169.06,101.55L178.78,98.31L169.06,95.07Z" fill-rule="evenodd" fill="currentColor" stroke="currentColor" stroke-width="1.2" stroke-linejoin="round" />
  <line x1="90.27" y1="177.12" x2="90.27" y2="16.10" fill="none" stroke="currentColor" stroke-width="1.4000000476837158" stroke-linecap="round" stroke-linejoin="round" />
  <path d="M87.03,17.72L90.27,16.64L93.51,17.72L90.27,8.00L87.03,17.72Z" fill-rule="evenodd" fill="currentColor" stroke="currentColor" stroke-width="1.2" stroke-linejoin="round" />
  <path d="M86.36,12.64C86.36,12.68 86.36,12.72 86.35,12.75C86.35,12.79 86.33,12.83 86.32,12.86C86.21,13.15 86.09,13.46 85.97,13.78C85.84,14.10 85.69,14.44 85.52,14.79C85.35,15.14 85.15,15.51 84.93,15.89C84.70,16.27 84.43,16.67 84.12,17.09L82.86,18.81C82.84,18.84 82.81,18.86 82.78,18.88C82.75,18.90 82.72,18.92 82.68,18.93C82.63,18.95 82.58,18.96 82.52,18.96C82.46,18.97 82.39,18.97 82.31,18.97C82.22,18.97 82.15,18.97 82.09,18.96C82.04,18.95 81.99,18.94 81.96,18.92C81.93,18.90 81.92,18.87 81.92,18.84C81.93,18.81 81.95,18.77 81.98,18.72L83.17,17.19L82.45,12.90C82.44,12.86 82.43,12.83 82.43,12.80C82.43,12.76 82.43,12.73 82.43,12.71C82.43,12.68 82.43,12.65 82.44,12.62C82.46,12.60 82.48,12.58 82.51,12.56C82.54,12.55 82.59,12.54 82.64,12.53C82.69,12.53 82.76,12.53 82.84,12.53C82.92,12.53 82.99,12.53 83.04,12.53C83.09,12.54 83.13,12.55 83.16,12.56C83.19,12.57 83.21,12.59 83.22,12.61C83.23,12.63 83.24,12.66 83.24,12.69L83.81,16.28L83.82,16.28C84.02,15.99 84.21,15.71 84.37,15.41C84.53,15.12 84.68,14.82 84.82,14.52C84.96,14.22 85.08,13.92 85.20,13.61C85.31,13.30 85.42,12.99 85.52,12.67C85.53,12.65 85.54,12.62 85.56,12.61C85.58,12.59 85.60,12.57 85.64,12.56C85.67,12.55 85.72,12.54 85.78,12.53C85.84,12.53 85.91,12.53 86.00,12.53C86.14,12.53 86.24,12.54 86.29,12.56C86.34,12.58 86.36,12.60 86.36,12.64Z" fill="currentColor" stroke="currentColor" stroke-width="1.2" stroke-linejoin="round" />
  <line x1="107.97" y1="24.25" x2="53.95" y2="170.82" fill="none" stroke="currentColor" stroke-width="1.4000000476837158" stroke-linecap="round" stroke-linejoin="round" />
  <line x1="14.93" y1="141.52" x2="141.51" y2="24.25" fill="none" stroke="currentColor" stroke-width="1.4000000476837158" stroke-linecap="round" stroke-linejoin="round" />
  <path d="M47.99,173.01C47.99,173.08 47.98,173.14 47.98,173.19C47.97,173.24 47.96,173.28 47.94,173.31C47.93,173.35 47.91,173.37 47.88,173.39C47.86,173.40 47.83,173.41 47.80,173.41L44.73,173.41C44.65,173.41 44.57,173.38 44.49,173.33C44.42,173.27 44.38,173.17 44.38,173.03L44.38,166.60C44.38,166.57 44.39,166.55 44.41,166.53C44.42,166.50 44.45,166.49 44.48,166.47C44.52,166.46 44.57,166.45 44.62,166.44C44.69,166.43 44.76,166.43 44.85,166.43C44.94,166.43 45.01,166.43 45.07,166.44C45.13,166.45 45.18,166.46 45.21,166.47C45.25,166.49 45.27,166.50 45.29,166.53C45.30,166.55 45.31,166.57 45.31,166.60L45.31,172.61L47.80,172.61C47.83,172.61 47.86,172.62 47.88,172.64C47.91,172.65 47.93,172.67 47.94,172.71C47.96,172.73 47.97,172.78 47.98,172.83C47.98,172.88 47.99,172.94 47.99,173.01Z" fill="currentColor" stroke="currentColor" stroke-width="1.2" stroke-linejoin="round" />
  <path d="M51.30,174.98C51.30,175.01 51.30,175.05 51.29,175.08C51.29,175.11 51.28,175.13 51.27,175.15C51.26,175.17 51.25,175.19 51.23,175.20C51.22,175.21 51.20,175.21 51.18,175.21L48.91,175.21C48.88,175.21 48.85,175.21 48.83,175.20C48.81,175.19 48.79,175.18 48.78,175.16C48.76,175.15 48.75,175.12 48.74,175.09C48.73,175.06 48.73,175.02 48.73,174.97C48.73,174.93 48.73,174.89 48.73,174.86C48.74,174.83 48.74,174.80 48.75,174.78C48.76,174.75 48.78,174.73 48.79,174.70C48.81,174.68 48.83,174.65 48.86,174.63L49.65,173.78C49.84,173.59 49.98,173.41 50.10,173.26C50.21,173.10 50.29,172.96 50.35,172.84C50.41,172.71 50.45,172.59 50.47,172.49C50.49,172.39 50.50,172.29 50.50,172.20C50.50,172.11 50.49,172.02 50.46,171.94C50.43,171.86 50.38,171.79 50.33,171.73C50.27,171.66 50.20,171.62 50.12,171.58C50.03,171.54 49.93,171.53 49.82,171.53C49.70,171.53 49.58,171.54 49.48,171.58C49.37,171.62 49.28,171.65 49.21,171.70C49.13,171.74 49.07,171.78 49.01,171.81C48.96,171.85 48.92,171.87 48.90,171.87C48.88,171.87 48.87,171.86 48.86,171.86C48.85,171.85 48.84,171.83 48.83,171.81C48.82,171.80 48.82,171.77 48.81,171.74C48.81,171.71 48.81,171.67 48.81,171.62C48.81,171.59 48.81,171.56 48.81,171.54C48.81,171.52 48.81,171.50 48.82,171.48C48.82,171.46 48.83,171.45 48.84,171.43C48.85,171.42 48.87,171.40 48.89,171.38C48.92,171.36 48.96,171.33 49.02,171.29C49.09,171.25 49.16,171.21 49.26,171.17C49.35,171.14 49.46,171.11 49.57,171.08C49.68,171.06 49.80,171.04 49.93,171.04C50.12,171.04 50.30,171.07 50.45,171.13C50.60,171.18 50.72,171.26 50.82,171.36C50.92,171.45 50.99,171.57 51.04,171.70C51.09,171.83 51.11,171.96 51.11,172.11C51.11,172.24 51.10,172.37 51.08,172.50C51.05,172.63 51.01,172.77 50.93,172.92C50.85,173.07 50.75,173.24 50.60,173.43C50.46,173.61 50.28,173.83 50.04,174.07L49.39,174.75L51.18,174.75C51.19,174.75 51.21,174.75 51.23,174.76C51.24,174.77 51.26,174.79 51.27,174.80C51.28,174.82 51.29,174.85 51.29,174.88C51.30,174.90 51.30,174.94 51.30,174.98Z" fill="currentColor" stroke="currentColor" stroke-width="1.2" stroke-linejoin="round" />
  <path d="M11.60,146.32C11.60,146.40 11.60,146.46 11.59,146.50C11.59,146.55 11.57,146.59 11.56,146.63C11.54,146.66 11.52,146.69 11.50,146.70C11.48,146.72 11.45,146.73 11.42,146.73L8.34,146.73C8.26,146.73 8.18,146.70 8.11,146.64C8.04,146.59 8.00,146.49 8.00,146.35L8.00,139.92C8.00,139.89 8.01,139.86 8.02,139.84C8.04,139.82 8.06,139.80 8.10,139.79C8.13,139.78 8.18,139.77 8.24,139.76C8.30,139.75 8.38,139.75 8.46,139.75C8.55,139.75 8.63,139.75 8.69,139.76C8.74,139.77 8.79,139.78 8.83,139.79C8.86,139.80 8.89,139.82 8.90,139.84C8.92,139.86 8.92,139.89 8.92,139.92L8.92,145.93L11.42,145.93C11.45,145.93 11.48,145.94 11.50,145.95C11.52,145.97 11.54,145.99 11.56,146.02C11.57,146.05 11.59,146.09 11.59,146.14C11.60,146.19 11.60,146.25 11.60,146.32Z" fill="currentColor" stroke="currentColor" stroke-width="1.2" stroke-linejoin="round" />
  <path d="M14.93,148.31C14.93,148.35 14.92,148.38 14.92,148.41C14.91,148.44 14.90,148.46 14.89,148.48C14.88,148.49 14.87,148.51 14.85,148.52C14.84,148.52 14.83,148.53 14.81,148.53L12.67,148.53C12.65,148.53 12.64,148.52 12.62,148.52C12.61,148.51 12.60,148.49 12.59,148.48C12.58,148.46 12.57,148.44 12.56,148.41C12.55,148.38 12.55,148.35 12.55,148.31C12.55,148.27 12.55,148.24 12.56,148.21C12.57,148.18 12.58,148.16 12.58,148.14C12.59,148.13 12.61,148.11 12.62,148.10C12.63,148.09 12.65,148.09 12.67,148.09L13.52,148.09L13.52,144.97L12.73,145.44C12.69,145.46 12.66,145.47 12.63,145.48C12.61,145.48 12.59,145.47 12.57,145.46C12.56,145.45 12.55,145.42 12.54,145.39C12.54,145.36 12.54,145.32 12.54,145.27C12.54,145.24 12.54,145.21 12.54,145.18C12.54,145.15 12.55,145.13 12.55,145.12C12.56,145.10 12.57,145.09 12.58,145.07C12.59,145.06 12.61,145.05 12.63,145.03L13.57,144.43C13.58,144.42 13.59,144.42 13.61,144.41C13.62,144.41 13.63,144.40 13.65,144.40C13.67,144.40 13.69,144.39 13.72,144.39C13.75,144.39 13.78,144.39 13.81,144.39C13.87,144.39 13.91,144.39 13.94,144.40C13.98,144.40 14.00,144.41 14.02,144.41C14.04,144.42 14.05,144.43 14.06,144.44C14.07,144.45 14.07,144.47 14.07,144.48L14.07,148.09L14.81,148.09C14.83,148.09 14.84,148.09 14.86,148.10C14.87,148.11 14.89,148.13 14.90,148.14C14.90,148.16 14.91,148.18 14.92,148.21C14.92,148.24 14.93,148.27 14.93,148.31Z" fill="currentColor" stroke="currentColor" stroke-width="1.2" stroke-linejoin="round" />
</svg>