<svg xmlns="http://www.w3.org/2000/svg" viewBox="0 0 231.98 231.98" preserveAspectRatio="xMidYMid meet" shape-rendering="geometricPrecision" text-rendering="optimizeLegibility">
  <line x1="115.18" y1="17.72" x2="111.94" y2="8.00" fill="currentColor" stroke="currentColor" stroke-width="1.2" stroke-linecap="round" stroke-linejoin="round" />
  <line x1="111.94" y1="8.00" x2="108.70" y2="17.72" fill="currentColor" stroke="currentColor" stroke-width="1.2" stroke-linecap="round" stroke-linejoin="round" />
  <path d="M101.91,13.41 C101.97,13.41 102.03,13.41 102.11,13.41" fill="currentColor" stroke="currentColor" stroke-width="1.2" stroke-linecap="round" stroke-linejoin="round" />
  <path d="M102.11,13.41 C102.20,13.41 102.27,13.41 102.32,13.41" fill="currentColor" stroke="currentColor" stroke-width="1.2" stroke-linecap="round" stroke-linejoin="round" />
  <path d="M105.05,13.41 C105.11,13.41 105.18,13.41 105.27,13.41" fill="currentColor" stroke="currentColor" stroke-width="1.2" stroke-linecap="round" stroke-linejoin="round" />
  <path d="M105.27,13.41 C105.42,13.41 105.52,13.42 105.57,13.44" fill="currentColor" stroke="currentColor" stroke-width="1.2" stroke-linecap="round" stroke-linejoin="round" />
  <path d="M102.32,13.41 C102.37,13.42 102.41,13.43 102.44,13.44" fill="currentColor" stroke="currentColor" stroke-width="1.2" stroke-linecap="round" stroke-linejoin="round" />
  <path d="M104.91,13.44 C104.95,13.43 104.99,13.42 105.05,13.41" fill="currentColor" stroke="currentColor" stroke-width="1.2" stroke-linecap="round" stroke-linejoin="round" />
  <path d="M101.79,13.44 C101.82,13.43 101.86,13.42 101.91,13.41" fill="currentColor" stroke="currentColor" stroke-width="1.2" stroke-linecap="round" stroke-linejoin="round" />
  <path d="M104.84,13.49 C104.85,13.47 104.88,13.45 104.91,13.44" fill="currentColor" stroke="currentColor" stroke-width="1.2" stroke-linecap="round" stroke-linejoin="round" />
  <path d="M102.44,13.44 C102.46,13.45 102.48,13.47 102.50,13.49" fill="currentColor" stroke="currentColor" stroke-width="1.2" stroke-linecap="round" stroke-linejoin="round" />
  <path d="M101.72,13.50 C101.73,13.48 101.75,13.46 101.79,13.44" fill="currentColor" stroke="currentColor" stroke-width="1.2" stroke-linecap="round" stroke-linejoin="round" />
  <path d="M105.57,13.44 C105.61,13.46 105.64,13.49 105.64,13.52" fill="currentColor" stroke="currentColor" stroke-width="1.2" stroke-linecap="round" stroke-linejoin="round" />
  <path d="M104.80,13.55 C104.81,13.53 104.82,13.51 104.84,13.49" fill="currentColor" stroke="currentColor" stroke-width="1.2" stroke-linecap="round" stroke-linejoin="round" />
  <path d="M102.50,13.49 C102.51,13.51 102.51,13.54 102.52,13.57" fill="currentColor" stroke="currentColor" stroke-width="1.2" stroke-linecap="round" stroke-linejoin="round" />
  <path d="M101.70,13.59 C101.70,13.56 101.71,13.53 101.72,13.50" fill="currentColor" stroke="currentColor" stroke-width="1.2" stroke-linecap="round" stroke-linejoin="round" />
  <path d="M105.64,13.52 C105.64,13.56 105.63,13.60 105.63,13.63" fill="currentColor" stroke="currentColor" stroke-width="1.2" stroke-linecap="round" stroke-linejoin="round" />
  <path d="M101.71,13.68 C101.70,13.64 101.70,13.62 101.70,13.59" fill="currentColor" stroke="currentColor" stroke-width="1.2" stroke-linecap="round" stroke-linejoin="round" />
  <path d="M105.63,13.63 C105.62,13.67 105.61,13.71 105.59,13.74" fill="currentColor" stroke="currentColor" stroke-width="1.2" stroke-linecap="round" stroke-linejoin="round" />
  <path d="M101.72,13.78 C101.71,13.74 101.71,13.71 101.71,13.68" fill="currentColor" stroke="currentColor" stroke-width="1.2" stroke-linecap="round" stroke-linejoin="round" />
  <path d="M104.47,14.49 C104.59,14.18 104.70,13.87 104.80,13.55" fill="currentColor" stroke="currentColor" stroke-width="1.2" stroke-linecap="round" stroke-linejoin="round" />
  <path d="M105.59,13.74 C105.49,14.04 105.37,14.34 105.24,14.66" fill="currentColor" stroke="currentColor" stroke-width="1.2" stroke-linecap="round" stroke-linejoin="round" />
  <path d="M104.10,15.40 C104.23,15.10 104.36,14.80 104.47,14.49" fill="currentColor" stroke="currentColor" stroke-width="1.2" stroke-linecap="round" stroke-linejoin="round" />
  <path d="M105.24,14.66 C105.12,14.99 104.97,15.32 104.80,15.67" fill="currentColor" stroke="currentColor" stroke-width="1.2" stroke-linecap="round" stroke-linejoin="round" />
  <line x1="102.52" y1="13.57" x2="103.09" y2="17.16" fill="currentColor" stroke="currentColor" stroke-width="1.2" stroke-linecap="round" stroke-linejoin="round" />
  <path d="M103.65,16.29 C103.81,16.00 103.96,15.70 104.10,15.40" fill="currentColor" stroke="currentColor" stroke-width="1.2" stroke-linecap="round" stroke-linejoin="round" />
  <line x1="102.45" y1="18.08" x2="101.72" y2="13.78" fill="currentColor" stroke="currentColor" stroke-width="1.2" stroke-linecap="round" stroke-linejoin="round" />
  <path d="M104.80,15.67 C104.63,16.02 104.43,16.39 104.21,16.77" fill="currentColor" stroke="currentColor" stroke-width="1.2" stroke-linecap="round" stroke-linejoin="round" />
  <path d="M103.10,17.16 C103.30,16.87 103.48,16.59 103.65,16.29" fill="currentColor" stroke="currentColor" stroke-width="1.2" stroke-linecap="round" stroke-linejoin="round" />
  <line x1="103.09" y1="17.16" x2="103.10" y2="17.16" fill="currentColor" stroke="currentColor" stroke-width="1.2" stroke-linecap="round" stroke-linejoin="round" />
  <line x1="108.70" y1="17.72" x2="111.94" y2="16.64" fill="currentColor" stroke="currentColor" stroke-width="1.2" stroke-linecap="round" stroke-linejoin="round" />
  <line x1="111.94" y1="16.64" x2="115.18" y2="17.72" fill="currentColor" stroke="currentColor" stroke-width="1.2" stroke-linecap="round" stroke-linejoin="round" />
  <path d="M104.21,16.77 C103.98,17.15 103.71,17.55 103.40,17.97" fill="currentColor" stroke="currentColor" stroke-width="1.2" stroke-linecap="round" stroke-linejoin="round" />
  <line x1="103.40" y1="17.97" x2="102.13" y2="19.69" fill="currentColor" stroke="currentColor" stroke-width="1.2" stroke-linecap="round" stroke-linejoin="round" />
  <line x1="101.26" y1="19.60" x2="102.45" y2="18.08" fill="currentColor" stroke="currentColor" stroke-width="1.2" stroke-linecap="round" stroke-linejoin="round" />
  <path d="M101.20,19.72 C101.20,19.69 101.22,19.65 101.26,19.60" fill="currentColor" stroke="currentColor" stroke-width="1.2" stroke-linecap="round" stroke-linejoin="round" />
  <path d="M102.13,19.69 C102.11,19.72 102.09,19.74 102.06,19.76" fill="currentColor" stroke="currentColor" stroke-width="1.2" stroke-linecap="round" stroke-linejoin="round" />
  <path d="M101.24,19.80 C101.21,19.78 101.20,19.75 101.20,19.72" fill="currentColor" stroke="currentColor" stroke-width="1.2" stroke-linecap="round" stroke-linejoin="round" />
  <path d="M102.06,19.76 C102.03,19.78 101.99,19.80 101.95,19.81" fill="currentColor" stroke="currentColor" stroke-width="1.2" stroke-linecap="round" stroke-linejoin="round" />
  <path d="M101.37,19.84 C101.31,19.83 101.27,19.82 101.24,19.80" fill="currentColor" stroke="currentColor" stroke-width="1.2" stroke-linecap="round" stroke-linejoin="round" />
  <path d="M101.95,19.81 C101.91,19.83 101.86,19.84 101.80,19.84" fill="currentColor" stroke="currentColor" stroke-width="1.2" stroke-linecap="round" stroke-linejoin="round" />
  <path d="M101.59,19.85 C101.50,19.85 101.43,19.85 101.37,19.84" fill="currentColor" stroke="currentColor" stroke-width="1.2" stroke-linecap="round" stroke-linejoin="round" />
  <path d="M101.80,19.84 C101.74,19.85 101.67,19.85 101.59,19.85" fill="currentColor" stroke="currentColor" stroke-width="1.2" stroke-linecap="round" stroke-linejoin="round" />
  <line x1="17.45" y1="35.00" x2="206.43" y2="35.00" fill="none" stroke="currentColor" stroke-width="1.0" stroke-linecap="round" stroke-linejoin="round" />
  <line x1="17.45" y1="49.17" x2="206.43" y2="49.17" fill="none" stroke="currentColor" stroke-width="1.0" stroke-linecap="round" stroke-linejoin="round" />
  <line x1="17.45" y1="63.35" x2="206.43" y2="63.35" fill="none" stroke="currentColor" stroke-width="1.0" stroke-linecap="round" stroke-linejoin="round" />
  <line x1="17.45" y1="77.52" x2="206.43" y2="77.52" fill="none" stroke="currentColor" stroke-width="1.0" stroke-linecap="round" stroke-linejoin="round" />
  <line x1="17.45" y1="91.70" x2="206.43" y2="91.70" fill="none" stroke="currentColor" stroke-width="1.0" stroke-linecap="round" stroke-linejoin="round" />
  <line x1="17.45" y1="105.87" x2="206.43" y2="105.87" fill="none" stroke="currentColor" stroke-width="1.0" stroke-linecap="round" stroke-linejoin="round" />
  <line x1="214.26" y1="116.80" x2="215.34" y2="120.04" fill="currentColor" stroke="currentColor" stroke-width="1.2" stroke-linecap="round" stroke-linejoin="round" />
  <line x1="223.98" y1="120.04" x2="214.26" y2="116.80" fill="currentColor" stroke="currentColor" stroke-width="1.2" stroke-linecap="round" stroke-linejoin="round" />
  <line x1="26.90" y1="214.53" x2="26.90" y2="25.55" fill="none" stroke="currentColor" stroke-width="1.0" stroke-linecap="round" stroke-linejoin="round" />
  <line x1="41.07" y1="214.53" x2="41.07" y2="25.55" fill="none" stroke="currentColor" stroke-width="1.0" stroke-linecap="round" stroke-linejoin="round" />
  <line x1="55.25" y1="214.53" x2="55.25" y2="25.55" fill="none" stroke="currentColor" stroke-width="1.0" stroke-linecap="round" stroke-linejoin="round" />
  <line x1="69.42" y1="214.53" x2="69.42" y2="25.55" fill="none" stroke="currentColor" stroke-width="1.0" stroke-linecap="round" stroke-linejoin="round" />
  <line x1="83.59" y1="214.53" x2="83.59" y2="25.55" fill="none" stroke="currentColor" stroke-width="1.0" stroke-linecap="round" stroke-linejoin="round" />
  <line x1="97.77" y1="214.53" x2="97.77" y2="25.55" fill="none" stroke="currentColor" stroke-width="1.0" stroke-linecap="round" stroke-linejoin="round" />
  <line x1="168.63" y1="214.53" x2="168.63" y2="25.55" fill="none" stroke="currentColor" stroke-width="1.0" stroke-linecap="round" stroke-linejoin="round" />
  <line x1="182.81" y1="214.53" x2="182.81" y2="25.55" fill="none" stroke="currentColor" stroke-width="1.0" stroke-linecap="round" stroke-linejoin="round" />
  <line x1="196.98" y1="214.53" x2="196.98" y2="25.55" fill="none" stroke="currentColor" stroke-width="1.0" stroke-linecap="round" stroke-linejoin="round" />
  <line x1="140.29" y1="214.53" x2="140.29" y2="25.55" fill="none" stroke="currentColor" stroke-width="1.0" stroke-linecap="round" stroke-linejoin="round" />
  <line x1="154.46" y1="214.53" x2="154.46" y2="25.55" fill="none" stroke="currentColor" stroke-width="1.0" stroke-linecap="round" stroke-linejoin="round" />
  <line x1="126.11" y1="214.53" x2="126.11" y2="25.55" fill="none" stroke="currentColor" stroke-width="1.0" stroke-linecap="round" stroke-linejoin="round" />
  <line x1="111.94" y1="223.98" x2="111.94" y2="16.10" fill="none" stroke="currentColor" stroke-width="1.4000000476837158" stroke-linecap="round" stroke-linejoin="round" />
  <line x1="8.00" y1="120.04" x2="215.88" y2="120.04" fill="none" stroke="currentColor" stroke-width="1.4000000476837158" stroke-linecap="round" stroke-linejoin="round" />
  <line x1="215.34" y1="120.04" x2="214.26" y2="123.28" fill="currentColor" stroke="currentColor" stroke-width="1.2" stroke-linecap="round" stroke-linejoin="round" />
  <line x1="214.26" y1="123.28" x2="223.98" y2="120.04" fill="currentColor" stroke="currentColor" stroke-width="1.2" stroke-linecap="round" stroke-linejoin="round" />
  <path d="M214.34,126.66 C214.43,126.66 214.51,126.66 214.56,126.67" fill="currentColor" stroke="currentColor" stroke-width="1.2" stroke-linecap="round" stroke-linejoin="round" />
  <path d="M217.06,126.67 C217.11,126.66 217.18,126.66 217.27,126.66" fill="currentColor" stroke="currentColor" stroke-width="1.2" stroke-linecap="round" stroke-linejoin="round" />
  <path d="M214.10,126.67 C214.16,126.66 214.24,126.66 214.34,126.66" fill="currentColor" stroke="currentColor" stroke-width="1.2" stroke-linecap="round" stroke-linejoin="round" />
  <path d="M217.27,126.66 C217.37,126.66 217.45,126.66 217.51,126.67" fill="currentColor" stroke="currentColor" stroke-width="1.2" stroke-linecap="round" stroke-linejoin="round" />
  <path d="M214.56,126.67 C214.61,126.67 214.65,126.68 214.68,126.69" fill="currentColor" stroke="currentColor" stroke-width="1.2" stroke-linecap="round" stroke-linejoin="round" />
  <path d="M216.92,126.69 C216.96,126.68 217.01,126.67 217.06,126.67" fill="currentColor" stroke="currentColor" stroke-width="1.2" stroke-linecap="round" stroke-linejoin="round" />
  <path d="M217.51,126.67 C217.57,126.68 217.62,126.69 217.65,126.71" fill="currentColor" stroke="currentColor" stroke-width="1.2" stroke-linecap="round" stroke-linejoin="round" />
  <path d="M213.96,126.71 C213.99,126.69 214.04,126.68 214.10,126.67" fill="currentColor" stroke="currentColor" stroke-width="1.2" stroke-linecap="round" stroke-linejoin="round" />
  <path d="M214.68,126.69 C214.70,126.70 214.72,126.71 214.73,126.73" fill="currentColor" stroke="currentColor" stroke-width="1.2" stroke-linecap="round" stroke-linejoin="round" />
  <path d="M216.84,126.73 C216.86,126.72 216.89,126.70 216.92,126.69" fill="currentColor" stroke="currentColor" stroke-width="1.2" stroke-linecap="round" stroke-linejoin="round" />
  <path d="M217.65,126.71 C217.68,126.72 217.69,126.75 217.68,126.78" fill="currentColor" stroke="currentColor" stroke-width="1.2" stroke-linecap="round" stroke-linejoin="round" />
  <path d="M213.91,126.79 C213.91,126.76 213.93,126.73 213.96,126.71" fill="currentColor" stroke="currentColor" stroke-width="1.2" stroke-linecap="round" stroke-linejoin="round" />
  <path d="M214.73,126.73 C214.75,126.75 214.76,126.77 214.77,126.79" fill="currentColor" stroke="currentColor" stroke-width="1.2" stroke-linecap="round" stroke-linejoin="round" />
  <path d="M216.78,126.79 C216.80,126.77 216.82,126.75 216.84,126.73" fill="currentColor" stroke="currentColor" stroke-width="1.2" stroke-linecap="round" stroke-linejoin="round" />
  <path d="M217.68,126.78 C217.68,126.81 217.66,126.85 217.61,126.89" fill="currentColor" stroke="currentColor" stroke-width="1.2" stroke-linecap="round" stroke-linejoin="round" />
  <path d="M213.93,126.90 C213.91,126.86 213.90,126.82 213.91,126.79" fill="currentColor" stroke="currentColor" stroke-width="1.2" stroke-linecap="round" stroke-linejoin="round" />
  <line x1="214.77" y1="126.79" x2="215.46" y2="128.43" fill="currentColor" stroke="currentColor" stroke-width="1.2" stroke-linecap="round" stroke-linejoin="round" />
  <line x1="215.46" y1="128.43" x2="216.78" y2="126.79" fill="currentColor" stroke="currentColor" stroke-width="1.2" stroke-linecap="round" stroke-linejoin="round" />
  <line x1="214.83" y1="128.95" x2="213.93" y2="126.90" fill="currentColor" stroke="currentColor" stroke-width="1.2" stroke-linecap="round" stroke-linejoin="round" />
  <line x1="217.61" y1="126.89" x2="215.90" y2="128.97" fill="currentColor" stroke="currentColor" stroke-width="1.2" stroke-linecap="round" stroke-linejoin="round" />
  <line x1="213.01" y1="131.12" x2="214.83" y2="128.95" fill="currentColor" stroke="currentColor" stroke-width="1.2" stroke-linecap="round" stroke-linejoin="round" />
  <line x1="215.90" y1="128.97" x2="216.86" y2="131.11" fill="currentColor" stroke="currentColor" stroke-width="1.2" stroke-linecap="round" stroke-linejoin="round" />
  <line x1="216.00" y1="131.22" x2="215.26" y2="129.49" fill="currentColor" stroke="currentColor" stroke-width="1.2" stroke-linecap="round" stroke-linejoin="round" />
  <line x1="215.26" y1="129.49" x2="213.88" y2="131.22" fill="currentColor" stroke="currentColor" stroke-width="1.2" stroke-linecap="round" stroke-linejoin="round" />
  <path d="M216.86,131.11 C216.88,131.16 216.88,131.20 216.88,131.23" fill="currentColor" stroke="currentColor" stroke-width="1.2" stroke-linecap="round" stroke-linejoin="round" />
  <path d="M212.95,131.23 C212.96,131.20 212.98,131.17 213.01,131.12" fill="currentColor" stroke="currentColor" stroke-width="1.2" stroke-linecap="round" stroke-linejoin="round" />
  <path d="M216.03,131.28 C216.02,131.27 216.01,131.24 216.00,131.22" fill="currentColor" stroke="currentColor" stroke-width="1.2" stroke-linecap="round" stroke-linejoin="round" />
  <path d="M213.88,131.22 C213.86,131.24 213.84,131.27 213.82,131.28" fill="currentColor" stroke="currentColor" stroke-width="1.2" stroke-linecap="round" stroke-linejoin="round" />
  <path d="M216.88,131.23 C216.87,131.26 216.85,131.29 216.82,131.31" fill="currentColor" stroke="currentColor" stroke-width="1.2" stroke-linecap="round" stroke-linejoin="round" />
  <path d="M212.99,131.31 C212.96,131.29 212.95,131.26 212.95,131.23" fill="currentColor" stroke="currentColor" stroke-width="1.2" stroke-linecap="round" stroke-linejoin="round" />
  <path d="M213.82,131.28 C213.80,131.30 213.77,131.31 213.73,131.32" fill="currentColor" stroke="currentColor" stroke-width="1.2" stroke-linecap="round" stroke-linejoin="round" />
  <path d="M216.08,131.33 C216.06,131.32 216.04,131.30 216.03,131.28" fill="currentColor" stroke="currentColor" stroke-width="1.2" stroke-linecap="round" stroke-linejoin="round" />
  <path d="M216.82,131.31 C216.78,131.32 216.73,131.34 216.67,131.35" fill="currentColor" stroke="currentColor" stroke-width="1.2" stroke-linecap="round" stroke-linejoin="round" />
  <path d="M213.12,131.35 C213.06,131.34 213.01,131.32 212.99,131.31" fill="currentColor" stroke="currentColor" stroke-width="1.2" stroke-linecap="round" stroke-linejoin="round" />
  <path d="M213.73,131.32 C213.69,131.33 213.64,131.34 213.58,131.35" fill="currentColor" stroke="currentColor" stroke-width="1.2" stroke-linecap="round" stroke-linejoin="round" />
  <path d="M216.21,131.35 C216.15,131.35 216.11,131.34 216.08,131.33" fill="currentColor" stroke="currentColor" stroke-width="1.2" stroke-linecap="round" stroke-linejoin="round" />
  <path d="M216.67,131.35 C216.60,131.35 216.52,131.36 216.42,131.36" fill="currentColor" stroke="currentColor" stroke-width="1.2" stroke-linecap="round" stroke-linejoin="round" />
  <path d="M213.35,131.36 C213.25,131.36 213.17,131.35 213.12,131.35" fill="currentColor" stroke="currentColor" stroke-width="1.2" stroke-linecap="round" stroke-linejoin="round" />
  <path d="M213.58,131.35 C213.52,131.36 213.44,131.36 213.35,131.36" fill="currentColor" stroke="currentColor" stroke-width="1.2" stroke-linecap="round" stroke-linejoin="round" />
  <path d="M216.42,131.36 C216.33,131.36 216.26,131.36 216.21,131.35" fill="currentColor" stroke="currentColor" stroke-width="1.2" stroke-linecap="round" stroke-linejoin="round" />
  <line x1="17.45" y1="134.22" x2="206.43" y2="134.22" fill="none" stroke="currentColor" stroke-width="1.0" stroke-linecap="round" stroke-linejoin="round" />
  <line x1="17.45" y1="148.39" x2="206.43" y2="148.39" fill="none" stroke="currentColor" stroke-width="1.0" stroke-linecap="round" stroke-linejoin="round" />
  <line x1="17.45" y1="162.56" x2="206.43" y2="162.56" fill="none" stroke="currentColor" stroke-width="1.0" stroke-linecap="round" stroke-linejoin="round" />
  <line x1="17.45" y1="176.74" x2="206.43" y2="176.74" fill="none" stroke="currentColor" stroke-width="1.0" stroke-linecap="round" stroke-linejoin="round" />
  <line x1="17.45" y1="190.91" x2="206.43" y2="190.91" fill="none" stroke="currentColor" stroke-width="1.0" stroke-linecap="round" stroke-linejoin="round" />
  <line x1="17.45" y1="205.08" x2="206.43" y2="205.08" fill="none" stroke="currentColor" stroke-width="1.0" stroke-linecap="round" stroke-linejoin="round" />
</svg>