<svg xmlns="http://www.w3.org/2000/svg" viewBox="0 0 201.34 123.86" preserveAspectRatio="xMidYMid meet" shape-rendering="geometricPrecision" text-rendering="optimizeLegibility">
  <line x1="9.08" y1="8.00" x2="8.00" y2="8.00" fill="currentColor" stroke="currentColor" stroke-width="1.2" stroke-linecap="round" stroke-linejoin="round" />
  <line x1="9.08" y1="14.53" x2="9.08" y2="8.00" fill="currentColor" stroke="currentColor" stroke-width="1.2" stroke-linecap="round" stroke-linejoin="round" />
  <line x1="8.00" y1="8.00" x2="8.00" y2="15.50" fill="currentColor" stroke="currentColor" stroke-width="1.2" stroke-linecap="round" stroke-linejoin="round" />
  <line x1="14.88" y1="12.66" x2="14.62" y2="12.66" fill="currentColor" stroke="currentColor" stroke-width="1.2" stroke-linecap="round" stroke-linejoin="round" />
  <line x1="14.62" y1="12.66" x2="12.99" y2="13.99" fill="currentColor" stroke="currentColor" stroke-width="1.2" stroke-linecap="round" stroke-linejoin="round" />
  <line x1="13.25" y1="14.59" x2="14.16" y2="13.84" fill="currentColor" stroke="currentColor" stroke-width="1.2" stroke-linecap="round" stroke-linejoin="round" />
  <line x1="12.99" y1="13.99" x2="13.25" y2="14.59" fill="currentColor" stroke="currentColor" stroke-width="1.2" stroke-linecap="round" stroke-linejoin="round" />
  <line x1="12.46" y1="14.53" x2="9.08" y2="14.53" fill="currentColor" stroke="currentColor" stroke-width="1.2" stroke-linecap="round" stroke-linejoin="round" />
  <line x1="12.46" y1="15.50" x2="12.46" y2="14.53" fill="currentColor" stroke="currentColor" stroke-width="1.2" stroke-linecap="round" stroke-linejoin="round" />
  <line x1="14.88" y1="17.50" x2="14.88" y2="12.66" fill="currentColor" stroke="currentColor" stroke-width="1.2" stroke-linecap="round" stroke-linejoin="round" />
  <line x1="8.00" y1="15.50" x2="12.46" y2="15.50" fill="currentColor" stroke="currentColor" stroke-width="1.2" stroke-linecap="round" stroke-linejoin="round" />
  <line x1="14.16" y1="13.84" x2="14.16" y2="17.50" fill="currentColor" stroke="currentColor" stroke-width="1.2" stroke-linecap="round" stroke-linejoin="round" />
  <line x1="14.16" y1="17.50" x2="14.88" y2="17.50" fill="currentColor" stroke="currentColor" stroke-width="1.2" stroke-linecap="round" stroke-linejoin="round" />
  <line x1="17.59" y1="11.96" x2="193.34" y2="32.01" fill="none" stroke="currentColor" stroke-width="1.4000000476837158" stroke-linecap="round" stroke-linejoin="round" />
  <path d="M130.16,24.83 C129.85,29.50 127.62,34.02 123.63,37.12" fill="none" stroke="currentColor" stroke-width="1.0" stroke-linecap="round" stroke-linejoin="round" />
  <line x1="133.94" y1="35.53" x2="132.79" y2="35.53" fill="currentColor" stroke="currentColor" stroke-width="1.2" stroke-linecap="round" stroke-linejoin="round" />
  <line x1="130.72" y1="35.53" x2="129.72" y2="35.53" fill="currentColor" stroke="currentColor" stroke-width="1.2" stroke-linecap="round" stroke-linejoin="round" />
  <path d="M118.31,35.27 C114.12,37.27 109.13,36.74 105.45,33.95" fill="none" stroke="currentColor" stroke-width="1.0" stroke-linecap="round" stroke-linejoin="round" />
  <line x1="132.79" y1="35.53" x2="131.50" y2="37.19" fill="currentColor" stroke="currentColor" stroke-width="1.2" stroke-linecap="round" stroke-linejoin="round" />
  <line x1="131.50" y1="37.19" x2="130.72" y2="35.53" fill="currentColor" stroke="currentColor" stroke-width="1.2" stroke-linecap="round" stroke-linejoin="round" />
  <line x1="129.72" y1="35.53" x2="130.88" y2="37.85" fill="currentColor" stroke="currentColor" stroke-width="1.2" stroke-linecap="round" stroke-linejoin="round" />
  <line x1="131.95" y1="37.97" x2="133.94" y2="35.53" fill="currentColor" stroke="currentColor" stroke-width="1.2" stroke-linecap="round" stroke-linejoin="round" />
  <path d="M123.63,37.12 C122.58,37.93 121.47,38.61 120.31,39.14" fill="none" stroke="currentColor" stroke-width="1.0" stroke-linecap="round" stroke-linejoin="round" />
  <line x1="130.88" y1="37.85" x2="128.73" y2="40.47" fill="currentColor" stroke="currentColor" stroke-width="1.2" stroke-linecap="round" stroke-linejoin="round" />
  <line x1="133.20" y1="40.47" x2="131.95" y2="37.97" fill="currentColor" stroke="currentColor" stroke-width="1.2" stroke-linecap="round" stroke-linejoin="round" />
  <line x1="129.87" y1="40.47" x2="131.30" y2="38.62" fill="currentColor" stroke="currentColor" stroke-width="1.2" stroke-linecap="round" stroke-linejoin="round" />
  <line x1="131.30" y1="38.62" x2="132.20" y2="40.47" fill="currentColor" stroke="currentColor" stroke-width="1.2" stroke-linecap="round" stroke-linejoin="round" />
  <path d="M117.26,40.22 C116.98,40.22 116.73,40.29 116.51,40.42" fill="currentColor" stroke="currentColor" stroke-width="1.2" stroke-linecap="round" stroke-linejoin="round" />
  <path d="M118.01,40.42 C117.79,40.29 117.54,40.22 117.26,40.22" fill="currentColor" stroke="currentColor" stroke-width="1.2" stroke-linecap="round" stroke-linejoin="round" />
  <line x1="128.73" y1="40.47" x2="129.87" y2="40.47" fill="currentColor" stroke="currentColor" stroke-width="1.2" stroke-linecap="round" stroke-linejoin="round" />
  <line x1="132.20" y1="40.47" x2="133.20" y2="40.47" fill="currentColor" stroke="currentColor" stroke-width="1.2" stroke-linecap="round" stroke-linejoin="round" />
  <path d="M116.51,40.42 C116.28,40.55 116.11,40.73 115.98,40.95" fill="currentColor" stroke="currentColor" stroke-width="1.2" stroke-linecap="round" stroke-linejoin="round" />
  <path d="M118.54,40.95 C118.41,40.73 118.23,40.55 118.01,40.42" fill="currentColor" stroke="currentColor" stroke-width="1.2" stroke-linecap="round" stroke-linejoin="round" />
  <line x1="108.53" y1="40.73" x2="105.20" y2="40.73" fill="currentColor" stroke="currentColor" stroke-width="1.2" stroke-linecap="round" stroke-linejoin="round" />
  <path d="M113.33,40.90 C113.04,40.72 112.71,40.63 112.34,40.63" fill="currentColor" stroke="currentColor" stroke-width="1.2" stroke-linecap="round" stroke-linejoin="round" />
  <path d="M112.34,40.63 C111.98,40.63 111.65,40.72 111.35,40.90" fill="currentColor" stroke="currentColor" stroke-width="1.2" stroke-linecap="round" stroke-linejoin="round" />
  <path d="M117.26,40.80 C117.43,40.80 117.58,40.84 117.72,40.92" fill="currentColor" stroke="currentColor" stroke-width="1.2" stroke-linecap="round" stroke-linejoin="round" />
  <path d="M116.80,40.92 C116.93,40.84 117.09,40.80 117.26,40.80" fill="currentColor" stroke="currentColor" stroke-width="1.2" stroke-linecap="round" stroke-linejoin="round" />
  <path d="M117.72,40.92 C117.86,41.00 117.97,41.11 118.05,41.24" fill="currentColor" stroke="currentColor" stroke-width="1.2" stroke-linecap="round" stroke-linejoin="round" />
  <path d="M116.48,41.24 C116.56,41.11 116.66,41.00 116.80,40.92" fill="currentColor" stroke="currentColor" stroke-width="1.2" stroke-linecap="round" stroke-linejoin="round" />
  <line x1="108.53" y1="41.69" x2="108.53" y2="40.73" fill="currentColor" stroke="currentColor" stroke-width="1.2" stroke-linecap="round" stroke-linejoin="round" />
  <path d="M114.10,41.68 C113.88,41.35 113.63,41.08 113.33,40.90" fill="currentColor" stroke="currentColor" stroke-width="1.2" stroke-linecap="round" stroke-linejoin="round" />
  <path d="M111.35,40.90 C111.05,41.08 110.80,41.35 110.59,41.68" fill="currentColor" stroke="currentColor" stroke-width="1.2" stroke-linecap="round" stroke-linejoin="round" />
  <path d="M115.98,40.95 C115.84,41.17 115.78,41.42 115.77,41.70" fill="currentColor" stroke="currentColor" stroke-width="1.2" stroke-linecap="round" stroke-linejoin="round" />
  <path d="M118.74,41.70 C118.74,41.42 118.67,41.17 118.54,40.95" fill="currentColor" stroke="currentColor" stroke-width="1.2" stroke-linecap="round" stroke-linejoin="round" />
  <path d="M118.05,41.24 C118.13,41.38 118.17,41.53 118.17,41.70" fill="currentColor" stroke="currentColor" stroke-width="1.2" stroke-linecap="round" stroke-linejoin="round" />
  <path d="M116.36,41.70 C116.36,41.53 116.40,41.38 116.48,41.24" fill="currentColor" stroke="currentColor" stroke-width="1.2" stroke-linecap="round" stroke-linejoin="round" />
  <line x1="106.18" y1="41.69" x2="108.53" y2="41.69" fill="currentColor" stroke="currentColor" stroke-width="1.2" stroke-linecap="round" stroke-linejoin="round" />
  <path d="M111.62,41.99 C111.82,41.76 112.06,41.65 112.34,41.65" fill="currentColor" stroke="currentColor" stroke-width="1.2" stroke-linecap="round" stroke-linejoin="round" />
  <path d="M112.34,41.65 C112.62,41.65 112.86,41.76 113.06,41.99" fill="currentColor" stroke="currentColor" stroke-width="1.2" stroke-linecap="round" stroke-linejoin="round" />
  <path d="M118.17,41.70 C118.17,41.87 118.13,42.03 118.05,42.16" fill="currentColor" stroke="currentColor" stroke-width="1.2" stroke-linecap="round" stroke-linejoin="round" />
  <path d="M116.48,42.16 C116.40,42.03 116.36,41.87 116.36,41.70" fill="currentColor" stroke="currentColor" stroke-width="1.2" stroke-linecap="round" stroke-linejoin="round" />
  <path d="M115.77,41.70 C115.78,41.98 115.84,42.23 115.98,42.45" fill="currentColor" stroke="currentColor" stroke-width="1.2" stroke-linecap="round" stroke-linejoin="round" />
  <path d="M118.54,42.45 C118.67,42.23 118.74,41.98 118.74,41.70" fill="currentColor" stroke="currentColor" stroke-width="1.2" stroke-linecap="round" stroke-linejoin="round" />
  <path d="M114.59,42.90 C114.47,42.43 114.31,42.02 114.10,41.68" fill="currentColor" stroke="currentColor" stroke-width="1.2" stroke-linecap="round" stroke-linejoin="round" />
  <path d="M110.59,41.68 C110.37,42.02 110.21,42.43 110.10,42.90" fill="currentColor" stroke="currentColor" stroke-width="1.2" stroke-linecap="round" stroke-linejoin="round" />
  <path d="M118.05,42.16 C117.97,42.30 117.86,42.41 117.72,42.49" fill="currentColor" stroke="currentColor" stroke-width="1.2" stroke-linecap="round" stroke-linejoin="round" />
  <path d="M116.80,42.49 C116.66,42.41 116.56,42.30 116.48,42.16" fill="currentColor" stroke="currentColor" stroke-width="1.2" stroke-linecap="round" stroke-linejoin="round" />
  <path d="M111.16,42.96 C111.27,42.54 111.42,42.22 111.62,41.99" fill="currentColor" stroke="currentColor" stroke-width="1.2" stroke-linecap="round" stroke-linejoin="round" />
  <path d="M113.06,41.99 C113.26,42.22 113.41,42.54 113.52,42.96" fill="currentColor" stroke="currentColor" stroke-width="1.2" stroke-linecap="round" stroke-linejoin="round" />
  <path d="M117.72,42.49 C117.58,42.57 117.43,42.61 117.26,42.61" fill="currentColor" stroke="currentColor" stroke-width="1.2" stroke-linecap="round" stroke-linejoin="round" />
  <path d="M117.26,42.61 C117.09,42.61 116.93,42.57 116.80,42.49" fill="currentColor" stroke="currentColor" stroke-width="1.2" stroke-linecap="round" stroke-linejoin="round" />
  <line x1="106.18" y1="43.57" x2="106.18" y2="41.69" fill="currentColor" stroke="currentColor" stroke-width="1.2" stroke-linecap="round" stroke-linejoin="round" />
  <line x1="105.20" y1="40.73" x2="105.20" y2="44.63" fill="currentColor" stroke="currentColor" stroke-width="1.2" stroke-linecap="round" stroke-linejoin="round" />
  <path d="M115.98,42.45 C116.11,42.68 116.28,42.85 116.51,42.98" fill="currentColor" stroke="currentColor" stroke-width="1.2" stroke-linecap="round" stroke-linejoin="round" />
  <path d="M118.01,42.98 C118.23,42.85 118.41,42.68 118.54,42.45" fill="currentColor" stroke="currentColor" stroke-width="1.2" stroke-linecap="round" stroke-linejoin="round" />
  <path d="M116.51,42.98 C116.73,43.12 116.98,43.18 117.26,43.19" fill="currentColor" stroke="currentColor" stroke-width="1.2" stroke-linecap="round" stroke-linejoin="round" />
  <path d="M117.26,43.19 C117.54,43.18 117.79,43.12 118.01,42.98" fill="currentColor" stroke="currentColor" stroke-width="1.2" stroke-linecap="round" stroke-linejoin="round" />
  <path d="M107.32,43.71 C106.98,43.60 106.60,43.55 106.18,43.57" fill="currentColor" stroke="currentColor" stroke-width="1.2" stroke-linecap="round" stroke-linejoin="round" />
  <path d="M114.76,44.48 C114.76,43.90 114.70,43.37 114.59,42.90" fill="currentColor" stroke="currentColor" stroke-width="1.2" stroke-linecap="round" stroke-linejoin="round" />
  <path d="M110.10,42.90 C109.98,43.37 109.92,43.90 109.92,44.48" fill="currentColor" stroke="currentColor" stroke-width="1.2" stroke-linecap="round" stroke-linejoin="round" />
  <path d="M111.00,44.48 C111.00,43.89 111.05,43.38 111.16,42.96" fill="currentColor" stroke="currentColor" stroke-width="1.2" stroke-linecap="round" stroke-linejoin="round" />
  <path d="M113.52,42.96 C113.63,43.38 113.68,43.89 113.68,44.48" fill="currentColor" stroke="currentColor" stroke-width="1.2" stroke-linecap="round" stroke-linejoin="round" />
  <path d="M108.18,44.19 C107.94,43.98 107.66,43.82 107.32,43.71" fill="currentColor" stroke="currentColor" stroke-width="1.2" stroke-linecap="round" stroke-linejoin="round" />
  <path d="M105.20,44.63 C105.61,44.53 105.98,44.50 106.31,44.53" fill="currentColor" stroke="currentColor" stroke-width="1.2" stroke-linecap="round" stroke-linejoin="round" />
  <path d="M108.72,44.96 C108.60,44.67 108.42,44.41 108.18,44.19" fill="currentColor" stroke="currentColor" stroke-width="1.2" stroke-linecap="round" stroke-linejoin="round" />
  <path d="M106.31,44.53 C106.63,44.57 106.91,44.65 107.13,44.78" fill="currentColor" stroke="currentColor" stroke-width="1.2" stroke-linecap="round" stroke-linejoin="round" />
  <path d="M107.13,44.78 C107.36,44.91 107.53,45.08 107.65,45.28" fill="currentColor" stroke="currentColor" stroke-width="1.2" stroke-linecap="round" stroke-linejoin="round" />
  <path d="M113.68,44.48 C113.68,45.06 113.63,45.57 113.52,45.99" fill="currentColor" stroke="currentColor" stroke-width="1.2" stroke-linecap="round" stroke-linejoin="round" />
  <path d="M111.16,45.99 C111.05,45.57 111.00,45.06 111.00,44.48" fill="currentColor" stroke="currentColor" stroke-width="1.2" stroke-linecap="round" stroke-linejoin="round" />
  <path d="M109.92,44.48 C109.92,45.05 109.98,45.58 110.10,46.05" fill="currentColor" stroke="currentColor" stroke-width="1.2" stroke-linecap="round" stroke-linejoin="round" />
  <path d="M114.59,46.05 C114.70,45.58 114.76,45.05 114.76,44.48" fill="currentColor" stroke="currentColor" stroke-width="1.2" stroke-linecap="round" stroke-linejoin="round" />
  <path d="M108.91,45.93 C108.91,45.58 108.84,45.26 108.72,44.96" fill="currentColor" stroke="currentColor" stroke-width="1.2" stroke-linecap="round" stroke-linejoin="round" />
  <path d="M107.65,45.28 C107.77,45.49 107.83,45.71 107.83,45.95" fill="currentColor" stroke="currentColor" stroke-width="1.2" stroke-linecap="round" stroke-linejoin="round" />
  <path d="M107.83,45.95 C107.83,46.20 107.76,46.42 107.62,46.63" fill="currentColor" stroke="currentColor" stroke-width="1.2" stroke-linecap="round" stroke-linejoin="round" />
  <line x1="84.40" y1="69.90" x2="112.07" y2="22.74" fill="none" stroke="currentColor" stroke-width="1.4000000476837158" stroke-linecap="round" stroke-linejoin="round" />
  <path d="M113.52,45.99 C113.41,46.41 113.26,46.73 113.06,46.96" fill="currentColor" stroke="currentColor" stroke-width="1.2" stroke-linecap="round" stroke-linejoin="round" />
  <path d="M111.62,46.96 C111.42,46.73 111.27,46.41 111.16,45.99" fill="currentColor" stroke="currentColor" stroke-width="1.2" stroke-linecap="round" stroke-linejoin="round" />
  <path d="M108.59,47.16 C108.80,46.81 108.90,46.39 108.91,45.93" fill="currentColor" stroke="currentColor" stroke-width="1.2" stroke-linecap="round" stroke-linejoin="round" />
  <path d="M110.10,46.05 C110.21,46.52 110.37,46.93 110.59,47.27" fill="currentColor" stroke="currentColor" stroke-width="1.2" stroke-linecap="round" stroke-linejoin="round" />
  <path d="M114.10,47.27 C114.31,46.93 114.47,46.52 114.59,46.05" fill="currentColor" stroke="currentColor" stroke-width="1.2" stroke-linecap="round" stroke-linejoin="round" />
  <path d="M107.62,46.63 C107.48,46.83 107.29,46.99 107.06,47.11" fill="currentColor" stroke="currentColor" stroke-width="1.2" stroke-linecap="round" stroke-linejoin="round" />
  <path d="M105.45,47.16 C105.18,47.07 104.91,46.93 104.64,46.75" fill="currentColor" stroke="currentColor" stroke-width="1.2" stroke-linecap="round" stroke-linejoin="round" />
  <path d="M113.06,46.96 C112.86,47.19 112.62,47.30 112.34,47.30" fill="currentColor" stroke="currentColor" stroke-width="1.2" stroke-linecap="round" stroke-linejoin="round" />
  <path d="M112.34,47.30 C112.06,47.30 111.82,47.19 111.62,46.96" fill="currentColor" stroke="currentColor" stroke-width="1.2" stroke-linecap="round" stroke-linejoin="round" />
  <path d="M107.06,47.11 C106.82,47.24 106.56,47.30 106.28,47.30" fill="currentColor" stroke="currentColor" stroke-width="1.2" stroke-linecap="round" stroke-linejoin="round" />
  <path d="M106.28,47.30 C106.00,47.30 105.73,47.26 105.45,47.16" fill="currentColor" stroke="currentColor" stroke-width="1.2" stroke-linecap="round" stroke-linejoin="round" />
  <line x1="104.64" y1="46.75" x2="104.64" y2="47.86" fill="currentColor" stroke="currentColor" stroke-width="1.2" stroke-linecap="round" stroke-linejoin="round" />
  <path d="M107.72,48.01 C108.09,47.81 108.38,47.52 108.59,47.16" fill="currentColor" stroke="currentColor" stroke-width="1.2" stroke-linecap="round" stroke-linejoin="round" />
  <path d="M110.59,47.27 C110.80,47.60 111.05,47.87 111.35,48.05" fill="currentColor" stroke="currentColor" stroke-width="1.2" stroke-linecap="round" stroke-linejoin="round" />
  <path d="M113.33,48.05 C113.63,47.87 113.88,47.60 114.10,47.27" fill="currentColor" stroke="currentColor" stroke-width="1.2" stroke-linecap="round" stroke-linejoin="round" />
  <path d="M104.64,47.86 C104.85,47.97 105.06,48.06 105.25,48.13" fill="currentColor" stroke="currentColor" stroke-width="1.2" stroke-linecap="round" stroke-linejoin="round" />
  <path d="M106.45,48.32 C106.93,48.32 107.35,48.22 107.72,48.01" fill="currentColor" stroke="currentColor" stroke-width="1.2" stroke-linecap="round" stroke-linejoin="round" />
  <path d="M111.35,48.05 C111.65,48.23 111.98,48.32 112.34,48.32" fill="currentColor" stroke="currentColor" stroke-width="1.2" stroke-linecap="round" stroke-linejoin="round" />
  <path d="M112.34,48.32 C112.71,48.32 113.04,48.23 113.33,48.05" fill="currentColor" stroke="currentColor" stroke-width="1.2" stroke-linecap="round" stroke-linejoin="round" />
  <path d="M105.25,48.13 C105.45,48.20 105.64,48.25 105.84,48.28" fill="currentColor" stroke="currentColor" stroke-width="1.2" stroke-linecap="round" stroke-linejoin="round" />
  <path d="M105.84,48.28 C106.03,48.31 106.24,48.32 106.45,48.32" fill="currentColor" stroke="currentColor" stroke-width="1.2" stroke-linecap="round" stroke-linejoin="round" />
  <line x1="112.07" y1="22.74" x2="156.65" y2="111.78" fill="none" stroke="currentColor" stroke-width="1.4000000476837158" stroke-linecap="round" stroke-linejoin="round" />
  <polygon points="84.40,69.90 88.88,62.06 96.72,66.54 92.24,74.38" fill="none" stroke="currentColor" stroke-width="1.0" stroke-linecap="round" stroke-linejoin="round" />
  <line x1="155.72" y1="111.24" x2="84.40" y2="69.90" fill="none" stroke="currentColor" stroke-width="1.4000000476837158" stroke-linecap="round" stroke-linejoin="round" />
  <line x1="9.08" y1="90.77" x2="8.00" y2="90.77" fill="currentColor" stroke="currentColor" stroke-width="1.2" stroke-linecap="round" stroke-linejoin="round" />
  <line x1="9.08" y1="97.30" x2="9.08" y2="90.77" fill="currentColor" stroke="currentColor" stroke-width="1.2" stroke-linecap="round" stroke-linejoin="round" />
  <line x1="8.00" y1="90.77" x2="8.00" y2="98.27" fill="currentColor" stroke="currentColor" stroke-width="1.2" stroke-linecap="round" stroke-linejoin="round" />
  <path d="M14.04,95.43 C13.85,95.43 13.66,95.47 13.48,95.54" fill="currentColor" stroke="currentColor" stroke-width="1.2" stroke-linecap="round" stroke-linejoin="round" />
  <path d="M14.80,95.62 C14.59,95.49 14.33,95.43 14.04,95.43" fill="currentColor" stroke="currentColor" stroke-width="1.2" stroke-linecap="round" stroke-linejoin="round" />
  <path d="M13.48,95.54 C13.29,95.62 13.11,95.73 12.92,95.88" fill="currentColor" stroke="currentColor" stroke-width="1.2" stroke-linecap="round" stroke-linejoin="round" />
  <path d="M124.08,95.73 C123.80,95.73 123.55,95.80 123.33,95.93" fill="currentColor" stroke="currentColor" stroke-width="1.2" stroke-linecap="round" stroke-linejoin="round" />
  <path d="M124.83,95.93 C124.61,95.80 124.36,95.73 124.08,95.73" fill="currentColor" stroke="currentColor" stroke-width="1.2" stroke-linecap="round" stroke-linejoin="round" />
  <path d="M15.31,96.14 C15.19,95.92 15.02,95.74 14.80,95.62" fill="currentColor" stroke="currentColor" stroke-width="1.2" stroke-linecap="round" stroke-linejoin="round" />
  <path d="M13.65,96.16 C13.76,96.12 13.88,96.10 13.99,96.10" fill="currentColor" stroke="currentColor" stroke-width="1.2" stroke-linecap="round" stroke-linejoin="round" />
  <path d="M13.99,96.10 C14.15,96.10 14.29,96.14 14.42,96.22" fill="currentColor" stroke="currentColor" stroke-width="1.2" stroke-linecap="round" stroke-linejoin="round" />
  <path d="M113.24,96.14 C112.97,96.14 112.71,96.16 112.48,96.21" fill="currentColor" stroke="currentColor" stroke-width="1.2" stroke-linecap="round" stroke-linejoin="round" />
  <path d="M123.33,95.93 C123.10,96.06 122.93,96.24 122.80,96.46" fill="currentColor" stroke="currentColor" stroke-width="1.2" stroke-linecap="round" stroke-linejoin="round" />
  <path d="M125.36,96.46 C125.23,96.24 125.06,96.06 124.83,95.93" fill="currentColor" stroke="currentColor" stroke-width="1.2" stroke-linecap="round" stroke-linejoin="round" />
  <path d="M114.41,96.38 C114.08,96.22 113.69,96.14 113.24,96.14" fill="currentColor" stroke="currentColor" stroke-width="1.2" stroke-linecap="round" stroke-linejoin="round" />
  <path d="M13.29,96.36 C13.41,96.27 13.53,96.20 13.65,96.16" fill="currentColor" stroke="currentColor" stroke-width="1.2" stroke-linecap="round" stroke-linejoin="round" />
  <path d="M120.15,96.41 C119.86,96.23 119.53,96.14 119.16,96.14" fill="currentColor" stroke="currentColor" stroke-width="1.2" stroke-linecap="round" stroke-linejoin="round" />
  <path d="M119.16,96.14 C118.80,96.14 118.47,96.23 118.17,96.41" fill="currentColor" stroke="currentColor" stroke-width="1.2" stroke-linecap="round" stroke-linejoin="round" />
  <line x1="12.92" y1="95.88" x2="12.92" y2="96.74" fill="currentColor" stroke="currentColor" stroke-width="1.2" stroke-linecap="round" stroke-linejoin="round" />
  <path d="M112.48,96.21 C112.25,96.27 112.03,96.35 111.80,96.46" fill="currentColor" stroke="currentColor" stroke-width="1.2" stroke-linecap="round" stroke-linejoin="round" />
  <path d="M124.08,96.31 C124.25,96.31 124.40,96.35 124.54,96.43" fill="currentColor" stroke="currentColor" stroke-width="1.2" stroke-linecap="round" stroke-linejoin="round" />
  <path d="M123.62,96.43 C123.76,96.35 123.91,96.31 124.08,96.31" fill="currentColor" stroke="currentColor" stroke-width="1.2" stroke-linecap="round" stroke-linejoin="round" />
  <path d="M14.42,96.22 C14.54,96.29 14.63,96.40 14.71,96.53" fill="currentColor" stroke="currentColor" stroke-width="1.2" stroke-linecap="round" stroke-linejoin="round" />
  <path d="M15.50,96.92 C15.50,96.62 15.43,96.36 15.31,96.14" fill="currentColor" stroke="currentColor" stroke-width="1.2" stroke-linecap="round" stroke-linejoin="round" />
  <path d="M12.92,96.74 C13.04,96.58 13.17,96.45 13.29,96.36" fill="currentColor" stroke="currentColor" stroke-width="1.2" stroke-linecap="round" stroke-linejoin="round" />
  <path d="M124.54,96.43 C124.68,96.51 124.79,96.62 124.87,96.75" fill="currentColor" stroke="currentColor" stroke-width="1.2" stroke-linecap="round" stroke-linejoin="round" />
  <path d="M123.30,96.75 C123.38,96.62 123.49,96.51 123.62,96.43" fill="currentColor" stroke="currentColor" stroke-width="1.2" stroke-linecap="round" stroke-linejoin="round" />
  <path d="M115.18,97.06 C115.00,96.77 114.74,96.54 114.41,96.38" fill="currentColor" stroke="currentColor" stroke-width="1.2" stroke-linecap="round" stroke-linejoin="round" />
  <path d="M14.71,96.53 C14.78,96.66 14.81,96.82 14.81,97.00" fill="currentColor" stroke="currentColor" stroke-width="1.2" stroke-linecap="round" stroke-linejoin="round" />
  <path d="M120.92,97.19 C120.71,96.86 120.45,96.60 120.15,96.41" fill="currentColor" stroke="currentColor" stroke-width="1.2" stroke-linecap="round" stroke-linejoin="round" />
  <path d="M118.17,96.41 C117.88,96.60 117.62,96.86 117.41,97.19" fill="currentColor" stroke="currentColor" stroke-width="1.2" stroke-linecap="round" stroke-linejoin="round" />
  <path d="M122.80,96.46 C122.67,96.68 122.60,96.94 122.60,97.21" fill="currentColor" stroke="currentColor" stroke-width="1.2" stroke-linecap="round" stroke-linejoin="round" />
  <path d="M125.57,97.21 C125.56,96.94 125.49,96.68 125.36,96.46" fill="currentColor" stroke="currentColor" stroke-width="1.2" stroke-linecap="round" stroke-linejoin="round" />
  <line x1="111.80" y1="96.46" x2="111.80" y2="97.48" fill="currentColor" stroke="currentColor" stroke-width="1.2" stroke-linecap="round" stroke-linejoin="round" />
  <path d="M124.87,96.75 C124.95,96.89 124.99,97.04 124.99,97.21" fill="currentColor" stroke="currentColor" stroke-width="1.2" stroke-linecap="round" stroke-linejoin="round" />
  <path d="M123.18,97.21 C123.18,97.04 123.22,96.89 123.30,96.75" fill="currentColor" stroke="currentColor" stroke-width="1.2" stroke-linecap="round" stroke-linejoin="round" />
  <path d="M14.81,97.00 C14.81,97.13 14.80,97.25 14.78,97.35" fill="currentColor" stroke="currentColor" stroke-width="1.2" stroke-linecap="round" stroke-linejoin="round" />
  <path d="M112.68,97.19 C112.81,97.17 112.95,97.16 113.08,97.16" fill="currentColor" stroke="currentColor" stroke-width="1.2" stroke-linecap="round" stroke-linejoin="round" />
  <path d="M15.42,97.49 C15.47,97.30 15.50,97.11 15.50,96.92" fill="currentColor" stroke="currentColor" stroke-width="1.2" stroke-linecap="round" stroke-linejoin="round" />
  <path d="M113.08,97.16 C113.35,97.16 113.57,97.21 113.77,97.30" fill="currentColor" stroke="currentColor" stroke-width="1.2" stroke-linecap="round" stroke-linejoin="round" />
  <path d="M112.27,97.29 C112.42,97.25 112.55,97.21 112.68,97.19" fill="currentColor" stroke="currentColor" stroke-width="1.2" stroke-linecap="round" stroke-linejoin="round" />
  <line x1="12.46" y1="97.30" x2="9.08" y2="97.30" fill="currentColor" stroke="currentColor" stroke-width="1.2" stroke-linecap="round" stroke-linejoin="round" />
  <path d="M118.44,97.50 C118.64,97.28 118.88,97.16 119.16,97.16" fill="currentColor" stroke="currentColor" stroke-width="1.2" stroke-linecap="round" stroke-linejoin="round" />
  <path d="M119.16,97.16 C119.44,97.16 119.68,97.28 119.88,97.50" fill="currentColor" stroke="currentColor" stroke-width="1.2" stroke-linecap="round" stroke-linejoin="round" />
  <path d="M111.80,97.48 C111.97,97.40 112.13,97.34 112.27,97.29" fill="currentColor" stroke="currentColor" stroke-width="1.2" stroke-linecap="round" stroke-linejoin="round" />
  <path d="M124.99,97.21 C124.99,97.38 124.95,97.54 124.87,97.68" fill="currentColor" stroke="currentColor" stroke-width="1.2" stroke-linecap="round" stroke-linejoin="round" />
  <path d="M123.30,97.68 C123.22,97.54 123.18,97.38 123.18,97.21" fill="currentColor" stroke="currentColor" stroke-width="1.2" stroke-linecap="round" stroke-linejoin="round" />
  <path d="M113.77,97.30 C113.96,97.39 114.11,97.52 114.22,97.68" fill="currentColor" stroke="currentColor" stroke-width="1.2" stroke-linecap="round" stroke-linejoin="round" />
  <path d="M14.78,97.35 C14.75,97.46 14.71,97.57 14.66,97.67" fill="currentColor" stroke="currentColor" stroke-width="1.2" stroke-linecap="round" stroke-linejoin="round" />
  <path d="M115.45,98.09 C115.45,97.70 115.36,97.35 115.18,97.06" fill="currentColor" stroke="currentColor" stroke-width="1.2" stroke-linecap="round" stroke-linejoin="round" />
  <path d="M122.60,97.21 C122.60,97.49 122.67,97.74 122.80,97.97" fill="currentColor" stroke="currentColor" stroke-width="1.2" stroke-linecap="round" stroke-linejoin="round" />
  <path d="M125.36,97.97 C125.49,97.74 125.56,97.49 125.57,97.21" fill="currentColor" stroke="currentColor" stroke-width="1.2" stroke-linecap="round" stroke-linejoin="round" />
  <line x1="12.46" y1="98.27" x2="12.46" y2="97.30" fill="currentColor" stroke="currentColor" stroke-width="1.2" stroke-linecap="round" stroke-linejoin="round" />
  <path d="M15.15,98.08 C15.27,97.88 15.36,97.68 15.42,97.49" fill="currentColor" stroke="currentColor" stroke-width="1.2" stroke-linecap="round" stroke-linejoin="round" />
  <path d="M121.41,98.41 C121.29,97.94 121.13,97.53 120.92,97.19" fill="currentColor" stroke="currentColor" stroke-width="1.2" stroke-linecap="round" stroke-linejoin="round" />
  <path d="M117.41,97.19 C117.20,97.53 117.03,97.94 116.92,98.41" fill="currentColor" stroke="currentColor" stroke-width="1.2" stroke-linecap="round" stroke-linejoin="round" />
  <path d="M124.87,97.68 C124.79,97.81 124.68,97.92 124.54,98.00" fill="currentColor" stroke="currentColor" stroke-width="1.2" stroke-linecap="round" stroke-linejoin="round" />
  <path d="M123.62,98.00 C123.49,97.92 123.38,97.81 123.30,97.68" fill="currentColor" stroke="currentColor" stroke-width="1.2" stroke-linecap="round" stroke-linejoin="round" />
  <path d="M14.66,97.67 C14.61,97.78 14.55,97.89 14.48,98.02" fill="currentColor" stroke="currentColor" stroke-width="1.2" stroke-linecap="round" stroke-linejoin="round" />
  <path d="M114.22,97.68 C114.32,97.85 114.38,98.05 114.38,98.28" fill="currentColor" stroke="currentColor" stroke-width="1.2" stroke-linecap="round" stroke-linejoin="round" />
  <path d="M117.98,98.47 C118.09,98.05 118.24,97.73 118.44,97.50" fill="currentColor" stroke="currentColor" stroke-width="1.2" stroke-linecap="round" stroke-linejoin="round" />
  <path d="M119.88,97.50 C120.08,97.73 120.24,98.05 120.34,98.47" fill="currentColor" stroke="currentColor" stroke-width="1.2" stroke-linecap="round" stroke-linejoin="round" />
  <path d="M124.54,98.00 C124.40,98.08 124.25,98.12 124.08,98.13" fill="currentColor" stroke="currentColor" stroke-width="1.2" stroke-linecap="round" stroke-linejoin="round" />
  <path d="M124.08,98.13 C123.91,98.12 123.76,98.08 123.62,98.00" fill="currentColor" stroke="currentColor" stroke-width="1.2" stroke-linecap="round" stroke-linejoin="round" />
  <path d="M122.80,97.97 C122.93,98.19 123.10,98.37 123.33,98.50" fill="currentColor" stroke="currentColor" stroke-width="1.2" stroke-linecap="round" stroke-linejoin="round" />
  <path d="M124.83,98.50 C125.06,98.37 125.23,98.19 125.36,97.97" fill="currentColor" stroke="currentColor" stroke-width="1.2" stroke-linecap="round" stroke-linejoin="round" />
  <line x1="8.00" y1="98.27" x2="12.46" y2="98.27" fill="currentColor" stroke="currentColor" stroke-width="1.2" stroke-linecap="round" stroke-linejoin="round" />
  <path d="M14.48,98.02 C14.37,98.19 14.26,98.37 14.12,98.56" fill="currentColor" stroke="currentColor" stroke-width="1.2" stroke-linecap="round" stroke-linejoin="round" />
  <path d="M14.70,98.77 C14.88,98.52 15.04,98.29 15.15,98.08" fill="currentColor" stroke="currentColor" stroke-width="1.2" stroke-linecap="round" stroke-linejoin="round" />
  <path d="M115.36,98.82 C115.42,98.61 115.46,98.37 115.45,98.09" fill="currentColor" stroke="currentColor" stroke-width="1.2" stroke-linecap="round" stroke-linejoin="round" />
  <path d="M123.33,98.50 C123.55,98.63 123.80,98.70 124.08,98.70" fill="currentColor" stroke="currentColor" stroke-width="1.2" stroke-linecap="round" stroke-linejoin="round" />
  <path d="M124.08,98.70 C124.36,98.70 124.61,98.63 124.83,98.50" fill="currentColor" stroke="currentColor" stroke-width="1.2" stroke-linecap="round" stroke-linejoin="round" />
  <path d="M114.38,98.28 C114.38,98.63 114.25,98.89 114.01,99.08" fill="currentColor" stroke="currentColor" stroke-width="1.2" stroke-linecap="round" stroke-linejoin="round" />
  <path d="M14.12,98.56 C13.99,98.75 13.84,98.95 13.69,99.14" fill="currentColor" stroke="currentColor" stroke-width="1.2" stroke-linecap="round" stroke-linejoin="round" />
  <path d="M115.05,99.36 C115.19,99.21 115.29,99.03 115.36,98.82" fill="currentColor" stroke="currentColor" stroke-width="1.2" stroke-linecap="round" stroke-linejoin="round" />
  <path d="M14.01,99.61 C14.28,99.30 14.51,99.02 14.70,98.77" fill="currentColor" stroke="currentColor" stroke-width="1.2" stroke-linecap="round" stroke-linejoin="round" />
  <path d="M121.58,99.99 C121.58,99.41 121.52,98.88 121.41,98.41" fill="currentColor" stroke="currentColor" stroke-width="1.2" stroke-linecap="round" stroke-linejoin="round" />
  <path d="M116.92,98.41 C116.80,98.88 116.75,99.41 116.74,99.99" fill="currentColor" stroke="currentColor" stroke-width="1.2" stroke-linecap="round" stroke-linejoin="round" />
  <path d="M114.01,99.08 C113.76,99.27 113.39,99.37 112.89,99.37" fill="currentColor" stroke="currentColor" stroke-width="1.2" stroke-linecap="round" stroke-linejoin="round" />
  <path d="M117.82,99.99 C117.82,99.40 117.88,98.89 117.98,98.47" fill="currentColor" stroke="currentColor" stroke-width="1.2" stroke-linecap="round" stroke-linejoin="round" />
  <path d="M120.34,98.47 C120.45,98.89 120.51,99.40 120.51,99.99" fill="currentColor" stroke="currentColor" stroke-width="1.2" stroke-linecap="round" stroke-linejoin="round" />
  <path d="M13.69,99.14 C13.54,99.33 13.39,99.52 13.24,99.70" fill="currentColor" stroke="currentColor" stroke-width="1.2" stroke-linecap="round" stroke-linejoin="round" />
  <path d="M114.50,99.78 C114.73,99.65 114.91,99.52 115.05,99.36" fill="currentColor" stroke="currentColor" stroke-width="1.2" stroke-linecap="round" stroke-linejoin="round" />
  <line x1="15.84" y1="99.61" x2="14.01" y2="99.61" fill="currentColor" stroke="currentColor" stroke-width="1.2" stroke-linecap="round" stroke-linejoin="round" />
  <line x1="112.89" y1="99.37" x2="112.89" y2="100.36" fill="currentColor" stroke="currentColor" stroke-width="1.2" stroke-linecap="round" stroke-linejoin="round" />
  <line x1="15.84" y1="100.27" x2="15.84" y2="99.61" fill="currentColor" stroke="currentColor" stroke-width="1.2" stroke-linecap="round" stroke-linejoin="round" />
  <path d="M13.24,99.70 C13.09,99.88 12.95,100.06 12.82,100.22" fill="currentColor" stroke="currentColor" stroke-width="1.2" stroke-linecap="round" stroke-linejoin="round" />
  <path d="M115.11,100.17 C114.95,99.99 114.75,99.86 114.50,99.78" fill="currentColor" stroke="currentColor" stroke-width="1.2" stroke-linecap="round" stroke-linejoin="round" />
  <line x1="12.82" y1="100.22" x2="12.82" y2="100.27" fill="currentColor" stroke="currentColor" stroke-width="1.2" stroke-linecap="round" stroke-linejoin="round" />
  <line x1="12.82" y1="100.27" x2="15.84" y2="100.27" fill="currentColor" stroke="currentColor" stroke-width="1.2" stroke-linecap="round" stroke-linejoin="round" />
  <path d="M112.89,100.36 C113.25,100.35 113.55,100.39 113.78,100.50" fill="currentColor" stroke="currentColor" stroke-width="1.2" stroke-linecap="round" stroke-linejoin="round" />
  <path d="M115.46,100.81 C115.39,100.56 115.27,100.35 115.11,100.17" fill="currentColor" stroke="currentColor" stroke-width="1.2" stroke-linecap="round" stroke-linejoin="round" />
  <path d="M113.78,100.50 C114.02,100.60 114.20,100.75 114.32,100.95" fill="currentColor" stroke="currentColor" stroke-width="1.2" stroke-linecap="round" stroke-linejoin="round" />
  <path d="M120.51,99.99 C120.51,100.57 120.45,101.08 120.34,101.50" fill="currentColor" stroke="currentColor" stroke-width="1.2" stroke-linecap="round" stroke-linejoin="round" />
  <path d="M117.98,101.50 C117.88,101.08 117.82,100.57 117.82,99.99" fill="currentColor" stroke="currentColor" stroke-width="1.2" stroke-linecap="round" stroke-linejoin="round" />
  <path d="M116.74,99.99 C116.75,100.56 116.80,101.09 116.92,101.56" fill="currentColor" stroke="currentColor" stroke-width="1.2" stroke-linecap="round" stroke-linejoin="round" />
  <path d="M121.41,101.56 C121.52,101.09 121.58,100.56 121.58,99.99" fill="currentColor" stroke="currentColor" stroke-width="1.2" stroke-linecap="round" stroke-linejoin="round" />
  <path d="M115.58,101.56 C115.58,101.30 115.54,101.05 115.46,100.81" fill="currentColor" stroke="currentColor" stroke-width="1.2" stroke-linecap="round" stroke-linejoin="round" />
  <path d="M114.32,100.95 C114.44,101.14 114.50,101.37 114.50,101.61" fill="currentColor" stroke="currentColor" stroke-width="1.2" stroke-linecap="round" stroke-linejoin="round" />
  <path d="M114.50,101.61 C114.50,101.86 114.45,102.07 114.35,102.25" fill="currentColor" stroke="currentColor" stroke-width="1.2" stroke-linecap="round" stroke-linejoin="round" />
  <path d="M120.34,101.50 C120.24,101.92 120.08,102.24 119.88,102.47" fill="currentColor" stroke="currentColor" stroke-width="1.2" stroke-linecap="round" stroke-linejoin="round" />
  <path d="M118.44,102.47 C118.24,102.24 118.09,101.92 117.98,101.50" fill="currentColor" stroke="currentColor" stroke-width="1.2" stroke-linecap="round" stroke-linejoin="round" />
  <path d="M115.27,102.75 C115.47,102.41 115.57,102.01 115.58,101.56" fill="currentColor" stroke="currentColor" stroke-width="1.2" stroke-linecap="round" stroke-linejoin="round" />
  <path d="M116.92,101.56 C117.03,102.03 117.20,102.44 117.41,102.78" fill="currentColor" stroke="currentColor" stroke-width="1.2" stroke-linecap="round" stroke-linejoin="round" />
  <path d="M120.92,102.78 C121.13,102.44 121.29,102.03 121.41,101.56" fill="currentColor" stroke="currentColor" stroke-width="1.2" stroke-linecap="round" stroke-linejoin="round" />
  <path d="M114.35,102.25 C114.25,102.43 114.11,102.57 113.93,102.66" fill="currentColor" stroke="currentColor" stroke-width="1.2" stroke-linecap="round" stroke-linejoin="round" />
  <path d="M112.46,102.67 C112.18,102.58 111.90,102.43 111.62,102.24" fill="currentColor" stroke="currentColor" stroke-width="1.2" stroke-linecap="round" stroke-linejoin="round" />
  <path d="M127.67,108.17 C128.10,104.16 129.37,100.42 131.31,97.11" fill="none" stroke="currentColor" stroke-width="1.0" stroke-linecap="round" stroke-linejoin="round" />
  <path d="M119.88,102.47 C119.68,102.70 119.44,102.81 119.16,102.81" fill="currentColor" stroke="currentColor" stroke-width="1.2" stroke-linecap="round" stroke-linejoin="round" />
  <path d="M119.16,102.81 C118.88,102.81 118.64,102.70 118.44,102.47" fill="currentColor" stroke="currentColor" stroke-width="1.2" stroke-linecap="round" stroke-linejoin="round" />
  <path d="M113.93,102.66 C113.75,102.76 113.54,102.81 113.29,102.81" fill="currentColor" stroke="currentColor" stroke-width="1.2" stroke-linecap="round" stroke-linejoin="round" />
  <path d="M113.29,102.81 C113.01,102.81 112.74,102.77 112.46,102.67" fill="currentColor" stroke="currentColor" stroke-width="1.2" stroke-linecap="round" stroke-linejoin="round" />
  <line x1="111.62" y1="102.24" x2="111.62" y2="103.41" fill="currentColor" stroke="currentColor" stroke-width="1.2" stroke-linecap="round" stroke-linejoin="round" />
  <path d="M114.44,103.54 C114.79,103.35 115.07,103.09 115.27,102.75" fill="currentColor" stroke="currentColor" stroke-width="1.2" stroke-linecap="round" stroke-linejoin="round" />
  <path d="M117.41,102.78 C117.62,103.12 117.88,103.38 118.17,103.56" fill="currentColor" stroke="currentColor" stroke-width="1.2" stroke-linecap="round" stroke-linejoin="round" />
  <path d="M120.15,103.56 C120.45,103.38 120.71,103.12 120.92,102.78" fill="currentColor" stroke="currentColor" stroke-width="1.2" stroke-linecap="round" stroke-linejoin="round" />
  <path d="M111.62,103.41 C111.89,103.54 112.16,103.65 112.42,103.72" fill="currentColor" stroke="currentColor" stroke-width="1.2" stroke-linecap="round" stroke-linejoin="round" />
  <path d="M113.21,103.84 C113.68,103.83 114.09,103.74 114.44,103.54" fill="currentColor" stroke="currentColor" stroke-width="1.2" stroke-linecap="round" stroke-linejoin="round" />
  <path d="M118.17,103.56 C118.47,103.74 118.80,103.83 119.16,103.83" fill="currentColor" stroke="currentColor" stroke-width="1.2" stroke-linecap="round" stroke-linejoin="round" />
  <path d="M119.16,103.83 C119.53,103.83 119.86,103.74 120.15,103.56" fill="currentColor" stroke="currentColor" stroke-width="1.2" stroke-linecap="round" stroke-linejoin="round" />
  <path d="M112.42,103.72 C112.69,103.80 112.95,103.83 113.21,103.84" fill="currentColor" stroke="currentColor" stroke-width="1.2" stroke-linecap="round" stroke-linejoin="round" />
  <line x1="17.59" y1="95.81" x2="193.34" y2="115.86" fill="none" stroke="currentColor" stroke-width="1.4000000476837158" stroke-linecap="round" stroke-linejoin="round" />
</svg>