<svg xmlns="http://www.w3.org/2000/svg" viewBox="0 0 200.48 130.98" preserveAspectRatio="xMidYMid meet" shape-rendering="geometricPrecision" text-rendering="optimizeLegibility">
  <path d="M190.61,8.06 C190.34,8.02 190.08,8.00 189.83,8.00" fill="currentColor" stroke="currentColor" stroke-width="1.2" stroke-linecap="round" stroke-linejoin="round" />
  <line x1="11.34" y1="8.10" x2="8.43" y2="8.10" fill="currentColor" stroke="currentColor" stroke-width="1.2" stroke-linecap="round" stroke-linejoin="round" />
  <path d="M189.83,8.00 C189.23,8.00 188.68,8.10 188.18,8.30" fill="currentColor" stroke="currentColor" stroke-width="1.2" stroke-linecap="round" stroke-linejoin="round" />
  <path d="M191.45,8.27 C191.15,8.17 190.87,8.11 190.61,8.06" fill="currentColor" stroke="currentColor" stroke-width="1.2" stroke-linecap="round" stroke-linejoin="round" />
  <path d="M12.82,8.32 C12.39,8.18 11.90,8.10 11.34,8.10" fill="currentColor" stroke="currentColor" stroke-width="1.2" stroke-linecap="round" stroke-linejoin="round" />
  <path d="M192.40,8.62 C192.06,8.47 191.74,8.36 191.45,8.27" fill="currentColor" stroke="currentColor" stroke-width="1.2" stroke-linecap="round" stroke-linejoin="round" />
  <path d="M13.95,8.91 C13.63,8.66 13.25,8.46 12.82,8.32" fill="currentColor" stroke="currentColor" stroke-width="1.2" stroke-linecap="round" stroke-linejoin="round" />
  <path d="M188.18,8.30 C187.68,8.49 187.24,8.77 186.87,9.12" fill="currentColor" stroke="currentColor" stroke-width="1.2" stroke-linecap="round" stroke-linejoin="round" />
  <line x1="9.50" y1="9.07" x2="11.17" y2="9.07" fill="currentColor" stroke="currentColor" stroke-width="1.2" stroke-linecap="round" stroke-linejoin="round" />
  <path d="M189.82,8.99 C190.25,8.99 190.67,9.05 191.09,9.18" fill="currentColor" stroke="currentColor" stroke-width="1.2" stroke-linecap="round" stroke-linejoin="round" />
  <path d="M188.62,9.21 C188.99,9.06 189.38,8.99 189.82,8.99" fill="currentColor" stroke="currentColor" stroke-width="1.2" stroke-linecap="round" stroke-linejoin="round" />
  <path d="M11.17,9.07 C11.69,9.07 12.15,9.14 12.53,9.29" fill="currentColor" stroke="currentColor" stroke-width="1.2" stroke-linecap="round" stroke-linejoin="round" />
  <line x1="192.40" y1="9.77" x2="192.40" y2="8.62" fill="currentColor" stroke="currentColor" stroke-width="1.2" stroke-linecap="round" stroke-linejoin="round" />
  <path d="M14.73,9.76 C14.52,9.44 14.26,9.16 13.95,8.91" fill="currentColor" stroke="currentColor" stroke-width="1.2" stroke-linecap="round" stroke-linejoin="round" />
  <path d="M191.09,9.18 C191.50,9.31 191.94,9.50 192.40,9.77" fill="currentColor" stroke="currentColor" stroke-width="1.2" stroke-linecap="round" stroke-linejoin="round" />
  <path d="M187.68,9.81 C187.94,9.55 188.26,9.35 188.62,9.21" fill="currentColor" stroke="currentColor" stroke-width="1.2" stroke-linecap="round" stroke-linejoin="round" />
  <path d="M12.53,9.29 C12.92,9.43 13.23,9.64 13.48,9.89" fill="currentColor" stroke="currentColor" stroke-width="1.2" stroke-linecap="round" stroke-linejoin="round" />
  <path d="M186.87,9.12 C186.51,9.48 186.22,9.89 186.02,10.38" fill="currentColor" stroke="currentColor" stroke-width="1.2" stroke-linecap="round" stroke-linejoin="round" />
  <path d="M187.05,10.72 C187.20,10.37 187.41,10.06 187.68,9.81" fill="currentColor" stroke="currentColor" stroke-width="1.2" stroke-linecap="round" stroke-linejoin="round" />
  <path d="M15.19,10.78 C15.09,10.42 14.93,10.08 14.73,9.76" fill="currentColor" stroke="currentColor" stroke-width="1.2" stroke-linecap="round" stroke-linejoin="round" />
  <path d="M13.48,9.89 C13.73,10.15 13.92,10.44 14.04,10.78" fill="currentColor" stroke="currentColor" stroke-width="1.2" stroke-linecap="round" stroke-linejoin="round" />
  <path d="M186.02,10.38 C185.82,10.86 185.72,11.38 185.71,11.96" fill="currentColor" stroke="currentColor" stroke-width="1.2" stroke-linecap="round" stroke-linejoin="round" />
  <path d="M186.82,11.86 C186.83,11.45 186.90,11.06 187.05,10.72" fill="currentColor" stroke="currentColor" stroke-width="1.2" stroke-linecap="round" stroke-linejoin="round" />
  <path d="M14.04,10.78 C14.16,11.11 14.23,11.47 14.22,11.85" fill="currentColor" stroke="currentColor" stroke-width="1.2" stroke-linecap="round" stroke-linejoin="round" />
  <path d="M15.34,11.85 C15.34,11.49 15.29,11.14 15.19,10.78" fill="currentColor" stroke="currentColor" stroke-width="1.2" stroke-linecap="round" stroke-linejoin="round" />
  <line x1="9.50" y1="14.63" x2="9.50" y2="9.07" fill="currentColor" stroke="currentColor" stroke-width="1.2" stroke-linecap="round" stroke-linejoin="round" />
  <line x1="8.43" y1="8.10" x2="8.43" y2="15.60" fill="currentColor" stroke="currentColor" stroke-width="1.2" stroke-linecap="round" stroke-linejoin="round" />
  <path d="M14.22,11.85 C14.23,12.04 14.20,12.25 14.15,12.49" fill="currentColor" stroke="currentColor" stroke-width="1.2" stroke-linecap="round" stroke-linejoin="round" />
  <path d="M15.16,12.98 C15.28,12.61 15.34,12.24 15.34,11.85" fill="currentColor" stroke="currentColor" stroke-width="1.2" stroke-linecap="round" stroke-linejoin="round" />
  <path d="M185.71,11.96 C185.71,12.28 185.76,12.61 185.86,12.95" fill="currentColor" stroke="currentColor" stroke-width="1.2" stroke-linecap="round" stroke-linejoin="round" />
  <path d="M187.21,13.35 C186.96,12.92 186.83,12.43 186.82,11.86" fill="currentColor" stroke="currentColor" stroke-width="1.2" stroke-linecap="round" stroke-linejoin="round" />
  <path d="M14.15,12.49 C14.09,12.73 14.00,12.98 13.87,13.23" fill="currentColor" stroke="currentColor" stroke-width="1.2" stroke-linecap="round" stroke-linejoin="round" />
  <path d="M185.86,12.95 C185.96,13.30 186.12,13.63 186.33,13.95" fill="currentColor" stroke="currentColor" stroke-width="1.2" stroke-linecap="round" stroke-linejoin="round" />
  <path d="M14.65,14.00 C14.87,13.68 15.04,13.34 15.16,12.98" fill="currentColor" stroke="currentColor" stroke-width="1.2" stroke-linecap="round" stroke-linejoin="round" />
  <path d="M13.87,13.23 C13.74,13.48 13.56,13.71 13.33,13.92" fill="currentColor" stroke="currentColor" stroke-width="1.2" stroke-linecap="round" stroke-linejoin="round" />
  <path d="M188.27,14.34 C187.82,14.10 187.46,13.77 187.21,13.35" fill="currentColor" stroke="currentColor" stroke-width="1.2" stroke-linecap="round" stroke-linejoin="round" />
  <path d="M13.33,13.92 C13.11,14.13 12.82,14.30 12.47,14.43" fill="currentColor" stroke="currentColor" stroke-width="1.2" stroke-linecap="round" stroke-linejoin="round" />
  <path d="M192.48,13.86 C192.05,14.14 191.61,14.35 191.17,14.49" fill="currentColor" stroke="currentColor" stroke-width="1.2" stroke-linecap="round" stroke-linejoin="round" />
  <path d="M186.33,13.95 C186.53,14.28 186.80,14.57 187.12,14.84" fill="currentColor" stroke="currentColor" stroke-width="1.2" stroke-linecap="round" stroke-linejoin="round" />
  <path d="M13.82,14.83 C14.15,14.59 14.42,14.32 14.65,14.00" fill="currentColor" stroke="currentColor" stroke-width="1.2" stroke-linecap="round" stroke-linejoin="round" />
  <line x1="192.48" y1="15.04" x2="192.48" y2="13.86" fill="currentColor" stroke="currentColor" stroke-width="1.2" stroke-linecap="round" stroke-linejoin="round" />
  <path d="M189.86,14.71 C189.25,14.70 188.72,14.58 188.27,14.34" fill="currentColor" stroke="currentColor" stroke-width="1.2" stroke-linecap="round" stroke-linejoin="round" />
  <path d="M12.47,14.43 C12.12,14.56 11.71,14.63 11.22,14.63" fill="currentColor" stroke="currentColor" stroke-width="1.2" stroke-linecap="round" stroke-linejoin="round" />
  <path d="M191.17,14.49 C190.72,14.64 190.29,14.71 189.86,14.71" fill="currentColor" stroke="currentColor" stroke-width="1.2" stroke-linecap="round" stroke-linejoin="round" />
  <line x1="11.22" y1="14.63" x2="9.50" y2="14.63" fill="currentColor" stroke="currentColor" stroke-width="1.2" stroke-linecap="round" stroke-linejoin="round" />
  <path d="M12.72,15.39 C13.13,15.26 13.50,15.07 13.82,14.83" fill="currentColor" stroke="currentColor" stroke-width="1.2" stroke-linecap="round" stroke-linejoin="round" />
  <path d="M187.12,14.84 C187.44,15.10 187.82,15.31 188.26,15.46" fill="currentColor" stroke="currentColor" stroke-width="1.2" stroke-linecap="round" stroke-linejoin="round" />
  <path d="M191.71,15.38 C191.98,15.28 192.23,15.17 192.48,15.04" fill="currentColor" stroke="currentColor" stroke-width="1.2" stroke-linecap="round" stroke-linejoin="round" />
  <path d="M190.82,15.61 C191.14,15.56 191.44,15.48 191.71,15.38" fill="currentColor" stroke="currentColor" stroke-width="1.2" stroke-linecap="round" stroke-linejoin="round" />
  <path d="M11.35,15.60 C11.85,15.60 12.30,15.53 12.72,15.39" fill="currentColor" stroke="currentColor" stroke-width="1.2" stroke-linecap="round" stroke-linejoin="round" />
  <path d="M188.26,15.46 C188.70,15.62 189.20,15.69 189.76,15.70" fill="currentColor" stroke="currentColor" stroke-width="1.2" stroke-linecap="round" stroke-linejoin="round" />
  <line x1="8.43" y1="15.60" x2="11.35" y2="15.60" fill="currentColor" stroke="currentColor" stroke-width="1.2" stroke-linecap="round" stroke-linejoin="round" />
  <path d="M189.76,15.70 C190.15,15.70 190.50,15.67 190.82,15.61" fill="currentColor" stroke="currentColor" stroke-width="1.2" stroke-linecap="round" stroke-linejoin="round" />
  <rect x="59.17" y="15.60" width="8.50" height="8.50" fill="none" stroke="currentColor" stroke-width="1.0" stroke-linecap="round" stroke-linejoin="round" />
  <rect x="90.53" y="15.60" width="8.50" height="8.50" fill="none" stroke="currentColor" stroke-width="1.0" stroke-linecap="round" stroke-linejoin="round" />
  <line x1="67.68" y1="54.63" x2="67.68" y2="15.60" fill="none" stroke="currentColor" stroke-width="1.4000000476837158" stroke-linecap="round" stroke-linejoin="round" />
  <rect x="19.19" y="15.60" width="48.49" height="39.03" fill="currentColor" stroke="currentColor" stroke-width="1.2" stroke-linecap="round" stroke-linejoin="round" />
  <line x1="90.53" y1="15.60" x2="90.53" y2="54.63" fill="none" stroke="currentColor" stroke-width="1.4000000476837158" stroke-linecap="round" stroke-linejoin="round" />
  <rect x="90.53" y="15.60" width="92.25" height="39.03" fill="currentColor" stroke="currentColor" stroke-width="1.2" stroke-linecap="round" stroke-linejoin="round" />
  <rect x="19.19" y="46.12" width="8.50" height="8.50" fill="none" stroke="currentColor" stroke-width="1.0" stroke-linecap="round" stroke-linejoin="round" />
  <rect x="174.27" y="46.12" width="8.50" height="8.50" fill="none" stroke="currentColor" stroke-width="1.0" stroke-linecap="round" stroke-linejoin="round" />
  <line x1="19.19" y1="54.63" x2="67.68" y2="54.63" fill="none" stroke="currentColor" stroke-width="1.4000000476837158" stroke-linecap="round" stroke-linejoin="round" />
  <line x1="90.53" y1="54.63" x2="182.78" y2="54.63" fill="none" stroke="currentColor" stroke-width="1.4000000476837158" stroke-linecap="round" stroke-linejoin="round" />
  <rect x="19.18" y="15.60" width="163.59" height="99.21" fill="currentColor" stroke="currentColor" stroke-width="1.2" stroke-linecap="round" stroke-linejoin="round" />
  <rect x="19.18" y="15.60" width="163.59" height="99.21" fill="none" stroke="currentColor" stroke-width="1.4000000476837158" stroke-linecap="round" stroke-linejoin="round" />
  <line x1="182.78" y1="75.78" x2="90.53" y2="75.78" fill="none" stroke="currentColor" stroke-width="1.4000000476837158" stroke-linecap="round" stroke-linejoin="round" />
  <line x1="67.68" y1="75.78" x2="19.19" y2="75.78" fill="none" stroke="currentColor" stroke-width="1.4000000476837158" stroke-linecap="round" stroke-linejoin="round" />
  <rect x="19.18" y="75.78" width="8.50" height="8.50" fill="none" stroke="currentColor" stroke-width="1.0" stroke-linecap="round" stroke-linejoin="round" />
  <rect x="174.27" y="75.79" width="8.50" height="8.50" fill="none" stroke="currentColor" stroke-width="1.0" stroke-linecap="round" stroke-linejoin="round" />
  <line x1="90.53" y1="75.78" x2="90.53" y2="114.81" fill="none" stroke="currentColor" stroke-width="1.4000000476837158" stroke-linecap="round" stroke-linejoin="round" />
  <line x1="67.68" y1="114.81" x2="67.68" y2="75.78" fill="none" stroke="currentColor" stroke-width="1.4000000476837158" stroke-linecap="round" stroke-linejoin="round" />
  <rect x="90.53" y="75.78" width="92.25" height="39.03" fill="currentColor" stroke="currentColor" stroke-width="1.2" stroke-linecap="round" stroke-linejoin="round" />
  <rect x="19.19" y="75.78" width="48.49" height="39.03" fill="currentColor" stroke="currentColor" stroke-width="1.2" stroke-linecap="round" stroke-linejoin="round" />
  <rect x="59.17" y="106.31" width="8.50" height="8.50" fill="none" stroke="currentColor" stroke-width="1.0" stroke-linecap="round" stroke-linejoin="round" />
  <rect x="90.53" y="106.31" width="8.50" height="8.50" fill="none" stroke="currentColor" stroke-width="1.0" stroke-linecap="round" stroke-linejoin="round" />
  <line x1="11.98" y1="115.44" x2="11.22" y2="115.44" fill="currentColor" stroke="currentColor" stroke-width="1.2" stroke-linecap="round" stroke-linejoin="round" />
  <line x1="188.19" y1="115.48" x2="186.01" y2="115.48" fill="currentColor" stroke="currentColor" stroke-width="1.2" stroke-linecap="round" stroke-linejoin="round" />
  <path d="M189.23,115.65 C188.94,115.54 188.59,115.48 188.19,115.48" fill="currentColor" stroke="currentColor" stroke-width="1.2" stroke-linecap="round" stroke-linejoin="round" />
  <path d="M189.95,116.08 C189.76,115.90 189.53,115.75 189.23,115.65" fill="currentColor" stroke="currentColor" stroke-width="1.2" stroke-linecap="round" stroke-linejoin="round" />
  <path d="M190.37,116.70 C190.28,116.47 190.14,116.27 189.95,116.08" fill="currentColor" stroke="currentColor" stroke-width="1.2" stroke-linecap="round" stroke-linejoin="round" />
  <line x1="187.09" y1="116.45" x2="188.08" y2="116.45" fill="currentColor" stroke="currentColor" stroke-width="1.2" stroke-linecap="round" stroke-linejoin="round" />
  <path d="M188.08,116.45 C188.41,116.45 188.67,116.50 188.86,116.59" fill="currentColor" stroke="currentColor" stroke-width="1.2" stroke-linecap="round" stroke-linejoin="round" />
  <path d="M188.86,116.59 C189.05,116.69 189.19,116.82 189.27,116.97" fill="currentColor" stroke="currentColor" stroke-width="1.2" stroke-linecap="round" stroke-linejoin="round" />
  <path d="M190.50,117.39 C190.50,117.15 190.46,116.92 190.37,116.70" fill="currentColor" stroke="currentColor" stroke-width="1.2" stroke-linecap="round" stroke-linejoin="round" />
  <path d="M189.27,116.97 C189.35,117.13 189.39,117.30 189.39,117.49" fill="currentColor" stroke="currentColor" stroke-width="1.2" stroke-linecap="round" stroke-linejoin="round" />
  <line x1="187.09" y1="118.69" x2="187.09" y2="116.45" fill="currentColor" stroke="currentColor" stroke-width="1.2" stroke-linecap="round" stroke-linejoin="round" />
  <path d="M190.22,118.37 C190.41,118.11 190.50,117.78 190.50,117.39" fill="currentColor" stroke="currentColor" stroke-width="1.2" stroke-linecap="round" stroke-linejoin="round" />
  <path d="M189.39,117.49 C189.39,117.89 189.26,118.20 189.00,118.39" fill="currentColor" stroke="currentColor" stroke-width="1.2" stroke-linecap="round" stroke-linejoin="round" />
  <line x1="11.59" y1="117.09" x2="12.80" y2="119.80" fill="currentColor" stroke="currentColor" stroke-width="1.2" stroke-linecap="round" stroke-linejoin="round" />
  <line x1="10.46" y1="119.80" x2="11.59" y2="117.09" fill="currentColor" stroke="currentColor" stroke-width="1.2" stroke-linecap="round" stroke-linejoin="round" />
  <path d="M189.00,118.39 C188.73,118.59 188.34,118.69 187.80,118.69" fill="currentColor" stroke="currentColor" stroke-width="1.2" stroke-linecap="round" stroke-linejoin="round" />
  <path d="M189.35,119.00 C189.74,118.84 190.03,118.63 190.22,118.37" fill="currentColor" stroke="currentColor" stroke-width="1.2" stroke-linecap="round" stroke-linejoin="round" />
  <line x1="187.80" y1="118.69" x2="187.09" y2="118.69" fill="currentColor" stroke="currentColor" stroke-width="1.2" stroke-linecap="round" stroke-linejoin="round" />
  <line x1="189.35" y1="119.02" x2="189.35" y2="119.00" fill="currentColor" stroke="currentColor" stroke-width="1.2" stroke-linecap="round" stroke-linejoin="round" />
  <line x1="11.22" y1="115.44" x2="8.00" y2="122.98" fill="currentColor" stroke="currentColor" stroke-width="1.2" stroke-linecap="round" stroke-linejoin="round" />
  <line x1="15.34" y1="122.98" x2="11.98" y2="115.44" fill="currentColor" stroke="currentColor" stroke-width="1.2" stroke-linecap="round" stroke-linejoin="round" />
  <path d="M190.32,119.40 C190.05,119.22 189.73,119.09 189.35,119.02" fill="currentColor" stroke="currentColor" stroke-width="1.2" stroke-linecap="round" stroke-linejoin="round" />
  <line x1="186.01" y1="115.48" x2="186.01" y2="122.98" fill="currentColor" stroke="currentColor" stroke-width="1.2" stroke-linecap="round" stroke-linejoin="round" />
  <line x1="187.09" y1="119.66" x2="188.39" y2="119.66" fill="currentColor" stroke="currentColor" stroke-width="1.2" stroke-linecap="round" stroke-linejoin="round" />
  <path d="M190.94,120.07 C190.80,119.80 190.59,119.58 190.32,119.40" fill="currentColor" stroke="currentColor" stroke-width="1.2" stroke-linecap="round" stroke-linejoin="round" />
  <path d="M188.39,119.66 C188.76,119.66 189.07,119.71 189.32,119.81" fill="currentColor" stroke="currentColor" stroke-width="1.2" stroke-linecap="round" stroke-linejoin="round" />
  <line x1="12.80" y1="119.80" x2="10.46" y2="119.80" fill="currentColor" stroke="currentColor" stroke-width="1.2" stroke-linecap="round" stroke-linejoin="round" />
  <path d="M189.32,119.81 C189.57,119.91 189.75,120.05 189.87,120.22" fill="currentColor" stroke="currentColor" stroke-width="1.2" stroke-linecap="round" stroke-linejoin="round" />
  <path d="M189.87,120.22 C189.99,120.40 190.05,120.60 190.05,120.83" fill="currentColor" stroke="currentColor" stroke-width="1.2" stroke-linecap="round" stroke-linejoin="round" />
  <path d="M191.16,120.98 C191.16,120.64 191.08,120.34 190.94,120.07" fill="currentColor" stroke="currentColor" stroke-width="1.2" stroke-linecap="round" stroke-linejoin="round" />
  <line x1="10.05" y1="120.77" x2="13.24" y2="120.77" fill="currentColor" stroke="currentColor" stroke-width="1.2" stroke-linecap="round" stroke-linejoin="round" />
  <line x1="187.09" y1="122.01" x2="187.09" y2="119.66" fill="currentColor" stroke="currentColor" stroke-width="1.2" stroke-linecap="round" stroke-linejoin="round" />
  <path d="M190.05,120.83 C190.05,121.02 190.00,121.20 189.91,121.38" fill="currentColor" stroke="currentColor" stroke-width="1.2" stroke-linecap="round" stroke-linejoin="round" />
  <path d="M191.02,121.68 C191.11,121.45 191.16,121.21 191.16,120.98" fill="currentColor" stroke="currentColor" stroke-width="1.2" stroke-linecap="round" stroke-linejoin="round" />
  <path d="M189.91,121.38 C189.82,121.56 189.65,121.71 189.42,121.83" fill="currentColor" stroke="currentColor" stroke-width="1.2" stroke-linecap="round" stroke-linejoin="round" />
  <line x1="9.10" y1="122.98" x2="10.05" y2="120.77" fill="currentColor" stroke="currentColor" stroke-width="1.2" stroke-linecap="round" stroke-linejoin="round" />
  <line x1="13.24" y1="120.77" x2="14.24" y2="122.98" fill="currentColor" stroke="currentColor" stroke-width="1.2" stroke-linecap="round" stroke-linejoin="round" />
  <path d="M189.42,121.83 C189.19,121.95 188.86,122.01 188.44,122.01" fill="currentColor" stroke="currentColor" stroke-width="1.2" stroke-linecap="round" stroke-linejoin="round" />
  <path d="M190.58,122.33 C190.78,122.13 190.93,121.92 191.02,121.68" fill="currentColor" stroke="currentColor" stroke-width="1.2" stroke-linecap="round" stroke-linejoin="round" />
  <line x1="188.44" y1="122.01" x2="187.09" y2="122.01" fill="currentColor" stroke="currentColor" stroke-width="1.2" stroke-linecap="round" stroke-linejoin="round" />
  <path d="M189.78,122.80 C190.11,122.68 190.37,122.52 190.58,122.33" fill="currentColor" stroke="currentColor" stroke-width="1.2" stroke-linecap="round" stroke-linejoin="round" />
  <path d="M188.58,122.98 C189.05,122.98 189.45,122.92 189.78,122.80" fill="currentColor" stroke="currentColor" stroke-width="1.2" stroke-linecap="round" stroke-linejoin="round" />
  <line x1="8.00" y1="122.98" x2="9.10" y2="122.98" fill="currentColor" stroke="currentColor" stroke-width="1.2" stroke-linecap="round" stroke-linejoin="round" />
  <line x1="14.24" y1="122.98" x2="15.34" y2="122.98" fill="currentColor" stroke="currentColor" stroke-width="1.2" stroke-linecap="round" stroke-linejoin="round" />
  <line x1="186.01" y1="122.98" x2="188.58" y2="122.98" fill="currentColor" stroke="currentColor" stroke-width="1.2" stroke-linecap="round" stroke-linejoin="round" />
</svg>