<svg xmlns="http://www.w3.org/2000/svg" viewBox="0 0 109.49 56.50" preserveAspectRatio="xMidYMid meet" shape-rendering="geometricPrecision" text-rendering="optimizeLegibility">
  <path d="M39.14,8.01 C39.21,8.00 39.30,8.00 39.40,8.00" fill="currentColor" stroke="currentColor" stroke-width="1.2" stroke-linecap="round" stroke-linejoin="round" />
  <path d="M39.40,8.00 C39.52,8.00 39.61,8.00 39.69,8.01" fill="currentColor" stroke="currentColor" stroke-width="1.2" stroke-linecap="round" stroke-linejoin="round" />
  <path d="M38.97,8.04 C39.01,8.02 39.07,8.01 39.14,8.01" fill="currentColor" stroke="currentColor" stroke-width="1.2" stroke-linecap="round" stroke-linejoin="round" />
  <path d="M39.69,8.01 C39.76,8.01 39.82,8.02 39.87,8.04" fill="currentColor" stroke="currentColor" stroke-width="1.2" stroke-linecap="round" stroke-linejoin="round" />
  <path d="M78.60,8.11 C78.67,8.06 78.75,8.03 78.83,8.03" fill="currentColor" stroke="currentColor" stroke-width="1.2" stroke-linecap="round" stroke-linejoin="round" />
  <line x1="78.83" y1="8.03" x2="80.41" y2="8.03" fill="currentColor" stroke="currentColor" stroke-width="1.2" stroke-linecap="round" stroke-linejoin="round" />
  <path d="M80.41,8.03 C80.83,8.03 81.17,8.07 81.43,8.15" fill="currentColor" stroke="currentColor" stroke-width="1.2" stroke-linecap="round" stroke-linejoin="round" />
  <path d="M38.86,8.10 C38.89,8.07 38.92,8.05 38.97,8.04" fill="currentColor" stroke="currentColor" stroke-width="1.2" stroke-linecap="round" stroke-linejoin="round" />
  <path d="M39.87,8.04 C39.92,8.05 39.95,8.07 39.98,8.10" fill="currentColor" stroke="currentColor" stroke-width="1.2" stroke-linecap="round" stroke-linejoin="round" />
  <path d="M38.81,8.19 C38.82,8.15 38.84,8.12 38.86,8.10" fill="currentColor" stroke="currentColor" stroke-width="1.2" stroke-linecap="round" stroke-linejoin="round" />
  <path d="M39.98,8.10 C40.00,8.13 40.02,8.16 40.04,8.20" fill="currentColor" stroke="currentColor" stroke-width="1.2" stroke-linecap="round" stroke-linejoin="round" />
  <path d="M78.49,8.41 C78.49,8.27 78.53,8.17 78.60,8.11" fill="currentColor" stroke="currentColor" stroke-width="1.2" stroke-linecap="round" stroke-linejoin="round" />
  <path d="M81.43,8.15 C81.70,8.23 81.92,8.34 82.10,8.49" fill="currentColor" stroke="currentColor" stroke-width="1.2" stroke-linecap="round" stroke-linejoin="round" />
  <line x1="36.48" y1="14.65" x2="38.81" y2="8.19" fill="currentColor" stroke="currentColor" stroke-width="1.2" stroke-linecap="round" stroke-linejoin="round" />
  <line x1="40.04" y1="8.20" x2="42.37" y2="14.65" fill="currentColor" stroke="currentColor" stroke-width="1.2" stroke-linecap="round" stroke-linejoin="round" />
  <line x1="78.49" y1="14.61" x2="78.49" y2="8.41" fill="currentColor" stroke="currentColor" stroke-width="1.2" stroke-linecap="round" stroke-linejoin="round" />
  <path d="M82.10,8.49 C82.27,8.64 82.41,8.83 82.50,9.05" fill="currentColor" stroke="currentColor" stroke-width="1.2" stroke-linecap="round" stroke-linejoin="round" />
  <path d="M81.00,8.86 C80.84,8.81 80.62,8.78 80.36,8.78" fill="currentColor" stroke="currentColor" stroke-width="1.2" stroke-linecap="round" stroke-linejoin="round" />
  <line x1="80.36" y1="8.78" x2="79.40" y2="8.78" fill="currentColor" stroke="currentColor" stroke-width="1.2" stroke-linecap="round" stroke-linejoin="round" />
  <line x1="79.40" y1="8.78" x2="79.40" y2="11.03" fill="currentColor" stroke="currentColor" stroke-width="1.2" stroke-linecap="round" stroke-linejoin="round" />
  <path d="M81.39,9.08 C81.29,8.98 81.16,8.91 81.00,8.86" fill="currentColor" stroke="currentColor" stroke-width="1.2" stroke-linecap="round" stroke-linejoin="round" />
  <line x1="39.38" y1="8.96" x2="39.37" y2="8.96" fill="currentColor" stroke="currentColor" stroke-width="1.2" stroke-linecap="round" stroke-linejoin="round" />
  <line x1="39.37" y1="8.96" x2="38.17" y2="12.42" fill="currentColor" stroke="currentColor" stroke-width="1.2" stroke-linecap="round" stroke-linejoin="round" />
  <line x1="40.59" y1="12.42" x2="39.38" y2="8.96" fill="currentColor" stroke="currentColor" stroke-width="1.2" stroke-linecap="round" stroke-linejoin="round" />
  <path d="M82.50,9.05 C82.59,9.27 82.63,9.51 82.63,9.79" fill="currentColor" stroke="currentColor" stroke-width="1.2" stroke-linecap="round" stroke-linejoin="round" />
  <path d="M81.61,9.42 C81.56,9.29 81.49,9.17 81.39,9.08" fill="currentColor" stroke="currentColor" stroke-width="1.2" stroke-linecap="round" stroke-linejoin="round" />
  <path d="M81.68,9.88 C81.68,9.71 81.66,9.56 81.61,9.42" fill="currentColor" stroke="currentColor" stroke-width="1.2" stroke-linecap="round" stroke-linejoin="round" />
  <path d="M82.63,9.79 C82.63,9.95 82.61,10.11 82.57,10.26" fill="currentColor" stroke="currentColor" stroke-width="1.2" stroke-linecap="round" stroke-linejoin="round" />
  <path d="M81.61,10.32 C81.66,10.18 81.68,10.03 81.68,9.88" fill="currentColor" stroke="currentColor" stroke-width="1.2" stroke-linecap="round" stroke-linejoin="round" />
  <path d="M82.57,10.26 C82.53,10.41 82.47,10.55 82.40,10.68" fill="currentColor" stroke="currentColor" stroke-width="1.2" stroke-linecap="round" stroke-linejoin="round" />
  <path d="M81.40,10.69 C81.50,10.58 81.57,10.46 81.61,10.32" fill="currentColor" stroke="currentColor" stroke-width="1.2" stroke-linecap="round" stroke-linejoin="round" />
  <path d="M82.40,10.68 C82.32,10.80 82.22,10.92 82.11,11.02" fill="currentColor" stroke="currentColor" stroke-width="1.2" stroke-linecap="round" stroke-linejoin="round" />
  <path d="M81.04,10.94 C81.18,10.88 81.30,10.79 81.40,10.69" fill="currentColor" stroke="currentColor" stroke-width="1.2" stroke-linecap="round" stroke-linejoin="round" />
  <path d="M80.46,11.03 C80.70,11.03 80.89,11.00 81.04,10.94" fill="currentColor" stroke="currentColor" stroke-width="1.2" stroke-linecap="round" stroke-linejoin="round" />
  <path d="M82.11,11.02 C81.99,11.12 81.86,11.20 81.71,11.26" fill="currentColor" stroke="currentColor" stroke-width="1.2" stroke-linecap="round" stroke-linejoin="round" />
  <line x1="79.40" y1="11.03" x2="80.46" y2="11.03" fill="currentColor" stroke="currentColor" stroke-width="1.2" stroke-linecap="round" stroke-linejoin="round" />
  <path d="M81.71,11.26 C81.90,11.30 82.07,11.37 82.24,11.46" fill="currentColor" stroke="currentColor" stroke-width="1.2" stroke-linecap="round" stroke-linejoin="round" />
  <path d="M82.24,11.46 C82.40,11.56 82.55,11.68 82.67,11.82" fill="currentColor" stroke="currentColor" stroke-width="1.2" stroke-linecap="round" stroke-linejoin="round" />
  <path d="M81.23,11.85 C81.04,11.80 80.80,11.77 80.51,11.77" fill="currentColor" stroke="currentColor" stroke-width="1.2" stroke-linecap="round" stroke-linejoin="round" />
  <line x1="80.51" y1="11.77" x2="79.40" y2="11.77" fill="currentColor" stroke="currentColor" stroke-width="1.2" stroke-linecap="round" stroke-linejoin="round" />
  <line x1="79.40" y1="11.77" x2="79.40" y2="14.22" fill="currentColor" stroke="currentColor" stroke-width="1.2" stroke-linecap="round" stroke-linejoin="round" />
  <path d="M82.67,11.82 C82.80,11.97 82.89,12.14 82.96,12.34" fill="currentColor" stroke="currentColor" stroke-width="1.2" stroke-linecap="round" stroke-linejoin="round" />
  <path d="M81.71,12.10 C81.58,11.99 81.42,11.91 81.23,11.85" fill="currentColor" stroke="currentColor" stroke-width="1.2" stroke-linecap="round" stroke-linejoin="round" />
  <path d="M82.00,12.49 C81.93,12.34 81.84,12.20 81.71,12.10" fill="currentColor" stroke="currentColor" stroke-width="1.2" stroke-linecap="round" stroke-linejoin="round" />
  <path d="M82.96,12.34 C83.04,12.54 83.07,12.75 83.07,12.99" fill="currentColor" stroke="currentColor" stroke-width="1.2" stroke-linecap="round" stroke-linejoin="round" />
  <line x1="38.17" y1="12.42" x2="40.59" y2="12.42" fill="currentColor" stroke="currentColor" stroke-width="1.2" stroke-linecap="round" stroke-linejoin="round" />
  <path d="M82.10,13.04 C82.10,12.84 82.07,12.65 82.00,12.49" fill="currentColor" stroke="currentColor" stroke-width="1.2" stroke-linecap="round" stroke-linejoin="round" />
  <path d="M83.07,12.99 C83.07,13.21 83.04,13.41 82.99,13.59" fill="currentColor" stroke="currentColor" stroke-width="1.2" stroke-linecap="round" stroke-linejoin="round" />
  <path d="M82.00,13.55 C82.07,13.41 82.10,13.24 82.10,13.04" fill="currentColor" stroke="currentColor" stroke-width="1.2" stroke-linecap="round" stroke-linejoin="round" />
  <line x1="41.43" y1="14.85" x2="40.83" y2="13.16" fill="currentColor" stroke="currentColor" stroke-width="1.2" stroke-linecap="round" stroke-linejoin="round" />
  <line x1="40.83" y1="13.16" x2="37.94" y2="13.16" fill="currentColor" stroke="currentColor" stroke-width="1.2" stroke-linecap="round" stroke-linejoin="round" />
  <line x1="37.94" y1="13.16" x2="37.37" y2="14.83" fill="currentColor" stroke="currentColor" stroke-width="1.2" stroke-linecap="round" stroke-linejoin="round" />
  <path d="M81.72,13.92 C81.84,13.82 81.93,13.70 82.00,13.55" fill="currentColor" stroke="currentColor" stroke-width="1.2" stroke-linecap="round" stroke-linejoin="round" />
  <path d="M82.99,13.59 C82.93,13.78 82.85,13.94 82.75,14.09" fill="currentColor" stroke="currentColor" stroke-width="1.2" stroke-linecap="round" stroke-linejoin="round" />
  <path d="M81.30,14.14 C81.46,14.09 81.60,14.02 81.72,13.92" fill="currentColor" stroke="currentColor" stroke-width="1.2" stroke-linecap="round" stroke-linejoin="round" />
  <path d="M82.75,14.09 C82.65,14.24 82.53,14.37 82.39,14.48" fill="currentColor" stroke="currentColor" stroke-width="1.2" stroke-linecap="round" stroke-linejoin="round" />
  <path d="M80.75,14.22 C80.96,14.22 81.14,14.19 81.30,14.14" fill="currentColor" stroke="currentColor" stroke-width="1.2" stroke-linecap="round" stroke-linejoin="round" />
  <line x1="79.40" y1="14.22" x2="80.75" y2="14.22" fill="currentColor" stroke="currentColor" stroke-width="1.2" stroke-linecap="round" stroke-linejoin="round" />
  <path d="M82.39,14.48 C82.25,14.59 82.09,14.68 81.91,14.76" fill="currentColor" stroke="currentColor" stroke-width="1.2" stroke-linecap="round" stroke-linejoin="round" />
  <path d="M78.60,14.90 C78.53,14.84 78.49,14.75 78.49,14.61" fill="currentColor" stroke="currentColor" stroke-width="1.2" stroke-linecap="round" stroke-linejoin="round" />
  <path d="M36.43,14.84 C36.43,14.79 36.45,14.73 36.48,14.65" fill="currentColor" stroke="currentColor" stroke-width="1.2" stroke-linecap="round" stroke-linejoin="round" />
  <path d="M42.37,14.65 C42.40,14.73 42.41,14.80 42.41,14.85" fill="currentColor" stroke="currentColor" stroke-width="1.2" stroke-linecap="round" stroke-linejoin="round" />
  <path d="M81.91,14.76 C81.74,14.83 81.55,14.89 81.34,14.93" fill="currentColor" stroke="currentColor" stroke-width="1.2" stroke-linecap="round" stroke-linejoin="round" />
  <path d="M37.37,14.83 C37.36,14.86 37.35,14.89 37.33,14.91" fill="currentColor" stroke="currentColor" stroke-width="1.2" stroke-linecap="round" stroke-linejoin="round" />
  <path d="M36.47,14.95 C36.44,14.92 36.43,14.89 36.43,14.84" fill="currentColor" stroke="currentColor" stroke-width="1.2" stroke-linecap="round" stroke-linejoin="round" />
  <path d="M42.41,14.85 C42.42,14.89 42.40,14.93 42.37,14.95" fill="currentColor" stroke="currentColor" stroke-width="1.2" stroke-linecap="round" stroke-linejoin="round" />
  <path d="M41.47,14.93 C41.46,14.91 41.44,14.88 41.43,14.85" fill="currentColor" stroke="currentColor" stroke-width="1.2" stroke-linecap="round" stroke-linejoin="round" />
  <path d="M78.83,14.98 C78.75,14.98 78.67,14.95 78.60,14.90" fill="currentColor" stroke="currentColor" stroke-width="1.2" stroke-linecap="round" stroke-linejoin="round" />
  <path d="M37.33,14.91 C37.31,14.93 37.29,14.95 37.25,14.97" fill="currentColor" stroke="currentColor" stroke-width="1.2" stroke-linecap="round" stroke-linejoin="round" />
  <path d="M81.34,14.93 C81.14,14.96 80.91,14.98 80.65,14.98" fill="currentColor" stroke="currentColor" stroke-width="1.2" stroke-linecap="round" stroke-linejoin="round" />
  <path d="M41.55,14.98 C41.51,14.97 41.49,14.95 41.47,14.93" fill="currentColor" stroke="currentColor" stroke-width="1.2" stroke-linecap="round" stroke-linejoin="round" />
  <path d="M36.61,15.00 C36.54,14.99 36.49,14.98 36.47,14.95" fill="currentColor" stroke="currentColor" stroke-width="1.2" stroke-linecap="round" stroke-linejoin="round" />
  <path d="M42.37,14.95 C42.35,14.98 42.30,15.00 42.23,15.00" fill="currentColor" stroke="currentColor" stroke-width="1.2" stroke-linecap="round" stroke-linejoin="round" />
  <path d="M37.25,14.97 C37.22,14.98 37.17,15.00 37.11,15.00" fill="currentColor" stroke="currentColor" stroke-width="1.2" stroke-linecap="round" stroke-linejoin="round" />
  <path d="M41.70,15.01 C41.63,15.00 41.58,14.99 41.55,14.98" fill="currentColor" stroke="currentColor" stroke-width="1.2" stroke-linecap="round" stroke-linejoin="round" />
  <line x1="80.65" y1="14.98" x2="78.83" y2="14.98" fill="currentColor" stroke="currentColor" stroke-width="1.2" stroke-linecap="round" stroke-linejoin="round" />
  <path d="M36.86,15.01 C36.76,15.01 36.67,15.01 36.61,15.00" fill="currentColor" stroke="currentColor" stroke-width="1.2" stroke-linecap="round" stroke-linejoin="round" />
  <path d="M42.23,15.00 C42.16,15.01 42.08,15.01 41.96,15.01" fill="currentColor" stroke="currentColor" stroke-width="1.2" stroke-linecap="round" stroke-linejoin="round" />
  <path d="M37.11,15.00 C37.04,15.01 36.96,15.01 36.86,15.01" fill="currentColor" stroke="currentColor" stroke-width="1.2" stroke-linecap="round" stroke-linejoin="round" />
  <path d="M41.96,15.01 C41.85,15.01 41.77,15.01 41.70,15.01" fill="currentColor" stroke="currentColor" stroke-width="1.2" stroke-linecap="round" stroke-linejoin="round" />
  <rect x="19.38" y="18.28" width="82.11" height="30.21" fill="none" stroke="currentColor" stroke-width="1.2" stroke-linecap="round" stroke-linejoin="round" />
  <line x1="60.44" y1="48.50" x2="60.44" y2="18.28" fill="none" stroke="currentColor" stroke-width="1.2" stroke-linecap="round" stroke-linejoin="round" />
  <path d="M10.95,22.64 C10.99,22.64 11.05,22.64 11.11,22.64" fill="currentColor" stroke="currentColor" stroke-width="1.2" stroke-linecap="round" stroke-linejoin="round" />
  <path d="M11.11,22.64 C11.20,22.64 11.27,22.64 11.33,22.65" fill="currentColor" stroke="currentColor" stroke-width="1.2" stroke-linecap="round" stroke-linejoin="round" />
  <path d="M10.84,22.65 C10.87,22.65 10.91,22.64 10.95,22.64" fill="currentColor" stroke="currentColor" stroke-width="1.2" stroke-linecap="round" stroke-linejoin="round" />
  <path d="M11.33,22.65 C11.38,22.65 11.43,22.66 11.46,22.68" fill="currentColor" stroke="currentColor" stroke-width="1.2" stroke-linecap="round" stroke-linejoin="round" />
  <path d="M10.76,22.67 C10.78,22.67 10.81,22.66 10.84,22.65" fill="currentColor" stroke="currentColor" stroke-width="1.2" stroke-linecap="round" stroke-linejoin="round" />
  <path d="M10.71,22.70 C10.72,22.69 10.74,22.68 10.76,22.67" fill="currentColor" stroke="currentColor" stroke-width="1.2" stroke-linecap="round" stroke-linejoin="round" />
  <path d="M11.46,22.68 C11.49,22.69 11.52,22.71 11.53,22.72" fill="currentColor" stroke="currentColor" stroke-width="1.2" stroke-linecap="round" stroke-linejoin="round" />
  <line x1="9.10" y1="23.73" x2="10.71" y2="22.70" fill="currentColor" stroke="currentColor" stroke-width="1.2" stroke-linecap="round" stroke-linejoin="round" />
  <path d="M11.53,22.72 C11.54,22.74 11.54,22.77 11.54,22.79" fill="currentColor" stroke="currentColor" stroke-width="1.2" stroke-linecap="round" stroke-linejoin="round" />
  <line x1="11.54" y1="22.79" x2="11.54" y2="28.89" fill="currentColor" stroke="currentColor" stroke-width="1.2" stroke-linecap="round" stroke-linejoin="round" />
  <line x1="10.62" y1="28.89" x2="10.62" y2="23.61" fill="currentColor" stroke="currentColor" stroke-width="1.2" stroke-linecap="round" stroke-linejoin="round" />
  <line x1="10.62" y1="23.61" x2="9.28" y2="24.41" fill="currentColor" stroke="currentColor" stroke-width="1.2" stroke-linecap="round" stroke-linejoin="round" />
  <path d="M9.03,23.79 C9.05,23.77 9.07,23.75 9.10,23.73" fill="currentColor" stroke="currentColor" stroke-width="1.2" stroke-linecap="round" stroke-linejoin="round" />
  <path d="M8.98,23.87 C8.99,23.84 9.01,23.81 9.03,23.79" fill="currentColor" stroke="currentColor" stroke-width="1.2" stroke-linecap="round" stroke-linejoin="round" />
  <path d="M8.96,23.97 C8.96,23.93 8.97,23.89 8.98,23.87" fill="currentColor" stroke="currentColor" stroke-width="1.2" stroke-linecap="round" stroke-linejoin="round" />
  <path d="M8.95,24.13 C8.95,24.07 8.95,24.02 8.96,23.97" fill="currentColor" stroke="currentColor" stroke-width="1.2" stroke-linecap="round" stroke-linejoin="round" />
  <path d="M8.96,24.33 C8.95,24.28 8.95,24.21 8.95,24.13" fill="currentColor" stroke="currentColor" stroke-width="1.2" stroke-linecap="round" stroke-linejoin="round" />
  <path d="M9.01,24.45 C8.99,24.43 8.97,24.39 8.96,24.33" fill="currentColor" stroke="currentColor" stroke-width="1.2" stroke-linecap="round" stroke-linejoin="round" />
  <path d="M9.28,24.41 C9.21,24.44 9.15,24.47 9.11,24.47" fill="currentColor" stroke="currentColor" stroke-width="1.2" stroke-linecap="round" stroke-linejoin="round" />
  <path d="M9.11,24.47 C9.07,24.48 9.04,24.47 9.01,24.45" fill="currentColor" stroke="currentColor" stroke-width="1.2" stroke-linecap="round" stroke-linejoin="round" />
  <path d="M9.09,28.92 C9.11,28.90 9.14,28.89 9.17,28.89" fill="currentColor" stroke="currentColor" stroke-width="1.2" stroke-linecap="round" stroke-linejoin="round" />
  <line x1="9.17" y1="28.89" x2="10.62" y2="28.89" fill="currentColor" stroke="currentColor" stroke-width="1.2" stroke-linecap="round" stroke-linejoin="round" />
  <line x1="11.54" y1="28.89" x2="12.80" y2="28.89" fill="currentColor" stroke="currentColor" stroke-width="1.2" stroke-linecap="round" stroke-linejoin="round" />
  <path d="M12.80,28.89 C12.83,28.89 12.85,28.90 12.88,28.92" fill="currentColor" stroke="currentColor" stroke-width="1.2" stroke-linecap="round" stroke-linejoin="round" />
  <path d="M9.03,28.99 C9.05,28.96 9.07,28.93 9.09,28.92" fill="currentColor" stroke="currentColor" stroke-width="1.2" stroke-linecap="round" stroke-linejoin="round" />
  <path d="M12.88,28.92 C12.90,28.93 12.93,28.96 12.94,28.99" fill="currentColor" stroke="currentColor" stroke-width="1.2" stroke-linecap="round" stroke-linejoin="round" />
  <path d="M8.99,29.10 C9.00,29.06 9.02,29.02 9.03,28.99" fill="currentColor" stroke="currentColor" stroke-width="1.2" stroke-linecap="round" stroke-linejoin="round" />
  <path d="M12.94,28.99 C12.96,29.02 12.97,29.06 12.98,29.10" fill="currentColor" stroke="currentColor" stroke-width="1.2" stroke-linecap="round" stroke-linejoin="round" />
  <path d="M8.97,29.27 C8.97,29.20 8.98,29.15 8.99,29.10" fill="currentColor" stroke="currentColor" stroke-width="1.2" stroke-linecap="round" stroke-linejoin="round" />
  <path d="M12.98,29.10 C12.99,29.15 12.99,29.20 12.99,29.27" fill="currentColor" stroke="currentColor" stroke-width="1.2" stroke-linecap="round" stroke-linejoin="round" />
  <path d="M12.99,29.27 C12.99,29.34 12.99,29.39 12.98,29.44" fill="currentColor" stroke="currentColor" stroke-width="1.2" stroke-linecap="round" stroke-linejoin="round" />
  <path d="M8.99,29.44 C8.98,29.39 8.97,29.34 8.97,29.27" fill="currentColor" stroke="currentColor" stroke-width="1.2" stroke-linecap="round" stroke-linejoin="round" />
  <path d="M12.98,29.44 C12.97,29.49 12.95,29.53 12.93,29.55" fill="currentColor" stroke="currentColor" stroke-width="1.2" stroke-linecap="round" stroke-linejoin="round" />
  <path d="M9.04,29.55 C9.02,29.53 9.00,29.49 8.99,29.44" fill="currentColor" stroke="currentColor" stroke-width="1.2" stroke-linecap="round" stroke-linejoin="round" />
  <path d="M12.93,29.55 C12.92,29.58 12.89,29.60 12.87,29.62" fill="currentColor" stroke="currentColor" stroke-width="1.2" stroke-linecap="round" stroke-linejoin="round" />
  <path d="M9.10,29.62 C9.08,29.60 9.06,29.58 9.04,29.55" fill="currentColor" stroke="currentColor" stroke-width="1.2" stroke-linecap="round" stroke-linejoin="round" />
  <path d="M12.87,29.62 C12.85,29.63 12.82,29.63 12.80,29.63" fill="currentColor" stroke="currentColor" stroke-width="1.2" stroke-linecap="round" stroke-linejoin="round" />
  <path d="M9.17,29.63 C9.14,29.63 9.12,29.63 9.10,29.62" fill="currentColor" stroke="currentColor" stroke-width="1.2" stroke-linecap="round" stroke-linejoin="round" />
  <line x1="12.80" y1="29.63" x2="9.17" y2="29.63" fill="currentColor" stroke="currentColor" stroke-width="1.2" stroke-linecap="round" stroke-linejoin="round" />
  <line x1="19.38" y1="33.39" x2="101.49" y2="33.39" fill="none" stroke="currentColor" stroke-width="1.2" stroke-linecap="round" stroke-linejoin="round" />
  <path d="M9.42,37.76 C9.61,37.71 9.81,37.69 10.02,37.69" fill="currentColor" stroke="currentColor" stroke-width="1.2" stroke-linecap="round" stroke-linejoin="round" />
  <path d="M10.02,37.69 C10.36,37.69 10.66,37.74 10.91,37.83" fill="currentColor" stroke="currentColor" stroke-width="1.2" stroke-linecap="round" stroke-linejoin="round" />
  <path d="M8.89,37.91 C9.05,37.85 9.23,37.80 9.42,37.76" fill="currentColor" stroke="currentColor" stroke-width="1.2" stroke-linecap="round" stroke-linejoin="round" />
  <path d="M10.91,37.83 C11.16,37.93 11.37,38.06 11.54,38.22" fill="currentColor" stroke="currentColor" stroke-width="1.2" stroke-linecap="round" stroke-linejoin="round" />
  <path d="M8.50,38.11 C8.60,38.04 8.74,37.98 8.89,37.91" fill="currentColor" stroke="currentColor" stroke-width="1.2" stroke-linecap="round" stroke-linejoin="round" />
  <path d="M8.27,38.26 C8.32,38.22 8.39,38.17 8.50,38.11" fill="currentColor" stroke="currentColor" stroke-width="1.2" stroke-linecap="round" stroke-linejoin="round" />
  <path d="M11.54,38.22 C11.70,38.39 11.83,38.58 11.91,38.80" fill="currentColor" stroke="currentColor" stroke-width="1.2" stroke-linecap="round" stroke-linejoin="round" />
  <path d="M8.19,38.35 C8.20,38.33 8.23,38.30 8.27,38.26" fill="currentColor" stroke="currentColor" stroke-width="1.2" stroke-linecap="round" stroke-linejoin="round" />
  <path d="M8.15,38.43 C8.16,38.40 8.17,38.38 8.19,38.35" fill="currentColor" stroke="currentColor" stroke-width="1.2" stroke-linecap="round" stroke-linejoin="round" />
  <path d="M8.13,38.53 C8.14,38.50 8.14,38.46 8.15,38.43" fill="currentColor" stroke="currentColor" stroke-width="1.2" stroke-linecap="round" stroke-linejoin="round" />
  <path d="M10.35,38.60 C10.20,38.54 10.04,38.51 9.85,38.51" fill="currentColor" stroke="currentColor" stroke-width="1.2" stroke-linecap="round" stroke-linejoin="round" />
  <path d="M9.85,38.51 C9.63,38.51 9.44,38.54 9.26,38.60" fill="currentColor" stroke="currentColor" stroke-width="1.2" stroke-linecap="round" stroke-linejoin="round" />
  <path d="M8.13,38.67 C8.13,38.62 8.13,38.57 8.13,38.53" fill="currentColor" stroke="currentColor" stroke-width="1.2" stroke-linecap="round" stroke-linejoin="round" />
  <path d="M10.71,38.85 C10.61,38.74 10.49,38.66 10.35,38.60" fill="currentColor" stroke="currentColor" stroke-width="1.2" stroke-linecap="round" stroke-linejoin="round" />
  <path d="M9.26,38.60 C9.09,38.66 8.94,38.73 8.81,38.80" fill="currentColor" stroke="currentColor" stroke-width="1.2" stroke-linecap="round" stroke-linejoin="round" />
  <path d="M8.14,38.87 C8.13,38.81 8.13,38.75 8.13,38.67" fill="currentColor" stroke="currentColor" stroke-width="1.2" stroke-linecap="round" stroke-linejoin="round" />
  <path d="M8.81,38.80 C8.68,38.87 8.57,38.94 8.48,39.00" fill="currentColor" stroke="currentColor" stroke-width="1.2" stroke-linecap="round" stroke-linejoin="round" />
  <path d="M11.91,38.80 C11.99,39.02 12.03,39.25 12.03,39.50" fill="currentColor" stroke="currentColor" stroke-width="1.2" stroke-linecap="round" stroke-linejoin="round" />
  <path d="M10.92,39.21 C10.87,39.07 10.80,38.95 10.71,38.85" fill="currentColor" stroke="currentColor" stroke-width="1.2" stroke-linecap="round" stroke-linejoin="round" />
  <path d="M8.17,39.00 C8.16,38.96 8.15,38.92 8.14,38.87" fill="currentColor" stroke="currentColor" stroke-width="1.2" stroke-linecap="round" stroke-linejoin="round" />
  <path d="M8.48,39.00 C8.39,39.06 8.33,39.09 8.29,39.09" fill="currentColor" stroke="currentColor" stroke-width="1.2" stroke-linecap="round" stroke-linejoin="round" />
  <path d="M8.22,39.07 C8.20,39.05 8.18,39.03 8.17,39.00" fill="currentColor" stroke="currentColor" stroke-width="1.2" stroke-linecap="round" stroke-linejoin="round" />
  <path d="M8.29,39.09 C8.26,39.09 8.24,39.08 8.22,39.07" fill="currentColor" stroke="currentColor" stroke-width="1.2" stroke-linecap="round" stroke-linejoin="round" />
  <path d="M11.00,39.65 C11.00,39.49 10.97,39.35 10.92,39.21" fill="currentColor" stroke="currentColor" stroke-width="1.2" stroke-linecap="round" stroke-linejoin="round" />
  <path d="M12.03,39.50 C12.03,39.72 12.01,39.94 11.97,40.16" fill="currentColor" stroke="currentColor" stroke-width="1.2" stroke-linecap="round" stroke-linejoin="round" />
  <path d="M10.95,40.14 C10.98,39.97 11.00,39.80 11.00,39.65" fill="currentColor" stroke="currentColor" stroke-width="1.2" stroke-linecap="round" stroke-linejoin="round" />
  <path d="M10.75,40.73 C10.85,40.51 10.92,40.32 10.95,40.14" fill="currentColor" stroke="currentColor" stroke-width="1.2" stroke-linecap="round" stroke-linejoin="round" />
  <path d="M11.97,40.16 C11.93,40.38 11.85,40.62 11.72,40.87" fill="currentColor" stroke="currentColor" stroke-width="1.2" stroke-linecap="round" stroke-linejoin="round" />
  <path d="M10.31,41.44 C10.50,41.18 10.65,40.94 10.75,40.73" fill="currentColor" stroke="currentColor" stroke-width="1.2" stroke-linecap="round" stroke-linejoin="round" />
  <path d="M11.72,40.87 C11.60,41.13 11.41,41.41 11.17,41.73" fill="currentColor" stroke="currentColor" stroke-width="1.2" stroke-linecap="round" stroke-linejoin="round" />
  <path d="M9.56,42.33 C9.88,42.00 10.12,41.70 10.31,41.44" fill="currentColor" stroke="currentColor" stroke-width="1.2" stroke-linecap="round" stroke-linejoin="round" />
  <path d="M11.17,41.73 C10.93,42.04 10.62,42.40 10.22,42.81" fill="currentColor" stroke="currentColor" stroke-width="1.2" stroke-linecap="round" stroke-linejoin="round" />
  <line x1="8.21" y1="43.76" x2="9.56" y2="42.33" fill="currentColor" stroke="currentColor" stroke-width="1.2" stroke-linecap="round" stroke-linejoin="round" />
  <line x1="10.22" y1="42.81" x2="9.12" y2="43.96" fill="currentColor" stroke="currentColor" stroke-width="1.2" stroke-linecap="round" stroke-linejoin="round" />
  <path d="M8.11,43.89 C8.14,43.85 8.17,43.80 8.21,43.76" fill="currentColor" stroke="currentColor" stroke-width="1.2" stroke-linecap="round" stroke-linejoin="round" />
  <path d="M8.04,44.01 C8.06,43.97 8.08,43.93 8.11,43.89" fill="currentColor" stroke="currentColor" stroke-width="1.2" stroke-linecap="round" stroke-linejoin="round" />
  <line x1="9.12" y1="43.96" x2="12.14" y2="43.96" fill="currentColor" stroke="currentColor" stroke-width="1.2" stroke-linecap="round" stroke-linejoin="round" />
  <path d="M12.14,43.96 C12.17,43.96 12.20,43.97 12.22,43.98" fill="currentColor" stroke="currentColor" stroke-width="1.2" stroke-linecap="round" stroke-linejoin="round" />
  <path d="M12.22,43.98 C12.25,44.00 12.27,44.02 12.29,44.06" fill="currentColor" stroke="currentColor" stroke-width="1.2" stroke-linecap="round" stroke-linejoin="round" />
  <path d="M8.01,44.15 C8.01,44.10 8.02,44.05 8.04,44.01" fill="currentColor" stroke="currentColor" stroke-width="1.2" stroke-linecap="round" stroke-linejoin="round" />
  <path d="M12.29,44.06 C12.31,44.09 12.33,44.13 12.34,44.18" fill="currentColor" stroke="currentColor" stroke-width="1.2" stroke-linecap="round" stroke-linejoin="round" />
  <path d="M8.00,44.34 C8.00,44.27 8.00,44.21 8.01,44.15" fill="currentColor" stroke="currentColor" stroke-width="1.2" stroke-linecap="round" stroke-linejoin="round" />
  <path d="M12.34,44.18 C12.35,44.23 12.35,44.28 12.35,44.35" fill="currentColor" stroke="currentColor" stroke-width="1.2" stroke-linecap="round" stroke-linejoin="round" />
  <path d="M8.02,44.54 C8.01,44.49 8.00,44.42 8.00,44.34" fill="currentColor" stroke="currentColor" stroke-width="1.2" stroke-linecap="round" stroke-linejoin="round" />
  <path d="M12.35,44.35 C12.35,44.41 12.35,44.47 12.34,44.52" fill="currentColor" stroke="currentColor" stroke-width="1.2" stroke-linecap="round" stroke-linejoin="round" />
  <path d="M12.34,44.52 C12.33,44.57 12.32,44.61 12.30,44.64" fill="currentColor" stroke="currentColor" stroke-width="1.2" stroke-linecap="round" stroke-linejoin="round" />
  <path d="M8.08,44.66 C8.05,44.63 8.03,44.59 8.02,44.54" fill="currentColor" stroke="currentColor" stroke-width="1.2" stroke-linecap="round" stroke-linejoin="round" />
  <path d="M12.30,44.64 C12.28,44.68 12.26,44.70 12.24,44.72" fill="currentColor" stroke="currentColor" stroke-width="1.2" stroke-linecap="round" stroke-linejoin="round" />
  <path d="M8.18,44.72 C8.14,44.71 8.10,44.69 8.08,44.66" fill="currentColor" stroke="currentColor" stroke-width="1.2" stroke-linecap="round" stroke-linejoin="round" />
  <path d="M12.24,44.72 C12.21,44.74 12.18,44.74 12.15,44.74" fill="currentColor" stroke="currentColor" stroke-width="1.2" stroke-linecap="round" stroke-linejoin="round" />
  <path d="M8.31,44.74 C8.26,44.74 8.21,44.74 8.18,44.72" fill="currentColor" stroke="currentColor" stroke-width="1.2" stroke-linecap="round" stroke-linejoin="round" />
  <line x1="12.15" y1="44.74" x2="8.31" y2="44.74" fill="currentColor" stroke="currentColor" stroke-width="1.2" stroke-linecap="round" stroke-linejoin="round" />
</svg>