<svg xmlns="http://www.w3.org/2000/svg" viewBox="0 0 345.18 256.27" preserveAspectRatio="xMidYMid meet" shape-rendering="geometricPrecision" text-rendering="optimizeLegibility">
  <line x1="186.83" y1="20.00" x2="182.83" y2="8.00" fill="currentColor" stroke="currentColor" stroke-width="1.2" stroke-linecap="round" stroke-linejoin="round" />
  <line x1="182.83" y1="8.00" x2="178.83" y2="20.00" fill="currentColor" stroke="currentColor" stroke-width="1.2" stroke-linecap="round" stroke-linejoin="round" />
  <line x1="178.83" y1="20.00" x2="182.83" y2="18.67" fill="currentColor" stroke="currentColor" stroke-width="1.2" stroke-linecap="round" stroke-linejoin="round" />
  <line x1="182.83" y1="18.67" x2="186.83" y2="20.00" fill="currentColor" stroke="currentColor" stroke-width="1.2" stroke-linecap="round" stroke-linejoin="round" />
  <line x1="178.01" y1="24.15" x2="177.03" y2="24.15" fill="currentColor" stroke="currentColor" stroke-width="1.2" stroke-linecap="round" stroke-linejoin="round" />
  <line x1="174.80" y1="24.15" x2="173.86" y2="24.15" fill="currentColor" stroke="currentColor" stroke-width="1.2" stroke-linecap="round" stroke-linejoin="round" />
  <line x1="177.03" y1="24.15" x2="175.48" y2="27.54" fill="currentColor" stroke="currentColor" stroke-width="1.2" stroke-linecap="round" stroke-linejoin="round" />
  <line x1="175.46" y1="27.54" x2="174.80" y2="24.15" fill="currentColor" stroke="currentColor" stroke-width="1.2" stroke-linecap="round" stroke-linejoin="round" />
  <line x1="173.86" y1="24.15" x2="174.82" y2="28.79" fill="currentColor" stroke="currentColor" stroke-width="1.2" stroke-linecap="round" stroke-linejoin="round" />
  <line x1="175.48" y1="27.54" x2="175.46" y2="27.54" fill="currentColor" stroke="currentColor" stroke-width="1.2" stroke-linecap="round" stroke-linejoin="round" />
  <line x1="174.47" y1="31.61" x2="178.01" y2="24.15" fill="currentColor" stroke="currentColor" stroke-width="1.2" stroke-linecap="round" stroke-linejoin="round" />
  <line x1="174.82" y1="28.79" x2="173.48" y2="31.61" fill="currentColor" stroke="currentColor" stroke-width="1.2" stroke-linecap="round" stroke-linejoin="round" />
  <line x1="173.48" y1="31.61" x2="174.47" y2="31.61" fill="currentColor" stroke="currentColor" stroke-width="1.2" stroke-linecap="round" stroke-linejoin="round" />
  <line x1="58.27" y1="45.11" x2="305.71" y2="45.11" fill="none" stroke="currentColor" stroke-width="1.0" stroke-linecap="round" stroke-linejoin="round" />
  <line x1="27.04" y1="50.34" x2="26.10" y2="50.34" fill="currentColor" stroke="currentColor" stroke-width="1.2" stroke-linecap="round" stroke-linejoin="round" />
  <line x1="41.24" y1="51.36" x2="40.34" y2="51.36" fill="currentColor" stroke="currentColor" stroke-width="1.2" stroke-linecap="round" stroke-linejoin="round" />
  <line x1="40.34" y1="51.36" x2="40.34" y2="53.51" fill="currentColor" stroke="currentColor" stroke-width="1.2" stroke-linecap="round" stroke-linejoin="round" />
  <line x1="41.24" y1="53.51" x2="41.24" y2="51.36" fill="currentColor" stroke="currentColor" stroke-width="1.2" stroke-linecap="round" stroke-linejoin="round" />
  <line x1="26.36" y1="55.02" x2="27.04" y2="50.34" fill="currentColor" stroke="currentColor" stroke-width="1.2" stroke-linecap="round" stroke-linejoin="round" />
  <path d="M50.98,52.91 C50.82,52.85 50.67,52.82 50.54,52.82" fill="currentColor" stroke="currentColor" stroke-width="1.2" stroke-linecap="round" stroke-linejoin="round" />
  <path d="M53.51,52.82 C53.34,52.82 53.16,52.85 52.97,52.92" fill="currentColor" stroke="currentColor" stroke-width="1.2" stroke-linecap="round" stroke-linejoin="round" />
  <line x1="29.64" y1="52.90" x2="28.45" y2="52.90" fill="currentColor" stroke="currentColor" stroke-width="1.2" stroke-linecap="round" stroke-linejoin="round" />
  <line x1="12.53" y1="52.90" x2="11.55" y2="52.90" fill="currentColor" stroke="currentColor" stroke-width="1.2" stroke-linecap="round" stroke-linejoin="round" />
  <line x1="9.32" y1="52.90" x2="8.38" y2="52.90" fill="currentColor" stroke="currentColor" stroke-width="1.2" stroke-linecap="round" stroke-linejoin="round" />
  <line x1="34.70" y1="52.90" x2="33.55" y2="52.90" fill="currentColor" stroke="currentColor" stroke-width="1.2" stroke-linecap="round" stroke-linejoin="round" />
  <line x1="31.48" y1="52.90" x2="30.48" y2="52.90" fill="currentColor" stroke="currentColor" stroke-width="1.2" stroke-linecap="round" stroke-linejoin="round" />
  <line x1="48.94" y1="52.90" x2="48.01" y2="52.90" fill="currentColor" stroke="currentColor" stroke-width="1.2" stroke-linecap="round" stroke-linejoin="round" />
  <path d="M54.16,53.01 C53.96,52.89 53.75,52.82 53.51,52.82" fill="currentColor" stroke="currentColor" stroke-width="1.2" stroke-linecap="round" stroke-linejoin="round" />
  <path d="M50.54,52.82 C50.26,52.82 49.99,52.90 49.70,53.05" fill="currentColor" stroke="currentColor" stroke-width="1.2" stroke-linecap="round" stroke-linejoin="round" />
  <path d="M51.40,53.25 C51.27,53.08 51.13,52.97 50.98,52.91" fill="currentColor" stroke="currentColor" stroke-width="1.2" stroke-linecap="round" stroke-linejoin="round" />
  <path d="M52.97,52.92 C52.77,52.98 52.57,53.09 52.35,53.26" fill="currentColor" stroke="currentColor" stroke-width="1.2" stroke-linecap="round" stroke-linejoin="round" />
  <path d="M54.59,53.60 C54.49,53.33 54.35,53.14 54.16,53.01" fill="currentColor" stroke="currentColor" stroke-width="1.2" stroke-linecap="round" stroke-linejoin="round" />
  <line x1="48.81" y1="53.76" x2="48.94" y2="52.90" fill="currentColor" stroke="currentColor" stroke-width="1.2" stroke-linecap="round" stroke-linejoin="round" />
  <path d="M49.70,53.05 C49.42,53.20 49.13,53.44 48.83,53.78" fill="currentColor" stroke="currentColor" stroke-width="1.2" stroke-linecap="round" stroke-linejoin="round" />
  <line x1="40.34" y1="53.51" x2="38.20" y2="53.51" fill="currentColor" stroke="currentColor" stroke-width="1.2" stroke-linecap="round" stroke-linejoin="round" />
  <line x1="43.39" y1="53.51" x2="41.24" y2="53.51" fill="currentColor" stroke="currentColor" stroke-width="1.2" stroke-linecap="round" stroke-linejoin="round" />
  <path d="M51.66,53.93 C51.61,53.64 51.52,53.41 51.40,53.25" fill="currentColor" stroke="currentColor" stroke-width="1.2" stroke-linecap="round" stroke-linejoin="round" />
  <path d="M52.35,53.26 C52.13,53.42 51.90,53.64 51.66,53.93" fill="currentColor" stroke="currentColor" stroke-width="1.2" stroke-linecap="round" stroke-linejoin="round" />
  <path d="M52.81,53.66 C52.97,53.59 53.10,53.56 53.21,53.56" fill="currentColor" stroke="currentColor" stroke-width="1.2" stroke-linecap="round" stroke-linejoin="round" />
  <path d="M49.73,53.70 C49.89,53.61 50.04,53.56 50.16,53.56" fill="currentColor" stroke="currentColor" stroke-width="1.2" stroke-linecap="round" stroke-linejoin="round" />
  <path d="M53.21,53.56 C53.41,53.56 53.56,53.65 53.65,53.83" fill="currentColor" stroke="currentColor" stroke-width="1.2" stroke-linecap="round" stroke-linejoin="round" />
  <path d="M50.16,53.56 C50.42,53.56 50.59,53.67 50.68,53.87" fill="currentColor" stroke="currentColor" stroke-width="1.2" stroke-linecap="round" stroke-linejoin="round" />
  <line x1="33.55" y1="52.90" x2="32.26" y2="54.56" fill="currentColor" stroke="currentColor" stroke-width="1.2" stroke-linecap="round" stroke-linejoin="round" />
  <line x1="32.26" y1="54.56" x2="31.48" y2="52.90" fill="currentColor" stroke="currentColor" stroke-width="1.2" stroke-linecap="round" stroke-linejoin="round" />
  <line x1="48.83" y1="53.78" x2="48.81" y2="53.76" fill="currentColor" stroke="currentColor" stroke-width="1.2" stroke-linecap="round" stroke-linejoin="round" />
  <path d="M52.29,54.01 C52.48,53.84 52.66,53.72 52.81,53.66" fill="currentColor" stroke="currentColor" stroke-width="1.2" stroke-linecap="round" stroke-linejoin="round" />
  <path d="M49.21,54.10 C49.39,53.93 49.57,53.80 49.73,53.70" fill="currentColor" stroke="currentColor" stroke-width="1.2" stroke-linecap="round" stroke-linejoin="round" />
  <line x1="38.20" y1="53.51" x2="38.20" y2="54.41" fill="currentColor" stroke="currentColor" stroke-width="1.2" stroke-linecap="round" stroke-linejoin="round" />
  <line x1="43.39" y1="54.41" x2="43.39" y2="53.51" fill="currentColor" stroke="currentColor" stroke-width="1.2" stroke-linecap="round" stroke-linejoin="round" />
  <line x1="28.45" y1="52.90" x2="26.39" y2="55.05" fill="currentColor" stroke="currentColor" stroke-width="1.2" stroke-linecap="round" stroke-linejoin="round" />
  <line x1="30.48" y1="52.90" x2="31.65" y2="55.22" fill="currentColor" stroke="currentColor" stroke-width="1.2" stroke-linecap="round" stroke-linejoin="round" />
  <line x1="27.38" y1="55.23" x2="29.64" y2="52.90" fill="currentColor" stroke="currentColor" stroke-width="1.2" stroke-linecap="round" stroke-linejoin="round" />
  <line x1="26.10" y1="50.34" x2="25.06" y2="57.84" fill="currentColor" stroke="currentColor" stroke-width="1.2" stroke-linecap="round" stroke-linejoin="round" />
  <path d="M54.64,54.64 C54.69,54.21 54.68,53.87 54.59,53.60" fill="currentColor" stroke="currentColor" stroke-width="1.2" stroke-linecap="round" stroke-linejoin="round" />
  <line x1="32.71" y1="55.34" x2="34.70" y2="52.90" fill="currentColor" stroke="currentColor" stroke-width="1.2" stroke-linecap="round" stroke-linejoin="round" />
  <path d="M53.65,53.83 C53.74,54.01 53.76,54.27 53.71,54.59" fill="currentColor" stroke="currentColor" stroke-width="1.2" stroke-linecap="round" stroke-linejoin="round" />
  <path d="M50.68,53.87 C50.76,54.07 50.77,54.35 50.71,54.72" fill="currentColor" stroke="currentColor" stroke-width="1.2" stroke-linecap="round" stroke-linejoin="round" />
  <path d="M51.66,54.70 C51.88,54.41 52.10,54.17 52.29,54.01" fill="currentColor" stroke="currentColor" stroke-width="1.2" stroke-linecap="round" stroke-linejoin="round" />
  <path d="M48.68,54.71 C48.85,54.47 49.03,54.27 49.21,54.10" fill="currentColor" stroke="currentColor" stroke-width="1.2" stroke-linecap="round" stroke-linejoin="round" />
  <line x1="38.20" y1="54.41" x2="40.34" y2="54.41" fill="currentColor" stroke="currentColor" stroke-width="1.2" stroke-linecap="round" stroke-linejoin="round" />
  <line x1="41.24" y1="54.41" x2="43.39" y2="54.41" fill="currentColor" stroke="currentColor" stroke-width="1.2" stroke-linecap="round" stroke-linejoin="round" />
  <line x1="11.55" y1="52.90" x2="10.00" y2="56.30" fill="currentColor" stroke="currentColor" stroke-width="1.2" stroke-linecap="round" stroke-linejoin="round" />
  <line x1="9.98" y1="56.30" x2="9.32" y2="52.90" fill="currentColor" stroke="currentColor" stroke-width="1.2" stroke-linecap="round" stroke-linejoin="round" />
  <line x1="26.39" y1="55.05" x2="26.36" y2="55.02" fill="currentColor" stroke="currentColor" stroke-width="1.2" stroke-linecap="round" stroke-linejoin="round" />
  <line x1="8.38" y1="52.90" x2="9.34" y2="57.54" fill="currentColor" stroke="currentColor" stroke-width="1.2" stroke-linecap="round" stroke-linejoin="round" />
  <line x1="48.01" y1="52.90" x2="47.30" y2="57.84" fill="currentColor" stroke="currentColor" stroke-width="1.2" stroke-linecap="round" stroke-linejoin="round" />
  <line x1="40.34" y1="54.41" x2="40.34" y2="56.55" fill="currentColor" stroke="currentColor" stroke-width="1.2" stroke-linecap="round" stroke-linejoin="round" />
  <line x1="41.24" y1="56.55" x2="41.24" y2="54.41" fill="currentColor" stroke="currentColor" stroke-width="1.2" stroke-linecap="round" stroke-linejoin="round" />
  <line x1="53.71" y1="54.59" x2="53.25" y2="57.84" fill="currentColor" stroke="currentColor" stroke-width="1.2" stroke-linecap="round" stroke-linejoin="round" />
  <line x1="54.19" y1="57.84" x2="54.64" y2="54.64" fill="currentColor" stroke="currentColor" stroke-width="1.2" stroke-linecap="round" stroke-linejoin="round" />
  <line x1="51.21" y1="57.84" x2="51.66" y2="54.70" fill="currentColor" stroke="currentColor" stroke-width="1.2" stroke-linecap="round" stroke-linejoin="round" />
  <line x1="48.24" y1="57.84" x2="48.68" y2="54.71" fill="currentColor" stroke="currentColor" stroke-width="1.2" stroke-linecap="round" stroke-linejoin="round" />
  <line x1="50.71" y1="54.72" x2="50.27" y2="57.84" fill="currentColor" stroke="currentColor" stroke-width="1.2" stroke-linecap="round" stroke-linejoin="round" />
  <line x1="10.00" y1="56.30" x2="9.98" y2="56.30" fill="currentColor" stroke="currentColor" stroke-width="1.2" stroke-linecap="round" stroke-linejoin="round" />
  <line x1="31.65" y1="55.22" x2="29.49" y2="57.84" fill="currentColor" stroke="currentColor" stroke-width="1.2" stroke-linecap="round" stroke-linejoin="round" />
  <line x1="29.79" y1="57.84" x2="27.38" y2="55.23" fill="currentColor" stroke="currentColor" stroke-width="1.2" stroke-linecap="round" stroke-linejoin="round" />
  <line x1="40.34" y1="56.55" x2="41.24" y2="56.55" fill="currentColor" stroke="currentColor" stroke-width="1.2" stroke-linecap="round" stroke-linejoin="round" />
  <line x1="25.98" y1="57.84" x2="26.33" y2="55.33" fill="currentColor" stroke="currentColor" stroke-width="1.2" stroke-linecap="round" stroke-linejoin="round" />
  <line x1="26.33" y1="55.33" x2="28.61" y2="57.84" fill="currentColor" stroke="currentColor" stroke-width="1.2" stroke-linecap="round" stroke-linejoin="round" />
  <line x1="33.97" y1="57.84" x2="32.71" y2="55.34" fill="currentColor" stroke="currentColor" stroke-width="1.2" stroke-linecap="round" stroke-linejoin="round" />
  <line x1="8.99" y1="60.37" x2="12.53" y2="52.90" fill="currentColor" stroke="currentColor" stroke-width="1.2" stroke-linecap="round" stroke-linejoin="round" />
  <line x1="30.63" y1="57.84" x2="32.06" y2="55.99" fill="currentColor" stroke="currentColor" stroke-width="1.2" stroke-linecap="round" stroke-linejoin="round" />
  <line x1="32.06" y1="55.99" x2="32.96" y2="57.84" fill="currentColor" stroke="currentColor" stroke-width="1.2" stroke-linecap="round" stroke-linejoin="round" />
  <line x1="25.06" y1="57.84" x2="25.98" y2="57.84" fill="currentColor" stroke="currentColor" stroke-width="1.2" stroke-linecap="round" stroke-linejoin="round" />
  <line x1="28.61" y1="57.84" x2="29.79" y2="57.84" fill="currentColor" stroke="currentColor" stroke-width="1.2" stroke-linecap="round" stroke-linejoin="round" />
  <line x1="29.49" y1="57.84" x2="30.63" y2="57.84" fill="currentColor" stroke="currentColor" stroke-width="1.2" stroke-linecap="round" stroke-linejoin="round" />
  <line x1="32.96" y1="57.84" x2="33.97" y2="57.84" fill="currentColor" stroke="currentColor" stroke-width="1.2" stroke-linecap="round" stroke-linejoin="round" />
  <line x1="47.30" y1="57.84" x2="48.24" y2="57.84" fill="currentColor" stroke="currentColor" stroke-width="1.2" stroke-linecap="round" stroke-linejoin="round" />
  <line x1="50.27" y1="57.84" x2="51.21" y2="57.84" fill="currentColor" stroke="currentColor" stroke-width="1.2" stroke-linecap="round" stroke-linejoin="round" />
  <line x1="53.25" y1="57.84" x2="54.19" y2="57.84" fill="currentColor" stroke="currentColor" stroke-width="1.2" stroke-linecap="round" stroke-linejoin="round" />
  <line x1="9.34" y1="57.54" x2="8.00" y2="60.37" fill="currentColor" stroke="currentColor" stroke-width="1.2" stroke-linecap="round" stroke-linejoin="round" />
  <line x1="58.27" y1="59.29" x2="305.71" y2="59.29" fill="none" stroke="currentColor" stroke-width="1.0" stroke-linecap="round" stroke-linejoin="round" />
  <line x1="8.00" y1="60.37" x2="8.99" y2="60.37" fill="currentColor" stroke="currentColor" stroke-width="1.2" stroke-linecap="round" stroke-linejoin="round" />
  <line x1="58.27" y1="73.46" x2="305.71" y2="73.46" fill="none" stroke="currentColor" stroke-width="1.0" stroke-linecap="round" stroke-linejoin="round" />
  <line x1="58.27" y1="87.63" x2="305.71" y2="87.63" fill="none" stroke="currentColor" stroke-width="1.0" stroke-linecap="round" stroke-linejoin="round" />
  <path d="M176.90,98.60 C176.65,98.60 176.42,98.62 176.21,98.67" fill="currentColor" stroke="currentColor" stroke-width="1.2" stroke-linecap="round" stroke-linejoin="round" />
  <path d="M177.97,98.82 C177.67,98.68 177.31,98.60 176.90,98.60" fill="currentColor" stroke="currentColor" stroke-width="1.2" stroke-linecap="round" stroke-linejoin="round" />
  <path d="M176.21,98.67 C176.00,98.72 175.79,98.79 175.59,98.89" fill="currentColor" stroke="currentColor" stroke-width="1.2" stroke-linecap="round" stroke-linejoin="round" />
  <path d="M178.66,99.44 C178.50,99.17 178.27,98.97 177.97,98.82" fill="currentColor" stroke="currentColor" stroke-width="1.2" stroke-linecap="round" stroke-linejoin="round" />
  <line x1="175.59" y1="98.89" x2="175.59" y2="99.82" fill="currentColor" stroke="currentColor" stroke-width="1.2" stroke-linecap="round" stroke-linejoin="round" />
  <path d="M176.39,99.56 C176.51,99.54 176.63,99.53 176.75,99.53" fill="currentColor" stroke="currentColor" stroke-width="1.2" stroke-linecap="round" stroke-linejoin="round" />
  <path d="M176.75,99.53 C176.99,99.53 177.20,99.57 177.38,99.65" fill="currentColor" stroke="currentColor" stroke-width="1.2" stroke-linecap="round" stroke-linejoin="round" />
  <path d="M176.02,99.65 C176.15,99.61 176.27,99.58 176.39,99.56" fill="currentColor" stroke="currentColor" stroke-width="1.2" stroke-linecap="round" stroke-linejoin="round" />
  <path d="M175.59,99.82 C175.75,99.75 175.89,99.69 176.02,99.65" fill="currentColor" stroke="currentColor" stroke-width="1.2" stroke-linecap="round" stroke-linejoin="round" />
  <path d="M177.38,99.65 C177.56,99.74 177.69,99.85 177.79,100.01" fill="currentColor" stroke="currentColor" stroke-width="1.2" stroke-linecap="round" stroke-linejoin="round" />
  <path d="M178.91,100.38 C178.91,100.02 178.83,99.70 178.66,99.44" fill="currentColor" stroke="currentColor" stroke-width="1.2" stroke-linecap="round" stroke-linejoin="round" />
  <path d="M177.79,100.01 C177.88,100.16 177.93,100.34 177.93,100.55" fill="currentColor" stroke="currentColor" stroke-width="1.2" stroke-linecap="round" stroke-linejoin="round" />
  <path d="M178.82,101.04 C178.88,100.85 178.91,100.63 178.91,100.38" fill="currentColor" stroke="currentColor" stroke-width="1.2" stroke-linecap="round" stroke-linejoin="round" />
  <path d="M177.93,100.55 C177.93,100.86 177.82,101.10 177.60,101.28" fill="currentColor" stroke="currentColor" stroke-width="1.2" stroke-linecap="round" stroke-linejoin="round" />
  <path d="M178.54,101.53 C178.67,101.39 178.77,101.23 178.82,101.04" fill="currentColor" stroke="currentColor" stroke-width="1.2" stroke-linecap="round" stroke-linejoin="round" />
  <path d="M177.60,101.28 C177.37,101.45 177.03,101.54 176.58,101.54" fill="currentColor" stroke="currentColor" stroke-width="1.2" stroke-linecap="round" stroke-linejoin="round" />
  <path d="M178.04,101.91 C178.25,101.80 178.42,101.67 178.54,101.53" fill="currentColor" stroke="currentColor" stroke-width="1.2" stroke-linecap="round" stroke-linejoin="round" />
  <line x1="58.27" y1="101.81" x2="305.71" y2="101.81" fill="none" stroke="currentColor" stroke-width="1.0" stroke-linecap="round" stroke-linejoin="round" />
  <line x1="185.48" y1="101.81" x2="180.07" y2="101.81" fill="none" stroke="currentColor" stroke-width="1.2" stroke-linecap="round" stroke-linejoin="round" />
  <line x1="176.58" y1="101.54" x2="176.58" y2="102.44" fill="currentColor" stroke="currentColor" stroke-width="1.2" stroke-linecap="round" stroke-linejoin="round" />
  <path d="M178.60,102.27 C178.45,102.10 178.27,101.98 178.04,101.91" fill="currentColor" stroke="currentColor" stroke-width="1.2" stroke-linecap="round" stroke-linejoin="round" />
  <path d="M176.58,102.44 C176.91,102.43 177.18,102.47 177.39,102.56" fill="currentColor" stroke="currentColor" stroke-width="1.2" stroke-linecap="round" stroke-linejoin="round" />
  <path d="M178.92,102.84 C178.85,102.62 178.74,102.43 178.60,102.27" fill="currentColor" stroke="currentColor" stroke-width="1.2" stroke-linecap="round" stroke-linejoin="round" />
  <path d="M177.39,102.56 C177.61,102.66 177.77,102.80 177.88,102.97" fill="currentColor" stroke="currentColor" stroke-width="1.2" stroke-linecap="round" stroke-linejoin="round" />
  <path d="M179.02,103.53 C179.02,103.29 178.99,103.06 178.92,102.84" fill="currentColor" stroke="currentColor" stroke-width="1.2" stroke-linecap="round" stroke-linejoin="round" />
  <path d="M177.88,102.97 C177.99,103.15 178.04,103.35 178.04,103.58" fill="currentColor" stroke="currentColor" stroke-width="1.2" stroke-linecap="round" stroke-linejoin="round" />
  <path d="M178.04,103.58 C178.04,103.80 178.00,103.99 177.91,104.15" fill="currentColor" stroke="currentColor" stroke-width="1.2" stroke-linecap="round" stroke-linejoin="round" />
  <path d="M178.74,104.61 C178.93,104.30 179.02,103.94 179.02,103.53" fill="currentColor" stroke="currentColor" stroke-width="1.2" stroke-linecap="round" stroke-linejoin="round" />
  <path d="M177.91,104.15 C177.82,104.32 177.69,104.44 177.53,104.53" fill="currentColor" stroke="currentColor" stroke-width="1.2" stroke-linecap="round" stroke-linejoin="round" />
  <path d="M176.19,104.54 C175.94,104.45 175.68,104.32 175.42,104.15" fill="currentColor" stroke="currentColor" stroke-width="1.2" stroke-linecap="round" stroke-linejoin="round" />
  <path d="M177.53,104.53 C177.36,104.62 177.17,104.67 176.94,104.67" fill="currentColor" stroke="currentColor" stroke-width="1.2" stroke-linecap="round" stroke-linejoin="round" />
  <path d="M176.94,104.67 C176.69,104.67 176.44,104.63 176.19,104.54" fill="currentColor" stroke="currentColor" stroke-width="1.2" stroke-linecap="round" stroke-linejoin="round" />
  <line x1="175.42" y1="104.15" x2="175.42" y2="105.21" fill="currentColor" stroke="currentColor" stroke-width="1.2" stroke-linecap="round" stroke-linejoin="round" />
  <path d="M177.99,105.33 C178.31,105.16 178.56,104.92 178.74,104.61" fill="currentColor" stroke="currentColor" stroke-width="1.2" stroke-linecap="round" stroke-linejoin="round" />
  <path d="M175.42,105.21 C175.67,105.33 175.91,105.43 176.15,105.50" fill="currentColor" stroke="currentColor" stroke-width="1.2" stroke-linecap="round" stroke-linejoin="round" />
  <path d="M176.87,105.60 C177.30,105.60 177.67,105.51 177.99,105.33" fill="currentColor" stroke="currentColor" stroke-width="1.2" stroke-linecap="round" stroke-linejoin="round" />
  <path d="M176.15,105.50 C176.40,105.56 176.64,105.60 176.87,105.60" fill="currentColor" stroke="currentColor" stroke-width="1.2" stroke-linecap="round" stroke-linejoin="round" />
  <line x1="58.88" y1="54.04" x2="306.76" y2="177.92" fill="none" stroke="currentColor" stroke-width="1.6" stroke-linecap="round" stroke-linejoin="round" />
  <line x1="58.27" y1="115.98" x2="305.71" y2="115.98" fill="none" stroke="currentColor" stroke-width="1.0" stroke-linecap="round" stroke-linejoin="round" />
  <line x1="58.27" y1="130.15" x2="305.71" y2="130.15" fill="none" stroke="currentColor" stroke-width="1.0" stroke-linecap="round" stroke-linejoin="round" />
  <line x1="182.83" y1="248.27" x2="182.83" y2="18.00" fill="none" stroke="currentColor" stroke-width="1.2" stroke-linecap="round" stroke-linejoin="round" />
  <line x1="97.75" y1="238.82" x2="97.75" y2="35.66" fill="none" stroke="currentColor" stroke-width="1.0" stroke-linecap="round" stroke-linejoin="round" />
  <line x1="111.93" y1="238.82" x2="111.93" y2="35.66" fill="none" stroke="currentColor" stroke-width="1.0" stroke-linecap="round" stroke-linejoin="round" />
  <line x1="126.11" y1="238.82" x2="126.11" y2="35.66" fill="none" stroke="currentColor" stroke-width="1.0" stroke-linecap="round" stroke-linejoin="round" />
  <line x1="140.29" y1="238.82" x2="140.29" y2="35.66" fill="none" stroke="currentColor" stroke-width="1.0" stroke-linecap="round" stroke-linejoin="round" />
  <line x1="154.47" y1="238.82" x2="154.47" y2="35.66" fill="none" stroke="currentColor" stroke-width="1.0" stroke-linecap="round" stroke-linejoin="round" />
  <line x1="168.65" y1="238.82" x2="168.65" y2="35.66" fill="none" stroke="currentColor" stroke-width="1.0" stroke-linecap="round" stroke-linejoin="round" />
  <line x1="69.39" y1="238.82" x2="69.39" y2="35.66" fill="none" stroke="currentColor" stroke-width="1.0" stroke-linecap="round" stroke-linejoin="round" />
  <line x1="83.57" y1="238.82" x2="83.57" y2="35.66" fill="none" stroke="currentColor" stroke-width="1.0" stroke-linecap="round" stroke-linejoin="round" />
  <line x1="239.54" y1="238.82" x2="239.54" y2="35.66" fill="none" stroke="currentColor" stroke-width="1.0" stroke-linecap="round" stroke-linejoin="round" />
  <line x1="253.72" y1="238.82" x2="253.72" y2="35.66" fill="none" stroke="currentColor" stroke-width="1.0" stroke-linecap="round" stroke-linejoin="round" />
  <line x1="267.90" y1="238.82" x2="267.90" y2="35.66" fill="none" stroke="currentColor" stroke-width="1.0" stroke-linecap="round" stroke-linejoin="round" />
  <line x1="282.08" y1="238.82" x2="282.08" y2="35.66" fill="none" stroke="currentColor" stroke-width="1.0" stroke-linecap="round" stroke-linejoin="round" />
  <line x1="296.26" y1="238.82" x2="296.26" y2="35.66" fill="none" stroke="currentColor" stroke-width="1.0" stroke-linecap="round" stroke-linejoin="round" />
  <line x1="211.18" y1="238.82" x2="211.18" y2="35.66" fill="none" stroke="currentColor" stroke-width="1.0" stroke-linecap="round" stroke-linejoin="round" />
  <line x1="225.36" y1="238.82" x2="225.36" y2="35.66" fill="none" stroke="currentColor" stroke-width="1.0" stroke-linecap="round" stroke-linejoin="round" />
  <line x1="197.00" y1="238.82" x2="197.00" y2="35.66" fill="none" stroke="currentColor" stroke-width="1.0" stroke-linecap="round" stroke-linejoin="round" />
  <line x1="325.18" y1="140.33" x2="326.52" y2="144.33" fill="currentColor" stroke="currentColor" stroke-width="1.2" stroke-linecap="round" stroke-linejoin="round" />
  <line x1="337.18" y1="144.33" x2="325.18" y2="140.33" fill="currentColor" stroke="currentColor" stroke-width="1.2" stroke-linecap="round" stroke-linejoin="round" />
  <line x1="43.84" y1="144.33" x2="327.18" y2="144.33" fill="none" stroke="currentColor" stroke-width="1.2" stroke-linecap="round" stroke-linejoin="round" />
  <line x1="225.38" y1="147.12" x2="225.38" y2="141.71" fill="none" stroke="currentColor" stroke-width="1.2" stroke-linecap="round" stroke-linejoin="round" />
  <line x1="140.28" y1="147.12" x2="140.28" y2="141.71" fill="none" stroke="currentColor" stroke-width="1.2" stroke-linecap="round" stroke-linejoin="round" />
  <line x1="326.52" y1="144.33" x2="325.18" y2="148.33" fill="currentColor" stroke="currentColor" stroke-width="1.2" stroke-linecap="round" stroke-linejoin="round" />
  <line x1="325.18" y1="148.33" x2="337.18" y2="144.33" fill="currentColor" stroke="currentColor" stroke-width="1.2" stroke-linecap="round" stroke-linejoin="round" />
  <line x1="320.20" y1="148.34" x2="319.05" y2="148.34" fill="currentColor" stroke="currentColor" stroke-width="1.2" stroke-linecap="round" stroke-linejoin="round" />
  <line x1="316.98" y1="148.34" x2="315.98" y2="148.34" fill="currentColor" stroke="currentColor" stroke-width="1.2" stroke-linecap="round" stroke-linejoin="round" />
  <path d="M225.10,148.58 C224.85,148.58 224.62,148.60 224.41,148.65" fill="currentColor" stroke="currentColor" stroke-width="1.2" stroke-linecap="round" stroke-linejoin="round" />
  <path d="M140.05,148.59 C139.80,148.59 139.57,148.62 139.36,148.66" fill="currentColor" stroke="currentColor" stroke-width="1.2" stroke-linecap="round" stroke-linejoin="round" />
  <path d="M226.17,148.80 C225.87,148.66 225.51,148.58 225.10,148.58" fill="currentColor" stroke="currentColor" stroke-width="1.2" stroke-linecap="round" stroke-linejoin="round" />
  <path d="M141.11,148.82 C140.82,148.67 140.46,148.60 140.05,148.59" fill="currentColor" stroke="currentColor" stroke-width="1.2" stroke-linecap="round" stroke-linejoin="round" />
  <path d="M224.41,148.65 C224.20,148.70 224.00,148.77 223.79,148.87" fill="currentColor" stroke="currentColor" stroke-width="1.2" stroke-linecap="round" stroke-linejoin="round" />
  <path d="M139.36,148.66 C139.15,148.71 138.94,148.79 138.74,148.88" fill="currentColor" stroke="currentColor" stroke-width="1.2" stroke-linecap="round" stroke-linejoin="round" />
  <path d="M226.86,149.42 C226.70,149.15 226.47,148.95 226.17,148.80" fill="currentColor" stroke="currentColor" stroke-width="1.2" stroke-linecap="round" stroke-linejoin="round" />
  <path d="M141.81,149.43 C141.65,149.17 141.42,148.96 141.11,148.82" fill="currentColor" stroke="currentColor" stroke-width="1.2" stroke-linecap="round" stroke-linejoin="round" />
  <line x1="319.05" y1="148.34" x2="317.76" y2="150.00" fill="currentColor" stroke="currentColor" stroke-width="1.2" stroke-linecap="round" stroke-linejoin="round" />
  <line x1="317.76" y1="150.00" x2="316.98" y2="148.34" fill="currentColor" stroke="currentColor" stroke-width="1.2" stroke-linecap="round" stroke-linejoin="round" />
  <line x1="223.79" y1="148.87" x2="223.79" y2="149.80" fill="currentColor" stroke="currentColor" stroke-width="1.2" stroke-linecap="round" stroke-linejoin="round" />
  <line x1="138.74" y1="148.88" x2="138.74" y2="149.81" fill="currentColor" stroke="currentColor" stroke-width="1.2" stroke-linecap="round" stroke-linejoin="round" />
  <line x1="315.98" y1="148.34" x2="317.14" y2="150.66" fill="currentColor" stroke="currentColor" stroke-width="1.2" stroke-linecap="round" stroke-linejoin="round" />
  <path d="M224.59,149.54 C224.71,149.52 224.83,149.51 224.95,149.51" fill="currentColor" stroke="currentColor" stroke-width="1.2" stroke-linecap="round" stroke-linejoin="round" />
  <path d="M139.54,149.55 C139.66,149.53 139.78,149.52 139.90,149.52" fill="currentColor" stroke="currentColor" stroke-width="1.2" stroke-linecap="round" stroke-linejoin="round" />
  <line x1="318.21" y1="150.78" x2="320.20" y2="148.34" fill="currentColor" stroke="currentColor" stroke-width="1.2" stroke-linecap="round" stroke-linejoin="round" />
  <path d="M224.95,149.51 C225.20,149.51 225.40,149.55 225.58,149.63" fill="currentColor" stroke="currentColor" stroke-width="1.2" stroke-linecap="round" stroke-linejoin="round" />
  <path d="M224.22,149.63 C224.35,149.59 224.48,149.56 224.59,149.54" fill="currentColor" stroke="currentColor" stroke-width="1.2" stroke-linecap="round" stroke-linejoin="round" />
  <path d="M139.90,149.52 C140.14,149.52 140.35,149.57 140.53,149.65" fill="currentColor" stroke="currentColor" stroke-width="1.2" stroke-linecap="round" stroke-linejoin="round" />
  <path d="M139.17,149.65 C139.30,149.60 139.42,149.57 139.54,149.55" fill="currentColor" stroke="currentColor" stroke-width="1.2" stroke-linecap="round" stroke-linejoin="round" />
  <path d="M223.79,149.80 C223.95,149.73 224.09,149.67 224.22,149.63" fill="currentColor" stroke="currentColor" stroke-width="1.2" stroke-linecap="round" stroke-linejoin="round" />
  <path d="M138.74,149.81 C138.90,149.74 139.04,149.69 139.17,149.65" fill="currentColor" stroke="currentColor" stroke-width="1.2" stroke-linecap="round" stroke-linejoin="round" />
  <path d="M225.58,149.63 C225.76,149.72 225.89,149.83 225.99,149.99" fill="currentColor" stroke="currentColor" stroke-width="1.2" stroke-linecap="round" stroke-linejoin="round" />
  <path d="M140.53,149.65 C140.70,149.73 140.84,149.85 140.94,150.00" fill="currentColor" stroke="currentColor" stroke-width="1.2" stroke-linecap="round" stroke-linejoin="round" />
  <path d="M227.11,150.36 C227.11,150.00 227.03,149.68 226.86,149.42" fill="currentColor" stroke="currentColor" stroke-width="1.2" stroke-linecap="round" stroke-linejoin="round" />
  <path d="M142.06,150.37 C142.06,150.01 141.98,149.70 141.81,149.43" fill="currentColor" stroke="currentColor" stroke-width="1.2" stroke-linecap="round" stroke-linejoin="round" />
  <path d="M225.99,149.99 C226.08,150.14 226.13,150.32 226.14,150.53" fill="currentColor" stroke="currentColor" stroke-width="1.2" stroke-linecap="round" stroke-linejoin="round" />
  <path d="M140.94,150.00 C141.03,150.15 141.08,150.33 141.08,150.54" fill="currentColor" stroke="currentColor" stroke-width="1.2" stroke-linecap="round" stroke-linejoin="round" />
  <path d="M227.03,151.02 C227.08,150.83 227.12,150.61 227.11,150.36" fill="currentColor" stroke="currentColor" stroke-width="1.2" stroke-linecap="round" stroke-linejoin="round" />
  <path d="M141.97,151.03 C142.03,150.85 142.06,150.63 142.06,150.37" fill="currentColor" stroke="currentColor" stroke-width="1.2" stroke-linecap="round" stroke-linejoin="round" />
  <path d="M226.14,150.53 C226.14,150.84 226.02,151.08 225.80,151.26" fill="currentColor" stroke="currentColor" stroke-width="1.2" stroke-linecap="round" stroke-linejoin="round" />
  <path d="M141.08,150.54 C141.08,150.86 140.97,151.10 140.74,151.27" fill="currentColor" stroke="currentColor" stroke-width="1.2" stroke-linecap="round" stroke-linejoin="round" />
  <path d="M226.74,151.51 C226.87,151.37 226.97,151.21 227.03,151.02" fill="currentColor" stroke="currentColor" stroke-width="1.2" stroke-linecap="round" stroke-linejoin="round" />
  <path d="M141.69,151.52 C141.82,151.38 141.91,151.22 141.97,151.03" fill="currentColor" stroke="currentColor" stroke-width="1.2" stroke-linecap="round" stroke-linejoin="round" />
  <path d="M225.80,151.26 C225.57,151.43 225.23,151.52 224.78,151.52" fill="currentColor" stroke="currentColor" stroke-width="1.2" stroke-linecap="round" stroke-linejoin="round" />
  <path d="M140.74,151.27 C140.52,151.44 140.18,151.53 139.73,151.53" fill="currentColor" stroke="currentColor" stroke-width="1.2" stroke-linecap="round" stroke-linejoin="round" />
  <path d="M226.24,151.89 C226.45,151.78 226.62,151.65 226.74,151.51" fill="currentColor" stroke="currentColor" stroke-width="1.2" stroke-linecap="round" stroke-linejoin="round" />
  <path d="M141.19,151.90 C141.40,151.79 141.56,151.67 141.69,151.52" fill="currentColor" stroke="currentColor" stroke-width="1.2" stroke-linecap="round" stroke-linejoin="round" />
  <rect x="133.70" y="151.53" width="4.34" height="0.60" fill="currentColor" stroke="currentColor" stroke-width="1.2" stroke-linecap="round" stroke-linejoin="round" />
  <line x1="317.14" y1="150.66" x2="314.99" y2="153.28" fill="currentColor" stroke="currentColor" stroke-width="1.2" stroke-linecap="round" stroke-linejoin="round" />
  <line x1="224.78" y1="151.52" x2="224.78" y2="152.42" fill="currentColor" stroke="currentColor" stroke-width="1.2" stroke-linecap="round" stroke-linejoin="round" />
  <line x1="139.73" y1="151.53" x2="139.73" y2="152.43" fill="currentColor" stroke="currentColor" stroke-width="1.2" stroke-linecap="round" stroke-linejoin="round" />
  <line x1="319.47" y1="153.28" x2="318.21" y2="150.78" fill="currentColor" stroke="currentColor" stroke-width="1.2" stroke-linecap="round" stroke-linejoin="round" />
  <path d="M226.80,152.25 C226.66,152.08 226.47,151.96 226.24,151.89" fill="currentColor" stroke="currentColor" stroke-width="1.2" stroke-linecap="round" stroke-linejoin="round" />
  <path d="M141.75,152.26 C141.60,152.10 141.42,151.98 141.19,151.90" fill="currentColor" stroke="currentColor" stroke-width="1.2" stroke-linecap="round" stroke-linejoin="round" />
  <line x1="316.13" y1="153.28" x2="317.56" y2="151.43" fill="currentColor" stroke="currentColor" stroke-width="1.2" stroke-linecap="round" stroke-linejoin="round" />
  <line x1="317.56" y1="151.43" x2="318.46" y2="153.28" fill="currentColor" stroke="currentColor" stroke-width="1.2" stroke-linecap="round" stroke-linejoin="round" />
  <path d="M224.78,152.42 C225.11,152.41 225.38,152.45 225.59,152.54" fill="currentColor" stroke="currentColor" stroke-width="1.2" stroke-linecap="round" stroke-linejoin="round" />
  <path d="M139.73,152.43 C140.05,152.42 140.33,152.46 140.54,152.56" fill="currentColor" stroke="currentColor" stroke-width="1.2" stroke-linecap="round" stroke-linejoin="round" />
  <path d="M227.12,152.82 C227.05,152.60 226.95,152.41 226.80,152.25" fill="currentColor" stroke="currentColor" stroke-width="1.2" stroke-linecap="round" stroke-linejoin="round" />
  <path d="M142.07,152.84 C142.00,152.62 141.89,152.43 141.75,152.26" fill="currentColor" stroke="currentColor" stroke-width="1.2" stroke-linecap="round" stroke-linejoin="round" />
  <path d="M225.59,152.54 C225.81,152.64 225.97,152.78 226.08,152.95" fill="currentColor" stroke="currentColor" stroke-width="1.2" stroke-linecap="round" stroke-linejoin="round" />
  <path d="M140.54,152.56 C140.76,152.65 140.92,152.79 141.03,152.97" fill="currentColor" stroke="currentColor" stroke-width="1.2" stroke-linecap="round" stroke-linejoin="round" />
  <path d="M227.22,153.51 C227.22,153.27 227.19,153.04 227.12,152.82" fill="currentColor" stroke="currentColor" stroke-width="1.2" stroke-linecap="round" stroke-linejoin="round" />
  <path d="M142.17,153.52 C142.17,153.29 142.14,153.06 142.07,152.84" fill="currentColor" stroke="currentColor" stroke-width="1.2" stroke-linecap="round" stroke-linejoin="round" />
  <path d="M226.08,152.95 C226.19,153.13 226.24,153.33 226.24,153.56" fill="currentColor" stroke="currentColor" stroke-width="1.2" stroke-linecap="round" stroke-linejoin="round" />
  <path d="M141.03,152.97 C141.14,153.15 141.19,153.35 141.19,153.57" fill="currentColor" stroke="currentColor" stroke-width="1.2" stroke-linecap="round" stroke-linejoin="round" />
  <line x1="314.99" y1="153.28" x2="316.13" y2="153.28" fill="currentColor" stroke="currentColor" stroke-width="1.2" stroke-linecap="round" stroke-linejoin="round" />
  <line x1="318.46" y1="153.28" x2="319.47" y2="153.28" fill="currentColor" stroke="currentColor" stroke-width="1.2" stroke-linecap="round" stroke-linejoin="round" />
  <path d="M226.24,153.56 C226.24,153.78 226.20,153.97 226.11,154.13" fill="currentColor" stroke="currentColor" stroke-width="1.2" stroke-linecap="round" stroke-linejoin="round" />
  <path d="M141.19,153.57 C141.19,153.79 141.14,153.99 141.05,154.15" fill="currentColor" stroke="currentColor" stroke-width="1.2" stroke-linecap="round" stroke-linejoin="round" />
  <path d="M226.95,154.59 C227.13,154.28 227.22,153.92 227.22,153.51" fill="currentColor" stroke="currentColor" stroke-width="1.2" stroke-linecap="round" stroke-linejoin="round" />
  <path d="M141.89,154.60 C142.08,154.29 142.17,153.93 142.17,153.52" fill="currentColor" stroke="currentColor" stroke-width="1.2" stroke-linecap="round" stroke-linejoin="round" />
  <path d="M226.11,154.13 C226.02,154.30 225.89,154.42 225.73,154.51" fill="currentColor" stroke="currentColor" stroke-width="1.2" stroke-linecap="round" stroke-linejoin="round" />
  <path d="M224.39,154.52 C224.14,154.43 223.88,154.30 223.62,154.13" fill="currentColor" stroke="currentColor" stroke-width="1.2" stroke-linecap="round" stroke-linejoin="round" />
  <path d="M141.05,154.15 C140.97,154.31 140.84,154.44 140.67,154.53" fill="currentColor" stroke="currentColor" stroke-width="1.2" stroke-linecap="round" stroke-linejoin="round" />
  <path d="M139.34,154.54 C139.09,154.45 138.83,154.32 138.57,154.14" fill="currentColor" stroke="currentColor" stroke-width="1.2" stroke-linecap="round" stroke-linejoin="round" />
  <path d="M225.73,154.51 C225.56,154.60 225.37,154.65 225.14,154.65" fill="currentColor" stroke="currentColor" stroke-width="1.2" stroke-linecap="round" stroke-linejoin="round" />
  <path d="M225.14,154.65 C224.90,154.65 224.64,154.61 224.39,154.52" fill="currentColor" stroke="currentColor" stroke-width="1.2" stroke-linecap="round" stroke-linejoin="round" />
  <path d="M140.67,154.53 C140.51,154.62 140.32,154.66 140.09,154.66" fill="currentColor" stroke="currentColor" stroke-width="1.2" stroke-linecap="round" stroke-linejoin="round" />
  <path d="M140.09,154.66 C139.84,154.66 139.59,154.62 139.34,154.54" fill="currentColor" stroke="currentColor" stroke-width="1.2" stroke-linecap="round" stroke-linejoin="round" />
  <line x1="223.62" y1="154.13" x2="223.62" y2="155.19" fill="currentColor" stroke="currentColor" stroke-width="1.2" stroke-linecap="round" stroke-linejoin="round" />
  <line x1="138.57" y1="154.14" x2="138.57" y2="155.20" fill="currentColor" stroke="currentColor" stroke-width="1.2" stroke-linecap="round" stroke-linejoin="round" />
  <path d="M226.19,155.31 C226.51,155.14 226.77,154.90 226.95,154.59" fill="currentColor" stroke="currentColor" stroke-width="1.2" stroke-linecap="round" stroke-linejoin="round" />
  <path d="M141.14,155.33 C141.46,155.15 141.71,154.91 141.89,154.60" fill="currentColor" stroke="currentColor" stroke-width="1.2" stroke-linecap="round" stroke-linejoin="round" />
  <path d="M223.62,155.19 C223.87,155.31 224.11,155.41 224.36,155.48" fill="currentColor" stroke="currentColor" stroke-width="1.2" stroke-linecap="round" stroke-linejoin="round" />
  <path d="M138.57,155.20 C138.82,155.33 139.06,155.42 139.30,155.49" fill="currentColor" stroke="currentColor" stroke-width="1.2" stroke-linecap="round" stroke-linejoin="round" />
  <path d="M225.07,155.58 C225.50,155.58 225.87,155.49 226.19,155.31" fill="currentColor" stroke="currentColor" stroke-width="1.2" stroke-linecap="round" stroke-linejoin="round" />
  <path d="M140.02,155.59 C140.45,155.59 140.82,155.50 141.14,155.33" fill="currentColor" stroke="currentColor" stroke-width="1.2" stroke-linecap="round" stroke-linejoin="round" />
  <path d="M224.36,155.48 C224.60,155.54 224.84,155.58 225.07,155.58" fill="currentColor" stroke="currentColor" stroke-width="1.2" stroke-linecap="round" stroke-linejoin="round" />
  <path d="M139.30,155.49 C139.55,155.56 139.79,155.59 140.02,155.59" fill="currentColor" stroke="currentColor" stroke-width="1.2" stroke-linecap="round" stroke-linejoin="round" />
  <line x1="58.27" y1="158.50" x2="305.71" y2="158.50" fill="none" stroke="currentColor" stroke-width="1.0" stroke-linecap="round" stroke-linejoin="round" />
  <line x1="58.27" y1="172.67" x2="305.71" y2="172.67" fill="none" stroke="currentColor" stroke-width="1.0" stroke-linecap="round" stroke-linejoin="round" />
  <path d="M176.90,183.65 C176.65,183.65 176.42,183.67 176.21,183.72" fill="currentColor" stroke="currentColor" stroke-width="1.2" stroke-linecap="round" stroke-linejoin="round" />
  <path d="M177.97,183.87 C177.67,183.73 177.31,183.65 176.90,183.65" fill="currentColor" stroke="currentColor" stroke-width="1.2" stroke-linecap="round" stroke-linejoin="round" />
  <path d="M176.21,183.72 C176.00,183.77 175.79,183.84 175.59,183.94" fill="currentColor" stroke="currentColor" stroke-width="1.2" stroke-linecap="round" stroke-linejoin="round" />
  <path d="M178.66,184.49 C178.50,184.22 178.27,184.02 177.97,183.87" fill="currentColor" stroke="currentColor" stroke-width="1.2" stroke-linecap="round" stroke-linejoin="round" />
  <line x1="175.59" y1="183.94" x2="175.59" y2="184.87" fill="currentColor" stroke="currentColor" stroke-width="1.2" stroke-linecap="round" stroke-linejoin="round" />
  <path d="M176.39,184.61 C176.51,184.59 176.63,184.58 176.75,184.58" fill="currentColor" stroke="currentColor" stroke-width="1.2" stroke-linecap="round" stroke-linejoin="round" />
  <path d="M176.75,184.58 C176.99,184.58 177.20,184.62 177.38,184.70" fill="currentColor" stroke="currentColor" stroke-width="1.2" stroke-linecap="round" stroke-linejoin="round" />
  <path d="M176.02,184.70 C176.15,184.66 176.27,184.63 176.39,184.61" fill="currentColor" stroke="currentColor" stroke-width="1.2" stroke-linecap="round" stroke-linejoin="round" />
  <path d="M175.59,184.87 C175.75,184.80 175.89,184.74 176.02,184.70" fill="currentColor" stroke="currentColor" stroke-width="1.2" stroke-linecap="round" stroke-linejoin="round" />
  <path d="M177.38,184.70 C177.56,184.79 177.69,184.90 177.79,185.06" fill="currentColor" stroke="currentColor" stroke-width="1.2" stroke-linecap="round" stroke-linejoin="round" />
  <path d="M178.91,185.43 C178.91,185.07 178.83,184.75 178.66,184.49" fill="currentColor" stroke="currentColor" stroke-width="1.2" stroke-linecap="round" stroke-linejoin="round" />
  <path d="M177.79,185.06 C177.88,185.21 177.93,185.39 177.93,185.60" fill="currentColor" stroke="currentColor" stroke-width="1.2" stroke-linecap="round" stroke-linejoin="round" />
  <path d="M178.82,186.09 C178.88,185.90 178.91,185.68 178.91,185.43" fill="currentColor" stroke="currentColor" stroke-width="1.2" stroke-linecap="round" stroke-linejoin="round" />
  <path d="M177.93,185.60 C177.93,185.91 177.82,186.15 177.60,186.33" fill="currentColor" stroke="currentColor" stroke-width="1.2" stroke-linecap="round" stroke-linejoin="round" />
  <path d="M178.54,186.58 C178.67,186.44 178.77,186.28 178.82,186.09" fill="currentColor" stroke="currentColor" stroke-width="1.2" stroke-linecap="round" stroke-linejoin="round" />
  <path d="M177.60,186.33 C177.37,186.50 177.03,186.59 176.58,186.59" fill="currentColor" stroke="currentColor" stroke-width="1.2" stroke-linecap="round" stroke-linejoin="round" />
  <path d="M178.04,186.96 C178.25,186.85 178.42,186.72 178.54,186.58" fill="currentColor" stroke="currentColor" stroke-width="1.2" stroke-linecap="round" stroke-linejoin="round" />
  <line x1="185.48" y1="186.84" x2="180.07" y2="186.84" fill="none" stroke="currentColor" stroke-width="1.2" stroke-linecap="round" stroke-linejoin="round" />
  <line x1="58.27" y1="186.85" x2="305.71" y2="186.85" fill="none" stroke="currentColor" stroke-width="1.0" stroke-linecap="round" stroke-linejoin="round" />
  <rect x="170.55" y="186.59" width="4.34" height="0.60" fill="currentColor" stroke="currentColor" stroke-width="1.2" stroke-linecap="round" stroke-linejoin="round" />
  <line x1="176.58" y1="186.59" x2="176.58" y2="187.49" fill="currentColor" stroke="currentColor" stroke-width="1.2" stroke-linecap="round" stroke-linejoin="round" />
  <path d="M178.60,187.32 C178.45,187.15 178.27,187.03 178.04,186.96" fill="currentColor" stroke="currentColor" stroke-width="1.2" stroke-linecap="round" stroke-linejoin="round" />
  <path d="M176.58,187.49 C176.91,187.48 177.18,187.52 177.39,187.61" fill="currentColor" stroke="currentColor" stroke-width="1.2" stroke-linecap="round" stroke-linejoin="round" />
  <path d="M178.92,187.89 C178.85,187.67 178.74,187.48 178.60,187.32" fill="currentColor" stroke="currentColor" stroke-width="1.2" stroke-linecap="round" stroke-linejoin="round" />
  <path d="M177.39,187.61 C177.61,187.71 177.77,187.85 177.88,188.02" fill="currentColor" stroke="currentColor" stroke-width="1.2" stroke-linecap="round" stroke-linejoin="round" />
  <path d="M179.02,188.58 C179.02,188.34 178.99,188.11 178.92,187.89" fill="currentColor" stroke="currentColor" stroke-width="1.2" stroke-linecap="round" stroke-linejoin="round" />
  <path d="M177.88,188.02 C177.99,188.20 178.04,188.40 178.04,188.63" fill="currentColor" stroke="currentColor" stroke-width="1.2" stroke-linecap="round" stroke-linejoin="round" />
  <path d="M178.04,188.63 C178.04,188.85 178.00,189.04 177.91,189.20" fill="currentColor" stroke="currentColor" stroke-width="1.2" stroke-linecap="round" stroke-linejoin="round" />
  <path d="M178.74,189.66 C178.93,189.35 179.02,188.99 179.02,188.58" fill="currentColor" stroke="currentColor" stroke-width="1.2" stroke-linecap="round" stroke-linejoin="round" />
  <path d="M177.91,189.20 C177.82,189.37 177.69,189.49 177.53,189.58" fill="currentColor" stroke="currentColor" stroke-width="1.2" stroke-linecap="round" stroke-linejoin="round" />
  <path d="M176.19,189.59 C175.94,189.50 175.68,189.37 175.42,189.20" fill="currentColor" stroke="currentColor" stroke-width="1.2" stroke-linecap="round" stroke-linejoin="round" />
  <path d="M177.53,189.58 C177.36,189.67 177.17,189.72 176.94,189.72" fill="currentColor" stroke="currentColor" stroke-width="1.2" stroke-linecap="round" stroke-linejoin="round" />
  <path d="M176.94,189.72 C176.69,189.72 176.44,189.68 176.19,189.59" fill="currentColor" stroke="currentColor" stroke-width="1.2" stroke-linecap="round" stroke-linejoin="round" />
  <line x1="175.42" y1="189.20" x2="175.42" y2="190.26" fill="currentColor" stroke="currentColor" stroke-width="1.2" stroke-linecap="round" stroke-linejoin="round" />
  <path d="M177.99,190.38 C178.31,190.21 178.56,189.97 178.74,189.66" fill="currentColor" stroke="currentColor" stroke-width="1.2" stroke-linecap="round" stroke-linejoin="round" />
  <path d="M175.42,190.26 C175.67,190.38 175.91,190.48 176.15,190.55" fill="currentColor" stroke="currentColor" stroke-width="1.2" stroke-linecap="round" stroke-linejoin="round" />
  <path d="M176.87,190.65 C177.30,190.65 177.67,190.56 177.99,190.38" fill="currentColor" stroke="currentColor" stroke-width="1.2" stroke-linecap="round" stroke-linejoin="round" />
  <path d="M176.15,190.55 C176.40,190.61 176.64,190.65 176.87,190.65" fill="currentColor" stroke="currentColor" stroke-width="1.2" stroke-linecap="round" stroke-linejoin="round" />
  <line x1="58.27" y1="201.02" x2="305.71" y2="201.02" fill="none" stroke="currentColor" stroke-width="1.0" stroke-linecap="round" stroke-linejoin="round" />
  <line x1="58.27" y1="215.20" x2="305.71" y2="215.20" fill="none" stroke="currentColor" stroke-width="1.0" stroke-linecap="round" stroke-linejoin="round" />
  <line x1="58.27" y1="229.39" x2="305.71" y2="229.39" fill="none" stroke="currentColor" stroke-width="1.0" stroke-linecap="round" stroke-linejoin="round" />
</svg>