<svg xmlns="http://www.w3.org/2000/svg" viewBox="0 0 220.35 187.50" preserveAspectRatio="xMidYMid meet" shape-rendering="geometricPrecision" text-rendering="optimizeLegibility">
  <path d="M66.75,8.08 C66.82,8.03 66.90,8.00 66.98,8.00" fill="currentColor" stroke="currentColor" stroke-width="1.2" stroke-linecap="round" stroke-linejoin="round" />
  <line x1="66.98" y1="8.00" x2="68.56" y2="8.00" fill="currentColor" stroke="currentColor" stroke-width="1.2" stroke-linecap="round" stroke-linejoin="round" />
  <path d="M68.56,8.00 C68.98,8.00 69.32,8.04 69.58,8.12" fill="currentColor" stroke="currentColor" stroke-width="1.2" stroke-linecap="round" stroke-linejoin="round" />
  <path d="M66.64,8.38 C66.64,8.24 66.68,8.14 66.75,8.08" fill="currentColor" stroke="currentColor" stroke-width="1.2" stroke-linecap="round" stroke-linejoin="round" />
  <path d="M69.58,8.12 C69.85,8.20 70.07,8.31 70.25,8.46" fill="currentColor" stroke="currentColor" stroke-width="1.2" stroke-linecap="round" stroke-linejoin="round" />
  <line x1="66.64" y1="14.57" x2="66.64" y2="8.38" fill="currentColor" stroke="currentColor" stroke-width="1.2" stroke-linecap="round" stroke-linejoin="round" />
  <path d="M70.25,8.46 C70.42,8.61 70.56,8.80 70.65,9.01" fill="currentColor" stroke="currentColor" stroke-width="1.2" stroke-linecap="round" stroke-linejoin="round" />
  <path d="M69.15,8.83 C68.99,8.78 68.77,8.75 68.51,8.75" fill="currentColor" stroke="currentColor" stroke-width="1.2" stroke-linecap="round" stroke-linejoin="round" />
  <line x1="68.51" y1="8.75" x2="67.55" y2="8.75" fill="currentColor" stroke="currentColor" stroke-width="1.2" stroke-linecap="round" stroke-linejoin="round" />
  <line x1="67.55" y1="8.75" x2="67.55" y2="11.00" fill="currentColor" stroke="currentColor" stroke-width="1.2" stroke-linecap="round" stroke-linejoin="round" />
  <path d="M69.54,9.04 C69.44,8.95 69.31,8.88 69.15,8.83" fill="currentColor" stroke="currentColor" stroke-width="1.2" stroke-linecap="round" stroke-linejoin="round" />
  <path d="M70.65,9.01 C70.74,9.23 70.78,9.48 70.78,9.76" fill="currentColor" stroke="currentColor" stroke-width="1.2" stroke-linecap="round" stroke-linejoin="round" />
  <path d="M69.76,9.39 C69.71,9.25 69.64,9.14 69.54,9.04" fill="currentColor" stroke="currentColor" stroke-width="1.2" stroke-linecap="round" stroke-linejoin="round" />
  <path d="M69.83,9.85 C69.83,9.68 69.81,9.53 69.76,9.39" fill="currentColor" stroke="currentColor" stroke-width="1.2" stroke-linecap="round" stroke-linejoin="round" />
  <path d="M70.78,9.76 C70.78,9.92 70.76,10.08 70.72,10.23" fill="currentColor" stroke="currentColor" stroke-width="1.2" stroke-linecap="round" stroke-linejoin="round" />
  <path d="M69.76,10.29 C69.81,10.14 69.83,10.00 69.83,9.85" fill="currentColor" stroke="currentColor" stroke-width="1.2" stroke-linecap="round" stroke-linejoin="round" />
  <path d="M70.72,10.23 C70.68,10.38 70.62,10.52 70.55,10.65" fill="currentColor" stroke="currentColor" stroke-width="1.2" stroke-linecap="round" stroke-linejoin="round" />
  <path d="M69.55,10.66 C69.65,10.55 69.72,10.43 69.76,10.29" fill="currentColor" stroke="currentColor" stroke-width="1.2" stroke-linecap="round" stroke-linejoin="round" />
  <path d="M70.55,10.65 C70.47,10.77 70.37,10.89 70.26,10.99" fill="currentColor" stroke="currentColor" stroke-width="1.2" stroke-linecap="round" stroke-linejoin="round" />
  <path d="M69.19,10.91 C69.33,10.85 69.45,10.76 69.55,10.66" fill="currentColor" stroke="currentColor" stroke-width="1.2" stroke-linecap="round" stroke-linejoin="round" />
  <path d="M68.61,11.00 C68.85,11.00 69.04,10.97 69.19,10.91" fill="currentColor" stroke="currentColor" stroke-width="1.2" stroke-linecap="round" stroke-linejoin="round" />
  <path d="M70.26,10.99 C70.14,11.09 70.01,11.17 69.86,11.23" fill="currentColor" stroke="currentColor" stroke-width="1.2" stroke-linecap="round" stroke-linejoin="round" />
  <line x1="67.55" y1="11.00" x2="68.61" y2="11.00" fill="currentColor" stroke="currentColor" stroke-width="1.2" stroke-linecap="round" stroke-linejoin="round" />
  <path d="M69.86,11.23 C70.05,11.27 70.22,11.33 70.39,11.43" fill="currentColor" stroke="currentColor" stroke-width="1.2" stroke-linecap="round" stroke-linejoin="round" />
  <path d="M70.39,11.43 C70.55,11.52 70.70,11.65 70.82,11.79" fill="currentColor" stroke="currentColor" stroke-width="1.2" stroke-linecap="round" stroke-linejoin="round" />
  <path d="M69.38,11.82 C69.19,11.77 68.95,11.74 68.66,11.74" fill="currentColor" stroke="currentColor" stroke-width="1.2" stroke-linecap="round" stroke-linejoin="round" />
  <line x1="68.66" y1="11.74" x2="67.55" y2="11.74" fill="currentColor" stroke="currentColor" stroke-width="1.2" stroke-linecap="round" stroke-linejoin="round" />
  <line x1="67.55" y1="11.74" x2="67.55" y2="14.19" fill="currentColor" stroke="currentColor" stroke-width="1.2" stroke-linecap="round" stroke-linejoin="round" />
  <path d="M70.82,11.79 C70.95,11.94 71.04,12.11 71.11,12.31" fill="currentColor" stroke="currentColor" stroke-width="1.2" stroke-linecap="round" stroke-linejoin="round" />
  <path d="M69.86,12.07 C69.73,11.96 69.57,11.88 69.38,11.82" fill="currentColor" stroke="currentColor" stroke-width="1.2" stroke-linecap="round" stroke-linejoin="round" />
  <path d="M70.15,12.46 C70.08,12.31 69.99,12.17 69.86,12.07" fill="currentColor" stroke="currentColor" stroke-width="1.2" stroke-linecap="round" stroke-linejoin="round" />
  <path d="M71.11,12.31 C71.19,12.50 71.22,12.72 71.22,12.96" fill="currentColor" stroke="currentColor" stroke-width="1.2" stroke-linecap="round" stroke-linejoin="round" />
  <path d="M70.25,13.01 C70.25,12.80 70.22,12.62 70.15,12.46" fill="currentColor" stroke="currentColor" stroke-width="1.2" stroke-linecap="round" stroke-linejoin="round" />
  <path d="M71.22,12.96 C71.22,13.18 71.19,13.38 71.14,13.56" fill="currentColor" stroke="currentColor" stroke-width="1.2" stroke-linecap="round" stroke-linejoin="round" />
  <path d="M70.15,13.52 C70.22,13.38 70.25,13.21 70.25,13.01" fill="currentColor" stroke="currentColor" stroke-width="1.2" stroke-linecap="round" stroke-linejoin="round" />
  <path d="M30.13,35.15 C52.26,13.02 88.18,13.02 110.30,35.15" fill="none" stroke="currentColor" stroke-width="1.4000000476837158" stroke-linecap="round" stroke-linejoin="round" />
  <path d="M69.87,13.89 C69.99,13.79 70.08,13.67 70.15,13.52" fill="currentColor" stroke="currentColor" stroke-width="1.2" stroke-linecap="round" stroke-linejoin="round" />
  <path d="M71.14,13.56 C71.08,13.75 71.00,13.91 70.90,14.06" fill="currentColor" stroke="currentColor" stroke-width="1.2" stroke-linecap="round" stroke-linejoin="round" />
  <path d="M69.45,14.11 C69.61,14.06 69.75,13.99 69.87,13.89" fill="currentColor" stroke="currentColor" stroke-width="1.2" stroke-linecap="round" stroke-linejoin="round" />
  <path d="M70.90,14.06 C70.80,14.21 70.68,14.33 70.54,14.44" fill="currentColor" stroke="currentColor" stroke-width="1.2" stroke-linecap="round" stroke-linejoin="round" />
  <path d="M68.90,14.19 C69.11,14.19 69.29,14.16 69.45,14.11" fill="currentColor" stroke="currentColor" stroke-width="1.2" stroke-linecap="round" stroke-linejoin="round" />
  <line x1="67.55" y1="14.19" x2="68.90" y2="14.19" fill="currentColor" stroke="currentColor" stroke-width="1.2" stroke-linecap="round" stroke-linejoin="round" />
  <path d="M70.54,14.44 C70.40,14.56 70.24,14.65 70.06,14.72" fill="currentColor" stroke="currentColor" stroke-width="1.2" stroke-linecap="round" stroke-linejoin="round" />
  <path d="M66.75,14.87 C66.68,14.81 66.64,14.71 66.64,14.57" fill="currentColor" stroke="currentColor" stroke-width="1.2" stroke-linecap="round" stroke-linejoin="round" />
  <path d="M70.06,14.72 C69.89,14.80 69.70,14.86 69.49,14.89" fill="currentColor" stroke="currentColor" stroke-width="1.2" stroke-linecap="round" stroke-linejoin="round" />
  <path d="M66.98,14.95 C66.90,14.95 66.82,14.92 66.75,14.87" fill="currentColor" stroke="currentColor" stroke-width="1.2" stroke-linecap="round" stroke-linejoin="round" />
  <path d="M69.49,14.89 C69.29,14.93 69.06,14.95 68.80,14.95" fill="currentColor" stroke="currentColor" stroke-width="1.2" stroke-linecap="round" stroke-linejoin="round" />
  <line x1="68.80" y1="14.95" x2="66.98" y2="14.95" fill="currentColor" stroke="currentColor" stroke-width="1.2" stroke-linecap="round" stroke-linejoin="round" />
  <path d="M69.01,17.41 C69.68,16.75 70.76,16.75 71.42,17.41" fill="currentColor" stroke="currentColor" stroke-width="1.2" stroke-linecap="round" stroke-linejoin="round" />
  <path d="M71.42,17.41 C72.08,18.07 72.08,19.15 71.42,19.81" fill="currentColor" stroke="currentColor" stroke-width="1.2" stroke-linecap="round" stroke-linejoin="round" />
  <path d="M69.01,19.81 C68.35,19.15 68.35,18.07 69.01,17.41" fill="currentColor" stroke="currentColor" stroke-width="1.2" stroke-linecap="round" stroke-linejoin="round" />
  <path d="M70.32,18.56 C84.80,18.58 99.27,24.11 110.30,35.15" fill="none" stroke="currentColor" stroke-width="1.6" stroke-linecap="round" stroke-linejoin="round" />
  <line x1="70.22" y1="18.61" x2="70.22" y2="75.24" fill="none" stroke="currentColor" stroke-width="1.4000000476837158" stroke-linecap="round" stroke-linejoin="round" />
  <line x1="126.85" y1="75.24" x2="70.22" y2="18.61" fill="none" stroke="currentColor" stroke-width="1.4000000476837158" stroke-linecap="round" stroke-linejoin="round" />
  <path d="M71.42,19.81 C70.76,20.48 69.68,20.48 69.01,19.81" fill="currentColor" stroke="currentColor" stroke-width="1.2" stroke-linecap="round" stroke-linejoin="round" />
  <path d="M110.30,35.15 C121.38,46.22 126.91,60.74 126.90,75.27" fill="none" stroke="currentColor" stroke-width="1.6" stroke-linecap="round" stroke-linejoin="round" />
  <path d="M110.30,35.15 C132.43,57.28 132.43,93.20 110.30,115.33" fill="none" stroke="currentColor" stroke-width="1.4000000476837158" stroke-linecap="round" stroke-linejoin="round" />
  <path d="M30.13,115.33 C8.00,93.20 8.00,57.28 30.13,35.15" fill="none" stroke="currentColor" stroke-width="1.4000000476837158" stroke-linecap="round" stroke-linejoin="round" />
  <rect x="70.22" y="68.02" width="7.22" height="7.22" fill="none" stroke="currentColor" stroke-width="1.000000011920929" stroke-linecap="round" stroke-linejoin="round" />
  <path d="M134.03,71.74 C134.10,71.74 134.19,71.73 134.29,71.73" fill="currentColor" stroke="currentColor" stroke-width="1.2" stroke-linecap="round" stroke-linejoin="round" />
  <path d="M134.29,71.73 C134.41,71.73 134.50,71.74 134.58,71.74" fill="currentColor" stroke="currentColor" stroke-width="1.2" stroke-linecap="round" stroke-linejoin="round" />
  <path d="M133.86,71.77 C133.90,71.76 133.96,71.75 134.03,71.74" fill="currentColor" stroke="currentColor" stroke-width="1.2" stroke-linecap="round" stroke-linejoin="round" />
  <path d="M134.58,71.74 C134.65,71.75 134.72,71.76 134.76,71.77" fill="currentColor" stroke="currentColor" stroke-width="1.2" stroke-linecap="round" stroke-linejoin="round" />
  <path d="M58.80,71.86 C58.88,71.80 58.97,71.77 59.06,71.77" fill="currentColor" stroke="currentColor" stroke-width="1.2" stroke-linecap="round" stroke-linejoin="round" />
  <line x1="59.06" y1="71.77" x2="59.62" y2="71.77" fill="currentColor" stroke="currentColor" stroke-width="1.2" stroke-linecap="round" stroke-linejoin="round" />
  <path d="M59.62,71.77 C59.73,71.77 59.84,71.78 59.92,71.80" fill="currentColor" stroke="currentColor" stroke-width="1.2" stroke-linecap="round" stroke-linejoin="round" />
  <path d="M65.02,71.80 C65.09,71.78 65.17,71.77 65.26,71.77" fill="currentColor" stroke="currentColor" stroke-width="1.2" stroke-linecap="round" stroke-linejoin="round" />
  <line x1="65.26" y1="71.77" x2="65.84" y2="71.77" fill="currentColor" stroke="currentColor" stroke-width="1.2" stroke-linecap="round" stroke-linejoin="round" />
  <path d="M65.84,71.77 C65.90,71.77 65.95,71.77 66.00,71.79" fill="currentColor" stroke="currentColor" stroke-width="1.2" stroke-linecap="round" stroke-linejoin="round" />
  <path d="M133.76,71.83 C133.78,71.81 133.81,71.79 133.86,71.77" fill="currentColor" stroke="currentColor" stroke-width="1.2" stroke-linecap="round" stroke-linejoin="round" />
  <path d="M134.76,71.77 C134.81,71.79 134.84,71.81 134.87,71.83" fill="currentColor" stroke="currentColor" stroke-width="1.2" stroke-linecap="round" stroke-linejoin="round" />
  <path d="M66.00,71.79 C66.05,71.81 66.09,71.83 66.12,71.86" fill="currentColor" stroke="currentColor" stroke-width="1.2" stroke-linecap="round" stroke-linejoin="round" />
  <path d="M64.84,71.89 C64.89,71.85 64.96,71.81 65.02,71.80" fill="currentColor" stroke="currentColor" stroke-width="1.2" stroke-linecap="round" stroke-linejoin="round" />
  <path d="M59.92,71.80 C60.01,71.82 60.08,71.85 60.15,71.90" fill="currentColor" stroke="currentColor" stroke-width="1.2" stroke-linecap="round" stroke-linejoin="round" />
  <path d="M133.70,71.93 C133.71,71.89 133.73,71.86 133.76,71.83" fill="currentColor" stroke="currentColor" stroke-width="1.2" stroke-linecap="round" stroke-linejoin="round" />
  <path d="M134.87,71.83 C134.89,71.86 134.91,71.89 134.93,71.93" fill="currentColor" stroke="currentColor" stroke-width="1.2" stroke-linecap="round" stroke-linejoin="round" />
  <path d="M58.68,72.18 C58.68,72.03 58.72,71.93 58.80,71.86" fill="currentColor" stroke="currentColor" stroke-width="1.2" stroke-linecap="round" stroke-linejoin="round" />
  <path d="M66.12,71.86 C66.16,71.90 66.18,71.94 66.20,71.99" fill="currentColor" stroke="currentColor" stroke-width="1.2" stroke-linecap="round" stroke-linejoin="round" />
  <path d="M64.68,72.07 C64.73,72.00 64.78,71.94 64.84,71.89" fill="currentColor" stroke="currentColor" stroke-width="1.2" stroke-linecap="round" stroke-linejoin="round" />
  <path d="M60.15,71.90 C60.21,71.95 60.26,72.01 60.31,72.08" fill="currentColor" stroke="currentColor" stroke-width="1.2" stroke-linecap="round" stroke-linejoin="round" />
  <line x1="131.37" y1="78.38" x2="133.70" y2="71.93" fill="currentColor" stroke="currentColor" stroke-width="1.2" stroke-linecap="round" stroke-linejoin="round" />
  <line x1="134.93" y1="71.93" x2="137.26" y2="78.39" fill="currentColor" stroke="currentColor" stroke-width="1.2" stroke-linecap="round" stroke-linejoin="round" />
  <path d="M66.20,71.99 C66.23,72.05 66.24,72.11 66.24,72.18" fill="currentColor" stroke="currentColor" stroke-width="1.2" stroke-linecap="round" stroke-linejoin="round" />
  <path d="M64.56,72.35 C64.60,72.24 64.64,72.15 64.68,72.07" fill="currentColor" stroke="currentColor" stroke-width="1.2" stroke-linecap="round" stroke-linejoin="round" />
  <path d="M60.31,72.08 C60.35,72.15 60.39,72.23 60.42,72.33" fill="currentColor" stroke="currentColor" stroke-width="1.2" stroke-linecap="round" stroke-linejoin="round" />
  <line x1="58.68" y1="78.58" x2="58.68" y2="72.18" fill="currentColor" stroke="currentColor" stroke-width="1.2" stroke-linecap="round" stroke-linejoin="round" />
  <line x1="66.24" y1="72.18" x2="66.24" y2="78.58" fill="currentColor" stroke="currentColor" stroke-width="1.2" stroke-linecap="round" stroke-linejoin="round" />
  <line x1="60.42" y1="72.33" x2="62.43" y2="77.36" fill="currentColor" stroke="currentColor" stroke-width="1.2" stroke-linecap="round" stroke-linejoin="round" />
  <line x1="62.46" y1="77.36" x2="64.56" y2="72.35" fill="currentColor" stroke="currentColor" stroke-width="1.2" stroke-linecap="round" stroke-linejoin="round" />
  <line x1="65.34" y1="78.58" x2="65.34" y2="72.52" fill="currentColor" stroke="currentColor" stroke-width="1.2" stroke-linecap="round" stroke-linejoin="round" />
  <line x1="65.34" y1="72.52" x2="65.33" y2="72.52" fill="currentColor" stroke="currentColor" stroke-width="1.2" stroke-linecap="round" stroke-linejoin="round" />
  <line x1="65.33" y1="72.52" x2="62.85" y2="78.60" fill="currentColor" stroke="currentColor" stroke-width="1.2" stroke-linecap="round" stroke-linejoin="round" />
  <line x1="61.95" y1="78.60" x2="59.58" y2="72.52" fill="currentColor" stroke="currentColor" stroke-width="1.2" stroke-linecap="round" stroke-linejoin="round" />
  <line x1="59.58" y1="72.52" x2="59.58" y2="72.52" fill="currentColor" stroke="currentColor" stroke-width="1.2" stroke-linecap="round" stroke-linejoin="round" />
  <line x1="59.58" y1="72.52" x2="59.58" y2="78.58" fill="currentColor" stroke="currentColor" stroke-width="1.2" stroke-linecap="round" stroke-linejoin="round" />
  <line x1="134.27" y1="72.69" x2="134.26" y2="72.69" fill="currentColor" stroke="currentColor" stroke-width="1.2" stroke-linecap="round" stroke-linejoin="round" />
  <line x1="134.26" y1="72.69" x2="133.06" y2="76.15" fill="currentColor" stroke="currentColor" stroke-width="1.2" stroke-linecap="round" stroke-linejoin="round" />
  <line x1="135.48" y1="76.15" x2="134.27" y2="72.69" fill="currentColor" stroke="currentColor" stroke-width="1.2" stroke-linecap="round" stroke-linejoin="round" />
  <path d="M69.01,74.04 C69.68,73.37 70.76,73.37 71.42,74.04" fill="currentColor" stroke="currentColor" stroke-width="1.2" stroke-linecap="round" stroke-linejoin="round" />
  <path d="M125.64,74.04 C126.31,73.37 127.38,73.37 128.05,74.04" fill="currentColor" stroke="currentColor" stroke-width="1.2" stroke-linecap="round" stroke-linejoin="round" />
  <path d="M71.42,74.04 C72.08,74.70 72.08,75.78 71.42,76.44" fill="currentColor" stroke="currentColor" stroke-width="1.2" stroke-linecap="round" stroke-linejoin="round" />
  <path d="M69.01,76.44 C68.35,75.78 68.35,74.70 69.01,74.04" fill="currentColor" stroke="currentColor" stroke-width="1.2" stroke-linecap="round" stroke-linejoin="round" />
  <path d="M128.05,74.04 C128.71,74.70 128.71,75.78 128.05,76.44" fill="currentColor" stroke="currentColor" stroke-width="1.2" stroke-linecap="round" stroke-linejoin="round" />
  <path d="M125.64,76.44 C124.98,75.78 124.98,74.70 125.64,74.04" fill="currentColor" stroke="currentColor" stroke-width="1.2" stroke-linecap="round" stroke-linejoin="round" />
  <line x1="70.22" y1="75.24" x2="126.85" y2="75.24" fill="none" stroke="currentColor" stroke-width="1.4000000476837158" stroke-linecap="round" stroke-linejoin="round" />
  <line x1="133.06" y1="76.15" x2="135.48" y2="76.15" fill="currentColor" stroke="currentColor" stroke-width="1.2" stroke-linecap="round" stroke-linejoin="round" />
  <path d="M71.42,76.44 C70.76,77.11 69.68,77.11 69.01,76.44" fill="currentColor" stroke="currentColor" stroke-width="1.2" stroke-linecap="round" stroke-linejoin="round" />
  <path d="M128.05,76.44 C127.38,77.11 126.31,77.11 125.64,76.44" fill="currentColor" stroke="currentColor" stroke-width="1.2" stroke-linecap="round" stroke-linejoin="round" />
  <line x1="136.32" y1="78.58" x2="135.72" y2="76.89" fill="currentColor" stroke="currentColor" stroke-width="1.2" stroke-linecap="round" stroke-linejoin="round" />
  <line x1="135.72" y1="76.89" x2="132.83" y2="76.89" fill="currentColor" stroke="currentColor" stroke-width="1.2" stroke-linecap="round" stroke-linejoin="round" />
  <line x1="132.83" y1="76.89" x2="132.26" y2="78.56" fill="currentColor" stroke="currentColor" stroke-width="1.2" stroke-linecap="round" stroke-linejoin="round" />
  <line x1="62.43" y1="77.36" x2="62.46" y2="77.36" fill="currentColor" stroke="currentColor" stroke-width="1.2" stroke-linecap="round" stroke-linejoin="round" />
  <path d="M131.32,78.57 C131.32,78.52 131.34,78.46 131.37,78.38" fill="currentColor" stroke="currentColor" stroke-width="1.2" stroke-linecap="round" stroke-linejoin="round" />
  <path d="M137.26,78.39 C137.29,78.47 137.30,78.53 137.31,78.58" fill="currentColor" stroke="currentColor" stroke-width="1.2" stroke-linecap="round" stroke-linejoin="round" />
  <path d="M132.26,78.56 C132.25,78.59 132.24,78.62 132.22,78.64" fill="currentColor" stroke="currentColor" stroke-width="1.2" stroke-linecap="round" stroke-linejoin="round" />
  <path d="M131.36,78.68 C131.33,78.66 131.32,78.62 131.32,78.57" fill="currentColor" stroke="currentColor" stroke-width="1.2" stroke-linecap="round" stroke-linejoin="round" />
  <path d="M66.24,78.58 C66.24,78.60 66.23,78.63 66.22,78.65" fill="currentColor" stroke="currentColor" stroke-width="1.2" stroke-linecap="round" stroke-linejoin="round" />
  <path d="M65.36,78.65 C65.35,78.63 65.34,78.60 65.34,78.58" fill="currentColor" stroke="currentColor" stroke-width="1.2" stroke-linecap="round" stroke-linejoin="round" />
  <path d="M59.58,78.58 C59.58,78.60 59.57,78.63 59.56,78.65" fill="currentColor" stroke="currentColor" stroke-width="1.2" stroke-linecap="round" stroke-linejoin="round" />
  <path d="M58.70,78.65 C58.69,78.63 58.68,78.60 58.68,78.58" fill="currentColor" stroke="currentColor" stroke-width="1.2" stroke-linecap="round" stroke-linejoin="round" />
  <path d="M137.31,78.58 C137.31,78.63 137.29,78.66 137.26,78.69" fill="currentColor" stroke="currentColor" stroke-width="1.2" stroke-linecap="round" stroke-linejoin="round" />
  <path d="M136.37,78.66 C136.35,78.64 136.33,78.61 136.32,78.58" fill="currentColor" stroke="currentColor" stroke-width="1.2" stroke-linecap="round" stroke-linejoin="round" />
  <path d="M62.85,78.60 C62.84,78.63 62.83,78.65 62.81,78.67" fill="currentColor" stroke="currentColor" stroke-width="1.2" stroke-linecap="round" stroke-linejoin="round" />
  <path d="M61.99,78.66 C61.97,78.64 61.96,78.62 61.95,78.60" fill="currentColor" stroke="currentColor" stroke-width="1.2" stroke-linecap="round" stroke-linejoin="round" />
  <path d="M132.22,78.64 C132.20,78.67 132.18,78.69 132.14,78.70" fill="currentColor" stroke="currentColor" stroke-width="1.2" stroke-linecap="round" stroke-linejoin="round" />
  <path d="M66.22,78.65 C66.20,78.67 66.18,78.69 66.14,78.70" fill="currentColor" stroke="currentColor" stroke-width="1.2" stroke-linecap="round" stroke-linejoin="round" />
  <path d="M65.43,78.70 C65.40,78.69 65.38,78.67 65.36,78.65" fill="currentColor" stroke="currentColor" stroke-width="1.2" stroke-linecap="round" stroke-linejoin="round" />
  <path d="M59.56,78.65 C59.54,78.67 59.52,78.69 59.48,78.70" fill="currentColor" stroke="currentColor" stroke-width="1.2" stroke-linecap="round" stroke-linejoin="round" />
  <path d="M58.77,78.70 C58.73,78.69 58.71,78.67 58.70,78.65" fill="currentColor" stroke="currentColor" stroke-width="1.2" stroke-linecap="round" stroke-linejoin="round" />
  <path d="M62.07,78.71 C62.04,78.69 62.01,78.68 61.99,78.66" fill="currentColor" stroke="currentColor" stroke-width="1.2" stroke-linecap="round" stroke-linejoin="round" />
  <path d="M136.44,78.71 C136.41,78.70 136.38,78.68 136.37,78.66" fill="currentColor" stroke="currentColor" stroke-width="1.2" stroke-linecap="round" stroke-linejoin="round" />
  <path d="M62.81,78.67 C62.79,78.69 62.76,78.70 62.72,78.71" fill="currentColor" stroke="currentColor" stroke-width="1.2" stroke-linecap="round" stroke-linejoin="round" />
  <path d="M131.50,78.73 C131.43,78.73 131.39,78.71 131.36,78.68" fill="currentColor" stroke="currentColor" stroke-width="1.2" stroke-linecap="round" stroke-linejoin="round" />
  <path d="M137.26,78.69 C137.24,78.71 137.19,78.73 137.12,78.74" fill="currentColor" stroke="currentColor" stroke-width="1.2" stroke-linecap="round" stroke-linejoin="round" />
  <path d="M66.14,78.70 C66.10,78.71 66.06,78.73 66.00,78.73" fill="currentColor" stroke="currentColor" stroke-width="1.2" stroke-linecap="round" stroke-linejoin="round" />
  <path d="M65.57,78.73 C65.51,78.73 65.47,78.71 65.43,78.70" fill="currentColor" stroke="currentColor" stroke-width="1.2" stroke-linecap="round" stroke-linejoin="round" />
  <path d="M59.48,78.70 C59.44,78.71 59.40,78.73 59.34,78.73" fill="currentColor" stroke="currentColor" stroke-width="1.2" stroke-linecap="round" stroke-linejoin="round" />
  <path d="M58.91,78.73 C58.85,78.73 58.80,78.71 58.77,78.70" fill="currentColor" stroke="currentColor" stroke-width="1.2" stroke-linecap="round" stroke-linejoin="round" />
  <path d="M132.14,78.70 C132.11,78.72 132.06,78.73 132.00,78.74" fill="currentColor" stroke="currentColor" stroke-width="1.2" stroke-linecap="round" stroke-linejoin="round" />
  <path d="M62.21,78.74 C62.16,78.73 62.11,78.72 62.07,78.71" fill="currentColor" stroke="currentColor" stroke-width="1.2" stroke-linecap="round" stroke-linejoin="round" />
  <path d="M62.72,78.71 C62.68,78.73 62.64,78.73 62.59,78.74" fill="currentColor" stroke="currentColor" stroke-width="1.2" stroke-linecap="round" stroke-linejoin="round" />
  <path d="M136.59,78.74 C136.52,78.73 136.47,78.73 136.44,78.71" fill="currentColor" stroke="currentColor" stroke-width="1.2" stroke-linecap="round" stroke-linejoin="round" />
  <path d="M66.00,78.73 C65.95,78.74 65.88,78.75 65.79,78.75" fill="currentColor" stroke="currentColor" stroke-width="1.2" stroke-linecap="round" stroke-linejoin="round" />
  <path d="M65.79,78.75 C65.70,78.75 65.63,78.74 65.57,78.73" fill="currentColor" stroke="currentColor" stroke-width="1.2" stroke-linecap="round" stroke-linejoin="round" />
  <path d="M59.34,78.73 C59.28,78.74 59.21,78.75 59.12,78.75" fill="currentColor" stroke="currentColor" stroke-width="1.2" stroke-linecap="round" stroke-linejoin="round" />
  <path d="M59.12,78.75 C59.03,78.75 58.96,78.74 58.91,78.73" fill="currentColor" stroke="currentColor" stroke-width="1.2" stroke-linecap="round" stroke-linejoin="round" />
  <path d="M131.75,78.75 C131.65,78.75 131.57,78.74 131.50,78.73" fill="currentColor" stroke="currentColor" stroke-width="1.2" stroke-linecap="round" stroke-linejoin="round" />
  <path d="M62.40,78.75 C62.33,78.75 62.26,78.74 62.21,78.74" fill="currentColor" stroke="currentColor" stroke-width="1.2" stroke-linecap="round" stroke-linejoin="round" />
  <path d="M137.12,78.74 C137.06,78.74 136.97,78.75 136.86,78.75" fill="currentColor" stroke="currentColor" stroke-width="1.2" stroke-linecap="round" stroke-linejoin="round" />
  <path d="M132.00,78.74 C131.94,78.74 131.85,78.75 131.75,78.75" fill="currentColor" stroke="currentColor" stroke-width="1.2" stroke-linecap="round" stroke-linejoin="round" />
  <path d="M62.59,78.74 C62.54,78.75 62.47,78.75 62.40,78.75" fill="currentColor" stroke="currentColor" stroke-width="1.2" stroke-linecap="round" stroke-linejoin="round" />
  <path d="M136.86,78.75 C136.75,78.75 136.66,78.75 136.59,78.74" fill="currentColor" stroke="currentColor" stroke-width="1.2" stroke-linecap="round" stroke-linejoin="round" />
  <path d="M110.30,115.33 C88.18,137.46 52.26,137.46 30.13,115.33" fill="none" stroke="currentColor" stroke-width="1.4000000476837158" stroke-linecap="round" stroke-linejoin="round" />
  <line x1="138.48" y1="177.74" x2="142.56" y2="166.40" fill="none" stroke="currentColor" stroke-width="1.5760000467300415" stroke-linecap="round" stroke-linejoin="round" />
  <line x1="142.56" y1="166.40" x2="150.14" y2="166.40" fill="none" stroke="currentColor" stroke-width="1.5760000467300415" stroke-linecap="round" stroke-linejoin="round" />
  <line x1="136.38" y1="173.53" x2="137.08" y2="172.93" fill="none" stroke="currentColor" stroke-width="1.6" stroke-linecap="round" stroke-linejoin="round" />
  <line x1="137.08" y1="172.93" x2="138.48" y2="177.74" fill="none" stroke="currentColor" stroke-width="1.6" stroke-linecap="round" stroke-linejoin="round" />
  <text x="8.88" y="157.96" font-size="11.0" fill="currentColor" stroke="none" font-family="'Iowan Old Style', 'Sitka Text', Charter, Cambria, Georgia, serif">Längden av den markerade cirkelbågen AB är </text>
  <text x="8.87" y="179.46" font-size="11.0" fill="currentColor" stroke="none" font-family="'Iowan Old Style', 'Sitka Text', Charter, Cambria, Georgia, serif">Längden av sträckan AB är </text>
  <text x="129.14" y="179.50" font-size="11.0" fill="currentColor" stroke="none" font-family="'Iowan Old Style', 'Sitka Text', Charter, Cambria, Georgia, serif">2</text>
  <text x="142.70" y="179.50" font-size="11.0" fill="currentColor" stroke="none" font-family="'Iowan Old Style', 'Sitka Text', Charter, Cambria, Georgia, serif">2</text>
</svg>