<svg xmlns="http://www.w3.org/2000/svg" viewBox="0 0 110.19 94.43" preserveAspectRatio="xMidYMid meet" shape-rendering="geometricPrecision" text-rendering="optimizeLegibility">
  <path d="M53.93,8.24 C53.69,8.08 53.40,8.00 53.06,8.00" fill="currentColor" stroke="currentColor" stroke-width="1.2" stroke-linecap="round" stroke-linejoin="round" />
  <path d="M53.06,8.00 C52.83,8.00 52.62,8.04 52.42,8.12" fill="currentColor" stroke="currentColor" stroke-width="1.2" stroke-linecap="round" stroke-linejoin="round" />
  <path d="M50.79,8.23 C50.54,8.08 50.26,8.00 49.94,8.00" fill="currentColor" stroke="currentColor" stroke-width="1.2" stroke-linecap="round" stroke-linejoin="round" />
  <path d="M49.94,8.00 C49.71,8.00 49.48,8.06 49.24,8.18" fill="currentColor" stroke="currentColor" stroke-width="1.2" stroke-linecap="round" stroke-linejoin="round" />
  <path d="M45.47,8.04 C45.31,8.02 45.14,8.00 44.95,8.00" fill="currentColor" stroke="currentColor" stroke-width="1.2" stroke-linecap="round" stroke-linejoin="round" />
  <path d="M44.95,8.00 C44.45,8.00 44.02,8.11 43.65,8.33" fill="currentColor" stroke="currentColor" stroke-width="1.2" stroke-linecap="round" stroke-linejoin="round" />
  <path d="M45.93,8.16 C45.78,8.11 45.63,8.07 45.47,8.04" fill="currentColor" stroke="currentColor" stroke-width="1.2" stroke-linecap="round" stroke-linejoin="round" />
  <line x1="39.18" y1="8.10" x2="38.02" y2="8.10" fill="currentColor" stroke="currentColor" stroke-width="1.2" stroke-linecap="round" stroke-linejoin="round" />
  <line x1="38.02" y1="8.10" x2="36.74" y2="9.76" fill="currentColor" stroke="currentColor" stroke-width="1.2" stroke-linecap="round" stroke-linejoin="round" />
  <line x1="36.74" y1="9.76" x2="35.96" y2="8.10" fill="currentColor" stroke="currentColor" stroke-width="1.2" stroke-linecap="round" stroke-linejoin="round" />
  <line x1="35.96" y1="8.10" x2="34.95" y2="8.10" fill="currentColor" stroke="currentColor" stroke-width="1.2" stroke-linecap="round" stroke-linejoin="round" />
  <line x1="34.95" y1="8.10" x2="36.12" y2="10.42" fill="currentColor" stroke="currentColor" stroke-width="1.2" stroke-linecap="round" stroke-linejoin="round" />
  <line x1="37.19" y1="10.54" x2="39.18" y2="8.10" fill="currentColor" stroke="currentColor" stroke-width="1.2" stroke-linecap="round" stroke-linejoin="round" />
  <line x1="47.52" y1="8.10" x2="47.52" y2="13.04" fill="currentColor" stroke="currentColor" stroke-width="1.2" stroke-linecap="round" stroke-linejoin="round" />
  <line x1="48.50" y1="8.75" x2="48.50" y2="8.10" fill="currentColor" stroke="currentColor" stroke-width="1.2" stroke-linecap="round" stroke-linejoin="round" />
  <line x1="48.50" y1="8.10" x2="47.52" y2="8.10" fill="currentColor" stroke="currentColor" stroke-width="1.2" stroke-linecap="round" stroke-linejoin="round" />
  <path d="M52.42,8.12 C52.22,8.20 52.04,8.31 51.88,8.45" fill="currentColor" stroke="currentColor" stroke-width="1.2" stroke-linecap="round" stroke-linejoin="round" />
  <path d="M46.38,8.34 C46.22,8.27 46.07,8.21 45.93,8.16" fill="currentColor" stroke="currentColor" stroke-width="1.2" stroke-linecap="round" stroke-linejoin="round" />
  <path d="M49.24,8.18 C49.00,8.31 48.75,8.49 48.50,8.75" fill="currentColor" stroke="currentColor" stroke-width="1.2" stroke-linecap="round" stroke-linejoin="round" />
  <path d="M51.42,8.89 C51.25,8.60 51.04,8.38 50.79,8.23" fill="currentColor" stroke="currentColor" stroke-width="1.2" stroke-linecap="round" stroke-linejoin="round" />
  <path d="M54.50,8.92 C54.37,8.63 54.18,8.40 53.93,8.24" fill="currentColor" stroke="currentColor" stroke-width="1.2" stroke-linecap="round" stroke-linejoin="round" />
  <path d="M43.65,8.33 C43.29,8.55 43.01,8.85 42.81,9.25" fill="currentColor" stroke="currentColor" stroke-width="1.2" stroke-linecap="round" stroke-linejoin="round" />
  <line x1="46.38" y1="9.39" x2="46.38" y2="8.34" fill="currentColor" stroke="currentColor" stroke-width="1.2" stroke-linecap="round" stroke-linejoin="round" />
  <path d="M51.88,8.45 C51.71,8.58 51.56,8.73 51.42,8.89" fill="currentColor" stroke="currentColor" stroke-width="1.2" stroke-linecap="round" stroke-linejoin="round" />
  <path d="M49.28,8.88 C49.42,8.84 49.57,8.82 49.73,8.82" fill="currentColor" stroke="currentColor" stroke-width="1.2" stroke-linecap="round" stroke-linejoin="round" />
  <path d="M52.16,9.00 C52.36,8.88 52.54,8.82 52.70,8.82" fill="currentColor" stroke="currentColor" stroke-width="1.2" stroke-linecap="round" stroke-linejoin="round" />
  <path d="M49.73,8.82 C49.90,8.82 50.04,8.86 50.18,8.94" fill="currentColor" stroke="currentColor" stroke-width="1.2" stroke-linecap="round" stroke-linejoin="round" />
  <path d="M52.70,8.82 C52.89,8.83 53.06,8.87 53.22,8.96" fill="currentColor" stroke="currentColor" stroke-width="1.2" stroke-linecap="round" stroke-linejoin="round" />
  <path d="M48.89,9.08 C49.02,8.99 49.15,8.92 49.28,8.88" fill="currentColor" stroke="currentColor" stroke-width="1.2" stroke-linecap="round" stroke-linejoin="round" />
  <path d="M45.01,8.90 C45.16,8.90 45.30,8.92 45.43,8.95" fill="currentColor" stroke="currentColor" stroke-width="1.2" stroke-linecap="round" stroke-linejoin="round" />
  <path d="M44.23,9.11 C44.45,8.98 44.72,8.90 45.01,8.90" fill="currentColor" stroke="currentColor" stroke-width="1.2" stroke-linecap="round" stroke-linejoin="round" />
  <path d="M54.70,9.94 C54.70,9.55 54.63,9.21 54.50,8.92" fill="currentColor" stroke="currentColor" stroke-width="1.2" stroke-linecap="round" stroke-linejoin="round" />
  <path d="M50.18,8.94 C50.31,9.02 50.42,9.15 50.50,9.32" fill="currentColor" stroke="currentColor" stroke-width="1.2" stroke-linecap="round" stroke-linejoin="round" />
  <path d="M45.43,8.95 C45.57,8.97 45.72,9.02 45.87,9.09" fill="currentColor" stroke="currentColor" stroke-width="1.2" stroke-linecap="round" stroke-linejoin="round" />
  <path d="M53.22,8.96 C53.37,9.05 53.49,9.18 53.58,9.35" fill="currentColor" stroke="currentColor" stroke-width="1.2" stroke-linecap="round" stroke-linejoin="round" />
  <path d="M51.60,9.45 C51.78,9.27 51.97,9.12 52.16,9.00" fill="currentColor" stroke="currentColor" stroke-width="1.2" stroke-linecap="round" stroke-linejoin="round" />
  <path d="M48.50,9.45 C48.63,9.30 48.76,9.17 48.89,9.08" fill="currentColor" stroke="currentColor" stroke-width="1.2" stroke-linecap="round" stroke-linejoin="round" />
  <path d="M45.87,9.09 C46.02,9.17 46.19,9.26 46.38,9.39" fill="currentColor" stroke="currentColor" stroke-width="1.2" stroke-linecap="round" stroke-linejoin="round" />
  <path d="M43.70,9.70 C43.83,9.45 44.00,9.25 44.23,9.11" fill="currentColor" stroke="currentColor" stroke-width="1.2" stroke-linecap="round" stroke-linejoin="round" />
  <path d="M42.81,9.25 C42.61,9.65 42.51,10.12 42.51,10.66" fill="currentColor" stroke="currentColor" stroke-width="1.2" stroke-linecap="round" stroke-linejoin="round" />
  <path d="M50.50,9.32 C50.58,9.48 50.62,9.70 50.62,9.97" fill="currentColor" stroke="currentColor" stroke-width="1.2" stroke-linecap="round" stroke-linejoin="round" />
  <path d="M53.58,9.35 C53.68,9.52 53.72,9.73 53.72,9.98" fill="currentColor" stroke="currentColor" stroke-width="1.2" stroke-linecap="round" stroke-linejoin="round" />
  <line x1="48.50" y1="13.04" x2="48.50" y2="9.45" fill="currentColor" stroke="currentColor" stroke-width="1.2" stroke-linecap="round" stroke-linejoin="round" />
  <line x1="51.60" y1="13.04" x2="51.60" y2="9.45" fill="currentColor" stroke="currentColor" stroke-width="1.2" stroke-linecap="round" stroke-linejoin="round" />
  <path d="M43.51,10.57 C43.51,10.24 43.57,9.95 43.70,9.70" fill="currentColor" stroke="currentColor" stroke-width="1.2" stroke-linecap="round" stroke-linejoin="round" />
  <line x1="54.70" y1="13.04" x2="54.70" y2="9.94" fill="currentColor" stroke="currentColor" stroke-width="1.2" stroke-linecap="round" stroke-linejoin="round" />
  <line x1="50.62" y1="9.97" x2="50.62" y2="13.04" fill="currentColor" stroke="currentColor" stroke-width="1.2" stroke-linecap="round" stroke-linejoin="round" />
  <line x1="53.72" y1="9.98" x2="53.72" y2="13.04" fill="currentColor" stroke="currentColor" stroke-width="1.2" stroke-linecap="round" stroke-linejoin="round" />
  <line x1="36.12" y1="10.42" x2="33.96" y2="13.04" fill="currentColor" stroke="currentColor" stroke-width="1.2" stroke-linecap="round" stroke-linejoin="round" />
  <line x1="38.44" y1="13.04" x2="37.19" y2="10.54" fill="currentColor" stroke="currentColor" stroke-width="1.2" stroke-linecap="round" stroke-linejoin="round" />
  <path d="M43.72,11.45 C43.58,11.21 43.51,10.92 43.51,10.57" fill="currentColor" stroke="currentColor" stroke-width="1.2" stroke-linecap="round" stroke-linejoin="round" />
  <path d="M42.51,10.66 C42.51,11.15 42.62,11.58 42.83,11.95" fill="currentColor" stroke="currentColor" stroke-width="1.2" stroke-linecap="round" stroke-linejoin="round" />
  <line x1="35.11" y1="13.04" x2="36.54" y2="11.19" fill="currentColor" stroke="currentColor" stroke-width="1.2" stroke-linecap="round" stroke-linejoin="round" />
  <line x1="36.54" y1="11.19" x2="37.44" y2="13.04" fill="currentColor" stroke="currentColor" stroke-width="1.2" stroke-linecap="round" stroke-linejoin="round" />
  <path d="M44.30,12.02 C44.05,11.89 43.85,11.70 43.72,11.45" fill="currentColor" stroke="currentColor" stroke-width="1.2" stroke-linecap="round" stroke-linejoin="round" />
  <line x1="46.49" y1="12.85" x2="46.49" y2="11.88" fill="currentColor" stroke="currentColor" stroke-width="1.2" stroke-linecap="round" stroke-linejoin="round" />
  <path d="M46.49,11.88 C46.24,11.99 46.02,12.08 45.81,12.13" fill="currentColor" stroke="currentColor" stroke-width="1.2" stroke-linecap="round" stroke-linejoin="round" />
  <path d="M42.83,11.95 C43.04,12.32 43.33,12.61 43.71,12.82" fill="currentColor" stroke="currentColor" stroke-width="1.2" stroke-linecap="round" stroke-linejoin="round" />
  <path d="M45.18,12.21 C44.84,12.21 44.55,12.15 44.30,12.02" fill="currentColor" stroke="currentColor" stroke-width="1.2" stroke-linecap="round" stroke-linejoin="round" />
  <path d="M45.81,12.13 C45.59,12.19 45.39,12.21 45.18,12.21" fill="currentColor" stroke="currentColor" stroke-width="1.2" stroke-linecap="round" stroke-linejoin="round" />
  <path d="M43.71,12.82 C44.08,13.03 44.52,13.13 45.01,13.14" fill="currentColor" stroke="currentColor" stroke-width="1.2" stroke-linecap="round" stroke-linejoin="round" />
  <path d="M46.07,12.99 C46.24,12.95 46.38,12.90 46.49,12.85" fill="currentColor" stroke="currentColor" stroke-width="1.2" stroke-linecap="round" stroke-linejoin="round" />
  <path d="M45.55,13.10 C45.74,13.07 45.91,13.04 46.07,12.99" fill="currentColor" stroke="currentColor" stroke-width="1.2" stroke-linecap="round" stroke-linejoin="round" />
  <line x1="33.96" y1="13.04" x2="35.11" y2="13.04" fill="currentColor" stroke="currentColor" stroke-width="1.2" stroke-linecap="round" stroke-linejoin="round" />
  <line x1="37.44" y1="13.04" x2="38.44" y2="13.04" fill="currentColor" stroke="currentColor" stroke-width="1.2" stroke-linecap="round" stroke-linejoin="round" />
  <line x1="47.52" y1="13.04" x2="48.50" y2="13.04" fill="currentColor" stroke="currentColor" stroke-width="1.2" stroke-linecap="round" stroke-linejoin="round" />
  <line x1="50.62" y1="13.04" x2="51.60" y2="13.04" fill="currentColor" stroke="currentColor" stroke-width="1.2" stroke-linecap="round" stroke-linejoin="round" />
  <line x1="53.72" y1="13.04" x2="54.70" y2="13.04" fill="currentColor" stroke="currentColor" stroke-width="1.2" stroke-linecap="round" stroke-linejoin="round" />
  <path d="M45.01,13.14 C45.19,13.14 45.37,13.12 45.55,13.10" fill="currentColor" stroke="currentColor" stroke-width="1.2" stroke-linecap="round" stroke-linejoin="round" />
  <rect x="8.00" y="17.43" width="69.93" height="69.01" fill="none" stroke="currentColor" stroke-width="1.2119999647140502" stroke-linecap="round" stroke-linejoin="round" />
  <rect x="8.00" y="17.43" width="7.16" height="7.16" fill="none" stroke="currentColor" stroke-width="1.0" stroke-linecap="round" stroke-linejoin="round" />
  <rect x="70.74" y="17.43" width="7.16" height="7.16" fill="none" stroke="currentColor" stroke-width="1.0" stroke-linecap="round" stroke-linejoin="round" />
  <path d="M56.86,48.13 C56.67,48.02 56.45,47.97 56.20,47.96" fill="currentColor" stroke="currentColor" stroke-width="1.2" stroke-linecap="round" stroke-linejoin="round" />
  <path d="M56.20,47.96 C56.04,47.96 55.88,48.00 55.72,48.06" fill="currentColor" stroke="currentColor" stroke-width="1.2" stroke-linecap="round" stroke-linejoin="round" />
  <path d="M55.72,48.06 C55.56,48.12 55.40,48.22 55.24,48.35" fill="currentColor" stroke="currentColor" stroke-width="1.2" stroke-linecap="round" stroke-linejoin="round" />
  <path d="M57.29,48.57 C57.19,48.38 57.04,48.23 56.86,48.13" fill="currentColor" stroke="currentColor" stroke-width="1.2" stroke-linecap="round" stroke-linejoin="round" />
  <path d="M30.98,48.45 C30.65,48.29 30.26,48.21 29.81,48.20" fill="currentColor" stroke="currentColor" stroke-width="1.2" stroke-linecap="round" stroke-linejoin="round" />
  <path d="M29.81,48.20 C29.54,48.20 29.28,48.23 29.05,48.28" fill="currentColor" stroke="currentColor" stroke-width="1.2" stroke-linecap="round" stroke-linejoin="round" />
  <path d="M36.47,48.20 C35.82,48.64 35.27,49.13 34.82,49.67" fill="currentColor" stroke="currentColor" stroke-width="1.2" stroke-linecap="round" stroke-linejoin="round" />
  <line x1="37.12" y1="49.03" x2="36.47" y2="48.20" fill="currentColor" stroke="currentColor" stroke-width="1.2" stroke-linecap="round" stroke-linejoin="round" />
  <path d="M29.05,48.28 C28.82,48.33 28.59,48.41 28.37,48.52" fill="currentColor" stroke="currentColor" stroke-width="1.2" stroke-linecap="round" stroke-linejoin="round" />
  <line x1="55.24" y1="48.35" x2="55.24" y2="49.09" fill="currentColor" stroke="currentColor" stroke-width="1.2" stroke-linecap="round" stroke-linejoin="round" />
  <path d="M31.75,49.13 C31.57,48.83 31.31,48.61 30.98,48.45" fill="currentColor" stroke="currentColor" stroke-width="1.2" stroke-linecap="round" stroke-linejoin="round" />
  <line x1="28.37" y1="48.52" x2="28.37" y2="49.54" fill="currentColor" stroke="currentColor" stroke-width="1.2" stroke-linecap="round" stroke-linejoin="round" />
  <path d="M55.87,48.59 C55.97,48.55 56.06,48.54 56.16,48.54" fill="currentColor" stroke="currentColor" stroke-width="1.2" stroke-linecap="round" stroke-linejoin="round" />
  <path d="M56.16,48.54 C56.30,48.54 56.42,48.57 56.52,48.64" fill="currentColor" stroke="currentColor" stroke-width="1.2" stroke-linecap="round" stroke-linejoin="round" />
  <path d="M57.45,49.24 C57.45,48.99 57.40,48.76 57.29,48.57" fill="currentColor" stroke="currentColor" stroke-width="1.2" stroke-linecap="round" stroke-linejoin="round" />
  <path d="M55.56,48.76 C55.66,48.68 55.77,48.62 55.87,48.59" fill="currentColor" stroke="currentColor" stroke-width="1.2" stroke-linecap="round" stroke-linejoin="round" />
  <path d="M56.52,48.64 C56.63,48.70 56.71,48.79 56.77,48.91" fill="currentColor" stroke="currentColor" stroke-width="1.2" stroke-linecap="round" stroke-linejoin="round" />
  <path d="M55.24,49.09 C55.35,48.95 55.45,48.84 55.56,48.76" fill="currentColor" stroke="currentColor" stroke-width="1.2" stroke-linecap="round" stroke-linejoin="round" />
  <path d="M56.77,48.91 C56.83,49.02 56.86,49.16 56.86,49.31" fill="currentColor" stroke="currentColor" stroke-width="1.2" stroke-linecap="round" stroke-linejoin="round" />
  <path d="M36.12,49.78 C36.43,49.49 36.76,49.24 37.12,49.03" fill="currentColor" stroke="currentColor" stroke-width="1.2" stroke-linecap="round" stroke-linejoin="round" />
  <path d="M32.02,50.16 C32.02,49.76 31.93,49.42 31.75,49.13" fill="currentColor" stroke="currentColor" stroke-width="1.2" stroke-linecap="round" stroke-linejoin="round" />
  <path d="M29.25,49.26 C29.38,49.24 29.51,49.23 29.65,49.23" fill="currentColor" stroke="currentColor" stroke-width="1.2" stroke-linecap="round" stroke-linejoin="round" />
  <path d="M29.65,49.23 C29.91,49.23 30.14,49.27 30.34,49.36" fill="currentColor" stroke="currentColor" stroke-width="1.2" stroke-linecap="round" stroke-linejoin="round" />
  <path d="M57.38,49.73 C57.43,49.57 57.45,49.41 57.45,49.24" fill="currentColor" stroke="currentColor" stroke-width="1.2" stroke-linecap="round" stroke-linejoin="round" />
  <path d="M28.84,49.36 C28.98,49.31 29.12,49.28 29.25,49.26" fill="currentColor" stroke="currentColor" stroke-width="1.2" stroke-linecap="round" stroke-linejoin="round" />
  <path d="M56.86,49.31 C56.86,49.42 56.85,49.52 56.83,49.61" fill="currentColor" stroke="currentColor" stroke-width="1.2" stroke-linecap="round" stroke-linejoin="round" />
  <path d="M28.37,49.54 C28.54,49.47 28.70,49.41 28.84,49.36" fill="currentColor" stroke="currentColor" stroke-width="1.2" stroke-linecap="round" stroke-linejoin="round" />
  <path d="M30.34,49.36 C30.53,49.45 30.68,49.58 30.79,49.75" fill="currentColor" stroke="currentColor" stroke-width="1.2" stroke-linecap="round" stroke-linejoin="round" />
  <path d="M56.83,49.61 C56.81,49.70 56.78,49.79 56.74,49.88" fill="currentColor" stroke="currentColor" stroke-width="1.2" stroke-linecap="round" stroke-linejoin="round" />
  <path d="M34.82,49.67 C34.38,50.21 34.04,50.78 33.81,51.39" fill="currentColor" stroke="currentColor" stroke-width="1.2" stroke-linecap="round" stroke-linejoin="round" />
  <path d="M57.16,50.24 C57.26,50.06 57.33,49.89 57.38,49.73" fill="currentColor" stroke="currentColor" stroke-width="1.2" stroke-linecap="round" stroke-linejoin="round" />
  <path d="M30.79,49.75 C30.89,49.92 30.94,50.12 30.95,50.35" fill="currentColor" stroke="currentColor" stroke-width="1.2" stroke-linecap="round" stroke-linejoin="round" />
  <path d="M35.32,50.74 C35.54,50.39 35.81,50.08 36.12,49.78" fill="currentColor" stroke="currentColor" stroke-width="1.2" stroke-linecap="round" stroke-linejoin="round" />
  <path d="M56.74,49.88 C56.69,49.98 56.64,50.07 56.58,50.18" fill="currentColor" stroke="currentColor" stroke-width="1.2" stroke-linecap="round" stroke-linejoin="round" />
  <path d="M31.93,50.89 C31.99,50.68 32.02,50.44 32.02,50.16" fill="currentColor" stroke="currentColor" stroke-width="1.2" stroke-linecap="round" stroke-linejoin="round" />
  <path d="M56.58,50.18 C56.49,50.33 56.39,50.49 56.27,50.65" fill="currentColor" stroke="currentColor" stroke-width="1.2" stroke-linecap="round" stroke-linejoin="round" />
  <path d="M56.76,50.83 C56.92,50.61 57.06,50.42 57.16,50.24" fill="currentColor" stroke="currentColor" stroke-width="1.2" stroke-linecap="round" stroke-linejoin="round" />
  <path d="M30.95,50.35 C30.95,50.69 30.82,50.96 30.57,51.15" fill="currentColor" stroke="currentColor" stroke-width="1.2" stroke-linecap="round" stroke-linejoin="round" />
  <path d="M56.27,50.65 C56.15,50.81 56.03,50.98 55.90,51.14" fill="currentColor" stroke="currentColor" stroke-width="1.2" stroke-linecap="round" stroke-linejoin="round" />
  <path d="M34.82,51.78 C34.92,51.42 35.09,51.08 35.32,50.74" fill="currentColor" stroke="currentColor" stroke-width="1.2" stroke-linecap="round" stroke-linejoin="round" />
  <path d="M44.95,50.81 C44.79,50.78 44.62,50.77 44.43,50.76" fill="currentColor" stroke="currentColor" stroke-width="1.2" stroke-linecap="round" stroke-linejoin="round" />
  <path d="M44.43,50.76 C43.93,50.77 43.50,50.88 43.13,51.09" fill="currentColor" stroke="currentColor" stroke-width="1.2" stroke-linecap="round" stroke-linejoin="round" />
  <path d="M53.42,51.01 C53.17,50.85 52.88,50.77 52.55,50.76" fill="currentColor" stroke="currentColor" stroke-width="1.2" stroke-linecap="round" stroke-linejoin="round" />
  <path d="M52.55,50.76 C52.31,50.77 52.10,50.81 51.90,50.89" fill="currentColor" stroke="currentColor" stroke-width="1.2" stroke-linecap="round" stroke-linejoin="round" />
  <path d="M50.27,50.99 C50.02,50.84 49.74,50.77 49.42,50.76" fill="currentColor" stroke="currentColor" stroke-width="1.2" stroke-linecap="round" stroke-linejoin="round" />
  <path d="M49.42,50.76 C49.19,50.76 48.96,50.83 48.72,50.95" fill="currentColor" stroke="currentColor" stroke-width="1.2" stroke-linecap="round" stroke-linejoin="round" />
  <path d="M92.96,50.85 C92.80,50.82 92.63,50.81 92.44,50.80" fill="currentColor" stroke="currentColor" stroke-width="1.2" stroke-linecap="round" stroke-linejoin="round" />
  <path d="M92.44,50.80 C91.94,50.81 91.51,50.92 91.14,51.13" fill="currentColor" stroke="currentColor" stroke-width="1.2" stroke-linecap="round" stroke-linejoin="round" />
  <path d="M101.43,51.05 C101.18,50.89 100.89,50.81 100.56,50.80" fill="currentColor" stroke="currentColor" stroke-width="1.2" stroke-linecap="round" stroke-linejoin="round" />
  <path d="M100.56,50.80 C100.32,50.81 100.11,50.85 99.91,50.93" fill="currentColor" stroke="currentColor" stroke-width="1.2" stroke-linecap="round" stroke-linejoin="round" />
  <path d="M98.28,51.03 C98.03,50.88 97.75,50.81 97.43,50.80" fill="currentColor" stroke="currentColor" stroke-width="1.2" stroke-linecap="round" stroke-linejoin="round" />
  <path d="M97.43,50.80 C97.20,50.80 96.97,50.87 96.73,50.99" fill="currentColor" stroke="currentColor" stroke-width="1.2" stroke-linecap="round" stroke-linejoin="round" />
  <path d="M45.41,50.92 C45.26,50.87 45.11,50.83 44.95,50.81" fill="currentColor" stroke="currentColor" stroke-width="1.2" stroke-linecap="round" stroke-linejoin="round" />
  <path d="M56.18,51.55 C56.41,51.28 56.60,51.04 56.76,50.83" fill="currentColor" stroke="currentColor" stroke-width="1.2" stroke-linecap="round" stroke-linejoin="round" />
  <path d="M93.42,50.96 C93.27,50.91 93.12,50.87 92.96,50.85" fill="currentColor" stroke="currentColor" stroke-width="1.2" stroke-linecap="round" stroke-linejoin="round" />
  <line x1="47.00" y1="50.86" x2="47.00" y2="55.80" fill="currentColor" stroke="currentColor" stroke-width="1.2" stroke-linecap="round" stroke-linejoin="round" />
  <line x1="47.98" y1="51.51" x2="47.98" y2="50.86" fill="currentColor" stroke="currentColor" stroke-width="1.2" stroke-linecap="round" stroke-linejoin="round" />
  <line x1="47.98" y1="50.86" x2="47.00" y2="50.86" fill="currentColor" stroke="currentColor" stroke-width="1.2" stroke-linecap="round" stroke-linejoin="round" />
  <path d="M31.62,51.43 C31.76,51.27 31.86,51.09 31.93,50.89" fill="currentColor" stroke="currentColor" stroke-width="1.2" stroke-linecap="round" stroke-linejoin="round" />
  <path d="M51.90,50.89 C51.71,50.97 51.52,51.08 51.36,51.21" fill="currentColor" stroke="currentColor" stroke-width="1.2" stroke-linecap="round" stroke-linejoin="round" />
  <line x1="86.77" y1="50.90" x2="85.79" y2="50.90" fill="currentColor" stroke="currentColor" stroke-width="1.2" stroke-linecap="round" stroke-linejoin="round" />
  <line x1="85.79" y1="50.90" x2="84.24" y2="54.30" fill="currentColor" stroke="currentColor" stroke-width="1.2" stroke-linecap="round" stroke-linejoin="round" />
  <line x1="84.21" y1="54.30" x2="83.55" y2="50.90" fill="currentColor" stroke="currentColor" stroke-width="1.2" stroke-linecap="round" stroke-linejoin="round" />
  <line x1="83.55" y1="50.90" x2="82.62" y2="50.90" fill="currentColor" stroke="currentColor" stroke-width="1.2" stroke-linecap="round" stroke-linejoin="round" />
  <line x1="82.62" y1="50.90" x2="83.58" y2="55.55" fill="currentColor" stroke="currentColor" stroke-width="1.2" stroke-linecap="round" stroke-linejoin="round" />
  <line x1="83.22" y1="58.37" x2="86.77" y2="50.90" fill="currentColor" stroke="currentColor" stroke-width="1.2" stroke-linecap="round" stroke-linejoin="round" />
  <line x1="95.01" y1="50.90" x2="95.01" y2="55.84" fill="currentColor" stroke="currentColor" stroke-width="1.2" stroke-linecap="round" stroke-linejoin="round" />
  <line x1="95.99" y1="51.55" x2="95.99" y2="50.90" fill="currentColor" stroke="currentColor" stroke-width="1.2" stroke-linecap="round" stroke-linejoin="round" />
  <line x1="95.99" y1="50.90" x2="95.01" y2="50.90" fill="currentColor" stroke="currentColor" stroke-width="1.2" stroke-linecap="round" stroke-linejoin="round" />
  <path d="M45.86,51.11 C45.70,51.04 45.55,50.98 45.41,50.92" fill="currentColor" stroke="currentColor" stroke-width="1.2" stroke-linecap="round" stroke-linejoin="round" />
  <path d="M99.91,50.93 C99.71,51.01 99.53,51.12 99.37,51.25" fill="currentColor" stroke="currentColor" stroke-width="1.2" stroke-linecap="round" stroke-linejoin="round" />
  <path d="M48.72,50.95 C48.48,51.07 48.23,51.26 47.98,51.51" fill="currentColor" stroke="currentColor" stroke-width="1.2" stroke-linecap="round" stroke-linejoin="round" />
  <path d="M93.87,51.15 C93.71,51.08 93.56,51.02 93.42,50.96" fill="currentColor" stroke="currentColor" stroke-width="1.2" stroke-linecap="round" stroke-linejoin="round" />
  <path d="M96.73,50.99 C96.49,51.11 96.24,51.30 95.99,51.55" fill="currentColor" stroke="currentColor" stroke-width="1.2" stroke-linecap="round" stroke-linejoin="round" />
  <path d="M50.90,51.65 C50.73,51.36 50.52,51.14 50.27,50.99" fill="currentColor" stroke="currentColor" stroke-width="1.2" stroke-linecap="round" stroke-linejoin="round" />
  <path d="M53.98,51.68 C53.85,51.39 53.66,51.17 53.42,51.01" fill="currentColor" stroke="currentColor" stroke-width="1.2" stroke-linecap="round" stroke-linejoin="round" />
  <path d="M98.91,51.69 C98.74,51.40 98.53,51.18 98.28,51.03" fill="currentColor" stroke="currentColor" stroke-width="1.2" stroke-linecap="round" stroke-linejoin="round" />
  <path d="M101.99,51.72 C101.86,51.43 101.67,51.21 101.43,51.05" fill="currentColor" stroke="currentColor" stroke-width="1.2" stroke-linecap="round" stroke-linejoin="round" />
  <path d="M43.13,51.09 C42.77,51.31 42.49,51.62 42.29,52.01" fill="currentColor" stroke="currentColor" stroke-width="1.2" stroke-linecap="round" stroke-linejoin="round" />
  <line x1="45.86" y1="52.15" x2="45.86" y2="51.11" fill="currentColor" stroke="currentColor" stroke-width="1.2" stroke-linecap="round" stroke-linejoin="round" />
  <path d="M91.14,51.13 C90.78,51.35 90.50,51.66 90.30,52.05" fill="currentColor" stroke="currentColor" stroke-width="1.2" stroke-linecap="round" stroke-linejoin="round" />
  <path d="M55.90,51.14 C55.77,51.31 55.65,51.47 55.52,51.63" fill="currentColor" stroke="currentColor" stroke-width="1.2" stroke-linecap="round" stroke-linejoin="round" />
  <line x1="93.87" y1="52.19" x2="93.87" y2="51.15" fill="currentColor" stroke="currentColor" stroke-width="1.2" stroke-linecap="round" stroke-linejoin="round" />
  <path d="M30.57,51.15 C30.33,51.34 29.96,51.43 29.46,51.44" fill="currentColor" stroke="currentColor" stroke-width="1.2" stroke-linecap="round" stroke-linejoin="round" />
  <path d="M51.36,51.21 C51.19,51.34 51.04,51.49 50.90,51.65" fill="currentColor" stroke="currentColor" stroke-width="1.2" stroke-linecap="round" stroke-linejoin="round" />
  <path d="M99.37,51.25 C99.20,51.38 99.05,51.53 98.91,51.69" fill="currentColor" stroke="currentColor" stroke-width="1.2" stroke-linecap="round" stroke-linejoin="round" />
  <path d="M33.81,51.39 C33.58,51.99 33.47,52.61 33.47,53.24" fill="currentColor" stroke="currentColor" stroke-width="1.2" stroke-linecap="round" stroke-linejoin="round" />
  <path d="M31.07,51.84 C31.29,51.72 31.48,51.58 31.62,51.43" fill="currentColor" stroke="currentColor" stroke-width="1.2" stroke-linecap="round" stroke-linejoin="round" />
  <line x1="29.46" y1="51.44" x2="29.46" y2="52.43" fill="currentColor" stroke="currentColor" stroke-width="1.2" stroke-linecap="round" stroke-linejoin="round" />
  <path d="M37.07,51.76 C36.76,51.57 36.40,51.47 35.99,51.47" fill="currentColor" stroke="currentColor" stroke-width="1.2" stroke-linecap="round" stroke-linejoin="round" />
  <path d="M35.99,51.47 C35.75,51.47 35.53,51.50 35.33,51.56" fill="currentColor" stroke="currentColor" stroke-width="1.2" stroke-linecap="round" stroke-linejoin="round" />
  <line x1="57.75" y1="51.55" x2="56.18" y2="51.55" fill="currentColor" stroke="currentColor" stroke-width="1.2" stroke-linecap="round" stroke-linejoin="round" />
  <line x1="57.75" y1="52.11" x2="57.75" y2="51.55" fill="currentColor" stroke="currentColor" stroke-width="1.2" stroke-linecap="round" stroke-linejoin="round" />
  <path d="M35.33,51.56 C35.14,51.63 34.97,51.70 34.82,51.78" fill="currentColor" stroke="currentColor" stroke-width="1.2" stroke-linecap="round" stroke-linejoin="round" />
  <path d="M48.77,51.65 C48.90,51.61 49.05,51.59 49.21,51.59" fill="currentColor" stroke="currentColor" stroke-width="1.2" stroke-linecap="round" stroke-linejoin="round" />
  <path d="M51.65,51.76 C51.84,51.65 52.02,51.59 52.18,51.59" fill="currentColor" stroke="currentColor" stroke-width="1.2" stroke-linecap="round" stroke-linejoin="round" />
  <path d="M49.21,51.59 C49.38,51.59 49.53,51.63 49.66,51.71" fill="currentColor" stroke="currentColor" stroke-width="1.2" stroke-linecap="round" stroke-linejoin="round" />
  <path d="M52.18,51.59 C52.37,51.59 52.54,51.63 52.70,51.72" fill="currentColor" stroke="currentColor" stroke-width="1.2" stroke-linecap="round" stroke-linejoin="round" />
  <path d="M55.52,51.63 C55.39,51.78 55.27,51.93 55.15,52.07" fill="currentColor" stroke="currentColor" stroke-width="1.2" stroke-linecap="round" stroke-linejoin="round" />
  <path d="M96.77,51.69 C96.91,51.65 97.06,51.63 97.22,51.63" fill="currentColor" stroke="currentColor" stroke-width="1.2" stroke-linecap="round" stroke-linejoin="round" />
  <path d="M99.66,51.80 C99.85,51.69 100.03,51.63 100.19,51.63" fill="currentColor" stroke="currentColor" stroke-width="1.2" stroke-linecap="round" stroke-linejoin="round" />
  <path d="M97.22,51.63 C97.39,51.63 97.53,51.67 97.67,51.75" fill="currentColor" stroke="currentColor" stroke-width="1.2" stroke-linecap="round" stroke-linejoin="round" />
  <path d="M100.19,51.63 C100.38,51.63 100.55,51.67 100.71,51.76" fill="currentColor" stroke="currentColor" stroke-width="1.2" stroke-linecap="round" stroke-linejoin="round" />
  <path d="M48.37,51.84 C48.50,51.75 48.63,51.69 48.77,51.65" fill="currentColor" stroke="currentColor" stroke-width="1.2" stroke-linecap="round" stroke-linejoin="round" />
  <path d="M44.50,51.67 C44.64,51.67 44.78,51.68 44.92,51.71" fill="currentColor" stroke="currentColor" stroke-width="1.2" stroke-linecap="round" stroke-linejoin="round" />
  <path d="M43.71,51.88 C43.94,51.74 44.20,51.67 44.50,51.67" fill="currentColor" stroke="currentColor" stroke-width="1.2" stroke-linecap="round" stroke-linejoin="round" />
  <path d="M54.19,52.70 C54.18,52.31 54.12,51.97 53.98,51.68" fill="currentColor" stroke="currentColor" stroke-width="1.2" stroke-linecap="round" stroke-linejoin="round" />
  <path d="M96.38,51.88 C96.51,51.79 96.64,51.73 96.77,51.69" fill="currentColor" stroke="currentColor" stroke-width="1.2" stroke-linecap="round" stroke-linejoin="round" />
  <path d="M92.51,51.71 C92.65,51.71 92.79,51.72 92.93,51.75" fill="currentColor" stroke="currentColor" stroke-width="1.2" stroke-linecap="round" stroke-linejoin="round" />
  <path d="M91.72,51.92 C91.94,51.78 92.21,51.71 92.51,51.71" fill="currentColor" stroke="currentColor" stroke-width="1.2" stroke-linecap="round" stroke-linejoin="round" />
  <path d="M49.66,51.71 C49.79,51.79 49.90,51.91 49.98,52.08" fill="currentColor" stroke="currentColor" stroke-width="1.2" stroke-linecap="round" stroke-linejoin="round" />
  <path d="M44.92,51.71 C45.05,51.74 45.20,51.79 45.35,51.86" fill="currentColor" stroke="currentColor" stroke-width="1.2" stroke-linecap="round" stroke-linejoin="round" />
  <path d="M102.19,52.74 C102.19,52.35 102.13,52.01 101.99,51.72" fill="currentColor" stroke="currentColor" stroke-width="1.2" stroke-linecap="round" stroke-linejoin="round" />
  <path d="M52.70,51.72 C52.85,51.81 52.97,51.94 53.07,52.11" fill="currentColor" stroke="currentColor" stroke-width="1.2" stroke-linecap="round" stroke-linejoin="round" />
  <path d="M97.67,51.75 C97.80,51.83 97.91,51.95 97.99,52.12" fill="currentColor" stroke="currentColor" stroke-width="1.2" stroke-linecap="round" stroke-linejoin="round" />
  <path d="M92.93,51.75 C93.06,51.78 93.21,51.83 93.36,51.90" fill="currentColor" stroke="currentColor" stroke-width="1.2" stroke-linecap="round" stroke-linejoin="round" />
  <path d="M37.82,52.54 C37.63,52.21 37.39,51.95 37.07,51.76" fill="currentColor" stroke="currentColor" stroke-width="1.2" stroke-linecap="round" stroke-linejoin="round" />
  <path d="M100.71,51.76 C100.86,51.85 100.98,51.98 101.07,52.15" fill="currentColor" stroke="currentColor" stroke-width="1.2" stroke-linecap="round" stroke-linejoin="round" />
  <path d="M51.08,52.22 C51.26,52.03 51.45,51.88 51.65,51.76" fill="currentColor" stroke="currentColor" stroke-width="1.2" stroke-linecap="round" stroke-linejoin="round" />
  <path d="M99.09,52.26 C99.27,52.07 99.46,51.92 99.66,51.80" fill="currentColor" stroke="currentColor" stroke-width="1.2" stroke-linecap="round" stroke-linejoin="round" />
  <path d="M31.68,52.24 C31.52,52.06 31.32,51.92 31.07,51.84" fill="currentColor" stroke="currentColor" stroke-width="1.2" stroke-linecap="round" stroke-linejoin="round" />
  <path d="M47.98,52.22 C48.12,52.06 48.25,51.93 48.37,51.84" fill="currentColor" stroke="currentColor" stroke-width="1.2" stroke-linecap="round" stroke-linejoin="round" />
  <path d="M45.35,51.86 C45.51,51.93 45.68,52.03 45.86,52.15" fill="currentColor" stroke="currentColor" stroke-width="1.2" stroke-linecap="round" stroke-linejoin="round" />
  <path d="M43.18,52.46 C43.31,52.21 43.48,52.02 43.71,51.88" fill="currentColor" stroke="currentColor" stroke-width="1.2" stroke-linecap="round" stroke-linejoin="round" />
  <path d="M95.99,52.26 C96.13,52.10 96.26,51.97 96.38,51.88" fill="currentColor" stroke="currentColor" stroke-width="1.2" stroke-linecap="round" stroke-linejoin="round" />
  <path d="M93.36,51.90 C93.52,51.97 93.68,52.07 93.87,52.19" fill="currentColor" stroke="currentColor" stroke-width="1.2" stroke-linecap="round" stroke-linejoin="round" />
  <path d="M91.19,52.50 C91.32,52.25 91.49,52.06 91.72,51.92" fill="currentColor" stroke="currentColor" stroke-width="1.2" stroke-linecap="round" stroke-linejoin="round" />
  <path d="M42.29,52.01 C42.09,52.41 41.99,52.88 41.99,53.43" fill="currentColor" stroke="currentColor" stroke-width="1.2" stroke-linecap="round" stroke-linejoin="round" />
  <path d="M90.30,52.05 C90.10,52.45 90.00,52.92 90.00,53.47" fill="currentColor" stroke="currentColor" stroke-width="1.2" stroke-linecap="round" stroke-linejoin="round" />
  <line x1="55.15" y1="52.07" x2="55.15" y2="52.11" fill="currentColor" stroke="currentColor" stroke-width="1.2" stroke-linecap="round" stroke-linejoin="round" />
  <path d="M49.98,52.08 C50.06,52.25 50.10,52.47 50.10,52.73" fill="currentColor" stroke="currentColor" stroke-width="1.2" stroke-linecap="round" stroke-linejoin="round" />
  <line x1="55.15" y1="52.11" x2="57.75" y2="52.11" fill="currentColor" stroke="currentColor" stroke-width="1.2" stroke-linecap="round" stroke-linejoin="round" />
  <path d="M53.07,52.11 C53.16,52.28 53.20,52.49 53.21,52.74" fill="currentColor" stroke="currentColor" stroke-width="1.2" stroke-linecap="round" stroke-linejoin="round" />
  <path d="M97.99,52.12 C98.07,52.29 98.11,52.51 98.11,52.77" fill="currentColor" stroke="currentColor" stroke-width="1.2" stroke-linecap="round" stroke-linejoin="round" />
  <path d="M101.07,52.15 C101.17,52.32 101.21,52.53 101.22,52.78" fill="currentColor" stroke="currentColor" stroke-width="1.2" stroke-linecap="round" stroke-linejoin="round" />
  <line x1="47.98" y1="55.80" x2="47.98" y2="52.22" fill="currentColor" stroke="currentColor" stroke-width="1.2" stroke-linecap="round" stroke-linejoin="round" />
  <line x1="51.08" y1="55.80" x2="51.08" y2="52.22" fill="currentColor" stroke="currentColor" stroke-width="1.2" stroke-linecap="round" stroke-linejoin="round" />
  <path d="M32.03,52.87 C31.95,52.63 31.84,52.42 31.68,52.24" fill="currentColor" stroke="currentColor" stroke-width="1.2" stroke-linecap="round" stroke-linejoin="round" />
  <line x1="95.99" y1="55.84" x2="95.99" y2="52.26" fill="currentColor" stroke="currentColor" stroke-width="1.2" stroke-linecap="round" stroke-linejoin="round" />
  <line x1="99.09" y1="55.84" x2="99.09" y2="52.26" fill="currentColor" stroke="currentColor" stroke-width="1.2" stroke-linecap="round" stroke-linejoin="round" />
  <path d="M29.46,52.43 C29.82,52.41 30.11,52.46 30.35,52.56" fill="currentColor" stroke="currentColor" stroke-width="1.2" stroke-linecap="round" stroke-linejoin="round" />
  <path d="M42.99,53.34 C42.99,53.00 43.06,52.71 43.18,52.46" fill="currentColor" stroke="currentColor" stroke-width="1.2" stroke-linecap="round" stroke-linejoin="round" />
  <path d="M35.37,52.53 C35.49,52.50 35.62,52.49 35.77,52.49" fill="currentColor" stroke="currentColor" stroke-width="1.2" stroke-linecap="round" stroke-linejoin="round" />
  <path d="M35.77,52.49 C36.01,52.49 36.23,52.54 36.41,52.64" fill="currentColor" stroke="currentColor" stroke-width="1.2" stroke-linecap="round" stroke-linejoin="round" />
  <path d="M91.00,53.38 C91.00,53.04 91.07,52.75 91.19,52.50" fill="currentColor" stroke="currentColor" stroke-width="1.2" stroke-linecap="round" stroke-linejoin="round" />
  <path d="M35.00,52.65 C35.12,52.59 35.25,52.55 35.37,52.53" fill="currentColor" stroke="currentColor" stroke-width="1.2" stroke-linecap="round" stroke-linejoin="round" />
  <path d="M38.09,53.66 C38.09,53.24 38.00,52.87 37.82,52.54" fill="currentColor" stroke="currentColor" stroke-width="1.2" stroke-linecap="round" stroke-linejoin="round" />
  <path d="M30.35,52.56 C30.59,52.67 30.77,52.82 30.89,53.02" fill="currentColor" stroke="currentColor" stroke-width="1.2" stroke-linecap="round" stroke-linejoin="round" />
  <path d="M36.41,52.64 C36.60,52.74 36.75,52.88 36.85,53.05" fill="currentColor" stroke="currentColor" stroke-width="1.2" stroke-linecap="round" stroke-linejoin="round" />
  <path d="M34.59,52.89 C34.74,52.79 34.88,52.71 35.00,52.65" fill="currentColor" stroke="currentColor" stroke-width="1.2" stroke-linecap="round" stroke-linejoin="round" />
  <line x1="54.19" y1="55.80" x2="54.19" y2="52.70" fill="currentColor" stroke="currentColor" stroke-width="1.2" stroke-linecap="round" stroke-linejoin="round" />
  <line x1="50.10" y1="52.73" x2="50.10" y2="55.80" fill="currentColor" stroke="currentColor" stroke-width="1.2" stroke-linecap="round" stroke-linejoin="round" />
  <line x1="102.19" y1="55.84" x2="102.19" y2="52.74" fill="currentColor" stroke="currentColor" stroke-width="1.2" stroke-linecap="round" stroke-linejoin="round" />
  <line x1="53.21" y1="52.74" x2="53.21" y2="55.80" fill="currentColor" stroke="currentColor" stroke-width="1.2" stroke-linecap="round" stroke-linejoin="round" />
  <line x1="98.11" y1="52.77" x2="98.11" y2="55.84" fill="currentColor" stroke="currentColor" stroke-width="1.2" stroke-linecap="round" stroke-linejoin="round" />
  <line x1="101.22" y1="52.78" x2="101.22" y2="55.84" fill="currentColor" stroke="currentColor" stroke-width="1.2" stroke-linecap="round" stroke-linejoin="round" />
  <path d="M32.14,53.63 C32.14,53.37 32.11,53.11 32.03,52.87" fill="currentColor" stroke="currentColor" stroke-width="1.2" stroke-linecap="round" stroke-linejoin="round" />
  <path d="M34.55,53.72 C34.50,53.47 34.52,53.20 34.59,52.89" fill="currentColor" stroke="currentColor" stroke-width="1.2" stroke-linecap="round" stroke-linejoin="round" />
  <path d="M30.89,53.02 C31.01,53.21 31.07,53.43 31.07,53.68" fill="currentColor" stroke="currentColor" stroke-width="1.2" stroke-linecap="round" stroke-linejoin="round" />
  <path d="M36.85,53.05 C36.96,53.23 37.02,53.42 37.02,53.65" fill="currentColor" stroke="currentColor" stroke-width="1.2" stroke-linecap="round" stroke-linejoin="round" />
  <path d="M33.47,53.24 C33.47,53.77 33.57,54.24 33.77,54.63" fill="currentColor" stroke="currentColor" stroke-width="1.2" stroke-linecap="round" stroke-linejoin="round" />
  <path d="M43.20,54.22 C43.06,53.97 42.99,53.68 42.99,53.34" fill="currentColor" stroke="currentColor" stroke-width="1.2" stroke-linecap="round" stroke-linejoin="round" />
  <path d="M91.21,54.26 C91.07,54.01 91.00,53.72 91.00,53.38" fill="currentColor" stroke="currentColor" stroke-width="1.2" stroke-linecap="round" stroke-linejoin="round" />
  <path d="M41.99,53.43 C41.99,53.91 42.10,54.34 42.31,54.71" fill="currentColor" stroke="currentColor" stroke-width="1.2" stroke-linecap="round" stroke-linejoin="round" />
  <path d="M90.00,53.47 C90.00,53.95 90.11,54.38 90.32,54.75" fill="currentColor" stroke="currentColor" stroke-width="1.2" stroke-linecap="round" stroke-linejoin="round" />
  <path d="M31.84,54.81 C32.04,54.47 32.14,54.08 32.14,53.63" fill="currentColor" stroke="currentColor" stroke-width="1.2" stroke-linecap="round" stroke-linejoin="round" />
  <path d="M37.02,53.65 C37.02,53.89 36.97,54.11 36.87,54.29" fill="currentColor" stroke="currentColor" stroke-width="1.2" stroke-linecap="round" stroke-linejoin="round" />
  <path d="M37.92,54.52 C38.03,54.25 38.09,53.96 38.09,53.66" fill="currentColor" stroke="currentColor" stroke-width="1.2" stroke-linecap="round" stroke-linejoin="round" />
  <path d="M31.07,53.68 C31.07,53.92 31.02,54.13 30.92,54.31" fill="currentColor" stroke="currentColor" stroke-width="1.2" stroke-linecap="round" stroke-linejoin="round" />
  <path d="M34.80,54.35 C34.68,54.17 34.59,53.96 34.55,53.72" fill="currentColor" stroke="currentColor" stroke-width="1.2" stroke-linecap="round" stroke-linejoin="round" />
  <path d="M43.78,54.78 C43.53,54.65 43.34,54.46 43.20,54.22" fill="currentColor" stroke="currentColor" stroke-width="1.2" stroke-linecap="round" stroke-linejoin="round" />
  <path d="M91.79,54.82 C91.54,54.69 91.34,54.50 91.21,54.26" fill="currentColor" stroke="currentColor" stroke-width="1.2" stroke-linecap="round" stroke-linejoin="round" />
  <path d="M36.87,54.29 C36.77,54.48 36.63,54.62 36.45,54.72" fill="currentColor" stroke="currentColor" stroke-width="1.2" stroke-linecap="round" stroke-linejoin="round" />
  <line x1="84.24" y1="54.30" x2="84.21" y2="54.30" fill="currentColor" stroke="currentColor" stroke-width="1.2" stroke-linecap="round" stroke-linejoin="round" />
  <path d="M29.03,54.74 C28.75,54.64 28.47,54.50 28.18,54.31" fill="currentColor" stroke="currentColor" stroke-width="1.2" stroke-linecap="round" stroke-linejoin="round" />
  <line x1="28.18" y1="54.31" x2="28.18" y2="55.47" fill="currentColor" stroke="currentColor" stroke-width="1.2" stroke-linecap="round" stroke-linejoin="round" />
  <path d="M30.92,54.31 C30.82,54.49 30.68,54.63 30.50,54.73" fill="currentColor" stroke="currentColor" stroke-width="1.2" stroke-linecap="round" stroke-linejoin="round" />
  <path d="M35.26,54.74 C35.08,54.65 34.93,54.52 34.80,54.35" fill="currentColor" stroke="currentColor" stroke-width="1.2" stroke-linecap="round" stroke-linejoin="round" />
  <path d="M37.44,55.24 C37.64,55.03 37.80,54.79 37.92,54.52" fill="currentColor" stroke="currentColor" stroke-width="1.2" stroke-linecap="round" stroke-linejoin="round" />
  <path d="M33.77,54.63 C33.97,55.03 34.25,55.34 34.62,55.56" fill="currentColor" stroke="currentColor" stroke-width="1.2" stroke-linecap="round" stroke-linejoin="round" />
  <line x1="45.97" y1="55.62" x2="45.97" y2="54.65" fill="currentColor" stroke="currentColor" stroke-width="1.2" stroke-linecap="round" stroke-linejoin="round" />
  <path d="M45.97,54.65 C45.73,54.76 45.50,54.84 45.29,54.90" fill="currentColor" stroke="currentColor" stroke-width="1.2" stroke-linecap="round" stroke-linejoin="round" />
  <line x1="93.98" y1="55.66" x2="93.98" y2="54.69" fill="currentColor" stroke="currentColor" stroke-width="1.2" stroke-linecap="round" stroke-linejoin="round" />
  <path d="M93.98,54.69 C93.73,54.80 93.51,54.88 93.30,54.94" fill="currentColor" stroke="currentColor" stroke-width="1.2" stroke-linecap="round" stroke-linejoin="round" />
  <path d="M42.31,54.71 C42.52,55.08 42.82,55.37 43.19,55.58" fill="currentColor" stroke="currentColor" stroke-width="1.2" stroke-linecap="round" stroke-linejoin="round" />
  <path d="M36.45,54.72 C36.27,54.83 36.06,54.88 35.82,54.88" fill="currentColor" stroke="currentColor" stroke-width="1.2" stroke-linecap="round" stroke-linejoin="round" />
  <path d="M30.50,54.73 C30.32,54.83 30.10,54.88 29.86,54.88" fill="currentColor" stroke="currentColor" stroke-width="1.2" stroke-linecap="round" stroke-linejoin="round" />
  <path d="M29.86,54.88 C29.58,54.88 29.31,54.83 29.03,54.74" fill="currentColor" stroke="currentColor" stroke-width="1.2" stroke-linecap="round" stroke-linejoin="round" />
  <path d="M35.82,54.88 C35.62,54.88 35.43,54.83 35.26,54.74" fill="currentColor" stroke="currentColor" stroke-width="1.2" stroke-linecap="round" stroke-linejoin="round" />
  <path d="M90.32,54.75 C90.53,55.12 90.83,55.41 91.20,55.62" fill="currentColor" stroke="currentColor" stroke-width="1.2" stroke-linecap="round" stroke-linejoin="round" />
  <path d="M44.66,54.98 C44.32,54.98 44.03,54.91 43.78,54.78" fill="currentColor" stroke="currentColor" stroke-width="1.2" stroke-linecap="round" stroke-linejoin="round" />
  <path d="M31.01,55.61 C31.36,55.42 31.64,55.15 31.84,54.81" fill="currentColor" stroke="currentColor" stroke-width="1.2" stroke-linecap="round" stroke-linejoin="round" />
  <path d="M92.67,55.02 C92.33,55.02 92.04,54.95 91.79,54.82" fill="currentColor" stroke="currentColor" stroke-width="1.2" stroke-linecap="round" stroke-linejoin="round" />
  <path d="M45.29,54.90 C45.08,54.95 44.87,54.98 44.66,54.98" fill="currentColor" stroke="currentColor" stroke-width="1.2" stroke-linecap="round" stroke-linejoin="round" />
  <path d="M93.30,54.94 C93.09,54.99 92.88,55.02 92.67,55.02" fill="currentColor" stroke="currentColor" stroke-width="1.2" stroke-linecap="round" stroke-linejoin="round" />
  <path d="M36.74,55.72 C37.00,55.61 37.24,55.44 37.44,55.24" fill="currentColor" stroke="currentColor" stroke-width="1.2" stroke-linecap="round" stroke-linejoin="round" />
  <path d="M28.18,55.47 C28.45,55.61 28.72,55.72 28.99,55.79" fill="currentColor" stroke="currentColor" stroke-width="1.2" stroke-linecap="round" stroke-linejoin="round" />
  <line x1="83.58" y1="55.55" x2="82.23" y2="58.37" fill="currentColor" stroke="currentColor" stroke-width="1.2" stroke-linecap="round" stroke-linejoin="round" />
  <path d="M34.62,55.56 C34.98,55.79 35.40,55.90 35.88,55.90" fill="currentColor" stroke="currentColor" stroke-width="1.2" stroke-linecap="round" stroke-linejoin="round" />
  <path d="M43.19,55.58 C43.57,55.79 44.00,55.90 44.50,55.90" fill="currentColor" stroke="currentColor" stroke-width="1.2" stroke-linecap="round" stroke-linejoin="round" />
  <path d="M29.78,55.90 C30.25,55.90 30.65,55.80 31.01,55.61" fill="currentColor" stroke="currentColor" stroke-width="1.2" stroke-linecap="round" stroke-linejoin="round" />
  <path d="M45.56,55.76 C45.72,55.72 45.86,55.67 45.97,55.62" fill="currentColor" stroke="currentColor" stroke-width="1.2" stroke-linecap="round" stroke-linejoin="round" />
  <path d="M91.20,55.62 C91.58,55.83 92.01,55.94 92.51,55.94" fill="currentColor" stroke="currentColor" stroke-width="1.2" stroke-linecap="round" stroke-linejoin="round" />
  <path d="M93.57,55.80 C93.73,55.76 93.87,55.71 93.98,55.66" fill="currentColor" stroke="currentColor" stroke-width="1.2" stroke-linecap="round" stroke-linejoin="round" />
  <path d="M35.88,55.90 C36.19,55.90 36.47,55.84 36.74,55.72" fill="currentColor" stroke="currentColor" stroke-width="1.2" stroke-linecap="round" stroke-linejoin="round" />
  <path d="M45.04,55.86 C45.22,55.84 45.39,55.80 45.56,55.76" fill="currentColor" stroke="currentColor" stroke-width="1.2" stroke-linecap="round" stroke-linejoin="round" />
  <path d="M28.99,55.79 C29.26,55.86 29.52,55.90 29.78,55.90" fill="currentColor" stroke="currentColor" stroke-width="1.2" stroke-linecap="round" stroke-linejoin="round" />
  <path d="M93.04,55.90 C93.23,55.88 93.40,55.84 93.57,55.80" fill="currentColor" stroke="currentColor" stroke-width="1.2" stroke-linecap="round" stroke-linejoin="round" />
  <line x1="47.00" y1="55.80" x2="47.98" y2="55.80" fill="currentColor" stroke="currentColor" stroke-width="1.2" stroke-linecap="round" stroke-linejoin="round" />
  <line x1="50.10" y1="55.80" x2="51.08" y2="55.80" fill="currentColor" stroke="currentColor" stroke-width="1.2" stroke-linecap="round" stroke-linejoin="round" />
  <line x1="53.21" y1="55.80" x2="54.19" y2="55.80" fill="currentColor" stroke="currentColor" stroke-width="1.2" stroke-linecap="round" stroke-linejoin="round" />
  <line x1="95.01" y1="55.84" x2="95.99" y2="55.84" fill="currentColor" stroke="currentColor" stroke-width="1.2" stroke-linecap="round" stroke-linejoin="round" />
  <line x1="98.11" y1="55.84" x2="99.09" y2="55.84" fill="currentColor" stroke="currentColor" stroke-width="1.2" stroke-linecap="round" stroke-linejoin="round" />
  <line x1="101.22" y1="55.84" x2="102.19" y2="55.84" fill="currentColor" stroke="currentColor" stroke-width="1.2" stroke-linecap="round" stroke-linejoin="round" />
  <path d="M44.50,55.90 C44.67,55.90 44.85,55.89 45.04,55.86" fill="currentColor" stroke="currentColor" stroke-width="1.2" stroke-linecap="round" stroke-linejoin="round" />
  <path d="M92.51,55.94 C92.68,55.94 92.86,55.93 93.04,55.90" fill="currentColor" stroke="currentColor" stroke-width="1.2" stroke-linecap="round" stroke-linejoin="round" />
  <line x1="82.23" y1="58.37" x2="83.22" y2="58.37" fill="currentColor" stroke="currentColor" stroke-width="1.2" stroke-linecap="round" stroke-linejoin="round" />
  <rect x="70.71" y="79.19" width="7.16" height="7.16" fill="none" stroke="currentColor" stroke-width="1.0" stroke-linecap="round" stroke-linejoin="round" />
  <rect x="8.00" y="79.27" width="7.16" height="7.16" fill="none" stroke="currentColor" stroke-width="1.0" stroke-linecap="round" stroke-linejoin="round" />
</svg>