<svg xmlns="http://www.w3.org/2000/svg" viewBox="0 0 205.43 87.61" preserveAspectRatio="xMidYMid meet" shape-rendering="geometricPrecision" text-rendering="optimizeLegibility">
  <line x1="197.43" y1="8.00" x2="8.00" y2="79.61" fill="none" stroke="currentColor" stroke-width="1.2" stroke-linecap="round" stroke-linejoin="round" />
  <path d="M162.24,65.43 C161.96,65.43 161.71,65.50 161.49,65.63" fill="currentColor" stroke="currentColor" stroke-width="1.2" stroke-linecap="round" stroke-linejoin="round" />
  <path d="M162.99,65.63 C162.77,65.50 162.52,65.43 162.24,65.43" fill="currentColor" stroke="currentColor" stroke-width="1.2" stroke-linecap="round" stroke-linejoin="round" />
  <path d="M161.49,65.63 C161.26,65.76 161.09,65.94 160.96,66.16" fill="currentColor" stroke="currentColor" stroke-width="1.2" stroke-linecap="round" stroke-linejoin="round" />
  <path d="M163.52,66.16 C163.39,65.94 163.21,65.76 162.99,65.63" fill="currentColor" stroke="currentColor" stroke-width="1.2" stroke-linecap="round" stroke-linejoin="round" />
  <path d="M152.71,66.04 C152.42,65.91 152.10,65.84 151.75,65.84" fill="currentColor" stroke="currentColor" stroke-width="1.2" stroke-linecap="round" stroke-linejoin="round" />
  <path d="M151.75,65.84 C151.41,65.84 151.09,65.90 150.81,66.03" fill="currentColor" stroke="currentColor" stroke-width="1.2" stroke-linecap="round" stroke-linejoin="round" />
  <line x1="159.96" y1="65.94" x2="155.11" y2="65.94" fill="currentColor" stroke="currentColor" stroke-width="1.2" stroke-linecap="round" stroke-linejoin="round" />
  <line x1="155.11" y1="65.94" x2="155.11" y2="66.96" fill="currentColor" stroke="currentColor" stroke-width="1.2" stroke-linecap="round" stroke-linejoin="round" />
  <line x1="156.56" y1="73.54" x2="159.96" y2="65.94" fill="currentColor" stroke="currentColor" stroke-width="1.2" stroke-linecap="round" stroke-linejoin="round" />
  <path d="M162.24,66.01 C162.41,66.01 162.56,66.05 162.70,66.13" fill="currentColor" stroke="currentColor" stroke-width="1.2" stroke-linecap="round" stroke-linejoin="round" />
  <path d="M161.78,66.13 C161.91,66.05 162.07,66.01 162.24,66.01" fill="currentColor" stroke="currentColor" stroke-width="1.2" stroke-linecap="round" stroke-linejoin="round" />
  <path d="M150.81,66.03 C150.53,66.15 150.29,66.32 150.09,66.53" fill="currentColor" stroke="currentColor" stroke-width="1.2" stroke-linecap="round" stroke-linejoin="round" />
  <path d="M153.47,66.62 C153.25,66.37 153.00,66.18 152.71,66.04" fill="currentColor" stroke="currentColor" stroke-width="1.2" stroke-linecap="round" stroke-linejoin="round" />
  <path d="M162.70,66.13 C162.84,66.21 162.95,66.32 163.03,66.46" fill="currentColor" stroke="currentColor" stroke-width="1.2" stroke-linecap="round" stroke-linejoin="round" />
  <path d="M161.46,66.46 C161.54,66.32 161.65,66.21 161.78,66.13" fill="currentColor" stroke="currentColor" stroke-width="1.2" stroke-linecap="round" stroke-linejoin="round" />
  <path d="M160.96,66.16 C160.82,66.39 160.76,66.64 160.75,66.91" fill="currentColor" stroke="currentColor" stroke-width="1.2" stroke-linecap="round" stroke-linejoin="round" />
  <path d="M163.72,66.91 C163.72,66.64 163.65,66.39 163.52,66.16" fill="currentColor" stroke="currentColor" stroke-width="1.2" stroke-linecap="round" stroke-linejoin="round" />
  <path d="M163.03,66.46 C163.11,66.59 163.15,66.74 163.15,66.91" fill="currentColor" stroke="currentColor" stroke-width="1.2" stroke-linecap="round" stroke-linejoin="round" />
  <path d="M161.34,66.91 C161.34,66.74 161.38,66.59 161.46,66.46" fill="currentColor" stroke="currentColor" stroke-width="1.2" stroke-linecap="round" stroke-linejoin="round" />
  <path d="M150.09,66.53 C149.89,66.74 149.74,66.98 149.63,67.24" fill="currentColor" stroke="currentColor" stroke-width="1.2" stroke-linecap="round" stroke-linejoin="round" />
  <path d="M153.96,67.48 C153.85,67.15 153.68,66.86 153.47,66.62" fill="currentColor" stroke="currentColor" stroke-width="1.2" stroke-linecap="round" stroke-linejoin="round" />
  <path d="M151.14,67.01 C151.32,66.91 151.54,66.86 151.78,66.86" fill="currentColor" stroke="currentColor" stroke-width="1.2" stroke-linecap="round" stroke-linejoin="round" />
  <path d="M151.78,66.86 C152.01,66.86 152.22,66.93 152.41,67.05" fill="currentColor" stroke="currentColor" stroke-width="1.2" stroke-linecap="round" stroke-linejoin="round" />
  <path d="M163.15,66.91 C163.15,67.08 163.11,67.24 163.03,67.38" fill="currentColor" stroke="currentColor" stroke-width="1.2" stroke-linecap="round" stroke-linejoin="round" />
  <path d="M161.46,67.38 C161.38,67.24 161.34,67.08 161.34,66.91" fill="currentColor" stroke="currentColor" stroke-width="1.2" stroke-linecap="round" stroke-linejoin="round" />
  <path d="M160.75,66.91 C160.76,67.19 160.82,67.44 160.96,67.67" fill="currentColor" stroke="currentColor" stroke-width="1.2" stroke-linecap="round" stroke-linejoin="round" />
  <path d="M163.52,67.67 C163.65,67.44 163.72,67.19 163.72,66.91" fill="currentColor" stroke="currentColor" stroke-width="1.2" stroke-linecap="round" stroke-linejoin="round" />
  <line x1="155.11" y1="66.96" x2="158.36" y2="66.96" fill="currentColor" stroke="currentColor" stroke-width="1.2" stroke-linecap="round" stroke-linejoin="round" />
  <line x1="158.36" y1="66.96" x2="155.61" y2="73.12" fill="currentColor" stroke="currentColor" stroke-width="1.2" stroke-linecap="round" stroke-linejoin="round" />
  <path d="M150.71,67.43 C150.81,67.25 150.96,67.12 151.14,67.01" fill="currentColor" stroke="currentColor" stroke-width="1.2" stroke-linecap="round" stroke-linejoin="round" />
  <path d="M152.41,67.05 C152.60,67.17 152.75,67.34 152.86,67.54" fill="currentColor" stroke="currentColor" stroke-width="1.2" stroke-linecap="round" stroke-linejoin="round" />
  <path d="M149.63,67.24 C149.53,67.51 149.47,67.78 149.47,68.06" fill="currentColor" stroke="currentColor" stroke-width="1.2" stroke-linecap="round" stroke-linejoin="round" />
  <path d="M163.03,67.38 C162.95,67.51 162.84,67.62 162.70,67.70" fill="currentColor" stroke="currentColor" stroke-width="1.2" stroke-linecap="round" stroke-linejoin="round" />
  <path d="M161.78,67.70 C161.65,67.62 161.54,67.51 161.46,67.38" fill="currentColor" stroke="currentColor" stroke-width="1.2" stroke-linecap="round" stroke-linejoin="round" />
  <path d="M150.55,68.05 C150.55,67.82 150.60,67.61 150.71,67.43" fill="currentColor" stroke="currentColor" stroke-width="1.2" stroke-linecap="round" stroke-linejoin="round" />
  <path d="M154.14,68.58 C154.14,68.18 154.08,67.82 153.96,67.48" fill="currentColor" stroke="currentColor" stroke-width="1.2" stroke-linecap="round" stroke-linejoin="round" />
  <path d="M152.86,67.54 C152.97,67.74 153.03,67.97 153.03,68.21" fill="currentColor" stroke="currentColor" stroke-width="1.2" stroke-linecap="round" stroke-linejoin="round" />
  <path d="M160.96,67.67 C161.09,67.89 161.26,68.07 161.49,68.20" fill="currentColor" stroke="currentColor" stroke-width="1.2" stroke-linecap="round" stroke-linejoin="round" />
  <path d="M162.99,68.20 C163.21,68.07 163.39,67.89 163.52,67.67" fill="currentColor" stroke="currentColor" stroke-width="1.2" stroke-linecap="round" stroke-linejoin="round" />
  <path d="M162.70,67.70 C162.56,67.78 162.41,67.83 162.24,67.83" fill="currentColor" stroke="currentColor" stroke-width="1.2" stroke-linecap="round" stroke-linejoin="round" />
  <path d="M162.24,67.83 C162.07,67.83 161.91,67.78 161.78,67.70" fill="currentColor" stroke="currentColor" stroke-width="1.2" stroke-linecap="round" stroke-linejoin="round" />
  <path d="M150.72,68.64 C150.61,68.46 150.55,68.27 150.55,68.05" fill="currentColor" stroke="currentColor" stroke-width="1.2" stroke-linecap="round" stroke-linejoin="round" />
  <path d="M149.47,68.06 C149.47,68.47 149.57,68.84 149.76,69.17" fill="currentColor" stroke="currentColor" stroke-width="1.2" stroke-linecap="round" stroke-linejoin="round" />
  <path d="M161.49,68.20 C161.71,68.33 161.96,68.40 162.24,68.40" fill="currentColor" stroke="currentColor" stroke-width="1.2" stroke-linecap="round" stroke-linejoin="round" />
  <path d="M162.24,68.40 C162.52,68.40 162.77,68.33 162.99,68.20" fill="currentColor" stroke="currentColor" stroke-width="1.2" stroke-linecap="round" stroke-linejoin="round" />
  <path d="M153.03,68.21 C153.03,68.30 153.03,68.39 153.02,68.49" fill="currentColor" stroke="currentColor" stroke-width="1.2" stroke-linecap="round" stroke-linejoin="round" />
  <path d="M153.02,68.49 C153.02,68.58 153.00,68.69 152.98,68.82" fill="currentColor" stroke="currentColor" stroke-width="1.2" stroke-linecap="round" stroke-linejoin="round" />
  <path d="M153.92,69.96 C154.06,69.50 154.14,69.03 154.14,68.58" fill="currentColor" stroke="currentColor" stroke-width="1.2" stroke-linecap="round" stroke-linejoin="round" />
  <path d="M151.18,69.06 C150.99,68.96 150.83,68.82 150.72,68.64" fill="currentColor" stroke="currentColor" stroke-width="1.2" stroke-linecap="round" stroke-linejoin="round" />
  <path d="M152.98,68.82 C152.77,68.96 152.57,69.06 152.37,69.13" fill="currentColor" stroke="currentColor" stroke-width="1.2" stroke-linecap="round" stroke-linejoin="round" />
  <path d="M151.82,69.22 C151.58,69.22 151.37,69.17 151.18,69.06" fill="currentColor" stroke="currentColor" stroke-width="1.2" stroke-linecap="round" stroke-linejoin="round" />
  <path d="M152.37,69.13 C152.16,69.19 151.98,69.23 151.82,69.22" fill="currentColor" stroke="currentColor" stroke-width="1.2" stroke-linecap="round" stroke-linejoin="round" />
  <path d="M149.76,69.17 C149.94,69.50 150.19,69.76 150.51,69.95" fill="currentColor" stroke="currentColor" stroke-width="1.2" stroke-linecap="round" stroke-linejoin="round" />
  <path d="M159.16,79.61 C159.16,74.02 163.70,69.48 169.29,69.48" fill="none" stroke="currentColor" stroke-width="1.0" stroke-linecap="round" stroke-linejoin="round" />
  <path d="M152.20,70.16 C152.40,70.11 152.59,70.03 152.76,69.93" fill="currentColor" stroke="currentColor" stroke-width="1.2" stroke-linecap="round" stroke-linejoin="round" />
  <path d="M152.76,69.93 C152.68,70.25 152.55,70.57 152.35,70.90" fill="currentColor" stroke="currentColor" stroke-width="1.2" stroke-linecap="round" stroke-linejoin="round" />
  <path d="M150.51,69.95 C150.83,70.14 151.19,70.24 151.59,70.25" fill="currentColor" stroke="currentColor" stroke-width="1.2" stroke-linecap="round" stroke-linejoin="round" />
  <path d="M153.29,71.33 C153.56,70.89 153.77,70.43 153.92,69.96" fill="currentColor" stroke="currentColor" stroke-width="1.2" stroke-linecap="round" stroke-linejoin="round" />
  <path d="M151.59,70.25 C151.79,70.25 151.99,70.22 152.20,70.16" fill="currentColor" stroke="currentColor" stroke-width="1.2" stroke-linecap="round" stroke-linejoin="round" />
  <path d="M152.35,70.90 C152.15,71.22 151.89,71.54 151.58,71.86" fill="currentColor" stroke="currentColor" stroke-width="1.2" stroke-linecap="round" stroke-linejoin="round" />
  <path d="M152.34,72.56 C152.71,72.18 153.03,71.77 153.29,71.33" fill="currentColor" stroke="currentColor" stroke-width="1.2" stroke-linecap="round" stroke-linejoin="round" />
  <path d="M151.58,71.86 C151.26,72.17 150.89,72.47 150.47,72.74" fill="currentColor" stroke="currentColor" stroke-width="1.2" stroke-linecap="round" stroke-linejoin="round" />
  <path d="M151.13,73.54 C151.57,73.26 151.97,72.94 152.34,72.56" fill="currentColor" stroke="currentColor" stroke-width="1.2" stroke-linecap="round" stroke-linejoin="round" />
  <line x1="150.47" y1="72.74" x2="151.13" y2="73.54" fill="currentColor" stroke="currentColor" stroke-width="1.2" stroke-linecap="round" stroke-linejoin="round" />
  <line x1="155.61" y1="73.12" x2="156.56" y2="73.54" fill="currentColor" stroke="currentColor" stroke-width="1.2" stroke-linecap="round" stroke-linejoin="round" />
  <line x1="8.00" y1="79.61" x2="169.29" y2="79.61" fill="none" stroke="currentColor" stroke-width="1.2" stroke-linecap="round" stroke-linejoin="round" />
</svg>