<svg xmlns="http://www.w3.org/2000/svg" viewBox="0 0 170.94 132.42" preserveAspectRatio="xMidYMid meet" shape-rendering="geometricPrecision" text-rendering="optimizeLegibility">
  <line x1="58.06" y1="123.93" x2="100.96" y2="8.00" fill="none" stroke="currentColor" stroke-width="1.5250000476837158" stroke-linecap="round" stroke-linejoin="round" />
  <line x1="41.39" y1="104.27" x2="38.17" y2="104.27" fill="currentColor" stroke="currentColor" stroke-width="1.2" stroke-linecap="round" stroke-linejoin="round" />
  <line x1="41.39" y1="105.20" x2="41.39" y2="104.27" fill="currentColor" stroke="currentColor" stroke-width="1.2" stroke-linecap="round" stroke-linejoin="round" />
  <line x1="39.12" y1="105.20" x2="41.39" y2="105.20" fill="currentColor" stroke="currentColor" stroke-width="1.2" stroke-linecap="round" stroke-linejoin="round" />
  <line x1="39.12" y1="107.02" x2="39.12" y2="105.20" fill="currentColor" stroke="currentColor" stroke-width="1.2" stroke-linecap="round" stroke-linejoin="round" />
  <line x1="38.17" y1="104.27" x2="38.17" y2="108.03" fill="currentColor" stroke="currentColor" stroke-width="1.2" stroke-linecap="round" stroke-linejoin="round" />
  <line x1="47.10" y1="106.74" x2="45.99" y2="106.74" fill="currentColor" stroke="currentColor" stroke-width="1.2" stroke-linecap="round" stroke-linejoin="round" />
  <line x1="43.99" y1="106.74" x2="43.03" y2="106.74" fill="currentColor" stroke="currentColor" stroke-width="1.2" stroke-linecap="round" stroke-linejoin="round" />
  <path d="M40.22,107.14 C39.89,107.04 39.53,107.00 39.12,107.02" fill="currentColor" stroke="currentColor" stroke-width="1.2" stroke-linecap="round" stroke-linejoin="round" />
  <path d="M41.04,107.61 C40.82,107.41 40.54,107.25 40.22,107.14" fill="currentColor" stroke="currentColor" stroke-width="1.2" stroke-linecap="round" stroke-linejoin="round" />
  <line x1="45.99" y1="106.74" x2="44.75" y2="108.34" fill="currentColor" stroke="currentColor" stroke-width="1.2" stroke-linecap="round" stroke-linejoin="round" />
  <line x1="44.75" y1="108.34" x2="43.99" y2="106.74" fill="currentColor" stroke="currentColor" stroke-width="1.2" stroke-linecap="round" stroke-linejoin="round" />
  <line x1="43.03" y1="106.74" x2="44.15" y2="108.98" fill="currentColor" stroke="currentColor" stroke-width="1.2" stroke-linecap="round" stroke-linejoin="round" />
  <line x1="45.18" y1="109.09" x2="47.10" y2="106.74" fill="currentColor" stroke="currentColor" stroke-width="1.2" stroke-linecap="round" stroke-linejoin="round" />
  <path d="M38.17,108.03 C38.57,107.94 38.93,107.91 39.24,107.94" fill="currentColor" stroke="currentColor" stroke-width="1.2" stroke-linecap="round" stroke-linejoin="round" />
  <path d="M41.57,108.35 C41.45,108.07 41.27,107.82 41.04,107.61" fill="currentColor" stroke="currentColor" stroke-width="1.2" stroke-linecap="round" stroke-linejoin="round" />
  <path d="M39.24,107.94 C39.55,107.97 39.82,108.05 40.04,108.18" fill="currentColor" stroke="currentColor" stroke-width="1.2" stroke-linecap="round" stroke-linejoin="round" />
  <path d="M40.04,108.18 C40.26,108.31 40.42,108.47 40.54,108.66" fill="currentColor" stroke="currentColor" stroke-width="1.2" stroke-linecap="round" stroke-linejoin="round" />
  <path d="M41.75,109.28 C41.74,108.95 41.68,108.64 41.57,108.35" fill="currentColor" stroke="currentColor" stroke-width="1.2" stroke-linecap="round" stroke-linejoin="round" />
  <path d="M40.54,108.66 C40.65,108.86 40.71,109.07 40.71,109.30" fill="currentColor" stroke="currentColor" stroke-width="1.2" stroke-linecap="round" stroke-linejoin="round" />
  <path d="M40.71,109.30 C40.71,109.54 40.64,109.76 40.50,109.96" fill="currentColor" stroke="currentColor" stroke-width="1.2" stroke-linecap="round" stroke-linejoin="round" />
  <path d="M41.44,110.48 C41.64,110.13 41.74,109.73 41.75,109.28" fill="currentColor" stroke="currentColor" stroke-width="1.2" stroke-linecap="round" stroke-linejoin="round" />
  <path d="M40.50,109.96 C40.37,110.15 40.19,110.31 39.96,110.43" fill="currentColor" stroke="currentColor" stroke-width="1.2" stroke-linecap="round" stroke-linejoin="round" />
  <line x1="44.15" y1="108.98" x2="42.08" y2="111.50" fill="currentColor" stroke="currentColor" stroke-width="1.2" stroke-linecap="round" stroke-linejoin="round" />
  <path d="M38.42,110.47 C38.15,110.39 37.89,110.25 37.63,110.08" fill="currentColor" stroke="currentColor" stroke-width="1.2" stroke-linecap="round" stroke-linejoin="round" />
  <line x1="46.39" y1="111.50" x2="45.18" y2="109.09" fill="currentColor" stroke="currentColor" stroke-width="1.2" stroke-linecap="round" stroke-linejoin="round" />
  <path d="M39.96,110.43 C39.74,110.54 39.49,110.61 39.21,110.61" fill="currentColor" stroke="currentColor" stroke-width="1.2" stroke-linecap="round" stroke-linejoin="round" />
  <path d="M39.21,110.61 C38.95,110.61 38.68,110.56 38.42,110.47" fill="currentColor" stroke="currentColor" stroke-width="1.2" stroke-linecap="round" stroke-linejoin="round" />
  <line x1="43.18" y1="111.50" x2="44.56" y2="109.72" fill="currentColor" stroke="currentColor" stroke-width="1.2" stroke-linecap="round" stroke-linejoin="round" />
  <line x1="44.56" y1="109.72" x2="45.43" y2="111.50" fill="currentColor" stroke="currentColor" stroke-width="1.2" stroke-linecap="round" stroke-linejoin="round" />
  <line x1="37.63" y1="110.08" x2="37.63" y2="111.15" fill="currentColor" stroke="currentColor" stroke-width="1.2" stroke-linecap="round" stroke-linejoin="round" />
  <path d="M40.60,111.29 C40.96,111.09 41.24,110.82 41.44,110.48" fill="currentColor" stroke="currentColor" stroke-width="1.2" stroke-linecap="round" stroke-linejoin="round" />
  <path d="M37.63,111.15 C37.84,111.25 38.04,111.34 38.23,111.40" fill="currentColor" stroke="currentColor" stroke-width="1.2" stroke-linecap="round" stroke-linejoin="round" />
  <path d="M39.38,111.59 C39.84,111.59 40.25,111.49 40.60,111.29" fill="currentColor" stroke="currentColor" stroke-width="1.2" stroke-linecap="round" stroke-linejoin="round" />
  <path d="M38.23,111.40 C38.41,111.47 38.60,111.52 38.79,111.55" fill="currentColor" stroke="currentColor" stroke-width="1.2" stroke-linecap="round" stroke-linejoin="round" />
  <line x1="42.08" y1="111.50" x2="43.18" y2="111.50" fill="currentColor" stroke="currentColor" stroke-width="1.2" stroke-linecap="round" stroke-linejoin="round" />
  <line x1="45.43" y1="111.50" x2="46.39" y2="111.50" fill="currentColor" stroke="currentColor" stroke-width="1.2" stroke-linecap="round" stroke-linejoin="round" />
  <path d="M38.79,111.55 C38.98,111.58 39.18,111.59 39.38,111.59" fill="currentColor" stroke="currentColor" stroke-width="1.2" stroke-linecap="round" stroke-linejoin="round" />
  <path d="M48.14,115.24 C51.84,111.07 57.57,109.76 62.53,111.47" fill="none" stroke="currentColor" stroke-width="1.1929999709129333" stroke-linecap="round" stroke-linejoin="round" />
  <line x1="73.61" y1="112.62" x2="73.17" y2="112.62" fill="currentColor" stroke="currentColor" stroke-width="1.2" stroke-linecap="round" stroke-linejoin="round" />
  <line x1="72.55" y1="114.58" x2="72.57" y2="114.58" fill="currentColor" stroke="currentColor" stroke-width="1.2" stroke-linecap="round" stroke-linejoin="round" />
  <line x1="73.61" y1="116.64" x2="73.61" y2="112.62" fill="currentColor" stroke="currentColor" stroke-width="1.2" stroke-linecap="round" stroke-linejoin="round" />
  <line x1="73.17" y1="112.62" x2="69.51" y2="117.09" fill="currentColor" stroke="currentColor" stroke-width="1.2" stroke-linecap="round" stroke-linejoin="round" />
  <line x1="79.39" y1="115.18" x2="78.27" y2="115.18" fill="currentColor" stroke="currentColor" stroke-width="1.2" stroke-linecap="round" stroke-linejoin="round" />
  <line x1="76.28" y1="115.18" x2="75.32" y2="115.18" fill="currentColor" stroke="currentColor" stroke-width="1.2" stroke-linecap="round" stroke-linejoin="round" />
  <line x1="72.57" y1="114.58" x2="72.57" y2="116.64" fill="currentColor" stroke="currentColor" stroke-width="1.2" stroke-linecap="round" stroke-linejoin="round" />
  <line x1="70.90" y1="116.64" x2="72.55" y2="114.58" fill="currentColor" stroke="currentColor" stroke-width="1.2" stroke-linecap="round" stroke-linejoin="round" />
  <line x1="78.27" y1="115.18" x2="77.03" y2="116.78" fill="currentColor" stroke="currentColor" stroke-width="1.2" stroke-linecap="round" stroke-linejoin="round" />
  <line x1="77.03" y1="116.78" x2="76.28" y2="115.18" fill="currentColor" stroke="currentColor" stroke-width="1.2" stroke-linecap="round" stroke-linejoin="round" />
  <line x1="75.32" y1="115.18" x2="76.44" y2="117.42" fill="currentColor" stroke="currentColor" stroke-width="1.2" stroke-linecap="round" stroke-linejoin="round" />
  <line x1="77.47" y1="117.54" x2="79.39" y2="115.18" fill="currentColor" stroke="currentColor" stroke-width="1.2" stroke-linecap="round" stroke-linejoin="round" />
  <line x1="74.38" y1="116.64" x2="73.61" y2="116.64" fill="currentColor" stroke="currentColor" stroke-width="1.2" stroke-linecap="round" stroke-linejoin="round" />
  <line x1="72.57" y1="116.64" x2="70.90" y2="116.64" fill="currentColor" stroke="currentColor" stroke-width="1.2" stroke-linecap="round" stroke-linejoin="round" />
  <line x1="74.38" y1="117.57" x2="74.38" y2="116.64" fill="currentColor" stroke="currentColor" stroke-width="1.2" stroke-linecap="round" stroke-linejoin="round" />
  <line x1="69.51" y1="117.09" x2="69.51" y2="117.57" fill="currentColor" stroke="currentColor" stroke-width="1.2" stroke-linecap="round" stroke-linejoin="round" />
  <line x1="69.51" y1="117.57" x2="72.57" y2="117.57" fill="currentColor" stroke="currentColor" stroke-width="1.2" stroke-linecap="round" stroke-linejoin="round" />
  <line x1="73.61" y1="117.57" x2="74.38" y2="117.57" fill="currentColor" stroke="currentColor" stroke-width="1.2" stroke-linecap="round" stroke-linejoin="round" />
  <line x1="76.44" y1="117.42" x2="74.36" y2="119.94" fill="currentColor" stroke="currentColor" stroke-width="1.2" stroke-linecap="round" stroke-linejoin="round" />
  <line x1="78.68" y1="119.94" x2="77.47" y2="117.54" fill="currentColor" stroke="currentColor" stroke-width="1.2" stroke-linecap="round" stroke-linejoin="round" />
  <line x1="72.57" y1="117.57" x2="72.57" y2="119.94" fill="currentColor" stroke="currentColor" stroke-width="1.2" stroke-linecap="round" stroke-linejoin="round" />
  <line x1="73.61" y1="119.94" x2="73.61" y2="117.57" fill="currentColor" stroke="currentColor" stroke-width="1.2" stroke-linecap="round" stroke-linejoin="round" />
  <line x1="75.47" y1="119.94" x2="76.84" y2="118.16" fill="currentColor" stroke="currentColor" stroke-width="1.2" stroke-linecap="round" stroke-linejoin="round" />
  <line x1="76.84" y1="118.16" x2="77.71" y2="119.94" fill="currentColor" stroke="currentColor" stroke-width="1.2" stroke-linecap="round" stroke-linejoin="round" />
  <path d="M61.05,115.17 C64.64,116.40 67.26,119.76 67.34,123.77" fill="none" stroke="currentColor" stroke-width="1.1929999709129333" stroke-linecap="round" stroke-linejoin="round" />
  <path d="M44.76,123.95 C44.80,120.85 45.91,117.74 48.14,115.24" fill="none" stroke="currentColor" stroke-width="1.1929999709129333" stroke-linecap="round" stroke-linejoin="round" />
  <line x1="72.57" y1="119.94" x2="73.61" y2="119.94" fill="currentColor" stroke="currentColor" stroke-width="1.2" stroke-linecap="round" stroke-linejoin="round" />
  <line x1="74.36" y1="119.94" x2="75.47" y2="119.94" fill="currentColor" stroke="currentColor" stroke-width="1.2" stroke-linecap="round" stroke-linejoin="round" />
  <line x1="77.71" y1="119.94" x2="78.68" y2="119.94" fill="currentColor" stroke="currentColor" stroke-width="1.2" stroke-linecap="round" stroke-linejoin="round" />
  <path d="M67.34,123.77 C67.34,123.99 67.34,124.21 67.33,124.42" fill="none" stroke="currentColor" stroke-width="1.1929999709129333" stroke-linecap="round" stroke-linejoin="round" />
  <line x1="8.00" y1="124.15" x2="162.94" y2="124.15" fill="none" stroke="currentColor" stroke-width="1.5250000476837158" stroke-linecap="round" stroke-linejoin="round" />
</svg>