<svg xmlns="http://www.w3.org/2000/svg" viewBox="0 0 251.50 123.72" preserveAspectRatio="xMidYMid meet" shape-rendering="geometricPrecision" text-rendering="optimizeLegibility">
  <polygon points="8.00,64.50 243.50,93.41 228.44,8.00 17.03,115.72" fill="none" stroke="currentColor" stroke-width="1.4000000476837158" stroke-linecap="round" stroke-linejoin="round" />
  <path d="M15.35,106.15 C19.65,105.39 23.79,107.60 25.68,111.29" fill="none" stroke="currentColor" stroke-width="1.0" stroke-linecap="round" stroke-linejoin="round" />
  <path d="M9.69,74.06 C13.99,73.30 17.13,69.81 17.64,65.69" fill="none" stroke="currentColor" stroke-width="1.0" stroke-linecap="round" stroke-linejoin="round" />
  <path d="M230.12,17.56 C225.82,18.32 221.68,16.12 219.79,12.42" fill="none" stroke="currentColor" stroke-width="1.0" stroke-linecap="round" stroke-linejoin="round" />
  <path d="M241.81,83.85 C237.51,84.61 234.37,88.09 233.86,92.21" fill="none" stroke="currentColor" stroke-width="1.0" stroke-linecap="round" stroke-linejoin="round" />
  <line x1="19.88" y1="109.84" x2="22.96" y2="103.67" fill="none" stroke="currentColor" stroke-width="1.0" stroke-linecap="round" stroke-linejoin="round" />
  <line x1="12.71" y1="69.18" x2="17.71" y2="73.93" fill="none" stroke="currentColor" stroke-width="1.0" stroke-linecap="round" stroke-linejoin="round" />
  <line x1="225.35" y1="13.83" x2="222.27" y2="20.00" fill="none" stroke="currentColor" stroke-width="1.0" stroke-linecap="round" stroke-linejoin="round" />
  <path d="M62.27,77.75C62.44,77.67 62.60,77.61 62.74,77.56C62.89,77.51 63.02,77.48 63.15,77.46C63.28,77.44 63.41,77.43 63.55,77.43C63.82,77.43 64.04,77.48 64.24,77.56C64.43,77.65 64.58,77.78 64.69,77.95C64.79,78.12 64.85,78.32 64.85,78.55C64.85,78.89 64.72,79.16 64.48,79.35C64.23,79.54 63.86,79.64 63.36,79.64L63.36,80.63C63.72,80.61 64.01,80.66 64.25,80.77C64.49,80.87 64.67,81.02 64.79,81.22C64.91,81.41 64.97,81.63 64.97,81.88C64.97,82.13 64.92,82.34 64.82,82.52C64.72,82.69 64.58,82.83 64.40,82.93C64.22,83.03 64.00,83.08 63.76,83.08C63.48,83.08 63.21,83.03 62.93,82.94C62.65,82.85 62.37,82.70 62.09,82.51L62.09,83.67C62.36,83.81 62.62,83.92 62.89,83.99C63.16,84.07 63.42,84.10 63.68,84.10C64.15,84.10 64.56,84.00 64.91,83.81C65.26,83.62 65.54,83.35 65.74,83.01C65.94,82.67 66.04,82.28 66.04,81.83C66.04,81.57 66.01,81.32 65.93,81.07C65.86,80.83 65.74,80.62 65.58,80.44C65.42,80.26 65.22,80.13 64.97,80.05C65.19,79.92 65.38,79.78 65.52,79.63C65.66,79.47 65.76,79.29 65.83,79.09C65.89,78.88 65.92,78.64 65.92,78.36C65.92,77.96 65.83,77.62 65.65,77.33C65.47,77.04 65.21,76.81 64.88,76.65C64.55,76.49 64.16,76.41 63.71,76.40C63.44,76.40 63.18,76.43 62.95,76.48C62.72,76.53 62.50,76.61 62.27,76.72L62.27,77.75Z" fill="currentColor" stroke="currentColor" stroke-width="1.2" stroke-linejoin="round" />
  <path d="M72.05,80.25C72.05,79.67 71.99,79.15 71.88,78.68C71.76,78.21 71.60,77.80 71.39,77.46C71.17,77.12 70.92,76.86 70.62,76.68C70.33,76.50 70.00,76.41 69.63,76.40C69.27,76.41 68.94,76.50 68.64,76.68C68.35,76.86 68.09,77.12 67.88,77.46C67.67,77.80 67.50,78.21 67.39,78.68C67.27,79.15 67.21,79.67 67.21,80.25C67.21,80.83 67.27,81.36 67.39,81.83C67.50,82.30 67.67,82.71 67.88,83.05C68.09,83.38 68.35,83.64 68.64,83.83C68.94,84.01 69.27,84.10 69.63,84.10C70.00,84.10 70.33,84.01 70.62,83.83C70.92,83.64 71.17,83.38 71.39,83.05C71.60,82.71 71.76,82.30 71.88,81.83C71.99,81.36 72.05,80.83 72.05,80.25ZM70.98,80.25C70.98,80.84 70.92,81.35 70.81,81.77C70.71,82.19 70.55,82.51 70.35,82.74C70.15,82.96 69.91,83.08 69.63,83.08C69.35,83.08 69.11,82.96 68.91,82.74C68.71,82.51 68.56,82.19 68.45,81.77C68.35,81.35 68.29,80.84 68.29,80.25C68.29,79.67 68.35,79.16 68.45,78.74C68.56,78.32 68.71,78.00 68.91,77.77C69.11,77.54 69.35,77.43 69.63,77.43C69.91,77.43 70.15,77.54 70.35,77.77C70.55,78.00 70.71,78.32 70.81,78.74C70.92,79.16 70.98,79.67 70.98,80.25Z" fill="currentColor" stroke="currentColor" stroke-width="1.2" stroke-linejoin="round" />
  <path d="M74.55,76.58C74.72,76.58 74.88,76.62 75.01,76.70C75.15,76.78 75.26,76.89 75.34,77.02C75.42,77.16 75.46,77.31 75.46,77.48C75.46,77.65 75.42,77.81 75.34,77.94C75.26,78.08 75.15,78.19 75.01,78.27C74.88,78.35 74.72,78.39 74.55,78.39C74.38,78.39 74.23,78.35 74.09,78.27C73.96,78.19 73.85,78.08 73.77,77.94C73.69,77.81 73.65,77.65 73.65,77.48C73.65,77.31 73.69,77.16 73.77,77.02C73.85,76.89 73.96,76.78 74.09,76.70C74.23,76.62 74.38,76.58 74.55,76.58ZM74.55,76.00C74.27,76.00 74.02,76.07 73.80,76.20C73.57,76.33 73.40,76.51 73.27,76.73C73.14,76.95 73.07,77.20 73.07,77.48C73.07,77.76 73.14,78.01 73.27,78.23C73.40,78.46 73.57,78.63 73.80,78.76C74.02,78.90 74.27,78.96 74.55,78.97C74.83,78.96 75.08,78.90 75.30,78.76C75.53,78.63 75.70,78.46 75.83,78.23C75.96,78.01 76.03,77.76 76.04,77.48C76.03,77.20 75.96,76.95 75.83,76.73C75.70,76.51 75.53,76.33 75.30,76.20C75.08,76.07 74.83,76.00 74.55,76.00Z" fill="currentColor" stroke="currentColor" stroke-width="1.2" stroke-linejoin="round" />
  <path d="M80.87,83.22 C79.30,80.15 78.69,76.67 79.10,73.25" fill="none" stroke="currentColor" stroke-width="1.0" stroke-linecap="round" stroke-linejoin="round" />
  <path d="M234.00,80.55L232.85,80.55L231.56,82.21L230.78,80.55L229.78,80.55L230.94,82.87L228.79,85.49L229.93,85.49L231.36,83.64L232.26,85.49L233.27,85.49L232.01,82.99L234.00,80.55Z" fill="currentColor" stroke="currentColor" stroke-width="1.2" stroke-linejoin="round" />
</svg>