<svg xmlns="http://www.w3.org/2000/svg" viewBox="0 0 308.86 255.98" preserveAspectRatio="xMidYMid meet" shape-rendering="geometricPrecision" text-rendering="optimizeLegibility">
  <line x1="61.89" y1="238.53" x2="61.89" y2="35.37" fill="none" stroke="currentColor" stroke-width="1.0" stroke-linecap="round" stroke-linejoin="round" />
  <line x1="76.06" y1="238.53" x2="76.06" y2="35.37" fill="none" stroke="currentColor" stroke-width="1.0" stroke-linecap="round" stroke-linejoin="round" />
  <line x1="90.23" y1="238.53" x2="90.23" y2="35.37" fill="none" stroke="currentColor" stroke-width="1.0" stroke-linecap="round" stroke-linejoin="round" />
  <line x1="104.41" y1="238.53" x2="104.41" y2="35.37" fill="none" stroke="currentColor" stroke-width="1.0" stroke-linecap="round" stroke-linejoin="round" />
  <line x1="118.58" y1="238.53" x2="118.58" y2="35.37" fill="none" stroke="currentColor" stroke-width="1.0" stroke-linecap="round" stroke-linejoin="round" />
  <line x1="132.75" y1="238.53" x2="132.75" y2="35.37" fill="none" stroke="currentColor" stroke-width="1.0" stroke-linecap="round" stroke-linejoin="round" />
  <line x1="33.54" y1="238.53" x2="33.54" y2="35.37" fill="none" stroke="currentColor" stroke-width="1.0" stroke-linecap="round" stroke-linejoin="round" />
  <line x1="47.71" y1="238.53" x2="47.71" y2="35.37" fill="none" stroke="currentColor" stroke-width="1.0" stroke-linecap="round" stroke-linejoin="round" />
  <line x1="203.62" y1="238.53" x2="203.62" y2="35.37" fill="none" stroke="currentColor" stroke-width="1.0" stroke-linecap="round" stroke-linejoin="round" />
  <line x1="217.79" y1="238.53" x2="217.79" y2="35.37" fill="none" stroke="currentColor" stroke-width="1.0" stroke-linecap="round" stroke-linejoin="round" />
  <line x1="231.97" y1="238.53" x2="231.97" y2="35.37" fill="none" stroke="currentColor" stroke-width="1.0" stroke-linecap="round" stroke-linejoin="round" />
  <line x1="246.14" y1="238.53" x2="246.14" y2="35.37" fill="none" stroke="currentColor" stroke-width="1.0" stroke-linecap="round" stroke-linejoin="round" />
  <line x1="260.31" y1="238.53" x2="260.31" y2="35.37" fill="none" stroke="currentColor" stroke-width="1.0" stroke-linecap="round" stroke-linejoin="round" />
  <line x1="175.27" y1="238.53" x2="175.27" y2="35.37" fill="none" stroke="currentColor" stroke-width="1.0" stroke-linecap="round" stroke-linejoin="round" />
  <line x1="189.45" y1="238.53" x2="189.45" y2="35.37" fill="none" stroke="currentColor" stroke-width="1.0" stroke-linecap="round" stroke-linejoin="round" />
  <line x1="161.10" y1="238.53" x2="161.10" y2="35.37" fill="none" stroke="currentColor" stroke-width="1.0" stroke-linecap="round" stroke-linejoin="round" />
  <line x1="22.42" y1="115.69" x2="269.76" y2="115.69" fill="none" stroke="currentColor" stroke-width="1.0" stroke-linecap="round" stroke-linejoin="round" />
  <line x1="22.42" y1="129.86" x2="269.76" y2="129.86" fill="none" stroke="currentColor" stroke-width="1.0" stroke-linecap="round" stroke-linejoin="round" />
  <line x1="22.42" y1="172.38" x2="269.76" y2="172.38" fill="none" stroke="currentColor" stroke-width="1.0" stroke-linecap="round" stroke-linejoin="round" />
  <line x1="22.42" y1="186.56" x2="269.76" y2="186.56" fill="none" stroke="currentColor" stroke-width="1.0" stroke-linecap="round" stroke-linejoin="round" />
  <line x1="22.42" y1="200.73" x2="269.76" y2="200.73" fill="none" stroke="currentColor" stroke-width="1.0" stroke-linecap="round" stroke-linejoin="round" />
  <line x1="22.42" y1="214.90" x2="269.76" y2="214.90" fill="none" stroke="currentColor" stroke-width="1.0" stroke-linecap="round" stroke-linejoin="round" />
  <line x1="22.42" y1="158.21" x2="269.76" y2="158.21" fill="none" stroke="currentColor" stroke-width="1.0" stroke-linecap="round" stroke-linejoin="round" />
  <line x1="22.42" y1="101.52" x2="269.76" y2="101.52" fill="none" stroke="currentColor" stroke-width="1.0" stroke-linecap="round" stroke-linejoin="round" />
  <line x1="22.42" y1="87.34" x2="269.76" y2="87.34" fill="none" stroke="currentColor" stroke-width="1.0" stroke-linecap="round" stroke-linejoin="round" />
  <line x1="22.42" y1="73.17" x2="269.76" y2="73.17" fill="none" stroke="currentColor" stroke-width="1.0" stroke-linecap="round" stroke-linejoin="round" />
  <line x1="22.42" y1="58.99" x2="269.76" y2="58.99" fill="none" stroke="currentColor" stroke-width="1.0" stroke-linecap="round" stroke-linejoin="round" />
  <line x1="22.42" y1="44.82" x2="269.76" y2="44.82" fill="none" stroke="currentColor" stroke-width="1.0" stroke-linecap="round" stroke-linejoin="round" />
  <line x1="22.42" y1="229.10" x2="269.76" y2="229.10" fill="none" stroke="currentColor" stroke-width="1.0" stroke-linecap="round" stroke-linejoin="round" />
  <path d="M142.11,23.85L141.13,23.85L139.58,27.25L139.56,27.25L138.90,23.85L137.97,23.85L138.92,28.50L137.58,31.32L138.57,31.32L142.11,23.85Z" fill="currentColor" stroke="currentColor" stroke-width="1.2" stroke-linejoin="round" />
  <path d="M284.25,148.05L283.09,148.05L281.81,149.71L281.02,148.05L280.02,148.05L281.19,150.37L279.03,152.98L280.18,152.98L281.61,151.14L282.51,152.98L283.51,152.98L282.26,150.49L284.25,148.05Z" fill="currentColor" stroke="currentColor" stroke-width="1.2" stroke-linejoin="round" />
  <line x1="8.00" y1="144.04" x2="291.23" y2="144.04" fill="none" stroke="currentColor" stroke-width="1.2" stroke-linecap="round" stroke-linejoin="round" />
  <path d="M290.56,144.04L289.23,148.04L300.86,144.16L300.86,143.91L289.23,140.03L290.56,144.04Z" fill="currentColor" stroke="currentColor" stroke-width="1.2" stroke-linejoin="round" />
  <line x1="146.93" y1="247.98" x2="146.93" y2="17.71" fill="none" stroke="currentColor" stroke-width="1.2" stroke-linecap="round" stroke-linejoin="round" />
  <path d="M146.83,8.00L142.93,19.71L146.92,18.38L150.93,19.71L147.02,8.00L146.83,8.00Z" fill="currentColor" stroke="currentColor" stroke-width="1.2" stroke-linejoin="round" />
  <path d="M219.45,148.38L216.42,148.38L216.42,151.93C216.79,151.84 217.13,151.81 217.42,151.84C217.72,151.87 217.97,151.95 218.18,152.07C218.38,152.19 218.54,152.34 218.65,152.52C218.75,152.70 218.81,152.91 218.81,153.13C218.80,153.35 218.74,153.56 218.61,153.74C218.49,153.93 218.32,154.08 218.11,154.19C217.89,154.30 217.66,154.35 217.40,154.36C217.15,154.36 216.90,154.31 216.65,154.23C216.40,154.15 216.15,154.02 215.91,153.86L215.91,154.87C216.10,154.97 216.29,155.05 216.46,155.11C216.64,155.17 216.82,155.22 217.00,155.24C217.17,155.27 217.36,155.29 217.56,155.29C217.99,155.28 218.38,155.19 218.71,155.00C219.04,154.81 219.30,154.56 219.49,154.23C219.69,153.90 219.78,153.53 219.79,153.11C219.79,152.79 219.73,152.50 219.62,152.23C219.50,151.96 219.34,151.73 219.12,151.53C218.91,151.33 218.65,151.19 218.34,151.09C218.04,150.99 217.69,150.95 217.31,150.97L217.31,149.26L219.45,149.26L219.45,148.38Z" fill="currentColor" stroke="currentColor" stroke-width="1.2" stroke-linejoin="round" />
  <line x1="217.80" y1="146.83" x2="217.80" y2="141.42" fill="none" stroke="currentColor" stroke-width="1.2" stroke-linecap="round" stroke-linejoin="round" />
  <line x1="149.58" y1="73.17" x2="144.17" y2="73.17" fill="none" stroke="currentColor" stroke-width="1.2" stroke-linecap="round" stroke-linejoin="round" />
  <line x1="76.06" y1="146.83" x2="76.06" y2="141.42" fill="none" stroke="currentColor" stroke-width="1.2" stroke-linecap="round" stroke-linejoin="round" />
  <line x1="149.58" y1="214.90" x2="144.17" y2="214.90" fill="none" stroke="currentColor" stroke-width="1.2" stroke-linecap="round" stroke-linejoin="round" />
  <path d="M142.93,211.80L139.90,211.80L139.90,215.35C140.27,215.26 140.61,215.23 140.90,215.26C141.20,215.29 141.45,215.37 141.65,215.49C141.86,215.61 142.02,215.76 142.12,215.94C142.23,216.13 142.29,216.33 142.29,216.55C142.28,216.77 142.22,216.98 142.09,217.16C141.97,217.35 141.80,217.50 141.58,217.61C141.37,217.72 141.14,217.77 140.88,217.78C140.62,217.78 140.38,217.73 140.13,217.65C139.88,217.57 139.63,217.44 139.39,217.28L139.39,218.29C139.58,218.39 139.77,218.47 139.94,218.53C140.12,218.59 140.30,218.64 140.48,218.66C140.65,218.69 140.84,218.71 141.04,218.71C141.47,218.70 141.85,218.61 142.19,218.42C142.52,218.23 142.78,217.98 142.98,217.65C143.17,217.32 143.26,216.95 143.27,216.53C143.27,216.21 143.21,215.92 143.10,215.65C142.98,215.38 142.82,215.15 142.60,214.95C142.39,214.75 142.13,214.61 141.82,214.51C141.52,214.41 141.17,214.37 140.79,214.39L140.79,212.68L142.93,212.68L142.93,211.80Z" fill="currentColor" stroke="currentColor" stroke-width="1.2" stroke-linejoin="round" />
  <path d="M134.65,214.64H138.99V215.24H134.65Z" fill="currentColor" stroke="currentColor" stroke-width="1.2" stroke-linejoin="round" />
  <path d="M142.93,70.05L139.90,70.05L139.90,73.60C140.27,73.51 140.61,73.48 140.90,73.51C141.20,73.54 141.45,73.61 141.65,73.74C141.86,73.86 142.02,74.01 142.12,74.19C142.23,74.37 142.29,74.58 142.29,74.80C142.28,75.02 142.22,75.23 142.09,75.41C141.97,75.60 141.80,75.75 141.58,75.86C141.37,75.97 141.14,76.02 140.88,76.03C140.62,76.03 140.38,75.98 140.13,75.90C139.88,75.82 139.63,75.69 139.39,75.53L139.39,76.54C139.58,76.64 139.77,76.72 139.94,76.78C140.12,76.84 140.30,76.89 140.48,76.91C140.65,76.94 140.84,76.96 141.04,76.96C141.47,76.95 141.85,76.86 142.19,76.67C142.52,76.48 142.78,76.23 142.98,75.90C143.17,75.57 143.26,75.20 143.27,74.78C143.27,74.46 143.21,74.17 143.10,73.90C142.98,73.63 142.82,73.40 142.60,73.20C142.39,73.00 142.13,72.86 141.82,72.76C141.52,72.66 141.17,72.62 140.79,72.64L140.79,70.93L142.93,70.93L142.93,70.05Z" fill="currentColor" stroke="currentColor" stroke-width="1.2" stroke-linejoin="round" />
  <path d="M77.75,148.39L74.72,148.39L74.72,151.94C75.10,151.85 75.43,151.83 75.73,151.86C76.02,151.89 76.27,151.96 76.48,152.08C76.69,152.20 76.84,152.35 76.95,152.54C77.06,152.72 77.11,152.92 77.11,153.14C77.11,153.37 77.04,153.57 76.92,153.76C76.79,153.94 76.62,154.09 76.41,154.20C76.20,154.31 75.96,154.37 75.70,154.37C75.45,154.37 75.20,154.33 74.95,154.24C74.70,154.16 74.46,154.04 74.21,153.87L74.21,154.88C74.40,154.98 74.59,155.06 74.77,155.12C74.95,155.19 75.12,155.23 75.30,155.26C75.48,155.29 75.67,155.30 75.86,155.30C76.29,155.30 76.68,155.20 77.01,155.02C77.35,154.83 77.61,154.57 77.80,154.25C77.99,153.92 78.09,153.54 78.09,153.12C78.09,152.80 78.03,152.51 77.92,152.24C77.81,151.97 77.64,151.74 77.43,151.55C77.21,151.35 76.95,151.20 76.65,151.10C76.34,151.00 76.00,150.96 75.61,150.98L75.61,149.27L77.75,149.27L77.75,148.39Z" fill="currentColor" stroke="currentColor" stroke-width="1.2" stroke-linejoin="round" />
  <path d="M69.48,151.24H73.82V151.84H69.48Z" fill="currentColor" stroke="currentColor" stroke-width="1.2" stroke-linejoin="round" />
  <line x1="270.00" y1="68.25" x2="23.18" y2="191.80" fill="none" stroke="currentColor" stroke-width="1.2" stroke-linecap="round" stroke-linejoin="round" />
  <path d="M14.47,197.60L14.47,189.73L15.51,189.73L15.51,196.67L19.39,196.67L19.39,197.60L14.47,197.60Z" fill="currentColor" stroke="currentColor" stroke-width="1.2" stroke-linejoin="round" />
</svg>