<svg xmlns="http://www.w3.org/2000/svg" viewBox="0 0 198.87 89.94" preserveAspectRatio="xMidYMid meet" shape-rendering="geometricPrecision" text-rendering="optimizeLegibility">
  <polygon points="16.33,70.76 143.89,70.76 163.87,10.19 16.33,28.24" fill="none" stroke="currentColor" stroke-width="1.4000000476837158" stroke-linecap="round" stroke-linejoin="round" />
  <line x1="16.33" y1="28.24" x2="143.89" y2="70.76" fill="none" stroke="currentColor" stroke-width="1.4000000476837158" stroke-linecap="round" stroke-linejoin="round" />
  <rect x="16.33" y="64.73" width="6.20" height="6.03" fill="none" stroke="currentColor" stroke-width="1.000000011920929" stroke-linecap="round" stroke-linejoin="round" />
  <polygon points="139.83,63.12 145.73,65.02 143.89,70.76 137.98,68.86" fill="none" stroke="currentColor" stroke-width="1.000000011920929" stroke-linecap="round" stroke-linejoin="round" />
  <path d="M12.35,54.21C12.35,54.28 12.35,54.33 12.34,54.38C12.33,54.43 12.32,54.48 12.30,54.51C12.28,54.54 12.26,54.57 12.24,54.58C12.21,54.60 12.18,54.61 12.15,54.61L8.31,54.61C8.26,54.61 8.21,54.60 8.18,54.59C8.14,54.58 8.10,54.56 8.08,54.53C8.05,54.50 8.03,54.46 8.02,54.40C8.01,54.35 8.00,54.28 8.00,54.21C8.00,54.13 8.00,54.07 8.01,54.02C8.01,53.96 8.02,53.92 8.04,53.88C8.06,53.83 8.08,53.79 8.11,53.75C8.14,53.71 8.17,53.67 8.21,53.62L9.56,52.19C9.88,51.86 10.12,51.57 10.31,51.31C10.50,51.04 10.65,50.81 10.75,50.59C10.85,50.38 10.92,50.18 10.95,50.01C10.98,49.83 11.00,49.67 11.00,49.51C11.00,49.36 10.97,49.21 10.92,49.07C10.87,48.94 10.80,48.82 10.71,48.71C10.61,48.61 10.49,48.53 10.35,48.46C10.20,48.40 10.04,48.37 9.85,48.37C9.63,48.37 9.44,48.40 9.26,48.46C9.09,48.53 8.94,48.59 8.81,48.66C8.68,48.73 8.57,48.80 8.48,48.86C8.39,48.92 8.33,48.95 8.29,48.95C8.26,48.95 8.24,48.95 8.22,48.93C8.20,48.92 8.18,48.89 8.17,48.86C8.16,48.83 8.15,48.79 8.14,48.73C8.13,48.68 8.13,48.61 8.13,48.54C8.13,48.49 8.13,48.44 8.13,48.40C8.14,48.36 8.14,48.33 8.15,48.30C8.16,48.27 8.17,48.24 8.19,48.22C8.20,48.19 8.23,48.16 8.27,48.12C8.32,48.09 8.39,48.03 8.50,47.97C8.60,47.91 8.74,47.84 8.89,47.78C9.05,47.72 9.23,47.66 9.42,47.62C9.61,47.58 9.81,47.56 10.02,47.56C10.36,47.56 10.66,47.60 10.91,47.70C11.16,47.79 11.37,47.92 11.54,48.09C11.70,48.25 11.83,48.44 11.91,48.66C11.99,48.88 12.03,49.11 12.03,49.36C12.03,49.58 12.01,49.80 11.97,50.02C11.93,50.24 11.85,50.48 11.72,50.74C11.60,50.99 11.41,51.28 11.17,51.59C10.93,51.91 10.62,52.27 10.22,52.68L9.12,53.82L12.14,53.82C12.17,53.82 12.20,53.83 12.22,53.85C12.25,53.86 12.27,53.89 12.29,53.92C12.31,53.95 12.33,53.99 12.34,54.04C12.35,54.09 12.35,54.15 12.35,54.21Z" fill="currentColor" stroke="currentColor" stroke-width="1.2" stroke-linejoin="round" />
  <path d="M80.11,79.58C80.11,79.89 80.06,80.18 79.97,80.47C79.87,80.75 79.73,81.00 79.54,81.22C79.34,81.44 79.10,81.61 78.80,81.74C78.51,81.87 78.15,81.94 77.75,81.94C77.46,81.94 77.20,81.90 76.98,81.83C76.76,81.76 76.57,81.66 76.40,81.52C76.24,81.39 76.10,81.23 75.99,81.03C75.88,80.84 75.79,80.62 75.73,80.37C75.66,80.13 75.61,79.86 75.59,79.56C75.56,79.27 75.54,78.95 75.54,78.62C75.54,78.32 75.56,78.02 75.59,77.72C75.62,77.41 75.68,77.12 75.76,76.83C75.84,76.55 75.96,76.29 76.10,76.04C76.24,75.79 76.42,75.57 76.63,75.39C76.84,75.20 77.10,75.06 77.40,74.95C77.69,74.84 78.04,74.79 78.43,74.79C78.56,74.79 78.70,74.80 78.83,74.81C78.97,74.83 79.10,74.85 79.21,74.88C79.33,74.90 79.42,74.93 79.50,74.97C79.58,75.00 79.63,75.02 79.66,75.04C79.68,75.06 79.70,75.08 79.71,75.11C79.73,75.13 79.74,75.16 79.74,75.18C79.75,75.21 79.75,75.24 79.76,75.27C79.76,75.31 79.76,75.35 79.76,75.40C79.76,75.46 79.76,75.52 79.76,75.57C79.76,75.61 79.75,75.65 79.74,75.68C79.73,75.71 79.71,75.73 79.69,75.74C79.67,75.76 79.65,75.77 79.61,75.77C79.57,75.77 79.52,75.75 79.45,75.73C79.38,75.70 79.30,75.67 79.21,75.64C79.11,75.61 78.99,75.59 78.85,75.56C78.72,75.54 78.56,75.52 78.37,75.52C78.04,75.52 77.75,75.59 77.51,75.73C77.27,75.86 77.08,76.05 76.93,76.28C76.77,76.50 76.66,76.77 76.59,77.07C76.51,77.38 76.47,77.69 76.46,78.02C76.55,77.97 76.66,77.91 76.77,77.86C76.89,77.81 77.02,77.76 77.16,77.72C77.29,77.67 77.44,77.64 77.59,77.61C77.75,77.58 77.91,77.57 78.09,77.57C78.46,77.57 78.78,77.62 79.04,77.72C79.30,77.83 79.50,77.97 79.66,78.15C79.82,78.33 79.94,78.54 80.01,78.79C80.07,79.03 80.11,79.30 80.11,79.58ZM79.17,79.67C79.17,79.46 79.15,79.27 79.11,79.10C79.07,78.93 79.00,78.79 78.90,78.67C78.81,78.55 78.68,78.46 78.52,78.40C78.36,78.33 78.16,78.30 77.92,78.30C77.79,78.30 77.66,78.31 77.52,78.34C77.39,78.36 77.26,78.39 77.14,78.43C77.02,78.47 76.90,78.52 76.79,78.58C76.67,78.63 76.57,78.69 76.48,78.76C76.48,79.22 76.51,79.61 76.57,79.92C76.62,80.23 76.71,80.48 76.82,80.67C76.94,80.85 77.08,80.99 77.24,81.07C77.41,81.15 77.61,81.19 77.84,81.19C78.06,81.19 78.26,81.15 78.43,81.06C78.60,80.98 78.74,80.86 78.85,80.71C78.96,80.57 79.04,80.41 79.10,80.23C79.15,80.05 79.17,79.86 79.17,79.67Z" fill="currentColor" stroke="currentColor" stroke-width="1.2" stroke-linejoin="round" />
  <path d="M92.36,8.40C92.36,8.46 92.36,8.52 92.36,8.57C92.35,8.62 92.34,8.67 92.33,8.72C92.32,8.77 92.31,8.82 92.30,8.86C92.28,8.91 92.26,8.95 92.24,9.00L89.74,14.77C89.72,14.82 89.70,14.85 89.67,14.88C89.64,14.90 89.61,14.93 89.57,14.94C89.53,14.96 89.47,14.97 89.41,14.97C89.35,14.98 89.27,14.98 89.17,14.98C89.05,14.98 88.96,14.98 88.89,14.97C88.82,14.96 88.77,14.94 88.74,14.92C88.71,14.89 88.70,14.86 88.70,14.83C88.70,14.80 88.72,14.76 88.74,14.71L91.37,8.81L88.04,8.81C87.97,8.81 87.92,8.78 87.88,8.70C87.85,8.63 87.83,8.53 87.83,8.40C87.83,8.34 87.83,8.28 87.84,8.23C87.85,8.18 87.87,8.13 87.88,8.10C87.90,8.07 87.92,8.04 87.95,8.02C87.97,8.01 88.00,8.00 88.04,8.00L92.08,8.00C92.13,8.00 92.18,8.01 92.22,8.02C92.25,8.03 92.28,8.05 92.30,8.08C92.32,8.11 92.34,8.15 92.35,8.20C92.36,8.25 92.36,8.32 92.36,8.40Z" fill="currentColor" stroke="currentColor" stroke-width="1.2" stroke-linejoin="round" />
  <path d="M160.38,43.01L161.43,45.37C161.45,45.42 161.46,45.46 161.45,45.50C161.45,45.53 161.43,45.56 161.39,45.58C161.35,45.60 161.29,45.62 161.22,45.63C161.15,45.64 161.06,45.64 160.95,45.64C160.85,45.64 160.77,45.64 160.72,45.63C160.66,45.63 160.61,45.62 160.58,45.60C160.55,45.59 160.53,45.58 160.52,45.56C160.51,45.54 160.50,45.51 160.48,45.49L159.68,43.58L158.16,45.49C158.14,45.51 158.11,45.54 158.09,45.56C158.07,45.58 158.04,45.59 157.99,45.60C157.95,45.61 157.89,45.62 157.83,45.63C157.76,45.64 157.68,45.64 157.57,45.64C157.46,45.64 157.38,45.64 157.32,45.63C157.25,45.62 157.20,45.60 157.17,45.58C157.14,45.56 157.13,45.53 157.14,45.50C157.14,45.47 157.16,45.43 157.20,45.38L159.21,42.99L158.21,40.74C158.19,40.69 158.18,40.64 158.19,40.61C158.19,40.58 158.21,40.55 158.24,40.53C158.28,40.51 158.33,40.49 158.40,40.48C158.46,40.48 158.55,40.47 158.66,40.47C158.76,40.47 158.84,40.48 158.90,40.48C158.96,40.49 159.00,40.49 159.03,40.51C159.06,40.52 159.08,40.53 159.10,40.55C159.11,40.57 159.12,40.59 159.13,40.61L159.90,42.42L161.35,40.61C161.37,40.59 161.39,40.57 161.41,40.55C161.44,40.54 161.47,40.52 161.51,40.51C161.54,40.50 161.59,40.49 161.65,40.48C161.71,40.48 161.79,40.47 161.89,40.47C161.99,40.47 162.08,40.48 162.15,40.48C162.22,40.49 162.27,40.50 162.30,40.52C162.33,40.54 162.35,40.57 162.34,40.60C162.33,40.63 162.31,40.68 162.26,40.73L160.38,43.01Z" fill="currentColor" stroke="currentColor" stroke-width="1.2" stroke-linejoin="round" />
  <path d="M174.14,10.41C173.80,11.13 173.55,11.87 173.38,12.62C173.22,13.38 173.13,14.14 173.13,14.91C173.13,15.68 173.22,16.44 173.39,17.20C173.56,17.95 173.81,18.69 174.13,19.42C174.15,19.46 174.16,19.50 174.16,19.53C174.16,19.56 174.15,19.59 174.13,19.61C174.10,19.63 174.07,19.64 174.01,19.65C173.96,19.66 173.89,19.66 173.80,19.66C173.74,19.66 173.68,19.66 173.63,19.66C173.59,19.65 173.55,19.65 173.51,19.64C173.48,19.62 173.45,19.61 173.43,19.60C173.41,19.58 173.39,19.57 173.38,19.55C173.19,19.18 173.02,18.81 172.87,18.44C172.72,18.07 172.60,17.69 172.50,17.30C172.40,16.91 172.33,16.52 172.28,16.13C172.22,15.73 172.20,15.33 172.20,14.93C172.20,14.52 172.23,14.12 172.28,13.73C172.34,13.33 172.42,12.94 172.52,12.55C172.62,12.17 172.75,11.78 172.89,11.41C173.04,11.03 173.20,10.66 173.39,10.29C173.39,10.28 173.40,10.26 173.42,10.25C173.43,10.24 173.45,10.23 173.48,10.22C173.51,10.21 173.55,10.20 173.60,10.20C173.65,10.19 173.72,10.19 173.79,10.19C173.88,10.19 173.94,10.19 173.99,10.20C174.04,10.22 174.08,10.23 174.11,10.25C174.14,10.27 174.16,10.29 174.16,10.32C174.16,10.35 174.16,10.38 174.14,10.41Z" fill="currentColor" stroke="currentColor" stroke-width="1.2" stroke-linejoin="round" />
  <path d="M179.12,16.94C179.12,17.00 179.12,17.05 179.11,17.10C179.11,17.14 179.10,17.18 179.09,17.21C179.09,17.24 179.07,17.27 179.06,17.29C179.05,17.31 179.02,17.35 178.98,17.39C178.93,17.44 178.85,17.49 178.75,17.56C178.64,17.63 178.52,17.69 178.39,17.74C178.25,17.79 178.10,17.83 177.95,17.86C177.79,17.90 177.63,17.91 177.46,17.91C177.11,17.91 176.80,17.85 176.53,17.74C176.27,17.63 176.04,17.46 175.86,17.24C175.68,17.02 175.54,16.75 175.45,16.43C175.35,16.11 175.30,15.74 175.30,15.32C175.30,14.84 175.36,14.43 175.48,14.09C175.60,13.75 175.76,13.47 175.96,13.25C176.16,13.03 176.40,12.87 176.67,12.76C176.95,12.66 177.24,12.61 177.56,12.61C177.71,12.61 177.86,12.62 178.01,12.65C178.15,12.68 178.29,12.71 178.41,12.76C178.53,12.81 178.64,12.86 178.73,12.92C178.83,12.98 178.90,13.03 178.94,13.08C178.98,13.12 179.01,13.15 179.03,13.18C179.05,13.20 179.06,13.23 179.07,13.27C179.08,13.30 179.09,13.34 179.09,13.38C179.09,13.43 179.10,13.48 179.10,13.55C179.10,13.68 179.08,13.78 179.05,13.84C179.02,13.89 178.98,13.92 178.93,13.92C178.88,13.92 178.81,13.89 178.74,13.83C178.68,13.77 178.59,13.71 178.48,13.64C178.37,13.56 178.24,13.50 178.09,13.44C177.94,13.38 177.76,13.35 177.55,13.35C177.12,13.35 176.80,13.52 176.57,13.84C176.34,14.17 176.23,14.65 176.23,15.27C176.23,15.58 176.26,15.85 176.32,16.09C176.38,16.32 176.46,16.52 176.58,16.68C176.69,16.83 176.83,16.95 177.00,17.03C177.17,17.11 177.36,17.14 177.57,17.14C177.78,17.14 177.95,17.11 178.11,17.05C178.26,16.98 178.40,16.91 178.51,16.83C178.62,16.76 178.72,16.69 178.79,16.63C178.87,16.56 178.93,16.53 178.97,16.53C179.00,16.53 179.02,16.54 179.04,16.55C179.06,16.57 179.07,16.59 179.08,16.63C179.10,16.66 179.10,16.70 179.11,16.75C179.12,16.81 179.12,16.87 179.12,16.94Z" fill="currentColor" stroke="currentColor" stroke-width="1.2" stroke-linejoin="round" />
  <path d="M187.46,17.67C187.46,17.70 187.46,17.73 187.44,17.75C187.43,17.77 187.40,17.78 187.37,17.80C187.34,17.81 187.30,17.82 187.24,17.83C187.18,17.84 187.11,17.84 187.02,17.84C186.93,17.84 186.86,17.84 186.80,17.83C186.75,17.82 186.70,17.81 186.67,17.80C186.63,17.78 186.61,17.77 186.59,17.75C186.58,17.73 186.57,17.70 186.57,17.67L186.57,14.74C186.57,14.53 186.55,14.35 186.52,14.18C186.48,14.01 186.43,13.86 186.35,13.74C186.27,13.62 186.17,13.53 186.05,13.46C185.92,13.40 185.78,13.37 185.62,13.37C185.41,13.37 185.21,13.45 185.00,13.60C184.79,13.76 184.57,13.99 184.32,14.30L184.32,17.67C184.32,17.70 184.32,17.73 184.30,17.75C184.29,17.77 184.26,17.78 184.23,17.80C184.19,17.81 184.15,17.82 184.09,17.83C184.03,17.84 183.96,17.84 183.88,17.84C183.79,17.84 183.72,17.84 183.66,17.83C183.60,17.82 183.56,17.81 183.52,17.80C183.49,17.78 183.47,17.77 183.45,17.75C183.44,17.73 183.44,17.70 183.44,17.67L183.44,14.74C183.44,14.53 183.42,14.35 183.38,14.18C183.34,14.01 183.28,13.86 183.20,13.74C183.12,13.62 183.02,13.53 182.90,13.46C182.78,13.40 182.64,13.37 182.47,13.37C182.27,13.37 182.06,13.45 181.86,13.60C181.65,13.76 181.42,13.99 181.18,14.30L181.18,17.67C181.18,17.70 181.17,17.73 181.16,17.75C181.14,17.77 181.12,17.78 181.09,17.80C181.06,17.81 181.01,17.82 180.95,17.83C180.90,17.84 180.82,17.84 180.73,17.84C180.65,17.84 180.58,17.84 180.52,17.83C180.46,17.82 180.42,17.81 180.38,17.80C180.35,17.78 180.32,17.77 180.31,17.75C180.30,17.73 180.29,17.70 180.29,17.67L180.29,12.84C180.29,12.81 180.30,12.79 180.31,12.77C180.32,12.75 180.34,12.73 180.37,12.71C180.41,12.70 180.45,12.69 180.50,12.68C180.55,12.68 180.61,12.67 180.70,12.67C180.77,12.67 180.84,12.68 180.89,12.68C180.94,12.69 180.98,12.70 181.01,12.71C181.04,12.73 181.06,12.75 181.07,12.77C181.09,12.79 181.09,12.81 181.09,12.84L181.09,13.48C181.37,13.18 181.63,12.95 181.89,12.81C182.14,12.67 182.40,12.60 182.66,12.60C182.86,12.60 183.04,12.62 183.20,12.67C183.36,12.72 183.50,12.78 183.62,12.86C183.74,12.95 183.85,13.05 183.93,13.17C184.02,13.28 184.09,13.41 184.15,13.55C184.31,13.38 184.46,13.23 184.61,13.11C184.75,12.99 184.89,12.89 185.03,12.81C185.16,12.74 185.29,12.68 185.42,12.65C185.55,12.62 185.67,12.60 185.80,12.60C186.12,12.60 186.38,12.65 186.59,12.76C186.80,12.87 186.97,13.02 187.10,13.20C187.23,13.38 187.32,13.60 187.38,13.84C187.44,14.09 187.46,14.35 187.46,14.62L187.46,17.67Z" fill="currentColor" stroke="currentColor" stroke-width="1.2" stroke-linejoin="round" />
  <path d="M190.87,14.92C190.87,15.33 190.85,15.73 190.80,16.12C190.75,16.52 190.67,16.91 190.57,17.30C190.47,17.69 190.35,18.07 190.21,18.44C190.06,18.81 189.89,19.18 189.70,19.55C189.69,19.57 189.67,19.58 189.65,19.60C189.63,19.61 189.60,19.62 189.57,19.63C189.53,19.65 189.49,19.65 189.45,19.66C189.40,19.66 189.34,19.66 189.28,19.66C189.19,19.66 189.11,19.66 189.06,19.65C189.01,19.64 188.97,19.62 188.95,19.61C188.93,19.59 188.91,19.56 188.92,19.53C188.92,19.50 188.93,19.46 188.95,19.42C189.28,18.70 189.52,17.96 189.69,17.20C189.86,16.44 189.94,15.68 189.94,14.91C189.94,14.14 189.86,13.38 189.69,12.62C189.52,11.87 189.27,11.13 188.94,10.41C188.92,10.38 188.92,10.34 188.92,10.32C188.92,10.29 188.94,10.26 188.97,10.25C189.00,10.23 189.04,10.21 189.09,10.20C189.14,10.19 189.20,10.19 189.28,10.19C189.36,10.19 189.42,10.19 189.47,10.20C189.52,10.20 189.56,10.21 189.59,10.22C189.62,10.23 189.65,10.24 189.66,10.25C189.67,10.26 189.69,10.28 189.69,10.29C190.06,11.02 190.35,11.78 190.56,12.55C190.77,13.33 190.87,14.12 190.87,14.92Z" fill="currentColor" stroke="currentColor" stroke-width="1.2" stroke-linejoin="round" />
</svg>