<svg xmlns="http://www.w3.org/2000/svg" viewBox="0 0 179.64 157.73" preserveAspectRatio="xMidYMid meet" shape-rendering="geometricPrecision" text-rendering="optimizeLegibility">
  <line x1="9.08" y1="70.51" x2="8.00" y2="70.51" fill="currentColor" stroke="currentColor" stroke-width="1.2" stroke-linecap="round" stroke-linejoin="round" />
  <line x1="9.08" y1="77.04" x2="9.08" y2="70.51" fill="currentColor" stroke="currentColor" stroke-width="1.2" stroke-linecap="round" stroke-linejoin="round" />
  <line x1="8.00" y1="70.51" x2="8.00" y2="78.01" fill="currentColor" stroke="currentColor" stroke-width="1.2" stroke-linecap="round" stroke-linejoin="round" />
  <line x1="18.89" y1="74.43" x2="171.64" y2="74.43" fill="none" stroke="currentColor" stroke-width="1.2" stroke-linecap="round" stroke-linejoin="round" />
  <line x1="12.46" y1="77.04" x2="9.08" y2="77.04" fill="currentColor" stroke="currentColor" stroke-width="1.2" stroke-linecap="round" stroke-linejoin="round" />
  <line x1="12.46" y1="78.01" x2="12.46" y2="77.04" fill="currentColor" stroke="currentColor" stroke-width="1.2" stroke-linecap="round" stroke-linejoin="round" />
  <path d="M82.98,77.54 C82.70,77.54 82.45,77.61 82.23,77.74" fill="currentColor" stroke="currentColor" stroke-width="1.2" stroke-linecap="round" stroke-linejoin="round" />
  <path d="M83.73,77.74 C83.51,77.61 83.26,77.54 82.98,77.54" fill="currentColor" stroke="currentColor" stroke-width="1.2" stroke-linecap="round" stroke-linejoin="round" />
  <path d="M126.60,80.94 C124.66,79.23 123.65,76.86 123.61,74.47" fill="none" stroke="currentColor" stroke-width="1.0" stroke-linecap="round" stroke-linejoin="round" />
  <path d="M58.56,80.94 C56.62,79.23 55.61,76.86 55.57,74.47" fill="none" stroke="currentColor" stroke-width="1.0" stroke-linecap="round" stroke-linejoin="round" />
  <path d="M82.23,77.74 C82.01,77.87 81.83,78.05 81.70,78.27" fill="currentColor" stroke="currentColor" stroke-width="1.2" stroke-linecap="round" stroke-linejoin="round" />
  <path d="M84.27,78.27 C84.13,78.05 83.96,77.87 83.73,77.74" fill="currentColor" stroke="currentColor" stroke-width="1.2" stroke-linecap="round" stroke-linejoin="round" />
  <line x1="8.00" y1="78.01" x2="12.46" y2="78.01" fill="currentColor" stroke="currentColor" stroke-width="1.2" stroke-linecap="round" stroke-linejoin="round" />
  <path d="M82.98,78.12 C83.15,78.13 83.31,78.17 83.44,78.25" fill="currentColor" stroke="currentColor" stroke-width="1.2" stroke-linecap="round" stroke-linejoin="round" />
  <path d="M82.52,78.25 C82.66,78.17 82.81,78.13 82.98,78.12" fill="currentColor" stroke="currentColor" stroke-width="1.2" stroke-linecap="round" stroke-linejoin="round" />
  <path d="M83.44,78.25 C83.58,78.32 83.69,78.43 83.77,78.57" fill="currentColor" stroke="currentColor" stroke-width="1.2" stroke-linecap="round" stroke-linejoin="round" />
  <path d="M82.20,78.57 C82.28,78.43 82.39,78.32 82.52,78.25" fill="currentColor" stroke="currentColor" stroke-width="1.2" stroke-linecap="round" stroke-linejoin="round" />
  <path d="M81.70,78.27 C81.57,78.50 81.50,78.75 81.50,79.03" fill="currentColor" stroke="currentColor" stroke-width="1.2" stroke-linecap="round" stroke-linejoin="round" />
  <path d="M84.47,79.03 C84.46,78.75 84.40,78.50 84.27,78.27" fill="currentColor" stroke="currentColor" stroke-width="1.2" stroke-linecap="round" stroke-linejoin="round" />
  <path d="M83.77,78.57 C83.85,78.70 83.89,78.86 83.90,79.03" fill="currentColor" stroke="currentColor" stroke-width="1.2" stroke-linecap="round" stroke-linejoin="round" />
  <path d="M82.08,79.03 C82.08,78.86 82.12,78.70 82.20,78.57" fill="currentColor" stroke="currentColor" stroke-width="1.2" stroke-linecap="round" stroke-linejoin="round" />
  <line x1="39.71" y1="8.00" x2="92.68" y2="149.73" fill="none" stroke="currentColor" stroke-width="1.2" stroke-linecap="round" stroke-linejoin="round" />
  <line x1="107.75" y1="8.00" x2="160.72" y2="149.73" fill="none" stroke="currentColor" stroke-width="1.2" stroke-linecap="round" stroke-linejoin="round" />
  <path d="M83.90,79.03 C83.89,79.20 83.85,79.35 83.77,79.49" fill="currentColor" stroke="currentColor" stroke-width="1.2" stroke-linecap="round" stroke-linejoin="round" />
  <path d="M82.20,79.49 C82.12,79.35 82.08,79.20 82.08,79.03" fill="currentColor" stroke="currentColor" stroke-width="1.2" stroke-linecap="round" stroke-linejoin="round" />
  <path d="M81.50,79.03 C81.50,79.30 81.57,79.56 81.70,79.78" fill="currentColor" stroke="currentColor" stroke-width="1.2" stroke-linecap="round" stroke-linejoin="round" />
  <path d="M84.27,79.78 C84.40,79.56 84.46,79.30 84.47,79.03" fill="currentColor" stroke="currentColor" stroke-width="1.2" stroke-linecap="round" stroke-linejoin="round" />
  <path d="M83.77,79.49 C83.69,79.63 83.58,79.73 83.44,79.82" fill="currentColor" stroke="currentColor" stroke-width="1.2" stroke-linecap="round" stroke-linejoin="round" />
  <path d="M82.52,79.82 C82.39,79.73 82.28,79.63 82.20,79.49" fill="currentColor" stroke="currentColor" stroke-width="1.2" stroke-linecap="round" stroke-linejoin="round" />
  <path d="M83.44,79.82 C83.31,79.90 83.15,79.94 82.98,79.94" fill="currentColor" stroke="currentColor" stroke-width="1.2" stroke-linecap="round" stroke-linejoin="round" />
  <path d="M82.98,79.94 C82.81,79.94 82.66,79.90 82.52,79.82" fill="currentColor" stroke="currentColor" stroke-width="1.2" stroke-linecap="round" stroke-linejoin="round" />
  <path d="M76.19,74.43 C76.27,79.20 73.38,83.72 68.68,85.49" fill="none" stroke="currentColor" stroke-width="1.0" stroke-linecap="round" stroke-linejoin="round" />
  <path d="M81.70,79.78 C81.83,80.00 82.01,80.18 82.23,80.31" fill="currentColor" stroke="currentColor" stroke-width="1.2" stroke-linecap="round" stroke-linejoin="round" />
  <path d="M83.73,80.31 C83.96,80.18 84.13,80.00 84.27,79.78" fill="currentColor" stroke="currentColor" stroke-width="1.2" stroke-linecap="round" stroke-linejoin="round" />
  <path d="M82.23,80.31 C82.45,80.44 82.70,80.51 82.98,80.51" fill="currentColor" stroke="currentColor" stroke-width="1.2" stroke-linecap="round" stroke-linejoin="round" />
  <path d="M82.98,80.51 C83.26,80.51 83.51,80.44 83.73,80.31" fill="currentColor" stroke="currentColor" stroke-width="1.2" stroke-linecap="round" stroke-linejoin="round" />
  <line x1="81.09" y1="80.61" x2="80.11" y2="80.61" fill="currentColor" stroke="currentColor" stroke-width="1.2" stroke-linecap="round" stroke-linejoin="round" />
  <line x1="77.88" y1="80.61" x2="76.94" y2="80.61" fill="currentColor" stroke="currentColor" stroke-width="1.2" stroke-linecap="round" stroke-linejoin="round" />
  <path d="M55.18,81.32 C54.90,81.32 54.65,81.39 54.42,81.52" fill="currentColor" stroke="currentColor" stroke-width="1.2" stroke-linecap="round" stroke-linejoin="round" />
  <path d="M55.93,81.52 C55.71,81.39 55.45,81.32 55.18,81.32" fill="currentColor" stroke="currentColor" stroke-width="1.2" stroke-linecap="round" stroke-linejoin="round" />
  <path d="M54.42,81.52 C54.20,81.65 54.03,81.83 53.89,82.05" fill="currentColor" stroke="currentColor" stroke-width="1.2" stroke-linecap="round" stroke-linejoin="round" />
  <path d="M56.46,82.05 C56.33,81.83 56.15,81.65 55.93,81.52" fill="currentColor" stroke="currentColor" stroke-width="1.2" stroke-linecap="round" stroke-linejoin="round" />
  <path d="M55.18,81.90 C55.35,81.90 55.50,81.94 55.64,82.02" fill="currentColor" stroke="currentColor" stroke-width="1.2" stroke-linecap="round" stroke-linejoin="round" />
  <path d="M54.72,82.02 C54.85,81.94 55.01,81.90 55.18,81.90" fill="currentColor" stroke="currentColor" stroke-width="1.2" stroke-linecap="round" stroke-linejoin="round" />
  <path d="M55.64,82.02 C55.78,82.10 55.88,82.21 55.97,82.35" fill="currentColor" stroke="currentColor" stroke-width="1.2" stroke-linecap="round" stroke-linejoin="round" />
  <path d="M54.40,82.35 C54.47,82.21 54.58,82.10 54.72,82.02" fill="currentColor" stroke="currentColor" stroke-width="1.2" stroke-linecap="round" stroke-linejoin="round" />
  <line x1="80.11" y1="80.61" x2="78.56" y2="84.01" fill="currentColor" stroke="currentColor" stroke-width="1.2" stroke-linecap="round" stroke-linejoin="round" />
  <line x1="78.54" y1="84.01" x2="77.88" y2="80.61" fill="currentColor" stroke="currentColor" stroke-width="1.2" stroke-linecap="round" stroke-linejoin="round" />
  <path d="M135.63,82.59 C132.65,83.72 129.15,83.20 126.60,80.94" fill="none" stroke="currentColor" stroke-width="1.0" stroke-linecap="round" stroke-linejoin="round" />
  <path d="M67.59,82.59 C64.61,83.72 61.11,83.20 58.56,80.94" fill="none" stroke="currentColor" stroke-width="1.0" stroke-linecap="round" stroke-linejoin="round" />
  <path d="M53.89,82.05 C53.76,82.28 53.69,82.53 53.69,82.80" fill="currentColor" stroke="currentColor" stroke-width="1.2" stroke-linecap="round" stroke-linejoin="round" />
  <path d="M56.66,82.80 C56.66,82.53 56.59,82.28 56.46,82.05" fill="currentColor" stroke="currentColor" stroke-width="1.2" stroke-linecap="round" stroke-linejoin="round" />
  <path d="M55.97,82.35 C56.05,82.48 56.09,82.63 56.09,82.80" fill="currentColor" stroke="currentColor" stroke-width="1.2" stroke-linecap="round" stroke-linejoin="round" />
  <path d="M54.28,82.80 C54.28,82.63 54.32,82.48 54.40,82.35" fill="currentColor" stroke="currentColor" stroke-width="1.2" stroke-linecap="round" stroke-linejoin="round" />
  <line x1="76.94" y1="80.61" x2="77.90" y2="85.25" fill="currentColor" stroke="currentColor" stroke-width="1.2" stroke-linecap="round" stroke-linejoin="round" />
  <path d="M56.09,82.80 C56.09,82.98 56.05,83.13 55.97,83.27" fill="currentColor" stroke="currentColor" stroke-width="1.2" stroke-linecap="round" stroke-linejoin="round" />
  <path d="M54.40,83.27 C54.32,83.13 54.28,82.98 54.28,82.80" fill="currentColor" stroke="currentColor" stroke-width="1.2" stroke-linecap="round" stroke-linejoin="round" />
  <path d="M53.69,82.80 C53.69,83.08 53.76,83.33 53.89,83.56" fill="currentColor" stroke="currentColor" stroke-width="1.2" stroke-linecap="round" stroke-linejoin="round" />
  <path d="M56.46,83.56 C56.59,83.33 56.66,83.08 56.66,82.80" fill="currentColor" stroke="currentColor" stroke-width="1.2" stroke-linecap="round" stroke-linejoin="round" />
  <path d="M55.97,83.27 C55.88,83.40 55.78,83.51 55.64,83.59" fill="currentColor" stroke="currentColor" stroke-width="1.2" stroke-linecap="round" stroke-linejoin="round" />
  <path d="M54.72,83.59 C54.58,83.51 54.47,83.40 54.40,83.27" fill="currentColor" stroke="currentColor" stroke-width="1.2" stroke-linecap="round" stroke-linejoin="round" />
  <path d="M55.64,83.59 C55.50,83.67 55.35,83.72 55.18,83.72" fill="currentColor" stroke="currentColor" stroke-width="1.2" stroke-linecap="round" stroke-linejoin="round" />
  <path d="M55.18,83.72 C55.01,83.72 54.85,83.67 54.72,83.59" fill="currentColor" stroke="currentColor" stroke-width="1.2" stroke-linecap="round" stroke-linejoin="round" />
  <path d="M53.89,83.56 C54.03,83.78 54.20,83.96 54.42,84.09" fill="currentColor" stroke="currentColor" stroke-width="1.2" stroke-linecap="round" stroke-linejoin="round" />
  <path d="M55.93,84.09 C56.15,83.96 56.33,83.78 56.46,83.56" fill="currentColor" stroke="currentColor" stroke-width="1.2" stroke-linecap="round" stroke-linejoin="round" />
  <path d="M127.18,83.85 C126.90,83.86 126.65,83.92 126.42,84.06" fill="currentColor" stroke="currentColor" stroke-width="1.2" stroke-linecap="round" stroke-linejoin="round" />
  <path d="M127.93,84.06 C127.71,83.92 127.45,83.86 127.18,83.85" fill="currentColor" stroke="currentColor" stroke-width="1.2" stroke-linecap="round" stroke-linejoin="round" />
  <line x1="78.56" y1="84.01" x2="78.54" y2="84.01" fill="currentColor" stroke="currentColor" stroke-width="1.2" stroke-linecap="round" stroke-linejoin="round" />
  <path d="M54.42,84.09 C54.65,84.22 54.90,84.29 55.18,84.29" fill="currentColor" stroke="currentColor" stroke-width="1.2" stroke-linecap="round" stroke-linejoin="round" />
  <path d="M55.18,84.29 C55.45,84.29 55.71,84.22 55.93,84.09" fill="currentColor" stroke="currentColor" stroke-width="1.2" stroke-linecap="round" stroke-linejoin="round" />
  <line x1="112.12" y1="84.26" x2="111.71" y2="84.26" fill="currentColor" stroke="currentColor" stroke-width="1.2" stroke-linecap="round" stroke-linejoin="round" />
  <path d="M126.42,84.06 C126.20,84.19 126.03,84.36 125.89,84.59" fill="currentColor" stroke="currentColor" stroke-width="1.2" stroke-linecap="round" stroke-linejoin="round" />
  <path d="M128.46,84.59 C128.33,84.36 128.15,84.19 127.93,84.06" fill="currentColor" stroke="currentColor" stroke-width="1.2" stroke-linecap="round" stroke-linejoin="round" />
  <line x1="77.55" y1="88.08" x2="81.09" y2="80.61" fill="currentColor" stroke="currentColor" stroke-width="1.2" stroke-linecap="round" stroke-linejoin="round" />
  <line x1="123.95" y1="84.36" x2="120.62" y2="84.36" fill="currentColor" stroke="currentColor" stroke-width="1.2" stroke-linecap="round" stroke-linejoin="round" />
  <line x1="53.19" y1="84.39" x2="52.03" y2="84.39" fill="currentColor" stroke="currentColor" stroke-width="1.2" stroke-linecap="round" stroke-linejoin="round" />
  <line x1="49.97" y1="84.39" x2="48.96" y2="84.39" fill="currentColor" stroke="currentColor" stroke-width="1.2" stroke-linecap="round" stroke-linejoin="round" />
  <path d="M117.75,84.54 C117.46,84.36 117.12,84.26 116.76,84.26" fill="currentColor" stroke="currentColor" stroke-width="1.2" stroke-linecap="round" stroke-linejoin="round" />
  <path d="M116.76,84.26 C116.40,84.26 116.07,84.36 115.77,84.54" fill="currentColor" stroke="currentColor" stroke-width="1.2" stroke-linecap="round" stroke-linejoin="round" />
  <path d="M127.18,84.44 C127.35,84.44 127.50,84.48 127.64,84.56" fill="currentColor" stroke="currentColor" stroke-width="1.2" stroke-linecap="round" stroke-linejoin="round" />
  <path d="M126.72,84.56 C126.85,84.48 127.01,84.44 127.18,84.44" fill="currentColor" stroke="currentColor" stroke-width="1.2" stroke-linecap="round" stroke-linejoin="round" />
  <path d="M127.64,84.56 C127.78,84.64 127.88,84.74 127.97,84.88" fill="currentColor" stroke="currentColor" stroke-width="1.2" stroke-linecap="round" stroke-linejoin="round" />
  <path d="M126.40,84.88 C126.47,84.74 126.58,84.64 126.72,84.56" fill="currentColor" stroke="currentColor" stroke-width="1.2" stroke-linecap="round" stroke-linejoin="round" />
  <line x1="123.95" y1="85.33" x2="123.95" y2="84.36" fill="currentColor" stroke="currentColor" stroke-width="1.2" stroke-linecap="round" stroke-linejoin="round" />
  <path d="M118.51,85.32 C118.30,84.98 118.05,84.72 117.75,84.54" fill="currentColor" stroke="currentColor" stroke-width="1.2" stroke-linecap="round" stroke-linejoin="round" />
  <path d="M115.77,84.54 C115.47,84.72 115.22,84.98 115.01,85.32" fill="currentColor" stroke="currentColor" stroke-width="1.2" stroke-linecap="round" stroke-linejoin="round" />
  <path d="M125.89,84.59 C125.76,84.81 125.69,85.06 125.69,85.34" fill="currentColor" stroke="currentColor" stroke-width="1.2" stroke-linecap="round" stroke-linejoin="round" />
  <path d="M128.66,85.34 C128.66,85.06 128.59,84.81 128.46,84.59" fill="currentColor" stroke="currentColor" stroke-width="1.2" stroke-linecap="round" stroke-linejoin="round" />
  <path d="M127.97,84.88 C128.05,85.02 128.09,85.17 128.09,85.34" fill="currentColor" stroke="currentColor" stroke-width="1.2" stroke-linecap="round" stroke-linejoin="round" />
  <path d="M126.28,85.34 C126.28,85.17 126.32,85.02 126.40,84.88" fill="currentColor" stroke="currentColor" stroke-width="1.2" stroke-linecap="round" stroke-linejoin="round" />
  <line x1="52.03" y1="84.39" x2="50.75" y2="86.05" fill="currentColor" stroke="currentColor" stroke-width="1.2" stroke-linecap="round" stroke-linejoin="round" />
  <line x1="50.75" y1="86.05" x2="49.97" y2="84.39" fill="currentColor" stroke="currentColor" stroke-width="1.2" stroke-linecap="round" stroke-linejoin="round" />
  <line x1="111.71" y1="84.26" x2="109.15" y2="86.35" fill="currentColor" stroke="currentColor" stroke-width="1.2" stroke-linecap="round" stroke-linejoin="round" />
  <line x1="121.60" y1="85.33" x2="123.95" y2="85.33" fill="currentColor" stroke="currentColor" stroke-width="1.2" stroke-linecap="round" stroke-linejoin="round" />
  <path d="M116.04,85.63 C116.24,85.40 116.48,85.29 116.76,85.28" fill="currentColor" stroke="currentColor" stroke-width="1.2" stroke-linecap="round" stroke-linejoin="round" />
  <path d="M116.76,85.28 C117.04,85.29 117.28,85.40 117.48,85.63" fill="currentColor" stroke="currentColor" stroke-width="1.2" stroke-linecap="round" stroke-linejoin="round" />
  <line x1="48.96" y1="84.39" x2="50.13" y2="86.71" fill="currentColor" stroke="currentColor" stroke-width="1.2" stroke-linecap="round" stroke-linejoin="round" />
  <path d="M128.09,85.34 C128.09,85.51 128.05,85.66 127.97,85.80" fill="currentColor" stroke="currentColor" stroke-width="1.2" stroke-linecap="round" stroke-linejoin="round" />
  <path d="M126.40,85.80 C126.32,85.66 126.28,85.51 126.28,85.34" fill="currentColor" stroke="currentColor" stroke-width="1.2" stroke-linecap="round" stroke-linejoin="round" />
  <line x1="51.20" y1="86.83" x2="53.19" y2="84.39" fill="currentColor" stroke="currentColor" stroke-width="1.2" stroke-linecap="round" stroke-linejoin="round" />
  <path d="M125.69,85.34 C125.69,85.62 125.76,85.87 125.89,86.09" fill="currentColor" stroke="currentColor" stroke-width="1.2" stroke-linecap="round" stroke-linejoin="round" />
  <path d="M128.46,86.09 C128.59,85.87 128.66,85.62 128.66,85.34" fill="currentColor" stroke="currentColor" stroke-width="1.2" stroke-linecap="round" stroke-linejoin="round" />
  <path d="M119.01,86.54 C118.89,86.06 118.73,85.66 118.51,85.32" fill="currentColor" stroke="currentColor" stroke-width="1.2" stroke-linecap="round" stroke-linejoin="round" />
  <path d="M115.01,85.32 C114.79,85.66 114.63,86.06 114.51,86.54" fill="currentColor" stroke="currentColor" stroke-width="1.2" stroke-linecap="round" stroke-linejoin="round" />
  <path d="M127.97,85.80 C127.88,85.94 127.78,86.05 127.64,86.13" fill="currentColor" stroke="currentColor" stroke-width="1.2" stroke-linecap="round" stroke-linejoin="round" />
  <path d="M126.72,86.13 C126.58,86.05 126.47,85.94 126.40,85.80" fill="currentColor" stroke="currentColor" stroke-width="1.2" stroke-linecap="round" stroke-linejoin="round" />
  <path d="M115.58,86.60 C115.69,86.18 115.84,85.85 116.04,85.63" fill="currentColor" stroke="currentColor" stroke-width="1.2" stroke-linecap="round" stroke-linejoin="round" />
  <path d="M117.48,85.63 C117.68,85.85 117.83,86.18 117.94,86.60" fill="currentColor" stroke="currentColor" stroke-width="1.2" stroke-linecap="round" stroke-linejoin="round" />
  <path d="M127.64,86.13 C127.50,86.21 127.35,86.25 127.18,86.25" fill="currentColor" stroke="currentColor" stroke-width="1.2" stroke-linecap="round" stroke-linejoin="round" />
  <path d="M127.18,86.25 C127.01,86.25 126.85,86.21 126.72,86.13" fill="currentColor" stroke="currentColor" stroke-width="1.2" stroke-linecap="round" stroke-linejoin="round" />
  <line x1="121.60" y1="87.21" x2="121.60" y2="85.33" fill="currentColor" stroke="currentColor" stroke-width="1.2" stroke-linecap="round" stroke-linejoin="round" />
  <line x1="120.62" y1="84.36" x2="120.62" y2="88.27" fill="currentColor" stroke="currentColor" stroke-width="1.2" stroke-linecap="round" stroke-linejoin="round" />
  <path d="M125.89,86.09 C126.03,86.31 126.20,86.49 126.42,86.62" fill="currentColor" stroke="currentColor" stroke-width="1.2" stroke-linecap="round" stroke-linejoin="round" />
  <path d="M127.93,86.62 C128.15,86.49 128.33,86.31 128.46,86.09" fill="currentColor" stroke="currentColor" stroke-width="1.2" stroke-linecap="round" stroke-linejoin="round" />
  <line x1="77.90" y1="85.25" x2="76.56" y2="88.08" fill="currentColor" stroke="currentColor" stroke-width="1.2" stroke-linecap="round" stroke-linejoin="round" />
  <line x1="109.57" y1="87.29" x2="111.00" y2="86.11" fill="currentColor" stroke="currentColor" stroke-width="1.2" stroke-linecap="round" stroke-linejoin="round" />
  <path d="M126.42,86.62 C126.65,86.75 126.90,86.82 127.18,86.82" fill="currentColor" stroke="currentColor" stroke-width="1.2" stroke-linecap="round" stroke-linejoin="round" />
  <path d="M127.18,86.82 C127.45,86.82 127.71,86.75 127.93,86.62" fill="currentColor" stroke="currentColor" stroke-width="1.2" stroke-linecap="round" stroke-linejoin="round" />
  <line x1="109.15" y1="86.35" x2="109.57" y2="87.29" fill="currentColor" stroke="currentColor" stroke-width="1.2" stroke-linecap="round" stroke-linejoin="round" />
  <path d="M122.74,87.34 C122.40,87.23 122.02,87.19 121.60,87.21" fill="currentColor" stroke="currentColor" stroke-width="1.2" stroke-linecap="round" stroke-linejoin="round" />
  <path d="M119.18,88.11 C119.18,87.53 119.12,87.01 119.01,86.54" fill="currentColor" stroke="currentColor" stroke-width="1.2" stroke-linecap="round" stroke-linejoin="round" />
  <path d="M114.51,86.54 C114.40,87.01 114.34,87.53 114.34,88.11" fill="currentColor" stroke="currentColor" stroke-width="1.2" stroke-linecap="round" stroke-linejoin="round" />
  <path d="M115.42,88.11 C115.42,87.52 115.47,87.02 115.58,86.60" fill="currentColor" stroke="currentColor" stroke-width="1.2" stroke-linecap="round" stroke-linejoin="round" />
  <path d="M117.94,86.60 C118.05,87.02 118.10,87.52 118.10,88.11" fill="currentColor" stroke="currentColor" stroke-width="1.2" stroke-linecap="round" stroke-linejoin="round" />
  <path d="M123.60,87.83 C123.36,87.61 123.08,87.45 122.74,87.34" fill="currentColor" stroke="currentColor" stroke-width="1.2" stroke-linecap="round" stroke-linejoin="round" />
  <line x1="50.13" y1="86.71" x2="47.97" y2="89.33" fill="currentColor" stroke="currentColor" stroke-width="1.2" stroke-linecap="round" stroke-linejoin="round" />
  <line x1="112.12" y1="91.86" x2="112.12" y2="84.26" fill="currentColor" stroke="currentColor" stroke-width="1.2" stroke-linecap="round" stroke-linejoin="round" />
  <line x1="76.56" y1="88.08" x2="77.55" y2="88.08" fill="currentColor" stroke="currentColor" stroke-width="1.2" stroke-linecap="round" stroke-linejoin="round" />
  <line x1="52.45" y1="89.33" x2="51.20" y2="86.83" fill="currentColor" stroke="currentColor" stroke-width="1.2" stroke-linecap="round" stroke-linejoin="round" />
  <path d="M120.62,88.27 C121.03,88.17 121.40,88.14 121.73,88.17" fill="currentColor" stroke="currentColor" stroke-width="1.2" stroke-linecap="round" stroke-linejoin="round" />
  <path d="M124.14,88.60 C124.02,88.30 123.83,88.05 123.60,87.83" fill="currentColor" stroke="currentColor" stroke-width="1.2" stroke-linecap="round" stroke-linejoin="round" />
  <path d="M121.73,88.17 C122.05,88.20 122.33,88.29 122.55,88.42" fill="currentColor" stroke="currentColor" stroke-width="1.2" stroke-linecap="round" stroke-linejoin="round" />
  <line x1="49.12" y1="89.33" x2="50.55" y2="87.48" fill="currentColor" stroke="currentColor" stroke-width="1.2" stroke-linecap="round" stroke-linejoin="round" />
  <line x1="50.55" y1="87.48" x2="51.45" y2="89.33" fill="currentColor" stroke="currentColor" stroke-width="1.2" stroke-linecap="round" stroke-linejoin="round" />
  <path d="M122.55,88.42 C122.78,88.55 122.95,88.72 123.07,88.92" fill="currentColor" stroke="currentColor" stroke-width="1.2" stroke-linecap="round" stroke-linejoin="round" />
  <path d="M118.10,88.11 C118.10,88.70 118.05,89.21 117.94,89.63" fill="currentColor" stroke="currentColor" stroke-width="1.2" stroke-linecap="round" stroke-linejoin="round" />
  <path d="M115.58,89.63 C115.47,89.21 115.42,88.70 115.42,88.11" fill="currentColor" stroke="currentColor" stroke-width="1.2" stroke-linecap="round" stroke-linejoin="round" />
  <path d="M114.34,88.11 C114.34,88.69 114.40,89.22 114.51,89.69" fill="currentColor" stroke="currentColor" stroke-width="1.2" stroke-linecap="round" stroke-linejoin="round" />
  <path d="M119.01,89.69 C119.12,89.22 119.18,88.69 119.18,88.11" fill="currentColor" stroke="currentColor" stroke-width="1.2" stroke-linecap="round" stroke-linejoin="round" />
  <line x1="111.00" y1="86.11" x2="111.00" y2="91.86" fill="currentColor" stroke="currentColor" stroke-width="1.2" stroke-linecap="round" stroke-linejoin="round" />
  <path d="M124.33,89.56 C124.33,89.21 124.26,88.89 124.14,88.60" fill="currentColor" stroke="currentColor" stroke-width="1.2" stroke-linecap="round" stroke-linejoin="round" />
  <path d="M123.07,88.92 C123.19,89.12 123.25,89.34 123.25,89.59" fill="currentColor" stroke="currentColor" stroke-width="1.2" stroke-linecap="round" stroke-linejoin="round" />
  <line x1="47.97" y1="89.33" x2="49.12" y2="89.33" fill="currentColor" stroke="currentColor" stroke-width="1.2" stroke-linecap="round" stroke-linejoin="round" />
  <line x1="51.45" y1="89.33" x2="52.45" y2="89.33" fill="currentColor" stroke="currentColor" stroke-width="1.2" stroke-linecap="round" stroke-linejoin="round" />
  <path d="M123.25,89.59 C123.25,89.83 123.18,90.06 123.04,90.26" fill="currentColor" stroke="currentColor" stroke-width="1.2" stroke-linecap="round" stroke-linejoin="round" />
  <path d="M117.94,89.63 C117.83,90.05 117.68,90.37 117.48,90.60" fill="currentColor" stroke="currentColor" stroke-width="1.2" stroke-linecap="round" stroke-linejoin="round" />
  <path d="M116.04,90.60 C115.84,90.37 115.69,90.05 115.58,89.63" fill="currentColor" stroke="currentColor" stroke-width="1.2" stroke-linecap="round" stroke-linejoin="round" />
  <path d="M124.01,90.80 C124.22,90.44 124.32,90.03 124.33,89.56" fill="currentColor" stroke="currentColor" stroke-width="1.2" stroke-linecap="round" stroke-linejoin="round" />
  <path d="M114.51,89.69 C114.63,90.16 114.79,90.56 115.01,90.90" fill="currentColor" stroke="currentColor" stroke-width="1.2" stroke-linecap="round" stroke-linejoin="round" />
  <path d="M118.51,90.90 C118.73,90.56 118.89,90.16 119.01,89.69" fill="currentColor" stroke="currentColor" stroke-width="1.2" stroke-linecap="round" stroke-linejoin="round" />
  <path d="M123.04,90.26 C122.90,90.47 122.71,90.63 122.48,90.75" fill="currentColor" stroke="currentColor" stroke-width="1.2" stroke-linecap="round" stroke-linejoin="round" />
  <path d="M120.87,90.80 C120.60,90.71 120.33,90.57 120.06,90.39" fill="currentColor" stroke="currentColor" stroke-width="1.2" stroke-linecap="round" stroke-linejoin="round" />
  <path d="M117.48,90.60 C117.28,90.82 117.04,90.94 116.76,90.94" fill="currentColor" stroke="currentColor" stroke-width="1.2" stroke-linecap="round" stroke-linejoin="round" />
  <path d="M116.76,90.94 C116.48,90.94 116.24,90.82 116.04,90.60" fill="currentColor" stroke="currentColor" stroke-width="1.2" stroke-linecap="round" stroke-linejoin="round" />
  <path d="M122.48,90.75 C122.24,90.87 121.98,90.93 121.70,90.94" fill="currentColor" stroke="currentColor" stroke-width="1.2" stroke-linecap="round" stroke-linejoin="round" />
  <path d="M121.70,90.94 C121.42,90.94 121.15,90.89 120.87,90.80" fill="currentColor" stroke="currentColor" stroke-width="1.2" stroke-linecap="round" stroke-linejoin="round" />
  <line x1="120.06" y1="90.39" x2="120.06" y2="91.50" fill="currentColor" stroke="currentColor" stroke-width="1.2" stroke-linecap="round" stroke-linejoin="round" />
  <path d="M123.14,91.65 C123.51,91.44 123.80,91.16 124.01,90.80" fill="currentColor" stroke="currentColor" stroke-width="1.2" stroke-linecap="round" stroke-linejoin="round" />
  <path d="M115.01,90.90 C115.22,91.24 115.47,91.50 115.77,91.68" fill="currentColor" stroke="currentColor" stroke-width="1.2" stroke-linecap="round" stroke-linejoin="round" />
  <path d="M117.75,91.68 C118.05,91.50 118.30,91.24 118.51,90.90" fill="currentColor" stroke="currentColor" stroke-width="1.2" stroke-linecap="round" stroke-linejoin="round" />
  <path d="M120.06,91.50 C120.27,91.61 120.48,91.70 120.67,91.77" fill="currentColor" stroke="currentColor" stroke-width="1.2" stroke-linecap="round" stroke-linejoin="round" />
  <path d="M121.87,91.96 C122.35,91.96 122.77,91.85 123.14,91.65" fill="currentColor" stroke="currentColor" stroke-width="1.2" stroke-linecap="round" stroke-linejoin="round" />
  <path d="M115.77,91.68 C116.07,91.87 116.40,91.96 116.76,91.96" fill="currentColor" stroke="currentColor" stroke-width="1.2" stroke-linecap="round" stroke-linejoin="round" />
  <path d="M116.76,91.96 C117.12,91.96 117.46,91.87 117.75,91.68" fill="currentColor" stroke="currentColor" stroke-width="1.2" stroke-linecap="round" stroke-linejoin="round" />
  <path d="M120.67,91.77 C120.87,91.83 121.06,91.88 121.26,91.91" fill="currentColor" stroke="currentColor" stroke-width="1.2" stroke-linecap="round" stroke-linejoin="round" />
  <line x1="111.00" y1="91.86" x2="112.12" y2="91.86" fill="currentColor" stroke="currentColor" stroke-width="1.2" stroke-linecap="round" stroke-linejoin="round" />
  <path d="M121.26,91.91 C121.45,91.95 121.66,91.96 121.87,91.96" fill="currentColor" stroke="currentColor" stroke-width="1.2" stroke-linecap="round" stroke-linejoin="round" />
</svg>