<svg xmlns="http://www.w3.org/2000/svg" viewBox="0 0 200.32 143.65" preserveAspectRatio="xMidYMid meet" shape-rendering="geometricPrecision" text-rendering="optimizeLegibility">
  <path d="M18.40,8.07 C18.13,8.02 17.85,8.00 17.58,8.00" fill="currentColor" stroke="currentColor" stroke-width="1.2" stroke-linecap="round" stroke-linejoin="round" />
  <path d="M17.58,8.00 C16.95,8.00 16.37,8.11 15.85,8.31" fill="currentColor" stroke="currentColor" stroke-width="1.2" stroke-linecap="round" stroke-linejoin="round" />
  <path d="M19.29,8.28 C18.98,8.18 18.69,8.11 18.40,8.07" fill="currentColor" stroke="currentColor" stroke-width="1.2" stroke-linecap="round" stroke-linejoin="round" />
  <path d="M20.29,8.65 C19.93,8.50 19.60,8.38 19.29,8.28" fill="currentColor" stroke="currentColor" stroke-width="1.2" stroke-linecap="round" stroke-linejoin="round" />
  <path d="M15.85,8.31 C15.32,8.52 14.86,8.81 14.48,9.18" fill="currentColor" stroke="currentColor" stroke-width="1.2" stroke-linecap="round" stroke-linejoin="round" />
  <line x1="20.29" y1="9.86" x2="20.29" y2="8.65" fill="currentColor" stroke="currentColor" stroke-width="1.2" stroke-linecap="round" stroke-linejoin="round" />
  <path d="M17.57,9.04 C18.02,9.04 18.47,9.11 18.91,9.24" fill="currentColor" stroke="currentColor" stroke-width="1.2" stroke-linecap="round" stroke-linejoin="round" />
  <path d="M16.32,9.27 C16.70,9.12 17.12,9.04 17.57,9.04" fill="currentColor" stroke="currentColor" stroke-width="1.2" stroke-linecap="round" stroke-linejoin="round" />
  <path d="M14.48,9.18 C14.09,9.55 13.79,9.99 13.58,10.50" fill="currentColor" stroke="currentColor" stroke-width="1.2" stroke-linecap="round" stroke-linejoin="round" />
  <path d="M18.91,9.24 C19.35,9.37 19.81,9.58 20.29,9.86" fill="currentColor" stroke="currentColor" stroke-width="1.2" stroke-linecap="round" stroke-linejoin="round" />
  <path d="M15.32,9.90 C15.60,9.63 15.94,9.42 16.32,9.27" fill="currentColor" stroke="currentColor" stroke-width="1.2" stroke-linecap="round" stroke-linejoin="round" />
  <path d="M14.66,10.86 C14.82,10.49 15.04,10.17 15.32,9.90" fill="currentColor" stroke="currentColor" stroke-width="1.2" stroke-linecap="round" stroke-linejoin="round" />
  <path d="M13.58,10.50 C13.37,11.01 13.26,11.56 13.26,12.17" fill="currentColor" stroke="currentColor" stroke-width="1.2" stroke-linecap="round" stroke-linejoin="round" />
  <path d="M14.42,12.06 C14.43,11.62 14.51,11.22 14.66,10.86" fill="currentColor" stroke="currentColor" stroke-width="1.2" stroke-linecap="round" stroke-linejoin="round" />
  <path d="M14.83,13.62 C14.56,13.18 14.43,12.65 14.42,12.06" fill="currentColor" stroke="currentColor" stroke-width="1.2" stroke-linecap="round" stroke-linejoin="round" />
  <path d="M13.26,12.17 C13.26,12.50 13.31,12.85 13.41,13.21" fill="currentColor" stroke="currentColor" stroke-width="1.2" stroke-linecap="round" stroke-linejoin="round" />
  <path d="M13.41,13.21 C13.52,13.57 13.68,13.92 13.90,14.26" fill="currentColor" stroke="currentColor" stroke-width="1.2" stroke-linecap="round" stroke-linejoin="round" />
  <path d="M15.95,14.67 C15.47,14.42 15.10,14.07 14.83,13.62" fill="currentColor" stroke="currentColor" stroke-width="1.2" stroke-linecap="round" stroke-linejoin="round" />
  <line x1="20.37" y1="15.40" x2="20.37" y2="14.17" fill="currentColor" stroke="currentColor" stroke-width="1.2" stroke-linecap="round" stroke-linejoin="round" />
  <path d="M20.37,14.17 C19.92,14.46 19.46,14.68 18.99,14.83" fill="currentColor" stroke="currentColor" stroke-width="1.2" stroke-linecap="round" stroke-linejoin="round" />
  <path d="M13.90,14.26 C14.12,14.61 14.40,14.91 14.73,15.19" fill="currentColor" stroke="currentColor" stroke-width="1.2" stroke-linecap="round" stroke-linejoin="round" />
  <path d="M17.62,15.06 C16.98,15.05 16.42,14.92 15.95,14.67" fill="currentColor" stroke="currentColor" stroke-width="1.2" stroke-linecap="round" stroke-linejoin="round" />
  <path d="M18.99,14.83 C18.52,14.98 18.07,15.06 17.62,15.06" fill="currentColor" stroke="currentColor" stroke-width="1.2" stroke-linecap="round" stroke-linejoin="round" />
  <path d="M14.73,15.19 C15.07,15.46 15.47,15.68 15.93,15.85" fill="currentColor" stroke="currentColor" stroke-width="1.2" stroke-linecap="round" stroke-linejoin="round" />
  <path d="M19.56,15.76 C19.84,15.66 20.11,15.54 20.37,15.40" fill="currentColor" stroke="currentColor" stroke-width="1.2" stroke-linecap="round" stroke-linejoin="round" />
  <path d="M18.63,16.01 C18.97,15.95 19.28,15.87 19.56,15.76" fill="currentColor" stroke="currentColor" stroke-width="1.2" stroke-linecap="round" stroke-linejoin="round" />
  <path d="M15.93,15.85 C16.39,16.01 16.92,16.09 17.51,16.10" fill="currentColor" stroke="currentColor" stroke-width="1.2" stroke-linecap="round" stroke-linejoin="round" />
  <path d="M17.51,16.10 C17.92,16.10 18.30,16.07 18.63,16.01" fill="currentColor" stroke="currentColor" stroke-width="1.2" stroke-linecap="round" stroke-linejoin="round" />
  <line x1="18.10" y1="20.74" x2="18.10" y2="130.19" fill="none" stroke="currentColor" stroke-width="1.6" stroke-linecap="round" stroke-linejoin="round" />
  <line x1="182.93" y1="130.19" x2="18.10" y2="20.74" fill="none" stroke="currentColor" stroke-width="1.6" stroke-linecap="round" stroke-linejoin="round" />
  <path d="M30.84,28.58 C29.35,31.06 27.11,33.14 24.27,34.43" fill="none" stroke="currentColor" stroke-width="1.1639999866485595" stroke-linecap="round" stroke-linejoin="round" />
  <path d="M24.27,34.43 C22.21,35.36 20.06,35.79 17.94,35.77" fill="none" stroke="currentColor" stroke-width="1.1639999866485595" stroke-linecap="round" stroke-linejoin="round" />
  <line x1="29.21" y1="37.07" x2="28.35" y2="37.07" fill="currentColor" stroke="currentColor" stroke-width="1.2" stroke-linecap="round" stroke-linejoin="round" />
  <line x1="28.35" y1="37.07" x2="26.99" y2="40.04" fill="currentColor" stroke="currentColor" stroke-width="1.2" stroke-linecap="round" stroke-linejoin="round" />
  <line x1="26.97" y1="40.04" x2="26.39" y2="37.07" fill="currentColor" stroke="currentColor" stroke-width="1.2" stroke-linecap="round" stroke-linejoin="round" />
  <line x1="26.39" y1="37.07" x2="25.58" y2="37.07" fill="currentColor" stroke="currentColor" stroke-width="1.2" stroke-linecap="round" stroke-linejoin="round" />
  <line x1="25.58" y1="37.07" x2="26.41" y2="41.13" fill="currentColor" stroke="currentColor" stroke-width="1.2" stroke-linecap="round" stroke-linejoin="round" />
  <line x1="26.11" y1="43.61" x2="29.21" y2="37.07" fill="currentColor" stroke="currentColor" stroke-width="1.2" stroke-linecap="round" stroke-linejoin="round" />
  <line x1="26.99" y1="40.04" x2="26.97" y2="40.04" fill="currentColor" stroke="currentColor" stroke-width="1.2" stroke-linecap="round" stroke-linejoin="round" />
  <line x1="26.41" y1="41.13" x2="25.24" y2="43.61" fill="currentColor" stroke="currentColor" stroke-width="1.2" stroke-linecap="round" stroke-linejoin="round" />
  <line x1="25.24" y1="43.61" x2="26.11" y2="43.61" fill="currentColor" stroke="currentColor" stroke-width="1.2" stroke-linecap="round" stroke-linejoin="round" />
  <path d="M159.26,118.24 C159.02,118.25 158.80,118.31 158.60,118.42" fill="currentColor" stroke="currentColor" stroke-width="1.2" stroke-linecap="round" stroke-linejoin="round" />
  <path d="M159.92,118.42 C159.73,118.31 159.51,118.25 159.26,118.24" fill="currentColor" stroke="currentColor" stroke-width="1.2" stroke-linecap="round" stroke-linejoin="round" />
  <path d="M158.60,118.42 C158.41,118.54 158.25,118.69 158.14,118.89" fill="currentColor" stroke="currentColor" stroke-width="1.2" stroke-linecap="round" stroke-linejoin="round" />
  <path d="M160.39,118.89 C160.27,118.69 160.12,118.54 159.92,118.42" fill="currentColor" stroke="currentColor" stroke-width="1.2" stroke-linecap="round" stroke-linejoin="round" />
  <path d="M128.35,120.61 C128.57,119.87 128.92,119.19 129.39,118.57" fill="currentColor" stroke="currentColor" stroke-width="1.2" stroke-linecap="round" stroke-linejoin="round" />
  <line x1="129.39" y1="118.57" x2="128.88" y2="118.57" fill="currentColor" stroke="currentColor" stroke-width="1.2" stroke-linecap="round" stroke-linejoin="round" />
  <path d="M128.88,118.57 C128.59,118.86 128.33,119.18 128.10,119.52" fill="currentColor" stroke="currentColor" stroke-width="1.2" stroke-linecap="round" stroke-linejoin="round" />
  <path d="M155.65,119.52 C155.42,119.18 155.16,118.86 154.87,118.57" fill="currentColor" stroke="currentColor" stroke-width="1.2" stroke-linecap="round" stroke-linejoin="round" />
  <line x1="154.87" y1="118.57" x2="154.36" y2="118.57" fill="currentColor" stroke="currentColor" stroke-width="1.2" stroke-linecap="round" stroke-linejoin="round" />
  <path d="M154.36,118.57 C154.83,119.19 155.18,119.87 155.41,120.61" fill="currentColor" stroke="currentColor" stroke-width="1.2" stroke-linecap="round" stroke-linejoin="round" />
  <path d="M152.71,118.84 C152.45,118.68 152.16,118.60 151.84,118.60" fill="currentColor" stroke="currentColor" stroke-width="1.2" stroke-linecap="round" stroke-linejoin="round" />
  <path d="M151.84,118.60 C151.52,118.60 151.23,118.68 150.97,118.84" fill="currentColor" stroke="currentColor" stroke-width="1.2" stroke-linecap="round" stroke-linejoin="round" />
  <path d="M147.68,118.82 C147.39,118.67 147.04,118.60 146.65,118.60" fill="currentColor" stroke="currentColor" stroke-width="1.2" stroke-linecap="round" stroke-linejoin="round" />
  <path d="M146.65,118.60 C146.41,118.60 146.19,118.62 145.98,118.67" fill="currentColor" stroke="currentColor" stroke-width="1.2" stroke-linecap="round" stroke-linejoin="round" />
  <path d="M145.98,118.67 C145.78,118.71 145.58,118.79 145.39,118.88" fill="currentColor" stroke="currentColor" stroke-width="1.2" stroke-linecap="round" stroke-linejoin="round" />
  <path d="M159.26,118.75 C159.41,118.76 159.55,118.79 159.67,118.86" fill="currentColor" stroke="currentColor" stroke-width="1.2" stroke-linecap="round" stroke-linejoin="round" />
  <path d="M158.86,118.86 C158.98,118.79 159.11,118.76 159.26,118.75" fill="currentColor" stroke="currentColor" stroke-width="1.2" stroke-linecap="round" stroke-linejoin="round" />
  <path d="M148.35,119.41 C148.19,119.15 147.96,118.96 147.68,118.82" fill="currentColor" stroke="currentColor" stroke-width="1.2" stroke-linecap="round" stroke-linejoin="round" />
  <path d="M153.38,119.53 C153.19,119.23 152.97,119.00 152.71,118.84" fill="currentColor" stroke="currentColor" stroke-width="1.2" stroke-linecap="round" stroke-linejoin="round" />
  <path d="M150.97,118.84 C150.71,119.00 150.49,119.23 150.30,119.53" fill="currentColor" stroke="currentColor" stroke-width="1.2" stroke-linecap="round" stroke-linejoin="round" />
  <path d="M159.67,118.86 C159.79,118.93 159.88,119.02 159.95,119.14" fill="currentColor" stroke="currentColor" stroke-width="1.2" stroke-linecap="round" stroke-linejoin="round" />
  <path d="M158.58,119.14 C158.65,119.02 158.74,118.93 158.86,118.86" fill="currentColor" stroke="currentColor" stroke-width="1.2" stroke-linecap="round" stroke-linejoin="round" />
  <line x1="145.39" y1="118.88" x2="145.39" y2="119.78" fill="currentColor" stroke="currentColor" stroke-width="1.2" stroke-linecap="round" stroke-linejoin="round" />
  <path d="M158.14,118.89 C158.02,119.08 157.96,119.30 157.96,119.55" fill="currentColor" stroke="currentColor" stroke-width="1.2" stroke-linecap="round" stroke-linejoin="round" />
  <path d="M160.56,119.55 C160.56,119.30 160.50,119.08 160.39,118.89" fill="currentColor" stroke="currentColor" stroke-width="1.2" stroke-linecap="round" stroke-linejoin="round" />
  <path d="M159.95,119.14 C160.03,119.26 160.06,119.40 160.06,119.55" fill="currentColor" stroke="currentColor" stroke-width="1.2" stroke-linecap="round" stroke-linejoin="round" />
  <path d="M158.47,119.55 C158.47,119.40 158.51,119.26 158.58,119.14" fill="currentColor" stroke="currentColor" stroke-width="1.2" stroke-linecap="round" stroke-linejoin="round" />
  <path d="M148.59,120.32 C148.59,119.97 148.51,119.67 148.35,119.41" fill="currentColor" stroke="currentColor" stroke-width="1.2" stroke-linecap="round" stroke-linejoin="round" />
  <path d="M146.16,119.52 C146.27,119.51 146.39,119.50 146.51,119.50" fill="currentColor" stroke="currentColor" stroke-width="1.2" stroke-linecap="round" stroke-linejoin="round" />
  <path d="M146.51,119.50 C146.74,119.50 146.94,119.54 147.11,119.62" fill="currentColor" stroke="currentColor" stroke-width="1.2" stroke-linecap="round" stroke-linejoin="round" />
  <path d="M151.21,119.80 C151.38,119.60 151.59,119.50 151.84,119.50" fill="currentColor" stroke="currentColor" stroke-width="1.2" stroke-linecap="round" stroke-linejoin="round" />
  <path d="M151.84,119.50 C152.08,119.50 152.29,119.60 152.47,119.80" fill="currentColor" stroke="currentColor" stroke-width="1.2" stroke-linecap="round" stroke-linejoin="round" />
  <path d="M128.10,119.52 C127.87,119.87 127.68,120.23 127.51,120.62" fill="currentColor" stroke="currentColor" stroke-width="1.2" stroke-linecap="round" stroke-linejoin="round" />
  <path d="M156.24,120.62 C156.08,120.23 155.88,119.87 155.65,119.52" fill="currentColor" stroke="currentColor" stroke-width="1.2" stroke-linecap="round" stroke-linejoin="round" />
  <path d="M145.80,119.62 C145.92,119.57 146.04,119.55 146.16,119.52" fill="currentColor" stroke="currentColor" stroke-width="1.2" stroke-linecap="round" stroke-linejoin="round" />
  <path d="M153.81,120.59 C153.70,120.18 153.56,119.83 153.38,119.53" fill="currentColor" stroke="currentColor" stroke-width="1.2" stroke-linecap="round" stroke-linejoin="round" />
  <path d="M150.30,119.53 C150.11,119.83 149.97,120.18 149.87,120.59" fill="currentColor" stroke="currentColor" stroke-width="1.2" stroke-linecap="round" stroke-linejoin="round" />
  <path d="M160.06,119.55 C160.06,119.70 160.03,119.83 159.95,119.95" fill="currentColor" stroke="currentColor" stroke-width="1.2" stroke-linecap="round" stroke-linejoin="round" />
  <path d="M158.58,119.95 C158.51,119.83 158.47,119.70 158.47,119.55" fill="currentColor" stroke="currentColor" stroke-width="1.2" stroke-linecap="round" stroke-linejoin="round" />
  <path d="M157.96,119.55 C157.96,119.79 158.02,120.01 158.14,120.20" fill="currentColor" stroke="currentColor" stroke-width="1.2" stroke-linecap="round" stroke-linejoin="round" />
  <path d="M160.39,120.20 C160.50,120.01 160.56,119.79 160.56,119.55" fill="currentColor" stroke="currentColor" stroke-width="1.2" stroke-linecap="round" stroke-linejoin="round" />
  <line x1="138.72" y1="119.58" x2="138.72" y2="121.46" fill="currentColor" stroke="currentColor" stroke-width="1.2" stroke-linecap="round" stroke-linejoin="round" />
  <line x1="139.51" y1="121.46" x2="139.51" y2="119.58" fill="currentColor" stroke="currentColor" stroke-width="1.2" stroke-linecap="round" stroke-linejoin="round" />
  <line x1="139.51" y1="119.58" x2="138.72" y2="119.58" fill="currentColor" stroke="currentColor" stroke-width="1.2" stroke-linecap="round" stroke-linejoin="round" />
  <path d="M145.39,119.78 C145.54,119.71 145.67,119.66 145.80,119.62" fill="currentColor" stroke="currentColor" stroke-width="1.2" stroke-linecap="round" stroke-linejoin="round" />
  <path d="M147.11,119.62 C147.28,119.70 147.41,119.81 147.50,119.96" fill="currentColor" stroke="currentColor" stroke-width="1.2" stroke-linecap="round" stroke-linejoin="round" />
  <path d="M150.80,120.65 C150.90,120.28 151.03,120.00 151.21,119.80" fill="currentColor" stroke="currentColor" stroke-width="1.2" stroke-linecap="round" stroke-linejoin="round" />
  <path d="M152.47,119.80 C152.64,120.00 152.78,120.28 152.87,120.65" fill="currentColor" stroke="currentColor" stroke-width="1.2" stroke-linecap="round" stroke-linejoin="round" />
  <line x1="28.25" y1="130.03" x2="28.25" y2="119.85" fill="none" stroke="currentColor" stroke-width="1.0119999766349792" stroke-linecap="round" stroke-linejoin="round" />
  <line x1="28.25" y1="119.85" x2="18.27" y2="119.85" fill="none" stroke="currentColor" stroke-width="1.0119999766349792" stroke-linecap="round" stroke-linejoin="round" />
  <path d="M159.95,119.95 C159.88,120.07 159.79,120.17 159.67,120.24" fill="currentColor" stroke="currentColor" stroke-width="1.2" stroke-linecap="round" stroke-linejoin="round" />
  <path d="M158.86,120.24 C158.74,120.17 158.65,120.07 158.58,119.95" fill="currentColor" stroke="currentColor" stroke-width="1.2" stroke-linecap="round" stroke-linejoin="round" />
  <path d="M147.50,119.96 C147.60,120.10 147.64,120.28 147.64,120.48" fill="currentColor" stroke="currentColor" stroke-width="1.2" stroke-linecap="round" stroke-linejoin="round" />
  <path d="M158.14,120.20 C158.25,120.40 158.41,120.56 158.60,120.67" fill="currentColor" stroke="currentColor" stroke-width="1.2" stroke-linecap="round" stroke-linejoin="round" />
  <path d="M159.92,120.67 C160.12,120.56 160.27,120.40 160.39,120.20" fill="currentColor" stroke="currentColor" stroke-width="1.2" stroke-linecap="round" stroke-linejoin="round" />
  <path d="M159.67,120.24 C159.55,120.31 159.41,120.34 159.26,120.35" fill="currentColor" stroke="currentColor" stroke-width="1.2" stroke-linecap="round" stroke-linejoin="round" />
  <path d="M159.26,120.35 C159.11,120.34 158.98,120.31 158.86,120.24" fill="currentColor" stroke="currentColor" stroke-width="1.2" stroke-linecap="round" stroke-linejoin="round" />
  <path d="M148.50,120.95 C148.56,120.77 148.59,120.56 148.59,120.32" fill="currentColor" stroke="currentColor" stroke-width="1.2" stroke-linecap="round" stroke-linejoin="round" />
  <path d="M147.64,120.48 C147.64,120.78 147.54,121.02 147.32,121.18" fill="currentColor" stroke="currentColor" stroke-width="1.2" stroke-linecap="round" stroke-linejoin="round" />
  <path d="M153.96,121.98 C153.96,121.47 153.91,121.01 153.81,120.59" fill="currentColor" stroke="currentColor" stroke-width="1.2" stroke-linecap="round" stroke-linejoin="round" />
  <path d="M149.87,120.59 C149.77,121.01 149.72,121.47 149.72,121.98" fill="currentColor" stroke="currentColor" stroke-width="1.2" stroke-linecap="round" stroke-linejoin="round" />
  <path d="M128.00,123.03 C128.00,122.16 128.12,121.35 128.35,120.61" fill="currentColor" stroke="currentColor" stroke-width="1.2" stroke-linecap="round" stroke-linejoin="round" />
  <path d="M155.41,120.61 C155.64,121.35 155.75,122.16 155.75,123.03" fill="currentColor" stroke="currentColor" stroke-width="1.2" stroke-linecap="round" stroke-linejoin="round" />
  <path d="M127.51,120.62 C127.35,121.01 127.23,121.40 127.14,121.81" fill="currentColor" stroke="currentColor" stroke-width="1.2" stroke-linecap="round" stroke-linejoin="round" />
  <path d="M156.61,121.81 C156.53,121.40 156.40,121.01 156.24,120.62" fill="currentColor" stroke="currentColor" stroke-width="1.2" stroke-linecap="round" stroke-linejoin="round" />
  <path d="M150.66,121.98 C150.66,121.46 150.71,121.02 150.80,120.65" fill="currentColor" stroke="currentColor" stroke-width="1.2" stroke-linecap="round" stroke-linejoin="round" />
  <path d="M152.87,120.65 C152.97,121.02 153.01,121.46 153.01,121.98" fill="currentColor" stroke="currentColor" stroke-width="1.2" stroke-linecap="round" stroke-linejoin="round" />
  <path d="M158.60,120.67 C158.80,120.79 159.02,120.84 159.26,120.85" fill="currentColor" stroke="currentColor" stroke-width="1.2" stroke-linecap="round" stroke-linejoin="round" />
  <path d="M159.26,120.85 C159.51,120.84 159.73,120.79 159.92,120.67" fill="currentColor" stroke="currentColor" stroke-width="1.2" stroke-linecap="round" stroke-linejoin="round" />
  <path d="M165.78,130.23 C165.78,126.78 166.87,123.44 168.84,120.68" fill="none" stroke="currentColor" stroke-width="1.1639999866485595" stroke-linecap="round" stroke-linejoin="round" />
  <line x1="133.78" y1="120.93" x2="132.77" y2="120.93" fill="currentColor" stroke="currentColor" stroke-width="1.2" stroke-linecap="round" stroke-linejoin="round" />
  <line x1="132.77" y1="120.93" x2="131.64" y2="122.39" fill="currentColor" stroke="currentColor" stroke-width="1.2" stroke-linecap="round" stroke-linejoin="round" />
  <line x1="131.64" y1="122.39" x2="130.95" y2="120.93" fill="currentColor" stroke="currentColor" stroke-width="1.2" stroke-linecap="round" stroke-linejoin="round" />
  <line x1="130.95" y1="120.93" x2="130.08" y2="120.93" fill="currentColor" stroke="currentColor" stroke-width="1.2" stroke-linecap="round" stroke-linejoin="round" />
  <line x1="130.08" y1="120.93" x2="131.10" y2="122.97" fill="currentColor" stroke="currentColor" stroke-width="1.2" stroke-linecap="round" stroke-linejoin="round" />
  <line x1="132.03" y1="123.07" x2="133.78" y2="120.93" fill="currentColor" stroke="currentColor" stroke-width="1.2" stroke-linecap="round" stroke-linejoin="round" />
  <path d="M148.23,121.43 C148.36,121.29 148.45,121.13 148.50,120.95" fill="currentColor" stroke="currentColor" stroke-width="1.2" stroke-linecap="round" stroke-linejoin="round" />
  <path d="M147.32,121.18 C147.10,121.35 146.78,121.43 146.34,121.44" fill="currentColor" stroke="currentColor" stroke-width="1.2" stroke-linecap="round" stroke-linejoin="round" />
  <path d="M147.75,121.79 C147.95,121.68 148.11,121.56 148.23,121.43" fill="currentColor" stroke="currentColor" stroke-width="1.2" stroke-linecap="round" stroke-linejoin="round" />
  <line x1="146.34" y1="121.44" x2="146.34" y2="122.30" fill="currentColor" stroke="currentColor" stroke-width="1.2" stroke-linecap="round" stroke-linejoin="round" />
  <line x1="138.72" y1="121.46" x2="136.84" y2="121.46" fill="currentColor" stroke="currentColor" stroke-width="1.2" stroke-linecap="round" stroke-linejoin="round" />
  <line x1="136.84" y1="121.46" x2="136.84" y2="122.25" fill="currentColor" stroke="currentColor" stroke-width="1.2" stroke-linecap="round" stroke-linejoin="round" />
  <line x1="141.39" y1="122.25" x2="141.39" y2="121.46" fill="currentColor" stroke="currentColor" stroke-width="1.2" stroke-linecap="round" stroke-linejoin="round" />
  <line x1="141.39" y1="121.46" x2="139.51" y2="121.46" fill="currentColor" stroke="currentColor" stroke-width="1.2" stroke-linecap="round" stroke-linejoin="round" />
  <path d="M148.29,122.14 C148.15,121.98 147.97,121.86 147.75,121.79" fill="currentColor" stroke="currentColor" stroke-width="1.2" stroke-linecap="round" stroke-linejoin="round" />
  <path d="M127.14,121.81 C127.05,122.21 127.01,122.62 127.01,123.03" fill="currentColor" stroke="currentColor" stroke-width="1.2" stroke-linecap="round" stroke-linejoin="round" />
  <path d="M156.74,123.03 C156.74,122.62 156.70,122.21 156.61,121.81" fill="currentColor" stroke="currentColor" stroke-width="1.2" stroke-linecap="round" stroke-linejoin="round" />
  <path d="M149.72,121.98 C149.72,122.48 149.77,122.94 149.87,123.36" fill="currentColor" stroke="currentColor" stroke-width="1.2" stroke-linecap="round" stroke-linejoin="round" />
  <path d="M153.81,123.36 C153.91,122.94 153.96,122.48 153.96,121.98" fill="currentColor" stroke="currentColor" stroke-width="1.2" stroke-linecap="round" stroke-linejoin="round" />
  <path d="M153.01,121.98 C153.01,122.49 152.97,122.93 152.87,123.30" fill="currentColor" stroke="currentColor" stroke-width="1.2" stroke-linecap="round" stroke-linejoin="round" />
  <path d="M150.80,123.30 C150.71,122.93 150.66,122.49 150.66,121.98" fill="currentColor" stroke="currentColor" stroke-width="1.2" stroke-linecap="round" stroke-linejoin="round" />
  <path d="M148.59,122.69 C148.53,122.48 148.42,122.30 148.29,122.14" fill="currentColor" stroke="currentColor" stroke-width="1.2" stroke-linecap="round" stroke-linejoin="round" />
  <line x1="136.84" y1="122.25" x2="138.72" y2="122.25" fill="currentColor" stroke="currentColor" stroke-width="1.2" stroke-linecap="round" stroke-linejoin="round" />
  <line x1="138.72" y1="122.25" x2="138.72" y2="124.13" fill="currentColor" stroke="currentColor" stroke-width="1.2" stroke-linecap="round" stroke-linejoin="round" />
  <line x1="139.51" y1="124.13" x2="139.51" y2="122.25" fill="currentColor" stroke="currentColor" stroke-width="1.2" stroke-linecap="round" stroke-linejoin="round" />
  <line x1="139.51" y1="122.25" x2="141.39" y2="122.25" fill="currentColor" stroke="currentColor" stroke-width="1.2" stroke-linecap="round" stroke-linejoin="round" />
  <path d="M146.34,122.30 C146.65,122.29 146.91,122.33 147.12,122.42" fill="currentColor" stroke="currentColor" stroke-width="1.2" stroke-linecap="round" stroke-linejoin="round" />
  <path d="M147.12,122.42 C147.33,122.52 147.49,122.65 147.59,122.82" fill="currentColor" stroke="currentColor" stroke-width="1.2" stroke-linecap="round" stroke-linejoin="round" />
  <path d="M148.69,123.35 C148.69,123.13 148.66,122.91 148.59,122.69" fill="currentColor" stroke="currentColor" stroke-width="1.2" stroke-linecap="round" stroke-linejoin="round" />
  <path d="M147.59,122.82 C147.70,122.99 147.75,123.18 147.75,123.40" fill="currentColor" stroke="currentColor" stroke-width="1.2" stroke-linecap="round" stroke-linejoin="round" />
  <line x1="131.10" y1="122.97" x2="129.21" y2="125.26" fill="currentColor" stroke="currentColor" stroke-width="1.2" stroke-linecap="round" stroke-linejoin="round" />
  <path d="M127.01,123.03 C127.01,123.43 127.05,123.84 127.14,124.25" fill="currentColor" stroke="currentColor" stroke-width="1.2" stroke-linecap="round" stroke-linejoin="round" />
  <path d="M128.35,125.44 C128.12,124.70 128.00,123.90 128.00,123.03" fill="currentColor" stroke="currentColor" stroke-width="1.2" stroke-linecap="round" stroke-linejoin="round" />
  <path d="M155.75,123.03 C155.75,123.90 155.64,124.70 155.41,125.44" fill="currentColor" stroke="currentColor" stroke-width="1.2" stroke-linecap="round" stroke-linejoin="round" />
  <path d="M156.61,124.25 C156.70,123.84 156.74,123.43 156.74,123.03" fill="currentColor" stroke="currentColor" stroke-width="1.2" stroke-linecap="round" stroke-linejoin="round" />
  <line x1="133.13" y1="125.26" x2="132.03" y2="123.07" fill="currentColor" stroke="currentColor" stroke-width="1.2" stroke-linecap="round" stroke-linejoin="round" />
  <path d="M152.87,123.30 C152.78,123.67 152.64,123.96 152.47,124.15" fill="currentColor" stroke="currentColor" stroke-width="1.2" stroke-linecap="round" stroke-linejoin="round" />
  <path d="M151.21,124.15 C151.03,123.96 150.90,123.67 150.80,123.30" fill="currentColor" stroke="currentColor" stroke-width="1.2" stroke-linecap="round" stroke-linejoin="round" />
  <path d="M148.43,124.39 C148.60,124.10 148.69,123.75 148.69,123.35" fill="currentColor" stroke="currentColor" stroke-width="1.2" stroke-linecap="round" stroke-linejoin="round" />
  <path d="M149.87,123.36 C149.97,123.77 150.11,124.12 150.30,124.42" fill="currentColor" stroke="currentColor" stroke-width="1.2" stroke-linecap="round" stroke-linejoin="round" />
  <path d="M153.38,124.42 C153.56,124.12 153.70,123.77 153.81,123.36" fill="currentColor" stroke="currentColor" stroke-width="1.2" stroke-linecap="round" stroke-linejoin="round" />
  <path d="M147.75,123.40 C147.75,123.62 147.70,123.80 147.62,123.96" fill="currentColor" stroke="currentColor" stroke-width="1.2" stroke-linecap="round" stroke-linejoin="round" />
  <line x1="130.21" y1="125.26" x2="131.47" y2="123.64" fill="currentColor" stroke="currentColor" stroke-width="1.2" stroke-linecap="round" stroke-linejoin="round" />
  <line x1="131.47" y1="123.64" x2="132.26" y2="125.26" fill="currentColor" stroke="currentColor" stroke-width="1.2" stroke-linecap="round" stroke-linejoin="round" />
  <path d="M145.96,124.33 C145.72,124.25 145.47,124.12 145.22,123.95" fill="currentColor" stroke="currentColor" stroke-width="1.2" stroke-linecap="round" stroke-linejoin="round" />
  <line x1="145.22" y1="123.95" x2="145.22" y2="124.97" fill="currentColor" stroke="currentColor" stroke-width="1.2" stroke-linecap="round" stroke-linejoin="round" />
  <path d="M147.62,123.96 C147.53,124.11 147.41,124.24 147.25,124.32" fill="currentColor" stroke="currentColor" stroke-width="1.2" stroke-linecap="round" stroke-linejoin="round" />
  <line x1="138.72" y1="124.13" x2="139.51" y2="124.13" fill="currentColor" stroke="currentColor" stroke-width="1.2" stroke-linecap="round" stroke-linejoin="round" />
  <path d="M152.47,124.15 C152.29,124.35 152.08,124.45 151.84,124.45" fill="currentColor" stroke="currentColor" stroke-width="1.2" stroke-linecap="round" stroke-linejoin="round" />
  <path d="M151.84,124.45 C151.59,124.45 151.38,124.35 151.21,124.15" fill="currentColor" stroke="currentColor" stroke-width="1.2" stroke-linecap="round" stroke-linejoin="round" />
  <path d="M127.14,124.25 C127.23,124.65 127.35,125.05 127.51,125.43" fill="currentColor" stroke="currentColor" stroke-width="1.2" stroke-linecap="round" stroke-linejoin="round" />
  <path d="M156.24,125.43 C156.40,125.05 156.53,124.65 156.61,124.25" fill="currentColor" stroke="currentColor" stroke-width="1.2" stroke-linecap="round" stroke-linejoin="round" />
  <path d="M147.25,124.32 C147.09,124.41 146.91,124.45 146.69,124.45" fill="currentColor" stroke="currentColor" stroke-width="1.2" stroke-linecap="round" stroke-linejoin="round" />
  <path d="M146.69,124.45 C146.45,124.45 146.21,124.41 145.96,124.33" fill="currentColor" stroke="currentColor" stroke-width="1.2" stroke-linecap="round" stroke-linejoin="round" />
  <path d="M147.70,125.09 C148.01,124.93 148.25,124.69 148.43,124.39" fill="currentColor" stroke="currentColor" stroke-width="1.2" stroke-linecap="round" stroke-linejoin="round" />
  <path d="M150.30,124.42 C150.49,124.72 150.71,124.95 150.97,125.11" fill="currentColor" stroke="currentColor" stroke-width="1.2" stroke-linecap="round" stroke-linejoin="round" />
  <path d="M152.71,125.11 C152.97,124.95 153.19,124.72 153.38,124.42" fill="currentColor" stroke="currentColor" stroke-width="1.2" stroke-linecap="round" stroke-linejoin="round" />
  <path d="M145.22,124.97 C145.46,125.09 145.70,125.19 145.93,125.25" fill="currentColor" stroke="currentColor" stroke-width="1.2" stroke-linecap="round" stroke-linejoin="round" />
  <path d="M146.62,125.35 C147.03,125.35 147.39,125.26 147.70,125.09" fill="currentColor" stroke="currentColor" stroke-width="1.2" stroke-linecap="round" stroke-linejoin="round" />
  <path d="M150.97,125.11 C151.23,125.27 151.52,125.35 151.84,125.35" fill="currentColor" stroke="currentColor" stroke-width="1.2" stroke-linecap="round" stroke-linejoin="round" />
  <path d="M151.84,125.35 C152.16,125.35 152.45,125.27 152.71,125.11" fill="currentColor" stroke="currentColor" stroke-width="1.2" stroke-linecap="round" stroke-linejoin="round" />
  <path d="M145.93,125.25 C146.16,125.32 146.39,125.35 146.62,125.35" fill="currentColor" stroke="currentColor" stroke-width="1.2" stroke-linecap="round" stroke-linejoin="round" />
  <line x1="129.21" y1="125.26" x2="130.21" y2="125.26" fill="currentColor" stroke="currentColor" stroke-width="1.2" stroke-linecap="round" stroke-linejoin="round" />
  <line x1="132.26" y1="125.26" x2="133.13" y2="125.26" fill="currentColor" stroke="currentColor" stroke-width="1.2" stroke-linecap="round" stroke-linejoin="round" />
  <path d="M127.51,125.43 C127.68,125.82 127.87,126.18 128.10,126.53" fill="currentColor" stroke="currentColor" stroke-width="1.2" stroke-linecap="round" stroke-linejoin="round" />
  <path d="M155.65,126.53 C155.88,126.18 156.08,125.82 156.24,125.43" fill="currentColor" stroke="currentColor" stroke-width="1.2" stroke-linecap="round" stroke-linejoin="round" />
  <path d="M129.39,127.48 C128.92,126.86 128.57,126.18 128.35,125.44" fill="currentColor" stroke="currentColor" stroke-width="1.2" stroke-linecap="round" stroke-linejoin="round" />
  <path d="M155.41,125.44 C155.18,126.18 154.83,126.86 154.36,127.48" fill="currentColor" stroke="currentColor" stroke-width="1.2" stroke-linecap="round" stroke-linejoin="round" />
  <path d="M128.10,126.53 C128.33,126.88 128.59,127.19 128.88,127.48" fill="currentColor" stroke="currentColor" stroke-width="1.2" stroke-linecap="round" stroke-linejoin="round" />
  <path d="M154.87,127.48 C155.16,127.19 155.42,126.88 155.65,126.53" fill="currentColor" stroke="currentColor" stroke-width="1.2" stroke-linecap="round" stroke-linejoin="round" />
  <line x1="128.88" y1="127.48" x2="129.39" y2="127.48" fill="currentColor" stroke="currentColor" stroke-width="1.2" stroke-linecap="round" stroke-linejoin="round" />
  <line x1="154.36" y1="127.48" x2="154.87" y2="127.48" fill="currentColor" stroke="currentColor" stroke-width="1.2" stroke-linecap="round" stroke-linejoin="round" />
  <line x1="12.19" y1="127.71" x2="11.39" y2="127.71" fill="currentColor" stroke="currentColor" stroke-width="1.2" stroke-linecap="round" stroke-linejoin="round" />
  <line x1="11.39" y1="127.71" x2="8.00" y2="135.65" fill="currentColor" stroke="currentColor" stroke-width="1.2" stroke-linecap="round" stroke-linejoin="round" />
  <line x1="15.72" y1="135.65" x2="12.19" y2="127.71" fill="currentColor" stroke="currentColor" stroke-width="1.2" stroke-linecap="round" stroke-linejoin="round" />
  <path d="M190.29,127.93 C189.99,127.82 189.62,127.76 189.20,127.76" fill="currentColor" stroke="currentColor" stroke-width="1.2" stroke-linecap="round" stroke-linejoin="round" />
  <line x1="189.20" y1="127.76" x2="186.91" y2="127.76" fill="currentColor" stroke="currentColor" stroke-width="1.2" stroke-linecap="round" stroke-linejoin="round" />
  <line x1="186.91" y1="127.76" x2="186.91" y2="135.65" fill="currentColor" stroke="currentColor" stroke-width="1.2" stroke-linecap="round" stroke-linejoin="round" />
  <path d="M191.05,128.39 C190.85,128.20 190.60,128.05 190.29,127.93" fill="currentColor" stroke="currentColor" stroke-width="1.2" stroke-linecap="round" stroke-linejoin="round" />
  <path d="M191.49,129.04 C191.39,128.80 191.25,128.59 191.05,128.39" fill="currentColor" stroke="currentColor" stroke-width="1.2" stroke-linecap="round" stroke-linejoin="round" />
  <line x1="188.04" y1="128.78" x2="189.08" y2="128.78" fill="currentColor" stroke="currentColor" stroke-width="1.2" stroke-linecap="round" stroke-linejoin="round" />
  <path d="M189.08,128.78 C189.43,128.78 189.70,128.83 189.90,128.93" fill="currentColor" stroke="currentColor" stroke-width="1.2" stroke-linecap="round" stroke-linejoin="round" />
  <line x1="188.04" y1="131.14" x2="188.04" y2="128.78" fill="currentColor" stroke="currentColor" stroke-width="1.2" stroke-linecap="round" stroke-linejoin="round" />
  <path d="M189.90,128.93 C190.10,129.03 190.25,129.16 190.33,129.33" fill="currentColor" stroke="currentColor" stroke-width="1.2" stroke-linecap="round" stroke-linejoin="round" />
  <path d="M191.63,129.77 C191.63,129.52 191.58,129.28 191.49,129.04" fill="currentColor" stroke="currentColor" stroke-width="1.2" stroke-linecap="round" stroke-linejoin="round" />
  <path d="M190.33,129.33 C190.42,129.49 190.46,129.68 190.46,129.88" fill="currentColor" stroke="currentColor" stroke-width="1.2" stroke-linecap="round" stroke-linejoin="round" />
  <line x1="11.77" y1="129.45" x2="13.04" y2="132.30" fill="currentColor" stroke="currentColor" stroke-width="1.2" stroke-linecap="round" stroke-linejoin="round" />
  <line x1="10.59" y1="132.30" x2="11.77" y2="129.45" fill="currentColor" stroke="currentColor" stroke-width="1.2" stroke-linecap="round" stroke-linejoin="round" />
  <path d="M191.33,130.80 C191.53,130.52 191.63,130.18 191.63,129.77" fill="currentColor" stroke="currentColor" stroke-width="1.2" stroke-linecap="round" stroke-linejoin="round" />
  <path d="M190.46,129.88 C190.46,130.30 190.32,130.61 190.05,130.82" fill="currentColor" stroke="currentColor" stroke-width="1.2" stroke-linecap="round" stroke-linejoin="round" />
  <line x1="18.10" y1="130.19" x2="182.93" y2="130.19" fill="none" stroke="currentColor" stroke-width="1.6" stroke-linecap="round" stroke-linejoin="round" />
  <path d="M190.42,131.46 C190.83,131.30 191.14,131.08 191.33,130.80" fill="currentColor" stroke="currentColor" stroke-width="1.2" stroke-linecap="round" stroke-linejoin="round" />
  <path d="M190.05,130.82 C189.77,131.03 189.35,131.14 188.79,131.14" fill="currentColor" stroke="currentColor" stroke-width="1.2" stroke-linecap="round" stroke-linejoin="round" />
  <line x1="188.79" y1="131.14" x2="188.04" y2="131.14" fill="currentColor" stroke="currentColor" stroke-width="1.2" stroke-linecap="round" stroke-linejoin="round" />
  <line x1="190.42" y1="131.48" x2="190.42" y2="131.46" fill="currentColor" stroke="currentColor" stroke-width="1.2" stroke-linecap="round" stroke-linejoin="round" />
  <path d="M191.44,131.88 C191.16,131.69 190.82,131.56 190.42,131.48" fill="currentColor" stroke="currentColor" stroke-width="1.2" stroke-linecap="round" stroke-linejoin="round" />
  <path d="M192.09,132.59 C191.94,132.30 191.72,132.07 191.44,131.88" fill="currentColor" stroke="currentColor" stroke-width="1.2" stroke-linecap="round" stroke-linejoin="round" />
  <line x1="188.04" y1="132.15" x2="189.41" y2="132.15" fill="currentColor" stroke="currentColor" stroke-width="1.2" stroke-linecap="round" stroke-linejoin="round" />
  <path d="M189.41,132.15 C189.80,132.16 190.13,132.21 190.39,132.31" fill="currentColor" stroke="currentColor" stroke-width="1.2" stroke-linecap="round" stroke-linejoin="round" />
  <line x1="188.04" y1="134.63" x2="188.04" y2="132.15" fill="currentColor" stroke="currentColor" stroke-width="1.2" stroke-linecap="round" stroke-linejoin="round" />
  <line x1="13.04" y1="132.30" x2="10.59" y2="132.30" fill="currentColor" stroke="currentColor" stroke-width="1.2" stroke-linecap="round" stroke-linejoin="round" />
  <path d="M190.39,132.31 C190.64,132.42 190.84,132.56 190.96,132.74" fill="currentColor" stroke="currentColor" stroke-width="1.2" stroke-linecap="round" stroke-linejoin="round" />
  <path d="M192.32,133.54 C192.32,133.19 192.24,132.87 192.09,132.59" fill="currentColor" stroke="currentColor" stroke-width="1.2" stroke-linecap="round" stroke-linejoin="round" />
  <path d="M190.96,132.74 C191.09,132.93 191.15,133.14 191.15,133.38" fill="currentColor" stroke="currentColor" stroke-width="1.2" stroke-linecap="round" stroke-linejoin="round" />
  <line x1="9.16" y1="135.65" x2="10.15" y2="133.32" fill="currentColor" stroke="currentColor" stroke-width="1.2" stroke-linecap="round" stroke-linejoin="round" />
  <line x1="10.15" y1="133.32" x2="13.51" y2="133.32" fill="currentColor" stroke="currentColor" stroke-width="1.2" stroke-linecap="round" stroke-linejoin="round" />
  <line x1="13.51" y1="133.32" x2="14.56" y2="135.65" fill="currentColor" stroke="currentColor" stroke-width="1.2" stroke-linecap="round" stroke-linejoin="round" />
  <path d="M191.15,133.38 C191.15,133.58 191.11,133.78 191.01,133.97" fill="currentColor" stroke="currentColor" stroke-width="1.2" stroke-linecap="round" stroke-linejoin="round" />
  <path d="M192.17,134.28 C192.27,134.04 192.32,133.79 192.32,133.54" fill="currentColor" stroke="currentColor" stroke-width="1.2" stroke-linecap="round" stroke-linejoin="round" />
  <path d="M191.01,133.97 C190.91,134.16 190.74,134.32 190.49,134.44" fill="currentColor" stroke="currentColor" stroke-width="1.2" stroke-linecap="round" stroke-linejoin="round" />
  <path d="M191.71,134.96 C191.92,134.75 192.08,134.53 192.17,134.28" fill="currentColor" stroke="currentColor" stroke-width="1.2" stroke-linecap="round" stroke-linejoin="round" />
  <path d="M190.49,134.44 C190.24,134.56 189.90,134.63 189.46,134.63" fill="currentColor" stroke="currentColor" stroke-width="1.2" stroke-linecap="round" stroke-linejoin="round" />
  <line x1="189.46" y1="134.63" x2="188.04" y2="134.63" fill="currentColor" stroke="currentColor" stroke-width="1.2" stroke-linecap="round" stroke-linejoin="round" />
  <path d="M190.87,135.46 C191.22,135.33 191.49,135.17 191.71,134.96" fill="currentColor" stroke="currentColor" stroke-width="1.2" stroke-linecap="round" stroke-linejoin="round" />
  <path d="M189.61,135.65 C190.11,135.64 190.52,135.58 190.87,135.46" fill="currentColor" stroke="currentColor" stroke-width="1.2" stroke-linecap="round" stroke-linejoin="round" />
  <line x1="186.91" y1="135.65" x2="189.61" y2="135.65" fill="currentColor" stroke="currentColor" stroke-width="1.2" stroke-linecap="round" stroke-linejoin="round" />
  <line x1="8.00" y1="135.65" x2="9.16" y2="135.65" fill="currentColor" stroke="currentColor" stroke-width="1.2" stroke-linecap="round" stroke-linejoin="round" />
  <line x1="14.56" y1="135.65" x2="15.72" y2="135.65" fill="currentColor" stroke="currentColor" stroke-width="1.2" stroke-linecap="round" stroke-linejoin="round" />
</svg>