<svg xmlns="http://www.w3.org/2000/svg" viewBox="0 0 221.09 131.47" preserveAspectRatio="xMidYMid meet" shape-rendering="geometricPrecision" text-rendering="optimizeLegibility">
  <path d="M154.41,8.08 C154.49,8.03 154.56,8.00 154.65,8.00" fill="currentColor" stroke="currentColor" stroke-width="1.2" stroke-linecap="round" stroke-linejoin="round" />
  <line x1="154.65" y1="8.00" x2="156.23" y2="8.00" fill="currentColor" stroke="currentColor" stroke-width="1.2" stroke-linecap="round" stroke-linejoin="round" />
  <path d="M156.23,8.00 C156.64,8.00 156.98,8.04 157.25,8.12" fill="currentColor" stroke="currentColor" stroke-width="1.2" stroke-linecap="round" stroke-linejoin="round" />
  <path d="M154.30,8.38 C154.30,8.24 154.34,8.14 154.41,8.08" fill="currentColor" stroke="currentColor" stroke-width="1.2" stroke-linecap="round" stroke-linejoin="round" />
  <path d="M157.25,8.12 C157.51,8.20 157.73,8.31 157.91,8.46" fill="currentColor" stroke="currentColor" stroke-width="1.2" stroke-linecap="round" stroke-linejoin="round" />
  <line x1="154.30" y1="14.57" x2="154.30" y2="8.38" fill="currentColor" stroke="currentColor" stroke-width="1.2" stroke-linecap="round" stroke-linejoin="round" />
  <path d="M157.91,8.46 C158.09,8.61 158.22,8.80 158.31,9.01" fill="currentColor" stroke="currentColor" stroke-width="1.2" stroke-linecap="round" stroke-linejoin="round" />
  <path d="M156.81,8.83 C156.65,8.78 156.44,8.75 156.17,8.75" fill="currentColor" stroke="currentColor" stroke-width="1.2" stroke-linecap="round" stroke-linejoin="round" />
  <line x1="156.17" y1="8.75" x2="155.22" y2="8.75" fill="currentColor" stroke="currentColor" stroke-width="1.2" stroke-linecap="round" stroke-linejoin="round" />
  <line x1="155.22" y1="8.75" x2="155.22" y2="11.00" fill="currentColor" stroke="currentColor" stroke-width="1.2" stroke-linecap="round" stroke-linejoin="round" />
  <path d="M157.20,9.04 C157.10,8.95 156.97,8.88 156.81,8.83" fill="currentColor" stroke="currentColor" stroke-width="1.2" stroke-linecap="round" stroke-linejoin="round" />
  <path d="M158.31,9.01 C158.40,9.23 158.44,9.48 158.44,9.76" fill="currentColor" stroke="currentColor" stroke-width="1.2" stroke-linecap="round" stroke-linejoin="round" />
  <path d="M157.42,9.39 C157.38,9.25 157.30,9.14 157.20,9.04" fill="currentColor" stroke="currentColor" stroke-width="1.2" stroke-linecap="round" stroke-linejoin="round" />
  <path d="M157.49,9.85 C157.49,9.68 157.47,9.53 157.42,9.39" fill="currentColor" stroke="currentColor" stroke-width="1.2" stroke-linecap="round" stroke-linejoin="round" />
  <path d="M158.44,9.76 C158.44,9.92 158.42,10.08 158.39,10.23" fill="currentColor" stroke="currentColor" stroke-width="1.2" stroke-linecap="round" stroke-linejoin="round" />
  <path d="M157.43,10.29 C157.47,10.14 157.49,10.00 157.49,9.85" fill="currentColor" stroke="currentColor" stroke-width="1.2" stroke-linecap="round" stroke-linejoin="round" />
  <path d="M158.39,10.23 C158.35,10.38 158.29,10.52 158.21,10.65" fill="currentColor" stroke="currentColor" stroke-width="1.2" stroke-linecap="round" stroke-linejoin="round" />
  <path d="M157.21,10.66 C157.31,10.55 157.38,10.43 157.43,10.29" fill="currentColor" stroke="currentColor" stroke-width="1.2" stroke-linecap="round" stroke-linejoin="round" />
  <path d="M158.21,10.65 C158.13,10.77 158.04,10.89 157.92,10.99" fill="currentColor" stroke="currentColor" stroke-width="1.2" stroke-linecap="round" stroke-linejoin="round" />
  <path d="M156.85,10.91 C157.00,10.85 157.12,10.76 157.21,10.66" fill="currentColor" stroke="currentColor" stroke-width="1.2" stroke-linecap="round" stroke-linejoin="round" />
  <path d="M116.65,37.91 C132.81,15.76 163.90,10.89 186.06,27.04" fill="currentColor" stroke="currentColor" stroke-width="1.4000000476837158" stroke-linecap="round" stroke-linejoin="round" />
  <path d="M156.27,11.00 C156.51,11.00 156.70,10.97 156.85,10.91" fill="currentColor" stroke="currentColor" stroke-width="1.2" stroke-linecap="round" stroke-linejoin="round" />
  <path d="M157.92,10.99 C157.81,11.09 157.67,11.17 157.52,11.23" fill="currentColor" stroke="currentColor" stroke-width="1.2" stroke-linecap="round" stroke-linejoin="round" />
  <line x1="155.22" y1="11.00" x2="156.27" y2="11.00" fill="currentColor" stroke="currentColor" stroke-width="1.2" stroke-linecap="round" stroke-linejoin="round" />
  <path d="M157.52,11.23 C157.71,11.27 157.89,11.33 158.05,11.43" fill="currentColor" stroke="currentColor" stroke-width="1.2" stroke-linecap="round" stroke-linejoin="round" />
  <path d="M158.05,11.43 C158.22,11.52 158.36,11.65 158.48,11.79" fill="currentColor" stroke="currentColor" stroke-width="1.2" stroke-linecap="round" stroke-linejoin="round" />
  <path d="M157.05,11.82 C156.85,11.77 156.61,11.74 156.32,11.74" fill="currentColor" stroke="currentColor" stroke-width="1.2" stroke-linecap="round" stroke-linejoin="round" />
  <line x1="156.32" y1="11.74" x2="155.22" y2="11.74" fill="currentColor" stroke="currentColor" stroke-width="1.2" stroke-linecap="round" stroke-linejoin="round" />
  <line x1="155.22" y1="11.74" x2="155.22" y2="14.19" fill="currentColor" stroke="currentColor" stroke-width="1.2" stroke-linecap="round" stroke-linejoin="round" />
  <path d="M158.48,11.79 C158.61,11.94 158.71,12.11 158.78,12.31" fill="currentColor" stroke="currentColor" stroke-width="1.2" stroke-linecap="round" stroke-linejoin="round" />
  <path d="M157.52,12.07 C157.40,11.96 157.24,11.88 157.05,11.82" fill="currentColor" stroke="currentColor" stroke-width="1.2" stroke-linecap="round" stroke-linejoin="round" />
  <path d="M157.81,12.46 C157.75,12.31 157.65,12.17 157.52,12.07" fill="currentColor" stroke="currentColor" stroke-width="1.2" stroke-linecap="round" stroke-linejoin="round" />
  <path d="M158.78,12.31 C158.85,12.50 158.88,12.72 158.88,12.96" fill="currentColor" stroke="currentColor" stroke-width="1.2" stroke-linecap="round" stroke-linejoin="round" />
  <path d="M157.91,13.01 C157.91,12.80 157.88,12.62 157.81,12.46" fill="currentColor" stroke="currentColor" stroke-width="1.2" stroke-linecap="round" stroke-linejoin="round" />
  <path d="M158.88,12.96 C158.88,13.18 158.86,13.38 158.80,13.56" fill="currentColor" stroke="currentColor" stroke-width="1.2" stroke-linecap="round" stroke-linejoin="round" />
  <path d="M157.81,13.52 C157.88,13.38 157.91,13.21 157.91,13.01" fill="currentColor" stroke="currentColor" stroke-width="1.2" stroke-linecap="round" stroke-linejoin="round" />
  <path d="M157.53,13.89 C157.65,13.79 157.74,13.67 157.81,13.52" fill="currentColor" stroke="currentColor" stroke-width="1.2" stroke-linecap="round" stroke-linejoin="round" />
  <path d="M158.80,13.56 C158.75,13.75 158.67,13.91 158.57,14.06" fill="currentColor" stroke="currentColor" stroke-width="1.2" stroke-linecap="round" stroke-linejoin="round" />
  <path d="M157.11,14.11 C157.27,14.06 157.41,13.99 157.53,13.89" fill="currentColor" stroke="currentColor" stroke-width="1.2" stroke-linecap="round" stroke-linejoin="round" />
  <path d="M158.57,14.06 C158.47,14.21 158.35,14.33 158.21,14.44" fill="currentColor" stroke="currentColor" stroke-width="1.2" stroke-linecap="round" stroke-linejoin="round" />
  <path d="M156.56,14.19 C156.77,14.19 156.95,14.16 157.11,14.11" fill="currentColor" stroke="currentColor" stroke-width="1.2" stroke-linecap="round" stroke-linejoin="round" />
  <line x1="155.22" y1="14.19" x2="156.56" y2="14.19" fill="currentColor" stroke="currentColor" stroke-width="1.2" stroke-linecap="round" stroke-linejoin="round" />
  <path d="M158.21,14.44 C158.06,14.56 157.90,14.65 157.73,14.72" fill="currentColor" stroke="currentColor" stroke-width="1.2" stroke-linecap="round" stroke-linejoin="round" />
  <path d="M154.41,14.87 C154.34,14.81 154.30,14.71 154.30,14.57" fill="currentColor" stroke="currentColor" stroke-width="1.2" stroke-linecap="round" stroke-linejoin="round" />
  <path d="M157.73,14.72 C157.55,14.80 157.36,14.86 157.16,14.89" fill="currentColor" stroke="currentColor" stroke-width="1.2" stroke-linecap="round" stroke-linejoin="round" />
  <path d="M154.65,14.95 C154.56,14.95 154.49,14.92 154.41,14.87" fill="currentColor" stroke="currentColor" stroke-width="1.2" stroke-linecap="round" stroke-linejoin="round" />
  <path d="M157.16,14.89 C156.96,14.93 156.72,14.95 156.46,14.95" fill="currentColor" stroke="currentColor" stroke-width="1.2" stroke-linecap="round" stroke-linejoin="round" />
  <line x1="156.46" y1="14.95" x2="154.65" y2="14.95" fill="currentColor" stroke="currentColor" stroke-width="1.2" stroke-linecap="round" stroke-linejoin="round" />
  <path d="M46.79,22.97 C46.86,22.96 46.95,22.96 47.05,22.96" fill="currentColor" stroke="currentColor" stroke-width="1.2" stroke-linecap="round" stroke-linejoin="round" />
  <path d="M47.05,22.96 C47.17,22.96 47.26,22.96 47.34,22.97" fill="currentColor" stroke="currentColor" stroke-width="1.2" stroke-linecap="round" stroke-linejoin="round" />
  <path d="M46.62,22.99 C46.66,22.98 46.72,22.97 46.79,22.97" fill="currentColor" stroke="currentColor" stroke-width="1.2" stroke-linecap="round" stroke-linejoin="round" />
  <path d="M47.34,22.97 C47.41,22.97 47.47,22.98 47.52,22.99" fill="currentColor" stroke="currentColor" stroke-width="1.2" stroke-linecap="round" stroke-linejoin="round" />
  <path d="M46.51,23.05 C46.54,23.03 46.57,23.01 46.62,22.99" fill="currentColor" stroke="currentColor" stroke-width="1.2" stroke-linecap="round" stroke-linejoin="round" />
  <path d="M47.52,22.99 C47.57,23.01 47.60,23.03 47.63,23.06" fill="currentColor" stroke="currentColor" stroke-width="1.2" stroke-linecap="round" stroke-linejoin="round" />
  <path d="M46.46,23.15 C46.47,23.11 46.49,23.08 46.51,23.05" fill="currentColor" stroke="currentColor" stroke-width="1.2" stroke-linecap="round" stroke-linejoin="round" />
  <path d="M47.63,23.06 C47.65,23.08 47.67,23.12 47.69,23.16" fill="currentColor" stroke="currentColor" stroke-width="1.2" stroke-linecap="round" stroke-linejoin="round" />
  <line x1="44.13" y1="29.61" x2="46.46" y2="23.15" fill="currentColor" stroke="currentColor" stroke-width="1.2" stroke-linecap="round" stroke-linejoin="round" />
  <line x1="47.69" y1="23.16" x2="50.02" y2="29.61" fill="currentColor" stroke="currentColor" stroke-width="1.2" stroke-linecap="round" stroke-linejoin="round" />
  <line x1="47.03" y1="23.91" x2="47.02" y2="23.91" fill="currentColor" stroke="currentColor" stroke-width="1.2" stroke-linecap="round" stroke-linejoin="round" />
  <line x1="47.02" y1="23.91" x2="45.82" y2="27.38" fill="currentColor" stroke="currentColor" stroke-width="1.2" stroke-linecap="round" stroke-linejoin="round" />
  <line x1="48.24" y1="27.38" x2="47.03" y2="23.91" fill="currentColor" stroke="currentColor" stroke-width="1.2" stroke-linecap="round" stroke-linejoin="round" />
  <path d="M186.06,27.04 C208.22,43.19 213.09,74.29 196.93,96.45" fill="currentColor" stroke="currentColor" stroke-width="1.4000000476837158" stroke-linecap="round" stroke-linejoin="round" />
  <line x1="45.82" y1="27.38" x2="48.24" y2="27.38" fill="currentColor" stroke="currentColor" stroke-width="1.2" stroke-linecap="round" stroke-linejoin="round" />
  <path d="M19.35,46.61 C30.70,31.04 52.56,27.62 68.13,38.97" fill="currentColor" stroke="currentColor" stroke-width="1.4000000476837158" stroke-linecap="round" stroke-linejoin="round" />
  <line x1="49.08" y1="29.81" x2="48.48" y2="28.11" fill="currentColor" stroke="currentColor" stroke-width="1.2" stroke-linecap="round" stroke-linejoin="round" />
  <line x1="48.48" y1="28.11" x2="45.59" y2="28.11" fill="currentColor" stroke="currentColor" stroke-width="1.2" stroke-linecap="round" stroke-linejoin="round" />
  <line x1="45.59" y1="28.11" x2="45.02" y2="29.78" fill="currentColor" stroke="currentColor" stroke-width="1.2" stroke-linecap="round" stroke-linejoin="round" />
  <path d="M44.08,29.80 C44.08,29.75 44.10,29.69 44.13,29.61" fill="currentColor" stroke="currentColor" stroke-width="1.2" stroke-linecap="round" stroke-linejoin="round" />
  <path d="M50.02,29.61 C50.05,29.69 50.06,29.75 50.06,29.80" fill="currentColor" stroke="currentColor" stroke-width="1.2" stroke-linecap="round" stroke-linejoin="round" />
  <path d="M45.02,29.78 C45.01,29.82 45.00,29.84 44.98,29.87" fill="currentColor" stroke="currentColor" stroke-width="1.2" stroke-linecap="round" stroke-linejoin="round" />
  <path d="M44.12,29.91 C44.09,29.88 44.08,29.85 44.08,29.80" fill="currentColor" stroke="currentColor" stroke-width="1.2" stroke-linecap="round" stroke-linejoin="round" />
  <path d="M50.06,29.80 C50.07,29.85 50.05,29.89 50.02,29.91" fill="currentColor" stroke="currentColor" stroke-width="1.2" stroke-linecap="round" stroke-linejoin="round" />
  <path d="M49.12,29.89 C49.11,29.86 49.09,29.84 49.08,29.81" fill="currentColor" stroke="currentColor" stroke-width="1.2" stroke-linecap="round" stroke-linejoin="round" />
  <path d="M44.98,29.87 C44.96,29.89 44.94,29.91 44.90,29.93" fill="currentColor" stroke="currentColor" stroke-width="1.2" stroke-linecap="round" stroke-linejoin="round" />
  <path d="M49.20,29.94 C49.17,29.92 49.14,29.91 49.12,29.89" fill="currentColor" stroke="currentColor" stroke-width="1.2" stroke-linecap="round" stroke-linejoin="round" />
  <path d="M44.26,29.96 C44.19,29.95 44.15,29.93 44.12,29.91" fill="currentColor" stroke="currentColor" stroke-width="1.2" stroke-linecap="round" stroke-linejoin="round" />
  <path d="M50.02,29.91 C50.00,29.94 49.95,29.95 49.88,29.96" fill="currentColor" stroke="currentColor" stroke-width="1.2" stroke-linecap="round" stroke-linejoin="round" />
  <path d="M44.90,29.93 C44.87,29.94 44.82,29.95 44.76,29.96" fill="currentColor" stroke="currentColor" stroke-width="1.2" stroke-linecap="round" stroke-linejoin="round" />
  <path d="M49.35,29.96 C49.28,29.96 49.23,29.95 49.20,29.94" fill="currentColor" stroke="currentColor" stroke-width="1.2" stroke-linecap="round" stroke-linejoin="round" />
  <path d="M44.51,29.97 C44.41,29.97 44.32,29.97 44.26,29.96" fill="currentColor" stroke="currentColor" stroke-width="1.2" stroke-linecap="round" stroke-linejoin="round" />
  <path d="M49.88,29.96 C49.82,29.97 49.73,29.97 49.62,29.97" fill="currentColor" stroke="currentColor" stroke-width="1.2" stroke-linecap="round" stroke-linejoin="round" />
  <path d="M44.76,29.96 C44.70,29.97 44.61,29.97 44.51,29.97" fill="currentColor" stroke="currentColor" stroke-width="1.2" stroke-linecap="round" stroke-linejoin="round" />
  <path d="M49.62,29.97 C49.50,29.97 49.42,29.97 49.35,29.96" fill="currentColor" stroke="currentColor" stroke-width="1.2" stroke-linecap="round" stroke-linejoin="round" />
  <path d="M127.53,107.32 C105.37,91.16 100.50,60.07 116.65,37.91" fill="currentColor" stroke="currentColor" stroke-width="1.4000000476837158" stroke-linecap="round" stroke-linejoin="round" />
  <path d="M68.13,38.97 C83.70,50.32 87.12,72.18 75.77,87.75" fill="currentColor" stroke="currentColor" stroke-width="1.4000000476837158" stroke-linecap="round" stroke-linejoin="round" />
  <path d="M26.99,95.39 C11.42,84.03 8.00,62.18 19.35,46.61" fill="currentColor" stroke="currentColor" stroke-width="1.4000000476837158" stroke-linecap="round" stroke-linejoin="round" />
  <line x1="12.35" y1="67.18" x2="47.56" y2="67.18" fill="none" stroke="currentColor" stroke-width="1.4000000476837158" stroke-linecap="round" stroke-linejoin="round" />
  <line x1="107.61" y1="67.18" x2="156.78" y2="67.18" fill="none" stroke="currentColor" stroke-width="1.4000000476837158" stroke-linecap="round" stroke-linejoin="round" />
  <path d="M28.27,70.42 C28.46,70.38 28.68,70.35 28.91,70.35" fill="currentColor" stroke="currentColor" stroke-width="1.2" stroke-linecap="round" stroke-linejoin="round" />
  <path d="M28.91,70.35 C29.23,70.35 29.51,70.40 29.76,70.48" fill="currentColor" stroke="currentColor" stroke-width="1.2" stroke-linecap="round" stroke-linejoin="round" />
  <path d="M27.74,70.58 C27.89,70.51 28.07,70.46 28.27,70.42" fill="currentColor" stroke="currentColor" stroke-width="1.2" stroke-linecap="round" stroke-linejoin="round" />
  <path d="M29.76,70.48 C30.00,70.56 30.20,70.68 30.37,70.83" fill="currentColor" stroke="currentColor" stroke-width="1.2" stroke-linecap="round" stroke-linejoin="round" />
  <path d="M27.36,70.77 C27.46,70.70 27.59,70.64 27.74,70.58" fill="currentColor" stroke="currentColor" stroke-width="1.2" stroke-linecap="round" stroke-linejoin="round" />
  <path d="M27.15,70.92 C27.18,70.88 27.25,70.83 27.36,70.77" fill="currentColor" stroke="currentColor" stroke-width="1.2" stroke-linecap="round" stroke-linejoin="round" />
  <path d="M30.37,70.83 C30.53,70.98 30.65,71.16 30.73,71.37" fill="currentColor" stroke="currentColor" stroke-width="1.2" stroke-linecap="round" stroke-linejoin="round" />
  <path d="M27.08,71.00 C27.09,70.98 27.12,70.95 27.15,70.92" fill="currentColor" stroke="currentColor" stroke-width="1.2" stroke-linecap="round" stroke-linejoin="round" />
  <path d="M27.04,71.09 C27.05,71.06 27.06,71.03 27.08,71.00" fill="currentColor" stroke="currentColor" stroke-width="1.2" stroke-linecap="round" stroke-linejoin="round" />
  <path d="M27.02,71.20 C27.02,71.15 27.03,71.12 27.04,71.09" fill="currentColor" stroke="currentColor" stroke-width="1.2" stroke-linecap="round" stroke-linejoin="round" />
  <path d="M29.23,71.20 C29.08,71.15 28.92,71.12 28.73,71.12" fill="currentColor" stroke="currentColor" stroke-width="1.2" stroke-linecap="round" stroke-linejoin="round" />
  <path d="M28.73,71.12 C28.52,71.12 28.33,71.15 28.15,71.21" fill="currentColor" stroke="currentColor" stroke-width="1.2" stroke-linecap="round" stroke-linejoin="round" />
  <path d="M27.01,71.34 C27.01,71.28 27.01,71.24 27.02,71.20" fill="currentColor" stroke="currentColor" stroke-width="1.2" stroke-linecap="round" stroke-linejoin="round" />
  <path d="M29.58,71.43 C29.49,71.33 29.37,71.26 29.23,71.20" fill="currentColor" stroke="currentColor" stroke-width="1.2" stroke-linecap="round" stroke-linejoin="round" />
  <path d="M28.15,71.21 C27.98,71.27 27.82,71.34 27.69,71.41" fill="currentColor" stroke="currentColor" stroke-width="1.2" stroke-linecap="round" stroke-linejoin="round" />
  <path d="M27.02,71.53 C27.01,71.48 27.01,71.42 27.01,71.34" fill="currentColor" stroke="currentColor" stroke-width="1.2" stroke-linecap="round" stroke-linejoin="round" />
  <path d="M30.73,71.37 C30.81,71.58 30.85,71.81 30.85,72.06" fill="currentColor" stroke="currentColor" stroke-width="1.2" stroke-linecap="round" stroke-linejoin="round" />
  <path d="M27.69,71.41 C27.55,71.48 27.44,71.55 27.35,71.61" fill="currentColor" stroke="currentColor" stroke-width="1.2" stroke-linecap="round" stroke-linejoin="round" />
  <path d="M29.79,71.77 C29.75,71.64 29.68,71.53 29.58,71.43" fill="currentColor" stroke="currentColor" stroke-width="1.2" stroke-linecap="round" stroke-linejoin="round" />
  <path d="M27.05,71.64 C27.03,71.61 27.03,71.58 27.02,71.53" fill="currentColor" stroke="currentColor" stroke-width="1.2" stroke-linecap="round" stroke-linejoin="round" />
  <path d="M27.35,71.61 C27.26,71.68 27.20,71.71 27.16,71.71" fill="currentColor" stroke="currentColor" stroke-width="1.2" stroke-linecap="round" stroke-linejoin="round" />
  <path d="M27.10,71.69 C27.08,71.69 27.06,71.67 27.05,71.64" fill="currentColor" stroke="currentColor" stroke-width="1.2" stroke-linecap="round" stroke-linejoin="round" />
  <path d="M27.16,71.71 C27.14,71.71 27.12,71.70 27.10,71.69" fill="currentColor" stroke="currentColor" stroke-width="1.2" stroke-linecap="round" stroke-linejoin="round" />
  <path d="M29.86,72.18 C29.86,72.04 29.84,71.90 29.79,71.77" fill="currentColor" stroke="currentColor" stroke-width="1.2" stroke-linecap="round" stroke-linejoin="round" />
  <path d="M30.85,72.06 C30.85,72.28 30.82,72.48 30.77,72.67" fill="currentColor" stroke="currentColor" stroke-width="1.2" stroke-linecap="round" stroke-linejoin="round" />
  <path d="M29.76,72.72 C29.83,72.56 29.86,72.38 29.86,72.18" fill="currentColor" stroke="currentColor" stroke-width="1.2" stroke-linecap="round" stroke-linejoin="round" />
  <path d="M41.39,72.41 C41.65,72.27 41.91,72.20 42.17,72.20" fill="currentColor" stroke="currentColor" stroke-width="1.2" stroke-linecap="round" stroke-linejoin="round" />
  <path d="M42.17,72.20 C42.37,72.20 42.55,72.22 42.71,72.27" fill="currentColor" stroke="currentColor" stroke-width="1.2" stroke-linecap="round" stroke-linejoin="round" />
  <path d="M44.93,72.25 C45.05,72.21 45.18,72.20 45.31,72.20" fill="currentColor" stroke="currentColor" stroke-width="1.2" stroke-linecap="round" stroke-linejoin="round" />
  <path d="M45.31,72.20 C45.62,72.20 45.88,72.25 46.09,72.36" fill="currentColor" stroke="currentColor" stroke-width="1.2" stroke-linecap="round" stroke-linejoin="round" />
  <path d="M36.18,72.36 C36.45,72.25 36.75,72.20 37.07,72.20" fill="currentColor" stroke="currentColor" stroke-width="1.2" stroke-linecap="round" stroke-linejoin="round" />
  <path d="M37.07,72.20 C37.22,72.20 37.37,72.22 37.52,72.25" fill="currentColor" stroke="currentColor" stroke-width="1.2" stroke-linecap="round" stroke-linejoin="round" />
  <path d="M37.52,72.25 C37.66,72.27 37.79,72.31 37.92,72.36" fill="currentColor" stroke="currentColor" stroke-width="1.2" stroke-linecap="round" stroke-linejoin="round" />
  <path d="M44.53,72.41 C44.67,72.34 44.80,72.28 44.93,72.25" fill="currentColor" stroke="currentColor" stroke-width="1.2" stroke-linecap="round" stroke-linejoin="round" />
  <path d="M42.71,72.27 C42.87,72.31 43.01,72.38 43.13,72.46" fill="currentColor" stroke="currentColor" stroke-width="1.2" stroke-linecap="round" stroke-linejoin="round" />
  <path d="M40.00,72.28 C40.05,72.27 40.12,72.27 40.20,72.27" fill="currentColor" stroke="currentColor" stroke-width="1.2" stroke-linecap="round" stroke-linejoin="round" />
  <path d="M40.20,72.27 C40.28,72.27 40.35,72.27 40.40,72.28" fill="currentColor" stroke="currentColor" stroke-width="1.2" stroke-linecap="round" stroke-linejoin="round" />
  <path d="M39.88,72.31 C39.91,72.30 39.95,72.29 40.00,72.28" fill="currentColor" stroke="currentColor" stroke-width="1.2" stroke-linecap="round" stroke-linejoin="round" />
  <path d="M40.40,72.28 C40.45,72.29 40.49,72.30 40.52,72.31" fill="currentColor" stroke="currentColor" stroke-width="1.2" stroke-linecap="round" stroke-linejoin="round" />
  <path d="M39.82,72.37 C39.83,72.35 39.85,72.33 39.88,72.31" fill="currentColor" stroke="currentColor" stroke-width="1.2" stroke-linecap="round" stroke-linejoin="round" />
  <path d="M40.52,72.31 C40.55,72.33 40.57,72.35 40.58,72.37" fill="currentColor" stroke="currentColor" stroke-width="1.2" stroke-linecap="round" stroke-linejoin="round" />
  <path d="M37.92,72.36 C38.04,72.40 38.15,72.46 38.24,72.52" fill="currentColor" stroke="currentColor" stroke-width="1.2" stroke-linecap="round" stroke-linejoin="round" />
  <path d="M46.09,72.36 C46.31,72.47 46.48,72.62 46.61,72.80" fill="currentColor" stroke="currentColor" stroke-width="1.2" stroke-linecap="round" stroke-linejoin="round" />
  <path d="M35.46,72.85 C35.67,72.63 35.90,72.47 36.18,72.36" fill="currentColor" stroke="currentColor" stroke-width="1.2" stroke-linecap="round" stroke-linejoin="round" />
  <path d="M39.80,72.44 C39.80,72.41 39.81,72.39 39.82,72.37" fill="currentColor" stroke="currentColor" stroke-width="1.2" stroke-linecap="round" stroke-linejoin="round" />
  <path d="M40.58,72.37 C40.59,72.39 40.60,72.41 40.60,72.44" fill="currentColor" stroke="currentColor" stroke-width="1.2" stroke-linecap="round" stroke-linejoin="round" />
  <path d="M40.60,73.08 C40.87,72.77 41.14,72.55 41.39,72.41" fill="currentColor" stroke="currentColor" stroke-width="1.2" stroke-linecap="round" stroke-linejoin="round" />
  <path d="M44.12,72.71 C44.26,72.59 44.40,72.49 44.53,72.41" fill="currentColor" stroke="currentColor" stroke-width="1.2" stroke-linecap="round" stroke-linejoin="round" />
  <line x1="39.80" y1="77.27" x2="39.80" y2="72.44" fill="currentColor" stroke="currentColor" stroke-width="1.2" stroke-linecap="round" stroke-linejoin="round" />
  <line x1="40.60" y1="72.44" x2="40.60" y2="73.08" fill="currentColor" stroke="currentColor" stroke-width="1.2" stroke-linecap="round" stroke-linejoin="round" />
  <path d="M43.13,72.46 C43.25,72.55 43.36,72.65 43.44,72.76" fill="currentColor" stroke="currentColor" stroke-width="1.2" stroke-linecap="round" stroke-linejoin="round" />
  <path d="M38.24,72.52 C38.33,72.58 38.40,72.63 38.45,72.67" fill="currentColor" stroke="currentColor" stroke-width="1.2" stroke-linecap="round" stroke-linejoin="round" />
  <path d="M30.77,72.67 C30.71,72.86 30.62,73.03 30.51,73.17" fill="currentColor" stroke="currentColor" stroke-width="1.2" stroke-linecap="round" stroke-linejoin="round" />
  <path d="M38.45,72.67 C38.49,72.72 38.52,72.75 38.54,72.78" fill="currentColor" stroke="currentColor" stroke-width="1.2" stroke-linecap="round" stroke-linejoin="round" />
  <path d="M43.66,73.15 C43.82,72.98 43.97,72.83 44.12,72.71" fill="currentColor" stroke="currentColor" stroke-width="1.2" stroke-linecap="round" stroke-linejoin="round" />
  <path d="M29.46,73.13 C29.59,73.01 29.69,72.87 29.76,72.72" fill="currentColor" stroke="currentColor" stroke-width="1.2" stroke-linecap="round" stroke-linejoin="round" />
  <path d="M43.44,72.76 C43.53,72.88 43.60,73.01 43.66,73.15" fill="currentColor" stroke="currentColor" stroke-width="1.2" stroke-linecap="round" stroke-linejoin="round" />
  <path d="M38.54,72.78 C38.55,72.80 38.57,72.83 38.58,72.87" fill="currentColor" stroke="currentColor" stroke-width="1.2" stroke-linecap="round" stroke-linejoin="round" />
  <path d="M46.61,72.80 C46.74,72.98 46.83,73.19 46.89,73.44" fill="currentColor" stroke="currentColor" stroke-width="1.2" stroke-linecap="round" stroke-linejoin="round" />
  <path d="M34.99,73.69 C35.10,73.35 35.26,73.07 35.46,72.85" fill="currentColor" stroke="currentColor" stroke-width="1.2" stroke-linecap="round" stroke-linejoin="round" />
  <path d="M38.58,72.87 C38.59,72.90 38.59,72.94 38.60,72.98" fill="currentColor" stroke="currentColor" stroke-width="1.2" stroke-linecap="round" stroke-linejoin="round" />
  <path d="M37.60,73.04 C37.44,72.98 37.26,72.95 37.06,72.95" fill="currentColor" stroke="currentColor" stroke-width="1.2" stroke-linecap="round" stroke-linejoin="round" />
  <path d="M37.06,72.95 C36.63,72.95 36.30,73.11 36.08,73.44" fill="currentColor" stroke="currentColor" stroke-width="1.2" stroke-linecap="round" stroke-linejoin="round" />
  <path d="M45.55,73.06 C45.43,73.00 45.29,72.96 45.12,72.96" fill="currentColor" stroke="currentColor" stroke-width="1.2" stroke-linecap="round" stroke-linejoin="round" />
  <path d="M45.12,72.96 C44.92,72.96 44.71,73.04 44.51,73.20" fill="currentColor" stroke="currentColor" stroke-width="1.2" stroke-linecap="round" stroke-linejoin="round" />
  <path d="M42.41,73.06 C42.29,73.00 42.15,72.96 41.98,72.96" fill="currentColor" stroke="currentColor" stroke-width="1.2" stroke-linecap="round" stroke-linejoin="round" />
  <path d="M41.98,72.96 C41.78,72.96 41.57,73.04 41.36,73.20" fill="currentColor" stroke="currentColor" stroke-width="1.2" stroke-linecap="round" stroke-linejoin="round" />
  <path d="M38.60,72.98 C38.60,73.02 38.60,73.08 38.60,73.14" fill="currentColor" stroke="currentColor" stroke-width="1.2" stroke-linecap="round" stroke-linejoin="round" />
  <path d="M37.98,73.23 C37.88,73.16 37.75,73.10 37.60,73.04" fill="currentColor" stroke="currentColor" stroke-width="1.2" stroke-linecap="round" stroke-linejoin="round" />
  <path d="M45.85,73.34 C45.77,73.22 45.67,73.13 45.55,73.06" fill="currentColor" stroke="currentColor" stroke-width="1.2" stroke-linecap="round" stroke-linejoin="round" />
  <path d="M42.71,73.34 C42.63,73.22 42.53,73.13 42.41,73.06" fill="currentColor" stroke="currentColor" stroke-width="1.2" stroke-linecap="round" stroke-linejoin="round" />
  <path d="M28.98,73.39 C29.17,73.33 29.33,73.24 29.46,73.13" fill="currentColor" stroke="currentColor" stroke-width="1.2" stroke-linecap="round" stroke-linejoin="round" />
  <path d="M38.60,73.14 C38.60,73.28 38.59,73.38 38.55,73.43" fill="currentColor" stroke="currentColor" stroke-width="1.2" stroke-linecap="round" stroke-linejoin="round" />
  <path d="M30.51,73.17 C30.40,73.32 30.27,73.44 30.11,73.54" fill="currentColor" stroke="currentColor" stroke-width="1.2" stroke-linecap="round" stroke-linejoin="round" />
  <path d="M44.51,73.20 C44.30,73.36 44.08,73.59 43.83,73.89" fill="currentColor" stroke="currentColor" stroke-width="1.2" stroke-linecap="round" stroke-linejoin="round" />
  <path d="M41.36,73.20 C41.16,73.36 40.93,73.59 40.69,73.89" fill="currentColor" stroke="currentColor" stroke-width="1.2" stroke-linecap="round" stroke-linejoin="round" />
  <path d="M38.25,73.43 C38.18,73.37 38.09,73.31 37.98,73.23" fill="currentColor" stroke="currentColor" stroke-width="1.2" stroke-linecap="round" stroke-linejoin="round" />
  <path d="M46.03,73.78 C45.99,73.61 45.93,73.46 45.85,73.34" fill="currentColor" stroke="currentColor" stroke-width="1.2" stroke-linecap="round" stroke-linejoin="round" />
  <path d="M42.88,73.78 C42.84,73.61 42.78,73.46 42.71,73.34" fill="currentColor" stroke="currentColor" stroke-width="1.2" stroke-linecap="round" stroke-linejoin="round" />
  <path d="M28.34,73.48 C28.58,73.48 28.79,73.45 28.98,73.39" fill="currentColor" stroke="currentColor" stroke-width="1.2" stroke-linecap="round" stroke-linejoin="round" />
  <path d="M38.44,73.52 C38.38,73.52 38.32,73.49 38.25,73.43" fill="currentColor" stroke="currentColor" stroke-width="1.2" stroke-linecap="round" stroke-linejoin="round" />
  <path d="M38.55,73.43 C38.52,73.49 38.48,73.52 38.44,73.52" fill="currentColor" stroke="currentColor" stroke-width="1.2" stroke-linecap="round" stroke-linejoin="round" />
  <path d="M46.89,73.44 C46.94,73.69 46.97,73.94 46.97,74.22" fill="currentColor" stroke="currentColor" stroke-width="1.2" stroke-linecap="round" stroke-linejoin="round" />
  <path d="M36.08,73.44 C35.85,73.77 35.73,74.24 35.73,74.87" fill="currentColor" stroke="currentColor" stroke-width="1.2" stroke-linecap="round" stroke-linejoin="round" />
  <path d="M27.65,73.50 C27.68,73.49 27.70,73.48 27.74,73.48" fill="currentColor" stroke="currentColor" stroke-width="1.2" stroke-linecap="round" stroke-linejoin="round" />
  <line x1="27.74" y1="73.48" x2="28.34" y2="73.48" fill="currentColor" stroke="currentColor" stroke-width="1.2" stroke-linecap="round" stroke-linejoin="round" />
  <path d="M27.58,73.56 C27.60,73.53 27.63,73.51 27.65,73.50" fill="currentColor" stroke="currentColor" stroke-width="1.2" stroke-linecap="round" stroke-linejoin="round" />
  <path d="M30.11,73.54 C29.94,73.64 29.76,73.71 29.55,73.75" fill="currentColor" stroke="currentColor" stroke-width="1.2" stroke-linecap="round" stroke-linejoin="round" />
  <path d="M27.54,73.67 C27.55,73.62 27.56,73.59 27.58,73.56" fill="currentColor" stroke="currentColor" stroke-width="1.2" stroke-linecap="round" stroke-linejoin="round" />
  <path d="M27.52,73.83 C27.52,73.77 27.53,73.71 27.54,73.67" fill="currentColor" stroke="currentColor" stroke-width="1.2" stroke-linecap="round" stroke-linejoin="round" />
  <path d="M34.81,74.91 C34.81,74.44 34.87,74.03 34.99,73.69" fill="currentColor" stroke="currentColor" stroke-width="1.2" stroke-linecap="round" stroke-linejoin="round" />
  <line x1="29.55" y1="73.75" x2="29.55" y2="73.77" fill="currentColor" stroke="currentColor" stroke-width="1.2" stroke-linecap="round" stroke-linejoin="round" />
  <path d="M29.55,73.77 C29.79,73.79 30.01,73.85 30.21,73.95" fill="currentColor" stroke="currentColor" stroke-width="1.2" stroke-linecap="round" stroke-linejoin="round" />
  <path d="M46.08,74.33 C46.08,74.13 46.06,73.94 46.03,73.78" fill="currentColor" stroke="currentColor" stroke-width="1.2" stroke-linecap="round" stroke-linejoin="round" />
  <path d="M42.94,74.33 C42.94,74.13 42.92,73.94 42.88,73.78" fill="currentColor" stroke="currentColor" stroke-width="1.2" stroke-linecap="round" stroke-linejoin="round" />
  <path d="M27.54,74.02 C27.53,73.97 27.52,73.91 27.52,73.83" fill="currentColor" stroke="currentColor" stroke-width="1.2" stroke-linecap="round" stroke-linejoin="round" />
  <line x1="43.83" y1="73.89" x2="43.83" y2="77.27" fill="currentColor" stroke="currentColor" stroke-width="1.2" stroke-linecap="round" stroke-linejoin="round" />
  <line x1="40.69" y1="73.89" x2="40.69" y2="77.27" fill="currentColor" stroke="currentColor" stroke-width="1.2" stroke-linecap="round" stroke-linejoin="round" />
  <path d="M30.21,73.95 C30.40,74.04 30.57,74.16 30.72,74.30" fill="currentColor" stroke="currentColor" stroke-width="1.2" stroke-linecap="round" stroke-linejoin="round" />
  <path d="M27.59,74.13 C27.57,74.10 27.55,74.06 27.54,74.02" fill="currentColor" stroke="currentColor" stroke-width="1.2" stroke-linecap="round" stroke-linejoin="round" />
  <path d="M27.66,74.19 C27.63,74.18 27.61,74.16 27.59,74.13" fill="currentColor" stroke="currentColor" stroke-width="1.2" stroke-linecap="round" stroke-linejoin="round" />
  <path d="M27.74,74.21 C27.71,74.21 27.69,74.20 27.66,74.19" fill="currentColor" stroke="currentColor" stroke-width="1.2" stroke-linecap="round" stroke-linejoin="round" />
  <path d="M29.14,74.30 C28.92,74.24 28.68,74.21 28.40,74.21" fill="currentColor" stroke="currentColor" stroke-width="1.2" stroke-linecap="round" stroke-linejoin="round" />
  <line x1="28.40" y1="74.21" x2="27.74" y2="74.21" fill="currentColor" stroke="currentColor" stroke-width="1.2" stroke-linecap="round" stroke-linejoin="round" />
  <line x1="46.97" y1="74.22" x2="46.97" y2="77.27" fill="currentColor" stroke="currentColor" stroke-width="1.2" stroke-linecap="round" stroke-linejoin="round" />
  <path d="M29.69,74.57 C29.54,74.45 29.36,74.36 29.14,74.30" fill="currentColor" stroke="currentColor" stroke-width="1.2" stroke-linecap="round" stroke-linejoin="round" />
  <path d="M30.72,74.30 C30.86,74.45 30.97,74.61 31.05,74.80" fill="currentColor" stroke="currentColor" stroke-width="1.2" stroke-linecap="round" stroke-linejoin="round" />
  <line x1="46.08" y1="77.27" x2="46.08" y2="74.33" fill="currentColor" stroke="currentColor" stroke-width="1.2" stroke-linecap="round" stroke-linejoin="round" />
  <line x1="42.94" y1="77.27" x2="42.94" y2="74.33" fill="currentColor" stroke="currentColor" stroke-width="1.2" stroke-linecap="round" stroke-linejoin="round" />
  <path d="M30.03,74.97 C29.95,74.82 29.84,74.68 29.69,74.57" fill="currentColor" stroke="currentColor" stroke-width="1.2" stroke-linecap="round" stroke-linejoin="round" />
  <path d="M31.05,74.80 C31.14,75.00 31.17,75.20 31.17,75.42" fill="currentColor" stroke="currentColor" stroke-width="1.2" stroke-linecap="round" stroke-linejoin="round" />
  <path d="M35.73,74.87 C35.73,75.18 35.76,75.45 35.82,75.69" fill="currentColor" stroke="currentColor" stroke-width="1.2" stroke-linecap="round" stroke-linejoin="round" />
  <path d="M34.95,76.02 C34.86,75.70 34.81,75.33 34.81,74.91" fill="currentColor" stroke="currentColor" stroke-width="1.2" stroke-linecap="round" stroke-linejoin="round" />
  <path d="M30.14,75.51 C30.14,75.31 30.10,75.13 30.03,74.97" fill="currentColor" stroke="currentColor" stroke-width="1.2" stroke-linecap="round" stroke-linejoin="round" />
  <path d="M31.17,75.42 C31.17,75.74 31.12,76.03 31.01,76.28" fill="currentColor" stroke="currentColor" stroke-width="1.2" stroke-linecap="round" stroke-linejoin="round" />
  <path d="M30.05,76.00 C30.11,75.85 30.14,75.68 30.14,75.51" fill="currentColor" stroke="currentColor" stroke-width="1.2" stroke-linecap="round" stroke-linejoin="round" />
  <path d="M35.82,75.69 C35.88,75.92 35.97,76.12 36.08,76.27" fill="currentColor" stroke="currentColor" stroke-width="1.2" stroke-linecap="round" stroke-linejoin="round" />
  <path d="M29.78,76.40 C29.90,76.29 29.99,76.15 30.05,76.00" fill="currentColor" stroke="currentColor" stroke-width="1.2" stroke-linecap="round" stroke-linejoin="round" />
  <path d="M35.37,76.83 C35.19,76.61 35.05,76.34 34.95,76.02" fill="currentColor" stroke="currentColor" stroke-width="1.2" stroke-linecap="round" stroke-linejoin="round" />
  <path d="M38.30,76.22 C38.38,76.16 38.44,76.13 38.48,76.13" fill="currentColor" stroke="currentColor" stroke-width="1.2" stroke-linecap="round" stroke-linejoin="round" />
  <path d="M38.48,76.13 C38.50,76.13 38.53,76.14 38.54,76.15" fill="currentColor" stroke="currentColor" stroke-width="1.2" stroke-linecap="round" stroke-linejoin="round" />
  <path d="M38.54,76.15 C38.56,76.16 38.58,76.19 38.59,76.22" fill="currentColor" stroke="currentColor" stroke-width="1.2" stroke-linecap="round" stroke-linejoin="round" />
  <path d="M26.86,76.28 C26.88,76.23 26.92,76.20 26.96,76.20" fill="currentColor" stroke="currentColor" stroke-width="1.2" stroke-linecap="round" stroke-linejoin="round" />
  <path d="M26.96,76.20 C27.00,76.20 27.06,76.23 27.15,76.29" fill="currentColor" stroke="currentColor" stroke-width="1.2" stroke-linecap="round" stroke-linejoin="round" />
  <path d="M38.01,76.43 C38.13,76.35 38.22,76.28 38.30,76.22" fill="currentColor" stroke="currentColor" stroke-width="1.2" stroke-linecap="round" stroke-linejoin="round" />
  <path d="M38.59,76.22 C38.60,76.26 38.61,76.30 38.62,76.35" fill="currentColor" stroke="currentColor" stroke-width="1.2" stroke-linecap="round" stroke-linejoin="round" />
  <path d="M36.08,76.27 C36.20,76.43 36.34,76.55 36.51,76.63" fill="currentColor" stroke="currentColor" stroke-width="1.2" stroke-linecap="round" stroke-linejoin="round" />
  <path d="M26.82,76.55 C26.82,76.42 26.83,76.33 26.86,76.28" fill="currentColor" stroke="currentColor" stroke-width="1.2" stroke-linecap="round" stroke-linejoin="round" />
  <path d="M31.01,76.28 C30.90,76.54 30.74,76.76 30.53,76.94" fill="currentColor" stroke="currentColor" stroke-width="1.2" stroke-linecap="round" stroke-linejoin="round" />
  <path d="M27.15,76.29 C27.25,76.35 27.37,76.41 27.52,76.47" fill="currentColor" stroke="currentColor" stroke-width="1.2" stroke-linecap="round" stroke-linejoin="round" />
  <path d="M38.62,76.35 C38.62,76.40 38.62,76.46 38.62,76.54" fill="currentColor" stroke="currentColor" stroke-width="1.2" stroke-linecap="round" stroke-linejoin="round" />
  <path d="M29.33,76.65 C29.51,76.59 29.66,76.51 29.78,76.40" fill="currentColor" stroke="currentColor" stroke-width="1.2" stroke-linecap="round" stroke-linejoin="round" />
  <path d="M37.61,76.64 C37.77,76.58 37.90,76.51 38.01,76.43" fill="currentColor" stroke="currentColor" stroke-width="1.2" stroke-linecap="round" stroke-linejoin="round" />
  <path d="M27.52,76.47 C27.67,76.54 27.84,76.60 28.04,76.66" fill="currentColor" stroke="currentColor" stroke-width="1.2" stroke-linecap="round" stroke-linejoin="round" />
  <path d="M38.62,76.54 C38.62,76.60 38.62,76.65 38.62,76.69" fill="currentColor" stroke="currentColor" stroke-width="1.2" stroke-linecap="round" stroke-linejoin="round" />
  <path d="M26.83,76.74 C26.82,76.69 26.82,76.62 26.82,76.55" fill="currentColor" stroke="currentColor" stroke-width="1.2" stroke-linecap="round" stroke-linejoin="round" />
  <path d="M36.51,76.63 C36.67,76.70 36.86,76.74 37.08,76.74" fill="currentColor" stroke="currentColor" stroke-width="1.2" stroke-linecap="round" stroke-linejoin="round" />
  <path d="M37.08,76.74 C37.28,76.74 37.46,76.71 37.61,76.64" fill="currentColor" stroke="currentColor" stroke-width="1.2" stroke-linecap="round" stroke-linejoin="round" />
  <path d="M28.70,76.75 C28.94,76.75 29.15,76.72 29.33,76.65" fill="currentColor" stroke="currentColor" stroke-width="1.2" stroke-linecap="round" stroke-linejoin="round" />
  <path d="M28.04,76.66 C28.24,76.72 28.46,76.75 28.70,76.75" fill="currentColor" stroke="currentColor" stroke-width="1.2" stroke-linecap="round" stroke-linejoin="round" />
  <path d="M38.62,76.69 C38.62,76.74 38.61,76.78 38.60,76.81" fill="currentColor" stroke="currentColor" stroke-width="1.2" stroke-linecap="round" stroke-linejoin="round" />
  <path d="M26.85,76.87 C26.84,76.83 26.83,76.79 26.83,76.74" fill="currentColor" stroke="currentColor" stroke-width="1.2" stroke-linecap="round" stroke-linejoin="round" />
  <path d="M38.60,76.81 C38.59,76.84 38.58,76.86 38.57,76.89" fill="currentColor" stroke="currentColor" stroke-width="1.2" stroke-linecap="round" stroke-linejoin="round" />
  <path d="M36.04,77.34 C35.77,77.22 35.55,77.05 35.37,76.83" fill="currentColor" stroke="currentColor" stroke-width="1.2" stroke-linecap="round" stroke-linejoin="round" />
  <path d="M26.89,76.96 C26.87,76.94 26.86,76.91 26.85,76.87" fill="currentColor" stroke="currentColor" stroke-width="1.2" stroke-linecap="round" stroke-linejoin="round" />
  <path d="M38.57,76.89 C38.56,76.91 38.53,76.95 38.48,76.99" fill="currentColor" stroke="currentColor" stroke-width="1.2" stroke-linecap="round" stroke-linejoin="round" />
  <path d="M30.53,76.94 C30.32,77.12 30.07,77.26 29.76,77.36" fill="currentColor" stroke="currentColor" stroke-width="1.2" stroke-linecap="round" stroke-linejoin="round" />
  <path d="M26.95,77.04 C26.92,77.01 26.90,76.99 26.89,76.96" fill="currentColor" stroke="currentColor" stroke-width="1.2" stroke-linecap="round" stroke-linejoin="round" />
  <path d="M38.48,76.99 C38.44,77.04 38.36,77.09 38.25,77.16" fill="currentColor" stroke="currentColor" stroke-width="1.2" stroke-linecap="round" stroke-linejoin="round" />
  <path d="M27.15,77.16 C27.04,77.10 26.98,77.06 26.95,77.04" fill="currentColor" stroke="currentColor" stroke-width="1.2" stroke-linecap="round" stroke-linejoin="round" />
  <path d="M27.54,77.32 C27.38,77.27 27.25,77.21 27.15,77.16" fill="currentColor" stroke="currentColor" stroke-width="1.2" stroke-linecap="round" stroke-linejoin="round" />
  <path d="M38.25,77.16 C38.15,77.22 38.03,77.28 37.89,77.33" fill="currentColor" stroke="currentColor" stroke-width="1.2" stroke-linecap="round" stroke-linejoin="round" />
  <path d="M46.97,77.27 C46.97,77.30 46.96,77.33 46.95,77.34" fill="currentColor" stroke="currentColor" stroke-width="1.2" stroke-linecap="round" stroke-linejoin="round" />
  <path d="M46.10,77.34 C46.09,77.33 46.08,77.30 46.08,77.27" fill="currentColor" stroke="currentColor" stroke-width="1.2" stroke-linecap="round" stroke-linejoin="round" />
  <path d="M43.83,77.27 C43.83,77.30 43.82,77.33 43.81,77.34" fill="currentColor" stroke="currentColor" stroke-width="1.2" stroke-linecap="round" stroke-linejoin="round" />
  <path d="M42.96,77.34 C42.95,77.33 42.94,77.30 42.94,77.27" fill="currentColor" stroke="currentColor" stroke-width="1.2" stroke-linecap="round" stroke-linejoin="round" />
  <path d="M40.69,77.27 C40.69,77.30 40.68,77.33 40.66,77.34" fill="currentColor" stroke="currentColor" stroke-width="1.2" stroke-linecap="round" stroke-linejoin="round" />
  <path d="M39.82,77.34 C39.81,77.33 39.80,77.30 39.80,77.27" fill="currentColor" stroke="currentColor" stroke-width="1.2" stroke-linecap="round" stroke-linejoin="round" />
  <path d="M28.08,77.45 C27.88,77.41 27.70,77.37 27.54,77.32" fill="currentColor" stroke="currentColor" stroke-width="1.2" stroke-linecap="round" stroke-linejoin="round" />
  <path d="M37.89,77.33 C37.76,77.39 37.61,77.43 37.45,77.46" fill="currentColor" stroke="currentColor" stroke-width="1.2" stroke-linecap="round" stroke-linejoin="round" />
  <path d="M36.96,77.51 C36.62,77.51 36.31,77.45 36.04,77.34" fill="currentColor" stroke="currentColor" stroke-width="1.2" stroke-linecap="round" stroke-linejoin="round" />
  <path d="M46.95,77.34 C46.93,77.36 46.91,77.38 46.88,77.40" fill="currentColor" stroke="currentColor" stroke-width="1.2" stroke-linecap="round" stroke-linejoin="round" />
  <path d="M46.17,77.40 C46.14,77.38 46.11,77.36 46.10,77.34" fill="currentColor" stroke="currentColor" stroke-width="1.2" stroke-linecap="round" stroke-linejoin="round" />
  <path d="M43.81,77.34 C43.79,77.36 43.77,77.38 43.73,77.40" fill="currentColor" stroke="currentColor" stroke-width="1.2" stroke-linecap="round" stroke-linejoin="round" />
  <path d="M43.03,77.40 C43.00,77.38 42.97,77.36 42.96,77.34" fill="currentColor" stroke="currentColor" stroke-width="1.2" stroke-linecap="round" stroke-linejoin="round" />
  <path d="M40.66,77.34 C40.65,77.36 40.63,77.38 40.60,77.40" fill="currentColor" stroke="currentColor" stroke-width="1.2" stroke-linecap="round" stroke-linejoin="round" />
  <path d="M39.89,77.40 C39.85,77.38 39.83,77.36 39.82,77.34" fill="currentColor" stroke="currentColor" stroke-width="1.2" stroke-linecap="round" stroke-linejoin="round" />
  <path d="M29.76,77.36 C29.46,77.46 29.11,77.51 28.73,77.51" fill="currentColor" stroke="currentColor" stroke-width="1.2" stroke-linecap="round" stroke-linejoin="round" />
  <path d="M46.88,77.40 C46.85,77.41 46.80,77.42 46.74,77.43" fill="currentColor" stroke="currentColor" stroke-width="1.2" stroke-linecap="round" stroke-linejoin="round" />
  <path d="M46.31,77.43 C46.25,77.42 46.21,77.41 46.17,77.40" fill="currentColor" stroke="currentColor" stroke-width="1.2" stroke-linecap="round" stroke-linejoin="round" />
  <path d="M43.73,77.40 C43.70,77.41 43.65,77.42 43.60,77.43" fill="currentColor" stroke="currentColor" stroke-width="1.2" stroke-linecap="round" stroke-linejoin="round" />
  <path d="M43.17,77.43 C43.11,77.42 43.06,77.41 43.03,77.40" fill="currentColor" stroke="currentColor" stroke-width="1.2" stroke-linecap="round" stroke-linejoin="round" />
  <path d="M40.60,77.40 C40.56,77.41 40.52,77.42 40.46,77.43" fill="currentColor" stroke="currentColor" stroke-width="1.2" stroke-linecap="round" stroke-linejoin="round" />
  <path d="M40.03,77.43 C39.97,77.42 39.92,77.41 39.89,77.40" fill="currentColor" stroke="currentColor" stroke-width="1.2" stroke-linecap="round" stroke-linejoin="round" />
  <path d="M46.74,77.43 C46.69,77.44 46.62,77.44 46.53,77.44" fill="currentColor" stroke="currentColor" stroke-width="1.2" stroke-linecap="round" stroke-linejoin="round" />
  <path d="M46.53,77.44 C46.44,77.44 46.37,77.44 46.31,77.43" fill="currentColor" stroke="currentColor" stroke-width="1.2" stroke-linecap="round" stroke-linejoin="round" />
  <path d="M43.60,77.43 C43.54,77.44 43.47,77.44 43.38,77.44" fill="currentColor" stroke="currentColor" stroke-width="1.2" stroke-linecap="round" stroke-linejoin="round" />
  <path d="M43.38,77.44 C43.30,77.44 43.23,77.44 43.17,77.43" fill="currentColor" stroke="currentColor" stroke-width="1.2" stroke-linecap="round" stroke-linejoin="round" />
  <path d="M40.46,77.43 C40.40,77.44 40.33,77.44 40.24,77.44" fill="currentColor" stroke="currentColor" stroke-width="1.2" stroke-linecap="round" stroke-linejoin="round" />
  <path d="M40.24,77.44 C40.15,77.44 40.08,77.44 40.03,77.43" fill="currentColor" stroke="currentColor" stroke-width="1.2" stroke-linecap="round" stroke-linejoin="round" />
  <path d="M28.73,77.51 C28.50,77.51 28.28,77.49 28.08,77.45" fill="currentColor" stroke="currentColor" stroke-width="1.2" stroke-linecap="round" stroke-linejoin="round" />
  <path d="M37.45,77.46 C37.30,77.49 37.13,77.51 36.96,77.51" fill="currentColor" stroke="currentColor" stroke-width="1.2" stroke-linecap="round" stroke-linejoin="round" />
  <path d="M75.77,87.75 C64.42,103.32 42.56,106.74 26.99,95.39" fill="currentColor" stroke="currentColor" stroke-width="1.4000000476837158" stroke-linecap="round" stroke-linejoin="round" />
  <path d="M196.93,96.45 C180.78,118.60 149.68,123.47 127.53,107.32" fill="currentColor" stroke="currentColor" stroke-width="1.4000000476837158" stroke-linecap="round" stroke-linejoin="round" />
</svg>