<svg xmlns="http://www.w3.org/2000/svg" viewBox="0 0 235.02 105.06" preserveAspectRatio="xMidYMid meet" shape-rendering="geometricPrecision" text-rendering="optimizeLegibility">
  <line x1="122.69" y1="19.17" x2="122.71" y2="19.15" fill="none" stroke="currentColor" stroke-width="1.000000011920929" stroke-linecap="round" stroke-linejoin="round" />
  <line x1="133.45" y1="8.00" x2="47.67" y2="97.06" fill="none" stroke="currentColor" stroke-width="1.4000000476837158" stroke-linecap="round" stroke-linejoin="round" />
  <path d="M37.34,79.87 C37.53,79.87 37.70,79.90 37.86,79.96" fill="currentColor" stroke="currentColor" stroke-width="1.2" stroke-linecap="round" stroke-linejoin="round" />
  <path d="M36.82,79.97 C36.98,79.91 37.15,79.87 37.34,79.87" fill="currentColor" stroke="currentColor" stroke-width="1.2" stroke-linecap="round" stroke-linejoin="round" />
  <path d="M37.86,79.96 C38.01,80.02 38.15,80.11 38.26,80.21" fill="currentColor" stroke="currentColor" stroke-width="1.2" stroke-linecap="round" stroke-linejoin="round" />
  <path d="M36.39,80.23 C36.51,80.12 36.65,80.03 36.82,79.97" fill="currentColor" stroke="currentColor" stroke-width="1.2" stroke-linecap="round" stroke-linejoin="round" />
  <path d="M26.31,80.20 C26.50,80.15 26.72,80.13 26.95,80.13" fill="currentColor" stroke="currentColor" stroke-width="1.2" stroke-linecap="round" stroke-linejoin="round" />
  <path d="M21.67,80.19 C21.71,80.18 21.77,80.18 21.83,80.18" fill="currentColor" stroke="currentColor" stroke-width="1.2" stroke-linecap="round" stroke-linejoin="round" />
  <path d="M21.83,80.18 C21.92,80.18 21.99,80.19 22.05,80.19" fill="currentColor" stroke="currentColor" stroke-width="1.2" stroke-linecap="round" stroke-linejoin="round" />
  <path d="M26.95,80.13 C27.27,80.13 27.55,80.17 27.80,80.25" fill="currentColor" stroke="currentColor" stroke-width="1.2" stroke-linecap="round" stroke-linejoin="round" />
  <path d="M21.56,80.20 C21.59,80.19 21.63,80.19 21.67,80.19" fill="currentColor" stroke="currentColor" stroke-width="1.2" stroke-linecap="round" stroke-linejoin="round" />
  <path d="M22.05,80.19 C22.10,80.20 22.15,80.21 22.18,80.22" fill="currentColor" stroke="currentColor" stroke-width="1.2" stroke-linecap="round" stroke-linejoin="round" />
  <path d="M21.48,80.22 C21.50,80.21 21.52,80.21 21.56,80.20" fill="currentColor" stroke="currentColor" stroke-width="1.2" stroke-linecap="round" stroke-linejoin="round" />
  <path d="M21.42,80.25 C21.44,80.24 21.45,80.23 21.48,80.22" fill="currentColor" stroke="currentColor" stroke-width="1.2" stroke-linecap="round" stroke-linejoin="round" />
  <path d="M32.74,80.13 C33.18,80.13 33.55,80.21 33.85,80.36" fill="currentColor" stroke="currentColor" stroke-width="1.2" stroke-linecap="round" stroke-linejoin="round" />
  <path d="M22.18,80.22 C22.21,80.24 22.23,80.25 22.24,80.27" fill="currentColor" stroke="currentColor" stroke-width="1.2" stroke-linecap="round" stroke-linejoin="round" />
  <path d="M31.58,80.39 C31.89,80.22 32.28,80.13 32.74,80.13" fill="currentColor" stroke="currentColor" stroke-width="1.2" stroke-linecap="round" stroke-linejoin="round" />
  <path d="M25.78,80.35 C25.93,80.29 26.11,80.24 26.31,80.20" fill="currentColor" stroke="currentColor" stroke-width="1.2" stroke-linecap="round" stroke-linejoin="round" />
  <path d="M22.24,80.27 C22.25,80.29 22.26,80.31 22.26,80.33" fill="currentColor" stroke="currentColor" stroke-width="1.2" stroke-linecap="round" stroke-linejoin="round" />
  <path d="M38.26,80.21 C38.38,80.32 38.47,80.45 38.53,80.60" fill="currentColor" stroke="currentColor" stroke-width="1.2" stroke-linecap="round" stroke-linejoin="round" />
  <path d="M27.80,80.25 C28.04,80.34 28.24,80.45 28.41,80.60" fill="currentColor" stroke="currentColor" stroke-width="1.2" stroke-linecap="round" stroke-linejoin="round" />
  <path d="M36.11,80.63 C36.18,80.48 36.27,80.34 36.39,80.23" fill="currentColor" stroke="currentColor" stroke-width="1.2" stroke-linecap="round" stroke-linejoin="round" />
  <path d="M25.40,80.54 C25.50,80.48 25.63,80.42 25.78,80.35" fill="currentColor" stroke="currentColor" stroke-width="1.2" stroke-linecap="round" stroke-linejoin="round" />
  <path d="M37.57,80.49 C37.49,80.45 37.40,80.44 37.31,80.44" fill="currentColor" stroke="currentColor" stroke-width="1.2" stroke-linecap="round" stroke-linejoin="round" />
  <path d="M37.31,80.44 C37.22,80.44 37.14,80.45 37.06,80.49" fill="currentColor" stroke="currentColor" stroke-width="1.2" stroke-linecap="round" stroke-linejoin="round" />
  <path d="M37.77,80.63 C37.71,80.57 37.65,80.52 37.57,80.49" fill="currentColor" stroke="currentColor" stroke-width="1.2" stroke-linecap="round" stroke-linejoin="round" />
  <path d="M37.06,80.49 C36.98,80.52 36.92,80.57 36.86,80.63" fill="currentColor" stroke="currentColor" stroke-width="1.2" stroke-linecap="round" stroke-linejoin="round" />
  <path d="M25.19,80.69 C25.22,80.66 25.29,80.61 25.40,80.54" fill="currentColor" stroke="currentColor" stroke-width="1.2" stroke-linecap="round" stroke-linejoin="round" />
  <path d="M33.85,80.36 C34.15,80.52 34.39,80.75 34.57,81.05" fill="currentColor" stroke="currentColor" stroke-width="1.2" stroke-linecap="round" stroke-linejoin="round" />
  <path d="M25.12,80.78 C25.13,80.76 25.16,80.73 25.19,80.69" fill="currentColor" stroke="currentColor" stroke-width="1.2" stroke-linecap="round" stroke-linejoin="round" />
  <path d="M36.86,80.63 C36.80,80.69 36.76,80.76 36.72,80.84" fill="currentColor" stroke="currentColor" stroke-width="1.2" stroke-linecap="round" stroke-linejoin="round" />
  <path d="M37.90,80.85 C37.87,80.76 37.83,80.69 37.77,80.63" fill="currentColor" stroke="currentColor" stroke-width="1.2" stroke-linecap="round" stroke-linejoin="round" />
  <path d="M30.82,81.13 C31.01,80.81 31.26,80.56 31.58,80.39" fill="currentColor" stroke="currentColor" stroke-width="1.2" stroke-linecap="round" stroke-linejoin="round" />
  <line x1="19.82" y1="81.27" x2="21.42" y2="80.25" fill="currentColor" stroke="currentColor" stroke-width="1.2" stroke-linecap="round" stroke-linejoin="round" />
  <path d="M25.08,80.86 C25.09,80.83 25.10,80.81 25.12,80.78" fill="currentColor" stroke="currentColor" stroke-width="1.2" stroke-linecap="round" stroke-linejoin="round" />
  <path d="M38.53,80.60 C38.60,80.75 38.63,80.91 38.63,81.10" fill="currentColor" stroke="currentColor" stroke-width="1.2" stroke-linecap="round" stroke-linejoin="round" />
  <path d="M28.41,80.60 C28.57,80.75 28.69,80.93 28.77,81.14" fill="currentColor" stroke="currentColor" stroke-width="1.2" stroke-linecap="round" stroke-linejoin="round" />
  <path d="M36.01,81.14 C36.01,80.96 36.04,80.79 36.11,80.63" fill="currentColor" stroke="currentColor" stroke-width="1.2" stroke-linecap="round" stroke-linejoin="round" />
  <path d="M25.06,80.97 C25.06,80.93 25.07,80.89 25.08,80.86" fill="currentColor" stroke="currentColor" stroke-width="1.2" stroke-linecap="round" stroke-linejoin="round" />
  <path d="M33.15,80.95 C33.01,80.91 32.86,80.89 32.68,80.89" fill="currentColor" stroke="currentColor" stroke-width="1.2" stroke-linecap="round" stroke-linejoin="round" />
  <path d="M27.27,80.98 C27.12,80.92 26.96,80.89 26.77,80.89" fill="currentColor" stroke="currentColor" stroke-width="1.2" stroke-linecap="round" stroke-linejoin="round" />
  <path d="M26.77,80.89 C26.56,80.89 26.37,80.92 26.19,80.99" fill="currentColor" stroke="currentColor" stroke-width="1.2" stroke-linecap="round" stroke-linejoin="round" />
  <path d="M36.72,80.84 C36.69,80.93 36.68,81.01 36.68,81.11" fill="currentColor" stroke="currentColor" stroke-width="1.2" stroke-linecap="round" stroke-linejoin="round" />
  <path d="M37.95,81.12 C37.95,81.02 37.94,80.93 37.90,80.85" fill="currentColor" stroke="currentColor" stroke-width="1.2" stroke-linecap="round" stroke-linejoin="round" />
  <path d="M32.68,80.89 C32.38,80.89 32.13,80.96 31.94,81.10" fill="currentColor" stroke="currentColor" stroke-width="1.2" stroke-linecap="round" stroke-linejoin="round" />
  <path d="M25.05,81.11 C25.05,81.06 25.05,81.01 25.06,80.97" fill="currentColor" stroke="currentColor" stroke-width="1.2" stroke-linecap="round" stroke-linejoin="round" />
  <path d="M33.52,81.17 C33.41,81.07 33.29,81.00 33.15,80.95" fill="currentColor" stroke="currentColor" stroke-width="1.2" stroke-linecap="round" stroke-linejoin="round" />
  <path d="M26.19,80.99 C26.02,81.05 25.86,81.12 25.73,81.19" fill="currentColor" stroke="currentColor" stroke-width="1.2" stroke-linecap="round" stroke-linejoin="round" />
  <path d="M27.62,81.20 C27.53,81.11 27.41,81.03 27.27,80.98" fill="currentColor" stroke="currentColor" stroke-width="1.2" stroke-linecap="round" stroke-linejoin="round" />
  <path d="M25.06,81.30 C25.05,81.26 25.05,81.19 25.05,81.11" fill="currentColor" stroke="currentColor" stroke-width="1.2" stroke-linecap="round" stroke-linejoin="round" />
  <path d="M36.68,81.11 C36.68,81.21 36.69,81.31 36.72,81.39" fill="currentColor" stroke="currentColor" stroke-width="1.2" stroke-linecap="round" stroke-linejoin="round" />
  <path d="M37.90,81.39 C37.94,81.30 37.95,81.22 37.95,81.12" fill="currentColor" stroke="currentColor" stroke-width="1.2" stroke-linecap="round" stroke-linejoin="round" />
  <path d="M25.73,81.19 C25.59,81.26 25.48,81.33 25.39,81.39" fill="currentColor" stroke="currentColor" stroke-width="1.2" stroke-linecap="round" stroke-linejoin="round" />
  <path d="M19.74,81.34 C19.76,81.32 19.79,81.29 19.82,81.27" fill="currentColor" stroke="currentColor" stroke-width="1.2" stroke-linecap="round" stroke-linejoin="round" />
  <path d="M38.63,81.10 C38.63,81.27 38.60,81.44 38.53,81.59" fill="currentColor" stroke="currentColor" stroke-width="1.2" stroke-linecap="round" stroke-linejoin="round" />
  <path d="M33.79,81.55 C33.72,81.39 33.62,81.27 33.52,81.17" fill="currentColor" stroke="currentColor" stroke-width="1.2" stroke-linecap="round" stroke-linejoin="round" />
  <path d="M25.09,81.42 C25.07,81.39 25.07,81.35 25.06,81.30" fill="currentColor" stroke="currentColor" stroke-width="1.2" stroke-linecap="round" stroke-linejoin="round" />
  <path d="M27.83,81.55 C27.79,81.42 27.72,81.30 27.62,81.20" fill="currentColor" stroke="currentColor" stroke-width="1.2" stroke-linecap="round" stroke-linejoin="round" />
  <path d="M19.70,81.41 C19.71,81.38 19.72,81.36 19.74,81.34" fill="currentColor" stroke="currentColor" stroke-width="1.2" stroke-linecap="round" stroke-linejoin="round" />
  <path d="M36.11,81.64 C36.04,81.49 36.01,81.32 36.01,81.14" fill="currentColor" stroke="currentColor" stroke-width="1.2" stroke-linecap="round" stroke-linejoin="round" />
  <path d="M31.94,81.10 C31.75,81.25 31.60,81.44 31.49,81.69" fill="currentColor" stroke="currentColor" stroke-width="1.2" stroke-linecap="round" stroke-linejoin="round" />
  <path d="M25.39,81.39 C25.30,81.45 25.24,81.48 25.20,81.48" fill="currentColor" stroke="currentColor" stroke-width="1.2" stroke-linecap="round" stroke-linejoin="round" />
  <path d="M25.14,81.47 C25.12,81.46 25.10,81.44 25.09,81.42" fill="currentColor" stroke="currentColor" stroke-width="1.2" stroke-linecap="round" stroke-linejoin="round" />
  <path d="M19.67,81.52 C19.68,81.48 19.69,81.44 19.70,81.41" fill="currentColor" stroke="currentColor" stroke-width="1.2" stroke-linecap="round" stroke-linejoin="round" />
  <path d="M25.20,81.48 C25.18,81.48 25.16,81.48 25.14,81.47" fill="currentColor" stroke="currentColor" stroke-width="1.2" stroke-linecap="round" stroke-linejoin="round" />
  <path d="M28.77,81.14 C28.85,81.35 28.89,81.58 28.89,81.84" fill="currentColor" stroke="currentColor" stroke-width="1.2" stroke-linecap="round" stroke-linejoin="round" />
  <path d="M37.77,81.60 C37.83,81.54 37.87,81.47 37.90,81.39" fill="currentColor" stroke="currentColor" stroke-width="1.2" stroke-linecap="round" stroke-linejoin="round" />
  <path d="M36.72,81.39 C36.76,81.48 36.80,81.55 36.86,81.61" fill="currentColor" stroke="currentColor" stroke-width="1.2" stroke-linecap="round" stroke-linejoin="round" />
  <line x1="21.34" y1="81.16" x2="19.99" y2="81.96" fill="currentColor" stroke="currentColor" stroke-width="1.2" stroke-linecap="round" stroke-linejoin="round" />
  <path d="M19.67,81.68 C19.67,81.62 19.67,81.56 19.67,81.52" fill="currentColor" stroke="currentColor" stroke-width="1.2" stroke-linecap="round" stroke-linejoin="round" />
  <path d="M34.57,81.05 C34.75,81.35 34.88,81.73 34.96,82.17" fill="currentColor" stroke="currentColor" stroke-width="1.2" stroke-linecap="round" stroke-linejoin="round" />
  <path d="M37.58,81.75 C37.65,81.72 37.72,81.67 37.77,81.60" fill="currentColor" stroke="currentColor" stroke-width="1.2" stroke-linecap="round" stroke-linejoin="round" />
  <path d="M36.86,81.61 C36.92,81.67 36.99,81.72 37.07,81.76" fill="currentColor" stroke="currentColor" stroke-width="1.2" stroke-linecap="round" stroke-linejoin="round" />
  <path d="M30.40,82.27 C30.48,81.82 30.62,81.44 30.82,81.13" fill="currentColor" stroke="currentColor" stroke-width="1.2" stroke-linecap="round" stroke-linejoin="round" />
  <path d="M27.90,81.96 C27.90,81.81 27.88,81.68 27.83,81.55" fill="currentColor" stroke="currentColor" stroke-width="1.2" stroke-linecap="round" stroke-linejoin="round" />
  <path d="M19.68,81.88 C19.67,81.83 19.67,81.76 19.67,81.68" fill="currentColor" stroke="currentColor" stroke-width="1.2" stroke-linecap="round" stroke-linejoin="round" />
  <path d="M37.33,81.81 C37.42,81.81 37.50,81.79 37.58,81.75" fill="currentColor" stroke="currentColor" stroke-width="1.2" stroke-linecap="round" stroke-linejoin="round" />
  <path d="M37.07,81.76 C37.15,81.79 37.24,81.81 37.33,81.81" fill="currentColor" stroke="currentColor" stroke-width="1.2" stroke-linecap="round" stroke-linejoin="round" />
  <path d="M38.53,81.59 C38.47,81.75 38.37,81.88 38.25,82.00" fill="currentColor" stroke="currentColor" stroke-width="1.2" stroke-linecap="round" stroke-linejoin="round" />
  <path d="M33.98,82.09 C33.93,81.88 33.87,81.70 33.79,81.55" fill="currentColor" stroke="currentColor" stroke-width="1.2" stroke-linecap="round" stroke-linejoin="round" />
  <path d="M36.37,82.03 C36.26,81.92 36.17,81.79 36.11,81.64" fill="currentColor" stroke="currentColor" stroke-width="1.2" stroke-linecap="round" stroke-linejoin="round" />
  <path d="M19.73,82.00 C19.71,81.97 19.69,81.93 19.68,81.88" fill="currentColor" stroke="currentColor" stroke-width="1.2" stroke-linecap="round" stroke-linejoin="round" />
  <path d="M19.99,81.96 C19.93,81.99 19.87,82.01 19.83,82.02" fill="currentColor" stroke="currentColor" stroke-width="1.2" stroke-linecap="round" stroke-linejoin="round" />
  <path d="M19.83,82.02 C19.79,82.03 19.76,82.02 19.73,82.00" fill="currentColor" stroke="currentColor" stroke-width="1.2" stroke-linecap="round" stroke-linejoin="round" />
  <path d="M38.25,82.00 C38.13,82.11 37.99,82.20 37.83,82.27" fill="currentColor" stroke="currentColor" stroke-width="1.2" stroke-linecap="round" stroke-linejoin="round" />
  <path d="M31.49,81.69 C31.39,81.94 31.31,82.24 31.27,82.57" fill="currentColor" stroke="currentColor" stroke-width="1.2" stroke-linecap="round" stroke-linejoin="round" />
  <path d="M28.89,81.84 C28.89,82.06 28.86,82.26 28.81,82.45" fill="currentColor" stroke="currentColor" stroke-width="1.2" stroke-linecap="round" stroke-linejoin="round" />
  <path d="M36.78,82.28 C36.62,82.22 36.49,82.13 36.37,82.03" fill="currentColor" stroke="currentColor" stroke-width="1.2" stroke-linecap="round" stroke-linejoin="round" />
  <path d="M27.80,82.49 C27.87,82.33 27.90,82.15 27.90,81.96" fill="currentColor" stroke="currentColor" stroke-width="1.2" stroke-linecap="round" stroke-linejoin="round" />
  <path d="M37.83,82.27 C37.66,82.33 37.49,82.36 37.30,82.36" fill="currentColor" stroke="currentColor" stroke-width="1.2" stroke-linecap="round" stroke-linejoin="round" />
  <path d="M37.30,82.36 C37.11,82.36 36.94,82.34 36.78,82.28" fill="currentColor" stroke="currentColor" stroke-width="1.2" stroke-linecap="round" stroke-linejoin="round" />
  <path d="M34.09,82.82 C34.07,82.55 34.03,82.30 33.98,82.09" fill="currentColor" stroke="currentColor" stroke-width="1.2" stroke-linecap="round" stroke-linejoin="round" />
  <path d="M27.50,82.90 C27.63,82.79 27.73,82.65 27.80,82.49" fill="currentColor" stroke="currentColor" stroke-width="1.2" stroke-linecap="round" stroke-linejoin="round" />
  <path d="M28.81,82.45 C28.75,82.64 28.66,82.80 28.55,82.95" fill="currentColor" stroke="currentColor" stroke-width="1.2" stroke-linecap="round" stroke-linejoin="round" />
  <path d="M34.96,82.17 C35.04,82.61 35.07,83.12 35.07,83.69" fill="currentColor" stroke="currentColor" stroke-width="1.2" stroke-linecap="round" stroke-linejoin="round" />
  <path d="M30.27,83.72 C30.27,83.19 30.31,82.71 30.40,82.27" fill="currentColor" stroke="currentColor" stroke-width="1.2" stroke-linecap="round" stroke-linejoin="round" />
  <path d="M27.02,83.17 C27.21,83.10 27.37,83.02 27.50,82.90" fill="currentColor" stroke="currentColor" stroke-width="1.2" stroke-linecap="round" stroke-linejoin="round" />
  <path d="M31.27,82.57 C31.23,82.91 31.21,83.27 31.21,83.66" fill="currentColor" stroke="currentColor" stroke-width="1.2" stroke-linecap="round" stroke-linejoin="round" />
  <path d="M28.55,82.95 C28.44,83.09 28.31,83.22 28.15,83.32" fill="currentColor" stroke="currentColor" stroke-width="1.2" stroke-linecap="round" stroke-linejoin="round" />
  <path d="M26.38,83.26 C26.62,83.26 26.83,83.23 27.02,83.17" fill="currentColor" stroke="currentColor" stroke-width="1.2" stroke-linecap="round" stroke-linejoin="round" />
  <line x1="25.78" y1="83.26" x2="26.38" y2="83.26" fill="currentColor" stroke="currentColor" stroke-width="1.2" stroke-linecap="round" stroke-linejoin="round" />
  <path d="M25.69,83.28 C25.72,83.26 25.74,83.26 25.78,83.26" fill="currentColor" stroke="currentColor" stroke-width="1.2" stroke-linecap="round" stroke-linejoin="round" />
  <path d="M34.13,83.76 C34.13,83.41 34.12,83.10 34.09,82.82" fill="currentColor" stroke="currentColor" stroke-width="1.2" stroke-linecap="round" stroke-linejoin="round" />
  <path d="M25.62,83.33 C25.64,83.31 25.67,83.29 25.69,83.28" fill="currentColor" stroke="currentColor" stroke-width="1.2" stroke-linecap="round" stroke-linejoin="round" />
  <line x1="22.26" y1="80.33" x2="22.26" y2="86.44" fill="currentColor" stroke="currentColor" stroke-width="1.2" stroke-linecap="round" stroke-linejoin="round" />
  <path d="M25.58,83.44 C25.59,83.40 25.60,83.36 25.62,83.33" fill="currentColor" stroke="currentColor" stroke-width="1.2" stroke-linecap="round" stroke-linejoin="round" />
  <path d="M28.15,83.32 C27.99,83.42 27.80,83.49 27.59,83.53" fill="currentColor" stroke="currentColor" stroke-width="1.2" stroke-linecap="round" stroke-linejoin="round" />
  <path d="M25.56,83.61 C25.56,83.54 25.57,83.49 25.58,83.44" fill="currentColor" stroke="currentColor" stroke-width="1.2" stroke-linecap="round" stroke-linejoin="round" />
  <line x1="27.59" y1="83.53" x2="27.59" y2="83.54" fill="currentColor" stroke="currentColor" stroke-width="1.2" stroke-linecap="round" stroke-linejoin="round" />
  <path d="M27.59,83.54 C27.83,83.57 28.05,83.63 28.25,83.72" fill="currentColor" stroke="currentColor" stroke-width="1.2" stroke-linecap="round" stroke-linejoin="round" />
  <path d="M25.58,83.79 C25.57,83.75 25.56,83.69 25.56,83.61" fill="currentColor" stroke="currentColor" stroke-width="1.2" stroke-linecap="round" stroke-linejoin="round" />
  <line x1="21.34" y1="86.44" x2="21.34" y2="81.16" fill="currentColor" stroke="currentColor" stroke-width="1.2" stroke-linecap="round" stroke-linejoin="round" />
  <path d="M25.63,83.91 C25.61,83.88 25.59,83.84 25.58,83.79" fill="currentColor" stroke="currentColor" stroke-width="1.2" stroke-linecap="round" stroke-linejoin="round" />
  <path d="M28.25,83.72 C28.44,83.82 28.61,83.94 28.76,84.08" fill="currentColor" stroke="currentColor" stroke-width="1.2" stroke-linecap="round" stroke-linejoin="round" />
  <path d="M25.70,83.97 C25.67,83.96 25.65,83.94 25.63,83.91" fill="currentColor" stroke="currentColor" stroke-width="1.2" stroke-linecap="round" stroke-linejoin="round" />
  <path d="M25.78,83.99 C25.75,83.99 25.73,83.98 25.70,83.97" fill="currentColor" stroke="currentColor" stroke-width="1.2" stroke-linecap="round" stroke-linejoin="round" />
  <line x1="26.44" y1="83.99" x2="25.78" y2="83.99" fill="currentColor" stroke="currentColor" stroke-width="1.2" stroke-linecap="round" stroke-linejoin="round" />
  <path d="M27.18,84.08 C26.96,84.02 26.72,83.99 26.44,83.99" fill="currentColor" stroke="currentColor" stroke-width="1.2" stroke-linecap="round" stroke-linejoin="round" />
  <path d="M34.10,84.50 C34.12,84.26 34.13,84.01 34.13,83.76" fill="currentColor" stroke="currentColor" stroke-width="1.2" stroke-linecap="round" stroke-linejoin="round" />
  <path d="M27.73,84.34 C27.58,84.23 27.40,84.14 27.18,84.08" fill="currentColor" stroke="currentColor" stroke-width="1.2" stroke-linecap="round" stroke-linejoin="round" />
  <path d="M31.21,83.66 C31.21,84.18 31.24,84.62 31.29,84.98" fill="currentColor" stroke="currentColor" stroke-width="1.2" stroke-linecap="round" stroke-linejoin="round" />
  <path d="M28.76,84.08 C28.90,84.22 29.01,84.39 29.09,84.58" fill="currentColor" stroke="currentColor" stroke-width="1.2" stroke-linecap="round" stroke-linejoin="round" />
  <path d="M35.07,83.69 C35.07,84.23 35.03,84.71 34.95,85.15" fill="currentColor" stroke="currentColor" stroke-width="1.2" stroke-linecap="round" stroke-linejoin="round" />
  <path d="M30.38,85.25 C30.31,84.80 30.27,84.30 30.27,83.72" fill="currentColor" stroke="currentColor" stroke-width="1.2" stroke-linecap="round" stroke-linejoin="round" />
  <path d="M28.07,84.75 C27.99,84.59 27.88,84.46 27.73,84.34" fill="currentColor" stroke="currentColor" stroke-width="1.2" stroke-linecap="round" stroke-linejoin="round" />
  <path d="M34.02,85.16 C34.06,84.96 34.09,84.74 34.10,84.50" fill="currentColor" stroke="currentColor" stroke-width="1.2" stroke-linecap="round" stroke-linejoin="round" />
  <path d="M29.09,84.58 C29.18,84.77 29.21,84.98 29.21,85.20" fill="currentColor" stroke="currentColor" stroke-width="1.2" stroke-linecap="round" stroke-linejoin="round" />
  <path d="M28.18,85.28 C28.18,85.08 28.14,84.91 28.07,84.75" fill="currentColor" stroke="currentColor" stroke-width="1.2" stroke-linecap="round" stroke-linejoin="round" />
  <path d="M31.29,84.98 C31.35,85.35 31.43,85.64 31.55,85.87" fill="currentColor" stroke="currentColor" stroke-width="1.2" stroke-linecap="round" stroke-linejoin="round" />
  <path d="M33.85,85.72 C33.92,85.55 33.97,85.37 34.02,85.16" fill="currentColor" stroke="currentColor" stroke-width="1.2" stroke-linecap="round" stroke-linejoin="round" />
  <path d="M28.09,85.78 C28.15,85.63 28.18,85.46 28.18,85.28" fill="currentColor" stroke="currentColor" stroke-width="1.2" stroke-linecap="round" stroke-linejoin="round" />
  <path d="M29.21,85.20 C29.21,85.51 29.16,85.80 29.05,86.06" fill="currentColor" stroke="currentColor" stroke-width="1.2" stroke-linecap="round" stroke-linejoin="round" />
  <path d="M34.95,85.15 C34.86,85.59 34.72,85.97 34.53,86.29" fill="currentColor" stroke="currentColor" stroke-width="1.2" stroke-linecap="round" stroke-linejoin="round" />
  <path d="M30.77,86.36 C30.59,86.06 30.46,85.69 30.38,85.25" fill="currentColor" stroke="currentColor" stroke-width="1.2" stroke-linecap="round" stroke-linejoin="round" />
  <path d="M33.57,86.15 C33.68,86.03 33.77,85.89 33.85,85.72" fill="currentColor" stroke="currentColor" stroke-width="1.2" stroke-linecap="round" stroke-linejoin="round" />
  <path d="M27.82,86.17 C27.94,86.06 28.03,85.93 28.09,85.78" fill="currentColor" stroke="currentColor" stroke-width="1.2" stroke-linecap="round" stroke-linejoin="round" />
  <path d="M24.90,86.05 C24.92,86.00 24.96,85.98 25.00,85.98" fill="currentColor" stroke="currentColor" stroke-width="1.2" stroke-linecap="round" stroke-linejoin="round" />
  <path d="M25.00,85.98 C25.04,85.98 25.10,86.01 25.19,86.07" fill="currentColor" stroke="currentColor" stroke-width="1.2" stroke-linecap="round" stroke-linejoin="round" />
  <path d="M31.55,85.87 C31.66,86.10 31.81,86.27 31.99,86.37" fill="currentColor" stroke="currentColor" stroke-width="1.2" stroke-linecap="round" stroke-linejoin="round" />
  <path d="M25.19,86.07 C25.29,86.12 25.41,86.18 25.56,86.25" fill="currentColor" stroke="currentColor" stroke-width="1.2" stroke-linecap="round" stroke-linejoin="round" />
  <path d="M24.86,86.32 C24.86,86.19 24.87,86.10 24.90,86.05" fill="currentColor" stroke="currentColor" stroke-width="1.2" stroke-linecap="round" stroke-linejoin="round" />
  <path d="M33.18,86.43 C33.33,86.37 33.46,86.27 33.57,86.15" fill="currentColor" stroke="currentColor" stroke-width="1.2" stroke-linecap="round" stroke-linejoin="round" />
  <path d="M27.37,86.43 C27.55,86.37 27.70,86.28 27.82,86.17" fill="currentColor" stroke="currentColor" stroke-width="1.2" stroke-linecap="round" stroke-linejoin="round" />
  <path d="M25.56,86.25 C25.71,86.32 25.88,86.38 26.08,86.44" fill="currentColor" stroke="currentColor" stroke-width="1.2" stroke-linecap="round" stroke-linejoin="round" />
  <path d="M29.05,86.06 C28.94,86.31 28.78,86.53 28.57,86.72" fill="currentColor" stroke="currentColor" stroke-width="1.2" stroke-linecap="round" stroke-linejoin="round" />
  <path d="M24.87,86.51 C24.86,86.46 24.86,86.40 24.86,86.32" fill="currentColor" stroke="currentColor" stroke-width="1.2" stroke-linecap="round" stroke-linejoin="round" />
  <line x1="19.89" y1="86.44" x2="21.34" y2="86.44" fill="currentColor" stroke="currentColor" stroke-width="1.2" stroke-linecap="round" stroke-linejoin="round" />
  <line x1="22.26" y1="86.44" x2="23.52" y2="86.44" fill="currentColor" stroke="currentColor" stroke-width="1.2" stroke-linecap="round" stroke-linejoin="round" />
  <path d="M31.99,86.37 C32.18,86.48 32.40,86.53 32.65,86.53" fill="currentColor" stroke="currentColor" stroke-width="1.2" stroke-linecap="round" stroke-linejoin="round" />
  <path d="M19.81,86.46 C19.83,86.45 19.86,86.44 19.89,86.44" fill="currentColor" stroke="currentColor" stroke-width="1.2" stroke-linecap="round" stroke-linejoin="round" />
  <path d="M23.52,86.44 C23.55,86.44 23.57,86.45 23.60,86.46" fill="currentColor" stroke="currentColor" stroke-width="1.2" stroke-linecap="round" stroke-linejoin="round" />
  <path d="M26.74,86.52 C26.98,86.52 27.19,86.49 27.37,86.43" fill="currentColor" stroke="currentColor" stroke-width="1.2" stroke-linecap="round" stroke-linejoin="round" />
  <path d="M26.08,86.44 C26.28,86.49 26.50,86.52 26.74,86.52" fill="currentColor" stroke="currentColor" stroke-width="1.2" stroke-linecap="round" stroke-linejoin="round" />
  <path d="M32.65,86.53 C32.85,86.53 33.03,86.50 33.18,86.43" fill="currentColor" stroke="currentColor" stroke-width="1.2" stroke-linecap="round" stroke-linejoin="round" />
  <path d="M19.75,86.53 C19.76,86.50 19.79,86.48 19.81,86.46" fill="currentColor" stroke="currentColor" stroke-width="1.2" stroke-linecap="round" stroke-linejoin="round" />
  <path d="M23.60,86.46 C23.62,86.48 23.64,86.50 23.66,86.53" fill="currentColor" stroke="currentColor" stroke-width="1.2" stroke-linecap="round" stroke-linejoin="round" />
  <path d="M24.89,86.65 C24.88,86.61 24.87,86.57 24.87,86.51" fill="currentColor" stroke="currentColor" stroke-width="1.2" stroke-linecap="round" stroke-linejoin="round" />
  <path d="M19.71,86.65 C19.72,86.60 19.73,86.56 19.75,86.53" fill="currentColor" stroke="currentColor" stroke-width="1.2" stroke-linecap="round" stroke-linejoin="round" />
  <path d="M23.66,86.53 C23.68,86.56 23.69,86.60 23.70,86.65" fill="currentColor" stroke="currentColor" stroke-width="1.2" stroke-linecap="round" stroke-linejoin="round" />
  <path d="M38.42,89.38 C42.66,84.41 50.14,83.81 55.11,88.05" fill="none" stroke="currentColor" stroke-width="1.000000011920929" stroke-linecap="round" stroke-linejoin="round" />
  <path d="M34.53,86.29 C34.33,86.61 34.08,86.85 33.76,87.02" fill="currentColor" stroke="currentColor" stroke-width="1.2" stroke-linecap="round" stroke-linejoin="round" />
  <path d="M24.93,86.74 C24.91,86.71 24.90,86.68 24.89,86.65" fill="currentColor" stroke="currentColor" stroke-width="1.2" stroke-linecap="round" stroke-linejoin="round" />
  <path d="M31.49,87.05 C31.20,86.90 30.96,86.67 30.77,86.36" fill="currentColor" stroke="currentColor" stroke-width="1.2" stroke-linecap="round" stroke-linejoin="round" />
  <path d="M19.69,86.82 C19.69,86.75 19.70,86.70 19.71,86.65" fill="currentColor" stroke="currentColor" stroke-width="1.2" stroke-linecap="round" stroke-linejoin="round" />
  <path d="M23.70,86.65 C23.71,86.70 23.71,86.75 23.71,86.82" fill="currentColor" stroke="currentColor" stroke-width="1.2" stroke-linecap="round" stroke-linejoin="round" />
  <path d="M24.99,86.81 C24.96,86.79 24.94,86.76 24.93,86.74" fill="currentColor" stroke="currentColor" stroke-width="1.2" stroke-linecap="round" stroke-linejoin="round" />
  <path d="M25.19,86.93 C25.08,86.88 25.02,86.84 24.99,86.81" fill="currentColor" stroke="currentColor" stroke-width="1.2" stroke-linecap="round" stroke-linejoin="round" />
  <path d="M23.71,86.82 C23.71,86.88 23.70,86.94 23.69,86.99" fill="currentColor" stroke="currentColor" stroke-width="1.2" stroke-linecap="round" stroke-linejoin="round" />
  <path d="M19.71,86.99 C19.70,86.94 19.69,86.88 19.69,86.82" fill="currentColor" stroke="currentColor" stroke-width="1.2" stroke-linecap="round" stroke-linejoin="round" />
  <path d="M28.57,86.72 C28.36,86.90 28.11,87.04 27.80,87.14" fill="currentColor" stroke="currentColor" stroke-width="1.2" stroke-linecap="round" stroke-linejoin="round" />
  <path d="M25.58,87.09 C25.42,87.04 25.29,86.99 25.19,86.93" fill="currentColor" stroke="currentColor" stroke-width="1.2" stroke-linecap="round" stroke-linejoin="round" />
  <path d="M23.69,86.99 C23.68,87.03 23.67,87.07 23.65,87.10" fill="currentColor" stroke="currentColor" stroke-width="1.2" stroke-linecap="round" stroke-linejoin="round" />
  <path d="M19.75,87.10 C19.73,87.07 19.72,87.03 19.71,86.99" fill="currentColor" stroke="currentColor" stroke-width="1.2" stroke-linecap="round" stroke-linejoin="round" />
  <path d="M23.65,87.10 C23.63,87.13 23.61,87.15 23.59,87.16" fill="currentColor" stroke="currentColor" stroke-width="1.2" stroke-linecap="round" stroke-linejoin="round" />
  <path d="M19.82,87.16 C19.79,87.15 19.77,87.13 19.75,87.10" fill="currentColor" stroke="currentColor" stroke-width="1.2" stroke-linecap="round" stroke-linejoin="round" />
  <path d="M33.76,87.02 C33.45,87.20 33.06,87.28 32.60,87.28" fill="currentColor" stroke="currentColor" stroke-width="1.2" stroke-linecap="round" stroke-linejoin="round" />
  <path d="M26.12,87.23 C25.92,87.19 25.74,87.15 25.58,87.09" fill="currentColor" stroke="currentColor" stroke-width="1.2" stroke-linecap="round" stroke-linejoin="round" />
  <path d="M32.60,87.28 C32.16,87.28 31.79,87.21 31.49,87.05" fill="currentColor" stroke="currentColor" stroke-width="1.2" stroke-linecap="round" stroke-linejoin="round" />
  <path d="M23.59,87.16 C23.57,87.18 23.54,87.18 23.52,87.18" fill="currentColor" stroke="currentColor" stroke-width="1.2" stroke-linecap="round" stroke-linejoin="round" />
  <path d="M19.89,87.18 C19.86,87.18 19.84,87.18 19.82,87.16" fill="currentColor" stroke="currentColor" stroke-width="1.2" stroke-linecap="round" stroke-linejoin="round" />
  <line x1="23.52" y1="87.18" x2="19.89" y2="87.18" fill="currentColor" stroke="currentColor" stroke-width="1.2" stroke-linecap="round" stroke-linejoin="round" />
  <path d="M27.80,87.14 C27.50,87.24 27.15,87.28 26.77,87.28" fill="currentColor" stroke="currentColor" stroke-width="1.2" stroke-linecap="round" stroke-linejoin="round" />
  <path d="M26.77,87.28 C26.54,87.28 26.32,87.27 26.12,87.23" fill="currentColor" stroke="currentColor" stroke-width="1.2" stroke-linecap="round" stroke-linejoin="round" />
  <path d="M55.11,88.05 C55.34,88.24 55.56,88.44 55.77,88.65" fill="none" stroke="currentColor" stroke-width="1.000000011920929" stroke-linecap="round" stroke-linejoin="round" />
  <line x1="55.77" y1="88.65" x2="47.72" y2="97.06" fill="none" stroke="currentColor" stroke-width="1.000000011920929" stroke-linecap="round" stroke-linejoin="round" />
  <path d="M35.60,97.06 C35.60,94.34 36.52,91.61 38.42,89.38" fill="none" stroke="currentColor" stroke-width="1.000000011920929" stroke-linecap="round" stroke-linejoin="round" />
  <line x1="47.72" y1="97.06" x2="35.60" y2="97.06" fill="none" stroke="currentColor" stroke-width="1.000000011920929" stroke-linecap="round" stroke-linejoin="round" />
  <line x1="47.67" y1="97.06" x2="187.35" y2="97.06" fill="none" stroke="currentColor" stroke-width="1.4000000476837158" stroke-linecap="round" stroke-linejoin="round" />
  <line x1="8.00" y1="97.06" x2="227.02" y2="97.06" fill="none" stroke="currentColor" stroke-width="1.4000000476837158" stroke-linecap="round" stroke-linejoin="round" />
</svg>