<svg xmlns="http://www.w3.org/2000/svg" viewBox="0 0 222.18 106.53" preserveAspectRatio="xMidYMid meet" shape-rendering="geometricPrecision" text-rendering="optimizeLegibility">
  <line x1="30.28" y1="25.56" x2="28.39" y2="25.56" fill="currentColor" stroke="currentColor" stroke-width="1.2" stroke-linecap="round" stroke-linejoin="round" />
  <path d="M31.59,25.82 C31.23,25.64 30.79,25.56 30.28,25.56" fill="currentColor" stroke="currentColor" stroke-width="1.2" stroke-linecap="round" stroke-linejoin="round" />
  <path d="M32.45,26.54 C32.25,26.23 31.96,25.98 31.59,25.82" fill="currentColor" stroke="currentColor" stroke-width="1.2" stroke-linecap="round" stroke-linejoin="round" />
  <line x1="29.47" y1="26.48" x2="30.16" y2="26.48" fill="currentColor" stroke="currentColor" stroke-width="1.2" stroke-linecap="round" stroke-linejoin="round" />
  <path d="M30.16,26.48 C30.51,26.48 30.79,26.53 31.00,26.62" fill="currentColor" stroke="currentColor" stroke-width="1.2" stroke-linecap="round" stroke-linejoin="round" />
  <path d="M31.00,26.62 C31.22,26.71 31.38,26.84 31.48,27.01" fill="currentColor" stroke="currentColor" stroke-width="1.2" stroke-linecap="round" stroke-linejoin="round" />
  <path d="M32.75,27.66 C32.75,27.22 32.64,26.85 32.45,26.54" fill="currentColor" stroke="currentColor" stroke-width="1.2" stroke-linecap="round" stroke-linejoin="round" />
  <path d="M31.48,27.01 C31.58,27.18 31.63,27.38 31.64,27.61" fill="currentColor" stroke="currentColor" stroke-width="1.2" stroke-linecap="round" stroke-linejoin="round" />
  <path d="M31.64,27.61 C31.64,27.83 31.60,28.02 31.52,28.21" fill="currentColor" stroke="currentColor" stroke-width="1.2" stroke-linecap="round" stroke-linejoin="round" />
  <path d="M32.42,28.78 C32.64,28.47 32.75,28.09 32.75,27.66" fill="currentColor" stroke="currentColor" stroke-width="1.2" stroke-linecap="round" stroke-linejoin="round" />
  <path d="M31.52,28.21 C31.43,28.39 31.27,28.54 31.06,28.66" fill="currentColor" stroke="currentColor" stroke-width="1.2" stroke-linecap="round" stroke-linejoin="round" />
  <path d="M31.06,28.66 C30.84,28.77 30.54,28.83 30.16,28.84" fill="currentColor" stroke="currentColor" stroke-width="1.2" stroke-linecap="round" stroke-linejoin="round" />
  <line x1="30.16" y1="28.84" x2="29.47" y2="28.84" fill="currentColor" stroke="currentColor" stroke-width="1.2" stroke-linecap="round" stroke-linejoin="round" />
  <path d="M31.49,29.49 C31.89,29.33 32.21,29.09 32.42,28.78" fill="currentColor" stroke="currentColor" stroke-width="1.2" stroke-linecap="round" stroke-linejoin="round" />
  <line x1="28.39" y1="25.56" x2="28.39" y2="33.06" fill="currentColor" stroke="currentColor" stroke-width="1.2" stroke-linecap="round" stroke-linejoin="round" />
  <path d="M32.10,30.02 C31.92,29.82 31.72,29.64 31.49,29.49" fill="currentColor" stroke="currentColor" stroke-width="1.2" stroke-linecap="round" stroke-linejoin="round" />
  <line x1="29.47" y1="29.80" x2="29.92" y2="29.80" fill="currentColor" stroke="currentColor" stroke-width="1.2" stroke-linecap="round" stroke-linejoin="round" />
  <path d="M29.92,29.80 C30.06,29.80 30.19,29.82 30.32,29.85" fill="currentColor" stroke="currentColor" stroke-width="1.2" stroke-linecap="round" stroke-linejoin="round" />
  <path d="M30.32,29.85 C30.46,29.89 30.60,29.97 30.75,30.08" fill="currentColor" stroke="currentColor" stroke-width="1.2" stroke-linecap="round" stroke-linejoin="round" />
  <path d="M30.75,30.08 C30.90,30.20 31.07,30.37 31.26,30.60" fill="currentColor" stroke="currentColor" stroke-width="1.2" stroke-linecap="round" stroke-linejoin="round" />
  <path d="M32.63,30.72 C32.46,30.46 32.28,30.23 32.10,30.02" fill="currentColor" stroke="currentColor" stroke-width="1.2" stroke-linecap="round" stroke-linejoin="round" />
  <line x1="94.26" y1="30.77" x2="93.30" y2="30.77" fill="currentColor" stroke="currentColor" stroke-width="1.2" stroke-linecap="round" stroke-linejoin="round" />
  <line x1="36.15" y1="30.91" x2="35.93" y2="30.91" fill="currentColor" stroke="currentColor" stroke-width="1.2" stroke-linecap="round" stroke-linejoin="round" />
  <path d="M31.26,30.60 C31.45,30.83 31.66,31.14 31.91,31.52" fill="currentColor" stroke="currentColor" stroke-width="1.2" stroke-linecap="round" stroke-linejoin="round" />
  <path d="M33.16,31.57 C32.98,31.26 32.80,30.98 32.63,30.72" fill="currentColor" stroke="currentColor" stroke-width="1.2" stroke-linecap="round" stroke-linejoin="round" />
  <line x1="29.47" y1="33.06" x2="29.47" y2="29.80" fill="currentColor" stroke="currentColor" stroke-width="1.2" stroke-linecap="round" stroke-linejoin="round" />
  <line x1="35.93" y1="30.91" x2="34.54" y2="32.06" fill="currentColor" stroke="currentColor" stroke-width="1.2" stroke-linecap="round" stroke-linejoin="round" />
  <path d="M33.39,31.92 C33.32,31.82 33.24,31.70 33.16,31.57" fill="currentColor" stroke="currentColor" stroke-width="1.2" stroke-linecap="round" stroke-linejoin="round" />
  <path d="M33.60,32.24 C33.53,32.14 33.46,32.03 33.39,31.92" fill="currentColor" stroke="currentColor" stroke-width="1.2" stroke-linecap="round" stroke-linejoin="round" />
  <line x1="93.84" y1="33.71" x2="94.26" y2="30.77" fill="currentColor" stroke="currentColor" stroke-width="1.2" stroke-linecap="round" stroke-linejoin="round" />
  <line x1="34.76" y1="32.56" x2="35.54" y2="31.92" fill="currentColor" stroke="currentColor" stroke-width="1.2" stroke-linecap="round" stroke-linejoin="round" />
  <line x1="31.91" y1="31.52" x2="32.90" y2="33.06" fill="currentColor" stroke="currentColor" stroke-width="1.2" stroke-linecap="round" stroke-linejoin="round" />
  <line x1="34.54" y1="32.06" x2="34.76" y2="32.56" fill="currentColor" stroke="currentColor" stroke-width="1.2" stroke-linecap="round" stroke-linejoin="round" />
  <path d="M33.85,32.60 C33.76,32.47 33.68,32.35 33.60,32.24" fill="currentColor" stroke="currentColor" stroke-width="1.2" stroke-linecap="round" stroke-linejoin="round" />
  <path d="M34.19,33.06 C34.06,32.88 33.95,32.73 33.85,32.60" fill="currentColor" stroke="currentColor" stroke-width="1.2" stroke-linecap="round" stroke-linejoin="round" />
  <line x1="36.15" y1="35.06" x2="36.15" y2="30.91" fill="currentColor" stroke="currentColor" stroke-width="1.2" stroke-linecap="round" stroke-linejoin="round" />
  <line x1="28.39" y1="33.06" x2="29.47" y2="33.06" fill="currentColor" stroke="currentColor" stroke-width="1.2" stroke-linecap="round" stroke-linejoin="round" />
  <line x1="32.90" y1="33.06" x2="34.19" y2="33.06" fill="currentColor" stroke="currentColor" stroke-width="1.2" stroke-linecap="round" stroke-linejoin="round" />
  <path d="M95.06,33.18 C94.83,33.18 94.62,33.22 94.44,33.30" fill="currentColor" stroke="currentColor" stroke-width="1.2" stroke-linecap="round" stroke-linejoin="round" />
  <path d="M95.97,33.47 C95.71,33.28 95.41,33.18 95.06,33.18" fill="currentColor" stroke="currentColor" stroke-width="1.2" stroke-linecap="round" stroke-linejoin="round" />
  <line x1="35.54" y1="31.92" x2="35.54" y2="35.06" fill="currentColor" stroke="currentColor" stroke-width="1.2" stroke-linecap="round" stroke-linejoin="round" />
  <path d="M94.44,33.30 C94.25,33.39 94.06,33.53 93.86,33.73" fill="currentColor" stroke="currentColor" stroke-width="1.2" stroke-linecap="round" stroke-linejoin="round" />
  <line x1="93.86" y1="33.73" x2="93.84" y2="33.71" fill="currentColor" stroke="currentColor" stroke-width="1.2" stroke-linecap="round" stroke-linejoin="round" />
  <path d="M96.57,34.26 C96.43,33.92 96.23,33.66 95.97,33.47" fill="currentColor" stroke="currentColor" stroke-width="1.2" stroke-linecap="round" stroke-linejoin="round" />
  <path d="M94.49,34.03 C94.60,34.00 94.69,33.99 94.77,33.99" fill="currentColor" stroke="currentColor" stroke-width="1.2" stroke-linecap="round" stroke-linejoin="round" />
  <path d="M94.15,34.15 C94.27,34.10 94.38,34.06 94.49,34.03" fill="currentColor" stroke="currentColor" stroke-width="1.2" stroke-linecap="round" stroke-linejoin="round" />
  <path d="M94.77,33.99 C95.10,34.00 95.37,34.12 95.56,34.36" fill="currentColor" stroke="currentColor" stroke-width="1.2" stroke-linecap="round" stroke-linejoin="round" />
  <path d="M93.87,34.34 C93.95,34.27 94.04,34.20 94.15,34.15" fill="currentColor" stroke="currentColor" stroke-width="1.2" stroke-linecap="round" stroke-linejoin="round" />
  <path d="M93.72,34.62 C93.73,34.52 93.79,34.42 93.87,34.34" fill="currentColor" stroke="currentColor" stroke-width="1.2" stroke-linecap="round" stroke-linejoin="round" />
  <line x1="93.30" y1="30.77" x2="92.28" y2="38.35" fill="currentColor" stroke="currentColor" stroke-width="1.2" stroke-linecap="round" stroke-linejoin="round" />
  <path d="M96.80,35.43 C96.79,34.99 96.72,34.59 96.57,34.26" fill="currentColor" stroke="currentColor" stroke-width="1.2" stroke-linecap="round" stroke-linejoin="round" />
  <path d="M95.56,34.36 C95.74,34.61 95.84,34.96 95.84,35.41" fill="currentColor" stroke="currentColor" stroke-width="1.2" stroke-linecap="round" stroke-linejoin="round" />
  <line x1="149.62" y1="34.96" x2="147.73" y2="34.96" fill="currentColor" stroke="currentColor" stroke-width="1.2" stroke-linecap="round" stroke-linejoin="round" />
  <path d="M150.93,35.22 C150.57,35.05 150.13,34.96 149.62,34.96" fill="currentColor" stroke="currentColor" stroke-width="1.2" stroke-linecap="round" stroke-linejoin="round" />
  <rect x="8.00" y="8.10" width="79.40" height="54.68" fill="none" stroke="currentColor" stroke-width="1.6" stroke-linecap="round" stroke-linejoin="round" />
  <path d="M151.79,35.94 C151.59,35.63 151.30,35.39 150.93,35.22" fill="currentColor" stroke="currentColor" stroke-width="1.2" stroke-linecap="round" stroke-linejoin="round" />
  <path d="M96.70,36.25 C96.77,35.97 96.80,35.70 96.80,35.43" fill="currentColor" stroke="currentColor" stroke-width="1.2" stroke-linecap="round" stroke-linejoin="round" />
  <line x1="148.81" y1="35.88" x2="149.50" y2="35.88" fill="currentColor" stroke="currentColor" stroke-width="1.2" stroke-linecap="round" stroke-linejoin="round" />
  <path d="M149.50,35.88 C149.85,35.88 150.13,35.93 150.34,36.02" fill="currentColor" stroke="currentColor" stroke-width="1.2" stroke-linecap="round" stroke-linejoin="round" />
  <path d="M95.84,35.41 C95.84,35.86 95.76,36.25 95.60,36.58" fill="currentColor" stroke="currentColor" stroke-width="1.2" stroke-linecap="round" stroke-linejoin="round" />
  <line x1="93.29" y1="37.65" x2="93.72" y2="34.62" fill="currentColor" stroke="currentColor" stroke-width="1.2" stroke-linecap="round" stroke-linejoin="round" />
  <path d="M150.34,36.02 C150.56,36.11 150.72,36.24 150.82,36.41" fill="currentColor" stroke="currentColor" stroke-width="1.2" stroke-linecap="round" stroke-linejoin="round" />
  <path d="M152.09,37.06 C152.09,36.63 151.98,36.25 151.79,35.94" fill="currentColor" stroke="currentColor" stroke-width="1.2" stroke-linecap="round" stroke-linejoin="round" />
  <path d="M96.38,37.06 C96.53,36.80 96.64,36.53 96.70,36.25" fill="currentColor" stroke="currentColor" stroke-width="1.2" stroke-linecap="round" stroke-linejoin="round" />
  <path d="M150.82,36.41 C150.92,36.58 150.97,36.78 150.98,37.02" fill="currentColor" stroke="currentColor" stroke-width="1.2" stroke-linecap="round" stroke-linejoin="round" />
  <path d="M95.60,36.58 C95.44,36.92 95.21,37.18 94.91,37.37" fill="currentColor" stroke="currentColor" stroke-width="1.2" stroke-linecap="round" stroke-linejoin="round" />
  <path d="M150.98,37.02 C150.98,37.23 150.94,37.43 150.86,37.61" fill="currentColor" stroke="currentColor" stroke-width="1.2" stroke-linecap="round" stroke-linejoin="round" />
  <path d="M95.79,37.75 C96.04,37.54 96.23,37.31 96.38,37.06" fill="currentColor" stroke="currentColor" stroke-width="1.2" stroke-linecap="round" stroke-linejoin="round" />
  <path d="M94.91,37.37 C94.60,37.56 94.24,37.65 93.81,37.65" fill="currentColor" stroke="currentColor" stroke-width="1.2" stroke-linecap="round" stroke-linejoin="round" />
  <path d="M151.76,38.18 C151.98,37.87 152.09,37.50 152.09,37.06" fill="currentColor" stroke="currentColor" stroke-width="1.2" stroke-linecap="round" stroke-linejoin="round" />
  <path d="M150.86,37.61 C150.77,37.79 150.61,37.95 150.40,38.06" fill="currentColor" stroke="currentColor" stroke-width="1.2" stroke-linecap="round" stroke-linejoin="round" />
  <path d="M94.88,38.24 C95.24,38.12 95.54,37.96 95.79,37.75" fill="currentColor" stroke="currentColor" stroke-width="1.2" stroke-linecap="round" stroke-linejoin="round" />
  <path d="M150.40,38.06 C150.18,38.17 149.88,38.23 149.50,38.23" fill="currentColor" stroke="currentColor" stroke-width="1.2" stroke-linecap="round" stroke-linejoin="round" />
  <line x1="149.50" y1="38.23" x2="148.81" y2="38.23" fill="currentColor" stroke="currentColor" stroke-width="1.2" stroke-linecap="round" stroke-linejoin="round" />
  <path d="M93.59,38.42 C94.08,38.42 94.51,38.36 94.88,38.24" fill="currentColor" stroke="currentColor" stroke-width="1.2" stroke-linecap="round" stroke-linejoin="round" />
  <path d="M92.28,38.35 C92.38,38.36 92.50,38.38 92.64,38.39" fill="currentColor" stroke="currentColor" stroke-width="1.2" stroke-linecap="round" stroke-linejoin="round" />
  <path d="M92.64,38.39 C92.78,38.40 92.93,38.41 93.10,38.41" fill="currentColor" stroke="currentColor" stroke-width="1.2" stroke-linecap="round" stroke-linejoin="round" />
  <path d="M93.10,38.41 C93.26,38.42 93.43,38.42 93.59,38.42" fill="currentColor" stroke="currentColor" stroke-width="1.2" stroke-linecap="round" stroke-linejoin="round" />
  <path d="M150.83,38.89 C151.23,38.73 151.55,38.50 151.76,38.18" fill="currentColor" stroke="currentColor" stroke-width="1.2" stroke-linecap="round" stroke-linejoin="round" />
  <line x1="147.73" y1="34.96" x2="147.73" y2="42.46" fill="currentColor" stroke="currentColor" stroke-width="1.2" stroke-linecap="round" stroke-linejoin="round" />
  <path d="M151.44,39.43 C151.26,39.22 151.06,39.04 150.83,38.89" fill="currentColor" stroke="currentColor" stroke-width="1.2" stroke-linecap="round" stroke-linejoin="round" />
  <line x1="148.81" y1="39.20" x2="149.26" y2="39.20" fill="currentColor" stroke="currentColor" stroke-width="1.2" stroke-linecap="round" stroke-linejoin="round" />
  <path d="M149.26,39.20 C149.39,39.20 149.53,39.22 149.66,39.25" fill="currentColor" stroke="currentColor" stroke-width="1.2" stroke-linecap="round" stroke-linejoin="round" />
  <path d="M149.66,39.25 C149.80,39.29 149.94,39.37 150.09,39.48" fill="currentColor" stroke="currentColor" stroke-width="1.2" stroke-linecap="round" stroke-linejoin="round" />
  <path d="M150.09,39.48 C150.24,39.60 150.41,39.77 150.60,40.00" fill="currentColor" stroke="currentColor" stroke-width="1.2" stroke-linecap="round" stroke-linejoin="round" />
  <path d="M151.97,40.12 C151.80,39.86 151.62,39.63 151.44,39.43" fill="currentColor" stroke="currentColor" stroke-width="1.2" stroke-linecap="round" stroke-linejoin="round" />
  <path d="M154.78,40.31 C154.62,40.31 154.46,40.35 154.30,40.41" fill="currentColor" stroke="currentColor" stroke-width="1.2" stroke-linecap="round" stroke-linejoin="round" />
  <path d="M155.43,40.48 C155.25,40.37 155.03,40.32 154.78,40.31" fill="currentColor" stroke="currentColor" stroke-width="1.2" stroke-linecap="round" stroke-linejoin="round" />
  <path d="M150.60,40.00 C150.79,40.23 151.00,40.54 151.25,40.92" fill="currentColor" stroke="currentColor" stroke-width="1.2" stroke-linecap="round" stroke-linejoin="round" />
  <path d="M152.50,40.97 C152.32,40.66 152.14,40.38 151.97,40.12" fill="currentColor" stroke="currentColor" stroke-width="1.2" stroke-linecap="round" stroke-linejoin="round" />
  <path d="M154.30,40.41 C154.14,40.47 153.98,40.57 153.82,40.70" fill="currentColor" stroke="currentColor" stroke-width="1.2" stroke-linecap="round" stroke-linejoin="round" />
  <path d="M155.87,40.92 C155.77,40.73 155.62,40.58 155.43,40.48" fill="currentColor" stroke="currentColor" stroke-width="1.2" stroke-linecap="round" stroke-linejoin="round" />
  <line x1="148.81" y1="42.46" x2="148.81" y2="39.20" fill="currentColor" stroke="currentColor" stroke-width="1.2" stroke-linecap="round" stroke-linejoin="round" />
  <path d="M154.44,40.94 C154.54,40.91 154.64,40.89 154.74,40.89" fill="currentColor" stroke="currentColor" stroke-width="1.2" stroke-linecap="round" stroke-linejoin="round" />
  <path d="M154.74,40.89 C154.88,40.89 155.00,40.92 155.10,40.99" fill="currentColor" stroke="currentColor" stroke-width="1.2" stroke-linecap="round" stroke-linejoin="round" />
  <path d="M154.14,41.11 C154.24,41.03 154.34,40.97 154.44,40.94" fill="currentColor" stroke="currentColor" stroke-width="1.2" stroke-linecap="round" stroke-linejoin="round" />
  <line x1="153.82" y1="40.70" x2="153.82" y2="41.44" fill="currentColor" stroke="currentColor" stroke-width="1.2" stroke-linecap="round" stroke-linejoin="round" />
  <path d="M155.10,40.99 C155.20,41.06 155.29,41.14 155.35,41.26" fill="currentColor" stroke="currentColor" stroke-width="1.2" stroke-linecap="round" stroke-linejoin="round" />
  <path d="M211.85,41.09 C211.57,41.09 211.32,41.11 211.09,41.16" fill="currentColor" stroke="currentColor" stroke-width="1.2" stroke-linecap="round" stroke-linejoin="round" />
  <path d="M152.73,41.32 C152.66,41.22 152.58,41.10 152.50,40.97" fill="currentColor" stroke="currentColor" stroke-width="1.2" stroke-linecap="round" stroke-linejoin="round" />
  <line x1="194.13" y1="41.19" x2="193.18" y2="41.19" fill="currentColor" stroke="currentColor" stroke-width="1.2" stroke-linecap="round" stroke-linejoin="round" />
  <path d="M213.02,41.33 C212.69,41.17 212.30,41.09 211.85,41.09" fill="currentColor" stroke="currentColor" stroke-width="1.2" stroke-linecap="round" stroke-linejoin="round" />
  <path d="M156.03,41.59 C156.03,41.34 155.97,41.11 155.87,40.92" fill="currentColor" stroke="currentColor" stroke-width="1.2" stroke-linecap="round" stroke-linejoin="round" />
  <path d="M153.82,41.44 C153.93,41.30 154.03,41.19 154.14,41.11" fill="currentColor" stroke="currentColor" stroke-width="1.2" stroke-linecap="round" stroke-linejoin="round" />
  <path d="M211.09,41.16 C210.86,41.22 210.63,41.30 210.41,41.41" fill="currentColor" stroke="currentColor" stroke-width="1.2" stroke-linecap="round" stroke-linejoin="round" />
  <path d="M155.35,41.26 C155.41,41.37 155.44,41.50 155.44,41.66" fill="currentColor" stroke="currentColor" stroke-width="1.2" stroke-linecap="round" stroke-linejoin="round" />
  <path d="M152.94,41.64 C152.87,41.54 152.80,41.43 152.73,41.32" fill="currentColor" stroke="currentColor" stroke-width="1.2" stroke-linecap="round" stroke-linejoin="round" />
  <path d="M213.79,42.01 C213.61,41.72 213.35,41.49 213.02,41.33" fill="currentColor" stroke="currentColor" stroke-width="1.2" stroke-linecap="round" stroke-linejoin="round" />
  <line x1="151.25" y1="40.92" x2="152.24" y2="42.46" fill="currentColor" stroke="currentColor" stroke-width="1.2" stroke-linecap="round" stroke-linejoin="round" />
  <path d="M155.44,41.66 C155.44,41.77 155.43,41.87 155.41,41.96" fill="currentColor" stroke="currentColor" stroke-width="1.2" stroke-linecap="round" stroke-linejoin="round" />
  <path d="M153.20,42.00 C153.10,41.87 153.02,41.75 152.94,41.64" fill="currentColor" stroke="currentColor" stroke-width="1.2" stroke-linecap="round" stroke-linejoin="round" />
  <path d="M155.96,42.08 C156.00,41.92 156.03,41.75 156.03,41.59" fill="currentColor" stroke="currentColor" stroke-width="1.2" stroke-linecap="round" stroke-linejoin="round" />
  <path d="M155.41,41.96 C155.39,42.06 155.36,42.14 155.31,42.23" fill="currentColor" stroke="currentColor" stroke-width="1.2" stroke-linecap="round" stroke-linejoin="round" />
  <path d="M211.29,42.14 C211.42,42.12 211.55,42.11 211.69,42.11" fill="currentColor" stroke="currentColor" stroke-width="1.2" stroke-linecap="round" stroke-linejoin="round" />
  <path d="M211.69,42.11 C211.95,42.11 212.18,42.16 212.38,42.25" fill="currentColor" stroke="currentColor" stroke-width="1.2" stroke-linecap="round" stroke-linejoin="round" />
  <path d="M210.88,42.25 C211.02,42.20 211.16,42.16 211.29,42.14" fill="currentColor" stroke="currentColor" stroke-width="1.2" stroke-linecap="round" stroke-linejoin="round" />
  <path d="M153.53,42.46 C153.40,42.28 153.29,42.13 153.20,42.00" fill="currentColor" stroke="currentColor" stroke-width="1.2" stroke-linecap="round" stroke-linejoin="round" />
  <path d="M155.73,42.59 C155.84,42.41 155.91,42.24 155.96,42.08" fill="currentColor" stroke="currentColor" stroke-width="1.2" stroke-linecap="round" stroke-linejoin="round" />
  <path d="M210.41,42.43 C210.58,42.36 210.74,42.29 210.88,42.25" fill="currentColor" stroke="currentColor" stroke-width="1.2" stroke-linecap="round" stroke-linejoin="round" />
  <path d="M155.31,42.23 C155.27,42.32 155.22,42.43 155.15,42.53" fill="currentColor" stroke="currentColor" stroke-width="1.2" stroke-linecap="round" stroke-linejoin="round" />
  <path d="M212.38,42.25 C212.57,42.34 212.72,42.47 212.82,42.64" fill="currentColor" stroke="currentColor" stroke-width="1.2" stroke-linecap="round" stroke-linejoin="round" />
  <line x1="147.73" y1="42.46" x2="148.81" y2="42.46" fill="currentColor" stroke="currentColor" stroke-width="1.2" stroke-linecap="round" stroke-linejoin="round" />
  <line x1="152.24" y1="42.46" x2="153.53" y2="42.46" fill="currentColor" stroke="currentColor" stroke-width="1.2" stroke-linecap="round" stroke-linejoin="round" />
  <path d="M214.06,43.05 C214.06,42.65 213.97,42.31 213.79,42.01" fill="currentColor" stroke="currentColor" stroke-width="1.2" stroke-linecap="round" stroke-linejoin="round" />
  <line x1="193.71" y1="44.13" x2="194.13" y2="41.19" fill="currentColor" stroke="currentColor" stroke-width="1.2" stroke-linecap="round" stroke-linejoin="round" />
  <path d="M155.15,42.53 C155.06,42.68 154.96,42.84 154.85,43.00" fill="currentColor" stroke="currentColor" stroke-width="1.2" stroke-linecap="round" stroke-linejoin="round" />
  <path d="M155.34,43.18 C155.50,42.96 155.63,42.77 155.73,42.59" fill="currentColor" stroke="currentColor" stroke-width="1.2" stroke-linecap="round" stroke-linejoin="round" />
  <path d="M212.82,42.64 C212.93,42.80 212.98,43.00 212.98,43.23" fill="currentColor" stroke="currentColor" stroke-width="1.2" stroke-linecap="round" stroke-linejoin="round" />
  <path d="M154.85,43.00 C154.73,43.16 154.61,43.33 154.48,43.49" fill="currentColor" stroke="currentColor" stroke-width="1.2" stroke-linecap="round" stroke-linejoin="round" />
  <line x1="202.80" y1="42.21" x2="202.80" y2="44.36" fill="currentColor" stroke="currentColor" stroke-width="1.2" stroke-linecap="round" stroke-linejoin="round" />
  <line x1="203.70" y1="44.36" x2="203.70" y2="42.21" fill="currentColor" stroke="currentColor" stroke-width="1.2" stroke-linecap="round" stroke-linejoin="round" />
  <path d="M213.96,43.77 C214.03,43.57 214.06,43.32 214.06,43.05" fill="currentColor" stroke="currentColor" stroke-width="1.2" stroke-linecap="round" stroke-linejoin="round" />
  <path d="M154.76,43.90 C154.98,43.63 155.18,43.39 155.34,43.18" fill="currentColor" stroke="currentColor" stroke-width="1.2" stroke-linecap="round" stroke-linejoin="round" />
  <path d="M212.98,43.23 C212.98,43.58 212.86,43.84 212.61,44.04" fill="currentColor" stroke="currentColor" stroke-width="1.2" stroke-linecap="round" stroke-linejoin="round" />
  <path d="M194.94,43.60 C194.71,43.59 194.50,43.64 194.32,43.72" fill="currentColor" stroke="currentColor" stroke-width="1.2" stroke-linecap="round" stroke-linejoin="round" />
  <path d="M154.48,43.49 C154.35,43.66 154.22,43.82 154.09,43.98" fill="currentColor" stroke="currentColor" stroke-width="1.2" stroke-linecap="round" stroke-linejoin="round" />
  <path d="M195.85,43.89 C195.59,43.70 195.28,43.60 194.94,43.60" fill="currentColor" stroke="currentColor" stroke-width="1.2" stroke-linecap="round" stroke-linejoin="round" />
  <line x1="156.32" y1="43.90" x2="154.76" y2="43.90" fill="currentColor" stroke="currentColor" stroke-width="1.2" stroke-linecap="round" stroke-linejoin="round" />
  <path d="M194.32,43.72 C194.13,43.81 193.94,43.95 193.74,44.15" fill="currentColor" stroke="currentColor" stroke-width="1.2" stroke-linecap="round" stroke-linejoin="round" />
  <path d="M213.66,44.31 C213.80,44.16 213.90,43.98 213.96,43.77" fill="currentColor" stroke="currentColor" stroke-width="1.2" stroke-linecap="round" stroke-linejoin="round" />
  <line x1="193.74" y1="44.15" x2="193.71" y2="44.13" fill="currentColor" stroke="currentColor" stroke-width="1.2" stroke-linecap="round" stroke-linejoin="round" />
  <path d="M212.61,44.04 C212.37,44.22 212.00,44.32 211.50,44.32" fill="currentColor" stroke="currentColor" stroke-width="1.2" stroke-linecap="round" stroke-linejoin="round" />
  <path d="M154.09,43.98 C153.96,44.13 153.84,44.28 153.73,44.42" fill="currentColor" stroke="currentColor" stroke-width="1.2" stroke-linecap="round" stroke-linejoin="round" />
  <path d="M196.45,44.68 C196.31,44.34 196.11,44.07 195.85,43.89" fill="currentColor" stroke="currentColor" stroke-width="1.2" stroke-linecap="round" stroke-linejoin="round" />
  <line x1="202.80" y1="44.36" x2="200.66" y2="44.36" fill="currentColor" stroke="currentColor" stroke-width="1.2" stroke-linecap="round" stroke-linejoin="round" />
  <line x1="205.85" y1="44.36" x2="203.70" y2="44.36" fill="currentColor" stroke="currentColor" stroke-width="1.2" stroke-linecap="round" stroke-linejoin="round" />
  <path d="M194.36,44.45 C194.48,44.42 194.57,44.41 194.65,44.41" fill="currentColor" stroke="currentColor" stroke-width="1.2" stroke-linecap="round" stroke-linejoin="round" />
  <line x1="153.73" y1="44.42" x2="153.73" y2="44.46" fill="currentColor" stroke="currentColor" stroke-width="1.2" stroke-linecap="round" stroke-linejoin="round" />
  <line x1="153.73" y1="44.46" x2="156.32" y2="44.46" fill="currentColor" stroke="currentColor" stroke-width="1.2" stroke-linecap="round" stroke-linejoin="round" />
  <path d="M194.03,44.57 C194.14,44.52 194.25,44.48 194.36,44.45" fill="currentColor" stroke="currentColor" stroke-width="1.2" stroke-linecap="round" stroke-linejoin="round" />
  <path d="M213.11,44.73 C213.33,44.61 213.52,44.47 213.66,44.31" fill="currentColor" stroke="currentColor" stroke-width="1.2" stroke-linecap="round" stroke-linejoin="round" />
  <path d="M194.65,44.41 C194.98,44.41 195.25,44.54 195.43,44.78" fill="currentColor" stroke="currentColor" stroke-width="1.2" stroke-linecap="round" stroke-linejoin="round" />
  <path d="M193.75,44.76 C193.82,44.68 193.92,44.62 194.03,44.57" fill="currentColor" stroke="currentColor" stroke-width="1.2" stroke-linecap="round" stroke-linejoin="round" />
  <line x1="200.66" y1="44.36" x2="200.66" y2="45.26" fill="currentColor" stroke="currentColor" stroke-width="1.2" stroke-linecap="round" stroke-linejoin="round" />
  <line x1="205.85" y1="45.26" x2="205.85" y2="44.36" fill="currentColor" stroke="currentColor" stroke-width="1.2" stroke-linecap="round" stroke-linejoin="round" />
  <line x1="211.50" y1="44.32" x2="211.50" y2="45.31" fill="currentColor" stroke="currentColor" stroke-width="1.2" stroke-linecap="round" stroke-linejoin="round" />
  <path d="M193.59,45.04 C193.61,44.93 193.66,44.84 193.75,44.76" fill="currentColor" stroke="currentColor" stroke-width="1.2" stroke-linecap="round" stroke-linejoin="round" />
  <path d="M213.72,45.12 C213.56,44.94 213.36,44.81 213.11,44.73" fill="currentColor" stroke="currentColor" stroke-width="1.2" stroke-linecap="round" stroke-linejoin="round" />
  <line x1="193.18" y1="41.19" x2="192.15" y2="48.77" fill="currentColor" stroke="currentColor" stroke-width="1.2" stroke-linecap="round" stroke-linejoin="round" />
  <line x1="200.66" y1="45.26" x2="202.80" y2="45.26" fill="currentColor" stroke="currentColor" stroke-width="1.2" stroke-linecap="round" stroke-linejoin="round" />
  <line x1="203.70" y1="45.26" x2="205.85" y2="45.26" fill="currentColor" stroke="currentColor" stroke-width="1.2" stroke-linecap="round" stroke-linejoin="round" />
  <path d="M196.67,45.85 C196.67,45.41 196.60,45.01 196.45,44.68" fill="currentColor" stroke="currentColor" stroke-width="1.2" stroke-linecap="round" stroke-linejoin="round" />
  <path d="M195.43,44.78 C195.62,45.03 195.71,45.38 195.72,45.83" fill="currentColor" stroke="currentColor" stroke-width="1.2" stroke-linecap="round" stroke-linejoin="round" />
  <path d="M211.50,45.31 C211.86,45.30 212.15,45.34 212.39,45.45" fill="currentColor" stroke="currentColor" stroke-width="1.2" stroke-linecap="round" stroke-linejoin="round" />
  <path d="M214.07,45.76 C214.00,45.52 213.88,45.31 213.72,45.12" fill="currentColor" stroke="currentColor" stroke-width="1.2" stroke-linecap="round" stroke-linejoin="round" />
  <path d="M212.39,45.45 C212.63,45.56 212.81,45.71 212.93,45.90" fill="currentColor" stroke="currentColor" stroke-width="1.2" stroke-linecap="round" stroke-linejoin="round" />
  <path d="M214.18,46.51 C214.18,46.25 214.14,46.00 214.07,45.76" fill="currentColor" stroke="currentColor" stroke-width="1.2" stroke-linecap="round" stroke-linejoin="round" />
  <path d="M212.93,45.90 C213.05,46.10 213.11,46.32 213.11,46.57" fill="currentColor" stroke="currentColor" stroke-width="1.2" stroke-linecap="round" stroke-linejoin="round" />
  <path d="M196.58,46.67 C196.64,46.39 196.68,46.12 196.67,45.85" fill="currentColor" stroke="currentColor" stroke-width="1.2" stroke-linecap="round" stroke-linejoin="round" />
  <line x1="202.80" y1="45.26" x2="202.80" y2="47.40" fill="currentColor" stroke="currentColor" stroke-width="1.2" stroke-linecap="round" stroke-linejoin="round" />
  <line x1="203.70" y1="47.40" x2="203.70" y2="45.26" fill="currentColor" stroke="currentColor" stroke-width="1.2" stroke-linecap="round" stroke-linejoin="round" />
  <path d="M195.72,45.83 C195.71,46.28 195.64,46.66 195.48,47.00" fill="currentColor" stroke="currentColor" stroke-width="1.2" stroke-linecap="round" stroke-linejoin="round" />
  <line x1="193.16" y1="48.07" x2="193.59" y2="45.04" fill="currentColor" stroke="currentColor" stroke-width="1.2" stroke-linecap="round" stroke-linejoin="round" />
  <path d="M213.11,46.57 C213.11,46.81 213.05,47.02 212.96,47.20" fill="currentColor" stroke="currentColor" stroke-width="1.2" stroke-linecap="round" stroke-linejoin="round" />
  <path d="M196.26,47.47 C196.41,47.22 196.51,46.95 196.58,46.67" fill="currentColor" stroke="currentColor" stroke-width="1.2" stroke-linecap="round" stroke-linejoin="round" />
  <path d="M213.88,47.70 C214.08,47.36 214.18,46.96 214.18,46.51" fill="currentColor" stroke="currentColor" stroke-width="1.2" stroke-linecap="round" stroke-linejoin="round" />
  <path d="M195.48,47.00 C195.32,47.34 195.09,47.60 194.79,47.79" fill="currentColor" stroke="currentColor" stroke-width="1.2" stroke-linecap="round" stroke-linejoin="round" />
  <line x1="202.80" y1="47.40" x2="203.70" y2="47.40" fill="currentColor" stroke="currentColor" stroke-width="1.2" stroke-linecap="round" stroke-linejoin="round" />
  <path d="M212.96,47.20 C212.86,47.38 212.72,47.52 212.54,47.62" fill="currentColor" stroke="currentColor" stroke-width="1.2" stroke-linecap="round" stroke-linejoin="round" />
  <path d="M211.07,47.63 C210.79,47.53 210.51,47.39 210.22,47.20" fill="currentColor" stroke="currentColor" stroke-width="1.2" stroke-linecap="round" stroke-linejoin="round" />
  <path d="M212.54,47.62 C212.36,47.72 212.14,47.77 211.89,47.77" fill="currentColor" stroke="currentColor" stroke-width="1.2" stroke-linecap="round" stroke-linejoin="round" />
  <path d="M211.89,47.77 C211.62,47.77 211.35,47.72 211.07,47.63" fill="currentColor" stroke="currentColor" stroke-width="1.2" stroke-linecap="round" stroke-linejoin="round" />
  <rect x="133.76" y="8.00" width="54.68" height="79.40" fill="none" stroke="currentColor" stroke-width="1.6" stroke-linecap="round" stroke-linejoin="round" />
  <line x1="210.22" y1="47.20" x2="210.22" y2="48.36" fill="currentColor" stroke="currentColor" stroke-width="1.2" stroke-linecap="round" stroke-linejoin="round" />
  <path d="M195.67,48.17 C195.91,47.96 196.11,47.73 196.26,47.47" fill="currentColor" stroke="currentColor" stroke-width="1.2" stroke-linecap="round" stroke-linejoin="round" />
  <path d="M194.79,47.79 C194.48,47.97 194.12,48.07 193.68,48.07" fill="currentColor" stroke="currentColor" stroke-width="1.2" stroke-linecap="round" stroke-linejoin="round" />
  <path d="M213.05,48.50 C213.40,48.31 213.68,48.04 213.88,47.70" fill="currentColor" stroke="currentColor" stroke-width="1.2" stroke-linecap="round" stroke-linejoin="round" />
  <path d="M194.75,48.66 C195.11,48.54 195.42,48.38 195.67,48.17" fill="currentColor" stroke="currentColor" stroke-width="1.2" stroke-linecap="round" stroke-linejoin="round" />
  <path d="M210.22,48.36 C210.50,48.50 210.76,48.60 211.03,48.68" fill="currentColor" stroke="currentColor" stroke-width="1.2" stroke-linecap="round" stroke-linejoin="round" />
  <path d="M211.82,48.79 C212.29,48.79 212.70,48.69 213.05,48.50" fill="currentColor" stroke="currentColor" stroke-width="1.2" stroke-linecap="round" stroke-linejoin="round" />
  <path d="M211.03,48.68 C211.30,48.75 211.56,48.79 211.82,48.79" fill="currentColor" stroke="currentColor" stroke-width="1.2" stroke-linecap="round" stroke-linejoin="round" />
  <path d="M193.46,48.84 C193.96,48.84 194.39,48.78 194.75,48.66" fill="currentColor" stroke="currentColor" stroke-width="1.2" stroke-linecap="round" stroke-linejoin="round" />
  <path d="M192.15,48.77 C192.25,48.78 192.37,48.79 192.52,48.81" fill="currentColor" stroke="currentColor" stroke-width="1.2" stroke-linecap="round" stroke-linejoin="round" />
  <path d="M192.52,48.81 C192.66,48.82 192.81,48.82 192.98,48.83" fill="currentColor" stroke="currentColor" stroke-width="1.2" stroke-linecap="round" stroke-linejoin="round" />
  <path d="M192.98,48.83 C193.14,48.84 193.30,48.84 193.46,48.84" fill="currentColor" stroke="currentColor" stroke-width="1.2" stroke-linecap="round" stroke-linejoin="round" />
  <path d="M50.98,67.11 C50.68,67.11 50.38,67.17 50.09,67.29" fill="currentColor" stroke="currentColor" stroke-width="1.2" stroke-linecap="round" stroke-linejoin="round" />
  <path d="M52.17,67.41 C51.83,67.21 51.43,67.11 50.98,67.11" fill="currentColor" stroke="currentColor" stroke-width="1.2" stroke-linecap="round" stroke-linejoin="round" />
  <path d="M50.09,67.29 C49.80,67.40 49.51,67.58 49.21,67.82" fill="currentColor" stroke="currentColor" stroke-width="1.2" stroke-linecap="round" stroke-linejoin="round" />
  <path d="M52.97,68.23 C52.78,67.88 52.51,67.61 52.17,67.41" fill="currentColor" stroke="currentColor" stroke-width="1.2" stroke-linecap="round" stroke-linejoin="round" />
  <path d="M50.35,68.25 C50.54,68.19 50.72,68.16 50.90,68.16" fill="currentColor" stroke="currentColor" stroke-width="1.2" stroke-linecap="round" stroke-linejoin="round" />
  <path d="M50.90,68.16 C51.15,68.16 51.37,68.23 51.56,68.34" fill="currentColor" stroke="currentColor" stroke-width="1.2" stroke-linecap="round" stroke-linejoin="round" />
  <path d="M49.79,68.57 C49.98,68.42 50.17,68.32 50.35,68.25" fill="currentColor" stroke="currentColor" stroke-width="1.2" stroke-linecap="round" stroke-linejoin="round" />
  <line x1="49.21" y1="67.82" x2="49.21" y2="69.18" fill="currentColor" stroke="currentColor" stroke-width="1.2" stroke-linecap="round" stroke-linejoin="round" />
  <path d="M51.56,68.34 C51.75,68.47 51.91,68.63 52.02,68.84" fill="currentColor" stroke="currentColor" stroke-width="1.2" stroke-linecap="round" stroke-linejoin="round" />
  <path d="M53.26,69.45 C53.26,68.98 53.16,68.58 52.97,68.23" fill="currentColor" stroke="currentColor" stroke-width="1.2" stroke-linecap="round" stroke-linejoin="round" />
  <path d="M49.21,69.18 C49.41,68.92 49.60,68.72 49.79,68.57" fill="currentColor" stroke="currentColor" stroke-width="1.2" stroke-linecap="round" stroke-linejoin="round" />
  <path d="M52.02,68.84 C52.13,69.05 52.18,69.29 52.19,69.57" fill="currentColor" stroke="currentColor" stroke-width="1.2" stroke-linecap="round" stroke-linejoin="round" />
  <line x1="41.96" y1="68.23" x2="41.96" y2="70.38" fill="currentColor" stroke="currentColor" stroke-width="1.2" stroke-linecap="round" stroke-linejoin="round" />
  <line x1="42.86" y1="70.38" x2="42.86" y2="68.23" fill="currentColor" stroke="currentColor" stroke-width="1.2" stroke-linecap="round" stroke-linejoin="round" />
  <path d="M35.12,69.64 C34.97,69.63 34.84,69.62 34.72,69.62" fill="currentColor" stroke="currentColor" stroke-width="1.2" stroke-linecap="round" stroke-linejoin="round" />
  <path d="M35.54,69.69 C35.40,69.67 35.26,69.65 35.12,69.64" fill="currentColor" stroke="currentColor" stroke-width="1.2" stroke-linecap="round" stroke-linejoin="round" />
  <path d="M34.72,69.62 C34.24,69.62 33.81,69.68 33.45,69.80" fill="currentColor" stroke="currentColor" stroke-width="1.2" stroke-linecap="round" stroke-linejoin="round" />
  <path d="M35.89,69.77 C35.79,69.74 35.68,69.72 35.54,69.69" fill="currentColor" stroke="currentColor" stroke-width="1.2" stroke-linecap="round" stroke-linejoin="round" />
  <path d="M52.19,69.57 C52.19,69.78 52.17,69.97 52.13,70.13" fill="currentColor" stroke="currentColor" stroke-width="1.2" stroke-linecap="round" stroke-linejoin="round" />
  <path d="M53.13,70.35 C53.22,70.05 53.27,69.75 53.26,69.45" fill="currentColor" stroke="currentColor" stroke-width="1.2" stroke-linecap="round" stroke-linejoin="round" />
  <path d="M33.45,69.80 C33.08,69.92 32.76,70.09 32.50,70.30" fill="currentColor" stroke="currentColor" stroke-width="1.2" stroke-linecap="round" stroke-linejoin="round" />
  <line x1="41.96" y1="70.38" x2="39.81" y2="70.38" fill="currentColor" stroke="currentColor" stroke-width="1.2" stroke-linecap="round" stroke-linejoin="round" />
  <line x1="45.00" y1="70.38" x2="42.86" y2="70.38" fill="currentColor" stroke="currentColor" stroke-width="1.2" stroke-linecap="round" stroke-linejoin="round" />
  <path d="M52.13,70.13 C52.09,70.30 52.03,70.47 51.95,70.63" fill="currentColor" stroke="currentColor" stroke-width="1.2" stroke-linecap="round" stroke-linejoin="round" />
  <path d="M33.78,70.54 C34.08,70.43 34.44,70.40 34.86,70.43" fill="currentColor" stroke="currentColor" stroke-width="1.2" stroke-linecap="round" stroke-linejoin="round" />
  <path d="M32.50,70.30 C32.23,70.52 32.02,70.76 31.85,71.03" fill="currentColor" stroke="currentColor" stroke-width="1.2" stroke-linecap="round" stroke-linejoin="round" />
  <path d="M33.05,70.96 C33.24,70.77 33.48,70.63 33.78,70.54" fill="currentColor" stroke="currentColor" stroke-width="1.2" stroke-linecap="round" stroke-linejoin="round" />
  <path d="M52.73,71.28 C52.91,70.95 53.05,70.64 53.13,70.35" fill="currentColor" stroke="currentColor" stroke-width="1.2" stroke-linecap="round" stroke-linejoin="round" />
  <line x1="39.81" y1="70.38" x2="39.81" y2="71.28" fill="currentColor" stroke="currentColor" stroke-width="1.2" stroke-linecap="round" stroke-linejoin="round" />
  <line x1="45.00" y1="71.28" x2="45.00" y2="70.38" fill="currentColor" stroke="currentColor" stroke-width="1.2" stroke-linecap="round" stroke-linejoin="round" />
  <path d="M51.95,70.63 C51.88,70.80 51.78,70.98 51.66,71.18" fill="currentColor" stroke="currentColor" stroke-width="1.2" stroke-linecap="round" stroke-linejoin="round" />
  <path d="M32.60,71.56 C32.71,71.34 32.85,71.14 33.05,70.96" fill="currentColor" stroke="currentColor" stroke-width="1.2" stroke-linecap="round" stroke-linejoin="round" />
  <line x1="39.81" y1="71.28" x2="41.96" y2="71.28" fill="currentColor" stroke="currentColor" stroke-width="1.2" stroke-linecap="round" stroke-linejoin="round" />
  <line x1="42.86" y1="71.28" x2="45.00" y2="71.28" fill="currentColor" stroke="currentColor" stroke-width="1.2" stroke-linecap="round" stroke-linejoin="round" />
  <path d="M31.85,71.03 C31.68,71.31 31.56,71.60 31.48,71.91" fill="currentColor" stroke="currentColor" stroke-width="1.2" stroke-linecap="round" stroke-linejoin="round" />
  <path d="M51.66,71.18 C51.50,71.45 51.31,71.74 51.10,72.04" fill="currentColor" stroke="currentColor" stroke-width="1.2" stroke-linecap="round" stroke-linejoin="round" />
  <path d="M52.00,72.36 C52.30,71.96 52.54,71.61 52.73,71.28" fill="currentColor" stroke="currentColor" stroke-width="1.2" stroke-linecap="round" stroke-linejoin="round" />
  <path d="M32.38,72.18 C32.42,71.98 32.50,71.77 32.60,71.56" fill="currentColor" stroke="currentColor" stroke-width="1.2" stroke-linecap="round" stroke-linejoin="round" />
  <line x1="35.19" y1="74.71" x2="35.89" y2="69.77" fill="currentColor" stroke="currentColor" stroke-width="1.2" stroke-linecap="round" stroke-linejoin="round" />
  <line x1="41.96" y1="71.28" x2="41.96" y2="73.42" fill="currentColor" stroke="currentColor" stroke-width="1.2" stroke-linecap="round" stroke-linejoin="round" />
  <line x1="42.86" y1="73.42" x2="42.86" y2="71.28" fill="currentColor" stroke="currentColor" stroke-width="1.2" stroke-linecap="round" stroke-linejoin="round" />
  <path d="M31.48,71.91 C31.40,72.22 31.36,72.53 31.37,72.85" fill="currentColor" stroke="currentColor" stroke-width="1.2" stroke-linecap="round" stroke-linejoin="round" />
  <path d="M32.32,72.68 C32.32,72.55 32.34,72.38 32.38,72.18" fill="currentColor" stroke="currentColor" stroke-width="1.2" stroke-linecap="round" stroke-linejoin="round" />
  <path d="M51.10,72.04 C50.89,72.33 50.66,72.63 50.43,72.94" fill="currentColor" stroke="currentColor" stroke-width="1.2" stroke-linecap="round" stroke-linejoin="round" />
  <path d="M50.93,73.68 C51.35,73.19 51.71,72.75 52.00,72.36" fill="currentColor" stroke="currentColor" stroke-width="1.2" stroke-linecap="round" stroke-linejoin="round" />
  <path d="M32.45,73.39 C32.36,73.18 32.32,72.95 32.32,72.68" fill="currentColor" stroke="currentColor" stroke-width="1.2" stroke-linecap="round" stroke-linejoin="round" />
  <path d="M31.37,72.85 C31.37,73.21 31.44,73.54 31.59,73.84" fill="currentColor" stroke="currentColor" stroke-width="1.2" stroke-linecap="round" stroke-linejoin="round" />
  <path d="M50.43,72.94 C50.19,73.24 49.95,73.54 49.72,73.82" fill="currentColor" stroke="currentColor" stroke-width="1.2" stroke-linecap="round" stroke-linejoin="round" />
  <line x1="41.96" y1="73.42" x2="42.86" y2="73.42" fill="currentColor" stroke="currentColor" stroke-width="1.2" stroke-linecap="round" stroke-linejoin="round" />
  <path d="M34.46,73.28 C34.36,73.41 34.25,73.53 34.11,73.64" fill="currentColor" stroke="currentColor" stroke-width="1.2" stroke-linecap="round" stroke-linejoin="round" />
  <path d="M32.79,73.86 C32.64,73.75 32.53,73.59 32.45,73.39" fill="currentColor" stroke="currentColor" stroke-width="1.2" stroke-linecap="round" stroke-linejoin="round" />
  <line x1="53.80" y1="73.68" x2="50.93" y2="73.68" fill="currentColor" stroke="currentColor" stroke-width="1.2" stroke-linecap="round" stroke-linejoin="round" />
  <path d="M34.11,73.64 C33.98,73.76 33.84,73.86 33.70,73.93" fill="currentColor" stroke="currentColor" stroke-width="1.2" stroke-linecap="round" stroke-linejoin="round" />
  <path d="M33.30,74.04 C33.11,74.04 32.94,73.98 32.79,73.86" fill="currentColor" stroke="currentColor" stroke-width="1.2" stroke-linecap="round" stroke-linejoin="round" />
  <path d="M33.70,73.93 C33.56,74.00 33.43,74.04 33.30,74.04" fill="currentColor" stroke="currentColor" stroke-width="1.2" stroke-linecap="round" stroke-linejoin="round" />
  <line x1="34.32" y1="74.11" x2="34.34" y2="74.14" fill="currentColor" stroke="currentColor" stroke-width="1.2" stroke-linecap="round" stroke-linejoin="round" />
  <path d="M31.59,73.84 C31.73,74.13 31.92,74.36 32.16,74.54" fill="currentColor" stroke="currentColor" stroke-width="1.2" stroke-linecap="round" stroke-linejoin="round" />
  <path d="M49.72,73.82 C49.48,74.11 49.26,74.38 49.05,74.63" fill="currentColor" stroke="currentColor" stroke-width="1.2" stroke-linecap="round" stroke-linejoin="round" />
  <path d="M33.69,74.62 C33.92,74.49 34.13,74.32 34.32,74.11" fill="currentColor" stroke="currentColor" stroke-width="1.2" stroke-linecap="round" stroke-linejoin="round" />
  <line x1="34.34" y1="74.14" x2="34.26" y2="74.71" fill="currentColor" stroke="currentColor" stroke-width="1.2" stroke-linecap="round" stroke-linejoin="round" />
  <line x1="49.05" y1="74.63" x2="49.05" y2="74.71" fill="currentColor" stroke="currentColor" stroke-width="1.2" stroke-linecap="round" stroke-linejoin="round" />
  <path d="M32.16,74.54 C32.41,74.71 32.68,74.81 32.99,74.81" fill="currentColor" stroke="currentColor" stroke-width="1.2" stroke-linecap="round" stroke-linejoin="round" />
  <line x1="34.26" y1="74.71" x2="35.19" y2="74.71" fill="currentColor" stroke="currentColor" stroke-width="1.2" stroke-linecap="round" stroke-linejoin="round" />
  <line x1="49.05" y1="74.71" x2="53.80" y2="74.71" fill="currentColor" stroke="currentColor" stroke-width="1.2" stroke-linecap="round" stroke-linejoin="round" />
  <path d="M32.99,74.81 C33.23,74.81 33.46,74.74 33.69,74.62" fill="currentColor" stroke="currentColor" stroke-width="1.2" stroke-linecap="round" stroke-linejoin="round" />
  <path d="M162.50,93.36 C162.36,93.34 162.22,93.34 162.10,93.34" fill="currentColor" stroke="currentColor" stroke-width="1.2" stroke-linecap="round" stroke-linejoin="round" />
  <path d="M162.92,93.41 C162.79,93.39 162.64,93.37 162.50,93.36" fill="currentColor" stroke="currentColor" stroke-width="1.2" stroke-linecap="round" stroke-linejoin="round" />
  <path d="M162.10,93.34 C161.62,93.34 161.20,93.40 160.83,93.52" fill="currentColor" stroke="currentColor" stroke-width="1.2" stroke-linecap="round" stroke-linejoin="round" />
  <path d="M163.27,93.49 C163.17,93.46 163.06,93.43 162.92,93.41" fill="currentColor" stroke="currentColor" stroke-width="1.2" stroke-linecap="round" stroke-linejoin="round" />
  <path d="M160.83,93.52 C160.46,93.64 160.14,93.81 159.88,94.02" fill="currentColor" stroke="currentColor" stroke-width="1.2" stroke-linecap="round" stroke-linejoin="round" />
  <path d="M161.16,94.25 C161.46,94.15 161.82,94.12 162.25,94.15" fill="currentColor" stroke="currentColor" stroke-width="1.2" stroke-linecap="round" stroke-linejoin="round" />
  <path d="M159.88,94.02 C159.62,94.23 159.40,94.48 159.23,94.75" fill="currentColor" stroke="currentColor" stroke-width="1.2" stroke-linecap="round" stroke-linejoin="round" />
  <path d="M160.43,94.68 C160.62,94.50 160.86,94.36 161.16,94.25" fill="currentColor" stroke="currentColor" stroke-width="1.2" stroke-linecap="round" stroke-linejoin="round" />
  <path d="M159.98,95.28 C160.09,95.06 160.24,94.86 160.43,94.68" fill="currentColor" stroke="currentColor" stroke-width="1.2" stroke-linecap="round" stroke-linejoin="round" />
  <path d="M159.23,94.75 C159.07,95.03 158.95,95.32 158.86,95.63" fill="currentColor" stroke="currentColor" stroke-width="1.2" stroke-linecap="round" stroke-linejoin="round" />
  <path d="M159.76,95.90 C159.80,95.70 159.88,95.49 159.98,95.28" fill="currentColor" stroke="currentColor" stroke-width="1.2" stroke-linecap="round" stroke-linejoin="round" />
  <line x1="162.57" y1="98.43" x2="163.27" y2="93.49" fill="currentColor" stroke="currentColor" stroke-width="1.2" stroke-linecap="round" stroke-linejoin="round" />
  <path d="M158.86,95.63 C158.79,95.94 158.75,96.25 158.75,96.57" fill="currentColor" stroke="currentColor" stroke-width="1.2" stroke-linecap="round" stroke-linejoin="round" />
  <path d="M159.70,96.41 C159.70,96.27 159.72,96.10 159.76,95.90" fill="currentColor" stroke="currentColor" stroke-width="1.2" stroke-linecap="round" stroke-linejoin="round" />
  <path d="M159.83,97.11 C159.75,96.91 159.71,96.67 159.70,96.41" fill="currentColor" stroke="currentColor" stroke-width="1.2" stroke-linecap="round" stroke-linejoin="round" />
  <path d="M158.75,96.57 C158.75,96.93 158.82,97.26 158.97,97.56" fill="currentColor" stroke="currentColor" stroke-width="1.2" stroke-linecap="round" stroke-linejoin="round" />
  <path d="M161.84,97.00 C161.74,97.13 161.62,97.25 161.50,97.37" fill="currentColor" stroke="currentColor" stroke-width="1.2" stroke-linecap="round" stroke-linejoin="round" />
  <path d="M160.18,97.58 C160.03,97.47 159.91,97.31 159.83,97.11" fill="currentColor" stroke="currentColor" stroke-width="1.2" stroke-linecap="round" stroke-linejoin="round" />
  <path d="M161.50,97.37 C161.36,97.48 161.23,97.57 161.09,97.65" fill="currentColor" stroke="currentColor" stroke-width="1.2" stroke-linecap="round" stroke-linejoin="round" />
  <path d="M160.68,97.76 C160.49,97.75 160.32,97.70 160.18,97.58" fill="currentColor" stroke="currentColor" stroke-width="1.2" stroke-linecap="round" stroke-linejoin="round" />
  <path d="M161.09,97.65 C160.94,97.72 160.81,97.75 160.68,97.76" fill="currentColor" stroke="currentColor" stroke-width="1.2" stroke-linecap="round" stroke-linejoin="round" />
  <line x1="161.71" y1="97.84" x2="161.73" y2="97.86" fill="currentColor" stroke="currentColor" stroke-width="1.2" stroke-linecap="round" stroke-linejoin="round" />
  <path d="M158.97,97.56 C159.11,97.85 159.30,98.09 159.55,98.26" fill="currentColor" stroke="currentColor" stroke-width="1.2" stroke-linecap="round" stroke-linejoin="round" />
  <path d="M161.07,98.34 C161.30,98.22 161.51,98.05 161.71,97.84" fill="currentColor" stroke="currentColor" stroke-width="1.2" stroke-linecap="round" stroke-linejoin="round" />
  <line x1="161.73" y1="97.86" x2="161.64" y2="98.43" fill="currentColor" stroke="currentColor" stroke-width="1.2" stroke-linecap="round" stroke-linejoin="round" />
  <path d="M159.55,98.26 C159.79,98.43 160.07,98.52 160.38,98.53" fill="currentColor" stroke="currentColor" stroke-width="1.2" stroke-linecap="round" stroke-linejoin="round" />
  <line x1="161.64" y1="98.43" x2="162.57" y2="98.43" fill="currentColor" stroke="currentColor" stroke-width="1.2" stroke-linecap="round" stroke-linejoin="round" />
  <path d="M160.38,98.53 C160.61,98.52 160.85,98.46 161.07,98.34" fill="currentColor" stroke="currentColor" stroke-width="1.2" stroke-linecap="round" stroke-linejoin="round" />
</svg>