<svg xmlns="http://www.w3.org/2000/svg" viewBox="0 0 160.15 153.53" preserveAspectRatio="xMidYMid meet" shape-rendering="geometricPrecision" text-rendering="optimizeLegibility">
  <path d="M150.31,8.06 C150.05,8.02 149.80,8.00 149.55,8.00" fill="currentColor" stroke="currentColor" stroke-width="1.2" stroke-linecap="round" stroke-linejoin="round" />
  <path d="M149.55,8.00 C148.96,8.00 148.42,8.10 147.92,8.29" fill="currentColor" stroke="currentColor" stroke-width="1.2" stroke-linecap="round" stroke-linejoin="round" />
  <path d="M151.14,8.26 C150.85,8.17 150.58,8.11 150.31,8.06" fill="currentColor" stroke="currentColor" stroke-width="1.2" stroke-linecap="round" stroke-linejoin="round" />
  <path d="M152.08,8.61 C151.74,8.47 151.43,8.35 151.14,8.26" fill="currentColor" stroke="currentColor" stroke-width="1.2" stroke-linecap="round" stroke-linejoin="round" />
  <path d="M147.92,8.29 C147.43,8.48 147.00,8.75 146.64,9.10" fill="currentColor" stroke="currentColor" stroke-width="1.2" stroke-linecap="round" stroke-linejoin="round" />
  <path d="M149.53,8.97 C149.96,8.97 150.37,9.03 150.78,9.16" fill="currentColor" stroke="currentColor" stroke-width="1.2" stroke-linecap="round" stroke-linejoin="round" />
  <path d="M148.36,9.19 C148.72,9.05 149.11,8.98 149.53,8.97" fill="currentColor" stroke="currentColor" stroke-width="1.2" stroke-linecap="round" stroke-linejoin="round" />
  <line x1="152.08" y1="9.74" x2="152.08" y2="8.61" fill="currentColor" stroke="currentColor" stroke-width="1.2" stroke-linecap="round" stroke-linejoin="round" />
  <path d="M150.78,9.16 C151.20,9.28 151.63,9.48 152.08,9.74" fill="currentColor" stroke="currentColor" stroke-width="1.2" stroke-linecap="round" stroke-linejoin="round" />
  <path d="M147.43,9.78 C147.70,9.52 148.01,9.33 148.36,9.19" fill="currentColor" stroke="currentColor" stroke-width="1.2" stroke-linecap="round" stroke-linejoin="round" />
  <path d="M146.64,9.10 C146.28,9.45 146.00,9.86 145.80,10.34" fill="currentColor" stroke="currentColor" stroke-width="1.2" stroke-linecap="round" stroke-linejoin="round" />
  <path d="M146.81,10.67 C146.96,10.33 147.17,10.03 147.43,9.78" fill="currentColor" stroke="currentColor" stroke-width="1.2" stroke-linecap="round" stroke-linejoin="round" />
  <path d="M145.80,10.34 C145.60,10.81 145.50,11.33 145.50,11.89" fill="currentColor" stroke="currentColor" stroke-width="1.2" stroke-linecap="round" stroke-linejoin="round" />
  <path d="M146.59,11.80 C146.59,11.39 146.67,11.01 146.81,10.67" fill="currentColor" stroke="currentColor" stroke-width="1.2" stroke-linecap="round" stroke-linejoin="round" />
  <path d="M145.50,11.89 C145.50,12.21 145.55,12.53 145.65,12.87" fill="currentColor" stroke="currentColor" stroke-width="1.2" stroke-linecap="round" stroke-linejoin="round" />
  <path d="M146.97,13.26 C146.72,12.84 146.60,12.35 146.59,11.80" fill="currentColor" stroke="currentColor" stroke-width="1.2" stroke-linecap="round" stroke-linejoin="round" />
  <path d="M145.65,12.87 C145.75,13.21 145.90,13.53 146.10,13.85" fill="currentColor" stroke="currentColor" stroke-width="1.2" stroke-linecap="round" stroke-linejoin="round" />
  <path d="M148.01,14.24 C147.57,14.00 147.22,13.68 146.97,13.26" fill="currentColor" stroke="currentColor" stroke-width="1.2" stroke-linecap="round" stroke-linejoin="round" />
  <path d="M152.15,13.76 C151.73,14.03 151.30,14.24 150.86,14.38" fill="currentColor" stroke="currentColor" stroke-width="1.2" stroke-linecap="round" stroke-linejoin="round" />
  <path d="M146.10,13.85 C146.31,14.17 146.57,14.46 146.88,14.72" fill="currentColor" stroke="currentColor" stroke-width="1.2" stroke-linecap="round" stroke-linejoin="round" />
  <line x1="152.15" y1="14.92" x2="152.15" y2="13.76" fill="currentColor" stroke="currentColor" stroke-width="1.2" stroke-linecap="round" stroke-linejoin="round" />
  <path d="M149.58,14.60 C148.98,14.59 148.46,14.47 148.01,14.24" fill="currentColor" stroke="currentColor" stroke-width="1.2" stroke-linecap="round" stroke-linejoin="round" />
  <path d="M150.86,14.38 C150.43,14.52 150.00,14.60 149.58,14.60" fill="currentColor" stroke="currentColor" stroke-width="1.2" stroke-linecap="round" stroke-linejoin="round" />
  <path d="M146.88,14.72 C147.20,14.98 147.57,15.18 148.00,15.33" fill="currentColor" stroke="currentColor" stroke-width="1.2" stroke-linecap="round" stroke-linejoin="round" />
  <path d="M151.39,15.26 C151.66,15.16 151.91,15.05 152.15,14.92" fill="currentColor" stroke="currentColor" stroke-width="1.2" stroke-linecap="round" stroke-linejoin="round" />
  <path d="M150.53,15.48 C150.84,15.43 151.13,15.35 151.39,15.26" fill="currentColor" stroke="currentColor" stroke-width="1.2" stroke-linecap="round" stroke-linejoin="round" />
  <path d="M148.00,15.33 C148.43,15.49 148.93,15.57 149.48,15.57" fill="currentColor" stroke="currentColor" stroke-width="1.2" stroke-linecap="round" stroke-linejoin="round" />
  <path d="M149.48,15.57 C149.86,15.57 150.21,15.54 150.53,15.48" fill="currentColor" stroke="currentColor" stroke-width="1.2" stroke-linecap="round" stroke-linejoin="round" />
  <line x1="18.13" y1="38.53" x2="143.20" y2="17.10" fill="none" stroke="currentColor" stroke-width="1.5519999980926513" stroke-linecap="round" stroke-linejoin="round" />
  <line x1="10.87" y1="30.88" x2="8.00" y2="30.88" fill="currentColor" stroke="currentColor" stroke-width="1.2" stroke-linecap="round" stroke-linejoin="round" />
  <path d="M12.32,31.10 C11.90,30.96 11.41,30.89 10.87,30.88" fill="currentColor" stroke="currentColor" stroke-width="1.2" stroke-linecap="round" stroke-linejoin="round" />
  <path d="M13.43,31.68 C13.11,31.43 12.75,31.24 12.32,31.10" fill="currentColor" stroke="currentColor" stroke-width="1.2" stroke-linecap="round" stroke-linejoin="round" />
  <line x1="9.06" y1="31.83" x2="10.69" y2="31.83" fill="currentColor" stroke="currentColor" stroke-width="1.2" stroke-linecap="round" stroke-linejoin="round" />
  <path d="M10.69,31.83 C11.21,31.84 11.66,31.91 12.03,32.05" fill="currentColor" stroke="currentColor" stroke-width="1.2" stroke-linecap="round" stroke-linejoin="round" />
  <path d="M14.19,32.52 C13.99,32.20 13.74,31.92 13.43,31.68" fill="currentColor" stroke="currentColor" stroke-width="1.2" stroke-linecap="round" stroke-linejoin="round" />
  <path d="M12.03,32.05 C12.41,32.20 12.73,32.39 12.97,32.65" fill="currentColor" stroke="currentColor" stroke-width="1.2" stroke-linecap="round" stroke-linejoin="round" />
  <path d="M14.65,33.52 C14.55,33.17 14.40,32.83 14.19,32.52" fill="currentColor" stroke="currentColor" stroke-width="1.2" stroke-linecap="round" stroke-linejoin="round" />
  <path d="M12.97,32.65 C13.22,32.90 13.40,33.19 13.52,33.52" fill="currentColor" stroke="currentColor" stroke-width="1.2" stroke-linecap="round" stroke-linejoin="round" />
  <path d="M13.52,33.52 C13.64,33.85 13.70,34.20 13.70,34.57" fill="currentColor" stroke="currentColor" stroke-width="1.2" stroke-linecap="round" stroke-linejoin="round" />
  <path d="M14.79,34.57 C14.79,34.22 14.74,33.87 14.65,33.52" fill="currentColor" stroke="currentColor" stroke-width="1.2" stroke-linecap="round" stroke-linejoin="round" />
  <line x1="8.00" y1="30.88" x2="8.00" y2="38.26" fill="currentColor" stroke="currentColor" stroke-width="1.2" stroke-linecap="round" stroke-linejoin="round" />
  <line x1="9.06" y1="37.31" x2="9.06" y2="31.83" fill="currentColor" stroke="currentColor" stroke-width="1.2" stroke-linecap="round" stroke-linejoin="round" />
  <path d="M13.70,34.57 C13.70,34.75 13.68,34.97 13.62,35.20" fill="currentColor" stroke="currentColor" stroke-width="1.2" stroke-linecap="round" stroke-linejoin="round" />
  <path d="M14.62,35.68 C14.73,35.32 14.79,34.95 14.79,34.57" fill="currentColor" stroke="currentColor" stroke-width="1.2" stroke-linecap="round" stroke-linejoin="round" />
  <path d="M13.62,35.20 C13.57,35.44 13.48,35.68 13.35,35.93" fill="currentColor" stroke="currentColor" stroke-width="1.2" stroke-linecap="round" stroke-linejoin="round" />
  <path d="M14.11,36.68 C14.34,36.37 14.50,36.04 14.62,35.68" fill="currentColor" stroke="currentColor" stroke-width="1.2" stroke-linecap="round" stroke-linejoin="round" />
  <path d="M13.35,35.93 C13.22,36.17 13.05,36.40 12.82,36.60" fill="currentColor" stroke="currentColor" stroke-width="1.2" stroke-linecap="round" stroke-linejoin="round" />
  <path d="M12.82,36.60 C12.60,36.81 12.32,36.98 11.98,37.11" fill="currentColor" stroke="currentColor" stroke-width="1.2" stroke-linecap="round" stroke-linejoin="round" />
  <path d="M13.31,37.50 C13.63,37.27 13.89,37.00 14.11,36.68" fill="currentColor" stroke="currentColor" stroke-width="1.2" stroke-linecap="round" stroke-linejoin="round" />
  <path d="M11.98,37.11 C11.64,37.24 11.22,37.30 10.75,37.31" fill="currentColor" stroke="currentColor" stroke-width="1.2" stroke-linecap="round" stroke-linejoin="round" />
  <line x1="10.75" y1="37.31" x2="9.06" y2="37.31" fill="currentColor" stroke="currentColor" stroke-width="1.2" stroke-linecap="round" stroke-linejoin="round" />
  <path d="M12.22,38.05 C12.63,37.92 12.99,37.74 13.31,37.50" fill="currentColor" stroke="currentColor" stroke-width="1.2" stroke-linecap="round" stroke-linejoin="round" />
  <path d="M10.88,38.26 C11.36,38.25 11.81,38.19 12.22,38.05" fill="currentColor" stroke="currentColor" stroke-width="1.2" stroke-linecap="round" stroke-linejoin="round" />
  <line x1="8.00" y1="38.26" x2="10.88" y2="38.26" fill="currentColor" stroke="currentColor" stroke-width="1.2" stroke-linecap="round" stroke-linejoin="round" />
  <line x1="143.20" y1="17.10" x2="120.21" y2="139.19" fill="none" stroke="currentColor" stroke-width="1.5519999980926513" stroke-linecap="round" stroke-linejoin="round" />
  <line x1="18.62" y1="38.23" x2="18.62" y2="139.07" fill="none" stroke="currentColor" stroke-width="1.5519999980926513" stroke-linecap="round" stroke-linejoin="round" />
  <line x1="18.47" y1="38.68" x2="120.12" y2="139.13" fill="none" stroke="currentColor" stroke-width="1.5519999980926513" stroke-linecap="round" stroke-linejoin="round" />
  <line x1="26.83" y1="130.60" x2="18.66" y2="130.60" fill="none" stroke="currentColor" stroke-width="1.1010000228881835" stroke-linecap="round" stroke-linejoin="round" />
  <line x1="26.83" y1="139.03" x2="26.83" y2="130.60" fill="none" stroke="currentColor" stroke-width="1.1010000228881835" stroke-linecap="round" stroke-linejoin="round" />
  <line x1="12.43" y1="138.11" x2="11.68" y2="138.11" fill="currentColor" stroke="currentColor" stroke-width="1.2" stroke-linecap="round" stroke-linejoin="round" />
  <line x1="125.39" y1="138.11" x2="123.25" y2="138.11" fill="currentColor" stroke="currentColor" stroke-width="1.2" stroke-linecap="round" stroke-linejoin="round" />
  <path d="M126.42,138.28 C126.13,138.17 125.79,138.12 125.39,138.11" fill="currentColor" stroke="currentColor" stroke-width="1.2" stroke-linecap="round" stroke-linejoin="round" />
  <path d="M127.12,138.71 C126.94,138.53 126.70,138.38 126.42,138.28" fill="currentColor" stroke="currentColor" stroke-width="1.2" stroke-linecap="round" stroke-linejoin="round" />
  <line x1="120.06" y1="139.07" x2="120.06" y2="138.39" fill="none" stroke="currentColor" stroke-width="1.5519999980926513" stroke-linecap="round" stroke-linejoin="round" />
  <path d="M127.53,139.31 C127.44,139.09 127.31,138.88 127.12,138.71" fill="currentColor" stroke="currentColor" stroke-width="1.2" stroke-linecap="round" stroke-linejoin="round" />
  <line x1="26.58" y1="139.03" x2="26.83" y2="139.03" fill="none" stroke="currentColor" stroke-width="1.1010000228881835" stroke-linecap="round" stroke-linejoin="round" />
  <line x1="124.31" y1="139.06" x2="125.28" y2="139.06" fill="currentColor" stroke="currentColor" stroke-width="1.2" stroke-linecap="round" stroke-linejoin="round" />
  <line x1="18.62" y1="139.07" x2="120.06" y2="139.07" fill="none" stroke="currentColor" stroke-width="1.5519999980926513" stroke-linecap="round" stroke-linejoin="round" />
  <path d="M125.28,139.06 C125.61,139.07 125.86,139.11 126.05,139.21" fill="currentColor" stroke="currentColor" stroke-width="1.2" stroke-linecap="round" stroke-linejoin="round" />
  <path d="M126.05,139.21 C126.24,139.30 126.37,139.43 126.45,139.58" fill="currentColor" stroke="currentColor" stroke-width="1.2" stroke-linecap="round" stroke-linejoin="round" />
  <path d="M127.66,139.99 C127.66,139.76 127.62,139.53 127.53,139.31" fill="currentColor" stroke="currentColor" stroke-width="1.2" stroke-linecap="round" stroke-linejoin="round" />
  <path d="M126.45,139.58 C126.53,139.73 126.57,139.90 126.57,140.09" fill="currentColor" stroke="currentColor" stroke-width="1.2" stroke-linecap="round" stroke-linejoin="round" />
  <line x1="124.31" y1="141.27" x2="124.31" y2="139.06" fill="currentColor" stroke="currentColor" stroke-width="1.2" stroke-linecap="round" stroke-linejoin="round" />
  <path d="M127.39,140.95 C127.57,140.70 127.67,140.38 127.66,139.99" fill="currentColor" stroke="currentColor" stroke-width="1.2" stroke-linecap="round" stroke-linejoin="round" />
  <path d="M126.57,140.09 C126.57,140.49 126.44,140.78 126.19,140.98" fill="currentColor" stroke="currentColor" stroke-width="1.2" stroke-linecap="round" stroke-linejoin="round" />
  <line x1="12.04" y1="139.73" x2="13.23" y2="142.40" fill="currentColor" stroke="currentColor" stroke-width="1.2" stroke-linecap="round" stroke-linejoin="round" />
  <line x1="10.94" y1="142.40" x2="12.04" y2="139.73" fill="currentColor" stroke="currentColor" stroke-width="1.2" stroke-linecap="round" stroke-linejoin="round" />
  <path d="M126.19,140.98 C125.93,141.17 125.54,141.27 125.01,141.27" fill="currentColor" stroke="currentColor" stroke-width="1.2" stroke-linecap="round" stroke-linejoin="round" />
  <path d="M126.54,141.57 C126.92,141.42 127.20,141.21 127.39,140.95" fill="currentColor" stroke="currentColor" stroke-width="1.2" stroke-linecap="round" stroke-linejoin="round" />
  <line x1="125.01" y1="141.27" x2="124.31" y2="141.27" fill="currentColor" stroke="currentColor" stroke-width="1.2" stroke-linecap="round" stroke-linejoin="round" />
  <line x1="126.54" y1="141.60" x2="126.54" y2="141.57" fill="currentColor" stroke="currentColor" stroke-width="1.2" stroke-linecap="round" stroke-linejoin="round" />
  <path d="M127.49,141.96 C127.22,141.79 126.91,141.66 126.54,141.60" fill="currentColor" stroke="currentColor" stroke-width="1.2" stroke-linecap="round" stroke-linejoin="round" />
  <line x1="123.25" y1="138.11" x2="123.25" y2="145.49" fill="currentColor" stroke="currentColor" stroke-width="1.2" stroke-linecap="round" stroke-linejoin="round" />
  <line x1="11.68" y1="138.11" x2="8.51" y2="145.53" fill="currentColor" stroke="currentColor" stroke-width="1.2" stroke-linecap="round" stroke-linejoin="round" />
  <line x1="15.73" y1="145.53" x2="12.43" y2="138.11" fill="currentColor" stroke="currentColor" stroke-width="1.2" stroke-linecap="round" stroke-linejoin="round" />
  <line x1="124.31" y1="142.22" x2="125.59" y2="142.22" fill="currentColor" stroke="currentColor" stroke-width="1.2" stroke-linecap="round" stroke-linejoin="round" />
  <path d="M128.10,142.62 C127.95,142.36 127.75,142.14 127.49,141.96" fill="currentColor" stroke="currentColor" stroke-width="1.2" stroke-linecap="round" stroke-linejoin="round" />
  <path d="M125.59,142.22 C125.96,142.22 126.26,142.27 126.50,142.37" fill="currentColor" stroke="currentColor" stroke-width="1.2" stroke-linecap="round" stroke-linejoin="round" />
  <line x1="13.23" y1="142.40" x2="10.94" y2="142.40" fill="currentColor" stroke="currentColor" stroke-width="1.2" stroke-linecap="round" stroke-linejoin="round" />
  <path d="M126.50,142.37 C126.75,142.47 126.93,142.60 127.04,142.77" fill="currentColor" stroke="currentColor" stroke-width="1.2" stroke-linecap="round" stroke-linejoin="round" />
  <path d="M127.04,142.77 C127.16,142.94 127.22,143.14 127.22,143.37" fill="currentColor" stroke="currentColor" stroke-width="1.2" stroke-linecap="round" stroke-linejoin="round" />
  <path d="M128.31,143.52 C128.31,143.19 128.24,142.89 128.10,142.62" fill="currentColor" stroke="currentColor" stroke-width="1.2" stroke-linecap="round" stroke-linejoin="round" />
  <line x1="10.53" y1="143.35" x2="13.66" y2="143.35" fill="currentColor" stroke="currentColor" stroke-width="1.2" stroke-linecap="round" stroke-linejoin="round" />
  <line x1="124.31" y1="144.54" x2="124.31" y2="142.22" fill="currentColor" stroke="currentColor" stroke-width="1.2" stroke-linecap="round" stroke-linejoin="round" />
  <path d="M127.22,143.37 C127.22,143.56 127.18,143.74 127.09,143.92" fill="currentColor" stroke="currentColor" stroke-width="1.2" stroke-linecap="round" stroke-linejoin="round" />
  <path d="M128.18,144.21 C128.27,143.98 128.31,143.75 128.31,143.52" fill="currentColor" stroke="currentColor" stroke-width="1.2" stroke-linecap="round" stroke-linejoin="round" />
  <path d="M127.09,143.92 C126.99,144.09 126.83,144.24 126.60,144.36" fill="currentColor" stroke="currentColor" stroke-width="1.2" stroke-linecap="round" stroke-linejoin="round" />
  <line x1="9.60" y1="145.53" x2="10.53" y2="143.35" fill="currentColor" stroke="currentColor" stroke-width="1.2" stroke-linecap="round" stroke-linejoin="round" />
  <line x1="13.66" y1="143.35" x2="14.65" y2="145.53" fill="currentColor" stroke="currentColor" stroke-width="1.2" stroke-linecap="round" stroke-linejoin="round" />
  <path d="M126.60,144.36 C126.37,144.47 126.05,144.53 125.64,144.54" fill="currentColor" stroke="currentColor" stroke-width="1.2" stroke-linecap="round" stroke-linejoin="round" />
  <path d="M127.74,144.84 C127.94,144.65 128.08,144.44 128.18,144.21" fill="currentColor" stroke="currentColor" stroke-width="1.2" stroke-linecap="round" stroke-linejoin="round" />
  <line x1="125.64" y1="144.54" x2="124.31" y2="144.54" fill="currentColor" stroke="currentColor" stroke-width="1.2" stroke-linecap="round" stroke-linejoin="round" />
  <path d="M126.96,145.31 C127.28,145.19 127.54,145.04 127.74,144.84" fill="currentColor" stroke="currentColor" stroke-width="1.2" stroke-linecap="round" stroke-linejoin="round" />
  <path d="M125.78,145.49 C126.24,145.48 126.63,145.42 126.96,145.31" fill="currentColor" stroke="currentColor" stroke-width="1.2" stroke-linecap="round" stroke-linejoin="round" />
  <line x1="123.25" y1="145.49" x2="125.78" y2="145.49" fill="currentColor" stroke="currentColor" stroke-width="1.2" stroke-linecap="round" stroke-linejoin="round" />
  <line x1="8.51" y1="145.53" x2="9.60" y2="145.53" fill="currentColor" stroke="currentColor" stroke-width="1.2" stroke-linecap="round" stroke-linejoin="round" />
  <line x1="14.65" y1="145.53" x2="15.73" y2="145.53" fill="currentColor" stroke="currentColor" stroke-width="1.2" stroke-linecap="round" stroke-linejoin="round" />
</svg>