<svg xmlns="http://www.w3.org/2000/svg" viewBox="0 0 157.73 157.73" preserveAspectRatio="xMidYMid meet" shape-rendering="geometricPrecision" text-rendering="optimizeLegibility">
  <path d="M8.00,78.87 C8.00,39.75 39.75,8.00 78.87,8.00" fill="none" stroke="currentColor" stroke-width="1.4000000476837158" stroke-linecap="round" stroke-linejoin="round" />
  <path d="M78.87,8.00 C117.98,8.00 149.73,39.75 149.73,78.87" fill="none" stroke="currentColor" stroke-width="1.4000000476837158" stroke-linecap="round" stroke-linejoin="round" />
  <path d="M89.32,59.40 C89.51,59.40 89.68,59.43 89.84,59.49" fill="currentColor" stroke="currentColor" stroke-width="1.2" stroke-linecap="round" stroke-linejoin="round" />
  <path d="M88.79,59.50 C88.96,59.44 89.13,59.40 89.32,59.40" fill="currentColor" stroke="currentColor" stroke-width="1.2" stroke-linecap="round" stroke-linejoin="round" />
  <path d="M89.84,59.49 C89.99,59.55 90.13,59.64 90.24,59.74" fill="currentColor" stroke="currentColor" stroke-width="1.2" stroke-linecap="round" stroke-linejoin="round" />
  <path d="M88.37,59.76 C88.49,59.65 88.63,59.56 88.79,59.50" fill="currentColor" stroke="currentColor" stroke-width="1.2" stroke-linecap="round" stroke-linejoin="round" />
  <path d="M72.74,59.73 C72.93,59.68 73.14,59.66 73.35,59.66" fill="currentColor" stroke="currentColor" stroke-width="1.2" stroke-linecap="round" stroke-linejoin="round" />
  <path d="M73.35,59.66 C73.68,59.66 73.98,59.71 74.23,59.80" fill="currentColor" stroke="currentColor" stroke-width="1.2" stroke-linecap="round" stroke-linejoin="round" />
  <line x1="77.51" y1="59.76" x2="80.58" y2="59.76" fill="currentColor" stroke="currentColor" stroke-width="1.2" stroke-linecap="round" stroke-linejoin="round" />
  <path d="M80.58,59.76 C80.61,59.76 80.64,59.77 80.67,59.79" fill="currentColor" stroke="currentColor" stroke-width="1.2" stroke-linecap="round" stroke-linejoin="round" />
  <path d="M84.72,59.66 C85.16,59.66 85.53,59.74 85.83,59.89" fill="currentColor" stroke="currentColor" stroke-width="1.2" stroke-linecap="round" stroke-linejoin="round" />
  <path d="M83.56,59.92 C83.87,59.75 84.26,59.66 84.72,59.66" fill="currentColor" stroke="currentColor" stroke-width="1.2" stroke-linecap="round" stroke-linejoin="round" />
  <path d="M72.22,59.88 C72.38,59.82 72.55,59.77 72.74,59.73" fill="currentColor" stroke="currentColor" stroke-width="1.2" stroke-linecap="round" stroke-linejoin="round" />
  <path d="M77.27,59.85 C77.32,59.79 77.40,59.76 77.51,59.76" fill="currentColor" stroke="currentColor" stroke-width="1.2" stroke-linecap="round" stroke-linejoin="round" />
  <path d="M80.67,59.79 C80.69,59.80 80.71,59.83 80.73,59.86" fill="currentColor" stroke="currentColor" stroke-width="1.2" stroke-linecap="round" stroke-linejoin="round" />
  <path d="M80.73,59.86 C80.75,59.89 80.76,59.93 80.77,59.98" fill="currentColor" stroke="currentColor" stroke-width="1.2" stroke-linecap="round" stroke-linejoin="round" />
  <path d="M90.24,59.74 C90.36,59.85 90.45,59.98 90.51,60.13" fill="currentColor" stroke="currentColor" stroke-width="1.2" stroke-linecap="round" stroke-linejoin="round" />
  <path d="M88.09,60.16 C88.16,60.01 88.25,59.87 88.37,59.76" fill="currentColor" stroke="currentColor" stroke-width="1.2" stroke-linecap="round" stroke-linejoin="round" />
  <path d="M71.82,60.08 C71.93,60.01 72.06,59.95 72.22,59.88" fill="currentColor" stroke="currentColor" stroke-width="1.2" stroke-linecap="round" stroke-linejoin="round" />
  <path d="M77.18,60.11 C77.18,59.99 77.21,59.91 77.27,59.85" fill="currentColor" stroke="currentColor" stroke-width="1.2" stroke-linecap="round" stroke-linejoin="round" />
  <path d="M89.55,60.02 C89.47,59.98 89.38,59.97 89.29,59.97" fill="currentColor" stroke="currentColor" stroke-width="1.2" stroke-linecap="round" stroke-linejoin="round" />
  <path d="M89.29,59.97 C89.20,59.97 89.12,59.98 89.04,60.02" fill="currentColor" stroke="currentColor" stroke-width="1.2" stroke-linecap="round" stroke-linejoin="round" />
  <path d="M74.23,59.80 C74.48,59.90 74.69,60.03 74.86,60.19" fill="currentColor" stroke="currentColor" stroke-width="1.2" stroke-linecap="round" stroke-linejoin="round" />
  <path d="M80.77,59.98 C80.78,60.03 80.79,60.09 80.79,60.16" fill="currentColor" stroke="currentColor" stroke-width="1.2" stroke-linecap="round" stroke-linejoin="round" />
  <path d="M89.75,60.16 C89.69,60.10 89.63,60.05 89.55,60.02" fill="currentColor" stroke="currentColor" stroke-width="1.2" stroke-linecap="round" stroke-linejoin="round" />
  <path d="M89.04,60.02 C88.96,60.05 88.90,60.10 88.84,60.16" fill="currentColor" stroke="currentColor" stroke-width="1.2" stroke-linecap="round" stroke-linejoin="round" />
  <path d="M71.60,60.23 C71.64,60.19 71.71,60.14 71.82,60.08" fill="currentColor" stroke="currentColor" stroke-width="1.2" stroke-linecap="round" stroke-linejoin="round" />
  <path d="M85.83,59.89 C86.13,60.05 86.37,60.28 86.55,60.58" fill="currentColor" stroke="currentColor" stroke-width="1.2" stroke-linecap="round" stroke-linejoin="round" />
  <path d="M88.84,60.16 C88.78,60.22 88.74,60.29 88.70,60.38" fill="currentColor" stroke="currentColor" stroke-width="1.2" stroke-linecap="round" stroke-linejoin="round" />
  <path d="M89.88,60.38 C89.85,60.29 89.81,60.22 89.75,60.16" fill="currentColor" stroke="currentColor" stroke-width="1.2" stroke-linecap="round" stroke-linejoin="round" />
  <path d="M71.51,60.32 C71.53,60.30 71.55,60.27 71.60,60.23" fill="currentColor" stroke="currentColor" stroke-width="1.2" stroke-linecap="round" stroke-linejoin="round" />
  <path d="M82.80,60.66 C82.99,60.34 83.24,60.09 83.56,59.92" fill="currentColor" stroke="currentColor" stroke-width="1.2" stroke-linecap="round" stroke-linejoin="round" />
  <path d="M80.79,60.16 C80.79,60.29 80.77,60.39 80.73,60.46" fill="currentColor" stroke="currentColor" stroke-width="1.2" stroke-linecap="round" stroke-linejoin="round" />
  <path d="M71.48,60.40 C71.49,60.37 71.50,60.35 71.51,60.32" fill="currentColor" stroke="currentColor" stroke-width="1.2" stroke-linecap="round" stroke-linejoin="round" />
  <path d="M90.51,60.13 C90.58,60.28 90.61,60.44 90.61,60.63" fill="currentColor" stroke="currentColor" stroke-width="1.2" stroke-linecap="round" stroke-linejoin="round" />
  <path d="M87.99,60.67 C87.99,60.49 88.02,60.32 88.09,60.16" fill="currentColor" stroke="currentColor" stroke-width="1.2" stroke-linecap="round" stroke-linejoin="round" />
  <path d="M85.13,60.48 C84.99,60.44 84.84,60.42 84.67,60.42" fill="currentColor" stroke="currentColor" stroke-width="1.2" stroke-linecap="round" stroke-linejoin="round" />
  <path d="M71.46,60.50 C71.46,60.46 71.47,60.43 71.48,60.40" fill="currentColor" stroke="currentColor" stroke-width="1.2" stroke-linecap="round" stroke-linejoin="round" />
  <path d="M74.86,60.19 C75.03,60.36 75.15,60.55 75.23,60.77" fill="currentColor" stroke="currentColor" stroke-width="1.2" stroke-linecap="round" stroke-linejoin="round" />
  <path d="M88.70,60.38 C88.67,60.46 88.65,60.54 88.65,60.64" fill="currentColor" stroke="currentColor" stroke-width="1.2" stroke-linecap="round" stroke-linejoin="round" />
  <path d="M89.93,60.65 C89.93,60.55 89.92,60.46 89.88,60.38" fill="currentColor" stroke="currentColor" stroke-width="1.2" stroke-linecap="round" stroke-linejoin="round" />
  <path d="M80.73,60.46 C80.70,60.53 80.65,60.57 80.58,60.57" fill="currentColor" stroke="currentColor" stroke-width="1.2" stroke-linecap="round" stroke-linejoin="round" />
  <path d="M73.67,60.57 C73.53,60.51 73.36,60.48 73.18,60.48" fill="currentColor" stroke="currentColor" stroke-width="1.2" stroke-linecap="round" stroke-linejoin="round" />
  <path d="M73.18,60.48 C72.96,60.48 72.76,60.51 72.59,60.57" fill="currentColor" stroke="currentColor" stroke-width="1.2" stroke-linecap="round" stroke-linejoin="round" />
  <path d="M84.67,60.42 C84.36,60.42 84.11,60.49 83.92,60.63" fill="currentColor" stroke="currentColor" stroke-width="1.2" stroke-linecap="round" stroke-linejoin="round" />
  <line x1="80.58" y1="60.57" x2="77.99" y2="60.57" fill="currentColor" stroke="currentColor" stroke-width="1.2" stroke-linecap="round" stroke-linejoin="round" />
  <path d="M71.45,60.64 C71.45,60.59 71.45,60.54 71.46,60.50" fill="currentColor" stroke="currentColor" stroke-width="1.2" stroke-linecap="round" stroke-linejoin="round" />
  <path d="M85.50,60.70 C85.39,60.60 85.27,60.53 85.13,60.48" fill="currentColor" stroke="currentColor" stroke-width="1.2" stroke-linecap="round" stroke-linejoin="round" />
  <path d="M72.59,60.57 C72.41,60.63 72.26,60.70 72.13,60.77" fill="currentColor" stroke="currentColor" stroke-width="1.2" stroke-linecap="round" stroke-linejoin="round" />
  <path d="M74.03,60.82 C73.93,60.71 73.81,60.63 73.67,60.57" fill="currentColor" stroke="currentColor" stroke-width="1.2" stroke-linecap="round" stroke-linejoin="round" />
  <path d="M71.46,60.84 C71.46,60.78 71.45,60.72 71.45,60.64" fill="currentColor" stroke="currentColor" stroke-width="1.2" stroke-linecap="round" stroke-linejoin="round" />
  <path d="M88.65,60.64 C88.65,60.74 88.67,60.84 88.70,60.92" fill="currentColor" stroke="currentColor" stroke-width="1.2" stroke-linecap="round" stroke-linejoin="round" />
  <path d="M89.88,60.92 C89.92,60.83 89.93,60.75 89.93,60.65" fill="currentColor" stroke="currentColor" stroke-width="1.2" stroke-linecap="round" stroke-linejoin="round" />
  <path d="M72.13,60.77 C72.00,60.84 71.89,60.91 71.80,60.97" fill="currentColor" stroke="currentColor" stroke-width="1.2" stroke-linecap="round" stroke-linejoin="round" />
  <path d="M90.61,60.63 C90.61,60.80 90.58,60.97 90.51,61.12" fill="currentColor" stroke="currentColor" stroke-width="1.2" stroke-linecap="round" stroke-linejoin="round" />
  <path d="M85.77,61.08 C85.70,60.92 85.61,60.80 85.50,60.70" fill="currentColor" stroke="currentColor" stroke-width="1.2" stroke-linecap="round" stroke-linejoin="round" />
  <path d="M71.49,60.97 C71.48,60.93 71.47,60.89 71.46,60.84" fill="currentColor" stroke="currentColor" stroke-width="1.2" stroke-linecap="round" stroke-linejoin="round" />
  <path d="M88.09,61.17 C88.02,61.02 87.99,60.85 87.99,60.67" fill="currentColor" stroke="currentColor" stroke-width="1.2" stroke-linecap="round" stroke-linejoin="round" />
  <path d="M83.92,60.63 C83.73,60.78 83.58,60.97 83.48,61.22" fill="currentColor" stroke="currentColor" stroke-width="1.2" stroke-linecap="round" stroke-linejoin="round" />
  <path d="M74.24,61.18 C74.19,61.04 74.12,60.92 74.03,60.82" fill="currentColor" stroke="currentColor" stroke-width="1.2" stroke-linecap="round" stroke-linejoin="round" />
  <path d="M71.54,61.04 C71.52,61.02 71.50,61.00 71.49,60.97" fill="currentColor" stroke="currentColor" stroke-width="1.2" stroke-linecap="round" stroke-linejoin="round" />
  <path d="M71.80,60.97 C71.72,61.03 71.65,61.06 71.61,61.06" fill="currentColor" stroke="currentColor" stroke-width="1.2" stroke-linecap="round" stroke-linejoin="round" />
  <path d="M89.75,61.14 C89.81,61.07 89.85,61.00 89.88,60.92" fill="currentColor" stroke="currentColor" stroke-width="1.2" stroke-linecap="round" stroke-linejoin="round" />
  <path d="M88.70,60.92 C88.74,61.01 88.78,61.08 88.84,61.14" fill="currentColor" stroke="currentColor" stroke-width="1.2" stroke-linecap="round" stroke-linejoin="round" />
  <path d="M71.61,61.06 C71.58,61.06 71.56,61.05 71.54,61.04" fill="currentColor" stroke="currentColor" stroke-width="1.2" stroke-linecap="round" stroke-linejoin="round" />
  <path d="M75.23,60.77 C75.32,60.99 75.36,61.22 75.36,61.47" fill="currentColor" stroke="currentColor" stroke-width="1.2" stroke-linecap="round" stroke-linejoin="round" />
  <path d="M86.55,60.58 C86.73,60.89 86.86,61.26 86.94,61.70" fill="currentColor" stroke="currentColor" stroke-width="1.2" stroke-linecap="round" stroke-linejoin="round" />
  <path d="M89.56,61.28 C89.63,61.25 89.70,61.20 89.75,61.14" fill="currentColor" stroke="currentColor" stroke-width="1.2" stroke-linecap="round" stroke-linejoin="round" />
  <path d="M88.84,61.14 C88.90,61.20 88.97,61.25 89.05,61.29" fill="currentColor" stroke="currentColor" stroke-width="1.2" stroke-linecap="round" stroke-linejoin="round" />
  <path d="M82.38,61.80 C82.46,61.35 82.60,60.97 82.80,60.66" fill="currentColor" stroke="currentColor" stroke-width="1.2" stroke-linecap="round" stroke-linejoin="round" />
  <path d="M89.31,61.34 C89.40,61.34 89.48,61.32 89.56,61.28" fill="currentColor" stroke="currentColor" stroke-width="1.2" stroke-linecap="round" stroke-linejoin="round" />
  <path d="M89.05,61.29 C89.13,61.32 89.22,61.34 89.31,61.34" fill="currentColor" stroke="currentColor" stroke-width="1.2" stroke-linecap="round" stroke-linejoin="round" />
  <path d="M90.51,61.12 C90.45,61.28 90.35,61.41 90.23,61.53" fill="currentColor" stroke="currentColor" stroke-width="1.2" stroke-linecap="round" stroke-linejoin="round" />
  <path d="M85.96,61.62 C85.91,61.41 85.85,61.23 85.77,61.08" fill="currentColor" stroke="currentColor" stroke-width="1.2" stroke-linecap="round" stroke-linejoin="round" />
  <path d="M88.35,61.56 C88.24,61.45 88.15,61.32 88.09,61.17" fill="currentColor" stroke="currentColor" stroke-width="1.2" stroke-linecap="round" stroke-linejoin="round" />
  <path d="M74.32,61.62 C74.32,61.46 74.29,61.32 74.24,61.18" fill="currentColor" stroke="currentColor" stroke-width="1.2" stroke-linecap="round" stroke-linejoin="round" />
  <line x1="77.18" y1="62.94" x2="77.18" y2="60.11" fill="currentColor" stroke="currentColor" stroke-width="1.2" stroke-linecap="round" stroke-linejoin="round" />
  <line x1="77.99" y1="60.57" x2="77.99" y2="62.52" fill="currentColor" stroke="currentColor" stroke-width="1.2" stroke-linecap="round" stroke-linejoin="round" />
  <path d="M90.23,61.53 C90.11,61.64 89.97,61.73 89.81,61.80" fill="currentColor" stroke="currentColor" stroke-width="1.2" stroke-linecap="round" stroke-linejoin="round" />
  <path d="M83.48,61.22 C83.37,61.47 83.29,61.77 83.25,62.10" fill="currentColor" stroke="currentColor" stroke-width="1.2" stroke-linecap="round" stroke-linejoin="round" />
  <path d="M88.76,61.81 C88.60,61.75 88.47,61.66 88.35,61.56" fill="currentColor" stroke="currentColor" stroke-width="1.2" stroke-linecap="round" stroke-linejoin="round" />
  <path d="M75.36,61.47 C75.36,61.69 75.34,61.91 75.30,62.13" fill="currentColor" stroke="currentColor" stroke-width="1.2" stroke-linecap="round" stroke-linejoin="round" />
  <path d="M89.81,61.80 C89.64,61.86 89.47,61.90 89.28,61.90" fill="currentColor" stroke="currentColor" stroke-width="1.2" stroke-linecap="round" stroke-linejoin="round" />
  <path d="M89.28,61.90 C89.09,61.90 88.92,61.87 88.76,61.81" fill="currentColor" stroke="currentColor" stroke-width="1.2" stroke-linecap="round" stroke-linejoin="round" />
  <path d="M74.27,62.11 C74.30,61.93 74.32,61.77 74.32,61.62" fill="currentColor" stroke="currentColor" stroke-width="1.2" stroke-linecap="round" stroke-linejoin="round" />
  <path d="M86.07,62.35 C86.05,62.08 86.01,61.83 85.96,61.62" fill="currentColor" stroke="currentColor" stroke-width="1.2" stroke-linecap="round" stroke-linejoin="round" />
  <path d="M74.07,62.70 C74.17,62.48 74.24,62.29 74.27,62.11" fill="currentColor" stroke="currentColor" stroke-width="1.2" stroke-linecap="round" stroke-linejoin="round" />
  <path d="M86.94,61.70 C87.02,62.14 87.06,62.65 87.06,63.22" fill="currentColor" stroke="currentColor" stroke-width="1.2" stroke-linecap="round" stroke-linejoin="round" />
  <path d="M78.37,62.49 C78.50,62.48 78.65,62.48 78.83,62.48" fill="currentColor" stroke="currentColor" stroke-width="1.2" stroke-linecap="round" stroke-linejoin="round" />
  <path d="M75.30,62.13 C75.26,62.35 75.18,62.59 75.05,62.84" fill="currentColor" stroke="currentColor" stroke-width="1.2" stroke-linecap="round" stroke-linejoin="round" />
  <path d="M77.99,62.52 C78.11,62.50 78.24,62.49 78.37,62.49" fill="currentColor" stroke="currentColor" stroke-width="1.2" stroke-linecap="round" stroke-linejoin="round" />
  <path d="M82.25,63.25 C82.25,62.72 82.29,62.24 82.38,61.80" fill="currentColor" stroke="currentColor" stroke-width="1.2" stroke-linecap="round" stroke-linejoin="round" />
  <path d="M78.83,62.48 C79.22,62.48 79.57,62.53 79.87,62.62" fill="currentColor" stroke="currentColor" stroke-width="1.2" stroke-linecap="round" stroke-linejoin="round" />
  <path d="M83.25,62.10 C83.21,62.44 83.19,62.80 83.19,63.19" fill="currentColor" stroke="currentColor" stroke-width="1.2" stroke-linecap="round" stroke-linejoin="round" />
  <path d="M86.11,63.29 C86.11,62.94 86.10,62.63 86.07,62.35" fill="currentColor" stroke="currentColor" stroke-width="1.2" stroke-linecap="round" stroke-linejoin="round" />
  <path d="M79.87,62.62 C80.17,62.72 80.41,62.85 80.61,63.03" fill="currentColor" stroke="currentColor" stroke-width="1.2" stroke-linecap="round" stroke-linejoin="round" />
  <path d="M73.63,63.41 C73.82,63.15 73.97,62.91 74.07,62.70" fill="currentColor" stroke="currentColor" stroke-width="1.2" stroke-linecap="round" stroke-linejoin="round" />
  <path d="M77.25,63.21 C77.20,63.16 77.18,63.07 77.18,62.94" fill="currentColor" stroke="currentColor" stroke-width="1.2" stroke-linecap="round" stroke-linejoin="round" />
  <path d="M78.47,63.22 C78.25,63.22 78.06,63.23 77.90,63.25" fill="currentColor" stroke="currentColor" stroke-width="1.2" stroke-linecap="round" stroke-linejoin="round" />
  <path d="M77.46,63.28 C77.36,63.28 77.29,63.26 77.25,63.21" fill="currentColor" stroke="currentColor" stroke-width="1.2" stroke-linecap="round" stroke-linejoin="round" />
  <path d="M79.26,63.30 C79.04,63.24 78.77,63.22 78.47,63.22" fill="currentColor" stroke="currentColor" stroke-width="1.2" stroke-linecap="round" stroke-linejoin="round" />
  <path d="M77.90,63.25 C77.75,63.27 77.60,63.28 77.46,63.28" fill="currentColor" stroke="currentColor" stroke-width="1.2" stroke-linecap="round" stroke-linejoin="round" />
  <path d="M75.05,62.84 C74.92,63.10 74.74,63.38 74.50,63.70" fill="currentColor" stroke="currentColor" stroke-width="1.2" stroke-linecap="round" stroke-linejoin="round" />
  <path d="M80.61,63.03 C80.81,63.20 80.96,63.41 81.06,63.66" fill="currentColor" stroke="currentColor" stroke-width="1.2" stroke-linecap="round" stroke-linejoin="round" />
  <path d="M79.81,63.55 C79.67,63.44 79.48,63.35 79.26,63.30" fill="currentColor" stroke="currentColor" stroke-width="1.2" stroke-linecap="round" stroke-linejoin="round" />
  <path d="M86.09,64.03 C86.10,63.79 86.11,63.54 86.11,63.29" fill="currentColor" stroke="currentColor" stroke-width="1.2" stroke-linecap="round" stroke-linejoin="round" />
  <path d="M80.13,63.98 C80.06,63.81 79.96,63.66 79.81,63.55" fill="currentColor" stroke="currentColor" stroke-width="1.2" stroke-linecap="round" stroke-linejoin="round" />
  <path d="M83.19,63.19 C83.19,63.71 83.22,64.15 83.27,64.51" fill="currentColor" stroke="currentColor" stroke-width="1.2" stroke-linecap="round" stroke-linejoin="round" />
  <path d="M72.89,64.30 C73.20,63.97 73.45,63.67 73.63,63.41" fill="currentColor" stroke="currentColor" stroke-width="1.2" stroke-linecap="round" stroke-linejoin="round" />
  <path d="M87.06,63.22 C87.06,63.76 87.01,64.24 86.93,64.68" fill="currentColor" stroke="currentColor" stroke-width="1.2" stroke-linecap="round" stroke-linejoin="round" />
  <path d="M82.36,64.78 C82.29,64.33 82.25,63.83 82.25,63.25" fill="currentColor" stroke="currentColor" stroke-width="1.2" stroke-linecap="round" stroke-linejoin="round" />
  <path d="M81.06,63.66 C81.17,63.90 81.22,64.18 81.22,64.48" fill="currentColor" stroke="currentColor" stroke-width="1.2" stroke-linecap="round" stroke-linejoin="round" />
  <path d="M74.50,63.70 C74.26,64.01 73.94,64.37 73.54,64.78" fill="currentColor" stroke="currentColor" stroke-width="1.2" stroke-linecap="round" stroke-linejoin="round" />
  <path d="M80.24,64.56 C80.24,64.34 80.20,64.15 80.13,63.98" fill="currentColor" stroke="currentColor" stroke-width="1.2" stroke-linecap="round" stroke-linejoin="round" />
  <path d="M86.00,64.69 C86.04,64.49 86.07,64.27 86.09,64.03" fill="currentColor" stroke="currentColor" stroke-width="1.2" stroke-linecap="round" stroke-linejoin="round" />
  <path d="M80.12,65.24 C80.20,65.05 80.24,64.83 80.24,64.56" fill="currentColor" stroke="currentColor" stroke-width="1.2" stroke-linecap="round" stroke-linejoin="round" />
  <path d="M83.27,64.51 C83.33,64.88 83.41,65.17 83.53,65.40" fill="currentColor" stroke="currentColor" stroke-width="1.2" stroke-linecap="round" stroke-linejoin="round" />
  <path d="M85.83,65.25 C85.90,65.08 85.95,64.90 86.00,64.69" fill="currentColor" stroke="currentColor" stroke-width="1.2" stroke-linecap="round" stroke-linejoin="round" />
  <path d="M81.22,64.48 C81.22,64.85 81.15,65.18 81.03,65.47" fill="currentColor" stroke="currentColor" stroke-width="1.2" stroke-linecap="round" stroke-linejoin="round" />
  <line x1="71.54" y1="65.72" x2="72.89" y2="64.30" fill="currentColor" stroke="currentColor" stroke-width="1.2" stroke-linecap="round" stroke-linejoin="round" />
  <path d="M86.93,64.68 C86.84,65.12 86.71,65.50 86.51,65.82" fill="currentColor" stroke="currentColor" stroke-width="1.2" stroke-linecap="round" stroke-linejoin="round" />
  <path d="M82.75,65.89 C82.57,65.59 82.44,65.22 82.36,64.78" fill="currentColor" stroke="currentColor" stroke-width="1.2" stroke-linecap="round" stroke-linejoin="round" />
  <line x1="73.54" y1="64.78" x2="72.44" y2="65.93" fill="currentColor" stroke="currentColor" stroke-width="1.2" stroke-linecap="round" stroke-linejoin="round" />
  <path d="M79.77,65.70 C79.92,65.58 80.03,65.42 80.12,65.24" fill="currentColor" stroke="currentColor" stroke-width="1.2" stroke-linecap="round" stroke-linejoin="round" />
  <path d="M85.55,65.68 C85.66,65.57 85.75,65.42 85.83,65.25" fill="currentColor" stroke="currentColor" stroke-width="1.2" stroke-linecap="round" stroke-linejoin="round" />
  <path d="M76.92,65.64 C76.94,65.63 76.96,65.62 76.98,65.62" fill="currentColor" stroke="currentColor" stroke-width="1.2" stroke-linecap="round" stroke-linejoin="round" />
  <path d="M83.53,65.40 C83.65,65.63 83.79,65.80 83.97,65.90" fill="currentColor" stroke="currentColor" stroke-width="1.2" stroke-linecap="round" stroke-linejoin="round" />
  <path d="M76.98,65.62 C77.02,65.62 77.08,65.64 77.15,65.69" fill="currentColor" stroke="currentColor" stroke-width="1.2" stroke-linecap="round" stroke-linejoin="round" />
  <path d="M76.87,65.71 C76.88,65.68 76.90,65.66 76.92,65.64" fill="currentColor" stroke="currentColor" stroke-width="1.2" stroke-linecap="round" stroke-linejoin="round" />
  <path d="M77.15,65.69 C77.23,65.73 77.33,65.78 77.45,65.83" fill="currentColor" stroke="currentColor" stroke-width="1.2" stroke-linecap="round" stroke-linejoin="round" />
  <path d="M76.84,65.83 C76.84,65.78 76.85,65.74 76.87,65.71" fill="currentColor" stroke="currentColor" stroke-width="1.2" stroke-linecap="round" stroke-linejoin="round" />
  <path d="M71.43,65.86 C71.46,65.82 71.49,65.77 71.54,65.72" fill="currentColor" stroke="currentColor" stroke-width="1.2" stroke-linecap="round" stroke-linejoin="round" />
  <path d="M85.16,65.96 C85.31,65.90 85.44,65.80 85.55,65.68" fill="currentColor" stroke="currentColor" stroke-width="1.2" stroke-linecap="round" stroke-linejoin="round" />
  <path d="M79.26,65.97 C79.46,65.91 79.63,65.82 79.77,65.70" fill="currentColor" stroke="currentColor" stroke-width="1.2" stroke-linecap="round" stroke-linejoin="round" />
  <path d="M81.03,65.47 C80.90,65.76 80.73,66.01 80.50,66.20" fill="currentColor" stroke="currentColor" stroke-width="1.2" stroke-linecap="round" stroke-linejoin="round" />
  <path d="M77.45,65.83 C77.58,65.89 77.74,65.94 77.93,65.98" fill="currentColor" stroke="currentColor" stroke-width="1.2" stroke-linecap="round" stroke-linejoin="round" />
  <path d="M76.83,65.99 C76.83,65.93 76.83,65.88 76.84,65.83" fill="currentColor" stroke="currentColor" stroke-width="1.2" stroke-linecap="round" stroke-linejoin="round" />
  <path d="M71.37,65.98 C71.38,65.94 71.41,65.90 71.43,65.86" fill="currentColor" stroke="currentColor" stroke-width="1.2" stroke-linecap="round" stroke-linejoin="round" />
  <line x1="72.44" y1="65.93" x2="75.46" y2="65.93" fill="currentColor" stroke="currentColor" stroke-width="1.2" stroke-linecap="round" stroke-linejoin="round" />
  <path d="M75.46,65.93 C75.49,65.93 75.52,65.94 75.55,65.95" fill="currentColor" stroke="currentColor" stroke-width="1.2" stroke-linecap="round" stroke-linejoin="round" />
  <path d="M83.97,65.90 C84.16,66.01 84.38,66.06 84.63,66.06" fill="currentColor" stroke="currentColor" stroke-width="1.2" stroke-linecap="round" stroke-linejoin="round" />
  <path d="M75.55,65.95 C75.57,65.97 75.60,65.99 75.62,66.03" fill="currentColor" stroke="currentColor" stroke-width="1.2" stroke-linecap="round" stroke-linejoin="round" />
  <path d="M78.60,66.05 C78.84,66.05 79.06,66.02 79.26,65.97" fill="currentColor" stroke="currentColor" stroke-width="1.2" stroke-linecap="round" stroke-linejoin="round" />
  <path d="M84.63,66.06 C84.83,66.06 85.01,66.03 85.16,65.96" fill="currentColor" stroke="currentColor" stroke-width="1.2" stroke-linecap="round" stroke-linejoin="round" />
  <path d="M77.93,65.98 C78.12,66.03 78.34,66.05 78.60,66.05" fill="currentColor" stroke="currentColor" stroke-width="1.2" stroke-linecap="round" stroke-linejoin="round" />
  <path d="M71.33,66.12 C71.34,66.07 71.35,66.02 71.37,65.98" fill="currentColor" stroke="currentColor" stroke-width="1.2" stroke-linecap="round" stroke-linejoin="round" />
  <path d="M76.83,66.16 C76.83,66.11 76.83,66.06 76.83,65.99" fill="currentColor" stroke="currentColor" stroke-width="1.2" stroke-linecap="round" stroke-linejoin="round" />
  <path d="M75.62,66.03 C75.64,66.06 75.65,66.10 75.66,66.15" fill="currentColor" stroke="currentColor" stroke-width="1.2" stroke-linecap="round" stroke-linejoin="round" />
  <path d="M86.51,65.82 C86.31,66.14 86.06,66.38 85.74,66.55" fill="currentColor" stroke="currentColor" stroke-width="1.2" stroke-linecap="round" stroke-linejoin="round" />
  <path d="M71.32,66.31 C71.32,66.24 71.33,66.18 71.33,66.12" fill="currentColor" stroke="currentColor" stroke-width="1.2" stroke-linecap="round" stroke-linejoin="round" />
  <path d="M76.85,66.27 C76.84,66.24 76.84,66.21 76.83,66.16" fill="currentColor" stroke="currentColor" stroke-width="1.2" stroke-linecap="round" stroke-linejoin="round" />
  <path d="M75.66,66.15 C75.67,66.20 75.67,66.25 75.67,66.32" fill="currentColor" stroke="currentColor" stroke-width="1.2" stroke-linecap="round" stroke-linejoin="round" />
  <path d="M83.48,66.58 C83.18,66.43 82.94,66.20 82.75,65.89" fill="currentColor" stroke="currentColor" stroke-width="1.2" stroke-linecap="round" stroke-linejoin="round" />
  <path d="M76.88,66.35 C76.87,66.33 76.86,66.31 76.85,66.27" fill="currentColor" stroke="currentColor" stroke-width="1.2" stroke-linecap="round" stroke-linejoin="round" />
  <path d="M76.94,66.42 C76.91,66.40 76.89,66.37 76.88,66.35" fill="currentColor" stroke="currentColor" stroke-width="1.2" stroke-linecap="round" stroke-linejoin="round" />
  <path d="M75.67,66.32 C75.67,66.38 75.67,66.44 75.66,66.49" fill="currentColor" stroke="currentColor" stroke-width="1.2" stroke-linecap="round" stroke-linejoin="round" />
  <path d="M71.34,66.51 C71.33,66.46 71.32,66.39 71.32,66.31" fill="currentColor" stroke="currentColor" stroke-width="1.2" stroke-linecap="round" stroke-linejoin="round" />
  <path d="M80.50,66.20 C80.27,66.40 80.00,66.55 79.68,66.66" fill="currentColor" stroke="currentColor" stroke-width="1.2" stroke-linecap="round" stroke-linejoin="round" />
  <path d="M77.12,66.52 C77.03,66.48 76.96,66.45 76.94,66.42" fill="currentColor" stroke="currentColor" stroke-width="1.2" stroke-linecap="round" stroke-linejoin="round" />
  <path d="M75.66,66.49 C75.65,66.54 75.64,66.58 75.62,66.61" fill="currentColor" stroke="currentColor" stroke-width="1.2" stroke-linecap="round" stroke-linejoin="round" />
  <path d="M71.40,66.63 C71.37,66.60 71.35,66.56 71.34,66.51" fill="currentColor" stroke="currentColor" stroke-width="1.2" stroke-linecap="round" stroke-linejoin="round" />
  <path d="M77.49,66.66 C77.34,66.61 77.22,66.57 77.12,66.52" fill="currentColor" stroke="currentColor" stroke-width="1.2" stroke-linecap="round" stroke-linejoin="round" />
  <path d="M75.62,66.61 C75.61,66.65 75.58,66.67 75.56,66.69" fill="currentColor" stroke="currentColor" stroke-width="1.2" stroke-linecap="round" stroke-linejoin="round" />
  <path d="M71.50,66.69 C71.46,66.68 71.43,66.66 71.40,66.63" fill="currentColor" stroke="currentColor" stroke-width="1.2" stroke-linecap="round" stroke-linejoin="round" />
  <path d="M85.74,66.55 C85.43,66.73 85.04,66.82 84.58,66.82" fill="currentColor" stroke="currentColor" stroke-width="1.2" stroke-linecap="round" stroke-linejoin="round" />
  <path d="M84.58,66.82 C84.14,66.82 83.77,66.74 83.48,66.58" fill="currentColor" stroke="currentColor" stroke-width="1.2" stroke-linecap="round" stroke-linejoin="round" />
  <path d="M75.56,66.69 C75.53,66.71 75.50,66.71 75.47,66.71" fill="currentColor" stroke="currentColor" stroke-width="1.2" stroke-linecap="round" stroke-linejoin="round" />
  <path d="M71.63,66.71 C71.58,66.71 71.54,66.71 71.50,66.69" fill="currentColor" stroke="currentColor" stroke-width="1.2" stroke-linecap="round" stroke-linejoin="round" />
  <path d="M78.01,66.77 C77.82,66.74 77.65,66.70 77.49,66.66" fill="currentColor" stroke="currentColor" stroke-width="1.2" stroke-linecap="round" stroke-linejoin="round" />
  <line x1="75.47" y1="66.71" x2="71.63" y2="66.71" fill="currentColor" stroke="currentColor" stroke-width="1.2" stroke-linecap="round" stroke-linejoin="round" />
  <path d="M79.68,66.66 C79.36,66.76 79.01,66.81 78.62,66.81" fill="currentColor" stroke="currentColor" stroke-width="1.2" stroke-linecap="round" stroke-linejoin="round" />
  <path d="M78.62,66.81 C78.41,66.81 78.20,66.80 78.01,66.77" fill="currentColor" stroke="currentColor" stroke-width="1.2" stroke-linecap="round" stroke-linejoin="round" />
  <path d="M70.17,78.84 C70.17,74.07 74.04,70.20 78.81,70.20" fill="none" stroke="currentColor" stroke-width="1.000000011920929" stroke-linecap="round" stroke-linejoin="round" />
  <path d="M78.81,70.20 C83.57,70.20 87.44,74.07 87.44,78.84" fill="none" stroke="currentColor" stroke-width="1.000000011920929" stroke-linecap="round" stroke-linejoin="round" />
  <path d="M77.65,78.87 C77.65,78.20 78.20,77.65 78.87,77.65" fill="currentColor" stroke="currentColor" stroke-width="1.2" stroke-linecap="round" stroke-linejoin="round" />
  <path d="M78.87,77.65 C79.54,77.65 80.08,78.20 80.08,78.87" fill="currentColor" stroke="currentColor" stroke-width="1.2" stroke-linecap="round" stroke-linejoin="round" />
  <path d="M78.87,80.08 C78.20,80.08 77.65,79.54 77.65,78.87" fill="currentColor" stroke="currentColor" stroke-width="1.2" stroke-linecap="round" stroke-linejoin="round" />
  <path d="M80.08,78.87 C80.08,79.54 79.54,80.08 78.87,80.08" fill="currentColor" stroke="currentColor" stroke-width="1.2" stroke-linecap="round" stroke-linejoin="round" />
  <path d="M87.44,78.84 C87.44,80.08 87.18,81.26 86.71,82.32" fill="none" stroke="currentColor" stroke-width="1.000000011920929" stroke-linecap="round" stroke-linejoin="round" />
  <path d="M70.91,82.32 C70.44,81.26 70.17,80.08 70.17,78.84" fill="none" stroke="currentColor" stroke-width="1.000000011920929" stroke-linecap="round" stroke-linejoin="round" />
  <line x1="75.47" y1="83.57" x2="76.03" y2="83.57" fill="currentColor" stroke="currentColor" stroke-width="1.2" stroke-linecap="round" stroke-linejoin="round" />
  <line x1="81.67" y1="83.57" x2="82.25" y2="83.57" fill="currentColor" stroke="currentColor" stroke-width="1.2" stroke-linecap="round" stroke-linejoin="round" />
  <path d="M82.25,83.57 C82.31,83.57 82.36,83.58 82.41,83.59" fill="currentColor" stroke="currentColor" stroke-width="1.2" stroke-linecap="round" stroke-linejoin="round" />
  <path d="M81.43,83.60 C81.50,83.58 81.58,83.57 81.67,83.57" fill="currentColor" stroke="currentColor" stroke-width="1.2" stroke-linecap="round" stroke-linejoin="round" />
  <path d="M76.03,83.57 C76.14,83.57 76.24,83.58 76.33,83.60" fill="currentColor" stroke="currentColor" stroke-width="1.2" stroke-linecap="round" stroke-linejoin="round" />
  <path d="M75.21,83.66 C75.29,83.60 75.37,83.57 75.47,83.57" fill="currentColor" stroke="currentColor" stroke-width="1.2" stroke-linecap="round" stroke-linejoin="round" />
  <path d="M82.41,83.59 C82.45,83.61 82.50,83.63 82.53,83.67" fill="currentColor" stroke="currentColor" stroke-width="1.2" stroke-linecap="round" stroke-linejoin="round" />
  <path d="M81.25,83.69 C81.30,83.65 81.36,83.62 81.43,83.60" fill="currentColor" stroke="currentColor" stroke-width="1.2" stroke-linecap="round" stroke-linejoin="round" />
  <path d="M76.33,83.60 C76.41,83.62 76.49,83.66 76.55,83.70" fill="currentColor" stroke="currentColor" stroke-width="1.2" stroke-linecap="round" stroke-linejoin="round" />
  <path d="M82.53,83.67 C82.56,83.70 82.59,83.74 82.61,83.80" fill="currentColor" stroke="currentColor" stroke-width="1.2" stroke-linecap="round" stroke-linejoin="round" />
  <path d="M81.09,83.87 C81.14,83.80 81.19,83.74 81.25,83.69" fill="currentColor" stroke="currentColor" stroke-width="1.2" stroke-linecap="round" stroke-linejoin="round" />
  <path d="M76.55,83.70 C76.62,83.75 76.67,83.81 76.72,83.88" fill="currentColor" stroke="currentColor" stroke-width="1.2" stroke-linecap="round" stroke-linejoin="round" />
  <path d="M75.09,83.99 C75.09,83.84 75.13,83.73 75.21,83.66" fill="currentColor" stroke="currentColor" stroke-width="1.2" stroke-linecap="round" stroke-linejoin="round" />
  <path d="M82.61,83.80 C82.63,83.85 82.65,83.91 82.65,83.99" fill="currentColor" stroke="currentColor" stroke-width="1.2" stroke-linecap="round" stroke-linejoin="round" />
  <path d="M76.72,83.88 C76.76,83.95 76.80,84.03 76.83,84.13" fill="currentColor" stroke="currentColor" stroke-width="1.2" stroke-linecap="round" stroke-linejoin="round" />
  <path d="M80.96,84.15 C81.00,84.04 81.05,83.95 81.09,83.87" fill="currentColor" stroke="currentColor" stroke-width="1.2" stroke-linecap="round" stroke-linejoin="round" />
  <line x1="81.75" y1="84.33" x2="81.74" y2="84.33" fill="currentColor" stroke="currentColor" stroke-width="1.2" stroke-linecap="round" stroke-linejoin="round" />
  <line x1="75.99" y1="84.33" x2="75.99" y2="84.33" fill="currentColor" stroke="currentColor" stroke-width="1.2" stroke-linecap="round" stroke-linejoin="round" />
  <line x1="76.83" y1="84.13" x2="78.84" y2="89.16" fill="currentColor" stroke="currentColor" stroke-width="1.2" stroke-linecap="round" stroke-linejoin="round" />
  <line x1="78.87" y1="89.16" x2="80.96" y2="84.15" fill="currentColor" stroke="currentColor" stroke-width="1.2" stroke-linecap="round" stroke-linejoin="round" />
  <line x1="75.09" y1="90.38" x2="75.09" y2="83.99" fill="currentColor" stroke="currentColor" stroke-width="1.2" stroke-linecap="round" stroke-linejoin="round" />
  <line x1="82.65" y1="83.99" x2="82.65" y2="90.38" fill="currentColor" stroke="currentColor" stroke-width="1.2" stroke-linecap="round" stroke-linejoin="round" />
  <line x1="81.75" y1="90.38" x2="81.75" y2="84.33" fill="currentColor" stroke="currentColor" stroke-width="1.2" stroke-linecap="round" stroke-linejoin="round" />
  <line x1="75.99" y1="84.33" x2="75.99" y2="90.38" fill="currentColor" stroke="currentColor" stroke-width="1.2" stroke-linecap="round" stroke-linejoin="round" />
  <line x1="81.74" y1="84.33" x2="79.26" y2="90.40" fill="currentColor" stroke="currentColor" stroke-width="1.2" stroke-linecap="round" stroke-linejoin="round" />
  <line x1="78.36" y1="90.40" x2="75.99" y2="84.33" fill="currentColor" stroke="currentColor" stroke-width="1.2" stroke-linecap="round" stroke-linejoin="round" />
  <line x1="78.84" y1="89.16" x2="78.87" y2="89.16" fill="currentColor" stroke="currentColor" stroke-width="1.2" stroke-linecap="round" stroke-linejoin="round" />
  <path d="M82.65,90.38 C82.65,90.41 82.64,90.43 82.62,90.45" fill="currentColor" stroke="currentColor" stroke-width="1.2" stroke-linecap="round" stroke-linejoin="round" />
  <path d="M81.77,90.45 C81.76,90.43 81.75,90.41 81.75,90.38" fill="currentColor" stroke="currentColor" stroke-width="1.2" stroke-linecap="round" stroke-linejoin="round" />
  <path d="M75.99,90.38 C75.99,90.41 75.98,90.43 75.96,90.45" fill="currentColor" stroke="currentColor" stroke-width="1.2" stroke-linecap="round" stroke-linejoin="round" />
  <path d="M75.11,90.45 C75.09,90.43 75.09,90.41 75.09,90.38" fill="currentColor" stroke="currentColor" stroke-width="1.2" stroke-linecap="round" stroke-linejoin="round" />
  <path d="M78.40,90.46 C78.38,90.45 78.37,90.43 78.36,90.40" fill="currentColor" stroke="currentColor" stroke-width="1.2" stroke-linecap="round" stroke-linejoin="round" />
  <path d="M79.26,90.40 C79.25,90.43 79.24,90.45 79.22,90.47" fill="currentColor" stroke="currentColor" stroke-width="1.2" stroke-linecap="round" stroke-linejoin="round" />
  <path d="M82.62,90.45 C82.61,90.47 82.58,90.49 82.55,90.51" fill="currentColor" stroke="currentColor" stroke-width="1.2" stroke-linecap="round" stroke-linejoin="round" />
  <path d="M81.84,90.51 C81.81,90.49 81.78,90.47 81.77,90.45" fill="currentColor" stroke="currentColor" stroke-width="1.2" stroke-linecap="round" stroke-linejoin="round" />
  <path d="M75.96,90.45 C75.95,90.47 75.92,90.49 75.89,90.51" fill="currentColor" stroke="currentColor" stroke-width="1.2" stroke-linecap="round" stroke-linejoin="round" />
  <path d="M75.18,90.51 C75.14,90.49 75.12,90.47 75.11,90.45" fill="currentColor" stroke="currentColor" stroke-width="1.2" stroke-linecap="round" stroke-linejoin="round" />
  <path d="M78.48,90.51 C78.45,90.50 78.42,90.48 78.40,90.46" fill="currentColor" stroke="currentColor" stroke-width="1.2" stroke-linecap="round" stroke-linejoin="round" />
  <path d="M79.22,90.47 C79.20,90.49 79.17,90.50 79.13,90.52" fill="currentColor" stroke="currentColor" stroke-width="1.2" stroke-linecap="round" stroke-linejoin="round" />
  <path d="M82.55,90.51 C82.51,90.52 82.47,90.53 82.41,90.54" fill="currentColor" stroke="currentColor" stroke-width="1.2" stroke-linecap="round" stroke-linejoin="round" />
  <path d="M81.98,90.54 C81.92,90.53 81.88,90.52 81.84,90.51" fill="currentColor" stroke="currentColor" stroke-width="1.2" stroke-linecap="round" stroke-linejoin="round" />
  <path d="M75.89,90.51 C75.85,90.52 75.81,90.53 75.75,90.54" fill="currentColor" stroke="currentColor" stroke-width="1.2" stroke-linecap="round" stroke-linejoin="round" />
  <path d="M75.31,90.54 C75.26,90.53 75.21,90.52 75.18,90.51" fill="currentColor" stroke="currentColor" stroke-width="1.2" stroke-linecap="round" stroke-linejoin="round" />
  <path d="M78.62,90.54 C78.56,90.53 78.52,90.52 78.48,90.51" fill="currentColor" stroke="currentColor" stroke-width="1.2" stroke-linecap="round" stroke-linejoin="round" />
  <path d="M79.13,90.52 C79.09,90.53 79.05,90.54 79.00,90.54" fill="currentColor" stroke="currentColor" stroke-width="1.2" stroke-linecap="round" stroke-linejoin="round" />
  <path d="M82.41,90.54 C82.36,90.55 82.28,90.55 82.19,90.55" fill="currentColor" stroke="currentColor" stroke-width="1.2" stroke-linecap="round" stroke-linejoin="round" />
  <path d="M82.19,90.55 C82.11,90.55 82.04,90.55 81.98,90.54" fill="currentColor" stroke="currentColor" stroke-width="1.2" stroke-linecap="round" stroke-linejoin="round" />
  <path d="M75.75,90.54 C75.69,90.55 75.62,90.55 75.53,90.55" fill="currentColor" stroke="currentColor" stroke-width="1.2" stroke-linecap="round" stroke-linejoin="round" />
  <path d="M75.53,90.55 C75.44,90.55 75.37,90.55 75.31,90.54" fill="currentColor" stroke="currentColor" stroke-width="1.2" stroke-linecap="round" stroke-linejoin="round" />
  <path d="M78.81,90.55 C78.74,90.55 78.67,90.55 78.62,90.54" fill="currentColor" stroke="currentColor" stroke-width="1.2" stroke-linecap="round" stroke-linejoin="round" />
  <path d="M79.00,90.54 C78.94,90.55 78.88,90.55 78.81,90.55" fill="currentColor" stroke="currentColor" stroke-width="1.2" stroke-linecap="round" stroke-linejoin="round" />
  <line x1="143.71" y1="107.45" x2="78.87" y2="78.87" fill="none" stroke="currentColor" stroke-width="1.4000000476837158" stroke-linecap="round" stroke-linejoin="round" />
  <line x1="78.87" y1="78.87" x2="14.02" y2="107.45" fill="none" stroke="currentColor" stroke-width="1.4000000476837158" stroke-linecap="round" stroke-linejoin="round" />
  <path d="M37.32,99.92 C37.37,99.92 37.45,99.91 37.54,99.91" fill="currentColor" stroke="currentColor" stroke-width="1.2" stroke-linecap="round" stroke-linejoin="round" />
  <path d="M37.54,99.91 C37.63,99.91 37.71,99.92 37.77,99.92" fill="currentColor" stroke="currentColor" stroke-width="1.2" stroke-linecap="round" stroke-linejoin="round" />
  <path d="M40.78,99.92 C40.84,99.92 40.92,99.91 41.01,99.91" fill="currentColor" stroke="currentColor" stroke-width="1.2" stroke-linecap="round" stroke-linejoin="round" />
  <path d="M41.01,99.91 C41.10,99.91 41.17,99.92 41.22,99.92" fill="currentColor" stroke="currentColor" stroke-width="1.2" stroke-linecap="round" stroke-linejoin="round" />
  <path d="M41.22,99.92 C41.27,99.93 41.32,99.93 41.35,99.94" fill="currentColor" stroke="currentColor" stroke-width="1.2" stroke-linecap="round" stroke-linejoin="round" />
  <path d="M37.77,99.92 C37.82,99.93 37.87,99.94 37.90,99.95" fill="currentColor" stroke="currentColor" stroke-width="1.2" stroke-linecap="round" stroke-linejoin="round" />
  <path d="M40.63,99.95 C40.66,99.94 40.71,99.93 40.78,99.92" fill="currentColor" stroke="currentColor" stroke-width="1.2" stroke-linecap="round" stroke-linejoin="round" />
  <path d="M37.19,99.95 C37.22,99.94 37.26,99.93 37.32,99.92" fill="currentColor" stroke="currentColor" stroke-width="1.2" stroke-linecap="round" stroke-linejoin="round" />
  <path d="M41.35,99.94 C41.38,99.95 41.40,99.96 41.41,99.98" fill="currentColor" stroke="currentColor" stroke-width="1.2" stroke-linecap="round" stroke-linejoin="round" />
  <path d="M37.90,99.95 C37.93,99.96 37.95,99.98 37.96,100.00" fill="currentColor" stroke="currentColor" stroke-width="1.2" stroke-linecap="round" stroke-linejoin="round" />
  <path d="M40.54,100.00 C40.56,99.98 40.59,99.96 40.63,99.95" fill="currentColor" stroke="currentColor" stroke-width="1.2" stroke-linecap="round" stroke-linejoin="round" />
  <path d="M37.12,100.01 C37.13,99.99 37.15,99.97 37.19,99.95" fill="currentColor" stroke="currentColor" stroke-width="1.2" stroke-linecap="round" stroke-linejoin="round" />
  <path d="M41.41,99.98 C41.42,100.00 41.43,100.02 41.43,100.04" fill="currentColor" stroke="currentColor" stroke-width="1.2" stroke-linecap="round" stroke-linejoin="round" />
  <path d="M37.96,100.00 C37.97,100.03 37.98,100.05 37.98,100.09" fill="currentColor" stroke="currentColor" stroke-width="1.2" stroke-linecap="round" stroke-linejoin="round" />
  <path d="M40.49,100.09 C40.51,100.05 40.52,100.03 40.54,100.00" fill="currentColor" stroke="currentColor" stroke-width="1.2" stroke-linecap="round" stroke-linejoin="round" />
  <path d="M37.10,100.12 C37.10,100.07 37.10,100.04 37.12,100.01" fill="currentColor" stroke="currentColor" stroke-width="1.2" stroke-linecap="round" stroke-linejoin="round" />
  <path d="M41.43,100.04 C41.43,100.07 41.42,100.11 41.41,100.15" fill="currentColor" stroke="currentColor" stroke-width="1.2" stroke-linecap="round" stroke-linejoin="round" />
  <path d="M37.10,100.20 C37.10,100.17 37.10,100.14 37.10,100.12" fill="currentColor" stroke="currentColor" stroke-width="1.2" stroke-linecap="round" stroke-linejoin="round" />
  <path d="M41.41,100.15 C41.40,100.19 41.39,100.22 41.38,100.26" fill="currentColor" stroke="currentColor" stroke-width="1.2" stroke-linecap="round" stroke-linejoin="round" />
  <path d="M37.11,100.31 C37.10,100.27 37.10,100.23 37.10,100.20" fill="currentColor" stroke="currentColor" stroke-width="1.2" stroke-linecap="round" stroke-linejoin="round" />
  <path d="M40.08,101.25 C40.22,100.89 40.35,100.51 40.49,100.09" fill="currentColor" stroke="currentColor" stroke-width="1.2" stroke-linecap="round" stroke-linejoin="round" />
  <path d="M41.38,100.26 C41.24,100.65 41.09,101.05 40.93,101.45" fill="currentColor" stroke="currentColor" stroke-width="1.2" stroke-linecap="round" stroke-linejoin="round" />
  <path d="M39.66,102.25 C39.81,101.93 39.95,101.60 40.08,101.25" fill="currentColor" stroke="currentColor" stroke-width="1.2" stroke-linecap="round" stroke-linejoin="round" />
  <path d="M40.93,101.45 C40.76,101.85 40.58,102.24 40.37,102.64" fill="currentColor" stroke="currentColor" stroke-width="1.2" stroke-linecap="round" stroke-linejoin="round" />
  <line x1="37.98" y1="100.09" x2="38.56" y2="104.07" fill="currentColor" stroke="currentColor" stroke-width="1.2" stroke-linecap="round" stroke-linejoin="round" />
  <line x1="37.82" y1="104.89" x2="37.11" y2="100.31" fill="currentColor" stroke="currentColor" stroke-width="1.2" stroke-linecap="round" stroke-linejoin="round" />
  <path d="M39.17,103.18 C39.34,102.88 39.51,102.57 39.66,102.25" fill="currentColor" stroke="currentColor" stroke-width="1.2" stroke-linecap="round" stroke-linejoin="round" />
  <path d="M40.37,102.64 C40.17,103.04 39.95,103.42 39.71,103.81" fill="currentColor" stroke="currentColor" stroke-width="1.2" stroke-linecap="round" stroke-linejoin="round" />
  <path d="M38.59,104.10 C38.80,103.78 38.99,103.48 39.17,103.18" fill="currentColor" stroke="currentColor" stroke-width="1.2" stroke-linecap="round" stroke-linejoin="round" />
  <path d="M31.11,99.92 C32.13,102.22 32.69,104.77 32.69,107.45" fill="none" stroke="currentColor" stroke-width="1.000000011920929" stroke-linecap="round" stroke-linejoin="round" />
  <line x1="38.56" y1="104.07" x2="38.56" y2="104.14" fill="currentColor" stroke="currentColor" stroke-width="1.2" stroke-linecap="round" stroke-linejoin="round" />
  <line x1="38.56" y1="104.14" x2="38.59" y2="104.10" fill="currentColor" stroke="currentColor" stroke-width="1.2" stroke-linecap="round" stroke-linejoin="round" />
  <path d="M39.71,103.81 C39.47,104.19 39.20,104.55 38.92,104.91" fill="currentColor" stroke="currentColor" stroke-width="1.2" stroke-linecap="round" stroke-linejoin="round" />
  <path d="M37.85,104.98 C37.83,104.95 37.82,104.92 37.82,104.89" fill="currentColor" stroke="currentColor" stroke-width="1.2" stroke-linecap="round" stroke-linejoin="round" />
  <path d="M38.92,104.91 C38.89,104.95 38.86,104.98 38.83,105.00" fill="currentColor" stroke="currentColor" stroke-width="1.2" stroke-linecap="round" stroke-linejoin="round" />
  <path d="M37.93,105.04 C37.89,105.02 37.87,105.00 37.85,104.98" fill="currentColor" stroke="currentColor" stroke-width="1.2" stroke-linecap="round" stroke-linejoin="round" />
  <path d="M38.83,105.00 C38.80,105.02 38.76,105.04 38.71,105.05" fill="currentColor" stroke="currentColor" stroke-width="1.2" stroke-linecap="round" stroke-linejoin="round" />
  <path d="M38.09,105.07 C38.02,105.06 37.97,105.05 37.93,105.04" fill="currentColor" stroke="currentColor" stroke-width="1.2" stroke-linecap="round" stroke-linejoin="round" />
  <path d="M38.71,105.05 C38.67,105.06 38.62,105.07 38.56,105.08" fill="currentColor" stroke="currentColor" stroke-width="1.2" stroke-linecap="round" stroke-linejoin="round" />
  <path d="M38.36,105.08 C38.25,105.08 38.16,105.08 38.09,105.07" fill="currentColor" stroke="currentColor" stroke-width="1.2" stroke-linecap="round" stroke-linejoin="round" />
  <path d="M38.56,105.08 C38.50,105.08 38.44,105.08 38.36,105.08" fill="currentColor" stroke="currentColor" stroke-width="1.2" stroke-linecap="round" stroke-linejoin="round" />
  <line x1="14.02" y1="107.45" x2="143.71" y2="107.45" fill="none" stroke="currentColor" stroke-width="1.4000000476837158" stroke-linecap="round" stroke-linejoin="round" />
  <path d="M78.87,149.73 C39.75,149.73 8.00,117.98 8.00,78.87" fill="none" stroke="currentColor" stroke-width="1.4000000476837158" stroke-linecap="round" stroke-linejoin="round" />
  <path d="M149.73,78.87 C149.73,117.98 117.98,149.73 78.87,149.73" fill="none" stroke="currentColor" stroke-width="1.4000000476837158" stroke-linecap="round" stroke-linejoin="round" />
</svg>