<svg xmlns="http://www.w3.org/2000/svg" viewBox="0 0 200.48 130.98" preserveAspectRatio="xMidYMid meet" shape-rendering="geometricPrecision" text-rendering="optimizeLegibility">
  <path d="M19.18,15.60H182.78V114.81H19.18Z" fill-rule="evenodd" fill="currentColor" fill-opacity="0.283" stroke="currentColor" stroke-width="1.2" stroke-linejoin="round" />
  <path d="M90.53,15.60H182.78V54.63H90.53Z" fill-rule="evenodd" fill="var(--panel)" stroke="none" />
  <path d="M90.53,75.78H182.78V114.81H90.53Z" fill-rule="evenodd" fill="var(--panel)" stroke="none" />
  <path d="M19.19,15.60H67.68V54.63H19.19Z" fill-rule="evenodd" fill="var(--panel)" stroke="none" />
  <path d="M19.19,75.78H67.68V114.81H19.19Z" fill-rule="evenodd" fill="var(--panel)" stroke="none" />
  <rect x="19.19" y="46.12" width="8.50" height="8.50" fill="none" stroke="currentColor" stroke-width="1.0" stroke-linecap="round" stroke-linejoin="round" />
  <line x1="90.53" y1="15.60" x2="90.53" y2="54.63" fill="none" stroke="currentColor" stroke-width="1.4000000476837158" stroke-linecap="round" stroke-linejoin="round" />
  <line x1="90.53" y1="54.63" x2="182.78" y2="54.63" fill="none" stroke="currentColor" stroke-width="1.4000000476837158" stroke-linecap="round" stroke-linejoin="round" />
  <line x1="182.78" y1="75.78" x2="90.53" y2="75.78" fill="none" stroke="currentColor" stroke-width="1.4000000476837158" stroke-linecap="round" stroke-linejoin="round" />
  <line x1="90.53" y1="75.78" x2="90.53" y2="114.81" fill="none" stroke="currentColor" stroke-width="1.4000000476837158" stroke-linecap="round" stroke-linejoin="round" />
  <line x1="19.19" y1="54.63" x2="67.68" y2="54.63" fill="none" stroke="currentColor" stroke-width="1.4000000476837158" stroke-linecap="round" stroke-linejoin="round" />
  <line x1="67.68" y1="54.63" x2="67.68" y2="15.60" fill="none" stroke="currentColor" stroke-width="1.4000000476837158" stroke-linecap="round" stroke-linejoin="round" />
  <line x1="67.68" y1="114.81" x2="67.68" y2="75.78" fill="none" stroke="currentColor" stroke-width="1.4000000476837158" stroke-linecap="round" stroke-linejoin="round" />
  <line x1="67.68" y1="75.78" x2="19.19" y2="75.78" fill="none" stroke="currentColor" stroke-width="1.4000000476837158" stroke-linecap="round" stroke-linejoin="round" />
  <path d="M11.98,115.44L11.22,115.44L8.00,122.98L9.10,122.98L10.05,120.77L13.24,120.77L14.24,122.98L15.34,122.98L11.98,115.44ZM11.59,117.09L12.80,119.80L10.46,119.80L11.59,117.09Z" fill="currentColor" stroke="currentColor" stroke-width="1.2" stroke-linejoin="round" />
  <path d="M186.01,122.98L188.58,122.98C189.05,122.98 189.45,122.92 189.78,122.80C190.11,122.68 190.37,122.52 190.58,122.33C190.78,122.13 190.93,121.92 191.02,121.68C191.11,121.45 191.16,121.21 191.16,120.98C191.16,120.64 191.08,120.34 190.94,120.07C190.80,119.80 190.59,119.58 190.32,119.40C190.05,119.22 189.73,119.09 189.35,119.02L189.35,119.00C189.74,118.84 190.03,118.63 190.22,118.37C190.41,118.11 190.50,117.78 190.50,117.39C190.50,117.15 190.46,116.92 190.37,116.70C190.28,116.47 190.14,116.27 189.95,116.08C189.76,115.90 189.53,115.75 189.23,115.65C188.94,115.54 188.59,115.48 188.19,115.48L186.01,115.48L186.01,122.98ZM187.09,116.45L188.08,116.45C188.41,116.45 188.67,116.50 188.86,116.59C189.05,116.69 189.19,116.82 189.27,116.97C189.35,117.13 189.39,117.30 189.39,117.49C189.39,117.89 189.26,118.20 189.00,118.39C188.73,118.59 188.34,118.69 187.80,118.69L187.09,118.69L187.09,116.45ZM187.09,119.66L188.39,119.66C188.76,119.66 189.07,119.71 189.32,119.81C189.57,119.91 189.75,120.05 189.87,120.22C189.99,120.40 190.05,120.60 190.05,120.83C190.05,121.02 190.00,121.20 189.91,121.38C189.82,121.56 189.65,121.71 189.42,121.83C189.19,121.95 188.86,122.01 188.44,122.01L187.09,122.01L187.09,119.66Z" fill="currentColor" stroke="currentColor" stroke-width="1.2" stroke-linejoin="round" />
  <path d="M192.40,8.62C192.06,8.47 191.74,8.36 191.45,8.27C191.15,8.17 190.87,8.11 190.61,8.06C190.34,8.02 190.08,8.00 189.83,8.00C189.23,8.00 188.68,8.10 188.18,8.30C187.68,8.49 187.24,8.77 186.87,9.12C186.51,9.48 186.22,9.89 186.02,10.38C185.82,10.86 185.72,11.38 185.71,11.96C185.71,12.28 185.76,12.61 185.86,12.95C185.96,13.30 186.12,13.63 186.33,13.95C186.53,14.28 186.80,14.57 187.12,14.84C187.44,15.10 187.82,15.31 188.26,15.46C188.70,15.62 189.20,15.69 189.76,15.70C190.15,15.70 190.50,15.67 190.82,15.61C191.14,15.56 191.44,15.48 191.71,15.38C191.98,15.28 192.23,15.17 192.48,15.04L192.48,13.86C192.05,14.14 191.61,14.35 191.17,14.49C190.72,14.64 190.29,14.71 189.86,14.71C189.25,14.70 188.72,14.58 188.27,14.34C187.82,14.10 187.46,13.77 187.21,13.35C186.96,12.92 186.83,12.43 186.82,11.86C186.83,11.45 186.90,11.06 187.05,10.72C187.20,10.37 187.41,10.06 187.68,9.81C187.94,9.55 188.26,9.35 188.62,9.21C188.99,9.06 189.38,8.99 189.82,8.99C190.25,8.99 190.67,9.05 191.09,9.18C191.50,9.31 191.94,9.50 192.40,9.77L192.40,8.62Z" fill="currentColor" stroke="currentColor" stroke-width="1.2" stroke-linejoin="round" />
  <path d="M8.43,15.60L11.35,15.60C11.85,15.60 12.30,15.53 12.72,15.39C13.13,15.26 13.50,15.07 13.82,14.83C14.15,14.59 14.42,14.32 14.65,14.00C14.87,13.68 15.04,13.34 15.16,12.98C15.28,12.61 15.34,12.24 15.34,11.85C15.34,11.49 15.29,11.14 15.19,10.78C15.09,10.42 14.93,10.08 14.73,9.76C14.52,9.44 14.26,9.16 13.95,8.91C13.63,8.66 13.25,8.46 12.82,8.32C12.39,8.18 11.90,8.10 11.34,8.10L8.43,8.10L8.43,15.60ZM9.50,9.07L11.17,9.07C11.69,9.07 12.15,9.14 12.53,9.29C12.92,9.43 13.23,9.64 13.48,9.89C13.73,10.15 13.92,10.44 14.04,10.78C14.16,11.11 14.23,11.47 14.22,11.85C14.23,12.04 14.20,12.25 14.15,12.49C14.09,12.73 14.00,12.98 13.87,13.23C13.74,13.48 13.56,13.71 13.33,13.92C13.11,14.13 12.82,14.30 12.47,14.43C12.12,14.56 11.71,14.63 11.22,14.63L9.50,14.63L9.50,9.07Z" fill="currentColor" stroke="currentColor" stroke-width="1.2" stroke-linejoin="round" />
  <rect x="59.17" y="15.60" width="8.50" height="8.50" fill="none" stroke="currentColor" stroke-width="1.0" stroke-linecap="round" stroke-linejoin="round" />
  <rect x="90.53" y="15.60" width="8.50" height="8.50" fill="none" stroke="currentColor" stroke-width="1.0" stroke-linecap="round" stroke-linejoin="round" />
  <rect x="174.27" y="46.12" width="8.50" height="8.50" fill="none" stroke="currentColor" stroke-width="1.0" stroke-linecap="round" stroke-linejoin="round" />
  <rect x="19.18" y="75.78" width="8.50" height="8.50" fill="none" stroke="currentColor" stroke-width="1.0" stroke-linecap="round" stroke-linejoin="round" />
  <rect x="174.27" y="75.79" width="8.50" height="8.50" fill="none" stroke="currentColor" stroke-width="1.0" stroke-linecap="round" stroke-linejoin="round" />
  <rect x="59.17" y="106.31" width="8.50" height="8.50" fill="none" stroke="currentColor" stroke-width="1.0" stroke-linecap="round" stroke-linejoin="round" />
  <rect x="90.53" y="106.31" width="8.50" height="8.50" fill="none" stroke="currentColor" stroke-width="1.0" stroke-linecap="round" stroke-linejoin="round" />
  <rect x="19.18" y="15.60" width="163.59" height="99.21" fill="none" stroke="currentColor" stroke-width="1.4000000476837158" stroke-linecap="round" stroke-linejoin="round" />
</svg>