<svg xmlns="http://www.w3.org/2000/svg" viewBox="0 0 1052 411" fill="none" stroke="currentColor" stroke-width="3" stroke-linecap="round" stroke-linejoin="round">
<path d="M58,345 L392,60 L830,338 Z"/>
<path d="M58,345 L1045,340"/>
<path d="M97.6,311.2 A52,52 0 0 1 110.0,344.5" stroke-width="2.5"/>
<path d="M360.1,87.3 A42,42 0 0 0 427.5,82.5" stroke-width="2.5"/>
<path d="M796.2,316.6 A40,40 0 0 0 790.0,338.4" stroke-width="2.5"/>
<path d="M782.7,308.0 A56,56 0 0 1 886.0,338.5" stroke-width="2.5"/>
<text x="20" y="362" font-family="Georgia, 'Times New Roman', serif" font-size="34" fill="currentColor">A</text>
<text x="378" y="44" font-family="Georgia, 'Times New Roman', serif" font-size="34" fill="currentColor">B</text>
<text x="820" y="378" font-family="Georgia, 'Times New Roman', serif" font-size="34" fill="currentColor">C</text>
<text x="132" y="330" font-family="Georgia, 'Times New Roman', serif" font-style="italic" font-size="34" fill="currentColor">a</text>
<text x="378" y="150" font-family="Georgia, 'Times New Roman', serif" font-style="italic" font-size="34" fill="currentColor">b</text>
<text x="772" y="322" font-family="Georgia, 'Times New Roman', serif" font-style="italic" font-size="34" fill="currentColor">c</text>
<text x="892" y="286" font-family="Georgia, 'Times New Roman', serif" font-style="italic" font-size="34" fill="currentColor">d</text>
</svg>
