<svg xmlns="http://www.w3.org/2000/svg" viewBox="0 0 151.16 149.20" preserveAspectRatio="xMidYMid meet" shape-rendering="geometricPrecision" text-rendering="optimizeLegibility">
  <line x1="76.94" y1="8.00" x2="72.29" y2="8.00" fill="currentColor" stroke="currentColor" stroke-width="1.2" stroke-linecap="round" stroke-linejoin="round" />
  <line x1="76.94" y1="9.06" x2="76.94" y2="8.00" fill="currentColor" stroke="currentColor" stroke-width="1.2" stroke-linecap="round" stroke-linejoin="round" />
  <line x1="73.47" y1="9.06" x2="76.94" y2="9.06" fill="currentColor" stroke="currentColor" stroke-width="1.2" stroke-linecap="round" stroke-linejoin="round" />
  <line x1="73.47" y1="11.53" x2="73.47" y2="9.06" fill="currentColor" stroke="currentColor" stroke-width="1.2" stroke-linecap="round" stroke-linejoin="round" />
  <line x1="76.82" y1="11.53" x2="73.47" y2="11.53" fill="currentColor" stroke="currentColor" stroke-width="1.2" stroke-linecap="round" stroke-linejoin="round" />
  <line x1="76.82" y1="12.58" x2="76.82" y2="11.53" fill="currentColor" stroke="currentColor" stroke-width="1.2" stroke-linecap="round" stroke-linejoin="round" />
  <line x1="72.29" y1="8.00" x2="72.29" y2="16.18" fill="currentColor" stroke="currentColor" stroke-width="1.2" stroke-linecap="round" stroke-linejoin="round" />
  <line x1="73.47" y1="12.58" x2="76.82" y2="12.58" fill="currentColor" stroke="currentColor" stroke-width="1.2" stroke-linecap="round" stroke-linejoin="round" />
  <path d="M141.12,13.66 C140.83,13.62 140.55,13.59 140.27,13.59" fill="currentColor" stroke="currentColor" stroke-width="1.2" stroke-linecap="round" stroke-linejoin="round" />
  <path d="M140.27,13.59 C139.62,13.60 139.02,13.70 138.47,13.92" fill="currentColor" stroke="currentColor" stroke-width="1.2" stroke-linecap="round" stroke-linejoin="round" />
  <path d="M142.04,13.88 C141.72,13.78 141.41,13.71 141.12,13.66" fill="currentColor" stroke="currentColor" stroke-width="1.2" stroke-linecap="round" stroke-linejoin="round" />
  <line x1="11.48" y1="13.81" x2="8.30" y2="13.81" fill="currentColor" stroke="currentColor" stroke-width="1.2" stroke-linecap="round" stroke-linejoin="round" />
  <line x1="73.47" y1="15.13" x2="73.47" y2="12.58" fill="currentColor" stroke="currentColor" stroke-width="1.2" stroke-linecap="round" stroke-linejoin="round" />
  <path d="M13.10,14.05 C12.62,13.89 12.09,13.81 11.48,13.81" fill="currentColor" stroke="currentColor" stroke-width="1.2" stroke-linecap="round" stroke-linejoin="round" />
  <path d="M143.08,14.27 C142.71,14.11 142.36,13.98 142.04,13.88" fill="currentColor" stroke="currentColor" stroke-width="1.2" stroke-linecap="round" stroke-linejoin="round" />
  <path d="M138.47,13.92 C137.92,14.13 137.45,14.43 137.05,14.82" fill="currentColor" stroke="currentColor" stroke-width="1.2" stroke-linecap="round" stroke-linejoin="round" />
  <path d="M14.32,14.69 C13.98,14.42 13.57,14.21 13.10,14.05" fill="currentColor" stroke="currentColor" stroke-width="1.2" stroke-linecap="round" stroke-linejoin="round" />
  <path d="M140.26,14.67 C140.73,14.67 141.19,14.74 141.65,14.88" fill="currentColor" stroke="currentColor" stroke-width="1.2" stroke-linecap="round" stroke-linejoin="round" />
  <path d="M138.96,14.91 C139.35,14.76 139.79,14.68 140.26,14.67" fill="currentColor" stroke="currentColor" stroke-width="1.2" stroke-linecap="round" stroke-linejoin="round" />
  <line x1="9.48" y1="14.86" x2="11.29" y2="14.86" fill="currentColor" stroke="currentColor" stroke-width="1.2" stroke-linecap="round" stroke-linejoin="round" />
  <line x1="143.08" y1="15.53" x2="143.08" y2="14.27" fill="currentColor" stroke="currentColor" stroke-width="1.2" stroke-linecap="round" stroke-linejoin="round" />
  <path d="M11.29,14.86 C11.86,14.87 12.36,14.95 12.78,15.11" fill="currentColor" stroke="currentColor" stroke-width="1.2" stroke-linecap="round" stroke-linejoin="round" />
  <line x1="77.04" y1="15.13" x2="73.47" y2="15.13" fill="currentColor" stroke="currentColor" stroke-width="1.2" stroke-linecap="round" stroke-linejoin="round" />
  <path d="M15.18,15.63 C14.95,15.28 14.67,14.97 14.32,14.69" fill="currentColor" stroke="currentColor" stroke-width="1.2" stroke-linecap="round" stroke-linejoin="round" />
  <path d="M141.65,14.88 C142.10,15.02 142.58,15.23 143.08,15.53" fill="currentColor" stroke="currentColor" stroke-width="1.2" stroke-linecap="round" stroke-linejoin="round" />
  <path d="M137.92,15.56 C138.22,15.28 138.56,15.07 138.96,14.91" fill="currentColor" stroke="currentColor" stroke-width="1.2" stroke-linecap="round" stroke-linejoin="round" />
  <path d="M12.78,15.11 C13.20,15.27 13.55,15.49 13.82,15.77" fill="currentColor" stroke="currentColor" stroke-width="1.2" stroke-linecap="round" stroke-linejoin="round" />
  <path d="M137.05,14.82 C136.65,15.20 136.34,15.66 136.12,16.19" fill="currentColor" stroke="currentColor" stroke-width="1.2" stroke-linecap="round" stroke-linejoin="round" />
  <line x1="77.04" y1="16.18" x2="77.04" y2="15.13" fill="currentColor" stroke="currentColor" stroke-width="1.2" stroke-linecap="round" stroke-linejoin="round" />
  <path d="M137.24,16.56 C137.40,16.18 137.63,15.85 137.92,15.56" fill="currentColor" stroke="currentColor" stroke-width="1.2" stroke-linecap="round" stroke-linejoin="round" />
  <path d="M15.68,16.73 C15.57,16.34 15.40,15.98 15.18,15.63" fill="currentColor" stroke="currentColor" stroke-width="1.2" stroke-linecap="round" stroke-linejoin="round" />
  <line x1="72.29" y1="16.18" x2="77.04" y2="16.18" fill="currentColor" stroke="currentColor" stroke-width="1.2" stroke-linecap="round" stroke-linejoin="round" />
  <path d="M13.82,15.77 C14.09,16.05 14.29,16.37 14.43,16.73" fill="currentColor" stroke="currentColor" stroke-width="1.2" stroke-linecap="round" stroke-linejoin="round" />
  <path d="M136.12,16.19 C135.90,16.71 135.79,17.29 135.78,17.91" fill="currentColor" stroke="currentColor" stroke-width="1.2" stroke-linecap="round" stroke-linejoin="round" />
  <path d="M136.99,17.80 C137.00,17.35 137.08,16.94 137.24,16.56" fill="currentColor" stroke="currentColor" stroke-width="1.2" stroke-linecap="round" stroke-linejoin="round" />
  <path d="M14.43,16.73 C14.56,17.10 14.63,17.49 14.63,17.90" fill="currentColor" stroke="currentColor" stroke-width="1.2" stroke-linecap="round" stroke-linejoin="round" />
  <path d="M15.84,17.90 C15.84,17.51 15.79,17.12 15.68,16.73" fill="currentColor" stroke="currentColor" stroke-width="1.2" stroke-linecap="round" stroke-linejoin="round" />
  <line x1="8.30" y1="13.81" x2="8.30" y2="21.99" fill="currentColor" stroke="currentColor" stroke-width="1.2" stroke-linecap="round" stroke-linejoin="round" />
  <line x1="9.48" y1="20.94" x2="9.48" y2="14.86" fill="currentColor" stroke="currentColor" stroke-width="1.2" stroke-linecap="round" stroke-linejoin="round" />
  <path d="M14.63,17.90 C14.63,18.11 14.60,18.34 14.54,18.60" fill="currentColor" stroke="currentColor" stroke-width="1.2" stroke-linecap="round" stroke-linejoin="round" />
  <path d="M135.78,17.91 C135.78,18.26 135.84,18.62 135.95,19.00" fill="currentColor" stroke="currentColor" stroke-width="1.2" stroke-linecap="round" stroke-linejoin="round" />
  <path d="M15.65,19.13 C15.78,18.73 15.84,18.32 15.84,17.90" fill="currentColor" stroke="currentColor" stroke-width="1.2" stroke-linecap="round" stroke-linejoin="round" />
  <path d="M137.42,19.43 C137.14,18.96 137.00,18.42 136.99,17.80" fill="currentColor" stroke="currentColor" stroke-width="1.2" stroke-linecap="round" stroke-linejoin="round" />
  <path d="M14.54,18.60 C14.48,18.87 14.38,19.13 14.24,19.41" fill="currentColor" stroke="currentColor" stroke-width="1.2" stroke-linecap="round" stroke-linejoin="round" />
  <path d="M135.95,19.00 C136.06,19.37 136.23,19.74 136.45,20.09" fill="currentColor" stroke="currentColor" stroke-width="1.2" stroke-linecap="round" stroke-linejoin="round" />
  <path d="M15.09,20.25 C15.33,19.90 15.52,19.53 15.65,19.13" fill="currentColor" stroke="currentColor" stroke-width="1.2" stroke-linecap="round" stroke-linejoin="round" />
  <path d="M14.24,19.41 C14.10,19.68 13.90,19.93 13.65,20.16" fill="currentColor" stroke="currentColor" stroke-width="1.2" stroke-linecap="round" stroke-linejoin="round" />
  <path d="M138.57,20.51 C138.08,20.25 137.69,19.89 137.42,19.43" fill="currentColor" stroke="currentColor" stroke-width="1.2" stroke-linecap="round" stroke-linejoin="round" />
  <path d="M143.16,19.99 C142.70,20.29 142.22,20.52 141.74,20.67" fill="currentColor" stroke="currentColor" stroke-width="1.2" stroke-linecap="round" stroke-linejoin="round" />
  <path d="M13.65,20.16 C13.41,20.39 13.09,20.58 12.72,20.72" fill="currentColor" stroke="currentColor" stroke-width="1.2" stroke-linecap="round" stroke-linejoin="round" />
  <path d="M136.45,20.09 C136.68,20.44 136.97,20.76 137.32,21.05" fill="currentColor" stroke="currentColor" stroke-width="1.2" stroke-linecap="round" stroke-linejoin="round" />
  <line x1="143.16" y1="21.27" x2="143.16" y2="19.99" fill="currentColor" stroke="currentColor" stroke-width="1.2" stroke-linecap="round" stroke-linejoin="round" />
  <path d="M14.19,21.16 C14.54,20.90 14.84,20.59 15.09,20.25" fill="currentColor" stroke="currentColor" stroke-width="1.2" stroke-linecap="round" stroke-linejoin="round" />
  <path d="M140.31,20.91 C139.65,20.91 139.07,20.77 138.57,20.51" fill="currentColor" stroke="currentColor" stroke-width="1.2" stroke-linecap="round" stroke-linejoin="round" />
  <path d="M141.74,20.67 C141.25,20.83 140.77,20.91 140.31,20.91" fill="currentColor" stroke="currentColor" stroke-width="1.2" stroke-linecap="round" stroke-linejoin="round" />
  <path d="M12.72,20.72 C12.34,20.86 11.88,20.93 11.35,20.94" fill="currentColor" stroke="currentColor" stroke-width="1.2" stroke-linecap="round" stroke-linejoin="round" />
  <line x1="11.35" y1="20.94" x2="9.48" y2="20.94" fill="currentColor" stroke="currentColor" stroke-width="1.2" stroke-linecap="round" stroke-linejoin="round" />
  <path d="M137.32,21.05 C137.67,21.34 138.08,21.56 138.56,21.73" fill="currentColor" stroke="currentColor" stroke-width="1.2" stroke-linecap="round" stroke-linejoin="round" />
  <path d="M142.32,21.65 C142.62,21.54 142.90,21.41 143.16,21.27" fill="currentColor" stroke="currentColor" stroke-width="1.2" stroke-linecap="round" stroke-linejoin="round" />
  <path d="M12.98,21.77 C13.43,21.62 13.84,21.42 14.19,21.16" fill="currentColor" stroke="currentColor" stroke-width="1.2" stroke-linecap="round" stroke-linejoin="round" />
  <path d="M141.36,21.90 C141.71,21.84 142.03,21.75 142.32,21.65" fill="currentColor" stroke="currentColor" stroke-width="1.2" stroke-linecap="round" stroke-linejoin="round" />
  <path d="M138.56,21.73 C139.04,21.90 139.58,21.99 140.20,21.99" fill="currentColor" stroke="currentColor" stroke-width="1.2" stroke-linecap="round" stroke-linejoin="round" />
  <path d="M11.49,21.99 C12.04,21.99 12.53,21.91 12.98,21.77" fill="currentColor" stroke="currentColor" stroke-width="1.2" stroke-linecap="round" stroke-linejoin="round" />
  <line x1="131.96" y1="21.94" x2="75.58" y2="21.94" fill="currentColor" stroke="currentColor" stroke-width="1.2" stroke-linecap="round" stroke-linejoin="round" />
  <path d="M140.20,21.99 C140.62,21.99 141.01,21.96 141.36,21.90" fill="currentColor" stroke="currentColor" stroke-width="1.2" stroke-linecap="round" stroke-linejoin="round" />
  <line x1="8.30" y1="21.99" x2="11.49" y2="21.99" fill="currentColor" stroke="currentColor" stroke-width="1.2" stroke-linecap="round" stroke-linejoin="round" />
  <line x1="131.96" y1="78.31" x2="131.96" y2="21.94" fill="currentColor" stroke="currentColor" stroke-width="1.2" stroke-linecap="round" stroke-linejoin="round" />
  <line x1="75.58" y1="21.94" x2="109.33" y2="89.95" fill="currentColor" stroke="currentColor" stroke-width="1.2" stroke-linecap="round" stroke-linejoin="round" />
  <line x1="140.67" y1="74.10" x2="136.31" y2="74.10" fill="currentColor" stroke="currentColor" stroke-width="1.2" stroke-linecap="round" stroke-linejoin="round" />
  <line x1="140.67" y1="75.16" x2="140.67" y2="74.10" fill="currentColor" stroke="currentColor" stroke-width="1.2" stroke-linecap="round" stroke-linejoin="round" />
  <line x1="137.48" y1="75.16" x2="140.67" y2="75.16" fill="currentColor" stroke="currentColor" stroke-width="1.2" stroke-linecap="round" stroke-linejoin="round" />
  <line x1="137.48" y1="77.43" x2="137.48" y2="75.16" fill="currentColor" stroke="currentColor" stroke-width="1.2" stroke-linecap="round" stroke-linejoin="round" />
  <line x1="140.67" y1="77.43" x2="137.48" y2="77.43" fill="currentColor" stroke="currentColor" stroke-width="1.2" stroke-linecap="round" stroke-linejoin="round" />
  <line x1="140.67" y1="78.48" x2="140.67" y2="77.43" fill="currentColor" stroke="currentColor" stroke-width="1.2" stroke-linecap="round" stroke-linejoin="round" />
  <line x1="136.31" y1="74.10" x2="136.31" y2="82.29" fill="currentColor" stroke="currentColor" stroke-width="1.2" stroke-linecap="round" stroke-linejoin="round" />
  <line x1="131.67" y1="135.10" x2="75.12" y2="21.76" fill="none" stroke="currentColor" stroke-width="1.2" stroke-linecap="round" stroke-linejoin="round" />
  <line x1="137.48" y1="78.48" x2="140.67" y2="78.48" fill="currentColor" stroke="currentColor" stroke-width="1.2" stroke-linecap="round" stroke-linejoin="round" />
  <rect x="18.58" y="21.94" width="113.38" height="113.39" fill="none" stroke="currentColor" stroke-width="1.2" stroke-linecap="round" stroke-linejoin="round" />
  <line x1="137.48" y1="82.29" x2="137.48" y2="78.48" fill="currentColor" stroke="currentColor" stroke-width="1.2" stroke-linecap="round" stroke-linejoin="round" />
  <path d="M97.55,81.45 C97.33,81.43 97.11,81.42 96.87,81.42" fill="currentColor" stroke="currentColor" stroke-width="1.2" stroke-linecap="round" stroke-linejoin="round" />
  <path d="M98.20,81.56 C97.98,81.51 97.76,81.47 97.55,81.45" fill="currentColor" stroke="currentColor" stroke-width="1.2" stroke-linecap="round" stroke-linejoin="round" />
  <path d="M96.87,81.42 C96.24,81.42 95.66,81.53 95.13,81.74" fill="currentColor" stroke="currentColor" stroke-width="1.2" stroke-linecap="round" stroke-linejoin="round" />
  <path d="M98.92,81.78 C98.66,81.69 98.43,81.62 98.20,81.56" fill="currentColor" stroke="currentColor" stroke-width="1.2" stroke-linecap="round" stroke-linejoin="round" />
  <path d="M99.78,82.11 C99.46,81.98 99.18,81.87 98.92,81.78" fill="currentColor" stroke="currentColor" stroke-width="1.2" stroke-linecap="round" stroke-linejoin="round" />
  <path d="M95.13,81.74 C94.60,81.96 94.13,82.25 93.74,82.64" fill="currentColor" stroke="currentColor" stroke-width="1.2" stroke-linecap="round" stroke-linejoin="round" />
  <line x1="136.31" y1="82.29" x2="137.48" y2="82.29" fill="currentColor" stroke="currentColor" stroke-width="1.2" stroke-linecap="round" stroke-linejoin="round" />
  <path d="M96.84,82.50 C97.34,82.50 97.83,82.57 98.32,82.70" fill="currentColor" stroke="currentColor" stroke-width="1.2" stroke-linecap="round" stroke-linejoin="round" />
  <path d="M95.60,82.74 C95.98,82.58 96.40,82.50 96.84,82.50" fill="currentColor" stroke="currentColor" stroke-width="1.2" stroke-linecap="round" stroke-linejoin="round" />
  <line x1="99.78" y1="83.30" x2="99.78" y2="82.11" fill="currentColor" stroke="currentColor" stroke-width="1.2" stroke-linecap="round" stroke-linejoin="round" />
  <path d="M98.32,82.70 C98.81,82.84 99.30,83.04 99.78,83.30" fill="currentColor" stroke="currentColor" stroke-width="1.2" stroke-linecap="round" stroke-linejoin="round" />
  <path d="M94.60,83.40 C94.89,83.12 95.22,82.90 95.60,82.74" fill="currentColor" stroke="currentColor" stroke-width="1.2" stroke-linecap="round" stroke-linejoin="round" />
  <path d="M93.74,82.64 C93.34,83.02 93.03,83.47 92.81,83.99" fill="currentColor" stroke="currentColor" stroke-width="1.2" stroke-linecap="round" stroke-linejoin="round" />
  <line x1="108.86" y1="89.02" x2="131.96" y2="78.31" fill="currentColor" stroke="currentColor" stroke-width="1.2" stroke-linecap="round" stroke-linejoin="round" />
  <path d="M93.93,84.39 C94.09,84.01 94.31,83.68 94.60,83.40" fill="currentColor" stroke="currentColor" stroke-width="1.2" stroke-linecap="round" stroke-linejoin="round" />
  <path d="M92.81,83.99 C92.59,84.50 92.48,85.06 92.48,85.67" fill="currentColor" stroke="currentColor" stroke-width="1.2" stroke-linecap="round" stroke-linejoin="round" />
  <path d="M93.69,85.63 C93.69,85.18 93.77,84.77 93.93,84.39" fill="currentColor" stroke="currentColor" stroke-width="1.2" stroke-linecap="round" stroke-linejoin="round" />
  <line x1="99.95" y1="85.68" x2="97.20" y2="85.68" fill="currentColor" stroke="currentColor" stroke-width="1.2" stroke-linecap="round" stroke-linejoin="round" />
  <line x1="97.20" y1="85.68" x2="97.20" y2="86.73" fill="currentColor" stroke="currentColor" stroke-width="1.2" stroke-linecap="round" stroke-linejoin="round" />
  <path d="M93.93,86.88 C93.77,86.51 93.69,86.09 93.69,85.63" fill="currentColor" stroke="currentColor" stroke-width="1.2" stroke-linecap="round" stroke-linejoin="round" />
  <path d="M92.48,85.67 C92.48,86.27 92.59,86.82 92.80,87.33" fill="currentColor" stroke="currentColor" stroke-width="1.2" stroke-linecap="round" stroke-linejoin="round" />
  <line x1="97.20" y1="86.73" x2="98.78" y2="86.73" fill="currentColor" stroke="currentColor" stroke-width="1.2" stroke-linecap="round" stroke-linejoin="round" />
  <path d="M94.62,87.87 C94.32,87.59 94.09,87.26 93.93,86.88" fill="currentColor" stroke="currentColor" stroke-width="1.2" stroke-linecap="round" stroke-linejoin="round" />
  <line x1="99.95" y1="89.14" x2="99.95" y2="85.68" fill="currentColor" stroke="currentColor" stroke-width="1.2" stroke-linecap="round" stroke-linejoin="round" />
  <line x1="98.78" y1="86.73" x2="98.78" y2="88.41" fill="currentColor" stroke="currentColor" stroke-width="1.2" stroke-linecap="round" stroke-linejoin="round" />
  <path d="M92.80,87.33 C93.02,87.83 93.32,88.27 93.71,88.64" fill="currentColor" stroke="currentColor" stroke-width="1.2" stroke-linecap="round" stroke-linejoin="round" />
  <path d="M95.66,88.51 C95.26,88.36 94.91,88.14 94.62,87.87" fill="currentColor" stroke="currentColor" stroke-width="1.2" stroke-linecap="round" stroke-linejoin="round" />
  <path d="M98.78,88.41 C98.49,88.51 98.21,88.58 97.91,88.64" fill="currentColor" stroke="currentColor" stroke-width="1.2" stroke-linecap="round" stroke-linejoin="round" />
  <path d="M97.00,88.74 C96.51,88.74 96.07,88.66 95.66,88.51" fill="currentColor" stroke="currentColor" stroke-width="1.2" stroke-linecap="round" stroke-linejoin="round" />
  <path d="M97.91,88.64 C97.62,88.70 97.32,88.73 97.00,88.74" fill="currentColor" stroke="currentColor" stroke-width="1.2" stroke-linecap="round" stroke-linejoin="round" />
  <path d="M93.71,88.64 C94.11,89.01 94.56,89.30 95.09,89.51" fill="currentColor" stroke="currentColor" stroke-width="1.2" stroke-linecap="round" stroke-linejoin="round" />
  <path d="M98.91,89.53 C99.24,89.43 99.59,89.30 99.95,89.14" fill="currentColor" stroke="currentColor" stroke-width="1.2" stroke-linecap="round" stroke-linejoin="round" />
  <path d="M97.90,89.75 C98.24,89.70 98.58,89.63 98.91,89.53" fill="currentColor" stroke="currentColor" stroke-width="1.2" stroke-linecap="round" stroke-linejoin="round" />
  <path d="M95.09,89.51 C95.62,89.71 96.20,89.81 96.83,89.82" fill="currentColor" stroke="currentColor" stroke-width="1.2" stroke-linecap="round" stroke-linejoin="round" />
  <path d="M96.83,89.82 C97.21,89.82 97.57,89.79 97.90,89.75" fill="currentColor" stroke="currentColor" stroke-width="1.2" stroke-linecap="round" stroke-linejoin="round" />
  <line x1="18.57" y1="134.87" x2="132.14" y2="78.31" fill="none" stroke="currentColor" stroke-width="1.2" stroke-linecap="round" stroke-linejoin="round" />
  <line x1="131.96" y1="135.32" x2="108.86" y2="89.02" fill="currentColor" stroke="currentColor" stroke-width="1.2" stroke-linecap="round" stroke-linejoin="round" />
  <line x1="109.33" y1="89.95" x2="18.58" y2="135.32" fill="currentColor" stroke="currentColor" stroke-width="1.2" stroke-linecap="round" stroke-linejoin="round" />
  <line x1="138.23" y1="132.97" x2="135.86" y2="132.97" fill="currentColor" stroke="currentColor" stroke-width="1.2" stroke-linecap="round" stroke-linejoin="round" />
  <line x1="12.34" y1="132.97" x2="11.51" y2="132.97" fill="currentColor" stroke="currentColor" stroke-width="1.2" stroke-linecap="round" stroke-linejoin="round" />
  <path d="M139.37,133.15 C139.05,133.03 138.67,132.97 138.23,132.97" fill="currentColor" stroke="currentColor" stroke-width="1.2" stroke-linecap="round" stroke-linejoin="round" />
  <path d="M140.16,133.63 C139.95,133.43 139.69,133.27 139.37,133.15" fill="currentColor" stroke="currentColor" stroke-width="1.2" stroke-linecap="round" stroke-linejoin="round" />
  <path d="M140.61,134.30 C140.51,134.05 140.36,133.83 140.16,133.63" fill="currentColor" stroke="currentColor" stroke-width="1.2" stroke-linecap="round" stroke-linejoin="round" />
  <line x1="137.03" y1="134.02" x2="138.11" y2="134.02" fill="currentColor" stroke="currentColor" stroke-width="1.2" stroke-linecap="round" stroke-linejoin="round" />
  <path d="M138.11,134.02 C138.47,134.03 138.75,134.08 138.96,134.18" fill="currentColor" stroke="currentColor" stroke-width="1.2" stroke-linecap="round" stroke-linejoin="round" />
  <path d="M138.96,134.18 C139.17,134.29 139.32,134.43 139.41,134.60" fill="currentColor" stroke="currentColor" stroke-width="1.2" stroke-linecap="round" stroke-linejoin="round" />
  <path d="M140.75,135.06 C140.75,134.80 140.71,134.54 140.61,134.30" fill="currentColor" stroke="currentColor" stroke-width="1.2" stroke-linecap="round" stroke-linejoin="round" />
  <path d="M139.41,134.60 C139.50,134.77 139.54,134.96 139.54,135.17" fill="currentColor" stroke="currentColor" stroke-width="1.2" stroke-linecap="round" stroke-linejoin="round" />
  <line x1="137.03" y1="136.47" x2="137.03" y2="134.02" fill="currentColor" stroke="currentColor" stroke-width="1.2" stroke-linecap="round" stroke-linejoin="round" />
  <line x1="18.58" y1="135.32" x2="131.96" y2="135.32" fill="currentColor" stroke="currentColor" stroke-width="1.2" stroke-linecap="round" stroke-linejoin="round" />
  <path d="M140.45,136.12 C140.65,135.84 140.76,135.48 140.75,135.06" fill="currentColor" stroke="currentColor" stroke-width="1.2" stroke-linecap="round" stroke-linejoin="round" />
  <path d="M139.54,135.17 C139.54,135.60 139.40,135.93 139.11,136.15" fill="currentColor" stroke="currentColor" stroke-width="1.2" stroke-linecap="round" stroke-linejoin="round" />
  <line x1="11.91" y1="134.77" x2="13.23" y2="137.73" fill="currentColor" stroke="currentColor" stroke-width="1.2" stroke-linecap="round" stroke-linejoin="round" />
  <line x1="10.69" y1="137.73" x2="11.91" y2="134.77" fill="currentColor" stroke="currentColor" stroke-width="1.2" stroke-linecap="round" stroke-linejoin="round" />
  <path d="M139.11,136.15 C138.83,136.37 138.39,136.47 137.81,136.47" fill="currentColor" stroke="currentColor" stroke-width="1.2" stroke-linecap="round" stroke-linejoin="round" />
  <path d="M139.50,136.81 C139.93,136.64 140.24,136.41 140.45,136.12" fill="currentColor" stroke="currentColor" stroke-width="1.2" stroke-linecap="round" stroke-linejoin="round" />
  <line x1="137.81" y1="136.47" x2="137.03" y2="136.47" fill="currentColor" stroke="currentColor" stroke-width="1.2" stroke-linecap="round" stroke-linejoin="round" />
  <line x1="139.50" y1="136.83" x2="139.50" y2="136.81" fill="currentColor" stroke="currentColor" stroke-width="1.2" stroke-linecap="round" stroke-linejoin="round" />
  <path d="M140.56,137.24 C140.26,137.05 139.91,136.91 139.50,136.83" fill="currentColor" stroke="currentColor" stroke-width="1.2" stroke-linecap="round" stroke-linejoin="round" />
  <line x1="135.86" y1="132.97" x2="135.86" y2="141.15" fill="currentColor" stroke="currentColor" stroke-width="1.2" stroke-linecap="round" stroke-linejoin="round" />
  <line x1="11.51" y1="132.97" x2="8.00" y2="141.20" fill="currentColor" stroke="currentColor" stroke-width="1.2" stroke-linecap="round" stroke-linejoin="round" />
  <line x1="16.00" y1="141.20" x2="12.34" y2="132.97" fill="currentColor" stroke="currentColor" stroke-width="1.2" stroke-linecap="round" stroke-linejoin="round" />
  <line x1="137.03" y1="137.53" x2="138.45" y2="137.53" fill="currentColor" stroke="currentColor" stroke-width="1.2" stroke-linecap="round" stroke-linejoin="round" />
  <path d="M141.23,137.97 C141.08,137.68 140.85,137.44 140.56,137.24" fill="currentColor" stroke="currentColor" stroke-width="1.2" stroke-linecap="round" stroke-linejoin="round" />
  <path d="M138.45,137.53 C138.86,137.53 139.20,137.58 139.47,137.69" fill="currentColor" stroke="currentColor" stroke-width="1.2" stroke-linecap="round" stroke-linejoin="round" />
  <line x1="13.23" y1="137.73" x2="10.69" y2="137.73" fill="currentColor" stroke="currentColor" stroke-width="1.2" stroke-linecap="round" stroke-linejoin="round" />
  <path d="M139.47,137.69 C139.74,137.80 139.93,137.95 140.07,138.14" fill="currentColor" stroke="currentColor" stroke-width="1.2" stroke-linecap="round" stroke-linejoin="round" />
  <path d="M140.07,138.14 C140.20,138.33 140.26,138.55 140.26,138.80" fill="currentColor" stroke="currentColor" stroke-width="1.2" stroke-linecap="round" stroke-linejoin="round" />
  <path d="M141.47,138.97 C141.47,138.60 141.39,138.27 141.23,137.97" fill="currentColor" stroke="currentColor" stroke-width="1.2" stroke-linecap="round" stroke-linejoin="round" />
  <line x1="10.23" y1="138.79" x2="13.71" y2="138.79" fill="currentColor" stroke="currentColor" stroke-width="1.2" stroke-linecap="round" stroke-linejoin="round" />
  <line x1="137.03" y1="140.10" x2="137.03" y2="137.53" fill="currentColor" stroke="currentColor" stroke-width="1.2" stroke-linecap="round" stroke-linejoin="round" />
  <path d="M140.26,138.80 C140.26,139.01 140.21,139.21 140.11,139.41" fill="currentColor" stroke="currentColor" stroke-width="1.2" stroke-linecap="round" stroke-linejoin="round" />
  <path d="M141.32,139.74 C141.42,139.48 141.47,139.22 141.47,138.97" fill="currentColor" stroke="currentColor" stroke-width="1.2" stroke-linecap="round" stroke-linejoin="round" />
  <path d="M140.11,139.41 C140.01,139.61 139.83,139.77 139.58,139.90" fill="currentColor" stroke="currentColor" stroke-width="1.2" stroke-linecap="round" stroke-linejoin="round" />
  <line x1="9.20" y1="141.20" x2="10.23" y2="138.79" fill="currentColor" stroke="currentColor" stroke-width="1.2" stroke-linecap="round" stroke-linejoin="round" />
  <line x1="13.71" y1="138.79" x2="14.80" y2="141.20" fill="currentColor" stroke="currentColor" stroke-width="1.2" stroke-linecap="round" stroke-linejoin="round" />
  <path d="M139.58,139.90 C139.32,140.03 138.96,140.09 138.51,140.10" fill="currentColor" stroke="currentColor" stroke-width="1.2" stroke-linecap="round" stroke-linejoin="round" />
  <path d="M140.84,140.44 C141.06,140.23 141.22,139.99 141.32,139.74" fill="currentColor" stroke="currentColor" stroke-width="1.2" stroke-linecap="round" stroke-linejoin="round" />
  <line x1="138.51" y1="140.10" x2="137.03" y2="140.10" fill="currentColor" stroke="currentColor" stroke-width="1.2" stroke-linecap="round" stroke-linejoin="round" />
  <path d="M139.97,140.95 C140.33,140.82 140.62,140.65 140.84,140.44" fill="currentColor" stroke="currentColor" stroke-width="1.2" stroke-linecap="round" stroke-linejoin="round" />
  <path d="M138.66,141.15 C139.18,141.15 139.61,141.08 139.97,140.95" fill="currentColor" stroke="currentColor" stroke-width="1.2" stroke-linecap="round" stroke-linejoin="round" />
  <line x1="135.86" y1="141.15" x2="138.66" y2="141.15" fill="currentColor" stroke="currentColor" stroke-width="1.2" stroke-linecap="round" stroke-linejoin="round" />
  <line x1="8.00" y1="141.20" x2="9.20" y2="141.20" fill="currentColor" stroke="currentColor" stroke-width="1.2" stroke-linecap="round" stroke-linejoin="round" />
  <line x1="14.80" y1="141.20" x2="16.00" y2="141.20" fill="currentColor" stroke="currentColor" stroke-width="1.2" stroke-linecap="round" stroke-linejoin="round" />
</svg>