<svg xmlns="http://www.w3.org/2000/svg" viewBox="0 0 130.36 151.66" preserveAspectRatio="xMidYMid meet" shape-rendering="geometricPrecision" text-rendering="optimizeLegibility">
  <path d="M18.07,13.48H98.13V133.58H18.07Z" fill-rule="evenodd" fill="currentColor" fill-opacity="0.361" stroke="currentColor" stroke-width="1.2089999437332153" stroke-linejoin="round" />
  <path d="M17.93,13.62L98.00,13.62C98.00,23.87 94.09,34.12 86.28,41.93C70.65,57.56 45.28,57.56 29.65,41.93C21.83,34.12 17.93,23.87 17.93,13.62Z" fill-rule="evenodd" fill="var(--panel)" stroke="none" />
  <path d="M17.93,133.59L98.00,133.60C98.00,123.35 94.09,113.10 86.28,105.28C70.65,89.65 45.28,89.65 29.65,105.28C21.83,113.10 17.93,123.34 17.93,133.59Z" fill-rule="evenodd" fill="var(--panel)" stroke="none" />
  <rect x="18.07" y="13.48" width="80.07" height="120.10" fill="none" stroke="currentColor" stroke-width="1.2089999437332153" stroke-linecap="round" stroke-linejoin="round" />
  <path d="M13.99,139.89C14.02,139.97 14.04,140.04 14.04,140.09C14.04,140.13 14.02,140.17 14.00,140.20C13.97,140.22 13.92,140.24 13.85,140.25C13.79,140.25 13.70,140.26 13.58,140.26C13.47,140.26 13.38,140.25 13.32,140.25C13.25,140.24 13.20,140.23 13.16,140.22C13.13,140.21 13.10,140.19 13.09,140.17C13.07,140.15 13.06,140.12 13.04,140.09L12.44,138.38L9.53,138.38L8.95,140.07C8.94,140.10 8.93,140.13 8.91,140.15C8.89,140.17 8.86,140.19 8.83,140.21C8.80,140.23 8.75,140.24 8.68,140.25C8.62,140.25 8.54,140.26 8.44,140.26C8.33,140.26 8.25,140.25 8.18,140.24C8.11,140.23 8.07,140.22 8.04,140.19C8.01,140.17 8.00,140.13 8.00,140.08C8.00,140.03 8.02,139.97 8.05,139.89L10.40,133.37C10.41,133.34 10.43,133.30 10.46,133.28C10.48,133.25 10.51,133.23 10.56,133.22C10.60,133.20 10.66,133.19 10.73,133.19C10.80,133.18 10.89,133.18 11.00,133.18C11.12,133.18 11.21,133.18 11.29,133.19C11.36,133.19 11.43,133.20 11.47,133.22C11.52,133.23 11.55,133.25 11.58,133.28C11.60,133.31 11.62,133.34 11.64,133.38L13.99,139.89ZM10.97,134.14L10.97,134.14L9.76,137.64L12.20,137.64L10.97,134.14Z" fill="currentColor" stroke="currentColor" stroke-width="1.2" stroke-linejoin="round" />
  <path d="M106.32,138.21C106.32,138.43 106.29,138.64 106.24,138.82C106.18,139.01 106.10,139.18 106.00,139.32C105.90,139.47 105.78,139.60 105.64,139.71C105.49,139.83 105.33,139.92 105.15,140.00C104.97,140.07 104.78,140.13 104.58,140.17C104.38,140.20 104.14,140.22 103.88,140.22L102.05,140.22C101.96,140.22 101.88,140.20 101.81,140.14C101.74,140.08 101.70,139.99 101.70,139.84L101.70,133.59C101.70,133.45 101.74,133.35 101.81,133.30C101.88,133.24 101.96,133.21 102.05,133.21L103.64,133.21C104.06,133.21 104.40,133.25 104.67,133.33C104.94,133.41 105.16,133.53 105.34,133.68C105.52,133.83 105.65,134.02 105.74,134.24C105.83,134.46 105.88,134.71 105.88,134.98C105.88,135.15 105.86,135.31 105.82,135.46C105.78,135.61 105.72,135.75 105.64,135.88C105.56,136.01 105.47,136.12 105.35,136.23C105.23,136.33 105.10,136.41 104.95,136.47C105.14,136.51 105.32,136.58 105.48,136.67C105.65,136.77 105.79,136.89 105.92,137.04C106.04,137.19 106.14,137.36 106.21,137.56C106.29,137.76 106.32,137.98 106.32,138.21ZM104.92,135.08C104.92,134.91 104.90,134.75 104.85,134.62C104.80,134.48 104.73,134.36 104.63,134.27C104.52,134.17 104.39,134.10 104.23,134.05C104.07,134.00 103.85,133.97 103.59,133.97L102.62,133.97L102.62,136.24L103.68,136.24C103.93,136.24 104.12,136.21 104.27,136.15C104.42,136.08 104.54,136.00 104.64,135.89C104.73,135.79 104.81,135.66 104.85,135.52C104.90,135.38 104.92,135.23 104.92,135.08ZM105.34,138.27C105.34,138.06 105.31,137.87 105.24,137.72C105.17,137.56 105.08,137.42 104.95,137.31C104.82,137.21 104.66,137.12 104.47,137.07C104.27,137.01 104.03,136.98 103.74,136.98L102.62,136.98L102.62,139.45L103.98,139.45C104.19,139.45 104.37,139.43 104.53,139.38C104.69,139.33 104.83,139.25 104.95,139.15C105.07,139.05 105.17,138.93 105.24,138.78C105.31,138.64 105.34,138.46 105.34,138.27Z" fill="currentColor" stroke="currentColor" stroke-width="1.2" stroke-linejoin="round" />
  <path d="M106.38,14.11C106.38,14.16 106.38,14.22 106.38,14.26C106.37,14.30 106.37,14.34 106.36,14.37C106.35,14.41 106.34,14.43 106.32,14.46C106.31,14.48 106.28,14.51 106.25,14.55C106.21,14.59 106.13,14.64 106.02,14.72C105.90,14.79 105.76,14.86 105.59,14.93C105.42,15.00 105.22,15.06 105.00,15.11C104.78,15.16 104.53,15.18 104.27,15.18C103.81,15.18 103.40,15.11 103.04,14.96C102.67,14.81 102.36,14.58 102.10,14.29C101.84,13.99 101.64,13.62 101.50,13.19C101.36,12.75 101.29,12.25 101.29,11.68C101.29,11.10 101.37,10.58 101.52,10.13C101.67,9.67 101.88,9.29 102.15,8.97C102.42,8.66 102.74,8.42 103.12,8.25C103.50,8.08 103.92,8.00 104.38,8.00C104.58,8.00 104.78,8.02 104.97,8.06C105.16,8.10 105.34,8.14 105.50,8.20C105.66,8.26 105.81,8.33 105.93,8.40C106.06,8.48 106.15,8.54 106.19,8.59C106.24,8.64 106.28,8.67 106.29,8.70C106.30,8.72 106.32,8.75 106.33,8.79C106.33,8.82 106.34,8.86 106.35,8.91C106.35,8.96 106.35,9.01 106.35,9.08C106.35,9.15 106.35,9.21 106.34,9.26C106.34,9.31 106.33,9.36 106.31,9.39C106.30,9.42 106.28,9.45 106.26,9.47C106.24,9.48 106.22,9.49 106.19,9.49C106.14,9.49 106.07,9.46 105.97,9.38C105.89,9.31 105.77,9.24 105.63,9.15C105.48,9.07 105.31,8.99 105.11,8.92C104.90,8.85 104.66,8.81 104.37,8.81C104.06,8.81 103.78,8.88 103.52,9.00C103.27,9.12 103.05,9.31 102.87,9.55C102.69,9.79 102.55,10.09 102.45,10.44C102.35,10.78 102.30,11.18 102.30,11.63C102.30,12.07 102.35,12.47 102.45,12.81C102.54,13.15 102.68,13.44 102.86,13.66C103.04,13.89 103.26,14.07 103.52,14.19C103.78,14.30 104.07,14.36 104.40,14.36C104.68,14.36 104.92,14.33 105.13,14.26C105.34,14.19 105.51,14.11 105.66,14.03C105.80,13.94 105.92,13.87 106.02,13.80C106.11,13.73 106.19,13.69 106.24,13.69C106.27,13.69 106.29,13.70 106.31,13.71C106.32,13.72 106.34,13.74 106.35,13.77C106.36,13.80 106.37,13.85 106.37,13.90C106.38,13.96 106.38,14.02 106.38,14.11Z" fill="currentColor" stroke="currentColor" stroke-width="1.2" stroke-linejoin="round" />
  <path d="M14.13,11.49C14.13,12.10 14.05,12.63 13.90,13.08C13.74,13.53 13.52,13.91 13.22,14.21C12.92,14.50 12.56,14.73 12.12,14.88C11.69,15.02 11.17,15.10 10.57,15.10L9.09,15.10C9.00,15.10 8.93,15.07 8.85,15.01C8.78,14.96 8.74,14.86 8.74,14.72L8.74,8.47C8.74,8.33 8.78,8.23 8.85,8.17C8.93,8.12 9.00,8.09 9.09,8.09L10.68,8.09C11.28,8.09 11.80,8.17 12.21,8.32C12.63,8.48 12.98,8.71 13.27,9.00C13.55,9.29 13.77,9.65 13.91,10.07C14.06,10.49 14.13,10.96 14.13,11.49ZM13.15,11.53C13.15,11.15 13.10,10.80 13.01,10.47C12.92,10.14 12.77,9.86 12.57,9.62C12.37,9.38 12.11,9.20 11.81,9.06C11.50,8.93 11.11,8.86 10.62,8.86L9.67,8.86L9.67,14.32L10.63,14.32C11.08,14.32 11.46,14.26 11.76,14.15C12.07,14.04 12.33,13.87 12.53,13.64C12.74,13.40 12.89,13.11 13.00,12.77C13.10,12.42 13.15,12.00 13.15,11.53Z" fill="currentColor" stroke="currentColor" stroke-width="1.2" stroke-linejoin="round" />
  <path d="M98.14,13.48 C98.14,23.73 94.23,33.98 86.42,41.80" fill="none" stroke="currentColor" stroke-width="1.2089999437332153" stroke-linecap="round" stroke-linejoin="round" />
  <path d="M86.42,41.80 C70.79,57.43 45.42,57.43 29.79,41.80" fill="none" stroke="currentColor" stroke-width="1.2089999437332153" stroke-linecap="round" stroke-linejoin="round" />
  <path d="M29.79,41.80 C21.97,33.98 18.07,23.73 18.06,13.48" fill="none" stroke="currentColor" stroke-width="1.2089999437332153" stroke-linecap="round" stroke-linejoin="round" />
  <path d="M98.14,133.73 C98.14,123.48 94.23,113.23 86.42,105.42" fill="none" stroke="currentColor" stroke-width="1.2089999437332153" stroke-linecap="round" stroke-linejoin="round" />
  <path d="M86.42,105.42 C70.79,89.79 45.42,89.79 29.79,105.42" fill="none" stroke="currentColor" stroke-width="1.2089999437332153" stroke-linecap="round" stroke-linejoin="round" />
  <path d="M29.79,105.42 C21.97,113.23 18.07,123.48 18.06,133.73" fill="none" stroke="currentColor" stroke-width="1.2089999437332153" stroke-linecap="round" stroke-linejoin="round" />
  <path d="M53.15,141.56C53.15,141.68 53.13,141.78 53.10,141.84C53.06,141.91 53.01,141.95 52.95,141.95L52.15,141.95L52.15,143.42C52.15,143.45 52.15,143.47 52.13,143.49C52.12,143.51 52.09,143.53 52.06,143.54C52.02,143.56 51.97,143.57 51.92,143.58C51.86,143.59 51.78,143.59 51.69,143.59C51.61,143.59 51.54,143.59 51.48,143.58C51.42,143.57 51.37,143.56 51.34,143.54C51.31,143.53 51.28,143.51 51.27,143.49C51.26,143.47 51.25,143.45 51.25,143.42L51.25,141.95L48.36,141.95C48.31,141.95 48.28,141.94 48.25,141.93C48.22,141.92 48.19,141.90 48.17,141.87C48.15,141.84 48.13,141.80 48.12,141.75C48.11,141.69 48.11,141.62 48.11,141.54C48.11,141.47 48.11,141.41 48.11,141.35C48.12,141.30 48.12,141.25 48.13,141.20C48.14,141.16 48.16,141.11 48.18,141.07C48.20,141.03 48.22,140.99 48.24,140.94L50.77,136.68C50.79,136.65 50.81,136.63 50.85,136.60C50.88,136.58 50.93,136.57 50.98,136.55C51.03,136.54 51.10,136.53 51.18,136.52C51.26,136.52 51.35,136.51 51.46,136.51C51.58,136.51 51.68,136.52 51.77,136.53C51.86,136.53 51.93,136.55 51.99,136.56C52.04,136.58 52.08,136.59 52.11,136.62C52.14,136.64 52.15,136.67 52.15,136.70L52.15,141.18L52.95,141.18C53.01,141.18 53.06,141.21 53.10,141.27C53.13,141.34 53.15,141.43 53.15,141.56ZM51.25,137.33L51.24,137.33L48.96,141.18L51.25,141.18L51.25,137.33Z" fill="currentColor" stroke="currentColor" stroke-width="1.2" stroke-linejoin="round" />
  <path d="M60.31,142.68C60.31,142.74 60.31,142.79 60.31,142.84C60.31,142.88 60.30,142.92 60.29,142.95C60.28,142.98 60.27,143.01 60.26,143.03C60.24,143.06 60.22,143.09 60.17,143.14C60.13,143.18 60.05,143.24 59.94,143.30C59.83,143.37 59.71,143.43 59.58,143.48C59.44,143.53 59.29,143.58 59.13,143.61C58.97,143.64 58.81,143.66 58.64,143.66C58.29,143.66 57.98,143.60 57.71,143.48C57.44,143.37 57.21,143.20 57.03,142.98C56.85,142.76 56.71,142.48 56.61,142.16C56.52,141.84 56.47,141.46 56.47,141.04C56.47,140.56 56.53,140.15 56.64,139.80C56.76,139.46 56.92,139.18 57.13,138.96C57.33,138.74 57.57,138.57 57.85,138.46C58.12,138.36 58.42,138.31 58.74,138.31C58.90,138.31 59.05,138.32 59.20,138.35C59.34,138.38 59.48,138.42 59.60,138.46C59.72,138.51 59.83,138.56 59.93,138.63C60.02,138.69 60.09,138.74 60.13,138.78C60.18,138.82 60.21,138.86 60.22,138.88C60.24,138.91 60.25,138.94 60.27,138.97C60.28,139.01 60.28,139.05 60.29,139.09C60.29,139.13 60.29,139.19 60.29,139.25C60.29,139.39 60.28,139.49 60.24,139.55C60.21,139.60 60.17,139.63 60.12,139.63C60.07,139.63 60.01,139.60 59.94,139.54C59.87,139.48 59.78,139.42 59.67,139.35C59.56,139.27 59.43,139.21 59.28,139.15C59.12,139.09 58.94,139.06 58.73,139.06C58.30,139.06 57.97,139.22 57.74,139.55C57.51,139.88 57.40,140.36 57.40,140.99C57.40,141.31 57.43,141.58 57.49,141.82C57.55,142.06 57.64,142.25 57.75,142.41C57.87,142.57 58.01,142.69 58.18,142.77C58.34,142.84 58.54,142.88 58.75,142.88C58.96,142.88 59.14,142.85 59.30,142.79C59.45,142.72 59.59,142.65 59.70,142.57C59.81,142.49 59.91,142.42 59.99,142.36C60.06,142.30 60.12,142.27 60.17,142.27C60.19,142.27 60.21,142.27 60.23,142.29C60.25,142.30 60.27,142.33 60.28,142.36C60.29,142.40 60.30,142.44 60.31,142.49C60.31,142.54 60.31,142.60 60.31,142.68Z" fill="currentColor" stroke="currentColor" stroke-width="1.2" stroke-linejoin="round" />
  <path d="M68.73,143.42C68.73,143.45 68.73,143.47 68.71,143.49C68.70,143.51 68.67,143.53 68.64,143.54C68.61,143.56 68.57,143.57 68.51,143.58C68.45,143.58 68.38,143.59 68.29,143.59C68.20,143.59 68.13,143.58 68.07,143.58C68.01,143.57 67.96,143.56 67.93,143.54C67.90,143.53 67.87,143.51 67.86,143.49C67.84,143.47 67.83,143.45 67.83,143.42L67.83,140.46C67.83,140.25 67.82,140.06 67.78,139.89C67.74,139.72 67.69,139.58 67.61,139.45C67.53,139.33 67.43,139.24 67.30,139.17C67.18,139.11 67.04,139.07 66.87,139.07C66.66,139.07 66.46,139.15 66.25,139.31C66.04,139.47 65.81,139.71 65.56,140.01L65.56,143.42C65.56,143.45 65.56,143.47 65.54,143.49C65.53,143.51 65.50,143.53 65.47,143.54C65.44,143.56 65.39,143.57 65.33,143.58C65.27,143.58 65.20,143.59 65.12,143.59C65.03,143.59 64.96,143.58 64.90,143.58C64.84,143.57 64.79,143.56 64.76,143.54C64.73,143.53 64.70,143.51 64.69,143.49C64.68,143.47 64.67,143.45 64.67,143.42L64.67,140.46C64.67,140.25 64.65,140.06 64.61,139.89C64.57,139.72 64.51,139.58 64.43,139.45C64.35,139.33 64.25,139.24 64.13,139.17C64.01,139.11 63.87,139.07 63.70,139.07C63.49,139.07 63.29,139.15 63.08,139.31C62.87,139.47 62.64,139.71 62.40,140.01L62.40,143.42C62.40,143.45 62.39,143.47 62.37,143.49C62.36,143.51 62.34,143.53 62.30,143.54C62.27,143.56 62.23,143.57 62.17,143.58C62.11,143.58 62.04,143.59 61.95,143.59C61.86,143.59 61.79,143.58 61.73,143.58C61.67,143.57 61.62,143.56 61.59,143.54C61.56,143.53 61.53,143.51 61.52,143.49C61.51,143.47 61.50,143.45 61.50,143.42L61.50,138.54C61.50,138.51 61.51,138.49 61.52,138.47C61.53,138.45 61.55,138.43 61.58,138.42C61.62,138.40 61.66,138.39 61.71,138.38C61.76,138.38 61.82,138.38 61.91,138.38C61.99,138.38 62.05,138.38 62.11,138.38C62.16,138.39 62.20,138.40 62.23,138.42C62.26,138.43 62.28,138.45 62.29,138.47C62.30,138.49 62.31,138.51 62.31,138.54L62.31,139.19C62.58,138.88 62.85,138.66 63.11,138.51C63.37,138.37 63.63,138.30 63.89,138.30C64.09,138.30 64.27,138.32 64.44,138.37C64.60,138.42 64.74,138.48 64.86,138.57C64.98,138.65 65.09,138.75 65.17,138.87C65.26,138.99 65.33,139.12 65.39,139.26C65.55,139.09 65.71,138.94 65.85,138.81C66.00,138.69 66.14,138.59 66.28,138.52C66.41,138.44 66.54,138.39 66.67,138.35C66.80,138.32 66.93,138.30 67.06,138.30C67.37,138.30 67.64,138.36 67.85,138.47C68.06,138.58 68.24,138.72 68.37,138.91C68.50,139.09 68.59,139.31 68.65,139.55C68.71,139.80 68.73,140.06 68.73,140.34L68.73,143.42Z" fill="currentColor" stroke="currentColor" stroke-width="1.2" stroke-linejoin="round" />
  <path d="M106.59,70.70C106.59,70.77 106.58,70.83 106.58,70.88C106.57,70.93 106.57,70.98 106.56,71.03C106.55,71.08 106.54,71.13 106.52,71.17C106.50,71.22 106.48,71.26 106.46,71.31L103.94,77.13C103.92,77.18 103.90,77.21 103.87,77.24C103.84,77.27 103.81,77.29 103.77,77.30C103.73,77.32 103.67,77.33 103.61,77.34C103.54,77.34 103.46,77.35 103.37,77.35C103.25,77.35 103.15,77.34 103.08,77.33C103.01,77.32 102.96,77.30 102.93,77.28C102.90,77.25 102.89,77.23 102.89,77.19C102.90,77.16 102.91,77.12 102.93,77.07L105.58,71.12L102.22,71.12C102.15,71.12 102.10,71.08 102.07,71.01C102.03,70.94 102.01,70.84 102.01,70.71C102.01,70.64 102.02,70.58 102.03,70.53C102.04,70.48 102.05,70.44 102.07,70.40C102.09,70.37 102.11,70.34 102.13,70.33C102.16,70.31 102.19,70.30 102.22,70.30L106.31,70.30C106.36,70.30 106.40,70.31 106.44,70.32C106.48,70.33 106.50,70.35 106.52,70.38C106.55,70.42 106.56,70.46 106.57,70.51C106.58,70.56 106.59,70.62 106.59,70.70Z" fill="currentColor" stroke="currentColor" stroke-width="1.2" stroke-linejoin="round" />
  <path d="M113.95,76.43C113.95,76.50 113.94,76.55 113.94,76.59C113.94,76.64 113.93,76.68 113.92,76.71C113.91,76.74 113.90,76.77 113.89,76.79C113.88,76.81 113.85,76.85 113.80,76.89C113.76,76.94 113.68,76.99 113.57,77.06C113.46,77.13 113.34,77.19 113.21,77.24C113.07,77.29 112.92,77.33 112.76,77.37C112.60,77.40 112.44,77.42 112.27,77.42C111.92,77.42 111.61,77.36 111.34,77.24C111.07,77.13 110.84,76.96 110.66,76.74C110.48,76.51 110.34,76.24 110.24,75.92C110.15,75.59 110.10,75.22 110.10,74.80C110.10,74.32 110.16,73.91 110.27,73.56C110.39,73.22 110.55,72.93 110.76,72.71C110.96,72.49 111.20,72.33 111.48,72.22C111.75,72.11 112.05,72.06 112.37,72.06C112.53,72.06 112.68,72.08 112.83,72.11C112.97,72.13 113.11,72.17 113.23,72.22C113.35,72.27 113.46,72.32 113.56,72.38C113.65,72.44 113.72,72.50 113.77,72.54C113.81,72.58 113.84,72.62 113.86,72.64C113.87,72.67 113.89,72.70 113.90,72.73C113.91,72.77 113.91,72.80 113.92,72.85C113.92,72.89 113.92,72.95 113.92,73.01C113.92,73.15 113.91,73.25 113.87,73.31C113.84,73.36 113.80,73.39 113.76,73.39C113.70,73.39 113.64,73.36 113.57,73.30C113.50,73.24 113.41,73.18 113.30,73.10C113.19,73.03 113.06,72.96 112.91,72.90C112.75,72.85 112.57,72.82 112.36,72.82C111.93,72.82 111.60,72.98 111.37,73.31C111.15,73.64 111.03,74.12 111.03,74.75C111.03,75.06 111.06,75.34 111.12,75.58C111.18,75.81 111.27,76.01 111.38,76.17C111.50,76.33 111.64,76.45 111.81,76.52C111.98,76.60 112.17,76.64 112.38,76.64C112.59,76.64 112.77,76.61 112.93,76.54C113.08,76.48 113.22,76.41 113.33,76.33C113.44,76.25 113.54,76.18 113.62,76.12C113.70,76.05 113.76,76.02 113.80,76.02C113.82,76.02 113.85,76.03 113.86,76.04C113.88,76.06 113.90,76.08 113.91,76.12C113.92,76.15 113.93,76.20 113.94,76.25C113.94,76.30 113.95,76.36 113.95,76.43Z" fill="currentColor" stroke="currentColor" stroke-width="1.2" stroke-linejoin="round" />
  <path d="M122.36,77.18C122.36,77.21 122.36,77.23 122.34,77.25C122.33,77.27 122.30,77.29 122.27,77.30C122.24,77.32 122.20,77.33 122.14,77.33C122.08,77.34 122.01,77.34 121.92,77.34C121.83,77.34 121.76,77.34 121.70,77.33C121.64,77.33 121.59,77.32 121.56,77.30C121.53,77.29 121.50,77.27 121.49,77.25C121.47,77.23 121.46,77.21 121.46,77.18L121.46,74.21C121.46,74.01 121.45,73.82 121.41,73.65C121.37,73.48 121.32,73.33 121.24,73.21C121.16,73.09 121.06,73.00 120.93,72.93C120.81,72.87 120.67,72.83 120.50,72.83C120.29,72.83 120.09,72.91 119.88,73.07C119.67,73.23 119.44,73.46 119.19,73.77L119.19,77.18C119.19,77.21 119.19,77.23 119.17,77.25C119.16,77.27 119.13,77.29 119.10,77.30C119.07,77.32 119.02,77.33 118.96,77.33C118.90,77.34 118.83,77.34 118.75,77.34C118.66,77.34 118.59,77.34 118.53,77.33C118.47,77.33 118.42,77.32 118.39,77.30C118.36,77.29 118.33,77.27 118.32,77.25C118.31,77.23 118.30,77.21 118.30,77.18L118.30,74.21C118.30,74.01 118.28,73.82 118.24,73.65C118.20,73.48 118.14,73.33 118.06,73.21C117.98,73.09 117.88,73.00 117.76,72.93C117.64,72.87 117.50,72.83 117.33,72.83C117.12,72.83 116.92,72.91 116.71,73.07C116.50,73.23 116.27,73.46 116.03,73.77L116.03,77.18C116.03,77.21 116.02,77.23 116.00,77.25C115.99,77.27 115.97,77.29 115.93,77.30C115.90,77.32 115.86,77.33 115.80,77.33C115.74,77.34 115.67,77.34 115.58,77.34C115.49,77.34 115.42,77.34 115.36,77.33C115.30,77.33 115.25,77.32 115.22,77.30C115.19,77.29 115.16,77.27 115.15,77.25C115.14,77.23 115.13,77.21 115.13,77.18L115.13,72.30C115.13,72.27 115.14,72.25 115.15,72.23C115.16,72.21 115.18,72.19 115.21,72.17C115.25,72.16 115.29,72.15 115.34,72.14C115.39,72.14 115.45,72.13 115.54,72.13C115.62,72.13 115.68,72.14 115.74,72.14C115.79,72.15 115.83,72.16 115.86,72.17C115.89,72.19 115.91,72.21 115.92,72.23C115.93,72.25 115.94,72.27 115.94,72.30L115.94,72.95C116.21,72.64 116.48,72.41 116.74,72.27C117.00,72.13 117.26,72.06 117.52,72.06C117.72,72.06 117.90,72.08 118.07,72.13C118.23,72.18 118.37,72.24 118.49,72.33C118.61,72.41 118.72,72.51 118.80,72.63C118.89,72.75 118.96,72.88 119.02,73.02C119.18,72.84 119.34,72.69 119.48,72.57C119.63,72.45 119.77,72.35 119.91,72.27C120.04,72.20 120.17,72.14 120.30,72.11C120.43,72.07 120.56,72.06 120.69,72.06C121.00,72.06 121.27,72.11 121.48,72.22C121.69,72.33 121.87,72.48 122.00,72.66C122.13,72.85 122.22,73.06 122.28,73.31C122.34,73.56 122.36,73.82 122.36,74.09L122.36,77.18Z" fill="currentColor" stroke="currentColor" stroke-width="1.2" stroke-linejoin="round" />
</svg>