<svg xmlns="http://www.w3.org/2000/svg" viewBox="0 0 220.13 141.51" preserveAspectRatio="xMidYMid meet" shape-rendering="geometricPrecision" text-rendering="optimizeLegibility">
  <line x1="19.02" y1="121.08" x2="160.76" y2="14.78" fill="none" stroke="currentColor" stroke-width="1.2" stroke-linecap="round" stroke-linejoin="round" />
  <line x1="160.76" y1="14.78" x2="160.76" y2="121.08" fill="none" stroke="currentColor" stroke-width="1.2" stroke-linecap="round" stroke-linejoin="round" />
  <line x1="160.76" y1="121.08" x2="19.02" y2="121.08" fill="none" stroke="currentColor" stroke-width="1.2" stroke-linecap="round" stroke-linejoin="round" />
  <rect x="150.55" y="110.87" width="10.21" height="10.21" fill="none" stroke="currentColor" stroke-width="1.0" stroke-linecap="round" stroke-linejoin="round" />
  <path d="M11.98,120.29L11.22,120.29L8.00,127.83L9.10,127.83L10.05,125.62L13.24,125.62L14.24,127.83L15.34,127.83L11.98,120.29ZM11.59,121.94L12.80,124.66L10.46,124.66L11.59,121.94Z" fill="currentColor" stroke="currentColor" stroke-width="1.2" stroke-linejoin="round" />
  <path d="M164.05,127.84L166.62,127.84C167.09,127.83 167.49,127.77 167.82,127.65C168.15,127.53 168.41,127.38 168.61,127.18C168.82,126.99 168.96,126.77 169.06,126.54C169.15,126.30 169.20,126.07 169.20,125.83C169.19,125.50 169.12,125.19 168.98,124.92C168.83,124.65 168.63,124.43 168.36,124.25C168.09,124.07 167.77,123.95 167.39,123.88L167.39,123.85C167.78,123.70 168.07,123.49 168.26,123.23C168.45,122.96 168.54,122.64 168.54,122.25C168.54,122.01 168.49,121.78 168.40,121.55C168.31,121.32 168.18,121.12 167.99,120.94C167.80,120.75 167.56,120.61 167.27,120.50C166.98,120.39 166.63,120.34 166.23,120.34L164.05,120.34L164.05,127.84ZM165.12,121.30L166.11,121.30C166.44,121.30 166.70,121.35 166.90,121.45C167.09,121.54 167.23,121.67 167.31,121.83C167.39,121.98 167.43,122.16 167.43,122.35C167.43,122.75 167.30,123.05 167.03,123.25C166.77,123.45 166.37,123.55 165.84,123.55L165.12,123.55L165.12,121.30ZM165.12,124.51L166.42,124.51C166.80,124.52 167.11,124.57 167.36,124.66C167.60,124.76 167.79,124.90 167.90,125.07C168.02,125.25 168.08,125.45 168.08,125.68C168.09,125.87 168.04,126.06 167.95,126.24C167.86,126.42 167.69,126.57 167.46,126.69C167.22,126.80 166.90,126.86 166.48,126.87L165.12,126.87L165.12,124.51Z" fill="currentColor" stroke="currentColor" stroke-width="1.2" stroke-linejoin="round" />
  <path d="M170.44,8.65C170.10,8.51 169.78,8.39 169.49,8.30C169.19,8.21 168.91,8.14 168.65,8.10C168.38,8.05 168.12,8.03 167.86,8.03C167.26,8.03 166.71,8.13 166.21,8.33C165.71,8.52 165.28,8.80 164.91,9.15C164.54,9.51 164.26,9.93 164.06,10.41C163.86,10.89 163.75,11.42 163.75,11.99C163.75,12.31 163.80,12.64 163.90,12.98C164.00,13.33 164.16,13.66 164.36,13.99C164.57,14.31 164.84,14.61 165.16,14.87C165.48,15.13 165.86,15.34 166.30,15.49C166.73,15.65 167.24,15.73 167.80,15.73C168.19,15.73 168.54,15.70 168.86,15.64C169.18,15.59 169.47,15.51 169.74,15.41C170.01,15.31 170.27,15.20 170.51,15.07L170.51,13.89C170.09,14.17 169.65,14.38 169.21,14.52C168.76,14.67 168.32,14.74 167.90,14.74C167.29,14.74 166.76,14.61 166.31,14.38C165.85,14.14 165.50,13.80 165.25,13.38C164.99,12.95 164.87,12.46 164.86,11.89C164.86,11.48 164.94,11.10 165.09,10.75C165.24,10.40 165.44,10.10 165.71,9.84C165.98,9.58 166.30,9.38 166.66,9.24C167.02,9.10 167.42,9.02 167.85,9.02C168.28,9.02 168.71,9.08 169.12,9.21C169.54,9.34 169.98,9.53 170.44,9.80L170.44,8.65Z" fill="currentColor" stroke="currentColor" stroke-width="1.2" stroke-linejoin="round" />
  <path d="M88.22,125.91L87.76,125.91L83.96,130.55L83.96,131.04L87.14,131.04L87.14,133.51L88.22,133.51L88.22,131.04L89.02,131.04L89.02,130.07L88.22,130.07L88.22,125.91ZM87.12,127.94L87.14,127.94L87.14,130.07L85.41,130.07L87.12,127.94Z" fill="currentColor" stroke="currentColor" stroke-width="1.2" stroke-linejoin="round" />
  <path d="M94.22,128.57L93.06,128.57L91.78,130.23L90.99,128.57L89.99,128.57L91.16,130.89L89.00,133.51L90.15,133.51L91.58,131.66L92.48,133.51L93.48,133.51L92.23,131.01L94.22,128.57Z" fill="currentColor" stroke="currentColor" stroke-width="1.2" stroke-linejoin="round" />
  <path d="M166.95,67.71C167.12,67.64 167.28,67.57 167.42,67.53C167.56,67.48 167.70,67.45 167.83,67.43C167.96,67.40 168.09,67.39 168.22,67.39C168.49,67.39 168.72,67.44 168.91,67.53C169.11,67.62 169.26,67.75 169.36,67.92C169.47,68.08 169.52,68.28 169.52,68.52C169.52,68.86 169.40,69.13 169.15,69.32C168.90,69.51 168.53,69.60 168.04,69.60L168.04,70.59C168.39,70.58 168.69,70.62 168.93,70.73C169.17,70.84 169.35,70.99 169.46,71.18C169.58,71.38 169.64,71.60 169.64,71.85C169.64,72.09 169.59,72.30 169.49,72.48C169.39,72.66 169.26,72.80 169.07,72.90C168.89,73.00 168.68,73.05 168.43,73.05C168.16,73.05 167.88,73.00 167.61,72.91C167.33,72.81 167.05,72.67 166.76,72.48L166.76,73.64C167.03,73.78 167.30,73.88 167.57,73.96C167.83,74.03 168.10,74.07 168.36,74.07C168.82,74.07 169.23,73.97 169.58,73.78C169.94,73.59 170.21,73.32 170.42,72.98C170.61,72.64 170.72,72.24 170.72,71.79C170.72,71.53 170.68,71.28 170.61,71.04C170.53,70.80 170.41,70.59 170.25,70.40C170.10,70.22 169.89,70.09 169.64,70.01C169.87,69.89 170.05,69.75 170.19,69.59C170.33,69.44 170.44,69.26 170.50,69.05C170.57,68.85 170.60,68.61 170.60,68.33C170.60,67.93 170.51,67.59 170.32,67.29C170.14,67.00 169.89,66.77 169.56,66.61C169.23,66.45 168.84,66.37 168.39,66.37C168.11,66.37 167.86,66.40 167.63,66.45C167.40,66.50 167.17,66.58 166.95,66.69L166.95,67.71Z" fill="currentColor" stroke="currentColor" stroke-width="1.2" stroke-linejoin="round" />
  <path d="M176.43,69.03L175.28,69.03L173.99,70.69L173.21,69.03L172.21,69.03L173.37,71.35L171.22,73.97L172.36,73.97L173.79,72.12L174.69,73.97L175.70,73.97L174.44,71.47L176.43,69.03Z" fill="currentColor" stroke="currentColor" stroke-width="1.2" stroke-linejoin="round" />
  <path d="M79.78,57.97L76.45,57.97L76.45,61.87C76.86,61.77 77.23,61.74 77.56,61.77C77.88,61.81 78.16,61.89 78.38,62.02C78.61,62.15 78.78,62.32 78.90,62.52C79.02,62.73 79.08,62.95 79.08,63.19C79.08,63.44 79.00,63.66 78.87,63.87C78.73,64.07 78.54,64.23 78.31,64.35C78.07,64.48 77.81,64.54 77.53,64.54C77.25,64.54 76.98,64.50 76.70,64.40C76.43,64.31 76.16,64.17 75.89,63.99L75.89,65.10C76.10,65.21 76.31,65.30 76.50,65.37C76.70,65.44 76.89,65.49 77.09,65.52C77.28,65.55 77.49,65.57 77.70,65.56C78.18,65.56 78.60,65.46 78.97,65.25C79.34,65.05 79.63,64.76 79.84,64.40C80.05,64.05 80.15,63.63 80.16,63.17C80.15,62.82 80.09,62.50 79.97,62.20C79.84,61.91 79.66,61.65 79.43,61.43C79.19,61.22 78.91,61.06 78.57,60.95C78.23,60.84 77.85,60.79 77.43,60.81L77.43,58.93L79.78,58.93L79.78,57.97Z" fill="currentColor" stroke="currentColor" stroke-width="1.2" stroke-linejoin="round" />
  <path d="M85.71,60.53L84.56,60.53L83.27,62.19L82.49,60.53L81.49,60.53L82.65,62.85L80.50,65.47L81.64,65.47L83.07,63.62L83.97,65.47L84.98,65.47L83.72,62.97L85.71,60.53Z" fill="currentColor" stroke="currentColor" stroke-width="1.2" stroke-linejoin="round" />
  <path d="M199.08,13.08C199.08,12.09 199.21,11.17 199.47,10.33C199.73,9.48 200.13,8.71 200.66,8.00L200.08,8.00C199.75,8.33 199.46,8.69 199.20,9.08C198.93,9.48 198.71,9.89 198.52,10.33C198.34,10.78 198.20,11.23 198.10,11.69C198.00,12.15 197.95,12.62 197.95,13.08C197.95,13.54 198.00,14.01 198.10,14.47C198.20,14.93 198.34,15.39 198.52,15.83C198.71,16.27 198.93,16.69 199.20,17.08C199.46,17.47 199.75,17.83 200.08,18.16L200.66,18.16C200.13,17.45 199.73,16.68 199.47,15.84C199.21,14.99 199.08,14.08 199.08,13.08Z" fill="currentColor" stroke="currentColor" stroke-width="1.2" stroke-linejoin="round" />
  <path d="M201.45,10.69L201.45,15.63L202.43,15.63L202.43,12.05C202.56,11.89 202.69,11.76 202.82,11.67C202.94,11.58 203.07,11.52 203.21,11.48C203.34,11.44 203.49,11.42 203.66,11.42C203.82,11.42 203.97,11.46 204.10,11.54C204.24,11.62 204.35,11.74 204.43,11.91C204.51,12.08 204.55,12.30 204.55,12.56L204.55,15.63L205.53,15.63L205.53,12.05C205.71,11.86 205.90,11.71 206.09,11.59C206.29,11.48 206.46,11.42 206.63,11.42C206.82,11.42 206.99,11.46 207.14,11.55C207.30,11.64 207.42,11.77 207.51,11.94C207.60,12.11 207.65,12.32 207.65,12.57L207.65,15.63L208.63,15.63L208.63,12.53C208.63,12.14 208.56,11.80 208.43,11.51C208.29,11.22 208.10,11.00 207.86,10.84C207.62,10.68 207.33,10.60 206.99,10.59C206.76,10.60 206.54,10.64 206.35,10.72C206.15,10.80 205.97,10.91 205.80,11.04C205.64,11.17 205.48,11.32 205.34,11.48C205.17,11.19 204.97,10.97 204.72,10.82C204.46,10.67 204.18,10.60 203.87,10.59C203.64,10.59 203.40,10.66 203.16,10.78C202.92,10.90 202.68,11.09 202.43,11.34L202.43,10.69L201.45,10.69Z" fill="currentColor" stroke="currentColor" stroke-width="1.2" stroke-linejoin="round" />
  <path d="M211.00,13.08C211.00,14.08 210.87,14.99 210.60,15.84C210.34,16.68 209.95,17.45 209.41,18.16L210.00,18.16C210.32,17.83 210.62,17.47 210.88,17.08C211.14,16.69 211.37,16.27 211.55,15.83C211.74,15.39 211.88,14.93 211.98,14.47C212.08,14.01 212.13,13.54 212.13,13.08C212.13,12.62 212.08,12.15 211.98,11.69C211.88,11.23 211.74,10.78 211.55,10.33C211.37,9.89 211.14,9.48 210.88,9.08C210.62,8.69 210.32,8.33 210.00,8.00L209.41,8.00C209.95,8.71 210.34,9.48 210.60,10.33C210.87,11.17 211.00,12.09 211.00,13.08Z" fill="currentColor" stroke="currentColor" stroke-width="1.2" stroke-linejoin="round" />
</svg>