<svg xmlns="http://www.w3.org/2000/svg" viewBox="0 0 203.84 80.08" preserveAspectRatio="xMidYMid meet" shape-rendering="geometricPrecision" text-rendering="optimizeLegibility">
  <path d="M193.83,8.07 C193.54,8.02 193.26,8.00 192.99,8.00" fill="currentColor" stroke="currentColor" stroke-width="1.2" stroke-linecap="round" stroke-linejoin="round" />
  <line x1="12.47" y1="8.11" x2="9.34" y2="8.11" fill="currentColor" stroke="currentColor" stroke-width="1.2" stroke-linecap="round" stroke-linejoin="round" />
  <path d="M192.99,8.00 C192.34,8.00 191.75,8.11 191.21,8.32" fill="currentColor" stroke="currentColor" stroke-width="1.2" stroke-linecap="round" stroke-linejoin="round" />
  <path d="M194.74,8.29 C194.42,8.19 194.12,8.11 193.83,8.07" fill="currentColor" stroke="currentColor" stroke-width="1.2" stroke-linecap="round" stroke-linejoin="round" />
  <path d="M14.07,8.34 C13.60,8.19 13.07,8.11 12.47,8.11" fill="currentColor" stroke="currentColor" stroke-width="1.2" stroke-linecap="round" stroke-linejoin="round" />
  <path d="M195.76,8.66 C195.39,8.51 195.05,8.38 194.74,8.29" fill="currentColor" stroke="currentColor" stroke-width="1.2" stroke-linecap="round" stroke-linejoin="round" />
  <path d="M15.28,8.98 C14.94,8.71 14.53,8.50 14.07,8.34" fill="currentColor" stroke="currentColor" stroke-width="1.2" stroke-linecap="round" stroke-linejoin="round" />
  <path d="M191.21,8.32 C190.67,8.53 190.21,8.83 189.81,9.21" fill="currentColor" stroke="currentColor" stroke-width="1.2" stroke-linecap="round" stroke-linejoin="round" />
  <line x1="10.50" y1="9.15" x2="12.28" y2="9.15" fill="currentColor" stroke="currentColor" stroke-width="1.2" stroke-linecap="round" stroke-linejoin="round" />
  <path d="M192.98,9.07 C193.44,9.06 193.90,9.13 194.35,9.27" fill="currentColor" stroke="currentColor" stroke-width="1.2" stroke-linecap="round" stroke-linejoin="round" />
  <path d="M191.70,9.30 C192.09,9.14 192.51,9.07 192.98,9.07" fill="currentColor" stroke="currentColor" stroke-width="1.2" stroke-linecap="round" stroke-linejoin="round" />
  <path d="M12.28,9.15 C12.85,9.15 13.34,9.23 13.75,9.39" fill="currentColor" stroke="currentColor" stroke-width="1.2" stroke-linecap="round" stroke-linejoin="round" />
  <line x1="195.76" y1="9.91" x2="195.76" y2="8.66" fill="currentColor" stroke="currentColor" stroke-width="1.2" stroke-linecap="round" stroke-linejoin="round" />
  <path d="M16.12,9.90 C15.90,9.55 15.62,9.25 15.28,8.98" fill="currentColor" stroke="currentColor" stroke-width="1.2" stroke-linecap="round" stroke-linejoin="round" />
  <path d="M194.35,9.27 C194.80,9.40 195.27,9.62 195.76,9.91" fill="currentColor" stroke="currentColor" stroke-width="1.2" stroke-linecap="round" stroke-linejoin="round" />
  <path d="M190.67,9.94 C190.96,9.67 191.31,9.45 191.70,9.30" fill="currentColor" stroke="currentColor" stroke-width="1.2" stroke-linecap="round" stroke-linejoin="round" />
  <path d="M13.75,9.39 C14.17,9.54 14.51,9.76 14.78,10.04" fill="currentColor" stroke="currentColor" stroke-width="1.2" stroke-linecap="round" stroke-linejoin="round" />
  <path d="M189.81,9.21 C189.42,9.59 189.11,10.04 188.89,10.56" fill="currentColor" stroke="currentColor" stroke-width="1.2" stroke-linecap="round" stroke-linejoin="round" />
  <path d="M190.00,10.92 C190.16,10.55 190.38,10.22 190.67,9.94" fill="currentColor" stroke="currentColor" stroke-width="1.2" stroke-linecap="round" stroke-linejoin="round" />
  <path d="M16.61,10.99 C16.51,10.61 16.34,10.24 16.12,9.90" fill="currentColor" stroke="currentColor" stroke-width="1.2" stroke-linecap="round" stroke-linejoin="round" />
  <path d="M14.78,10.04 C15.05,10.31 15.25,10.63 15.38,10.99" fill="currentColor" stroke="currentColor" stroke-width="1.2" stroke-linecap="round" stroke-linejoin="round" />
  <path d="M188.89,10.56 C188.67,11.07 188.56,11.64 188.56,12.26" fill="currentColor" stroke="currentColor" stroke-width="1.2" stroke-linecap="round" stroke-linejoin="round" />
  <path d="M189.76,12.15 C189.76,11.71 189.84,11.30 190.00,10.92" fill="currentColor" stroke="currentColor" stroke-width="1.2" stroke-linecap="round" stroke-linejoin="round" />
  <path d="M16.77,12.14 C16.77,11.76 16.72,11.37 16.61,10.99" fill="currentColor" stroke="currentColor" stroke-width="1.2" stroke-linecap="round" stroke-linejoin="round" />
  <path d="M15.38,10.99 C15.51,11.35 15.58,11.73 15.58,12.14" fill="currentColor" stroke="currentColor" stroke-width="1.2" stroke-linecap="round" stroke-linejoin="round" />
  <line x1="9.34" y1="8.11" x2="9.34" y2="16.18" fill="currentColor" stroke="currentColor" stroke-width="1.2" stroke-linecap="round" stroke-linejoin="round" />
  <line x1="10.50" y1="15.14" x2="10.50" y2="9.15" fill="currentColor" stroke="currentColor" stroke-width="1.2" stroke-linecap="round" stroke-linejoin="round" />
  <path d="M15.58,12.14 C15.58,12.34 15.55,12.58 15.49,12.84" fill="currentColor" stroke="currentColor" stroke-width="1.2" stroke-linecap="round" stroke-linejoin="round" />
  <path d="M16.58,13.36 C16.71,12.96 16.77,12.56 16.77,12.14" fill="currentColor" stroke="currentColor" stroke-width="1.2" stroke-linecap="round" stroke-linejoin="round" />
  <path d="M188.56,12.26 C188.56,12.60 188.61,12.96 188.72,13.33" fill="currentColor" stroke="currentColor" stroke-width="1.2" stroke-linecap="round" stroke-linejoin="round" />
  <path d="M190.17,13.75 C189.90,13.29 189.76,12.76 189.76,12.15" fill="currentColor" stroke="currentColor" stroke-width="1.2" stroke-linecap="round" stroke-linejoin="round" />
  <path d="M15.49,12.84 C15.44,13.09 15.34,13.36 15.20,13.63" fill="currentColor" stroke="currentColor" stroke-width="1.2" stroke-linecap="round" stroke-linejoin="round" />
  <path d="M188.72,13.33 C188.83,13.70 189.00,14.06 189.22,14.41" fill="currentColor" stroke="currentColor" stroke-width="1.2" stroke-linecap="round" stroke-linejoin="round" />
  <path d="M16.03,14.46 C16.27,14.12 16.46,13.75 16.58,13.36" fill="currentColor" stroke="currentColor" stroke-width="1.2" stroke-linecap="round" stroke-linejoin="round" />
  <path d="M15.20,13.63 C15.06,13.89 14.86,14.14 14.62,14.37" fill="currentColor" stroke="currentColor" stroke-width="1.2" stroke-linecap="round" stroke-linejoin="round" />
  <path d="M191.32,14.83 C190.83,14.57 190.45,14.21 190.17,13.75" fill="currentColor" stroke="currentColor" stroke-width="1.2" stroke-linecap="round" stroke-linejoin="round" />
  <path d="M14.62,14.37 C14.37,14.60 14.06,14.78 13.69,14.92" fill="currentColor" stroke="currentColor" stroke-width="1.2" stroke-linecap="round" stroke-linejoin="round" />
  <path d="M195.84,14.31 C195.38,14.61 194.91,14.83 194.43,14.99" fill="currentColor" stroke="currentColor" stroke-width="1.2" stroke-linecap="round" stroke-linejoin="round" />
  <path d="M189.22,14.41 C189.45,14.76 189.73,15.07 190.08,15.36" fill="currentColor" stroke="currentColor" stroke-width="1.2" stroke-linecap="round" stroke-linejoin="round" />
  <path d="M15.15,15.35 C15.50,15.10 15.79,14.80 16.03,14.46" fill="currentColor" stroke="currentColor" stroke-width="1.2" stroke-linecap="round" stroke-linejoin="round" />
  <line x1="195.84" y1="15.57" x2="195.84" y2="14.31" fill="currentColor" stroke="currentColor" stroke-width="1.2" stroke-linecap="round" stroke-linejoin="round" />
  <path d="M193.02,15.22 C192.37,15.22 191.80,15.08 191.32,14.83" fill="currentColor" stroke="currentColor" stroke-width="1.2" stroke-linecap="round" stroke-linejoin="round" />
  <path d="M13.69,14.92 C13.32,15.06 12.87,15.13 12.34,15.14" fill="currentColor" stroke="currentColor" stroke-width="1.2" stroke-linecap="round" stroke-linejoin="round" />
  <path d="M194.43,14.99 C193.95,15.14 193.49,15.22 193.02,15.22" fill="currentColor" stroke="currentColor" stroke-width="1.2" stroke-linecap="round" stroke-linejoin="round" />
  <line x1="12.34" y1="15.14" x2="10.50" y2="15.14" fill="currentColor" stroke="currentColor" stroke-width="1.2" stroke-linecap="round" stroke-linejoin="round" />
  <path d="M13.96,15.96 C14.40,15.81 14.80,15.61 15.15,15.35" fill="currentColor" stroke="currentColor" stroke-width="1.2" stroke-linecap="round" stroke-linejoin="round" />
  <path d="M190.08,15.36 C190.42,15.64 190.83,15.86 191.30,16.03" fill="currentColor" stroke="currentColor" stroke-width="1.2" stroke-linecap="round" stroke-linejoin="round" />
  <path d="M195.01,15.94 C195.30,15.84 195.58,15.71 195.84,15.57" fill="currentColor" stroke="currentColor" stroke-width="1.2" stroke-linecap="round" stroke-linejoin="round" />
  <path d="M12.49,16.18 C13.02,16.18 13.51,16.10 13.96,15.96" fill="currentColor" stroke="currentColor" stroke-width="1.2" stroke-linecap="round" stroke-linejoin="round" />
  <path d="M194.06,16.19 C194.41,16.13 194.72,16.05 195.01,15.94" fill="currentColor" stroke="currentColor" stroke-width="1.2" stroke-linecap="round" stroke-linejoin="round" />
  <path d="M191.30,16.03 C191.77,16.20 192.31,16.28 192.92,16.28" fill="currentColor" stroke="currentColor" stroke-width="1.2" stroke-linecap="round" stroke-linejoin="round" />
  <line x1="9.34" y1="16.18" x2="12.49" y2="16.18" fill="currentColor" stroke="currentColor" stroke-width="1.2" stroke-linecap="round" stroke-linejoin="round" />
  <path d="M192.92,16.28 C193.34,16.28 193.72,16.25 194.06,16.19" fill="currentColor" stroke="currentColor" stroke-width="1.2" stroke-linecap="round" stroke-linejoin="round" />
  <rect x="19.38" y="19.46" width="166.98" height="40.70" fill="none" stroke="currentColor" stroke-width="1.453000020980835" stroke-linecap="round" stroke-linejoin="round" />
  <line x1="61.12" y1="19.72" x2="61.12" y2="60.32" fill="none" stroke="currentColor" stroke-width="1.4580000162124633" stroke-linecap="round" stroke-linejoin="round" />
  <line x1="103.30" y1="19.72" x2="103.30" y2="60.32" fill="none" stroke="currentColor" stroke-width="1.4580000162124633" stroke-linecap="round" stroke-linejoin="round" />
  <line x1="145.22" y1="19.72" x2="145.22" y2="60.32" fill="none" stroke="currentColor" stroke-width="1.4580000162124633" stroke-linecap="round" stroke-linejoin="round" />
  <line x1="12.29" y1="63.86" x2="11.47" y2="63.86" fill="currentColor" stroke="currentColor" stroke-width="1.2" stroke-linecap="round" stroke-linejoin="round" />
  <line x1="191.77" y1="64.01" x2="189.43" y2="64.01" fill="currentColor" stroke="currentColor" stroke-width="1.2" stroke-linecap="round" stroke-linejoin="round" />
  <path d="M192.89,64.19 C192.58,64.07 192.20,64.01 191.77,64.01" fill="currentColor" stroke="currentColor" stroke-width="1.2" stroke-linecap="round" stroke-linejoin="round" />
  <path d="M193.67,64.66 C193.47,64.46 193.21,64.31 192.89,64.19" fill="currentColor" stroke="currentColor" stroke-width="1.2" stroke-linecap="round" stroke-linejoin="round" />
  <path d="M194.11,65.32 C194.02,65.08 193.87,64.85 193.67,64.66" fill="currentColor" stroke="currentColor" stroke-width="1.2" stroke-linecap="round" stroke-linejoin="round" />
  <line x1="190.58" y1="65.05" x2="191.65" y2="65.05" fill="currentColor" stroke="currentColor" stroke-width="1.2" stroke-linecap="round" stroke-linejoin="round" />
  <path d="M191.65,65.05 C192.00,65.05 192.28,65.11 192.49,65.21" fill="currentColor" stroke="currentColor" stroke-width="1.2" stroke-linecap="round" stroke-linejoin="round" />
  <path d="M192.49,65.21 C192.70,65.31 192.85,65.45 192.93,65.62" fill="currentColor" stroke="currentColor" stroke-width="1.2" stroke-linecap="round" stroke-linejoin="round" />
  <path d="M194.26,66.07 C194.26,65.81 194.21,65.56 194.11,65.32" fill="currentColor" stroke="currentColor" stroke-width="1.2" stroke-linecap="round" stroke-linejoin="round" />
  <path d="M192.93,65.62 C193.02,65.79 193.06,65.97 193.06,66.18" fill="currentColor" stroke="currentColor" stroke-width="1.2" stroke-linecap="round" stroke-linejoin="round" />
  <line x1="190.58" y1="67.47" x2="190.58" y2="65.05" fill="currentColor" stroke="currentColor" stroke-width="1.2" stroke-linecap="round" stroke-linejoin="round" />
  <path d="M193.96,67.12 C194.16,66.84 194.26,66.49 194.26,66.07" fill="currentColor" stroke="currentColor" stroke-width="1.2" stroke-linecap="round" stroke-linejoin="round" />
  <path d="M193.06,66.18 C193.06,66.61 192.92,66.93 192.64,67.15" fill="currentColor" stroke="currentColor" stroke-width="1.2" stroke-linecap="round" stroke-linejoin="round" />
  <line x1="11.86" y1="65.63" x2="13.16" y2="68.56" fill="currentColor" stroke="currentColor" stroke-width="1.2" stroke-linecap="round" stroke-linejoin="round" />
  <line x1="10.65" y1="68.56" x2="11.86" y2="65.63" fill="currentColor" stroke="currentColor" stroke-width="1.2" stroke-linecap="round" stroke-linejoin="round" />
  <path d="M192.64,67.15 C192.36,67.36 191.93,67.47 191.35,67.47" fill="currentColor" stroke="currentColor" stroke-width="1.2" stroke-linecap="round" stroke-linejoin="round" />
  <path d="M193.02,67.80 C193.44,67.63 193.75,67.40 193.96,67.12" fill="currentColor" stroke="currentColor" stroke-width="1.2" stroke-linecap="round" stroke-linejoin="round" />
  <line x1="191.35" y1="67.47" x2="190.58" y2="67.47" fill="currentColor" stroke="currentColor" stroke-width="1.2" stroke-linecap="round" stroke-linejoin="round" />
  <line x1="193.02" y1="67.82" x2="193.02" y2="67.80" fill="currentColor" stroke="currentColor" stroke-width="1.2" stroke-linecap="round" stroke-linejoin="round" />
  <line x1="11.47" y1="63.86" x2="8.00" y2="71.98" fill="currentColor" stroke="currentColor" stroke-width="1.2" stroke-linecap="round" stroke-linejoin="round" />
  <line x1="15.90" y1="71.98" x2="12.29" y2="63.86" fill="currentColor" stroke="currentColor" stroke-width="1.2" stroke-linecap="round" stroke-linejoin="round" />
  <path d="M194.06,68.23 C193.77,68.03 193.43,67.90 193.02,67.82" fill="currentColor" stroke="currentColor" stroke-width="1.2" stroke-linecap="round" stroke-linejoin="round" />
  <line x1="189.43" y1="64.01" x2="189.43" y2="72.08" fill="currentColor" stroke="currentColor" stroke-width="1.2" stroke-linecap="round" stroke-linejoin="round" />
  <line x1="190.58" y1="68.51" x2="191.98" y2="68.51" fill="currentColor" stroke="currentColor" stroke-width="1.2" stroke-linecap="round" stroke-linejoin="round" />
  <line x1="13.16" y1="68.56" x2="10.65" y2="68.56" fill="currentColor" stroke="currentColor" stroke-width="1.2" stroke-linecap="round" stroke-linejoin="round" />
  <path d="M194.73,68.95 C194.58,68.66 194.35,68.42 194.06,68.23" fill="currentColor" stroke="currentColor" stroke-width="1.2" stroke-linecap="round" stroke-linejoin="round" />
  <path d="M191.98,68.51 C192.39,68.51 192.72,68.56 192.99,68.67" fill="currentColor" stroke="currentColor" stroke-width="1.2" stroke-linecap="round" stroke-linejoin="round" />
  <path d="M192.99,68.67 C193.25,68.78 193.45,68.92 193.58,69.11" fill="currentColor" stroke="currentColor" stroke-width="1.2" stroke-linecap="round" stroke-linejoin="round" />
  <path d="M193.58,69.11 C193.71,69.30 193.77,69.52 193.77,69.76" fill="currentColor" stroke="currentColor" stroke-width="1.2" stroke-linecap="round" stroke-linejoin="round" />
  <path d="M194.97,69.93 C194.96,69.56 194.89,69.24 194.73,68.95" fill="currentColor" stroke="currentColor" stroke-width="1.2" stroke-linecap="round" stroke-linejoin="round" />
  <line x1="10.20" y1="69.60" x2="13.64" y2="69.60" fill="currentColor" stroke="currentColor" stroke-width="1.2" stroke-linecap="round" stroke-linejoin="round" />
  <line x1="190.58" y1="71.04" x2="190.58" y2="68.51" fill="currentColor" stroke="currentColor" stroke-width="1.2" stroke-linecap="round" stroke-linejoin="round" />
  <path d="M193.77,69.76 C193.77,69.97 193.72,70.17 193.62,70.36" fill="currentColor" stroke="currentColor" stroke-width="1.2" stroke-linecap="round" stroke-linejoin="round" />
  <path d="M194.82,70.69 C194.92,70.43 194.97,70.18 194.97,69.93" fill="currentColor" stroke="currentColor" stroke-width="1.2" stroke-linecap="round" stroke-linejoin="round" />
  <path d="M193.62,70.36 C193.52,70.56 193.35,70.72 193.09,70.85" fill="currentColor" stroke="currentColor" stroke-width="1.2" stroke-linecap="round" stroke-linejoin="round" />
  <line x1="9.18" y1="71.98" x2="10.20" y2="69.60" fill="currentColor" stroke="currentColor" stroke-width="1.2" stroke-linecap="round" stroke-linejoin="round" />
  <line x1="13.64" y1="69.60" x2="14.71" y2="71.98" fill="currentColor" stroke="currentColor" stroke-width="1.2" stroke-linecap="round" stroke-linejoin="round" />
  <path d="M193.09,70.85 C192.84,70.97 192.49,71.04 192.04,71.04" fill="currentColor" stroke="currentColor" stroke-width="1.2" stroke-linecap="round" stroke-linejoin="round" />
  <path d="M194.34,71.38 C194.56,71.17 194.72,70.94 194.82,70.69" fill="currentColor" stroke="currentColor" stroke-width="1.2" stroke-linecap="round" stroke-linejoin="round" />
  <line x1="192.04" y1="71.04" x2="190.58" y2="71.04" fill="currentColor" stroke="currentColor" stroke-width="1.2" stroke-linecap="round" stroke-linejoin="round" />
  <path d="M193.48,71.89 C193.84,71.76 194.12,71.59 194.34,71.38" fill="currentColor" stroke="currentColor" stroke-width="1.2" stroke-linecap="round" stroke-linejoin="round" />
  <line x1="8.00" y1="71.98" x2="9.18" y2="71.98" fill="currentColor" stroke="currentColor" stroke-width="1.2" stroke-linecap="round" stroke-linejoin="round" />
  <line x1="14.71" y1="71.98" x2="15.90" y2="71.98" fill="currentColor" stroke="currentColor" stroke-width="1.2" stroke-linecap="round" stroke-linejoin="round" />
  <path d="M192.19,72.08 C192.70,72.08 193.13,72.01 193.48,71.89" fill="currentColor" stroke="currentColor" stroke-width="1.2" stroke-linecap="round" stroke-linejoin="round" />
  <line x1="189.43" y1="72.08" x2="192.19" y2="72.08" fill="currentColor" stroke="currentColor" stroke-width="1.2" stroke-linecap="round" stroke-linejoin="round" />
</svg>