<svg xmlns="http://www.w3.org/2000/svg" viewBox="0 0 289.28 114.47" preserveAspectRatio="xMidYMid meet" shape-rendering="geometricPrecision" text-rendering="optimizeLegibility">
  <line x1="9.08" y1="8.00" x2="8.00" y2="8.00" fill="currentColor" stroke="currentColor" stroke-width="1.2" stroke-linecap="round" stroke-linejoin="round" />
  <line x1="8.00" y1="8.00" x2="8.00" y2="15.50" fill="currentColor" stroke="currentColor" stroke-width="1.2" stroke-linecap="round" stroke-linejoin="round" />
  <line x1="9.08" y1="14.53" x2="9.08" y2="8.00" fill="currentColor" stroke="currentColor" stroke-width="1.2" stroke-linecap="round" stroke-linejoin="round" />
  <line x1="14.88" y1="18.10" x2="14.88" y2="13.27" fill="currentColor" stroke="currentColor" stroke-width="1.2" stroke-linecap="round" stroke-linejoin="round" />
  <line x1="14.88" y1="13.27" x2="14.62" y2="13.27" fill="currentColor" stroke="currentColor" stroke-width="1.2" stroke-linecap="round" stroke-linejoin="round" />
  <line x1="14.62" y1="13.27" x2="12.99" y2="14.59" fill="currentColor" stroke="currentColor" stroke-width="1.2" stroke-linecap="round" stroke-linejoin="round" />
  <line x1="13.25" y1="15.19" x2="14.16" y2="14.44" fill="currentColor" stroke="currentColor" stroke-width="1.2" stroke-linecap="round" stroke-linejoin="round" />
  <line x1="14.16" y1="14.44" x2="14.16" y2="18.10" fill="currentColor" stroke="currentColor" stroke-width="1.2" stroke-linecap="round" stroke-linejoin="round" />
  <line x1="12.46" y1="15.50" x2="12.46" y2="14.53" fill="currentColor" stroke="currentColor" stroke-width="1.2" stroke-linecap="round" stroke-linejoin="round" />
  <line x1="12.46" y1="14.53" x2="9.08" y2="14.53" fill="currentColor" stroke="currentColor" stroke-width="1.2" stroke-linecap="round" stroke-linejoin="round" />
  <line x1="12.99" y1="14.59" x2="13.25" y2="15.19" fill="currentColor" stroke="currentColor" stroke-width="1.2" stroke-linecap="round" stroke-linejoin="round" />
  <line x1="8.00" y1="15.50" x2="12.46" y2="15.50" fill="currentColor" stroke="currentColor" stroke-width="1.2" stroke-linecap="round" stroke-linejoin="round" />
  <line x1="281.28" y1="98.88" x2="20.53" y2="16.75" fill="none" stroke="currentColor" stroke-width="1.6" stroke-linecap="round" stroke-linejoin="round" />
  <line x1="20.54" y1="98.89" x2="281.28" y2="16.76" fill="none" stroke="currentColor" stroke-width="1.6" stroke-linecap="round" stroke-linejoin="round" />
  <line x1="14.16" y1="18.10" x2="14.88" y2="18.10" fill="currentColor" stroke="currentColor" stroke-width="1.2" stroke-linecap="round" stroke-linejoin="round" />
  <line x1="152.33" y1="37.18" x2="151.46" y2="37.18" fill="currentColor" stroke="currentColor" stroke-width="1.2" stroke-linecap="round" stroke-linejoin="round" />
  <line x1="151.46" y1="37.18" x2="150.53" y2="44.07" fill="currentColor" stroke="currentColor" stroke-width="1.2" stroke-linecap="round" stroke-linejoin="round" />
  <line x1="151.95" y1="39.85" x2="152.33" y2="37.18" fill="currentColor" stroke="currentColor" stroke-width="1.2" stroke-linecap="round" stroke-linejoin="round" />
  <path d="M153.06,39.37 C152.85,39.37 152.66,39.41 152.49,39.48" fill="currentColor" stroke="currentColor" stroke-width="1.2" stroke-linecap="round" stroke-linejoin="round" />
  <path d="M153.89,39.63 C153.65,39.46 153.37,39.37 153.06,39.37" fill="currentColor" stroke="currentColor" stroke-width="1.2" stroke-linecap="round" stroke-linejoin="round" />
  <path d="M152.49,39.48 C152.32,39.56 152.15,39.69 151.97,39.87" fill="currentColor" stroke="currentColor" stroke-width="1.2" stroke-linecap="round" stroke-linejoin="round" />
  <path d="M154.44,40.35 C154.30,40.04 154.12,39.80 153.89,39.63" fill="currentColor" stroke="currentColor" stroke-width="1.2" stroke-linecap="round" stroke-linejoin="round" />
  <line x1="151.97" y1="39.87" x2="151.95" y2="39.85" fill="currentColor" stroke="currentColor" stroke-width="1.2" stroke-linecap="round" stroke-linejoin="round" />
  <path d="M152.54,40.15 C152.64,40.12 152.73,40.11 152.80,40.11" fill="currentColor" stroke="currentColor" stroke-width="1.2" stroke-linecap="round" stroke-linejoin="round" />
  <path d="M152.80,40.11 C153.10,40.11 153.34,40.22 153.51,40.45" fill="currentColor" stroke="currentColor" stroke-width="1.2" stroke-linecap="round" stroke-linejoin="round" />
  <path d="M152.24,40.25 C152.34,40.20 152.44,40.17 152.54,40.15" fill="currentColor" stroke="currentColor" stroke-width="1.2" stroke-linecap="round" stroke-linejoin="round" />
  <path d="M151.97,40.43 C152.05,40.36 152.13,40.30 152.24,40.25" fill="currentColor" stroke="currentColor" stroke-width="1.2" stroke-linecap="round" stroke-linejoin="round" />
  <path d="M154.64,41.42 C154.63,41.01 154.57,40.66 154.44,40.35" fill="currentColor" stroke="currentColor" stroke-width="1.2" stroke-linecap="round" stroke-linejoin="round" />
  <path d="M151.84,40.68 C151.86,40.58 151.90,40.50 151.97,40.43" fill="currentColor" stroke="currentColor" stroke-width="1.2" stroke-linecap="round" stroke-linejoin="round" />
  <path d="M153.51,40.45 C153.68,40.67 153.77,40.99 153.77,41.40" fill="currentColor" stroke="currentColor" stroke-width="1.2" stroke-linecap="round" stroke-linejoin="round" />
  <line x1="151.45" y1="43.44" x2="151.84" y2="40.68" fill="currentColor" stroke="currentColor" stroke-width="1.2" stroke-linecap="round" stroke-linejoin="round" />
  <path d="M153.77,41.40 C153.77,41.80 153.69,42.16 153.55,42.47" fill="currentColor" stroke="currentColor" stroke-width="1.2" stroke-linecap="round" stroke-linejoin="round" />
  <path d="M154.55,42.16 C154.61,41.91 154.64,41.66 154.64,41.42" fill="currentColor" stroke="currentColor" stroke-width="1.2" stroke-linecap="round" stroke-linejoin="round" />
  <path d="M154.26,42.89 C154.39,42.66 154.49,42.42 154.55,42.16" fill="currentColor" stroke="currentColor" stroke-width="1.2" stroke-linecap="round" stroke-linejoin="round" />
  <path d="M153.55,42.47 C153.41,42.77 153.20,43.01 152.92,43.18" fill="currentColor" stroke="currentColor" stroke-width="1.2" stroke-linecap="round" stroke-linejoin="round" />
  <path d="M153.72,43.53 C153.95,43.34 154.12,43.13 154.26,42.89" fill="currentColor" stroke="currentColor" stroke-width="1.2" stroke-linecap="round" stroke-linejoin="round" />
  <path d="M152.92,43.18 C152.65,43.35 152.31,43.43 151.92,43.44" fill="currentColor" stroke="currentColor" stroke-width="1.2" stroke-linecap="round" stroke-linejoin="round" />
  <line x1="151.92" y1="43.44" x2="151.45" y2="43.44" fill="currentColor" stroke="currentColor" stroke-width="1.2" stroke-linecap="round" stroke-linejoin="round" />
  <path d="M152.89,43.97 C153.22,43.86 153.50,43.71 153.72,43.53" fill="currentColor" stroke="currentColor" stroke-width="1.2" stroke-linecap="round" stroke-linejoin="round" />
  <path d="M151.72,44.14 C152.17,44.14 152.56,44.08 152.89,43.97" fill="currentColor" stroke="currentColor" stroke-width="1.2" stroke-linecap="round" stroke-linejoin="round" />
  <path d="M150.53,44.07 C150.62,44.08 150.73,44.09 150.86,44.10" fill="currentColor" stroke="currentColor" stroke-width="1.2" stroke-linecap="round" stroke-linejoin="round" />
  <path d="M150.86,44.10 C150.99,44.11 151.13,44.12 151.28,44.13" fill="currentColor" stroke="currentColor" stroke-width="1.2" stroke-linecap="round" stroke-linejoin="round" />
  <path d="M151.28,44.13 C151.42,44.13 151.57,44.14 151.72,44.14" fill="currentColor" stroke="currentColor" stroke-width="1.2" stroke-linecap="round" stroke-linejoin="round" />
  <path d="M146.03,48.14 C151.34,45.16 158.07,47.06 161.05,52.37" fill="none" stroke="currentColor" stroke-width="1.2" stroke-linecap="round" stroke-linejoin="round" />
  <path d="M140.75,54.95 C141.49,52.16 143.31,49.66 146.03,48.14" fill="none" stroke="currentColor" stroke-width="1.2" stroke-linecap="round" stroke-linejoin="round" />
  <path d="M172.85,50.79 C174.13,54.77 174.35,59.14 173.26,63.48" fill="none" stroke="currentColor" stroke-width="1.2" stroke-linecap="round" stroke-linejoin="round" />
  <path d="M130.17,64.62 C128.74,60.32 128.70,55.72 129.95,51.46" fill="none" stroke="currentColor" stroke-width="1.2" stroke-linecap="round" stroke-linejoin="round" />
  <path d="M161.05,52.37 C161.34,52.89 161.58,53.43 161.78,53.98" fill="none" stroke="currentColor" stroke-width="1.2" stroke-linecap="round" stroke-linejoin="round" />
  <path d="M124.92,55.17 C124.79,55.16 124.67,55.15 124.56,55.15" fill="currentColor" stroke="currentColor" stroke-width="1.2" stroke-linecap="round" stroke-linejoin="round" />
  <path d="M124.56,55.15 C124.12,55.16 123.74,55.21 123.40,55.32" fill="currentColor" stroke="currentColor" stroke-width="1.2" stroke-linecap="round" stroke-linejoin="round" />
  <path d="M125.30,55.22 C125.18,55.20 125.05,55.18 124.92,55.17" fill="currentColor" stroke="currentColor" stroke-width="1.2" stroke-linecap="round" stroke-linejoin="round" />
  <path d="M125.62,55.29 C125.53,55.27 125.43,55.24 125.30,55.22" fill="currentColor" stroke="currentColor" stroke-width="1.2" stroke-linecap="round" stroke-linejoin="round" />
  <line x1="124.99" y1="59.78" x2="125.62" y2="55.29" fill="currentColor" stroke="currentColor" stroke-width="1.2" stroke-linecap="round" stroke-linejoin="round" />
  <path d="M123.40,55.32 C123.07,55.43 122.78,55.58 122.54,55.78" fill="currentColor" stroke="currentColor" stroke-width="1.2" stroke-linecap="round" stroke-linejoin="round" />
  <path d="M182.49,55.58 C182.36,55.56 182.24,55.55 182.12,55.55" fill="currentColor" stroke="currentColor" stroke-width="1.2" stroke-linecap="round" stroke-linejoin="round" />
  <path d="M182.12,55.55 C181.68,55.56 181.28,55.63 180.92,55.77" fill="currentColor" stroke="currentColor" stroke-width="1.2" stroke-linecap="round" stroke-linejoin="round" />
  <path d="M182.89,55.63 C182.75,55.61 182.62,55.59 182.49,55.58" fill="currentColor" stroke="currentColor" stroke-width="1.2" stroke-linecap="round" stroke-linejoin="round" />
  <line x1="182.78" y1="56.38" x2="182.89" y2="55.63" fill="currentColor" stroke="currentColor" stroke-width="1.2" stroke-linecap="round" stroke-linejoin="round" />
  <path d="M180.92,55.77 C180.56,55.91 180.26,56.11 180.00,56.36" fill="currentColor" stroke="currentColor" stroke-width="1.2" stroke-linecap="round" stroke-linejoin="round" />
  <path d="M122.54,55.78 C122.30,55.97 122.10,56.19 121.95,56.44" fill="currentColor" stroke="currentColor" stroke-width="1.2" stroke-linecap="round" stroke-linejoin="round" />
  <path d="M123.70,55.99 C123.97,55.90 124.30,55.86 124.69,55.89" fill="currentColor" stroke="currentColor" stroke-width="1.2" stroke-linecap="round" stroke-linejoin="round" />
  <line x1="124.69" y1="55.89" x2="124.32" y2="58.48" fill="currentColor" stroke="currentColor" stroke-width="1.2" stroke-linecap="round" stroke-linejoin="round" />
  <path d="M123.04,56.37 C123.21,56.21 123.43,56.08 123.70,55.99" fill="currentColor" stroke="currentColor" stroke-width="1.2" stroke-linecap="round" stroke-linejoin="round" />
  <path d="M181.28,56.48 C181.54,56.37 181.82,56.32 182.13,56.31" fill="currentColor" stroke="currentColor" stroke-width="1.2" stroke-linecap="round" stroke-linejoin="round" />
  <path d="M182.13,56.31 C182.24,56.31 182.34,56.32 182.45,56.33" fill="currentColor" stroke="currentColor" stroke-width="1.2" stroke-linecap="round" stroke-linejoin="round" />
  <path d="M182.45,56.33 C182.56,56.34 182.67,56.36 182.78,56.38" fill="currentColor" stroke="currentColor" stroke-width="1.2" stroke-linecap="round" stroke-linejoin="round" />
  <path d="M180.00,56.36 C179.75,56.61 179.55,56.89 179.42,57.22" fill="currentColor" stroke="currentColor" stroke-width="1.2" stroke-linecap="round" stroke-linejoin="round" />
  <path d="M122.63,56.92 C122.73,56.72 122.86,56.54 123.04,56.37" fill="currentColor" stroke="currentColor" stroke-width="1.2" stroke-linecap="round" stroke-linejoin="round" />
  <path d="M121.95,56.44 C121.80,56.69 121.69,56.96 121.62,57.24" fill="currentColor" stroke="currentColor" stroke-width="1.2" stroke-linecap="round" stroke-linejoin="round" />
  <path d="M180.64,56.90 C180.82,56.72 181.03,56.58 181.28,56.48" fill="currentColor" stroke="currentColor" stroke-width="1.2" stroke-linecap="round" stroke-linejoin="round" />
  <path d="M180.23,57.51 C180.32,57.28 180.46,57.08 180.64,56.90" fill="currentColor" stroke="currentColor" stroke-width="1.2" stroke-linecap="round" stroke-linejoin="round" />
  <path d="M122.43,57.48 C122.47,57.30 122.54,57.11 122.63,56.92" fill="currentColor" stroke="currentColor" stroke-width="1.2" stroke-linecap="round" stroke-linejoin="round" />
  <path d="M179.42,57.22 C179.28,57.54 179.21,57.89 179.21,58.25" fill="currentColor" stroke="currentColor" stroke-width="1.2" stroke-linecap="round" stroke-linejoin="round" />
  <path d="M121.62,57.24 C121.54,57.52 121.51,57.80 121.51,58.09" fill="currentColor" stroke="currentColor" stroke-width="1.2" stroke-linecap="round" stroke-linejoin="round" />
  <path d="M122.38,57.94 C122.38,57.82 122.39,57.67 122.43,57.48" fill="currentColor" stroke="currentColor" stroke-width="1.2" stroke-linecap="round" stroke-linejoin="round" />
  <path d="M180.08,58.20 C180.08,57.96 180.13,57.73 180.23,57.51" fill="currentColor" stroke="currentColor" stroke-width="1.2" stroke-linecap="round" stroke-linejoin="round" />
  <path d="M122.49,58.58 C122.42,58.40 122.38,58.18 122.38,57.94" fill="currentColor" stroke="currentColor" stroke-width="1.2" stroke-linecap="round" stroke-linejoin="round" />
  <path d="M121.51,58.09 C121.51,58.42 121.58,58.72 121.71,58.99" fill="currentColor" stroke="currentColor" stroke-width="1.2" stroke-linecap="round" stroke-linejoin="round" />
  <path d="M180.41,59.20 C180.20,58.97 180.09,58.63 180.08,58.20" fill="currentColor" stroke="currentColor" stroke-width="1.2" stroke-linecap="round" stroke-linejoin="round" />
  <path d="M179.21,58.25 C179.21,58.68 179.30,59.04 179.46,59.35" fill="currentColor" stroke="currentColor" stroke-width="1.2" stroke-linecap="round" stroke-linejoin="round" />
  <path d="M124.32,58.48 C124.23,58.60 124.13,58.71 124.01,58.82" fill="currentColor" stroke="currentColor" stroke-width="1.2" stroke-linecap="round" stroke-linejoin="round" />
  <path d="M122.81,59.01 C122.67,58.91 122.57,58.77 122.49,58.58" fill="currentColor" stroke="currentColor" stroke-width="1.2" stroke-linecap="round" stroke-linejoin="round" />
  <path d="M124.01,58.82 C123.89,58.92 123.76,59.01 123.63,59.07" fill="currentColor" stroke="currentColor" stroke-width="1.2" stroke-linecap="round" stroke-linejoin="round" />
  <path d="M121.71,58.99 C121.84,59.26 122.01,59.47 122.24,59.63" fill="currentColor" stroke="currentColor" stroke-width="1.2" stroke-linecap="round" stroke-linejoin="round" />
  <path d="M123.27,59.17 C123.09,59.17 122.94,59.12 122.81,59.01" fill="currentColor" stroke="currentColor" stroke-width="1.2" stroke-linecap="round" stroke-linejoin="round" />
  <path d="M123.63,59.07 C123.51,59.14 123.38,59.17 123.27,59.17" fill="currentColor" stroke="currentColor" stroke-width="1.2" stroke-linecap="round" stroke-linejoin="round" />
  <path d="M182.54,59.18 C182.33,59.31 182.13,59.40 181.94,59.47" fill="currentColor" stroke="currentColor" stroke-width="1.2" stroke-linecap="round" stroke-linejoin="round" />
  <line x1="182.44" y1="60.00" x2="182.54" y2="59.18" fill="currentColor" stroke="currentColor" stroke-width="1.2" stroke-linecap="round" stroke-linejoin="round" />
  <path d="M181.31,59.56 C180.93,59.56 180.63,59.44 180.41,59.20" fill="currentColor" stroke="currentColor" stroke-width="1.2" stroke-linecap="round" stroke-linejoin="round" />
  <path d="M123.62,59.70 C123.83,59.59 124.02,59.43 124.20,59.24" fill="currentColor" stroke="currentColor" stroke-width="1.2" stroke-linecap="round" stroke-linejoin="round" />
  <line x1="124.20" y1="59.24" x2="124.22" y2="59.26" fill="currentColor" stroke="currentColor" stroke-width="1.2" stroke-linecap="round" stroke-linejoin="round" />
  <line x1="124.22" y1="59.26" x2="124.14" y2="59.78" fill="currentColor" stroke="currentColor" stroke-width="1.2" stroke-linecap="round" stroke-linejoin="round" />
  <path d="M179.46,59.35 C179.62,59.66 179.85,59.90 180.14,60.07" fill="currentColor" stroke="currentColor" stroke-width="1.2" stroke-linecap="round" stroke-linejoin="round" />
  <path d="M181.94,59.47 C181.74,59.53 181.53,59.56 181.31,59.56" fill="currentColor" stroke="currentColor" stroke-width="1.2" stroke-linecap="round" stroke-linejoin="round" />
  <path d="M122.24,59.63 C122.46,59.79 122.71,59.87 122.99,59.87" fill="currentColor" stroke="currentColor" stroke-width="1.2" stroke-linecap="round" stroke-linejoin="round" />
  <path d="M122.99,59.87 C123.21,59.87 123.42,59.81 123.62,59.70" fill="currentColor" stroke="currentColor" stroke-width="1.2" stroke-linecap="round" stroke-linejoin="round" />
  <line x1="124.14" y1="59.78" x2="124.99" y2="59.78" fill="currentColor" stroke="currentColor" stroke-width="1.2" stroke-linecap="round" stroke-linejoin="round" />
  <path d="M181.83,60.25 C182.03,60.20 182.23,60.12 182.44,60.00" fill="currentColor" stroke="currentColor" stroke-width="1.2" stroke-linecap="round" stroke-linejoin="round" />
  <path d="M180.14,60.07 C180.44,60.24 180.79,60.32 181.19,60.32" fill="currentColor" stroke="currentColor" stroke-width="1.2" stroke-linecap="round" stroke-linejoin="round" />
  <path d="M181.19,60.32 C181.42,60.32 181.63,60.30 181.83,60.25" fill="currentColor" stroke="currentColor" stroke-width="1.2" stroke-linecap="round" stroke-linejoin="round" />
  <path d="M137.94,62.38 C137.87,62.16 137.80,61.92 137.74,61.70" fill="none" stroke="currentColor" stroke-width="1.2" stroke-linecap="round" stroke-linejoin="round" />
  <path d="M164.16,62.28 C162.86,66.38 159.67,69.82 155.27,71.24" fill="none" stroke="currentColor" stroke-width="1.2" stroke-linecap="round" stroke-linejoin="round" />
  <path d="M155.27,71.24 C148.04,73.58 140.28,69.61 137.94,62.38" fill="none" stroke="currentColor" stroke-width="1.2" stroke-linecap="round" stroke-linejoin="round" />
  <path d="M173.26,63.48 C173.16,63.89 173.04,64.29 172.92,64.69" fill="none" stroke="currentColor" stroke-width="1.2" stroke-linecap="round" stroke-linejoin="round" />
  <line x1="151.46" y1="75.35" x2="150.61" y2="75.35" fill="currentColor" stroke="currentColor" stroke-width="1.2" stroke-linecap="round" stroke-linejoin="round" />
  <line x1="150.61" y1="75.35" x2="150.30" y2="77.54" fill="currentColor" stroke="currentColor" stroke-width="1.2" stroke-linecap="round" stroke-linejoin="round" />
  <line x1="150.50" y1="82.17" x2="151.46" y2="75.35" fill="currentColor" stroke="currentColor" stroke-width="1.2" stroke-linecap="round" stroke-linejoin="round" />
  <line x1="150.30" y1="77.54" x2="149.94" y2="77.54" fill="currentColor" stroke="currentColor" stroke-width="1.2" stroke-linecap="round" stroke-linejoin="round" />
  <path d="M149.94,77.54 C149.52,77.54 149.14,77.60 148.81,77.73" fill="currentColor" stroke="currentColor" stroke-width="1.2" stroke-linecap="round" stroke-linejoin="round" />
  <path d="M148.81,77.73 C148.49,77.85 148.21,78.01 147.98,78.21" fill="currentColor" stroke="currentColor" stroke-width="1.2" stroke-linecap="round" stroke-linejoin="round" />
  <path d="M147.98,78.21 C147.75,78.41 147.56,78.63 147.42,78.87" fill="currentColor" stroke="currentColor" stroke-width="1.2" stroke-linecap="round" stroke-linejoin="round" />
  <path d="M149.07,78.42 C149.33,78.31 149.64,78.25 149.98,78.25" fill="currentColor" stroke="currentColor" stroke-width="1.2" stroke-linecap="round" stroke-linejoin="round" />
  <line x1="149.98" y1="78.25" x2="150.20" y2="78.25" fill="currentColor" stroke="currentColor" stroke-width="1.2" stroke-linecap="round" stroke-linejoin="round" />
  <line x1="150.20" y1="78.25" x2="149.74" y2="81.59" fill="currentColor" stroke="currentColor" stroke-width="1.2" stroke-linecap="round" stroke-linejoin="round" />
  <path d="M148.40,78.87 C148.58,78.68 148.80,78.53 149.07,78.42" fill="currentColor" stroke="currentColor" stroke-width="1.2" stroke-linecap="round" stroke-linejoin="round" />
  <path d="M147.42,78.87 C147.27,79.10 147.16,79.34 147.10,79.58" fill="currentColor" stroke="currentColor" stroke-width="1.2" stroke-linecap="round" stroke-linejoin="round" />
  <path d="M148.00,79.50 C148.09,79.26 148.22,79.05 148.40,78.87" fill="currentColor" stroke="currentColor" stroke-width="1.2" stroke-linecap="round" stroke-linejoin="round" />
  <path d="M147.86,80.21 C147.86,79.96 147.91,79.73 148.00,79.50" fill="currentColor" stroke="currentColor" stroke-width="1.2" stroke-linecap="round" stroke-linejoin="round" />
  <path d="M147.10,79.58 C147.03,79.82 146.99,80.03 146.99,80.23" fill="currentColor" stroke="currentColor" stroke-width="1.2" stroke-linecap="round" stroke-linejoin="round" />
  <path d="M148.25,81.24 C147.99,81.00 147.87,80.65 147.86,80.21" fill="currentColor" stroke="currentColor" stroke-width="1.2" stroke-linecap="round" stroke-linejoin="round" />
  <path d="M146.99,80.23 C147.00,80.90 147.20,81.41 147.61,81.77" fill="currentColor" stroke="currentColor" stroke-width="1.2" stroke-linecap="round" stroke-linejoin="round" />
  <path d="M149.35,81.61 C148.87,81.60 148.50,81.48 148.25,81.24" fill="currentColor" stroke="currentColor" stroke-width="1.2" stroke-linecap="round" stroke-linejoin="round" />
  <path d="M149.74,81.59 C149.67,81.60 149.61,81.60 149.54,81.60" fill="currentColor" stroke="currentColor" stroke-width="1.2" stroke-linecap="round" stroke-linejoin="round" />
  <path d="M149.54,81.60 C149.48,81.61 149.42,81.61 149.35,81.61" fill="currentColor" stroke="currentColor" stroke-width="1.2" stroke-linecap="round" stroke-linejoin="round" />
  <path d="M147.61,81.77 C148.01,82.12 148.59,82.30 149.35,82.30" fill="currentColor" stroke="currentColor" stroke-width="1.2" stroke-linecap="round" stroke-linejoin="round" />
  <path d="M149.96,82.27 C150.14,82.25 150.33,82.22 150.50,82.17" fill="currentColor" stroke="currentColor" stroke-width="1.2" stroke-linecap="round" stroke-linejoin="round" />
  <path d="M149.35,82.30 C149.57,82.31 149.77,82.30 149.96,82.27" fill="currentColor" stroke="currentColor" stroke-width="1.2" stroke-linecap="round" stroke-linejoin="round" />
  <line x1="9.44" y1="96.37" x2="8.37" y2="96.37" fill="currentColor" stroke="currentColor" stroke-width="1.2" stroke-linecap="round" stroke-linejoin="round" />
  <line x1="8.37" y1="96.37" x2="8.37" y2="103.87" fill="currentColor" stroke="currentColor" stroke-width="1.2" stroke-linecap="round" stroke-linejoin="round" />
  <line x1="9.44" y1="102.90" x2="9.44" y2="96.37" fill="currentColor" stroke="currentColor" stroke-width="1.2" stroke-linecap="round" stroke-linejoin="round" />
  <path d="M14.41,101.63 C14.22,101.63 14.03,101.67 13.85,101.74" fill="currentColor" stroke="currentColor" stroke-width="1.2" stroke-linecap="round" stroke-linejoin="round" />
  <path d="M15.17,101.82 C14.95,101.70 14.70,101.63 14.41,101.63" fill="currentColor" stroke="currentColor" stroke-width="1.2" stroke-linecap="round" stroke-linejoin="round" />
  <path d="M13.85,101.74 C13.66,101.82 13.47,101.93 13.28,102.08" fill="currentColor" stroke="currentColor" stroke-width="1.2" stroke-linecap="round" stroke-linejoin="round" />
  <path d="M15.68,102.34 C15.56,102.12 15.39,101.95 15.17,101.82" fill="currentColor" stroke="currentColor" stroke-width="1.2" stroke-linecap="round" stroke-linejoin="round" />
  <line x1="13.28" y1="102.08" x2="13.28" y2="102.95" fill="currentColor" stroke="currentColor" stroke-width="1.2" stroke-linecap="round" stroke-linejoin="round" />
  <path d="M14.01,102.36 C14.13,102.32 14.25,102.30 14.36,102.30" fill="currentColor" stroke="currentColor" stroke-width="1.2" stroke-linecap="round" stroke-linejoin="round" />
  <path d="M14.36,102.30 C14.52,102.30 14.66,102.34 14.78,102.42" fill="currentColor" stroke="currentColor" stroke-width="1.2" stroke-linecap="round" stroke-linejoin="round" />
  <path d="M15.86,103.12 C15.86,102.82 15.80,102.57 15.68,102.34" fill="currentColor" stroke="currentColor" stroke-width="1.2" stroke-linecap="round" stroke-linejoin="round" />
  <path d="M13.66,102.56 C13.78,102.47 13.90,102.40 14.01,102.36" fill="currentColor" stroke="currentColor" stroke-width="1.2" stroke-linecap="round" stroke-linejoin="round" />
  <path d="M14.78,102.42 C14.90,102.49 15.00,102.60 15.07,102.73" fill="currentColor" stroke="currentColor" stroke-width="1.2" stroke-linecap="round" stroke-linejoin="round" />
  <path d="M13.28,102.95 C13.41,102.78 13.54,102.65 13.66,102.56" fill="currentColor" stroke="currentColor" stroke-width="1.2" stroke-linecap="round" stroke-linejoin="round" />
  <path d="M15.07,102.73 C15.14,102.86 15.18,103.02 15.18,103.20" fill="currentColor" stroke="currentColor" stroke-width="1.2" stroke-linecap="round" stroke-linejoin="round" />
  <line x1="12.83" y1="103.87" x2="12.83" y2="102.90" fill="currentColor" stroke="currentColor" stroke-width="1.2" stroke-linecap="round" stroke-linejoin="round" />
  <line x1="12.83" y1="102.90" x2="9.44" y2="102.90" fill="currentColor" stroke="currentColor" stroke-width="1.2" stroke-linecap="round" stroke-linejoin="round" />
  <path d="M15.78,103.69 C15.84,103.50 15.87,103.31 15.86,103.12" fill="currentColor" stroke="currentColor" stroke-width="1.2" stroke-linecap="round" stroke-linejoin="round" />
  <path d="M15.18,103.20 C15.18,103.33 15.17,103.45 15.14,103.55" fill="currentColor" stroke="currentColor" stroke-width="1.2" stroke-linecap="round" stroke-linejoin="round" />
  <path d="M15.14,103.55 C15.12,103.66 15.08,103.77 15.03,103.87" fill="currentColor" stroke="currentColor" stroke-width="1.2" stroke-linecap="round" stroke-linejoin="round" />
  <path d="M15.52,104.28 C15.64,104.08 15.73,103.88 15.78,103.69" fill="currentColor" stroke="currentColor" stroke-width="1.2" stroke-linecap="round" stroke-linejoin="round" />
  <line x1="8.37" y1="103.87" x2="12.83" y2="103.87" fill="currentColor" stroke="currentColor" stroke-width="1.2" stroke-linecap="round" stroke-linejoin="round" />
  <path d="M15.03,103.87 C14.98,103.98 14.92,104.09 14.84,104.22" fill="currentColor" stroke="currentColor" stroke-width="1.2" stroke-linecap="round" stroke-linejoin="round" />
  <path d="M14.84,104.22 C14.74,104.39 14.62,104.58 14.49,104.77" fill="currentColor" stroke="currentColor" stroke-width="1.2" stroke-linecap="round" stroke-linejoin="round" />
  <path d="M15.06,104.97 C15.25,104.72 15.40,104.49 15.52,104.28" fill="currentColor" stroke="currentColor" stroke-width="1.2" stroke-linecap="round" stroke-linejoin="round" />
  <path d="M14.49,104.77 C14.35,104.96 14.21,105.15 14.06,105.34" fill="currentColor" stroke="currentColor" stroke-width="1.2" stroke-linecap="round" stroke-linejoin="round" />
  <path d="M14.38,105.82 C14.65,105.50 14.87,105.22 15.06,104.97" fill="currentColor" stroke="currentColor" stroke-width="1.2" stroke-linecap="round" stroke-linejoin="round" />
  <path d="M14.06,105.34 C13.91,105.53 13.76,105.72 13.61,105.90" fill="currentColor" stroke="currentColor" stroke-width="1.2" stroke-linecap="round" stroke-linejoin="round" />
  <line x1="16.21" y1="105.82" x2="14.38" y2="105.82" fill="currentColor" stroke="currentColor" stroke-width="1.2" stroke-linecap="round" stroke-linejoin="round" />
  <line x1="16.21" y1="106.47" x2="16.21" y2="105.82" fill="currentColor" stroke="currentColor" stroke-width="1.2" stroke-linecap="round" stroke-linejoin="round" />
  <path d="M13.61,105.90 C13.46,106.09 13.32,106.26 13.18,106.42" fill="currentColor" stroke="currentColor" stroke-width="1.2" stroke-linecap="round" stroke-linejoin="round" />
  <line x1="13.18" y1="106.42" x2="13.18" y2="106.47" fill="currentColor" stroke="currentColor" stroke-width="1.2" stroke-linecap="round" stroke-linejoin="round" />
  <line x1="13.18" y1="106.47" x2="16.21" y2="106.47" fill="currentColor" stroke="currentColor" stroke-width="1.2" stroke-linecap="round" stroke-linejoin="round" />
</svg>