<svg xmlns="http://www.w3.org/2000/svg" viewBox="0 0 177.89 185.11" preserveAspectRatio="xMidYMid meet" shape-rendering="geometricPrecision" text-rendering="optimizeLegibility">
  <line x1="92.72" y1="17.72" x2="89.48" y2="8.00" fill="currentColor" stroke="currentColor" stroke-width="1.2" stroke-linecap="round" stroke-linejoin="round" />
  <line x1="89.48" y1="8.00" x2="86.24" y2="17.72" fill="currentColor" stroke="currentColor" stroke-width="1.2" stroke-linecap="round" stroke-linejoin="round" />
  <path d="M81.25,14.25 C81.30,14.25 81.37,14.25 81.45,14.25" fill="currentColor" stroke="currentColor" stroke-width="1.2" stroke-linecap="round" stroke-linejoin="round" />
  <path d="M81.45,14.25 C81.53,14.25 81.60,14.25 81.65,14.25" fill="currentColor" stroke="currentColor" stroke-width="1.2" stroke-linecap="round" stroke-linejoin="round" />
  <path d="M84.39,14.25 C84.45,14.25 84.52,14.25 84.61,14.25" fill="currentColor" stroke="currentColor" stroke-width="1.2" stroke-linecap="round" stroke-linejoin="round" />
  <path d="M84.61,14.25 C84.75,14.25 84.85,14.26 84.90,14.28" fill="currentColor" stroke="currentColor" stroke-width="1.2" stroke-linecap="round" stroke-linejoin="round" />
  <path d="M81.65,14.25 C81.70,14.26 81.74,14.27 81.77,14.28" fill="currentColor" stroke="currentColor" stroke-width="1.2" stroke-linecap="round" stroke-linejoin="round" />
  <path d="M84.25,14.28 C84.28,14.27 84.33,14.26 84.39,14.25" fill="currentColor" stroke="currentColor" stroke-width="1.2" stroke-linecap="round" stroke-linejoin="round" />
  <path d="M81.12,14.28 C81.15,14.27 81.20,14.26 81.25,14.25" fill="currentColor" stroke="currentColor" stroke-width="1.2" stroke-linecap="round" stroke-linejoin="round" />
  <path d="M84.17,14.33 C84.19,14.31 84.21,14.29 84.25,14.28" fill="currentColor" stroke="currentColor" stroke-width="1.2" stroke-linecap="round" stroke-linejoin="round" />
  <path d="M81.77,14.28 C81.80,14.29 81.82,14.31 81.83,14.33" fill="currentColor" stroke="currentColor" stroke-width="1.2" stroke-linecap="round" stroke-linejoin="round" />
  <path d="M81.05,14.34 C81.07,14.32 81.09,14.30 81.12,14.28" fill="currentColor" stroke="currentColor" stroke-width="1.2" stroke-linecap="round" stroke-linejoin="round" />
  <path d="M84.90,14.28 C84.95,14.30 84.97,14.32 84.97,14.36" fill="currentColor" stroke="currentColor" stroke-width="1.2" stroke-linecap="round" stroke-linejoin="round" />
  <path d="M84.13,14.39 C84.14,14.37 84.15,14.35 84.17,14.33" fill="currentColor" stroke="currentColor" stroke-width="1.2" stroke-linecap="round" stroke-linejoin="round" />
  <path d="M81.83,14.33 C81.84,14.35 81.85,14.38 81.85,14.41" fill="currentColor" stroke="currentColor" stroke-width="1.2" stroke-linecap="round" stroke-linejoin="round" />
  <path d="M81.04,14.43 C81.04,14.40 81.04,14.37 81.05,14.34" fill="currentColor" stroke="currentColor" stroke-width="1.2" stroke-linecap="round" stroke-linejoin="round" />
  <path d="M84.97,14.36 C84.97,14.40 84.97,14.44 84.96,14.47" fill="currentColor" stroke="currentColor" stroke-width="1.2" stroke-linecap="round" stroke-linejoin="round" />
  <path d="M81.04,14.52 C81.04,14.48 81.04,14.45 81.04,14.43" fill="currentColor" stroke="currentColor" stroke-width="1.2" stroke-linecap="round" stroke-linejoin="round" />
  <path d="M84.96,14.47 C84.96,14.51 84.94,14.55 84.93,14.58" fill="currentColor" stroke="currentColor" stroke-width="1.2" stroke-linecap="round" stroke-linejoin="round" />
  <path d="M81.06,14.62 C81.05,14.58 81.04,14.55 81.04,14.52" fill="currentColor" stroke="currentColor" stroke-width="1.2" stroke-linecap="round" stroke-linejoin="round" />
  <path d="M83.81,15.33 C83.92,15.02 84.03,14.71 84.13,14.39" fill="currentColor" stroke="currentColor" stroke-width="1.2" stroke-linecap="round" stroke-linejoin="round" />
  <path d="M84.93,14.58 C84.82,14.87 84.70,15.18 84.58,15.50" fill="currentColor" stroke="currentColor" stroke-width="1.2" stroke-linecap="round" stroke-linejoin="round" />
  <path d="M83.43,16.24 C83.57,15.94 83.69,15.64 83.81,15.33" fill="currentColor" stroke="currentColor" stroke-width="1.2" stroke-linecap="round" stroke-linejoin="round" />
  <path d="M84.58,15.50 C84.45,15.82 84.30,16.16 84.13,16.51" fill="currentColor" stroke="currentColor" stroke-width="1.2" stroke-linecap="round" stroke-linejoin="round" />
  <line x1="81.85" y1="14.41" x2="82.42" y2="18.00" fill="currentColor" stroke="currentColor" stroke-width="1.2" stroke-linecap="round" stroke-linejoin="round" />
  <path d="M82.98,17.13 C83.14,16.84 83.29,16.54 83.43,16.24" fill="currentColor" stroke="currentColor" stroke-width="1.2" stroke-linecap="round" stroke-linejoin="round" />
  <line x1="81.78" y1="18.91" x2="81.06" y2="14.62" fill="currentColor" stroke="currentColor" stroke-width="1.2" stroke-linecap="round" stroke-linejoin="round" />
  <path d="M84.13,16.51 C83.96,16.86 83.76,17.23 83.54,17.61" fill="currentColor" stroke="currentColor" stroke-width="1.2" stroke-linecap="round" stroke-linejoin="round" />
  <line x1="86.24" y1="17.72" x2="89.48" y2="16.64" fill="currentColor" stroke="currentColor" stroke-width="1.2" stroke-linecap="round" stroke-linejoin="round" />
  <line x1="89.48" y1="16.64" x2="92.72" y2="17.72" fill="currentColor" stroke="currentColor" stroke-width="1.2" stroke-linecap="round" stroke-linejoin="round" />
  <path d="M82.43,18.00 C82.63,17.71 82.82,17.43 82.98,17.13" fill="currentColor" stroke="currentColor" stroke-width="1.2" stroke-linecap="round" stroke-linejoin="round" />
  <line x1="82.42" y1="18.00" x2="82.43" y2="18.00" fill="currentColor" stroke="currentColor" stroke-width="1.2" stroke-linecap="round" stroke-linejoin="round" />
  <path d="M83.54,17.61 C83.31,17.99 83.04,18.39 82.73,18.81" fill="currentColor" stroke="currentColor" stroke-width="1.2" stroke-linecap="round" stroke-linejoin="round" />
  <line x1="82.73" y1="18.81" x2="81.47" y2="20.53" fill="currentColor" stroke="currentColor" stroke-width="1.2" stroke-linecap="round" stroke-linejoin="round" />
  <line x1="80.59" y1="20.44" x2="81.78" y2="18.91" fill="currentColor" stroke="currentColor" stroke-width="1.2" stroke-linecap="round" stroke-linejoin="round" />
  <path d="M80.53,20.56 C80.54,20.53 80.56,20.49 80.59,20.44" fill="currentColor" stroke="currentColor" stroke-width="1.2" stroke-linecap="round" stroke-linejoin="round" />
  <path d="M81.47,20.53 C81.45,20.56 81.42,20.58 81.39,20.60" fill="currentColor" stroke="currentColor" stroke-width="1.2" stroke-linecap="round" stroke-linejoin="round" />
  <path d="M80.57,20.64 C80.54,20.62 80.53,20.59 80.53,20.56" fill="currentColor" stroke="currentColor" stroke-width="1.2" stroke-linecap="round" stroke-linejoin="round" />
  <path d="M81.39,20.60 C81.36,20.62 81.33,20.64 81.29,20.65" fill="currentColor" stroke="currentColor" stroke-width="1.2" stroke-linecap="round" stroke-linejoin="round" />
  <path d="M80.70,20.68 C80.65,20.67 80.60,20.66 80.57,20.64" fill="currentColor" stroke="currentColor" stroke-width="1.2" stroke-linecap="round" stroke-linejoin="round" />
  <path d="M81.29,20.65 C81.24,20.67 81.19,20.68 81.13,20.68" fill="currentColor" stroke="currentColor" stroke-width="1.2" stroke-linecap="round" stroke-linejoin="round" />
  <path d="M80.92,20.69 C80.83,20.69 80.76,20.69 80.70,20.68" fill="currentColor" stroke="currentColor" stroke-width="1.2" stroke-linecap="round" stroke-linejoin="round" />
  <path d="M81.13,20.68 C81.07,20.69 81.00,20.69 80.92,20.69" fill="currentColor" stroke="currentColor" stroke-width="1.2" stroke-linecap="round" stroke-linejoin="round" />
  <line x1="16.76" y1="31.15" x2="162.20" y2="31.15" fill="none" stroke="currentColor" stroke-width="1.0" stroke-linecap="round" stroke-linejoin="round" />
  <line x1="16.76" y1="44.58" x2="162.20" y2="44.58" fill="none" stroke="currentColor" stroke-width="1.0" stroke-linecap="round" stroke-linejoin="round" />
  <path d="M8.24,47.81 C8.30,47.80 8.38,47.79 8.46,47.79" fill="currentColor" stroke="currentColor" stroke-width="1.2" stroke-linecap="round" stroke-linejoin="round" />
  <path d="M8.46,47.79 C8.55,47.79 8.63,47.80 8.69,47.81" fill="currentColor" stroke="currentColor" stroke-width="1.2" stroke-linecap="round" stroke-linejoin="round" />
  <path d="M8.10,47.84 C8.13,47.83 8.18,47.81 8.24,47.81" fill="currentColor" stroke="currentColor" stroke-width="1.2" stroke-linecap="round" stroke-linejoin="round" />
  <path d="M8.69,47.81 C8.74,47.81 8.79,47.83 8.83,47.84" fill="currentColor" stroke="currentColor" stroke-width="1.2" stroke-linecap="round" stroke-linejoin="round" />
  <path d="M8.02,47.89 C8.04,47.87 8.06,47.85 8.10,47.84" fill="currentColor" stroke="currentColor" stroke-width="1.2" stroke-linecap="round" stroke-linejoin="round" />
  <path d="M8.83,47.84 C8.86,47.85 8.89,47.87 8.90,47.89" fill="currentColor" stroke="currentColor" stroke-width="1.2" stroke-linecap="round" stroke-linejoin="round" />
  <path d="M8.00,47.96 C8.00,47.94 8.01,47.91 8.02,47.89" fill="currentColor" stroke="currentColor" stroke-width="1.2" stroke-linecap="round" stroke-linejoin="round" />
  <path d="M8.90,47.89 C8.92,47.91 8.92,47.94 8.92,47.96" fill="currentColor" stroke="currentColor" stroke-width="1.2" stroke-linecap="round" stroke-linejoin="round" />
  <line x1="8.92" y1="47.96" x2="8.92" y2="53.97" fill="currentColor" stroke="currentColor" stroke-width="1.2" stroke-linecap="round" stroke-linejoin="round" />
  <line x1="8.00" y1="54.40" x2="8.00" y2="47.96" fill="currentColor" stroke="currentColor" stroke-width="1.2" stroke-linecap="round" stroke-linejoin="round" />
  <path d="M13.72,52.44 C13.75,52.44 13.78,52.44 13.81,52.44" fill="currentColor" stroke="currentColor" stroke-width="1.2" stroke-linecap="round" stroke-linejoin="round" />
  <path d="M13.81,52.44 C13.87,52.44 13.91,52.44 13.94,52.44" fill="currentColor" stroke="currentColor" stroke-width="1.2" stroke-linecap="round" stroke-linejoin="round" />
  <path d="M13.65,52.45 C13.67,52.44 13.69,52.44 13.72,52.44" fill="currentColor" stroke="currentColor" stroke-width="1.2" stroke-linecap="round" stroke-linejoin="round" />
  <path d="M13.94,52.44 C13.98,52.45 14.00,52.45 14.02,52.46" fill="currentColor" stroke="currentColor" stroke-width="1.2" stroke-linecap="round" stroke-linejoin="round" />
  <path d="M13.60,52.46 C13.62,52.46 13.63,52.45 13.65,52.45" fill="currentColor" stroke="currentColor" stroke-width="1.2" stroke-linecap="round" stroke-linejoin="round" />
  <path d="M13.57,52.48 C13.58,52.47 13.59,52.46 13.60,52.46" fill="currentColor" stroke="currentColor" stroke-width="1.2" stroke-linecap="round" stroke-linejoin="round" />
  <path d="M14.02,52.46 C14.04,52.47 14.05,52.48 14.06,52.49" fill="currentColor" stroke="currentColor" stroke-width="1.2" stroke-linecap="round" stroke-linejoin="round" />
  <path d="M14.06,52.49 C14.07,52.50 14.07,52.51 14.07,52.53" fill="currentColor" stroke="currentColor" stroke-width="1.2" stroke-linecap="round" stroke-linejoin="round" />
  <line x1="12.63" y1="53.08" x2="13.57" y2="52.48" fill="currentColor" stroke="currentColor" stroke-width="1.2" stroke-linecap="round" stroke-linejoin="round" />
  <path d="M12.58,53.12 C12.59,53.11 12.61,53.09 12.63,53.08" fill="currentColor" stroke="currentColor" stroke-width="1.2" stroke-linecap="round" stroke-linejoin="round" />
  <path d="M12.55,53.16 C12.56,53.15 12.57,53.13 12.58,53.12" fill="currentColor" stroke="currentColor" stroke-width="1.2" stroke-linecap="round" stroke-linejoin="round" />
  <path d="M12.54,53.23 C12.54,53.20 12.55,53.18 12.55,53.16" fill="currentColor" stroke="currentColor" stroke-width="1.2" stroke-linecap="round" stroke-linejoin="round" />
  <line x1="13.52" y1="53.01" x2="12.73" y2="53.49" fill="currentColor" stroke="currentColor" stroke-width="1.2" stroke-linecap="round" stroke-linejoin="round" />
  <path d="M12.54,53.32 C12.54,53.28 12.54,53.25 12.54,53.23" fill="currentColor" stroke="currentColor" stroke-width="1.2" stroke-linecap="round" stroke-linejoin="round" />
  <path d="M12.54,53.44 C12.54,53.41 12.54,53.37 12.54,53.32" fill="currentColor" stroke="currentColor" stroke-width="1.2" stroke-linecap="round" stroke-linejoin="round" />
  <path d="M12.57,53.51 C12.56,53.50 12.55,53.47 12.54,53.44" fill="currentColor" stroke="currentColor" stroke-width="1.2" stroke-linecap="round" stroke-linejoin="round" />
  <path d="M12.73,53.49 C12.69,53.51 12.66,53.52 12.63,53.52" fill="currentColor" stroke="currentColor" stroke-width="1.2" stroke-linecap="round" stroke-linejoin="round" />
  <path d="M12.63,53.52 C12.61,53.53 12.59,53.52 12.57,53.51" fill="currentColor" stroke="currentColor" stroke-width="1.2" stroke-linecap="round" stroke-linejoin="round" />
  <line x1="8.92" y1="53.97" x2="11.42" y2="53.97" fill="currentColor" stroke="currentColor" stroke-width="1.2" stroke-linecap="round" stroke-linejoin="round" />
  <path d="M11.42,53.97 C11.45,53.97 11.48,53.98 11.50,54.00" fill="currentColor" stroke="currentColor" stroke-width="1.2" stroke-linecap="round" stroke-linejoin="round" />
  <path d="M11.50,54.00 C11.52,54.01 11.54,54.04 11.56,54.07" fill="currentColor" stroke="currentColor" stroke-width="1.2" stroke-linecap="round" stroke-linejoin="round" />
  <path d="M11.56,54.07 C11.57,54.10 11.59,54.14 11.59,54.19" fill="currentColor" stroke="currentColor" stroke-width="1.2" stroke-linecap="round" stroke-linejoin="round" />
  <path d="M11.59,54.19 C11.60,54.24 11.60,54.30 11.60,54.37" fill="currentColor" stroke="currentColor" stroke-width="1.2" stroke-linecap="round" stroke-linejoin="round" />
  <line x1="14.07" y1="52.53" x2="14.07" y2="56.14" fill="currentColor" stroke="currentColor" stroke-width="1.2" stroke-linecap="round" stroke-linejoin="round" />
  <path d="M11.60,54.37 C11.60,54.44 11.60,54.50 11.59,54.55" fill="currentColor" stroke="currentColor" stroke-width="1.2" stroke-linecap="round" stroke-linejoin="round" />
  <path d="M8.11,54.69 C8.04,54.64 8.00,54.54 8.00,54.40" fill="currentColor" stroke="currentColor" stroke-width="1.2" stroke-linecap="round" stroke-linejoin="round" />
  <line x1="13.52" y1="56.14" x2="13.52" y2="53.01" fill="currentColor" stroke="currentColor" stroke-width="1.2" stroke-linecap="round" stroke-linejoin="round" />
  <path d="M11.59,54.55 C11.59,54.60 11.57,54.64 11.56,54.68" fill="currentColor" stroke="currentColor" stroke-width="1.2" stroke-linecap="round" stroke-linejoin="round" />
  <path d="M11.56,54.68 C11.54,54.71 11.52,54.73 11.50,54.75" fill="currentColor" stroke="currentColor" stroke-width="1.2" stroke-linecap="round" stroke-linejoin="round" />
  <path d="M8.34,54.77 C8.26,54.77 8.18,54.75 8.11,54.69" fill="currentColor" stroke="currentColor" stroke-width="1.2" stroke-linecap="round" stroke-linejoin="round" />
  <path d="M11.50,54.75 C11.48,54.77 11.45,54.77 11.42,54.77" fill="currentColor" stroke="currentColor" stroke-width="1.2" stroke-linecap="round" stroke-linejoin="round" />
  <line x1="11.42" y1="54.77" x2="8.34" y2="54.77" fill="currentColor" stroke="currentColor" stroke-width="1.2" stroke-linecap="round" stroke-linejoin="round" />
  <line x1="12.67" y1="56.14" x2="13.52" y2="56.14" fill="currentColor" stroke="currentColor" stroke-width="1.2" stroke-linecap="round" stroke-linejoin="round" />
  <line x1="14.07" y1="56.14" x2="14.81" y2="56.14" fill="currentColor" stroke="currentColor" stroke-width="1.2" stroke-linecap="round" stroke-linejoin="round" />
  <path d="M12.62,56.15 C12.63,56.14 12.65,56.14 12.67,56.14" fill="currentColor" stroke="currentColor" stroke-width="1.2" stroke-linecap="round" stroke-linejoin="round" />
  <path d="M14.81,56.14 C14.83,56.14 14.84,56.14 14.86,56.15" fill="currentColor" stroke="currentColor" stroke-width="1.2" stroke-linecap="round" stroke-linejoin="round" />
  <path d="M12.58,56.19 C12.59,56.17 12.61,56.16 12.62,56.15" fill="currentColor" stroke="currentColor" stroke-width="1.2" stroke-linecap="round" stroke-linejoin="round" />
  <path d="M14.86,56.15 C14.87,56.16 14.89,56.17 14.90,56.19" fill="currentColor" stroke="currentColor" stroke-width="1.2" stroke-linecap="round" stroke-linejoin="round" />
  <path d="M12.56,56.26 C12.57,56.23 12.57,56.21 12.58,56.19" fill="currentColor" stroke="currentColor" stroke-width="1.2" stroke-linecap="round" stroke-linejoin="round" />
  <path d="M14.90,56.19 C14.90,56.21 14.91,56.23 14.92,56.26" fill="currentColor" stroke="currentColor" stroke-width="1.2" stroke-linecap="round" stroke-linejoin="round" />
  <path d="M12.55,56.36 C12.55,56.32 12.55,56.29 12.56,56.26" fill="currentColor" stroke="currentColor" stroke-width="1.2" stroke-linecap="round" stroke-linejoin="round" />
  <path d="M14.92,56.26 C14.92,56.29 14.93,56.32 14.93,56.36" fill="currentColor" stroke="currentColor" stroke-width="1.2" stroke-linecap="round" stroke-linejoin="round" />
  <path d="M14.93,56.36 C14.93,56.40 14.92,56.43 14.92,56.46" fill="currentColor" stroke="currentColor" stroke-width="1.2" stroke-linecap="round" stroke-linejoin="round" />
  <path d="M12.56,56.46 C12.55,56.43 12.55,56.40 12.55,56.36" fill="currentColor" stroke="currentColor" stroke-width="1.2" stroke-linecap="round" stroke-linejoin="round" />
  <path d="M14.92,56.46 C14.91,56.49 14.90,56.51 14.89,56.53" fill="currentColor" stroke="currentColor" stroke-width="1.2" stroke-linecap="round" stroke-linejoin="round" />
  <path d="M12.59,56.53 C12.58,56.51 12.57,56.49 12.56,56.46" fill="currentColor" stroke="currentColor" stroke-width="1.2" stroke-linecap="round" stroke-linejoin="round" />
  <path d="M14.89,56.53 C14.88,56.54 14.87,56.55 14.85,56.56" fill="currentColor" stroke="currentColor" stroke-width="1.2" stroke-linecap="round" stroke-linejoin="round" />
  <path d="M12.62,56.56 C12.61,56.55 12.60,56.54 12.59,56.53" fill="currentColor" stroke="currentColor" stroke-width="1.2" stroke-linecap="round" stroke-linejoin="round" />
  <path d="M14.85,56.56 C14.84,56.57 14.83,56.57 14.81,56.57" fill="currentColor" stroke="currentColor" stroke-width="1.2" stroke-linecap="round" stroke-linejoin="round" />
  <path d="M12.67,56.57 C12.65,56.57 12.64,56.57 12.62,56.56" fill="currentColor" stroke="currentColor" stroke-width="1.2" stroke-linecap="round" stroke-linejoin="round" />
  <line x1="14.81" y1="56.57" x2="12.67" y2="56.57" fill="currentColor" stroke="currentColor" stroke-width="1.2" stroke-linecap="round" stroke-linejoin="round" />
  <line x1="16.76" y1="58.01" x2="162.20" y2="58.01" fill="none" stroke="currentColor" stroke-width="1.0" stroke-linecap="round" stroke-linejoin="round" />
  <line x1="16.76" y1="71.45" x2="162.20" y2="71.45" fill="none" stroke="currentColor" stroke-width="1.0" stroke-linecap="round" stroke-linejoin="round" />
  <path d="M84.26,81.67 C84.30,81.67 84.35,81.67 84.41,81.67" fill="currentColor" stroke="currentColor" stroke-width="1.2" stroke-linecap="round" stroke-linejoin="round" />
  <path d="M84.41,81.67 C84.49,81.67 84.55,81.67 84.61,81.68" fill="currentColor" stroke="currentColor" stroke-width="1.2" stroke-linecap="round" stroke-linejoin="round" />
  <path d="M84.16,81.69 C84.19,81.68 84.23,81.68 84.26,81.67" fill="currentColor" stroke="currentColor" stroke-width="1.2" stroke-linecap="round" stroke-linejoin="round" />
  <path d="M84.61,81.68 C84.66,81.69 84.70,81.70 84.73,81.71" fill="currentColor" stroke="currentColor" stroke-width="1.2" stroke-linecap="round" stroke-linejoin="round" />
  <path d="M84.09,81.71 C84.11,81.70 84.13,81.69 84.16,81.69" fill="currentColor" stroke="currentColor" stroke-width="1.2" stroke-linecap="round" stroke-linejoin="round" />
  <path d="M84.04,81.73 C84.05,81.72 84.07,81.71 84.09,81.71" fill="currentColor" stroke="currentColor" stroke-width="1.2" stroke-linecap="round" stroke-linejoin="round" />
  <path d="M84.73,81.71 C84.76,81.72 84.78,81.73 84.79,81.75" fill="currentColor" stroke="currentColor" stroke-width="1.2" stroke-linecap="round" stroke-linejoin="round" />
  <path d="M84.79,81.75 C84.80,81.77 84.80,81.79 84.80,81.81" fill="currentColor" stroke="currentColor" stroke-width="1.2" stroke-linecap="round" stroke-linejoin="round" />
  <line x1="82.58" y1="82.66" x2="84.04" y2="81.73" fill="currentColor" stroke="currentColor" stroke-width="1.2" stroke-linecap="round" stroke-linejoin="round" />
  <path d="M82.51,82.72 C82.53,82.70 82.56,82.68 82.58,82.66" fill="currentColor" stroke="currentColor" stroke-width="1.2" stroke-linecap="round" stroke-linejoin="round" />
  <path d="M82.47,82.79 C82.48,82.76 82.50,82.74 82.51,82.72" fill="currentColor" stroke="currentColor" stroke-width="1.2" stroke-linecap="round" stroke-linejoin="round" />
  <path d="M82.45,82.89 C82.46,82.85 82.46,82.82 82.47,82.79" fill="currentColor" stroke="currentColor" stroke-width="1.2" stroke-linecap="round" stroke-linejoin="round" />
  <line x1="83.96" y1="82.56" x2="82.74" y2="83.28" fill="currentColor" stroke="currentColor" stroke-width="1.2" stroke-linecap="round" stroke-linejoin="round" />
  <path d="M82.44,83.03 C82.44,82.97 82.45,82.93 82.45,82.89" fill="currentColor" stroke="currentColor" stroke-width="1.2" stroke-linecap="round" stroke-linejoin="round" />
  <path d="M82.46,83.21 C82.45,83.17 82.44,83.10 82.44,83.03" fill="currentColor" stroke="currentColor" stroke-width="1.2" stroke-linecap="round" stroke-linejoin="round" />
  <path d="M82.50,83.32 C82.48,83.30 82.46,83.26 82.46,83.21" fill="currentColor" stroke="currentColor" stroke-width="1.2" stroke-linecap="round" stroke-linejoin="round" />
  <path d="M82.74,83.28 C82.68,83.32 82.63,83.33 82.59,83.34" fill="currentColor" stroke="currentColor" stroke-width="1.2" stroke-linecap="round" stroke-linejoin="round" />
  <path d="M82.59,83.34 C82.55,83.35 82.52,83.34 82.50,83.32" fill="currentColor" stroke="currentColor" stroke-width="1.2" stroke-linecap="round" stroke-linejoin="round" />
  <line x1="84.80" y1="81.81" x2="84.80" y2="87.36" fill="currentColor" stroke="currentColor" stroke-width="1.2" stroke-linecap="round" stroke-linejoin="round" />
  <line x1="16.76" y1="84.88" x2="162.20" y2="84.88" fill="none" stroke="currentColor" stroke-width="1.0" stroke-linecap="round" stroke-linejoin="round" />
  <line x1="87.55" y1="84.88" x2="91.41" y2="84.88" fill="none" stroke="currentColor" stroke-width="1.000000011920929" stroke-linecap="round" stroke-linejoin="round" />
  <line x1="83.96" y1="87.36" x2="83.96" y2="82.56" fill="currentColor" stroke="currentColor" stroke-width="1.2" stroke-linecap="round" stroke-linejoin="round" />
  <line x1="14.93" y1="146.00" x2="135.99" y2="24.93" fill="none" stroke="currentColor" stroke-width="1.4000000476837158" stroke-linecap="round" stroke-linejoin="round" />
  <line x1="82.64" y1="87.36" x2="83.96" y2="87.36" fill="currentColor" stroke="currentColor" stroke-width="1.2" stroke-linecap="round" stroke-linejoin="round" />
  <line x1="84.80" y1="87.36" x2="85.94" y2="87.36" fill="currentColor" stroke="currentColor" stroke-width="1.2" stroke-linecap="round" stroke-linejoin="round" />
  <path d="M82.57,87.38 C82.59,87.37 82.62,87.36 82.64,87.36" fill="currentColor" stroke="currentColor" stroke-width="1.2" stroke-linecap="round" stroke-linejoin="round" />
  <path d="M85.94,87.36 C85.97,87.36 85.99,87.37 86.02,87.38" fill="currentColor" stroke="currentColor" stroke-width="1.2" stroke-linecap="round" stroke-linejoin="round" />
  <path d="M82.52,87.45 C82.53,87.42 82.55,87.40 82.57,87.38" fill="currentColor" stroke="currentColor" stroke-width="1.2" stroke-linecap="round" stroke-linejoin="round" />
  <path d="M86.02,87.38 C86.04,87.40 86.06,87.42 86.07,87.45" fill="currentColor" stroke="currentColor" stroke-width="1.2" stroke-linecap="round" stroke-linejoin="round" />
  <path d="M82.48,87.55 C82.49,87.51 82.50,87.47 82.52,87.45" fill="currentColor" stroke="currentColor" stroke-width="1.2" stroke-linecap="round" stroke-linejoin="round" />
  <path d="M86.07,87.45 C86.09,87.47 86.10,87.51 86.11,87.55" fill="currentColor" stroke="currentColor" stroke-width="1.2" stroke-linecap="round" stroke-linejoin="round" />
  <path d="M82.47,87.70 C82.47,87.64 82.47,87.59 82.48,87.55" fill="currentColor" stroke="currentColor" stroke-width="1.2" stroke-linecap="round" stroke-linejoin="round" />
  <path d="M86.11,87.55 C86.12,87.59 86.12,87.64 86.12,87.70" fill="currentColor" stroke="currentColor" stroke-width="1.2" stroke-linecap="round" stroke-linejoin="round" />
  <path d="M86.12,87.70 C86.12,87.76 86.11,87.82 86.10,87.86" fill="currentColor" stroke="currentColor" stroke-width="1.2" stroke-linecap="round" stroke-linejoin="round" />
  <path d="M82.48,87.86 C82.47,87.82 82.47,87.76 82.47,87.70" fill="currentColor" stroke="currentColor" stroke-width="1.2" stroke-linecap="round" stroke-linejoin="round" />
  <path d="M86.10,87.86 C86.10,87.90 86.08,87.93 86.07,87.96" fill="currentColor" stroke="currentColor" stroke-width="1.2" stroke-linecap="round" stroke-linejoin="round" />
  <path d="M82.52,87.96 C82.51,87.93 82.49,87.90 82.48,87.86" fill="currentColor" stroke="currentColor" stroke-width="1.2" stroke-linecap="round" stroke-linejoin="round" />
  <path d="M86.07,87.96 C86.05,87.99 86.03,88.01 86.01,88.02" fill="currentColor" stroke="currentColor" stroke-width="1.2" stroke-linecap="round" stroke-linejoin="round" />
  <path d="M82.58,88.02 C82.56,88.01 82.54,87.99 82.52,87.96" fill="currentColor" stroke="currentColor" stroke-width="1.2" stroke-linecap="round" stroke-linejoin="round" />
  <path d="M86.01,88.02 C85.99,88.03 85.97,88.03 85.94,88.03" fill="currentColor" stroke="currentColor" stroke-width="1.2" stroke-linecap="round" stroke-linejoin="round" />
  <path d="M82.64,88.03 C82.62,88.03 82.60,88.03 82.58,88.02" fill="currentColor" stroke="currentColor" stroke-width="1.2" stroke-linecap="round" stroke-linejoin="round" />
  <line x1="85.94" y1="88.03" x2="82.64" y2="88.03" fill="currentColor" stroke="currentColor" stroke-width="1.2" stroke-linecap="round" stroke-linejoin="round" />
  <line x1="89.48" y1="177.11" x2="89.48" y2="16.10" fill="none" stroke="currentColor" stroke-width="1.4000000476837158" stroke-linecap="round" stroke-linejoin="round" />
  <line x1="22.32" y1="170.57" x2="22.32" y2="26.05" fill="none" stroke="currentColor" stroke-width="1.0" stroke-linecap="round" stroke-linejoin="round" />
  <line x1="35.75" y1="170.57" x2="35.75" y2="26.05" fill="none" stroke="currentColor" stroke-width="1.0" stroke-linecap="round" stroke-linejoin="round" />
  <line x1="49.18" y1="170.57" x2="49.18" y2="26.05" fill="none" stroke="currentColor" stroke-width="1.0" stroke-linecap="round" stroke-linejoin="round" />
  <line x1="62.62" y1="170.57" x2="62.62" y2="26.05" fill="none" stroke="currentColor" stroke-width="1.0" stroke-linecap="round" stroke-linejoin="round" />
  <line x1="76.05" y1="170.57" x2="76.05" y2="26.05" fill="none" stroke="currentColor" stroke-width="1.0" stroke-linecap="round" stroke-linejoin="round" />
  <line x1="143.21" y1="170.57" x2="143.21" y2="26.05" fill="none" stroke="currentColor" stroke-width="1.0" stroke-linecap="round" stroke-linejoin="round" />
  <line x1="156.64" y1="170.57" x2="156.64" y2="26.05" fill="none" stroke="currentColor" stroke-width="1.0" stroke-linecap="round" stroke-linejoin="round" />
  <line x1="116.34" y1="170.57" x2="116.34" y2="26.05" fill="none" stroke="currentColor" stroke-width="1.0" stroke-linecap="round" stroke-linejoin="round" />
  <line x1="129.78" y1="170.57" x2="129.78" y2="26.05" fill="none" stroke="currentColor" stroke-width="1.0" stroke-linecap="round" stroke-linejoin="round" />
  <line x1="102.91" y1="170.57" x2="102.91" y2="26.05" fill="none" stroke="currentColor" stroke-width="1.0" stroke-linecap="round" stroke-linejoin="round" />
  <line x1="102.91" y1="100.24" x2="102.91" y2="96.38" fill="none" stroke="currentColor" stroke-width="1.000000011920929" stroke-linecap="round" stroke-linejoin="round" />
  <line x1="10.68" y1="98.31" x2="169.89" y2="98.31" fill="none" stroke="currentColor" stroke-width="1.4000000476837158" stroke-linecap="round" stroke-linejoin="round" />
  <path d="M103.03,101.63 C103.07,101.63 103.12,101.63 103.18,101.63" fill="currentColor" stroke="currentColor" stroke-width="1.2" stroke-linecap="round" stroke-linejoin="round" />
  <path d="M103.18,101.63 C103.26,101.63 103.32,101.63 103.37,101.64" fill="currentColor" stroke="currentColor" stroke-width="1.2" stroke-linecap="round" stroke-linejoin="round" />
  <path d="M102.93,101.64 C102.96,101.64 102.99,101.63 103.03,101.63" fill="currentColor" stroke="currentColor" stroke-width="1.2" stroke-linecap="round" stroke-linejoin="round" />
  <path d="M103.37,101.64 C103.43,101.65 103.46,101.65 103.49,101.67" fill="currentColor" stroke="currentColor" stroke-width="1.2" stroke-linecap="round" stroke-linejoin="round" />
  <path d="M102.85,101.66 C102.88,101.66 102.90,101.65 102.93,101.64" fill="currentColor" stroke="currentColor" stroke-width="1.2" stroke-linecap="round" stroke-linejoin="round" />
  <path d="M102.81,101.69 C102.82,101.68 102.84,101.67 102.85,101.66" fill="currentColor" stroke="currentColor" stroke-width="1.2" stroke-linecap="round" stroke-linejoin="round" />
  <path d="M103.49,101.67 C103.52,101.68 103.54,101.69 103.55,101.71" fill="currentColor" stroke="currentColor" stroke-width="1.2" stroke-linecap="round" stroke-linejoin="round" />
  <path d="M103.55,101.71 C103.56,101.73 103.57,101.75 103.57,101.77" fill="currentColor" stroke="currentColor" stroke-width="1.2" stroke-linecap="round" stroke-linejoin="round" />
  <line x1="101.35" y1="102.62" x2="102.81" y2="101.69" fill="currentColor" stroke="currentColor" stroke-width="1.2" stroke-linecap="round" stroke-linejoin="round" />
  <path d="M101.28,102.68 C101.30,102.66 101.32,102.64 101.35,102.62" fill="currentColor" stroke="currentColor" stroke-width="1.2" stroke-linecap="round" stroke-linejoin="round" />
  <path d="M101.24,102.75 C101.25,102.72 101.26,102.70 101.28,102.68" fill="currentColor" stroke="currentColor" stroke-width="1.2" stroke-linecap="round" stroke-linejoin="round" />
  <path d="M101.22,102.85 C101.22,102.81 101.23,102.77 101.24,102.75" fill="currentColor" stroke="currentColor" stroke-width="1.2" stroke-linecap="round" stroke-linejoin="round" />
  <line x1="102.73" y1="102.51" x2="101.51" y2="103.24" fill="currentColor" stroke="currentColor" stroke-width="1.2" stroke-linecap="round" stroke-linejoin="round" />
  <path d="M101.21,102.99 C101.21,102.93 101.21,102.88 101.22,102.85" fill="currentColor" stroke="currentColor" stroke-width="1.2" stroke-linecap="round" stroke-linejoin="round" />
  <path d="M101.22,103.17 C101.21,103.12 101.21,103.06 101.21,102.99" fill="currentColor" stroke="currentColor" stroke-width="1.2" stroke-linecap="round" stroke-linejoin="round" />
  <path d="M101.27,103.28 C101.24,103.26 101.23,103.22 101.22,103.17" fill="currentColor" stroke="currentColor" stroke-width="1.2" stroke-linecap="round" stroke-linejoin="round" />
  <path d="M101.51,103.24 C101.45,103.27 101.40,103.29 101.36,103.30" fill="currentColor" stroke="currentColor" stroke-width="1.2" stroke-linecap="round" stroke-linejoin="round" />
  <path d="M101.36,103.30 C101.32,103.31 101.29,103.30 101.27,103.28" fill="currentColor" stroke="currentColor" stroke-width="1.2" stroke-linecap="round" stroke-linejoin="round" />
  <line x1="103.57" y1="101.77" x2="103.57" y2="107.32" fill="currentColor" stroke="currentColor" stroke-width="1.2" stroke-linecap="round" stroke-linejoin="round" />
  <line x1="102.73" y1="107.32" x2="102.73" y2="102.51" fill="currentColor" stroke="currentColor" stroke-width="1.2" stroke-linecap="round" stroke-linejoin="round" />
  <line x1="101.41" y1="107.32" x2="102.73" y2="107.32" fill="currentColor" stroke="currentColor" stroke-width="1.2" stroke-linecap="round" stroke-linejoin="round" />
  <line x1="103.57" y1="107.32" x2="104.71" y2="107.32" fill="currentColor" stroke="currentColor" stroke-width="1.2" stroke-linecap="round" stroke-linejoin="round" />
  <path d="M101.34,107.34 C101.36,107.33 101.38,107.32 101.41,107.32" fill="currentColor" stroke="currentColor" stroke-width="1.2" stroke-linecap="round" stroke-linejoin="round" />
  <path d="M104.71,107.32 C104.74,107.32 104.76,107.33 104.78,107.34" fill="currentColor" stroke="currentColor" stroke-width="1.2" stroke-linecap="round" stroke-linejoin="round" />
  <path d="M101.29,107.40 C101.30,107.38 101.32,107.35 101.34,107.34" fill="currentColor" stroke="currentColor" stroke-width="1.2" stroke-linecap="round" stroke-linejoin="round" />
  <path d="M104.78,107.34 C104.81,107.35 104.82,107.38 104.84,107.40" fill="currentColor" stroke="currentColor" stroke-width="1.2" stroke-linecap="round" stroke-linejoin="round" />
  <path d="M101.25,107.51 C101.26,107.47 101.27,107.43 101.29,107.40" fill="currentColor" stroke="currentColor" stroke-width="1.2" stroke-linecap="round" stroke-linejoin="round" />
  <path d="M104.84,107.40 C104.85,107.43 104.87,107.47 104.87,107.51" fill="currentColor" stroke="currentColor" stroke-width="1.2" stroke-linecap="round" stroke-linejoin="round" />
  <path d="M101.23,107.66 C101.23,107.60 101.24,107.55 101.25,107.51" fill="currentColor" stroke="currentColor" stroke-width="1.2" stroke-linecap="round" stroke-linejoin="round" />
  <path d="M104.87,107.51 C104.88,107.55 104.89,107.60 104.89,107.66" fill="currentColor" stroke="currentColor" stroke-width="1.2" stroke-linecap="round" stroke-linejoin="round" />
  <path d="M104.89,107.66 C104.89,107.72 104.88,107.77 104.87,107.82" fill="currentColor" stroke="currentColor" stroke-width="1.2" stroke-linecap="round" stroke-linejoin="round" />
  <path d="M101.25,107.82 C101.24,107.77 101.23,107.72 101.23,107.66" fill="currentColor" stroke="currentColor" stroke-width="1.2" stroke-linecap="round" stroke-linejoin="round" />
  <path d="M104.87,107.82 C104.86,107.86 104.85,107.89 104.83,107.92" fill="currentColor" stroke="currentColor" stroke-width="1.2" stroke-linecap="round" stroke-linejoin="round" />
  <path d="M101.29,107.92 C101.27,107.89 101.26,107.86 101.25,107.82" fill="currentColor" stroke="currentColor" stroke-width="1.2" stroke-linecap="round" stroke-linejoin="round" />
  <path d="M104.83,107.92 C104.82,107.94 104.80,107.96 104.78,107.97" fill="currentColor" stroke="currentColor" stroke-width="1.2" stroke-linecap="round" stroke-linejoin="round" />
  <path d="M101.35,107.97 C101.33,107.96 101.31,107.94 101.29,107.92" fill="currentColor" stroke="currentColor" stroke-width="1.2" stroke-linecap="round" stroke-linejoin="round" />
  <path d="M104.78,107.97 C104.76,107.99 104.73,107.99 104.71,107.99" fill="currentColor" stroke="currentColor" stroke-width="1.2" stroke-linecap="round" stroke-linejoin="round" />
  <path d="M101.41,107.99 C101.39,107.99 101.37,107.99 101.35,107.97" fill="currentColor" stroke="currentColor" stroke-width="1.2" stroke-linecap="round" stroke-linejoin="round" />
  <line x1="104.71" y1="107.99" x2="101.41" y2="107.99" fill="currentColor" stroke="currentColor" stroke-width="1.2" stroke-linecap="round" stroke-linejoin="round" />
  <line x1="14.93" y1="50.63" x2="135.99" y2="171.69" fill="none" stroke="currentColor" stroke-width="1.4000000476837158" stroke-linecap="round" stroke-linejoin="round" />
  <line x1="16.76" y1="111.74" x2="162.20" y2="111.74" fill="none" stroke="currentColor" stroke-width="1.0" stroke-linecap="round" stroke-linejoin="round" />
  <line x1="16.76" y1="125.18" x2="162.20" y2="125.18" fill="none" stroke="currentColor" stroke-width="1.0" stroke-linecap="round" stroke-linejoin="round" />
  <line x1="16.76" y1="138.61" x2="162.20" y2="138.61" fill="none" stroke="currentColor" stroke-width="1.0" stroke-linecap="round" stroke-linejoin="round" />
  <path d="M8.24,143.02 C8.30,143.01 8.38,143.01 8.46,143.01" fill="currentColor" stroke="currentColor" stroke-width="1.2" stroke-linecap="round" stroke-linejoin="round" />
  <path d="M8.46,143.01 C8.55,143.01 8.63,143.01 8.69,143.02" fill="currentColor" stroke="currentColor" stroke-width="1.2" stroke-linecap="round" stroke-linejoin="round" />
  <path d="M8.10,143.05 C8.13,143.04 8.18,143.03 8.24,143.02" fill="currentColor" stroke="currentColor" stroke-width="1.2" stroke-linecap="round" stroke-linejoin="round" />
  <path d="M8.69,143.02 C8.74,143.03 8.79,143.04 8.83,143.05" fill="currentColor" stroke="currentColor" stroke-width="1.2" stroke-linecap="round" stroke-linejoin="round" />
  <path d="M8.02,143.10 C8.04,143.08 8.06,143.07 8.10,143.05" fill="currentColor" stroke="currentColor" stroke-width="1.2" stroke-linecap="round" stroke-linejoin="round" />
  <path d="M8.83,143.05 C8.86,143.07 8.89,143.08 8.90,143.10" fill="currentColor" stroke="currentColor" stroke-width="1.2" stroke-linecap="round" stroke-linejoin="round" />
  <path d="M8.00,143.18 C8.00,143.15 8.01,143.13 8.02,143.10" fill="currentColor" stroke="currentColor" stroke-width="1.2" stroke-linecap="round" stroke-linejoin="round" />
  <path d="M8.90,143.10 C8.92,143.13 8.92,143.15 8.92,143.18" fill="currentColor" stroke="currentColor" stroke-width="1.2" stroke-linecap="round" stroke-linejoin="round" />
  <line x1="8.92" y1="143.18" x2="8.92" y2="149.19" fill="currentColor" stroke="currentColor" stroke-width="1.2" stroke-linecap="round" stroke-linejoin="round" />
  <line x1="8.00" y1="149.61" x2="8.00" y2="143.18" fill="currentColor" stroke="currentColor" stroke-width="1.2" stroke-linecap="round" stroke-linejoin="round" />
  <path d="M13.18,147.66 C13.30,147.63 13.42,147.62 13.54,147.62" fill="currentColor" stroke="currentColor" stroke-width="1.2" stroke-linecap="round" stroke-linejoin="round" />
  <path d="M13.54,147.62 C13.74,147.62 13.91,147.65 14.06,147.70" fill="currentColor" stroke="currentColor" stroke-width="1.2" stroke-linecap="round" stroke-linejoin="round" />
  <path d="M12.87,147.75 C12.97,147.72 13.07,147.68 13.18,147.66" fill="currentColor" stroke="currentColor" stroke-width="1.2" stroke-linecap="round" stroke-linejoin="round" />
  <path d="M12.64,147.87 C12.70,147.83 12.78,147.79 12.87,147.75" fill="currentColor" stroke="currentColor" stroke-width="1.2" stroke-linecap="round" stroke-linejoin="round" />
  <path d="M14.06,147.70 C14.21,147.76 14.34,147.84 14.43,147.94" fill="currentColor" stroke="currentColor" stroke-width="1.2" stroke-linecap="round" stroke-linejoin="round" />
  <path d="M12.51,147.96 C12.53,147.93 12.58,147.90 12.64,147.87" fill="currentColor" stroke="currentColor" stroke-width="1.2" stroke-linecap="round" stroke-linejoin="round" />
  <path d="M12.46,148.01 C12.46,148.00 12.48,147.98 12.51,147.96" fill="currentColor" stroke="currentColor" stroke-width="1.2" stroke-linecap="round" stroke-linejoin="round" />
  <path d="M12.43,148.06 C12.44,148.04 12.45,148.03 12.46,148.01" fill="currentColor" stroke="currentColor" stroke-width="1.2" stroke-linecap="round" stroke-linejoin="round" />
  <path d="M12.42,148.12 C12.43,148.10 12.43,148.08 12.43,148.06" fill="currentColor" stroke="currentColor" stroke-width="1.2" stroke-linecap="round" stroke-linejoin="round" />
  <path d="M14.43,147.94 C14.53,148.03 14.61,148.15 14.66,148.27" fill="currentColor" stroke="currentColor" stroke-width="1.2" stroke-linecap="round" stroke-linejoin="round" />
  <path d="M13.73,148.16 C13.65,148.12 13.55,148.10 13.44,148.10" fill="currentColor" stroke="currentColor" stroke-width="1.2" stroke-linecap="round" stroke-linejoin="round" />
  <path d="M13.44,148.10 C13.31,148.10 13.20,148.12 13.09,148.16" fill="currentColor" stroke="currentColor" stroke-width="1.2" stroke-linecap="round" stroke-linejoin="round" />
  <path d="M12.42,148.20 C12.42,148.17 12.42,148.14 12.42,148.12" fill="currentColor" stroke="currentColor" stroke-width="1.2" stroke-linecap="round" stroke-linejoin="round" />
  <path d="M13.09,148.16 C12.99,148.19 12.90,148.23 12.82,148.27" fill="currentColor" stroke="currentColor" stroke-width="1.2" stroke-linecap="round" stroke-linejoin="round" />
  <path d="M13.94,148.30 C13.89,148.24 13.82,148.19 13.73,148.16" fill="currentColor" stroke="currentColor" stroke-width="1.2" stroke-linecap="round" stroke-linejoin="round" />
  <path d="M12.43,148.32 C12.42,148.28 12.42,148.25 12.42,148.20" fill="currentColor" stroke="currentColor" stroke-width="1.2" stroke-linecap="round" stroke-linejoin="round" />
  <path d="M12.82,148.27 C12.74,148.32 12.68,148.36 12.63,148.39" fill="currentColor" stroke="currentColor" stroke-width="1.2" stroke-linecap="round" stroke-linejoin="round" />
  <path d="M12.45,148.39 C12.44,148.37 12.43,148.35 12.43,148.32" fill="currentColor" stroke="currentColor" stroke-width="1.2" stroke-linecap="round" stroke-linejoin="round" />
  <path d="M14.07,148.52 C14.04,148.44 14.00,148.36 13.94,148.30" fill="currentColor" stroke="currentColor" stroke-width="1.2" stroke-linecap="round" stroke-linejoin="round" />
  <path d="M12.47,148.43 C12.46,148.42 12.45,148.41 12.45,148.39" fill="currentColor" stroke="currentColor" stroke-width="1.2" stroke-linecap="round" stroke-linejoin="round" />
  <path d="M12.63,148.39 C12.58,148.43 12.54,148.45 12.51,148.45" fill="currentColor" stroke="currentColor" stroke-width="1.2" stroke-linecap="round" stroke-linejoin="round" />
  <path d="M12.51,148.45 C12.50,148.45 12.49,148.44 12.47,148.43" fill="currentColor" stroke="currentColor" stroke-width="1.2" stroke-linecap="round" stroke-linejoin="round" />
  <path d="M14.66,148.27 C14.70,148.40 14.73,148.54 14.73,148.69" fill="currentColor" stroke="currentColor" stroke-width="1.2" stroke-linecap="round" stroke-linejoin="round" />
  <path d="M14.12,148.78 C14.12,148.69 14.10,148.60 14.07,148.52" fill="currentColor" stroke="currentColor" stroke-width="1.2" stroke-linecap="round" stroke-linejoin="round" />
  <path d="M14.73,148.69 C14.73,148.82 14.72,148.95 14.69,149.08" fill="currentColor" stroke="currentColor" stroke-width="1.2" stroke-linecap="round" stroke-linejoin="round" />
  <path d="M14.09,149.07 C14.11,148.96 14.12,148.87 14.12,148.78" fill="currentColor" stroke="currentColor" stroke-width="1.2" stroke-linecap="round" stroke-linejoin="round" />
  <line x1="8.92" y1="149.19" x2="11.42" y2="149.19" fill="currentColor" stroke="currentColor" stroke-width="1.2" stroke-linecap="round" stroke-linejoin="round" />
  <path d="M11.42,149.19 C11.45,149.19 11.48,149.20 11.50,149.21" fill="currentColor" stroke="currentColor" stroke-width="1.2" stroke-linecap="round" stroke-linejoin="round" />
  <path d="M13.97,149.41 C14.03,149.29 14.07,149.17 14.09,149.07" fill="currentColor" stroke="currentColor" stroke-width="1.2" stroke-linecap="round" stroke-linejoin="round" />
  <path d="M11.50,149.21 C11.52,149.23 11.54,149.25 11.56,149.28" fill="currentColor" stroke="currentColor" stroke-width="1.2" stroke-linecap="round" stroke-linejoin="round" />
  <path d="M14.69,149.08 C14.67,149.21 14.62,149.35 14.55,149.50" fill="currentColor" stroke="currentColor" stroke-width="1.2" stroke-linecap="round" stroke-linejoin="round" />
  <path d="M11.56,149.28 C11.57,149.31 11.59,149.35 11.59,149.40" fill="currentColor" stroke="currentColor" stroke-width="1.2" stroke-linecap="round" stroke-linejoin="round" />
  <path d="M11.59,149.40 C11.60,149.45 11.60,149.51 11.60,149.59" fill="currentColor" stroke="currentColor" stroke-width="1.2" stroke-linecap="round" stroke-linejoin="round" />
  <path d="M13.71,149.84 C13.82,149.68 13.91,149.54 13.97,149.41" fill="currentColor" stroke="currentColor" stroke-width="1.2" stroke-linecap="round" stroke-linejoin="round" />
  <path d="M11.60,149.59 C11.60,149.66 11.60,149.72 11.59,149.77" fill="currentColor" stroke="currentColor" stroke-width="1.2" stroke-linecap="round" stroke-linejoin="round" />
  <path d="M14.55,149.50 C14.47,149.65 14.36,149.82 14.22,150.01" fill="currentColor" stroke="currentColor" stroke-width="1.2" stroke-linecap="round" stroke-linejoin="round" />
  <path d="M8.11,149.91 C8.04,149.85 8.00,149.75 8.00,149.61" fill="currentColor" stroke="currentColor" stroke-width="1.2" stroke-linecap="round" stroke-linejoin="round" />
  <path d="M11.59,149.77 C11.59,149.82 11.57,149.86 11.56,149.89" fill="currentColor" stroke="currentColor" stroke-width="1.2" stroke-linecap="round" stroke-linejoin="round" />
  <path d="M11.56,149.89 C11.54,149.92 11.52,149.95 11.50,149.97" fill="currentColor" stroke="currentColor" stroke-width="1.2" stroke-linecap="round" stroke-linejoin="round" />
  <path d="M8.34,149.99 C8.26,149.99 8.18,149.96 8.11,149.91" fill="currentColor" stroke="currentColor" stroke-width="1.2" stroke-linecap="round" stroke-linejoin="round" />
  <path d="M11.50,149.97 C11.48,149.98 11.45,149.99 11.42,149.99" fill="currentColor" stroke="currentColor" stroke-width="1.2" stroke-linecap="round" stroke-linejoin="round" />
  <line x1="11.42" y1="149.99" x2="8.34" y2="149.99" fill="currentColor" stroke="currentColor" stroke-width="1.2" stroke-linecap="round" stroke-linejoin="round" />
  <path d="M13.27,150.36 C13.45,150.17 13.60,149.99 13.71,149.84" fill="currentColor" stroke="currentColor" stroke-width="1.2" stroke-linecap="round" stroke-linejoin="round" />
  <path d="M14.22,150.01 C14.08,150.19 13.89,150.40 13.66,150.65" fill="currentColor" stroke="currentColor" stroke-width="1.2" stroke-linecap="round" stroke-linejoin="round" />
  <line x1="12.47" y1="151.20" x2="13.27" y2="150.36" fill="currentColor" stroke="currentColor" stroke-width="1.2" stroke-linecap="round" stroke-linejoin="round" />
  <line x1="13.66" y1="150.65" x2="13.01" y2="151.33" fill="currentColor" stroke="currentColor" stroke-width="1.2" stroke-linecap="round" stroke-linejoin="round" />
  <path d="M12.41,151.28 C12.43,151.26 12.45,151.23 12.47,151.20" fill="currentColor" stroke="currentColor" stroke-width="1.2" stroke-linecap="round" stroke-linejoin="round" />
  <path d="M12.37,151.36 C12.38,151.33 12.39,151.31 12.41,151.28" fill="currentColor" stroke="currentColor" stroke-width="1.2" stroke-linecap="round" stroke-linejoin="round" />
  <line x1="13.01" y1="151.33" x2="14.79" y2="151.33" fill="currentColor" stroke="currentColor" stroke-width="1.2" stroke-linecap="round" stroke-linejoin="round" />
  <path d="M14.79,151.33 C14.81,151.33 14.82,151.33 14.84,151.34" fill="currentColor" stroke="currentColor" stroke-width="1.2" stroke-linecap="round" stroke-linejoin="round" />
  <path d="M14.84,151.34 C14.86,151.35 14.87,151.36 14.88,151.38" fill="currentColor" stroke="currentColor" stroke-width="1.2" stroke-linecap="round" stroke-linejoin="round" />
  <path d="M12.35,151.44 C12.35,151.41 12.36,151.38 12.37,151.36" fill="currentColor" stroke="currentColor" stroke-width="1.2" stroke-linecap="round" stroke-linejoin="round" />
  <path d="M14.88,151.38 C14.89,151.40 14.90,151.43 14.91,151.45" fill="currentColor" stroke="currentColor" stroke-width="1.2" stroke-linecap="round" stroke-linejoin="round" />
  <path d="M12.35,151.55 C12.35,151.51 12.35,151.47 12.35,151.44" fill="currentColor" stroke="currentColor" stroke-width="1.2" stroke-linecap="round" stroke-linejoin="round" />
  <path d="M14.91,151.45 C14.91,151.48 14.92,151.52 14.92,151.55" fill="currentColor" stroke="currentColor" stroke-width="1.2" stroke-linecap="round" stroke-linejoin="round" />
  <path d="M14.92,151.55 C14.92,151.59 14.91,151.63 14.91,151.66" fill="currentColor" stroke="currentColor" stroke-width="1.2" stroke-linecap="round" stroke-linejoin="round" />
  <path d="M12.36,151.67 C12.35,151.64 12.35,151.60 12.35,151.55" fill="currentColor" stroke="currentColor" stroke-width="1.2" stroke-linecap="round" stroke-linejoin="round" />
  <path d="M14.91,151.66 C14.90,151.68 14.90,151.71 14.89,151.73" fill="currentColor" stroke="currentColor" stroke-width="1.2" stroke-linecap="round" stroke-linejoin="round" />
  <path d="M12.39,151.74 C12.38,151.72 12.36,151.70 12.36,151.67" fill="currentColor" stroke="currentColor" stroke-width="1.2" stroke-linecap="round" stroke-linejoin="round" />
  <path d="M14.89,151.73 C14.88,151.75 14.86,151.76 14.85,151.77" fill="currentColor" stroke="currentColor" stroke-width="1.2" stroke-linecap="round" stroke-linejoin="round" />
  <path d="M12.45,151.78 C12.43,151.77 12.41,151.76 12.39,151.74" fill="currentColor" stroke="currentColor" stroke-width="1.2" stroke-linecap="round" stroke-linejoin="round" />
  <path d="M14.85,151.77 C14.83,151.78 14.81,151.79 14.79,151.79" fill="currentColor" stroke="currentColor" stroke-width="1.2" stroke-linecap="round" stroke-linejoin="round" />
  <path d="M12.53,151.79 C12.50,151.79 12.47,151.78 12.45,151.78" fill="currentColor" stroke="currentColor" stroke-width="1.2" stroke-linecap="round" stroke-linejoin="round" />
  <line x1="14.79" y1="151.79" x2="12.53" y2="151.79" fill="currentColor" stroke="currentColor" stroke-width="1.2" stroke-linecap="round" stroke-linejoin="round" />
  <line x1="16.76" y1="152.04" x2="162.20" y2="152.04" fill="none" stroke="currentColor" stroke-width="1.0" stroke-linecap="round" stroke-linejoin="round" />
  <line x1="16.76" y1="165.47" x2="162.20" y2="165.47" fill="none" stroke="currentColor" stroke-width="1.0" stroke-linecap="round" stroke-linejoin="round" />
</svg>