<svg xmlns="http://www.w3.org/2000/svg" viewBox="0 0 238.26 124.04" preserveAspectRatio="xMidYMid meet" shape-rendering="geometricPrecision" text-rendering="optimizeLegibility">
  <path d="M97.51,23.45 C96.87,24.36 96.17,25.24 95.40,26.09" fill="none" stroke="currentColor" stroke-width="1.0" stroke-linecap="round" stroke-linejoin="round" />
  <path d="M76.56,27.62 C72.19,27.97 68.02,26.86 64.56,24.69" fill="none" stroke="currentColor" stroke-width="1.0" stroke-linecap="round" stroke-linejoin="round" />
  <path d="M82.48,26.20 C80.64,26.96 78.65,27.45 76.56,27.62" fill="none" stroke="currentColor" stroke-width="1.0" stroke-linecap="round" stroke-linejoin="round" />
  <path d="M95.40,26.09 C92.39,29.40 88.74,31.78 84.81,33.22" fill="none" stroke="currentColor" stroke-width="1.0" stroke-linecap="round" stroke-linejoin="round" />
  <line x1="74.03" y1="31.29" x2="72.71" y2="31.29" fill="currentColor" stroke="currentColor" stroke-width="1.2" stroke-linecap="round" stroke-linejoin="round" />
  <line x1="70.35" y1="31.29" x2="69.21" y2="31.29" fill="currentColor" stroke="currentColor" stroke-width="1.2" stroke-linecap="round" stroke-linejoin="round" />
  <line x1="98.55" y1="32.06" x2="97.24" y2="32.06" fill="currentColor" stroke="currentColor" stroke-width="1.2" stroke-linecap="round" stroke-linejoin="round" />
  <line x1="94.88" y1="32.06" x2="93.74" y2="32.06" fill="currentColor" stroke="currentColor" stroke-width="1.2" stroke-linecap="round" stroke-linejoin="round" />
  <line x1="72.71" y1="31.29" x2="71.24" y2="33.18" fill="currentColor" stroke="currentColor" stroke-width="1.2" stroke-linecap="round" stroke-linejoin="round" />
  <line x1="71.24" y1="33.18" x2="70.35" y2="31.29" fill="currentColor" stroke="currentColor" stroke-width="1.2" stroke-linecap="round" stroke-linejoin="round" />
  <line x1="69.21" y1="31.29" x2="70.54" y2="33.93" fill="currentColor" stroke="currentColor" stroke-width="1.2" stroke-linecap="round" stroke-linejoin="round" />
  <line x1="71.76" y1="34.07" x2="74.03" y2="31.29" fill="currentColor" stroke="currentColor" stroke-width="1.2" stroke-linecap="round" stroke-linejoin="round" />
  <line x1="97.24" y1="32.06" x2="95.77" y2="33.96" fill="currentColor" stroke="currentColor" stroke-width="1.2" stroke-linecap="round" stroke-linejoin="round" />
  <line x1="95.77" y1="33.96" x2="94.88" y2="32.06" fill="currentColor" stroke="currentColor" stroke-width="1.2" stroke-linecap="round" stroke-linejoin="round" />
  <line x1="93.74" y1="32.06" x2="95.07" y2="34.71" fill="currentColor" stroke="currentColor" stroke-width="1.2" stroke-linecap="round" stroke-linejoin="round" />
  <line x1="96.28" y1="34.84" x2="98.55" y2="32.06" fill="currentColor" stroke="currentColor" stroke-width="1.2" stroke-linecap="round" stroke-linejoin="round" />
  <line x1="70.54" y1="33.93" x2="68.09" y2="36.91" fill="currentColor" stroke="currentColor" stroke-width="1.2" stroke-linecap="round" stroke-linejoin="round" />
  <line x1="73.19" y1="36.91" x2="71.76" y2="34.07" fill="currentColor" stroke="currentColor" stroke-width="1.2" stroke-linecap="round" stroke-linejoin="round" />
  <line x1="69.39" y1="36.91" x2="71.02" y2="34.81" fill="currentColor" stroke="currentColor" stroke-width="1.2" stroke-linecap="round" stroke-linejoin="round" />
  <line x1="71.02" y1="34.81" x2="72.05" y2="36.91" fill="currentColor" stroke="currentColor" stroke-width="1.2" stroke-linecap="round" stroke-linejoin="round" />
  <line x1="95.07" y1="34.71" x2="92.61" y2="37.69" fill="currentColor" stroke="currentColor" stroke-width="1.2" stroke-linecap="round" stroke-linejoin="round" />
  <line x1="97.71" y1="37.69" x2="96.28" y2="34.84" fill="currentColor" stroke="currentColor" stroke-width="1.2" stroke-linecap="round" stroke-linejoin="round" />
  <line x1="93.92" y1="37.69" x2="95.54" y2="35.58" fill="currentColor" stroke="currentColor" stroke-width="1.2" stroke-linecap="round" stroke-linejoin="round" />
  <line x1="95.54" y1="35.58" x2="96.57" y2="37.69" fill="currentColor" stroke="currentColor" stroke-width="1.2" stroke-linecap="round" stroke-linejoin="round" />
  <line x1="68.09" y1="36.91" x2="69.39" y2="36.91" fill="currentColor" stroke="currentColor" stroke-width="1.2" stroke-linecap="round" stroke-linejoin="round" />
  <line x1="72.05" y1="36.91" x2="73.19" y2="36.91" fill="currentColor" stroke="currentColor" stroke-width="1.2" stroke-linecap="round" stroke-linejoin="round" />
  <line x1="92.61" y1="37.69" x2="93.92" y2="37.69" fill="currentColor" stroke="currentColor" stroke-width="1.2" stroke-linecap="round" stroke-linejoin="round" />
  <line x1="96.57" y1="37.69" x2="97.71" y2="37.69" fill="currentColor" stroke="currentColor" stroke-width="1.2" stroke-linecap="round" stroke-linejoin="round" />
  <line x1="75.22" y1="8.00" x2="8.50" y2="115.62" fill="none" stroke="currentColor" stroke-width="1.3740000247955322" stroke-linecap="round" stroke-linejoin="round" />
  <line x1="75.58" y1="8.84" x2="116.69" y2="115.60" fill="none" stroke="currentColor" stroke-width="1.3740000247955322" stroke-linecap="round" stroke-linejoin="round" />
  <line x1="135.90" y1="94.52" x2="134.83" y2="94.52" fill="currentColor" stroke="currentColor" stroke-width="1.2" stroke-linecap="round" stroke-linejoin="round" />
  <line x1="132.26" y1="94.52" x2="131.21" y2="94.52" fill="currentColor" stroke="currentColor" stroke-width="1.2" stroke-linecap="round" stroke-linejoin="round" />
  <line x1="134.83" y1="94.52" x2="133.02" y2="98.09" fill="currentColor" stroke="currentColor" stroke-width="1.2" stroke-linecap="round" stroke-linejoin="round" />
  <line x1="133.00" y1="98.09" x2="132.26" y2="94.52" fill="currentColor" stroke="currentColor" stroke-width="1.2" stroke-linecap="round" stroke-linejoin="round" />
  <path d="M44.02,97.04 C43.74,97.04 43.49,97.11 43.27,97.24" fill="currentColor" stroke="currentColor" stroke-width="1.2" stroke-linecap="round" stroke-linejoin="round" />
  <path d="M44.77,97.24 C44.55,97.11 44.30,97.04 44.02,97.04" fill="currentColor" stroke="currentColor" stroke-width="1.2" stroke-linecap="round" stroke-linejoin="round" />
  <line x1="131.21" y1="94.52" x2="132.49" y2="100.26" fill="currentColor" stroke="currentColor" stroke-width="1.2" stroke-linecap="round" stroke-linejoin="round" />
  <line x1="133.01" y1="100.26" x2="135.90" y2="94.52" fill="currentColor" stroke="currentColor" stroke-width="1.2" stroke-linecap="round" stroke-linejoin="round" />
  <path d="M43.27,97.24 C43.05,97.37 42.87,97.55 42.74,97.77" fill="currentColor" stroke="currentColor" stroke-width="1.2" stroke-linecap="round" stroke-linejoin="round" />
  <path d="M45.30,97.77 C45.17,97.55 44.99,97.37 44.77,97.24" fill="currentColor" stroke="currentColor" stroke-width="1.2" stroke-linecap="round" stroke-linejoin="round" />
  <path d="M39.05,97.45 C38.71,97.45 38.39,97.51 38.12,97.64" fill="currentColor" stroke="currentColor" stroke-width="1.2" stroke-linecap="round" stroke-linejoin="round" />
  <line x1="35.33" y1="97.55" x2="32.01" y2="97.55" fill="currentColor" stroke="currentColor" stroke-width="1.2" stroke-linecap="round" stroke-linejoin="round" />
  <path d="M40.01,97.65 C39.72,97.52 39.40,97.45 39.05,97.45" fill="currentColor" stroke="currentColor" stroke-width="1.2" stroke-linecap="round" stroke-linejoin="round" />
  <path d="M44.02,97.62 C44.19,97.62 44.34,97.66 44.48,97.74" fill="currentColor" stroke="currentColor" stroke-width="1.2" stroke-linecap="round" stroke-linejoin="round" />
  <path d="M43.56,97.74 C43.70,97.66 43.85,97.62 44.02,97.62" fill="currentColor" stroke="currentColor" stroke-width="1.2" stroke-linecap="round" stroke-linejoin="round" />
  <path d="M38.12,97.64 C37.84,97.76 37.60,97.93 37.40,98.14" fill="currentColor" stroke="currentColor" stroke-width="1.2" stroke-linecap="round" stroke-linejoin="round" />
  <path d="M44.48,97.74 C44.62,97.82 44.73,97.93 44.81,98.06" fill="currentColor" stroke="currentColor" stroke-width="1.2" stroke-linecap="round" stroke-linejoin="round" />
  <path d="M43.24,98.06 C43.32,97.93 43.43,97.82 43.56,97.74" fill="currentColor" stroke="currentColor" stroke-width="1.2" stroke-linecap="round" stroke-linejoin="round" />
  <path d="M40.76,98.22 C40.55,97.98 40.30,97.79 40.01,97.65" fill="currentColor" stroke="currentColor" stroke-width="1.2" stroke-linecap="round" stroke-linejoin="round" />
  <line x1="35.33" y1="98.51" x2="35.33" y2="97.55" fill="currentColor" stroke="currentColor" stroke-width="1.2" stroke-linecap="round" stroke-linejoin="round" />
  <line x1="133.02" y1="98.09" x2="133.00" y2="98.09" fill="currentColor" stroke="currentColor" stroke-width="1.2" stroke-linecap="round" stroke-linejoin="round" />
  <path d="M42.74,97.77 C42.61,97.99 42.54,98.24 42.54,98.52" fill="currentColor" stroke="currentColor" stroke-width="1.2" stroke-linecap="round" stroke-linejoin="round" />
  <path d="M45.50,98.52 C45.50,98.24 45.43,97.99 45.30,97.77" fill="currentColor" stroke="currentColor" stroke-width="1.2" stroke-linecap="round" stroke-linejoin="round" />
  <path d="M44.81,98.06 C44.89,98.20 44.93,98.35 44.93,98.52" fill="currentColor" stroke="currentColor" stroke-width="1.2" stroke-linecap="round" stroke-linejoin="round" />
  <path d="M43.12,98.52 C43.12,98.35 43.16,98.20 43.24,98.06" fill="currentColor" stroke="currentColor" stroke-width="1.2" stroke-linecap="round" stroke-linejoin="round" />
  <path d="M37.40,98.14 C37.20,98.35 37.04,98.59 36.94,98.85" fill="currentColor" stroke="currentColor" stroke-width="1.2" stroke-linecap="round" stroke-linejoin="round" />
  <line x1="32.98" y1="98.51" x2="35.33" y2="98.51" fill="currentColor" stroke="currentColor" stroke-width="1.2" stroke-linecap="round" stroke-linejoin="round" />
  <path d="M38.44,98.62 C38.62,98.52 38.84,98.47 39.08,98.46" fill="currentColor" stroke="currentColor" stroke-width="1.2" stroke-linecap="round" stroke-linejoin="round" />
  <path d="M39.08,98.46 C39.31,98.47 39.52,98.53 39.71,98.65" fill="currentColor" stroke="currentColor" stroke-width="1.2" stroke-linecap="round" stroke-linejoin="round" />
  <path d="M41.25,99.09 C41.14,98.76 40.97,98.47 40.76,98.22" fill="currentColor" stroke="currentColor" stroke-width="1.2" stroke-linecap="round" stroke-linejoin="round" />
  <path d="M44.93,98.52 C44.93,98.69 44.89,98.84 44.81,98.98" fill="currentColor" stroke="currentColor" stroke-width="1.2" stroke-linecap="round" stroke-linejoin="round" />
  <path d="M43.24,98.98 C43.16,98.84 43.12,98.69 43.12,98.52" fill="currentColor" stroke="currentColor" stroke-width="1.2" stroke-linecap="round" stroke-linejoin="round" />
  <path d="M109.55,98.03 C116.32,95.37 124.33,96.77 129.80,102.25" fill="none" stroke="currentColor" stroke-width="1.0" stroke-linecap="round" stroke-linejoin="round" />
  <path d="M38.01,99.03 C38.11,98.86 38.26,98.72 38.44,98.62" fill="currentColor" stroke="currentColor" stroke-width="1.2" stroke-linecap="round" stroke-linejoin="round" />
  <path d="M42.54,98.52 C42.54,98.80 42.61,99.05 42.74,99.27" fill="currentColor" stroke="currentColor" stroke-width="1.2" stroke-linecap="round" stroke-linejoin="round" />
  <path d="M45.30,99.27 C45.43,99.05 45.50,98.80 45.50,98.52" fill="currentColor" stroke="currentColor" stroke-width="1.2" stroke-linecap="round" stroke-linejoin="round" />
  <path d="M39.71,98.65 C39.89,98.78 40.04,98.94 40.15,99.14" fill="currentColor" stroke="currentColor" stroke-width="1.2" stroke-linecap="round" stroke-linejoin="round" />
  <path d="M44.81,98.98 C44.73,99.12 44.62,99.22 44.48,99.31" fill="currentColor" stroke="currentColor" stroke-width="1.2" stroke-linecap="round" stroke-linejoin="round" />
  <path d="M43.56,99.31 C43.43,99.22 43.32,99.12 43.24,98.98" fill="currentColor" stroke="currentColor" stroke-width="1.2" stroke-linecap="round" stroke-linejoin="round" />
  <path d="M36.94,98.85 C36.83,99.11 36.78,99.38 36.78,99.66" fill="currentColor" stroke="currentColor" stroke-width="1.2" stroke-linecap="round" stroke-linejoin="round" />
  <path d="M37.85,99.65 C37.85,99.42 37.90,99.21 38.01,99.03" fill="currentColor" stroke="currentColor" stroke-width="1.2" stroke-linecap="round" stroke-linejoin="round" />
  <path d="M44.48,99.31 C44.34,99.38 44.19,99.43 44.02,99.43" fill="currentColor" stroke="currentColor" stroke-width="1.2" stroke-linecap="round" stroke-linejoin="round" />
  <path d="M44.02,99.43 C43.85,99.43 43.70,99.38 43.56,99.31" fill="currentColor" stroke="currentColor" stroke-width="1.2" stroke-linecap="round" stroke-linejoin="round" />
  <line x1="32.98" y1="100.38" x2="32.98" y2="98.51" fill="currentColor" stroke="currentColor" stroke-width="1.2" stroke-linecap="round" stroke-linejoin="round" />
  <path d="M40.15,99.14 C40.27,99.34 40.32,99.57 40.32,99.81" fill="currentColor" stroke="currentColor" stroke-width="1.2" stroke-linecap="round" stroke-linejoin="round" />
  <line x1="32.01" y1="97.55" x2="32.01" y2="101.44" fill="currentColor" stroke="currentColor" stroke-width="1.2" stroke-linecap="round" stroke-linejoin="round" />
  <path d="M42.74,99.27 C42.87,99.49 43.05,99.67 43.27,99.80" fill="currentColor" stroke="currentColor" stroke-width="1.2" stroke-linecap="round" stroke-linejoin="round" />
  <path d="M44.77,99.80 C44.99,99.67 45.17,99.49 45.30,99.27" fill="currentColor" stroke="currentColor" stroke-width="1.2" stroke-linecap="round" stroke-linejoin="round" />
  <path d="M41.43,100.17 C41.43,99.78 41.37,99.42 41.25,99.09" fill="currentColor" stroke="currentColor" stroke-width="1.2" stroke-linecap="round" stroke-linejoin="round" />
  <path d="M43.27,99.80 C43.49,99.93 43.74,100.00 44.02,100.00" fill="currentColor" stroke="currentColor" stroke-width="1.2" stroke-linecap="round" stroke-linejoin="round" />
  <path d="M44.02,100.00 C44.30,100.00 44.55,99.93 44.77,99.80" fill="currentColor" stroke="currentColor" stroke-width="1.2" stroke-linecap="round" stroke-linejoin="round" />
  <path d="M38.02,100.24 C37.91,100.06 37.85,99.87 37.85,99.65" fill="currentColor" stroke="currentColor" stroke-width="1.2" stroke-linecap="round" stroke-linejoin="round" />
  <path d="M40.32,99.81 C40.32,99.90 40.32,99.99 40.32,100.09" fill="currentColor" stroke="currentColor" stroke-width="1.2" stroke-linecap="round" stroke-linejoin="round" />
  <path d="M36.78,99.66 C36.78,100.07 36.88,100.44 37.06,100.77" fill="currentColor" stroke="currentColor" stroke-width="1.2" stroke-linecap="round" stroke-linejoin="round" />
  <path d="M40.32,100.09 C40.31,100.18 40.30,100.29 40.27,100.42" fill="currentColor" stroke="currentColor" stroke-width="1.2" stroke-linecap="round" stroke-linejoin="round" />
  <line x1="132.49" y1="100.26" x2="133.01" y2="100.26" fill="currentColor" stroke="currentColor" stroke-width="1.2" stroke-linecap="round" stroke-linejoin="round" />
  <path d="M34.12,100.51 C33.78,100.40 33.40,100.36 32.98,100.38" fill="currentColor" stroke="currentColor" stroke-width="1.2" stroke-linecap="round" stroke-linejoin="round" />
  <path d="M38.48,100.66 C38.29,100.56 38.14,100.42 38.02,100.24" fill="currentColor" stroke="currentColor" stroke-width="1.2" stroke-linecap="round" stroke-linejoin="round" />
  <path d="M40.27,100.42 C40.06,100.56 39.86,100.66 39.66,100.72" fill="currentColor" stroke="currentColor" stroke-width="1.2" stroke-linecap="round" stroke-linejoin="round" />
  <path d="M39.12,100.82 C38.88,100.82 38.67,100.77 38.48,100.66" fill="currentColor" stroke="currentColor" stroke-width="1.2" stroke-linecap="round" stroke-linejoin="round" />
  <path d="M34.97,101.00 C34.74,100.79 34.45,100.62 34.12,100.51" fill="currentColor" stroke="currentColor" stroke-width="1.2" stroke-linecap="round" stroke-linejoin="round" />
  <path d="M39.66,100.72 C39.46,100.79 39.28,100.82 39.12,100.82" fill="currentColor" stroke="currentColor" stroke-width="1.2" stroke-linecap="round" stroke-linejoin="round" />
  <path d="M41.21,101.56 C41.36,101.09 41.43,100.63 41.43,100.17" fill="currentColor" stroke="currentColor" stroke-width="1.2" stroke-linecap="round" stroke-linejoin="round" />
  <path d="M37.06,100.77 C37.25,101.09 37.50,101.35 37.82,101.54" fill="currentColor" stroke="currentColor" stroke-width="1.2" stroke-linecap="round" stroke-linejoin="round" />
  <path d="M32.01,101.44 C32.42,101.34 32.78,101.31 33.11,101.34" fill="currentColor" stroke="currentColor" stroke-width="1.2" stroke-linecap="round" stroke-linejoin="round" />
  <path d="M35.51,101.77 C35.39,101.47 35.21,101.22 34.97,101.00" fill="currentColor" stroke="currentColor" stroke-width="1.2" stroke-linecap="round" stroke-linejoin="round" />
  <path d="M33.11,101.34 C33.43,101.37 33.71,101.46 33.93,101.59" fill="currentColor" stroke="currentColor" stroke-width="1.2" stroke-linecap="round" stroke-linejoin="round" />
  <path d="M39.49,101.75 C39.70,101.70 39.88,101.62 40.05,101.52" fill="currentColor" stroke="currentColor" stroke-width="1.2" stroke-linecap="round" stroke-linejoin="round" />
  <path d="M37.82,101.54 C38.13,101.74 38.49,101.83 38.89,101.84" fill="currentColor" stroke="currentColor" stroke-width="1.2" stroke-linecap="round" stroke-linejoin="round" />
  <path d="M38.89,101.84 C39.09,101.84 39.29,101.81 39.49,101.75" fill="currentColor" stroke="currentColor" stroke-width="1.2" stroke-linecap="round" stroke-linejoin="round" />
  <path d="M33.93,101.59 C34.16,101.72 34.33,101.89 34.45,102.09" fill="currentColor" stroke="currentColor" stroke-width="1.2" stroke-linecap="round" stroke-linejoin="round" />
  <path d="M40.05,101.52 C39.98,101.84 39.85,102.16 39.65,102.49" fill="currentColor" stroke="currentColor" stroke-width="1.2" stroke-linecap="round" stroke-linejoin="round" />
  <path d="M40.59,102.92 C40.86,102.48 41.06,102.03 41.21,101.56" fill="currentColor" stroke="currentColor" stroke-width="1.2" stroke-linecap="round" stroke-linejoin="round" />
  <path d="M35.70,102.73 C35.70,102.38 35.64,102.06 35.51,101.77" fill="currentColor" stroke="currentColor" stroke-width="1.2" stroke-linecap="round" stroke-linejoin="round" />
  <path d="M34.45,102.09 C34.57,102.29 34.62,102.51 34.63,102.75" fill="currentColor" stroke="currentColor" stroke-width="1.2" stroke-linecap="round" stroke-linejoin="round" />
  <path d="M39.65,102.49 C39.45,102.81 39.19,103.13 38.88,103.44" fill="currentColor" stroke="currentColor" stroke-width="1.2" stroke-linecap="round" stroke-linejoin="round" />
  <path d="M34.63,102.75 C34.62,103.00 34.55,103.22 34.41,103.43" fill="currentColor" stroke="currentColor" stroke-width="1.2" stroke-linecap="round" stroke-linejoin="round" />
  <path d="M35.38,103.96 C35.59,103.60 35.70,103.19 35.70,102.73" fill="currentColor" stroke="currentColor" stroke-width="1.2" stroke-linecap="round" stroke-linejoin="round" />
  <path d="M39.64,104.15 C40.00,103.77 40.32,103.36 40.59,102.92" fill="currentColor" stroke="currentColor" stroke-width="1.2" stroke-linecap="round" stroke-linejoin="round" />
  <path d="M34.41,103.43 C34.27,103.63 34.09,103.79 33.86,103.91" fill="currentColor" stroke="currentColor" stroke-width="1.2" stroke-linecap="round" stroke-linejoin="round" />
  <path d="M32.26,103.96 C31.98,103.87 31.71,103.73 31.45,103.55" fill="currentColor" stroke="currentColor" stroke-width="1.2" stroke-linecap="round" stroke-linejoin="round" />
  <path d="M38.88,103.44 C38.56,103.76 38.19,104.05 37.77,104.33" fill="currentColor" stroke="currentColor" stroke-width="1.2" stroke-linecap="round" stroke-linejoin="round" />
  <path d="M33.86,103.91 C33.62,104.03 33.36,104.10 33.08,104.10" fill="currentColor" stroke="currentColor" stroke-width="1.2" stroke-linecap="round" stroke-linejoin="round" />
  <path d="M33.08,104.10 C32.81,104.10 32.53,104.05 32.26,103.96" fill="currentColor" stroke="currentColor" stroke-width="1.2" stroke-linecap="round" stroke-linejoin="round" />
  <line x1="31.45" y1="103.55" x2="31.45" y2="104.66" fill="currentColor" stroke="currentColor" stroke-width="1.2" stroke-linecap="round" stroke-linejoin="round" />
  <path d="M34.52,104.81 C34.88,104.60 35.17,104.32 35.38,103.96" fill="currentColor" stroke="currentColor" stroke-width="1.2" stroke-linecap="round" stroke-linejoin="round" />
  <path d="M38.43,105.12 C38.87,104.85 39.27,104.52 39.64,104.15" fill="currentColor" stroke="currentColor" stroke-width="1.2" stroke-linecap="round" stroke-linejoin="round" />
  <line x1="37.77" y1="104.33" x2="38.43" y2="105.12" fill="currentColor" stroke="currentColor" stroke-width="1.2" stroke-linecap="round" stroke-linejoin="round" />
  <path d="M31.45,104.66 C31.66,104.77 31.86,104.86 32.06,104.92" fill="currentColor" stroke="currentColor" stroke-width="1.2" stroke-linecap="round" stroke-linejoin="round" />
  <path d="M33.25,105.12 C33.73,105.11 34.15,105.01 34.52,104.81" fill="currentColor" stroke="currentColor" stroke-width="1.2" stroke-linecap="round" stroke-linejoin="round" />
  <path d="M32.06,104.92 C32.25,104.99 32.45,105.04 32.64,105.07" fill="currentColor" stroke="currentColor" stroke-width="1.2" stroke-linecap="round" stroke-linejoin="round" />
  <path d="M32.64,105.07 C32.84,105.10 33.04,105.12 33.25,105.12" fill="currentColor" stroke="currentColor" stroke-width="1.2" stroke-linecap="round" stroke-linejoin="round" />
  <path d="M20.21,96.36 C26.92,100.45 31.24,107.87 31.17,116.04" fill="none" stroke="currentColor" stroke-width="1.0" stroke-linecap="round" stroke-linejoin="round" />
  <path d="M129.80,102.25 C133.41,105.86 135.25,110.58 135.32,115.31" fill="none" stroke="currentColor" stroke-width="1.0" stroke-linecap="round" stroke-linejoin="round" />
  <line x1="8.00" y1="115.80" x2="230.26" y2="115.80" fill="none" stroke="currentColor" stroke-width="1.3740000247955322" stroke-linecap="round" stroke-linejoin="round" />
</svg>