<svg xmlns="http://www.w3.org/2000/svg" viewBox="0 0 175.01 156.71" preserveAspectRatio="xMidYMid meet" shape-rendering="geometricPrecision" text-rendering="optimizeLegibility">
  <path d="M88.94,8.06 C88.68,8.02 88.42,8.00 88.16,8.00" fill="currentColor" stroke="currentColor" stroke-width="1.2" stroke-linecap="round" stroke-linejoin="round" />
  <path d="M88.16,8.00 C87.56,8.00 87.01,8.10 86.51,8.30" fill="currentColor" stroke="currentColor" stroke-width="1.2" stroke-linecap="round" stroke-linejoin="round" />
  <path d="M89.79,8.27 C89.49,8.17 89.21,8.11 88.94,8.06" fill="currentColor" stroke="currentColor" stroke-width="1.2" stroke-linecap="round" stroke-linejoin="round" />
  <path d="M90.74,8.62 C90.40,8.47 90.08,8.36 89.79,8.27" fill="currentColor" stroke="currentColor" stroke-width="1.2" stroke-linecap="round" stroke-linejoin="round" />
  <path d="M86.51,8.30 C86.01,8.49 85.58,8.77 85.21,9.12" fill="currentColor" stroke="currentColor" stroke-width="1.2" stroke-linecap="round" stroke-linejoin="round" />
  <line x1="90.74" y1="9.77" x2="90.74" y2="8.62" fill="currentColor" stroke="currentColor" stroke-width="1.2" stroke-linecap="round" stroke-linejoin="round" />
  <path d="M88.15,8.99 C88.58,8.99 89.01,9.05 89.42,9.18" fill="currentColor" stroke="currentColor" stroke-width="1.2" stroke-linecap="round" stroke-linejoin="round" />
  <path d="M86.96,9.21 C87.32,9.06 87.72,8.99 88.15,8.99" fill="currentColor" stroke="currentColor" stroke-width="1.2" stroke-linecap="round" stroke-linejoin="round" />
  <path d="M85.21,9.12 C84.84,9.48 84.56,9.89 84.36,10.38" fill="currentColor" stroke="currentColor" stroke-width="1.2" stroke-linecap="round" stroke-linejoin="round" />
  <path d="M89.42,9.18 C89.84,9.30 90.28,9.50 90.74,9.77" fill="currentColor" stroke="currentColor" stroke-width="1.2" stroke-linecap="round" stroke-linejoin="round" />
  <path d="M86.01,9.81 C86.28,9.55 86.60,9.35 86.96,9.21" fill="currentColor" stroke="currentColor" stroke-width="1.2" stroke-linecap="round" stroke-linejoin="round" />
  <path d="M85.39,10.72 C85.53,10.37 85.74,10.06 86.01,9.81" fill="currentColor" stroke="currentColor" stroke-width="1.2" stroke-linecap="round" stroke-linejoin="round" />
  <path d="M84.36,10.38 C84.15,10.86 84.05,11.39 84.05,11.96" fill="currentColor" stroke="currentColor" stroke-width="1.2" stroke-linecap="round" stroke-linejoin="round" />
  <path d="M85.16,11.86 C85.16,11.45 85.24,11.06 85.39,10.72" fill="currentColor" stroke="currentColor" stroke-width="1.2" stroke-linecap="round" stroke-linejoin="round" />
  <path d="M85.55,13.35 C85.29,12.92 85.16,12.42 85.16,11.86" fill="currentColor" stroke="currentColor" stroke-width="1.2" stroke-linecap="round" stroke-linejoin="round" />
  <path d="M84.05,11.96 C84.05,12.28 84.10,12.61 84.20,12.95" fill="currentColor" stroke="currentColor" stroke-width="1.2" stroke-linecap="round" stroke-linejoin="round" />
  <path d="M84.20,12.95 C84.30,13.29 84.45,13.63 84.66,13.95" fill="currentColor" stroke="currentColor" stroke-width="1.2" stroke-linecap="round" stroke-linejoin="round" />
  <path d="M86.61,14.34 C86.15,14.11 85.80,13.77 85.55,13.35" fill="currentColor" stroke="currentColor" stroke-width="1.2" stroke-linecap="round" stroke-linejoin="round" />
  <line x1="90.81" y1="15.04" x2="90.81" y2="13.86" fill="currentColor" stroke="currentColor" stroke-width="1.2" stroke-linecap="round" stroke-linejoin="round" />
  <path d="M90.81,13.86 C90.39,14.14 89.95,14.35 89.50,14.49" fill="currentColor" stroke="currentColor" stroke-width="1.2" stroke-linecap="round" stroke-linejoin="round" />
  <path d="M84.66,13.95 C84.87,14.28 85.13,14.57 85.45,14.83" fill="currentColor" stroke="currentColor" stroke-width="1.2" stroke-linecap="round" stroke-linejoin="round" />
  <path d="M88.20,14.71 C87.59,14.70 87.06,14.58 86.61,14.34" fill="currentColor" stroke="currentColor" stroke-width="1.2" stroke-linecap="round" stroke-linejoin="round" />
  <path d="M89.50,14.49 C89.06,14.64 88.62,14.71 88.20,14.71" fill="currentColor" stroke="currentColor" stroke-width="1.2" stroke-linecap="round" stroke-linejoin="round" />
  <path d="M85.45,14.83 C85.78,15.10 86.16,15.30 86.59,15.46" fill="currentColor" stroke="currentColor" stroke-width="1.2" stroke-linecap="round" stroke-linejoin="round" />
  <path d="M90.04,15.38 C90.31,15.28 90.57,15.17 90.81,15.04" fill="currentColor" stroke="currentColor" stroke-width="1.2" stroke-linecap="round" stroke-linejoin="round" />
  <path d="M89.16,15.61 C89.48,15.56 89.77,15.48 90.04,15.38" fill="currentColor" stroke="currentColor" stroke-width="1.2" stroke-linecap="round" stroke-linejoin="round" />
  <path d="M86.59,15.46 C87.03,15.61 87.53,15.70 88.10,15.70" fill="currentColor" stroke="currentColor" stroke-width="1.2" stroke-linecap="round" stroke-linejoin="round" />
  <path d="M88.10,15.70 C88.49,15.70 88.84,15.67 89.16,15.61" fill="currentColor" stroke="currentColor" stroke-width="1.2" stroke-linecap="round" stroke-linejoin="round" />
  <line x1="156.78" y1="143.53" x2="87.52" y2="19.56" fill="none" stroke="currentColor" stroke-width="1.2" stroke-linecap="round" stroke-linejoin="round" />
  <line x1="87.52" y1="19.56" x2="18.32" y2="143.57" fill="none" stroke="currentColor" stroke-width="1.2" stroke-linecap="round" stroke-linejoin="round" />
  <line x1="87.51" y1="20.47" x2="104.88" y2="143.53" fill="none" stroke="currentColor" stroke-width="1.2" stroke-linecap="round" stroke-linejoin="round" />
  <polygon points="120.06,77.74 123.47,83.91 117.30,87.33 113.89,81.16" fill="none" stroke="currentColor" stroke-width="1.0" stroke-linecap="round" stroke-linejoin="round" />
  <line x1="104.88" y1="82.39" x2="103.73" y2="82.39" fill="currentColor" stroke="currentColor" stroke-width="1.2" stroke-linecap="round" stroke-linejoin="round" />
  <line x1="103.73" y1="82.39" x2="102.44" y2="84.05" fill="currentColor" stroke="currentColor" stroke-width="1.2" stroke-linecap="round" stroke-linejoin="round" />
  <line x1="102.44" y1="84.05" x2="101.66" y2="82.39" fill="currentColor" stroke="currentColor" stroke-width="1.2" stroke-linecap="round" stroke-linejoin="round" />
  <line x1="101.66" y1="82.39" x2="100.66" y2="82.39" fill="currentColor" stroke="currentColor" stroke-width="1.2" stroke-linecap="round" stroke-linejoin="round" />
  <line x1="100.66" y1="82.39" x2="101.83" y2="84.71" fill="currentColor" stroke="currentColor" stroke-width="1.2" stroke-linecap="round" stroke-linejoin="round" />
  <line x1="102.89" y1="84.83" x2="104.88" y2="82.39" fill="currentColor" stroke="currentColor" stroke-width="1.2" stroke-linecap="round" stroke-linejoin="round" />
  <line x1="18.70" y1="143.53" x2="123.47" y2="83.91" fill="none" stroke="currentColor" stroke-width="1.2" stroke-linecap="round" stroke-linejoin="round" />
  <line x1="101.83" y1="84.71" x2="99.67" y2="87.33" fill="currentColor" stroke="currentColor" stroke-width="1.2" stroke-linecap="round" stroke-linejoin="round" />
  <line x1="104.15" y1="87.33" x2="102.89" y2="84.83" fill="currentColor" stroke="currentColor" stroke-width="1.2" stroke-linecap="round" stroke-linejoin="round" />
  <line x1="100.81" y1="87.33" x2="102.24" y2="85.48" fill="currentColor" stroke="currentColor" stroke-width="1.2" stroke-linecap="round" stroke-linejoin="round" />
  <line x1="102.24" y1="85.48" x2="103.14" y2="87.33" fill="currentColor" stroke="currentColor" stroke-width="1.2" stroke-linecap="round" stroke-linejoin="round" />
  <line x1="99.67" y1="87.33" x2="100.81" y2="87.33" fill="currentColor" stroke="currentColor" stroke-width="1.2" stroke-linecap="round" stroke-linejoin="round" />
  <line x1="103.14" y1="87.33" x2="104.15" y2="87.33" fill="currentColor" stroke="currentColor" stroke-width="1.2" stroke-linecap="round" stroke-linejoin="round" />
  <path d="M97.01,88.46 C99.89,88.16 102.96,89.16 105.20,91.43" fill="none" stroke="currentColor" stroke-width="1.0" stroke-linecap="round" stroke-linejoin="round" />
  <path d="M105.20,91.43 C105.79,92.06 106.28,92.75 106.67,93.47" fill="none" stroke="currentColor" stroke-width="1.0" stroke-linecap="round" stroke-linejoin="round" />
  <path d="M127.92,128.47 C127.64,128.48 127.39,128.54 127.17,128.68" fill="currentColor" stroke="currentColor" stroke-width="1.2" stroke-linecap="round" stroke-linejoin="round" />
  <path d="M128.67,128.68 C128.45,128.54 128.20,128.48 127.92,128.47" fill="currentColor" stroke="currentColor" stroke-width="1.2" stroke-linecap="round" stroke-linejoin="round" />
  <path d="M127.17,128.68 C126.95,128.81 126.77,128.98 126.64,129.21" fill="currentColor" stroke="currentColor" stroke-width="1.2" stroke-linecap="round" stroke-linejoin="round" />
  <path d="M129.20,129.21 C129.07,128.98 128.90,128.81 128.67,128.68" fill="currentColor" stroke="currentColor" stroke-width="1.2" stroke-linecap="round" stroke-linejoin="round" />
  <line x1="112.86" y1="136.48" x2="112.86" y2="128.88" fill="currentColor" stroke="currentColor" stroke-width="1.2" stroke-linecap="round" stroke-linejoin="round" />
  <line x1="112.86" y1="128.88" x2="112.46" y2="128.88" fill="currentColor" stroke="currentColor" stroke-width="1.2" stroke-linecap="round" stroke-linejoin="round" />
  <line x1="112.46" y1="128.88" x2="109.89" y2="130.97" fill="currentColor" stroke="currentColor" stroke-width="1.2" stroke-linecap="round" stroke-linejoin="round" />
  <path d="M118.49,129.16 C118.20,128.98 117.87,128.89 117.50,128.88" fill="currentColor" stroke="currentColor" stroke-width="1.2" stroke-linecap="round" stroke-linejoin="round" />
  <path d="M117.50,128.88 C117.14,128.89 116.81,128.98 116.51,129.16" fill="currentColor" stroke="currentColor" stroke-width="1.2" stroke-linecap="round" stroke-linejoin="round" />
  <path d="M123.99,129.16 C123.70,128.98 123.37,128.89 123.00,128.88" fill="currentColor" stroke="currentColor" stroke-width="1.2" stroke-linecap="round" stroke-linejoin="round" />
  <path d="M123.00,128.88 C122.64,128.89 122.31,128.98 122.01,129.16" fill="currentColor" stroke="currentColor" stroke-width="1.2" stroke-linecap="round" stroke-linejoin="round" />
  <path d="M127.92,129.06 C128.09,129.06 128.24,129.10 128.38,129.18" fill="currentColor" stroke="currentColor" stroke-width="1.2" stroke-linecap="round" stroke-linejoin="round" />
  <path d="M127.46,129.18 C127.60,129.10 127.75,129.06 127.92,129.06" fill="currentColor" stroke="currentColor" stroke-width="1.2" stroke-linecap="round" stroke-linejoin="round" />
  <path d="M119.26,129.94 C119.04,129.60 118.79,129.34 118.49,129.16" fill="currentColor" stroke="currentColor" stroke-width="1.2" stroke-linecap="round" stroke-linejoin="round" />
  <path d="M116.51,129.16 C116.22,129.34 115.96,129.60 115.75,129.94" fill="currentColor" stroke="currentColor" stroke-width="1.2" stroke-linecap="round" stroke-linejoin="round" />
  <path d="M124.76,129.94 C124.54,129.60 124.29,129.34 123.99,129.16" fill="currentColor" stroke="currentColor" stroke-width="1.2" stroke-linecap="round" stroke-linejoin="round" />
  <path d="M122.01,129.16 C121.72,129.34 121.46,129.60 121.25,129.94" fill="currentColor" stroke="currentColor" stroke-width="1.2" stroke-linecap="round" stroke-linejoin="round" />
  <path d="M128.38,129.18 C128.52,129.26 128.63,129.37 128.71,129.50" fill="currentColor" stroke="currentColor" stroke-width="1.2" stroke-linecap="round" stroke-linejoin="round" />
  <path d="M127.14,129.50 C127.22,129.37 127.33,129.26 127.46,129.18" fill="currentColor" stroke="currentColor" stroke-width="1.2" stroke-linecap="round" stroke-linejoin="round" />
  <path d="M126.64,129.21 C126.51,129.43 126.44,129.68 126.44,129.96" fill="currentColor" stroke="currentColor" stroke-width="1.2" stroke-linecap="round" stroke-linejoin="round" />
  <path d="M129.41,129.96 C129.40,129.68 129.34,129.43 129.20,129.21" fill="currentColor" stroke="currentColor" stroke-width="1.2" stroke-linecap="round" stroke-linejoin="round" />
  <path d="M128.71,129.50 C128.79,129.64 128.83,129.79 128.83,129.96" fill="currentColor" stroke="currentColor" stroke-width="1.2" stroke-linecap="round" stroke-linejoin="round" />
  <path d="M127.02,129.96 C127.02,129.79 127.06,129.64 127.14,129.50" fill="currentColor" stroke="currentColor" stroke-width="1.2" stroke-linecap="round" stroke-linejoin="round" />
  <path d="M116.78,130.25 C116.98,130.02 117.22,129.91 117.50,129.91" fill="currentColor" stroke="currentColor" stroke-width="1.2" stroke-linecap="round" stroke-linejoin="round" />
  <path d="M117.50,129.91 C117.78,129.91 118.02,130.02 118.22,130.25" fill="currentColor" stroke="currentColor" stroke-width="1.2" stroke-linecap="round" stroke-linejoin="round" />
  <path d="M122.28,130.25 C122.48,130.02 122.72,129.91 123.00,129.91" fill="currentColor" stroke="currentColor" stroke-width="1.2" stroke-linecap="round" stroke-linejoin="round" />
  <path d="M123.00,129.91 C123.28,129.91 123.52,130.02 123.72,130.25" fill="currentColor" stroke="currentColor" stroke-width="1.2" stroke-linecap="round" stroke-linejoin="round" />
  <path d="M119.75,131.16 C119.63,130.69 119.47,130.28 119.26,129.94" fill="currentColor" stroke="currentColor" stroke-width="1.2" stroke-linecap="round" stroke-linejoin="round" />
  <path d="M115.75,129.94 C115.54,130.28 115.37,130.69 115.26,131.16" fill="currentColor" stroke="currentColor" stroke-width="1.2" stroke-linecap="round" stroke-linejoin="round" />
  <path d="M125.25,131.16 C125.13,130.69 124.97,130.28 124.76,129.94" fill="currentColor" stroke="currentColor" stroke-width="1.2" stroke-linecap="round" stroke-linejoin="round" />
  <path d="M121.25,129.94 C121.04,130.28 120.87,130.69 120.76,131.16" fill="currentColor" stroke="currentColor" stroke-width="1.2" stroke-linecap="round" stroke-linejoin="round" />
  <path d="M128.83,129.96 C128.83,130.13 128.79,130.28 128.71,130.42" fill="currentColor" stroke="currentColor" stroke-width="1.2" stroke-linecap="round" stroke-linejoin="round" />
  <path d="M127.14,130.42 C127.06,130.28 127.02,130.13 127.02,129.96" fill="currentColor" stroke="currentColor" stroke-width="1.2" stroke-linecap="round" stroke-linejoin="round" />
  <path d="M126.44,129.96 C126.44,130.24 126.51,130.49 126.64,130.71" fill="currentColor" stroke="currentColor" stroke-width="1.2" stroke-linecap="round" stroke-linejoin="round" />
  <path d="M129.20,130.71 C129.34,130.49 129.40,130.24 129.41,129.96" fill="currentColor" stroke="currentColor" stroke-width="1.2" stroke-linecap="round" stroke-linejoin="round" />
  <path d="M116.32,131.22 C116.43,130.80 116.58,130.47 116.78,130.25" fill="currentColor" stroke="currentColor" stroke-width="1.2" stroke-linecap="round" stroke-linejoin="round" />
  <path d="M118.22,130.25 C118.42,130.47 118.58,130.80 118.68,131.22" fill="currentColor" stroke="currentColor" stroke-width="1.2" stroke-linecap="round" stroke-linejoin="round" />
  <path d="M121.82,131.22 C121.93,130.80 122.08,130.47 122.28,130.25" fill="currentColor" stroke="currentColor" stroke-width="1.2" stroke-linecap="round" stroke-linejoin="round" />
  <path d="M123.72,130.25 C123.92,130.47 124.08,130.80 124.18,131.22" fill="currentColor" stroke="currentColor" stroke-width="1.2" stroke-linecap="round" stroke-linejoin="round" />
  <path d="M128.71,130.42 C128.63,130.56 128.52,130.67 128.38,130.75" fill="currentColor" stroke="currentColor" stroke-width="1.2" stroke-linecap="round" stroke-linejoin="round" />
  <path d="M127.46,130.75 C127.33,130.67 127.22,130.56 127.14,130.42" fill="currentColor" stroke="currentColor" stroke-width="1.2" stroke-linecap="round" stroke-linejoin="round" />
  <path d="M126.64,130.71 C126.77,130.93 126.95,131.11 127.17,131.24" fill="currentColor" stroke="currentColor" stroke-width="1.2" stroke-linecap="round" stroke-linejoin="round" />
  <path d="M128.67,131.24 C128.90,131.11 129.07,130.93 129.20,130.71" fill="currentColor" stroke="currentColor" stroke-width="1.2" stroke-linecap="round" stroke-linejoin="round" />
  <line x1="110.31" y1="131.91" x2="111.74" y2="130.73" fill="currentColor" stroke="currentColor" stroke-width="1.2" stroke-linecap="round" stroke-linejoin="round" />
  <line x1="111.74" y1="130.73" x2="111.74" y2="136.48" fill="currentColor" stroke="currentColor" stroke-width="1.2" stroke-linecap="round" stroke-linejoin="round" />
  <path d="M128.38,130.75 C128.24,130.83 128.09,130.87 127.92,130.87" fill="currentColor" stroke="currentColor" stroke-width="1.2" stroke-linecap="round" stroke-linejoin="round" />
  <path d="M127.92,130.87 C127.75,130.87 127.60,130.83 127.46,130.75" fill="currentColor" stroke="currentColor" stroke-width="1.2" stroke-linecap="round" stroke-linejoin="round" />
  <line x1="109.89" y1="130.97" x2="110.31" y2="131.91" fill="currentColor" stroke="currentColor" stroke-width="1.2" stroke-linecap="round" stroke-linejoin="round" />
  <path d="M119.92,132.73 C119.92,132.15 119.86,131.63 119.75,131.16" fill="currentColor" stroke="currentColor" stroke-width="1.2" stroke-linecap="round" stroke-linejoin="round" />
  <path d="M115.26,131.16 C115.14,131.63 115.08,132.15 115.08,132.73" fill="currentColor" stroke="currentColor" stroke-width="1.2" stroke-linecap="round" stroke-linejoin="round" />
  <path d="M125.42,132.73 C125.42,132.15 125.36,131.63 125.25,131.16" fill="currentColor" stroke="currentColor" stroke-width="1.2" stroke-linecap="round" stroke-linejoin="round" />
  <path d="M120.76,131.16 C120.64,131.63 120.58,132.15 120.58,132.73" fill="currentColor" stroke="currentColor" stroke-width="1.2" stroke-linecap="round" stroke-linejoin="round" />
  <path d="M116.16,132.73 C116.16,132.14 116.22,131.64 116.32,131.22" fill="currentColor" stroke="currentColor" stroke-width="1.2" stroke-linecap="round" stroke-linejoin="round" />
  <path d="M118.68,131.22 C118.79,131.64 118.84,132.14 118.85,132.73" fill="currentColor" stroke="currentColor" stroke-width="1.2" stroke-linecap="round" stroke-linejoin="round" />
  <path d="M121.66,132.73 C121.66,132.14 121.72,131.64 121.82,131.22" fill="currentColor" stroke="currentColor" stroke-width="1.2" stroke-linecap="round" stroke-linejoin="round" />
  <path d="M124.18,131.22 C124.29,131.64 124.34,132.14 124.35,132.73" fill="currentColor" stroke="currentColor" stroke-width="1.2" stroke-linecap="round" stroke-linejoin="round" />
  <path d="M127.17,131.24 C127.39,131.37 127.64,131.44 127.92,131.44" fill="currentColor" stroke="currentColor" stroke-width="1.2" stroke-linecap="round" stroke-linejoin="round" />
  <path d="M127.92,131.44 C128.20,131.44 128.45,131.37 128.67,131.24" fill="currentColor" stroke="currentColor" stroke-width="1.2" stroke-linecap="round" stroke-linejoin="round" />
  <path d="M115.08,132.73 C115.08,133.31 115.14,133.84 115.26,134.31" fill="currentColor" stroke="currentColor" stroke-width="1.2" stroke-linecap="round" stroke-linejoin="round" />
  <path d="M119.75,134.31 C119.86,133.84 119.92,133.31 119.92,132.73" fill="currentColor" stroke="currentColor" stroke-width="1.2" stroke-linecap="round" stroke-linejoin="round" />
  <path d="M118.85,132.73 C118.84,133.32 118.79,133.83 118.68,134.25" fill="currentColor" stroke="currentColor" stroke-width="1.2" stroke-linecap="round" stroke-linejoin="round" />
  <path d="M116.32,134.25 C116.22,133.83 116.16,133.32 116.16,132.73" fill="currentColor" stroke="currentColor" stroke-width="1.2" stroke-linecap="round" stroke-linejoin="round" />
  <path d="M120.58,132.73 C120.58,133.31 120.64,133.84 120.76,134.31" fill="currentColor" stroke="currentColor" stroke-width="1.2" stroke-linecap="round" stroke-linejoin="round" />
  <path d="M125.25,134.31 C125.36,133.84 125.42,133.31 125.42,132.73" fill="currentColor" stroke="currentColor" stroke-width="1.2" stroke-linecap="round" stroke-linejoin="round" />
  <path d="M124.35,132.73 C124.34,133.32 124.29,133.83 124.18,134.25" fill="currentColor" stroke="currentColor" stroke-width="1.2" stroke-linecap="round" stroke-linejoin="round" />
  <path d="M121.82,134.25 C121.72,133.83 121.66,133.32 121.66,132.73" fill="currentColor" stroke="currentColor" stroke-width="1.2" stroke-linecap="round" stroke-linejoin="round" />
  <path d="M118.68,134.25 C118.58,134.67 118.42,134.99 118.22,135.22" fill="currentColor" stroke="currentColor" stroke-width="1.2" stroke-linecap="round" stroke-linejoin="round" />
  <path d="M116.78,135.22 C116.58,134.99 116.43,134.67 116.32,134.25" fill="currentColor" stroke="currentColor" stroke-width="1.2" stroke-linecap="round" stroke-linejoin="round" />
  <path d="M124.18,134.25 C124.08,134.67 123.92,134.99 123.72,135.22" fill="currentColor" stroke="currentColor" stroke-width="1.2" stroke-linecap="round" stroke-linejoin="round" />
  <path d="M122.28,135.22 C122.08,134.99 121.93,134.67 121.82,134.25" fill="currentColor" stroke="currentColor" stroke-width="1.2" stroke-linecap="round" stroke-linejoin="round" />
  <path d="M115.26,134.31 C115.37,134.78 115.54,135.18 115.75,135.52" fill="currentColor" stroke="currentColor" stroke-width="1.2" stroke-linecap="round" stroke-linejoin="round" />
  <path d="M119.26,135.52 C119.47,135.18 119.63,134.78 119.75,134.31" fill="currentColor" stroke="currentColor" stroke-width="1.2" stroke-linecap="round" stroke-linejoin="round" />
  <path d="M120.76,134.31 C120.87,134.78 121.04,135.18 121.25,135.52" fill="currentColor" stroke="currentColor" stroke-width="1.2" stroke-linecap="round" stroke-linejoin="round" />
  <path d="M124.76,135.52 C124.97,135.18 125.13,134.78 125.25,134.31" fill="currentColor" stroke="currentColor" stroke-width="1.2" stroke-linecap="round" stroke-linejoin="round" />
  <path d="M103.65,135.08 C104.53,135.10 105.41,135.25 106.28,135.54" fill="none" stroke="currentColor" stroke-width="1.0" stroke-linecap="round" stroke-linejoin="round" />
  <path d="M118.22,135.22 C118.02,135.44 117.78,135.56 117.50,135.56" fill="currentColor" stroke="currentColor" stroke-width="1.2" stroke-linecap="round" stroke-linejoin="round" />
  <path d="M117.50,135.56 C117.22,135.56 116.98,135.44 116.78,135.22" fill="currentColor" stroke="currentColor" stroke-width="1.2" stroke-linecap="round" stroke-linejoin="round" />
  <path d="M123.72,135.22 C123.52,135.44 123.28,135.56 123.00,135.56" fill="currentColor" stroke="currentColor" stroke-width="1.2" stroke-linecap="round" stroke-linejoin="round" />
  <path d="M123.00,135.56 C122.72,135.56 122.48,135.44 122.28,135.22" fill="currentColor" stroke="currentColor" stroke-width="1.2" stroke-linecap="round" stroke-linejoin="round" />
  <path d="M115.75,135.52 C115.96,135.86 116.22,136.12 116.51,136.31" fill="currentColor" stroke="currentColor" stroke-width="1.2" stroke-linecap="round" stroke-linejoin="round" />
  <path d="M118.49,136.31 C118.79,136.12 119.04,135.86 119.26,135.52" fill="currentColor" stroke="currentColor" stroke-width="1.2" stroke-linecap="round" stroke-linejoin="round" />
  <path d="M121.25,135.52 C121.46,135.86 121.72,136.12 122.01,136.31" fill="currentColor" stroke="currentColor" stroke-width="1.2" stroke-linecap="round" stroke-linejoin="round" />
  <path d="M123.99,136.31 C124.29,136.12 124.54,135.86 124.76,135.52" fill="currentColor" stroke="currentColor" stroke-width="1.2" stroke-linecap="round" stroke-linejoin="round" />
  <path d="M106.28,135.54 C109.89,136.74 112.14,140.02 112.10,143.52" fill="none" stroke="currentColor" stroke-width="1.0" stroke-linecap="round" stroke-linejoin="round" />
  <path d="M116.51,136.31 C116.81,136.49 117.14,136.58 117.50,136.58" fill="currentColor" stroke="currentColor" stroke-width="1.2" stroke-linecap="round" stroke-linejoin="round" />
  <path d="M117.50,136.58 C117.87,136.58 118.20,136.49 118.49,136.31" fill="currentColor" stroke="currentColor" stroke-width="1.2" stroke-linecap="round" stroke-linejoin="round" />
  <path d="M122.01,136.31 C122.31,136.49 122.64,136.58 123.00,136.58" fill="currentColor" stroke="currentColor" stroke-width="1.2" stroke-linecap="round" stroke-linejoin="round" />
  <path d="M123.00,136.58 C123.37,136.58 123.70,136.49 123.99,136.31" fill="currentColor" stroke="currentColor" stroke-width="1.2" stroke-linecap="round" stroke-linejoin="round" />
  <line x1="111.74" y1="136.48" x2="112.86" y2="136.48" fill="currentColor" stroke="currentColor" stroke-width="1.2" stroke-linecap="round" stroke-linejoin="round" />
  <line x1="11.98" y1="141.16" x2="11.22" y2="141.16" fill="currentColor" stroke="currentColor" stroke-width="1.2" stroke-linecap="round" stroke-linejoin="round" />
  <line x1="11.22" y1="141.16" x2="8.00" y2="148.70" fill="currentColor" stroke="currentColor" stroke-width="1.2" stroke-linecap="round" stroke-linejoin="round" />
  <line x1="15.34" y1="148.70" x2="11.98" y2="141.16" fill="currentColor" stroke="currentColor" stroke-width="1.2" stroke-linecap="round" stroke-linejoin="round" />
  <path d="M165.09,141.37 C164.79,141.26 164.45,141.21 164.04,141.21" fill="currentColor" stroke="currentColor" stroke-width="1.2" stroke-linecap="round" stroke-linejoin="round" />
  <line x1="164.04" y1="141.21" x2="161.87" y2="141.21" fill="currentColor" stroke="currentColor" stroke-width="1.2" stroke-linecap="round" stroke-linejoin="round" />
  <line x1="161.87" y1="141.21" x2="161.87" y2="148.71" fill="currentColor" stroke="currentColor" stroke-width="1.2" stroke-linecap="round" stroke-linejoin="round" />
  <path d="M165.81,141.81 C165.62,141.62 165.38,141.48 165.09,141.37" fill="currentColor" stroke="currentColor" stroke-width="1.2" stroke-linecap="round" stroke-linejoin="round" />
  <path d="M166.22,142.42 C166.13,142.19 165.99,141.99 165.81,141.81" fill="currentColor" stroke="currentColor" stroke-width="1.2" stroke-linecap="round" stroke-linejoin="round" />
  <line x1="162.94" y1="142.17" x2="163.93" y2="142.17" fill="currentColor" stroke="currentColor" stroke-width="1.2" stroke-linecap="round" stroke-linejoin="round" />
  <path d="M163.93,142.17 C164.26,142.17 164.52,142.22 164.71,142.32" fill="currentColor" stroke="currentColor" stroke-width="1.2" stroke-linecap="round" stroke-linejoin="round" />
  <line x1="162.94" y1="144.42" x2="162.94" y2="142.17" fill="currentColor" stroke="currentColor" stroke-width="1.2" stroke-linecap="round" stroke-linejoin="round" />
  <path d="M164.71,142.32 C164.91,142.41 165.04,142.54 165.12,142.70" fill="currentColor" stroke="currentColor" stroke-width="1.2" stroke-linecap="round" stroke-linejoin="round" />
  <path d="M166.35,143.12 C166.35,142.88 166.31,142.65 166.22,142.42" fill="currentColor" stroke="currentColor" stroke-width="1.2" stroke-linecap="round" stroke-linejoin="round" />
  <path d="M165.12,142.70 C165.21,142.85 165.25,143.03 165.24,143.22" fill="currentColor" stroke="currentColor" stroke-width="1.2" stroke-linecap="round" stroke-linejoin="round" />
  <line x1="11.59" y1="142.81" x2="12.80" y2="145.53" fill="currentColor" stroke="currentColor" stroke-width="1.2" stroke-linecap="round" stroke-linejoin="round" />
  <line x1="10.46" y1="145.53" x2="11.59" y2="142.81" fill="currentColor" stroke="currentColor" stroke-width="1.2" stroke-linecap="round" stroke-linejoin="round" />
  <path d="M166.07,144.10 C166.26,143.83 166.35,143.51 166.35,143.12" fill="currentColor" stroke="currentColor" stroke-width="1.2" stroke-linecap="round" stroke-linejoin="round" />
  <path d="M165.24,143.22 C165.24,143.62 165.11,143.92 164.85,144.12" fill="currentColor" stroke="currentColor" stroke-width="1.2" stroke-linecap="round" stroke-linejoin="round" />
  <line x1="18.32" y1="143.57" x2="156.78" y2="143.53" fill="none" stroke="currentColor" stroke-width="1.2" stroke-linecap="round" stroke-linejoin="round" />
  <path d="M165.21,144.72 C165.60,144.57 165.89,144.36 166.07,144.10" fill="currentColor" stroke="currentColor" stroke-width="1.2" stroke-linecap="round" stroke-linejoin="round" />
  <path d="M164.85,144.12 C164.59,144.32 164.19,144.42 163.66,144.42" fill="currentColor" stroke="currentColor" stroke-width="1.2" stroke-linecap="round" stroke-linejoin="round" />
  <line x1="163.66" y1="144.42" x2="162.94" y2="144.42" fill="currentColor" stroke="currentColor" stroke-width="1.2" stroke-linecap="round" stroke-linejoin="round" />
  <line x1="165.21" y1="144.75" x2="165.21" y2="144.72" fill="currentColor" stroke="currentColor" stroke-width="1.2" stroke-linecap="round" stroke-linejoin="round" />
  <path d="M166.17,145.12 C165.91,144.94 165.58,144.82 165.21,144.75" fill="currentColor" stroke="currentColor" stroke-width="1.2" stroke-linecap="round" stroke-linejoin="round" />
  <path d="M166.79,145.79 C166.65,145.52 166.44,145.30 166.17,145.12" fill="currentColor" stroke="currentColor" stroke-width="1.2" stroke-linecap="round" stroke-linejoin="round" />
  <line x1="162.94" y1="145.38" x2="164.24" y2="145.38" fill="currentColor" stroke="currentColor" stroke-width="1.2" stroke-linecap="round" stroke-linejoin="round" />
  <path d="M164.24,145.38 C164.62,145.39 164.93,145.43 165.17,145.53" fill="currentColor" stroke="currentColor" stroke-width="1.2" stroke-linecap="round" stroke-linejoin="round" />
  <line x1="162.94" y1="147.74" x2="162.94" y2="145.38" fill="currentColor" stroke="currentColor" stroke-width="1.2" stroke-linecap="round" stroke-linejoin="round" />
  <line x1="12.80" y1="145.53" x2="10.46" y2="145.53" fill="currentColor" stroke="currentColor" stroke-width="1.2" stroke-linecap="round" stroke-linejoin="round" />
  <path d="M165.17,145.53 C165.42,145.63 165.60,145.77 165.72,145.94" fill="currentColor" stroke="currentColor" stroke-width="1.2" stroke-linecap="round" stroke-linejoin="round" />
  <path d="M167.01,146.70 C167.01,146.36 166.94,146.06 166.79,145.79" fill="currentColor" stroke="currentColor" stroke-width="1.2" stroke-linecap="round" stroke-linejoin="round" />
  <path d="M165.72,145.94 C165.84,146.12 165.90,146.32 165.90,146.55" fill="currentColor" stroke="currentColor" stroke-width="1.2" stroke-linecap="round" stroke-linejoin="round" />
  <line x1="9.10" y1="148.70" x2="10.05" y2="146.49" fill="currentColor" stroke="currentColor" stroke-width="1.2" stroke-linecap="round" stroke-linejoin="round" />
  <line x1="10.05" y1="146.49" x2="13.24" y2="146.49" fill="currentColor" stroke="currentColor" stroke-width="1.2" stroke-linecap="round" stroke-linejoin="round" />
  <line x1="13.24" y1="146.49" x2="14.24" y2="148.70" fill="currentColor" stroke="currentColor" stroke-width="1.2" stroke-linecap="round" stroke-linejoin="round" />
  <path d="M165.90,146.55 C165.90,146.74 165.86,146.93 165.77,147.11" fill="currentColor" stroke="currentColor" stroke-width="1.2" stroke-linecap="round" stroke-linejoin="round" />
  <path d="M166.87,147.41 C166.97,147.17 167.01,146.94 167.01,146.70" fill="currentColor" stroke="currentColor" stroke-width="1.2" stroke-linecap="round" stroke-linejoin="round" />
  <path d="M165.77,147.11 C165.67,147.29 165.51,147.44 165.27,147.55" fill="currentColor" stroke="currentColor" stroke-width="1.2" stroke-linecap="round" stroke-linejoin="round" />
  <path d="M166.43,148.05 C166.63,147.86 166.78,147.64 166.87,147.41" fill="currentColor" stroke="currentColor" stroke-width="1.2" stroke-linecap="round" stroke-linejoin="round" />
  <path d="M165.27,147.55 C165.04,147.67 164.71,147.73 164.29,147.74" fill="currentColor" stroke="currentColor" stroke-width="1.2" stroke-linecap="round" stroke-linejoin="round" />
  <line x1="164.29" y1="147.74" x2="162.94" y2="147.74" fill="currentColor" stroke="currentColor" stroke-width="1.2" stroke-linecap="round" stroke-linejoin="round" />
  <path d="M165.63,148.52 C165.96,148.40 166.23,148.25 166.43,148.05" fill="currentColor" stroke="currentColor" stroke-width="1.2" stroke-linecap="round" stroke-linejoin="round" />
  <path d="M164.44,148.71 C164.91,148.70 165.31,148.64 165.63,148.52" fill="currentColor" stroke="currentColor" stroke-width="1.2" stroke-linecap="round" stroke-linejoin="round" />
  <line x1="8.00" y1="148.70" x2="9.10" y2="148.70" fill="currentColor" stroke="currentColor" stroke-width="1.2" stroke-linecap="round" stroke-linejoin="round" />
  <line x1="14.24" y1="148.70" x2="15.34" y2="148.70" fill="currentColor" stroke="currentColor" stroke-width="1.2" stroke-linecap="round" stroke-linejoin="round" />
  <line x1="161.87" y1="148.71" x2="164.44" y2="148.71" fill="currentColor" stroke="currentColor" stroke-width="1.2" stroke-linecap="round" stroke-linejoin="round" />
</svg>