<svg xmlns="http://www.w3.org/2000/svg" viewBox="0 0 213.62 95.70" preserveAspectRatio="xMidYMid meet" shape-rendering="geometricPrecision" text-rendering="optimizeLegibility">
  <line x1="20.82" y1="75.73" x2="134.21" y2="75.73" fill="none" stroke="currentColor" stroke-width="1.2" stroke-linecap="round" stroke-linejoin="round" />
  <line x1="134.21" y1="75.73" x2="180.40" y2="15.83" fill="none" stroke="currentColor" stroke-width="1.2" stroke-linecap="round" stroke-linejoin="round" />
  <line x1="180.40" y1="15.83" x2="20.82" y2="75.73" fill="none" stroke="currentColor" stroke-width="1.2" stroke-linecap="round" stroke-linejoin="round" />
  <line x1="130.45" y1="75.95" x2="181.47" y2="75.95" fill="none" stroke="currentColor" stroke-width="1.0" stroke-linecap="round" stroke-linejoin="round" />
  <line x1="181.47" y1="75.95" x2="181.47" y2="15.04" fill="none" stroke="currentColor" stroke-width="1.0" stroke-linecap="round" stroke-linejoin="round" />
  <path d="M11.98,71.47L11.22,71.47L8.00,79.01L9.10,79.01L10.05,76.80L13.24,76.80L14.24,79.01L15.34,79.01L11.98,71.47ZM11.59,73.12L12.80,75.83L10.46,75.83L11.59,73.12Z" fill="currentColor" stroke="currentColor" stroke-width="1.2" stroke-linejoin="round" />
  <path d="M133.33,85.71L135.90,85.71C136.37,85.71 136.77,85.65 137.10,85.53C137.43,85.41 137.69,85.26 137.89,85.06C138.10,84.86 138.24,84.65 138.34,84.41C138.43,84.18 138.48,83.95 138.48,83.71C138.47,83.37 138.40,83.07 138.26,82.80C138.11,82.53 137.91,82.31 137.64,82.13C137.37,81.95 137.05,81.83 136.67,81.75L136.67,81.73C137.06,81.58 137.35,81.37 137.54,81.10C137.73,80.84 137.82,80.52 137.82,80.13C137.82,79.89 137.77,79.65 137.68,79.43C137.59,79.20 137.46,79.00 137.27,78.81C137.08,78.63 136.84,78.49 136.55,78.38C136.26,78.27 135.91,78.22 135.51,78.21L133.33,78.21L133.33,85.71ZM134.40,79.18L135.40,79.18C135.72,79.18 135.99,79.23 136.18,79.33C136.37,79.42 136.51,79.55 136.59,79.70C136.67,79.86 136.71,80.04 136.71,80.23C136.71,80.63 136.58,80.93 136.31,81.13C136.05,81.33 135.65,81.43 135.12,81.43L134.40,81.43L134.40,79.18ZM134.40,82.39L135.71,82.39C136.08,82.39 136.39,82.44 136.64,82.54C136.88,82.64 137.07,82.78 137.19,82.95C137.31,83.13 137.37,83.33 137.37,83.56C137.37,83.75 137.32,83.94 137.23,84.12C137.14,84.30 136.97,84.45 136.74,84.56C136.50,84.68 136.18,84.74 135.76,84.75L134.40,84.75L134.40,82.39Z" fill="currentColor" stroke="currentColor" stroke-width="1.2" stroke-linejoin="round" />
  <path d="M189.43,8.62C189.10,8.47 188.78,8.36 188.48,8.27C188.19,8.17 187.91,8.11 187.64,8.06C187.38,8.02 187.12,8.00 186.86,8.00C186.26,8.00 185.71,8.10 185.21,8.30C184.71,8.49 184.28,8.77 183.91,9.12C183.54,9.48 183.26,9.89 183.05,10.38C182.85,10.86 182.75,11.38 182.75,11.96C182.75,12.28 182.80,12.61 182.90,12.95C183.00,13.30 183.15,13.63 183.36,13.95C183.57,14.28 183.83,14.57 184.15,14.84C184.47,15.10 184.85,15.31 185.29,15.46C185.73,15.62 186.23,15.69 186.80,15.70C187.19,15.70 187.54,15.67 187.86,15.61C188.18,15.56 188.47,15.48 188.74,15.38C189.01,15.28 189.27,15.17 189.51,15.04L189.51,13.86C189.09,14.14 188.65,14.35 188.20,14.49C187.76,14.64 187.32,14.71 186.89,14.71C186.29,14.70 185.76,14.58 185.31,14.34C184.85,14.10 184.50,13.77 184.24,13.35C183.99,12.92 183.86,12.43 183.86,11.86C183.86,11.45 183.94,11.06 184.08,10.72C184.23,10.37 184.44,10.06 184.71,9.81C184.98,9.55 185.30,9.35 185.66,9.21C186.02,9.06 186.42,8.99 186.85,8.99C187.28,8.99 187.70,9.05 188.12,9.18C188.54,9.31 188.98,9.50 189.43,9.77L189.43,8.62Z" fill="currentColor" stroke="currentColor" stroke-width="1.2" stroke-linejoin="round" />
  <path d="M190.09,43.02L188.94,43.02L187.65,44.68L186.87,43.02L185.87,43.02L187.04,45.34L184.88,47.96L186.02,47.96L187.45,46.11L188.35,47.96L189.36,47.96L188.10,45.46L190.09,43.02Z" fill="currentColor" stroke="currentColor" stroke-width="1.2" stroke-linejoin="round" />
  <path d="M197.29,43.26C197.14,43.19 196.99,43.13 196.84,43.08C196.69,43.03 196.54,42.99 196.38,42.97C196.23,42.94 196.05,42.92 195.86,42.92C195.36,42.93 194.93,43.04 194.56,43.25C194.20,43.47 193.92,43.77 193.72,44.17C193.52,44.57 193.42,45.04 193.42,45.59C193.42,46.07 193.53,46.50 193.74,46.87C193.96,47.24 194.25,47.53 194.62,47.74C195.00,47.95 195.43,48.06 195.93,48.06C196.10,48.06 196.28,48.05 196.47,48.02C196.65,47.99 196.83,47.96 196.99,47.92C197.15,47.87 197.29,47.83 197.40,47.77L197.40,46.81C197.16,46.92 196.93,47.00 196.72,47.05C196.51,47.11 196.30,47.14 196.09,47.14C195.75,47.14 195.46,47.07 195.21,46.94C194.96,46.81 194.77,46.62 194.63,46.38C194.49,46.13 194.42,45.84 194.42,45.50C194.42,45.16 194.49,44.87 194.61,44.62C194.74,44.37 194.92,44.18 195.14,44.04C195.37,43.90 195.63,43.83 195.93,43.83C196.07,43.82 196.21,43.84 196.35,43.87C196.49,43.90 196.63,43.95 196.79,44.02C196.94,44.09 197.11,44.19 197.29,44.31L197.29,43.26Z" fill="currentColor" stroke="currentColor" stroke-width="1.2" stroke-linejoin="round" />
  <path d="M198.44,43.02L198.44,47.96L199.41,47.96L199.41,44.37C199.55,44.22 199.68,44.09 199.80,44.00C199.93,43.91 200.06,43.84 200.20,43.81C200.33,43.77 200.48,43.75 200.65,43.75C200.81,43.75 200.96,43.79 201.09,43.87C201.23,43.95 201.33,44.07 201.41,44.24C201.49,44.41 201.53,44.63 201.54,44.89L201.54,47.96L202.52,47.96L202.52,44.37C202.70,44.19 202.88,44.04 203.08,43.92C203.27,43.80 203.45,43.75 203.62,43.75C203.80,43.75 203.98,43.79 204.13,43.88C204.28,43.97 204.41,44.10 204.50,44.27C204.59,44.44 204.64,44.65 204.64,44.90L204.64,47.96L205.62,47.96L205.62,44.86C205.62,44.47 205.55,44.13 205.42,43.84C205.28,43.55 205.09,43.33 204.85,43.17C204.60,43.01 204.31,42.93 203.98,42.92C203.74,42.93 203.53,42.97 203.33,43.05C203.14,43.13 202.96,43.23 202.79,43.37C202.63,43.50 202.47,43.65 202.33,43.81C202.16,43.52 201.95,43.30 201.70,43.15C201.45,43.00 201.17,42.92 200.85,42.92C200.62,42.92 200.39,42.98 200.15,43.11C199.91,43.23 199.67,43.42 199.41,43.67L199.41,43.02L198.44,43.02Z" fill="currentColor" stroke="currentColor" stroke-width="1.2" stroke-linejoin="round" />
  <path d="M74.95,80.00L74.49,80.00L70.70,84.64L70.70,85.13L73.88,85.13L73.88,87.60L74.95,87.60L74.95,85.13L75.75,85.13L75.75,84.17L74.95,84.17L74.95,80.00ZM73.85,82.03L73.88,82.03L73.88,84.17L72.14,84.17L73.85,82.03Z" fill="currentColor" stroke="currentColor" stroke-width="1.2" stroke-linejoin="round" />
  <path d="M83.45,82.90C83.30,82.83 83.15,82.77 83.00,82.72C82.85,82.67 82.70,82.63 82.54,82.60C82.39,82.58 82.21,82.56 82.02,82.56C81.52,82.56 81.09,82.67 80.73,82.89C80.36,83.11 80.08,83.41 79.88,83.81C79.68,84.21 79.58,84.68 79.58,85.22C79.59,85.71 79.69,86.14 79.90,86.51C80.12,86.88 80.41,87.17 80.78,87.38C81.16,87.59 81.60,87.69 82.09,87.70C82.26,87.70 82.44,87.68 82.63,87.66C82.81,87.63 82.99,87.60 83.15,87.56C83.31,87.51 83.45,87.46 83.56,87.41L83.56,86.45C83.32,86.56 83.09,86.64 82.88,86.69C82.67,86.75 82.46,86.78 82.25,86.78C81.92,86.77 81.62,86.71 81.37,86.58C81.12,86.45 80.93,86.26 80.79,86.02C80.65,85.77 80.58,85.48 80.58,85.14C80.59,84.80 80.65,84.51 80.78,84.26C80.90,84.01 81.08,83.81 81.30,83.67C81.53,83.54 81.79,83.47 82.09,83.46C82.23,83.46 82.37,83.48 82.51,83.51C82.65,83.54 82.79,83.59 82.95,83.66C83.10,83.73 83.27,83.82 83.45,83.95L83.45,82.90Z" fill="currentColor" stroke="currentColor" stroke-width="1.2" stroke-linejoin="round" />
  <path d="M84.60,82.66L84.60,87.60L85.58,87.60L85.58,84.01C85.71,83.86 85.84,83.73 85.97,83.64C86.09,83.55 86.22,83.48 86.36,83.44C86.49,83.40 86.64,83.38 86.81,83.39C86.97,83.39 87.12,83.42 87.25,83.50C87.39,83.58 87.49,83.71 87.57,83.88C87.65,84.05 87.70,84.26 87.70,84.53L87.70,87.60L88.68,87.60L88.68,84.01C88.86,83.83 89.04,83.68 89.24,83.56C89.43,83.44 89.61,83.38 89.78,83.39C89.97,83.39 90.14,83.43 90.29,83.52C90.45,83.61 90.57,83.74 90.66,83.91C90.75,84.08 90.80,84.29 90.80,84.54L90.80,87.60L91.78,87.60L91.78,84.50C91.78,84.11 91.71,83.77 91.58,83.48C91.44,83.19 91.25,82.96 91.01,82.80C90.76,82.64 90.48,82.56 90.14,82.56C89.91,82.56 89.69,82.60 89.49,82.69C89.30,82.77 89.12,82.87 88.95,83.01C88.79,83.14 88.63,83.29 88.49,83.45C88.32,83.16 88.12,82.94 87.87,82.79C87.61,82.64 87.33,82.56 87.02,82.56C86.79,82.56 86.55,82.62 86.31,82.75C86.07,82.87 85.83,83.06 85.58,83.31L85.58,82.66L84.60,82.66Z" fill="currentColor" stroke="currentColor" stroke-width="1.2" stroke-linejoin="round" />
  <rect x="176.34" y="70.82" width="5.13" height="5.13" fill="none" stroke="currentColor" stroke-width="1.0" stroke-linecap="round" stroke-linejoin="round" />
</svg>