<svg xmlns="http://www.w3.org/2000/svg" viewBox="0 0 238.26 124.04" preserveAspectRatio="xMidYMid meet" shape-rendering="geometricPrecision" text-rendering="optimizeLegibility">
  <line x1="8.00" y1="115.80" x2="230.26" y2="115.80" fill="none" stroke="currentColor" stroke-width="1.3740000247955322" stroke-linecap="round" stroke-linejoin="round" />
  <line x1="230.26" y1="115.80" x2="75.22" y2="8.00" fill="none" stroke="currentColor" stroke-width="1.3740000247955322" stroke-linecap="round" stroke-linejoin="round" />
  <line x1="75.22" y1="8.00" x2="8.50" y2="115.62" fill="none" stroke="currentColor" stroke-width="1.3740000247955322" stroke-linecap="round" stroke-linejoin="round" />
  <line x1="75.58" y1="8.84" x2="116.69" y2="115.60" fill="none" stroke="currentColor" stroke-width="1.3740000247955322" stroke-linecap="round" stroke-linejoin="round" />
  <path d="M109.55,98.03 C116.32,95.37 124.33,96.77 129.80,102.25" fill="none" stroke="currentColor" stroke-width="1.0" stroke-linecap="round" stroke-linejoin="round" />
  <path d="M129.80,102.25 C133.41,105.86 135.25,110.58 135.32,115.31" fill="none" stroke="currentColor" stroke-width="1.0" stroke-linecap="round" stroke-linejoin="round" />
  <path d="M35.33,97.55L32.01,97.55L32.01,101.44C32.42,101.34 32.78,101.31 33.11,101.34C33.43,101.37 33.71,101.46 33.93,101.59C34.16,101.72 34.33,101.89 34.45,102.09C34.57,102.29 34.62,102.51 34.63,102.75C34.62,103.00 34.55,103.22 34.41,103.43C34.27,103.63 34.09,103.79 33.86,103.91C33.62,104.03 33.36,104.10 33.08,104.10C32.81,104.10 32.53,104.05 32.26,103.96C31.98,103.87 31.71,103.73 31.45,103.55L31.45,104.66C31.66,104.77 31.86,104.86 32.06,104.92C32.25,104.99 32.45,105.04 32.64,105.07C32.84,105.10 33.04,105.12 33.25,105.12C33.73,105.11 34.15,105.01 34.52,104.81C34.88,104.60 35.17,104.32 35.38,103.96C35.59,103.60 35.70,103.19 35.70,102.73C35.70,102.38 35.64,102.06 35.51,101.77C35.39,101.47 35.21,101.22 34.97,101.00C34.74,100.79 34.45,100.62 34.12,100.51C33.78,100.40 33.40,100.36 32.98,100.38L32.98,98.51L35.33,98.51L35.33,97.55Z" fill="currentColor" stroke="currentColor" stroke-width="1.2" stroke-linejoin="round" />
  <path d="M38.43,105.12C38.87,104.85 39.27,104.52 39.64,104.15C40.00,103.77 40.32,103.36 40.59,102.92C40.86,102.48 41.06,102.03 41.21,101.56C41.36,101.09 41.43,100.63 41.43,100.17C41.43,99.78 41.37,99.42 41.25,99.09C41.14,98.76 40.97,98.47 40.76,98.22C40.55,97.98 40.30,97.79 40.01,97.65C39.72,97.52 39.40,97.45 39.05,97.45C38.71,97.45 38.39,97.51 38.12,97.64C37.84,97.76 37.60,97.93 37.40,98.14C37.20,98.35 37.04,98.59 36.94,98.85C36.83,99.11 36.78,99.38 36.78,99.66C36.78,100.07 36.88,100.44 37.06,100.77C37.25,101.09 37.50,101.35 37.82,101.54C38.13,101.74 38.49,101.83 38.89,101.84C39.09,101.84 39.29,101.81 39.49,101.75C39.70,101.70 39.88,101.62 40.05,101.52C39.98,101.84 39.85,102.16 39.65,102.49C39.45,102.81 39.19,103.13 38.88,103.44C38.56,103.76 38.19,104.05 37.77,104.33L38.43,105.12ZM37.85,99.65C37.85,99.42 37.90,99.21 38.01,99.03C38.11,98.86 38.26,98.72 38.44,98.62C38.62,98.52 38.84,98.47 39.08,98.46C39.31,98.47 39.52,98.53 39.71,98.65C39.89,98.78 40.04,98.94 40.15,99.14C40.27,99.34 40.32,99.57 40.32,99.81C40.32,99.90 40.32,99.99 40.32,100.09C40.31,100.18 40.30,100.29 40.27,100.42C40.06,100.56 39.86,100.66 39.66,100.72C39.46,100.79 39.28,100.82 39.12,100.82C38.88,100.82 38.67,100.77 38.48,100.66C38.29,100.56 38.14,100.42 38.02,100.24C37.91,100.06 37.85,99.87 37.85,99.65Z" fill="currentColor" stroke="currentColor" stroke-width="1.2" stroke-linejoin="round" />
  <path d="M44.02,97.62C44.19,97.62 44.34,97.66 44.48,97.74C44.62,97.82 44.73,97.93 44.81,98.06C44.89,98.20 44.93,98.35 44.93,98.52C44.93,98.69 44.89,98.84 44.81,98.98C44.73,99.12 44.62,99.22 44.48,99.31C44.34,99.38 44.19,99.43 44.02,99.43C43.85,99.43 43.70,99.38 43.56,99.31C43.43,99.22 43.32,99.12 43.24,98.98C43.16,98.84 43.12,98.69 43.12,98.52C43.12,98.35 43.16,98.20 43.24,98.06C43.32,97.93 43.43,97.82 43.56,97.74C43.70,97.66 43.85,97.62 44.02,97.62ZM44.02,97.04C43.74,97.04 43.49,97.11 43.27,97.24C43.05,97.37 42.87,97.55 42.74,97.77C42.61,97.99 42.54,98.24 42.54,98.52C42.54,98.80 42.61,99.05 42.74,99.27C42.87,99.49 43.05,99.67 43.27,99.80C43.49,99.93 43.74,100.00 44.02,100.00C44.30,100.00 44.55,99.93 44.77,99.80C44.99,99.67 45.17,99.49 45.30,99.27C45.43,99.05 45.50,98.80 45.50,98.52C45.50,98.24 45.43,97.99 45.30,97.77C45.17,97.55 44.99,97.37 44.77,97.24C44.55,97.11 44.30,97.04 44.02,97.04Z" fill="currentColor" stroke="currentColor" stroke-width="1.2" stroke-linejoin="round" />
  <path d="M189.86,103.79C190.03,103.71 190.18,103.65 190.32,103.61C190.47,103.56 190.60,103.52 190.73,103.50C190.86,103.48 190.99,103.47 191.13,103.47C191.39,103.47 191.62,103.52 191.81,103.61C192.01,103.70 192.16,103.83 192.26,103.99C192.37,104.16 192.42,104.36 192.42,104.59C192.42,104.93 192.30,105.20 192.05,105.39C191.80,105.58 191.43,105.67 190.94,105.67L190.94,106.66C191.29,106.64 191.59,106.69 191.83,106.80C192.07,106.90 192.24,107.05 192.36,107.25C192.48,107.44 192.54,107.66 192.54,107.91C192.54,108.15 192.49,108.36 192.39,108.54C192.29,108.72 192.15,108.86 191.97,108.96C191.79,109.05 191.58,109.10 191.34,109.11C191.06,109.11 190.79,109.06 190.51,108.96C190.23,108.87 189.95,108.73 189.67,108.54L189.67,109.70C189.94,109.83 190.21,109.94 190.47,110.01C190.74,110.09 191.00,110.12 191.26,110.12C191.72,110.12 192.13,110.02 192.48,109.83C192.84,109.64 193.11,109.38 193.31,109.04C193.51,108.70 193.61,108.30 193.61,107.86C193.61,107.60 193.58,107.35 193.50,107.11C193.43,106.86 193.31,106.65 193.15,106.47C192.99,106.29 192.79,106.16 192.54,106.08C192.77,105.96 192.95,105.82 193.09,105.66C193.23,105.51 193.33,105.33 193.40,105.12C193.46,104.92 193.49,104.68 193.49,104.40C193.49,104.01 193.40,103.66 193.22,103.37C193.04,103.08 192.79,102.86 192.46,102.70C192.13,102.54 191.74,102.45 191.29,102.45C191.02,102.45 190.76,102.48 190.53,102.53C190.30,102.58 190.08,102.66 189.86,102.77L189.86,103.79Z" fill="currentColor" stroke="currentColor" stroke-width="1.2" stroke-linejoin="round" />
  <path d="M195.34,103.79C195.51,103.71 195.66,103.65 195.80,103.61C195.95,103.56 196.08,103.52 196.21,103.50C196.34,103.48 196.47,103.47 196.61,103.47C196.87,103.47 197.10,103.52 197.29,103.61C197.49,103.70 197.64,103.83 197.74,103.99C197.85,104.16 197.90,104.36 197.90,104.59C197.90,104.93 197.78,105.20 197.53,105.39C197.28,105.58 196.92,105.67 196.42,105.67L196.42,106.66C196.78,106.64 197.07,106.69 197.31,106.80C197.55,106.90 197.72,107.05 197.84,107.25C197.96,107.44 198.02,107.66 198.02,107.91C198.02,108.15 197.97,108.36 197.87,108.54C197.77,108.72 197.64,108.86 197.46,108.96C197.28,109.05 197.06,109.10 196.82,109.11C196.54,109.11 196.27,109.06 195.99,108.96C195.72,108.87 195.44,108.73 195.15,108.54L195.15,109.70C195.42,109.83 195.69,109.94 195.95,110.01C196.22,110.09 196.48,110.12 196.74,110.12C197.20,110.12 197.61,110.02 197.96,109.83C198.32,109.64 198.59,109.38 198.79,109.04C198.99,108.70 199.09,108.30 199.09,107.86C199.09,107.60 199.06,107.35 198.98,107.11C198.91,106.86 198.79,106.65 198.63,106.47C198.47,106.29 198.27,106.16 198.02,106.08C198.25,105.96 198.43,105.82 198.57,105.66C198.71,105.51 198.81,105.33 198.88,105.12C198.94,104.92 198.98,104.68 198.97,104.40C198.97,104.01 198.88,103.66 198.70,103.37C198.52,103.08 198.27,102.86 197.94,102.70C197.61,102.54 197.22,102.45 196.77,102.45C196.50,102.45 196.24,102.48 196.01,102.53C195.78,102.58 195.56,102.66 195.34,102.77L195.34,103.79Z" fill="currentColor" stroke="currentColor" stroke-width="1.2" stroke-linejoin="round" />
  <path d="M202.09,102.63C202.26,102.63 202.41,102.67 202.55,102.75C202.69,102.83 202.80,102.93 202.88,103.07C202.96,103.20 203.00,103.36 203.00,103.53C203.00,103.70 202.96,103.85 202.88,103.99C202.80,104.12 202.69,104.23 202.55,104.31C202.41,104.39 202.26,104.43 202.09,104.44C201.92,104.43 201.77,104.39 201.63,104.31C201.50,104.23 201.39,104.12 201.31,103.99C201.23,103.85 201.19,103.70 201.19,103.53C201.19,103.36 201.23,103.20 201.31,103.07C201.39,102.93 201.50,102.83 201.63,102.75C201.77,102.67 201.92,102.63 202.09,102.63ZM202.09,102.05C201.81,102.05 201.56,102.12 201.34,102.25C201.12,102.38 200.94,102.55 200.81,102.78C200.68,103.00 200.61,103.25 200.61,103.53C200.61,103.80 200.68,104.05 200.81,104.27C200.94,104.50 201.12,104.67 201.34,104.80C201.56,104.94 201.81,105.00 202.09,105.01C202.37,105.00 202.62,104.94 202.84,104.80C203.06,104.67 203.24,104.50 203.37,104.27C203.50,104.05 203.57,103.80 203.57,103.53C203.57,103.25 203.50,103.00 203.37,102.78C203.24,102.55 203.06,102.38 202.84,102.25C202.62,102.12 202.37,102.05 202.09,102.05Z" fill="currentColor" stroke="currentColor" stroke-width="1.2" stroke-linejoin="round" />
  <path d="M20.21,96.36 C26.92,100.45 31.24,107.87 31.17,116.04" fill="none" stroke="currentColor" stroke-width="1.0" stroke-linecap="round" stroke-linejoin="round" />
  <path d="M82.48,26.20 C80.64,26.96 78.65,27.45 76.56,27.62" fill="none" stroke="currentColor" stroke-width="1.0" stroke-linecap="round" stroke-linejoin="round" />
  <path d="M76.56,27.62 C72.19,27.97 68.02,26.86 64.56,24.69" fill="none" stroke="currentColor" stroke-width="1.0" stroke-linecap="round" stroke-linejoin="round" />
  <path d="M97.51,23.45 C96.87,24.36 96.17,25.24 95.40,26.09" fill="none" stroke="currentColor" stroke-width="1.0" stroke-linecap="round" stroke-linejoin="round" />
  <path d="M95.40,26.09 C92.39,29.40 88.74,31.78 84.81,33.22" fill="none" stroke="currentColor" stroke-width="1.0" stroke-linecap="round" stroke-linejoin="round" />
  <path d="M207.15,115.73 C207.01,111.07 208.32,106.43 210.93,102.51" fill="none" stroke="currentColor" stroke-width="1.0" stroke-linecap="round" stroke-linejoin="round" />
  <path d="M74.03,31.29L72.71,31.29L71.24,33.18L70.35,31.29L69.21,31.29L70.54,33.93L68.09,36.91L69.39,36.91L71.02,34.81L72.05,36.91L73.19,36.91L71.76,34.07L74.03,31.29Z" fill="currentColor" stroke="currentColor" stroke-width="1.2" stroke-linejoin="round" />
  <path d="M98.55,32.06L97.24,32.06L95.77,33.96L94.88,32.06L93.74,32.06L95.07,34.71L92.61,37.69L93.92,37.69L95.54,35.58L96.57,37.69L97.71,37.69L96.28,34.84L98.55,32.06Z" fill="currentColor" stroke="currentColor" stroke-width="1.2" stroke-linejoin="round" />
  <path d="M135.90,94.52L134.83,94.52L133.02,98.09L133.00,98.09L132.26,94.52L131.21,94.52L132.49,100.26L133.01,100.26L135.90,94.52Z" fill="currentColor" stroke="currentColor" stroke-width="1.2" stroke-linejoin="round" />
</svg>