<svg xmlns="http://www.w3.org/2000/svg" viewBox="0 0 242.61 93.52" preserveAspectRatio="xMidYMid meet" shape-rendering="geometricPrecision" text-rendering="optimizeLegibility">
  <line x1="121.29" y1="8.00" x2="64.64" y2="8.00" fill="none" stroke="currentColor" stroke-width="1.4000000476837158" stroke-linecap="round" stroke-linejoin="round" />
  <line x1="178.08" y1="8.00" x2="121.01" y2="8.00" fill="none" stroke="currentColor" stroke-width="1.4000000476837158" stroke-linecap="round" stroke-linejoin="round" />
  <rect x="64.69" y="8.00" width="8.64" height="8.64" fill="none" stroke="currentColor" stroke-width="1.000000011920929" stroke-linecap="round" stroke-linejoin="round" />
  <rect x="169.35" y="8.00" width="8.64" height="8.64" fill="none" stroke="currentColor" stroke-width="1.000000011920929" stroke-linecap="round" stroke-linejoin="round" />
  <path d="M177.99,8.00 C208.91,8.00 234.01,33.10 234.01,64.02" fill="none" stroke="currentColor" stroke-width="1.4000000476837158" stroke-linecap="round" stroke-linejoin="round" />
  <path d="M8.60,64.09 C8.60,33.13 33.73,8.00 64.69,8.00" fill="none" stroke="currentColor" stroke-width="1.4000000476837158" stroke-linecap="round" stroke-linejoin="round" />
  <line x1="121.29" y1="64.60" x2="121.29" y2="8.00" fill="none" stroke="currentColor" stroke-width="1.000000011920929" stroke-linecap="round" stroke-linejoin="round" />
  <line x1="177.99" y1="64.60" x2="177.99" y2="8.00" fill="none" stroke="currentColor" stroke-width="1.000000011920929" stroke-linecap="round" stroke-linejoin="round" />
  <line x1="64.69" y1="64.60" x2="64.69" y2="8.00" fill="none" stroke="currentColor" stroke-width="1.000000011920929" stroke-linecap="round" stroke-linejoin="round" />
  <rect x="177.99" y="55.96" width="8.64" height="8.64" fill="none" stroke="currentColor" stroke-width="1.000000011920929" stroke-linecap="round" stroke-linejoin="round" />
  <rect x="56.05" y="55.96" width="8.64" height="8.64" fill="none" stroke="currentColor" stroke-width="1.000000011920929" stroke-linecap="round" stroke-linejoin="round" />
  <rect x="112.65" y="55.96" width="8.64" height="8.64" fill="none" stroke="currentColor" stroke-width="1.000000011920929" stroke-linecap="round" stroke-linejoin="round" />
  <line x1="121.39" y1="64.60" x2="177.99" y2="64.60" fill="none" stroke="currentColor" stroke-width="1.4000000476837158" stroke-linecap="round" stroke-linejoin="round" />
  <line x1="8.00" y1="64.60" x2="64.69" y2="64.60" fill="none" stroke="currentColor" stroke-width="1.4000000476837158" stroke-linecap="round" stroke-linejoin="round" />
  <line x1="177.99" y1="64.60" x2="234.61" y2="64.60" fill="none" stroke="currentColor" stroke-width="1.4000000476837158" stroke-linecap="round" stroke-linejoin="round" />
  <line x1="64.69" y1="64.60" x2="121.29" y2="64.60" fill="none" stroke="currentColor" stroke-width="1.4000000476837158" stroke-linecap="round" stroke-linejoin="round" />
  <line x1="64.69" y1="64.60" x2="64.69" y2="80.16" fill="none" stroke="currentColor" stroke-width="1.0" stroke-linecap="round" stroke-linejoin="round" />
  <line x1="121.39" y1="64.60" x2="121.39" y2="80.16" fill="none" stroke="currentColor" stroke-width="1.0" stroke-linecap="round" stroke-linejoin="round" />
  <line x1="68.96" y1="76.11" x2="69.46" y2="74.61" fill="currentColor" stroke="currentColor" stroke-width="1.2" stroke-linecap="round" stroke-linejoin="round" />
  <line x1="69.46" y1="74.61" x2="64.96" y2="76.11" fill="currentColor" stroke="currentColor" stroke-width="1.2" stroke-linecap="round" stroke-linejoin="round" />
  <line x1="116.52" y1="74.61" x2="117.02" y2="76.11" fill="currentColor" stroke="currentColor" stroke-width="1.2" stroke-linecap="round" stroke-linejoin="round" />
  <line x1="121.02" y1="76.11" x2="116.52" y2="74.61" fill="currentColor" stroke="currentColor" stroke-width="1.2" stroke-linecap="round" stroke-linejoin="round" />
  <line x1="68.71" y1="76.11" x2="117.27" y2="76.11" fill="none" stroke="currentColor" stroke-width="1.0" stroke-linecap="round" stroke-linejoin="round" />
  <line x1="69.46" y1="77.61" x2="68.96" y2="76.11" fill="currentColor" stroke="currentColor" stroke-width="1.2" stroke-linecap="round" stroke-linejoin="round" />
  <line x1="64.96" y1="76.11" x2="69.46" y2="77.61" fill="currentColor" stroke="currentColor" stroke-width="1.2" stroke-linecap="round" stroke-linejoin="round" />
  <line x1="117.02" y1="76.11" x2="116.52" y2="77.61" fill="currentColor" stroke="currentColor" stroke-width="1.2" stroke-linecap="round" stroke-linejoin="round" />
  <line x1="116.52" y1="77.61" x2="121.02" y2="76.11" fill="currentColor" stroke="currentColor" stroke-width="1.2" stroke-linecap="round" stroke-linejoin="round" />
  <line x1="83.59" y1="78.47" x2="86.66" y2="78.47" fill="currentColor" stroke="currentColor" stroke-width="1.2" stroke-linecap="round" stroke-linejoin="round" />
  <path d="M86.66,78.47 C86.69,78.47 86.72,78.48 86.75,78.49" fill="currentColor" stroke="currentColor" stroke-width="1.2" stroke-linecap="round" stroke-linejoin="round" />
  <path d="M83.35,78.55 C83.40,78.50 83.48,78.47 83.59,78.47" fill="currentColor" stroke="currentColor" stroke-width="1.2" stroke-linecap="round" stroke-linejoin="round" />
  <path d="M86.75,78.49 C86.77,78.51 86.80,78.53 86.81,78.57" fill="currentColor" stroke="currentColor" stroke-width="1.2" stroke-linecap="round" stroke-linejoin="round" />
  <path d="M86.81,78.57 C86.83,78.60 86.85,78.64 86.85,78.69" fill="currentColor" stroke="currentColor" stroke-width="1.2" stroke-linecap="round" stroke-linejoin="round" />
  <path d="M83.26,78.82 C83.26,78.70 83.29,78.61 83.35,78.55" fill="currentColor" stroke="currentColor" stroke-width="1.2" stroke-linecap="round" stroke-linejoin="round" />
  <path d="M86.85,78.69 C86.86,78.74 86.87,78.80 86.87,78.87" fill="currentColor" stroke="currentColor" stroke-width="1.2" stroke-linecap="round" stroke-linejoin="round" />
  <path d="M86.87,78.87 C86.87,78.99 86.85,79.10 86.81,79.17" fill="currentColor" stroke="currentColor" stroke-width="1.2" stroke-linecap="round" stroke-linejoin="round" />
  <path d="M86.81,79.17 C86.78,79.24 86.73,79.27 86.66,79.27" fill="currentColor" stroke="currentColor" stroke-width="1.2" stroke-linecap="round" stroke-linejoin="round" />
  <line x1="86.66" y1="79.27" x2="84.07" y2="79.27" fill="currentColor" stroke="currentColor" stroke-width="1.2" stroke-linecap="round" stroke-linejoin="round" />
  <line x1="83.26" y1="81.65" x2="83.26" y2="78.82" fill="currentColor" stroke="currentColor" stroke-width="1.2" stroke-linecap="round" stroke-linejoin="round" />
  <path d="M101.03,80.26 C101.16,80.23 101.28,80.21 101.41,80.21" fill="currentColor" stroke="currentColor" stroke-width="1.2" stroke-linecap="round" stroke-linejoin="round" />
  <path d="M93.17,80.22 C93.32,80.22 93.47,80.23 93.62,80.26" fill="currentColor" stroke="currentColor" stroke-width="1.2" stroke-linecap="round" stroke-linejoin="round" />
  <path d="M98.27,80.21 C98.47,80.21 98.65,80.23 98.81,80.28" fill="currentColor" stroke="currentColor" stroke-width="1.2" stroke-linecap="round" stroke-linejoin="round" />
  <line x1="84.07" y1="79.27" x2="84.07" y2="81.22" fill="currentColor" stroke="currentColor" stroke-width="1.2" stroke-linecap="round" stroke-linejoin="round" />
  <path d="M96.11,80.29 C96.16,80.29 96.22,80.29 96.31,80.29" fill="currentColor" stroke="currentColor" stroke-width="1.2" stroke-linecap="round" stroke-linejoin="round" />
  <path d="M96.31,80.29 C96.38,80.29 96.45,80.29 96.50,80.29" fill="currentColor" stroke="currentColor" stroke-width="1.2" stroke-linecap="round" stroke-linejoin="round" />
  <path d="M101.41,80.21 C101.72,80.21 101.99,80.26 102.20,80.37" fill="currentColor" stroke="currentColor" stroke-width="1.2" stroke-linecap="round" stroke-linejoin="round" />
  <path d="M92.28,80.37 C92.55,80.27 92.85,80.22 93.17,80.22" fill="currentColor" stroke="currentColor" stroke-width="1.2" stroke-linecap="round" stroke-linejoin="round" />
  <path d="M95.98,80.33 C96.02,80.31 96.06,80.30 96.11,80.29" fill="currentColor" stroke="currentColor" stroke-width="1.2" stroke-linecap="round" stroke-linejoin="round" />
  <path d="M96.50,80.29 C96.55,80.30 96.59,80.31 96.62,80.33" fill="currentColor" stroke="currentColor" stroke-width="1.2" stroke-linecap="round" stroke-linejoin="round" />
  <path d="M93.62,80.26 C93.76,80.29 93.90,80.32 94.02,80.37" fill="currentColor" stroke="currentColor" stroke-width="1.2" stroke-linecap="round" stroke-linejoin="round" />
  <path d="M97.49,80.42 C97.75,80.28 98.01,80.21 98.27,80.21" fill="currentColor" stroke="currentColor" stroke-width="1.2" stroke-linecap="round" stroke-linejoin="round" />
  <path d="M100.64,80.42 C100.77,80.35 100.90,80.29 101.03,80.26" fill="currentColor" stroke="currentColor" stroke-width="1.2" stroke-linecap="round" stroke-linejoin="round" />
  <path d="M95.92,80.38 C95.93,80.36 95.95,80.34 95.98,80.33" fill="currentColor" stroke="currentColor" stroke-width="1.2" stroke-linecap="round" stroke-linejoin="round" />
  <path d="M96.62,80.33 C96.65,80.34 96.67,80.36 96.68,80.38" fill="currentColor" stroke="currentColor" stroke-width="1.2" stroke-linecap="round" stroke-linejoin="round" />
  <path d="M98.81,80.28 C98.97,80.33 99.11,80.39 99.23,80.48" fill="currentColor" stroke="currentColor" stroke-width="1.2" stroke-linecap="round" stroke-linejoin="round" />
  <path d="M95.90,80.45 C95.90,80.42 95.91,80.40 95.92,80.38" fill="currentColor" stroke="currentColor" stroke-width="1.2" stroke-linecap="round" stroke-linejoin="round" />
  <path d="M96.68,80.38 C96.70,80.40 96.70,80.42 96.70,80.45" fill="currentColor" stroke="currentColor" stroke-width="1.2" stroke-linecap="round" stroke-linejoin="round" />
  <path d="M94.02,80.37 C94.14,80.42 94.25,80.47 94.34,80.53" fill="currentColor" stroke="currentColor" stroke-width="1.2" stroke-linecap="round" stroke-linejoin="round" />
  <path d="M100.22,80.72 C100.36,80.60 100.50,80.50 100.64,80.42" fill="currentColor" stroke="currentColor" stroke-width="1.2" stroke-linecap="round" stroke-linejoin="round" />
  <path d="M102.20,80.37 C102.41,80.48 102.58,80.63 102.71,80.81" fill="currentColor" stroke="currentColor" stroke-width="1.2" stroke-linecap="round" stroke-linejoin="round" />
  <path d="M94.34,80.53 C94.44,80.59 94.51,80.64 94.55,80.69" fill="currentColor" stroke="currentColor" stroke-width="1.2" stroke-linecap="round" stroke-linejoin="round" />
  <path d="M91.57,80.86 C91.77,80.64 92.01,80.48 92.28,80.37" fill="currentColor" stroke="currentColor" stroke-width="1.2" stroke-linecap="round" stroke-linejoin="round" />
  <path d="M99.23,80.48 C99.35,80.56 99.46,80.66 99.54,80.78" fill="currentColor" stroke="currentColor" stroke-width="1.2" stroke-linecap="round" stroke-linejoin="round" />
  <path d="M94.55,80.69 C94.59,80.73 94.62,80.76 94.64,80.79" fill="currentColor" stroke="currentColor" stroke-width="1.2" stroke-linecap="round" stroke-linejoin="round" />
  <path d="M96.70,81.09 C96.97,80.79 97.24,80.56 97.49,80.42" fill="currentColor" stroke="currentColor" stroke-width="1.2" stroke-linecap="round" stroke-linejoin="round" />
  <line x1="96.70" y1="80.45" x2="96.70" y2="81.09" fill="currentColor" stroke="currentColor" stroke-width="1.2" stroke-linecap="round" stroke-linejoin="round" />
  <path d="M94.64,80.79 C94.65,80.81 94.67,80.84 94.68,80.88" fill="currentColor" stroke="currentColor" stroke-width="1.2" stroke-linecap="round" stroke-linejoin="round" />
  <path d="M94.68,80.88 C94.69,80.91 94.70,80.95 94.70,80.99" fill="currentColor" stroke="currentColor" stroke-width="1.2" stroke-linecap="round" stroke-linejoin="round" />
  <path d="M99.76,81.17 C99.92,80.99 100.07,80.84 100.22,80.72" fill="currentColor" stroke="currentColor" stroke-width="1.2" stroke-linecap="round" stroke-linejoin="round" />
  <path d="M99.54,80.78 C99.63,80.89 99.70,81.02 99.76,81.17" fill="currentColor" stroke="currentColor" stroke-width="1.2" stroke-linecap="round" stroke-linejoin="round" />
  <path d="M93.70,81.05 C93.55,80.99 93.37,80.96 93.16,80.96" fill="currentColor" stroke="currentColor" stroke-width="1.2" stroke-linecap="round" stroke-linejoin="round" />
  <path d="M101.65,81.07 C101.53,81.01 101.39,80.98 101.22,80.98" fill="currentColor" stroke="currentColor" stroke-width="1.2" stroke-linecap="round" stroke-linejoin="round" />
  <path d="M98.51,81.07 C98.39,81.01 98.25,80.98 98.08,80.98" fill="currentColor" stroke="currentColor" stroke-width="1.2" stroke-linecap="round" stroke-linejoin="round" />
  <path d="M94.70,80.99 C94.70,81.04 94.70,81.09 94.70,81.16" fill="currentColor" stroke="currentColor" stroke-width="1.2" stroke-linecap="round" stroke-linejoin="round" />
  <path d="M101.22,80.98 C101.02,80.98 100.82,81.06 100.61,81.21" fill="currentColor" stroke="currentColor" stroke-width="1.2" stroke-linecap="round" stroke-linejoin="round" />
  <path d="M98.08,80.98 C97.88,80.98 97.67,81.06 97.47,81.21" fill="currentColor" stroke="currentColor" stroke-width="1.2" stroke-linecap="round" stroke-linejoin="round" />
  <path d="M102.71,80.81 C102.84,80.99 102.93,81.21 102.99,81.45" fill="currentColor" stroke="currentColor" stroke-width="1.2" stroke-linecap="round" stroke-linejoin="round" />
  <path d="M94.09,81.25 C93.98,81.17 93.85,81.11 93.70,81.05" fill="currentColor" stroke="currentColor" stroke-width="1.2" stroke-linecap="round" stroke-linejoin="round" />
  <path d="M84.45,81.19 C84.58,81.19 84.74,81.19 84.91,81.19" fill="currentColor" stroke="currentColor" stroke-width="1.2" stroke-linecap="round" stroke-linejoin="round" />
  <path d="M93.16,80.96 C92.73,80.96 92.40,81.13 92.18,81.45" fill="currentColor" stroke="currentColor" stroke-width="1.2" stroke-linecap="round" stroke-linejoin="round" />
  <path d="M84.07,81.22 C84.20,81.21 84.32,81.20 84.45,81.19" fill="currentColor" stroke="currentColor" stroke-width="1.2" stroke-linecap="round" stroke-linejoin="round" />
  <path d="M101.96,81.35 C101.88,81.23 101.78,81.14 101.65,81.07" fill="currentColor" stroke="currentColor" stroke-width="1.2" stroke-linecap="round" stroke-linejoin="round" />
  <path d="M98.81,81.35 C98.73,81.23 98.63,81.14 98.51,81.07" fill="currentColor" stroke="currentColor" stroke-width="1.2" stroke-linecap="round" stroke-linejoin="round" />
  <path d="M84.91,81.19 C85.31,81.19 85.65,81.23 85.95,81.33" fill="currentColor" stroke="currentColor" stroke-width="1.2" stroke-linecap="round" stroke-linejoin="round" />
  <path d="M91.09,81.70 C91.20,81.36 91.36,81.08 91.57,80.86" fill="currentColor" stroke="currentColor" stroke-width="1.2" stroke-linecap="round" stroke-linejoin="round" />
  <path d="M94.70,81.16 C94.70,81.29 94.69,81.39 94.66,81.45" fill="currentColor" stroke="currentColor" stroke-width="1.2" stroke-linecap="round" stroke-linejoin="round" />
  <path d="M94.35,81.44 C94.28,81.38 94.19,81.32 94.09,81.25" fill="currentColor" stroke="currentColor" stroke-width="1.2" stroke-linecap="round" stroke-linejoin="round" />
  <path d="M94.54,81.53 C94.48,81.53 94.42,81.50 94.35,81.44" fill="currentColor" stroke="currentColor" stroke-width="1.2" stroke-linecap="round" stroke-linejoin="round" />
  <path d="M94.66,81.45 C94.62,81.50 94.58,81.53 94.54,81.53" fill="currentColor" stroke="currentColor" stroke-width="1.2" stroke-linecap="round" stroke-linejoin="round" />
  <path d="M85.95,81.33 C86.25,81.42 86.49,81.56 86.69,81.73" fill="currentColor" stroke="currentColor" stroke-width="1.2" stroke-linecap="round" stroke-linejoin="round" />
  <path d="M100.61,81.21 C100.40,81.37 100.18,81.60 99.93,81.91" fill="currentColor" stroke="currentColor" stroke-width="1.2" stroke-linecap="round" stroke-linejoin="round" />
  <path d="M97.47,81.21 C97.26,81.37 97.03,81.60 96.79,81.91" fill="currentColor" stroke="currentColor" stroke-width="1.2" stroke-linecap="round" stroke-linejoin="round" />
  <path d="M102.13,81.79 C102.09,81.62 102.03,81.48 101.96,81.35" fill="currentColor" stroke="currentColor" stroke-width="1.2" stroke-linecap="round" stroke-linejoin="round" />
  <path d="M98.99,81.79 C98.95,81.62 98.89,81.48 98.81,81.35" fill="currentColor" stroke="currentColor" stroke-width="1.2" stroke-linecap="round" stroke-linejoin="round" />
  <path d="M83.33,81.92 C83.29,81.87 83.26,81.78 83.26,81.65" fill="currentColor" stroke="currentColor" stroke-width="1.2" stroke-linecap="round" stroke-linejoin="round" />
  <path d="M102.99,81.45 C103.04,81.70 103.07,81.96 103.07,82.23" fill="currentColor" stroke="currentColor" stroke-width="1.2" stroke-linecap="round" stroke-linejoin="round" />
  <path d="M84.55,81.92 C84.33,81.92 84.14,81.93 83.98,81.96" fill="currentColor" stroke="currentColor" stroke-width="1.2" stroke-linecap="round" stroke-linejoin="round" />
  <path d="M83.54,81.99 C83.44,81.99 83.37,81.96 83.33,81.92" fill="currentColor" stroke="currentColor" stroke-width="1.2" stroke-linecap="round" stroke-linejoin="round" />
  <path d="M85.34,82.01 C85.12,81.95 84.86,81.92 84.55,81.92" fill="currentColor" stroke="currentColor" stroke-width="1.2" stroke-linecap="round" stroke-linejoin="round" />
  <path d="M83.98,81.96 C83.83,81.98 83.68,81.99 83.54,81.99" fill="currentColor" stroke="currentColor" stroke-width="1.2" stroke-linecap="round" stroke-linejoin="round" />
  <path d="M86.69,81.73 C86.89,81.91 87.04,82.12 87.14,82.36" fill="currentColor" stroke="currentColor" stroke-width="1.2" stroke-linecap="round" stroke-linejoin="round" />
  <path d="M102.18,82.35 C102.18,82.14 102.16,81.96 102.13,81.79" fill="currentColor" stroke="currentColor" stroke-width="1.2" stroke-linecap="round" stroke-linejoin="round" />
  <path d="M99.04,82.35 C99.04,82.14 99.02,81.96 98.99,81.79" fill="currentColor" stroke="currentColor" stroke-width="1.2" stroke-linecap="round" stroke-linejoin="round" />
  <path d="M85.89,82.26 C85.75,82.15 85.56,82.06 85.34,82.01" fill="currentColor" stroke="currentColor" stroke-width="1.2" stroke-linecap="round" stroke-linejoin="round" />
  <path d="M92.18,81.45 C91.95,81.78 91.84,82.26 91.84,82.88" fill="currentColor" stroke="currentColor" stroke-width="1.2" stroke-linecap="round" stroke-linejoin="round" />
  <path d="M90.91,82.93 C90.91,82.45 90.97,82.04 91.09,81.70" fill="currentColor" stroke="currentColor" stroke-width="1.2" stroke-linecap="round" stroke-linejoin="round" />
  <path d="M86.22,82.68 C86.15,82.51 86.04,82.37 85.89,82.26" fill="currentColor" stroke="currentColor" stroke-width="1.2" stroke-linecap="round" stroke-linejoin="round" />
  <path d="M87.14,82.36 C87.25,82.61 87.30,82.88 87.30,83.18" fill="currentColor" stroke="currentColor" stroke-width="1.2" stroke-linecap="round" stroke-linejoin="round" />
  <line x1="95.90" y1="85.29" x2="95.90" y2="80.45" fill="currentColor" stroke="currentColor" stroke-width="1.2" stroke-linecap="round" stroke-linejoin="round" />
  <path d="M86.32,83.27 C86.32,83.05 86.29,82.85 86.22,82.68" fill="currentColor" stroke="currentColor" stroke-width="1.2" stroke-linecap="round" stroke-linejoin="round" />
  <path d="M91.84,82.88 C91.84,83.19 91.87,83.46 91.93,83.70" fill="currentColor" stroke="currentColor" stroke-width="1.2" stroke-linecap="round" stroke-linejoin="round" />
  <path d="M91.06,84.04 C90.96,83.72 90.91,83.35 90.91,82.93" fill="currentColor" stroke="currentColor" stroke-width="1.2" stroke-linecap="round" stroke-linejoin="round" />
  <line x1="99.93" y1="81.91" x2="99.93" y2="85.29" fill="currentColor" stroke="currentColor" stroke-width="1.2" stroke-linecap="round" stroke-linejoin="round" />
  <line x1="96.79" y1="81.91" x2="96.79" y2="85.29" fill="currentColor" stroke="currentColor" stroke-width="1.2" stroke-linecap="round" stroke-linejoin="round" />
  <path d="M86.20,83.94 C86.28,83.76 86.32,83.54 86.32,83.27" fill="currentColor" stroke="currentColor" stroke-width="1.2" stroke-linecap="round" stroke-linejoin="round" />
  <path d="M87.30,83.18 C87.30,83.56 87.24,83.89 87.11,84.18" fill="currentColor" stroke="currentColor" stroke-width="1.2" stroke-linecap="round" stroke-linejoin="round" />
  <line x1="103.07" y1="82.23" x2="103.07" y2="85.29" fill="currentColor" stroke="currentColor" stroke-width="1.2" stroke-linecap="round" stroke-linejoin="round" />
  <line x1="102.18" y1="85.29" x2="102.18" y2="82.35" fill="currentColor" stroke="currentColor" stroke-width="1.2" stroke-linecap="round" stroke-linejoin="round" />
  <line x1="99.04" y1="85.29" x2="99.04" y2="82.35" fill="currentColor" stroke="currentColor" stroke-width="1.2" stroke-linecap="round" stroke-linejoin="round" />
  <path d="M91.93,83.70 C91.98,83.93 92.07,84.13 92.19,84.29" fill="currentColor" stroke="currentColor" stroke-width="1.2" stroke-linecap="round" stroke-linejoin="round" />
  <path d="M94.58,84.14 C94.61,84.14 94.63,84.15 94.65,84.16" fill="currentColor" stroke="currentColor" stroke-width="1.2" stroke-linecap="round" stroke-linejoin="round" />
  <path d="M85.86,84.40 C86.00,84.28 86.11,84.13 86.20,83.94" fill="currentColor" stroke="currentColor" stroke-width="1.2" stroke-linecap="round" stroke-linejoin="round" />
  <path d="M94.40,84.24 C94.48,84.17 94.54,84.14 94.58,84.14" fill="currentColor" stroke="currentColor" stroke-width="1.2" stroke-linecap="round" stroke-linejoin="round" />
  <path d="M94.65,84.16 C94.66,84.18 94.68,84.20 94.69,84.24" fill="currentColor" stroke="currentColor" stroke-width="1.2" stroke-linecap="round" stroke-linejoin="round" />
  <path d="M94.69,84.24 C94.70,84.27 94.71,84.31 94.72,84.36" fill="currentColor" stroke="currentColor" stroke-width="1.2" stroke-linecap="round" stroke-linejoin="round" />
  <path d="M83.00,84.35 C83.02,84.34 83.04,84.33 83.07,84.33" fill="currentColor" stroke="currentColor" stroke-width="1.2" stroke-linecap="round" stroke-linejoin="round" />
  <path d="M94.12,84.44 C94.23,84.37 94.32,84.30 94.40,84.24" fill="currentColor" stroke="currentColor" stroke-width="1.2" stroke-linecap="round" stroke-linejoin="round" />
  <path d="M83.07,84.33 C83.10,84.33 83.16,84.35 83.23,84.40" fill="currentColor" stroke="currentColor" stroke-width="1.2" stroke-linecap="round" stroke-linejoin="round" />
  <path d="M82.95,84.42 C82.96,84.39 82.98,84.36 83.00,84.35" fill="currentColor" stroke="currentColor" stroke-width="1.2" stroke-linecap="round" stroke-linejoin="round" />
  <path d="M91.47,84.85 C91.29,84.63 91.15,84.36 91.06,84.04" fill="currentColor" stroke="currentColor" stroke-width="1.2" stroke-linecap="round" stroke-linejoin="round" />
  <path d="M94.72,84.36 C94.72,84.42 94.73,84.48 94.73,84.55" fill="currentColor" stroke="currentColor" stroke-width="1.2" stroke-linecap="round" stroke-linejoin="round" />
  <path d="M92.19,84.29 C92.30,84.44 92.44,84.56 92.61,84.64" fill="currentColor" stroke="currentColor" stroke-width="1.2" stroke-linecap="round" stroke-linejoin="round" />
  <path d="M83.23,84.40 C83.31,84.44 83.41,84.49 83.54,84.54" fill="currentColor" stroke="currentColor" stroke-width="1.2" stroke-linecap="round" stroke-linejoin="round" />
  <path d="M82.92,84.54 C82.92,84.49 82.93,84.45 82.95,84.42" fill="currentColor" stroke="currentColor" stroke-width="1.2" stroke-linecap="round" stroke-linejoin="round" />
  <path d="M85.34,84.67 C85.54,84.61 85.71,84.53 85.86,84.40" fill="currentColor" stroke="currentColor" stroke-width="1.2" stroke-linecap="round" stroke-linejoin="round" />
  <path d="M87.11,84.18 C86.98,84.47 86.81,84.71 86.58,84.91" fill="currentColor" stroke="currentColor" stroke-width="1.2" stroke-linecap="round" stroke-linejoin="round" />
  <path d="M93.72,84.66 C93.87,84.59 94.00,84.52 94.12,84.44" fill="currentColor" stroke="currentColor" stroke-width="1.2" stroke-linecap="round" stroke-linejoin="round" />
  <path d="M83.54,84.54 C83.66,84.59 83.82,84.64 84.01,84.69" fill="currentColor" stroke="currentColor" stroke-width="1.2" stroke-linecap="round" stroke-linejoin="round" />
  <path d="M82.91,84.70 C82.91,84.64 82.91,84.58 82.92,84.54" fill="currentColor" stroke="currentColor" stroke-width="1.2" stroke-linecap="round" stroke-linejoin="round" />
  <path d="M94.73,84.55 C94.73,84.61 94.72,84.66 94.72,84.71" fill="currentColor" stroke="currentColor" stroke-width="1.2" stroke-linecap="round" stroke-linejoin="round" />
  <path d="M92.61,84.64 C92.77,84.72 92.96,84.75 93.18,84.75" fill="currentColor" stroke="currentColor" stroke-width="1.2" stroke-linecap="round" stroke-linejoin="round" />
  <path d="M93.18,84.75 C93.38,84.75 93.56,84.72 93.72,84.66" fill="currentColor" stroke="currentColor" stroke-width="1.2" stroke-linecap="round" stroke-linejoin="round" />
  <path d="M84.68,84.76 C84.92,84.76 85.14,84.73 85.34,84.67" fill="currentColor" stroke="currentColor" stroke-width="1.2" stroke-linecap="round" stroke-linejoin="round" />
  <path d="M84.01,84.69 C84.20,84.74 84.42,84.76 84.68,84.76" fill="currentColor" stroke="currentColor" stroke-width="1.2" stroke-linecap="round" stroke-linejoin="round" />
  <path d="M94.72,84.71 C94.72,84.75 94.71,84.79 94.70,84.82" fill="currentColor" stroke="currentColor" stroke-width="1.2" stroke-linecap="round" stroke-linejoin="round" />
  <path d="M82.92,84.87 C82.91,84.82 82.91,84.76 82.91,84.70" fill="currentColor" stroke="currentColor" stroke-width="1.2" stroke-linecap="round" stroke-linejoin="round" />
  <path d="M94.70,84.82 C94.69,84.85 94.68,84.88 94.67,84.90" fill="currentColor" stroke="currentColor" stroke-width="1.2" stroke-linecap="round" stroke-linejoin="round" />
  <path d="M82.93,84.98 C82.93,84.95 82.92,84.91 82.92,84.87" fill="currentColor" stroke="currentColor" stroke-width="1.2" stroke-linecap="round" stroke-linejoin="round" />
  <path d="M94.67,84.90 C94.66,84.92 94.63,84.96 94.58,85.00" fill="currentColor" stroke="currentColor" stroke-width="1.2" stroke-linecap="round" stroke-linejoin="round" />
  <path d="M82.96,85.06 C82.95,85.04 82.94,85.01 82.93,84.98" fill="currentColor" stroke="currentColor" stroke-width="1.2" stroke-linecap="round" stroke-linejoin="round" />
  <path d="M94.58,85.00 C94.54,85.05 94.46,85.10 94.36,85.17" fill="currentColor" stroke="currentColor" stroke-width="1.2" stroke-linecap="round" stroke-linejoin="round" />
  <path d="M83.02,85.13 C82.99,85.10 82.97,85.08 82.96,85.06" fill="currentColor" stroke="currentColor" stroke-width="1.2" stroke-linecap="round" stroke-linejoin="round" />
  <path d="M92.14,85.35 C91.87,85.24 91.65,85.07 91.47,84.85" fill="currentColor" stroke="currentColor" stroke-width="1.2" stroke-linecap="round" stroke-linejoin="round" />
  <path d="M86.58,84.91 C86.35,85.11 86.08,85.26 85.76,85.36" fill="currentColor" stroke="currentColor" stroke-width="1.2" stroke-linecap="round" stroke-linejoin="round" />
  <path d="M83.21,85.23 C83.11,85.19 83.05,85.15 83.02,85.13" fill="currentColor" stroke="currentColor" stroke-width="1.2" stroke-linecap="round" stroke-linejoin="round" />
  <path d="M94.36,85.17 C94.25,85.24 94.13,85.30 93.99,85.35" fill="currentColor" stroke="currentColor" stroke-width="1.2" stroke-linecap="round" stroke-linejoin="round" />
  <path d="M83.58,85.36 C83.43,85.32 83.30,85.27 83.21,85.23" fill="currentColor" stroke="currentColor" stroke-width="1.2" stroke-linecap="round" stroke-linejoin="round" />
  <path d="M103.07,85.29 C103.07,85.31 103.07,85.34 103.05,85.36" fill="currentColor" stroke="currentColor" stroke-width="1.2" stroke-linecap="round" stroke-linejoin="round" />
  <path d="M102.20,85.36 C102.19,85.34 102.18,85.31 102.18,85.29" fill="currentColor" stroke="currentColor" stroke-width="1.2" stroke-linecap="round" stroke-linejoin="round" />
  <path d="M99.93,85.29 C99.93,85.31 99.92,85.34 99.91,85.36" fill="currentColor" stroke="currentColor" stroke-width="1.2" stroke-linecap="round" stroke-linejoin="round" />
  <path d="M99.06,85.36 C99.05,85.34 99.04,85.31 99.04,85.29" fill="currentColor" stroke="currentColor" stroke-width="1.2" stroke-linecap="round" stroke-linejoin="round" />
  <path d="M96.79,85.29 C96.79,85.31 96.78,85.34 96.77,85.36" fill="currentColor" stroke="currentColor" stroke-width="1.2" stroke-linecap="round" stroke-linejoin="round" />
  <path d="M95.92,85.36 C95.91,85.34 95.90,85.31 95.90,85.29" fill="currentColor" stroke="currentColor" stroke-width="1.2" stroke-linecap="round" stroke-linejoin="round" />
  <path d="M103.05,85.36 C103.04,85.38 103.01,85.39 102.98,85.41" fill="currentColor" stroke="currentColor" stroke-width="1.2" stroke-linecap="round" stroke-linejoin="round" />
  <path d="M102.27,85.41 C102.24,85.39 102.22,85.38 102.20,85.36" fill="currentColor" stroke="currentColor" stroke-width="1.2" stroke-linecap="round" stroke-linejoin="round" />
  <path d="M99.91,85.36 C99.89,85.38 99.87,85.39 99.84,85.41" fill="currentColor" stroke="currentColor" stroke-width="1.2" stroke-linecap="round" stroke-linejoin="round" />
  <path d="M99.13,85.41 C99.10,85.39 99.08,85.38 99.06,85.36" fill="currentColor" stroke="currentColor" stroke-width="1.2" stroke-linecap="round" stroke-linejoin="round" />
  <path d="M96.77,85.36 C96.75,85.38 96.73,85.39 96.70,85.41" fill="currentColor" stroke="currentColor" stroke-width="1.2" stroke-linecap="round" stroke-linejoin="round" />
  <path d="M95.99,85.41 C95.96,85.39 95.93,85.38 95.92,85.36" fill="currentColor" stroke="currentColor" stroke-width="1.2" stroke-linecap="round" stroke-linejoin="round" />
  <path d="M93.99,85.35 C93.86,85.40 93.71,85.44 93.56,85.47" fill="currentColor" stroke="currentColor" stroke-width="1.2" stroke-linecap="round" stroke-linejoin="round" />
  <path d="M84.09,85.47 C83.90,85.44 83.73,85.41 83.58,85.36" fill="currentColor" stroke="currentColor" stroke-width="1.2" stroke-linecap="round" stroke-linejoin="round" />
  <path d="M102.98,85.41 C102.95,85.42 102.90,85.43 102.85,85.44" fill="currentColor" stroke="currentColor" stroke-width="1.2" stroke-linecap="round" stroke-linejoin="round" />
  <path d="M102.41,85.44 C102.35,85.43 102.31,85.42 102.27,85.41" fill="currentColor" stroke="currentColor" stroke-width="1.2" stroke-linecap="round" stroke-linejoin="round" />
  <path d="M99.84,85.41 C99.80,85.42 99.76,85.43 99.70,85.44" fill="currentColor" stroke="currentColor" stroke-width="1.2" stroke-linecap="round" stroke-linejoin="round" />
  <path d="M99.27,85.44 C99.21,85.43 99.17,85.42 99.13,85.41" fill="currentColor" stroke="currentColor" stroke-width="1.2" stroke-linecap="round" stroke-linejoin="round" />
  <path d="M96.70,85.41 C96.66,85.42 96.62,85.43 96.56,85.44" fill="currentColor" stroke="currentColor" stroke-width="1.2" stroke-linecap="round" stroke-linejoin="round" />
  <path d="M96.13,85.44 C96.07,85.43 96.02,85.42 95.99,85.41" fill="currentColor" stroke="currentColor" stroke-width="1.2" stroke-linecap="round" stroke-linejoin="round" />
  <path d="M93.07,85.52 C92.72,85.52 92.41,85.46 92.14,85.35" fill="currentColor" stroke="currentColor" stroke-width="1.2" stroke-linecap="round" stroke-linejoin="round" />
  <path d="M85.76,85.36 C85.44,85.47 85.09,85.52 84.70,85.52" fill="currentColor" stroke="currentColor" stroke-width="1.2" stroke-linecap="round" stroke-linejoin="round" />
  <path d="M102.85,85.44 C102.79,85.45 102.72,85.45 102.63,85.45" fill="currentColor" stroke="currentColor" stroke-width="1.2" stroke-linecap="round" stroke-linejoin="round" />
  <path d="M102.63,85.45 C102.54,85.45 102.47,85.45 102.41,85.44" fill="currentColor" stroke="currentColor" stroke-width="1.2" stroke-linecap="round" stroke-linejoin="round" />
  <path d="M99.70,85.44 C99.64,85.45 99.57,85.45 99.48,85.45" fill="currentColor" stroke="currentColor" stroke-width="1.2" stroke-linecap="round" stroke-linejoin="round" />
  <path d="M99.48,85.45 C99.40,85.45 99.33,85.45 99.27,85.44" fill="currentColor" stroke="currentColor" stroke-width="1.2" stroke-linecap="round" stroke-linejoin="round" />
  <path d="M96.56,85.44 C96.51,85.45 96.43,85.45 96.34,85.45" fill="currentColor" stroke="currentColor" stroke-width="1.2" stroke-linecap="round" stroke-linejoin="round" />
  <path d="M96.34,85.45 C96.26,85.45 96.19,85.45 96.13,85.44" fill="currentColor" stroke="currentColor" stroke-width="1.2" stroke-linecap="round" stroke-linejoin="round" />
  <path d="M93.56,85.47 C93.40,85.51 93.23,85.52 93.07,85.52" fill="currentColor" stroke="currentColor" stroke-width="1.2" stroke-linecap="round" stroke-linejoin="round" />
  <path d="M84.70,85.52 C84.49,85.52 84.28,85.51 84.09,85.47" fill="currentColor" stroke="currentColor" stroke-width="1.2" stroke-linecap="round" stroke-linejoin="round" />
</svg>