<svg xmlns="http://www.w3.org/2000/svg" viewBox="0 0 111.18 63.04" preserveAspectRatio="xMidYMid meet" shape-rendering="geometricPrecision" text-rendering="optimizeLegibility">
  <rect x="16.46" y="8.00" width="7.08" height="7.08" fill="none" stroke="currentColor" stroke-width="1.000000011920929" stroke-linecap="round" stroke-linejoin="round" />
  <rect x="96.10" y="8.00" width="7.08" height="7.08" fill="none" stroke="currentColor" stroke-width="1.000000011920929" stroke-linecap="round" stroke-linejoin="round" />
  <path d="M9.53,24.28 C9.63,24.28 9.71,24.29 9.77,24.29" fill="currentColor" stroke="currentColor" stroke-width="1.2" stroke-linecap="round" stroke-linejoin="round" />
  <path d="M12.52,24.29 C12.58,24.29 12.66,24.28 12.76,24.28" fill="currentColor" stroke="currentColor" stroke-width="1.2" stroke-linecap="round" stroke-linejoin="round" />
  <path d="M9.26,24.29 C9.33,24.29 9.42,24.28 9.53,24.28" fill="currentColor" stroke="currentColor" stroke-width="1.2" stroke-linecap="round" stroke-linejoin="round" />
  <path d="M12.76,24.28 C12.86,24.28 12.95,24.29 13.02,24.29" fill="currentColor" stroke="currentColor" stroke-width="1.2" stroke-linecap="round" stroke-linejoin="round" />
  <path d="M9.77,24.29 C9.83,24.30 9.87,24.31 9.90,24.32" fill="currentColor" stroke="currentColor" stroke-width="1.2" stroke-linecap="round" stroke-linejoin="round" />
  <path d="M12.37,24.32 C12.41,24.31 12.46,24.30 12.52,24.29" fill="currentColor" stroke="currentColor" stroke-width="1.2" stroke-linecap="round" stroke-linejoin="round" />
  <path d="M13.02,24.29 C13.09,24.30 13.14,24.31 13.17,24.33" fill="currentColor" stroke="currentColor" stroke-width="1.2" stroke-linecap="round" stroke-linejoin="round" />
  <path d="M9.11,24.34 C9.15,24.32 9.20,24.30 9.26,24.29" fill="currentColor" stroke="currentColor" stroke-width="1.2" stroke-linecap="round" stroke-linejoin="round" />
  <path d="M9.90,24.32 C9.93,24.33 9.95,24.34 9.97,24.36" fill="currentColor" stroke="currentColor" stroke-width="1.2" stroke-linecap="round" stroke-linejoin="round" />
  <path d="M12.28,24.36 C12.31,24.35 12.33,24.33 12.37,24.32" fill="currentColor" stroke="currentColor" stroke-width="1.2" stroke-linecap="round" stroke-linejoin="round" />
  <path d="M13.17,24.33 C13.20,24.35 13.22,24.38 13.21,24.41" fill="currentColor" stroke="currentColor" stroke-width="1.2" stroke-linecap="round" stroke-linejoin="round" />
  <path d="M9.06,24.42 C9.06,24.39 9.08,24.36 9.11,24.34" fill="currentColor" stroke="currentColor" stroke-width="1.2" stroke-linecap="round" stroke-linejoin="round" />
  <path d="M9.97,24.36 C9.98,24.38 9.99,24.40 10.00,24.42" fill="currentColor" stroke="currentColor" stroke-width="1.2" stroke-linecap="round" stroke-linejoin="round" />
  <path d="M12.22,24.42 C12.24,24.40 12.26,24.38 12.28,24.36" fill="currentColor" stroke="currentColor" stroke-width="1.2" stroke-linecap="round" stroke-linejoin="round" />
  <path d="M13.21,24.41 C13.20,24.44 13.18,24.49 13.13,24.54" fill="currentColor" stroke="currentColor" stroke-width="1.2" stroke-linecap="round" stroke-linejoin="round" />
  <path d="M9.08,24.55 C9.06,24.50 9.05,24.45 9.06,24.42" fill="currentColor" stroke="currentColor" stroke-width="1.2" stroke-linecap="round" stroke-linejoin="round" />
  <line x1="10.00" y1="24.42" x2="10.77" y2="26.23" fill="currentColor" stroke="currentColor" stroke-width="1.2" stroke-linecap="round" stroke-linejoin="round" />
  <line x1="10.77" y1="26.23" x2="12.22" y2="24.42" fill="currentColor" stroke="currentColor" stroke-width="1.2" stroke-linecap="round" stroke-linejoin="round" />
  <line x1="10.08" y1="26.80" x2="9.08" y2="24.55" fill="currentColor" stroke="currentColor" stroke-width="1.2" stroke-linecap="round" stroke-linejoin="round" />
  <line x1="13.13" y1="24.54" x2="11.25" y2="26.82" fill="currentColor" stroke="currentColor" stroke-width="1.2" stroke-linecap="round" stroke-linejoin="round" />
  <rect x="16.46" y="8.00" width="86.72" height="37.73" fill="none" stroke="currentColor" stroke-width="1.4000000476837158" stroke-linecap="round" stroke-linejoin="round" />
  <line x1="8.07" y1="29.19" x2="10.08" y2="26.80" fill="currentColor" stroke="currentColor" stroke-width="1.2" stroke-linecap="round" stroke-linejoin="round" />
  <line x1="11.25" y1="26.82" x2="12.30" y2="29.18" fill="currentColor" stroke="currentColor" stroke-width="1.2" stroke-linecap="round" stroke-linejoin="round" />
  <line x1="11.35" y1="29.30" x2="10.55" y2="27.39" fill="currentColor" stroke="currentColor" stroke-width="1.2" stroke-linecap="round" stroke-linejoin="round" />
  <line x1="10.55" y1="27.39" x2="9.03" y2="29.30" fill="currentColor" stroke="currentColor" stroke-width="1.2" stroke-linecap="round" stroke-linejoin="round" />
  <path d="M12.30,29.18 C12.32,29.23 12.33,29.27 12.32,29.31" fill="currentColor" stroke="currentColor" stroke-width="1.2" stroke-linecap="round" stroke-linejoin="round" />
  <path d="M8.01,29.31 C8.01,29.28 8.03,29.24 8.07,29.19" fill="currentColor" stroke="currentColor" stroke-width="1.2" stroke-linecap="round" stroke-linejoin="round" />
  <path d="M11.39,29.37 C11.38,29.35 11.36,29.33 11.35,29.30" fill="currentColor" stroke="currentColor" stroke-width="1.2" stroke-linecap="round" stroke-linejoin="round" />
  <path d="M9.03,29.30 C9.01,29.33 8.98,29.35 8.96,29.37" fill="currentColor" stroke="currentColor" stroke-width="1.2" stroke-linecap="round" stroke-linejoin="round" />
  <path d="M12.32,29.31 C12.32,29.34 12.30,29.37 12.26,29.39" fill="currentColor" stroke="currentColor" stroke-width="1.2" stroke-linecap="round" stroke-linejoin="round" />
  <path d="M8.04,29.39 C8.01,29.37 8.00,29.34 8.01,29.31" fill="currentColor" stroke="currentColor" stroke-width="1.2" stroke-linecap="round" stroke-linejoin="round" />
  <path d="M8.96,29.37 C8.94,29.39 8.90,29.40 8.86,29.41" fill="currentColor" stroke="currentColor" stroke-width="1.2" stroke-linecap="round" stroke-linejoin="round" />
  <path d="M11.45,29.42 C11.42,29.40 11.40,29.39 11.39,29.37" fill="currentColor" stroke="currentColor" stroke-width="1.2" stroke-linecap="round" stroke-linejoin="round" />
  <path d="M12.26,29.39 C12.22,29.41 12.16,29.43 12.09,29.44" fill="currentColor" stroke="currentColor" stroke-width="1.2" stroke-linecap="round" stroke-linejoin="round" />
  <path d="M8.19,29.44 C8.12,29.43 8.07,29.41 8.04,29.39" fill="currentColor" stroke="currentColor" stroke-width="1.2" stroke-linecap="round" stroke-linejoin="round" />
  <path d="M8.86,29.41 C8.82,29.42 8.76,29.43 8.70,29.44" fill="currentColor" stroke="currentColor" stroke-width="1.2" stroke-linecap="round" stroke-linejoin="round" />
  <path d="M11.58,29.44 C11.53,29.44 11.48,29.43 11.45,29.42" fill="currentColor" stroke="currentColor" stroke-width="1.2" stroke-linecap="round" stroke-linejoin="round" />
  <path d="M12.09,29.44 C12.02,29.45 11.93,29.45 11.82,29.45" fill="currentColor" stroke="currentColor" stroke-width="1.2" stroke-linecap="round" stroke-linejoin="round" />
  <path d="M8.44,29.45 C8.33,29.45 8.25,29.45 8.19,29.44" fill="currentColor" stroke="currentColor" stroke-width="1.2" stroke-linecap="round" stroke-linejoin="round" />
  <path d="M8.70,29.44 C8.63,29.45 8.54,29.45 8.44,29.45" fill="currentColor" stroke="currentColor" stroke-width="1.2" stroke-linecap="round" stroke-linejoin="round" />
  <path d="M11.82,29.45 C11.72,29.45 11.64,29.45 11.58,29.44" fill="currentColor" stroke="currentColor" stroke-width="1.2" stroke-linecap="round" stroke-linejoin="round" />
  <rect x="16.46" y="38.66" width="7.08" height="7.08" fill="none" stroke="currentColor" stroke-width="1.000000011920929" stroke-linecap="round" stroke-linejoin="round" />
  <rect x="96.10" y="38.66" width="7.08" height="7.08" fill="none" stroke="currentColor" stroke-width="1.000000011920929" stroke-linecap="round" stroke-linejoin="round" />
  <path d="M56.28,47.95 C56.47,47.91 56.69,47.88 56.92,47.88" fill="currentColor" stroke="currentColor" stroke-width="1.2" stroke-linecap="round" stroke-linejoin="round" />
  <path d="M56.92,47.88 C57.24,47.88 57.52,47.93 57.77,48.01" fill="currentColor" stroke="currentColor" stroke-width="1.2" stroke-linecap="round" stroke-linejoin="round" />
  <path d="M55.75,48.11 C55.90,48.04 56.08,47.99 56.28,47.95" fill="currentColor" stroke="currentColor" stroke-width="1.2" stroke-linecap="round" stroke-linejoin="round" />
  <path d="M57.77,48.01 C58.01,48.09 58.21,48.21 58.38,48.36" fill="currentColor" stroke="currentColor" stroke-width="1.2" stroke-linecap="round" stroke-linejoin="round" />
  <path d="M55.37,48.30 C55.47,48.23 55.60,48.17 55.75,48.11" fill="currentColor" stroke="currentColor" stroke-width="1.2" stroke-linecap="round" stroke-linejoin="round" />
  <path d="M55.16,48.45 C55.19,48.41 55.26,48.36 55.37,48.30" fill="currentColor" stroke="currentColor" stroke-width="1.2" stroke-linecap="round" stroke-linejoin="round" />
  <path d="M55.09,48.53 C55.10,48.51 55.13,48.48 55.16,48.45" fill="currentColor" stroke="currentColor" stroke-width="1.2" stroke-linecap="round" stroke-linejoin="round" />
  <path d="M55.05,48.62 C55.06,48.59 55.07,48.56 55.09,48.53" fill="currentColor" stroke="currentColor" stroke-width="1.2" stroke-linecap="round" stroke-linejoin="round" />
  <path d="M58.38,48.36 C58.54,48.51 58.66,48.69 58.74,48.90" fill="currentColor" stroke="currentColor" stroke-width="1.2" stroke-linecap="round" stroke-linejoin="round" />
  <path d="M55.03,48.73 C55.03,48.68 55.04,48.65 55.05,48.62" fill="currentColor" stroke="currentColor" stroke-width="1.2" stroke-linecap="round" stroke-linejoin="round" />
  <path d="M57.24,48.73 C57.09,48.68 56.93,48.65 56.74,48.65" fill="currentColor" stroke="currentColor" stroke-width="1.2" stroke-linecap="round" stroke-linejoin="round" />
  <path d="M56.74,48.65 C56.53,48.65 56.34,48.68 56.16,48.74" fill="currentColor" stroke="currentColor" stroke-width="1.2" stroke-linecap="round" stroke-linejoin="round" />
  <path d="M55.02,48.87 C55.02,48.81 55.02,48.77 55.03,48.73" fill="currentColor" stroke="currentColor" stroke-width="1.2" stroke-linecap="round" stroke-linejoin="round" />
  <path d="M56.16,48.74 C55.99,48.80 55.83,48.87 55.70,48.94" fill="currentColor" stroke="currentColor" stroke-width="1.2" stroke-linecap="round" stroke-linejoin="round" />
  <path d="M57.59,48.96 C57.50,48.86 57.38,48.79 57.24,48.73" fill="currentColor" stroke="currentColor" stroke-width="1.2" stroke-linecap="round" stroke-linejoin="round" />
  <path d="M55.03,49.06 C55.02,49.01 55.02,48.95 55.02,48.87" fill="currentColor" stroke="currentColor" stroke-width="1.2" stroke-linecap="round" stroke-linejoin="round" />
  <path d="M55.70,48.94 C55.56,49.01 55.45,49.08 55.36,49.14" fill="currentColor" stroke="currentColor" stroke-width="1.2" stroke-linecap="round" stroke-linejoin="round" />
  <path d="M55.06,49.17 C55.04,49.14 55.04,49.11 55.03,49.06" fill="currentColor" stroke="currentColor" stroke-width="1.2" stroke-linecap="round" stroke-linejoin="round" />
  <path d="M57.80,49.30 C57.76,49.17 57.69,49.06 57.59,48.96" fill="currentColor" stroke="currentColor" stroke-width="1.2" stroke-linecap="round" stroke-linejoin="round" />
  <path d="M55.36,49.14 C55.27,49.21 55.21,49.24 55.17,49.24" fill="currentColor" stroke="currentColor" stroke-width="1.2" stroke-linecap="round" stroke-linejoin="round" />
  <path d="M55.11,49.22 C55.09,49.22 55.07,49.20 55.06,49.17" fill="currentColor" stroke="currentColor" stroke-width="1.2" stroke-linecap="round" stroke-linejoin="round" />
  <path d="M55.17,49.24 C55.15,49.24 55.13,49.23 55.11,49.22" fill="currentColor" stroke="currentColor" stroke-width="1.2" stroke-linecap="round" stroke-linejoin="round" />
  <path d="M58.74,48.90 C58.82,49.11 58.86,49.34 58.86,49.59" fill="currentColor" stroke="currentColor" stroke-width="1.2" stroke-linecap="round" stroke-linejoin="round" />
  <path d="M57.87,49.71 C57.87,49.57 57.85,49.43 57.80,49.30" fill="currentColor" stroke="currentColor" stroke-width="1.2" stroke-linecap="round" stroke-linejoin="round" />
  <path d="M61.13,49.80 C61.23,49.80 61.31,49.80 61.36,49.81" fill="currentColor" stroke="currentColor" stroke-width="1.2" stroke-linecap="round" stroke-linejoin="round" />
  <path d="M64.12,49.81 C64.18,49.80 64.25,49.80 64.35,49.80" fill="currentColor" stroke="currentColor" stroke-width="1.2" stroke-linecap="round" stroke-linejoin="round" />
  <path d="M60.86,49.81 C60.93,49.81 61.02,49.80 61.13,49.80" fill="currentColor" stroke="currentColor" stroke-width="1.2" stroke-linecap="round" stroke-linejoin="round" />
  <path d="M64.35,49.80 C64.46,49.80 64.55,49.81 64.61,49.81" fill="currentColor" stroke="currentColor" stroke-width="1.2" stroke-linecap="round" stroke-linejoin="round" />
  <path d="M61.36,49.81 C61.42,49.82 61.47,49.82 61.50,49.83" fill="currentColor" stroke="currentColor" stroke-width="1.2" stroke-linecap="round" stroke-linejoin="round" />
  <path d="M63.97,49.84 C64.01,49.82 64.06,49.82 64.12,49.81" fill="currentColor" stroke="currentColor" stroke-width="1.2" stroke-linecap="round" stroke-linejoin="round" />
  <path d="M64.61,49.81 C64.68,49.82 64.73,49.83 64.76,49.85" fill="currentColor" stroke="currentColor" stroke-width="1.2" stroke-linecap="round" stroke-linejoin="round" />
  <path d="M60.71,49.86 C60.74,49.83 60.79,49.82 60.86,49.81" fill="currentColor" stroke="currentColor" stroke-width="1.2" stroke-linecap="round" stroke-linejoin="round" />
  <path d="M61.50,49.83 C61.53,49.84 61.55,49.86 61.56,49.88" fill="currentColor" stroke="currentColor" stroke-width="1.2" stroke-linecap="round" stroke-linejoin="round" />
  <path d="M63.88,49.88 C63.90,49.86 63.93,49.85 63.97,49.84" fill="currentColor" stroke="currentColor" stroke-width="1.2" stroke-linecap="round" stroke-linejoin="round" />
  <path d="M64.76,49.85 C64.80,49.87 64.81,49.89 64.81,49.93" fill="currentColor" stroke="currentColor" stroke-width="1.2" stroke-linecap="round" stroke-linejoin="round" />
  <path d="M60.65,49.94 C60.65,49.90 60.67,49.88 60.71,49.86" fill="currentColor" stroke="currentColor" stroke-width="1.2" stroke-linecap="round" stroke-linejoin="round" />
  <path d="M58.86,49.59 C58.86,49.81 58.83,50.01 58.78,50.20" fill="currentColor" stroke="currentColor" stroke-width="1.2" stroke-linecap="round" stroke-linejoin="round" />
  <path d="M61.56,49.88 C61.57,49.90 61.58,49.92 61.60,49.94" fill="currentColor" stroke="currentColor" stroke-width="1.2" stroke-linecap="round" stroke-linejoin="round" />
  <path d="M63.81,49.94 C63.83,49.92 63.86,49.90 63.88,49.88" fill="currentColor" stroke="currentColor" stroke-width="1.2" stroke-linecap="round" stroke-linejoin="round" />
  <path d="M57.77,50.25 C57.84,50.09 57.87,49.91 57.87,49.71" fill="currentColor" stroke="currentColor" stroke-width="1.2" stroke-linecap="round" stroke-linejoin="round" />
  <path d="M64.81,49.93 C64.80,49.96 64.77,50.00 64.73,50.05" fill="currentColor" stroke="currentColor" stroke-width="1.2" stroke-linecap="round" stroke-linejoin="round" />
  <path d="M60.68,50.07 C60.66,50.01 60.65,49.97 60.65,49.94" fill="currentColor" stroke="currentColor" stroke-width="1.2" stroke-linecap="round" stroke-linejoin="round" />
  <path d="M57.47,50.66 C57.60,50.54 57.70,50.40 57.77,50.25" fill="currentColor" stroke="currentColor" stroke-width="1.2" stroke-linecap="round" stroke-linejoin="round" />
  <path d="M58.78,50.20 C58.72,50.39 58.63,50.56 58.52,50.70" fill="currentColor" stroke="currentColor" stroke-width="1.2" stroke-linecap="round" stroke-linejoin="round" />
  <path d="M56.99,50.92 C57.18,50.86 57.34,50.77 57.47,50.66" fill="currentColor" stroke="currentColor" stroke-width="1.2" stroke-linecap="round" stroke-linejoin="round" />
  <line x1="61.60" y1="49.94" x2="62.36" y2="51.75" fill="currentColor" stroke="currentColor" stroke-width="1.2" stroke-linecap="round" stroke-linejoin="round" />
  <line x1="62.36" y1="51.75" x2="63.81" y2="49.94" fill="currentColor" stroke="currentColor" stroke-width="1.2" stroke-linecap="round" stroke-linejoin="round" />
  <path d="M58.52,50.70 C58.41,50.85 58.28,50.97 58.12,51.07" fill="currentColor" stroke="currentColor" stroke-width="1.2" stroke-linecap="round" stroke-linejoin="round" />
  <path d="M56.35,51.01 C56.59,51.01 56.80,50.98 56.99,50.92" fill="currentColor" stroke="currentColor" stroke-width="1.2" stroke-linecap="round" stroke-linejoin="round" />
  <line x1="55.75" y1="51.01" x2="56.35" y2="51.01" fill="currentColor" stroke="currentColor" stroke-width="1.2" stroke-linecap="round" stroke-linejoin="round" />
  <path d="M55.66,51.03 C55.69,51.02 55.71,51.01 55.75,51.01" fill="currentColor" stroke="currentColor" stroke-width="1.2" stroke-linecap="round" stroke-linejoin="round" />
  <path d="M55.59,51.09 C55.61,51.06 55.64,51.04 55.66,51.03" fill="currentColor" stroke="currentColor" stroke-width="1.2" stroke-linecap="round" stroke-linejoin="round" />
  <path d="M55.55,51.20 C55.56,51.15 55.57,51.12 55.59,51.09" fill="currentColor" stroke="currentColor" stroke-width="1.2" stroke-linecap="round" stroke-linejoin="round" />
  <path d="M58.12,51.07 C57.95,51.17 57.77,51.24 57.56,51.28" fill="currentColor" stroke="currentColor" stroke-width="1.2" stroke-linecap="round" stroke-linejoin="round" />
  <line x1="61.67" y1="52.32" x2="60.68" y2="50.07" fill="currentColor" stroke="currentColor" stroke-width="1.2" stroke-linecap="round" stroke-linejoin="round" />
  <line x1="64.73" y1="50.05" x2="62.84" y2="52.34" fill="currentColor" stroke="currentColor" stroke-width="1.2" stroke-linecap="round" stroke-linejoin="round" />
  <path d="M55.53,51.36 C55.53,51.30 55.54,51.24 55.55,51.20" fill="currentColor" stroke="currentColor" stroke-width="1.2" stroke-linecap="round" stroke-linejoin="round" />
  <line x1="57.56" y1="51.28" x2="57.56" y2="51.30" fill="currentColor" stroke="currentColor" stroke-width="1.2" stroke-linecap="round" stroke-linejoin="round" />
  <path d="M57.56,51.30 C57.80,51.32 58.02,51.38 58.22,51.48" fill="currentColor" stroke="currentColor" stroke-width="1.2" stroke-linecap="round" stroke-linejoin="round" />
  <path d="M55.55,51.55 C55.54,51.50 55.53,51.44 55.53,51.36" fill="currentColor" stroke="currentColor" stroke-width="1.2" stroke-linecap="round" stroke-linejoin="round" />
  <path d="M55.60,51.66 C55.58,51.63 55.56,51.59 55.55,51.55" fill="currentColor" stroke="currentColor" stroke-width="1.2" stroke-linecap="round" stroke-linejoin="round" />
  <path d="M58.22,51.48 C58.41,51.57 58.58,51.69 58.73,51.83" fill="currentColor" stroke="currentColor" stroke-width="1.2" stroke-linecap="round" stroke-linejoin="round" />
  <path d="M55.67,51.72 C55.64,51.71 55.62,51.69 55.60,51.66" fill="currentColor" stroke="currentColor" stroke-width="1.2" stroke-linecap="round" stroke-linejoin="round" />
  <path d="M55.75,51.74 C55.72,51.74 55.70,51.73 55.67,51.72" fill="currentColor" stroke="currentColor" stroke-width="1.2" stroke-linecap="round" stroke-linejoin="round" />
  <line x1="56.41" y1="51.74" x2="55.75" y2="51.74" fill="currentColor" stroke="currentColor" stroke-width="1.2" stroke-linecap="round" stroke-linejoin="round" />
  <path d="M57.15,51.83 C56.93,51.77 56.69,51.74 56.41,51.74" fill="currentColor" stroke="currentColor" stroke-width="1.2" stroke-linecap="round" stroke-linejoin="round" />
  <path d="M57.70,52.10 C57.55,51.98 57.37,51.89 57.15,51.83" fill="currentColor" stroke="currentColor" stroke-width="1.2" stroke-linecap="round" stroke-linejoin="round" />
  <path d="M58.73,51.83 C58.87,51.98 58.98,52.14 59.06,52.33" fill="currentColor" stroke="currentColor" stroke-width="1.2" stroke-linecap="round" stroke-linejoin="round" />
  <path d="M58.04,52.50 C57.96,52.35 57.85,52.21 57.70,52.10" fill="currentColor" stroke="currentColor" stroke-width="1.2" stroke-linecap="round" stroke-linejoin="round" />
  <path d="M59.06,52.33 C59.14,52.53 59.18,52.73 59.18,52.95" fill="currentColor" stroke="currentColor" stroke-width="1.2" stroke-linecap="round" stroke-linejoin="round" />
  <path d="M58.15,53.04 C58.15,52.84 58.11,52.66 58.04,52.50" fill="currentColor" stroke="currentColor" stroke-width="1.2" stroke-linecap="round" stroke-linejoin="round" />
  <path d="M58.06,53.53 C58.12,53.38 58.15,53.21 58.15,53.04" fill="currentColor" stroke="currentColor" stroke-width="1.2" stroke-linecap="round" stroke-linejoin="round" />
  <path d="M59.18,52.95 C59.18,53.27 59.13,53.56 59.02,53.81" fill="currentColor" stroke="currentColor" stroke-width="1.2" stroke-linecap="round" stroke-linejoin="round" />
  <line x1="59.66" y1="54.71" x2="61.67" y2="52.32" fill="currentColor" stroke="currentColor" stroke-width="1.2" stroke-linecap="round" stroke-linejoin="round" />
  <line x1="62.84" y1="52.34" x2="63.89" y2="54.70" fill="currentColor" stroke="currentColor" stroke-width="1.2" stroke-linecap="round" stroke-linejoin="round" />
  <path d="M57.79,53.93 C57.91,53.82 58.00,53.68 58.06,53.53" fill="currentColor" stroke="currentColor" stroke-width="1.2" stroke-linecap="round" stroke-linejoin="round" />
  <path d="M54.87,53.81 C54.89,53.76 54.93,53.73 54.97,53.73" fill="currentColor" stroke="currentColor" stroke-width="1.2" stroke-linecap="round" stroke-linejoin="round" />
  <path d="M54.97,53.73 C55.01,53.73 55.07,53.76 55.16,53.82" fill="currentColor" stroke="currentColor" stroke-width="1.2" stroke-linecap="round" stroke-linejoin="round" />
  <line x1="62.95" y1="54.82" x2="62.14" y2="52.91" fill="currentColor" stroke="currentColor" stroke-width="1.2" stroke-linecap="round" stroke-linejoin="round" />
  <line x1="62.14" y1="52.91" x2="60.62" y2="54.82" fill="currentColor" stroke="currentColor" stroke-width="1.2" stroke-linecap="round" stroke-linejoin="round" />
  <path d="M55.16,53.82 C55.26,53.88 55.38,53.94 55.53,54.00" fill="currentColor" stroke="currentColor" stroke-width="1.2" stroke-linecap="round" stroke-linejoin="round" />
  <path d="M54.83,54.08 C54.83,53.95 54.84,53.86 54.87,53.81" fill="currentColor" stroke="currentColor" stroke-width="1.2" stroke-linecap="round" stroke-linejoin="round" />
  <path d="M57.34,54.18 C57.52,54.12 57.67,54.04 57.79,53.93" fill="currentColor" stroke="currentColor" stroke-width="1.2" stroke-linecap="round" stroke-linejoin="round" />
  <path d="M55.53,54.00 C55.68,54.07 55.85,54.13 56.05,54.19" fill="currentColor" stroke="currentColor" stroke-width="1.2" stroke-linecap="round" stroke-linejoin="round" />
  <path d="M59.02,53.81 C58.91,54.07 58.75,54.29 58.54,54.47" fill="currentColor" stroke="currentColor" stroke-width="1.2" stroke-linecap="round" stroke-linejoin="round" />
  <path d="M54.84,54.27 C54.83,54.22 54.83,54.15 54.83,54.08" fill="currentColor" stroke="currentColor" stroke-width="1.2" stroke-linecap="round" stroke-linejoin="round" />
  <path d="M56.71,54.28 C56.95,54.28 57.16,54.25 57.34,54.18" fill="currentColor" stroke="currentColor" stroke-width="1.2" stroke-linecap="round" stroke-linejoin="round" />
  <path d="M56.05,54.19 C56.25,54.25 56.47,54.28 56.71,54.28" fill="currentColor" stroke="currentColor" stroke-width="1.2" stroke-linecap="round" stroke-linejoin="round" />
  <path d="M54.86,54.40 C54.85,54.36 54.84,54.32 54.84,54.27" fill="currentColor" stroke="currentColor" stroke-width="1.2" stroke-linecap="round" stroke-linejoin="round" />
  <path d="M54.90,54.49 C54.88,54.47 54.87,54.44 54.86,54.40" fill="currentColor" stroke="currentColor" stroke-width="1.2" stroke-linecap="round" stroke-linejoin="round" />
  <path d="M54.96,54.57 C54.93,54.54 54.91,54.52 54.90,54.49" fill="currentColor" stroke="currentColor" stroke-width="1.2" stroke-linecap="round" stroke-linejoin="round" />
  <path d="M55.16,54.69 C55.05,54.63 54.99,54.59 54.96,54.57" fill="currentColor" stroke="currentColor" stroke-width="1.2" stroke-linecap="round" stroke-linejoin="round" />
  <path d="M58.54,54.47 C58.33,54.65 58.08,54.79 57.77,54.89" fill="currentColor" stroke="currentColor" stroke-width="1.2" stroke-linecap="round" stroke-linejoin="round" />
  <path d="M63.89,54.70 C63.92,54.75 63.92,54.79 63.92,54.83" fill="currentColor" stroke="currentColor" stroke-width="1.2" stroke-linecap="round" stroke-linejoin="round" />
  <path d="M55.55,54.85 C55.39,54.80 55.26,54.74 55.16,54.69" fill="currentColor" stroke="currentColor" stroke-width="1.2" stroke-linecap="round" stroke-linejoin="round" />
  <path d="M59.60,54.83 C59.61,54.80 59.63,54.76 59.66,54.71" fill="currentColor" stroke="currentColor" stroke-width="1.2" stroke-linecap="round" stroke-linejoin="round" />
  <path d="M62.98,54.89 C62.97,54.87 62.96,54.84 62.95,54.82" fill="currentColor" stroke="currentColor" stroke-width="1.2" stroke-linecap="round" stroke-linejoin="round" />
  <path d="M60.62,54.82 C60.60,54.84 60.58,54.87 60.56,54.89" fill="currentColor" stroke="currentColor" stroke-width="1.2" stroke-linecap="round" stroke-linejoin="round" />
  <path d="M63.92,54.83 C63.91,54.86 63.89,54.89 63.85,54.91" fill="currentColor" stroke="currentColor" stroke-width="1.2" stroke-linecap="round" stroke-linejoin="round" />
  <path d="M59.64,54.91 C59.61,54.89 59.60,54.86 59.60,54.83" fill="currentColor" stroke="currentColor" stroke-width="1.2" stroke-linecap="round" stroke-linejoin="round" />
  <path d="M60.56,54.89 C60.53,54.91 60.50,54.92 60.46,54.93" fill="currentColor" stroke="currentColor" stroke-width="1.2" stroke-linecap="round" stroke-linejoin="round" />
  <path d="M63.05,54.93 C63.01,54.92 62.99,54.91 62.98,54.89" fill="currentColor" stroke="currentColor" stroke-width="1.2" stroke-linecap="round" stroke-linejoin="round" />
  <path d="M56.09,54.98 C55.89,54.94 55.71,54.90 55.55,54.85" fill="currentColor" stroke="currentColor" stroke-width="1.2" stroke-linecap="round" stroke-linejoin="round" />
  <path d="M63.85,54.91 C63.81,54.93 63.76,54.95 63.69,54.96" fill="currentColor" stroke="currentColor" stroke-width="1.2" stroke-linecap="round" stroke-linejoin="round" />
  <path d="M59.78,54.96 C59.72,54.95 59.67,54.93 59.64,54.91" fill="currentColor" stroke="currentColor" stroke-width="1.2" stroke-linecap="round" stroke-linejoin="round" />
  <path d="M60.46,54.93 C60.41,54.94 60.36,54.95 60.29,54.96" fill="currentColor" stroke="currentColor" stroke-width="1.2" stroke-linecap="round" stroke-linejoin="round" />
  <path d="M63.18,54.96 C63.12,54.96 63.08,54.95 63.05,54.93" fill="currentColor" stroke="currentColor" stroke-width="1.2" stroke-linecap="round" stroke-linejoin="round" />
  <path d="M63.69,54.96 C63.62,54.96 63.53,54.97 63.42,54.97" fill="currentColor" stroke="currentColor" stroke-width="1.2" stroke-linecap="round" stroke-linejoin="round" />
  <path d="M60.03,54.97 C59.93,54.97 59.85,54.96 59.78,54.96" fill="currentColor" stroke="currentColor" stroke-width="1.2" stroke-linecap="round" stroke-linejoin="round" />
  <path d="M60.29,54.96 C60.23,54.97 60.14,54.97 60.03,54.97" fill="currentColor" stroke="currentColor" stroke-width="1.2" stroke-linecap="round" stroke-linejoin="round" />
  <path d="M57.77,54.89 C57.47,54.99 57.12,55.04 56.74,55.04" fill="currentColor" stroke="currentColor" stroke-width="1.2" stroke-linecap="round" stroke-linejoin="round" />
  <path d="M63.42,54.97 C63.32,54.97 63.24,54.97 63.18,54.96" fill="currentColor" stroke="currentColor" stroke-width="1.2" stroke-linecap="round" stroke-linejoin="round" />
  <path d="M56.74,55.04 C56.51,55.04 56.29,55.02 56.09,54.98" fill="currentColor" stroke="currentColor" stroke-width="1.2" stroke-linecap="round" stroke-linejoin="round" />
</svg>