<svg xmlns="http://www.w3.org/2000/svg" viewBox="0 0 146.49 227.19" preserveAspectRatio="xMidYMid meet" shape-rendering="geometricPrecision" text-rendering="optimizeLegibility">
  <line x1="122.20" y1="8.00" x2="121.62" y2="8.00" fill="currentColor" stroke="currentColor" stroke-width="1.2" stroke-linecap="round" stroke-linejoin="round" />
  <line x1="136.35" y1="8.00" x2="135.77" y2="8.00" fill="currentColor" stroke="currentColor" stroke-width="1.2" stroke-linecap="round" stroke-linejoin="round" />
  <path d="M121.62,8.00 C121.29,8.33 121.00,8.69 120.74,9.08" fill="currentColor" stroke="currentColor" stroke-width="1.2" stroke-linecap="round" stroke-linejoin="round" />
  <path d="M137.24,9.08 C136.98,8.69 136.68,8.33 136.35,8.00" fill="currentColor" stroke="currentColor" stroke-width="1.2" stroke-linecap="round" stroke-linejoin="round" />
  <path d="M121.01,10.33 C121.27,9.48 121.67,8.71 122.20,8.00" fill="currentColor" stroke="currentColor" stroke-width="1.2" stroke-linecap="round" stroke-linejoin="round" />
  <path d="M135.77,8.00 C136.30,8.71 136.70,9.48 136.96,10.33" fill="currentColor" stroke="currentColor" stroke-width="1.2" stroke-linecap="round" stroke-linejoin="round" />
  <path d="M120.74,9.08 C120.47,9.48 120.25,9.89 120.06,10.33" fill="currentColor" stroke="currentColor" stroke-width="1.2" stroke-linecap="round" stroke-linejoin="round" />
  <path d="M137.91,10.33 C137.73,9.89 137.50,9.48 137.24,9.08" fill="currentColor" stroke="currentColor" stroke-width="1.2" stroke-linecap="round" stroke-linejoin="round" />
  <path d="M125.75,10.64 C125.59,10.61 125.42,10.60 125.23,10.59" fill="currentColor" stroke="currentColor" stroke-width="1.2" stroke-linecap="round" stroke-linejoin="round" />
  <path d="M133.35,10.59 C133.11,10.60 132.90,10.64 132.70,10.72" fill="currentColor" stroke="currentColor" stroke-width="1.2" stroke-linecap="round" stroke-linejoin="round" />
  <path d="M130.22,10.59 C129.99,10.59 129.76,10.65 129.52,10.78" fill="currentColor" stroke="currentColor" stroke-width="1.2" stroke-linecap="round" stroke-linejoin="round" />
  <line x1="128.78" y1="10.69" x2="127.80" y2="10.69" fill="currentColor" stroke="currentColor" stroke-width="1.2" stroke-linecap="round" stroke-linejoin="round" />
  <path d="M126.21,10.75 C126.06,10.70 125.91,10.66 125.75,10.64" fill="currentColor" stroke="currentColor" stroke-width="1.2" stroke-linecap="round" stroke-linejoin="round" />
  <path d="M131.07,10.82 C130.82,10.67 130.54,10.60 130.22,10.59" fill="currentColor" stroke="currentColor" stroke-width="1.2" stroke-linecap="round" stroke-linejoin="round" />
  <path d="M134.22,10.84 C133.97,10.68 133.68,10.60 133.35,10.59" fill="currentColor" stroke="currentColor" stroke-width="1.2" stroke-linecap="round" stroke-linejoin="round" />
  <path d="M125.23,10.59 C124.73,10.60 124.30,10.71 123.93,10.92" fill="currentColor" stroke="currentColor" stroke-width="1.2" stroke-linecap="round" stroke-linejoin="round" />
  <path d="M126.66,10.93 C126.51,10.86 126.35,10.80 126.21,10.75" fill="currentColor" stroke="currentColor" stroke-width="1.2" stroke-linecap="round" stroke-linejoin="round" />
  <path d="M132.70,10.72 C132.51,10.80 132.33,10.90 132.16,11.04" fill="currentColor" stroke="currentColor" stroke-width="1.2" stroke-linecap="round" stroke-linejoin="round" />
  <path d="M120.06,10.33 C119.88,10.77 119.74,11.23 119.64,11.69" fill="currentColor" stroke="currentColor" stroke-width="1.2" stroke-linecap="round" stroke-linejoin="round" />
  <path d="M138.34,11.69 C138.24,11.23 138.10,10.77 137.91,10.33" fill="currentColor" stroke="currentColor" stroke-width="1.2" stroke-linecap="round" stroke-linejoin="round" />
  <line x1="128.78" y1="11.34" x2="128.78" y2="10.69" fill="currentColor" stroke="currentColor" stroke-width="1.2" stroke-linecap="round" stroke-linejoin="round" />
  <path d="M129.52,10.78 C129.28,10.90 129.04,11.09 128.78,11.34" fill="currentColor" stroke="currentColor" stroke-width="1.2" stroke-linecap="round" stroke-linejoin="round" />
  <path d="M131.70,11.48 C131.53,11.19 131.32,10.97 131.07,10.82" fill="currentColor" stroke="currentColor" stroke-width="1.2" stroke-linecap="round" stroke-linejoin="round" />
  <path d="M134.79,11.51 C134.65,11.22 134.46,11.00 134.22,10.84" fill="currentColor" stroke="currentColor" stroke-width="1.2" stroke-linecap="round" stroke-linejoin="round" />
  <path d="M132.16,11.04 C131.99,11.17 131.84,11.32 131.70,11.48" fill="currentColor" stroke="currentColor" stroke-width="1.2" stroke-linecap="round" stroke-linejoin="round" />
  <path d="M123.93,10.92 C123.57,11.14 123.29,11.45 123.09,11.84" fill="currentColor" stroke="currentColor" stroke-width="1.2" stroke-linecap="round" stroke-linejoin="round" />
  <path d="M129.57,11.48 C129.70,11.44 129.85,11.42 130.01,11.42" fill="currentColor" stroke="currentColor" stroke-width="1.2" stroke-linecap="round" stroke-linejoin="round" />
  <line x1="126.66" y1="11.98" x2="126.66" y2="10.93" fill="currentColor" stroke="currentColor" stroke-width="1.2" stroke-linecap="round" stroke-linejoin="round" />
  <path d="M130.01,11.42 C130.18,11.42 130.33,11.46 130.46,11.54" fill="currentColor" stroke="currentColor" stroke-width="1.2" stroke-linecap="round" stroke-linejoin="round" />
  <path d="M132.98,11.42 C133.17,11.42 133.35,11.46 133.50,11.55" fill="currentColor" stroke="currentColor" stroke-width="1.2" stroke-linecap="round" stroke-linejoin="round" />
  <path d="M132.45,11.59 C132.64,11.48 132.82,11.42 132.98,11.42" fill="currentColor" stroke="currentColor" stroke-width="1.2" stroke-linecap="round" stroke-linejoin="round" />
  <path d="M125.30,11.50 C125.44,11.49 125.58,11.51 125.72,11.54" fill="currentColor" stroke="currentColor" stroke-width="1.2" stroke-linecap="round" stroke-linejoin="round" />
  <path d="M129.17,11.67 C129.30,11.58 129.43,11.52 129.57,11.48" fill="currentColor" stroke="currentColor" stroke-width="1.2" stroke-linecap="round" stroke-linejoin="round" />
  <path d="M124.51,11.71 C124.74,11.57 125.00,11.50 125.30,11.50" fill="currentColor" stroke="currentColor" stroke-width="1.2" stroke-linecap="round" stroke-linejoin="round" />
  <path d="M125.72,11.54 C125.86,11.57 126.00,11.62 126.15,11.69" fill="currentColor" stroke="currentColor" stroke-width="1.2" stroke-linecap="round" stroke-linejoin="round" />
  <path d="M120.62,13.08 C120.62,12.09 120.75,11.17 121.01,10.33" fill="currentColor" stroke="currentColor" stroke-width="1.2" stroke-linecap="round" stroke-linejoin="round" />
  <path d="M136.96,10.33 C137.22,11.17 137.36,12.09 137.35,13.08" fill="currentColor" stroke="currentColor" stroke-width="1.2" stroke-linecap="round" stroke-linejoin="round" />
  <path d="M130.46,11.54 C130.59,11.62 130.70,11.74 130.78,11.91" fill="currentColor" stroke="currentColor" stroke-width="1.2" stroke-linecap="round" stroke-linejoin="round" />
  <path d="M133.50,11.55 C133.65,11.64 133.78,11.77 133.87,11.94" fill="currentColor" stroke="currentColor" stroke-width="1.2" stroke-linecap="round" stroke-linejoin="round" />
  <path d="M131.89,12.05 C132.06,11.86 132.25,11.71 132.45,11.59" fill="currentColor" stroke="currentColor" stroke-width="1.2" stroke-linecap="round" stroke-linejoin="round" />
  <path d="M126.15,11.69 C126.31,11.76 126.48,11.86 126.66,11.98" fill="currentColor" stroke="currentColor" stroke-width="1.2" stroke-linecap="round" stroke-linejoin="round" />
  <path d="M128.78,12.05 C128.92,11.89 129.05,11.76 129.17,11.67" fill="currentColor" stroke="currentColor" stroke-width="1.2" stroke-linecap="round" stroke-linejoin="round" />
  <path d="M123.98,12.29 C124.11,12.04 124.29,11.85 124.51,11.71" fill="currentColor" stroke="currentColor" stroke-width="1.2" stroke-linecap="round" stroke-linejoin="round" />
  <path d="M134.99,12.53 C134.99,12.14 134.92,11.80 134.79,11.51" fill="currentColor" stroke="currentColor" stroke-width="1.2" stroke-linecap="round" stroke-linejoin="round" />
  <path d="M130.78,11.91 C130.86,12.08 130.90,12.30 130.91,12.56" fill="currentColor" stroke="currentColor" stroke-width="1.2" stroke-linecap="round" stroke-linejoin="round" />
  <path d="M133.87,11.94 C133.96,12.11 134.01,12.32 134.01,12.57" fill="currentColor" stroke="currentColor" stroke-width="1.2" stroke-linecap="round" stroke-linejoin="round" />
  <path d="M119.64,11.69 C119.54,12.15 119.49,12.62 119.49,13.08" fill="currentColor" stroke="currentColor" stroke-width="1.2" stroke-linecap="round" stroke-linejoin="round" />
  <path d="M138.49,13.08 C138.49,12.62 138.44,12.15 138.34,11.69" fill="currentColor" stroke="currentColor" stroke-width="1.2" stroke-linecap="round" stroke-linejoin="round" />
  <path d="M123.09,11.84 C122.89,12.24 122.79,12.71 122.79,13.26" fill="currentColor" stroke="currentColor" stroke-width="1.2" stroke-linecap="round" stroke-linejoin="round" />
  <path d="M123.79,13.17 C123.79,12.83 123.86,12.54 123.98,12.29" fill="currentColor" stroke="currentColor" stroke-width="1.2" stroke-linecap="round" stroke-linejoin="round" />
  <line x1="127.80" y1="10.69" x2="127.80" y2="15.63" fill="currentColor" stroke="currentColor" stroke-width="1.2" stroke-linecap="round" stroke-linejoin="round" />
  <path d="M124.00,14.05 C123.86,13.80 123.79,13.51 123.79,13.17" fill="currentColor" stroke="currentColor" stroke-width="1.2" stroke-linecap="round" stroke-linejoin="round" />
  <path d="M119.49,13.08 C119.49,13.54 119.54,14.01 119.64,14.47" fill="currentColor" stroke="currentColor" stroke-width="1.2" stroke-linecap="round" stroke-linejoin="round" />
  <path d="M138.34,14.47 C138.44,14.01 138.49,13.54 138.49,13.08" fill="currentColor" stroke="currentColor" stroke-width="1.2" stroke-linecap="round" stroke-linejoin="round" />
  <line x1="128.78" y1="15.63" x2="128.78" y2="12.05" fill="currentColor" stroke="currentColor" stroke-width="1.2" stroke-linecap="round" stroke-linejoin="round" />
  <line x1="131.89" y1="15.63" x2="131.89" y2="12.05" fill="currentColor" stroke="currentColor" stroke-width="1.2" stroke-linecap="round" stroke-linejoin="round" />
  <path d="M122.79,13.26 C122.79,13.74 122.90,14.17 123.11,14.54" fill="currentColor" stroke="currentColor" stroke-width="1.2" stroke-linecap="round" stroke-linejoin="round" />
  <line x1="134.99" y1="15.63" x2="134.99" y2="12.53" fill="currentColor" stroke="currentColor" stroke-width="1.2" stroke-linecap="round" stroke-linejoin="round" />
  <line x1="130.91" y1="12.56" x2="130.91" y2="15.63" fill="currentColor" stroke="currentColor" stroke-width="1.2" stroke-linecap="round" stroke-linejoin="round" />
  <line x1="134.01" y1="12.57" x2="134.01" y2="15.63" fill="currentColor" stroke="currentColor" stroke-width="1.2" stroke-linecap="round" stroke-linejoin="round" />
  <path d="M124.58,14.61 C124.33,14.48 124.14,14.29 124.00,14.05" fill="currentColor" stroke="currentColor" stroke-width="1.2" stroke-linecap="round" stroke-linejoin="round" />
  <path d="M121.01,15.84 C120.75,14.99 120.62,14.07 120.62,13.08" fill="currentColor" stroke="currentColor" stroke-width="1.2" stroke-linecap="round" stroke-linejoin="round" />
  <path d="M137.35,13.08 C137.36,14.07 137.22,14.99 136.96,15.84" fill="currentColor" stroke="currentColor" stroke-width="1.2" stroke-linecap="round" stroke-linejoin="round" />
  <path d="M126.77,14.48 C126.53,14.59 126.30,14.67 126.09,14.73" fill="currentColor" stroke="currentColor" stroke-width="1.2" stroke-linecap="round" stroke-linejoin="round" />
  <path d="M125.46,14.81 C125.12,14.81 124.83,14.74 124.58,14.61" fill="currentColor" stroke="currentColor" stroke-width="1.2" stroke-linecap="round" stroke-linejoin="round" />
  <path d="M126.09,14.73 C125.88,14.78 125.67,14.81 125.46,14.81" fill="currentColor" stroke="currentColor" stroke-width="1.2" stroke-linecap="round" stroke-linejoin="round" />
  <line x1="126.77" y1="15.45" x2="126.77" y2="14.48" fill="currentColor" stroke="currentColor" stroke-width="1.2" stroke-linecap="round" stroke-linejoin="round" />
  <path d="M123.11,14.54 C123.32,14.91 123.62,15.20 123.99,15.41" fill="currentColor" stroke="currentColor" stroke-width="1.2" stroke-linecap="round" stroke-linejoin="round" />
  <path d="M119.64,14.47 C119.74,14.93 119.88,15.39 120.06,15.83" fill="currentColor" stroke="currentColor" stroke-width="1.2" stroke-linecap="round" stroke-linejoin="round" />
  <path d="M137.91,15.83 C138.10,15.39 138.24,14.93 138.34,14.47" fill="currentColor" stroke="currentColor" stroke-width="1.2" stroke-linecap="round" stroke-linejoin="round" />
  <path d="M126.36,15.59 C126.52,15.54 126.66,15.50 126.77,15.45" fill="currentColor" stroke="currentColor" stroke-width="1.2" stroke-linecap="round" stroke-linejoin="round" />
  <path d="M123.99,15.41 C124.37,15.62 124.80,15.73 125.30,15.73" fill="currentColor" stroke="currentColor" stroke-width="1.2" stroke-linecap="round" stroke-linejoin="round" />
  <line x1="127.80" y1="15.63" x2="128.78" y2="15.63" fill="currentColor" stroke="currentColor" stroke-width="1.2" stroke-linecap="round" stroke-linejoin="round" />
  <line x1="130.91" y1="15.63" x2="131.89" y2="15.63" fill="currentColor" stroke="currentColor" stroke-width="1.2" stroke-linecap="round" stroke-linejoin="round" />
  <line x1="134.01" y1="15.63" x2="134.99" y2="15.63" fill="currentColor" stroke="currentColor" stroke-width="1.2" stroke-linecap="round" stroke-linejoin="round" />
  <path d="M125.84,15.69 C126.02,15.67 126.19,15.63 126.36,15.59" fill="currentColor" stroke="currentColor" stroke-width="1.2" stroke-linecap="round" stroke-linejoin="round" />
  <path d="M125.30,15.73 C125.47,15.73 125.65,15.72 125.84,15.69" fill="currentColor" stroke="currentColor" stroke-width="1.2" stroke-linecap="round" stroke-linejoin="round" />
  <path d="M120.06,15.83 C120.25,16.27 120.47,16.68 120.74,17.08" fill="currentColor" stroke="currentColor" stroke-width="1.2" stroke-linecap="round" stroke-linejoin="round" />
  <path d="M137.24,17.08 C137.50,16.68 137.73,16.27 137.91,15.83" fill="currentColor" stroke="currentColor" stroke-width="1.2" stroke-linecap="round" stroke-linejoin="round" />
  <path d="M122.20,18.16 C121.67,17.45 121.27,16.68 121.01,15.84" fill="currentColor" stroke="currentColor" stroke-width="1.2" stroke-linecap="round" stroke-linejoin="round" />
  <path d="M136.96,15.84 C136.70,16.68 136.30,17.45 135.77,18.16" fill="currentColor" stroke="currentColor" stroke-width="1.2" stroke-linecap="round" stroke-linejoin="round" />
  <path d="M120.74,17.08 C121.00,17.48 121.29,17.83 121.62,18.16" fill="currentColor" stroke="currentColor" stroke-width="1.2" stroke-linecap="round" stroke-linejoin="round" />
  <path d="M136.35,18.16 C136.68,17.83 136.98,17.48 137.24,17.08" fill="currentColor" stroke="currentColor" stroke-width="1.2" stroke-linecap="round" stroke-linejoin="round" />
  <line x1="121.62" y1="18.16" x2="122.20" y2="18.16" fill="currentColor" stroke="currentColor" stroke-width="1.2" stroke-linecap="round" stroke-linejoin="round" />
  <line x1="135.77" y1="18.16" x2="136.35" y2="18.16" fill="currentColor" stroke="currentColor" stroke-width="1.2" stroke-linecap="round" stroke-linejoin="round" />
  <line x1="40.81" y1="31.65" x2="40.40" y2="31.65" fill="currentColor" stroke="currentColor" stroke-width="1.2" stroke-linecap="round" stroke-linejoin="round" />
  <line x1="40.40" y1="31.65" x2="37.84" y2="33.74" fill="currentColor" stroke="currentColor" stroke-width="1.2" stroke-linecap="round" stroke-linejoin="round" />
  <line x1="38.25" y1="34.67" x2="39.68" y2="33.50" fill="currentColor" stroke="currentColor" stroke-width="1.2" stroke-linecap="round" stroke-linejoin="round" />
  <line x1="37.84" y1="33.74" x2="38.25" y2="34.67" fill="currentColor" stroke="currentColor" stroke-width="1.2" stroke-linecap="round" stroke-linejoin="round" />
  <line x1="40.81" y1="39.25" x2="40.81" y2="31.65" fill="currentColor" stroke="currentColor" stroke-width="1.2" stroke-linecap="round" stroke-linejoin="round" />
  <line x1="39.68" y1="33.50" x2="39.68" y2="39.25" fill="currentColor" stroke="currentColor" stroke-width="1.2" stroke-linecap="round" stroke-linejoin="round" />
  <line x1="39.68" y1="39.25" x2="40.81" y2="39.25" fill="currentColor" stroke="currentColor" stroke-width="1.2" stroke-linecap="round" stroke-linejoin="round" />
  <polygon points="24.61,55.95 30.14,63.78 22.31,69.31 16.78,61.48" fill="none" stroke="currentColor" stroke-width="1.0" stroke-linecap="round" stroke-linejoin="round" />
  <path d="M87.48,87.58 C87.18,87.58 86.89,87.64 86.60,87.75" fill="currentColor" stroke="currentColor" stroke-width="1.2" stroke-linecap="round" stroke-linejoin="round" />
  <path d="M88.68,87.88 C88.33,87.68 87.94,87.58 87.48,87.58" fill="currentColor" stroke="currentColor" stroke-width="1.2" stroke-linecap="round" stroke-linejoin="round" />
  <path d="M86.60,87.75 C86.31,87.87 86.01,88.05 85.71,88.29" fill="currentColor" stroke="currentColor" stroke-width="1.2" stroke-linecap="round" stroke-linejoin="round" />
  <path d="M89.48,88.70 C89.29,88.35 89.02,88.07 88.68,87.88" fill="currentColor" stroke="currentColor" stroke-width="1.2" stroke-linecap="round" stroke-linejoin="round" />
  <path d="M86.86,88.72 C87.04,88.66 87.23,88.63 87.41,88.63" fill="currentColor" stroke="currentColor" stroke-width="1.2" stroke-linecap="round" stroke-linejoin="round" />
  <path d="M87.41,88.63 C87.65,88.63 87.87,88.69 88.07,88.81" fill="currentColor" stroke="currentColor" stroke-width="1.2" stroke-linecap="round" stroke-linejoin="round" />
  <path d="M86.30,89.04 C86.49,88.89 86.68,88.79 86.86,88.72" fill="currentColor" stroke="currentColor" stroke-width="1.2" stroke-linecap="round" stroke-linejoin="round" />
  <line x1="85.71" y1="88.29" x2="85.71" y2="89.64" fill="currentColor" stroke="currentColor" stroke-width="1.2" stroke-linecap="round" stroke-linejoin="round" />
  <path d="M88.07,88.81 C88.26,88.93 88.41,89.10 88.52,89.31" fill="currentColor" stroke="currentColor" stroke-width="1.2" stroke-linecap="round" stroke-linejoin="round" />
  <path d="M89.77,89.92 C89.77,89.45 89.67,89.05 89.48,88.70" fill="currentColor" stroke="currentColor" stroke-width="1.2" stroke-linecap="round" stroke-linejoin="round" />
  <path d="M85.71,89.64 C85.91,89.39 86.11,89.19 86.30,89.04" fill="currentColor" stroke="currentColor" stroke-width="1.2" stroke-linecap="round" stroke-linejoin="round" />
  <path d="M88.52,89.31 C88.63,89.52 88.69,89.76 88.69,90.04" fill="currentColor" stroke="currentColor" stroke-width="1.2" stroke-linecap="round" stroke-linejoin="round" />
  <path d="M88.69,90.04 C88.69,90.25 88.67,90.43 88.63,90.60" fill="currentColor" stroke="currentColor" stroke-width="1.2" stroke-linecap="round" stroke-linejoin="round" />
  <path d="M89.64,90.82 C89.73,90.52 89.77,90.22 89.77,89.92" fill="currentColor" stroke="currentColor" stroke-width="1.2" stroke-linecap="round" stroke-linejoin="round" />
  <path d="M88.63,90.60 C88.60,90.77 88.54,90.93 88.46,91.10" fill="currentColor" stroke="currentColor" stroke-width="1.2" stroke-linecap="round" stroke-linejoin="round" />
  <path d="M89.23,91.75 C89.42,91.42 89.55,91.11 89.64,90.82" fill="currentColor" stroke="currentColor" stroke-width="1.2" stroke-linecap="round" stroke-linejoin="round" />
  <polygon points="16.78,61.48 75.02,20.46 88.01,162.19 16.78,162.19" fill="none" stroke="currentColor" stroke-width="1.2" stroke-linecap="round" stroke-linejoin="round" />
  <path d="M88.46,91.10 C88.38,91.27 88.28,91.45 88.16,91.65" fill="currentColor" stroke="currentColor" stroke-width="1.2" stroke-linecap="round" stroke-linejoin="round" />
  <path d="M88.16,91.65 C88.00,91.92 87.82,92.21 87.60,92.50" fill="currentColor" stroke="currentColor" stroke-width="1.2" stroke-linecap="round" stroke-linejoin="round" />
  <path d="M88.51,92.82 C88.80,92.43 89.04,92.07 89.23,91.75" fill="currentColor" stroke="currentColor" stroke-width="1.2" stroke-linecap="round" stroke-linejoin="round" />
  <path d="M87.60,92.50 C87.39,92.80 87.17,93.10 86.93,93.41" fill="currentColor" stroke="currentColor" stroke-width="1.2" stroke-linecap="round" stroke-linejoin="round" />
  <path d="M87.44,94.15 C87.86,93.66 88.21,93.22 88.51,92.82" fill="currentColor" stroke="currentColor" stroke-width="1.2" stroke-linecap="round" stroke-linejoin="round" />
  <path d="M86.93,93.41 C86.69,93.71 86.46,94.00 86.22,94.29" fill="currentColor" stroke="currentColor" stroke-width="1.2" stroke-linecap="round" stroke-linejoin="round" />
  <line x1="90.31" y1="94.15" x2="87.44" y2="94.15" fill="currentColor" stroke="currentColor" stroke-width="1.2" stroke-linecap="round" stroke-linejoin="round" />
  <line x1="90.31" y1="95.18" x2="90.31" y2="94.15" fill="currentColor" stroke="currentColor" stroke-width="1.2" stroke-linecap="round" stroke-linejoin="round" />
  <path d="M86.22,94.29 C85.99,94.58 85.77,94.85 85.56,95.10" fill="currentColor" stroke="currentColor" stroke-width="1.2" stroke-linecap="round" stroke-linejoin="round" />
  <line x1="85.56" y1="95.10" x2="85.56" y2="95.18" fill="currentColor" stroke="currentColor" stroke-width="1.2" stroke-linecap="round" stroke-linejoin="round" />
  <line x1="85.56" y1="95.18" x2="90.31" y2="95.18" fill="currentColor" stroke="currentColor" stroke-width="1.2" stroke-linecap="round" stroke-linejoin="round" />
  <line x1="16.78" y1="61.48" x2="88.01" y2="162.19" fill="none" stroke="currentColor" stroke-width="1.2" stroke-linecap="round" stroke-linejoin="round" />
  <line x1="13.21" y1="112.66" x2="12.06" y2="112.66" fill="currentColor" stroke="currentColor" stroke-width="1.2" stroke-linecap="round" stroke-linejoin="round" />
  <line x1="9.99" y1="112.66" x2="8.99" y2="112.66" fill="currentColor" stroke="currentColor" stroke-width="1.2" stroke-linecap="round" stroke-linejoin="round" />
  <line x1="12.06" y1="112.66" x2="10.77" y2="114.32" fill="currentColor" stroke="currentColor" stroke-width="1.2" stroke-linecap="round" stroke-linejoin="round" />
  <line x1="10.77" y1="114.32" x2="9.99" y2="112.66" fill="currentColor" stroke="currentColor" stroke-width="1.2" stroke-linecap="round" stroke-linejoin="round" />
  <line x1="8.99" y1="112.66" x2="10.16" y2="114.98" fill="currentColor" stroke="currentColor" stroke-width="1.2" stroke-linecap="round" stroke-linejoin="round" />
  <line x1="11.22" y1="115.11" x2="13.21" y2="112.66" fill="currentColor" stroke="currentColor" stroke-width="1.2" stroke-linecap="round" stroke-linejoin="round" />
  <line x1="10.16" y1="114.98" x2="8.00" y2="117.60" fill="currentColor" stroke="currentColor" stroke-width="1.2" stroke-linecap="round" stroke-linejoin="round" />
  <line x1="12.48" y1="117.60" x2="11.22" y2="115.11" fill="currentColor" stroke="currentColor" stroke-width="1.2" stroke-linecap="round" stroke-linejoin="round" />
  <line x1="9.14" y1="117.60" x2="10.57" y2="115.75" fill="currentColor" stroke="currentColor" stroke-width="1.2" stroke-linecap="round" stroke-linejoin="round" />
  <line x1="10.57" y1="115.75" x2="11.48" y2="117.60" fill="currentColor" stroke="currentColor" stroke-width="1.2" stroke-linecap="round" stroke-linejoin="round" />
  <line x1="8.00" y1="117.60" x2="9.14" y2="117.60" fill="currentColor" stroke="currentColor" stroke-width="1.2" stroke-linecap="round" stroke-linejoin="round" />
  <line x1="11.48" y1="117.60" x2="12.48" y2="117.60" fill="currentColor" stroke="currentColor" stroke-width="1.2" stroke-linecap="round" stroke-linejoin="round" />
  <rect x="16.78" y="152.60" width="9.59" height="9.59" fill="none" stroke="currentColor" stroke-width="1.0" stroke-linecap="round" stroke-linejoin="round" />
  <line x1="52.69" y1="165.31" x2="52.28" y2="165.31" fill="currentColor" stroke="currentColor" stroke-width="1.2" stroke-linecap="round" stroke-linejoin="round" />
  <line x1="52.28" y1="165.31" x2="49.72" y2="167.40" fill="currentColor" stroke="currentColor" stroke-width="1.2" stroke-linecap="round" stroke-linejoin="round" />
  <line x1="50.13" y1="168.34" x2="51.56" y2="167.16" fill="currentColor" stroke="currentColor" stroke-width="1.2" stroke-linecap="round" stroke-linejoin="round" />
  <line x1="49.72" y1="167.40" x2="50.13" y2="168.34" fill="currentColor" stroke="currentColor" stroke-width="1.2" stroke-linecap="round" stroke-linejoin="round" />
  <line x1="52.69" y1="172.91" x2="52.69" y2="165.31" fill="currentColor" stroke="currentColor" stroke-width="1.2" stroke-linecap="round" stroke-linejoin="round" />
  <line x1="51.56" y1="167.16" x2="51.56" y2="172.91" fill="currentColor" stroke="currentColor" stroke-width="1.2" stroke-linecap="round" stroke-linejoin="round" />
  <line x1="51.56" y1="172.91" x2="52.69" y2="172.91" fill="currentColor" stroke="currentColor" stroke-width="1.2" stroke-linecap="round" stroke-linejoin="round" />
  <line x1="22.98" y1="206.19" x2="30.56" y2="206.19" fill="none" stroke="currentColor" stroke-width="1.0759999871253967" stroke-linecap="round" stroke-linejoin="round" />
  <text x="23.15" y="219.19" font-size="11.0" fill="currentColor" stroke="none" font-family="'Iowan Old Style', 'Sitka Text', Charter, Cambria, Georgia, serif">2</text>
</svg>