<svg xmlns="http://www.w3.org/2000/svg" viewBox="0 0 194.81 93.37" preserveAspectRatio="xMidYMid meet" shape-rendering="geometricPrecision" text-rendering="optimizeLegibility">
  <polygon points="36.09,8.00 143.72,8.00 115.62,74.94 8.00,74.94" fill="none" stroke="currentColor" stroke-width="1.2" stroke-linecap="round" stroke-linejoin="round" />
  <path d="M186.36,24.53 C186.22,24.51 186.09,24.50 185.96,24.50" fill="currentColor" stroke="currentColor" stroke-width="1.2" stroke-linecap="round" stroke-linejoin="round" />
  <path d="M185.96,24.50 C185.47,24.51 185.03,24.59 184.64,24.74" fill="currentColor" stroke="currentColor" stroke-width="1.2" stroke-linecap="round" stroke-linejoin="round" />
  <path d="M186.81,24.59 C186.65,24.56 186.51,24.54 186.36,24.53" fill="currentColor" stroke="currentColor" stroke-width="1.2" stroke-linecap="round" stroke-linejoin="round" />
  <line x1="186.69" y1="25.41" x2="186.81" y2="24.59" fill="currentColor" stroke="currentColor" stroke-width="1.2" stroke-linecap="round" stroke-linejoin="round" />
  <path d="M184.64,24.74 C184.25,24.90 183.91,25.11 183.63,25.39" fill="currentColor" stroke="currentColor" stroke-width="1.2" stroke-linecap="round" stroke-linejoin="round" />
  <path d="M185.04,25.51 C185.32,25.40 185.63,25.34 185.97,25.34" fill="currentColor" stroke="currentColor" stroke-width="1.2" stroke-linecap="round" stroke-linejoin="round" />
  <path d="M185.97,25.34 C186.09,25.34 186.20,25.34 186.32,25.35" fill="currentColor" stroke="currentColor" stroke-width="1.2" stroke-linecap="round" stroke-linejoin="round" />
  <path d="M186.32,25.35 C186.44,25.37 186.56,25.39 186.69,25.41" fill="currentColor" stroke="currentColor" stroke-width="1.2" stroke-linecap="round" stroke-linejoin="round" />
  <path d="M183.63,25.39 C183.35,25.66 183.14,25.97 182.99,26.33" fill="currentColor" stroke="currentColor" stroke-width="1.2" stroke-linecap="round" stroke-linejoin="round" />
  <path d="M184.33,25.99 C184.53,25.79 184.76,25.63 185.04,25.51" fill="currentColor" stroke="currentColor" stroke-width="1.2" stroke-linecap="round" stroke-linejoin="round" />
  <path d="M183.88,26.65 C183.98,26.40 184.13,26.18 184.33,25.99" fill="currentColor" stroke="currentColor" stroke-width="1.2" stroke-linecap="round" stroke-linejoin="round" />
  <path d="M182.99,26.33 C182.84,26.69 182.76,27.07 182.76,27.47" fill="currentColor" stroke="currentColor" stroke-width="1.2" stroke-linecap="round" stroke-linejoin="round" />
  <path d="M183.72,27.42 C183.72,27.15 183.77,26.90 183.88,26.65" fill="currentColor" stroke="currentColor" stroke-width="1.2" stroke-linecap="round" stroke-linejoin="round" />
  <path d="M184.08,28.51 C183.84,28.25 183.72,27.89 183.72,27.42" fill="currentColor" stroke="currentColor" stroke-width="1.2" stroke-linecap="round" stroke-linejoin="round" />
  <path d="M182.76,27.47 C182.76,27.94 182.85,28.34 183.03,28.68" fill="currentColor" stroke="currentColor" stroke-width="1.2" stroke-linecap="round" stroke-linejoin="round" />
  <path d="M186.42,28.49 C186.19,28.63 185.97,28.74 185.76,28.81" fill="currentColor" stroke="currentColor" stroke-width="1.2" stroke-linecap="round" stroke-linejoin="round" />
  <line x1="186.31" y1="29.40" x2="186.42" y2="28.49" fill="currentColor" stroke="currentColor" stroke-width="1.2" stroke-linecap="round" stroke-linejoin="round" />
  <path d="M185.07,28.91 C184.65,28.91 184.32,28.78 184.08,28.51" fill="currentColor" stroke="currentColor" stroke-width="1.2" stroke-linecap="round" stroke-linejoin="round" />
  <path d="M183.03,28.68 C183.21,29.02 183.46,29.28 183.78,29.46" fill="currentColor" stroke="currentColor" stroke-width="1.2" stroke-linecap="round" stroke-linejoin="round" />
  <path d="M185.76,28.81 C185.54,28.88 185.31,28.91 185.07,28.91" fill="currentColor" stroke="currentColor" stroke-width="1.2" stroke-linecap="round" stroke-linejoin="round" />
  <path d="M185.64,29.67 C185.85,29.61 186.08,29.52 186.31,29.40" fill="currentColor" stroke="currentColor" stroke-width="1.2" stroke-linecap="round" stroke-linejoin="round" />
  <path d="M183.78,29.46 C184.11,29.65 184.49,29.74 184.94,29.75" fill="currentColor" stroke="currentColor" stroke-width="1.2" stroke-linecap="round" stroke-linejoin="round" />
  <path d="M184.94,29.75 C185.19,29.75 185.42,29.72 185.64,29.67" fill="currentColor" stroke="currentColor" stroke-width="1.2" stroke-linecap="round" stroke-linejoin="round" />
  <path d="M17.62,38.89 C17.48,38.88 17.35,38.87 17.23,38.87" fill="currentColor" stroke="currentColor" stroke-width="1.2" stroke-linecap="round" stroke-linejoin="round" />
  <path d="M17.23,38.87 C16.74,38.88 16.32,38.94 15.95,39.06" fill="currentColor" stroke="currentColor" stroke-width="1.2" stroke-linecap="round" stroke-linejoin="round" />
  <path d="M18.05,38.95 C17.91,38.92 17.77,38.91 17.62,38.89" fill="currentColor" stroke="currentColor" stroke-width="1.2" stroke-linecap="round" stroke-linejoin="round" />
  <path d="M18.39,39.03 C18.30,39.00 18.18,38.97 18.05,38.95" fill="currentColor" stroke="currentColor" stroke-width="1.2" stroke-linecap="round" stroke-linejoin="round" />
  <line x1="17.70" y1="43.96" x2="18.39" y2="39.03" fill="currentColor" stroke="currentColor" stroke-width="1.2" stroke-linecap="round" stroke-linejoin="round" />
  <path d="M15.95,39.06 C15.58,39.18 15.27,39.35 15.00,39.56" fill="currentColor" stroke="currentColor" stroke-width="1.2" stroke-linecap="round" stroke-linejoin="round" />
  <path d="M15.00,39.56 C14.74,39.77 14.53,40.01 14.36,40.29" fill="currentColor" stroke="currentColor" stroke-width="1.2" stroke-linecap="round" stroke-linejoin="round" />
  <path d="M16.29,39.79 C16.58,39.69 16.94,39.66 17.37,39.69" fill="currentColor" stroke="currentColor" stroke-width="1.2" stroke-linecap="round" stroke-linejoin="round" />
  <line x1="17.37" y1="39.69" x2="16.96" y2="42.53" fill="currentColor" stroke="currentColor" stroke-width="1.2" stroke-linecap="round" stroke-linejoin="round" />
  <path d="M15.55,40.21 C15.74,40.03 15.99,39.89 16.29,39.79" fill="currentColor" stroke="currentColor" stroke-width="1.2" stroke-linecap="round" stroke-linejoin="round" />
  <path d="M15.11,40.81 C15.21,40.60 15.36,40.40 15.55,40.21" fill="currentColor" stroke="currentColor" stroke-width="1.2" stroke-linecap="round" stroke-linejoin="round" />
  <path d="M14.36,40.29 C14.19,40.56 14.07,40.86 13.99,41.17" fill="currentColor" stroke="currentColor" stroke-width="1.2" stroke-linecap="round" stroke-linejoin="round" />
  <path d="M14.89,41.44 C14.93,41.24 15.00,41.03 15.11,40.81" fill="currentColor" stroke="currentColor" stroke-width="1.2" stroke-linecap="round" stroke-linejoin="round" />
  <path d="M13.99,41.17 C13.91,41.48 13.87,41.79 13.87,42.11" fill="currentColor" stroke="currentColor" stroke-width="1.2" stroke-linecap="round" stroke-linejoin="round" />
  <path d="M14.83,41.94 C14.83,41.80 14.85,41.64 14.89,41.44" fill="currentColor" stroke="currentColor" stroke-width="1.2" stroke-linecap="round" stroke-linejoin="round" />
  <path d="M14.95,42.64 C14.87,42.44 14.83,42.21 14.83,41.94" fill="currentColor" stroke="currentColor" stroke-width="1.2" stroke-linecap="round" stroke-linejoin="round" />
  <path d="M13.87,42.11 C13.88,42.47 13.95,42.80 14.09,43.09" fill="currentColor" stroke="currentColor" stroke-width="1.2" stroke-linecap="round" stroke-linejoin="round" />
  <path d="M16.96,42.53 C16.86,42.67 16.75,42.79 16.62,42.90" fill="currentColor" stroke="currentColor" stroke-width="1.2" stroke-linecap="round" stroke-linejoin="round" />
  <path d="M15.30,43.12 C15.15,43.00 15.04,42.85 14.95,42.64" fill="currentColor" stroke="currentColor" stroke-width="1.2" stroke-linecap="round" stroke-linejoin="round" />
  <path d="M16.62,42.90 C16.49,43.02 16.35,43.11 16.21,43.18" fill="currentColor" stroke="currentColor" stroke-width="1.2" stroke-linecap="round" stroke-linejoin="round" />
  <path d="M14.09,43.09 C14.23,43.39 14.43,43.62 14.67,43.80" fill="currentColor" stroke="currentColor" stroke-width="1.2" stroke-linecap="round" stroke-linejoin="round" />
  <path d="M15.81,43.29 C15.61,43.29 15.45,43.23 15.30,43.12" fill="currentColor" stroke="currentColor" stroke-width="1.2" stroke-linecap="round" stroke-linejoin="round" />
  <path d="M16.21,43.18 C16.07,43.25 15.93,43.29 15.81,43.29" fill="currentColor" stroke="currentColor" stroke-width="1.2" stroke-linecap="round" stroke-linejoin="round" />
  <path d="M16.20,43.87 C16.42,43.75 16.64,43.58 16.83,43.37" fill="currentColor" stroke="currentColor" stroke-width="1.2" stroke-linecap="round" stroke-linejoin="round" />
  <line x1="16.83" y1="43.37" x2="16.85" y2="43.39" fill="currentColor" stroke="currentColor" stroke-width="1.2" stroke-linecap="round" stroke-linejoin="round" />
  <line x1="16.85" y1="43.39" x2="16.76" y2="43.96" fill="currentColor" stroke="currentColor" stroke-width="1.2" stroke-linecap="round" stroke-linejoin="round" />
  <path d="M14.67,43.80 C14.92,43.97 15.19,44.06 15.50,44.06" fill="currentColor" stroke="currentColor" stroke-width="1.2" stroke-linecap="round" stroke-linejoin="round" />
  <path d="M15.50,44.06 C15.74,44.06 15.97,44.00 16.20,43.87" fill="currentColor" stroke="currentColor" stroke-width="1.2" stroke-linecap="round" stroke-linejoin="round" />
  <line x1="16.76" y1="43.96" x2="17.70" y2="43.96" fill="currentColor" stroke="currentColor" stroke-width="1.2" stroke-linecap="round" stroke-linejoin="round" />
  <line x1="59.71" y1="77.71" x2="58.75" y2="77.71" fill="currentColor" stroke="currentColor" stroke-width="1.2" stroke-linecap="round" stroke-linejoin="round" />
  <line x1="58.75" y1="77.71" x2="57.73" y2="85.29" fill="currentColor" stroke="currentColor" stroke-width="1.2" stroke-linecap="round" stroke-linejoin="round" />
  <line x1="59.29" y1="80.65" x2="59.71" y2="77.71" fill="currentColor" stroke="currentColor" stroke-width="1.2" stroke-linecap="round" stroke-linejoin="round" />
  <path d="M60.51,80.12 C60.28,80.12 60.08,80.16 59.89,80.25" fill="currentColor" stroke="currentColor" stroke-width="1.2" stroke-linecap="round" stroke-linejoin="round" />
  <path d="M61.42,80.41 C61.16,80.22 60.86,80.13 60.51,80.12" fill="currentColor" stroke="currentColor" stroke-width="1.2" stroke-linecap="round" stroke-linejoin="round" />
  <path d="M59.89,80.25 C59.70,80.33 59.51,80.47 59.31,80.67" fill="currentColor" stroke="currentColor" stroke-width="1.2" stroke-linecap="round" stroke-linejoin="round" />
  <path d="M62.02,81.20 C61.88,80.86 61.68,80.60 61.42,80.41" fill="currentColor" stroke="currentColor" stroke-width="1.2" stroke-linecap="round" stroke-linejoin="round" />
  <line x1="59.31" y1="80.67" x2="59.29" y2="80.65" fill="currentColor" stroke="currentColor" stroke-width="1.2" stroke-linecap="round" stroke-linejoin="round" />
  <path d="M59.94,80.98 C60.05,80.95 60.14,80.94 60.22,80.94" fill="currentColor" stroke="currentColor" stroke-width="1.2" stroke-linecap="round" stroke-linejoin="round" />
  <path d="M60.22,80.94 C60.56,80.94 60.82,81.06 61.00,81.31" fill="currentColor" stroke="currentColor" stroke-width="1.2" stroke-linecap="round" stroke-linejoin="round" />
  <path d="M59.60,81.09 C59.72,81.04 59.83,81.00 59.94,80.98" fill="currentColor" stroke="currentColor" stroke-width="1.2" stroke-linecap="round" stroke-linejoin="round" />
  <path d="M59.32,81.29 C59.40,81.21 59.49,81.15 59.60,81.09" fill="currentColor" stroke="currentColor" stroke-width="1.2" stroke-linecap="round" stroke-linejoin="round" />
  <path d="M62.25,82.38 C62.24,81.93 62.17,81.54 62.02,81.20" fill="currentColor" stroke="currentColor" stroke-width="1.2" stroke-linecap="round" stroke-linejoin="round" />
  <path d="M59.17,81.56 C59.19,81.46 59.24,81.37 59.32,81.29" fill="currentColor" stroke="currentColor" stroke-width="1.2" stroke-linecap="round" stroke-linejoin="round" />
  <path d="M61.00,81.31 C61.19,81.55 61.29,81.90 61.29,82.35" fill="currentColor" stroke="currentColor" stroke-width="1.2" stroke-linecap="round" stroke-linejoin="round" />
  <line x1="58.74" y1="84.60" x2="59.17" y2="81.56" fill="currentColor" stroke="currentColor" stroke-width="1.2" stroke-linecap="round" stroke-linejoin="round" />
  <path d="M61.29,82.35 C61.29,82.80 61.21,83.19 61.05,83.53" fill="currentColor" stroke="currentColor" stroke-width="1.2" stroke-linecap="round" stroke-linejoin="round" />
  <path d="M62.15,83.19 C62.21,82.92 62.25,82.64 62.25,82.38" fill="currentColor" stroke="currentColor" stroke-width="1.2" stroke-linecap="round" stroke-linejoin="round" />
  <path d="M61.83,84.00 C61.98,83.74 62.09,83.47 62.15,83.19" fill="currentColor" stroke="currentColor" stroke-width="1.2" stroke-linecap="round" stroke-linejoin="round" />
  <path d="M61.05,83.53 C60.89,83.86 60.66,84.12 60.36,84.31" fill="currentColor" stroke="currentColor" stroke-width="1.2" stroke-linecap="round" stroke-linejoin="round" />
  <path d="M61.24,84.69 C61.49,84.49 61.68,84.26 61.83,84.00" fill="currentColor" stroke="currentColor" stroke-width="1.2" stroke-linecap="round" stroke-linejoin="round" />
  <path d="M60.36,84.31 C60.06,84.50 59.69,84.59 59.25,84.60" fill="currentColor" stroke="currentColor" stroke-width="1.2" stroke-linecap="round" stroke-linejoin="round" />
  <line x1="59.25" y1="84.60" x2="58.74" y2="84.60" fill="currentColor" stroke="currentColor" stroke-width="1.2" stroke-linecap="round" stroke-linejoin="round" />
  <path d="M60.32,85.18 C60.69,85.06 60.99,84.90 61.24,84.69" fill="currentColor" stroke="currentColor" stroke-width="1.2" stroke-linecap="round" stroke-linejoin="round" />
  <path d="M59.03,85.37 C59.53,85.36 59.96,85.30 60.32,85.18" fill="currentColor" stroke="currentColor" stroke-width="1.2" stroke-linecap="round" stroke-linejoin="round" />
  <path d="M57.73,85.29 C57.82,85.31 57.94,85.32 58.09,85.33" fill="currentColor" stroke="currentColor" stroke-width="1.2" stroke-linecap="round" stroke-linejoin="round" />
  <path d="M58.09,85.33 C58.23,85.34 58.38,85.35 58.55,85.36" fill="currentColor" stroke="currentColor" stroke-width="1.2" stroke-linecap="round" stroke-linejoin="round" />
  <path d="M58.55,85.36 C58.71,85.36 58.88,85.37 59.03,85.37" fill="currentColor" stroke="currentColor" stroke-width="1.2" stroke-linecap="round" stroke-linejoin="round" />
</svg>