<svg xmlns="http://www.w3.org/2000/svg" viewBox="0 0 198.09 95.70" preserveAspectRatio="xMidYMid meet" shape-rendering="geometricPrecision" text-rendering="optimizeLegibility">
  <path d="M187.64,8.06 C187.38,8.02 187.12,8.00 186.86,8.00" fill="currentColor" stroke="currentColor" stroke-width="1.2" stroke-linecap="round" stroke-linejoin="round" />
  <path d="M186.86,8.00 C186.26,8.00 185.71,8.10 185.21,8.30" fill="currentColor" stroke="currentColor" stroke-width="1.2" stroke-linecap="round" stroke-linejoin="round" />
  <path d="M188.48,8.27 C188.19,8.17 187.91,8.11 187.64,8.06" fill="currentColor" stroke="currentColor" stroke-width="1.2" stroke-linecap="round" stroke-linejoin="round" />
  <path d="M189.43,8.62 C189.10,8.47 188.78,8.36 188.48,8.27" fill="currentColor" stroke="currentColor" stroke-width="1.2" stroke-linecap="round" stroke-linejoin="round" />
  <path d="M185.21,8.30 C184.71,8.49 184.28,8.77 183.91,9.12" fill="currentColor" stroke="currentColor" stroke-width="1.2" stroke-linecap="round" stroke-linejoin="round" />
  <line x1="189.43" y1="9.77" x2="189.43" y2="8.62" fill="currentColor" stroke="currentColor" stroke-width="1.2" stroke-linecap="round" stroke-linejoin="round" />
  <path d="M186.85,8.99 C187.28,8.99 187.70,9.05 188.12,9.18" fill="currentColor" stroke="currentColor" stroke-width="1.2" stroke-linecap="round" stroke-linejoin="round" />
  <path d="M185.66,9.21 C186.02,9.06 186.42,8.99 186.85,8.99" fill="currentColor" stroke="currentColor" stroke-width="1.2" stroke-linecap="round" stroke-linejoin="round" />
  <path d="M183.91,9.12 C183.54,9.48 183.26,9.89 183.05,10.38" fill="currentColor" stroke="currentColor" stroke-width="1.2" stroke-linecap="round" stroke-linejoin="round" />
  <path d="M188.12,9.18 C188.54,9.31 188.98,9.50 189.43,9.77" fill="currentColor" stroke="currentColor" stroke-width="1.2" stroke-linecap="round" stroke-linejoin="round" />
  <path d="M184.71,9.81 C184.98,9.55 185.30,9.35 185.66,9.21" fill="currentColor" stroke="currentColor" stroke-width="1.2" stroke-linecap="round" stroke-linejoin="round" />
  <path d="M184.08,10.72 C184.23,10.37 184.44,10.06 184.71,9.81" fill="currentColor" stroke="currentColor" stroke-width="1.2" stroke-linecap="round" stroke-linejoin="round" />
  <path d="M183.05,10.38 C182.85,10.86 182.75,11.38 182.75,11.96" fill="currentColor" stroke="currentColor" stroke-width="1.2" stroke-linecap="round" stroke-linejoin="round" />
  <path d="M183.86,11.86 C183.86,11.45 183.94,11.06 184.08,10.72" fill="currentColor" stroke="currentColor" stroke-width="1.2" stroke-linecap="round" stroke-linejoin="round" />
  <path d="M184.24,13.35 C183.99,12.92 183.86,12.43 183.86,11.86" fill="currentColor" stroke="currentColor" stroke-width="1.2" stroke-linecap="round" stroke-linejoin="round" />
  <path d="M182.75,11.96 C182.75,12.28 182.80,12.61 182.90,12.95" fill="currentColor" stroke="currentColor" stroke-width="1.2" stroke-linecap="round" stroke-linejoin="round" />
  <path d="M182.90,12.95 C183.00,13.30 183.15,13.63 183.36,13.95" fill="currentColor" stroke="currentColor" stroke-width="1.2" stroke-linecap="round" stroke-linejoin="round" />
  <path d="M185.31,14.34 C184.85,14.10 184.50,13.77 184.24,13.35" fill="currentColor" stroke="currentColor" stroke-width="1.2" stroke-linecap="round" stroke-linejoin="round" />
  <line x1="189.51" y1="15.04" x2="189.51" y2="13.86" fill="currentColor" stroke="currentColor" stroke-width="1.2" stroke-linecap="round" stroke-linejoin="round" />
  <path d="M189.51,13.86 C189.09,14.14 188.65,14.35 188.20,14.49" fill="currentColor" stroke="currentColor" stroke-width="1.2" stroke-linecap="round" stroke-linejoin="round" />
  <path d="M183.36,13.95 C183.57,14.28 183.83,14.57 184.15,14.84" fill="currentColor" stroke="currentColor" stroke-width="1.2" stroke-linecap="round" stroke-linejoin="round" />
  <path d="M186.89,14.71 C186.29,14.70 185.76,14.58 185.31,14.34" fill="currentColor" stroke="currentColor" stroke-width="1.2" stroke-linecap="round" stroke-linejoin="round" />
  <path d="M188.20,14.49 C187.76,14.64 187.32,14.71 186.89,14.71" fill="currentColor" stroke="currentColor" stroke-width="1.2" stroke-linecap="round" stroke-linejoin="round" />
  <path d="M184.15,14.84 C184.47,15.10 184.85,15.31 185.29,15.46" fill="currentColor" stroke="currentColor" stroke-width="1.2" stroke-linecap="round" stroke-linejoin="round" />
  <path d="M188.74,15.38 C189.01,15.28 189.27,15.17 189.51,15.04" fill="currentColor" stroke="currentColor" stroke-width="1.2" stroke-linecap="round" stroke-linejoin="round" />
  <line x1="181.47" y1="75.95" x2="181.47" y2="15.04" fill="none" stroke="currentColor" stroke-width="1.0" stroke-linecap="round" stroke-linejoin="round" />
  <path d="M187.86,15.61 C188.18,15.56 188.47,15.48 188.74,15.38" fill="currentColor" stroke="currentColor" stroke-width="1.2" stroke-linecap="round" stroke-linejoin="round" />
  <path d="M185.29,15.46 C185.73,15.62 186.23,15.69 186.80,15.70" fill="currentColor" stroke="currentColor" stroke-width="1.2" stroke-linecap="round" stroke-linejoin="round" />
  <path d="M186.80,15.70 C187.19,15.70 187.54,15.67 187.86,15.61" fill="currentColor" stroke="currentColor" stroke-width="1.2" stroke-linecap="round" stroke-linejoin="round" />
  <line x1="134.21" y1="75.73" x2="180.40" y2="15.83" fill="none" stroke="currentColor" stroke-width="1.2" stroke-linecap="round" stroke-linejoin="round" />
  <line x1="180.40" y1="15.83" x2="20.82" y2="75.73" fill="none" stroke="currentColor" stroke-width="1.2" stroke-linecap="round" stroke-linejoin="round" />
  <line x1="190.09" y1="43.02" x2="188.94" y2="43.02" fill="currentColor" stroke="currentColor" stroke-width="1.2" stroke-linecap="round" stroke-linejoin="round" />
  <line x1="188.94" y1="43.02" x2="187.65" y2="44.68" fill="currentColor" stroke="currentColor" stroke-width="1.2" stroke-linecap="round" stroke-linejoin="round" />
  <line x1="187.65" y1="44.68" x2="186.87" y2="43.02" fill="currentColor" stroke="currentColor" stroke-width="1.2" stroke-linecap="round" stroke-linejoin="round" />
  <line x1="186.87" y1="43.02" x2="185.87" y2="43.02" fill="currentColor" stroke="currentColor" stroke-width="1.2" stroke-linecap="round" stroke-linejoin="round" />
  <line x1="185.87" y1="43.02" x2="187.04" y2="45.34" fill="currentColor" stroke="currentColor" stroke-width="1.2" stroke-linecap="round" stroke-linejoin="round" />
  <line x1="188.10" y1="45.46" x2="190.09" y2="43.02" fill="currentColor" stroke="currentColor" stroke-width="1.2" stroke-linecap="round" stroke-linejoin="round" />
  <line x1="187.04" y1="45.34" x2="184.88" y2="47.96" fill="currentColor" stroke="currentColor" stroke-width="1.2" stroke-linecap="round" stroke-linejoin="round" />
  <line x1="189.36" y1="47.96" x2="188.10" y2="45.46" fill="currentColor" stroke="currentColor" stroke-width="1.2" stroke-linecap="round" stroke-linejoin="round" />
  <line x1="186.02" y1="47.96" x2="187.45" y2="46.11" fill="currentColor" stroke="currentColor" stroke-width="1.2" stroke-linecap="round" stroke-linejoin="round" />
  <line x1="187.45" y1="46.11" x2="188.35" y2="47.96" fill="currentColor" stroke="currentColor" stroke-width="1.2" stroke-linecap="round" stroke-linejoin="round" />
  <line x1="184.88" y1="47.96" x2="186.02" y2="47.96" fill="currentColor" stroke="currentColor" stroke-width="1.2" stroke-linecap="round" stroke-linejoin="round" />
  <line x1="188.35" y1="47.96" x2="189.36" y2="47.96" fill="currentColor" stroke="currentColor" stroke-width="1.2" stroke-linecap="round" stroke-linejoin="round" />
  <rect x="176.34" y="70.82" width="5.13" height="5.13" fill="none" stroke="currentColor" stroke-width="1.0" stroke-linecap="round" stroke-linejoin="round" />
  <line x1="11.98" y1="71.47" x2="11.22" y2="71.47" fill="currentColor" stroke="currentColor" stroke-width="1.2" stroke-linecap="round" stroke-linejoin="round" />
  <line x1="11.22" y1="71.47" x2="8.00" y2="79.01" fill="currentColor" stroke="currentColor" stroke-width="1.2" stroke-linecap="round" stroke-linejoin="round" />
  <line x1="15.34" y1="79.01" x2="11.98" y2="71.47" fill="currentColor" stroke="currentColor" stroke-width="1.2" stroke-linecap="round" stroke-linejoin="round" />
  <line x1="11.59" y1="73.12" x2="12.80" y2="75.83" fill="currentColor" stroke="currentColor" stroke-width="1.2" stroke-linecap="round" stroke-linejoin="round" />
  <line x1="10.46" y1="75.83" x2="11.59" y2="73.12" fill="currentColor" stroke="currentColor" stroke-width="1.2" stroke-linecap="round" stroke-linejoin="round" />
  <line x1="20.82" y1="75.73" x2="134.21" y2="75.73" fill="none" stroke="currentColor" stroke-width="1.2" stroke-linecap="round" stroke-linejoin="round" />
  <line x1="12.80" y1="75.83" x2="10.46" y2="75.83" fill="currentColor" stroke="currentColor" stroke-width="1.2" stroke-linecap="round" stroke-linejoin="round" />
  <line x1="130.45" y1="75.95" x2="181.47" y2="75.95" fill="none" stroke="currentColor" stroke-width="1.0" stroke-linecap="round" stroke-linejoin="round" />
  <line x1="9.10" y1="79.01" x2="10.05" y2="76.80" fill="currentColor" stroke="currentColor" stroke-width="1.2" stroke-linecap="round" stroke-linejoin="round" />
  <line x1="10.05" y1="76.80" x2="13.24" y2="76.80" fill="currentColor" stroke="currentColor" stroke-width="1.2" stroke-linecap="round" stroke-linejoin="round" />
  <line x1="13.24" y1="76.80" x2="14.24" y2="79.01" fill="currentColor" stroke="currentColor" stroke-width="1.2" stroke-linecap="round" stroke-linejoin="round" />
  <path d="M136.55,78.38 C136.26,78.27 135.91,78.22 135.51,78.21" fill="currentColor" stroke="currentColor" stroke-width="1.2" stroke-linecap="round" stroke-linejoin="round" />
  <line x1="135.51" y1="78.21" x2="133.33" y2="78.21" fill="currentColor" stroke="currentColor" stroke-width="1.2" stroke-linecap="round" stroke-linejoin="round" />
  <line x1="133.33" y1="78.21" x2="133.33" y2="85.71" fill="currentColor" stroke="currentColor" stroke-width="1.2" stroke-linecap="round" stroke-linejoin="round" />
  <path d="M137.27,78.81 C137.08,78.63 136.84,78.49 136.55,78.38" fill="currentColor" stroke="currentColor" stroke-width="1.2" stroke-linecap="round" stroke-linejoin="round" />
  <path d="M137.68,79.43 C137.59,79.20 137.46,79.00 137.27,78.81" fill="currentColor" stroke="currentColor" stroke-width="1.2" stroke-linecap="round" stroke-linejoin="round" />
  <line x1="8.00" y1="79.01" x2="9.10" y2="79.01" fill="currentColor" stroke="currentColor" stroke-width="1.2" stroke-linecap="round" stroke-linejoin="round" />
  <line x1="14.24" y1="79.01" x2="15.34" y2="79.01" fill="currentColor" stroke="currentColor" stroke-width="1.2" stroke-linecap="round" stroke-linejoin="round" />
  <line x1="134.40" y1="79.18" x2="135.40" y2="79.18" fill="currentColor" stroke="currentColor" stroke-width="1.2" stroke-linecap="round" stroke-linejoin="round" />
  <path d="M135.40,79.18 C135.72,79.18 135.99,79.23 136.18,79.33" fill="currentColor" stroke="currentColor" stroke-width="1.2" stroke-linecap="round" stroke-linejoin="round" />
  <line x1="134.40" y1="81.43" x2="134.40" y2="79.18" fill="currentColor" stroke="currentColor" stroke-width="1.2" stroke-linecap="round" stroke-linejoin="round" />
  <path d="M136.18,79.33 C136.37,79.42 136.51,79.55 136.59,79.70" fill="currentColor" stroke="currentColor" stroke-width="1.2" stroke-linecap="round" stroke-linejoin="round" />
  <path d="M137.82,80.13 C137.82,79.89 137.77,79.65 137.68,79.43" fill="currentColor" stroke="currentColor" stroke-width="1.2" stroke-linecap="round" stroke-linejoin="round" />
  <path d="M136.59,79.70 C136.67,79.86 136.71,80.04 136.71,80.23" fill="currentColor" stroke="currentColor" stroke-width="1.2" stroke-linecap="round" stroke-linejoin="round" />
  <line x1="74.95" y1="80.00" x2="74.49" y2="80.00" fill="currentColor" stroke="currentColor" stroke-width="1.2" stroke-linecap="round" stroke-linejoin="round" />
  <line x1="74.49" y1="80.00" x2="70.70" y2="84.64" fill="currentColor" stroke="currentColor" stroke-width="1.2" stroke-linecap="round" stroke-linejoin="round" />
  <line x1="74.95" y1="84.17" x2="74.95" y2="80.00" fill="currentColor" stroke="currentColor" stroke-width="1.2" stroke-linecap="round" stroke-linejoin="round" />
  <path d="M137.54,81.10 C137.73,80.84 137.82,80.52 137.82,80.13" fill="currentColor" stroke="currentColor" stroke-width="1.2" stroke-linecap="round" stroke-linejoin="round" />
  <path d="M136.71,80.23 C136.71,80.63 136.58,80.93 136.31,81.13" fill="currentColor" stroke="currentColor" stroke-width="1.2" stroke-linecap="round" stroke-linejoin="round" />
  <path d="M136.67,81.73 C137.06,81.58 137.35,81.37 137.54,81.10" fill="currentColor" stroke="currentColor" stroke-width="1.2" stroke-linecap="round" stroke-linejoin="round" />
  <path d="M136.31,81.13 C136.05,81.33 135.65,81.43 135.12,81.43" fill="currentColor" stroke="currentColor" stroke-width="1.2" stroke-linecap="round" stroke-linejoin="round" />
  <line x1="135.12" y1="81.43" x2="134.40" y2="81.43" fill="currentColor" stroke="currentColor" stroke-width="1.2" stroke-linecap="round" stroke-linejoin="round" />
  <line x1="136.67" y1="81.75" x2="136.67" y2="81.73" fill="currentColor" stroke="currentColor" stroke-width="1.2" stroke-linecap="round" stroke-linejoin="round" />
  <path d="M137.64,82.13 C137.37,81.95 137.05,81.83 136.67,81.75" fill="currentColor" stroke="currentColor" stroke-width="1.2" stroke-linecap="round" stroke-linejoin="round" />
  <line x1="73.85" y1="82.03" x2="73.88" y2="82.03" fill="currentColor" stroke="currentColor" stroke-width="1.2" stroke-linecap="round" stroke-linejoin="round" />
  <line x1="73.88" y1="82.03" x2="73.88" y2="84.17" fill="currentColor" stroke="currentColor" stroke-width="1.2" stroke-linecap="round" stroke-linejoin="round" />
  <line x1="72.14" y1="84.17" x2="73.85" y2="82.03" fill="currentColor" stroke="currentColor" stroke-width="1.2" stroke-linecap="round" stroke-linejoin="round" />
  <path d="M138.26,82.80 C138.11,82.53 137.91,82.31 137.64,82.13" fill="currentColor" stroke="currentColor" stroke-width="1.2" stroke-linecap="round" stroke-linejoin="round" />
  <line x1="134.40" y1="82.39" x2="135.71" y2="82.39" fill="currentColor" stroke="currentColor" stroke-width="1.2" stroke-linecap="round" stroke-linejoin="round" />
  <path d="M135.71,82.39 C136.08,82.39 136.39,82.44 136.64,82.54" fill="currentColor" stroke="currentColor" stroke-width="1.2" stroke-linecap="round" stroke-linejoin="round" />
  <line x1="134.40" y1="84.75" x2="134.40" y2="82.39" fill="currentColor" stroke="currentColor" stroke-width="1.2" stroke-linecap="round" stroke-linejoin="round" />
  <path d="M136.64,82.54 C136.88,82.64 137.07,82.78 137.19,82.95" fill="currentColor" stroke="currentColor" stroke-width="1.2" stroke-linecap="round" stroke-linejoin="round" />
  <path d="M91.01,82.80 C90.76,82.64 90.48,82.56 90.14,82.56" fill="currentColor" stroke="currentColor" stroke-width="1.2" stroke-linecap="round" stroke-linejoin="round" />
  <path d="M90.14,82.56 C89.91,82.56 89.69,82.60 89.49,82.69" fill="currentColor" stroke="currentColor" stroke-width="1.2" stroke-linecap="round" stroke-linejoin="round" />
  <path d="M87.87,82.79 C87.61,82.64 87.33,82.56 87.02,82.56" fill="currentColor" stroke="currentColor" stroke-width="1.2" stroke-linecap="round" stroke-linejoin="round" />
  <path d="M87.02,82.56 C86.79,82.56 86.55,82.62 86.31,82.75" fill="currentColor" stroke="currentColor" stroke-width="1.2" stroke-linecap="round" stroke-linejoin="round" />
  <path d="M82.54,82.60 C82.39,82.58 82.21,82.56 82.02,82.56" fill="currentColor" stroke="currentColor" stroke-width="1.2" stroke-linecap="round" stroke-linejoin="round" />
  <path d="M82.02,82.56 C81.52,82.56 81.09,82.67 80.73,82.89" fill="currentColor" stroke="currentColor" stroke-width="1.2" stroke-linecap="round" stroke-linejoin="round" />
  <path d="M83.00,82.72 C82.85,82.67 82.70,82.63 82.54,82.60" fill="currentColor" stroke="currentColor" stroke-width="1.2" stroke-linecap="round" stroke-linejoin="round" />
  <line x1="84.60" y1="82.66" x2="84.60" y2="87.60" fill="currentColor" stroke="currentColor" stroke-width="1.2" stroke-linecap="round" stroke-linejoin="round" />
  <line x1="85.58" y1="83.31" x2="85.58" y2="82.66" fill="currentColor" stroke="currentColor" stroke-width="1.2" stroke-linecap="round" stroke-linejoin="round" />
  <line x1="85.58" y1="82.66" x2="84.60" y2="82.66" fill="currentColor" stroke="currentColor" stroke-width="1.2" stroke-linecap="round" stroke-linejoin="round" />
  <path d="M89.49,82.69 C89.30,82.77 89.12,82.87 88.95,83.01" fill="currentColor" stroke="currentColor" stroke-width="1.2" stroke-linecap="round" stroke-linejoin="round" />
  <path d="M83.45,82.90 C83.30,82.83 83.15,82.77 83.00,82.72" fill="currentColor" stroke="currentColor" stroke-width="1.2" stroke-linecap="round" stroke-linejoin="round" />
  <path d="M86.31,82.75 C86.07,82.87 85.83,83.06 85.58,83.31" fill="currentColor" stroke="currentColor" stroke-width="1.2" stroke-linecap="round" stroke-linejoin="round" />
  <path d="M88.49,83.45 C88.32,83.16 88.12,82.94 87.87,82.79" fill="currentColor" stroke="currentColor" stroke-width="1.2" stroke-linecap="round" stroke-linejoin="round" />
  <path d="M138.48,83.71 C138.47,83.37 138.40,83.07 138.26,82.80" fill="currentColor" stroke="currentColor" stroke-width="1.2" stroke-linecap="round" stroke-linejoin="round" />
  <path d="M91.58,83.48 C91.44,83.19 91.25,82.96 91.01,82.80" fill="currentColor" stroke="currentColor" stroke-width="1.2" stroke-linecap="round" stroke-linejoin="round" />
  <path d="M80.73,82.89 C80.36,83.11 80.08,83.41 79.88,83.81" fill="currentColor" stroke="currentColor" stroke-width="1.2" stroke-linecap="round" stroke-linejoin="round" />
  <line x1="83.45" y1="83.95" x2="83.45" y2="82.90" fill="currentColor" stroke="currentColor" stroke-width="1.2" stroke-linecap="round" stroke-linejoin="round" />
  <path d="M137.19,82.95 C137.31,83.13 137.37,83.33 137.37,83.56" fill="currentColor" stroke="currentColor" stroke-width="1.2" stroke-linecap="round" stroke-linejoin="round" />
  <path d="M88.95,83.01 C88.79,83.14 88.63,83.29 88.49,83.45" fill="currentColor" stroke="currentColor" stroke-width="1.2" stroke-linecap="round" stroke-linejoin="round" />
  <path d="M86.36,83.44 C86.49,83.40 86.64,83.38 86.81,83.39" fill="currentColor" stroke="currentColor" stroke-width="1.2" stroke-linecap="round" stroke-linejoin="round" />
  <path d="M89.24,83.56 C89.43,83.44 89.61,83.38 89.78,83.39" fill="currentColor" stroke="currentColor" stroke-width="1.2" stroke-linecap="round" stroke-linejoin="round" />
  <path d="M86.81,83.39 C86.97,83.39 87.12,83.42 87.25,83.50" fill="currentColor" stroke="currentColor" stroke-width="1.2" stroke-linecap="round" stroke-linejoin="round" />
  <path d="M89.78,83.39 C89.97,83.39 90.14,83.43 90.29,83.52" fill="currentColor" stroke="currentColor" stroke-width="1.2" stroke-linecap="round" stroke-linejoin="round" />
  <path d="M85.97,83.64 C86.09,83.55 86.22,83.48 86.36,83.44" fill="currentColor" stroke="currentColor" stroke-width="1.2" stroke-linecap="round" stroke-linejoin="round" />
  <path d="M82.09,83.46 C82.23,83.46 82.37,83.48 82.51,83.51" fill="currentColor" stroke="currentColor" stroke-width="1.2" stroke-linecap="round" stroke-linejoin="round" />
  <path d="M81.30,83.67 C81.53,83.54 81.79,83.47 82.09,83.46" fill="currentColor" stroke="currentColor" stroke-width="1.2" stroke-linecap="round" stroke-linejoin="round" />
  <path d="M91.78,84.50 C91.78,84.11 91.71,83.77 91.58,83.48" fill="currentColor" stroke="currentColor" stroke-width="1.2" stroke-linecap="round" stroke-linejoin="round" />
  <path d="M87.25,83.50 C87.39,83.58 87.49,83.71 87.57,83.88" fill="currentColor" stroke="currentColor" stroke-width="1.2" stroke-linecap="round" stroke-linejoin="round" />
  <path d="M82.51,83.51 C82.65,83.54 82.79,83.59 82.95,83.66" fill="currentColor" stroke="currentColor" stroke-width="1.2" stroke-linecap="round" stroke-linejoin="round" />
  <path d="M90.29,83.52 C90.45,83.61 90.57,83.74 90.66,83.91" fill="currentColor" stroke="currentColor" stroke-width="1.2" stroke-linecap="round" stroke-linejoin="round" />
  <path d="M137.37,83.56 C137.37,83.75 137.32,83.94 137.23,84.12" fill="currentColor" stroke="currentColor" stroke-width="1.2" stroke-linecap="round" stroke-linejoin="round" />
  <path d="M88.68,84.01 C88.86,83.83 89.04,83.68 89.24,83.56" fill="currentColor" stroke="currentColor" stroke-width="1.2" stroke-linecap="round" stroke-linejoin="round" />
  <path d="M85.58,84.01 C85.71,83.86 85.84,83.73 85.97,83.64" fill="currentColor" stroke="currentColor" stroke-width="1.2" stroke-linecap="round" stroke-linejoin="round" />
  <path d="M82.95,83.66 C83.10,83.73 83.27,83.82 83.45,83.95" fill="currentColor" stroke="currentColor" stroke-width="1.2" stroke-linecap="round" stroke-linejoin="round" />
  <path d="M80.78,84.26 C80.90,84.01 81.08,83.81 81.30,83.67" fill="currentColor" stroke="currentColor" stroke-width="1.2" stroke-linecap="round" stroke-linejoin="round" />
  <path d="M138.34,84.41 C138.43,84.18 138.48,83.95 138.48,83.71" fill="currentColor" stroke="currentColor" stroke-width="1.2" stroke-linecap="round" stroke-linejoin="round" />
  <path d="M79.88,83.81 C79.68,84.21 79.58,84.68 79.58,85.22" fill="currentColor" stroke="currentColor" stroke-width="1.2" stroke-linecap="round" stroke-linejoin="round" />
  <path d="M87.57,83.88 C87.65,84.05 87.70,84.26 87.70,84.53" fill="currentColor" stroke="currentColor" stroke-width="1.2" stroke-linecap="round" stroke-linejoin="round" />
  <path d="M90.66,83.91 C90.75,84.08 90.80,84.29 90.80,84.54" fill="currentColor" stroke="currentColor" stroke-width="1.2" stroke-linecap="round" stroke-linejoin="round" />
  <line x1="85.58" y1="87.60" x2="85.58" y2="84.01" fill="currentColor" stroke="currentColor" stroke-width="1.2" stroke-linecap="round" stroke-linejoin="round" />
  <line x1="88.68" y1="87.60" x2="88.68" y2="84.01" fill="currentColor" stroke="currentColor" stroke-width="1.2" stroke-linecap="round" stroke-linejoin="round" />
  <path d="M137.23,84.12 C137.14,84.30 136.97,84.45 136.74,84.56" fill="currentColor" stroke="currentColor" stroke-width="1.2" stroke-linecap="round" stroke-linejoin="round" />
  <line x1="75.75" y1="85.13" x2="75.75" y2="84.17" fill="currentColor" stroke="currentColor" stroke-width="1.2" stroke-linecap="round" stroke-linejoin="round" />
  <line x1="75.75" y1="84.17" x2="74.95" y2="84.17" fill="currentColor" stroke="currentColor" stroke-width="1.2" stroke-linecap="round" stroke-linejoin="round" />
  <line x1="73.88" y1="84.17" x2="72.14" y2="84.17" fill="currentColor" stroke="currentColor" stroke-width="1.2" stroke-linecap="round" stroke-linejoin="round" />
  <path d="M80.58,85.14 C80.59,84.80 80.65,84.51 80.78,84.26" fill="currentColor" stroke="currentColor" stroke-width="1.2" stroke-linecap="round" stroke-linejoin="round" />
  <path d="M137.89,85.06 C138.10,84.86 138.24,84.65 138.34,84.41" fill="currentColor" stroke="currentColor" stroke-width="1.2" stroke-linecap="round" stroke-linejoin="round" />
  <line x1="91.78" y1="87.60" x2="91.78" y2="84.50" fill="currentColor" stroke="currentColor" stroke-width="1.2" stroke-linecap="round" stroke-linejoin="round" />
  <line x1="87.70" y1="84.53" x2="87.70" y2="87.60" fill="currentColor" stroke="currentColor" stroke-width="1.2" stroke-linecap="round" stroke-linejoin="round" />
  <line x1="90.80" y1="84.54" x2="90.80" y2="87.60" fill="currentColor" stroke="currentColor" stroke-width="1.2" stroke-linecap="round" stroke-linejoin="round" />
  <path d="M136.74,84.56 C136.50,84.68 136.18,84.74 135.76,84.75" fill="currentColor" stroke="currentColor" stroke-width="1.2" stroke-linecap="round" stroke-linejoin="round" />
  <line x1="70.70" y1="84.64" x2="70.70" y2="85.13" fill="currentColor" stroke="currentColor" stroke-width="1.2" stroke-linecap="round" stroke-linejoin="round" />
  <line x1="135.76" y1="84.75" x2="134.40" y2="84.75" fill="currentColor" stroke="currentColor" stroke-width="1.2" stroke-linecap="round" stroke-linejoin="round" />
  <path d="M137.10,85.53 C137.43,85.41 137.69,85.26 137.89,85.06" fill="currentColor" stroke="currentColor" stroke-width="1.2" stroke-linecap="round" stroke-linejoin="round" />
  <line x1="70.70" y1="85.13" x2="73.88" y2="85.13" fill="currentColor" stroke="currentColor" stroke-width="1.2" stroke-linecap="round" stroke-linejoin="round" />
  <line x1="73.88" y1="85.13" x2="73.88" y2="87.60" fill="currentColor" stroke="currentColor" stroke-width="1.2" stroke-linecap="round" stroke-linejoin="round" />
  <line x1="74.95" y1="87.60" x2="74.95" y2="85.13" fill="currentColor" stroke="currentColor" stroke-width="1.2" stroke-linecap="round" stroke-linejoin="round" />
  <line x1="74.95" y1="85.13" x2="75.75" y2="85.13" fill="currentColor" stroke="currentColor" stroke-width="1.2" stroke-linecap="round" stroke-linejoin="round" />
  <path d="M80.79,86.02 C80.65,85.77 80.58,85.48 80.58,85.14" fill="currentColor" stroke="currentColor" stroke-width="1.2" stroke-linecap="round" stroke-linejoin="round" />
  <path d="M79.58,85.22 C79.59,85.71 79.69,86.14 79.90,86.51" fill="currentColor" stroke="currentColor" stroke-width="1.2" stroke-linecap="round" stroke-linejoin="round" />
  <path d="M135.90,85.71 C136.37,85.71 136.77,85.65 137.10,85.53" fill="currentColor" stroke="currentColor" stroke-width="1.2" stroke-linecap="round" stroke-linejoin="round" />
  <line x1="133.33" y1="85.71" x2="135.90" y2="85.71" fill="currentColor" stroke="currentColor" stroke-width="1.2" stroke-linecap="round" stroke-linejoin="round" />
  <path d="M81.37,86.58 C81.12,86.45 80.93,86.26 80.79,86.02" fill="currentColor" stroke="currentColor" stroke-width="1.2" stroke-linecap="round" stroke-linejoin="round" />
  <line x1="83.56" y1="87.41" x2="83.56" y2="86.45" fill="currentColor" stroke="currentColor" stroke-width="1.2" stroke-linecap="round" stroke-linejoin="round" />
  <path d="M83.56,86.45 C83.32,86.56 83.09,86.64 82.88,86.69" fill="currentColor" stroke="currentColor" stroke-width="1.2" stroke-linecap="round" stroke-linejoin="round" />
  <path d="M79.90,86.51 C80.12,86.88 80.41,87.17 80.78,87.38" fill="currentColor" stroke="currentColor" stroke-width="1.2" stroke-linecap="round" stroke-linejoin="round" />
  <path d="M82.25,86.78 C81.92,86.77 81.62,86.71 81.37,86.58" fill="currentColor" stroke="currentColor" stroke-width="1.2" stroke-linecap="round" stroke-linejoin="round" />
  <path d="M82.88,86.69 C82.67,86.75 82.46,86.78 82.25,86.78" fill="currentColor" stroke="currentColor" stroke-width="1.2" stroke-linecap="round" stroke-linejoin="round" />
  <path d="M80.78,87.38 C81.16,87.59 81.60,87.69 82.09,87.70" fill="currentColor" stroke="currentColor" stroke-width="1.2" stroke-linecap="round" stroke-linejoin="round" />
  <path d="M83.15,87.56 C83.31,87.51 83.45,87.46 83.56,87.41" fill="currentColor" stroke="currentColor" stroke-width="1.2" stroke-linecap="round" stroke-linejoin="round" />
  <path d="M82.63,87.66 C82.81,87.63 82.99,87.60 83.15,87.56" fill="currentColor" stroke="currentColor" stroke-width="1.2" stroke-linecap="round" stroke-linejoin="round" />
  <line x1="84.60" y1="87.60" x2="85.58" y2="87.60" fill="currentColor" stroke="currentColor" stroke-width="1.2" stroke-linecap="round" stroke-linejoin="round" />
  <line x1="87.70" y1="87.60" x2="88.68" y2="87.60" fill="currentColor" stroke="currentColor" stroke-width="1.2" stroke-linecap="round" stroke-linejoin="round" />
  <line x1="90.80" y1="87.60" x2="91.78" y2="87.60" fill="currentColor" stroke="currentColor" stroke-width="1.2" stroke-linecap="round" stroke-linejoin="round" />
  <line x1="73.88" y1="87.60" x2="74.95" y2="87.60" fill="currentColor" stroke="currentColor" stroke-width="1.2" stroke-linecap="round" stroke-linejoin="round" />
  <path d="M82.09,87.70 C82.26,87.70 82.44,87.68 82.63,87.66" fill="currentColor" stroke="currentColor" stroke-width="1.2" stroke-linecap="round" stroke-linejoin="round" />
</svg>