<svg xmlns="http://www.w3.org/2000/svg" viewBox="0 0 234.59 46.45" preserveAspectRatio="xMidYMid meet" shape-rendering="geometricPrecision" text-rendering="optimizeLegibility">
  <path d="M160.24,8.08 C159.92,8.03 159.61,8.00 159.30,8.00" fill="currentColor" stroke="currentColor" stroke-width="1.2" stroke-linecap="round" stroke-linejoin="round" />
  <path d="M159.30,8.00 C158.58,8.00 157.92,8.12 157.32,8.36" fill="currentColor" stroke="currentColor" stroke-width="1.2" stroke-linecap="round" stroke-linejoin="round" />
  <path d="M161.25,8.32 C160.90,8.21 160.56,8.13 160.24,8.08" fill="currentColor" stroke="currentColor" stroke-width="1.2" stroke-linecap="round" stroke-linejoin="round" />
  <path d="M92.04,8.38 C91.69,8.25 91.27,8.18 90.79,8.18" fill="currentColor" stroke="currentColor" stroke-width="1.2" stroke-linecap="round" stroke-linejoin="round" />
  <line x1="90.79" y1="8.18" x2="88.17" y2="8.18" fill="currentColor" stroke="currentColor" stroke-width="1.2" stroke-linecap="round" stroke-linejoin="round" />
  <line x1="88.17" y1="8.18" x2="88.17" y2="17.18" fill="currentColor" stroke="currentColor" stroke-width="1.2" stroke-linecap="round" stroke-linejoin="round" />
  <path d="M162.39,8.74 C161.98,8.57 161.60,8.43 161.25,8.32" fill="currentColor" stroke="currentColor" stroke-width="1.2" stroke-linecap="round" stroke-linejoin="round" />
  <path d="M157.32,8.36 C156.72,8.59 156.20,8.92 155.76,9.35" fill="currentColor" stroke="currentColor" stroke-width="1.2" stroke-linecap="round" stroke-linejoin="round" />
  <path d="M92.90,8.90 C92.68,8.68 92.39,8.51 92.04,8.38" fill="currentColor" stroke="currentColor" stroke-width="1.2" stroke-linecap="round" stroke-linejoin="round" />
  <line x1="162.39" y1="10.12" x2="162.39" y2="8.74" fill="currentColor" stroke="currentColor" stroke-width="1.2" stroke-linecap="round" stroke-linejoin="round" />
  <path d="M93.40,9.64 C93.29,9.37 93.13,9.12 92.90,8.90" fill="currentColor" stroke="currentColor" stroke-width="1.2" stroke-linecap="round" stroke-linejoin="round" />
  <path d="M159.29,9.19 C159.80,9.19 160.31,9.26 160.81,9.42" fill="currentColor" stroke="currentColor" stroke-width="1.2" stroke-linecap="round" stroke-linejoin="round" />
  <path d="M157.86,9.45 C158.29,9.28 158.77,9.19 159.29,9.19" fill="currentColor" stroke="currentColor" stroke-width="1.2" stroke-linecap="round" stroke-linejoin="round" />
  <line x1="89.46" y1="9.34" x2="90.65" y2="9.34" fill="currentColor" stroke="currentColor" stroke-width="1.2" stroke-linecap="round" stroke-linejoin="round" />
  <path d="M90.65,9.34 C91.05,9.34 91.36,9.40 91.59,9.51" fill="currentColor" stroke="currentColor" stroke-width="1.2" stroke-linecap="round" stroke-linejoin="round" />
  <line x1="89.46" y1="12.03" x2="89.46" y2="9.34" fill="currentColor" stroke="currentColor" stroke-width="1.2" stroke-linecap="round" stroke-linejoin="round" />
  <path d="M155.76,9.35 C155.32,9.77 154.98,10.27 154.73,10.85" fill="currentColor" stroke="currentColor" stroke-width="1.2" stroke-linecap="round" stroke-linejoin="round" />
  <path d="M160.81,9.42 C161.32,9.57 161.84,9.80 162.39,10.12" fill="currentColor" stroke="currentColor" stroke-width="1.2" stroke-linecap="round" stroke-linejoin="round" />
  <path d="M156.72,10.17 C157.04,9.86 157.42,9.62 157.86,9.45" fill="currentColor" stroke="currentColor" stroke-width="1.2" stroke-linecap="round" stroke-linejoin="round" />
  <path d="M91.59,9.51 C91.82,9.63 91.98,9.78 92.08,9.97" fill="currentColor" stroke="currentColor" stroke-width="1.2" stroke-linecap="round" stroke-linejoin="round" />
  <path d="M93.56,10.47 C93.56,10.19 93.51,9.91 93.40,9.64" fill="currentColor" stroke="currentColor" stroke-width="1.2" stroke-linecap="round" stroke-linejoin="round" />
  <path d="M92.08,9.97 C92.18,10.16 92.23,10.37 92.23,10.59" fill="currentColor" stroke="currentColor" stroke-width="1.2" stroke-linecap="round" stroke-linejoin="round" />
  <path d="M155.97,11.26 C156.15,10.84 156.40,10.48 156.72,10.17" fill="currentColor" stroke="currentColor" stroke-width="1.2" stroke-linecap="round" stroke-linejoin="round" />
  <path d="M93.22,11.65 C93.45,11.33 93.56,10.94 93.56,10.47" fill="currentColor" stroke="currentColor" stroke-width="1.2" stroke-linecap="round" stroke-linejoin="round" />
  <path d="M92.23,10.59 C92.23,11.08 92.07,11.44 91.75,11.68" fill="currentColor" stroke="currentColor" stroke-width="1.2" stroke-linecap="round" stroke-linejoin="round" />
  <path d="M154.73,10.85 C154.49,11.43 154.37,12.06 154.36,12.75" fill="currentColor" stroke="currentColor" stroke-width="1.2" stroke-linecap="round" stroke-linejoin="round" />
  <path d="M155.70,12.63 C155.70,12.14 155.79,11.68 155.97,11.26" fill="currentColor" stroke="currentColor" stroke-width="1.2" stroke-linecap="round" stroke-linejoin="round" />
  <path d="M92.18,12.40 C92.65,12.21 93.00,11.96 93.22,11.65" fill="currentColor" stroke="currentColor" stroke-width="1.2" stroke-linecap="round" stroke-linejoin="round" />
  <path d="M91.75,11.68 C91.44,11.91 90.96,12.03 90.32,12.03" fill="currentColor" stroke="currentColor" stroke-width="1.2" stroke-linecap="round" stroke-linejoin="round" />
  <line x1="90.32" y1="12.03" x2="89.46" y2="12.03" fill="currentColor" stroke="currentColor" stroke-width="1.2" stroke-linecap="round" stroke-linejoin="round" />
  <line x1="92.18" y1="12.43" x2="92.18" y2="12.40" fill="currentColor" stroke="currentColor" stroke-width="1.2" stroke-linecap="round" stroke-linejoin="round" />
  <path d="M93.34,12.88 C93.02,12.66 92.63,12.51 92.18,12.43" fill="currentColor" stroke="currentColor" stroke-width="1.2" stroke-linecap="round" stroke-linejoin="round" />
  <path d="M156.16,14.42 C155.86,13.91 155.70,13.31 155.70,12.63" fill="currentColor" stroke="currentColor" stroke-width="1.2" stroke-linecap="round" stroke-linejoin="round" />
  <path d="M154.36,12.75 C154.36,13.13 154.42,13.53 154.55,13.94" fill="currentColor" stroke="currentColor" stroke-width="1.2" stroke-linecap="round" stroke-linejoin="round" />
  <path d="M94.09,13.68 C93.91,13.36 93.67,13.09 93.34,12.88" fill="currentColor" stroke="currentColor" stroke-width="1.2" stroke-linecap="round" stroke-linejoin="round" />
  <line x1="89.46" y1="13.19" x2="91.02" y2="13.19" fill="currentColor" stroke="currentColor" stroke-width="1.2" stroke-linecap="round" stroke-linejoin="round" />
  <path d="M91.02,13.19 C91.48,13.19 91.85,13.26 92.14,13.37" fill="currentColor" stroke="currentColor" stroke-width="1.2" stroke-linecap="round" stroke-linejoin="round" />
  <line x1="89.46" y1="16.02" x2="89.46" y2="13.19" fill="currentColor" stroke="currentColor" stroke-width="1.2" stroke-linecap="round" stroke-linejoin="round" />
  <path d="M92.14,13.37 C92.44,13.49 92.66,13.66 92.80,13.87" fill="currentColor" stroke="currentColor" stroke-width="1.2" stroke-linecap="round" stroke-linejoin="round" />
  <path d="M94.35,14.78 C94.35,14.37 94.26,14.01 94.09,13.68" fill="currentColor" stroke="currentColor" stroke-width="1.2" stroke-linecap="round" stroke-linejoin="round" />
  <path d="M92.80,13.87 C92.94,14.08 93.02,14.32 93.02,14.59" fill="currentColor" stroke="currentColor" stroke-width="1.2" stroke-linecap="round" stroke-linejoin="round" />
  <path d="M154.55,13.94 C154.67,14.36 154.85,14.76 155.10,15.15" fill="currentColor" stroke="currentColor" stroke-width="1.2" stroke-linecap="round" stroke-linejoin="round" />
  <path d="M157.43,15.61 C156.89,15.33 156.47,14.93 156.16,14.42" fill="currentColor" stroke="currentColor" stroke-width="1.2" stroke-linecap="round" stroke-linejoin="round" />
  <path d="M93.02,14.59 C93.02,14.82 92.97,15.04 92.85,15.26" fill="currentColor" stroke="currentColor" stroke-width="1.2" stroke-linecap="round" stroke-linejoin="round" />
  <path d="M94.18,15.62 C94.30,15.34 94.35,15.06 94.35,14.78" fill="currentColor" stroke="currentColor" stroke-width="1.2" stroke-linecap="round" stroke-linejoin="round" />
  <line x1="162.48" y1="16.45" x2="162.48" y2="15.03" fill="currentColor" stroke="currentColor" stroke-width="1.2" stroke-linecap="round" stroke-linejoin="round" />
  <path d="M162.48,15.03 C161.97,15.36 161.45,15.62 160.91,15.79" fill="currentColor" stroke="currentColor" stroke-width="1.2" stroke-linecap="round" stroke-linejoin="round" />
  <path d="M155.10,15.15 C155.35,15.54 155.67,15.89 156.05,16.20" fill="currentColor" stroke="currentColor" stroke-width="1.2" stroke-linecap="round" stroke-linejoin="round" />
  <path d="M92.85,15.26 C92.74,15.48 92.54,15.66 92.26,15.80" fill="currentColor" stroke="currentColor" stroke-width="1.2" stroke-linecap="round" stroke-linejoin="round" />
  <path d="M159.34,16.05 C158.62,16.05 157.98,15.90 157.43,15.61" fill="currentColor" stroke="currentColor" stroke-width="1.2" stroke-linecap="round" stroke-linejoin="round" />
  <path d="M93.65,16.39 C93.89,16.16 94.07,15.90 94.18,15.62" fill="currentColor" stroke="currentColor" stroke-width="1.2" stroke-linecap="round" stroke-linejoin="round" />
  <path d="M160.91,15.79 C160.38,15.96 159.85,16.05 159.34,16.05" fill="currentColor" stroke="currentColor" stroke-width="1.2" stroke-linecap="round" stroke-linejoin="round" />
  <path d="M92.26,15.80 C91.98,15.94 91.59,16.01 91.09,16.02" fill="currentColor" stroke="currentColor" stroke-width="1.2" stroke-linecap="round" stroke-linejoin="round" />
  <line x1="91.09" y1="16.02" x2="89.46" y2="16.02" fill="currentColor" stroke="currentColor" stroke-width="1.2" stroke-linecap="round" stroke-linejoin="round" />
  <path d="M156.05,16.20 C156.44,16.52 156.89,16.77 157.42,16.95" fill="currentColor" stroke="currentColor" stroke-width="1.2" stroke-linecap="round" stroke-linejoin="round" />
  <path d="M92.69,16.96 C93.09,16.82 93.41,16.63 93.65,16.39" fill="currentColor" stroke="currentColor" stroke-width="1.2" stroke-linecap="round" stroke-linejoin="round" />
  <path d="M161.56,16.86 C161.88,16.74 162.19,16.60 162.48,16.45" fill="currentColor" stroke="currentColor" stroke-width="1.2" stroke-linecap="round" stroke-linejoin="round" />
  <path d="M160.50,17.14 C160.88,17.07 161.23,16.98 161.56,16.86" fill="currentColor" stroke="currentColor" stroke-width="1.2" stroke-linecap="round" stroke-linejoin="round" />
  <path d="M157.42,16.95 C157.95,17.14 158.55,17.23 159.22,17.24" fill="currentColor" stroke="currentColor" stroke-width="1.2" stroke-linecap="round" stroke-linejoin="round" />
  <path d="M91.26,17.18 C91.82,17.17 92.30,17.10 92.69,16.96" fill="currentColor" stroke="currentColor" stroke-width="1.2" stroke-linecap="round" stroke-linejoin="round" />
  <path d="M159.22,17.24 C159.69,17.24 160.12,17.20 160.50,17.14" fill="currentColor" stroke="currentColor" stroke-width="1.2" stroke-linecap="round" stroke-linejoin="round" />
  <line x1="88.17" y1="17.18" x2="91.26" y2="17.18" fill="currentColor" stroke="currentColor" stroke-width="1.2" stroke-linecap="round" stroke-linejoin="round" />
  <line x1="12.78" y1="18.39" x2="11.87" y2="18.39" fill="currentColor" stroke="currentColor" stroke-width="1.2" stroke-linecap="round" stroke-linejoin="round" />
  <line x1="11.87" y1="18.39" x2="8.00" y2="27.45" fill="currentColor" stroke="currentColor" stroke-width="1.2" stroke-linecap="round" stroke-linejoin="round" />
  <line x1="16.80" y1="27.45" x2="12.78" y2="18.39" fill="currentColor" stroke="currentColor" stroke-width="1.2" stroke-linecap="round" stroke-linejoin="round" />
  <line x1="12.30" y1="20.37" x2="13.75" y2="23.63" fill="currentColor" stroke="currentColor" stroke-width="1.2" stroke-linecap="round" stroke-linejoin="round" />
  <line x1="10.96" y1="23.63" x2="12.30" y2="20.37" fill="currentColor" stroke="currentColor" stroke-width="1.2" stroke-linecap="round" stroke-linejoin="round" />
  <path d="M21.27,23.13 C21.27,22.20 22.03,21.44 22.96,21.44" fill="currentColor" stroke="currentColor" stroke-width="1.0" stroke-linecap="round" stroke-linejoin="round" />
  <path d="M22.96,21.44 C23.89,21.44 24.65,22.20 24.65,23.13" fill="currentColor" stroke="currentColor" stroke-width="1.0" stroke-linecap="round" stroke-linejoin="round" />
  <path d="M72.00,23.13 C72.00,22.20 72.75,21.44 73.68,21.44" fill="currentColor" stroke="currentColor" stroke-width="1.0" stroke-linecap="round" stroke-linejoin="round" />
  <path d="M73.68,21.44 C74.62,21.44 75.37,22.20 75.37,23.13" fill="currentColor" stroke="currentColor" stroke-width="1.0" stroke-linecap="round" stroke-linejoin="round" />
  <path d="M89.20,23.13 C89.20,22.20 89.95,21.44 90.89,21.44" fill="currentColor" stroke="currentColor" stroke-width="1.0" stroke-linecap="round" stroke-linejoin="round" />
  <path d="M90.89,21.44 C91.82,21.44 92.57,22.20 92.57,23.13" fill="currentColor" stroke="currentColor" stroke-width="1.0" stroke-linecap="round" stroke-linejoin="round" />
  <path d="M123.13,23.13 C123.13,22.20 123.89,21.44 124.82,21.44" fill="currentColor" stroke="currentColor" stroke-width="1.0" stroke-linecap="round" stroke-linejoin="round" />
  <path d="M124.82,21.44 C125.75,21.44 126.51,22.20 126.51,23.13" fill="currentColor" stroke="currentColor" stroke-width="1.0" stroke-linecap="round" stroke-linejoin="round" />
  <path d="M157.07,23.13 C157.07,22.20 157.83,21.44 158.76,21.44" fill="currentColor" stroke="currentColor" stroke-width="1.0" stroke-linecap="round" stroke-linejoin="round" />
  <path d="M158.76,21.44 C159.69,21.44 160.45,22.20 160.45,23.13" fill="currentColor" stroke="currentColor" stroke-width="1.0" stroke-linecap="round" stroke-linejoin="round" />
  <path d="M174.00,23.13 C174.00,22.20 174.75,21.44 175.68,21.44" fill="currentColor" stroke="currentColor" stroke-width="1.0" stroke-linecap="round" stroke-linejoin="round" />
  <path d="M175.68,21.44 C176.62,21.44 177.37,22.20 177.37,23.13" fill="currentColor" stroke="currentColor" stroke-width="1.0" stroke-linecap="round" stroke-linejoin="round" />
  <path d="M24.65,23.13 C24.65,24.06 23.89,24.82 22.96,24.82" fill="currentColor" stroke="currentColor" stroke-width="1.0" stroke-linecap="round" stroke-linejoin="round" />
  <path d="M22.96,24.82 C22.03,24.82 21.27,24.06 21.27,23.13" fill="currentColor" stroke="currentColor" stroke-width="1.0" stroke-linecap="round" stroke-linejoin="round" />
  <path d="M75.37,23.13 C75.37,24.06 74.62,24.82 73.68,24.82" fill="currentColor" stroke="currentColor" stroke-width="1.0" stroke-linecap="round" stroke-linejoin="round" />
  <path d="M73.68,24.82 C72.75,24.82 72.00,24.06 72.00,23.13" fill="currentColor" stroke="currentColor" stroke-width="1.0" stroke-linecap="round" stroke-linejoin="round" />
  <path d="M92.57,23.13 C92.57,24.06 91.82,24.82 90.89,24.82" fill="currentColor" stroke="currentColor" stroke-width="1.0" stroke-linecap="round" stroke-linejoin="round" />
  <path d="M90.89,24.82 C89.95,24.82 89.20,24.06 89.20,23.13" fill="currentColor" stroke="currentColor" stroke-width="1.0" stroke-linecap="round" stroke-linejoin="round" />
  <path d="M126.51,23.13 C126.51,24.06 125.75,24.82 124.82,24.82" fill="currentColor" stroke="currentColor" stroke-width="1.0" stroke-linecap="round" stroke-linejoin="round" />
  <path d="M124.82,24.82 C123.89,24.82 123.13,24.06 123.13,23.13" fill="currentColor" stroke="currentColor" stroke-width="1.0" stroke-linecap="round" stroke-linejoin="round" />
  <path d="M160.45,23.13 C160.45,24.06 159.69,24.82 158.76,24.82" fill="currentColor" stroke="currentColor" stroke-width="1.0" stroke-linecap="round" stroke-linejoin="round" />
  <path d="M158.76,24.82 C157.83,24.82 157.07,24.06 157.07,23.13" fill="currentColor" stroke="currentColor" stroke-width="1.0" stroke-linecap="round" stroke-linejoin="round" />
  <path d="M177.37,23.13 C177.37,24.06 176.62,24.82 175.68,24.82" fill="currentColor" stroke="currentColor" stroke-width="1.0" stroke-linecap="round" stroke-linejoin="round" />
  <path d="M175.68,24.82 C174.75,24.82 174.00,24.06 174.00,23.13" fill="currentColor" stroke="currentColor" stroke-width="1.0" stroke-linecap="round" stroke-linejoin="round" />
  <line x1="22.49" y1="23.16" x2="226.59" y2="23.16" fill="none" stroke="currentColor" stroke-width="1.4000000476837158" stroke-linecap="round" stroke-linejoin="round" />
  <line x1="13.75" y1="23.63" x2="10.96" y2="23.63" fill="currentColor" stroke="currentColor" stroke-width="1.2" stroke-linecap="round" stroke-linejoin="round" />
  <line x1="9.32" y1="27.45" x2="10.45" y2="24.79" fill="currentColor" stroke="currentColor" stroke-width="1.2" stroke-linecap="round" stroke-linejoin="round" />
  <line x1="10.45" y1="24.79" x2="14.28" y2="24.79" fill="currentColor" stroke="currentColor" stroke-width="1.2" stroke-linecap="round" stroke-linejoin="round" />
  <line x1="14.28" y1="24.79" x2="15.48" y2="27.45" fill="currentColor" stroke="currentColor" stroke-width="1.2" stroke-linecap="round" stroke-linejoin="round" />
  <line x1="8.00" y1="27.45" x2="9.32" y2="27.45" fill="currentColor" stroke="currentColor" stroke-width="1.2" stroke-linecap="round" stroke-linejoin="round" />
  <line x1="15.48" y1="27.45" x2="16.80" y2="27.45" fill="currentColor" stroke="currentColor" stroke-width="1.2" stroke-linecap="round" stroke-linejoin="round" />
  <line x1="76.79" y1="29.22" x2="71.68" y2="29.22" fill="currentColor" stroke="currentColor" stroke-width="1.2" stroke-linecap="round" stroke-linejoin="round" />
  <line x1="71.68" y1="29.22" x2="71.68" y2="38.22" fill="currentColor" stroke="currentColor" stroke-width="1.2" stroke-linecap="round" stroke-linejoin="round" />
  <line x1="76.79" y1="30.38" x2="76.79" y2="29.22" fill="currentColor" stroke="currentColor" stroke-width="1.2" stroke-linecap="round" stroke-linejoin="round" />
  <line x1="128.32" y1="29.22" x2="123.52" y2="29.22" fill="currentColor" stroke="currentColor" stroke-width="1.2" stroke-linecap="round" stroke-linejoin="round" />
  <line x1="123.52" y1="29.22" x2="123.52" y2="38.22" fill="currentColor" stroke="currentColor" stroke-width="1.2" stroke-linecap="round" stroke-linejoin="round" />
  <line x1="128.32" y1="30.38" x2="128.32" y2="29.22" fill="currentColor" stroke="currentColor" stroke-width="1.2" stroke-linecap="round" stroke-linejoin="round" />
  <path d="M177.44,29.25 C177.21,29.23 176.96,29.22 176.70,29.22" fill="currentColor" stroke="currentColor" stroke-width="1.2" stroke-linecap="round" stroke-linejoin="round" />
  <path d="M176.70,29.22 C176.01,29.22 175.37,29.34 174.78,29.57" fill="currentColor" stroke="currentColor" stroke-width="1.2" stroke-linecap="round" stroke-linejoin="round" />
  <path d="M178.17,29.38 C177.92,29.32 177.68,29.28 177.44,29.25" fill="currentColor" stroke="currentColor" stroke-width="1.2" stroke-linecap="round" stroke-linejoin="round" />
  <path d="M178.95,29.61 C178.67,29.51 178.41,29.43 178.17,29.38" fill="currentColor" stroke="currentColor" stroke-width="1.2" stroke-linecap="round" stroke-linejoin="round" />
  <path d="M174.78,29.57 C174.20,29.81 173.69,30.14 173.25,30.56" fill="currentColor" stroke="currentColor" stroke-width="1.2" stroke-linecap="round" stroke-linejoin="round" />
  <path d="M179.90,29.98 C179.55,29.83 179.24,29.71 178.95,29.61" fill="currentColor" stroke="currentColor" stroke-width="1.2" stroke-linecap="round" stroke-linejoin="round" />
  <line x1="179.90" y1="31.29" x2="179.90" y2="29.98" fill="currentColor" stroke="currentColor" stroke-width="1.2" stroke-linecap="round" stroke-linejoin="round" />
  <line x1="72.97" y1="33.10" x2="72.97" y2="30.38" fill="currentColor" stroke="currentColor" stroke-width="1.2" stroke-linecap="round" stroke-linejoin="round" />
  <line x1="72.97" y1="30.38" x2="76.79" y2="30.38" fill="currentColor" stroke="currentColor" stroke-width="1.2" stroke-linecap="round" stroke-linejoin="round" />
  <line x1="124.81" y1="32.87" x2="124.81" y2="30.38" fill="currentColor" stroke="currentColor" stroke-width="1.2" stroke-linecap="round" stroke-linejoin="round" />
  <line x1="124.81" y1="30.38" x2="128.32" y2="30.38" fill="currentColor" stroke="currentColor" stroke-width="1.2" stroke-linecap="round" stroke-linejoin="round" />
  <path d="M175.30,30.67 C175.72,30.49 176.18,30.41 176.67,30.40" fill="currentColor" stroke="currentColor" stroke-width="1.2" stroke-linecap="round" stroke-linejoin="round" />
  <path d="M176.67,30.40 C177.21,30.40 177.75,30.48 178.30,30.63" fill="currentColor" stroke="currentColor" stroke-width="1.2" stroke-linecap="round" stroke-linejoin="round" />
  <path d="M173.25,30.56 C172.82,30.98 172.48,31.47 172.24,32.04" fill="currentColor" stroke="currentColor" stroke-width="1.2" stroke-linecap="round" stroke-linejoin="round" />
  <path d="M178.30,30.63 C178.84,30.78 179.37,31.00 179.90,31.29" fill="currentColor" stroke="currentColor" stroke-width="1.2" stroke-linecap="round" stroke-linejoin="round" />
  <path d="M174.20,31.39 C174.52,31.08 174.88,30.84 175.30,30.67" fill="currentColor" stroke="currentColor" stroke-width="1.2" stroke-linecap="round" stroke-linejoin="round" />
  <path d="M173.47,32.49 C173.64,32.07 173.89,31.70 174.20,31.39" fill="currentColor" stroke="currentColor" stroke-width="1.2" stroke-linecap="round" stroke-linejoin="round" />
  <path d="M172.24,32.04 C171.99,32.60 171.87,33.22 171.87,33.89" fill="currentColor" stroke="currentColor" stroke-width="1.2" stroke-linecap="round" stroke-linejoin="round" />
  <path d="M173.20,33.85 C173.20,33.36 173.29,32.90 173.47,32.49" fill="currentColor" stroke="currentColor" stroke-width="1.2" stroke-linecap="round" stroke-linejoin="round" />
  <line x1="128.32" y1="34.03" x2="128.32" y2="32.87" fill="currentColor" stroke="currentColor" stroke-width="1.2" stroke-linecap="round" stroke-linejoin="round" />
  <line x1="128.32" y1="32.87" x2="124.81" y2="32.87" fill="currentColor" stroke="currentColor" stroke-width="1.2" stroke-linecap="round" stroke-linejoin="round" />
  <line x1="76.66" y1="34.26" x2="76.66" y2="33.10" fill="currentColor" stroke="currentColor" stroke-width="1.2" stroke-linecap="round" stroke-linejoin="round" />
  <line x1="76.66" y1="33.10" x2="72.97" y2="33.10" fill="currentColor" stroke="currentColor" stroke-width="1.2" stroke-linecap="round" stroke-linejoin="round" />
  <path d="M173.47,35.23 C173.29,34.81 173.20,34.35 173.20,33.85" fill="currentColor" stroke="currentColor" stroke-width="1.2" stroke-linecap="round" stroke-linejoin="round" />
  <path d="M171.87,33.89 C171.87,34.55 171.99,35.16 172.23,35.71" fill="currentColor" stroke="currentColor" stroke-width="1.2" stroke-linecap="round" stroke-linejoin="round" />
  <line x1="180.09" y1="33.90" x2="177.07" y2="33.90" fill="currentColor" stroke="currentColor" stroke-width="1.2" stroke-linecap="round" stroke-linejoin="round" />
  <line x1="177.07" y1="33.90" x2="177.07" y2="35.06" fill="currentColor" stroke="currentColor" stroke-width="1.2" stroke-linecap="round" stroke-linejoin="round" />
  <line x1="180.09" y1="37.71" x2="180.09" y2="33.90" fill="currentColor" stroke="currentColor" stroke-width="1.2" stroke-linecap="round" stroke-linejoin="round" />
  <line x1="124.81" y1="38.22" x2="124.81" y2="34.03" fill="currentColor" stroke="currentColor" stroke-width="1.2" stroke-linecap="round" stroke-linejoin="round" />
  <line x1="124.81" y1="34.03" x2="128.32" y2="34.03" fill="currentColor" stroke="currentColor" stroke-width="1.2" stroke-linecap="round" stroke-linejoin="round" />
  <line x1="72.97" y1="37.06" x2="72.97" y2="34.26" fill="currentColor" stroke="currentColor" stroke-width="1.2" stroke-linecap="round" stroke-linejoin="round" />
  <line x1="72.97" y1="34.26" x2="76.66" y2="34.26" fill="currentColor" stroke="currentColor" stroke-width="1.2" stroke-linecap="round" stroke-linejoin="round" />
  <line x1="177.07" y1="35.06" x2="178.79" y2="35.06" fill="currentColor" stroke="currentColor" stroke-width="1.2" stroke-linecap="round" stroke-linejoin="round" />
  <line x1="178.79" y1="35.06" x2="178.79" y2="36.91" fill="currentColor" stroke="currentColor" stroke-width="1.2" stroke-linecap="round" stroke-linejoin="round" />
  <path d="M174.22,36.31 C173.89,36.01 173.64,35.64 173.47,35.23" fill="currentColor" stroke="currentColor" stroke-width="1.2" stroke-linecap="round" stroke-linejoin="round" />
  <path d="M172.23,35.71 C172.46,36.27 172.80,36.75 173.23,37.16" fill="currentColor" stroke="currentColor" stroke-width="1.2" stroke-linecap="round" stroke-linejoin="round" />
  <path d="M175.37,37.01 C174.93,36.85 174.54,36.61 174.22,36.31" fill="currentColor" stroke="currentColor" stroke-width="1.2" stroke-linecap="round" stroke-linejoin="round" />
  <path d="M178.79,36.91 C178.48,37.01 178.17,37.09 177.85,37.16" fill="currentColor" stroke="currentColor" stroke-width="1.2" stroke-linecap="round" stroke-linejoin="round" />
  <path d="M176.84,37.27 C176.30,37.26 175.81,37.18 175.37,37.01" fill="currentColor" stroke="currentColor" stroke-width="1.2" stroke-linecap="round" stroke-linejoin="round" />
  <line x1="76.91" y1="38.22" x2="76.91" y2="37.06" fill="currentColor" stroke="currentColor" stroke-width="1.2" stroke-linecap="round" stroke-linejoin="round" />
  <line x1="76.91" y1="37.06" x2="72.97" y2="37.06" fill="currentColor" stroke="currentColor" stroke-width="1.2" stroke-linecap="round" stroke-linejoin="round" />
  <path d="M173.23,37.16 C173.66,37.57 174.16,37.89 174.74,38.11" fill="currentColor" stroke="currentColor" stroke-width="1.2" stroke-linecap="round" stroke-linejoin="round" />
  <path d="M177.85,37.16 C177.52,37.23 177.19,37.26 176.84,37.27" fill="currentColor" stroke="currentColor" stroke-width="1.2" stroke-linecap="round" stroke-linejoin="round" />
  <path d="M178.94,38.14 C179.31,38.03 179.69,37.89 180.09,37.71" fill="currentColor" stroke="currentColor" stroke-width="1.2" stroke-linecap="round" stroke-linejoin="round" />
  <path d="M174.74,38.11 C175.33,38.34 175.96,38.45 176.66,38.45" fill="currentColor" stroke="currentColor" stroke-width="1.2" stroke-linecap="round" stroke-linejoin="round" />
  <path d="M177.84,38.38 C178.21,38.33 178.58,38.25 178.94,38.14" fill="currentColor" stroke="currentColor" stroke-width="1.2" stroke-linecap="round" stroke-linejoin="round" />
  <line x1="71.68" y1="38.22" x2="76.91" y2="38.22" fill="currentColor" stroke="currentColor" stroke-width="1.2" stroke-linecap="round" stroke-linejoin="round" />
  <line x1="123.52" y1="38.22" x2="124.81" y2="38.22" fill="currentColor" stroke="currentColor" stroke-width="1.2" stroke-linecap="round" stroke-linejoin="round" />
  <path d="M176.66,38.45 C177.07,38.45 177.46,38.43 177.84,38.38" fill="currentColor" stroke="currentColor" stroke-width="1.2" stroke-linecap="round" stroke-linejoin="round" />
</svg>