<svg xmlns="http://www.w3.org/2000/svg" viewBox="0 0 268.40 131.36" preserveAspectRatio="xMidYMid meet" shape-rendering="geometricPrecision" text-rendering="optimizeLegibility">
  <path d="M55.65,8.06 C55.38,8.02 55.12,8.00 54.87,8.00" fill="currentColor" stroke="currentColor" stroke-width="1.2" stroke-linecap="round" stroke-linejoin="round" />
  <line x1="196.16" y1="8.10" x2="189.90" y2="8.10" fill="currentColor" stroke="currentColor" stroke-width="1.2" stroke-linecap="round" stroke-linejoin="round" />
  <path d="M54.87,8.00 C54.27,8.00 53.72,8.10 53.22,8.30" fill="currentColor" stroke="currentColor" stroke-width="1.2" stroke-linecap="round" stroke-linejoin="round" />
  <path d="M56.49,8.27 C56.20,8.17 55.92,8.11 55.65,8.06" fill="currentColor" stroke="currentColor" stroke-width="1.2" stroke-linecap="round" stroke-linejoin="round" />
  <path d="M57.44,8.62 C57.10,8.47 56.79,8.36 56.49,8.27" fill="currentColor" stroke="currentColor" stroke-width="1.2" stroke-linecap="round" stroke-linejoin="round" />
  <line x1="189.90" y1="8.10" x2="189.90" y2="9.07" fill="currentColor" stroke="currentColor" stroke-width="1.2" stroke-linecap="round" stroke-linejoin="round" />
  <line x1="196.16" y1="9.07" x2="196.16" y2="8.10" fill="currentColor" stroke="currentColor" stroke-width="1.2" stroke-linecap="round" stroke-linejoin="round" />
  <path d="M53.22,8.30 C52.72,8.49 52.28,8.77 51.92,9.12" fill="currentColor" stroke="currentColor" stroke-width="1.2" stroke-linecap="round" stroke-linejoin="round" />
  <line x1="189.90" y1="9.07" x2="192.49" y2="9.07" fill="currentColor" stroke="currentColor" stroke-width="1.2" stroke-linecap="round" stroke-linejoin="round" />
  <line x1="193.57" y1="9.07" x2="196.16" y2="9.07" fill="currentColor" stroke="currentColor" stroke-width="1.2" stroke-linecap="round" stroke-linejoin="round" />
  <path d="M54.86,8.99 C55.29,8.99 55.71,9.05 56.13,9.18" fill="currentColor" stroke="currentColor" stroke-width="1.2" stroke-linecap="round" stroke-linejoin="round" />
  <path d="M53.67,9.21 C54.03,9.06 54.43,8.99 54.86,8.99" fill="currentColor" stroke="currentColor" stroke-width="1.2" stroke-linecap="round" stroke-linejoin="round" />
  <line x1="57.44" y1="9.77" x2="57.44" y2="8.62" fill="currentColor" stroke="currentColor" stroke-width="1.2" stroke-linecap="round" stroke-linejoin="round" />
  <path d="M56.13,9.18 C56.55,9.31 56.99,9.50 57.44,9.77" fill="currentColor" stroke="currentColor" stroke-width="1.2" stroke-linecap="round" stroke-linejoin="round" />
  <path d="M52.72,9.81 C52.99,9.55 53.30,9.35 53.67,9.21" fill="currentColor" stroke="currentColor" stroke-width="1.2" stroke-linecap="round" stroke-linejoin="round" />
  <path d="M51.92,9.12 C51.55,9.48 51.26,9.89 51.06,10.38" fill="currentColor" stroke="currentColor" stroke-width="1.2" stroke-linecap="round" stroke-linejoin="round" />
  <path d="M52.09,10.72 C52.24,10.37 52.45,10.06 52.72,9.81" fill="currentColor" stroke="currentColor" stroke-width="1.2" stroke-linecap="round" stroke-linejoin="round" />
  <path d="M51.06,10.38 C50.86,10.86 50.76,11.38 50.76,11.96" fill="currentColor" stroke="currentColor" stroke-width="1.2" stroke-linecap="round" stroke-linejoin="round" />
  <path d="M51.87,11.86 C51.87,11.45 51.94,11.06 52.09,10.72" fill="currentColor" stroke="currentColor" stroke-width="1.2" stroke-linecap="round" stroke-linejoin="round" />
  <line x1="192.49" y1="9.07" x2="192.49" y2="15.60" fill="currentColor" stroke="currentColor" stroke-width="1.2" stroke-linecap="round" stroke-linejoin="round" />
  <line x1="193.57" y1="15.60" x2="193.57" y2="9.07" fill="currentColor" stroke="currentColor" stroke-width="1.2" stroke-linecap="round" stroke-linejoin="round" />
  <path d="M50.76,11.96 C50.75,12.28 50.81,12.61 50.90,12.95" fill="currentColor" stroke="currentColor" stroke-width="1.2" stroke-linecap="round" stroke-linejoin="round" />
  <path d="M52.25,13.35 C52.00,12.92 51.87,12.43 51.87,11.86" fill="currentColor" stroke="currentColor" stroke-width="1.2" stroke-linecap="round" stroke-linejoin="round" />
  <path d="M50.90,12.95 C51.01,13.30 51.16,13.63 51.37,13.95" fill="currentColor" stroke="currentColor" stroke-width="1.2" stroke-linecap="round" stroke-linejoin="round" />
  <path d="M53.31,14.34 C52.86,14.10 52.51,13.77 52.25,13.35" fill="currentColor" stroke="currentColor" stroke-width="1.2" stroke-linecap="round" stroke-linejoin="round" />
  <path d="M57.52,13.86 C57.09,14.14 56.66,14.35 56.21,14.49" fill="currentColor" stroke="currentColor" stroke-width="1.2" stroke-linecap="round" stroke-linejoin="round" />
  <path d="M51.37,13.95 C51.58,14.28 51.84,14.57 52.16,14.84" fill="currentColor" stroke="currentColor" stroke-width="1.2" stroke-linecap="round" stroke-linejoin="round" />
  <line x1="57.52" y1="15.04" x2="57.52" y2="13.86" fill="currentColor" stroke="currentColor" stroke-width="1.2" stroke-linecap="round" stroke-linejoin="round" />
  <path d="M54.90,14.71 C54.30,14.70 53.77,14.58 53.31,14.34" fill="currentColor" stroke="currentColor" stroke-width="1.2" stroke-linecap="round" stroke-linejoin="round" />
  <path d="M56.21,14.49 C55.76,14.64 55.33,14.71 54.90,14.71" fill="currentColor" stroke="currentColor" stroke-width="1.2" stroke-linecap="round" stroke-linejoin="round" />
  <path d="M52.16,14.84 C52.48,15.10 52.86,15.31 53.30,15.46" fill="currentColor" stroke="currentColor" stroke-width="1.2" stroke-linecap="round" stroke-linejoin="round" />
  <path d="M56.75,15.38 C57.02,15.28 57.28,15.17 57.52,15.04" fill="currentColor" stroke="currentColor" stroke-width="1.2" stroke-linecap="round" stroke-linejoin="round" />
  <path d="M55.87,15.61 C56.18,15.56 56.48,15.48 56.75,15.38" fill="currentColor" stroke="currentColor" stroke-width="1.2" stroke-linecap="round" stroke-linejoin="round" />
  <path d="M53.30,15.46 C53.74,15.62 54.24,15.69 54.80,15.70" fill="currentColor" stroke="currentColor" stroke-width="1.2" stroke-linecap="round" stroke-linejoin="round" />
  <line x1="192.49" y1="15.60" x2="193.57" y2="15.60" fill="currentColor" stroke="currentColor" stroke-width="1.2" stroke-linecap="round" stroke-linejoin="round" />
  <path d="M54.80,15.70 C55.19,15.70 55.55,15.67 55.87,15.61" fill="currentColor" stroke="currentColor" stroke-width="1.2" stroke-linecap="round" stroke-linejoin="round" />
  <path d="M8.00,67.37 C8.00,42.34 28.32,22.02 53.35,22.02" fill="none" stroke="currentColor" stroke-width="1.6" stroke-linecap="round" stroke-linejoin="round" />
  <path d="M53.35,22.02 C78.39,22.02 98.71,42.34 98.71,67.37" fill="none" stroke="currentColor" stroke-width="1.6" stroke-linecap="round" stroke-linejoin="round" />
  <line x1="192.37" y1="112.72" x2="192.37" y2="22.02" fill="none" stroke="currentColor" stroke-width="1.2" stroke-linecap="round" stroke-linejoin="round" />
  <line x1="192.37" y1="22.02" x2="124.33" y2="112.72" fill="none" stroke="currentColor" stroke-width="1.6" stroke-linecap="round" stroke-linejoin="round" />
  <line x1="260.40" y1="112.72" x2="192.37" y2="22.02" fill="none" stroke="currentColor" stroke-width="1.6" stroke-linecap="round" stroke-linejoin="round" />
  <line x1="53.36" y1="67.37" x2="98.71" y2="67.37" fill="none" stroke="currentColor" stroke-width="1.2" stroke-linecap="round" stroke-linejoin="round" />
  <path d="M198.23,67.79 C197.93,67.79 197.64,67.85 197.35,67.97" fill="currentColor" stroke="currentColor" stroke-width="1.2" stroke-linecap="round" stroke-linejoin="round" />
  <path d="M199.43,68.09 C199.08,67.89 198.69,67.79 198.23,67.79" fill="currentColor" stroke="currentColor" stroke-width="1.2" stroke-linecap="round" stroke-linejoin="round" />
  <path d="M197.35,67.97 C197.06,68.08 196.76,68.26 196.46,68.50" fill="currentColor" stroke="currentColor" stroke-width="1.2" stroke-linecap="round" stroke-linejoin="round" />
  <path d="M200.23,68.91 C200.04,68.56 199.77,68.29 199.43,68.09" fill="currentColor" stroke="currentColor" stroke-width="1.2" stroke-linecap="round" stroke-linejoin="round" />
  <path d="M197.61,68.94 C197.79,68.87 197.98,68.84 198.16,68.84" fill="currentColor" stroke="currentColor" stroke-width="1.2" stroke-linecap="round" stroke-linejoin="round" />
  <path d="M198.16,68.84 C198.40,68.85 198.62,68.91 198.82,69.03" fill="currentColor" stroke="currentColor" stroke-width="1.2" stroke-linecap="round" stroke-linejoin="round" />
  <path d="M197.05,69.25 C197.24,69.11 197.43,69.00 197.61,68.94" fill="currentColor" stroke="currentColor" stroke-width="1.2" stroke-linecap="round" stroke-linejoin="round" />
  <line x1="196.46" y1="68.50" x2="196.46" y2="69.86" fill="currentColor" stroke="currentColor" stroke-width="1.2" stroke-linecap="round" stroke-linejoin="round" />
  <path d="M198.82,69.03 C199.01,69.15 199.16,69.31 199.27,69.52" fill="currentColor" stroke="currentColor" stroke-width="1.2" stroke-linecap="round" stroke-linejoin="round" />
  <path d="M200.52,70.13 C200.52,69.67 200.42,69.26 200.23,68.91" fill="currentColor" stroke="currentColor" stroke-width="1.2" stroke-linecap="round" stroke-linejoin="round" />
  <path d="M196.46,69.86 C196.66,69.60 196.86,69.40 197.05,69.25" fill="currentColor" stroke="currentColor" stroke-width="1.2" stroke-linecap="round" stroke-linejoin="round" />
  <path d="M199.27,69.52 C199.38,69.73 199.44,69.98 199.44,70.25" fill="currentColor" stroke="currentColor" stroke-width="1.2" stroke-linecap="round" stroke-linejoin="round" />
  <line x1="75.08" y1="69.99" x2="73.92" y2="69.99" fill="currentColor" stroke="currentColor" stroke-width="1.2" stroke-linecap="round" stroke-linejoin="round" />
  <line x1="71.85" y1="69.99" x2="70.85" y2="69.99" fill="currentColor" stroke="currentColor" stroke-width="1.2" stroke-linecap="round" stroke-linejoin="round" />
  <line x1="206.31" y1="70.45" x2="205.15" y2="70.45" fill="currentColor" stroke="currentColor" stroke-width="1.2" stroke-linecap="round" stroke-linejoin="round" />
  <line x1="203.08" y1="70.45" x2="202.08" y2="70.45" fill="currentColor" stroke="currentColor" stroke-width="1.2" stroke-linecap="round" stroke-linejoin="round" />
  <path d="M199.44,70.25 C199.44,70.46 199.42,70.65 199.38,70.81" fill="currentColor" stroke="currentColor" stroke-width="1.2" stroke-linecap="round" stroke-linejoin="round" />
  <path d="M200.39,71.03 C200.48,70.73 200.52,70.43 200.52,70.13" fill="currentColor" stroke="currentColor" stroke-width="1.2" stroke-linecap="round" stroke-linejoin="round" />
  <line x1="73.92" y1="69.99" x2="72.64" y2="71.65" fill="currentColor" stroke="currentColor" stroke-width="1.2" stroke-linecap="round" stroke-linejoin="round" />
  <line x1="72.64" y1="71.65" x2="71.85" y2="69.99" fill="currentColor" stroke="currentColor" stroke-width="1.2" stroke-linecap="round" stroke-linejoin="round" />
  <path d="M199.38,70.81 C199.34,70.98 199.29,71.15 199.21,71.31" fill="currentColor" stroke="currentColor" stroke-width="1.2" stroke-linecap="round" stroke-linejoin="round" />
  <line x1="70.85" y1="69.99" x2="72.02" y2="72.31" fill="currentColor" stroke="currentColor" stroke-width="1.2" stroke-linecap="round" stroke-linejoin="round" />
  <line x1="73.09" y1="72.43" x2="75.08" y2="69.99" fill="currentColor" stroke="currentColor" stroke-width="1.2" stroke-linecap="round" stroke-linejoin="round" />
  <line x1="205.15" y1="70.45" x2="203.86" y2="72.11" fill="currentColor" stroke="currentColor" stroke-width="1.2" stroke-linecap="round" stroke-linejoin="round" />
  <line x1="203.86" y1="72.11" x2="203.08" y2="70.45" fill="currentColor" stroke="currentColor" stroke-width="1.2" stroke-linecap="round" stroke-linejoin="round" />
  <path d="M199.98,71.96 C200.17,71.64 200.30,71.32 200.39,71.03" fill="currentColor" stroke="currentColor" stroke-width="1.2" stroke-linecap="round" stroke-linejoin="round" />
  <path d="M199.21,71.31 C199.13,71.48 199.03,71.66 198.91,71.86" fill="currentColor" stroke="currentColor" stroke-width="1.2" stroke-linecap="round" stroke-linejoin="round" />
  <line x1="202.08" y1="70.45" x2="203.25" y2="72.77" fill="currentColor" stroke="currentColor" stroke-width="1.2" stroke-linecap="round" stroke-linejoin="round" />
  <line x1="204.31" y1="72.89" x2="206.31" y2="70.45" fill="currentColor" stroke="currentColor" stroke-width="1.2" stroke-linecap="round" stroke-linejoin="round" />
  <path d="M198.91,71.86 C198.75,72.13 198.57,72.42 198.35,72.72" fill="currentColor" stroke="currentColor" stroke-width="1.2" stroke-linecap="round" stroke-linejoin="round" />
  <path d="M199.26,73.04 C199.55,72.64 199.79,72.29 199.98,71.96" fill="currentColor" stroke="currentColor" stroke-width="1.2" stroke-linecap="round" stroke-linejoin="round" />
  <path d="M198.35,72.72 C198.14,73.02 197.92,73.32 197.68,73.62" fill="currentColor" stroke="currentColor" stroke-width="1.2" stroke-linecap="round" stroke-linejoin="round" />
  <line x1="72.02" y1="72.31" x2="69.86" y2="74.93" fill="currentColor" stroke="currentColor" stroke-width="1.2" stroke-linecap="round" stroke-linejoin="round" />
  <line x1="74.34" y1="74.93" x2="73.09" y2="72.43" fill="currentColor" stroke="currentColor" stroke-width="1.2" stroke-linecap="round" stroke-linejoin="round" />
  <path d="M198.19,74.37 C198.61,73.87 198.96,73.43 199.26,73.04" fill="currentColor" stroke="currentColor" stroke-width="1.2" stroke-linecap="round" stroke-linejoin="round" />
  <line x1="71.01" y1="74.93" x2="72.44" y2="73.08" fill="currentColor" stroke="currentColor" stroke-width="1.2" stroke-linecap="round" stroke-linejoin="round" />
  <line x1="72.44" y1="73.08" x2="73.34" y2="74.93" fill="currentColor" stroke="currentColor" stroke-width="1.2" stroke-linecap="round" stroke-linejoin="round" />
  <path d="M197.68,73.62 C197.44,73.92 197.21,74.22 196.97,74.50" fill="currentColor" stroke="currentColor" stroke-width="1.2" stroke-linecap="round" stroke-linejoin="round" />
  <line x1="203.25" y1="72.77" x2="201.09" y2="75.39" fill="currentColor" stroke="currentColor" stroke-width="1.2" stroke-linecap="round" stroke-linejoin="round" />
  <line x1="205.57" y1="75.39" x2="204.31" y2="72.89" fill="currentColor" stroke="currentColor" stroke-width="1.2" stroke-linecap="round" stroke-linejoin="round" />
  <line x1="201.06" y1="74.37" x2="198.19" y2="74.37" fill="currentColor" stroke="currentColor" stroke-width="1.2" stroke-linecap="round" stroke-linejoin="round" />
  <line x1="202.24" y1="75.39" x2="203.67" y2="73.54" fill="currentColor" stroke="currentColor" stroke-width="1.2" stroke-linecap="round" stroke-linejoin="round" />
  <line x1="203.67" y1="73.54" x2="204.57" y2="75.39" fill="currentColor" stroke="currentColor" stroke-width="1.2" stroke-linecap="round" stroke-linejoin="round" />
  <line x1="201.06" y1="75.39" x2="201.06" y2="74.37" fill="currentColor" stroke="currentColor" stroke-width="1.2" stroke-linecap="round" stroke-linejoin="round" />
  <path d="M196.97,74.50 C196.74,74.79 196.52,75.06 196.31,75.31" fill="currentColor" stroke="currentColor" stroke-width="1.2" stroke-linecap="round" stroke-linejoin="round" />
  <line x1="69.86" y1="74.93" x2="71.01" y2="74.93" fill="currentColor" stroke="currentColor" stroke-width="1.2" stroke-linecap="round" stroke-linejoin="round" />
  <line x1="73.34" y1="74.93" x2="74.34" y2="74.93" fill="currentColor" stroke="currentColor" stroke-width="1.2" stroke-linecap="round" stroke-linejoin="round" />
  <line x1="196.31" y1="75.31" x2="196.31" y2="75.39" fill="currentColor" stroke="currentColor" stroke-width="1.2" stroke-linecap="round" stroke-linejoin="round" />
  <line x1="201.09" y1="75.39" x2="202.24" y2="75.39" fill="currentColor" stroke="currentColor" stroke-width="1.2" stroke-linecap="round" stroke-linejoin="round" />
  <line x1="204.57" y1="75.39" x2="205.57" y2="75.39" fill="currentColor" stroke="currentColor" stroke-width="1.2" stroke-linecap="round" stroke-linejoin="round" />
  <line x1="196.31" y1="75.39" x2="201.06" y2="75.39" fill="currentColor" stroke="currentColor" stroke-width="1.2" stroke-linecap="round" stroke-linejoin="round" />
  <path d="M98.71,67.37 C98.71,92.41 78.39,112.73 53.35,112.73" fill="none" stroke="currentColor" stroke-width="1.6" stroke-linecap="round" stroke-linejoin="round" />
  <path d="M53.35,112.73 C28.32,112.73 8.00,92.41 8.00,67.37" fill="none" stroke="currentColor" stroke-width="1.6" stroke-linecap="round" stroke-linejoin="round" />
  <rect x="183.36" y="103.71" width="9.01" height="9.00" fill="none" stroke="currentColor" stroke-width="1.2" stroke-linecap="round" stroke-linejoin="round" />
  <line x1="124.33" y1="112.72" x2="260.40" y2="112.72" fill="none" stroke="currentColor" stroke-width="1.6" stroke-linecap="round" stroke-linejoin="round" />
  <path d="M190.26,115.66 C189.99,115.66 189.73,115.69 189.50,115.74" fill="currentColor" stroke="currentColor" stroke-width="1.2" stroke-linecap="round" stroke-linejoin="round" />
  <path d="M191.43,115.90 C191.10,115.74 190.71,115.66 190.26,115.66" fill="currentColor" stroke="currentColor" stroke-width="1.2" stroke-linecap="round" stroke-linejoin="round" />
  <path d="M189.50,115.74 C189.27,115.79 189.05,115.87 188.82,115.98" fill="currentColor" stroke="currentColor" stroke-width="1.2" stroke-linecap="round" stroke-linejoin="round" />
  <path d="M192.20,116.58 C192.02,116.29 191.76,116.06 191.43,115.90" fill="currentColor" stroke="currentColor" stroke-width="1.2" stroke-linecap="round" stroke-linejoin="round" />
  <line x1="188.82" y1="115.98" x2="188.82" y2="117.00" fill="currentColor" stroke="currentColor" stroke-width="1.2" stroke-linecap="round" stroke-linejoin="round" />
  <path d="M189.70,116.71 C189.83,116.69 189.97,116.68 190.10,116.68" fill="currentColor" stroke="currentColor" stroke-width="1.2" stroke-linecap="round" stroke-linejoin="round" />
  <path d="M190.10,116.68 C190.37,116.68 190.59,116.73 190.79,116.82" fill="currentColor" stroke="currentColor" stroke-width="1.2" stroke-linecap="round" stroke-linejoin="round" />
  <path d="M189.29,116.82 C189.44,116.77 189.57,116.74 189.70,116.71" fill="currentColor" stroke="currentColor" stroke-width="1.2" stroke-linecap="round" stroke-linejoin="round" />
  <path d="M188.82,117.00 C188.99,116.93 189.15,116.86 189.29,116.82" fill="currentColor" stroke="currentColor" stroke-width="1.2" stroke-linecap="round" stroke-linejoin="round" />
  <path d="M190.79,116.82 C190.98,116.91 191.13,117.04 191.24,117.21" fill="currentColor" stroke="currentColor" stroke-width="1.2" stroke-linecap="round" stroke-linejoin="round" />
  <path d="M192.47,117.62 C192.47,117.22 192.38,116.87 192.20,116.58" fill="currentColor" stroke="currentColor" stroke-width="1.2" stroke-linecap="round" stroke-linejoin="round" />
  <path d="M191.24,117.21 C191.34,117.37 191.40,117.57 191.40,117.80" fill="currentColor" stroke="currentColor" stroke-width="1.2" stroke-linecap="round" stroke-linejoin="round" />
  <path d="M192.38,118.34 C192.44,118.14 192.48,117.89 192.47,117.62" fill="currentColor" stroke="currentColor" stroke-width="1.2" stroke-linecap="round" stroke-linejoin="round" />
  <path d="M191.40,117.80 C191.40,118.15 191.27,118.41 191.03,118.60" fill="currentColor" stroke="currentColor" stroke-width="1.2" stroke-linecap="round" stroke-linejoin="round" />
  <line x1="198.31" y1="118.32" x2="197.15" y2="118.32" fill="currentColor" stroke="currentColor" stroke-width="1.2" stroke-linecap="round" stroke-linejoin="round" />
  <line x1="195.08" y1="118.32" x2="194.08" y2="118.32" fill="currentColor" stroke="currentColor" stroke-width="1.2" stroke-linecap="round" stroke-linejoin="round" />
  <path d="M192.07,118.88 C192.21,118.73 192.31,118.55 192.38,118.34" fill="currentColor" stroke="currentColor" stroke-width="1.2" stroke-linecap="round" stroke-linejoin="round" />
  <path d="M191.03,118.60 C190.78,118.79 190.41,118.89 189.91,118.89" fill="currentColor" stroke="currentColor" stroke-width="1.2" stroke-linecap="round" stroke-linejoin="round" />
  <path d="M191.52,119.30 C191.74,119.18 191.93,119.04 192.07,118.88" fill="currentColor" stroke="currentColor" stroke-width="1.2" stroke-linecap="round" stroke-linejoin="round" />
  <line x1="197.15" y1="118.32" x2="195.87" y2="119.98" fill="currentColor" stroke="currentColor" stroke-width="1.2" stroke-linecap="round" stroke-linejoin="round" />
  <line x1="195.87" y1="119.98" x2="195.08" y2="118.32" fill="currentColor" stroke="currentColor" stroke-width="1.2" stroke-linecap="round" stroke-linejoin="round" />
  <line x1="189.91" y1="118.89" x2="189.91" y2="119.88" fill="currentColor" stroke="currentColor" stroke-width="1.2" stroke-linecap="round" stroke-linejoin="round" />
  <line x1="194.08" y1="118.32" x2="195.25" y2="120.64" fill="currentColor" stroke="currentColor" stroke-width="1.2" stroke-linecap="round" stroke-linejoin="round" />
  <path d="M192.13,119.69 C191.97,119.51 191.77,119.38 191.52,119.30" fill="currentColor" stroke="currentColor" stroke-width="1.2" stroke-linecap="round" stroke-linejoin="round" />
  <line x1="196.32" y1="120.76" x2="198.31" y2="118.32" fill="currentColor" stroke="currentColor" stroke-width="1.2" stroke-linecap="round" stroke-linejoin="round" />
  <path d="M189.91,119.88 C190.27,119.87 190.57,119.91 190.80,120.02" fill="currentColor" stroke="currentColor" stroke-width="1.2" stroke-linecap="round" stroke-linejoin="round" />
  <path d="M192.48,120.33 C192.41,120.09 192.29,119.88 192.13,119.69" fill="currentColor" stroke="currentColor" stroke-width="1.2" stroke-linecap="round" stroke-linejoin="round" />
  <path d="M190.80,120.02 C191.04,120.13 191.22,120.28 191.34,120.47" fill="currentColor" stroke="currentColor" stroke-width="1.2" stroke-linecap="round" stroke-linejoin="round" />
  <path d="M192.60,121.08 C192.60,120.82 192.56,120.57 192.48,120.33" fill="currentColor" stroke="currentColor" stroke-width="1.2" stroke-linecap="round" stroke-linejoin="round" />
  <path d="M191.34,120.47 C191.46,120.67 191.52,120.89 191.52,121.14" fill="currentColor" stroke="currentColor" stroke-width="1.2" stroke-linecap="round" stroke-linejoin="round" />
  <path d="M191.52,121.14 C191.52,121.38 191.47,121.59 191.37,121.77" fill="currentColor" stroke="currentColor" stroke-width="1.2" stroke-linecap="round" stroke-linejoin="round" />
  <path d="M192.29,122.27 C192.49,121.93 192.59,121.53 192.60,121.08" fill="currentColor" stroke="currentColor" stroke-width="1.2" stroke-linecap="round" stroke-linejoin="round" />
  <line x1="195.25" y1="120.64" x2="193.09" y2="123.26" fill="currentColor" stroke="currentColor" stroke-width="1.2" stroke-linecap="round" stroke-linejoin="round" />
  <path d="M191.37,121.77 C191.27,121.95 191.13,122.09 190.95,122.19" fill="currentColor" stroke="currentColor" stroke-width="1.2" stroke-linecap="round" stroke-linejoin="round" />
  <path d="M189.48,122.19 C189.20,122.10 188.92,121.96 188.64,121.76" fill="currentColor" stroke="currentColor" stroke-width="1.2" stroke-linecap="round" stroke-linejoin="round" />
  <line x1="197.57" y1="123.26" x2="196.32" y2="120.76" fill="currentColor" stroke="currentColor" stroke-width="1.2" stroke-linecap="round" stroke-linejoin="round" />
  <path d="M190.95,122.19 C190.77,122.28 190.56,122.33 190.31,122.34" fill="currentColor" stroke="currentColor" stroke-width="1.2" stroke-linecap="round" stroke-linejoin="round" />
  <path d="M190.31,122.34 C190.03,122.34 189.76,122.29 189.48,122.19" fill="currentColor" stroke="currentColor" stroke-width="1.2" stroke-linecap="round" stroke-linejoin="round" />
  <line x1="194.24" y1="123.26" x2="195.67" y2="121.41" fill="currentColor" stroke="currentColor" stroke-width="1.2" stroke-linecap="round" stroke-linejoin="round" />
  <line x1="195.67" y1="121.41" x2="196.57" y2="123.26" fill="currentColor" stroke="currentColor" stroke-width="1.2" stroke-linecap="round" stroke-linejoin="round" />
  <line x1="188.64" y1="121.76" x2="188.64" y2="122.93" fill="currentColor" stroke="currentColor" stroke-width="1.2" stroke-linecap="round" stroke-linejoin="round" />
  <path d="M191.46,123.07 C191.81,122.88 192.09,122.61 192.29,122.27" fill="currentColor" stroke="currentColor" stroke-width="1.2" stroke-linecap="round" stroke-linejoin="round" />
  <path d="M188.64,122.93 C188.91,123.07 189.18,123.17 189.44,123.25" fill="currentColor" stroke="currentColor" stroke-width="1.2" stroke-linecap="round" stroke-linejoin="round" />
  <path d="M190.23,123.36 C190.70,123.36 191.11,123.26 191.46,123.07" fill="currentColor" stroke="currentColor" stroke-width="1.2" stroke-linecap="round" stroke-linejoin="round" />
  <line x1="193.09" y1="123.26" x2="194.24" y2="123.26" fill="currentColor" stroke="currentColor" stroke-width="1.2" stroke-linecap="round" stroke-linejoin="round" />
  <line x1="196.57" y1="123.26" x2="197.57" y2="123.26" fill="currentColor" stroke="currentColor" stroke-width="1.2" stroke-linecap="round" stroke-linejoin="round" />
  <path d="M189.44,123.25 C189.71,123.32 189.97,123.36 190.23,123.36" fill="currentColor" stroke="currentColor" stroke-width="1.2" stroke-linecap="round" stroke-linejoin="round" />
</svg>