<svg xmlns="http://www.w3.org/2000/svg" viewBox="0 0 93.35 93.42" preserveAspectRatio="xMidYMid meet" shape-rendering="geometricPrecision" text-rendering="optimizeLegibility">
  <line x1="62.81" y1="22.33" x2="62.29" y2="22.33" fill="currentColor" stroke="currentColor" stroke-width="1.2" stroke-linecap="round" stroke-linejoin="round" />
  <path d="M68.18,22.33 C67.83,22.33 67.50,22.36 67.21,22.43" fill="currentColor" stroke="currentColor" stroke-width="1.2" stroke-linecap="round" stroke-linejoin="round" />
  <path d="M69.67,22.64 C69.25,22.43 68.75,22.33 68.18,22.33" fill="currentColor" stroke="currentColor" stroke-width="1.2" stroke-linecap="round" stroke-linejoin="round" />
  <path d="M67.21,22.43 C66.92,22.49 66.63,22.60 66.35,22.73" fill="currentColor" stroke="currentColor" stroke-width="1.2" stroke-linecap="round" stroke-linejoin="round" />
  <path d="M70.64,23.50 C70.41,23.13 70.09,22.84 69.67,22.64" fill="currentColor" stroke="currentColor" stroke-width="1.2" stroke-linecap="round" stroke-linejoin="round" />
  <line x1="66.35" y1="22.73" x2="66.35" y2="24.04" fill="currentColor" stroke="currentColor" stroke-width="1.2" stroke-linecap="round" stroke-linejoin="round" />
  <path d="M67.46,23.67 C67.63,23.64 67.80,23.63 67.97,23.63" fill="currentColor" stroke="currentColor" stroke-width="1.2" stroke-linecap="round" stroke-linejoin="round" />
  <line x1="62.29" y1="22.33" x2="59.03" y2="24.99" fill="currentColor" stroke="currentColor" stroke-width="1.2" stroke-linecap="round" stroke-linejoin="round" />
  <path d="M67.97,23.63 C68.31,23.63 68.60,23.69 68.85,23.80" fill="currentColor" stroke="currentColor" stroke-width="1.2" stroke-linecap="round" stroke-linejoin="round" />
  <path d="M66.94,23.80 C67.12,23.74 67.30,23.70 67.46,23.67" fill="currentColor" stroke="currentColor" stroke-width="1.2" stroke-linecap="round" stroke-linejoin="round" />
  <path d="M66.35,24.04 C66.56,23.94 66.76,23.86 66.94,23.80" fill="currentColor" stroke="currentColor" stroke-width="1.2" stroke-linecap="round" stroke-linejoin="round" />
  <path d="M68.85,23.80 C69.09,23.92 69.28,24.08 69.42,24.30" fill="currentColor" stroke="currentColor" stroke-width="1.2" stroke-linecap="round" stroke-linejoin="round" />
  <path d="M70.99,24.82 C70.99,24.31 70.87,23.87 70.64,23.50" fill="currentColor" stroke="currentColor" stroke-width="1.2" stroke-linecap="round" stroke-linejoin="round" />
  <path d="M69.42,24.30 C69.55,24.51 69.62,24.76 69.62,25.06" fill="currentColor" stroke="currentColor" stroke-width="1.2" stroke-linecap="round" stroke-linejoin="round" />
  <path d="M70.87,25.74 C70.95,25.48 70.99,25.17 70.99,24.82" fill="currentColor" stroke="currentColor" stroke-width="1.2" stroke-linecap="round" stroke-linejoin="round" />
  <line x1="59.56" y1="26.18" x2="61.38" y2="24.68" fill="currentColor" stroke="currentColor" stroke-width="1.2" stroke-linecap="round" stroke-linejoin="round" />
  <path d="M69.62,25.06 C69.62,25.49 69.46,25.84 69.15,26.08" fill="currentColor" stroke="currentColor" stroke-width="1.2" stroke-linecap="round" stroke-linejoin="round" />
  <line x1="59.03" y1="24.99" x2="59.56" y2="26.18" fill="currentColor" stroke="currentColor" stroke-width="1.2" stroke-linecap="round" stroke-linejoin="round" />
  <line x1="29.91" y1="25.60" x2="28.44" y2="25.60" fill="currentColor" stroke="currentColor" stroke-width="1.2" stroke-linecap="round" stroke-linejoin="round" />
  <line x1="25.81" y1="25.60" x2="24.53" y2="25.60" fill="currentColor" stroke="currentColor" stroke-width="1.2" stroke-linecap="round" stroke-linejoin="round" />
  <path d="M70.48,26.43 C70.66,26.23 70.79,26.00 70.87,25.74" fill="currentColor" stroke="currentColor" stroke-width="1.2" stroke-linecap="round" stroke-linejoin="round" />
  <path d="M69.15,26.08 C68.83,26.32 68.36,26.44 67.73,26.44" fill="currentColor" stroke="currentColor" stroke-width="1.2" stroke-linecap="round" stroke-linejoin="round" />
  <line x1="28.44" y1="25.60" x2="26.80" y2="27.72" fill="currentColor" stroke="currentColor" stroke-width="1.2" stroke-linecap="round" stroke-linejoin="round" />
  <line x1="26.80" y1="27.72" x2="25.81" y2="25.60" fill="currentColor" stroke="currentColor" stroke-width="1.2" stroke-linecap="round" stroke-linejoin="round" />
  <path d="M69.78,26.96 C70.06,26.80 70.30,26.63 70.48,26.43" fill="currentColor" stroke="currentColor" stroke-width="1.2" stroke-linecap="round" stroke-linejoin="round" />
  <line x1="67.73" y1="26.44" x2="67.73" y2="27.70" fill="currentColor" stroke="currentColor" stroke-width="1.2" stroke-linecap="round" stroke-linejoin="round" />
  <line x1="24.53" y1="25.60" x2="26.02" y2="28.55" fill="currentColor" stroke="currentColor" stroke-width="1.2" stroke-linecap="round" stroke-linejoin="round" />
  <line x1="27.38" y1="28.71" x2="29.91" y2="25.60" fill="currentColor" stroke="currentColor" stroke-width="1.2" stroke-linecap="round" stroke-linejoin="round" />
  <line x1="62.81" y1="32.00" x2="62.81" y2="22.33" fill="currentColor" stroke="currentColor" stroke-width="1.2" stroke-linecap="round" stroke-linejoin="round" />
  <path d="M70.55,27.46 C70.35,27.23 70.09,27.06 69.78,26.96" fill="currentColor" stroke="currentColor" stroke-width="1.2" stroke-linecap="round" stroke-linejoin="round" />
  <path d="M67.73,27.70 C68.18,27.68 68.56,27.74 68.86,27.88" fill="currentColor" stroke="currentColor" stroke-width="1.2" stroke-linecap="round" stroke-linejoin="round" />
  <path d="M71.00,28.27 C70.90,27.96 70.76,27.69 70.55,27.46" fill="currentColor" stroke="currentColor" stroke-width="1.2" stroke-linecap="round" stroke-linejoin="round" />
  <path d="M68.86,27.88 C69.17,28.01 69.40,28.21 69.55,28.45" fill="currentColor" stroke="currentColor" stroke-width="1.2" stroke-linecap="round" stroke-linejoin="round" />
  <line x1="61.38" y1="24.68" x2="61.38" y2="32.00" fill="currentColor" stroke="currentColor" stroke-width="1.2" stroke-linecap="round" stroke-linejoin="round" />
  <path d="M71.15,29.23 C71.15,28.90 71.10,28.58 71.00,28.27" fill="currentColor" stroke="currentColor" stroke-width="1.2" stroke-linecap="round" stroke-linejoin="round" />
  <path d="M69.55,28.45 C69.70,28.70 69.78,28.98 69.78,29.30" fill="currentColor" stroke="currentColor" stroke-width="1.2" stroke-linecap="round" stroke-linejoin="round" />
  <path d="M69.78,29.30 C69.77,29.61 69.71,29.88 69.58,30.10" fill="currentColor" stroke="currentColor" stroke-width="1.2" stroke-linecap="round" stroke-linejoin="round" />
  <path d="M70.76,30.74 C71.01,30.31 71.14,29.80 71.15,29.23" fill="currentColor" stroke="currentColor" stroke-width="1.2" stroke-linecap="round" stroke-linejoin="round" />
  <line x1="26.02" y1="28.55" x2="23.27" y2="31.89" fill="currentColor" stroke="currentColor" stroke-width="1.2" stroke-linecap="round" stroke-linejoin="round" />
  <line x1="28.97" y1="31.89" x2="27.38" y2="28.71" fill="currentColor" stroke="currentColor" stroke-width="1.2" stroke-linecap="round" stroke-linejoin="round" />
  <path d="M69.58,30.10 C69.46,30.33 69.28,30.51 69.05,30.64" fill="currentColor" stroke="currentColor" stroke-width="1.2" stroke-linecap="round" stroke-linejoin="round" />
  <path d="M67.18,30.65 C66.83,30.52 66.47,30.34 66.11,30.10" fill="currentColor" stroke="currentColor" stroke-width="1.2" stroke-linecap="round" stroke-linejoin="round" />
  <line x1="24.73" y1="31.89" x2="26.55" y2="29.54" fill="currentColor" stroke="currentColor" stroke-width="1.2" stroke-linecap="round" stroke-linejoin="round" />
  <line x1="26.55" y1="29.54" x2="27.70" y2="31.89" fill="currentColor" stroke="currentColor" stroke-width="1.2" stroke-linecap="round" stroke-linejoin="round" />
  <path d="M69.05,30.64 C68.82,30.76 68.55,30.82 68.24,30.83" fill="currentColor" stroke="currentColor" stroke-width="1.2" stroke-linecap="round" stroke-linejoin="round" />
  <path d="M68.24,30.83 C67.89,30.83 67.53,30.77 67.18,30.65" fill="currentColor" stroke="currentColor" stroke-width="1.2" stroke-linecap="round" stroke-linejoin="round" />
  <line x1="66.11" y1="30.10" x2="66.11" y2="31.58" fill="currentColor" stroke="currentColor" stroke-width="1.2" stroke-linecap="round" stroke-linejoin="round" />
  <path d="M69.70,31.76 C70.15,31.51 70.50,31.17 70.76,30.74" fill="currentColor" stroke="currentColor" stroke-width="1.2" stroke-linecap="round" stroke-linejoin="round" />
  <path d="M66.11,31.58 C66.45,31.76 66.79,31.89 67.13,31.98" fill="currentColor" stroke="currentColor" stroke-width="1.2" stroke-linecap="round" stroke-linejoin="round" />
  <line x1="23.27" y1="31.89" x2="24.73" y2="31.89" fill="currentColor" stroke="currentColor" stroke-width="1.2" stroke-linecap="round" stroke-linejoin="round" />
  <line x1="27.70" y1="31.89" x2="28.97" y2="31.89" fill="currentColor" stroke="currentColor" stroke-width="1.2" stroke-linecap="round" stroke-linejoin="round" />
  <path d="M68.14,32.13 C68.73,32.12 69.25,32.00 69.70,31.76" fill="currentColor" stroke="currentColor" stroke-width="1.2" stroke-linecap="round" stroke-linejoin="round" />
  <line x1="61.38" y1="32.00" x2="62.81" y2="32.00" fill="currentColor" stroke="currentColor" stroke-width="1.2" stroke-linecap="round" stroke-linejoin="round" />
  <path d="M67.13,31.98 C67.47,32.08 67.81,32.13 68.14,32.13" fill="currentColor" stroke="currentColor" stroke-width="1.2" stroke-linecap="round" stroke-linejoin="round" />
  <line x1="46.64" y1="8.00" x2="46.64" y2="85.42" fill="none" stroke="currentColor" stroke-width="1.5630000352859497" stroke-linecap="round" stroke-linejoin="round" />
  <line x1="8.07" y1="46.71" x2="85.35" y2="46.71" fill="none" stroke="currentColor" stroke-width="1.5630000352859497" stroke-linecap="round" stroke-linejoin="round" />
  <rect x="8.00" y="8.08" width="77.28" height="77.28" fill="none" stroke="currentColor" stroke-width="1.5630000352859497" stroke-linecap="round" stroke-linejoin="round" />
  <line x1="29.31" y1="62.56" x2="28.07" y2="62.56" fill="currentColor" stroke="currentColor" stroke-width="1.2" stroke-linecap="round" stroke-linejoin="round" />
  <line x1="25.22" y1="62.56" x2="24.03" y2="62.56" fill="currentColor" stroke="currentColor" stroke-width="1.2" stroke-linecap="round" stroke-linejoin="round" />
  <line x1="68.44" y1="62.63" x2="63.06" y2="62.63" fill="currentColor" stroke="currentColor" stroke-width="1.2" stroke-linecap="round" stroke-linejoin="round" />
  <line x1="63.06" y1="62.63" x2="62.92" y2="63.68" fill="currentColor" stroke="currentColor" stroke-width="1.2" stroke-linecap="round" stroke-linejoin="round" />
  <line x1="62.92" y1="63.68" x2="66.10" y2="63.68" fill="currentColor" stroke="currentColor" stroke-width="1.2" stroke-linecap="round" stroke-linejoin="round" />
  <line x1="28.07" y1="62.56" x2="26.09" y2="66.89" fill="currentColor" stroke="currentColor" stroke-width="1.2" stroke-linecap="round" stroke-linejoin="round" />
  <line x1="26.06" y1="66.89" x2="25.22" y2="62.56" fill="currentColor" stroke="currentColor" stroke-width="1.2" stroke-linecap="round" stroke-linejoin="round" />
  <line x1="64.27" y1="67.86" x2="68.44" y2="62.63" fill="currentColor" stroke="currentColor" stroke-width="1.2" stroke-linecap="round" stroke-linejoin="round" />
  <line x1="24.03" y1="62.56" x2="25.25" y2="68.47" fill="currentColor" stroke="currentColor" stroke-width="1.2" stroke-linecap="round" stroke-linejoin="round" />
  <line x1="66.10" y1="63.68" x2="62.00" y2="68.91" fill="currentColor" stroke="currentColor" stroke-width="1.2" stroke-linecap="round" stroke-linejoin="round" />
  <line x1="26.09" y1="66.89" x2="26.06" y2="66.89" fill="currentColor" stroke="currentColor" stroke-width="1.2" stroke-linecap="round" stroke-linejoin="round" />
  <line x1="24.80" y1="72.07" x2="29.31" y2="62.56" fill="currentColor" stroke="currentColor" stroke-width="1.2" stroke-linecap="round" stroke-linejoin="round" />
  <line x1="67.92" y1="67.86" x2="64.27" y2="67.86" fill="currentColor" stroke="currentColor" stroke-width="1.2" stroke-linecap="round" stroke-linejoin="round" />
  <line x1="67.70" y1="68.91" x2="67.92" y2="67.86" fill="currentColor" stroke="currentColor" stroke-width="1.2" stroke-linecap="round" stroke-linejoin="round" />
  <line x1="62.00" y1="68.91" x2="67.70" y2="68.91" fill="currentColor" stroke="currentColor" stroke-width="1.2" stroke-linecap="round" stroke-linejoin="round" />
  <line x1="25.25" y1="68.47" x2="23.54" y2="72.07" fill="currentColor" stroke="currentColor" stroke-width="1.2" stroke-linecap="round" stroke-linejoin="round" />
  <line x1="23.54" y1="72.07" x2="24.80" y2="72.07" fill="currentColor" stroke="currentColor" stroke-width="1.2" stroke-linecap="round" stroke-linejoin="round" />
</svg>