<svg xmlns="http://www.w3.org/2000/svg" viewBox="0 0 158.14 150.81" preserveAspectRatio="xMidYMid meet" shape-rendering="geometricPrecision" text-rendering="optimizeLegibility">
  <path d="M148.28,8.06 C148.01,8.02 147.75,8.00 147.49,8.00" fill="currentColor" stroke="currentColor" stroke-width="1.2" stroke-linecap="round" stroke-linejoin="round" />
  <path d="M147.49,8.00 C146.89,8.00 146.34,8.10 145.84,8.30" fill="currentColor" stroke="currentColor" stroke-width="1.2" stroke-linecap="round" stroke-linejoin="round" />
  <path d="M149.12,8.27 C148.82,8.17 148.54,8.11 148.28,8.06" fill="currentColor" stroke="currentColor" stroke-width="1.2" stroke-linecap="round" stroke-linejoin="round" />
  <path d="M12.40,8.44 C11.96,8.29 11.47,8.22 10.91,8.22" fill="currentColor" stroke="currentColor" stroke-width="1.2" stroke-linecap="round" stroke-linejoin="round" />
  <line x1="10.91" y1="8.22" x2="8.00" y2="8.22" fill="currentColor" stroke="currentColor" stroke-width="1.2" stroke-linecap="round" stroke-linejoin="round" />
  <line x1="8.00" y1="8.22" x2="8.00" y2="15.72" fill="currentColor" stroke="currentColor" stroke-width="1.2" stroke-linecap="round" stroke-linejoin="round" />
  <path d="M150.07,8.62 C149.73,8.47 149.41,8.36 149.12,8.27" fill="currentColor" stroke="currentColor" stroke-width="1.2" stroke-linecap="round" stroke-linejoin="round" />
  <path d="M145.84,8.30 C145.34,8.49 144.91,8.77 144.54,9.12" fill="currentColor" stroke="currentColor" stroke-width="1.2" stroke-linecap="round" stroke-linejoin="round" />
  <path d="M13.52,9.03 C13.20,8.78 12.83,8.58 12.40,8.44" fill="currentColor" stroke="currentColor" stroke-width="1.2" stroke-linecap="round" stroke-linejoin="round" />
  <line x1="150.07" y1="9.77" x2="150.07" y2="8.62" fill="currentColor" stroke="currentColor" stroke-width="1.2" stroke-linecap="round" stroke-linejoin="round" />
  <path d="M147.48,8.99 C147.91,8.99 148.34,9.05 148.76,9.18" fill="currentColor" stroke="currentColor" stroke-width="1.2" stroke-linecap="round" stroke-linejoin="round" />
  <path d="M146.29,9.21 C146.65,9.06 147.05,8.99 147.48,8.99" fill="currentColor" stroke="currentColor" stroke-width="1.2" stroke-linecap="round" stroke-linejoin="round" />
  <path d="M14.30,9.88 C14.10,9.56 13.84,9.28 13.52,9.03" fill="currentColor" stroke="currentColor" stroke-width="1.2" stroke-linecap="round" stroke-linejoin="round" />
  <path d="M144.54,9.12 C144.17,9.48 143.89,9.89 143.69,10.38" fill="currentColor" stroke="currentColor" stroke-width="1.2" stroke-linecap="round" stroke-linejoin="round" />
  <path d="M148.76,9.18 C149.17,9.30 149.61,9.50 150.07,9.77" fill="currentColor" stroke="currentColor" stroke-width="1.2" stroke-linecap="round" stroke-linejoin="round" />
  <line x1="9.08" y1="9.18" x2="10.74" y2="9.18" fill="currentColor" stroke="currentColor" stroke-width="1.2" stroke-linecap="round" stroke-linejoin="round" />
  <path d="M10.74,9.18 C11.26,9.19 11.72,9.26 12.10,9.41" fill="currentColor" stroke="currentColor" stroke-width="1.2" stroke-linecap="round" stroke-linejoin="round" />
  <line x1="9.08" y1="14.75" x2="9.08" y2="9.18" fill="currentColor" stroke="currentColor" stroke-width="1.2" stroke-linecap="round" stroke-linejoin="round" />
  <path d="M145.34,9.81 C145.61,9.55 145.93,9.35 146.29,9.21" fill="currentColor" stroke="currentColor" stroke-width="1.2" stroke-linecap="round" stroke-linejoin="round" />
  <path d="M12.10,9.41 C12.49,9.55 12.81,9.75 13.06,10.01" fill="currentColor" stroke="currentColor" stroke-width="1.2" stroke-linecap="round" stroke-linejoin="round" />
  <path d="M144.72,10.72 C144.87,10.37 145.07,10.06 145.34,9.81" fill="currentColor" stroke="currentColor" stroke-width="1.2" stroke-linecap="round" stroke-linejoin="round" />
  <path d="M14.76,10.90 C14.66,10.54 14.51,10.20 14.30,9.88" fill="currentColor" stroke="currentColor" stroke-width="1.2" stroke-linecap="round" stroke-linejoin="round" />
  <path d="M13.06,10.01 C13.31,10.27 13.49,10.56 13.62,10.90" fill="currentColor" stroke="currentColor" stroke-width="1.2" stroke-linecap="round" stroke-linejoin="round" />
  <path d="M143.69,10.38 C143.48,10.86 143.38,11.38 143.38,11.96" fill="currentColor" stroke="currentColor" stroke-width="1.2" stroke-linecap="round" stroke-linejoin="round" />
  <path d="M144.49,11.86 C144.49,11.45 144.57,11.06 144.72,10.72" fill="currentColor" stroke="currentColor" stroke-width="1.2" stroke-linecap="round" stroke-linejoin="round" />
  <path d="M14.91,11.97 C14.91,11.61 14.86,11.25 14.76,10.90" fill="currentColor" stroke="currentColor" stroke-width="1.2" stroke-linecap="round" stroke-linejoin="round" />
  <path d="M13.62,10.90 C13.74,11.23 13.80,11.59 13.80,11.97" fill="currentColor" stroke="currentColor" stroke-width="1.2" stroke-linecap="round" stroke-linejoin="round" />
  <path d="M144.88,13.35 C144.62,12.92 144.49,12.42 144.49,11.86" fill="currentColor" stroke="currentColor" stroke-width="1.2" stroke-linecap="round" stroke-linejoin="round" />
  <path d="M143.38,11.96 C143.38,12.28 143.43,12.61 143.53,12.95" fill="currentColor" stroke="currentColor" stroke-width="1.2" stroke-linecap="round" stroke-linejoin="round" />
  <path d="M14.73,13.10 C14.85,12.73 14.91,12.35 14.91,11.97" fill="currentColor" stroke="currentColor" stroke-width="1.2" stroke-linecap="round" stroke-linejoin="round" />
  <path d="M13.80,11.97 C13.80,12.15 13.77,12.37 13.72,12.61" fill="currentColor" stroke="currentColor" stroke-width="1.2" stroke-linecap="round" stroke-linejoin="round" />
  <path d="M13.72,12.61 C13.67,12.85 13.57,13.10 13.44,13.35" fill="currentColor" stroke="currentColor" stroke-width="1.2" stroke-linecap="round" stroke-linejoin="round" />
  <path d="M143.53,12.95 C143.63,13.29 143.79,13.63 143.99,13.95" fill="currentColor" stroke="currentColor" stroke-width="1.2" stroke-linecap="round" stroke-linejoin="round" />
  <path d="M14.22,14.12 C14.45,13.80 14.62,13.46 14.73,13.10" fill="currentColor" stroke="currentColor" stroke-width="1.2" stroke-linecap="round" stroke-linejoin="round" />
  <path d="M13.44,13.35 C13.31,13.59 13.13,13.82 12.91,14.04" fill="currentColor" stroke="currentColor" stroke-width="1.2" stroke-linecap="round" stroke-linejoin="round" />
  <path d="M145.94,14.34 C145.48,14.10 145.13,13.77 144.88,13.35" fill="currentColor" stroke="currentColor" stroke-width="1.2" stroke-linecap="round" stroke-linejoin="round" />
  <line x1="150.14" y1="15.04" x2="150.14" y2="13.86" fill="currentColor" stroke="currentColor" stroke-width="1.2" stroke-linecap="round" stroke-linejoin="round" />
  <path d="M150.14,13.86 C149.72,14.14 149.28,14.35 148.84,14.49" fill="currentColor" stroke="currentColor" stroke-width="1.2" stroke-linecap="round" stroke-linejoin="round" />
  <path d="M143.99,13.95 C144.20,14.28 144.47,14.57 144.79,14.83" fill="currentColor" stroke="currentColor" stroke-width="1.2" stroke-linecap="round" stroke-linejoin="round" />
  <path d="M12.91,14.04 C12.68,14.25 12.39,14.42 12.04,14.55" fill="currentColor" stroke="currentColor" stroke-width="1.2" stroke-linecap="round" stroke-linejoin="round" />
  <path d="M13.40,14.95 C13.72,14.71 13.99,14.43 14.22,14.12" fill="currentColor" stroke="currentColor" stroke-width="1.2" stroke-linecap="round" stroke-linejoin="round" />
  <path d="M147.53,14.71 C146.92,14.70 146.39,14.58 145.94,14.34" fill="currentColor" stroke="currentColor" stroke-width="1.2" stroke-linecap="round" stroke-linejoin="round" />
  <path d="M148.84,14.49 C148.39,14.64 147.95,14.71 147.53,14.71" fill="currentColor" stroke="currentColor" stroke-width="1.2" stroke-linecap="round" stroke-linejoin="round" />
  <path d="M12.04,14.55 C11.70,14.68 11.28,14.75 10.79,14.75" fill="currentColor" stroke="currentColor" stroke-width="1.2" stroke-linecap="round" stroke-linejoin="round" />
  <line x1="10.79" y1="14.75" x2="9.08" y2="14.75" fill="currentColor" stroke="currentColor" stroke-width="1.2" stroke-linecap="round" stroke-linejoin="round" />
  <path d="M144.79,14.83 C145.11,15.10 145.49,15.30 145.92,15.46" fill="currentColor" stroke="currentColor" stroke-width="1.2" stroke-linecap="round" stroke-linejoin="round" />
  <path d="M12.29,15.51 C12.71,15.38 13.07,15.19 13.40,14.95" fill="currentColor" stroke="currentColor" stroke-width="1.2" stroke-linecap="round" stroke-linejoin="round" />
  <path d="M149.37,15.38 C149.64,15.28 149.90,15.17 150.14,15.04" fill="currentColor" stroke="currentColor" stroke-width="1.2" stroke-linecap="round" stroke-linejoin="round" />
  <path d="M148.49,15.61 C148.81,15.56 149.10,15.48 149.37,15.38" fill="currentColor" stroke="currentColor" stroke-width="1.2" stroke-linecap="round" stroke-linejoin="round" />
  <path d="M145.92,15.46 C146.36,15.61 146.86,15.69 147.43,15.70" fill="currentColor" stroke="currentColor" stroke-width="1.2" stroke-linecap="round" stroke-linejoin="round" />
  <path d="M10.93,15.72 C11.42,15.71 11.88,15.65 12.29,15.51" fill="currentColor" stroke="currentColor" stroke-width="1.2" stroke-linecap="round" stroke-linejoin="round" />
  <rect x="18.53" y="15.57" width="121.41" height="121.41" fill="none" stroke="currentColor" stroke-width="1.2" stroke-linecap="round" stroke-linejoin="round" />
  <line x1="79.22" y1="31.12" x2="139.60" y2="15.57" fill="none" stroke="currentColor" stroke-width="1.2" stroke-linecap="round" stroke-linejoin="round" />
  <path d="M147.43,15.70 C147.82,15.70 148.17,15.67 148.49,15.61" fill="currentColor" stroke="currentColor" stroke-width="1.2" stroke-linecap="round" stroke-linejoin="round" />
  <line x1="19.02" y1="15.72" x2="79.22" y2="31.12" fill="none" stroke="currentColor" stroke-width="1.2" stroke-linecap="round" stroke-linejoin="round" />
  <line x1="8.00" y1="15.72" x2="10.93" y2="15.72" fill="currentColor" stroke="currentColor" stroke-width="1.2" stroke-linecap="round" stroke-linejoin="round" />
  <line x1="81.49" y1="17.82" x2="77.23" y2="17.82" fill="currentColor" stroke="currentColor" stroke-width="1.2" stroke-linecap="round" stroke-linejoin="round" />
  <line x1="77.23" y1="17.82" x2="77.23" y2="25.32" fill="currentColor" stroke="currentColor" stroke-width="1.2" stroke-linecap="round" stroke-linejoin="round" />
  <line x1="81.49" y1="18.79" x2="81.49" y2="17.82" fill="currentColor" stroke="currentColor" stroke-width="1.2" stroke-linecap="round" stroke-linejoin="round" />
  <line x1="78.31" y1="21.06" x2="78.31" y2="18.79" fill="currentColor" stroke="currentColor" stroke-width="1.2" stroke-linecap="round" stroke-linejoin="round" />
  <line x1="78.31" y1="18.79" x2="81.49" y2="18.79" fill="currentColor" stroke="currentColor" stroke-width="1.2" stroke-linecap="round" stroke-linejoin="round" />
  <line x1="81.38" y1="22.02" x2="81.38" y2="21.06" fill="currentColor" stroke="currentColor" stroke-width="1.2" stroke-linecap="round" stroke-linejoin="round" />
  <line x1="81.38" y1="21.06" x2="78.31" y2="21.06" fill="currentColor" stroke="currentColor" stroke-width="1.2" stroke-linecap="round" stroke-linejoin="round" />
  <line x1="78.31" y1="24.36" x2="78.31" y2="22.02" fill="currentColor" stroke="currentColor" stroke-width="1.2" stroke-linecap="round" stroke-linejoin="round" />
  <line x1="78.31" y1="22.02" x2="81.38" y2="22.02" fill="currentColor" stroke="currentColor" stroke-width="1.2" stroke-linecap="round" stroke-linejoin="round" />
  <line x1="81.59" y1="25.32" x2="81.59" y2="24.36" fill="currentColor" stroke="currentColor" stroke-width="1.2" stroke-linecap="round" stroke-linejoin="round" />
  <line x1="81.59" y1="24.36" x2="78.31" y2="24.36" fill="currentColor" stroke="currentColor" stroke-width="1.2" stroke-linecap="round" stroke-linejoin="round" />
  <line x1="77.23" y1="25.32" x2="81.59" y2="25.32" fill="currentColor" stroke="currentColor" stroke-width="1.2" stroke-linecap="round" stroke-linejoin="round" />
  <path d="M77.09,27.06 C79.44,25.89 82.29,26.84 83.47,29.18" fill="none" stroke="currentColor" stroke-width="1.0" stroke-linecap="round" stroke-linejoin="round" />
  <path d="M74.66,29.96 C75.02,28.74 75.87,27.67 77.09,27.06" fill="none" stroke="currentColor" stroke-width="1.0" stroke-linecap="round" stroke-linejoin="round" />
  <path d="M83.47,29.18 C83.60,29.44 83.70,29.71 83.78,29.98" fill="none" stroke="currentColor" stroke-width="1.0" stroke-linecap="round" stroke-linejoin="round" />
  <line x1="18.42" y1="137.03" x2="79.22" y2="30.68" fill="none" stroke="currentColor" stroke-width="1.2" stroke-linecap="round" stroke-linejoin="round" />
  <line x1="79.22" y1="30.68" x2="139.89" y2="136.74" fill="none" stroke="currentColor" stroke-width="1.2" stroke-linecap="round" stroke-linejoin="round" />
  <line x1="12.04" y1="135.27" x2="11.28" y2="135.27" fill="currentColor" stroke="currentColor" stroke-width="1.2" stroke-linecap="round" stroke-linejoin="round" />
  <line x1="11.28" y1="135.27" x2="8.05" y2="142.81" fill="currentColor" stroke="currentColor" stroke-width="1.2" stroke-linecap="round" stroke-linejoin="round" />
  <line x1="15.39" y1="142.81" x2="12.04" y2="135.27" fill="currentColor" stroke="currentColor" stroke-width="1.2" stroke-linecap="round" stroke-linejoin="round" />
  <path d="M146.52,135.48 C146.23,135.37 145.88,135.31 145.48,135.31" fill="currentColor" stroke="currentColor" stroke-width="1.2" stroke-linecap="round" stroke-linejoin="round" />
  <line x1="145.48" y1="135.31" x2="143.30" y2="135.31" fill="currentColor" stroke="currentColor" stroke-width="1.2" stroke-linecap="round" stroke-linejoin="round" />
  <line x1="143.30" y1="135.31" x2="143.30" y2="142.81" fill="currentColor" stroke="currentColor" stroke-width="1.2" stroke-linecap="round" stroke-linejoin="round" />
  <path d="M147.24,135.91 C147.05,135.73 146.81,135.59 146.52,135.48" fill="currentColor" stroke="currentColor" stroke-width="1.2" stroke-linecap="round" stroke-linejoin="round" />
  <path d="M147.66,136.53 C147.57,136.30 147.43,136.10 147.24,135.91" fill="currentColor" stroke="currentColor" stroke-width="1.2" stroke-linecap="round" stroke-linejoin="round" />
  <line x1="144.38" y1="136.28" x2="145.37" y2="136.28" fill="currentColor" stroke="currentColor" stroke-width="1.2" stroke-linecap="round" stroke-linejoin="round" />
  <path d="M145.37,136.28 C145.70,136.28 145.96,136.33 146.15,136.43" fill="currentColor" stroke="currentColor" stroke-width="1.2" stroke-linecap="round" stroke-linejoin="round" />
  <line x1="144.38" y1="138.52" x2="144.38" y2="136.28" fill="currentColor" stroke="currentColor" stroke-width="1.2" stroke-linecap="round" stroke-linejoin="round" />
  <path d="M146.15,136.43 C146.34,136.52 146.48,136.65 146.56,136.80" fill="currentColor" stroke="currentColor" stroke-width="1.2" stroke-linecap="round" stroke-linejoin="round" />
  <path d="M147.79,137.23 C147.79,136.99 147.74,136.75 147.66,136.53" fill="currentColor" stroke="currentColor" stroke-width="1.2" stroke-linecap="round" stroke-linejoin="round" />
  <path d="M146.56,136.80 C146.64,136.96 146.68,137.13 146.68,137.32" fill="currentColor" stroke="currentColor" stroke-width="1.2" stroke-linecap="round" stroke-linejoin="round" />
  <line x1="11.64" y1="136.92" x2="12.85" y2="139.63" fill="currentColor" stroke="currentColor" stroke-width="1.2" stroke-linecap="round" stroke-linejoin="round" />
  <line x1="10.52" y1="139.63" x2="11.64" y2="136.92" fill="currentColor" stroke="currentColor" stroke-width="1.2" stroke-linecap="round" stroke-linejoin="round" />
  <path d="M147.51,138.20 C147.70,137.94 147.79,137.61 147.79,137.23" fill="currentColor" stroke="currentColor" stroke-width="1.2" stroke-linecap="round" stroke-linejoin="round" />
  <path d="M146.68,137.32 C146.68,137.73 146.55,138.03 146.29,138.23" fill="currentColor" stroke="currentColor" stroke-width="1.2" stroke-linecap="round" stroke-linejoin="round" />
  <path d="M146.64,138.83 C147.03,138.67 147.32,138.46 147.51,138.20" fill="currentColor" stroke="currentColor" stroke-width="1.2" stroke-linecap="round" stroke-linejoin="round" />
  <path d="M146.29,138.23 C146.02,138.42 145.63,138.52 145.09,138.52" fill="currentColor" stroke="currentColor" stroke-width="1.2" stroke-linecap="round" stroke-linejoin="round" />
  <line x1="145.09" y1="138.52" x2="144.38" y2="138.52" fill="currentColor" stroke="currentColor" stroke-width="1.2" stroke-linecap="round" stroke-linejoin="round" />
  <line x1="146.64" y1="138.85" x2="146.64" y2="138.83" fill="currentColor" stroke="currentColor" stroke-width="1.2" stroke-linecap="round" stroke-linejoin="round" />
  <path d="M147.61,139.23 C147.34,139.05 147.02,138.92 146.64,138.85" fill="currentColor" stroke="currentColor" stroke-width="1.2" stroke-linecap="round" stroke-linejoin="round" />
  <path d="M148.23,139.90 C148.08,139.63 147.88,139.41 147.61,139.23" fill="currentColor" stroke="currentColor" stroke-width="1.2" stroke-linecap="round" stroke-linejoin="round" />
  <line x1="144.38" y1="139.49" x2="145.68" y2="139.49" fill="currentColor" stroke="currentColor" stroke-width="1.2" stroke-linecap="round" stroke-linejoin="round" />
  <path d="M145.68,139.49 C146.05,139.49 146.36,139.54 146.61,139.64" fill="currentColor" stroke="currentColor" stroke-width="1.2" stroke-linecap="round" stroke-linejoin="round" />
  <line x1="144.38" y1="141.85" x2="144.38" y2="139.49" fill="currentColor" stroke="currentColor" stroke-width="1.2" stroke-linecap="round" stroke-linejoin="round" />
  <line x1="12.85" y1="139.63" x2="10.52" y2="139.63" fill="currentColor" stroke="currentColor" stroke-width="1.2" stroke-linecap="round" stroke-linejoin="round" />
  <path d="M146.61,139.64 C146.85,139.74 147.04,139.88 147.16,140.05" fill="currentColor" stroke="currentColor" stroke-width="1.2" stroke-linecap="round" stroke-linejoin="round" />
  <path d="M148.45,140.81 C148.45,140.47 148.37,140.17 148.23,139.90" fill="currentColor" stroke="currentColor" stroke-width="1.2" stroke-linecap="round" stroke-linejoin="round" />
  <path d="M147.16,140.05 C147.28,140.23 147.34,140.43 147.34,140.66" fill="currentColor" stroke="currentColor" stroke-width="1.2" stroke-linecap="round" stroke-linejoin="round" />
  <line x1="9.15" y1="142.81" x2="10.10" y2="140.60" fill="currentColor" stroke="currentColor" stroke-width="1.2" stroke-linecap="round" stroke-linejoin="round" />
  <line x1="10.10" y1="140.60" x2="13.29" y2="140.60" fill="currentColor" stroke="currentColor" stroke-width="1.2" stroke-linecap="round" stroke-linejoin="round" />
  <line x1="13.29" y1="140.60" x2="14.29" y2="142.81" fill="currentColor" stroke="currentColor" stroke-width="1.2" stroke-linecap="round" stroke-linejoin="round" />
  <path d="M147.34,140.66 C147.34,140.85 147.29,141.03 147.20,141.21" fill="currentColor" stroke="currentColor" stroke-width="1.2" stroke-linecap="round" stroke-linejoin="round" />
  <path d="M148.31,141.51 C148.40,141.28 148.45,141.05 148.45,140.81" fill="currentColor" stroke="currentColor" stroke-width="1.2" stroke-linecap="round" stroke-linejoin="round" />
  <path d="M147.20,141.21 C147.11,141.40 146.94,141.54 146.71,141.66" fill="currentColor" stroke="currentColor" stroke-width="1.2" stroke-linecap="round" stroke-linejoin="round" />
  <path d="M147.87,142.16 C148.07,141.96 148.22,141.75 148.31,141.51" fill="currentColor" stroke="currentColor" stroke-width="1.2" stroke-linecap="round" stroke-linejoin="round" />
  <path d="M146.71,141.66 C146.47,141.78 146.15,141.84 145.73,141.85" fill="currentColor" stroke="currentColor" stroke-width="1.2" stroke-linecap="round" stroke-linejoin="round" />
  <line x1="145.73" y1="141.85" x2="144.38" y2="141.85" fill="currentColor" stroke="currentColor" stroke-width="1.2" stroke-linecap="round" stroke-linejoin="round" />
  <path d="M147.07,142.63 C147.40,142.51 147.66,142.35 147.87,142.16" fill="currentColor" stroke="currentColor" stroke-width="1.2" stroke-linecap="round" stroke-linejoin="round" />
  <path d="M145.87,142.81 C146.34,142.81 146.74,142.75 147.07,142.63" fill="currentColor" stroke="currentColor" stroke-width="1.2" stroke-linecap="round" stroke-linejoin="round" />
  <line x1="8.05" y1="142.81" x2="9.15" y2="142.81" fill="currentColor" stroke="currentColor" stroke-width="1.2" stroke-linecap="round" stroke-linejoin="round" />
  <line x1="14.29" y1="142.81" x2="15.39" y2="142.81" fill="currentColor" stroke="currentColor" stroke-width="1.2" stroke-linecap="round" stroke-linejoin="round" />
  <line x1="143.30" y1="142.81" x2="145.87" y2="142.81" fill="currentColor" stroke="currentColor" stroke-width="1.2" stroke-linecap="round" stroke-linejoin="round" />
</svg>