<svg xmlns="http://www.w3.org/2000/svg" viewBox="0 0 101.62 79.43" preserveAspectRatio="xMidYMid meet" shape-rendering="geometricPrecision" text-rendering="optimizeLegibility">
  <path d="M8.24,8.01 C8.30,8.00 8.38,8.00 8.46,8.00" fill="currentColor" stroke="currentColor" stroke-width="1.2" stroke-linecap="round" stroke-linejoin="round" />
  <path d="M8.46,8.00 C8.55,8.00 8.63,8.00 8.68,8.01" fill="currentColor" stroke="currentColor" stroke-width="1.2" stroke-linecap="round" stroke-linejoin="round" />
  <path d="M8.10,8.05 C8.13,8.03 8.18,8.02 8.24,8.01" fill="currentColor" stroke="currentColor" stroke-width="1.2" stroke-linecap="round" stroke-linejoin="round" />
  <path d="M8.68,8.01 C8.74,8.02 8.79,8.03 8.83,8.05" fill="currentColor" stroke="currentColor" stroke-width="1.2" stroke-linecap="round" stroke-linejoin="round" />
  <path d="M8.02,8.10 C8.04,8.07 8.06,8.06 8.10,8.05" fill="currentColor" stroke="currentColor" stroke-width="1.2" stroke-linecap="round" stroke-linejoin="round" />
  <path d="M8.83,8.05 C8.86,8.06 8.89,8.07 8.90,8.10" fill="currentColor" stroke="currentColor" stroke-width="1.2" stroke-linecap="round" stroke-linejoin="round" />
  <path d="M8.00,8.17 C8.00,8.14 8.01,8.12 8.02,8.10" fill="currentColor" stroke="currentColor" stroke-width="1.2" stroke-linecap="round" stroke-linejoin="round" />
  <path d="M8.90,8.10 C8.92,8.12 8.92,8.14 8.92,8.17" fill="currentColor" stroke="currentColor" stroke-width="1.2" stroke-linecap="round" stroke-linejoin="round" />
  <line x1="8.92" y1="8.17" x2="8.92" y2="14.18" fill="currentColor" stroke="currentColor" stroke-width="1.2" stroke-linecap="round" stroke-linejoin="round" />
  <line x1="8.00" y1="14.61" x2="8.00" y2="8.17" fill="currentColor" stroke="currentColor" stroke-width="1.2" stroke-linecap="round" stroke-linejoin="round" />
  <path d="M13.57,12.53 C13.60,12.53 13.63,12.53 13.67,12.53" fill="currentColor" stroke="currentColor" stroke-width="1.2" stroke-linecap="round" stroke-linejoin="round" />
  <path d="M13.67,12.53 C13.73,12.53 13.77,12.53 13.81,12.53" fill="currentColor" stroke="currentColor" stroke-width="1.2" stroke-linecap="round" stroke-linejoin="round" />
  <path d="M13.50,12.54 C13.52,12.53 13.54,12.53 13.57,12.53" fill="currentColor" stroke="currentColor" stroke-width="1.2" stroke-linecap="round" stroke-linejoin="round" />
  <path d="M13.81,12.53 C13.85,12.54 13.88,12.55 13.90,12.55" fill="currentColor" stroke="currentColor" stroke-width="1.2" stroke-linecap="round" stroke-linejoin="round" />
  <path d="M13.45,12.55 C13.46,12.55 13.48,12.54 13.50,12.54" fill="currentColor" stroke="currentColor" stroke-width="1.2" stroke-linecap="round" stroke-linejoin="round" />
  <path d="M13.41,12.57 C13.42,12.56 13.43,12.56 13.45,12.55" fill="currentColor" stroke="currentColor" stroke-width="1.2" stroke-linecap="round" stroke-linejoin="round" />
  <path d="M13.90,12.55 C13.92,12.56 13.93,12.57 13.94,12.58" fill="currentColor" stroke="currentColor" stroke-width="1.2" stroke-linecap="round" stroke-linejoin="round" />
  <path d="M13.94,12.58 C13.94,12.60 13.95,12.61 13.95,12.62" fill="currentColor" stroke="currentColor" stroke-width="1.2" stroke-linecap="round" stroke-linejoin="round" />
  <line x1="12.40" y1="13.22" x2="13.41" y2="12.57" fill="currentColor" stroke="currentColor" stroke-width="1.2" stroke-linecap="round" stroke-linejoin="round" />
  <path d="M12.35,13.26 C12.36,13.25 12.37,13.24 12.40,13.22" fill="currentColor" stroke="currentColor" stroke-width="1.2" stroke-linecap="round" stroke-linejoin="round" />
  <path d="M12.32,13.31 C12.32,13.29 12.33,13.28 12.35,13.26" fill="currentColor" stroke="currentColor" stroke-width="1.2" stroke-linecap="round" stroke-linejoin="round" />
  <path d="M12.30,13.38 C12.30,13.35 12.31,13.33 12.32,13.31" fill="currentColor" stroke="currentColor" stroke-width="1.2" stroke-linecap="round" stroke-linejoin="round" />
  <line x1="13.36" y1="13.15" x2="12.50" y2="13.66" fill="currentColor" stroke="currentColor" stroke-width="1.2" stroke-linecap="round" stroke-linejoin="round" />
  <path d="M12.30,13.48 C12.30,13.44 12.30,13.41 12.30,13.38" fill="currentColor" stroke="currentColor" stroke-width="1.2" stroke-linecap="round" stroke-linejoin="round" />
  <path d="M12.30,13.61 C12.30,13.57 12.30,13.53 12.30,13.48" fill="currentColor" stroke="currentColor" stroke-width="1.2" stroke-linecap="round" stroke-linejoin="round" />
  <path d="M12.34,13.68 C12.32,13.67 12.31,13.64 12.30,13.61" fill="currentColor" stroke="currentColor" stroke-width="1.2" stroke-linecap="round" stroke-linejoin="round" />
  <path d="M12.50,13.66 C12.46,13.68 12.43,13.69 12.40,13.70" fill="currentColor" stroke="currentColor" stroke-width="1.2" stroke-linecap="round" stroke-linejoin="round" />
  <path d="M12.40,13.70 C12.37,13.70 12.35,13.70 12.34,13.68" fill="currentColor" stroke="currentColor" stroke-width="1.2" stroke-linecap="round" stroke-linejoin="round" />
  <line x1="8.92" y1="14.18" x2="11.42" y2="14.18" fill="currentColor" stroke="currentColor" stroke-width="1.2" stroke-linecap="round" stroke-linejoin="round" />
  <path d="M11.42,14.18 C11.45,14.18 11.48,14.19 11.50,14.21" fill="currentColor" stroke="currentColor" stroke-width="1.2" stroke-linecap="round" stroke-linejoin="round" />
  <path d="M11.50,14.21 C11.52,14.22 11.54,14.24 11.56,14.28" fill="currentColor" stroke="currentColor" stroke-width="1.2" stroke-linecap="round" stroke-linejoin="round" />
  <path d="M11.56,14.28 C11.57,14.31 11.59,14.35 11.59,14.40" fill="currentColor" stroke="currentColor" stroke-width="1.2" stroke-linecap="round" stroke-linejoin="round" />
  <path d="M11.59,14.40 C11.60,14.45 11.60,14.51 11.60,14.58" fill="currentColor" stroke="currentColor" stroke-width="1.2" stroke-linecap="round" stroke-linejoin="round" />
  <line x1="13.95" y1="12.62" x2="13.95" y2="16.51" fill="currentColor" stroke="currentColor" stroke-width="1.2" stroke-linecap="round" stroke-linejoin="round" />
  <path d="M11.60,14.58 C11.60,14.65 11.60,14.71 11.59,14.76" fill="currentColor" stroke="currentColor" stroke-width="1.2" stroke-linecap="round" stroke-linejoin="round" />
  <path d="M8.11,14.90 C8.04,14.84 8.00,14.75 8.00,14.61" fill="currentColor" stroke="currentColor" stroke-width="1.2" stroke-linecap="round" stroke-linejoin="round" />
  <path d="M11.59,14.76 C11.59,14.81 11.57,14.85 11.56,14.88" fill="currentColor" stroke="currentColor" stroke-width="1.2" stroke-linecap="round" stroke-linejoin="round" />
  <line x1="13.36" y1="16.51" x2="13.36" y2="13.15" fill="currentColor" stroke="currentColor" stroke-width="1.2" stroke-linecap="round" stroke-linejoin="round" />
  <path d="M11.56,14.88 C11.54,14.92 11.52,14.94 11.50,14.96" fill="currentColor" stroke="currentColor" stroke-width="1.2" stroke-linecap="round" stroke-linejoin="round" />
  <path d="M8.34,14.98 C8.26,14.98 8.18,14.95 8.11,14.90" fill="currentColor" stroke="currentColor" stroke-width="1.2" stroke-linecap="round" stroke-linejoin="round" />
  <path d="M11.50,14.96 C11.48,14.97 11.45,14.98 11.42,14.98" fill="currentColor" stroke="currentColor" stroke-width="1.2" stroke-linecap="round" stroke-linejoin="round" />
  <line x1="11.42" y1="14.98" x2="8.34" y2="14.98" fill="currentColor" stroke="currentColor" stroke-width="1.2" stroke-linecap="round" stroke-linejoin="round" />
  <line x1="12.44" y1="16.51" x2="13.36" y2="16.51" fill="currentColor" stroke="currentColor" stroke-width="1.2" stroke-linecap="round" stroke-linejoin="round" />
  <line x1="13.95" y1="16.51" x2="14.75" y2="16.51" fill="currentColor" stroke="currentColor" stroke-width="1.2" stroke-linecap="round" stroke-linejoin="round" />
  <path d="M12.39,16.53 C12.40,16.51 12.42,16.51 12.44,16.51" fill="currentColor" stroke="currentColor" stroke-width="1.2" stroke-linecap="round" stroke-linejoin="round" />
  <path d="M14.75,16.51 C14.77,16.51 14.78,16.51 14.80,16.53" fill="currentColor" stroke="currentColor" stroke-width="1.2" stroke-linecap="round" stroke-linejoin="round" />
  <path d="M12.35,16.57 C12.36,16.55 12.37,16.54 12.39,16.53" fill="currentColor" stroke="currentColor" stroke-width="1.2" stroke-linecap="round" stroke-linejoin="round" />
  <path d="M14.80,16.53 C14.81,16.54 14.83,16.55 14.84,16.57" fill="currentColor" stroke="currentColor" stroke-width="1.2" stroke-linecap="round" stroke-linejoin="round" />
  <path d="M12.32,16.64 C12.33,16.61 12.34,16.59 12.35,16.57" fill="currentColor" stroke="currentColor" stroke-width="1.2" stroke-linecap="round" stroke-linejoin="round" />
  <path d="M14.84,16.57 C14.85,16.59 14.86,16.61 14.86,16.64" fill="currentColor" stroke="currentColor" stroke-width="1.2" stroke-linecap="round" stroke-linejoin="round" />
  <path d="M12.31,16.75 C12.31,16.71 12.32,16.67 12.32,16.64" fill="currentColor" stroke="currentColor" stroke-width="1.2" stroke-linecap="round" stroke-linejoin="round" />
  <path d="M14.86,16.64 C14.87,16.67 14.87,16.71 14.87,16.75" fill="currentColor" stroke="currentColor" stroke-width="1.2" stroke-linecap="round" stroke-linejoin="round" />
  <path d="M14.87,16.75 C14.87,16.79 14.87,16.83 14.86,16.86" fill="currentColor" stroke="currentColor" stroke-width="1.2" stroke-linecap="round" stroke-linejoin="round" />
  <path d="M12.32,16.86 C12.32,16.83 12.31,16.79 12.31,16.75" fill="currentColor" stroke="currentColor" stroke-width="1.2" stroke-linecap="round" stroke-linejoin="round" />
  <path d="M14.86,16.86 C14.85,16.89 14.84,16.91 14.83,16.93" fill="currentColor" stroke="currentColor" stroke-width="1.2" stroke-linecap="round" stroke-linejoin="round" />
  <path d="M12.35,16.93 C12.34,16.91 12.33,16.89 12.32,16.86" fill="currentColor" stroke="currentColor" stroke-width="1.2" stroke-linecap="round" stroke-linejoin="round" />
  <path d="M14.83,16.93 C14.82,16.95 14.81,16.96 14.79,16.97" fill="currentColor" stroke="currentColor" stroke-width="1.2" stroke-linecap="round" stroke-linejoin="round" />
  <path d="M12.39,16.97 C12.38,16.96 12.37,16.95 12.35,16.93" fill="currentColor" stroke="currentColor" stroke-width="1.2" stroke-linecap="round" stroke-linejoin="round" />
  <path d="M14.79,16.97 C14.78,16.98 14.76,16.98 14.75,16.98" fill="currentColor" stroke="currentColor" stroke-width="1.2" stroke-linecap="round" stroke-linejoin="round" />
  <path d="M12.44,16.98 C12.42,16.98 12.41,16.98 12.39,16.97" fill="currentColor" stroke="currentColor" stroke-width="1.2" stroke-linecap="round" stroke-linejoin="round" />
  <line x1="14.75" y1="16.98" x2="12.44" y2="16.98" fill="currentColor" stroke="currentColor" stroke-width="1.2" stroke-linecap="round" stroke-linejoin="round" />
  <line x1="63.05" y1="65.80" x2="93.62" y2="12.10" fill="none" stroke="currentColor" stroke-width="1.4000000476837158" stroke-linecap="round" stroke-linejoin="round" />
  <line x1="55.14" y1="49.26" x2="57.93" y2="49.26" fill="currentColor" stroke="currentColor" stroke-width="1.2" stroke-linecap="round" stroke-linejoin="round" />
  <path d="M55.06,49.29 C55.08,49.27 55.11,49.26 55.14,49.26" fill="currentColor" stroke="currentColor" stroke-width="1.2" stroke-linecap="round" stroke-linejoin="round" />
  <path d="M57.93,49.26 C58.00,49.26 58.05,49.28 58.07,49.31" fill="currentColor" stroke="currentColor" stroke-width="1.2" stroke-linecap="round" stroke-linejoin="round" />
  <path d="M54.98,49.36 C55.00,49.33 55.03,49.31 55.06,49.29" fill="currentColor" stroke="currentColor" stroke-width="1.2" stroke-linecap="round" stroke-linejoin="round" />
  <path d="M58.07,49.31 C58.10,49.35 58.11,49.39 58.11,49.45" fill="currentColor" stroke="currentColor" stroke-width="1.2" stroke-linecap="round" stroke-linejoin="round" />
  <path d="M54.93,49.47 C54.94,49.43 54.96,49.39 54.98,49.36" fill="currentColor" stroke="currentColor" stroke-width="1.2" stroke-linecap="round" stroke-linejoin="round" />
  <path d="M58.11,49.45 C58.11,49.47 58.11,49.49 58.11,49.53" fill="currentColor" stroke="currentColor" stroke-width="1.2" stroke-linecap="round" stroke-linejoin="round" />
  <path d="M54.89,49.60 C54.90,49.55 54.91,49.51 54.93,49.47" fill="currentColor" stroke="currentColor" stroke-width="1.2" stroke-linecap="round" stroke-linejoin="round" />
  <path d="M58.11,49.53 C58.11,49.56 58.10,49.60 58.09,49.63" fill="currentColor" stroke="currentColor" stroke-width="1.2" stroke-linecap="round" stroke-linejoin="round" />
  <path d="M54.87,49.72 C54.87,49.68 54.88,49.64 54.89,49.60" fill="currentColor" stroke="currentColor" stroke-width="1.2" stroke-linecap="round" stroke-linejoin="round" />
  <path d="M58.09,49.63 C58.09,49.67 58.08,49.71 58.07,49.75" fill="currentColor" stroke="currentColor" stroke-width="1.2" stroke-linecap="round" stroke-linejoin="round" />
  <path d="M54.86,49.82 C54.86,49.79 54.86,49.76 54.87,49.72" fill="currentColor" stroke="currentColor" stroke-width="1.2" stroke-linecap="round" stroke-linejoin="round" />
  <path d="M58.07,49.75 C58.06,49.78 58.06,49.81 58.05,49.84" fill="currentColor" stroke="currentColor" stroke-width="1.2" stroke-linecap="round" stroke-linejoin="round" />
  <path d="M54.89,49.97 C54.87,49.94 54.86,49.89 54.86,49.82" fill="currentColor" stroke="currentColor" stroke-width="1.2" stroke-linecap="round" stroke-linejoin="round" />
  <path d="M58.05,49.84 C58.03,49.92 58.00,49.99 57.95,50.06" fill="currentColor" stroke="currentColor" stroke-width="1.2" stroke-linecap="round" stroke-linejoin="round" />
  <path d="M55.00,50.01 C54.95,50.01 54.92,50.00 54.89,49.97" fill="currentColor" stroke="currentColor" stroke-width="1.2" stroke-linecap="round" stroke-linejoin="round" />
  <line x1="57.02" y1="50.01" x2="55.00" y2="50.01" fill="currentColor" stroke="currentColor" stroke-width="1.2" stroke-linecap="round" stroke-linejoin="round" />
  <path d="M57.95,50.06 C57.91,50.13 57.84,50.21 57.77,50.31" fill="currentColor" stroke="currentColor" stroke-width="1.2" stroke-linecap="round" stroke-linejoin="round" />
  <line x1="54.27" y1="53.33" x2="57.02" y2="50.01" fill="currentColor" stroke="currentColor" stroke-width="1.2" stroke-linecap="round" stroke-linejoin="round" />
  <line x1="57.77" y1="50.31" x2="55.03" y2="53.63" fill="currentColor" stroke="currentColor" stroke-width="1.2" stroke-linecap="round" stroke-linejoin="round" />
  <path d="M54.15,53.48 C54.18,53.44 54.22,53.39 54.27,53.33" fill="currentColor" stroke="currentColor" stroke-width="1.2" stroke-linecap="round" stroke-linejoin="round" />
  <path d="M54.07,53.59 C54.09,53.56 54.12,53.52 54.15,53.48" fill="currentColor" stroke="currentColor" stroke-width="1.2" stroke-linecap="round" stroke-linejoin="round" />
  <line x1="55.03" y1="53.63" x2="57.25" y2="53.63" fill="currentColor" stroke="currentColor" stroke-width="1.2" stroke-linecap="round" stroke-linejoin="round" />
  <path d="M54.02,53.67 C54.03,53.65 54.05,53.62 54.07,53.59" fill="currentColor" stroke="currentColor" stroke-width="1.2" stroke-linecap="round" stroke-linejoin="round" />
  <path d="M57.25,53.63 C57.29,53.63 57.32,53.64 57.35,53.67" fill="currentColor" stroke="currentColor" stroke-width="1.2" stroke-linecap="round" stroke-linejoin="round" />
  <path d="M53.99,53.75 C54.00,53.72 54.01,53.69 54.02,53.67" fill="currentColor" stroke="currentColor" stroke-width="1.2" stroke-linecap="round" stroke-linejoin="round" />
  <path d="M57.35,53.67 C57.37,53.71 57.38,53.75 57.38,53.81" fill="currentColor" stroke="currentColor" stroke-width="1.2" stroke-linecap="round" stroke-linejoin="round" />
  <path d="M53.97,53.83 C53.98,53.79 53.99,53.77 53.99,53.75" fill="currentColor" stroke="currentColor" stroke-width="1.2" stroke-linecap="round" stroke-linejoin="round" />
  <path d="M57.38,53.81 C57.38,53.84 57.38,53.88 57.37,53.92" fill="currentColor" stroke="currentColor" stroke-width="1.2" stroke-linecap="round" stroke-linejoin="round" />
  <path d="M53.95,53.95 C53.95,53.90 53.96,53.87 53.97,53.83" fill="currentColor" stroke="currentColor" stroke-width="1.2" stroke-linecap="round" stroke-linejoin="round" />
  <path d="M57.37,53.92 C57.37,53.96 57.36,53.99 57.35,54.03" fill="currentColor" stroke="currentColor" stroke-width="1.2" stroke-linecap="round" stroke-linejoin="round" />
  <path d="M53.93,54.07 C53.93,54.03 53.94,53.99 53.95,53.95" fill="currentColor" stroke="currentColor" stroke-width="1.2" stroke-linecap="round" stroke-linejoin="round" />
  <path d="M57.35,54.03 C57.34,54.07 57.33,54.11 57.31,54.15" fill="currentColor" stroke="currentColor" stroke-width="1.2" stroke-linecap="round" stroke-linejoin="round" />
  <path d="M53.91,54.16 C53.91,54.14 53.92,54.11 53.93,54.07" fill="currentColor" stroke="currentColor" stroke-width="1.2" stroke-linecap="round" stroke-linejoin="round" />
  <path d="M57.31,54.15 C57.30,54.20 57.28,54.23 57.26,54.27" fill="currentColor" stroke="currentColor" stroke-width="1.2" stroke-linecap="round" stroke-linejoin="round" />
  <path d="M53.96,54.32 C53.93,54.28 53.91,54.23 53.91,54.16" fill="currentColor" stroke="currentColor" stroke-width="1.2" stroke-linecap="round" stroke-linejoin="round" />
  <path d="M57.26,54.27 C57.24,54.30 57.22,54.32 57.19,54.34" fill="currentColor" stroke="currentColor" stroke-width="1.2" stroke-linecap="round" stroke-linejoin="round" />
  <path d="M54.11,54.37 C54.05,54.37 53.99,54.35 53.96,54.32" fill="currentColor" stroke="currentColor" stroke-width="1.2" stroke-linecap="round" stroke-linejoin="round" />
  <path d="M57.19,54.34 C57.17,54.36 57.14,54.37 57.10,54.37" fill="currentColor" stroke="currentColor" stroke-width="1.2" stroke-linecap="round" stroke-linejoin="round" />
  <line x1="57.10" y1="54.37" x2="54.11" y2="54.37" fill="currentColor" stroke="currentColor" stroke-width="1.2" stroke-linecap="round" stroke-linejoin="round" />
  <path d="M78.39,54.84 C78.49,54.84 78.57,54.84 78.63,54.85" fill="currentColor" stroke="currentColor" stroke-width="1.2" stroke-linecap="round" stroke-linejoin="round" />
  <path d="M81.38,54.85 C81.44,54.84 81.52,54.84 81.61,54.84" fill="currentColor" stroke="currentColor" stroke-width="1.2" stroke-linecap="round" stroke-linejoin="round" />
  <path d="M78.12,54.85 C78.19,54.84 78.28,54.84 78.39,54.84" fill="currentColor" stroke="currentColor" stroke-width="1.2" stroke-linecap="round" stroke-linejoin="round" />
  <path d="M81.61,54.84 C81.72,54.84 81.81,54.84 81.88,54.85" fill="currentColor" stroke="currentColor" stroke-width="1.2" stroke-linecap="round" stroke-linejoin="round" />
  <path d="M78.63,54.85 C78.68,54.85 78.73,54.86 78.76,54.87" fill="currentColor" stroke="currentColor" stroke-width="1.2" stroke-linecap="round" stroke-linejoin="round" />
  <path d="M81.23,54.88 C81.27,54.86 81.32,54.85 81.38,54.85" fill="currentColor" stroke="currentColor" stroke-width="1.2" stroke-linecap="round" stroke-linejoin="round" />
  <path d="M81.88,54.85 C81.94,54.86 81.99,54.87 82.03,54.89" fill="currentColor" stroke="currentColor" stroke-width="1.2" stroke-linecap="round" stroke-linejoin="round" />
  <path d="M77.97,54.89 C78.00,54.87 78.05,54.86 78.12,54.85" fill="currentColor" stroke="currentColor" stroke-width="1.2" stroke-linecap="round" stroke-linejoin="round" />
  <path d="M78.76,54.87 C78.79,54.88 78.81,54.90 78.82,54.92" fill="currentColor" stroke="currentColor" stroke-width="1.2" stroke-linecap="round" stroke-linejoin="round" />
  <path d="M81.14,54.92 C81.16,54.90 81.19,54.89 81.23,54.88" fill="currentColor" stroke="currentColor" stroke-width="1.2" stroke-linecap="round" stroke-linejoin="round" />
  <path d="M82.03,54.89 C82.06,54.91 82.07,54.93 82.07,54.97" fill="currentColor" stroke="currentColor" stroke-width="1.2" stroke-linecap="round" stroke-linejoin="round" />
  <path d="M77.91,54.98 C77.92,54.94 77.93,54.92 77.97,54.89" fill="currentColor" stroke="currentColor" stroke-width="1.2" stroke-linecap="round" stroke-linejoin="round" />
  <path d="M78.82,54.92 C78.83,54.93 78.85,54.96 78.86,54.98" fill="currentColor" stroke="currentColor" stroke-width="1.2" stroke-linecap="round" stroke-linejoin="round" />
  <path d="M81.08,54.98 C81.10,54.96 81.12,54.94 81.14,54.92" fill="currentColor" stroke="currentColor" stroke-width="1.2" stroke-linecap="round" stroke-linejoin="round" />
  <path d="M82.07,54.97 C82.06,55.00 82.03,55.04 81.99,55.09" fill="currentColor" stroke="currentColor" stroke-width="1.2" stroke-linecap="round" stroke-linejoin="round" />
  <path d="M77.94,55.10 C77.92,55.05 77.91,55.01 77.91,54.98" fill="currentColor" stroke="currentColor" stroke-width="1.2" stroke-linecap="round" stroke-linejoin="round" />
  <line x1="78.86" y1="54.98" x2="79.63" y2="56.79" fill="currentColor" stroke="currentColor" stroke-width="1.2" stroke-linecap="round" stroke-linejoin="round" />
  <line x1="79.63" y1="56.79" x2="81.08" y2="54.98" fill="currentColor" stroke="currentColor" stroke-width="1.2" stroke-linecap="round" stroke-linejoin="round" />
  <line x1="78.93" y1="57.36" x2="77.94" y2="55.10" fill="currentColor" stroke="currentColor" stroke-width="1.2" stroke-linecap="round" stroke-linejoin="round" />
  <line x1="81.99" y1="55.09" x2="80.10" y2="57.38" fill="currentColor" stroke="currentColor" stroke-width="1.2" stroke-linecap="round" stroke-linejoin="round" />
  <path d="M63.09,55.86 C64.88,55.86 66.55,56.32 67.99,57.14" fill="none" stroke="currentColor" stroke-width="1.000000011920929" stroke-linecap="round" stroke-linejoin="round" />
  <line x1="76.92" y1="59.74" x2="78.93" y2="57.36" fill="currentColor" stroke="currentColor" stroke-width="1.2" stroke-linecap="round" stroke-linejoin="round" />
  <line x1="80.10" y1="57.38" x2="81.16" y2="59.74" fill="currentColor" stroke="currentColor" stroke-width="1.2" stroke-linecap="round" stroke-linejoin="round" />
  <line x1="80.21" y1="59.86" x2="79.40" y2="57.95" fill="currentColor" stroke="currentColor" stroke-width="1.2" stroke-linecap="round" stroke-linejoin="round" />
  <line x1="79.40" y1="57.95" x2="77.88" y2="59.86" fill="currentColor" stroke="currentColor" stroke-width="1.2" stroke-linecap="round" stroke-linejoin="round" />
  <path d="M69.76,54.01 C73.65,56.22 76.37,60.30 76.62,65.09" fill="none" stroke="currentColor" stroke-width="1.000000011920929" stroke-linecap="round" stroke-linejoin="round" />
  <path d="M81.16,59.74 C81.18,59.79 81.19,59.83 81.18,59.87" fill="currentColor" stroke="currentColor" stroke-width="1.2" stroke-linecap="round" stroke-linejoin="round" />
  <path d="M76.86,59.87 C76.87,59.84 76.89,59.79 76.92,59.74" fill="currentColor" stroke="currentColor" stroke-width="1.2" stroke-linecap="round" stroke-linejoin="round" />
  <path d="M80.24,59.92 C80.23,59.90 80.22,59.88 80.21,59.86" fill="currentColor" stroke="currentColor" stroke-width="1.2" stroke-linecap="round" stroke-linejoin="round" />
  <path d="M77.88,59.86 C77.86,59.88 77.84,59.90 77.82,59.92" fill="currentColor" stroke="currentColor" stroke-width="1.2" stroke-linecap="round" stroke-linejoin="round" />
  <path d="M81.18,59.87 C81.17,59.90 81.15,59.93 81.11,59.95" fill="currentColor" stroke="currentColor" stroke-width="1.2" stroke-linecap="round" stroke-linejoin="round" />
  <path d="M76.90,59.95 C76.87,59.93 76.86,59.90 76.86,59.87" fill="currentColor" stroke="currentColor" stroke-width="1.2" stroke-linecap="round" stroke-linejoin="round" />
  <path d="M77.82,59.92 C77.79,59.94 77.76,59.96 77.72,59.97" fill="currentColor" stroke="currentColor" stroke-width="1.2" stroke-linecap="round" stroke-linejoin="round" />
  <path d="M80.31,59.97 C80.27,59.96 80.25,59.94 80.24,59.92" fill="currentColor" stroke="currentColor" stroke-width="1.2" stroke-linecap="round" stroke-linejoin="round" />
  <path d="M81.11,59.95 C81.07,59.97 81.02,59.99 80.95,59.99" fill="currentColor" stroke="currentColor" stroke-width="1.2" stroke-linecap="round" stroke-linejoin="round" />
  <path d="M77.04,59.99 C76.98,59.99 76.93,59.97 76.90,59.95" fill="currentColor" stroke="currentColor" stroke-width="1.2" stroke-linecap="round" stroke-linejoin="round" />
  <path d="M77.72,59.97 C77.68,59.98 77.62,59.99 77.55,60.00" fill="currentColor" stroke="currentColor" stroke-width="1.2" stroke-linecap="round" stroke-linejoin="round" />
  <path d="M80.44,60.00 C80.38,59.99 80.34,59.99 80.31,59.97" fill="currentColor" stroke="currentColor" stroke-width="1.2" stroke-linecap="round" stroke-linejoin="round" />
  <path d="M80.95,59.99 C80.88,60.00 80.79,60.01 80.68,60.01" fill="currentColor" stroke="currentColor" stroke-width="1.2" stroke-linecap="round" stroke-linejoin="round" />
  <path d="M77.29,60.01 C77.19,60.01 77.11,60.00 77.04,59.99" fill="currentColor" stroke="currentColor" stroke-width="1.2" stroke-linecap="round" stroke-linejoin="round" />
  <path d="M77.55,60.00 C77.49,60.00 77.40,60.01 77.29,60.01" fill="currentColor" stroke="currentColor" stroke-width="1.2" stroke-linecap="round" stroke-linejoin="round" />
  <path d="M80.68,60.01 C80.58,60.01 80.50,60.01 80.44,60.00" fill="currentColor" stroke="currentColor" stroke-width="1.2" stroke-linecap="round" stroke-linejoin="round" />
  <path d="M53.14,65.81 C53.14,60.31 57.60,55.86 63.09,55.86" fill="none" stroke="currentColor" stroke-width="1.000000011920929" stroke-linecap="round" stroke-linejoin="round" />
  <path d="M9.48,62.46 C9.54,62.45 9.62,62.44 9.70,62.44" fill="currentColor" stroke="currentColor" stroke-width="1.2" stroke-linecap="round" stroke-linejoin="round" />
  <path d="M9.70,62.44 C9.79,62.44 9.87,62.45 9.93,62.46" fill="currentColor" stroke="currentColor" stroke-width="1.2" stroke-linecap="round" stroke-linejoin="round" />
  <path d="M9.34,62.49 C9.37,62.48 9.42,62.47 9.48,62.46" fill="currentColor" stroke="currentColor" stroke-width="1.2" stroke-linecap="round" stroke-linejoin="round" />
  <path d="M9.93,62.46 C9.98,62.47 10.03,62.48 10.07,62.49" fill="currentColor" stroke="currentColor" stroke-width="1.2" stroke-linecap="round" stroke-linejoin="round" />
  <path d="M9.26,62.54 C9.28,62.52 9.30,62.50 9.34,62.49" fill="currentColor" stroke="currentColor" stroke-width="1.2" stroke-linecap="round" stroke-linejoin="round" />
  <path d="M10.07,62.49 C10.10,62.50 10.13,62.52 10.14,62.54" fill="currentColor" stroke="currentColor" stroke-width="1.2" stroke-linecap="round" stroke-linejoin="round" />
  <path d="M9.24,62.62 C9.24,62.59 9.25,62.56 9.26,62.54" fill="currentColor" stroke="currentColor" stroke-width="1.2" stroke-linecap="round" stroke-linejoin="round" />
  <path d="M10.14,62.54 C10.16,62.56 10.16,62.59 10.16,62.62" fill="currentColor" stroke="currentColor" stroke-width="1.2" stroke-linecap="round" stroke-linejoin="round" />
  <path d="M76.62,65.09 C76.64,65.33 76.64,65.58 76.64,65.82" fill="none" stroke="currentColor" stroke-width="1.000000011920929" stroke-linecap="round" stroke-linejoin="round" />
  <line x1="10.16" y1="62.62" x2="10.16" y2="68.63" fill="currentColor" stroke="currentColor" stroke-width="1.2" stroke-linecap="round" stroke-linejoin="round" />
  <line x1="9.24" y1="69.05" x2="9.24" y2="62.62" fill="currentColor" stroke="currentColor" stroke-width="1.2" stroke-linecap="round" stroke-linejoin="round" />
  <path d="M14.24,66.98 C14.36,66.95 14.49,66.94 14.62,66.94" fill="currentColor" stroke="currentColor" stroke-width="1.2" stroke-linecap="round" stroke-linejoin="round" />
  <path d="M14.62,66.94 C14.83,66.94 15.02,66.97 15.18,67.03" fill="currentColor" stroke="currentColor" stroke-width="1.2" stroke-linecap="round" stroke-linejoin="round" />
  <path d="M13.90,67.08 C14.00,67.04 14.11,67.01 14.24,66.98" fill="currentColor" stroke="currentColor" stroke-width="1.2" stroke-linecap="round" stroke-linejoin="round" />
  <path d="M13.65,67.20 C13.71,67.16 13.80,67.12 13.90,67.08" fill="currentColor" stroke="currentColor" stroke-width="1.2" stroke-linecap="round" stroke-linejoin="round" />
  <path d="M15.18,67.03 C15.34,67.09 15.48,67.17 15.58,67.28" fill="currentColor" stroke="currentColor" stroke-width="1.2" stroke-linecap="round" stroke-linejoin="round" />
  <path d="M13.51,67.30 C13.53,67.28 13.58,67.24 13.65,67.20" fill="currentColor" stroke="currentColor" stroke-width="1.2" stroke-linecap="round" stroke-linejoin="round" />
  <path d="M13.45,67.36 C13.46,67.34 13.48,67.32 13.51,67.30" fill="currentColor" stroke="currentColor" stroke-width="1.2" stroke-linecap="round" stroke-linejoin="round" />
  <path d="M13.43,67.41 C13.43,67.39 13.44,67.37 13.45,67.36" fill="currentColor" stroke="currentColor" stroke-width="1.2" stroke-linecap="round" stroke-linejoin="round" />
  <path d="M13.42,67.48 C13.42,67.45 13.42,67.43 13.43,67.41" fill="currentColor" stroke="currentColor" stroke-width="1.2" stroke-linecap="round" stroke-linejoin="round" />
  <path d="M15.58,67.28 C15.69,67.38 15.77,67.50 15.82,67.64" fill="currentColor" stroke="currentColor" stroke-width="1.2" stroke-linecap="round" stroke-linejoin="round" />
  <path d="M14.82,67.52 C14.73,67.48 14.63,67.46 14.51,67.46" fill="currentColor" stroke="currentColor" stroke-width="1.2" stroke-linecap="round" stroke-linejoin="round" />
  <path d="M14.51,67.46 C14.37,67.46 14.25,67.48 14.14,67.52" fill="currentColor" stroke="currentColor" stroke-width="1.2" stroke-linecap="round" stroke-linejoin="round" />
  <path d="M13.41,67.56 C13.41,67.53 13.41,67.50 13.42,67.48" fill="currentColor" stroke="currentColor" stroke-width="1.2" stroke-linecap="round" stroke-linejoin="round" />
  <path d="M14.14,67.52 C14.03,67.55 13.93,67.60 13.85,67.64" fill="currentColor" stroke="currentColor" stroke-width="1.2" stroke-linecap="round" stroke-linejoin="round" />
  <path d="M15.05,67.67 C14.99,67.61 14.92,67.55 14.82,67.52" fill="currentColor" stroke="currentColor" stroke-width="1.2" stroke-linecap="round" stroke-linejoin="round" />
  <path d="M13.42,67.69 C13.42,67.65 13.41,67.61 13.41,67.56" fill="currentColor" stroke="currentColor" stroke-width="1.2" stroke-linecap="round" stroke-linejoin="round" />
  <path d="M13.85,67.64 C13.76,67.69 13.69,67.73 13.64,67.77" fill="currentColor" stroke="currentColor" stroke-width="1.2" stroke-linecap="round" stroke-linejoin="round" />
  <path d="M13.44,67.77 C13.43,67.75 13.42,67.72 13.42,67.69" fill="currentColor" stroke="currentColor" stroke-width="1.2" stroke-linecap="round" stroke-linejoin="round" />
  <path d="M15.19,67.90 C15.16,67.82 15.11,67.74 15.05,67.67" fill="currentColor" stroke="currentColor" stroke-width="1.2" stroke-linecap="round" stroke-linejoin="round" />
  <path d="M13.47,67.81 C13.46,67.80 13.45,67.79 13.44,67.77" fill="currentColor" stroke="currentColor" stroke-width="1.2" stroke-linecap="round" stroke-linejoin="round" />
  <path d="M13.64,67.77 C13.58,67.81 13.54,67.83 13.51,67.83" fill="currentColor" stroke="currentColor" stroke-width="1.2" stroke-linecap="round" stroke-linejoin="round" />
  <path d="M13.51,67.83 C13.50,67.83 13.48,67.82 13.47,67.81" fill="currentColor" stroke="currentColor" stroke-width="1.2" stroke-linecap="round" stroke-linejoin="round" />
  <path d="M15.82,67.64 C15.87,67.78 15.90,67.93 15.90,68.09" fill="currentColor" stroke="currentColor" stroke-width="1.2" stroke-linecap="round" stroke-linejoin="round" />
  <path d="M15.24,68.18 C15.24,68.08 15.22,67.99 15.19,67.90" fill="currentColor" stroke="currentColor" stroke-width="1.2" stroke-linecap="round" stroke-linejoin="round" />
  <path d="M15.90,68.09 C15.90,68.23 15.89,68.37 15.86,68.51" fill="currentColor" stroke="currentColor" stroke-width="1.2" stroke-linecap="round" stroke-linejoin="round" />
  <path d="M15.21,68.50 C15.23,68.39 15.24,68.28 15.24,68.18" fill="currentColor" stroke="currentColor" stroke-width="1.2" stroke-linecap="round" stroke-linejoin="round" />
  <line x1="10.16" y1="68.63" x2="12.66" y2="68.63" fill="currentColor" stroke="currentColor" stroke-width="1.2" stroke-linecap="round" stroke-linejoin="round" />
  <path d="M12.66,68.63 C12.69,68.63 12.72,68.63 12.74,68.65" fill="currentColor" stroke="currentColor" stroke-width="1.2" stroke-linecap="round" stroke-linejoin="round" />
  <path d="M15.08,68.87 C15.14,68.73 15.19,68.61 15.21,68.50" fill="currentColor" stroke="currentColor" stroke-width="1.2" stroke-linecap="round" stroke-linejoin="round" />
  <path d="M12.74,68.65 C12.76,68.67 12.78,68.69 12.80,68.72" fill="currentColor" stroke="currentColor" stroke-width="1.2" stroke-linecap="round" stroke-linejoin="round" />
  <path d="M15.86,68.51 C15.84,68.65 15.78,68.80 15.70,68.96" fill="currentColor" stroke="currentColor" stroke-width="1.2" stroke-linecap="round" stroke-linejoin="round" />
  <path d="M12.80,68.72 C12.81,68.75 12.83,68.79 12.83,68.84" fill="currentColor" stroke="currentColor" stroke-width="1.2" stroke-linecap="round" stroke-linejoin="round" />
  <path d="M12.83,68.84 C12.84,68.89 12.84,68.95 12.84,69.02" fill="currentColor" stroke="currentColor" stroke-width="1.2" stroke-linecap="round" stroke-linejoin="round" />
  <path d="M14.80,69.32 C14.92,69.16 15.01,69.01 15.08,68.87" fill="currentColor" stroke="currentColor" stroke-width="1.2" stroke-linecap="round" stroke-linejoin="round" />
  <path d="M12.84,69.02 C12.84,69.10 12.84,69.16 12.83,69.20" fill="currentColor" stroke="currentColor" stroke-width="1.2" stroke-linecap="round" stroke-linejoin="round" />
  <path d="M9.35,69.34 C9.28,69.29 9.24,69.19 9.24,69.05" fill="currentColor" stroke="currentColor" stroke-width="1.2" stroke-linecap="round" stroke-linejoin="round" />
  <path d="M15.70,68.96 C15.62,69.13 15.50,69.31 15.35,69.51" fill="currentColor" stroke="currentColor" stroke-width="1.2" stroke-linecap="round" stroke-linejoin="round" />
  <path d="M12.83,69.20 C12.83,69.25 12.81,69.29 12.80,69.33" fill="currentColor" stroke="currentColor" stroke-width="1.2" stroke-linecap="round" stroke-linejoin="round" />
  <path d="M12.80,69.33 C12.78,69.36 12.76,69.39 12.74,69.40" fill="currentColor" stroke="currentColor" stroke-width="1.2" stroke-linecap="round" stroke-linejoin="round" />
  <path d="M9.58,69.43 C9.50,69.43 9.42,69.40 9.35,69.34" fill="currentColor" stroke="currentColor" stroke-width="1.2" stroke-linecap="round" stroke-linejoin="round" />
  <path d="M12.74,69.40 C12.72,69.42 12.69,69.43 12.66,69.43" fill="currentColor" stroke="currentColor" stroke-width="1.2" stroke-linecap="round" stroke-linejoin="round" />
  <line x1="12.66" y1="69.43" x2="9.58" y2="69.43" fill="currentColor" stroke="currentColor" stroke-width="1.2" stroke-linecap="round" stroke-linejoin="round" />
  <path d="M14.33,69.89 C14.52,69.68 14.68,69.49 14.80,69.32" fill="currentColor" stroke="currentColor" stroke-width="1.2" stroke-linecap="round" stroke-linejoin="round" />
  <path d="M15.35,69.51 C15.20,69.71 15.00,69.94 14.74,70.20" fill="currentColor" stroke="currentColor" stroke-width="1.2" stroke-linecap="round" stroke-linejoin="round" />
  <line x1="13.47" y1="70.80" x2="14.33" y2="69.89" fill="currentColor" stroke="currentColor" stroke-width="1.2" stroke-linecap="round" stroke-linejoin="round" />
  <line x1="14.74" y1="70.20" x2="14.04" y2="70.93" fill="currentColor" stroke="currentColor" stroke-width="1.2" stroke-linecap="round" stroke-linejoin="round" />
  <path d="M13.40,70.88 C13.42,70.86 13.44,70.83 13.47,70.80" fill="currentColor" stroke="currentColor" stroke-width="1.2" stroke-linecap="round" stroke-linejoin="round" />
  <path d="M13.36,70.96 C13.37,70.93 13.38,70.91 13.40,70.88" fill="currentColor" stroke="currentColor" stroke-width="1.2" stroke-linecap="round" stroke-linejoin="round" />
  <line x1="14.04" y1="70.93" x2="15.97" y2="70.93" fill="currentColor" stroke="currentColor" stroke-width="1.2" stroke-linecap="round" stroke-linejoin="round" />
  <path d="M15.97,70.93 C15.98,70.93 16.00,70.93 16.02,70.94" fill="currentColor" stroke="currentColor" stroke-width="1.2" stroke-linecap="round" stroke-linejoin="round" />
  <path d="M16.02,70.94 C16.04,70.95 16.05,70.97 16.06,70.99" fill="currentColor" stroke="currentColor" stroke-width="1.2" stroke-linecap="round" stroke-linejoin="round" />
  <path d="M13.34,71.05 C13.34,71.02 13.35,70.99 13.36,70.96" fill="currentColor" stroke="currentColor" stroke-width="1.2" stroke-linecap="round" stroke-linejoin="round" />
  <path d="M16.06,70.99 C16.08,71.01 16.09,71.04 16.09,71.07" fill="currentColor" stroke="currentColor" stroke-width="1.2" stroke-linecap="round" stroke-linejoin="round" />
  <path d="M13.33,71.17 C13.33,71.12 13.33,71.08 13.34,71.05" fill="currentColor" stroke="currentColor" stroke-width="1.2" stroke-linecap="round" stroke-linejoin="round" />
  <path d="M16.09,71.07 C16.10,71.10 16.10,71.13 16.10,71.17" fill="currentColor" stroke="currentColor" stroke-width="1.2" stroke-linecap="round" stroke-linejoin="round" />
  <path d="M16.10,71.17 C16.10,71.21 16.10,71.25 16.09,71.28" fill="currentColor" stroke="currentColor" stroke-width="1.2" stroke-linecap="round" stroke-linejoin="round" />
  <path d="M13.34,71.30 C13.34,71.26 13.33,71.22 13.33,71.17" fill="currentColor" stroke="currentColor" stroke-width="1.2" stroke-linecap="round" stroke-linejoin="round" />
  <path d="M16.09,71.28 C16.09,71.31 16.08,71.34 16.07,71.36" fill="currentColor" stroke="currentColor" stroke-width="1.2" stroke-linecap="round" stroke-linejoin="round" />
  <path d="M13.38,71.38 C13.36,71.36 13.35,71.33 13.34,71.30" fill="currentColor" stroke="currentColor" stroke-width="1.2" stroke-linecap="round" stroke-linejoin="round" />
  <path d="M16.07,71.36 C16.06,71.38 16.04,71.40 16.03,71.41" fill="currentColor" stroke="currentColor" stroke-width="1.2" stroke-linecap="round" stroke-linejoin="round" />
  <path d="M13.44,71.41 C13.42,71.41 13.40,71.39 13.38,71.38" fill="currentColor" stroke="currentColor" stroke-width="1.2" stroke-linecap="round" stroke-linejoin="round" />
  <path d="M16.03,71.41 C16.01,71.42 15.99,71.43 15.97,71.43" fill="currentColor" stroke="currentColor" stroke-width="1.2" stroke-linecap="round" stroke-linejoin="round" />
  <path d="M13.53,71.43 C13.49,71.43 13.47,71.42 13.44,71.41" fill="currentColor" stroke="currentColor" stroke-width="1.2" stroke-linecap="round" stroke-linejoin="round" />
  <line x1="15.97" y1="71.43" x2="13.53" y2="71.43" fill="currentColor" stroke="currentColor" stroke-width="1.2" stroke-linecap="round" stroke-linejoin="round" />
</svg>