<svg xmlns="http://www.w3.org/2000/svg" viewBox="0 0 284.30 187.24" preserveAspectRatio="xMidYMid meet" shape-rendering="geometricPrecision" text-rendering="optimizeLegibility">
  <path d="M259.33,135.31H264.58V151.07H259.33Z" fill="currentColor" fill-opacity="0.507" stroke="currentColor" stroke-width="1.2" stroke-linejoin="round" />
  <path d="M229.95,73.40H235.20V151.07H229.95Z" fill="currentColor" fill-opacity="0.507" stroke="currentColor" stroke-width="1.2" stroke-linejoin="round" />
  <path d="M200.42,119.84H205.66V151.07H200.42Z" fill="currentColor" fill-opacity="0.507" stroke="currentColor" stroke-width="1.2" stroke-linejoin="round" />
  <path d="M170.88,42.44H176.13V151.07H170.88Z" fill="currentColor" fill-opacity="0.507" stroke="currentColor" stroke-width="1.2" stroke-linejoin="round" />
  <path d="M141.50,26.98H146.75V151.07H141.50Z" fill="currentColor" fill-opacity="0.507" stroke="currentColor" stroke-width="1.2" stroke-linejoin="round" />
  <path d="M52.87,135.28H58.12V151.07H52.87Z" fill="currentColor" fill-opacity="0.507" stroke="currentColor" stroke-width="1.2" stroke-linejoin="round" />
  <path d="M82.42,119.76H87.67V151.07H82.42Z" fill="currentColor" fill-opacity="0.507" stroke="currentColor" stroke-width="1.2" stroke-linejoin="round" />
  <path d="M112.12,104.35H117.37V151.07H112.12Z" fill="currentColor" fill-opacity="0.507" stroke="currentColor" stroke-width="1.2" stroke-linejoin="round" />
  <path d="M41.21,135.33H276.30V135.96H41.21ZM41.21,119.87H276.30V120.49H41.21ZM41.21,104.38H276.30V105.00H41.21ZM41.21,88.92H276.30V89.54H41.21ZM41.21,73.43H276.30V74.05H41.21ZM41.21,57.96H276.30V58.58H41.21ZM41.21,42.47H276.30V43.09H41.21ZM41.21,27.01H276.30V27.63H41.21ZM41.21,11.52H276.30V12.14H41.21Z" fill="currentColor" stroke="currentColor" stroke-width="1.2" stroke-linejoin="round" />
  <path d="M40.54,9.24H41.88V151.11H40.54Z" fill="currentColor" stroke="currentColor" stroke-width="1.2" stroke-linejoin="round" />
  <path d="M32.78,150.78C32.78,150.25 32.73,149.77 32.62,149.35C32.52,148.92 32.37,148.55 32.17,148.24C31.98,147.93 31.75,147.70 31.48,147.53C31.21,147.36 30.91,147.28 30.58,147.28C30.25,147.28 29.95,147.36 29.68,147.53C29.41,147.70 29.18,147.93 28.98,148.24C28.79,148.55 28.64,148.92 28.54,149.35C28.43,149.77 28.38,150.25 28.38,150.78C28.38,151.30 28.43,151.78 28.54,152.21C28.64,152.64 28.79,153.01 28.98,153.32C29.18,153.62 29.41,153.86 29.68,154.03C29.95,154.19 30.25,154.28 30.58,154.28C30.91,154.28 31.21,154.19 31.48,154.03C31.75,153.86 31.98,153.62 32.17,153.32C32.37,153.01 32.52,152.64 32.62,152.21C32.73,151.78 32.78,151.30 32.78,150.78ZM31.80,150.78C31.80,151.31 31.75,151.77 31.65,152.16C31.56,152.54 31.42,152.83 31.23,153.04C31.05,153.24 30.83,153.35 30.58,153.35C30.33,153.35 30.11,153.24 29.92,153.04C29.74,152.83 29.60,152.54 29.51,152.16C29.41,151.77 29.36,151.31 29.36,150.78C29.36,150.24 29.41,149.78 29.51,149.40C29.60,149.02 29.74,148.72 29.92,148.52C30.11,148.32 30.33,148.21 30.58,148.21C30.83,148.21 31.05,148.32 31.23,148.52C31.42,148.72 31.56,149.02 31.65,149.40C31.75,149.78 31.80,150.24 31.80,150.78Z" fill="currentColor" stroke="currentColor" stroke-width="1.2" stroke-linejoin="round" />
  <path d="M31.36,138.70L31.36,131.79L30.99,131.79L28.66,133.69L29.04,134.54L30.34,133.47L30.34,138.70L31.36,138.70Z" fill="currentColor" stroke="currentColor" stroke-width="1.2" stroke-linejoin="round" />
  <path d="M32.74,122.30L30.13,122.30C30.51,121.85 30.83,121.45 31.10,121.09C31.37,120.74 31.59,120.41 31.76,120.12C31.93,119.82 32.05,119.54 32.13,119.27C32.21,119.00 32.25,118.73 32.25,118.45C32.25,118.03 32.16,117.66 31.98,117.34C31.81,117.02 31.57,116.78 31.26,116.60C30.95,116.42 30.58,116.33 30.17,116.32C29.90,116.32 29.63,116.38 29.37,116.48C29.10,116.59 28.83,116.75 28.56,116.97L28.56,118.20C28.74,117.97 28.92,117.79 29.10,117.65C29.27,117.52 29.44,117.42 29.61,117.37C29.77,117.31 29.94,117.28 30.10,117.28C30.33,117.29 30.53,117.34 30.70,117.45C30.88,117.56 31.02,117.71 31.12,117.90C31.22,118.09 31.27,118.31 31.27,118.56C31.27,118.75 31.25,118.92 31.22,119.07C31.18,119.23 31.13,119.38 31.06,119.53C30.99,119.68 30.90,119.84 30.79,120.02C30.64,120.27 30.47,120.53 30.28,120.80C30.09,121.08 29.89,121.35 29.67,121.62C29.46,121.90 29.24,122.17 29.03,122.43C28.81,122.69 28.61,122.93 28.42,123.16L28.42,123.23L32.74,123.23L32.74,122.30Z" fill="currentColor" stroke="currentColor" stroke-width="1.2" stroke-linejoin="round" />
  <path d="M28.89,102.05C29.04,101.98 29.19,101.93 29.32,101.89C29.45,101.84 29.57,101.81 29.69,101.79C29.81,101.77 29.93,101.77 30.05,101.77C30.29,101.77 30.50,101.81 30.67,101.89C30.85,101.97 30.99,102.09 31.08,102.24C31.18,102.39 31.23,102.57 31.23,102.78C31.23,103.10 31.12,103.34 30.89,103.51C30.67,103.68 30.33,103.77 29.88,103.77L29.88,104.67C30.20,104.66 30.47,104.70 30.69,104.80C30.90,104.90 31.07,105.03 31.18,105.21C31.28,105.39 31.34,105.59 31.34,105.82C31.34,106.04 31.29,106.23 31.20,106.39C31.11,106.55 30.99,106.68 30.82,106.77C30.66,106.86 30.46,106.90 30.24,106.90C29.99,106.90 29.74,106.86 29.49,106.78C29.23,106.69 28.98,106.56 28.72,106.38L28.72,107.44C28.96,107.57 29.21,107.67 29.45,107.73C29.69,107.80 29.93,107.83 30.17,107.83C30.59,107.83 30.96,107.74 31.29,107.57C31.61,107.40 31.86,107.15 32.04,106.84C32.22,106.53 32.31,106.17 32.32,105.77C32.32,105.53 32.28,105.30 32.21,105.08C32.15,104.86 32.04,104.67 31.89,104.50C31.75,104.34 31.56,104.22 31.34,104.15C31.54,104.03 31.71,103.91 31.84,103.77C31.97,103.62 32.06,103.46 32.12,103.27C32.18,103.09 32.21,102.87 32.21,102.61C32.21,102.25 32.12,101.94 31.96,101.67C31.79,101.41 31.56,101.20 31.26,101.06C30.96,100.91 30.61,100.84 30.20,100.84C29.95,100.84 29.72,100.86 29.51,100.90C29.30,100.95 29.09,101.03 28.89,101.12L28.89,102.05Z" fill="currentColor" stroke="currentColor" stroke-width="1.2" stroke-linejoin="round" />
  <path d="M32.06,85.37L31.64,85.37L28.19,89.59L28.19,90.04L31.08,90.04L31.08,92.28L32.06,92.28L32.06,90.04L32.79,90.04L32.79,89.16L32.06,89.16L32.06,85.37ZM31.06,87.22L31.08,87.22L31.08,89.16L29.50,89.16L31.06,87.22Z" fill="currentColor" stroke="currentColor" stroke-width="1.2" stroke-linejoin="round" />
  <path d="M32.12,70.00L29.09,70.00L29.09,73.55C29.46,73.46 29.80,73.43 30.10,73.46C30.39,73.49 30.64,73.56 30.85,73.69C31.05,73.81 31.21,73.96 31.32,74.14C31.43,74.32 31.48,74.53 31.48,74.75C31.48,74.97 31.41,75.18 31.29,75.36C31.16,75.55 30.99,75.70 30.78,75.81C30.57,75.92 30.33,75.97 30.07,75.98C29.82,75.98 29.57,75.93 29.32,75.85C29.07,75.77 28.82,75.64 28.58,75.48L28.58,76.49C28.77,76.59 28.96,76.67 29.14,76.73C29.32,76.79 29.49,76.83 29.67,76.86C29.85,76.89 30.03,76.91 30.23,76.91C30.66,76.90 31.05,76.81 31.38,76.62C31.72,76.43 31.98,76.18 32.17,75.85C32.36,75.52 32.46,75.15 32.46,74.73C32.46,74.41 32.40,74.12 32.29,73.85C32.18,73.58 32.01,73.35 31.80,73.15C31.58,72.95 31.32,72.81 31.02,72.71C30.71,72.61 30.36,72.57 29.98,72.59L29.98,70.88L32.12,70.88L32.12,70.00Z" fill="currentColor" stroke="currentColor" stroke-width="1.2" stroke-linejoin="round" />
  <path d="M31.25,54.42C30.66,54.81 30.16,55.26 29.75,55.75C29.35,56.24 29.04,56.76 28.83,57.31C28.62,57.86 28.52,58.42 28.52,59.00C28.52,59.48 28.62,59.90 28.80,60.27C28.98,60.63 29.24,60.91 29.57,61.11C29.89,61.31 30.28,61.41 30.72,61.42C30.99,61.41 31.25,61.36 31.49,61.26C31.73,61.15 31.95,61.00 32.13,60.81C32.32,60.63 32.46,60.41 32.57,60.16C32.67,59.92 32.73,59.66 32.73,59.38C32.72,59.00 32.64,58.66 32.47,58.36C32.31,58.06 32.08,57.83 31.80,57.65C31.51,57.48 31.19,57.39 30.82,57.39C30.59,57.39 30.39,57.42 30.22,57.47C30.04,57.53 29.88,57.59 29.75,57.67C29.84,57.35 30.00,57.03 30.20,56.72C30.41,56.41 30.65,56.12 30.93,55.85C31.21,55.59 31.52,55.36 31.84,55.17L31.25,54.42ZM29.54,58.68C29.68,58.58 29.81,58.51 29.92,58.46C30.03,58.41 30.14,58.37 30.25,58.35C30.36,58.33 30.48,58.32 30.62,58.32C30.84,58.32 31.03,58.36 31.20,58.46C31.37,58.55 31.50,58.67 31.60,58.83C31.70,58.98 31.75,59.16 31.75,59.37C31.75,59.59 31.70,59.79 31.61,59.96C31.52,60.12 31.39,60.25 31.23,60.35C31.07,60.44 30.88,60.49 30.66,60.49C30.48,60.49 30.31,60.45 30.15,60.36C29.99,60.28 29.85,60.16 29.73,60.00C29.62,59.84 29.54,59.66 29.50,59.43C29.46,59.21 29.48,58.96 29.54,58.68Z" fill="currentColor" stroke="currentColor" stroke-width="1.2" stroke-linejoin="round" />
  <path d="M32.98,39.04L28.57,39.04L28.57,39.97L31.52,39.97L29.02,45.57L29.89,45.95L32.98,39.04Z" fill="currentColor" stroke="currentColor" stroke-width="1.2" stroke-linejoin="round" />
  <path d="M32.76,28.53C32.76,28.30 32.72,28.08 32.65,27.87C32.58,27.67 32.48,27.48 32.34,27.31C32.20,27.14 32.02,27.00 31.81,26.89C32.00,26.76 32.16,26.62 32.29,26.46C32.41,26.30 32.51,26.14 32.57,25.96C32.63,25.79 32.66,25.62 32.66,25.44C32.66,25.06 32.57,24.73 32.39,24.43C32.22,24.13 31.98,23.90 31.68,23.73C31.38,23.56 31.04,23.47 30.65,23.46C30.25,23.47 29.89,23.55 29.58,23.72C29.27,23.89 29.02,24.12 28.84,24.42C28.66,24.71 28.56,25.05 28.56,25.42C28.56,25.72 28.63,25.99 28.77,26.24C28.91,26.49 29.11,26.71 29.37,26.89C29.04,27.08 28.80,27.31 28.64,27.58C28.48,27.85 28.40,28.16 28.40,28.52C28.40,28.80 28.46,29.05 28.57,29.29C28.68,29.52 28.83,29.73 29.03,29.90C29.23,30.08 29.47,30.22 29.73,30.31C30.00,30.41 30.29,30.46 30.60,30.46C31.01,30.46 31.38,30.37 31.70,30.21C32.03,30.04 32.28,29.81 32.47,29.52C32.66,29.23 32.76,28.90 32.76,28.53ZM31.68,25.42C31.68,25.61 31.63,25.78 31.53,25.93C31.44,26.09 31.31,26.21 31.15,26.30C30.99,26.39 30.81,26.44 30.61,26.44C30.41,26.44 30.24,26.39 30.07,26.30C29.91,26.20 29.78,26.08 29.69,25.92C29.59,25.77 29.54,25.59 29.54,25.40C29.54,25.20 29.59,25.02 29.68,24.87C29.77,24.72 29.90,24.60 30.06,24.52C30.22,24.44 30.41,24.40 30.63,24.39C30.83,24.40 31.02,24.44 31.17,24.53C31.33,24.62 31.46,24.74 31.54,24.89C31.63,25.05 31.68,25.23 31.68,25.42ZM31.78,28.45C31.78,28.65 31.74,28.82 31.64,28.99C31.55,29.15 31.42,29.28 31.24,29.38C31.06,29.48 30.84,29.53 30.58,29.53C30.35,29.53 30.14,29.49 29.96,29.39C29.78,29.30 29.64,29.18 29.53,29.01C29.43,28.85 29.38,28.67 29.38,28.45C29.38,28.24 29.43,28.05 29.53,27.89C29.63,27.73 29.77,27.60 29.95,27.51C30.14,27.42 30.35,27.37 30.60,27.37C30.83,27.37 31.04,27.42 31.21,27.52C31.39,27.61 31.53,27.74 31.63,27.90C31.73,28.06 31.78,28.24 31.78,28.45Z" fill="currentColor" stroke="currentColor" stroke-width="1.2" stroke-linejoin="round" />
  <path d="M29.95,15.00C30.35,14.75 30.72,14.46 31.05,14.11C31.39,13.77 31.68,13.40 31.92,12.99C32.16,12.59 32.35,12.18 32.49,11.75C32.62,11.32 32.69,10.90 32.69,10.49C32.69,10.13 32.63,9.80 32.53,9.50C32.42,9.20 32.27,8.93 32.08,8.71C31.88,8.48 31.65,8.31 31.39,8.19C31.13,8.07 30.84,8.00 30.52,8.00C30.20,8.00 29.92,8.06 29.66,8.17C29.41,8.29 29.19,8.44 29.01,8.63C28.83,8.82 28.69,9.04 28.59,9.28C28.49,9.52 28.44,9.76 28.44,10.02C28.44,10.39 28.53,10.73 28.70,11.03C28.87,11.33 29.10,11.56 29.39,11.74C29.68,11.91 30.01,12.00 30.37,12.01C30.55,12.01 30.74,11.98 30.92,11.93C31.11,11.88 31.28,11.81 31.43,11.72C31.36,12.01 31.24,12.30 31.06,12.60C30.88,12.90 30.65,13.19 30.36,13.47C30.07,13.76 29.73,14.03 29.35,14.28L29.95,15.00ZM29.42,10.01C29.42,9.80 29.47,9.61 29.57,9.45C29.66,9.29 29.79,9.16 29.96,9.07C30.13,8.98 30.32,8.93 30.54,8.93C30.75,8.93 30.94,8.99 31.11,9.10C31.29,9.21 31.42,9.36 31.52,9.55C31.62,9.73 31.68,9.94 31.68,10.16C31.68,10.24 31.68,10.32 31.67,10.41C31.67,10.49 31.65,10.59 31.63,10.71C31.44,10.84 31.26,10.93 31.07,10.99C30.89,11.05 30.73,11.08 30.58,11.08C30.36,11.08 30.17,11.03 29.99,10.93C29.82,10.84 29.68,10.71 29.58,10.55C29.48,10.39 29.42,10.21 29.42,10.01Z" fill="currentColor" stroke="currentColor" stroke-width="1.2" stroke-linejoin="round" />
  <path d="M57.91,160.47C57.91,159.94 57.86,159.46 57.76,159.03C57.65,158.60 57.50,158.24 57.31,157.93C57.12,157.62 56.89,157.38 56.62,157.22C56.35,157.05 56.05,156.97 55.72,156.97C55.38,156.97 55.08,157.05 54.81,157.22C54.55,157.38 54.31,157.62 54.12,157.93C53.93,158.24 53.78,158.60 53.67,159.03C53.57,159.46 53.52,159.94 53.52,160.47C53.52,160.99 53.57,161.47 53.67,161.90C53.78,162.33 53.93,162.70 54.12,163.00C54.31,163.31 54.55,163.55 54.81,163.71C55.08,163.88 55.38,163.96 55.72,163.97C56.05,163.96 56.35,163.88 56.62,163.71C56.89,163.55 57.12,163.31 57.31,163.00C57.50,162.70 57.65,162.33 57.76,161.90C57.86,161.47 57.91,160.99 57.91,160.47ZM56.94,160.47C56.94,161.00 56.89,161.46 56.79,161.84C56.69,162.23 56.55,162.52 56.37,162.72C56.19,162.93 55.97,163.03 55.72,163.03C55.46,163.03 55.24,162.93 55.06,162.72C54.88,162.52 54.74,162.23 54.64,161.84C54.54,161.46 54.50,161.00 54.49,160.47C54.50,159.93 54.54,159.47 54.64,159.09C54.74,158.71 54.88,158.41 55.06,158.21C55.24,158.00 55.46,157.90 55.72,157.90C55.97,157.90 56.19,158.00 56.37,158.21C56.55,158.41 56.69,158.71 56.79,159.09C56.89,159.47 56.94,159.93 56.94,160.47Z" fill="currentColor" stroke="currentColor" stroke-width="1.2" stroke-linejoin="round" />
  <path d="M85.94,163.88L85.94,156.97L85.57,156.97L83.24,158.87L83.62,159.72L84.92,158.65L84.92,163.88L85.94,163.88Z" fill="currentColor" stroke="currentColor" stroke-width="1.2" stroke-linejoin="round" />
  <path d="M116.75,162.94L114.15,162.94C114.52,162.49 114.85,162.09 115.12,161.74C115.39,161.38 115.60,161.05 115.77,160.76C115.94,160.46 116.07,160.18 116.15,159.91C116.22,159.64 116.26,159.37 116.26,159.09C116.26,158.67 116.17,158.30 116.00,157.98C115.82,157.66 115.58,157.42 115.27,157.24C114.96,157.06 114.60,156.97 114.18,156.97C113.91,156.97 113.64,157.02 113.38,157.13C113.12,157.23 112.85,157.40 112.57,157.62L112.57,158.84C112.76,158.61 112.94,158.43 113.11,158.30C113.28,158.16 113.45,158.06 113.62,158.01C113.79,157.95 113.95,157.92 114.11,157.92C114.34,157.93 114.54,157.98 114.72,158.09C114.89,158.20 115.03,158.35 115.13,158.54C115.23,158.73 115.28,158.95 115.29,159.20C115.29,159.39 115.27,159.56 115.23,159.71C115.20,159.87 115.14,160.02 115.07,160.17C115.00,160.32 114.91,160.48 114.80,160.66C114.66,160.91 114.49,161.17 114.29,161.44C114.10,161.72 113.90,161.99 113.68,162.26C113.47,162.54 113.25,162.81 113.04,163.07C112.83,163.33 112.62,163.58 112.43,163.80L112.43,163.87L116.75,163.87L116.75,162.94Z" fill="currentColor" stroke="currentColor" stroke-width="1.2" stroke-linejoin="round" />
  <path d="M142.34,158.19C142.50,158.12 142.64,158.06 142.77,158.02C142.90,157.97 143.02,157.94 143.14,157.92C143.26,157.90 143.38,157.90 143.50,157.90C143.74,157.90 143.95,157.94 144.13,158.02C144.30,158.10 144.44,158.22 144.54,158.37C144.63,158.52 144.68,158.70 144.68,158.92C144.68,159.23 144.57,159.47 144.35,159.64C144.12,159.82 143.78,159.90 143.33,159.91L143.33,160.81C143.66,160.79 143.93,160.83 144.14,160.93C144.36,161.03 144.52,161.16 144.63,161.34C144.74,161.52 144.79,161.72 144.79,161.95C144.79,162.17 144.75,162.36 144.66,162.52C144.57,162.68 144.44,162.81 144.28,162.90C144.11,162.99 143.92,163.03 143.69,163.03C143.44,163.04 143.19,162.99 142.94,162.91C142.69,162.82 142.43,162.69 142.17,162.51L142.17,163.57C142.42,163.70 142.66,163.80 142.90,163.86C143.15,163.93 143.39,163.96 143.62,163.96C144.05,163.96 144.42,163.87 144.74,163.70C145.06,163.53 145.31,163.28 145.49,162.97C145.68,162.66 145.77,162.30 145.77,161.90C145.77,161.66 145.74,161.43 145.67,161.21C145.60,160.99 145.49,160.80 145.35,160.63C145.20,160.47 145.02,160.35 144.79,160.28C145.00,160.16 145.17,160.04 145.29,159.90C145.42,159.76 145.51,159.59 145.57,159.40C145.63,159.22 145.66,159.00 145.66,158.75C145.66,158.38 145.58,158.07 145.41,157.80C145.25,157.54 145.02,157.33 144.71,157.19C144.42,157.04 144.06,156.97 143.65,156.97C143.40,156.97 143.17,156.99 142.96,157.04C142.75,157.08 142.55,157.16 142.34,157.26L142.34,158.19Z" fill="currentColor" stroke="currentColor" stroke-width="1.2" stroke-linejoin="round" />
  <path d="M174.95,156.97L174.53,156.97L171.08,161.18L171.08,161.63L173.97,161.63L173.97,163.88L174.95,163.88L174.95,161.63L175.68,161.63L175.68,160.76L174.95,160.76L174.95,156.97ZM173.95,158.82L173.97,158.82L173.97,160.76L172.39,160.76L173.95,158.82Z" fill="currentColor" stroke="currentColor" stroke-width="1.2" stroke-linejoin="round" />
  <path d="M204.45,157.06L201.42,157.06L201.42,160.61C201.80,160.52 202.13,160.49 202.43,160.52C202.72,160.55 202.97,160.62 203.18,160.74C203.38,160.86 203.54,161.02 203.65,161.20C203.76,161.38 203.81,161.59 203.81,161.81C203.81,162.03 203.74,162.24 203.62,162.42C203.49,162.61 203.32,162.75 203.11,162.86C202.90,162.98 202.66,163.03 202.40,163.03C202.15,163.03 201.90,162.99 201.65,162.91C201.40,162.82 201.15,162.70 200.91,162.53L200.91,163.54C201.10,163.64 201.29,163.73 201.47,163.79C201.65,163.85 201.82,163.89 202.00,163.92C202.18,163.95 202.36,163.97 202.56,163.96C202.99,163.96 203.38,163.87 203.71,163.68C204.05,163.49 204.31,163.24 204.50,162.91C204.69,162.58 204.79,162.21 204.79,161.79C204.79,161.47 204.73,161.18 204.62,160.91C204.51,160.64 204.34,160.41 204.13,160.21C203.91,160.01 203.65,159.87 203.35,159.77C203.04,159.67 202.70,159.63 202.31,159.65L202.31,157.93L204.45,157.93L204.45,157.06Z" fill="currentColor" stroke="currentColor" stroke-width="1.2" stroke-linejoin="round" />
  <path d="M233.02,156.97C232.43,157.36 231.93,157.81 231.53,158.30C231.12,158.79 230.81,159.31 230.60,159.86C230.40,160.41 230.29,160.97 230.29,161.54C230.29,162.03 230.39,162.45 230.57,162.81C230.75,163.17 231.01,163.46 231.34,163.66C231.67,163.86 232.05,163.96 232.49,163.97C232.76,163.96 233.02,163.91 233.26,163.80C233.50,163.70 233.72,163.55 233.90,163.36C234.09,163.17 234.23,162.96 234.34,162.71C234.44,162.47 234.50,162.20 234.50,161.92C234.50,161.54 234.41,161.21 234.25,160.91C234.08,160.61 233.86,160.37 233.57,160.20C233.28,160.03 232.96,159.94 232.59,159.93C232.37,159.94 232.16,159.97 231.99,160.02C231.81,160.08 231.65,160.14 231.52,160.22C231.62,159.90 231.77,159.58 231.97,159.27C232.18,158.96 232.42,158.67 232.70,158.40C232.98,158.13 233.29,157.91 233.61,157.72L233.02,156.97ZM231.31,161.22C231.45,161.13 231.58,161.06 231.69,161.01C231.80,160.95 231.91,160.92 232.02,160.90C232.13,160.87 232.25,160.86 232.39,160.86C232.61,160.87 232.80,160.91 232.97,161.00C233.14,161.09 233.27,161.22 233.37,161.38C233.47,161.53 233.52,161.71 233.52,161.91C233.52,162.14 233.47,162.34 233.38,162.50C233.29,162.67 233.16,162.80 233.00,162.89C232.84,162.99 232.65,163.03 232.43,163.03C232.25,163.03 232.08,162.99 231.92,162.91C231.76,162.83 231.62,162.71 231.51,162.55C231.39,162.39 231.31,162.20 231.27,161.98C231.24,161.76 231.25,161.51 231.31,161.22Z" fill="currentColor" stroke="currentColor" stroke-width="1.2" stroke-linejoin="round" />
  <path d="M264.19,157.06L259.78,157.06L259.78,157.99L262.73,157.99L260.23,163.58L261.10,163.96L264.19,157.06Z" fill="currentColor" stroke="currentColor" stroke-width="1.2" stroke-linejoin="round" />
  <path d="M129.04,172.29L128.35,172.29L125.42,179.15L126.42,179.15L127.28,177.13L130.18,177.13L131.09,179.15L132.09,179.15L129.04,172.29ZM128.68,173.79L129.78,176.26L127.66,176.26L128.68,173.79Z" fill="currentColor" stroke="currentColor" stroke-width="1.2" stroke-linejoin="round" />
  <path d="M133.59,174.66L132.70,174.66L132.70,179.15L133.59,179.15L133.59,175.93C133.80,175.69 133.99,175.53 134.16,175.43C134.34,175.32 134.52,175.28 134.71,175.28C134.89,175.28 135.05,175.32 135.18,175.41C135.31,175.50 135.41,175.63 135.48,175.79C135.55,175.95 135.59,176.15 135.59,176.37L135.59,179.15L136.48,179.15L136.48,176.38C136.48,175.97 136.41,175.63 136.27,175.36C136.14,175.09 135.96,174.89 135.73,174.76C135.50,174.63 135.24,174.57 134.95,174.57C134.70,174.57 134.46,174.63 134.22,174.75C133.99,174.86 133.79,175.03 133.61,175.25L133.59,175.25L133.59,174.66Z" fill="currentColor" stroke="currentColor" stroke-width="1.2" stroke-linejoin="round" />
  <path d="M138.76,173.73L137.09,175.36L137.09,175.46L137.87,175.46L137.87,177.83C137.87,178.10 137.93,178.34 138.04,178.55C138.14,178.76 138.31,178.93 138.52,179.05C138.74,179.17 139.01,179.23 139.33,179.24C139.43,179.24 139.55,179.22 139.67,179.20C139.80,179.17 139.93,179.14 140.06,179.09C140.19,179.05 140.31,178.99 140.41,178.94L140.41,178.11C140.23,178.22 140.06,178.30 139.89,178.36C139.73,178.41 139.56,178.44 139.40,178.44C139.31,178.44 139.22,178.42 139.12,178.38C139.02,178.34 138.94,178.27 138.87,178.17C138.80,178.07 138.77,177.93 138.76,177.76L138.76,175.46L140.18,175.46L140.18,174.66L138.76,174.66L138.76,173.73Z" fill="currentColor" stroke="currentColor" stroke-width="1.2" stroke-linejoin="round" />
  <path d="M144.53,178.35C144.43,178.42 144.34,178.48 144.26,178.52C144.18,178.57 144.11,178.59 144.06,178.59C144.01,178.59 143.97,178.57 143.94,178.54C143.91,178.50 143.89,178.44 143.89,178.36L143.89,176.05C143.89,175.71 143.82,175.43 143.67,175.21C143.53,174.99 143.34,174.83 143.09,174.72C142.85,174.62 142.57,174.57 142.26,174.57C141.94,174.57 141.65,174.62 141.41,174.72C141.16,174.82 140.95,174.97 140.77,175.18L140.77,176.15C140.99,175.89 141.22,175.71 141.46,175.59C141.70,175.47 141.95,175.41 142.19,175.41C142.46,175.41 142.67,175.47 142.80,175.59C142.94,175.72 143.00,175.92 143.00,176.20L143.00,176.44L142.21,176.72C142.03,176.78 141.85,176.85 141.67,176.92C141.49,177.00 141.33,177.09 141.18,177.19C141.03,177.30 140.91,177.42 140.82,177.58C140.73,177.73 140.69,177.92 140.68,178.14C140.68,178.33 140.73,178.52 140.82,178.68C140.91,178.85 141.04,178.98 141.20,179.08C141.37,179.18 141.56,179.23 141.78,179.24C141.99,179.24 142.19,179.20 142.40,179.12C142.60,179.05 142.80,178.93 142.99,178.78C143.03,178.94 143.11,179.05 143.22,179.13C143.33,179.20 143.48,179.24 143.67,179.24C143.77,179.24 143.85,179.23 143.93,179.21C144.01,179.18 144.10,179.15 144.19,179.10C144.29,179.05 144.40,178.98 144.53,178.89L144.53,178.35ZM143.00,178.24C142.88,178.35 142.76,178.44 142.63,178.51C142.50,178.57 142.36,178.61 142.22,178.61C142.03,178.60 141.88,178.55 141.76,178.43C141.65,178.32 141.59,178.17 141.58,177.98C141.59,177.80 141.65,177.65 141.78,177.53C141.91,177.40 142.08,177.29 142.30,177.20C142.51,177.10 142.75,177.01 143.00,176.93L143.00,178.24Z" fill="currentColor" stroke="currentColor" stroke-width="1.2" stroke-linejoin="round" />
  <path d="M145.34,172.33H146.23V179.15H145.34Z" fill="currentColor" stroke="currentColor" stroke-width="1.2" stroke-linejoin="round" />
  <path d="M151.33,173.73L149.66,175.36L149.66,175.46L150.44,175.46L150.44,177.83C150.44,178.10 150.50,178.34 150.60,178.55C150.71,178.76 150.87,178.93 151.09,179.05C151.31,179.17 151.58,179.23 151.90,179.24C152.00,179.24 152.11,179.22 152.24,179.20C152.37,179.17 152.50,179.14 152.63,179.09C152.76,179.05 152.88,178.99 152.98,178.94L152.98,178.11C152.80,178.22 152.63,178.30 152.46,178.36C152.29,178.41 152.13,178.44 151.97,178.44C151.88,178.44 151.79,178.42 151.69,178.38C151.59,178.34 151.51,178.27 151.44,178.17C151.37,178.07 151.33,177.93 151.33,177.76L151.33,175.46L152.75,175.46L152.75,174.66L151.33,174.66L151.33,173.73Z" fill="currentColor" stroke="currentColor" stroke-width="1.2" stroke-linejoin="round" />
  <path d="M153.64,174.66H154.53V179.15H153.64ZM154.62,173.30C154.62,173.15 154.57,173.02 154.47,172.92C154.36,172.82 154.24,172.77 154.09,172.77C153.94,172.77 153.82,172.82 153.72,172.92C153.62,173.02 153.57,173.15 153.56,173.30C153.57,173.45 153.62,173.57 153.72,173.67C153.82,173.77 153.94,173.82 154.09,173.83C154.24,173.82 154.36,173.77 154.47,173.67C154.57,173.57 154.62,173.45 154.62,173.30Z" fill="currentColor" stroke="currentColor" stroke-width="1.2" stroke-linejoin="round" />
  <path d="M155.77,174.66L155.77,179.15L156.66,179.15L156.66,175.89C156.78,175.74 156.90,175.63 157.02,175.55C157.13,175.46 157.25,175.40 157.37,175.37C157.50,175.33 157.63,175.32 157.78,175.32C157.93,175.32 158.07,175.35 158.19,175.42C158.31,175.50 158.41,175.61 158.48,175.76C158.55,175.92 158.59,176.11 158.59,176.36L158.59,179.15L159.48,179.15L159.48,175.89C159.64,175.72 159.82,175.58 159.99,175.47C160.17,175.37 160.33,175.32 160.48,175.32C160.65,175.32 160.81,175.36 160.95,175.44C161.09,175.52 161.20,175.64 161.28,175.79C161.37,175.95 161.41,176.14 161.41,176.37L161.41,179.15L162.30,179.15L162.30,176.33C162.30,175.97 162.24,175.66 162.12,175.40C162.00,175.14 161.82,174.93 161.60,174.79C161.38,174.64 161.12,174.57 160.81,174.57C160.60,174.57 160.40,174.61 160.23,174.68C160.05,174.75 159.88,174.85 159.73,174.97C159.58,175.09 159.44,175.23 159.31,175.38C159.16,175.11 158.97,174.91 158.74,174.77C158.52,174.64 158.26,174.57 157.97,174.57C157.76,174.57 157.55,174.62 157.33,174.73C157.11,174.85 156.89,175.02 156.66,175.25L156.66,174.66L155.77,174.66Z" fill="currentColor" stroke="currentColor" stroke-width="1.2" stroke-linejoin="round" />
  <path d="M163.48,174.66L163.48,179.15L164.37,179.15L164.37,175.89C164.49,175.74 164.61,175.63 164.73,175.55C164.84,175.46 164.96,175.40 165.08,175.37C165.21,175.33 165.34,175.32 165.49,175.32C165.64,175.32 165.77,175.35 165.90,175.42C166.02,175.50 166.12,175.61 166.19,175.76C166.26,175.92 166.30,176.11 166.30,176.36L166.30,179.15L167.19,179.15L167.19,175.89C167.35,175.72 167.53,175.58 167.70,175.47C167.88,175.37 168.04,175.32 168.19,175.32C168.36,175.32 168.52,175.36 168.66,175.44C168.80,175.52 168.91,175.64 168.99,175.79C169.08,175.95 169.12,176.14 169.12,176.37L169.12,179.15L170.01,179.15L170.01,176.33C170.01,175.97 169.95,175.66 169.83,175.40C169.71,175.14 169.53,174.93 169.31,174.79C169.09,174.64 168.83,174.57 168.52,174.57C168.31,174.57 168.11,174.61 167.93,174.68C167.76,174.75 167.59,174.85 167.44,174.97C167.29,175.09 167.15,175.23 167.02,175.38C166.87,175.11 166.68,174.91 166.45,174.77C166.23,174.64 165.97,174.57 165.68,174.57C165.47,174.57 165.26,174.62 165.04,174.73C164.82,174.85 164.60,175.02 164.37,175.25L164.37,174.66L163.48,174.66Z" fill="currentColor" stroke="currentColor" stroke-width="1.2" stroke-linejoin="round" />
  <path d="M174.71,178.35C174.61,178.42 174.52,178.48 174.44,178.52C174.36,178.57 174.29,178.59 174.24,178.59C174.19,178.59 174.15,178.57 174.12,178.54C174.09,178.50 174.07,178.44 174.07,178.36L174.07,176.05C174.07,175.71 174.00,175.43 173.85,175.21C173.71,174.99 173.52,174.83 173.27,174.72C173.03,174.62 172.75,174.57 172.44,174.57C172.12,174.57 171.83,174.62 171.59,174.72C171.34,174.82 171.13,174.97 170.95,175.18L170.95,176.15C171.17,175.89 171.40,175.71 171.64,175.59C171.88,175.47 172.13,175.41 172.37,175.41C172.64,175.41 172.85,175.47 172.98,175.59C173.12,175.72 173.18,175.92 173.18,176.20L173.18,176.44L172.39,176.72C172.21,176.78 172.03,176.85 171.85,176.92C171.67,177.00 171.51,177.09 171.36,177.19C171.21,177.30 171.09,177.42 171.00,177.58C170.91,177.73 170.87,177.92 170.86,178.14C170.86,178.33 170.91,178.52 171.00,178.68C171.09,178.85 171.22,178.98 171.38,179.08C171.55,179.18 171.74,179.23 171.96,179.24C172.17,179.24 172.37,179.20 172.58,179.12C172.78,179.05 172.98,178.93 173.17,178.78C173.21,178.94 173.29,179.05 173.40,179.13C173.51,179.20 173.66,179.24 173.85,179.24C173.95,179.24 174.03,179.23 174.11,179.21C174.19,179.18 174.28,179.15 174.37,179.10C174.47,179.05 174.58,178.98 174.71,178.89L174.71,178.35ZM173.18,178.24C173.06,178.35 172.94,178.44 172.81,178.51C172.68,178.57 172.54,178.61 172.40,178.61C172.21,178.60 172.06,178.55 171.94,178.43C171.83,178.32 171.77,178.17 171.76,177.98C171.77,177.80 171.83,177.65 171.96,177.53C172.09,177.40 172.26,177.29 172.48,177.20C172.69,177.10 172.93,177.01 173.18,176.93L173.18,178.24Z" fill="currentColor" stroke="currentColor" stroke-width="1.2" stroke-linejoin="round" />
  <path d="M175.56,174.66L175.56,179.15L176.45,179.15L176.45,176.80C176.45,176.54 176.50,176.30 176.60,176.10C176.69,175.89 176.82,175.73 176.99,175.60C177.15,175.48 177.34,175.42 177.54,175.42C177.61,175.42 177.69,175.44 177.79,175.47C177.88,175.51 177.98,175.56 178.08,175.63C178.18,175.69 178.28,175.77 178.37,175.86L178.84,175.09C178.66,174.91 178.48,174.78 178.30,174.70C178.13,174.61 177.95,174.57 177.77,174.57C177.56,174.56 177.35,174.65 177.13,174.83C176.92,175.01 176.70,175.29 176.47,175.69L176.45,175.69L176.45,174.66L175.56,174.66Z" fill="currentColor" stroke="currentColor" stroke-width="1.2" stroke-linejoin="round" />
  <path d="M8.00,105.97L8.00,106.66L14.86,109.59L14.86,108.59L12.85,107.73L12.85,104.83L14.86,103.92L14.86,102.92L8.00,105.97ZM9.50,106.33L11.97,105.23L11.97,107.35L9.50,106.33Z" fill="currentColor" stroke="currentColor" stroke-width="1.2" stroke-linejoin="round" />
  <path d="M10.37,101.42L10.37,102.31L14.86,102.31L14.86,101.42L11.64,101.42C11.40,101.22 11.24,101.03 11.14,100.85C11.04,100.68 10.99,100.50 10.99,100.30C10.99,100.12 11.04,99.97 11.12,99.84C11.21,99.71 11.34,99.60 11.50,99.53C11.67,99.46 11.86,99.43 12.08,99.43L14.86,99.43L14.86,98.54L12.09,98.54C11.68,98.54 11.34,98.61 11.07,98.74C10.81,98.88 10.60,99.06 10.47,99.29C10.34,99.52 10.28,99.78 10.28,100.06C10.28,100.32 10.34,100.56 10.46,100.79C10.57,101.03 10.74,101.23 10.96,101.40L10.96,101.42L10.37,101.42Z" fill="currentColor" stroke="currentColor" stroke-width="1.2" stroke-linejoin="round" />
  <path d="M9.44,96.25L11.07,97.92L11.17,97.92L11.17,97.14L13.54,97.14C13.81,97.14 14.05,97.09 14.26,96.98C14.48,96.87 14.64,96.71 14.76,96.49C14.88,96.28 14.95,96.01 14.95,95.68C14.95,95.59 14.93,95.47 14.91,95.34C14.88,95.22 14.85,95.09 14.80,94.96C14.76,94.83 14.71,94.71 14.65,94.60L13.82,94.60C13.93,94.78 14.01,94.96 14.07,95.12C14.12,95.29 14.15,95.45 14.15,95.61C14.15,95.70 14.13,95.80 14.09,95.90C14.05,95.99 13.98,96.08 13.88,96.15C13.78,96.21 13.64,96.25 13.47,96.25L11.17,96.25L11.17,94.83L10.37,94.83L10.37,96.25L9.44,96.25Z" fill="currentColor" stroke="currentColor" stroke-width="1.2" stroke-linejoin="round" />
  <path d="M14.06,90.48C14.13,90.58 14.19,90.68 14.24,90.76C14.28,90.84 14.30,90.91 14.30,90.95C14.30,91.01 14.28,91.05 14.25,91.08C14.21,91.11 14.15,91.12 14.07,91.12L11.76,91.12C11.42,91.13 11.14,91.20 10.92,91.34C10.70,91.49 10.54,91.68 10.44,91.93C10.33,92.17 10.28,92.45 10.28,92.75C10.28,93.08 10.33,93.36 10.43,93.61C10.53,93.86 10.68,94.07 10.89,94.24L11.86,94.24C11.60,94.03 11.42,93.80 11.30,93.56C11.18,93.31 11.12,93.07 11.12,92.82C11.12,92.55 11.18,92.35 11.30,92.22C11.43,92.08 11.63,92.01 11.91,92.01L12.15,92.01L12.43,92.80C12.49,92.99 12.56,93.17 12.64,93.35C12.71,93.53 12.80,93.69 12.90,93.84C13.01,93.99 13.14,94.11 13.29,94.20C13.44,94.29 13.63,94.33 13.85,94.33C14.04,94.33 14.23,94.29 14.39,94.20C14.56,94.10 14.69,93.98 14.79,93.81C14.89,93.65 14.95,93.46 14.95,93.23C14.95,93.03 14.91,92.82 14.84,92.62C14.76,92.42 14.64,92.22 14.49,92.02C14.65,91.98 14.76,91.91 14.84,91.80C14.91,91.69 14.95,91.54 14.95,91.34C14.95,91.25 14.94,91.17 14.92,91.09C14.90,91.01 14.86,90.92 14.81,90.83C14.76,90.73 14.69,90.62 14.60,90.48L14.06,90.48ZM13.95,92.01C14.07,92.13 14.15,92.26 14.22,92.39C14.29,92.52 14.32,92.65 14.32,92.79C14.32,92.98 14.26,93.14 14.14,93.25C14.03,93.37 13.88,93.43 13.69,93.43C13.51,93.43 13.36,93.36 13.24,93.23C13.11,93.11 13.00,92.93 12.91,92.72C12.81,92.51 12.72,92.27 12.64,92.01L13.95,92.01Z" fill="currentColor" stroke="currentColor" stroke-width="1.2" stroke-linejoin="round" />
  <path d="M8.04,88.79H14.86V89.68H8.04Z" fill="currentColor" stroke="currentColor" stroke-width="1.2" stroke-linejoin="round" />
  <path d="M14.75,83.90C14.82,83.73 14.87,83.57 14.90,83.43C14.93,83.28 14.95,83.14 14.95,83.00C14.95,82.55 14.85,82.15 14.65,81.81C14.46,81.47 14.19,81.21 13.84,81.01C13.50,80.82 13.10,80.72 12.65,80.71C11.91,80.72 11.34,80.93 10.95,81.36C10.57,81.80 10.37,82.42 10.37,83.25L10.37,84.79L17.16,84.79L17.16,83.90L14.75,83.90ZM11.17,83.90L11.17,83.09C11.17,82.60 11.30,82.24 11.56,81.99C11.81,81.75 12.17,81.63 12.64,81.62C12.93,81.63 13.19,81.69 13.42,81.81C13.64,81.93 13.82,82.10 13.95,82.32C14.08,82.53 14.15,82.78 14.15,83.06C14.15,83.20 14.13,83.34 14.10,83.48C14.06,83.62 14.01,83.76 13.95,83.90L11.17,83.90Z" fill="currentColor" stroke="currentColor" stroke-width="1.2" stroke-linejoin="round" />
  <path d="M13.56,75.98C13.73,76.23 13.86,76.49 13.96,76.75C14.05,77.01 14.10,77.28 14.10,77.54C14.10,77.98 13.99,78.32 13.76,78.57C13.53,78.82 13.19,78.98 12.75,79.05L12.75,75.90C12.20,75.90 11.74,75.98 11.37,76.14C11.00,76.29 10.73,76.52 10.55,76.81C10.37,77.10 10.28,77.45 10.28,77.85C10.28,78.26 10.38,78.63 10.57,78.94C10.76,79.26 11.02,79.50 11.36,79.68C11.70,79.85 12.10,79.94 12.56,79.95C12.87,79.95 13.17,79.90 13.46,79.80C13.74,79.71 13.99,79.57 14.22,79.38C14.44,79.20 14.62,78.97 14.75,78.70C14.88,78.43 14.95,78.11 14.95,77.77C14.95,77.51 14.93,77.29 14.89,77.08C14.85,76.88 14.79,76.69 14.72,76.51C14.64,76.33 14.54,76.15 14.42,75.98L13.56,75.98ZM12.16,79.04C11.80,78.98 11.53,78.84 11.34,78.64C11.15,78.44 11.05,78.17 11.05,77.83C11.05,77.51 11.15,77.26 11.35,77.08C11.54,76.89 11.81,76.79 12.16,76.77L12.16,79.04Z" fill="currentColor" stroke="currentColor" stroke-width="1.2" stroke-linejoin="round" />
  <path d="M10.37,74.88L14.86,74.88L14.86,73.99L12.51,73.99C12.25,73.98 12.01,73.94 11.81,73.84C11.60,73.74 11.44,73.61 11.31,73.45C11.19,73.29 11.13,73.10 11.13,72.90C11.13,72.83 11.15,72.74 11.18,72.65C11.22,72.55 11.27,72.46 11.34,72.35C11.40,72.25 11.48,72.16 11.57,72.07L10.80,71.60C10.62,71.78 10.49,71.96 10.41,72.14C10.32,72.31 10.28,72.49 10.28,72.67C10.28,72.88 10.36,73.09 10.54,73.31C10.72,73.52 11.01,73.74 11.40,73.97L11.40,73.99L10.37,73.99L10.37,74.88Z" fill="currentColor" stroke="currentColor" stroke-width="1.2" stroke-linejoin="round" />
  <path d="M10.65,68.37C10.52,68.60 10.43,68.83 10.37,69.04C10.31,69.26 10.28,69.48 10.28,69.69C10.28,69.99 10.33,70.25 10.43,70.47C10.52,70.69 10.66,70.86 10.85,70.98C11.03,71.10 11.25,71.16 11.51,71.17C11.71,71.16 11.89,71.11 12.04,71.01C12.20,70.91 12.34,70.78 12.46,70.62C12.59,70.46 12.70,70.29 12.81,70.12C12.91,69.94 13.01,69.77 13.10,69.61C13.19,69.45 13.28,69.32 13.37,69.22C13.46,69.12 13.56,69.07 13.66,69.07C13.77,69.07 13.86,69.10 13.93,69.16C14.00,69.22 14.06,69.30 14.10,69.39C14.14,69.49 14.16,69.60 14.17,69.73C14.17,69.91 14.12,70.13 14.03,70.38C13.93,70.63 13.78,70.90 13.58,71.20L14.54,71.20C14.64,71.00 14.72,70.82 14.78,70.66C14.84,70.49 14.88,70.32 14.91,70.16C14.93,69.99 14.95,69.82 14.95,69.64C14.95,69.35 14.89,69.10 14.78,68.87C14.67,68.65 14.52,68.48 14.32,68.35C14.13,68.22 13.90,68.16 13.63,68.16C13.48,68.15 13.34,68.19 13.21,68.25C13.08,68.32 12.95,68.43 12.82,68.58C12.68,68.72 12.54,68.92 12.38,69.17C12.15,69.56 11.97,69.84 11.83,70.01C11.69,70.18 11.57,70.26 11.48,70.26C11.35,70.25 11.25,70.20 11.17,70.10C11.10,69.99 11.06,69.85 11.06,69.67C11.06,69.50 11.09,69.30 11.17,69.08C11.25,68.86 11.37,68.62 11.54,68.37L10.65,68.37Z" fill="currentColor" stroke="currentColor" stroke-width="1.2" stroke-linejoin="round" />
  <path d="M10.28,65.03C10.28,65.36 10.34,65.68 10.46,65.96C10.57,66.25 10.73,66.50 10.94,66.72C11.15,66.93 11.39,67.10 11.67,67.22C11.94,67.34 12.24,67.40 12.57,67.40C13.03,67.40 13.44,67.29 13.80,67.09C14.15,66.89 14.43,66.61 14.64,66.26C14.84,65.90 14.94,65.49 14.95,65.03C14.95,64.54 14.84,64.12 14.65,63.76C14.45,63.39 14.17,63.11 13.82,62.91C13.46,62.70 13.04,62.60 12.57,62.60C12.12,62.60 11.73,62.71 11.38,62.91C11.04,63.12 10.77,63.41 10.58,63.77C10.38,64.14 10.28,64.55 10.28,65.03ZM11.08,65.04C11.08,64.74 11.15,64.48 11.27,64.24C11.40,64.02 11.58,63.84 11.80,63.71C12.03,63.58 12.29,63.51 12.58,63.51C12.90,63.51 13.18,63.57 13.42,63.70C13.65,63.82 13.83,63.99 13.96,64.22C14.08,64.45 14.15,64.72 14.15,65.04C14.15,65.33 14.08,65.58 13.95,65.80C13.82,66.01 13.64,66.18 13.40,66.30C13.16,66.42 12.89,66.49 12.57,66.49C12.28,66.49 12.02,66.42 11.80,66.30C11.58,66.18 11.40,66.01 11.27,65.79C11.15,65.57 11.08,65.32 11.08,65.04Z" fill="currentColor" stroke="currentColor" stroke-width="1.2" stroke-linejoin="round" />
  <path d="M10.37,60.74L10.37,61.63L14.86,61.63L14.86,60.74L11.64,60.74C11.40,60.53 11.24,60.34 11.14,60.17C11.04,59.99 10.99,59.81 10.99,59.62C10.99,59.44 11.04,59.28 11.12,59.15C11.21,59.02 11.34,58.92 11.50,58.85C11.67,58.78 11.86,58.74 12.08,58.74L14.86,58.74L14.86,57.85L12.09,57.85C11.68,57.85 11.34,57.92 11.07,58.06C10.81,58.19 10.60,58.38 10.47,58.61C10.34,58.84 10.28,59.09 10.28,59.38C10.28,59.63 10.34,59.88 10.46,60.11C10.57,60.34 10.74,60.55 10.96,60.72L10.96,60.74L10.37,60.74Z" fill="currentColor" stroke="currentColor" stroke-width="1.2" stroke-linejoin="round" />
  <path d="M13.56,52.86C13.73,53.12 13.86,53.38 13.96,53.64C14.05,53.90 14.10,54.16 14.10,54.43C14.10,54.86 13.99,55.20 13.76,55.45C13.53,55.71 13.19,55.87 12.75,55.94L12.75,52.78C12.20,52.78 11.74,52.86 11.37,53.02C11.00,53.18 10.73,53.40 10.55,53.70C10.37,53.99 10.28,54.33 10.28,54.73C10.28,55.15 10.38,55.51 10.57,55.83C10.76,56.14 11.02,56.38 11.36,56.56C11.70,56.74 12.10,56.83 12.56,56.83C12.87,56.83 13.17,56.78 13.46,56.69C13.74,56.59 13.99,56.45 14.22,56.26C14.44,56.08 14.62,55.85 14.75,55.58C14.88,55.31 14.95,55.00 14.95,54.65C14.95,54.40 14.93,54.17 14.89,53.97C14.85,53.76 14.79,53.57 14.72,53.39C14.64,53.22 14.54,53.04 14.42,52.86L13.56,52.86ZM12.16,55.92C11.80,55.86 11.53,55.73 11.34,55.52C11.15,55.32 11.05,55.05 11.05,54.71C11.05,54.39 11.15,54.14 11.35,53.96C11.54,53.78 11.81,53.68 12.16,53.66L12.16,55.92Z" fill="currentColor" stroke="currentColor" stroke-width="1.2" stroke-linejoin="round" />
  <path d="M10.37,51.76L14.86,51.76L14.86,50.87L12.51,50.87C12.25,50.87 12.01,50.82 11.81,50.72C11.60,50.63 11.44,50.50 11.31,50.33C11.19,50.17 11.13,49.99 11.13,49.78C11.13,49.71 11.15,49.63 11.18,49.53C11.22,49.44 11.27,49.34 11.34,49.24C11.40,49.14 11.48,49.04 11.57,48.95L10.80,48.48C10.62,48.67 10.49,48.84 10.41,49.02C10.32,49.20 10.28,49.37 10.28,49.55C10.28,49.76 10.36,49.97 10.54,50.19C10.72,50.41 11.01,50.63 11.40,50.85L11.40,50.87L10.37,50.87L10.37,51.76Z" fill="currentColor" stroke="currentColor" stroke-width="1.2" stroke-linejoin="round" />
  <path d="M55.23,151.11H56.57V153.39H55.23ZM84.62,151.11H85.96V153.39H84.62ZM114.01,151.11H115.35V153.39H114.01ZM143.40,151.11H144.74V153.39H143.40ZM172.79,151.11H174.13V153.39H172.79ZM202.18,151.11H203.52V153.39H202.18ZM231.54,151.11H232.88V153.39H231.54ZM260.93,151.11H262.27V153.39H260.93Z" fill="currentColor" stroke="currentColor" stroke-width="1.2" stroke-linejoin="round" />
  <path d="M41.21,150.28H276.30V151.94H41.21Z" fill="currentColor" stroke="currentColor" stroke-width="1.2" stroke-linejoin="round" />
</svg>