<svg xmlns="http://www.w3.org/2000/svg" viewBox="0 0 126.75 120.64" preserveAspectRatio="xMidYMid meet" shape-rendering="geometricPrecision" text-rendering="optimizeLegibility">
  <line x1="60.65" y1="8.00" x2="62.22" y2="8.00" fill="currentColor" stroke="currentColor" stroke-width="1.2" stroke-linecap="round" stroke-linejoin="round" />
  <path d="M60.41,8.08 C60.49,8.03 60.56,8.00 60.65,8.00" fill="currentColor" stroke="currentColor" stroke-width="1.2" stroke-linecap="round" stroke-linejoin="round" />
  <path d="M62.22,8.00 C62.82,8.00 63.33,8.08 63.75,8.23" fill="currentColor" stroke="currentColor" stroke-width="1.2" stroke-linecap="round" stroke-linejoin="round" />
  <path d="M60.30,8.38 C60.30,8.24 60.34,8.14 60.41,8.08" fill="currentColor" stroke="currentColor" stroke-width="1.2" stroke-linecap="round" stroke-linejoin="round" />
  <path d="M63.75,8.23 C64.16,8.39 64.51,8.61 64.79,8.90" fill="currentColor" stroke="currentColor" stroke-width="1.2" stroke-linecap="round" stroke-linejoin="round" />
  <line x1="62.17" y1="8.77" x2="61.23" y2="8.77" fill="currentColor" stroke="currentColor" stroke-width="1.2" stroke-linecap="round" stroke-linejoin="round" />
  <path d="M63.34,8.97 C63.04,8.83 62.64,8.77 62.17,8.77" fill="currentColor" stroke="currentColor" stroke-width="1.2" stroke-linecap="round" stroke-linejoin="round" />
  <path d="M64.10,9.52 C63.90,9.28 63.65,9.10 63.34,8.97" fill="currentColor" stroke="currentColor" stroke-width="1.2" stroke-linecap="round" stroke-linejoin="round" />
  <path d="M64.79,8.90 C65.07,9.20 65.28,9.55 65.43,9.97" fill="currentColor" stroke="currentColor" stroke-width="1.2" stroke-linecap="round" stroke-linejoin="round" />
  <path d="M64.53,10.36 C64.44,10.04 64.30,9.76 64.10,9.52" fill="currentColor" stroke="currentColor" stroke-width="1.2" stroke-linecap="round" stroke-linejoin="round" />
  <path d="M65.43,9.97 C65.57,10.38 65.65,10.85 65.65,11.37" fill="currentColor" stroke="currentColor" stroke-width="1.2" stroke-linecap="round" stroke-linejoin="round" />
  <path d="M64.67,11.41 C64.67,11.04 64.63,10.68 64.53,10.36" fill="currentColor" stroke="currentColor" stroke-width="1.2" stroke-linecap="round" stroke-linejoin="round" />
  <line x1="61.23" y1="8.77" x2="61.23" y2="14.18" fill="currentColor" stroke="currentColor" stroke-width="1.2" stroke-linecap="round" stroke-linejoin="round" />
  <line x1="60.30" y1="14.57" x2="60.30" y2="8.38" fill="currentColor" stroke="currentColor" stroke-width="1.2" stroke-linecap="round" stroke-linejoin="round" />
  <path d="M64.52,12.64 C64.62,12.29 64.67,11.88 64.67,11.41" fill="currentColor" stroke="currentColor" stroke-width="1.2" stroke-linecap="round" stroke-linejoin="round" />
  <path d="M65.65,11.37 C65.65,11.97 65.57,12.50 65.42,12.95" fill="currentColor" stroke="currentColor" stroke-width="1.2" stroke-linecap="round" stroke-linejoin="round" />
  <path d="M64.06,13.50 C64.27,13.27 64.42,12.98 64.52,12.64" fill="currentColor" stroke="currentColor" stroke-width="1.2" stroke-linecap="round" stroke-linejoin="round" />
  <path d="M65.42,12.95 C65.26,13.40 65.04,13.77 64.74,14.07" fill="currentColor" stroke="currentColor" stroke-width="1.2" stroke-linecap="round" stroke-linejoin="round" />
  <path d="M63.30,14.01 C63.60,13.90 63.86,13.73 64.06,13.50" fill="currentColor" stroke="currentColor" stroke-width="1.2" stroke-linecap="round" stroke-linejoin="round" />
  <path d="M62.18,14.18 C62.62,14.18 62.99,14.12 63.30,14.01" fill="currentColor" stroke="currentColor" stroke-width="1.2" stroke-linecap="round" stroke-linejoin="round" />
  <line x1="61.23" y1="14.18" x2="62.18" y2="14.18" fill="currentColor" stroke="currentColor" stroke-width="1.2" stroke-linecap="round" stroke-linejoin="round" />
  <path d="M64.74,14.07 C64.44,14.36 64.08,14.58 63.65,14.73" fill="currentColor" stroke="currentColor" stroke-width="1.2" stroke-linecap="round" stroke-linejoin="round" />
  <path d="M60.41,14.87 C60.34,14.81 60.30,14.71 60.30,14.57" fill="currentColor" stroke="currentColor" stroke-width="1.2" stroke-linecap="round" stroke-linejoin="round" />
  <path d="M63.65,14.73 C63.22,14.88 62.71,14.95 62.12,14.95" fill="currentColor" stroke="currentColor" stroke-width="1.2" stroke-linecap="round" stroke-linejoin="round" />
  <path d="M60.65,14.95 C60.56,14.95 60.49,14.92 60.41,14.87" fill="currentColor" stroke="currentColor" stroke-width="1.2" stroke-linecap="round" stroke-linejoin="round" />
  <line x1="62.12" y1="14.95" x2="60.65" y2="14.95" fill="currentColor" stroke="currentColor" stroke-width="1.2" stroke-linecap="round" stroke-linejoin="round" />
  <line x1="111.41" y1="52.19" x2="62.97" y2="17.00" fill="none" stroke="currentColor" stroke-width="1.4000000476837158" stroke-linecap="round" stroke-linejoin="round" />
  <line x1="62.97" y1="17.00" x2="14.54" y2="52.19" fill="none" stroke="currentColor" stroke-width="1.4000000476837158" stroke-linecap="round" stroke-linejoin="round" />
  <line x1="14.96" y1="52.53" x2="63.51" y2="17.18" fill="none" stroke="currentColor" stroke-width="1.6" stroke-linecap="round" stroke-linejoin="round" />
  <path d="M116.76,48.50 C116.96,48.50 117.16,48.52 117.35,48.56" fill="currentColor" stroke="currentColor" stroke-width="1.2" stroke-linecap="round" stroke-linejoin="round" />
  <line x1="8.34" y1="48.59" x2="11.64" y2="48.59" fill="currentColor" stroke="currentColor" stroke-width="1.2" stroke-linecap="round" stroke-linejoin="round" />
  <path d="M11.64,48.59 C11.67,48.59 11.70,48.59 11.72,48.61" fill="currentColor" stroke="currentColor" stroke-width="1.2" stroke-linecap="round" stroke-linejoin="round" />
  <path d="M115.52,48.75 C115.89,48.58 116.31,48.50 116.76,48.50" fill="currentColor" stroke="currentColor" stroke-width="1.2" stroke-linecap="round" stroke-linejoin="round" />
  <path d="M8.11,48.67 C8.18,48.61 8.26,48.59 8.34,48.59" fill="currentColor" stroke="currentColor" stroke-width="1.2" stroke-linecap="round" stroke-linejoin="round" />
  <path d="M117.35,48.56 C117.53,48.59 117.71,48.64 117.87,48.70" fill="currentColor" stroke="currentColor" stroke-width="1.2" stroke-linecap="round" stroke-linejoin="round" />
  <path d="M11.72,48.61 C11.74,48.62 11.76,48.64 11.78,48.68" fill="currentColor" stroke="currentColor" stroke-width="1.2" stroke-linecap="round" stroke-linejoin="round" />
  <path d="M11.78,48.68 C11.79,48.71 11.80,48.75 11.81,48.80" fill="currentColor" stroke="currentColor" stroke-width="1.2" stroke-linecap="round" stroke-linejoin="round" />
  <path d="M117.87,48.70 C118.03,48.76 118.18,48.82 118.30,48.90" fill="currentColor" stroke="currentColor" stroke-width="1.2" stroke-linecap="round" stroke-linejoin="round" />
  <path d="M8.00,48.96 C8.00,48.82 8.04,48.72 8.11,48.67" fill="currentColor" stroke="currentColor" stroke-width="1.2" stroke-linecap="round" stroke-linejoin="round" />
  <path d="M11.81,48.80 C11.82,48.85 11.82,48.91 11.82,48.98" fill="currentColor" stroke="currentColor" stroke-width="1.2" stroke-linecap="round" stroke-linejoin="round" />
  <path d="M118.30,48.90 C118.43,48.97 118.51,49.03 118.56,49.08" fill="currentColor" stroke="currentColor" stroke-width="1.2" stroke-linecap="round" stroke-linejoin="round" />
  <path d="M11.82,48.98 C11.82,49.04 11.82,49.10 11.81,49.15" fill="currentColor" stroke="currentColor" stroke-width="1.2" stroke-linecap="round" stroke-linejoin="round" />
  <path d="M114.55,49.46 C114.82,49.15 115.14,48.91 115.52,48.75" fill="currentColor" stroke="currentColor" stroke-width="1.2" stroke-linecap="round" stroke-linejoin="round" />
  <path d="M118.56,49.08 C118.61,49.13 118.64,49.17 118.66,49.19" fill="currentColor" stroke="currentColor" stroke-width="1.2" stroke-linecap="round" stroke-linejoin="round" />
  <path d="M11.81,49.15 C11.80,49.20 11.79,49.23 11.78,49.27" fill="currentColor" stroke="currentColor" stroke-width="1.2" stroke-linecap="round" stroke-linejoin="round" />
  <path d="M118.66,49.19 C118.67,49.22 118.68,49.25 118.69,49.28" fill="currentColor" stroke="currentColor" stroke-width="1.2" stroke-linecap="round" stroke-linejoin="round" />
  <path d="M11.78,49.27 C11.76,49.30 11.74,49.32 11.72,49.33" fill="currentColor" stroke="currentColor" stroke-width="1.2" stroke-linecap="round" stroke-linejoin="round" />
  <path d="M118.69,49.28 C118.70,49.32 118.71,49.36 118.71,49.40" fill="currentColor" stroke="currentColor" stroke-width="1.2" stroke-linecap="round" stroke-linejoin="round" />
  <path d="M11.72,49.33 C11.70,49.35 11.67,49.35 11.64,49.35" fill="currentColor" stroke="currentColor" stroke-width="1.2" stroke-linecap="round" stroke-linejoin="round" />
  <line x1="11.64" y1="49.35" x2="8.92" y2="49.35" fill="currentColor" stroke="currentColor" stroke-width="1.2" stroke-linecap="round" stroke-linejoin="round" />
  <path d="M117.48,49.41 C117.28,49.34 117.04,49.31 116.75,49.31" fill="currentColor" stroke="currentColor" stroke-width="1.2" stroke-linecap="round" stroke-linejoin="round" />
  <path d="M116.75,49.31 C116.45,49.31 116.17,49.37 115.91,49.49" fill="currentColor" stroke="currentColor" stroke-width="1.2" stroke-linecap="round" stroke-linejoin="round" />
  <path d="M118.71,49.40 C118.72,49.45 118.72,49.50 118.72,49.57" fill="currentColor" stroke="currentColor" stroke-width="1.2" stroke-linecap="round" stroke-linejoin="round" />
  <path d="M118.00,49.64 C117.86,49.56 117.69,49.48 117.48,49.41" fill="currentColor" stroke="currentColor" stroke-width="1.2" stroke-linecap="round" stroke-linejoin="round" />
  <path d="M118.72,49.57 C118.72,49.64 118.72,49.70 118.71,49.75" fill="currentColor" stroke="currentColor" stroke-width="1.2" stroke-linecap="round" stroke-linejoin="round" />
  <path d="M118.34,49.87 C118.25,49.80 118.14,49.73 118.00,49.64" fill="currentColor" stroke="currentColor" stroke-width="1.2" stroke-linecap="round" stroke-linejoin="round" />
  <path d="M115.91,49.49 C115.66,49.61 115.45,49.80 115.27,50.04" fill="currentColor" stroke="currentColor" stroke-width="1.2" stroke-linecap="round" stroke-linejoin="round" />
  <path d="M118.71,49.75 C118.70,49.80 118.69,49.84 118.68,49.88" fill="currentColor" stroke="currentColor" stroke-width="1.2" stroke-linecap="round" stroke-linejoin="round" />
  <path d="M118.68,49.88 C118.66,49.91 118.65,49.94 118.63,49.95" fill="currentColor" stroke="currentColor" stroke-width="1.2" stroke-linecap="round" stroke-linejoin="round" />
  <path d="M118.55,49.98 C118.50,49.98 118.43,49.94 118.34,49.87" fill="currentColor" stroke="currentColor" stroke-width="1.2" stroke-linecap="round" stroke-linejoin="round" />
  <path d="M118.63,49.95 C118.61,49.97 118.58,49.98 118.55,49.98" fill="currentColor" stroke="currentColor" stroke-width="1.2" stroke-linecap="round" stroke-linejoin="round" />
  <path d="M113.93,50.61 C114.08,50.16 114.28,49.78 114.55,49.46" fill="currentColor" stroke="currentColor" stroke-width="1.2" stroke-linecap="round" stroke-linejoin="round" />
  <line x1="8.92" y1="49.35" x2="8.92" y2="51.53" fill="currentColor" stroke="currentColor" stroke-width="1.2" stroke-linecap="round" stroke-linejoin="round" />
  <path d="M115.27,50.04 C115.09,50.28 114.95,50.57 114.85,50.91" fill="currentColor" stroke="currentColor" stroke-width="1.2" stroke-linecap="round" stroke-linejoin="round" />
  <path d="M113.70,52.15 C113.70,51.58 113.78,51.06 113.93,50.61" fill="currentColor" stroke="currentColor" stroke-width="1.2" stroke-linecap="round" stroke-linejoin="round" />
  <path d="M114.85,50.91 C114.75,51.26 114.70,51.65 114.70,52.10" fill="currentColor" stroke="currentColor" stroke-width="1.2" stroke-linecap="round" stroke-linejoin="round" />
  <line x1="8.92" y1="51.53" x2="11.25" y2="51.53" fill="currentColor" stroke="currentColor" stroke-width="1.2" stroke-linecap="round" stroke-linejoin="round" />
  <path d="M11.25,51.53 C11.28,51.53 11.31,51.54 11.33,51.56" fill="currentColor" stroke="currentColor" stroke-width="1.2" stroke-linecap="round" stroke-linejoin="round" />
  <path d="M11.33,51.56 C11.36,51.57 11.37,51.60 11.39,51.63" fill="currentColor" stroke="currentColor" stroke-width="1.2" stroke-linecap="round" stroke-linejoin="round" />
  <path d="M11.39,51.63 C11.41,51.65 11.42,51.69 11.43,51.74" fill="currentColor" stroke="currentColor" stroke-width="1.2" stroke-linecap="round" stroke-linejoin="round" />
  <path d="M11.43,51.74 C11.43,51.79 11.44,51.85 11.44,51.92" fill="currentColor" stroke="currentColor" stroke-width="1.2" stroke-linecap="round" stroke-linejoin="round" />
  <path d="M11.44,51.92 C11.44,51.99 11.43,52.04 11.43,52.09" fill="currentColor" stroke="currentColor" stroke-width="1.2" stroke-linecap="round" stroke-linejoin="round" />
  <line x1="8.00" y1="55.16" x2="8.00" y2="48.96" fill="currentColor" stroke="currentColor" stroke-width="1.2" stroke-linecap="round" stroke-linejoin="round" />
  <path d="M11.43,52.09 C11.42,52.13 11.41,52.17 11.39,52.20" fill="currentColor" stroke="currentColor" stroke-width="1.2" stroke-linecap="round" stroke-linejoin="round" />
  <path d="M11.39,52.20 C11.37,52.23 11.36,52.25 11.33,52.26" fill="currentColor" stroke="currentColor" stroke-width="1.2" stroke-linecap="round" stroke-linejoin="round" />
  <path d="M11.33,52.26 C11.31,52.27 11.28,52.28 11.25,52.28" fill="currentColor" stroke="currentColor" stroke-width="1.2" stroke-linecap="round" stroke-linejoin="round" />
  <line x1="11.25" y1="52.28" x2="8.92" y2="52.28" fill="currentColor" stroke="currentColor" stroke-width="1.2" stroke-linecap="round" stroke-linejoin="round" />
  <path d="M114.70,52.10 C114.70,52.54 114.75,52.93 114.85,53.27" fill="currentColor" stroke="currentColor" stroke-width="1.2" stroke-linecap="round" stroke-linejoin="round" />
  <path d="M113.91,53.64 C113.77,53.21 113.70,52.71 113.70,52.15" fill="currentColor" stroke="currentColor" stroke-width="1.2" stroke-linecap="round" stroke-linejoin="round" />
  <line x1="8.92" y1="52.28" x2="8.92" y2="54.77" fill="currentColor" stroke="currentColor" stroke-width="1.2" stroke-linecap="round" stroke-linejoin="round" />
  <path d="M114.85,53.27 C114.94,53.60 115.08,53.89 115.25,54.11" fill="currentColor" stroke="currentColor" stroke-width="1.2" stroke-linecap="round" stroke-linejoin="round" />
  <path d="M118.61,54.14 C118.63,54.14 118.65,54.15 118.67,54.16" fill="currentColor" stroke="currentColor" stroke-width="1.2" stroke-linecap="round" stroke-linejoin="round" />
  <path d="M114.50,54.73 C114.25,54.44 114.05,54.07 113.91,53.64" fill="currentColor" stroke="currentColor" stroke-width="1.2" stroke-linecap="round" stroke-linejoin="round" />
  <path d="M118.67,54.16 C118.69,54.17 118.70,54.19 118.72,54.22" fill="currentColor" stroke="currentColor" stroke-width="1.2" stroke-linecap="round" stroke-linejoin="round" />
  <path d="M118.39,54.25 C118.48,54.18 118.55,54.14 118.61,54.14" fill="currentColor" stroke="currentColor" stroke-width="1.2" stroke-linecap="round" stroke-linejoin="round" />
  <path d="M118.72,54.22 C118.73,54.25 118.73,54.29 118.74,54.35" fill="currentColor" stroke="currentColor" stroke-width="1.2" stroke-linecap="round" stroke-linejoin="round" />
  <path d="M118.03,54.47 C118.17,54.39 118.29,54.31 118.39,54.25" fill="currentColor" stroke="currentColor" stroke-width="1.2" stroke-linecap="round" stroke-linejoin="round" />
  <path d="M115.25,54.11 C115.43,54.34 115.65,54.51 115.91,54.63" fill="currentColor" stroke="currentColor" stroke-width="1.2" stroke-linecap="round" stroke-linejoin="round" />
  <path d="M118.74,54.35 C118.74,54.40 118.75,54.47 118.75,54.55" fill="currentColor" stroke="currentColor" stroke-width="1.2" stroke-linecap="round" stroke-linejoin="round" />
  <path d="M117.50,54.70 C117.71,54.64 117.89,54.56 118.03,54.47" fill="currentColor" stroke="currentColor" stroke-width="1.2" stroke-linecap="round" stroke-linejoin="round" />
  <path d="M118.75,54.55 C118.75,54.61 118.75,54.66 118.74,54.70" fill="currentColor" stroke="currentColor" stroke-width="1.2" stroke-linecap="round" stroke-linejoin="round" />
  <path d="M115.91,54.63 C116.16,54.75 116.46,54.80 116.78,54.81" fill="currentColor" stroke="currentColor" stroke-width="1.2" stroke-linecap="round" stroke-linejoin="round" />
  <path d="M116.78,54.81 C117.06,54.80 117.30,54.77 117.50,54.70" fill="currentColor" stroke="currentColor" stroke-width="1.2" stroke-linecap="round" stroke-linejoin="round" />
  <path d="M118.74,54.70 C118.74,54.75 118.73,54.78 118.72,54.82" fill="currentColor" stroke="currentColor" stroke-width="1.2" stroke-linecap="round" stroke-linejoin="round" />
  <line x1="8.92" y1="54.77" x2="11.68" y2="54.77" fill="currentColor" stroke="currentColor" stroke-width="1.2" stroke-linecap="round" stroke-linejoin="round" />
  <path d="M11.68,54.77 C11.71,54.77 11.73,54.77 11.76,54.79" fill="currentColor" stroke="currentColor" stroke-width="1.2" stroke-linecap="round" stroke-linejoin="round" />
  <path d="M11.76,54.79 C11.78,54.80 11.80,54.83 11.82,54.86" fill="currentColor" stroke="currentColor" stroke-width="1.2" stroke-linecap="round" stroke-linejoin="round" />
  <path d="M118.72,54.82 C118.71,54.85 118.70,54.88 118.69,54.90" fill="currentColor" stroke="currentColor" stroke-width="1.2" stroke-linecap="round" stroke-linejoin="round" />
  <path d="M11.82,54.86 C11.84,54.89 11.85,54.93 11.86,54.97" fill="currentColor" stroke="currentColor" stroke-width="1.2" stroke-linecap="round" stroke-linejoin="round" />
  <path d="M118.69,54.90 C118.67,54.93 118.65,54.96 118.61,54.99" fill="currentColor" stroke="currentColor" stroke-width="1.2" stroke-linecap="round" stroke-linejoin="round" />
  <path d="M115.43,55.40 C115.07,55.25 114.76,55.02 114.50,54.73" fill="currentColor" stroke="currentColor" stroke-width="1.2" stroke-linecap="round" stroke-linejoin="round" />
  <path d="M11.86,54.97 C11.86,55.02 11.87,55.08 11.87,55.15" fill="currentColor" stroke="currentColor" stroke-width="1.2" stroke-linecap="round" stroke-linejoin="round" />
  <path d="M118.61,54.99 C118.58,55.03 118.50,55.08 118.39,55.16" fill="currentColor" stroke="currentColor" stroke-width="1.2" stroke-linecap="round" stroke-linejoin="round" />
  <path d="M11.87,55.15 C11.87,55.22 11.86,55.28 11.86,55.32" fill="currentColor" stroke="currentColor" stroke-width="1.2" stroke-linecap="round" stroke-linejoin="round" />
  <path d="M118.39,55.16 C118.27,55.23 118.13,55.30 117.96,55.37" fill="currentColor" stroke="currentColor" stroke-width="1.2" stroke-linecap="round" stroke-linejoin="round" />
  <path d="M8.11,55.45 C8.04,55.40 8.00,55.30 8.00,55.16" fill="currentColor" stroke="currentColor" stroke-width="1.2" stroke-linecap="round" stroke-linejoin="round" />
  <path d="M11.86,55.32 C11.85,55.37 11.84,55.41 11.82,55.44" fill="currentColor" stroke="currentColor" stroke-width="1.2" stroke-linecap="round" stroke-linejoin="round" />
  <path d="M117.96,55.37 C117.79,55.44 117.60,55.50 117.38,55.55" fill="currentColor" stroke="currentColor" stroke-width="1.2" stroke-linecap="round" stroke-linejoin="round" />
  <path d="M11.82,55.44 C11.80,55.48 11.78,55.50 11.76,55.51" fill="currentColor" stroke="currentColor" stroke-width="1.2" stroke-linecap="round" stroke-linejoin="round" />
  <path d="M8.34,55.54 C8.26,55.54 8.18,55.51 8.11,55.45" fill="currentColor" stroke="currentColor" stroke-width="1.2" stroke-linecap="round" stroke-linejoin="round" />
  <path d="M116.65,55.62 C116.20,55.62 115.79,55.55 115.43,55.40" fill="currentColor" stroke="currentColor" stroke-width="1.2" stroke-linecap="round" stroke-linejoin="round" />
  <path d="M11.76,55.51 C11.73,55.53 11.71,55.54 11.68,55.54" fill="currentColor" stroke="currentColor" stroke-width="1.2" stroke-linecap="round" stroke-linejoin="round" />
  <line x1="11.68" y1="55.54" x2="8.34" y2="55.54" fill="currentColor" stroke="currentColor" stroke-width="1.2" stroke-linecap="round" stroke-linejoin="round" />
  <path d="M117.38,55.55 C117.16,55.60 116.91,55.62 116.65,55.62" fill="currentColor" stroke="currentColor" stroke-width="1.2" stroke-linecap="round" stroke-linejoin="round" />
  <line x1="93.31" y1="108.72" x2="14.96" y2="52.53" fill="none" stroke="currentColor" stroke-width="1.6" stroke-linecap="round" stroke-linejoin="round" />
  <line x1="92.91" y1="109.13" x2="111.41" y2="52.19" fill="none" stroke="currentColor" stroke-width="1.4000000476837158" stroke-linecap="round" stroke-linejoin="round" />
  <line x1="14.54" y1="52.19" x2="33.04" y2="109.13" fill="none" stroke="currentColor" stroke-width="1.4000000476837158" stroke-linecap="round" stroke-linejoin="round" />
  <path d="M27.52,105.63 C27.59,105.63 27.68,105.62 27.79,105.62" fill="currentColor" stroke="currentColor" stroke-width="1.2" stroke-linecap="round" stroke-linejoin="round" />
  <path d="M27.79,105.62 C27.90,105.62 28.00,105.63 28.07,105.63" fill="currentColor" stroke="currentColor" stroke-width="1.2" stroke-linecap="round" stroke-linejoin="round" />
  <path d="M27.35,105.66 C27.40,105.65 27.45,105.64 27.52,105.63" fill="currentColor" stroke="currentColor" stroke-width="1.2" stroke-linecap="round" stroke-linejoin="round" />
  <path d="M28.07,105.63 C28.15,105.64 28.21,105.65 28.26,105.66" fill="currentColor" stroke="currentColor" stroke-width="1.2" stroke-linecap="round" stroke-linejoin="round" />
  <line x1="97.59" y1="105.66" x2="99.17" y2="105.66" fill="currentColor" stroke="currentColor" stroke-width="1.2" stroke-linecap="round" stroke-linejoin="round" />
  <path d="M27.25,105.72 C27.27,105.70 27.31,105.68 27.35,105.66" fill="currentColor" stroke="currentColor" stroke-width="1.2" stroke-linecap="round" stroke-linejoin="round" />
  <path d="M28.26,105.66 C28.30,105.68 28.34,105.70 28.36,105.72" fill="currentColor" stroke="currentColor" stroke-width="1.2" stroke-linecap="round" stroke-linejoin="round" />
  <path d="M97.36,105.74 C97.43,105.68 97.51,105.66 97.59,105.66" fill="currentColor" stroke="currentColor" stroke-width="1.2" stroke-linecap="round" stroke-linejoin="round" />
  <path d="M99.17,105.66 C99.59,105.66 99.93,105.70 100.19,105.77" fill="currentColor" stroke="currentColor" stroke-width="1.2" stroke-linecap="round" stroke-linejoin="round" />
  <path d="M27.19,105.82 C27.21,105.78 27.23,105.75 27.25,105.72" fill="currentColor" stroke="currentColor" stroke-width="1.2" stroke-linecap="round" stroke-linejoin="round" />
  <path d="M28.36,105.72 C28.39,105.75 28.41,105.78 28.42,105.82" fill="currentColor" stroke="currentColor" stroke-width="1.2" stroke-linecap="round" stroke-linejoin="round" />
  <path d="M97.25,106.03 C97.25,105.89 97.29,105.79 97.36,105.74" fill="currentColor" stroke="currentColor" stroke-width="1.2" stroke-linecap="round" stroke-linejoin="round" />
  <path d="M100.19,105.77 C100.46,105.85 100.68,105.97 100.86,106.12" fill="currentColor" stroke="currentColor" stroke-width="1.2" stroke-linecap="round" stroke-linejoin="round" />
  <path d="M100.86,106.12 C101.03,106.27 101.17,106.45 101.26,106.67" fill="currentColor" stroke="currentColor" stroke-width="1.2" stroke-linecap="round" stroke-linejoin="round" />
  <line x1="99.12" y1="106.41" x2="98.16" y2="106.41" fill="currentColor" stroke="currentColor" stroke-width="1.2" stroke-linecap="round" stroke-linejoin="round" />
  <path d="M99.76,106.48 C99.60,106.43 99.38,106.41 99.12,106.41" fill="currentColor" stroke="currentColor" stroke-width="1.2" stroke-linecap="round" stroke-linejoin="round" />
  <line x1="27.76" y1="106.58" x2="27.76" y2="106.58" fill="currentColor" stroke="currentColor" stroke-width="1.2" stroke-linecap="round" stroke-linejoin="round" />
  <path d="M100.15,106.70 C100.05,106.61 99.92,106.53 99.76,106.48" fill="currentColor" stroke="currentColor" stroke-width="1.2" stroke-linecap="round" stroke-linejoin="round" />
  <path d="M100.37,107.05 C100.32,106.91 100.25,106.80 100.15,106.70" fill="currentColor" stroke="currentColor" stroke-width="1.2" stroke-linecap="round" stroke-linejoin="round" />
  <path d="M101.26,106.67 C101.35,106.89 101.39,107.14 101.39,107.41" fill="currentColor" stroke="currentColor" stroke-width="1.2" stroke-linecap="round" stroke-linejoin="round" />
  <path d="M100.44,107.50 C100.44,107.33 100.42,107.18 100.37,107.05" fill="currentColor" stroke="currentColor" stroke-width="1.2" stroke-linecap="round" stroke-linejoin="round" />
  <line x1="98.16" y1="106.41" x2="98.16" y2="108.66" fill="currentColor" stroke="currentColor" stroke-width="1.2" stroke-linecap="round" stroke-linejoin="round" />
  <path d="M101.39,107.41 C101.39,107.58 101.37,107.73 101.33,107.88" fill="currentColor" stroke="currentColor" stroke-width="1.2" stroke-linecap="round" stroke-linejoin="round" />
  <path d="M100.37,107.94 C100.42,107.80 100.44,107.65 100.44,107.50" fill="currentColor" stroke="currentColor" stroke-width="1.2" stroke-linecap="round" stroke-linejoin="round" />
  <path d="M101.33,107.88 C101.29,108.03 101.23,108.17 101.16,108.30" fill="currentColor" stroke="currentColor" stroke-width="1.2" stroke-linecap="round" stroke-linejoin="round" />
  <path d="M100.16,108.31 C100.26,108.21 100.33,108.08 100.37,107.94" fill="currentColor" stroke="currentColor" stroke-width="1.2" stroke-linecap="round" stroke-linejoin="round" />
  <line x1="27.76" y1="106.58" x2="26.56" y2="110.04" fill="currentColor" stroke="currentColor" stroke-width="1.2" stroke-linecap="round" stroke-linejoin="round" />
  <line x1="28.98" y1="110.04" x2="27.76" y2="106.58" fill="currentColor" stroke="currentColor" stroke-width="1.2" stroke-linecap="round" stroke-linejoin="round" />
  <path d="M99.80,108.56 C99.94,108.50 100.06,108.42 100.16,108.31" fill="currentColor" stroke="currentColor" stroke-width="1.2" stroke-linecap="round" stroke-linejoin="round" />
  <path d="M101.16,108.30 C101.08,108.43 100.98,108.54 100.87,108.64" fill="currentColor" stroke="currentColor" stroke-width="1.2" stroke-linecap="round" stroke-linejoin="round" />
  <path d="M99.22,108.66 C99.46,108.66 99.65,108.63 99.80,108.56" fill="currentColor" stroke="currentColor" stroke-width="1.2" stroke-linecap="round" stroke-linejoin="round" />
  <line x1="32.54" y1="108.58" x2="93.31" y2="108.72" fill="none" stroke="currentColor" stroke-width="1.6" stroke-linecap="round" stroke-linejoin="round" />
  <line x1="98.16" y1="108.66" x2="99.22" y2="108.66" fill="currentColor" stroke="currentColor" stroke-width="1.2" stroke-linecap="round" stroke-linejoin="round" />
  <path d="M100.87,108.64 C100.75,108.74 100.62,108.82 100.47,108.89" fill="currentColor" stroke="currentColor" stroke-width="1.2" stroke-linecap="round" stroke-linejoin="round" />
  <path d="M100.47,108.89 C100.66,108.92 100.83,108.99 101.00,109.08" fill="currentColor" stroke="currentColor" stroke-width="1.2" stroke-linecap="round" stroke-linejoin="round" />
  <line x1="24.86" y1="112.27" x2="27.19" y2="105.82" fill="currentColor" stroke="currentColor" stroke-width="1.2" stroke-linecap="round" stroke-linejoin="round" />
  <line x1="28.42" y1="105.82" x2="30.75" y2="112.28" fill="currentColor" stroke="currentColor" stroke-width="1.2" stroke-linecap="round" stroke-linejoin="round" />
  <line x1="33.04" y1="109.13" x2="92.91" y2="109.13" fill="none" stroke="currentColor" stroke-width="1.4000000476837158" stroke-linecap="round" stroke-linejoin="round" />
  <line x1="97.25" y1="112.23" x2="97.25" y2="106.03" fill="currentColor" stroke="currentColor" stroke-width="1.2" stroke-linecap="round" stroke-linejoin="round" />
  <path d="M101.00,109.08 C101.16,109.18 101.31,109.30 101.43,109.45" fill="currentColor" stroke="currentColor" stroke-width="1.2" stroke-linecap="round" stroke-linejoin="round" />
  <line x1="99.27" y1="109.39" x2="98.16" y2="109.39" fill="currentColor" stroke="currentColor" stroke-width="1.2" stroke-linecap="round" stroke-linejoin="round" />
  <path d="M99.99,109.48 C99.80,109.42 99.56,109.39 99.27,109.39" fill="currentColor" stroke="currentColor" stroke-width="1.2" stroke-linecap="round" stroke-linejoin="round" />
  <path d="M100.47,109.72 C100.34,109.61 100.18,109.53 99.99,109.48" fill="currentColor" stroke="currentColor" stroke-width="1.2" stroke-linecap="round" stroke-linejoin="round" />
  <path d="M101.43,109.45 C101.56,109.59 101.65,109.77 101.72,109.96" fill="currentColor" stroke="currentColor" stroke-width="1.2" stroke-linecap="round" stroke-linejoin="round" />
  <path d="M100.76,110.12 C100.69,109.96 100.60,109.83 100.47,109.72" fill="currentColor" stroke="currentColor" stroke-width="1.2" stroke-linecap="round" stroke-linejoin="round" />
  <line x1="26.56" y1="110.04" x2="28.98" y2="110.04" fill="currentColor" stroke="currentColor" stroke-width="1.2" stroke-linecap="round" stroke-linejoin="round" />
  <path d="M101.72,109.96 C101.80,110.16 101.83,110.38 101.83,110.61" fill="currentColor" stroke="currentColor" stroke-width="1.2" stroke-linecap="round" stroke-linejoin="round" />
  <path d="M100.86,110.67 C100.86,110.46 100.83,110.28 100.76,110.12" fill="currentColor" stroke="currentColor" stroke-width="1.2" stroke-linecap="round" stroke-linejoin="round" />
  <line x1="98.16" y1="109.39" x2="98.16" y2="111.84" fill="currentColor" stroke="currentColor" stroke-width="1.2" stroke-linecap="round" stroke-linejoin="round" />
  <line x1="29.22" y1="110.78" x2="26.33" y2="110.78" fill="currentColor" stroke="currentColor" stroke-width="1.2" stroke-linecap="round" stroke-linejoin="round" />
  <path d="M101.83,110.61 C101.83,110.83 101.80,111.03 101.75,111.22" fill="currentColor" stroke="currentColor" stroke-width="1.2" stroke-linecap="round" stroke-linejoin="round" />
  <path d="M100.76,111.18 C100.83,111.03 100.86,110.86 100.86,110.67" fill="currentColor" stroke="currentColor" stroke-width="1.2" stroke-linecap="round" stroke-linejoin="round" />
  <path d="M100.47,111.54 C100.60,111.45 100.69,111.32 100.76,111.18" fill="currentColor" stroke="currentColor" stroke-width="1.2" stroke-linecap="round" stroke-linejoin="round" />
  <path d="M101.75,111.22 C101.69,111.40 101.61,111.57 101.51,111.71" fill="currentColor" stroke="currentColor" stroke-width="1.2" stroke-linecap="round" stroke-linejoin="round" />
  <line x1="26.33" y1="110.78" x2="25.76" y2="112.45" fill="currentColor" stroke="currentColor" stroke-width="1.2" stroke-linecap="round" stroke-linejoin="round" />
  <line x1="29.81" y1="112.47" x2="29.22" y2="110.78" fill="currentColor" stroke="currentColor" stroke-width="1.2" stroke-linecap="round" stroke-linejoin="round" />
  <path d="M100.06,111.77 C100.22,111.72 100.36,111.64 100.47,111.54" fill="currentColor" stroke="currentColor" stroke-width="1.2" stroke-linecap="round" stroke-linejoin="round" />
  <path d="M99.51,111.84 C99.72,111.84 99.90,111.82 100.06,111.77" fill="currentColor" stroke="currentColor" stroke-width="1.2" stroke-linecap="round" stroke-linejoin="round" />
  <line x1="98.16" y1="111.84" x2="99.51" y2="111.84" fill="currentColor" stroke="currentColor" stroke-width="1.2" stroke-linecap="round" stroke-linejoin="round" />
  <path d="M101.51,111.71 C101.41,111.86 101.29,111.99 101.15,112.10" fill="currentColor" stroke="currentColor" stroke-width="1.2" stroke-linecap="round" stroke-linejoin="round" />
  <path d="M101.15,112.10 C101.01,112.21 100.85,112.30 100.67,112.38" fill="currentColor" stroke="currentColor" stroke-width="1.2" stroke-linecap="round" stroke-linejoin="round" />
  <path d="M24.82,112.46 C24.82,112.41 24.83,112.35 24.86,112.27" fill="currentColor" stroke="currentColor" stroke-width="1.2" stroke-linecap="round" stroke-linejoin="round" />
  <path d="M30.75,112.28 C30.78,112.36 30.80,112.42 30.80,112.47" fill="currentColor" stroke="currentColor" stroke-width="1.2" stroke-linecap="round" stroke-linejoin="round" />
  <path d="M97.36,112.52 C97.29,112.47 97.25,112.37 97.25,112.23" fill="currentColor" stroke="currentColor" stroke-width="1.2" stroke-linecap="round" stroke-linejoin="round" />
  <path d="M100.67,112.38 C100.50,112.46 100.31,112.51 100.10,112.55" fill="currentColor" stroke="currentColor" stroke-width="1.2" stroke-linecap="round" stroke-linejoin="round" />
  <path d="M25.76,112.45 C25.75,112.48 25.73,112.51 25.72,112.53" fill="currentColor" stroke="currentColor" stroke-width="1.2" stroke-linecap="round" stroke-linejoin="round" />
  <path d="M29.86,112.55 C29.84,112.53 29.83,112.50 29.81,112.47" fill="currentColor" stroke="currentColor" stroke-width="1.2" stroke-linecap="round" stroke-linejoin="round" />
  <path d="M24.85,112.57 C24.83,112.55 24.82,112.51 24.82,112.46" fill="currentColor" stroke="currentColor" stroke-width="1.2" stroke-linecap="round" stroke-linejoin="round" />
  <path d="M30.80,112.47 C30.80,112.52 30.79,112.55 30.76,112.58" fill="currentColor" stroke="currentColor" stroke-width="1.2" stroke-linecap="round" stroke-linejoin="round" />
  <path d="M25.72,112.53 C25.70,112.56 25.67,112.58 25.64,112.59" fill="currentColor" stroke="currentColor" stroke-width="1.2" stroke-linecap="round" stroke-linejoin="round" />
  <path d="M97.59,112.61 C97.51,112.61 97.43,112.58 97.36,112.52" fill="currentColor" stroke="currentColor" stroke-width="1.2" stroke-linecap="round" stroke-linejoin="round" />
  <path d="M29.94,112.60 C29.90,112.59 29.88,112.57 29.86,112.55" fill="currentColor" stroke="currentColor" stroke-width="1.2" stroke-linecap="round" stroke-linejoin="round" />
  <path d="M100.10,112.55 C99.90,112.59 99.67,112.61 99.41,112.61" fill="currentColor" stroke="currentColor" stroke-width="1.2" stroke-linecap="round" stroke-linejoin="round" />
  <path d="M24.99,112.62 C24.93,112.62 24.88,112.60 24.85,112.57" fill="currentColor" stroke="currentColor" stroke-width="1.2" stroke-linecap="round" stroke-linejoin="round" />
  <path d="M30.76,112.58 C30.73,112.60 30.68,112.62 30.62,112.63" fill="currentColor" stroke="currentColor" stroke-width="1.2" stroke-linecap="round" stroke-linejoin="round" />
  <line x1="99.41" y1="112.61" x2="97.59" y2="112.61" fill="currentColor" stroke="currentColor" stroke-width="1.2" stroke-linecap="round" stroke-linejoin="round" />
  <path d="M25.64,112.59 C25.60,112.61 25.56,112.62 25.49,112.63" fill="currentColor" stroke="currentColor" stroke-width="1.2" stroke-linecap="round" stroke-linejoin="round" />
  <path d="M30.08,112.63 C30.02,112.62 29.97,112.62 29.94,112.60" fill="currentColor" stroke="currentColor" stroke-width="1.2" stroke-linecap="round" stroke-linejoin="round" />
  <path d="M25.25,112.64 C25.15,112.64 25.06,112.63 24.99,112.62" fill="currentColor" stroke="currentColor" stroke-width="1.2" stroke-linecap="round" stroke-linejoin="round" />
  <path d="M30.62,112.63 C30.55,112.63 30.46,112.64 30.35,112.64" fill="currentColor" stroke="currentColor" stroke-width="1.2" stroke-linecap="round" stroke-linejoin="round" />
  <path d="M25.49,112.63 C25.43,112.63 25.35,112.64 25.25,112.64" fill="currentColor" stroke="currentColor" stroke-width="1.2" stroke-linecap="round" stroke-linejoin="round" />
  <path d="M30.35,112.64 C30.24,112.64 30.15,112.64 30.08,112.63" fill="currentColor" stroke="currentColor" stroke-width="1.2" stroke-linecap="round" stroke-linejoin="round" />
</svg>