<svg xmlns="http://www.w3.org/2000/svg" viewBox="0 0 299.50 133.22" preserveAspectRatio="xMidYMid meet" shape-rendering="geometricPrecision" text-rendering="optimizeLegibility">
  <line x1="52.29" y1="117.90" x2="52.29" y2="28.54" fill="none" stroke="currentColor" stroke-width="1.0" stroke-linecap="round" stroke-linejoin="round" />
  <line x1="18.05" y1="117.90" x2="18.05" y2="28.54" fill="none" stroke="currentColor" stroke-width="1.0" stroke-linecap="round" stroke-linejoin="round" />
  <line x1="29.46" y1="117.90" x2="29.46" y2="17.57" fill="none" stroke="currentColor" stroke-width="1.0" stroke-linecap="round" stroke-linejoin="round" />
  <line x1="40.88" y1="117.90" x2="40.88" y2="28.54" fill="none" stroke="currentColor" stroke-width="1.0" stroke-linecap="round" stroke-linejoin="round" />
  <line x1="97.95" y1="117.90" x2="97.95" y2="28.54" fill="none" stroke="currentColor" stroke-width="1.0" stroke-linecap="round" stroke-linejoin="round" />
  <line x1="75.12" y1="117.90" x2="75.12" y2="28.54" fill="none" stroke="currentColor" stroke-width="1.0" stroke-linecap="round" stroke-linejoin="round" />
  <line x1="86.53" y1="117.90" x2="86.53" y2="28.54" fill="none" stroke="currentColor" stroke-width="1.0" stroke-linecap="round" stroke-linejoin="round" />
  <line x1="63.71" y1="117.90" x2="63.71" y2="28.54" fill="none" stroke="currentColor" stroke-width="1.0" stroke-linecap="round" stroke-linejoin="round" />
  <line x1="14.44" y1="79.15" x2="101.83" y2="79.15" fill="none" stroke="currentColor" stroke-width="1.0" stroke-linecap="round" stroke-linejoin="round" />
  <line x1="14.44" y1="90.56" x2="101.83" y2="90.56" fill="none" stroke="currentColor" stroke-width="1.0" stroke-linecap="round" stroke-linejoin="round" />
  <line x1="14.44" y1="113.39" x2="101.83" y2="113.39" fill="none" stroke="currentColor" stroke-width="1.0" stroke-linecap="round" stroke-linejoin="round" />
  <line x1="14.44" y1="67.73" x2="101.83" y2="67.73" fill="none" stroke="currentColor" stroke-width="1.0" stroke-linecap="round" stroke-linejoin="round" />
  <line x1="14.44" y1="56.32" x2="101.83" y2="56.32" fill="none" stroke="currentColor" stroke-width="1.0" stroke-linecap="round" stroke-linejoin="round" />
  <line x1="14.44" y1="44.90" x2="101.83" y2="44.90" fill="none" stroke="currentColor" stroke-width="1.0" stroke-linecap="round" stroke-linejoin="round" />
  <line x1="14.44" y1="33.49" x2="101.83" y2="33.49" fill="none" stroke="currentColor" stroke-width="1.0" stroke-linecap="round" stroke-linejoin="round" />
  <path d="M24.38,15.07L23.40,15.07L21.85,18.47L21.83,18.47L21.17,15.07L20.23,15.07L21.19,19.71L19.85,22.54L20.84,22.54L24.38,15.07Z" fill="currentColor" stroke="currentColor" stroke-width="1.2" stroke-linejoin="round" />
  <path d="M111.31,106.19L110.15,106.19L108.87,107.85L108.08,106.19L107.08,106.19L108.25,108.51L106.09,111.13L107.24,111.13L108.67,109.28L109.57,111.13L110.57,111.13L109.32,108.63L111.31,106.19Z" fill="currentColor" stroke="currentColor" stroke-width="1.2" stroke-linejoin="round" />
  <line x1="8.00" y1="101.97" x2="113.16" y2="101.97" fill="none" stroke="currentColor" stroke-width="1.2" stroke-linecap="round" stroke-linejoin="round" />
  <path d="M111.81,99.28L112.71,101.98L111.81,104.68L119.91,101.98L111.81,99.28Z" fill-rule="evenodd" fill="currentColor" stroke="currentColor" stroke-width="1.2" stroke-linejoin="round" />
  <line x1="29.46" y1="125.22" x2="29.46" y2="14.75" fill="none" stroke="currentColor" stroke-width="1.2" stroke-linecap="round" stroke-linejoin="round" />
  <path d="M26.76,16.10L29.46,15.20L32.16,16.10L29.46,8.00L26.76,16.10Z" fill-rule="evenodd" fill="currentColor" stroke="currentColor" stroke-width="1.2" stroke-linejoin="round" />
  <line x1="27.21" y1="44.90" x2="31.71" y2="44.90" fill="none" stroke="currentColor" stroke-width="1.2" stroke-linecap="round" stroke-linejoin="round" />
  <line x1="86.54" y1="104.22" x2="86.54" y2="99.73" fill="none" stroke="currentColor" stroke-width="1.2" stroke-linecap="round" stroke-linejoin="round" />
  <line x1="14.44" y1="86.66" x2="101.83" y2="42.97" fill="none" stroke="currentColor" stroke-width="1.2" stroke-linecap="round" stroke-linejoin="round" />
  <path d="M84.54,112.04L84.54,105.13L84.17,105.13L81.84,107.03L82.22,107.88L83.52,106.81L83.52,112.04L84.54,112.04Z" fill="currentColor" stroke="currentColor" stroke-width="1.2" stroke-linejoin="round" />
  <path d="M90.96,108.63C90.96,108.11 90.91,107.63 90.80,107.20C90.70,106.77 90.55,106.40 90.36,106.09C90.16,105.79 89.93,105.55 89.66,105.38C89.39,105.22 89.09,105.13 88.76,105.13C88.43,105.13 88.13,105.22 87.86,105.38C87.59,105.55 87.36,105.79 87.17,106.09C86.97,106.40 86.82,106.77 86.72,107.20C86.62,107.63 86.56,108.11 86.56,108.63C86.56,109.16 86.62,109.64 86.72,110.06C86.82,110.49 86.97,110.86 87.17,111.17C87.36,111.48 87.59,111.71 87.86,111.88C88.13,112.05 88.43,112.13 88.76,112.13C89.09,112.13 89.39,112.05 89.66,111.88C89.93,111.71 90.16,111.48 90.36,111.17C90.55,110.86 90.70,110.49 90.80,110.06C90.91,109.64 90.96,109.16 90.96,108.63ZM89.98,108.63C89.98,109.17 89.93,109.63 89.83,110.01C89.74,110.39 89.60,110.69 89.42,110.89C89.23,111.10 89.01,111.20 88.76,111.20C88.51,111.20 88.29,111.10 88.11,110.89C87.93,110.69 87.79,110.39 87.69,110.01C87.59,109.63 87.54,109.17 87.54,108.63C87.54,108.10 87.59,107.64 87.69,107.25C87.79,106.87 87.93,106.58 88.11,106.37C88.29,106.17 88.51,106.06 88.76,106.06C89.01,106.06 89.23,106.17 89.42,106.37C89.60,106.58 89.74,106.87 89.83,107.25C89.93,107.64 89.98,108.10 89.98,108.63Z" fill="currentColor" stroke="currentColor" stroke-width="1.2" stroke-linejoin="round" />
  <path d="M25.44,41.48L22.40,41.48L22.40,45.03C22.78,44.94 23.12,44.91 23.41,44.94C23.71,44.97 23.96,45.05 24.16,45.17C24.37,45.29 24.53,45.44 24.63,45.62C24.74,45.81 24.80,46.01 24.80,46.23C24.79,46.45 24.73,46.66 24.60,46.84C24.48,47.03 24.31,47.18 24.09,47.29C23.88,47.40 23.65,47.45 23.39,47.46C23.14,47.46 22.89,47.42 22.64,47.33C22.39,47.25 22.14,47.12 21.90,46.96L21.90,47.97C22.09,48.07 22.28,48.15 22.45,48.21C22.63,48.27 22.81,48.32 22.99,48.35C23.16,48.37 23.35,48.39 23.54,48.39C23.98,48.38 24.36,48.29 24.70,48.10C25.03,47.92 25.29,47.66 25.48,47.33C25.68,47.01 25.77,46.63 25.78,46.21C25.78,45.89 25.72,45.60 25.61,45.33C25.49,45.06 25.33,44.83 25.11,44.63C24.90,44.44 24.64,44.29 24.33,44.19C24.03,44.09 23.68,44.05 23.29,44.07L23.29,42.36L25.44,42.36L25.44,41.48Z" fill="currentColor" stroke="currentColor" stroke-width="1.2" stroke-linejoin="round" />
  <line x1="205.11" y1="117.90" x2="205.11" y2="28.54" fill="none" stroke="currentColor" stroke-width="1.0" stroke-linecap="round" stroke-linejoin="round" />
  <line x1="170.87" y1="117.90" x2="170.87" y2="28.54" fill="none" stroke="currentColor" stroke-width="1.0" stroke-linecap="round" stroke-linejoin="round" />
  <line x1="182.28" y1="117.90" x2="182.28" y2="17.57" fill="none" stroke="currentColor" stroke-width="1.0" stroke-linecap="round" stroke-linejoin="round" />
  <line x1="193.70" y1="117.90" x2="193.70" y2="28.54" fill="none" stroke="currentColor" stroke-width="1.0" stroke-linecap="round" stroke-linejoin="round" />
  <line x1="250.77" y1="117.90" x2="250.77" y2="28.54" fill="none" stroke="currentColor" stroke-width="1.0" stroke-linecap="round" stroke-linejoin="round" />
  <line x1="227.94" y1="117.90" x2="227.94" y2="28.54" fill="none" stroke="currentColor" stroke-width="1.0" stroke-linecap="round" stroke-linejoin="round" />
  <line x1="239.35" y1="117.90" x2="239.35" y2="28.54" fill="none" stroke="currentColor" stroke-width="1.0" stroke-linecap="round" stroke-linejoin="round" />
  <line x1="216.53" y1="117.90" x2="216.53" y2="28.54" fill="none" stroke="currentColor" stroke-width="1.0" stroke-linecap="round" stroke-linejoin="round" />
  <line x1="167.26" y1="79.15" x2="254.65" y2="79.15" fill="none" stroke="currentColor" stroke-width="1.0" stroke-linecap="round" stroke-linejoin="round" />
  <line x1="167.26" y1="90.56" x2="254.65" y2="90.56" fill="none" stroke="currentColor" stroke-width="1.0" stroke-linecap="round" stroke-linejoin="round" />
  <line x1="167.26" y1="113.39" x2="254.65" y2="113.39" fill="none" stroke="currentColor" stroke-width="1.0" stroke-linecap="round" stroke-linejoin="round" />
  <line x1="167.26" y1="67.73" x2="254.65" y2="67.73" fill="none" stroke="currentColor" stroke-width="1.0" stroke-linecap="round" stroke-linejoin="round" />
  <line x1="167.26" y1="56.32" x2="254.65" y2="56.32" fill="none" stroke="currentColor" stroke-width="1.0" stroke-linecap="round" stroke-linejoin="round" />
  <line x1="167.26" y1="44.90" x2="254.65" y2="44.90" fill="none" stroke="currentColor" stroke-width="1.0" stroke-linecap="round" stroke-linejoin="round" />
  <line x1="167.26" y1="33.49" x2="254.65" y2="33.49" fill="none" stroke="currentColor" stroke-width="1.0" stroke-linecap="round" stroke-linejoin="round" />
  <path d="M263.44,25.12L262.47,25.12L260.91,28.52L260.89,28.52L260.23,25.12L259.30,25.12L260.25,29.76L258.91,32.59L259.90,32.59L263.44,25.12Z" fill="currentColor" stroke="currentColor" stroke-width="1.2" stroke-linejoin="round" />
  <path d="M266.84,24.53H272.03V25.43H266.84ZM266.84,26.93H272.03V27.83H266.84Z" fill="currentColor" stroke="currentColor" stroke-width="1.2" stroke-linejoin="round" />
  <path d="M280.60,25.12L278.07,25.12C277.73,25.13 277.42,25.21 277.15,25.38C276.87,25.55 276.65,25.78 276.49,26.08C276.32,26.37 276.24,26.71 276.23,27.09C276.23,27.42 276.31,27.70 276.46,27.94C276.61,28.18 276.83,28.37 277.12,28.51C276.93,28.56 276.77,28.63 276.62,28.72C276.47,28.81 276.36,28.92 276.27,29.04C276.19,29.16 276.15,29.29 276.15,29.42C276.14,29.61 276.21,29.78 276.34,29.91C276.48,30.05 276.70,30.18 277.00,30.29L277.00,30.31C276.75,30.36 276.52,30.43 276.30,30.51C276.09,30.59 275.92,30.70 275.79,30.83C275.65,30.96 275.59,31.12 275.58,31.31C275.59,31.56 275.68,31.78 275.86,31.97C276.05,32.16 276.30,32.31 276.62,32.42C276.94,32.53 277.31,32.59 277.73,32.59C278.12,32.59 278.47,32.53 278.77,32.41C279.07,32.29 279.31,32.12 279.48,31.91C279.65,31.70 279.74,31.46 279.74,31.18C279.74,30.91 279.67,30.69 279.54,30.52C279.41,30.34 279.24,30.20 279.04,30.10C278.83,29.99 278.62,29.91 278.39,29.85C278.16,29.79 277.94,29.73 277.74,29.68C277.53,29.63 277.37,29.58 277.24,29.52C277.11,29.46 277.04,29.38 277.04,29.28C277.04,29.16 277.10,29.07 277.22,29.01C277.33,28.95 277.48,28.90 277.66,28.86C277.84,28.83 278.02,28.79 278.21,28.76C278.40,28.72 278.57,28.68 278.72,28.62C279.10,28.46 279.38,28.22 279.58,27.91C279.77,27.60 279.87,27.24 279.87,26.83C279.87,26.66 279.85,26.50 279.80,26.34C279.75,26.19 279.67,26.03 279.54,25.85L280.50,25.85L280.60,25.12ZM278.98,26.87C278.98,27.06 278.94,27.24 278.87,27.41C278.79,27.59 278.68,27.73 278.54,27.85C278.39,27.96 278.22,28.02 278.01,28.03C277.84,28.02 277.69,27.98 277.55,27.90C277.42,27.81 277.31,27.69 277.24,27.54C277.16,27.39 277.12,27.22 277.12,27.02C277.12,26.82 277.17,26.64 277.26,26.46C277.35,26.29 277.47,26.15 277.62,26.04C277.77,25.94 277.93,25.88 278.10,25.88C278.27,25.88 278.42,25.92 278.55,26.01C278.69,26.09 278.79,26.21 278.87,26.35C278.94,26.50 278.98,26.67 278.98,26.87ZM278.85,31.27C278.85,31.46 278.75,31.60 278.57,31.71C278.38,31.83 278.13,31.88 277.81,31.89C277.39,31.88 277.06,31.83 276.83,31.73C276.60,31.62 276.48,31.48 276.47,31.29C276.48,31.18 276.54,31.08 276.66,30.98C276.79,30.89 276.94,30.81 277.14,30.74C277.33,30.66 277.53,30.61 277.75,30.57C277.95,30.61 278.13,30.67 278.29,30.74C278.46,30.81 278.59,30.89 278.69,30.98C278.79,31.07 278.85,31.17 278.85,31.27Z" fill="currentColor" stroke="currentColor" stroke-width="1.2" stroke-linejoin="round" />
  <path d="M282.24,27.51C282.23,26.52 282.36,25.60 282.63,24.75C282.89,23.91 283.29,23.14 283.82,22.43L283.24,22.43C282.91,22.75 282.61,23.11 282.35,23.51C282.09,23.90 281.86,24.32 281.68,24.76C281.49,25.20 281.35,25.65 281.25,26.12C281.15,26.58 281.10,27.05 281.10,27.51C281.10,27.97 281.15,28.44 281.25,28.90C281.35,29.36 281.49,29.82 281.68,30.26C281.86,30.70 282.09,31.11 282.35,31.51C282.61,31.90 282.91,32.26 283.24,32.59L283.82,32.59C283.29,31.88 282.89,31.11 282.63,30.26C282.36,29.42 282.23,28.50 282.24,27.51Z" fill="currentColor" stroke="currentColor" stroke-width="1.2" stroke-linejoin="round" />
  <path d="M288.83,25.12L287.67,25.12L286.39,26.78L285.60,25.12L284.60,25.12L285.77,27.44L283.61,30.06L284.76,30.06L286.19,28.21L287.09,30.06L288.09,30.06L286.84,27.56L288.83,25.12Z" fill="currentColor" stroke="currentColor" stroke-width="1.2" stroke-linejoin="round" />
  <path d="M290.36,27.51C290.37,28.50 290.23,29.42 289.97,30.26C289.71,31.11 289.31,31.88 288.78,32.59L289.36,32.59C289.69,32.26 289.99,31.90 290.25,31.51C290.51,31.11 290.74,30.70 290.92,30.26C291.11,29.82 291.25,29.36 291.35,28.90C291.45,28.44 291.50,27.97 291.50,27.51C291.50,27.05 291.45,26.58 291.35,26.12C291.25,25.65 291.11,25.20 290.92,24.76C290.74,24.32 290.51,23.90 290.25,23.51C289.99,23.11 289.69,22.75 289.36,22.43L288.78,22.43C289.31,23.14 289.71,23.91 289.97,24.75C290.23,25.60 290.37,26.52 290.36,27.51Z" fill="currentColor" stroke="currentColor" stroke-width="1.2" stroke-linejoin="round" />
  <path d="M264.13,106.19L262.97,106.19L261.69,107.85L260.90,106.19L259.90,106.19L261.07,108.51L258.91,111.13L260.06,111.13L261.49,109.28L262.39,111.13L263.39,111.13L262.13,108.63L264.13,106.19Z" fill="currentColor" stroke="currentColor" stroke-width="1.2" stroke-linejoin="round" />
  <line x1="155.42" y1="101.97" x2="266.49" y2="101.97" fill="none" stroke="currentColor" stroke-width="1.2" stroke-linecap="round" stroke-linejoin="round" />
  <path d="M265.14,99.28L266.04,101.98L265.14,104.68L273.24,101.98L265.14,99.28Z" fill-rule="evenodd" fill="currentColor" stroke="currentColor" stroke-width="1.2" stroke-linejoin="round" />
  <line x1="182.28" y1="125.22" x2="182.28" y2="14.75" fill="none" stroke="currentColor" stroke-width="1.2" stroke-linecap="round" stroke-linejoin="round" />
  <path d="M179.58,16.10L182.28,15.20L184.98,16.10L182.28,8.00L179.58,16.10Z" fill-rule="evenodd" fill="currentColor" stroke="currentColor" stroke-width="1.2" stroke-linejoin="round" />
  <line x1="180.03" y1="44.90" x2="184.53" y2="44.90" fill="none" stroke="currentColor" stroke-width="1.2" stroke-linecap="round" stroke-linejoin="round" />
  <line x1="239.35" y1="104.22" x2="239.35" y2="99.73" fill="none" stroke="currentColor" stroke-width="1.2" stroke-linecap="round" stroke-linejoin="round" />
  <line x1="167.26" y1="117.00" x2="255.72" y2="28.54" fill="none" stroke="currentColor" stroke-width="1.2" stroke-linecap="round" stroke-linejoin="round" />
  <path d="M240.96,105.22L237.93,105.22L237.93,108.77C238.30,108.68 238.64,108.66 238.93,108.69C239.23,108.72 239.48,108.79 239.68,108.91C239.89,109.03 240.05,109.18 240.15,109.37C240.26,109.55 240.32,109.75 240.32,109.97C240.31,110.20 240.25,110.40 240.12,110.59C240.00,110.77 239.83,110.92 239.61,111.03C239.40,111.14 239.17,111.20 238.91,111.20C238.66,111.20 238.41,111.16 238.16,111.08C237.91,110.99 237.66,110.87 237.42,110.70L237.42,111.71C237.61,111.81 237.80,111.89 237.97,111.95C238.15,112.02 238.33,112.06 238.51,112.09C238.68,112.12 238.87,112.13 239.07,112.13C239.50,112.13 239.88,112.03 240.22,111.85C240.55,111.66 240.81,111.40 241.00,111.08C241.20,110.75 241.29,110.38 241.30,109.95C241.29,109.64 241.24,109.34 241.13,109.07C241.01,108.81 240.85,108.57 240.63,108.38C240.42,108.18 240.16,108.03 239.85,107.93C239.55,107.83 239.20,107.79 238.82,107.81L238.82,106.10L240.96,106.10L240.96,105.22Z" fill="currentColor" stroke="currentColor" stroke-width="1.2" stroke-linejoin="round" />
  <path d="M171.83,48.30L171.83,41.39L171.46,41.39L169.13,43.29L169.51,44.14L170.81,43.07L170.81,48.30L171.83,48.30Z" fill="currentColor" stroke="currentColor" stroke-width="1.2" stroke-linejoin="round" />
  <path d="M178.25,44.89C178.24,44.36 178.19,43.88 178.09,43.46C177.98,43.03 177.84,42.66 177.64,42.35C177.45,42.04 177.22,41.81 176.95,41.64C176.68,41.47 176.38,41.39 176.05,41.39C175.72,41.39 175.41,41.47 175.15,41.64C174.88,41.81 174.64,42.04 174.45,42.35C174.26,42.66 174.11,43.03 174.00,43.46C173.90,43.88 173.85,44.36 173.85,44.89C173.85,45.41 173.90,45.89 174.00,46.32C174.11,46.75 174.26,47.12 174.45,47.43C174.64,47.73 174.88,47.97 175.15,48.14C175.41,48.30 175.72,48.39 176.05,48.39C176.38,48.39 176.68,48.30 176.95,48.14C177.22,47.97 177.45,47.73 177.64,47.43C177.84,47.12 177.98,46.75 178.09,46.32C178.19,45.89 178.24,45.41 178.25,44.89ZM177.27,44.89C177.27,45.42 177.22,45.88 177.12,46.27C177.02,46.65 176.88,46.94 176.70,47.15C176.52,47.35 176.30,47.46 176.05,47.46C175.79,47.46 175.57,47.35 175.39,47.15C175.21,46.94 175.07,46.65 174.97,46.27C174.88,45.88 174.83,45.42 174.82,44.89C174.83,44.35 174.88,43.89 174.97,43.51C175.07,43.13 175.21,42.83 175.39,42.63C175.57,42.42 175.79,42.32 176.05,42.32C176.30,42.32 176.52,42.42 176.70,42.63C176.88,42.83 177.02,43.13 177.12,43.51C177.22,43.89 177.27,44.35 177.27,44.89Z" fill="currentColor" stroke="currentColor" stroke-width="1.2" stroke-linejoin="round" />
  <path d="M109.85,38.65L108.87,38.65L107.32,42.05L107.30,42.05L106.64,38.65L105.70,38.65L106.66,43.29L105.32,46.11L106.31,46.11L109.85,38.65Z" fill="currentColor" stroke="currentColor" stroke-width="1.2" stroke-linejoin="round" />
  <path d="M113.25,38.05H118.44V38.95H113.25ZM113.25,40.45H118.44V41.35H113.25Z" fill="currentColor" stroke="currentColor" stroke-width="1.2" stroke-linejoin="round" />
  <path d="M125.26,38.65L124.26,38.65C124.32,38.07 124.47,37.63 124.73,37.32C125.00,37.02 125.36,36.87 125.82,36.87C125.96,36.87 126.12,36.89 126.29,36.94C126.46,36.98 126.62,37.05 126.78,37.14L126.91,36.22C126.71,36.14 126.51,36.09 126.32,36.05C126.12,36.01 125.92,35.99 125.72,35.99C125.33,35.99 124.99,36.06 124.71,36.19C124.42,36.33 124.18,36.51 123.98,36.76C123.79,37.00 123.64,37.28 123.54,37.60C123.43,37.92 123.37,38.27 123.34,38.65L122.56,38.65L122.44,39.47L123.23,39.47L122.44,45.66L123.35,45.66L124.14,39.47L125.14,39.47L125.26,38.65Z" fill="currentColor" stroke="currentColor" stroke-width="1.2" stroke-linejoin="round" />
  <path d="M126.93,41.03C126.93,40.04 127.06,39.12 127.32,38.28C127.58,37.44 127.98,36.66 128.51,35.95L127.93,35.95C127.60,36.28 127.30,36.64 127.04,37.04C126.78,37.43 126.56,37.85 126.37,38.29C126.18,38.73 126.04,39.18 125.94,39.64C125.84,40.11 125.79,40.57 125.79,41.03C125.79,41.50 125.84,41.96 125.94,42.43C126.04,42.89 126.18,43.34 126.37,43.78C126.56,44.22 126.78,44.64 127.04,45.03C127.30,45.43 127.60,45.79 127.93,46.11L128.51,46.11C127.98,45.41 127.58,44.63 127.32,43.79C127.06,42.95 126.93,42.03 126.93,41.03Z" fill="currentColor" stroke="currentColor" stroke-width="1.2" stroke-linejoin="round" />
  <path d="M133.52,38.65L132.36,38.65L131.08,40.31L130.29,38.65L129.29,38.65L130.46,40.97L128.30,43.58L129.45,43.58L130.88,41.74L131.78,43.58L132.78,43.58L131.53,41.09L133.52,38.65Z" fill="currentColor" stroke="currentColor" stroke-width="1.2" stroke-linejoin="round" />
  <path d="M135.06,41.03C135.06,42.03 134.93,42.95 134.66,43.79C134.40,44.63 134.00,45.41 133.47,46.11L134.05,46.11C134.38,45.79 134.68,45.43 134.94,45.03C135.20,44.64 135.43,44.22 135.61,43.78C135.80,43.34 135.94,42.89 136.04,42.43C136.14,41.96 136.19,41.50 136.19,41.03C136.19,40.57 136.14,40.11 136.04,39.64C135.94,39.18 135.80,38.73 135.61,38.29C135.43,37.85 135.20,37.43 134.94,37.04C134.68,36.64 134.38,36.28 134.05,35.95L133.47,35.95C134.00,36.66 134.40,37.44 134.66,38.28C134.93,39.12 135.06,40.04 135.06,41.03Z" fill="currentColor" stroke="currentColor" stroke-width="1.2" stroke-linejoin="round" />
  <path d="M177.20,15.07L176.22,15.07L174.67,18.47L174.65,18.47L173.99,15.07L173.05,15.07L174.01,19.71L172.67,22.54L173.66,22.54L177.20,15.07Z" fill="currentColor" stroke="currentColor" stroke-width="1.2" stroke-linejoin="round" />
</svg>