<svg xmlns="http://www.w3.org/2000/svg" viewBox="0 0 177.96 157.60" preserveAspectRatio="xMidYMid meet" shape-rendering="geometricPrecision" text-rendering="optimizeLegibility">
  <line x1="17.94" y1="77.67" x2="159.67" y2="77.67" fill="none" stroke="currentColor" stroke-width="1.2" stroke-linecap="round" stroke-linejoin="round" />
  <line x1="88.94" y1="149.60" x2="88.04" y2="8.00" fill="none" stroke="currentColor" stroke-width="1.2" stroke-linecap="round" stroke-linejoin="round" />
  <line x1="17.90" y1="77.84" x2="159.72" y2="118.48" fill="none" stroke="currentColor" stroke-width="1.2" stroke-linecap="round" stroke-linejoin="round" />
  <line x1="18.10" y1="36.67" x2="159.93" y2="77.31" fill="none" stroke="currentColor" stroke-width="1.2" stroke-linecap="round" stroke-linejoin="round" />
  <path d="M11.98,73.16L11.22,73.16L8.00,80.70L9.10,80.70L10.05,78.49L13.24,78.49L14.24,80.70L15.34,80.70L11.98,73.16ZM11.59,74.81L12.80,77.52L10.46,77.52L11.59,74.81Z" fill="currentColor" stroke="currentColor" stroke-width="1.2" stroke-linejoin="round" />
  <path d="M8.29,39.18L11.22,39.18C11.72,39.17 12.17,39.11 12.58,38.97C13.00,38.84 13.37,38.65 13.69,38.41C14.01,38.17 14.29,37.89 14.51,37.58C14.74,37.26 14.91,36.92 15.03,36.56C15.14,36.19 15.20,35.81 15.20,35.43C15.20,35.07 15.15,34.71 15.05,34.36C14.95,34.00 14.80,33.66 14.60,33.34C14.39,33.02 14.13,32.74 13.81,32.49C13.50,32.24 13.12,32.04 12.69,31.90C12.26,31.75 11.76,31.68 11.21,31.68L8.29,31.68L8.29,39.18ZM9.37,32.64L11.03,32.64C11.56,32.65 12.01,32.72 12.40,32.87C12.78,33.01 13.10,33.21 13.35,33.47C13.60,33.73 13.79,34.02 13.91,34.36C14.03,34.69 14.09,35.05 14.09,35.43C14.09,35.61 14.07,35.83 14.01,36.07C13.96,36.31 13.87,36.56 13.74,36.81C13.61,37.05 13.43,37.28 13.20,37.50C12.97,37.71 12.68,37.88 12.34,38.01C11.99,38.14 11.57,38.21 11.09,38.21L9.37,38.21L9.37,32.64Z" fill="currentColor" stroke="currentColor" stroke-width="1.2" stroke-linejoin="round" />
  <path d="M162.87,123.38L165.44,123.38C165.91,123.38 166.31,123.32 166.64,123.20C166.96,123.08 167.23,122.92 167.43,122.73C167.64,122.53 167.78,122.32 167.88,122.08C167.97,121.85 168.02,121.61 168.02,121.38C168.01,121.04 167.94,120.74 167.80,120.47C167.65,120.20 167.45,119.98 167.18,119.80C166.91,119.62 166.59,119.49 166.21,119.42L166.21,119.40C166.60,119.24 166.89,119.03 167.08,118.77C167.27,118.51 167.36,118.18 167.36,117.79C167.36,117.55 167.31,117.32 167.22,117.10C167.13,116.87 167.00,116.66 166.81,116.48C166.62,116.30 166.38,116.15 166.09,116.05C165.80,115.94 165.45,115.88 165.05,115.88L162.87,115.88L162.87,123.38ZM163.94,116.85L164.93,116.85C165.26,116.85 165.52,116.90 165.72,116.99C165.91,117.09 166.05,117.21 166.13,117.37C166.21,117.53 166.25,117.70 166.25,117.89C166.25,118.29 166.12,118.59 165.85,118.79C165.59,118.99 165.19,119.09 164.66,119.09L163.94,119.09L163.94,116.85ZM163.94,120.06L165.24,120.06C165.62,120.06 165.93,120.11 166.18,120.21C166.42,120.31 166.61,120.44 166.72,120.62C166.84,120.79 166.90,121.00 166.90,121.23C166.91,121.42 166.86,121.60 166.77,121.78C166.68,121.96 166.51,122.11 166.28,122.23C166.04,122.35 165.72,122.41 165.30,122.41L163.94,122.41L163.94,120.06Z" fill="currentColor" stroke="currentColor" stroke-width="1.2" stroke-linejoin="round" />
  <path d="M169.88,73.75C169.54,73.60 169.23,73.49 168.93,73.40C168.64,73.31 168.36,73.24 168.09,73.20C167.83,73.15 167.57,73.13 167.31,73.13C166.71,73.13 166.16,73.23 165.66,73.43C165.16,73.62 164.73,73.90 164.36,74.25C163.99,74.61 163.71,75.03 163.50,75.51C163.30,75.99 163.20,76.52 163.20,77.09C163.20,77.41 163.25,77.74 163.35,78.08C163.45,78.43 163.60,78.76 163.81,79.09C164.02,79.41 164.28,79.70 164.60,79.97C164.92,80.23 165.30,80.44 165.74,80.59C166.18,80.75 166.68,80.83 167.24,80.83C167.63,80.83 167.99,80.80 168.31,80.74C168.63,80.69 168.92,80.61 169.19,80.51C169.46,80.41 169.72,80.30 169.96,80.17L169.96,78.99C169.53,79.27 169.10,79.48 168.65,79.62C168.21,79.77 167.77,79.84 167.34,79.84C166.74,79.84 166.21,79.71 165.75,79.47C165.30,79.24 164.95,78.90 164.69,78.48C164.44,78.05 164.31,77.56 164.31,76.99C164.31,76.58 164.38,76.20 164.53,75.85C164.68,75.50 164.89,75.20 165.16,74.94C165.43,74.68 165.74,74.48 166.11,74.34C166.47,74.20 166.87,74.12 167.30,74.12C167.73,74.12 168.15,74.18 168.57,74.31C168.99,74.44 169.43,74.63 169.88,74.90L169.88,73.75Z" fill="currentColor" stroke="currentColor" stroke-width="1.2" stroke-linejoin="round" />
  <path d="M98.95,59.91 C98.46,61.75 97.46,63.48 95.96,64.86" fill="none" stroke="currentColor" stroke-width="1.0" stroke-linecap="round" stroke-linejoin="round" />
  <path d="M95.96,64.86 C93.90,66.77 91.27,67.68 88.66,67.62" fill="none" stroke="currentColor" stroke-width="1.0" stroke-linecap="round" stroke-linejoin="round" />
  <path d="M45.90,77.62 C45.93,80.24 45.58,82.89 44.81,85.51" fill="none" stroke="currentColor" stroke-width="1.0" stroke-linecap="round" stroke-linejoin="round" />
  <path d="M98.76,65.57L98.34,65.57L94.89,69.79L94.89,70.24L97.78,70.24L97.78,72.48L98.76,72.48L98.76,70.24L99.49,70.24L99.49,69.36L98.76,69.36L98.76,65.57ZM97.76,67.42L97.78,67.42L97.78,69.36L96.20,69.36L97.76,67.42Z" fill="currentColor" stroke="currentColor" stroke-width="1.2" stroke-linejoin="round" />
  <path d="M104.48,69.07C104.47,68.54 104.42,68.06 104.32,67.64C104.21,67.21 104.07,66.84 103.87,66.53C103.68,66.22 103.45,65.99 103.18,65.82C102.91,65.65 102.61,65.57 102.28,65.57C101.95,65.57 101.64,65.65 101.38,65.82C101.11,65.99 100.87,66.22 100.68,66.53C100.49,66.84 100.34,67.21 100.23,67.64C100.13,68.06 100.08,68.54 100.08,69.07C100.08,69.59 100.13,70.07 100.23,70.50C100.34,70.93 100.49,71.30 100.68,71.61C100.87,71.91 101.11,72.15 101.38,72.32C101.64,72.48 101.95,72.57 102.28,72.57C102.61,72.57 102.91,72.48 103.18,72.32C103.45,72.15 103.68,71.91 103.87,71.61C104.07,71.30 104.21,70.93 104.32,70.50C104.42,70.07 104.47,69.59 104.48,69.07ZM103.50,69.07C103.50,69.60 103.45,70.06 103.35,70.45C103.25,70.83 103.11,71.12 102.93,71.33C102.75,71.53 102.53,71.64 102.28,71.64C102.02,71.64 101.80,71.53 101.62,71.33C101.44,71.12 101.30,70.83 101.20,70.45C101.11,70.06 101.06,69.60 101.06,69.07C101.06,68.53 101.11,68.07 101.20,67.69C101.30,67.31 101.44,67.01 101.62,66.81C101.80,66.60 102.02,66.50 102.28,66.50C102.53,66.50 102.75,66.60 102.93,66.81C103.11,67.01 103.25,67.31 103.35,67.69C103.45,68.07 103.50,68.53 103.50,69.07Z" fill="currentColor" stroke="currentColor" stroke-width="1.2" stroke-linejoin="round" />
  <path d="M106.75,65.73C106.90,65.73 107.04,65.77 107.17,65.84C107.29,65.91 107.39,66.01 107.46,66.13C107.54,66.25 107.58,66.39 107.58,66.55C107.58,66.70 107.54,66.84 107.46,66.97C107.39,67.09 107.29,67.19 107.17,67.26C107.04,67.34 106.90,67.38 106.75,67.38C106.59,67.38 106.45,67.34 106.33,67.26C106.21,67.19 106.11,67.09 106.04,66.97C105.96,66.84 105.93,66.70 105.93,66.55C105.93,66.39 105.96,66.25 106.04,66.13C106.11,66.01 106.21,65.91 106.33,65.84C106.45,65.77 106.59,65.73 106.75,65.73ZM106.75,65.20C106.49,65.20 106.27,65.26 106.06,65.38C105.86,65.50 105.70,65.66 105.58,65.86C105.46,66.07 105.40,66.29 105.40,66.55C105.40,66.80 105.46,67.03 105.58,67.23C105.70,67.43 105.86,67.59 106.06,67.71C106.27,67.83 106.49,67.89 106.75,67.90C107.00,67.89 107.23,67.83 107.43,67.71C107.63,67.59 107.79,67.43 107.91,67.23C108.03,67.03 108.09,66.80 108.10,66.55C108.09,66.29 108.03,66.07 107.91,65.86C107.79,65.66 107.63,65.50 107.43,65.38C107.23,65.26 107.00,65.20 106.75,65.20Z" fill="currentColor" stroke="currentColor" stroke-width="1.2" stroke-linejoin="round" />
  <path d="M53.55,80.80C53.71,80.73 53.85,80.68 53.98,80.63C54.11,80.59 54.23,80.56 54.35,80.54C54.47,80.52 54.59,80.51 54.71,80.51C54.96,80.51 55.16,80.55 55.34,80.64C55.52,80.72 55.65,80.83 55.75,80.99C55.84,81.14 55.89,81.32 55.89,81.53C55.89,81.84 55.78,82.09 55.56,82.26C55.33,82.43 54.99,82.52 54.54,82.52L54.54,83.42C54.87,83.41 55.14,83.45 55.35,83.55C55.57,83.64 55.73,83.78 55.84,83.96C55.95,84.13 56.00,84.34 56.00,84.56C56.00,84.78 55.96,84.97 55.87,85.14C55.78,85.30 55.65,85.43 55.49,85.51C55.32,85.60 55.13,85.65 54.90,85.65C54.65,85.65 54.40,85.61 54.15,85.52C53.90,85.44 53.64,85.31 53.38,85.13L53.38,86.19C53.63,86.32 53.87,86.41 54.12,86.48C54.36,86.55 54.60,86.58 54.83,86.58C55.26,86.58 55.63,86.49 55.95,86.32C56.27,86.14 56.52,85.90 56.71,85.59C56.89,85.28 56.98,84.92 56.98,84.51C56.98,84.27 56.95,84.05 56.88,83.83C56.81,83.61 56.70,83.41 56.56,83.25C56.41,83.08 56.23,82.96 56.00,82.89C56.21,82.78 56.38,82.65 56.50,82.51C56.63,82.37 56.73,82.21 56.78,82.02C56.84,81.83 56.87,81.61 56.87,81.36C56.87,81.00 56.79,80.69 56.62,80.42C56.46,80.15 56.23,79.95 55.93,79.80C55.63,79.66 55.27,79.58 54.86,79.58C54.61,79.58 54.38,79.60 54.17,79.65C53.96,79.70 53.76,79.77 53.55,79.87L53.55,80.80Z" fill="currentColor" stroke="currentColor" stroke-width="1.2" stroke-linejoin="round" />
  <path d="M62.44,83.08C62.44,82.56 62.39,82.08 62.29,81.65C62.18,81.22 62.03,80.85 61.84,80.54C61.65,80.24 61.41,80.00 61.15,79.83C60.88,79.67 60.58,79.58 60.24,79.58C59.91,79.58 59.61,79.67 59.34,79.83C59.07,80.00 58.84,80.24 58.65,80.54C58.46,80.85 58.31,81.22 58.20,81.65C58.10,82.08 58.05,82.56 58.04,83.08C58.05,83.61 58.10,84.09 58.20,84.51C58.31,84.94 58.46,85.31 58.65,85.62C58.84,85.93 59.07,86.16 59.34,86.33C59.61,86.50 59.91,86.58 60.24,86.58C60.58,86.58 60.88,86.50 61.15,86.33C61.41,86.16 61.65,85.93 61.84,85.62C62.03,85.31 62.18,84.94 62.29,84.51C62.39,84.09 62.44,83.61 62.44,83.08ZM61.47,83.08C61.46,83.62 61.42,84.08 61.32,84.46C61.22,84.84 61.08,85.14 60.90,85.34C60.72,85.55 60.50,85.65 60.24,85.65C59.99,85.65 59.77,85.55 59.59,85.34C59.41,85.14 59.27,84.84 59.17,84.46C59.07,84.08 59.02,83.62 59.02,83.08C59.02,82.55 59.07,82.09 59.17,81.70C59.27,81.32 59.41,81.03 59.59,80.82C59.77,80.62 59.99,80.51 60.24,80.51C60.50,80.51 60.72,80.62 60.90,80.82C61.08,81.03 61.22,81.32 61.32,81.70C61.42,82.09 61.46,82.55 61.47,83.08Z" fill="currentColor" stroke="currentColor" stroke-width="1.2" stroke-linejoin="round" />
  <path d="M64.71,79.74C64.87,79.74 65.01,79.78 65.13,79.85C65.26,79.92 65.36,80.02 65.43,80.14C65.51,80.27 65.54,80.41 65.54,80.56C65.54,80.72 65.51,80.86 65.43,80.98C65.36,81.10 65.26,81.20 65.13,81.28C65.01,81.35 64.87,81.39 64.71,81.39C64.56,81.39 64.42,81.35 64.30,81.28C64.17,81.20 64.08,81.10 64.00,80.98C63.93,80.86 63.90,80.72 63.89,80.56C63.90,80.41 63.93,80.27 64.00,80.14C64.08,80.02 64.17,79.92 64.30,79.85C64.42,79.78 64.56,79.74 64.71,79.74ZM64.71,79.21C64.46,79.21 64.23,79.27 64.03,79.39C63.83,79.51 63.67,79.67 63.55,79.88C63.43,80.08 63.37,80.31 63.36,80.56C63.37,80.81 63.43,81.04 63.55,81.24C63.67,81.45 63.83,81.61 64.03,81.73C64.23,81.85 64.46,81.91 64.71,81.91C64.97,81.91 65.20,81.85 65.40,81.73C65.60,81.61 65.76,81.45 65.88,81.24C66.00,81.04 66.06,80.81 66.06,80.56C66.06,80.31 66.00,80.08 65.88,79.88C65.76,79.67 65.60,79.51 65.40,79.39C65.20,79.27 64.97,79.21 64.71,79.21Z" fill="currentColor" stroke="currentColor" stroke-width="1.2" stroke-linejoin="round" />
  <path d="M88.66,85.28 C86.80,85.19 84.96,84.44 83.53,83.02" fill="none" stroke="currentColor" stroke-width="1.0" stroke-linecap="round" stroke-linejoin="round" />
  <path d="M83.53,83.02 C82.04,81.52 81.29,79.57 81.26,77.62" fill="none" stroke="currentColor" stroke-width="1.0" stroke-linecap="round" stroke-linejoin="round" />
  <path d="M81.66,83.06L80.61,83.06L79.44,84.57L78.73,83.06L77.82,83.06L78.88,85.17L76.92,87.55L77.96,87.55L79.26,85.87L80.08,87.55L80.99,87.55L79.85,85.28L81.66,83.06Z" fill="currentColor" stroke="currentColor" stroke-width="1.2" stroke-linejoin="round" />
</svg>