<svg xmlns="http://www.w3.org/2000/svg" viewBox="0 0 231.98 231.98" preserveAspectRatio="xMidYMid meet" shape-rendering="geometricPrecision" text-rendering="optimizeLegibility">
  <line x1="115.18" y1="17.72" x2="111.94" y2="8.00" fill="currentColor" stroke="currentColor" stroke-width="1.2" stroke-linecap="round" stroke-linejoin="round" />
  <line x1="111.94" y1="8.00" x2="108.70" y2="17.72" fill="currentColor" stroke="currentColor" stroke-width="1.2" stroke-linecap="round" stroke-linejoin="round" />
  <path d="M100.80,13.85 C100.86,13.84 100.93,13.84 101.02,13.84" fill="currentColor" stroke="currentColor" stroke-width="1.2" stroke-linecap="round" stroke-linejoin="round" />
  <path d="M101.02,13.84 C101.11,13.84 101.19,13.84 101.24,13.85" fill="currentColor" stroke="currentColor" stroke-width="1.2" stroke-linecap="round" stroke-linejoin="round" />
  <path d="M104.25,13.85 C104.31,13.84 104.39,13.84 104.49,13.84" fill="currentColor" stroke="currentColor" stroke-width="1.2" stroke-linecap="round" stroke-linejoin="round" />
  <path d="M104.49,13.84 C104.65,13.84 104.76,13.85 104.81,13.87" fill="currentColor" stroke="currentColor" stroke-width="1.2" stroke-linecap="round" stroke-linejoin="round" />
  <path d="M100.66,13.88 C100.69,13.87 100.74,13.85 100.80,13.85" fill="currentColor" stroke="currentColor" stroke-width="1.2" stroke-linecap="round" stroke-linejoin="round" />
  <path d="M101.24,13.85 C101.30,13.85 101.34,13.86 101.37,13.88" fill="currentColor" stroke="currentColor" stroke-width="1.2" stroke-linecap="round" stroke-linejoin="round" />
  <path d="M104.10,13.88 C104.13,13.86 104.18,13.85 104.25,13.85" fill="currentColor" stroke="currentColor" stroke-width="1.2" stroke-linecap="round" stroke-linejoin="round" />
  <path d="M104.81,13.87 C104.87,13.89 104.89,13.93 104.89,13.97" fill="currentColor" stroke="currentColor" stroke-width="1.2" stroke-linecap="round" stroke-linejoin="round" />
  <path d="M101.37,13.88 C101.40,13.89 101.42,13.91 101.44,13.93" fill="currentColor" stroke="currentColor" stroke-width="1.2" stroke-linecap="round" stroke-linejoin="round" />
  <path d="M104.01,13.93 C104.03,13.91 104.06,13.89 104.10,13.88" fill="currentColor" stroke="currentColor" stroke-width="1.2" stroke-linecap="round" stroke-linejoin="round" />
  <path d="M100.58,13.95 C100.60,13.92 100.62,13.90 100.66,13.88" fill="currentColor" stroke="currentColor" stroke-width="1.2" stroke-linecap="round" stroke-linejoin="round" />
  <path d="M103.97,14.00 C103.98,13.97 103.99,13.95 104.01,13.93" fill="currentColor" stroke="currentColor" stroke-width="1.2" stroke-linecap="round" stroke-linejoin="round" />
  <path d="M101.44,13.93 C101.45,13.96 101.46,13.99 101.46,14.02" fill="currentColor" stroke="currentColor" stroke-width="1.2" stroke-linecap="round" stroke-linejoin="round" />
  <path d="M100.56,14.05 C100.56,14.01 100.57,13.97 100.58,13.95" fill="currentColor" stroke="currentColor" stroke-width="1.2" stroke-linecap="round" stroke-linejoin="round" />
  <path d="M104.89,13.97 C104.89,14.01 104.89,14.05 104.88,14.09" fill="currentColor" stroke="currentColor" stroke-width="1.2" stroke-linecap="round" stroke-linejoin="round" />
  <path d="M103.61,15.03 C103.74,14.69 103.86,14.35 103.97,14.00" fill="currentColor" stroke="currentColor" stroke-width="1.2" stroke-linecap="round" stroke-linejoin="round" />
  <line x1="101.46" y1="14.02" x2="102.09" y2="17.97" fill="currentColor" stroke="currentColor" stroke-width="1.2" stroke-linecap="round" stroke-linejoin="round" />
  <path d="M100.57,14.14 C100.57,14.10 100.56,14.07 100.56,14.05" fill="currentColor" stroke="currentColor" stroke-width="1.2" stroke-linecap="round" stroke-linejoin="round" />
  <path d="M104.88,14.09 C104.87,14.13 104.86,14.17 104.84,14.21" fill="currentColor" stroke="currentColor" stroke-width="1.2" stroke-linecap="round" stroke-linejoin="round" />
  <path d="M100.59,14.25 C100.58,14.21 100.57,14.17 100.57,14.14" fill="currentColor" stroke="currentColor" stroke-width="1.2" stroke-linecap="round" stroke-linejoin="round" />
  <path d="M104.84,14.21 C104.73,14.53 104.60,14.87 104.46,15.22" fill="currentColor" stroke="currentColor" stroke-width="1.2" stroke-linecap="round" stroke-linejoin="round" />
  <line x1="101.39" y1="18.98" x2="100.59" y2="14.25" fill="currentColor" stroke="currentColor" stroke-width="1.2" stroke-linecap="round" stroke-linejoin="round" />
  <path d="M103.20,16.03 C103.35,15.70 103.48,15.37 103.61,15.03" fill="currentColor" stroke="currentColor" stroke-width="1.2" stroke-linecap="round" stroke-linejoin="round" />
  <path d="M104.46,15.22 C104.32,15.58 104.16,15.95 103.97,16.33" fill="currentColor" stroke="currentColor" stroke-width="1.2" stroke-linecap="round" stroke-linejoin="round" />
  <path d="M102.70,17.02 C102.88,16.69 103.05,16.37 103.20,16.03" fill="currentColor" stroke="currentColor" stroke-width="1.2" stroke-linecap="round" stroke-linejoin="round" />
  <line x1="111.94" y1="223.98" x2="111.94" y2="16.10" fill="none" stroke="currentColor" stroke-width="1.4000000476837158" stroke-linecap="round" stroke-linejoin="round" />
  <path d="M103.97,16.33 C103.78,16.72 103.57,17.12 103.32,17.54" fill="currentColor" stroke="currentColor" stroke-width="1.2" stroke-linecap="round" stroke-linejoin="round" />
  <line x1="108.70" y1="17.72" x2="111.94" y2="16.64" fill="currentColor" stroke="currentColor" stroke-width="1.2" stroke-linecap="round" stroke-linejoin="round" />
  <line x1="111.94" y1="16.64" x2="115.18" y2="17.72" fill="currentColor" stroke="currentColor" stroke-width="1.2" stroke-linecap="round" stroke-linejoin="round" />
  <path d="M102.10,17.97 C102.32,17.65 102.52,17.34 102.70,17.02" fill="currentColor" stroke="currentColor" stroke-width="1.2" stroke-linecap="round" stroke-linejoin="round" />
  <path d="M103.32,17.54 C103.07,17.95 102.77,18.40 102.43,18.86" fill="currentColor" stroke="currentColor" stroke-width="1.2" stroke-linecap="round" stroke-linejoin="round" />
  <line x1="102.09" y1="17.97" x2="102.10" y2="17.97" fill="currentColor" stroke="currentColor" stroke-width="1.2" stroke-linecap="round" stroke-linejoin="round" />
  <line x1="102.43" y1="18.86" x2="101.04" y2="20.75" fill="currentColor" stroke="currentColor" stroke-width="1.2" stroke-linecap="round" stroke-linejoin="round" />
  <line x1="100.08" y1="20.66" x2="101.39" y2="18.98" fill="currentColor" stroke="currentColor" stroke-width="1.2" stroke-linecap="round" stroke-linejoin="round" />
  <path d="M100.01,20.79 C100.01,20.75 100.04,20.71 100.08,20.66" fill="currentColor" stroke="currentColor" stroke-width="1.2" stroke-linecap="round" stroke-linejoin="round" />
  <path d="M101.04,20.75 C101.02,20.78 100.99,20.81 100.96,20.83" fill="currentColor" stroke="currentColor" stroke-width="1.2" stroke-linecap="round" stroke-linejoin="round" />
  <path d="M100.05,20.87 C100.02,20.85 100.01,20.82 100.01,20.79" fill="currentColor" stroke="currentColor" stroke-width="1.2" stroke-linecap="round" stroke-linejoin="round" />
  <path d="M100.96,20.83 C100.92,20.85 100.88,20.87 100.84,20.88" fill="currentColor" stroke="currentColor" stroke-width="1.2" stroke-linecap="round" stroke-linejoin="round" />
  <path d="M100.20,20.92 C100.13,20.91 100.09,20.89 100.05,20.87" fill="currentColor" stroke="currentColor" stroke-width="1.2" stroke-linecap="round" stroke-linejoin="round" />
  <path d="M100.84,20.88 C100.79,20.90 100.73,20.91 100.67,20.92" fill="currentColor" stroke="currentColor" stroke-width="1.2" stroke-linecap="round" stroke-linejoin="round" />
  <path d="M100.43,20.93 C100.34,20.93 100.26,20.93 100.20,20.92" fill="currentColor" stroke="currentColor" stroke-width="1.2" stroke-linecap="round" stroke-linejoin="round" />
  <path d="M100.67,20.92 C100.60,20.93 100.52,20.93 100.43,20.93" fill="currentColor" stroke="currentColor" stroke-width="1.2" stroke-linecap="round" stroke-linejoin="round" />
  <line x1="26.90" y1="214.53" x2="26.90" y2="25.55" fill="none" stroke="currentColor" stroke-width="1.0" stroke-linecap="round" stroke-linejoin="round" />
  <line x1="41.07" y1="214.53" x2="41.07" y2="25.55" fill="none" stroke="currentColor" stroke-width="1.0" stroke-linecap="round" stroke-linejoin="round" />
  <line x1="55.25" y1="214.53" x2="55.25" y2="25.55" fill="none" stroke="currentColor" stroke-width="1.0" stroke-linecap="round" stroke-linejoin="round" />
  <line x1="69.42" y1="214.53" x2="69.42" y2="25.55" fill="none" stroke="currentColor" stroke-width="1.0" stroke-linecap="round" stroke-linejoin="round" />
  <line x1="83.59" y1="214.53" x2="83.59" y2="25.55" fill="none" stroke="currentColor" stroke-width="1.0" stroke-linecap="round" stroke-linejoin="round" />
  <line x1="97.77" y1="214.53" x2="97.77" y2="25.55" fill="none" stroke="currentColor" stroke-width="1.0" stroke-linecap="round" stroke-linejoin="round" />
  <line x1="168.63" y1="214.53" x2="168.63" y2="25.55" fill="none" stroke="currentColor" stroke-width="1.0" stroke-linecap="round" stroke-linejoin="round" />
  <line x1="182.81" y1="214.53" x2="182.81" y2="25.55" fill="none" stroke="currentColor" stroke-width="1.0" stroke-linecap="round" stroke-linejoin="round" />
  <line x1="196.98" y1="214.53" x2="196.98" y2="25.55" fill="none" stroke="currentColor" stroke-width="1.0" stroke-linecap="round" stroke-linejoin="round" />
  <line x1="140.29" y1="214.53" x2="140.29" y2="25.55" fill="none" stroke="currentColor" stroke-width="1.0" stroke-linecap="round" stroke-linejoin="round" />
  <line x1="154.46" y1="214.53" x2="154.46" y2="25.55" fill="none" stroke="currentColor" stroke-width="1.0" stroke-linecap="round" stroke-linejoin="round" />
  <line x1="126.11" y1="214.53" x2="126.11" y2="25.55" fill="none" stroke="currentColor" stroke-width="1.0" stroke-linecap="round" stroke-linejoin="round" />
  <line x1="17.45" y1="35.00" x2="206.43" y2="35.00" fill="none" stroke="currentColor" stroke-width="1.0" stroke-linecap="round" stroke-linejoin="round" />
  <line x1="17.45" y1="49.18" x2="206.43" y2="49.18" fill="none" stroke="currentColor" stroke-width="1.0" stroke-linecap="round" stroke-linejoin="round" />
  <line x1="17.45" y1="63.35" x2="206.43" y2="63.35" fill="none" stroke="currentColor" stroke-width="1.0" stroke-linecap="round" stroke-linejoin="round" />
  <line x1="17.45" y1="77.52" x2="206.43" y2="77.52" fill="none" stroke="currentColor" stroke-width="1.0" stroke-linecap="round" stroke-linejoin="round" />
  <line x1="17.45" y1="91.70" x2="206.43" y2="91.70" fill="none" stroke="currentColor" stroke-width="1.0" stroke-linecap="round" stroke-linejoin="round" />
  <line x1="17.45" y1="105.87" x2="206.43" y2="105.87" fill="none" stroke="currentColor" stroke-width="1.0" stroke-linecap="round" stroke-linejoin="round" />
  <line x1="214.26" y1="116.80" x2="215.34" y2="120.04" fill="currentColor" stroke="currentColor" stroke-width="1.2" stroke-linecap="round" stroke-linejoin="round" />
  <line x1="223.98" y1="120.04" x2="214.26" y2="116.80" fill="currentColor" stroke="currentColor" stroke-width="1.2" stroke-linecap="round" stroke-linejoin="round" />
  <line x1="8.00" y1="120.04" x2="215.88" y2="120.04" fill="none" stroke="currentColor" stroke-width="1.4000000476837158" stroke-linecap="round" stroke-linejoin="round" />
  <line x1="215.34" y1="120.04" x2="214.26" y2="123.28" fill="currentColor" stroke="currentColor" stroke-width="1.2" stroke-linecap="round" stroke-linejoin="round" />
  <line x1="214.26" y1="123.28" x2="223.98" y2="120.04" fill="currentColor" stroke="currentColor" stroke-width="1.2" stroke-linecap="round" stroke-linejoin="round" />
  <path d="M212.09,127.41 C212.16,127.40 212.25,127.40 212.36,127.40" fill="currentColor" stroke="currentColor" stroke-width="1.2" stroke-linecap="round" stroke-linejoin="round" />
  <path d="M212.36,127.40 C212.46,127.40 212.54,127.40 212.60,127.40" fill="currentColor" stroke="currentColor" stroke-width="1.2" stroke-linecap="round" stroke-linejoin="round" />
  <path d="M215.35,127.40 C215.41,127.40 215.48,127.40 215.58,127.40" fill="currentColor" stroke="currentColor" stroke-width="1.2" stroke-linecap="round" stroke-linejoin="round" />
  <path d="M215.58,127.40 C215.69,127.40 215.78,127.40 215.84,127.41" fill="currentColor" stroke="currentColor" stroke-width="1.2" stroke-linecap="round" stroke-linejoin="round" />
  <path d="M212.60,127.40 C212.65,127.41 212.70,127.42 212.73,127.43" fill="currentColor" stroke="currentColor" stroke-width="1.2" stroke-linecap="round" stroke-linejoin="round" />
  <path d="M215.20,127.43 C215.24,127.42 215.29,127.41 215.35,127.40" fill="currentColor" stroke="currentColor" stroke-width="1.2" stroke-linecap="round" stroke-linejoin="round" />
  <path d="M211.94,127.45 C211.97,127.43 212.02,127.41 212.09,127.41" fill="currentColor" stroke="currentColor" stroke-width="1.2" stroke-linecap="round" stroke-linejoin="round" />
  <path d="M215.84,127.41 C215.91,127.41 215.96,127.43 215.99,127.44" fill="currentColor" stroke="currentColor" stroke-width="1.2" stroke-linecap="round" stroke-linejoin="round" />
  <path d="M212.73,127.43 C212.76,127.44 212.78,127.45 212.79,127.47" fill="currentColor" stroke="currentColor" stroke-width="1.2" stroke-linecap="round" stroke-linejoin="round" />
  <path d="M215.11,127.48 C215.13,127.46 215.16,127.44 215.20,127.43" fill="currentColor" stroke="currentColor" stroke-width="1.2" stroke-linecap="round" stroke-linejoin="round" />
  <path d="M215.99,127.44 C216.03,127.46 216.04,127.49 216.04,127.52" fill="currentColor" stroke="currentColor" stroke-width="1.2" stroke-linecap="round" stroke-linejoin="round" />
  <path d="M211.88,127.53 C211.88,127.50 211.90,127.47 211.94,127.45" fill="currentColor" stroke="currentColor" stroke-width="1.2" stroke-linecap="round" stroke-linejoin="round" />
  <path d="M212.79,127.47 C212.80,127.49 212.82,127.51 212.83,127.53" fill="currentColor" stroke="currentColor" stroke-width="1.2" stroke-linecap="round" stroke-linejoin="round" />
  <path d="M215.04,127.53 C215.07,127.51 215.09,127.49 215.11,127.48" fill="currentColor" stroke="currentColor" stroke-width="1.2" stroke-linecap="round" stroke-linejoin="round" />
  <path d="M216.04,127.52 C216.03,127.56 216.00,127.60 215.96,127.65" fill="currentColor" stroke="currentColor" stroke-width="1.2" stroke-linecap="round" stroke-linejoin="round" />
  <path d="M211.91,127.66 C211.89,127.61 211.88,127.57 211.88,127.53" fill="currentColor" stroke="currentColor" stroke-width="1.2" stroke-linecap="round" stroke-linejoin="round" />
  <line x1="212.83" y1="127.53" x2="213.59" y2="129.34" fill="currentColor" stroke="currentColor" stroke-width="1.2" stroke-linecap="round" stroke-linejoin="round" />
  <line x1="213.59" y1="129.34" x2="215.04" y2="127.53" fill="currentColor" stroke="currentColor" stroke-width="1.2" stroke-linecap="round" stroke-linejoin="round" />
  <line x1="215.96" y1="127.65" x2="214.07" y2="129.93" fill="currentColor" stroke="currentColor" stroke-width="1.2" stroke-linecap="round" stroke-linejoin="round" />
  <line x1="212.90" y1="129.91" x2="211.91" y2="127.66" fill="currentColor" stroke="currentColor" stroke-width="1.2" stroke-linecap="round" stroke-linejoin="round" />
  <line x1="210.89" y1="132.30" x2="212.90" y2="129.91" fill="currentColor" stroke="currentColor" stroke-width="1.2" stroke-linecap="round" stroke-linejoin="round" />
  <line x1="214.07" y1="129.93" x2="215.12" y2="132.29" fill="currentColor" stroke="currentColor" stroke-width="1.2" stroke-linecap="round" stroke-linejoin="round" />
  <line x1="214.18" y1="132.41" x2="213.37" y2="130.50" fill="currentColor" stroke="currentColor" stroke-width="1.2" stroke-linecap="round" stroke-linejoin="round" />
  <line x1="213.37" y1="130.50" x2="211.85" y2="132.41" fill="currentColor" stroke="currentColor" stroke-width="1.2" stroke-linecap="round" stroke-linejoin="round" />
  <path d="M215.12,132.29 C215.15,132.34 215.15,132.39 215.15,132.42" fill="currentColor" stroke="currentColor" stroke-width="1.2" stroke-linecap="round" stroke-linejoin="round" />
  <path d="M210.83,132.42 C210.84,132.39 210.86,132.35 210.89,132.30" fill="currentColor" stroke="currentColor" stroke-width="1.2" stroke-linecap="round" stroke-linejoin="round" />
  <path d="M214.21,132.48 C214.20,132.46 214.19,132.44 214.18,132.41" fill="currentColor" stroke="currentColor" stroke-width="1.2" stroke-linecap="round" stroke-linejoin="round" />
  <path d="M211.85,132.41 C211.83,132.44 211.81,132.46 211.79,132.48" fill="currentColor" stroke="currentColor" stroke-width="1.2" stroke-linecap="round" stroke-linejoin="round" />
  <path d="M215.15,132.42 C215.14,132.45 215.12,132.48 215.08,132.50" fill="currentColor" stroke="currentColor" stroke-width="1.2" stroke-linecap="round" stroke-linejoin="round" />
  <path d="M210.87,132.50 C210.84,132.48 210.83,132.45 210.83,132.42" fill="currentColor" stroke="currentColor" stroke-width="1.2" stroke-linecap="round" stroke-linejoin="round" />
  <path d="M214.28,132.53 C214.24,132.51 214.22,132.50 214.21,132.48" fill="currentColor" stroke="currentColor" stroke-width="1.2" stroke-linecap="round" stroke-linejoin="round" />
  <path d="M211.79,132.48 C211.76,132.50 211.73,132.51 211.69,132.52" fill="currentColor" stroke="currentColor" stroke-width="1.2" stroke-linecap="round" stroke-linejoin="round" />
  <path d="M215.08,132.50 C215.04,132.52 214.99,132.54 214.92,132.55" fill="currentColor" stroke="currentColor" stroke-width="1.2" stroke-linecap="round" stroke-linejoin="round" />
  <path d="M211.01,132.55 C210.95,132.54 210.90,132.52 210.87,132.50" fill="currentColor" stroke="currentColor" stroke-width="1.2" stroke-linecap="round" stroke-linejoin="round" />
  <path d="M211.69,132.52 C211.64,132.53 211.59,132.54 211.52,132.55" fill="currentColor" stroke="currentColor" stroke-width="1.2" stroke-linecap="round" stroke-linejoin="round" />
  <path d="M214.41,132.55 C214.35,132.55 214.31,132.54 214.28,132.53" fill="currentColor" stroke="currentColor" stroke-width="1.2" stroke-linecap="round" stroke-linejoin="round" />
  <path d="M214.92,132.55 C214.85,132.56 214.76,132.56 214.65,132.56" fill="currentColor" stroke="currentColor" stroke-width="1.2" stroke-linecap="round" stroke-linejoin="round" />
  <path d="M211.26,132.56 C211.16,132.56 211.08,132.56 211.01,132.55" fill="currentColor" stroke="currentColor" stroke-width="1.2" stroke-linecap="round" stroke-linejoin="round" />
  <path d="M211.52,132.55 C211.46,132.56 211.37,132.56 211.26,132.56" fill="currentColor" stroke="currentColor" stroke-width="1.2" stroke-linecap="round" stroke-linejoin="round" />
  <path d="M214.65,132.56 C214.55,132.56 214.47,132.56 214.41,132.55" fill="currentColor" stroke="currentColor" stroke-width="1.2" stroke-linecap="round" stroke-linejoin="round" />
  <line x1="17.45" y1="134.22" x2="206.43" y2="134.22" fill="none" stroke="currentColor" stroke-width="1.0" stroke-linecap="round" stroke-linejoin="round" />
  <line x1="17.45" y1="148.39" x2="206.43" y2="148.39" fill="none" stroke="currentColor" stroke-width="1.0" stroke-linecap="round" stroke-linejoin="round" />
  <line x1="17.45" y1="162.56" x2="206.43" y2="162.56" fill="none" stroke="currentColor" stroke-width="1.0" stroke-linecap="round" stroke-linejoin="round" />
  <line x1="17.45" y1="176.74" x2="206.43" y2="176.74" fill="none" stroke="currentColor" stroke-width="1.0" stroke-linecap="round" stroke-linejoin="round" />
  <line x1="17.45" y1="190.91" x2="206.43" y2="190.91" fill="none" stroke="currentColor" stroke-width="1.0" stroke-linecap="round" stroke-linejoin="round" />
  <line x1="17.45" y1="205.08" x2="206.43" y2="205.08" fill="none" stroke="currentColor" stroke-width="1.0" stroke-linecap="round" stroke-linejoin="round" />
</svg>