<svg xmlns="http://www.w3.org/2000/svg" viewBox="0 0 194.88 95.86" preserveAspectRatio="xMidYMid meet" shape-rendering="geometricPrecision" text-rendering="optimizeLegibility">
  <path d="M11.04,38.57 C11.12,38.57 11.22,38.56 11.32,38.56" fill="currentColor" stroke="currentColor" stroke-width="1.2" stroke-linecap="round" stroke-linejoin="round" />
  <path d="M11.32,38.56 C11.44,38.56 11.54,38.57 11.63,38.58" fill="currentColor" stroke="currentColor" stroke-width="1.2" stroke-linecap="round" stroke-linejoin="round" />
  <path d="M10.85,38.60 C10.90,38.59 10.97,38.58 11.04,38.57" fill="currentColor" stroke="currentColor" stroke-width="1.2" stroke-linecap="round" stroke-linejoin="round" />
  <path d="M11.63,38.58 C11.72,38.58 11.79,38.60 11.85,38.61" fill="currentColor" stroke="currentColor" stroke-width="1.2" stroke-linecap="round" stroke-linejoin="round" />
  <path d="M10.71,38.65 C10.75,38.63 10.79,38.61 10.85,38.60" fill="currentColor" stroke="currentColor" stroke-width="1.2" stroke-linecap="round" stroke-linejoin="round" />
  <path d="M11.85,38.61 C11.90,38.63 11.94,38.64 11.97,38.67" fill="currentColor" stroke="currentColor" stroke-width="1.2" stroke-linecap="round" stroke-linejoin="round" />
  <path d="M10.64,38.73 C10.65,38.70 10.68,38.68 10.71,38.65" fill="currentColor" stroke="currentColor" stroke-width="1.2" stroke-linecap="round" stroke-linejoin="round" />
  <path d="M11.97,38.67 C12.00,38.69 12.01,38.72 12.01,38.75" fill="currentColor" stroke="currentColor" stroke-width="1.2" stroke-linecap="round" stroke-linejoin="round" />
  <line x1="11.11" y1="39.37" x2="11.10" y2="39.37" fill="currentColor" stroke="currentColor" stroke-width="1.2" stroke-linecap="round" stroke-linejoin="round" />
  <line x1="8.13" y1="42.95" x2="10.64" y2="38.73" fill="currentColor" stroke="currentColor" stroke-width="1.2" stroke-linecap="round" stroke-linejoin="round" />
  <line x1="12.01" y1="38.75" x2="12.01" y2="43.19" fill="currentColor" stroke="currentColor" stroke-width="1.2" stroke-linecap="round" stroke-linejoin="round" />
  <line x1="11.10" y1="39.37" x2="8.84" y2="43.19" fill="currentColor" stroke="currentColor" stroke-width="1.2" stroke-linecap="round" stroke-linejoin="round" />
  <line x1="11.11" y1="43.19" x2="11.11" y2="39.37" fill="currentColor" stroke="currentColor" stroke-width="1.2" stroke-linecap="round" stroke-linejoin="round" />
  <line x1="16.66" y1="8.00" x2="16.66" y2="76.14" fill="none" stroke="currentColor" stroke-width="1.4000000476837158" stroke-linecap="round" stroke-linejoin="round" />
  <path d="M8.07,43.08 C8.09,43.04 8.11,43.00 8.13,42.95" fill="currentColor" stroke="currentColor" stroke-width="1.2" stroke-linecap="round" stroke-linejoin="round" />
  <path d="M8.03,43.21 C8.04,43.17 8.05,43.12 8.07,43.08" fill="currentColor" stroke="currentColor" stroke-width="1.2" stroke-linecap="round" stroke-linejoin="round" />
  <line x1="12.01" y1="43.19" x2="12.80" y2="43.19" fill="currentColor" stroke="currentColor" stroke-width="1.2" stroke-linecap="round" stroke-linejoin="round" />
  <line x1="8.84" y1="43.19" x2="11.11" y2="43.19" fill="currentColor" stroke="currentColor" stroke-width="1.2" stroke-linecap="round" stroke-linejoin="round" />
  <path d="M12.80,43.19 C12.86,43.19 12.91,43.22 12.94,43.28" fill="currentColor" stroke="currentColor" stroke-width="1.2" stroke-linecap="round" stroke-linejoin="round" />
  <path d="M8.00,43.36 C8.01,43.30 8.02,43.26 8.03,43.21" fill="currentColor" stroke="currentColor" stroke-width="1.2" stroke-linecap="round" stroke-linejoin="round" />
  <path d="M12.94,43.28 C12.98,43.34 13.00,43.44 13.00,43.57" fill="currentColor" stroke="currentColor" stroke-width="1.2" stroke-linecap="round" stroke-linejoin="round" />
  <path d="M8.00,43.54 C8.00,43.47 8.00,43.41 8.00,43.36" fill="currentColor" stroke="currentColor" stroke-width="1.2" stroke-linecap="round" stroke-linejoin="round" />
  <path d="M8.01,43.75 C8.00,43.70 8.00,43.63 8.00,43.54" fill="currentColor" stroke="currentColor" stroke-width="1.2" stroke-linecap="round" stroke-linejoin="round" />
  <path d="M13.00,43.57 C13.00,43.69 12.98,43.78 12.95,43.85" fill="currentColor" stroke="currentColor" stroke-width="1.2" stroke-linecap="round" stroke-linejoin="round" />
  <path d="M8.06,43.88 C8.04,43.85 8.02,43.80 8.01,43.75" fill="currentColor" stroke="currentColor" stroke-width="1.2" stroke-linecap="round" stroke-linejoin="round" />
  <path d="M12.95,43.85 C12.91,43.92 12.86,43.95 12.80,43.95" fill="currentColor" stroke="currentColor" stroke-width="1.2" stroke-linecap="round" stroke-linejoin="round" />
  <path d="M8.14,43.93 C8.11,43.92 8.08,43.90 8.06,43.88" fill="currentColor" stroke="currentColor" stroke-width="1.2" stroke-linecap="round" stroke-linejoin="round" />
  <path d="M8.25,43.95 C8.20,43.95 8.17,43.94 8.14,43.93" fill="currentColor" stroke="currentColor" stroke-width="1.2" stroke-linecap="round" stroke-linejoin="round" />
  <line x1="12.80" y1="43.95" x2="12.01" y2="43.95" fill="currentColor" stroke="currentColor" stroke-width="1.2" stroke-linecap="round" stroke-linejoin="round" />
  <line x1="11.11" y1="43.95" x2="8.25" y2="43.95" fill="currentColor" stroke="currentColor" stroke-width="1.2" stroke-linecap="round" stroke-linejoin="round" />
  <line x1="12.01" y1="43.95" x2="12.01" y2="45.41" fill="currentColor" stroke="currentColor" stroke-width="1.2" stroke-linecap="round" stroke-linejoin="round" />
  <line x1="11.11" y1="45.41" x2="11.11" y2="43.95" fill="currentColor" stroke="currentColor" stroke-width="1.2" stroke-linecap="round" stroke-linejoin="round" />
  <path d="M12.01,45.41 C12.01,45.44 12.00,45.46 11.99,45.48" fill="currentColor" stroke="currentColor" stroke-width="1.2" stroke-linecap="round" stroke-linejoin="round" />
  <path d="M11.13,45.48 C11.12,45.46 11.11,45.44 11.11,45.41" fill="currentColor" stroke="currentColor" stroke-width="1.2" stroke-linecap="round" stroke-linejoin="round" />
  <path d="M11.99,45.48 C11.98,45.50 11.95,45.52 11.92,45.53" fill="currentColor" stroke="currentColor" stroke-width="1.2" stroke-linecap="round" stroke-linejoin="round" />
  <path d="M11.20,45.53 C11.17,45.52 11.15,45.50 11.13,45.48" fill="currentColor" stroke="currentColor" stroke-width="1.2" stroke-linecap="round" stroke-linejoin="round" />
  <path d="M11.92,45.53 C11.88,45.55 11.83,45.56 11.78,45.57" fill="currentColor" stroke="currentColor" stroke-width="1.2" stroke-linecap="round" stroke-linejoin="round" />
  <path d="M11.34,45.57 C11.28,45.56 11.24,45.55 11.20,45.53" fill="currentColor" stroke="currentColor" stroke-width="1.2" stroke-linecap="round" stroke-linejoin="round" />
  <path d="M11.78,45.57 C11.72,45.57 11.64,45.58 11.56,45.58" fill="currentColor" stroke="currentColor" stroke-width="1.2" stroke-linecap="round" stroke-linejoin="round" />
  <path d="M11.56,45.58 C11.47,45.58 11.40,45.57 11.34,45.57" fill="currentColor" stroke="currentColor" stroke-width="1.2" stroke-linecap="round" stroke-linejoin="round" />
  <rect x="16.66" y="66.27" width="9.88" height="9.88" fill="none" stroke="currentColor" stroke-width="1.000000011920929" stroke-linecap="round" stroke-linejoin="round" />
  <line x1="16.66" y1="76.14" x2="186.88" y2="76.14" fill="none" stroke="currentColor" stroke-width="1.4000000476837158" stroke-linecap="round" stroke-linejoin="round" />
  <path d="M98.85,80.76 C98.90,80.76 98.95,80.76 99.01,80.76" fill="currentColor" stroke="currentColor" stroke-width="1.2" stroke-linecap="round" stroke-linejoin="round" />
  <path d="M99.01,80.76 C99.10,80.76 99.17,80.76 99.23,80.77" fill="currentColor" stroke="currentColor" stroke-width="1.2" stroke-linecap="round" stroke-linejoin="round" />
  <path d="M98.74,80.78 C98.77,80.77 98.81,80.76 98.85,80.76" fill="currentColor" stroke="currentColor" stroke-width="1.2" stroke-linecap="round" stroke-linejoin="round" />
  <path d="M99.23,80.77 C99.29,80.78 99.33,80.79 99.36,80.80" fill="currentColor" stroke="currentColor" stroke-width="1.2" stroke-linecap="round" stroke-linejoin="round" />
  <path d="M98.66,80.80 C98.68,80.79 98.71,80.78 98.74,80.78" fill="currentColor" stroke="currentColor" stroke-width="1.2" stroke-linecap="round" stroke-linejoin="round" />
  <path d="M98.61,80.82 C98.62,80.81 98.64,80.80 98.66,80.80" fill="currentColor" stroke="currentColor" stroke-width="1.2" stroke-linecap="round" stroke-linejoin="round" />
  <path d="M104.35,80.71 C104.79,80.71 105.16,80.78 105.46,80.94" fill="currentColor" stroke="currentColor" stroke-width="1.2" stroke-linecap="round" stroke-linejoin="round" />
  <path d="M99.36,80.80 C99.40,80.81 99.42,80.83 99.43,80.85" fill="currentColor" stroke="currentColor" stroke-width="1.2" stroke-linecap="round" stroke-linejoin="round" />
  <path d="M103.19,80.97 C103.50,80.79 103.89,80.71 104.35,80.71" fill="currentColor" stroke="currentColor" stroke-width="1.2" stroke-linecap="round" stroke-linejoin="round" />
  <path d="M99.43,80.85 C99.44,80.87 99.44,80.89 99.44,80.91" fill="currentColor" stroke="currentColor" stroke-width="1.2" stroke-linecap="round" stroke-linejoin="round" />
  <path d="M105.46,80.94 C105.76,81.10 106.00,81.32 106.18,81.63" fill="currentColor" stroke="currentColor" stroke-width="1.2" stroke-linecap="round" stroke-linejoin="round" />
  <path d="M102.43,81.70 C102.62,81.38 102.87,81.14 103.19,80.97" fill="currentColor" stroke="currentColor" stroke-width="1.2" stroke-linecap="round" stroke-linejoin="round" />
  <line x1="97.01" y1="81.85" x2="98.61" y2="80.82" fill="currentColor" stroke="currentColor" stroke-width="1.2" stroke-linecap="round" stroke-linejoin="round" />
  <path d="M104.76,81.53 C104.62,81.49 104.47,81.46 104.29,81.46" fill="currentColor" stroke="currentColor" stroke-width="1.2" stroke-linecap="round" stroke-linejoin="round" />
  <path d="M104.29,81.46 C103.99,81.46 103.74,81.53 103.55,81.68" fill="currentColor" stroke="currentColor" stroke-width="1.2" stroke-linecap="round" stroke-linejoin="round" />
  <path d="M105.13,81.74 C105.02,81.65 104.90,81.57 104.76,81.53" fill="currentColor" stroke="currentColor" stroke-width="1.2" stroke-linecap="round" stroke-linejoin="round" />
  <path d="M96.93,81.92 C96.95,81.89 96.97,81.87 97.01,81.85" fill="currentColor" stroke="currentColor" stroke-width="1.2" stroke-linecap="round" stroke-linejoin="round" />
  <path d="M105.40,82.12 C105.33,81.97 105.24,81.84 105.13,81.74" fill="currentColor" stroke="currentColor" stroke-width="1.2" stroke-linecap="round" stroke-linejoin="round" />
  <path d="M96.88,81.99 C96.89,81.96 96.91,81.94 96.93,81.92" fill="currentColor" stroke="currentColor" stroke-width="1.2" stroke-linecap="round" stroke-linejoin="round" />
  <path d="M103.55,81.68 C103.36,81.82 103.21,82.02 103.10,82.27" fill="currentColor" stroke="currentColor" stroke-width="1.2" stroke-linecap="round" stroke-linejoin="round" />
  <path d="M96.86,82.10 C96.86,82.05 96.87,82.02 96.88,81.99" fill="currentColor" stroke="currentColor" stroke-width="1.2" stroke-linecap="round" stroke-linejoin="round" />
  <line x1="98.52" y1="81.73" x2="97.18" y2="82.53" fill="currentColor" stroke="currentColor" stroke-width="1.2" stroke-linecap="round" stroke-linejoin="round" />
  <path d="M96.85,82.25 C96.85,82.19 96.85,82.14 96.86,82.10" fill="currentColor" stroke="currentColor" stroke-width="1.2" stroke-linecap="round" stroke-linejoin="round" />
  <path d="M102.01,82.84 C102.09,82.40 102.23,82.02 102.43,81.70" fill="currentColor" stroke="currentColor" stroke-width="1.2" stroke-linecap="round" stroke-linejoin="round" />
  <path d="M96.86,82.46 C96.85,82.40 96.85,82.34 96.85,82.25" fill="currentColor" stroke="currentColor" stroke-width="1.2" stroke-linecap="round" stroke-linejoin="round" />
  <path d="M105.59,82.67 C105.54,82.45 105.48,82.27 105.40,82.12" fill="currentColor" stroke="currentColor" stroke-width="1.2" stroke-linecap="round" stroke-linejoin="round" />
  <path d="M96.91,82.57 C96.89,82.55 96.87,82.51 96.86,82.46" fill="currentColor" stroke="currentColor" stroke-width="1.2" stroke-linecap="round" stroke-linejoin="round" />
  <path d="M97.18,82.53 C97.11,82.57 97.06,82.59 97.01,82.60" fill="currentColor" stroke="currentColor" stroke-width="1.2" stroke-linecap="round" stroke-linejoin="round" />
  <path d="M97.01,82.60 C96.97,82.60 96.94,82.60 96.91,82.57" fill="currentColor" stroke="currentColor" stroke-width="1.2" stroke-linecap="round" stroke-linejoin="round" />
  <path d="M103.10,82.27 C103.00,82.52 102.92,82.81 102.88,83.15" fill="currentColor" stroke="currentColor" stroke-width="1.2" stroke-linecap="round" stroke-linejoin="round" />
  <path d="M105.70,83.40 C105.68,83.12 105.64,82.88 105.59,82.67" fill="currentColor" stroke="currentColor" stroke-width="1.2" stroke-linecap="round" stroke-linejoin="round" />
  <path d="M101.88,84.30 C101.88,83.77 101.92,83.28 102.01,82.84" fill="currentColor" stroke="currentColor" stroke-width="1.2" stroke-linecap="round" stroke-linejoin="round" />
  <path d="M102.88,83.15 C102.84,83.49 102.82,83.85 102.82,84.23" fill="currentColor" stroke="currentColor" stroke-width="1.2" stroke-linecap="round" stroke-linejoin="round" />
  <path d="M105.74,84.33 C105.74,83.98 105.73,83.67 105.70,83.40" fill="currentColor" stroke="currentColor" stroke-width="1.2" stroke-linecap="round" stroke-linejoin="round" />
  <line x1="99.44" y1="80.91" x2="99.44" y2="87.02" fill="currentColor" stroke="currentColor" stroke-width="1.2" stroke-linecap="round" stroke-linejoin="round" />
  <line x1="98.52" y1="87.02" x2="98.52" y2="81.73" fill="currentColor" stroke="currentColor" stroke-width="1.2" stroke-linecap="round" stroke-linejoin="round" />
  <path d="M105.71,85.07 C105.73,84.84 105.74,84.59 105.74,84.33" fill="currentColor" stroke="currentColor" stroke-width="1.2" stroke-linecap="round" stroke-linejoin="round" />
  <path d="M102.82,84.23 C102.82,84.75 102.85,85.19 102.90,85.56" fill="currentColor" stroke="currentColor" stroke-width="1.2" stroke-linecap="round" stroke-linejoin="round" />
  <path d="M101.99,85.82 C101.92,85.38 101.88,84.87 101.88,84.30" fill="currentColor" stroke="currentColor" stroke-width="1.2" stroke-linecap="round" stroke-linejoin="round" />
  <path d="M105.63,85.74 C105.67,85.53 105.70,85.31 105.71,85.07" fill="currentColor" stroke="currentColor" stroke-width="1.2" stroke-linecap="round" stroke-linejoin="round" />
  <path d="M102.90,85.56 C102.96,85.92 103.04,86.22 103.16,86.45" fill="currentColor" stroke="currentColor" stroke-width="1.2" stroke-linecap="round" stroke-linejoin="round" />
  <path d="M105.46,86.30 C105.53,86.13 105.58,85.94 105.63,85.74" fill="currentColor" stroke="currentColor" stroke-width="1.2" stroke-linecap="round" stroke-linejoin="round" />
  <path d="M102.38,86.94 C102.20,86.64 102.07,86.26 101.99,85.82" fill="currentColor" stroke="currentColor" stroke-width="1.2" stroke-linecap="round" stroke-linejoin="round" />
  <path d="M105.18,86.73 C105.29,86.61 105.38,86.46 105.46,86.30" fill="currentColor" stroke="currentColor" stroke-width="1.2" stroke-linecap="round" stroke-linejoin="round" />
  <path d="M103.16,86.45 C103.27,86.68 103.42,86.84 103.60,86.95" fill="currentColor" stroke="currentColor" stroke-width="1.2" stroke-linecap="round" stroke-linejoin="round" />
  <path d="M104.79,87.01 C104.94,86.94 105.07,86.85 105.18,86.73" fill="currentColor" stroke="currentColor" stroke-width="1.2" stroke-linecap="round" stroke-linejoin="round" />
  <line x1="97.07" y1="87.02" x2="98.52" y2="87.02" fill="currentColor" stroke="currentColor" stroke-width="1.2" stroke-linecap="round" stroke-linejoin="round" />
  <line x1="99.44" y1="87.02" x2="100.70" y2="87.02" fill="currentColor" stroke="currentColor" stroke-width="1.2" stroke-linecap="round" stroke-linejoin="round" />
  <path d="M103.60,86.95 C103.79,87.05 104.01,87.10 104.26,87.10" fill="currentColor" stroke="currentColor" stroke-width="1.2" stroke-linecap="round" stroke-linejoin="round" />
  <path d="M96.99,87.04 C97.02,87.03 97.04,87.02 97.07,87.02" fill="currentColor" stroke="currentColor" stroke-width="1.2" stroke-linecap="round" stroke-linejoin="round" />
  <path d="M100.70,87.02 C100.73,87.02 100.76,87.03 100.78,87.04" fill="currentColor" stroke="currentColor" stroke-width="1.2" stroke-linecap="round" stroke-linejoin="round" />
  <path d="M104.26,87.10 C104.46,87.10 104.64,87.07 104.79,87.01" fill="currentColor" stroke="currentColor" stroke-width="1.2" stroke-linecap="round" stroke-linejoin="round" />
  <path d="M96.93,87.11 C96.95,87.08 96.97,87.06 96.99,87.04" fill="currentColor" stroke="currentColor" stroke-width="1.2" stroke-linecap="round" stroke-linejoin="round" />
  <path d="M100.78,87.04 C100.81,87.06 100.83,87.08 100.84,87.11" fill="currentColor" stroke="currentColor" stroke-width="1.2" stroke-linecap="round" stroke-linejoin="round" />
  <path d="M96.89,87.23 C96.90,87.18 96.92,87.14 96.93,87.11" fill="currentColor" stroke="currentColor" stroke-width="1.2" stroke-linecap="round" stroke-linejoin="round" />
  <path d="M100.84,87.11 C100.86,87.14 100.87,87.18 100.88,87.23" fill="currentColor" stroke="currentColor" stroke-width="1.2" stroke-linecap="round" stroke-linejoin="round" />
  <path d="M106.14,86.86 C105.94,87.18 105.69,87.43 105.37,87.60" fill="currentColor" stroke="currentColor" stroke-width="1.2" stroke-linecap="round" stroke-linejoin="round" />
  <path d="M103.10,87.63 C102.81,87.47 102.57,87.24 102.38,86.94" fill="currentColor" stroke="currentColor" stroke-width="1.2" stroke-linecap="round" stroke-linejoin="round" />
  <path d="M96.88,87.39 C96.88,87.33 96.88,87.27 96.89,87.23" fill="currentColor" stroke="currentColor" stroke-width="1.2" stroke-linecap="round" stroke-linejoin="round" />
  <path d="M100.88,87.23 C100.89,87.27 100.89,87.33 100.89,87.39" fill="currentColor" stroke="currentColor" stroke-width="1.2" stroke-linecap="round" stroke-linejoin="round" />
  <path d="M100.89,87.39 C100.89,87.46 100.89,87.52 100.88,87.57" fill="currentColor" stroke="currentColor" stroke-width="1.2" stroke-linecap="round" stroke-linejoin="round" />
  <path d="M96.89,87.57 C96.88,87.52 96.88,87.46 96.88,87.39" fill="currentColor" stroke="currentColor" stroke-width="1.2" stroke-linecap="round" stroke-linejoin="round" />
  <path d="M100.88,87.57 C100.87,87.61 100.85,87.65 100.84,87.68" fill="currentColor" stroke="currentColor" stroke-width="1.2" stroke-linecap="round" stroke-linejoin="round" />
  <path d="M96.94,87.68 C96.92,87.65 96.90,87.61 96.89,87.57" fill="currentColor" stroke="currentColor" stroke-width="1.2" stroke-linecap="round" stroke-linejoin="round" />
  <path d="M100.84,87.68 C100.82,87.71 100.80,87.73 100.77,87.74" fill="currentColor" stroke="currentColor" stroke-width="1.2" stroke-linecap="round" stroke-linejoin="round" />
  <path d="M97.00,87.74 C96.98,87.73 96.96,87.71 96.94,87.68" fill="currentColor" stroke="currentColor" stroke-width="1.2" stroke-linecap="round" stroke-linejoin="round" />
  <path d="M105.37,87.60 C105.06,87.77 104.67,87.86 104.21,87.86" fill="currentColor" stroke="currentColor" stroke-width="1.2" stroke-linecap="round" stroke-linejoin="round" />
  <path d="M104.21,87.86 C103.77,87.86 103.40,87.78 103.10,87.63" fill="currentColor" stroke="currentColor" stroke-width="1.2" stroke-linecap="round" stroke-linejoin="round" />
  <path d="M100.77,87.74 C100.75,87.75 100.73,87.76 100.70,87.76" fill="currentColor" stroke="currentColor" stroke-width="1.2" stroke-linecap="round" stroke-linejoin="round" />
  <path d="M97.07,87.76 C97.05,87.76 97.02,87.75 97.00,87.74" fill="currentColor" stroke="currentColor" stroke-width="1.2" stroke-linecap="round" stroke-linejoin="round" />
  <line x1="100.70" y1="87.76" x2="97.07" y2="87.76" fill="currentColor" stroke="currentColor" stroke-width="1.2" stroke-linecap="round" stroke-linejoin="round" />
</svg>