<svg xmlns="http://www.w3.org/2000/svg" viewBox="0 0 146.61 142.65" preserveAspectRatio="xMidYMid meet" shape-rendering="geometricPrecision" text-rendering="optimizeLegibility">
  <path d="M136.59,8.00 C136.79,8.00 136.99,8.02 137.18,8.06" fill="currentColor" stroke="currentColor" stroke-width="1.2" stroke-linecap="round" stroke-linejoin="round" />
  <path d="M135.33,8.25 C135.71,8.08 136.13,8.00 136.59,8.00" fill="currentColor" stroke="currentColor" stroke-width="1.2" stroke-linecap="round" stroke-linejoin="round" />
  <path d="M137.18,8.06 C137.38,8.10 137.55,8.14 137.72,8.20" fill="currentColor" stroke="currentColor" stroke-width="1.2" stroke-linecap="round" stroke-linejoin="round" />
  <path d="M137.72,8.20 C137.88,8.26 138.03,8.33 138.15,8.40" fill="currentColor" stroke="currentColor" stroke-width="1.2" stroke-linecap="round" stroke-linejoin="round" />
  <path d="M138.15,8.40 C138.28,8.48 138.37,8.54 138.42,8.59" fill="currentColor" stroke="currentColor" stroke-width="1.2" stroke-linecap="round" stroke-linejoin="round" />
  <path d="M134.35,8.98 C134.62,8.66 134.95,8.42 135.33,8.25" fill="currentColor" stroke="currentColor" stroke-width="1.2" stroke-linecap="round" stroke-linejoin="round" />
  <path d="M138.42,8.59 C138.47,8.64 138.50,8.68 138.51,8.70" fill="currentColor" stroke="currentColor" stroke-width="1.2" stroke-linecap="round" stroke-linejoin="round" />
  <path d="M138.51,8.70 C138.53,8.73 138.54,8.76 138.55,8.79" fill="currentColor" stroke="currentColor" stroke-width="1.2" stroke-linecap="round" stroke-linejoin="round" />
  <path d="M138.55,8.79 C138.56,8.83 138.57,8.87 138.57,8.92" fill="currentColor" stroke="currentColor" stroke-width="1.2" stroke-linecap="round" stroke-linejoin="round" />
  <path d="M137.32,8.92 C137.12,8.85 136.87,8.82 136.58,8.82" fill="currentColor" stroke="currentColor" stroke-width="1.2" stroke-linecap="round" stroke-linejoin="round" />
  <path d="M136.58,8.82 C136.27,8.82 135.99,8.88 135.73,9.01" fill="currentColor" stroke="currentColor" stroke-width="1.2" stroke-linecap="round" stroke-linejoin="round" />
  <path d="M138.57,8.92 C138.58,8.96 138.58,9.02 138.58,9.09" fill="currentColor" stroke="currentColor" stroke-width="1.2" stroke-linecap="round" stroke-linejoin="round" />
  <path d="M137.85,9.16 C137.70,9.07 137.53,9.00 137.32,8.92" fill="currentColor" stroke="currentColor" stroke-width="1.2" stroke-linecap="round" stroke-linejoin="round" />
  <path d="M138.58,9.09 C138.58,9.16 138.58,9.22 138.57,9.27" fill="currentColor" stroke="currentColor" stroke-width="1.2" stroke-linecap="round" stroke-linejoin="round" />
  <path d="M138.20,9.39 C138.11,9.32 137.99,9.25 137.85,9.16" fill="currentColor" stroke="currentColor" stroke-width="1.2" stroke-linecap="round" stroke-linejoin="round" />
  <path d="M135.73,9.01 C135.47,9.13 135.25,9.32 135.07,9.56" fill="currentColor" stroke="currentColor" stroke-width="1.2" stroke-linecap="round" stroke-linejoin="round" />
  <path d="M138.57,9.27 C138.56,9.32 138.55,9.37 138.54,9.40" fill="currentColor" stroke="currentColor" stroke-width="1.2" stroke-linecap="round" stroke-linejoin="round" />
  <path d="M138.54,9.40 C138.52,9.43 138.50,9.46 138.48,9.48" fill="currentColor" stroke="currentColor" stroke-width="1.2" stroke-linecap="round" stroke-linejoin="round" />
  <path d="M138.41,9.50 C138.36,9.50 138.29,9.46 138.20,9.39" fill="currentColor" stroke="currentColor" stroke-width="1.2" stroke-linecap="round" stroke-linejoin="round" />
  <path d="M138.48,9.48 C138.46,9.49 138.44,9.50 138.41,9.50" fill="currentColor" stroke="currentColor" stroke-width="1.2" stroke-linecap="round" stroke-linejoin="round" />
  <path d="M133.71,10.14 C133.86,9.69 134.07,9.30 134.35,8.98" fill="currentColor" stroke="currentColor" stroke-width="1.2" stroke-linecap="round" stroke-linejoin="round" />
  <path d="M135.07,9.56 C134.89,9.80 134.75,10.10 134.65,10.45" fill="currentColor" stroke="currentColor" stroke-width="1.2" stroke-linecap="round" stroke-linejoin="round" />
  <path d="M133.49,11.71 C133.49,11.12 133.56,10.60 133.71,10.14" fill="currentColor" stroke="currentColor" stroke-width="1.2" stroke-linecap="round" stroke-linejoin="round" />
  <path d="M134.65,10.45 C134.55,10.80 134.50,11.20 134.50,11.65" fill="currentColor" stroke="currentColor" stroke-width="1.2" stroke-linecap="round" stroke-linejoin="round" />
  <path d="M134.50,11.65 C134.50,12.10 134.55,12.50 134.64,12.84" fill="currentColor" stroke="currentColor" stroke-width="1.2" stroke-linecap="round" stroke-linejoin="round" />
  <path d="M133.70,13.22 C133.56,12.78 133.49,12.28 133.49,11.71" fill="currentColor" stroke="currentColor" stroke-width="1.2" stroke-linecap="round" stroke-linejoin="round" />
  <path d="M134.64,12.84 C134.74,13.18 134.88,13.47 135.06,13.70" fill="currentColor" stroke="currentColor" stroke-width="1.2" stroke-linecap="round" stroke-linejoin="round" />
  <path d="M138.47,13.73 C138.49,13.73 138.51,13.74 138.53,13.75" fill="currentColor" stroke="currentColor" stroke-width="1.2" stroke-linecap="round" stroke-linejoin="round" />
  <path d="M134.30,14.33 C134.04,14.03 133.84,13.66 133.70,13.22" fill="currentColor" stroke="currentColor" stroke-width="1.2" stroke-linecap="round" stroke-linejoin="round" />
  <path d="M138.53,13.75 C138.55,13.76 138.56,13.78 138.57,13.81" fill="currentColor" stroke="currentColor" stroke-width="1.2" stroke-linecap="round" stroke-linejoin="round" />
  <path d="M138.24,13.84 C138.34,13.77 138.41,13.73 138.47,13.73" fill="currentColor" stroke="currentColor" stroke-width="1.2" stroke-linecap="round" stroke-linejoin="round" />
  <path d="M138.57,13.81 C138.59,13.84 138.59,13.89 138.60,13.94" fill="currentColor" stroke="currentColor" stroke-width="1.2" stroke-linecap="round" stroke-linejoin="round" />
  <path d="M137.88,14.07 C138.03,13.98 138.15,13.90 138.24,13.84" fill="currentColor" stroke="currentColor" stroke-width="1.2" stroke-linecap="round" stroke-linejoin="round" />
  <path d="M135.06,13.70 C135.24,13.93 135.46,14.11 135.72,14.23" fill="currentColor" stroke="currentColor" stroke-width="1.2" stroke-linecap="round" stroke-linejoin="round" />
  <path d="M138.60,13.94 C138.60,14.00 138.61,14.06 138.61,14.15" fill="currentColor" stroke="currentColor" stroke-width="1.2" stroke-linecap="round" stroke-linejoin="round" />
  <path d="M137.34,14.30 C137.55,14.23 137.73,14.15 137.88,14.07" fill="currentColor" stroke="currentColor" stroke-width="1.2" stroke-linecap="round" stroke-linejoin="round" />
  <path d="M138.61,14.15 C138.61,14.21 138.60,14.26 138.60,14.30" fill="currentColor" stroke="currentColor" stroke-width="1.2" stroke-linecap="round" stroke-linejoin="round" />
  <path d="M135.72,14.23 C135.98,14.34 136.28,14.40 136.61,14.40" fill="currentColor" stroke="currentColor" stroke-width="1.2" stroke-linecap="round" stroke-linejoin="round" />
  <path d="M136.61,14.40 C136.89,14.40 137.14,14.37 137.34,14.30" fill="currentColor" stroke="currentColor" stroke-width="1.2" stroke-linecap="round" stroke-linejoin="round" />
  <path d="M138.60,14.30 C138.60,14.34 138.59,14.38 138.58,14.41" fill="currentColor" stroke="currentColor" stroke-width="1.2" stroke-linecap="round" stroke-linejoin="round" />
  <path d="M138.58,14.41 C138.57,14.45 138.56,14.48 138.55,14.50" fill="currentColor" stroke="currentColor" stroke-width="1.2" stroke-linecap="round" stroke-linejoin="round" />
  <path d="M138.55,14.50 C138.53,14.53 138.51,14.56 138.47,14.60" fill="currentColor" stroke="currentColor" stroke-width="1.2" stroke-linecap="round" stroke-linejoin="round" />
  <path d="M135.24,15.00 C134.87,14.85 134.56,14.62 134.30,14.33" fill="currentColor" stroke="currentColor" stroke-width="1.2" stroke-linecap="round" stroke-linejoin="round" />
  <path d="M138.47,14.60 C138.43,14.63 138.36,14.69 138.24,14.76" fill="currentColor" stroke="currentColor" stroke-width="1.2" stroke-linecap="round" stroke-linejoin="round" />
  <path d="M138.24,14.76 C138.13,14.84 137.98,14.91 137.81,14.98" fill="currentColor" stroke="currentColor" stroke-width="1.2" stroke-linecap="round" stroke-linejoin="round" />
  <path d="M137.81,14.98 C137.63,15.05 137.44,15.11 137.21,15.16" fill="currentColor" stroke="currentColor" stroke-width="1.2" stroke-linecap="round" stroke-linejoin="round" />
  <path d="M136.48,15.23 C136.02,15.23 135.61,15.16 135.24,15.00" fill="currentColor" stroke="currentColor" stroke-width="1.2" stroke-linecap="round" stroke-linejoin="round" />
  <path d="M137.21,15.16 C136.99,15.21 136.75,15.23 136.48,15.23" fill="currentColor" stroke="currentColor" stroke-width="1.2" stroke-linecap="round" stroke-linejoin="round" />
  <path d="M17.12,72.11 C17.12,40.71 42.60,15.23 74.00,15.23" fill="none" stroke="currentColor" stroke-width="1.418999981880188" stroke-linecap="round" stroke-linejoin="round" />
  <path d="M74.00,15.23 C105.39,15.23 130.87,40.71 130.87,72.11" fill="none" stroke="currentColor" stroke-width="1.418999981880188" stroke-linecap="round" stroke-linejoin="round" />
  <path d="M72.63,72.11 C72.63,71.35 73.24,70.74 73.99,70.74" fill="currentColor" stroke="currentColor" stroke-width="1.2" stroke-linecap="round" stroke-linejoin="round" />
  <path d="M73.99,70.74 C74.75,70.74 75.36,71.35 75.36,72.11" fill="currentColor" stroke="currentColor" stroke-width="1.2" stroke-linecap="round" stroke-linejoin="round" />
  <line x1="130.84" y1="128.95" x2="130.84" y2="15.26" fill="none" stroke="currentColor" stroke-width="1.418999981880188" stroke-linecap="round" stroke-linejoin="round" />
  <line x1="130.84" y1="15.26" x2="17.15" y2="128.95" fill="none" stroke="currentColor" stroke-width="1.418999981880188" stroke-linecap="round" stroke-linejoin="round" />
  <path d="M75.36,72.11 C75.36,72.86 74.75,73.47 73.99,73.47" fill="currentColor" stroke="currentColor" stroke-width="1.2" stroke-linecap="round" stroke-linejoin="round" />
  <path d="M73.99,73.47 C73.24,73.47 72.63,72.86 72.63,72.11" fill="currentColor" stroke="currentColor" stroke-width="1.2" stroke-linecap="round" stroke-linejoin="round" />
  <rect x="74.00" y="72.11" width="56.85" height="56.85" fill="none" stroke="currentColor" stroke-width="1.0119999766349792" stroke-linecap="round" stroke-linejoin="round" />
  <path d="M130.87,72.11 C130.87,103.50 105.39,128.98 74.00,128.98" fill="none" stroke="currentColor" stroke-width="1.418999981880188" stroke-linecap="round" stroke-linejoin="round" />
  <path d="M74.00,128.98 C42.60,128.98 17.12,103.50 17.12,72.11" fill="none" stroke="currentColor" stroke-width="1.418999981880188" stroke-linecap="round" stroke-linejoin="round" />
  <rect x="121.69" y="119.80" width="9.15" height="9.15" fill="none" stroke="currentColor" stroke-width="1.0119999766349792" stroke-linecap="round" stroke-linejoin="round" />
  <path d="M10.75,127.54 C10.82,127.53 10.91,127.53 11.02,127.53" fill="currentColor" stroke="currentColor" stroke-width="1.2" stroke-linecap="round" stroke-linejoin="round" />
  <path d="M11.02,127.53 C11.14,127.53 11.23,127.53 11.31,127.54" fill="currentColor" stroke="currentColor" stroke-width="1.2" stroke-linecap="round" stroke-linejoin="round" />
  <path d="M10.58,127.57 C10.62,127.55 10.68,127.54 10.75,127.54" fill="currentColor" stroke="currentColor" stroke-width="1.2" stroke-linecap="round" stroke-linejoin="round" />
  <path d="M11.31,127.54 C11.39,127.54 11.45,127.55 11.50,127.57" fill="currentColor" stroke="currentColor" stroke-width="1.2" stroke-linecap="round" stroke-linejoin="round" />
  <line x1="133.98" y1="127.56" x2="135.58" y2="127.56" fill="currentColor" stroke="currentColor" stroke-width="1.2" stroke-linecap="round" stroke-linejoin="round" />
  <path d="M10.47,127.63 C10.50,127.60 10.53,127.58 10.58,127.57" fill="currentColor" stroke="currentColor" stroke-width="1.2" stroke-linecap="round" stroke-linejoin="round" />
  <path d="M11.50,127.57 C11.54,127.58 11.58,127.60 11.60,127.63" fill="currentColor" stroke="currentColor" stroke-width="1.2" stroke-linecap="round" stroke-linejoin="round" />
  <path d="M133.74,127.65 C133.81,127.59 133.89,127.56 133.98,127.56" fill="currentColor" stroke="currentColor" stroke-width="1.2" stroke-linecap="round" stroke-linejoin="round" />
  <path d="M135.58,127.56 C136.00,127.56 136.35,127.60 136.62,127.68" fill="currentColor" stroke="currentColor" stroke-width="1.2" stroke-linecap="round" stroke-linejoin="round" />
  <path d="M10.42,127.73 C10.43,127.69 10.45,127.65 10.47,127.63" fill="currentColor" stroke="currentColor" stroke-width="1.2" stroke-linecap="round" stroke-linejoin="round" />
  <path d="M11.60,127.63 C11.63,127.66 11.65,127.69 11.66,127.73" fill="currentColor" stroke="currentColor" stroke-width="1.2" stroke-linecap="round" stroke-linejoin="round" />
  <path d="M133.63,127.94 C133.63,127.80 133.67,127.70 133.74,127.65" fill="currentColor" stroke="currentColor" stroke-width="1.2" stroke-linecap="round" stroke-linejoin="round" />
  <path d="M136.62,127.68 C136.89,127.76 137.11,127.88 137.29,128.03" fill="currentColor" stroke="currentColor" stroke-width="1.2" stroke-linecap="round" stroke-linejoin="round" />
  <path d="M137.29,128.03 C137.47,128.18 137.61,128.37 137.70,128.59" fill="currentColor" stroke="currentColor" stroke-width="1.2" stroke-linecap="round" stroke-linejoin="round" />
  <line x1="135.53" y1="128.33" x2="134.56" y2="128.33" fill="currentColor" stroke="currentColor" stroke-width="1.2" stroke-linecap="round" stroke-linejoin="round" />
  <path d="M136.18,128.40 C136.01,128.35 135.80,128.33 135.53,128.33" fill="currentColor" stroke="currentColor" stroke-width="1.2" stroke-linecap="round" stroke-linejoin="round" />
  <line x1="10.99" y1="128.50" x2="10.99" y2="128.50" fill="currentColor" stroke="currentColor" stroke-width="1.2" stroke-linecap="round" stroke-linejoin="round" />
  <path d="M136.57,128.62 C136.47,128.53 136.34,128.45 136.18,128.40" fill="currentColor" stroke="currentColor" stroke-width="1.2" stroke-linecap="round" stroke-linejoin="round" />
  <path d="M136.80,128.97 C136.75,128.84 136.67,128.72 136.57,128.62" fill="currentColor" stroke="currentColor" stroke-width="1.2" stroke-linecap="round" stroke-linejoin="round" />
  <line x1="17.15" y1="128.95" x2="130.84" y2="128.95" fill="none" stroke="currentColor" stroke-width="1.418999981880188" stroke-linecap="round" stroke-linejoin="round" />
  <path d="M137.70,128.59 C137.79,128.81 137.83,129.07 137.83,129.34" fill="currentColor" stroke="currentColor" stroke-width="1.2" stroke-linecap="round" stroke-linejoin="round" />
  <path d="M136.87,129.44 C136.87,129.27 136.84,129.11 136.80,128.97" fill="currentColor" stroke="currentColor" stroke-width="1.2" stroke-linecap="round" stroke-linejoin="round" />
  <line x1="134.56" y1="128.33" x2="134.56" y2="130.61" fill="currentColor" stroke="currentColor" stroke-width="1.2" stroke-linecap="round" stroke-linejoin="round" />
  <path d="M137.83,129.34 C137.83,129.51 137.81,129.67 137.77,129.83" fill="currentColor" stroke="currentColor" stroke-width="1.2" stroke-linecap="round" stroke-linejoin="round" />
  <path d="M136.80,129.88 C136.85,129.74 136.87,129.59 136.87,129.44" fill="currentColor" stroke="currentColor" stroke-width="1.2" stroke-linecap="round" stroke-linejoin="round" />
  <path d="M137.77,129.83 C137.73,129.98 137.67,130.12 137.60,130.25" fill="currentColor" stroke="currentColor" stroke-width="1.2" stroke-linecap="round" stroke-linejoin="round" />
  <path d="M136.58,130.26 C136.68,130.15 136.75,130.03 136.80,129.88" fill="currentColor" stroke="currentColor" stroke-width="1.2" stroke-linecap="round" stroke-linejoin="round" />
  <line x1="10.99" y1="128.50" x2="9.77" y2="132.02" fill="currentColor" stroke="currentColor" stroke-width="1.2" stroke-linecap="round" stroke-linejoin="round" />
  <line x1="12.23" y1="132.02" x2="10.99" y2="128.50" fill="currentColor" stroke="currentColor" stroke-width="1.2" stroke-linecap="round" stroke-linejoin="round" />
  <path d="M136.21,130.51 C136.36,130.45 136.49,130.37 136.58,130.26" fill="currentColor" stroke="currentColor" stroke-width="1.2" stroke-linecap="round" stroke-linejoin="round" />
  <path d="M137.60,130.25 C137.52,130.38 137.42,130.49 137.30,130.59" fill="currentColor" stroke="currentColor" stroke-width="1.2" stroke-linecap="round" stroke-linejoin="round" />
  <path d="M135.62,130.61 C135.87,130.61 136.06,130.58 136.21,130.51" fill="currentColor" stroke="currentColor" stroke-width="1.2" stroke-linecap="round" stroke-linejoin="round" />
  <line x1="134.56" y1="130.61" x2="135.62" y2="130.61" fill="currentColor" stroke="currentColor" stroke-width="1.2" stroke-linecap="round" stroke-linejoin="round" />
  <path d="M137.30,130.59 C137.18,130.70 137.05,130.78 136.90,130.84" fill="currentColor" stroke="currentColor" stroke-width="1.2" stroke-linecap="round" stroke-linejoin="round" />
  <path d="M136.90,130.84 C137.09,130.88 137.27,130.95 137.44,131.04" fill="currentColor" stroke="currentColor" stroke-width="1.2" stroke-linecap="round" stroke-linejoin="round" />
  <line x1="8.05" y1="134.28" x2="10.42" y2="127.73" fill="currentColor" stroke="currentColor" stroke-width="1.2" stroke-linecap="round" stroke-linejoin="round" />
  <line x1="11.66" y1="127.73" x2="14.03" y2="134.29" fill="currentColor" stroke="currentColor" stroke-width="1.2" stroke-linecap="round" stroke-linejoin="round" />
  <line x1="133.63" y1="134.24" x2="133.63" y2="127.94" fill="currentColor" stroke="currentColor" stroke-width="1.2" stroke-linecap="round" stroke-linejoin="round" />
  <path d="M137.44,131.04 C137.60,131.14 137.75,131.26 137.87,131.41" fill="currentColor" stroke="currentColor" stroke-width="1.2" stroke-linecap="round" stroke-linejoin="round" />
  <line x1="135.68" y1="131.36" x2="134.56" y2="131.36" fill="currentColor" stroke="currentColor" stroke-width="1.2" stroke-linecap="round" stroke-linejoin="round" />
  <path d="M136.41,131.44 C136.22,131.39 135.97,131.36 135.68,131.36" fill="currentColor" stroke="currentColor" stroke-width="1.2" stroke-linecap="round" stroke-linejoin="round" />
  <path d="M136.90,131.69 C136.77,131.58 136.61,131.50 136.41,131.44" fill="currentColor" stroke="currentColor" stroke-width="1.2" stroke-linecap="round" stroke-linejoin="round" />
  <path d="M137.87,131.41 C138.00,131.56 138.10,131.74 138.17,131.94" fill="currentColor" stroke="currentColor" stroke-width="1.2" stroke-linecap="round" stroke-linejoin="round" />
  <path d="M137.19,132.09 C137.12,131.93 137.03,131.80 136.90,131.69" fill="currentColor" stroke="currentColor" stroke-width="1.2" stroke-linecap="round" stroke-linejoin="round" />
  <line x1="9.77" y1="132.02" x2="12.23" y2="132.02" fill="currentColor" stroke="currentColor" stroke-width="1.2" stroke-linecap="round" stroke-linejoin="round" />
  <path d="M138.17,131.94 C138.24,132.14 138.28,132.36 138.28,132.60" fill="currentColor" stroke="currentColor" stroke-width="1.2" stroke-linecap="round" stroke-linejoin="round" />
  <path d="M137.29,132.65 C137.29,132.44 137.26,132.25 137.19,132.09" fill="currentColor" stroke="currentColor" stroke-width="1.2" stroke-linecap="round" stroke-linejoin="round" />
  <line x1="134.56" y1="131.36" x2="134.56" y2="133.84" fill="currentColor" stroke="currentColor" stroke-width="1.2" stroke-linecap="round" stroke-linejoin="round" />
  <line x1="12.47" y1="132.77" x2="9.54" y2="132.77" fill="currentColor" stroke="currentColor" stroke-width="1.2" stroke-linecap="round" stroke-linejoin="round" />
  <path d="M138.28,132.60 C138.28,132.82 138.25,133.02 138.20,133.21" fill="currentColor" stroke="currentColor" stroke-width="1.2" stroke-linecap="round" stroke-linejoin="round" />
  <path d="M137.19,133.17 C137.26,133.02 137.29,132.85 137.29,132.65" fill="currentColor" stroke="currentColor" stroke-width="1.2" stroke-linecap="round" stroke-linejoin="round" />
  <path d="M136.90,133.54 C137.03,133.44 137.12,133.32 137.19,133.17" fill="currentColor" stroke="currentColor" stroke-width="1.2" stroke-linecap="round" stroke-linejoin="round" />
  <path d="M138.20,133.21 C138.14,133.40 138.06,133.57 137.96,133.71" fill="currentColor" stroke="currentColor" stroke-width="1.2" stroke-linecap="round" stroke-linejoin="round" />
  <line x1="9.54" y1="132.77" x2="8.96" y2="134.46" fill="currentColor" stroke="currentColor" stroke-width="1.2" stroke-linecap="round" stroke-linejoin="round" />
  <line x1="13.08" y1="134.48" x2="12.47" y2="132.77" fill="currentColor" stroke="currentColor" stroke-width="1.2" stroke-linecap="round" stroke-linejoin="round" />
  <path d="M136.48,133.77 C136.64,133.72 136.78,133.64 136.90,133.54" fill="currentColor" stroke="currentColor" stroke-width="1.2" stroke-linecap="round" stroke-linejoin="round" />
  <path d="M135.92,133.84 C136.13,133.84 136.32,133.82 136.48,133.77" fill="currentColor" stroke="currentColor" stroke-width="1.2" stroke-linecap="round" stroke-linejoin="round" />
  <line x1="134.56" y1="133.84" x2="135.92" y2="133.84" fill="currentColor" stroke="currentColor" stroke-width="1.2" stroke-linecap="round" stroke-linejoin="round" />
  <path d="M137.96,133.71 C137.86,133.86 137.73,133.99 137.59,134.11" fill="currentColor" stroke="currentColor" stroke-width="1.2" stroke-linecap="round" stroke-linejoin="round" />
  <path d="M137.59,134.11 C137.45,134.22 137.29,134.31 137.11,134.39" fill="currentColor" stroke="currentColor" stroke-width="1.2" stroke-linecap="round" stroke-linejoin="round" />
  <path d="M8.00,134.48 C8.00,134.43 8.02,134.36 8.05,134.28" fill="currentColor" stroke="currentColor" stroke-width="1.2" stroke-linecap="round" stroke-linejoin="round" />
  <path d="M14.03,134.29 C14.06,134.37 14.08,134.43 14.08,134.48" fill="currentColor" stroke="currentColor" stroke-width="1.2" stroke-linecap="round" stroke-linejoin="round" />
  <path d="M133.74,134.54 C133.67,134.48 133.63,134.38 133.63,134.24" fill="currentColor" stroke="currentColor" stroke-width="1.2" stroke-linecap="round" stroke-linejoin="round" />
  <path d="M137.11,134.39 C136.92,134.47 136.73,134.52 136.53,134.56" fill="currentColor" stroke="currentColor" stroke-width="1.2" stroke-linecap="round" stroke-linejoin="round" />
  <path d="M8.96,134.46 C8.95,134.49 8.93,134.52 8.92,134.55" fill="currentColor" stroke="currentColor" stroke-width="1.2" stroke-linecap="round" stroke-linejoin="round" />
  <path d="M13.12,134.56 C13.11,134.54 13.09,134.52 13.08,134.48" fill="currentColor" stroke="currentColor" stroke-width="1.2" stroke-linecap="round" stroke-linejoin="round" />
  <path d="M8.04,134.59 C8.01,134.56 8.00,134.52 8.00,134.48" fill="currentColor" stroke="currentColor" stroke-width="1.2" stroke-linecap="round" stroke-linejoin="round" />
  <path d="M14.08,134.48 C14.08,134.53 14.07,134.57 14.04,134.59" fill="currentColor" stroke="currentColor" stroke-width="1.2" stroke-linecap="round" stroke-linejoin="round" />
  <path d="M8.92,134.55 C8.90,134.57 8.87,134.59 8.84,134.61" fill="currentColor" stroke="currentColor" stroke-width="1.2" stroke-linecap="round" stroke-linejoin="round" />
  <path d="M133.98,134.62 C133.89,134.62 133.81,134.59 133.74,134.54" fill="currentColor" stroke="currentColor" stroke-width="1.2" stroke-linecap="round" stroke-linejoin="round" />
  <path d="M13.20,134.62 C13.17,134.60 13.14,134.59 13.12,134.56" fill="currentColor" stroke="currentColor" stroke-width="1.2" stroke-linecap="round" stroke-linejoin="round" />
  <path d="M136.53,134.56 C136.32,134.60 136.09,134.62 135.82,134.62" fill="currentColor" stroke="currentColor" stroke-width="1.2" stroke-linecap="round" stroke-linejoin="round" />
  <path d="M8.18,134.64 C8.12,134.63 8.07,134.61 8.04,134.59" fill="currentColor" stroke="currentColor" stroke-width="1.2" stroke-linecap="round" stroke-linejoin="round" />
  <path d="M14.04,134.59 C14.01,134.62 13.96,134.63 13.89,134.64" fill="currentColor" stroke="currentColor" stroke-width="1.2" stroke-linecap="round" stroke-linejoin="round" />
  <line x1="135.82" y1="134.62" x2="133.98" y2="134.62" fill="currentColor" stroke="currentColor" stroke-width="1.2" stroke-linecap="round" stroke-linejoin="round" />
  <path d="M8.84,134.61 C8.80,134.62 8.75,134.63 8.69,134.64" fill="currentColor" stroke="currentColor" stroke-width="1.2" stroke-linecap="round" stroke-linejoin="round" />
  <path d="M13.35,134.64 C13.29,134.64 13.23,134.63 13.20,134.62" fill="currentColor" stroke="currentColor" stroke-width="1.2" stroke-linecap="round" stroke-linejoin="round" />
  <path d="M8.44,134.65 C8.34,134.65 8.25,134.65 8.18,134.64" fill="currentColor" stroke="currentColor" stroke-width="1.2" stroke-linecap="round" stroke-linejoin="round" />
  <path d="M13.89,134.64 C13.83,134.65 13.73,134.65 13.62,134.65" fill="currentColor" stroke="currentColor" stroke-width="1.2" stroke-linecap="round" stroke-linejoin="round" />
  <path d="M8.69,134.64 C8.62,134.65 8.54,134.65 8.44,134.65" fill="currentColor" stroke="currentColor" stroke-width="1.2" stroke-linecap="round" stroke-linejoin="round" />
  <path d="M13.62,134.65 C13.51,134.65 13.42,134.65 13.35,134.64" fill="currentColor" stroke="currentColor" stroke-width="1.2" stroke-linecap="round" stroke-linejoin="round" />
</svg>