<svg xmlns="http://www.w3.org/2000/svg" viewBox="0 0 250.58 156.34" preserveAspectRatio="xMidYMid meet" shape-rendering="geometricPrecision" text-rendering="optimizeLegibility">
  <line x1="169.62" y1="8.00" x2="171.19" y2="8.00" fill="currentColor" stroke="currentColor" stroke-width="1.2" stroke-linecap="round" stroke-linejoin="round" />
  <path d="M169.38,8.08 C169.45,8.03 169.53,8.00 169.62,8.00" fill="currentColor" stroke="currentColor" stroke-width="1.2" stroke-linecap="round" stroke-linejoin="round" />
  <path d="M171.19,8.00 C171.79,8.00 172.30,8.08 172.71,8.23" fill="currentColor" stroke="currentColor" stroke-width="1.2" stroke-linecap="round" stroke-linejoin="round" />
  <path d="M169.27,8.38 C169.27,8.24 169.31,8.14 169.38,8.08" fill="currentColor" stroke="currentColor" stroke-width="1.2" stroke-linecap="round" stroke-linejoin="round" />
  <path d="M172.71,8.23 C173.13,8.39 173.48,8.61 173.76,8.90" fill="currentColor" stroke="currentColor" stroke-width="1.2" stroke-linecap="round" stroke-linejoin="round" />
  <line x1="171.14" y1="8.77" x2="170.20" y2="8.77" fill="currentColor" stroke="currentColor" stroke-width="1.2" stroke-linecap="round" stroke-linejoin="round" />
  <path d="M172.31,8.97 C172.01,8.83 171.61,8.77 171.14,8.77" fill="currentColor" stroke="currentColor" stroke-width="1.2" stroke-linecap="round" stroke-linejoin="round" />
  <path d="M173.07,9.52 C172.87,9.28 172.62,9.10 172.31,8.97" fill="currentColor" stroke="currentColor" stroke-width="1.2" stroke-linecap="round" stroke-linejoin="round" />
  <path d="M173.76,8.90 C174.04,9.20 174.25,9.55 174.40,9.97" fill="currentColor" stroke="currentColor" stroke-width="1.2" stroke-linecap="round" stroke-linejoin="round" />
  <path d="M173.50,10.36 C173.41,10.04 173.26,9.76 173.07,9.52" fill="currentColor" stroke="currentColor" stroke-width="1.2" stroke-linecap="round" stroke-linejoin="round" />
  <path d="M174.40,9.97 C174.54,10.38 174.62,10.85 174.62,11.37" fill="currentColor" stroke="currentColor" stroke-width="1.2" stroke-linecap="round" stroke-linejoin="round" />
  <path d="M173.64,11.41 C173.64,11.03 173.60,10.68 173.50,10.36" fill="currentColor" stroke="currentColor" stroke-width="1.2" stroke-linecap="round" stroke-linejoin="round" />
  <line x1="170.20" y1="8.77" x2="170.20" y2="14.18" fill="currentColor" stroke="currentColor" stroke-width="1.2" stroke-linecap="round" stroke-linejoin="round" />
  <line x1="169.27" y1="14.57" x2="169.27" y2="8.38" fill="currentColor" stroke="currentColor" stroke-width="1.2" stroke-linecap="round" stroke-linejoin="round" />
  <path d="M173.49,12.64 C173.59,12.29 173.64,11.88 173.64,11.41" fill="currentColor" stroke="currentColor" stroke-width="1.2" stroke-linecap="round" stroke-linejoin="round" />
  <path d="M174.62,11.37 C174.62,11.97 174.54,12.50 174.39,12.95" fill="currentColor" stroke="currentColor" stroke-width="1.2" stroke-linecap="round" stroke-linejoin="round" />
  <path d="M173.03,13.50 C173.23,13.27 173.39,12.98 173.49,12.64" fill="currentColor" stroke="currentColor" stroke-width="1.2" stroke-linecap="round" stroke-linejoin="round" />
  <path d="M174.39,12.95 C174.23,13.40 174.01,13.77 173.71,14.07" fill="currentColor" stroke="currentColor" stroke-width="1.2" stroke-linecap="round" stroke-linejoin="round" />
  <path d="M172.27,14.01 C172.57,13.90 172.83,13.73 173.03,13.50" fill="currentColor" stroke="currentColor" stroke-width="1.2" stroke-linecap="round" stroke-linejoin="round" />
  <path d="M171.15,14.18 C171.59,14.18 171.96,14.12 172.27,14.01" fill="currentColor" stroke="currentColor" stroke-width="1.2" stroke-linecap="round" stroke-linejoin="round" />
  <line x1="170.20" y1="14.18" x2="171.15" y2="14.18" fill="currentColor" stroke="currentColor" stroke-width="1.2" stroke-linecap="round" stroke-linejoin="round" />
  <path d="M173.71,14.07 C173.42,14.36 173.05,14.58 172.62,14.73" fill="currentColor" stroke="currentColor" stroke-width="1.2" stroke-linecap="round" stroke-linejoin="round" />
  <path d="M169.38,14.87 C169.31,14.81 169.27,14.71 169.27,14.57" fill="currentColor" stroke="currentColor" stroke-width="1.2" stroke-linecap="round" stroke-linejoin="round" />
  <path d="M172.62,14.73 C172.19,14.88 171.68,14.95 171.09,14.95" fill="currentColor" stroke="currentColor" stroke-width="1.2" stroke-linecap="round" stroke-linejoin="round" />
  <path d="M169.62,14.95 C169.53,14.95 169.45,14.92 169.38,14.87" fill="currentColor" stroke="currentColor" stroke-width="1.2" stroke-linecap="round" stroke-linejoin="round" />
  <line x1="171.09" y1="14.95" x2="169.62" y2="14.95" fill="currentColor" stroke="currentColor" stroke-width="1.2" stroke-linecap="round" stroke-linejoin="round" />
  <path d="M240.60,55.82 C240.80,55.82 240.99,55.84 241.18,55.88" fill="currentColor" stroke="currentColor" stroke-width="1.2" stroke-linecap="round" stroke-linejoin="round" />
  <line x1="101.13" y1="55.91" x2="104.43" y2="55.91" fill="currentColor" stroke="currentColor" stroke-width="1.2" stroke-linecap="round" stroke-linejoin="round" />
  <path d="M104.43,55.91 C104.46,55.91 104.48,55.92 104.50,55.93" fill="currentColor" stroke="currentColor" stroke-width="1.2" stroke-linecap="round" stroke-linejoin="round" />
  <path d="M239.35,56.07 C239.73,55.90 240.14,55.82 240.60,55.82" fill="currentColor" stroke="currentColor" stroke-width="1.2" stroke-linecap="round" stroke-linejoin="round" />
  <path d="M100.90,55.99 C100.97,55.94 101.05,55.91 101.13,55.91" fill="currentColor" stroke="currentColor" stroke-width="1.2" stroke-linecap="round" stroke-linejoin="round" />
  <path d="M241.18,55.88 C241.37,55.92 241.55,55.96 241.71,56.02" fill="currentColor" stroke="currentColor" stroke-width="1.2" stroke-linecap="round" stroke-linejoin="round" />
  <path d="M104.50,55.93 C104.53,55.94 104.55,55.97 104.56,56.00" fill="currentColor" stroke="currentColor" stroke-width="1.2" stroke-linecap="round" stroke-linejoin="round" />
  <path d="M104.56,56.00 C104.58,56.03 104.59,56.07 104.60,56.12" fill="currentColor" stroke="currentColor" stroke-width="1.2" stroke-linecap="round" stroke-linejoin="round" />
  <path d="M241.71,56.02 C241.87,56.08 242.01,56.14 242.14,56.22" fill="currentColor" stroke="currentColor" stroke-width="1.2" stroke-linecap="round" stroke-linejoin="round" />
  <path d="M100.79,56.29 C100.79,56.14 100.82,56.05 100.90,55.99" fill="currentColor" stroke="currentColor" stroke-width="1.2" stroke-linecap="round" stroke-linejoin="round" />
  <path d="M104.60,56.12 C104.60,56.17 104.61,56.23 104.61,56.30" fill="currentColor" stroke="currentColor" stroke-width="1.2" stroke-linecap="round" stroke-linejoin="round" />
  <path d="M242.14,56.22 C242.26,56.30 242.35,56.36 242.40,56.41" fill="currentColor" stroke="currentColor" stroke-width="1.2" stroke-linecap="round" stroke-linejoin="round" />
  <path d="M104.61,56.30 C104.61,56.37 104.60,56.42 104.60,56.47" fill="currentColor" stroke="currentColor" stroke-width="1.2" stroke-linecap="round" stroke-linejoin="round" />
  <path d="M238.39,56.79 C238.66,56.47 238.98,56.23 239.35,56.07" fill="currentColor" stroke="currentColor" stroke-width="1.2" stroke-linecap="round" stroke-linejoin="round" />
  <path d="M242.40,56.41 C242.45,56.45 242.48,56.49 242.49,56.52" fill="currentColor" stroke="currentColor" stroke-width="1.2" stroke-linecap="round" stroke-linejoin="round" />
  <path d="M104.60,56.47 C104.59,56.52 104.58,56.56 104.56,56.59" fill="currentColor" stroke="currentColor" stroke-width="1.2" stroke-linecap="round" stroke-linejoin="round" />
  <path d="M242.49,56.52 C242.51,56.54 242.52,56.57 242.53,56.60" fill="currentColor" stroke="currentColor" stroke-width="1.2" stroke-linecap="round" stroke-linejoin="round" />
  <path d="M104.56,56.59 C104.55,56.62 104.53,56.64 104.50,56.66" fill="currentColor" stroke="currentColor" stroke-width="1.2" stroke-linecap="round" stroke-linejoin="round" />
  <path d="M242.53,56.60 C242.54,56.64 242.54,56.68 242.55,56.73" fill="currentColor" stroke="currentColor" stroke-width="1.2" stroke-linecap="round" stroke-linejoin="round" />
  <path d="M104.50,56.66 C104.48,56.67 104.46,56.68 104.43,56.68" fill="currentColor" stroke="currentColor" stroke-width="1.2" stroke-linecap="round" stroke-linejoin="round" />
  <line x1="104.43" y1="56.68" x2="101.71" y2="56.68" fill="currentColor" stroke="currentColor" stroke-width="1.2" stroke-linecap="round" stroke-linejoin="round" />
  <path d="M241.32,56.73 C241.12,56.66 240.87,56.63 240.59,56.63" fill="currentColor" stroke="currentColor" stroke-width="1.2" stroke-linecap="round" stroke-linejoin="round" />
  <path d="M240.59,56.63 C240.28,56.63 240.00,56.69 239.75,56.81" fill="currentColor" stroke="currentColor" stroke-width="1.2" stroke-linecap="round" stroke-linejoin="round" />
  <path d="M242.55,56.73 C242.55,56.77 242.56,56.83 242.56,56.89" fill="currentColor" stroke="currentColor" stroke-width="1.2" stroke-linecap="round" stroke-linejoin="round" />
  <path d="M241.83,56.96 C241.69,56.88 241.52,56.80 241.32,56.73" fill="currentColor" stroke="currentColor" stroke-width="1.2" stroke-linecap="round" stroke-linejoin="round" />
  <path d="M242.56,56.89 C242.56,56.96 242.55,57.02 242.55,57.07" fill="currentColor" stroke="currentColor" stroke-width="1.2" stroke-linecap="round" stroke-linejoin="round" />
  <path d="M242.18,57.19 C242.09,57.13 241.98,57.05 241.83,56.96" fill="currentColor" stroke="currentColor" stroke-width="1.2" stroke-linecap="round" stroke-linejoin="round" />
  <path d="M239.75,56.81 C239.50,56.94 239.28,57.12 239.10,57.36" fill="currentColor" stroke="currentColor" stroke-width="1.2" stroke-linecap="round" stroke-linejoin="round" />
  <path d="M242.55,57.07 C242.54,57.12 242.53,57.17 242.51,57.20" fill="currentColor" stroke="currentColor" stroke-width="1.2" stroke-linecap="round" stroke-linejoin="round" />
  <path d="M242.51,57.20 C242.50,57.23 242.48,57.26 242.46,57.28" fill="currentColor" stroke="currentColor" stroke-width="1.2" stroke-linecap="round" stroke-linejoin="round" />
  <path d="M242.39,57.30 C242.34,57.30 242.27,57.26 242.18,57.19" fill="currentColor" stroke="currentColor" stroke-width="1.2" stroke-linecap="round" stroke-linejoin="round" />
  <path d="M242.46,57.28 C242.44,57.29 242.42,57.30 242.39,57.30" fill="currentColor" stroke="currentColor" stroke-width="1.2" stroke-linecap="round" stroke-linejoin="round" />
  <path d="M237.76,57.93 C237.91,57.48 238.12,57.10 238.39,56.79" fill="currentColor" stroke="currentColor" stroke-width="1.2" stroke-linecap="round" stroke-linejoin="round" />
  <line x1="101.71" y1="56.68" x2="101.71" y2="58.86" fill="currentColor" stroke="currentColor" stroke-width="1.2" stroke-linecap="round" stroke-linejoin="round" />
  <path d="M239.10,57.36 C238.92,57.60 238.79,57.89 238.69,58.24" fill="currentColor" stroke="currentColor" stroke-width="1.2" stroke-linecap="round" stroke-linejoin="round" />
  <path d="M237.54,59.47 C237.54,58.90 237.61,58.38 237.76,57.93" fill="currentColor" stroke="currentColor" stroke-width="1.2" stroke-linecap="round" stroke-linejoin="round" />
  <path d="M238.69,58.24 C238.59,58.58 238.54,58.98 238.54,59.42" fill="currentColor" stroke="currentColor" stroke-width="1.2" stroke-linecap="round" stroke-linejoin="round" />
  <line x1="101.71" y1="58.86" x2="104.04" y2="58.86" fill="currentColor" stroke="currentColor" stroke-width="1.2" stroke-linecap="round" stroke-linejoin="round" />
  <path d="M104.04,58.86 C104.07,58.86 104.09,58.87 104.12,58.88" fill="currentColor" stroke="currentColor" stroke-width="1.2" stroke-linecap="round" stroke-linejoin="round" />
  <path d="M104.12,58.88 C104.14,58.90 104.16,58.92 104.18,58.95" fill="currentColor" stroke="currentColor" stroke-width="1.2" stroke-linecap="round" stroke-linejoin="round" />
  <path d="M104.18,58.95 C104.19,58.98 104.20,59.02 104.21,59.07" fill="currentColor" stroke="currentColor" stroke-width="1.2" stroke-linecap="round" stroke-linejoin="round" />
  <path d="M104.21,59.07 C104.22,59.12 104.22,59.18 104.22,59.24" fill="currentColor" stroke="currentColor" stroke-width="1.2" stroke-linecap="round" stroke-linejoin="round" />
  <path d="M104.22,59.24 C104.22,59.31 104.22,59.36 104.21,59.41" fill="currentColor" stroke="currentColor" stroke-width="1.2" stroke-linecap="round" stroke-linejoin="round" />
  <line x1="100.79" y1="62.48" x2="100.79" y2="56.29" fill="currentColor" stroke="currentColor" stroke-width="1.2" stroke-linecap="round" stroke-linejoin="round" />
  <path d="M104.21,59.41 C104.20,59.46 104.19,59.50 104.18,59.52" fill="currentColor" stroke="currentColor" stroke-width="1.2" stroke-linecap="round" stroke-linejoin="round" />
  <path d="M104.18,59.52 C104.16,59.55 104.14,59.57 104.12,59.58" fill="currentColor" stroke="currentColor" stroke-width="1.2" stroke-linecap="round" stroke-linejoin="round" />
  <path d="M104.12,59.58 C104.09,59.60 104.07,59.60 104.04,59.60" fill="currentColor" stroke="currentColor" stroke-width="1.2" stroke-linecap="round" stroke-linejoin="round" />
  <line x1="104.04" y1="59.60" x2="101.71" y2="59.60" fill="currentColor" stroke="currentColor" stroke-width="1.2" stroke-linecap="round" stroke-linejoin="round" />
  <path d="M238.54,59.42 C238.54,59.86 238.59,60.25 238.68,60.59" fill="currentColor" stroke="currentColor" stroke-width="1.2" stroke-linecap="round" stroke-linejoin="round" />
  <path d="M237.75,60.97 C237.61,60.53 237.54,60.04 237.54,59.47" fill="currentColor" stroke="currentColor" stroke-width="1.2" stroke-linecap="round" stroke-linejoin="round" />
  <line x1="101.71" y1="59.60" x2="101.71" y2="62.09" fill="currentColor" stroke="currentColor" stroke-width="1.2" stroke-linecap="round" stroke-linejoin="round" />
  <path d="M238.68,60.59 C238.78,60.93 238.91,61.21 239.09,61.44" fill="currentColor" stroke="currentColor" stroke-width="1.2" stroke-linecap="round" stroke-linejoin="round" />
  <path d="M242.44,61.47 C242.47,61.47 242.49,61.47 242.51,61.48" fill="currentColor" stroke="currentColor" stroke-width="1.2" stroke-linecap="round" stroke-linejoin="round" />
  <path d="M238.34,62.05 C238.08,61.76 237.89,61.40 237.75,60.97" fill="currentColor" stroke="currentColor" stroke-width="1.2" stroke-linecap="round" stroke-linejoin="round" />
  <path d="M242.51,61.48 C242.53,61.49 242.54,61.51 242.55,61.55" fill="currentColor" stroke="currentColor" stroke-width="1.2" stroke-linecap="round" stroke-linejoin="round" />
  <path d="M242.22,61.57 C242.32,61.50 242.39,61.47 242.44,61.47" fill="currentColor" stroke="currentColor" stroke-width="1.2" stroke-linecap="round" stroke-linejoin="round" />
  <path d="M242.55,61.55 C242.56,61.58 242.57,61.62 242.58,61.67" fill="currentColor" stroke="currentColor" stroke-width="1.2" stroke-linecap="round" stroke-linejoin="round" />
  <path d="M241.87,61.80 C242.01,61.71 242.13,61.64 242.22,61.57" fill="currentColor" stroke="currentColor" stroke-width="1.2" stroke-linecap="round" stroke-linejoin="round" />
  <path d="M239.09,61.44 C239.27,61.67 239.48,61.84 239.74,61.95" fill="currentColor" stroke="currentColor" stroke-width="1.2" stroke-linecap="round" stroke-linejoin="round" />
  <path d="M242.58,61.67 C242.58,61.73 242.58,61.79 242.58,61.88" fill="currentColor" stroke="currentColor" stroke-width="1.2" stroke-linecap="round" stroke-linejoin="round" />
  <path d="M241.34,62.03 C241.55,61.96 241.72,61.88 241.87,61.80" fill="currentColor" stroke="currentColor" stroke-width="1.2" stroke-linecap="round" stroke-linejoin="round" />
  <path d="M242.58,61.88 C242.58,61.93 242.58,61.98 242.58,62.03" fill="currentColor" stroke="currentColor" stroke-width="1.2" stroke-linecap="round" stroke-linejoin="round" />
  <path d="M239.74,61.95 C240.00,62.07 240.29,62.13 240.62,62.13" fill="currentColor" stroke="currentColor" stroke-width="1.2" stroke-linecap="round" stroke-linejoin="round" />
  <path d="M240.62,62.13 C240.89,62.13 241.13,62.09 241.34,62.03" fill="currentColor" stroke="currentColor" stroke-width="1.2" stroke-linecap="round" stroke-linejoin="round" />
  <path d="M242.58,62.03 C242.57,62.07 242.57,62.11 242.56,62.14" fill="currentColor" stroke="currentColor" stroke-width="1.2" stroke-linecap="round" stroke-linejoin="round" />
  <line x1="101.71" y1="62.09" x2="104.46" y2="62.09" fill="currentColor" stroke="currentColor" stroke-width="1.2" stroke-linecap="round" stroke-linejoin="round" />
  <path d="M104.46,62.09 C104.49,62.09 104.52,62.10 104.54,62.11" fill="currentColor" stroke="currentColor" stroke-width="1.2" stroke-linecap="round" stroke-linejoin="round" />
  <path d="M104.54,62.11 C104.57,62.13 104.59,62.15 104.60,62.18" fill="currentColor" stroke="currentColor" stroke-width="1.2" stroke-linecap="round" stroke-linejoin="round" />
  <path d="M242.56,62.14 C242.55,62.17 242.54,62.20 242.52,62.22" fill="currentColor" stroke="currentColor" stroke-width="1.2" stroke-linecap="round" stroke-linejoin="round" />
  <path d="M104.60,62.18 C104.62,62.21 104.63,62.25 104.64,62.30" fill="currentColor" stroke="currentColor" stroke-width="1.2" stroke-linecap="round" stroke-linejoin="round" />
  <path d="M242.52,62.22 C242.51,62.25 242.49,62.28 242.45,62.32" fill="currentColor" stroke="currentColor" stroke-width="1.2" stroke-linecap="round" stroke-linejoin="round" />
  <path d="M239.27,62.72 C238.90,62.57 238.59,62.35 238.34,62.05" fill="currentColor" stroke="currentColor" stroke-width="1.2" stroke-linecap="round" stroke-linejoin="round" />
  <path d="M104.64,62.30 C104.65,62.35 104.65,62.41 104.65,62.48" fill="currentColor" stroke="currentColor" stroke-width="1.2" stroke-linecap="round" stroke-linejoin="round" />
  <path d="M242.45,62.32 C242.41,62.35 242.34,62.41 242.22,62.48" fill="currentColor" stroke="currentColor" stroke-width="1.2" stroke-linecap="round" stroke-linejoin="round" />
  <path d="M104.65,62.48 C104.65,62.54 104.65,62.60 104.64,62.65" fill="currentColor" stroke="currentColor" stroke-width="1.2" stroke-linecap="round" stroke-linejoin="round" />
  <path d="M242.22,62.48 C242.11,62.55 241.97,62.62 241.80,62.69" fill="currentColor" stroke="currentColor" stroke-width="1.2" stroke-linecap="round" stroke-linejoin="round" />
  <path d="M100.90,62.78 C100.82,62.72 100.79,62.62 100.79,62.48" fill="currentColor" stroke="currentColor" stroke-width="1.2" stroke-linecap="round" stroke-linejoin="round" />
  <path d="M104.64,62.65 C104.63,62.69 104.62,62.74 104.60,62.77" fill="currentColor" stroke="currentColor" stroke-width="1.2" stroke-linecap="round" stroke-linejoin="round" />
  <path d="M241.80,62.69 C241.63,62.76 241.43,62.82 241.21,62.87" fill="currentColor" stroke="currentColor" stroke-width="1.2" stroke-linecap="round" stroke-linejoin="round" />
  <path d="M104.60,62.77 C104.59,62.80 104.57,62.82 104.54,62.84" fill="currentColor" stroke="currentColor" stroke-width="1.2" stroke-linecap="round" stroke-linejoin="round" />
  <path d="M101.13,62.86 C101.05,62.86 100.97,62.83 100.90,62.78" fill="currentColor" stroke="currentColor" stroke-width="1.2" stroke-linecap="round" stroke-linejoin="round" />
  <path d="M240.49,62.94 C240.04,62.94 239.63,62.87 239.27,62.72" fill="currentColor" stroke="currentColor" stroke-width="1.2" stroke-linecap="round" stroke-linejoin="round" />
  <path d="M104.54,62.84 C104.52,62.85 104.49,62.86 104.46,62.86" fill="currentColor" stroke="currentColor" stroke-width="1.2" stroke-linecap="round" stroke-linejoin="round" />
  <line x1="104.46" y1="62.86" x2="101.13" y2="62.86" fill="currentColor" stroke="currentColor" stroke-width="1.2" stroke-linecap="round" stroke-linejoin="round" />
  <path d="M241.21,62.87 C240.99,62.92 240.75,62.94 240.49,62.94" fill="currentColor" stroke="currentColor" stroke-width="1.2" stroke-linecap="round" stroke-linejoin="round" />
  <polygon points="171.75,18.52 8.00,137.49 210.41,137.49 234.30,63.96" fill="none" stroke="currentColor" stroke-width="1.4000000476837158" stroke-linecap="round" stroke-linejoin="round" />
  <line x1="133.10" y1="137.49" x2="109.21" y2="63.96" fill="none" stroke="currentColor" stroke-width="1.4000000476837158" stroke-linecap="round" stroke-linejoin="round" />
  <path d="M33.17,126.79 C33.27,126.79 33.35,126.79 33.41,126.80" fill="currentColor" stroke="currentColor" stroke-width="1.2" stroke-linecap="round" stroke-linejoin="round" />
  <path d="M36.16,126.80 C36.22,126.79 36.30,126.79 36.39,126.79" fill="currentColor" stroke="currentColor" stroke-width="1.2" stroke-linecap="round" stroke-linejoin="round" />
  <path d="M32.90,126.80 C32.97,126.79 33.06,126.79 33.17,126.79" fill="currentColor" stroke="currentColor" stroke-width="1.2" stroke-linecap="round" stroke-linejoin="round" />
  <path d="M36.39,126.79 C36.50,126.79 36.59,126.79 36.66,126.80" fill="currentColor" stroke="currentColor" stroke-width="1.2" stroke-linecap="round" stroke-linejoin="round" />
  <path d="M33.41,126.80 C33.46,126.80 33.51,126.81 33.54,126.82" fill="currentColor" stroke="currentColor" stroke-width="1.2" stroke-linecap="round" stroke-linejoin="round" />
  <path d="M36.01,126.82 C36.05,126.81 36.10,126.80 36.16,126.80" fill="currentColor" stroke="currentColor" stroke-width="1.2" stroke-linecap="round" stroke-linejoin="round" />
  <path d="M36.66,126.80 C36.72,126.81 36.77,126.82 36.81,126.84" fill="currentColor" stroke="currentColor" stroke-width="1.2" stroke-linecap="round" stroke-linejoin="round" />
  <path d="M32.75,126.84 C32.78,126.82 32.83,126.81 32.90,126.80" fill="currentColor" stroke="currentColor" stroke-width="1.2" stroke-linecap="round" stroke-linejoin="round" />
  <path d="M33.54,126.82 C33.57,126.83 33.59,126.85 33.60,126.86" fill="currentColor" stroke="currentColor" stroke-width="1.2" stroke-linecap="round" stroke-linejoin="round" />
  <path d="M35.92,126.87 C35.94,126.85 35.97,126.84 36.01,126.82" fill="currentColor" stroke="currentColor" stroke-width="1.2" stroke-linecap="round" stroke-linejoin="round" />
  <path d="M36.81,126.84 C36.84,126.86 36.85,126.88 36.85,126.92" fill="currentColor" stroke="currentColor" stroke-width="1.2" stroke-linecap="round" stroke-linejoin="round" />
  <path d="M32.69,126.93 C32.70,126.89 32.71,126.86 32.75,126.84" fill="currentColor" stroke="currentColor" stroke-width="1.2" stroke-linecap="round" stroke-linejoin="round" />
  <path d="M33.60,126.86 C33.62,126.88 33.63,126.90 33.64,126.93" fill="currentColor" stroke="currentColor" stroke-width="1.2" stroke-linecap="round" stroke-linejoin="round" />
  <path d="M35.86,126.93 C35.88,126.91 35.90,126.89 35.92,126.87" fill="currentColor" stroke="currentColor" stroke-width="1.2" stroke-linecap="round" stroke-linejoin="round" />
  <path d="M36.85,126.92 C36.84,126.95 36.82,126.99 36.77,127.04" fill="currentColor" stroke="currentColor" stroke-width="1.2" stroke-linecap="round" stroke-linejoin="round" />
  <path d="M32.72,127.05 C32.70,127.00 32.69,126.96 32.69,126.93" fill="currentColor" stroke="currentColor" stroke-width="1.2" stroke-linecap="round" stroke-linejoin="round" />
  <line x1="33.64" y1="126.93" x2="34.41" y2="128.73" fill="currentColor" stroke="currentColor" stroke-width="1.2" stroke-linecap="round" stroke-linejoin="round" />
  <line x1="34.41" y1="128.73" x2="35.86" y2="126.93" fill="currentColor" stroke="currentColor" stroke-width="1.2" stroke-linecap="round" stroke-linejoin="round" />
  <line x1="33.71" y1="129.31" x2="32.72" y2="127.05" fill="currentColor" stroke="currentColor" stroke-width="1.2" stroke-linecap="round" stroke-linejoin="round" />
  <line x1="36.77" y1="127.04" x2="34.88" y2="129.32" fill="currentColor" stroke="currentColor" stroke-width="1.2" stroke-linecap="round" stroke-linejoin="round" />
  <line x1="31.70" y1="131.69" x2="33.71" y2="129.31" fill="currentColor" stroke="currentColor" stroke-width="1.2" stroke-linecap="round" stroke-linejoin="round" />
  <line x1="34.88" y1="129.32" x2="35.94" y2="131.69" fill="currentColor" stroke="currentColor" stroke-width="1.2" stroke-linecap="round" stroke-linejoin="round" />
  <line x1="34.99" y1="131.81" x2="34.18" y2="129.90" fill="currentColor" stroke="currentColor" stroke-width="1.2" stroke-linecap="round" stroke-linejoin="round" />
  <line x1="34.18" y1="129.90" x2="32.67" y2="131.81" fill="currentColor" stroke="currentColor" stroke-width="1.2" stroke-linecap="round" stroke-linejoin="round" />
  <path d="M35.94,131.69 C35.96,131.74 35.97,131.78 35.96,131.81" fill="currentColor" stroke="currentColor" stroke-width="1.2" stroke-linecap="round" stroke-linejoin="round" />
  <path d="M31.64,131.82 C31.65,131.78 31.67,131.74 31.70,131.69" fill="currentColor" stroke="currentColor" stroke-width="1.2" stroke-linecap="round" stroke-linejoin="round" />
  <path d="M35.02,131.87 C35.01,131.85 35.00,131.83 34.99,131.81" fill="currentColor" stroke="currentColor" stroke-width="1.2" stroke-linecap="round" stroke-linejoin="round" />
  <path d="M32.67,131.81 C32.64,131.83 32.62,131.85 32.60,131.87" fill="currentColor" stroke="currentColor" stroke-width="1.2" stroke-linecap="round" stroke-linejoin="round" />
  <path d="M35.96,131.81 C35.96,131.85 35.93,131.88 35.89,131.90" fill="currentColor" stroke="currentColor" stroke-width="1.2" stroke-linecap="round" stroke-linejoin="round" />
  <path d="M31.68,131.90 C31.65,131.88 31.64,131.85 31.64,131.82" fill="currentColor" stroke="currentColor" stroke-width="1.2" stroke-linecap="round" stroke-linejoin="round" />
  <path d="M32.60,131.87 C32.57,131.89 32.54,131.91 32.50,131.92" fill="currentColor" stroke="currentColor" stroke-width="1.2" stroke-linecap="round" stroke-linejoin="round" />
  <path d="M35.09,131.92 C35.06,131.91 35.03,131.89 35.02,131.87" fill="currentColor" stroke="currentColor" stroke-width="1.2" stroke-linecap="round" stroke-linejoin="round" />
  <path d="M35.89,131.90 C35.85,131.92 35.80,131.93 35.73,131.94" fill="currentColor" stroke="currentColor" stroke-width="1.2" stroke-linecap="round" stroke-linejoin="round" />
  <path d="M31.82,131.94 C31.76,131.93 31.71,131.92 31.68,131.90" fill="currentColor" stroke="currentColor" stroke-width="1.2" stroke-linecap="round" stroke-linejoin="round" />
  <path d="M23.32,126.36 C25.60,129.48 26.94,133.33 26.94,137.49" fill="none" stroke="currentColor" stroke-width="1.0" stroke-linecap="round" stroke-linejoin="round" />
  <path d="M32.50,131.92 C32.46,131.93 32.40,131.94 32.34,131.95" fill="currentColor" stroke="currentColor" stroke-width="1.2" stroke-linecap="round" stroke-linejoin="round" />
  <path d="M35.22,131.95 C35.17,131.94 35.12,131.93 35.09,131.92" fill="currentColor" stroke="currentColor" stroke-width="1.2" stroke-linecap="round" stroke-linejoin="round" />
  <path d="M35.73,131.94 C35.66,131.95 35.57,131.96 35.46,131.96" fill="currentColor" stroke="currentColor" stroke-width="1.2" stroke-linecap="round" stroke-linejoin="round" />
  <path d="M32.07,131.96 C31.97,131.96 31.89,131.95 31.82,131.94" fill="currentColor" stroke="currentColor" stroke-width="1.2" stroke-linecap="round" stroke-linejoin="round" />
  <path d="M32.34,131.95 C32.27,131.95 32.18,131.96 32.07,131.96" fill="currentColor" stroke="currentColor" stroke-width="1.2" stroke-linecap="round" stroke-linejoin="round" />
  <path d="M35.46,131.96 C35.36,131.96 35.28,131.95 35.22,131.95" fill="currentColor" stroke="currentColor" stroke-width="1.2" stroke-linecap="round" stroke-linejoin="round" />
  <path d="M129.51,141.34 C129.58,141.33 129.66,141.33 129.77,141.33" fill="currentColor" stroke="currentColor" stroke-width="1.2" stroke-linecap="round" stroke-linejoin="round" />
  <path d="M129.77,141.33 C129.89,141.33 129.98,141.33 130.06,141.34" fill="currentColor" stroke="currentColor" stroke-width="1.2" stroke-linecap="round" stroke-linejoin="round" />
  <path d="M129.33,141.36 C129.38,141.35 129.44,141.34 129.51,141.34" fill="currentColor" stroke="currentColor" stroke-width="1.2" stroke-linecap="round" stroke-linejoin="round" />
  <path d="M130.06,141.34 C130.13,141.34 130.19,141.35 130.24,141.36" fill="currentColor" stroke="currentColor" stroke-width="1.2" stroke-linecap="round" stroke-linejoin="round" />
  <line x1="211.33" y1="141.36" x2="212.91" y2="141.36" fill="currentColor" stroke="currentColor" stroke-width="1.2" stroke-linecap="round" stroke-linejoin="round" />
  <path d="M129.23,141.42 C129.26,141.40 129.29,141.38 129.33,141.36" fill="currentColor" stroke="currentColor" stroke-width="1.2" stroke-linecap="round" stroke-linejoin="round" />
  <path d="M130.24,141.36 C130.29,141.38 130.32,141.40 130.35,141.43" fill="currentColor" stroke="currentColor" stroke-width="1.2" stroke-linecap="round" stroke-linejoin="round" />
  <path d="M211.10,141.44 C211.17,141.39 211.25,141.36 211.33,141.36" fill="currentColor" stroke="currentColor" stroke-width="1.2" stroke-linecap="round" stroke-linejoin="round" />
  <path d="M212.91,141.36 C213.33,141.36 213.67,141.40 213.93,141.48" fill="currentColor" stroke="currentColor" stroke-width="1.2" stroke-linecap="round" stroke-linejoin="round" />
  <path d="M129.18,141.52 C129.19,141.48 129.21,141.45 129.23,141.42" fill="currentColor" stroke="currentColor" stroke-width="1.2" stroke-linecap="round" stroke-linejoin="round" />
  <path d="M130.35,141.43 C130.37,141.45 130.39,141.49 130.41,141.53" fill="currentColor" stroke="currentColor" stroke-width="1.2" stroke-linecap="round" stroke-linejoin="round" />
  <path d="M210.99,141.74 C210.99,141.60 211.03,141.50 211.10,141.44" fill="currentColor" stroke="currentColor" stroke-width="1.2" stroke-linecap="round" stroke-linejoin="round" />
  <path d="M213.93,141.48 C214.20,141.56 214.42,141.67 214.60,141.82" fill="currentColor" stroke="currentColor" stroke-width="1.2" stroke-linecap="round" stroke-linejoin="round" />
  <path d="M214.60,141.82 C214.77,141.97 214.91,142.16 215.00,142.37" fill="currentColor" stroke="currentColor" stroke-width="1.2" stroke-linecap="round" stroke-linejoin="round" />
  <line x1="212.86" y1="142.11" x2="211.90" y2="142.11" fill="currentColor" stroke="currentColor" stroke-width="1.2" stroke-linecap="round" stroke-linejoin="round" />
  <path d="M213.50,142.19 C213.34,142.14 213.12,142.11 212.86,142.11" fill="currentColor" stroke="currentColor" stroke-width="1.2" stroke-linecap="round" stroke-linejoin="round" />
  <line x1="129.75" y1="142.28" x2="129.74" y2="142.28" fill="currentColor" stroke="currentColor" stroke-width="1.2" stroke-linecap="round" stroke-linejoin="round" />
  <path d="M213.89,142.40 C213.79,142.31 213.66,142.24 213.50,142.19" fill="currentColor" stroke="currentColor" stroke-width="1.2" stroke-linecap="round" stroke-linejoin="round" />
  <path d="M214.11,142.75 C214.06,142.61 213.99,142.50 213.89,142.40" fill="currentColor" stroke="currentColor" stroke-width="1.2" stroke-linecap="round" stroke-linejoin="round" />
  <path d="M215.00,142.37 C215.09,142.59 215.13,142.84 215.13,143.12" fill="currentColor" stroke="currentColor" stroke-width="1.2" stroke-linecap="round" stroke-linejoin="round" />
  <path d="M214.18,143.21 C214.18,143.04 214.16,142.89 214.11,142.75" fill="currentColor" stroke="currentColor" stroke-width="1.2" stroke-linecap="round" stroke-linejoin="round" />
  <line x1="211.90" y1="142.11" x2="211.90" y2="144.36" fill="currentColor" stroke="currentColor" stroke-width="1.2" stroke-linecap="round" stroke-linejoin="round" />
  <path d="M215.13,143.12 C215.13,143.28 215.11,143.44 215.07,143.59" fill="currentColor" stroke="currentColor" stroke-width="1.2" stroke-linecap="round" stroke-linejoin="round" />
  <path d="M214.11,143.64 C214.16,143.50 214.18,143.36 214.18,143.21" fill="currentColor" stroke="currentColor" stroke-width="1.2" stroke-linecap="round" stroke-linejoin="round" />
  <path d="M215.07,143.59 C215.03,143.74 214.97,143.88 214.90,144.00" fill="currentColor" stroke="currentColor" stroke-width="1.2" stroke-linecap="round" stroke-linejoin="round" />
  <path d="M213.90,144.02 C214.00,143.91 214.07,143.79 214.11,143.64" fill="currentColor" stroke="currentColor" stroke-width="1.2" stroke-linecap="round" stroke-linejoin="round" />
  <line x1="129.74" y1="142.28" x2="128.54" y2="145.75" fill="currentColor" stroke="currentColor" stroke-width="1.2" stroke-linecap="round" stroke-linejoin="round" />
  <line x1="130.96" y1="145.75" x2="129.75" y2="142.28" fill="currentColor" stroke="currentColor" stroke-width="1.2" stroke-linecap="round" stroke-linejoin="round" />
  <path d="M213.54,144.27 C213.68,144.21 213.80,144.12 213.90,144.02" fill="currentColor" stroke="currentColor" stroke-width="1.2" stroke-linecap="round" stroke-linejoin="round" />
  <path d="M214.90,144.00 C214.82,144.13 214.72,144.25 214.61,144.35" fill="currentColor" stroke="currentColor" stroke-width="1.2" stroke-linecap="round" stroke-linejoin="round" />
  <path d="M212.96,144.36 C213.20,144.36 213.39,144.33 213.54,144.27" fill="currentColor" stroke="currentColor" stroke-width="1.2" stroke-linecap="round" stroke-linejoin="round" />
  <line x1="211.90" y1="144.36" x2="212.96" y2="144.36" fill="currentColor" stroke="currentColor" stroke-width="1.2" stroke-linecap="round" stroke-linejoin="round" />
  <path d="M214.61,144.35 C214.49,144.45 214.36,144.53 214.21,144.59" fill="currentColor" stroke="currentColor" stroke-width="1.2" stroke-linecap="round" stroke-linejoin="round" />
  <path d="M214.21,144.59 C214.40,144.63 214.57,144.69 214.74,144.79" fill="currentColor" stroke="currentColor" stroke-width="1.2" stroke-linecap="round" stroke-linejoin="round" />
  <line x1="126.84" y1="147.98" x2="129.18" y2="141.52" fill="currentColor" stroke="currentColor" stroke-width="1.2" stroke-linecap="round" stroke-linejoin="round" />
  <line x1="130.41" y1="141.53" x2="132.74" y2="147.98" fill="currentColor" stroke="currentColor" stroke-width="1.2" stroke-linecap="round" stroke-linejoin="round" />
  <line x1="210.99" y1="147.93" x2="210.99" y2="141.74" fill="currentColor" stroke="currentColor" stroke-width="1.2" stroke-linecap="round" stroke-linejoin="round" />
  <path d="M214.74,144.79 C214.90,144.88 215.05,145.00 215.17,145.15" fill="currentColor" stroke="currentColor" stroke-width="1.2" stroke-linecap="round" stroke-linejoin="round" />
  <line x1="213.01" y1="145.10" x2="211.90" y2="145.10" fill="currentColor" stroke="currentColor" stroke-width="1.2" stroke-linecap="round" stroke-linejoin="round" />
  <path d="M213.73,145.18 C213.54,145.13 213.30,145.10 213.01,145.10" fill="currentColor" stroke="currentColor" stroke-width="1.2" stroke-linecap="round" stroke-linejoin="round" />
  <path d="M214.21,145.43 C214.08,145.32 213.92,145.24 213.73,145.18" fill="currentColor" stroke="currentColor" stroke-width="1.2" stroke-linecap="round" stroke-linejoin="round" />
  <path d="M215.17,145.15 C215.30,145.30 215.39,145.47 215.46,145.67" fill="currentColor" stroke="currentColor" stroke-width="1.2" stroke-linecap="round" stroke-linejoin="round" />
  <path d="M214.50,145.82 C214.43,145.67 214.34,145.53 214.21,145.43" fill="currentColor" stroke="currentColor" stroke-width="1.2" stroke-linecap="round" stroke-linejoin="round" />
  <line x1="128.54" y1="145.75" x2="130.96" y2="145.75" fill="currentColor" stroke="currentColor" stroke-width="1.2" stroke-linecap="round" stroke-linejoin="round" />
  <path d="M215.46,145.67 C215.54,145.86 215.57,146.08 215.57,146.32" fill="currentColor" stroke="currentColor" stroke-width="1.2" stroke-linecap="round" stroke-linejoin="round" />
  <path d="M214.60,146.37 C214.60,146.16 214.57,145.98 214.50,145.82" fill="currentColor" stroke="currentColor" stroke-width="1.2" stroke-linecap="round" stroke-linejoin="round" />
  <line x1="211.90" y1="145.10" x2="211.90" y2="147.55" fill="currentColor" stroke="currentColor" stroke-width="1.2" stroke-linecap="round" stroke-linejoin="round" />
  <line x1="131.20" y1="146.48" x2="128.31" y2="146.48" fill="currentColor" stroke="currentColor" stroke-width="1.2" stroke-linecap="round" stroke-linejoin="round" />
  <path d="M215.57,146.32 C215.57,146.54 215.54,146.74 215.49,146.92" fill="currentColor" stroke="currentColor" stroke-width="1.2" stroke-linecap="round" stroke-linejoin="round" />
  <path d="M214.50,146.88 C214.57,146.74 214.60,146.56 214.60,146.37" fill="currentColor" stroke="currentColor" stroke-width="1.2" stroke-linecap="round" stroke-linejoin="round" />
  <path d="M214.22,147.25 C214.34,147.15 214.43,147.03 214.50,146.88" fill="currentColor" stroke="currentColor" stroke-width="1.2" stroke-linecap="round" stroke-linejoin="round" />
  <path d="M215.49,146.92 C215.43,147.11 215.35,147.27 215.25,147.42" fill="currentColor" stroke="currentColor" stroke-width="1.2" stroke-linecap="round" stroke-linejoin="round" />
  <line x1="128.31" y1="146.48" x2="127.74" y2="148.15" fill="currentColor" stroke="currentColor" stroke-width="1.2" stroke-linecap="round" stroke-linejoin="round" />
  <line x1="131.80" y1="148.18" x2="131.20" y2="146.48" fill="currentColor" stroke="currentColor" stroke-width="1.2" stroke-linecap="round" stroke-linejoin="round" />
  <path d="M213.80,147.47 C213.96,147.42 214.10,147.35 214.22,147.25" fill="currentColor" stroke="currentColor" stroke-width="1.2" stroke-linecap="round" stroke-linejoin="round" />
  <path d="M213.25,147.55 C213.46,147.55 213.64,147.52 213.80,147.47" fill="currentColor" stroke="currentColor" stroke-width="1.2" stroke-linecap="round" stroke-linejoin="round" />
  <line x1="211.90" y1="147.55" x2="213.25" y2="147.55" fill="currentColor" stroke="currentColor" stroke-width="1.2" stroke-linecap="round" stroke-linejoin="round" />
  <path d="M215.25,147.42 C215.15,147.56 215.03,147.69 214.89,147.80" fill="currentColor" stroke="currentColor" stroke-width="1.2" stroke-linecap="round" stroke-linejoin="round" />
  <path d="M214.89,147.80 C214.75,147.92 214.59,148.01 214.41,148.08" fill="currentColor" stroke="currentColor" stroke-width="1.2" stroke-linecap="round" stroke-linejoin="round" />
  <path d="M126.80,148.17 C126.80,148.12 126.82,148.06 126.84,147.98" fill="currentColor" stroke="currentColor" stroke-width="1.2" stroke-linecap="round" stroke-linejoin="round" />
  <path d="M132.74,147.98 C132.77,148.06 132.78,148.12 132.78,148.17" fill="currentColor" stroke="currentColor" stroke-width="1.2" stroke-linecap="round" stroke-linejoin="round" />
  <path d="M211.10,148.23 C211.03,148.17 210.99,148.07 210.99,147.93" fill="currentColor" stroke="currentColor" stroke-width="1.2" stroke-linecap="round" stroke-linejoin="round" />
  <path d="M214.41,148.08 C214.24,148.16 214.05,148.22 213.84,148.25" fill="currentColor" stroke="currentColor" stroke-width="1.2" stroke-linecap="round" stroke-linejoin="round" />
  <path d="M127.74,148.15 C127.73,148.19 127.72,148.21 127.70,148.24" fill="currentColor" stroke="currentColor" stroke-width="1.2" stroke-linecap="round" stroke-linejoin="round" />
  <path d="M131.84,148.26 C131.83,148.23 131.81,148.21 131.80,148.18" fill="currentColor" stroke="currentColor" stroke-width="1.2" stroke-linecap="round" stroke-linejoin="round" />
  <path d="M126.84,148.28 C126.81,148.25 126.80,148.22 126.80,148.17" fill="currentColor" stroke="currentColor" stroke-width="1.2" stroke-linecap="round" stroke-linejoin="round" />
  <path d="M132.78,148.17 C132.78,148.22 132.77,148.26 132.74,148.28" fill="currentColor" stroke="currentColor" stroke-width="1.2" stroke-linecap="round" stroke-linejoin="round" />
  <path d="M127.70,148.24 C127.68,148.26 127.65,148.28 127.62,148.30" fill="currentColor" stroke="currentColor" stroke-width="1.2" stroke-linecap="round" stroke-linejoin="round" />
  <path d="M211.33,148.31 C211.25,148.31 211.17,148.28 211.10,148.23" fill="currentColor" stroke="currentColor" stroke-width="1.2" stroke-linecap="round" stroke-linejoin="round" />
  <path d="M131.92,148.31 C131.88,148.29 131.86,148.28 131.84,148.26" fill="currentColor" stroke="currentColor" stroke-width="1.2" stroke-linecap="round" stroke-linejoin="round" />
  <path d="M213.84,148.25 C213.64,148.29 213.41,148.31 213.15,148.31" fill="currentColor" stroke="currentColor" stroke-width="1.2" stroke-linecap="round" stroke-linejoin="round" />
  <path d="M126.98,148.33 C126.91,148.32 126.86,148.30 126.84,148.28" fill="currentColor" stroke="currentColor" stroke-width="1.2" stroke-linecap="round" stroke-linejoin="round" />
  <path d="M132.74,148.28 C132.71,148.31 132.67,148.32 132.60,148.33" fill="currentColor" stroke="currentColor" stroke-width="1.2" stroke-linecap="round" stroke-linejoin="round" />
  <line x1="213.15" y1="148.31" x2="211.33" y2="148.31" fill="currentColor" stroke="currentColor" stroke-width="1.2" stroke-linecap="round" stroke-linejoin="round" />
  <path d="M127.62,148.30 C127.59,148.31 127.54,148.32 127.48,148.33" fill="currentColor" stroke="currentColor" stroke-width="1.2" stroke-linecap="round" stroke-linejoin="round" />
  <path d="M132.07,148.33 C132.00,148.33 131.95,148.32 131.92,148.31" fill="currentColor" stroke="currentColor" stroke-width="1.2" stroke-linecap="round" stroke-linejoin="round" />
  <path d="M127.23,148.34 C127.13,148.34 127.04,148.34 126.98,148.33" fill="currentColor" stroke="currentColor" stroke-width="1.2" stroke-linecap="round" stroke-linejoin="round" />
  <path d="M132.60,148.33 C132.53,148.34 132.44,148.34 132.33,148.34" fill="currentColor" stroke="currentColor" stroke-width="1.2" stroke-linecap="round" stroke-linejoin="round" />
  <path d="M127.48,148.33 C127.41,148.34 127.33,148.34 127.23,148.34" fill="currentColor" stroke="currentColor" stroke-width="1.2" stroke-linecap="round" stroke-linejoin="round" />
  <path d="M132.33,148.34 C132.22,148.34 132.13,148.34 132.07,148.33" fill="currentColor" stroke="currentColor" stroke-width="1.2" stroke-linecap="round" stroke-linejoin="round" />
</svg>