<svg xmlns="http://www.w3.org/2000/svg" viewBox="0 0 141.50 145.72" preserveAspectRatio="xMidYMid meet" shape-rendering="geometricPrecision" text-rendering="optimizeLegibility">
  <path d="M12.77,8.00L12.62,128.42L133.50,128.26L12.77,8.00Z" fill-rule="evenodd" fill="currentColor" fill-opacity="0.16" stroke="currentColor" stroke-width="1.2609999895095825" stroke-linejoin="round" />
  <path d="M31.87,62.04C49.03,53.16 70.18,59.87 79.07,77.03C87.95,94.19 81.24,115.33 64.08,124.22C46.92,133.11 25.78,126.40 16.89,109.24C8.00,92.08 14.71,70.93 31.87,62.04Z" fill-rule="evenodd" fill="var(--panel)" stroke="currentColor" stroke-width="1.2609999895095825" stroke-linejoin="round" />
  <line x1="19.51" y1="128.10" x2="19.74" y2="128.10" fill="none" stroke="currentColor" stroke-width="1.0489999771118164" stroke-linecap="round" stroke-linejoin="round" />
  <line x1="19.74" y1="128.10" x2="19.74" y2="121.14" fill="none" stroke="currentColor" stroke-width="1.0489999771118164" stroke-linecap="round" stroke-linejoin="round" />
  <line x1="19.74" y1="121.14" x2="12.77" y2="121.14" fill="none" stroke="currentColor" stroke-width="1.0489999771118164" stroke-linecap="round" stroke-linejoin="round" />
  <line x1="12.77" y1="121.14" x2="12.77" y2="121.31" fill="none" stroke="currentColor" stroke-width="1.0489999771118164" stroke-linecap="round" stroke-linejoin="round" />
  <line x1="47.88" y1="93.29" x2="82.94" y2="93.29" fill="none" stroke="currentColor" stroke-width="1.2609999895095825" stroke-linecap="round" stroke-linejoin="round" />
  <path d="M67.38,95.66L66.35,95.66L64.70,99.27L64.68,99.27L63.98,95.66L62.99,95.66L64.00,100.59L62.58,103.59L63.63,103.59L67.38,95.66Z" fill="currentColor" stroke="currentColor" stroke-width="1.2" stroke-linejoin="round" />
  <path d="M68.46,132.48L67.24,132.48L65.87,134.24L65.04,132.48L63.98,132.48L65.22,134.94L62.93,137.72L64.14,137.72L65.66,135.76L66.62,137.72L67.68,137.72L66.35,135.07L68.46,132.48Z" fill="currentColor" stroke="currentColor" stroke-width="1.2" stroke-linejoin="round" />
</svg>