<svg xmlns="http://www.w3.org/2000/svg" viewBox="0 0 160.92 125.76" preserveAspectRatio="xMidYMid meet" shape-rendering="geometricPrecision" text-rendering="optimizeLegibility">
  <path d="M74.44,13.97 C80.42,8.00 90.11,8.00 96.09,13.97" fill="currentColor" stroke="currentColor" stroke-width="1.2" stroke-linecap="round" stroke-linejoin="round" />
  <path d="M74.44,13.97 C80.42,8.00 90.11,8.00 96.09,13.97" fill="none" stroke="currentColor" stroke-width="1.4000000476837158" stroke-linecap="round" stroke-linejoin="round" />
  <path d="M74.44,35.62 C68.47,29.64 68.47,19.95 74.44,13.97" fill="currentColor" stroke="currentColor" stroke-width="1.2" stroke-linecap="round" stroke-linejoin="round" />
  <path d="M96.09,13.97 C102.06,19.95 102.06,29.64 96.09,35.62" fill="currentColor" stroke="currentColor" stroke-width="1.2" stroke-linecap="round" stroke-linejoin="round" />
  <path d="M74.44,35.62 C68.47,29.64 68.47,19.95 74.44,13.97" fill="none" stroke="currentColor" stroke-width="1.4000000476837158" stroke-linecap="round" stroke-linejoin="round" />
  <path d="M96.09,13.97 C102.06,19.95 102.06,29.64 96.09,35.62" fill="none" stroke="currentColor" stroke-width="1.4000000476837158" stroke-linecap="round" stroke-linejoin="round" />
  <path d="M96.09,35.62 C90.11,41.59 80.42,41.59 74.44,35.62" fill="currentColor" stroke="currentColor" stroke-width="1.2" stroke-linecap="round" stroke-linejoin="round" />
  <path d="M96.09,35.62 C90.11,41.59 80.42,41.59 74.44,35.62" fill="none" stroke="currentColor" stroke-width="1.4000000476837158" stroke-linecap="round" stroke-linejoin="round" />
  <line x1="136.12" y1="87.61" x2="85.26" y2="24.79" fill="currentColor" stroke="currentColor" stroke-width="1.4000000476837158" stroke-linecap="round" stroke-linejoin="round" />
  <line x1="85.26" y1="24.79" x2="24.79" y2="100.97" fill="currentColor" stroke="currentColor" stroke-width="1.4000000476837158" stroke-linecap="round" stroke-linejoin="round" />
  <path d="M125.30,76.79 C131.27,70.81 140.97,70.81 146.94,76.79" fill="currentColor" stroke="currentColor" stroke-width="1.2" stroke-linecap="round" stroke-linejoin="round" />
  <path d="M125.30,76.79 C131.27,70.81 140.97,70.81 146.94,76.79" fill="none" stroke="currentColor" stroke-width="1.4000000476837158" stroke-linecap="round" stroke-linejoin="round" />
  <path d="M13.97,90.14 C19.95,84.17 29.64,84.17 35.62,90.14" fill="currentColor" stroke="currentColor" stroke-width="1.2" stroke-linecap="round" stroke-linejoin="round" />
  <path d="M13.97,90.14 C19.95,84.17 29.64,84.17 35.62,90.14" fill="none" stroke="currentColor" stroke-width="1.4000000476837158" stroke-linecap="round" stroke-linejoin="round" />
  <path d="M125.30,98.43 C119.33,92.46 119.33,82.76 125.30,76.79" fill="currentColor" stroke="currentColor" stroke-width="1.2" stroke-linecap="round" stroke-linejoin="round" />
  <path d="M146.94,76.79 C152.92,82.76 152.92,92.46 146.94,98.43" fill="currentColor" stroke="currentColor" stroke-width="1.2" stroke-linecap="round" stroke-linejoin="round" />
  <path d="M125.30,98.43 C119.33,92.46 119.33,82.76 125.30,76.79" fill="none" stroke="currentColor" stroke-width="1.4000000476837158" stroke-linecap="round" stroke-linejoin="round" />
  <path d="M146.94,76.79 C152.92,82.76 152.92,92.46 146.94,98.43" fill="none" stroke="currentColor" stroke-width="1.4000000476837158" stroke-linecap="round" stroke-linejoin="round" />
  <line x1="24.79" y1="100.97" x2="136.12" y2="87.61" fill="currentColor" stroke="currentColor" stroke-width="1.4000000476837158" stroke-linecap="round" stroke-linejoin="round" />
  <path d="M13.97,111.79 C8.00,105.82 8.00,96.12 13.97,90.14" fill="currentColor" stroke="currentColor" stroke-width="1.2" stroke-linecap="round" stroke-linejoin="round" />
  <path d="M35.62,90.14 C41.59,96.12 41.59,105.82 35.62,111.79" fill="currentColor" stroke="currentColor" stroke-width="1.2" stroke-linecap="round" stroke-linejoin="round" />
  <path d="M13.97,111.79 C8.00,105.82 8.00,96.12 13.97,90.14" fill="none" stroke="currentColor" stroke-width="1.4000000476837158" stroke-linecap="round" stroke-linejoin="round" />
  <path d="M35.62,90.14 C41.59,96.12 41.59,105.82 35.62,111.79" fill="none" stroke="currentColor" stroke-width="1.4000000476837158" stroke-linecap="round" stroke-linejoin="round" />
  <path d="M146.94,98.43 C140.97,104.40 131.27,104.40 125.30,98.43" fill="currentColor" stroke="currentColor" stroke-width="1.2" stroke-linecap="round" stroke-linejoin="round" />
  <path d="M146.94,98.43 C140.97,104.40 131.27,104.40 125.30,98.43" fill="none" stroke="currentColor" stroke-width="1.4000000476837158" stroke-linecap="round" stroke-linejoin="round" />
  <path d="M35.62,111.79 C29.64,117.76 19.95,117.76 13.97,111.79" fill="currentColor" stroke="currentColor" stroke-width="1.2" stroke-linecap="round" stroke-linejoin="round" />
  <path d="M35.62,111.79 C29.64,117.76 19.95,117.76 13.97,111.79" fill="none" stroke="currentColor" stroke-width="1.4000000476837158" stroke-linecap="round" stroke-linejoin="round" />
</svg>