<svg xmlns="http://www.w3.org/2000/svg" viewBox="0 0 170.85 93.72" preserveAspectRatio="xMidYMid meet" shape-rendering="geometricPrecision" text-rendering="optimizeLegibility">
  <path d="M97.28,20.12 C94.19,23.15 89.95,25.00 85.29,24.96" fill="none" stroke="currentColor" stroke-width="1.000000011920929" stroke-linecap="round" stroke-linejoin="round" />
  <path d="M85.29,24.96 C80.75,24.93 76.64,23.11 73.62,20.18" fill="none" stroke="currentColor" stroke-width="1.000000011920929" stroke-linecap="round" stroke-linejoin="round" />
  <line x1="84.58" y1="27.96" x2="87.37" y2="27.96" fill="currentColor" stroke="currentColor" stroke-width="1.2" stroke-linecap="round" stroke-linejoin="round" />
  <path d="M84.49,27.99 C84.52,27.97 84.55,27.96 84.58,27.96" fill="currentColor" stroke="currentColor" stroke-width="1.2" stroke-linecap="round" stroke-linejoin="round" />
  <path d="M87.37,27.96 C87.44,27.96 87.49,27.98 87.51,28.01" fill="currentColor" stroke="currentColor" stroke-width="1.2" stroke-linecap="round" stroke-linejoin="round" />
  <path d="M84.42,28.06 C84.44,28.03 84.47,28.01 84.49,27.99" fill="currentColor" stroke="currentColor" stroke-width="1.2" stroke-linecap="round" stroke-linejoin="round" />
  <path d="M87.51,28.01 C87.54,28.05 87.55,28.09 87.55,28.15" fill="currentColor" stroke="currentColor" stroke-width="1.2" stroke-linecap="round" stroke-linejoin="round" />
  <path d="M84.36,28.17 C84.38,28.13 84.40,28.09 84.42,28.06" fill="currentColor" stroke="currentColor" stroke-width="1.2" stroke-linecap="round" stroke-linejoin="round" />
  <path d="M87.55,28.15 C87.55,28.17 87.55,28.19 87.55,28.23" fill="currentColor" stroke="currentColor" stroke-width="1.2" stroke-linecap="round" stroke-linejoin="round" />
  <path d="M84.33,28.30 C84.34,28.25 84.35,28.21 84.36,28.17" fill="currentColor" stroke="currentColor" stroke-width="1.2" stroke-linecap="round" stroke-linejoin="round" />
  <path d="M87.55,28.23 C87.54,28.26 87.54,28.30 87.53,28.33" fill="currentColor" stroke="currentColor" stroke-width="1.2" stroke-linecap="round" stroke-linejoin="round" />
  <path d="M84.31,28.42 C84.31,28.38 84.32,28.34 84.33,28.30" fill="currentColor" stroke="currentColor" stroke-width="1.2" stroke-linecap="round" stroke-linejoin="round" />
  <path d="M87.53,28.33 C87.52,28.37 87.52,28.41 87.51,28.45" fill="currentColor" stroke="currentColor" stroke-width="1.2" stroke-linecap="round" stroke-linejoin="round" />
  <path d="M84.30,28.52 C84.30,28.49 84.30,28.46 84.31,28.42" fill="currentColor" stroke="currentColor" stroke-width="1.2" stroke-linecap="round" stroke-linejoin="round" />
  <path d="M87.51,28.45 C87.50,28.48 87.49,28.51 87.49,28.54" fill="currentColor" stroke="currentColor" stroke-width="1.2" stroke-linecap="round" stroke-linejoin="round" />
  <path d="M84.33,28.67 C84.31,28.64 84.30,28.59 84.30,28.52" fill="currentColor" stroke="currentColor" stroke-width="1.2" stroke-linecap="round" stroke-linejoin="round" />
  <path d="M87.49,28.54 C87.47,28.62 87.43,28.69 87.39,28.76" fill="currentColor" stroke="currentColor" stroke-width="1.2" stroke-linecap="round" stroke-linejoin="round" />
  <path d="M84.44,28.71 C84.39,28.71 84.35,28.70 84.33,28.67" fill="currentColor" stroke="currentColor" stroke-width="1.2" stroke-linecap="round" stroke-linejoin="round" />
  <line x1="86.46" y1="28.71" x2="84.44" y2="28.71" fill="currentColor" stroke="currentColor" stroke-width="1.2" stroke-linecap="round" stroke-linejoin="round" />
  <path d="M87.39,28.76 C87.34,28.83 87.28,28.91 87.20,29.01" fill="currentColor" stroke="currentColor" stroke-width="1.2" stroke-linecap="round" stroke-linejoin="round" />
  <line x1="83.71" y1="32.03" x2="86.46" y2="28.71" fill="currentColor" stroke="currentColor" stroke-width="1.2" stroke-linecap="round" stroke-linejoin="round" />
  <line x1="87.20" y1="29.01" x2="84.47" y2="32.33" fill="currentColor" stroke="currentColor" stroke-width="1.2" stroke-linecap="round" stroke-linejoin="round" />
  <path d="M83.59,32.18 C83.62,32.14 83.66,32.09 83.71,32.03" fill="currentColor" stroke="currentColor" stroke-width="1.2" stroke-linecap="round" stroke-linejoin="round" />
  <path d="M83.51,32.29 C83.53,32.26 83.56,32.22 83.59,32.18" fill="currentColor" stroke="currentColor" stroke-width="1.2" stroke-linecap="round" stroke-linejoin="round" />
  <line x1="84.47" y1="32.33" x2="86.69" y2="32.33" fill="currentColor" stroke="currentColor" stroke-width="1.2" stroke-linecap="round" stroke-linejoin="round" />
  <path d="M83.46,32.37 C83.47,32.35 83.49,32.32 83.51,32.29" fill="currentColor" stroke="currentColor" stroke-width="1.2" stroke-linecap="round" stroke-linejoin="round" />
  <path d="M86.69,32.33 C86.73,32.33 86.76,32.34 86.78,32.37" fill="currentColor" stroke="currentColor" stroke-width="1.2" stroke-linecap="round" stroke-linejoin="round" />
  <path d="M83.43,32.45 C83.44,32.42 83.45,32.39 83.46,32.37" fill="currentColor" stroke="currentColor" stroke-width="1.2" stroke-linecap="round" stroke-linejoin="round" />
  <path d="M86.78,32.37 C86.81,32.41 86.82,32.45 86.82,32.51" fill="currentColor" stroke="currentColor" stroke-width="1.2" stroke-linecap="round" stroke-linejoin="round" />
  <path d="M83.41,32.53 C83.42,32.49 83.43,32.47 83.43,32.45" fill="currentColor" stroke="currentColor" stroke-width="1.2" stroke-linecap="round" stroke-linejoin="round" />
  <path d="M86.82,32.51 C86.82,32.54 86.81,32.58 86.81,32.62" fill="currentColor" stroke="currentColor" stroke-width="1.2" stroke-linecap="round" stroke-linejoin="round" />
  <path d="M83.38,32.64 C83.39,32.60 83.40,32.57 83.41,32.53" fill="currentColor" stroke="currentColor" stroke-width="1.2" stroke-linecap="round" stroke-linejoin="round" />
  <path d="M86.81,32.62 C86.81,32.65 86.80,32.69 86.79,32.73" fill="currentColor" stroke="currentColor" stroke-width="1.2" stroke-linecap="round" stroke-linejoin="round" />
  <path d="M83.36,32.77 C83.37,32.73 83.38,32.69 83.38,32.64" fill="currentColor" stroke="currentColor" stroke-width="1.2" stroke-linecap="round" stroke-linejoin="round" />
  <path d="M86.79,32.73 C86.78,32.77 86.77,32.81 86.75,32.85" fill="currentColor" stroke="currentColor" stroke-width="1.2" stroke-linecap="round" stroke-linejoin="round" />
  <path d="M83.35,32.86 C83.35,32.84 83.35,32.80 83.36,32.77" fill="currentColor" stroke="currentColor" stroke-width="1.2" stroke-linecap="round" stroke-linejoin="round" />
  <path d="M86.75,32.85 C86.74,32.90 86.72,32.93 86.70,32.96" fill="currentColor" stroke="currentColor" stroke-width="1.2" stroke-linecap="round" stroke-linejoin="round" />
  <path d="M83.40,33.02 C83.37,32.98 83.35,32.93 83.35,32.86" fill="currentColor" stroke="currentColor" stroke-width="1.2" stroke-linecap="round" stroke-linejoin="round" />
  <path d="M86.70,32.96 C86.68,33.00 86.65,33.02 86.63,33.04" fill="currentColor" stroke="currentColor" stroke-width="1.2" stroke-linecap="round" stroke-linejoin="round" />
  <path d="M83.55,33.07 C83.48,33.07 83.43,33.05 83.40,33.02" fill="currentColor" stroke="currentColor" stroke-width="1.2" stroke-linecap="round" stroke-linejoin="round" />
  <path d="M86.63,33.04 C86.60,33.06 86.57,33.07 86.54,33.07" fill="currentColor" stroke="currentColor" stroke-width="1.2" stroke-linecap="round" stroke-linejoin="round" />
  <line x1="86.54" y1="33.07" x2="83.55" y2="33.07" fill="currentColor" stroke="currentColor" stroke-width="1.2" stroke-linecap="round" stroke-linejoin="round" />
  <line x1="85.42" y1="8.00" x2="162.85" y2="85.43" fill="none" stroke="currentColor" stroke-width="1.4000000476837158" stroke-linecap="round" stroke-linejoin="round" />
  <line x1="8.00" y1="85.43" x2="85.42" y2="8.00" fill="none" stroke="currentColor" stroke-width="1.4000000476837158" stroke-linecap="round" stroke-linejoin="round" />
  <path d="M135.63,75.58 C135.69,75.58 135.76,75.58 135.85,75.58" fill="currentColor" stroke="currentColor" stroke-width="1.2" stroke-linecap="round" stroke-linejoin="round" />
  <path d="M135.85,75.58 C135.94,75.58 136.02,75.58 136.07,75.58" fill="currentColor" stroke="currentColor" stroke-width="1.2" stroke-linecap="round" stroke-linejoin="round" />
  <path d="M139.08,75.58 C139.14,75.58 139.22,75.58 139.32,75.58" fill="currentColor" stroke="currentColor" stroke-width="1.2" stroke-linecap="round" stroke-linejoin="round" />
  <path d="M31.90,75.58 C32.00,75.58 32.08,75.58 32.14,75.58" fill="currentColor" stroke="currentColor" stroke-width="1.2" stroke-linecap="round" stroke-linejoin="round" />
  <path d="M34.89,75.58 C34.95,75.58 35.03,75.58 35.12,75.58" fill="currentColor" stroke="currentColor" stroke-width="1.2" stroke-linecap="round" stroke-linejoin="round" />
  <path d="M31.63,75.59 C31.70,75.58 31.79,75.58 31.90,75.58" fill="currentColor" stroke="currentColor" stroke-width="1.2" stroke-linecap="round" stroke-linejoin="round" />
  <path d="M35.12,75.58 C35.23,75.58 35.32,75.58 35.39,75.59" fill="currentColor" stroke="currentColor" stroke-width="1.2" stroke-linecap="round" stroke-linejoin="round" />
  <path d="M139.32,75.58 C139.48,75.58 139.59,75.59 139.64,75.61" fill="currentColor" stroke="currentColor" stroke-width="1.2" stroke-linecap="round" stroke-linejoin="round" />
  <path d="M32.14,75.58 C32.19,75.59 32.24,75.60 32.27,75.61" fill="currentColor" stroke="currentColor" stroke-width="1.2" stroke-linecap="round" stroke-linejoin="round" />
  <path d="M136.07,75.58 C136.13,75.59 136.17,75.60 136.20,75.61" fill="currentColor" stroke="currentColor" stroke-width="1.2" stroke-linecap="round" stroke-linejoin="round" />
  <path d="M34.74,75.61 C34.78,75.60 34.83,75.59 34.89,75.58" fill="currentColor" stroke="currentColor" stroke-width="1.2" stroke-linecap="round" stroke-linejoin="round" />
  <path d="M138.93,75.61 C138.96,75.60 139.01,75.59 139.08,75.58" fill="currentColor" stroke="currentColor" stroke-width="1.2" stroke-linecap="round" stroke-linejoin="round" />
  <path d="M135.49,75.62 C135.52,75.60 135.57,75.59 135.63,75.58" fill="currentColor" stroke="currentColor" stroke-width="1.2" stroke-linecap="round" stroke-linejoin="round" />
  <path d="M35.39,75.59 C35.45,75.59 35.50,75.61 35.54,75.63" fill="currentColor" stroke="currentColor" stroke-width="1.2" stroke-linecap="round" stroke-linejoin="round" />
  <path d="M31.48,75.63 C31.51,75.61 31.56,75.59 31.63,75.59" fill="currentColor" stroke="currentColor" stroke-width="1.2" stroke-linecap="round" stroke-linejoin="round" />
  <path d="M32.27,75.61 C32.30,75.62 32.32,75.63 32.33,75.65" fill="currentColor" stroke="currentColor" stroke-width="1.2" stroke-linecap="round" stroke-linejoin="round" />
  <path d="M34.65,75.66 C34.67,75.64 34.70,75.62 34.74,75.61" fill="currentColor" stroke="currentColor" stroke-width="1.2" stroke-linecap="round" stroke-linejoin="round" />
  <path d="M138.84,75.66 C138.86,75.64 138.89,75.63 138.93,75.61" fill="currentColor" stroke="currentColor" stroke-width="1.2" stroke-linecap="round" stroke-linejoin="round" />
  <path d="M136.20,75.61 C136.23,75.62 136.25,75.64 136.27,75.67" fill="currentColor" stroke="currentColor" stroke-width="1.2" stroke-linecap="round" stroke-linejoin="round" />
  <path d="M135.41,75.68 C135.43,75.65 135.45,75.63 135.49,75.62" fill="currentColor" stroke="currentColor" stroke-width="1.2" stroke-linecap="round" stroke-linejoin="round" />
  <path d="M139.64,75.61 C139.70,75.63 139.72,75.66 139.72,75.70" fill="currentColor" stroke="currentColor" stroke-width="1.2" stroke-linecap="round" stroke-linejoin="round" />
  <path d="M35.54,75.63 C35.57,75.64 35.58,75.67 35.58,75.70" fill="currentColor" stroke="currentColor" stroke-width="1.2" stroke-linecap="round" stroke-linejoin="round" />
  <path d="M31.42,75.71 C31.43,75.68 31.44,75.65 31.48,75.63" fill="currentColor" stroke="currentColor" stroke-width="1.2" stroke-linecap="round" stroke-linejoin="round" />
  <path d="M32.33,75.65 C32.35,75.67 32.36,75.69 32.37,75.72" fill="currentColor" stroke="currentColor" stroke-width="1.2" stroke-linecap="round" stroke-linejoin="round" />
  <path d="M34.59,75.72 C34.61,75.70 34.63,75.68 34.65,75.66" fill="currentColor" stroke="currentColor" stroke-width="1.2" stroke-linecap="round" stroke-linejoin="round" />
  <path d="M138.80,75.74 C138.81,75.71 138.82,75.68 138.84,75.66" fill="currentColor" stroke="currentColor" stroke-width="1.2" stroke-linecap="round" stroke-linejoin="round" />
  <path d="M136.27,75.67 C136.28,75.69 136.29,75.72 136.29,75.76" fill="currentColor" stroke="currentColor" stroke-width="1.2" stroke-linecap="round" stroke-linejoin="round" />
  <path d="M135.39,75.78 C135.39,75.74 135.40,75.71 135.41,75.68" fill="currentColor" stroke="currentColor" stroke-width="1.2" stroke-linecap="round" stroke-linejoin="round" />
  <path d="M139.72,75.70 C139.72,75.74 139.72,75.78 139.71,75.83" fill="currentColor" stroke="currentColor" stroke-width="1.2" stroke-linecap="round" stroke-linejoin="round" />
  <path d="M35.58,75.70 C35.57,75.74 35.54,75.78 35.50,75.83" fill="currentColor" stroke="currentColor" stroke-width="1.2" stroke-linecap="round" stroke-linejoin="round" />
  <path d="M31.45,75.84 C31.43,75.79 31.42,75.75 31.42,75.71" fill="currentColor" stroke="currentColor" stroke-width="1.2" stroke-linecap="round" stroke-linejoin="round" />
  <path d="M135.40,75.87 C135.40,75.84 135.39,75.81 135.39,75.78" fill="currentColor" stroke="currentColor" stroke-width="1.2" stroke-linecap="round" stroke-linejoin="round" />
  <path d="M139.71,75.83 C139.70,75.87 139.69,75.91 139.67,75.94" fill="currentColor" stroke="currentColor" stroke-width="1.2" stroke-linecap="round" stroke-linejoin="round" />
  <path d="M135.42,75.99 C135.41,75.95 135.40,75.91 135.40,75.87" fill="currentColor" stroke="currentColor" stroke-width="1.2" stroke-linecap="round" stroke-linejoin="round" />
  <path d="M22.26,71.48 C24.70,73.97 26.52,77.13 27.39,80.76" fill="none" stroke="currentColor" stroke-width="1.000000011920929" stroke-linecap="round" stroke-linejoin="round" />
  <path d="M138.44,76.77 C138.57,76.43 138.69,76.08 138.80,75.74" fill="currentColor" stroke="currentColor" stroke-width="1.2" stroke-linecap="round" stroke-linejoin="round" />
  <path d="M139.67,75.94 C139.56,76.27 139.43,76.61 139.29,76.96" fill="currentColor" stroke="currentColor" stroke-width="1.2" stroke-linecap="round" stroke-linejoin="round" />
  <line x1="32.37" y1="75.72" x2="33.14" y2="77.52" fill="currentColor" stroke="currentColor" stroke-width="1.2" stroke-linecap="round" stroke-linejoin="round" />
  <line x1="33.14" y1="77.52" x2="34.59" y2="75.72" fill="currentColor" stroke="currentColor" stroke-width="1.2" stroke-linecap="round" stroke-linejoin="round" />
  <line x1="32.44" y1="78.10" x2="31.45" y2="75.84" fill="currentColor" stroke="currentColor" stroke-width="1.2" stroke-linecap="round" stroke-linejoin="round" />
  <line x1="35.50" y1="75.83" x2="33.61" y2="78.11" fill="currentColor" stroke="currentColor" stroke-width="1.2" stroke-linecap="round" stroke-linejoin="round" />
  <path d="M138.03,77.77 C138.18,77.44 138.31,77.10 138.44,76.77" fill="currentColor" stroke="currentColor" stroke-width="1.2" stroke-linecap="round" stroke-linejoin="round" />
  <path d="M139.29,76.96 C139.15,77.31 138.99,77.68 138.80,78.07" fill="currentColor" stroke="currentColor" stroke-width="1.2" stroke-linecap="round" stroke-linejoin="round" />
  <line x1="136.29" y1="75.76" x2="136.92" y2="79.70" fill="currentColor" stroke="currentColor" stroke-width="1.2" stroke-linecap="round" stroke-linejoin="round" />
  <path d="M141.69,85.43 C141.69,79.53 144.11,74.20 148.00,70.36" fill="none" stroke="currentColor" stroke-width="1.000000011920929" stroke-linecap="round" stroke-linejoin="round" />
  <path d="M137.53,78.75 C137.71,78.43 137.88,78.10 138.03,77.77" fill="currentColor" stroke="currentColor" stroke-width="1.2" stroke-linecap="round" stroke-linejoin="round" />
  <line x1="136.22" y1="80.71" x2="135.42" y2="75.99" fill="currentColor" stroke="currentColor" stroke-width="1.2" stroke-linecap="round" stroke-linejoin="round" />
  <path d="M138.80,78.07 C138.61,78.45 138.40,78.85 138.15,79.27" fill="currentColor" stroke="currentColor" stroke-width="1.2" stroke-linecap="round" stroke-linejoin="round" />
  <path d="M136.93,79.70 C137.15,79.39 137.35,79.07 137.53,78.75" fill="currentColor" stroke="currentColor" stroke-width="1.2" stroke-linecap="round" stroke-linejoin="round" />
  <line x1="30.43" y1="80.48" x2="32.44" y2="78.10" fill="currentColor" stroke="currentColor" stroke-width="1.2" stroke-linecap="round" stroke-linejoin="round" />
  <line x1="33.61" y1="78.11" x2="34.67" y2="80.48" fill="currentColor" stroke="currentColor" stroke-width="1.2" stroke-linecap="round" stroke-linejoin="round" />
  <line x1="33.72" y1="80.59" x2="32.91" y2="78.69" fill="currentColor" stroke="currentColor" stroke-width="1.2" stroke-linecap="round" stroke-linejoin="round" />
  <line x1="32.91" y1="78.69" x2="31.40" y2="80.59" fill="currentColor" stroke="currentColor" stroke-width="1.2" stroke-linecap="round" stroke-linejoin="round" />
  <line x1="136.92" y1="79.70" x2="136.93" y2="79.70" fill="currentColor" stroke="currentColor" stroke-width="1.2" stroke-linecap="round" stroke-linejoin="round" />
  <path d="M138.15,79.27 C137.90,79.69 137.60,80.13 137.26,80.59" fill="currentColor" stroke="currentColor" stroke-width="1.2" stroke-linecap="round" stroke-linejoin="round" />
  <path d="M34.67,80.48 C34.69,80.53 34.70,80.57 34.69,80.60" fill="currentColor" stroke="currentColor" stroke-width="1.2" stroke-linecap="round" stroke-linejoin="round" />
  <path d="M30.37,80.60 C30.38,80.57 30.40,80.53 30.43,80.48" fill="currentColor" stroke="currentColor" stroke-width="1.2" stroke-linecap="round" stroke-linejoin="round" />
  <path d="M33.75,80.66 C33.74,80.64 33.73,80.62 33.72,80.59" fill="currentColor" stroke="currentColor" stroke-width="1.2" stroke-linecap="round" stroke-linejoin="round" />
  <path d="M31.40,80.59 C31.37,80.62 31.35,80.64 31.33,80.66" fill="currentColor" stroke="currentColor" stroke-width="1.2" stroke-linecap="round" stroke-linejoin="round" />
  <path d="M34.69,80.60 C34.68,80.64 34.66,80.66 34.62,80.68" fill="currentColor" stroke="currentColor" stroke-width="1.2" stroke-linecap="round" stroke-linejoin="round" />
  <path d="M30.41,80.68 C30.38,80.66 30.37,80.64 30.37,80.60" fill="currentColor" stroke="currentColor" stroke-width="1.2" stroke-linecap="round" stroke-linejoin="round" />
  <path d="M31.33,80.66 C31.30,80.68 31.27,80.70 31.23,80.71" fill="currentColor" stroke="currentColor" stroke-width="1.2" stroke-linecap="round" stroke-linejoin="round" />
  <path d="M33.82,80.71 C33.79,80.70 33.76,80.68 33.75,80.66" fill="currentColor" stroke="currentColor" stroke-width="1.2" stroke-linecap="round" stroke-linejoin="round" />
  <path d="M34.62,80.68 C34.58,80.71 34.53,80.72 34.46,80.73" fill="currentColor" stroke="currentColor" stroke-width="1.2" stroke-linecap="round" stroke-linejoin="round" />
  <path d="M30.55,80.73 C30.49,80.72 30.44,80.71 30.41,80.68" fill="currentColor" stroke="currentColor" stroke-width="1.2" stroke-linecap="round" stroke-linejoin="round" />
  <path d="M31.23,80.71 C31.19,80.72 31.13,80.73 31.07,80.73" fill="currentColor" stroke="currentColor" stroke-width="1.2" stroke-linecap="round" stroke-linejoin="round" />
  <path d="M33.95,80.74 C33.90,80.73 33.85,80.72 33.82,80.71" fill="currentColor" stroke="currentColor" stroke-width="1.2" stroke-linecap="round" stroke-linejoin="round" />
  <path d="M34.46,80.73 C34.39,80.74 34.30,80.74 34.19,80.74" fill="currentColor" stroke="currentColor" stroke-width="1.2" stroke-linecap="round" stroke-linejoin="round" />
  <path d="M30.80,80.74 C30.70,80.74 30.62,80.74 30.55,80.73" fill="currentColor" stroke="currentColor" stroke-width="1.2" stroke-linecap="round" stroke-linejoin="round" />
  <path d="M31.07,80.73 C31.00,80.74 30.91,80.74 30.80,80.74" fill="currentColor" stroke="currentColor" stroke-width="1.2" stroke-linecap="round" stroke-linejoin="round" />
  <path d="M34.19,80.74 C34.09,80.74 34.01,80.74 33.95,80.74" fill="currentColor" stroke="currentColor" stroke-width="1.2" stroke-linecap="round" stroke-linejoin="round" />
  <line x1="137.26" y1="80.59" x2="135.87" y2="82.49" fill="currentColor" stroke="currentColor" stroke-width="1.2" stroke-linecap="round" stroke-linejoin="round" />
  <line x1="134.91" y1="82.39" x2="136.22" y2="80.71" fill="currentColor" stroke="currentColor" stroke-width="1.2" stroke-linecap="round" stroke-linejoin="round" />
  <path d="M134.84,82.52 C134.84,82.49 134.87,82.44 134.91,82.39" fill="currentColor" stroke="currentColor" stroke-width="1.2" stroke-linecap="round" stroke-linejoin="round" />
  <path d="M135.87,82.49 C135.85,82.52 135.82,82.54 135.79,82.56" fill="currentColor" stroke="currentColor" stroke-width="1.2" stroke-linecap="round" stroke-linejoin="round" />
  <path d="M134.88,82.61 C134.85,82.59 134.84,82.56 134.84,82.52" fill="currentColor" stroke="currentColor" stroke-width="1.2" stroke-linecap="round" stroke-linejoin="round" />
  <path d="M135.79,82.56 C135.75,82.59 135.71,82.60 135.67,82.62" fill="currentColor" stroke="currentColor" stroke-width="1.2" stroke-linecap="round" stroke-linejoin="round" />
  <path d="M135.03,82.65 C134.96,82.64 134.92,82.63 134.88,82.61" fill="currentColor" stroke="currentColor" stroke-width="1.2" stroke-linecap="round" stroke-linejoin="round" />
  <path d="M135.67,82.62 C135.62,82.64 135.56,82.65 135.50,82.65" fill="currentColor" stroke="currentColor" stroke-width="1.2" stroke-linecap="round" stroke-linejoin="round" />
  <path d="M135.26,82.67 C135.17,82.67 135.09,82.66 135.03,82.65" fill="currentColor" stroke="currentColor" stroke-width="1.2" stroke-linecap="round" stroke-linejoin="round" />
  <path d="M135.50,82.65 C135.43,82.66 135.35,82.67 135.26,82.67" fill="currentColor" stroke="currentColor" stroke-width="1.2" stroke-linecap="round" stroke-linejoin="round" />
  <path d="M27.39,80.76 C27.77,82.34 27.95,83.92 27.95,85.48" fill="none" stroke="currentColor" stroke-width="1.000000011920929" stroke-linecap="round" stroke-linejoin="round" />
  <line x1="162.85" y1="85.43" x2="8.00" y2="85.43" fill="none" stroke="currentColor" stroke-width="1.4000000476837158" stroke-linecap="round" stroke-linejoin="round" />
  <path d="M141.70,85.72 C141.69,85.62 141.69,85.52 141.69,85.43" fill="none" stroke="currentColor" stroke-width="1.000000011920929" stroke-linecap="round" stroke-linejoin="round" />
</svg>