<svg xmlns="http://www.w3.org/2000/svg" viewBox="0 0 173.37 105.08" preserveAspectRatio="xMidYMid meet" shape-rendering="geometricPrecision" text-rendering="optimizeLegibility">
  <path d="M56.39,21.26 C54.05,22.69 51.30,23.50 48.37,23.50" fill="none" stroke="currentColor" stroke-width="1.000000011920929" stroke-linecap="round" stroke-linejoin="round" />
  <path d="M48.37,23.50 C46.08,23.50 43.91,23.01 41.96,22.12" fill="none" stroke="currentColor" stroke-width="1.000000011920929" stroke-linecap="round" stroke-linejoin="round" />
  <path d="M47.23,28.02 C47.29,28.01 47.36,28.01 47.45,28.01" fill="currentColor" stroke="currentColor" stroke-width="1.2" stroke-linecap="round" stroke-linejoin="round" />
  <path d="M47.45,28.01 C47.55,28.01 47.62,28.01 47.68,28.02" fill="currentColor" stroke="currentColor" stroke-width="1.2" stroke-linecap="round" stroke-linejoin="round" />
  <path d="M50.69,28.02 C50.75,28.01 50.83,28.01 50.92,28.01" fill="currentColor" stroke="currentColor" stroke-width="1.2" stroke-linecap="round" stroke-linejoin="round" />
  <path d="M50.92,28.01 C51.01,28.01 51.08,28.01 51.13,28.02" fill="currentColor" stroke="currentColor" stroke-width="1.2" stroke-linecap="round" stroke-linejoin="round" />
  <path d="M51.13,28.02 C51.19,28.03 51.23,28.03 51.26,28.04" fill="currentColor" stroke="currentColor" stroke-width="1.2" stroke-linecap="round" stroke-linejoin="round" />
  <path d="M47.68,28.02 C47.74,28.03 47.78,28.03 47.81,28.05" fill="currentColor" stroke="currentColor" stroke-width="1.2" stroke-linecap="round" stroke-linejoin="round" />
  <path d="M50.54,28.05 C50.58,28.03 50.63,28.03 50.69,28.02" fill="currentColor" stroke="currentColor" stroke-width="1.2" stroke-linecap="round" stroke-linejoin="round" />
  <path d="M47.10,28.05 C47.13,28.04 47.17,28.03 47.23,28.02" fill="currentColor" stroke="currentColor" stroke-width="1.2" stroke-linecap="round" stroke-linejoin="round" />
  <path d="M51.26,28.04 C51.29,28.05 51.31,28.06 51.32,28.08" fill="currentColor" stroke="currentColor" stroke-width="1.2" stroke-linecap="round" stroke-linejoin="round" />
  <path d="M47.81,28.05 C47.84,28.06 47.86,28.08 47.87,28.10" fill="currentColor" stroke="currentColor" stroke-width="1.2" stroke-linecap="round" stroke-linejoin="round" />
  <path d="M50.45,28.10 C50.47,28.08 50.50,28.06 50.54,28.05" fill="currentColor" stroke="currentColor" stroke-width="1.2" stroke-linecap="round" stroke-linejoin="round" />
  <path d="M47.03,28.11 C47.04,28.08 47.07,28.06 47.10,28.05" fill="currentColor" stroke="currentColor" stroke-width="1.2" stroke-linecap="round" stroke-linejoin="round" />
  <path d="M51.32,28.08 C51.34,28.10 51.34,28.11 51.34,28.14" fill="currentColor" stroke="currentColor" stroke-width="1.2" stroke-linecap="round" stroke-linejoin="round" />
  <path d="M47.87,28.10 C47.88,28.12 47.89,28.15 47.89,28.18" fill="currentColor" stroke="currentColor" stroke-width="1.2" stroke-linecap="round" stroke-linejoin="round" />
  <path d="M50.41,28.18 C50.42,28.15 50.43,28.12 50.45,28.10" fill="currentColor" stroke="currentColor" stroke-width="1.2" stroke-linecap="round" stroke-linejoin="round" />
  <path d="M47.01,28.22 C47.01,28.17 47.01,28.13 47.03,28.11" fill="currentColor" stroke="currentColor" stroke-width="1.2" stroke-linecap="round" stroke-linejoin="round" />
  <path d="M51.34,28.14 C51.34,28.17 51.34,28.21 51.33,28.25" fill="currentColor" stroke="currentColor" stroke-width="1.2" stroke-linecap="round" stroke-linejoin="round" />
  <path d="M47.01,28.30 C47.01,28.27 47.01,28.24 47.01,28.22" fill="currentColor" stroke="currentColor" stroke-width="1.2" stroke-linecap="round" stroke-linejoin="round" />
  <path d="M51.33,28.25 C51.32,28.28 51.30,28.32 51.29,28.36" fill="currentColor" stroke="currentColor" stroke-width="1.2" stroke-linecap="round" stroke-linejoin="round" />
  <path d="M47.02,28.40 C47.01,28.36 47.01,28.33 47.01,28.30" fill="currentColor" stroke="currentColor" stroke-width="1.2" stroke-linecap="round" stroke-linejoin="round" />
  <path d="M50.00,29.34 C50.13,28.99 50.27,28.61 50.41,28.18" fill="currentColor" stroke="currentColor" stroke-width="1.2" stroke-linecap="round" stroke-linejoin="round" />
  <path d="M51.29,28.36 C51.16,28.75 51.01,29.15 50.84,29.55" fill="currentColor" stroke="currentColor" stroke-width="1.2" stroke-linecap="round" stroke-linejoin="round" />
  <path d="M49.57,30.35 C49.72,30.03 49.86,29.69 50.00,29.34" fill="currentColor" stroke="currentColor" stroke-width="1.2" stroke-linecap="round" stroke-linejoin="round" />
  <path d="M50.84,29.55 C50.67,29.94 50.49,30.34 50.29,30.74" fill="currentColor" stroke="currentColor" stroke-width="1.2" stroke-linecap="round" stroke-linejoin="round" />
  <line x1="47.89" y1="28.18" x2="48.47" y2="32.17" fill="currentColor" stroke="currentColor" stroke-width="1.2" stroke-linecap="round" stroke-linejoin="round" />
  <line x1="47.73" y1="32.99" x2="47.02" y2="28.40" fill="currentColor" stroke="currentColor" stroke-width="1.2" stroke-linecap="round" stroke-linejoin="round" />
  <path d="M49.08,31.27 C49.26,30.98 49.42,30.67 49.57,30.35" fill="currentColor" stroke="currentColor" stroke-width="1.2" stroke-linecap="round" stroke-linejoin="round" />
  <path d="M50.29,30.74 C50.08,31.13 49.86,31.52 49.62,31.90" fill="currentColor" stroke="currentColor" stroke-width="1.2" stroke-linecap="round" stroke-linejoin="round" />
  <path d="M48.50,32.20 C48.71,31.88 48.91,31.57 49.08,31.27" fill="currentColor" stroke="currentColor" stroke-width="1.2" stroke-linecap="round" stroke-linejoin="round" />
  <line x1="48.47" y1="32.17" x2="48.47" y2="32.23" fill="currentColor" stroke="currentColor" stroke-width="1.2" stroke-linecap="round" stroke-linejoin="round" />
  <line x1="48.47" y1="32.23" x2="48.50" y2="32.20" fill="currentColor" stroke="currentColor" stroke-width="1.2" stroke-linecap="round" stroke-linejoin="round" />
  <path d="M49.62,31.90 C49.38,32.28 49.11,32.65 48.83,33.01" fill="currentColor" stroke="currentColor" stroke-width="1.2" stroke-linecap="round" stroke-linejoin="round" />
  <path d="M47.76,33.08 C47.75,33.05 47.74,33.02 47.73,32.99" fill="currentColor" stroke="currentColor" stroke-width="1.2" stroke-linecap="round" stroke-linejoin="round" />
  <path d="M48.83,33.01 C48.80,33.05 48.77,33.08 48.74,33.10" fill="currentColor" stroke="currentColor" stroke-width="1.2" stroke-linecap="round" stroke-linejoin="round" />
  <path d="M47.84,33.14 C47.81,33.12 47.78,33.10 47.76,33.08" fill="currentColor" stroke="currentColor" stroke-width="1.2" stroke-linecap="round" stroke-linejoin="round" />
  <path d="M48.74,33.10 C48.71,33.12 48.67,33.14 48.63,33.15" fill="currentColor" stroke="currentColor" stroke-width="1.2" stroke-linecap="round" stroke-linejoin="round" />
  <path d="M48.00,33.17 C47.93,33.16 47.88,33.15 47.84,33.14" fill="currentColor" stroke="currentColor" stroke-width="1.2" stroke-linecap="round" stroke-linejoin="round" />
  <path d="M48.63,33.15 C48.58,33.16 48.53,33.17 48.47,33.17" fill="currentColor" stroke="currentColor" stroke-width="1.2" stroke-linecap="round" stroke-linejoin="round" />
  <path d="M48.27,33.18 C48.16,33.18 48.07,33.18 48.00,33.17" fill="currentColor" stroke="currentColor" stroke-width="1.2" stroke-linecap="round" stroke-linejoin="round" />
  <path d="M48.47,33.17 C48.42,33.18 48.35,33.18 48.27,33.18" fill="currentColor" stroke="currentColor" stroke-width="1.2" stroke-linecap="round" stroke-linejoin="round" />
  <line x1="102.27" y1="97.06" x2="48.37" y2="8.00" fill="none" stroke="currentColor" stroke-width="1.4000000476837158" stroke-linecap="round" stroke-linejoin="round" />
  <line x1="48.37" y1="8.00" x2="8.00" y2="97.06" fill="none" stroke="currentColor" stroke-width="1.4000000476837158" stroke-linecap="round" stroke-linejoin="round" />
  <path d="M33.09,79.87 C33.27,79.87 33.44,79.90 33.60,79.96" fill="currentColor" stroke="currentColor" stroke-width="1.2" stroke-linecap="round" stroke-linejoin="round" />
  <path d="M32.56,79.97 C32.72,79.90 32.90,79.87 33.09,79.87" fill="currentColor" stroke="currentColor" stroke-width="1.2" stroke-linecap="round" stroke-linejoin="round" />
  <path d="M33.60,79.96 C33.76,80.02 33.89,80.11 34.01,80.21" fill="currentColor" stroke="currentColor" stroke-width="1.2" stroke-linecap="round" stroke-linejoin="round" />
  <path d="M32.14,80.23 C32.26,80.12 32.40,80.03 32.56,79.97" fill="currentColor" stroke="currentColor" stroke-width="1.2" stroke-linecap="round" stroke-linejoin="round" />
  <path d="M112.84,80.19 C112.88,80.18 112.94,80.18 113.00,80.18" fill="currentColor" stroke="currentColor" stroke-width="1.2" stroke-linecap="round" stroke-linejoin="round" />
  <path d="M112.73,80.20 C112.76,80.19 112.80,80.19 112.84,80.19" fill="currentColor" stroke="currentColor" stroke-width="1.2" stroke-linecap="round" stroke-linejoin="round" />
  <path d="M112.65,80.22 C112.67,80.21 112.69,80.21 112.73,80.20" fill="currentColor" stroke="currentColor" stroke-width="1.2" stroke-linecap="round" stroke-linejoin="round" />
  <line x1="20.79" y1="80.23" x2="24.84" y2="80.23" fill="currentColor" stroke="currentColor" stroke-width="1.2" stroke-linecap="round" stroke-linejoin="round" />
  <path d="M112.59,80.25 C112.61,80.24 112.62,80.23 112.65,80.22" fill="currentColor" stroke="currentColor" stroke-width="1.2" stroke-linecap="round" stroke-linejoin="round" />
  <path d="M24.84,80.23 C24.89,80.23 24.93,80.24 24.97,80.25" fill="currentColor" stroke="currentColor" stroke-width="1.2" stroke-linecap="round" stroke-linejoin="round" />
  <path d="M20.70,80.26 C20.73,80.24 20.76,80.23 20.79,80.23" fill="currentColor" stroke="currentColor" stroke-width="1.2" stroke-linecap="round" stroke-linejoin="round" />
  <path d="M28.48,80.13 C28.92,80.13 29.29,80.21 29.59,80.36" fill="currentColor" stroke="currentColor" stroke-width="1.2" stroke-linecap="round" stroke-linejoin="round" />
  <path d="M27.32,80.39 C27.64,80.22 28.02,80.13 28.48,80.13" fill="currentColor" stroke="currentColor" stroke-width="1.2" stroke-linecap="round" stroke-linejoin="round" />
  <path d="M24.97,80.25 C25.01,80.26 25.03,80.28 25.05,80.31" fill="currentColor" stroke="currentColor" stroke-width="1.2" stroke-linecap="round" stroke-linejoin="round" />
  <path d="M20.64,80.33 C20.65,80.30 20.68,80.27 20.70,80.26" fill="currentColor" stroke="currentColor" stroke-width="1.2" stroke-linecap="round" stroke-linejoin="round" />
  <path d="M25.05,80.31 C25.07,80.34 25.09,80.39 25.10,80.44" fill="currentColor" stroke="currentColor" stroke-width="1.2" stroke-linecap="round" stroke-linejoin="round" />
  <path d="M20.60,80.46 C20.60,80.41 20.62,80.37 20.64,80.33" fill="currentColor" stroke="currentColor" stroke-width="1.2" stroke-linecap="round" stroke-linejoin="round" />
  <path d="M34.01,80.21 C34.12,80.32 34.21,80.45 34.28,80.60" fill="currentColor" stroke="currentColor" stroke-width="1.2" stroke-linecap="round" stroke-linejoin="round" />
  <path d="M31.86,80.63 C31.92,80.48 32.02,80.34 32.14,80.23" fill="currentColor" stroke="currentColor" stroke-width="1.2" stroke-linecap="round" stroke-linejoin="round" />
  <path d="M33.31,80.49 C33.23,80.45 33.15,80.44 33.05,80.44" fill="currentColor" stroke="currentColor" stroke-width="1.2" stroke-linecap="round" stroke-linejoin="round" />
  <path d="M33.05,80.44 C32.96,80.44 32.88,80.45 32.80,80.49" fill="currentColor" stroke="currentColor" stroke-width="1.2" stroke-linecap="round" stroke-linejoin="round" />
  <path d="M25.10,80.44 C25.11,80.49 25.12,80.55 25.12,80.63" fill="currentColor" stroke="currentColor" stroke-width="1.2" stroke-linecap="round" stroke-linejoin="round" />
  <path d="M20.58,80.63 C20.58,80.57 20.59,80.51 20.60,80.46" fill="currentColor" stroke="currentColor" stroke-width="1.2" stroke-linecap="round" stroke-linejoin="round" />
  <path d="M33.52,80.63 C33.46,80.57 33.39,80.52 33.31,80.49" fill="currentColor" stroke="currentColor" stroke-width="1.2" stroke-linecap="round" stroke-linejoin="round" />
  <path d="M32.80,80.49 C32.73,80.52 32.66,80.57 32.60,80.63" fill="currentColor" stroke="currentColor" stroke-width="1.2" stroke-linecap="round" stroke-linejoin="round" />
  <path d="M29.59,80.36 C29.89,80.52 30.13,80.75 30.31,81.05" fill="currentColor" stroke="currentColor" stroke-width="1.2" stroke-linecap="round" stroke-linejoin="round" />
  <path d="M25.12,80.63 C25.12,80.69 25.11,80.75 25.11,80.80" fill="currentColor" stroke="currentColor" stroke-width="1.2" stroke-linecap="round" stroke-linejoin="round" />
  <path d="M32.60,80.63 C32.55,80.69 32.50,80.76 32.47,80.84" fill="currentColor" stroke="currentColor" stroke-width="1.2" stroke-linecap="round" stroke-linejoin="round" />
  <path d="M33.65,80.85 C33.62,80.76 33.57,80.69 33.52,80.63" fill="currentColor" stroke="currentColor" stroke-width="1.2" stroke-linecap="round" stroke-linejoin="round" />
  <path d="M26.56,81.13 C26.75,80.81 27.01,80.56 27.32,80.39" fill="currentColor" stroke="currentColor" stroke-width="1.2" stroke-linecap="round" stroke-linejoin="round" />
  <line x1="110.99" y1="81.27" x2="112.59" y2="80.25" fill="currentColor" stroke="currentColor" stroke-width="1.2" stroke-linecap="round" stroke-linejoin="round" />
  <path d="M20.63,80.94 C20.60,80.86 20.58,80.76 20.58,80.63" fill="currentColor" stroke="currentColor" stroke-width="1.2" stroke-linecap="round" stroke-linejoin="round" />
  <path d="M34.28,80.60 C34.34,80.75 34.37,80.91 34.37,81.10" fill="currentColor" stroke="currentColor" stroke-width="1.2" stroke-linecap="round" stroke-linejoin="round" />
  <path d="M25.11,80.80 C25.10,80.86 25.10,80.91 25.09,80.95" fill="currentColor" stroke="currentColor" stroke-width="1.2" stroke-linecap="round" stroke-linejoin="round" />
  <path d="M31.75,81.14 C31.75,80.96 31.79,80.79 31.86,80.63" fill="currentColor" stroke="currentColor" stroke-width="1.2" stroke-linecap="round" stroke-linejoin="round" />
  <path d="M28.89,80.95 C28.76,80.91 28.60,80.89 28.43,80.89" fill="currentColor" stroke="currentColor" stroke-width="1.2" stroke-linecap="round" stroke-linejoin="round" />
  <path d="M32.47,80.84 C32.44,80.93 32.42,81.01 32.42,81.11" fill="currentColor" stroke="currentColor" stroke-width="1.2" stroke-linecap="round" stroke-linejoin="round" />
  <path d="M33.70,81.12 C33.70,81.02 33.68,80.93 33.65,80.85" fill="currentColor" stroke="currentColor" stroke-width="1.2" stroke-linecap="round" stroke-linejoin="round" />
  <path d="M20.79,81.04 C20.72,81.04 20.67,81.01 20.63,80.94" fill="currentColor" stroke="currentColor" stroke-width="1.2" stroke-linecap="round" stroke-linejoin="round" />
  <path d="M28.43,80.89 C28.12,80.89 27.88,80.96 27.69,81.10" fill="currentColor" stroke="currentColor" stroke-width="1.2" stroke-linecap="round" stroke-linejoin="round" />
  <path d="M25.09,80.95 C25.08,81.00 25.07,81.05 25.05,81.09" fill="currentColor" stroke="currentColor" stroke-width="1.2" stroke-linecap="round" stroke-linejoin="round" />
  <line x1="24.12" y1="81.04" x2="20.79" y2="81.04" fill="currentColor" stroke="currentColor" stroke-width="1.2" stroke-linecap="round" stroke-linejoin="round" />
  <path d="M29.26,81.17 C29.15,81.07 29.03,81.00 28.89,80.95" fill="currentColor" stroke="currentColor" stroke-width="1.2" stroke-linecap="round" stroke-linejoin="round" />
  <path d="M25.05,81.09 C25.03,81.14 25.01,81.19 24.99,81.24" fill="currentColor" stroke="currentColor" stroke-width="1.2" stroke-linecap="round" stroke-linejoin="round" />
  <path d="M32.42,81.11 C32.42,81.21 32.44,81.31 32.47,81.39" fill="currentColor" stroke="currentColor" stroke-width="1.2" stroke-linecap="round" stroke-linejoin="round" />
  <path d="M33.65,81.39 C33.68,81.30 33.70,81.21 33.70,81.12" fill="currentColor" stroke="currentColor" stroke-width="1.2" stroke-linecap="round" stroke-linejoin="round" />
  <path d="M110.91,81.34 C110.93,81.32 110.96,81.29 110.99,81.27" fill="currentColor" stroke="currentColor" stroke-width="1.2" stroke-linecap="round" stroke-linejoin="round" />
  <path d="M34.37,81.10 C34.37,81.27 34.34,81.44 34.28,81.59" fill="currentColor" stroke="currentColor" stroke-width="1.2" stroke-linecap="round" stroke-linejoin="round" />
  <path d="M29.54,81.54 C29.46,81.39 29.37,81.27 29.26,81.17" fill="currentColor" stroke="currentColor" stroke-width="1.2" stroke-linecap="round" stroke-linejoin="round" />
  <path d="M110.87,81.41 C110.88,81.38 110.89,81.36 110.91,81.34" fill="currentColor" stroke="currentColor" stroke-width="1.2" stroke-linecap="round" stroke-linejoin="round" />
  <path d="M31.85,81.64 C31.79,81.49 31.75,81.32 31.75,81.14" fill="currentColor" stroke="currentColor" stroke-width="1.2" stroke-linecap="round" stroke-linejoin="round" />
  <path d="M27.69,81.10 C27.50,81.24 27.35,81.44 27.24,81.69" fill="currentColor" stroke="currentColor" stroke-width="1.2" stroke-linecap="round" stroke-linejoin="round" />
  <path d="M110.84,81.52 C110.85,81.48 110.86,81.44 110.87,81.41" fill="currentColor" stroke="currentColor" stroke-width="1.2" stroke-linecap="round" stroke-linejoin="round" />
  <path d="M33.52,81.60 C33.57,81.54 33.62,81.47 33.65,81.39" fill="currentColor" stroke="currentColor" stroke-width="1.2" stroke-linecap="round" stroke-linejoin="round" />
  <path d="M32.47,81.39 C32.50,81.48 32.55,81.55 32.60,81.61" fill="currentColor" stroke="currentColor" stroke-width="1.2" stroke-linecap="round" stroke-linejoin="round" />
  <line x1="112.51" y1="81.16" x2="111.16" y2="81.96" fill="currentColor" stroke="currentColor" stroke-width="1.2" stroke-linecap="round" stroke-linejoin="round" />
  <path d="M110.84,81.68 C110.84,81.62 110.84,81.56 110.84,81.52" fill="currentColor" stroke="currentColor" stroke-width="1.2" stroke-linecap="round" stroke-linejoin="round" />
  <path d="M30.31,81.05 C30.50,81.35 30.63,81.73 30.70,82.17" fill="currentColor" stroke="currentColor" stroke-width="1.2" stroke-linecap="round" stroke-linejoin="round" />
  <path d="M33.32,81.75 C33.40,81.72 33.46,81.67 33.52,81.60" fill="currentColor" stroke="currentColor" stroke-width="1.2" stroke-linecap="round" stroke-linejoin="round" />
  <path d="M32.60,81.61 C32.66,81.67 32.73,81.72 32.81,81.75" fill="currentColor" stroke="currentColor" stroke-width="1.2" stroke-linecap="round" stroke-linejoin="round" />
  <path d="M26.14,82.26 C26.23,81.82 26.37,81.44 26.56,81.13" fill="currentColor" stroke="currentColor" stroke-width="1.2" stroke-linecap="round" stroke-linejoin="round" />
  <path d="M33.08,81.81 C33.16,81.81 33.24,81.79 33.32,81.75" fill="currentColor" stroke="currentColor" stroke-width="1.2" stroke-linecap="round" stroke-linejoin="round" />
  <path d="M110.85,81.88 C110.84,81.83 110.84,81.76 110.84,81.68" fill="currentColor" stroke="currentColor" stroke-width="1.2" stroke-linecap="round" stroke-linejoin="round" />
  <path d="M32.81,81.75 C32.89,81.79 32.98,81.81 33.08,81.81" fill="currentColor" stroke="currentColor" stroke-width="1.2" stroke-linecap="round" stroke-linejoin="round" />
  <path d="M34.28,81.59 C34.21,81.74 34.12,81.88 34.00,82.00" fill="currentColor" stroke="currentColor" stroke-width="1.2" stroke-linecap="round" stroke-linejoin="round" />
  <path d="M29.73,82.09 C29.68,81.88 29.62,81.70 29.54,81.54" fill="currentColor" stroke="currentColor" stroke-width="1.2" stroke-linecap="round" stroke-linejoin="round" />
  <path d="M32.12,82.03 C32.00,81.92 31.91,81.79 31.85,81.64" fill="currentColor" stroke="currentColor" stroke-width="1.2" stroke-linecap="round" stroke-linejoin="round" />
  <path d="M110.90,82.00 C110.88,81.97 110.86,81.93 110.85,81.88" fill="currentColor" stroke="currentColor" stroke-width="1.2" stroke-linecap="round" stroke-linejoin="round" />
  <path d="M111.16,81.96 C111.10,81.99 111.04,82.01 111.00,82.02" fill="currentColor" stroke="currentColor" stroke-width="1.2" stroke-linecap="round" stroke-linejoin="round" />
  <path d="M111.00,82.02 C110.96,82.03 110.93,82.02 110.90,82.00" fill="currentColor" stroke="currentColor" stroke-width="1.2" stroke-linecap="round" stroke-linejoin="round" />
  <path d="M34.00,82.00 C33.88,82.11 33.73,82.20 33.57,82.27" fill="currentColor" stroke="currentColor" stroke-width="1.2" stroke-linecap="round" stroke-linejoin="round" />
  <path d="M27.24,81.69 C27.13,81.94 27.06,82.24 27.02,82.57" fill="currentColor" stroke="currentColor" stroke-width="1.2" stroke-linecap="round" stroke-linejoin="round" />
  <path d="M32.52,82.28 C32.37,82.22 32.23,82.13 32.12,82.03" fill="currentColor" stroke="currentColor" stroke-width="1.2" stroke-linecap="round" stroke-linejoin="round" />
  <path d="M33.57,82.27 C33.41,82.33 33.23,82.36 33.04,82.36" fill="currentColor" stroke="currentColor" stroke-width="1.2" stroke-linecap="round" stroke-linejoin="round" />
  <path d="M33.04,82.36 C32.85,82.36 32.68,82.33 32.52,82.28" fill="currentColor" stroke="currentColor" stroke-width="1.2" stroke-linecap="round" stroke-linejoin="round" />
  <path d="M29.84,82.82 C29.81,82.54 29.77,82.30 29.73,82.09" fill="currentColor" stroke="currentColor" stroke-width="1.2" stroke-linecap="round" stroke-linejoin="round" />
  <path d="M30.70,82.17 C30.78,82.61 30.82,83.12 30.82,83.69" fill="currentColor" stroke="currentColor" stroke-width="1.2" stroke-linecap="round" stroke-linejoin="round" />
  <path d="M26.01,83.72 C26.01,83.19 26.06,82.71 26.14,82.26" fill="currentColor" stroke="currentColor" stroke-width="1.2" stroke-linecap="round" stroke-linejoin="round" />
  <path d="M27.02,82.57 C26.98,82.91 26.96,83.27 26.96,83.66" fill="currentColor" stroke="currentColor" stroke-width="1.2" stroke-linecap="round" stroke-linejoin="round" />
  <path d="M29.87,83.75 C29.87,83.41 29.86,83.10 29.84,82.82" fill="currentColor" stroke="currentColor" stroke-width="1.2" stroke-linecap="round" stroke-linejoin="round" />
  <line x1="112.51" y1="86.44" x2="112.51" y2="81.16" fill="currentColor" stroke="currentColor" stroke-width="1.2" stroke-linecap="round" stroke-linejoin="round" />
  <line x1="21.49" y1="86.94" x2="24.12" y2="81.04" fill="currentColor" stroke="currentColor" stroke-width="1.2" stroke-linecap="round" stroke-linejoin="round" />
  <line x1="24.99" y1="81.24" x2="22.49" y2="87.00" fill="currentColor" stroke="currentColor" stroke-width="1.2" stroke-linecap="round" stroke-linejoin="round" />
  <path d="M29.85,84.50 C29.87,84.26 29.87,84.01 29.87,83.75" fill="currentColor" stroke="currentColor" stroke-width="1.2" stroke-linecap="round" stroke-linejoin="round" />
  <path d="M26.96,83.66 C26.96,84.18 26.98,84.62 27.04,84.98" fill="currentColor" stroke="currentColor" stroke-width="1.2" stroke-linecap="round" stroke-linejoin="round" />
  <path d="M30.82,83.69 C30.82,84.22 30.78,84.71 30.69,85.15" fill="currentColor" stroke="currentColor" stroke-width="1.2" stroke-linecap="round" stroke-linejoin="round" />
  <path d="M26.13,85.25 C26.05,84.80 26.01,84.30 26.01,83.72" fill="currentColor" stroke="currentColor" stroke-width="1.2" stroke-linecap="round" stroke-linejoin="round" />
  <path d="M29.76,85.16 C29.80,84.96 29.83,84.74 29.85,84.50" fill="currentColor" stroke="currentColor" stroke-width="1.2" stroke-linecap="round" stroke-linejoin="round" />
  <path d="M27.04,84.98 C27.09,85.35 27.18,85.64 27.29,85.87" fill="currentColor" stroke="currentColor" stroke-width="1.2" stroke-linecap="round" stroke-linejoin="round" />
  <path d="M29.59,85.72 C29.66,85.55 29.72,85.37 29.76,85.16" fill="currentColor" stroke="currentColor" stroke-width="1.2" stroke-linecap="round" stroke-linejoin="round" />
  <path d="M30.69,85.15 C30.61,85.59 30.47,85.97 30.27,86.29" fill="currentColor" stroke="currentColor" stroke-width="1.2" stroke-linecap="round" stroke-linejoin="round" />
  <path d="M26.52,86.36 C26.33,86.06 26.20,85.69 26.13,85.25" fill="currentColor" stroke="currentColor" stroke-width="1.2" stroke-linecap="round" stroke-linejoin="round" />
  <path d="M29.32,86.15 C29.43,86.03 29.52,85.89 29.59,85.72" fill="currentColor" stroke="currentColor" stroke-width="1.2" stroke-linecap="round" stroke-linejoin="round" />
  <path d="M27.29,85.87 C27.41,86.10 27.56,86.27 27.74,86.37" fill="currentColor" stroke="currentColor" stroke-width="1.2" stroke-linecap="round" stroke-linejoin="round" />
  <path d="M28.93,86.43 C29.08,86.37 29.21,86.27 29.32,86.15" fill="currentColor" stroke="currentColor" stroke-width="1.2" stroke-linecap="round" stroke-linejoin="round" />
  <line x1="111.06" y1="86.44" x2="112.51" y2="86.44" fill="currentColor" stroke="currentColor" stroke-width="1.2" stroke-linecap="round" stroke-linejoin="round" />
  <path d="M27.74,86.37 C27.92,86.47 28.14,86.53 28.40,86.53" fill="currentColor" stroke="currentColor" stroke-width="1.2" stroke-linecap="round" stroke-linejoin="round" />
  <path d="M110.98,86.46 C111.00,86.45 111.03,86.44 111.06,86.44" fill="currentColor" stroke="currentColor" stroke-width="1.2" stroke-linecap="round" stroke-linejoin="round" />
  <path d="M28.40,86.53 C28.60,86.53 28.77,86.49 28.93,86.43" fill="currentColor" stroke="currentColor" stroke-width="1.2" stroke-linecap="round" stroke-linejoin="round" />
  <path d="M110.92,86.53 C110.93,86.50 110.96,86.48 110.98,86.46" fill="currentColor" stroke="currentColor" stroke-width="1.2" stroke-linecap="round" stroke-linejoin="round" />
  <path d="M110.88,86.65 C110.89,86.60 110.90,86.56 110.92,86.53" fill="currentColor" stroke="currentColor" stroke-width="1.2" stroke-linecap="round" stroke-linejoin="round" />
  <path d="M30.27,86.29 C30.08,86.60 29.82,86.85 29.51,87.02" fill="currentColor" stroke="currentColor" stroke-width="1.2" stroke-linecap="round" stroke-linejoin="round" />
  <path d="M27.24,87.05 C26.94,86.89 26.70,86.66 26.52,86.36" fill="currentColor" stroke="currentColor" stroke-width="1.2" stroke-linecap="round" stroke-linejoin="round" />
  <path d="M110.86,86.82 C110.86,86.75 110.87,86.70 110.88,86.65" fill="currentColor" stroke="currentColor" stroke-width="1.2" stroke-linecap="round" stroke-linejoin="round" />
  <path d="M96.48,87.44 C100.60,84.96 106.02,85.33 109.78,88.71" fill="none" stroke="currentColor" stroke-width="1.000000011920929" stroke-linecap="round" stroke-linejoin="round" />
  <path d="M110.88,86.99 C110.87,86.94 110.86,86.88 110.86,86.82" fill="currentColor" stroke="currentColor" stroke-width="1.2" stroke-linecap="round" stroke-linejoin="round" />
  <path d="M21.45,87.06 C21.46,87.03 21.47,86.99 21.49,86.94" fill="currentColor" stroke="currentColor" stroke-width="1.2" stroke-linecap="round" stroke-linejoin="round" />
  <path d="M110.92,87.10 C110.90,87.07 110.89,87.03 110.88,86.99" fill="currentColor" stroke="currentColor" stroke-width="1.2" stroke-linecap="round" stroke-linejoin="round" />
  <path d="M22.49,87.00 C22.47,87.05 22.45,87.08 22.42,87.11" fill="currentColor" stroke="currentColor" stroke-width="1.2" stroke-linecap="round" stroke-linejoin="round" />
  <path d="M21.49,87.15 C21.46,87.12 21.45,87.09 21.45,87.06" fill="currentColor" stroke="currentColor" stroke-width="1.2" stroke-linecap="round" stroke-linejoin="round" />
  <path d="M110.99,87.16 C110.96,87.15 110.94,87.13 110.92,87.10" fill="currentColor" stroke="currentColor" stroke-width="1.2" stroke-linecap="round" stroke-linejoin="round" />
  <path d="M22.42,87.11 C22.40,87.14 22.36,87.16 22.32,87.17" fill="currentColor" stroke="currentColor" stroke-width="1.2" stroke-linecap="round" stroke-linejoin="round" />
  <path d="M29.51,87.02 C29.19,87.20 28.81,87.28 28.34,87.28" fill="currentColor" stroke="currentColor" stroke-width="1.2" stroke-linecap="round" stroke-linejoin="round" />
  <path d="M28.34,87.28 C27.91,87.28 27.54,87.21 27.24,87.05" fill="currentColor" stroke="currentColor" stroke-width="1.2" stroke-linecap="round" stroke-linejoin="round" />
  <path d="M111.06,87.18 C111.03,87.18 111.01,87.18 110.99,87.16" fill="currentColor" stroke="currentColor" stroke-width="1.2" stroke-linecap="round" stroke-linejoin="round" />
  <path d="M21.64,87.20 C21.57,87.19 21.52,87.17 21.49,87.15" fill="currentColor" stroke="currentColor" stroke-width="1.2" stroke-linecap="round" stroke-linejoin="round" />
  <line x1="114.69" y1="87.18" x2="111.06" y2="87.18" fill="currentColor" stroke="currentColor" stroke-width="1.2" stroke-linecap="round" stroke-linejoin="round" />
  <path d="M22.32,87.17 C22.28,87.19 22.23,87.20 22.16,87.21" fill="currentColor" stroke="currentColor" stroke-width="1.2" stroke-linecap="round" stroke-linejoin="round" />
  <path d="M21.93,87.21 C21.80,87.21 21.71,87.21 21.64,87.20" fill="currentColor" stroke="currentColor" stroke-width="1.2" stroke-linecap="round" stroke-linejoin="round" />
  <path d="M22.16,87.21 C22.10,87.21 22.02,87.21 21.93,87.21" fill="currentColor" stroke="currentColor" stroke-width="1.2" stroke-linecap="round" stroke-linejoin="round" />
  <path d="M12.94,86.18 C16.69,88.00 19.38,91.74 19.62,96.19" fill="none" stroke="currentColor" stroke-width="1.000000011920929" stroke-linecap="round" stroke-linejoin="round" />
  <path d="M109.78,88.71 C112.24,90.92 113.50,93.99 113.50,97.06" fill="none" stroke="currentColor" stroke-width="1.000000011920929" stroke-linecap="round" stroke-linejoin="round" />
  <path d="M19.62,96.19 C19.64,96.49 19.65,96.78 19.64,97.08" fill="none" stroke="currentColor" stroke-width="1.000000011920929" stroke-linecap="round" stroke-linejoin="round" />
  <line x1="8.00" y1="97.06" x2="165.37" y2="97.06" fill="none" stroke="currentColor" stroke-width="1.4000000476837158" stroke-linecap="round" stroke-linejoin="round" />
</svg>