<svg xmlns="http://www.w3.org/2000/svg" viewBox="0 0 158.19 158.19" preserveAspectRatio="xMidYMid meet" shape-rendering="geometricPrecision" text-rendering="optimizeLegibility">
  <path d="M17.34,62.18 C26.67,28.09 61.92,8.00 96.01,17.34" fill="none" stroke="currentColor" stroke-width="1.2" stroke-linecap="round" stroke-linejoin="round" />
  <path d="M44.15,13.83 C43.72,13.69 43.23,13.62 42.67,13.61" fill="currentColor" stroke="currentColor" stroke-width="1.2" stroke-linecap="round" stroke-linejoin="round" />
  <line x1="42.67" y1="13.61" x2="39.76" y2="13.61" fill="currentColor" stroke="currentColor" stroke-width="1.2" stroke-linecap="round" stroke-linejoin="round" />
  <line x1="39.76" y1="13.61" x2="39.76" y2="21.11" fill="currentColor" stroke="currentColor" stroke-width="1.2" stroke-linecap="round" stroke-linejoin="round" />
  <path d="M45.28,14.42 C44.96,14.17 44.59,13.98 44.15,13.83" fill="currentColor" stroke="currentColor" stroke-width="1.2" stroke-linecap="round" stroke-linejoin="round" />
  <path d="M46.06,15.28 C45.85,14.96 45.59,14.67 45.28,14.42" fill="currentColor" stroke="currentColor" stroke-width="1.2" stroke-linecap="round" stroke-linejoin="round" />
  <line x1="40.83" y1="14.58" x2="42.50" y2="14.58" fill="currentColor" stroke="currentColor" stroke-width="1.2" stroke-linecap="round" stroke-linejoin="round" />
  <path d="M42.50,14.58 C43.02,14.58 43.48,14.66 43.86,14.80" fill="currentColor" stroke="currentColor" stroke-width="1.2" stroke-linecap="round" stroke-linejoin="round" />
  <line x1="40.83" y1="20.15" x2="40.83" y2="14.58" fill="currentColor" stroke="currentColor" stroke-width="1.2" stroke-linecap="round" stroke-linejoin="round" />
  <path d="M43.86,14.80 C44.25,14.95 44.56,15.15 44.82,15.41" fill="currentColor" stroke="currentColor" stroke-width="1.2" stroke-linecap="round" stroke-linejoin="round" />
  <path d="M46.52,16.29 C46.42,15.94 46.26,15.60 46.06,15.28" fill="currentColor" stroke="currentColor" stroke-width="1.2" stroke-linecap="round" stroke-linejoin="round" />
  <path d="M44.82,15.41 C45.07,15.66 45.25,15.96 45.37,16.29" fill="currentColor" stroke="currentColor" stroke-width="1.2" stroke-linecap="round" stroke-linejoin="round" />
  <path d="M45.37,16.29 C45.50,16.63 45.56,16.98 45.56,17.36" fill="currentColor" stroke="currentColor" stroke-width="1.2" stroke-linecap="round" stroke-linejoin="round" />
  <path d="M46.67,17.36 C46.67,17.01 46.62,16.65 46.52,16.29" fill="currentColor" stroke="currentColor" stroke-width="1.2" stroke-linecap="round" stroke-linejoin="round" />
  <path d="M96.01,17.34 C130.10,26.67 150.19,61.92 140.85,96.01" fill="none" stroke="currentColor" stroke-width="1.2" stroke-linecap="round" stroke-linejoin="round" />
  <path d="M46.49,18.49 C46.61,18.13 46.67,17.75 46.67,17.36" fill="currentColor" stroke="currentColor" stroke-width="1.2" stroke-linecap="round" stroke-linejoin="round" />
  <path d="M45.56,17.36 C45.56,17.55 45.53,17.77 45.48,18.01" fill="currentColor" stroke="currentColor" stroke-width="1.2" stroke-linecap="round" stroke-linejoin="round" />
  <path d="M45.48,18.01 C45.42,18.25 45.33,18.49 45.20,18.74" fill="currentColor" stroke="currentColor" stroke-width="1.2" stroke-linecap="round" stroke-linejoin="round" />
  <path d="M45.98,19.51 C46.20,19.20 46.37,18.86 46.49,18.49" fill="currentColor" stroke="currentColor" stroke-width="1.2" stroke-linecap="round" stroke-linejoin="round" />
  <path d="M45.20,18.74 C45.07,18.99 44.89,19.22 44.66,19.43" fill="currentColor" stroke="currentColor" stroke-width="1.2" stroke-linecap="round" stroke-linejoin="round" />
  <path d="M44.66,19.43 C44.44,19.64 44.15,19.82 43.80,19.95" fill="currentColor" stroke="currentColor" stroke-width="1.2" stroke-linecap="round" stroke-linejoin="round" />
  <path d="M45.16,20.35 C45.48,20.11 45.75,19.83 45.98,19.51" fill="currentColor" stroke="currentColor" stroke-width="1.2" stroke-linecap="round" stroke-linejoin="round" />
  <path d="M43.80,19.95 C43.46,20.08 43.04,20.14 42.55,20.15" fill="currentColor" stroke="currentColor" stroke-width="1.2" stroke-linecap="round" stroke-linejoin="round" />
  <line x1="42.55" y1="20.15" x2="40.83" y2="20.15" fill="currentColor" stroke="currentColor" stroke-width="1.2" stroke-linecap="round" stroke-linejoin="round" />
  <path d="M44.05,20.91 C44.46,20.77 44.83,20.59 45.16,20.35" fill="currentColor" stroke="currentColor" stroke-width="1.2" stroke-linecap="round" stroke-linejoin="round" />
  <path d="M42.68,21.11 C43.18,21.11 43.63,21.04 44.05,20.91" fill="currentColor" stroke="currentColor" stroke-width="1.2" stroke-linecap="round" stroke-linejoin="round" />
  <line x1="39.76" y1="21.11" x2="42.68" y2="21.11" fill="currentColor" stroke="currentColor" stroke-width="1.2" stroke-linecap="round" stroke-linejoin="round" />
  <path d="M47.70,22.34 C47.07,22.17 46.43,22.54 46.26,23.16" fill="currentColor" stroke="currentColor" stroke-width="1.2" stroke-linecap="round" stroke-linejoin="round" />
  <path d="M48.52,23.78 C48.69,23.16 48.32,22.51 47.70,22.34" fill="currentColor" stroke="currentColor" stroke-width="1.2" stroke-linecap="round" stroke-linejoin="round" />
  <path d="M46.26,23.16 C46.09,23.79 46.45,24.43 47.08,24.60" fill="currentColor" stroke="currentColor" stroke-width="1.2" stroke-linecap="round" stroke-linejoin="round" />
  <line x1="79.09" y1="79.09" x2="47.39" y2="23.47" fill="none" stroke="currentColor" stroke-width="1.0" stroke-linecap="round" stroke-linejoin="round" />
  <polygon points="23.47,110.80 47.39,23.47 134.71,47.39 110.80,134.72" fill="none" stroke="currentColor" stroke-width="1.2" stroke-linecap="round" stroke-linejoin="round" />
  <path d="M47.08,24.60 C47.70,24.78 48.35,24.41 48.52,23.78" fill="currentColor" stroke="currentColor" stroke-width="1.2" stroke-linecap="round" stroke-linejoin="round" />
  <path d="M142.59,41.03 C142.32,40.98 142.06,40.96 141.81,40.96" fill="currentColor" stroke="currentColor" stroke-width="1.2" stroke-linecap="round" stroke-linejoin="round" />
  <path d="M141.81,40.96 C141.21,40.97 140.66,41.06 140.16,41.26" fill="currentColor" stroke="currentColor" stroke-width="1.2" stroke-linecap="round" stroke-linejoin="round" />
  <path d="M143.43,41.23 C143.13,41.14 142.85,41.07 142.59,41.03" fill="currentColor" stroke="currentColor" stroke-width="1.2" stroke-linecap="round" stroke-linejoin="round" />
  <path d="M144.38,41.58 C144.04,41.44 143.72,41.32 143.43,41.23" fill="currentColor" stroke="currentColor" stroke-width="1.2" stroke-linecap="round" stroke-linejoin="round" />
  <path d="M140.16,41.26 C139.66,41.46 139.22,41.73 138.85,42.09" fill="currentColor" stroke="currentColor" stroke-width="1.2" stroke-linecap="round" stroke-linejoin="round" />
  <line x1="144.38" y1="42.73" x2="144.38" y2="41.58" fill="currentColor" stroke="currentColor" stroke-width="1.2" stroke-linecap="round" stroke-linejoin="round" />
  <path d="M141.80,41.95 C142.23,41.95 142.65,42.01 143.07,42.14" fill="currentColor" stroke="currentColor" stroke-width="1.2" stroke-linecap="round" stroke-linejoin="round" />
  <path d="M140.60,42.17 C140.97,42.03 141.36,41.96 141.80,41.95" fill="currentColor" stroke="currentColor" stroke-width="1.2" stroke-linecap="round" stroke-linejoin="round" />
  <path d="M138.85,42.09 C138.49,42.44 138.20,42.86 138.00,43.34" fill="currentColor" stroke="currentColor" stroke-width="1.2" stroke-linecap="round" stroke-linejoin="round" />
  <path d="M143.07,42.14 C143.48,42.27 143.92,42.47 144.38,42.73" fill="currentColor" stroke="currentColor" stroke-width="1.2" stroke-linecap="round" stroke-linejoin="round" />
  <path d="M139.66,42.77 C139.92,42.51 140.24,42.31 140.60,42.17" fill="currentColor" stroke="currentColor" stroke-width="1.2" stroke-linecap="round" stroke-linejoin="round" />
  <path d="M139.03,43.68 C139.18,43.33 139.39,43.03 139.66,42.77" fill="currentColor" stroke="currentColor" stroke-width="1.2" stroke-linecap="round" stroke-linejoin="round" />
  <path d="M138.00,43.34 C137.80,43.82 137.70,44.35 137.69,44.92" fill="currentColor" stroke="currentColor" stroke-width="1.2" stroke-linecap="round" stroke-linejoin="round" />
  <path d="M138.80,44.82 C138.81,44.41 138.88,44.03 139.03,43.68" fill="currentColor" stroke="currentColor" stroke-width="1.2" stroke-linecap="round" stroke-linejoin="round" />
  <path d="M139.19,46.31 C138.94,45.88 138.81,45.39 138.80,44.82" fill="currentColor" stroke="currentColor" stroke-width="1.2" stroke-linecap="round" stroke-linejoin="round" />
  <path d="M137.69,44.92 C137.69,45.24 137.74,45.57 137.84,45.91" fill="currentColor" stroke="currentColor" stroke-width="1.2" stroke-linecap="round" stroke-linejoin="round" />
  <path d="M137.84,45.91 C137.94,46.26 138.10,46.59 138.31,46.92" fill="currentColor" stroke="currentColor" stroke-width="1.2" stroke-linecap="round" stroke-linejoin="round" />
  <path d="M135.02,46.26 C134.40,46.09 133.75,46.46 133.58,47.08" fill="currentColor" stroke="currentColor" stroke-width="1.2" stroke-linecap="round" stroke-linejoin="round" />
  <path d="M135.84,47.70 C136.02,47.07 135.65,46.43 135.02,46.26" fill="currentColor" stroke="currentColor" stroke-width="1.2" stroke-linecap="round" stroke-linejoin="round" />
  <path d="M140.25,47.31 C139.80,47.07 139.44,46.74 139.19,46.31" fill="currentColor" stroke="currentColor" stroke-width="1.2" stroke-linecap="round" stroke-linejoin="round" />
  <line x1="144.46" y1="48.00" x2="144.46" y2="46.82" fill="currentColor" stroke="currentColor" stroke-width="1.2" stroke-linecap="round" stroke-linejoin="round" />
  <path d="M144.46,46.82 C144.03,47.10 143.59,47.31 143.15,47.45" fill="currentColor" stroke="currentColor" stroke-width="1.2" stroke-linecap="round" stroke-linejoin="round" />
  <path d="M138.31,46.92 C138.51,47.24 138.78,47.54 139.10,47.80" fill="currentColor" stroke="currentColor" stroke-width="1.2" stroke-linecap="round" stroke-linejoin="round" />
  <path d="M133.58,47.08 C133.41,47.70 133.78,48.35 134.40,48.52" fill="currentColor" stroke="currentColor" stroke-width="1.2" stroke-linecap="round" stroke-linejoin="round" />
  <path d="M141.84,47.67 C141.23,47.67 140.70,47.55 140.25,47.31" fill="currentColor" stroke="currentColor" stroke-width="1.2" stroke-linecap="round" stroke-linejoin="round" />
  <path d="M143.15,47.45 C142.70,47.60 142.27,47.67 141.84,47.67" fill="currentColor" stroke="currentColor" stroke-width="1.2" stroke-linecap="round" stroke-linejoin="round" />
  <path d="M134.40,48.52 C135.03,48.69 135.67,48.32 135.84,47.70" fill="currentColor" stroke="currentColor" stroke-width="1.2" stroke-linecap="round" stroke-linejoin="round" />
  <path d="M139.10,47.80 C139.42,48.06 139.80,48.27 140.24,48.42" fill="currentColor" stroke="currentColor" stroke-width="1.2" stroke-linecap="round" stroke-linejoin="round" />
  <path d="M143.69,48.34 C143.96,48.24 144.21,48.13 144.46,48.00" fill="currentColor" stroke="currentColor" stroke-width="1.2" stroke-linecap="round" stroke-linejoin="round" />
  <path d="M142.80,48.58 C143.12,48.52 143.42,48.44 143.69,48.34" fill="currentColor" stroke="currentColor" stroke-width="1.2" stroke-linecap="round" stroke-linejoin="round" />
  <path d="M140.24,48.42 C140.68,48.58 141.18,48.66 141.74,48.66" fill="currentColor" stroke="currentColor" stroke-width="1.2" stroke-linecap="round" stroke-linejoin="round" />
  <path d="M141.74,48.66 C142.13,48.66 142.48,48.63 142.80,48.58" fill="currentColor" stroke="currentColor" stroke-width="1.2" stroke-linecap="round" stroke-linejoin="round" />
  <line x1="71.49" y1="48.66" x2="68.15" y2="48.66" fill="currentColor" stroke="currentColor" stroke-width="1.2" stroke-linecap="round" stroke-linejoin="round" />
  <line x1="68.15" y1="48.66" x2="68.15" y2="52.57" fill="currentColor" stroke="currentColor" stroke-width="1.2" stroke-linecap="round" stroke-linejoin="round" />
  <line x1="71.49" y1="49.63" x2="71.49" y2="48.66" fill="currentColor" stroke="currentColor" stroke-width="1.2" stroke-linecap="round" stroke-linejoin="round" />
  <line x1="69.13" y1="51.51" x2="69.13" y2="49.63" fill="currentColor" stroke="currentColor" stroke-width="1.2" stroke-linecap="round" stroke-linejoin="round" />
  <line x1="69.13" y1="49.63" x2="71.49" y2="49.63" fill="currentColor" stroke="currentColor" stroke-width="1.2" stroke-linecap="round" stroke-linejoin="round" />
  <path d="M79.01,51.17 C78.86,51.14 78.68,51.12 78.49,51.12" fill="currentColor" stroke="currentColor" stroke-width="1.2" stroke-linecap="round" stroke-linejoin="round" />
  <path d="M78.49,51.12 C77.99,51.13 77.56,51.24 77.20,51.45" fill="currentColor" stroke="currentColor" stroke-width="1.2" stroke-linecap="round" stroke-linejoin="round" />
  <path d="M87.48,51.37 C87.23,51.21 86.95,51.13 86.61,51.12" fill="currentColor" stroke="currentColor" stroke-width="1.2" stroke-linecap="round" stroke-linejoin="round" />
  <path d="M86.61,51.12 C86.38,51.12 86.16,51.17 85.96,51.25" fill="currentColor" stroke="currentColor" stroke-width="1.2" stroke-linecap="round" stroke-linejoin="round" />
  <path d="M84.33,51.35 C84.08,51.20 83.80,51.12 83.49,51.12" fill="currentColor" stroke="currentColor" stroke-width="1.2" stroke-linecap="round" stroke-linejoin="round" />
  <path d="M83.49,51.12 C83.26,51.12 83.02,51.18 82.78,51.31" fill="currentColor" stroke="currentColor" stroke-width="1.2" stroke-linecap="round" stroke-linejoin="round" />
  <path d="M79.47,51.28 C79.32,51.23 79.17,51.19 79.01,51.17" fill="currentColor" stroke="currentColor" stroke-width="1.2" stroke-linecap="round" stroke-linejoin="round" />
  <line x1="81.07" y1="51.22" x2="81.07" y2="56.16" fill="currentColor" stroke="currentColor" stroke-width="1.2" stroke-linecap="round" stroke-linejoin="round" />
  <line x1="82.05" y1="51.87" x2="82.05" y2="51.22" fill="currentColor" stroke="currentColor" stroke-width="1.2" stroke-linecap="round" stroke-linejoin="round" />
  <line x1="82.05" y1="51.22" x2="81.07" y2="51.22" fill="currentColor" stroke="currentColor" stroke-width="1.2" stroke-linecap="round" stroke-linejoin="round" />
  <path d="M85.96,51.25 C85.77,51.33 85.59,51.43 85.42,51.57" fill="currentColor" stroke="currentColor" stroke-width="1.2" stroke-linecap="round" stroke-linejoin="round" />
  <path d="M79.92,51.46 C79.77,51.39 79.62,51.33 79.47,51.28" fill="currentColor" stroke="currentColor" stroke-width="1.2" stroke-linecap="round" stroke-linejoin="round" />
  <path d="M82.78,51.31 C82.54,51.43 82.30,51.62 82.05,51.87" fill="currentColor" stroke="currentColor" stroke-width="1.2" stroke-linecap="round" stroke-linejoin="round" />
  <path d="M84.96,52.01 C84.79,51.72 84.58,51.50 84.33,51.35" fill="currentColor" stroke="currentColor" stroke-width="1.2" stroke-linecap="round" stroke-linejoin="round" />
  <path d="M88.05,52.04 C87.91,51.75 87.72,51.53 87.48,51.37" fill="currentColor" stroke="currentColor" stroke-width="1.2" stroke-linecap="round" stroke-linejoin="round" />
  <path d="M77.20,51.45 C76.83,51.67 76.55,51.97 76.35,52.37" fill="currentColor" stroke="currentColor" stroke-width="1.2" stroke-linecap="round" stroke-linejoin="round" />
  <line x1="79.92" y1="52.51" x2="79.92" y2="51.46" fill="currentColor" stroke="currentColor" stroke-width="1.2" stroke-linecap="round" stroke-linejoin="round" />
  <path d="M70.28,51.64 C69.94,51.53 69.56,51.49 69.13,51.51" fill="currentColor" stroke="currentColor" stroke-width="1.2" stroke-linecap="round" stroke-linejoin="round" />
  <path d="M85.42,51.57 C85.26,51.70 85.10,51.85 84.96,52.01" fill="currentColor" stroke="currentColor" stroke-width="1.2" stroke-linecap="round" stroke-linejoin="round" />
  <path d="M71.13,52.13 C70.90,51.91 70.61,51.75 70.28,51.64" fill="currentColor" stroke="currentColor" stroke-width="1.2" stroke-linecap="round" stroke-linejoin="round" />
  <path d="M82.83,52.01 C82.96,51.97 83.11,51.95 83.28,51.95" fill="currentColor" stroke="currentColor" stroke-width="1.2" stroke-linecap="round" stroke-linejoin="round" />
  <path d="M85.71,52.12 C85.90,52.00 86.08,51.95 86.25,51.95" fill="currentColor" stroke="currentColor" stroke-width="1.2" stroke-linecap="round" stroke-linejoin="round" />
  <path d="M83.28,51.95 C83.44,51.95 83.59,51.99 83.72,52.07" fill="currentColor" stroke="currentColor" stroke-width="1.2" stroke-linecap="round" stroke-linejoin="round" />
  <path d="M86.25,51.95 C86.44,51.95 86.61,51.99 86.76,52.08" fill="currentColor" stroke="currentColor" stroke-width="1.2" stroke-linecap="round" stroke-linejoin="round" />
  <path d="M82.44,52.20 C82.56,52.11 82.69,52.04 82.83,52.01" fill="currentColor" stroke="currentColor" stroke-width="1.2" stroke-linecap="round" stroke-linejoin="round" />
  <path d="M78.56,52.03 C78.70,52.02 78.84,52.04 78.98,52.07" fill="currentColor" stroke="currentColor" stroke-width="1.2" stroke-linecap="round" stroke-linejoin="round" />
  <path d="M77.77,52.24 C78.00,52.10 78.26,52.03 78.56,52.03" fill="currentColor" stroke="currentColor" stroke-width="1.2" stroke-linecap="round" stroke-linejoin="round" />
  <path d="M88.25,53.06 C88.25,52.67 88.18,52.33 88.05,52.04" fill="currentColor" stroke="currentColor" stroke-width="1.2" stroke-linecap="round" stroke-linejoin="round" />
  <path d="M83.72,52.07 C83.86,52.15 83.96,52.27 84.04,52.44" fill="currentColor" stroke="currentColor" stroke-width="1.2" stroke-linecap="round" stroke-linejoin="round" />
  <path d="M78.98,52.07 C79.12,52.10 79.26,52.15 79.42,52.22" fill="currentColor" stroke="currentColor" stroke-width="1.2" stroke-linecap="round" stroke-linejoin="round" />
  <path d="M86.76,52.08 C86.91,52.17 87.04,52.30 87.13,52.47" fill="currentColor" stroke="currentColor" stroke-width="1.2" stroke-linecap="round" stroke-linejoin="round" />
  <path d="M85.15,52.57 C85.33,52.39 85.51,52.24 85.71,52.12" fill="currentColor" stroke="currentColor" stroke-width="1.2" stroke-linecap="round" stroke-linejoin="round" />
  <path d="M71.67,52.90 C71.55,52.60 71.37,52.35 71.13,52.13" fill="currentColor" stroke="currentColor" stroke-width="1.2" stroke-linecap="round" stroke-linejoin="round" />
  <path d="M82.05,52.57 C82.18,52.42 82.31,52.29 82.44,52.20" fill="currentColor" stroke="currentColor" stroke-width="1.2" stroke-linecap="round" stroke-linejoin="round" />
  <path d="M79.42,52.22 C79.57,52.29 79.74,52.39 79.92,52.51" fill="currentColor" stroke="currentColor" stroke-width="1.2" stroke-linecap="round" stroke-linejoin="round" />
  <path d="M77.25,52.82 C77.37,52.57 77.55,52.38 77.77,52.24" fill="currentColor" stroke="currentColor" stroke-width="1.2" stroke-linecap="round" stroke-linejoin="round" />
  <path d="M76.35,52.37 C76.15,52.77 76.05,53.24 76.05,53.79" fill="currentColor" stroke="currentColor" stroke-width="1.2" stroke-linecap="round" stroke-linejoin="round" />
  <path d="M68.15,52.57 C68.57,52.47 68.94,52.44 69.26,52.47" fill="currentColor" stroke="currentColor" stroke-width="1.2" stroke-linecap="round" stroke-linejoin="round" />
  <path d="M84.04,52.44 C84.12,52.61 84.17,52.83 84.17,53.09" fill="currentColor" stroke="currentColor" stroke-width="1.2" stroke-linecap="round" stroke-linejoin="round" />
  <path d="M69.26,52.47 C69.59,52.50 69.86,52.59 70.09,52.72" fill="currentColor" stroke="currentColor" stroke-width="1.2" stroke-linecap="round" stroke-linejoin="round" />
  <path d="M87.13,52.47 C87.22,52.64 87.27,52.85 87.27,53.10" fill="currentColor" stroke="currentColor" stroke-width="1.2" stroke-linecap="round" stroke-linejoin="round" />
  <line x1="82.05" y1="56.16" x2="82.05" y2="52.57" fill="currentColor" stroke="currentColor" stroke-width="1.2" stroke-linecap="round" stroke-linejoin="round" />
  <line x1="85.15" y1="56.16" x2="85.15" y2="52.57" fill="currentColor" stroke="currentColor" stroke-width="1.2" stroke-linecap="round" stroke-linejoin="round" />
  <path d="M70.09,52.72 C70.32,52.85 70.49,53.02 70.61,53.22" fill="currentColor" stroke="currentColor" stroke-width="1.2" stroke-linecap="round" stroke-linejoin="round" />
  <path d="M77.05,53.70 C77.06,53.36 77.12,53.07 77.25,52.82" fill="currentColor" stroke="currentColor" stroke-width="1.2" stroke-linecap="round" stroke-linejoin="round" />
  <path d="M71.86,53.86 C71.86,53.51 71.80,53.19 71.67,52.90" fill="currentColor" stroke="currentColor" stroke-width="1.2" stroke-linecap="round" stroke-linejoin="round" />
  <line x1="88.25" y1="56.16" x2="88.25" y2="53.06" fill="currentColor" stroke="currentColor" stroke-width="1.2" stroke-linecap="round" stroke-linejoin="round" />
  <line x1="84.17" y1="53.09" x2="84.17" y2="56.16" fill="currentColor" stroke="currentColor" stroke-width="1.2" stroke-linecap="round" stroke-linejoin="round" />
  <line x1="87.27" y1="53.10" x2="87.27" y2="56.16" fill="currentColor" stroke="currentColor" stroke-width="1.2" stroke-linecap="round" stroke-linejoin="round" />
  <path d="M70.61,53.22 C70.73,53.42 70.78,53.64 70.79,53.89" fill="currentColor" stroke="currentColor" stroke-width="1.2" stroke-linecap="round" stroke-linejoin="round" />
  <path d="M77.26,54.58 C77.12,54.33 77.05,54.04 77.05,53.70" fill="currentColor" stroke="currentColor" stroke-width="1.2" stroke-linecap="round" stroke-linejoin="round" />
  <path d="M76.05,53.79 C76.06,54.27 76.16,54.70 76.37,55.07" fill="currentColor" stroke="currentColor" stroke-width="1.2" stroke-linecap="round" stroke-linejoin="round" />
  <path d="M71.54,55.10 C71.75,54.74 71.86,54.33 71.86,53.86" fill="currentColor" stroke="currentColor" stroke-width="1.2" stroke-linecap="round" stroke-linejoin="round" />
  <path d="M70.79,53.89 C70.78,54.13 70.71,54.36 70.57,54.56" fill="currentColor" stroke="currentColor" stroke-width="1.2" stroke-linecap="round" stroke-linejoin="round" />
  <path d="M70.57,54.56 C70.43,54.77 70.25,54.93 70.01,55.05" fill="currentColor" stroke="currentColor" stroke-width="1.2" stroke-linecap="round" stroke-linejoin="round" />
  <path d="M77.84,55.14 C77.59,55.01 77.40,54.82 77.26,54.58" fill="currentColor" stroke="currentColor" stroke-width="1.2" stroke-linecap="round" stroke-linejoin="round" />
  <path d="M68.41,55.10 C68.13,55.01 67.86,54.87 67.59,54.69" fill="currentColor" stroke="currentColor" stroke-width="1.2" stroke-linecap="round" stroke-linejoin="round" />
  <line x1="67.59" y1="54.69" x2="67.59" y2="55.80" fill="currentColor" stroke="currentColor" stroke-width="1.2" stroke-linecap="round" stroke-linejoin="round" />
  <line x1="80.03" y1="55.97" x2="80.03" y2="55.01" fill="currentColor" stroke="currentColor" stroke-width="1.2" stroke-linecap="round" stroke-linejoin="round" />
  <path d="M80.03,55.01 C79.79,55.12 79.56,55.20 79.35,55.25" fill="currentColor" stroke="currentColor" stroke-width="1.2" stroke-linecap="round" stroke-linejoin="round" />
  <path d="M70.01,55.05 C69.78,55.17 69.52,55.23 69.23,55.24" fill="currentColor" stroke="currentColor" stroke-width="1.2" stroke-linecap="round" stroke-linejoin="round" />
  <path d="M76.37,55.07 C76.59,55.44 76.88,55.73 77.25,55.94" fill="currentColor" stroke="currentColor" stroke-width="1.2" stroke-linecap="round" stroke-linejoin="round" />
  <path d="M69.23,55.24 C68.96,55.24 68.68,55.19 68.41,55.10" fill="currentColor" stroke="currentColor" stroke-width="1.2" stroke-linecap="round" stroke-linejoin="round" />
  <path d="M70.68,55.95 C71.04,55.74 71.33,55.46 71.54,55.10" fill="currentColor" stroke="currentColor" stroke-width="1.2" stroke-linecap="round" stroke-linejoin="round" />
  <path d="M78.72,55.34 C78.39,55.34 78.09,55.27 77.84,55.14" fill="currentColor" stroke="currentColor" stroke-width="1.2" stroke-linecap="round" stroke-linejoin="round" />
  <path d="M79.35,55.25 C79.14,55.31 78.93,55.34 78.72,55.34" fill="currentColor" stroke="currentColor" stroke-width="1.2" stroke-linecap="round" stroke-linejoin="round" />
  <path d="M67.59,55.80 C67.81,55.91 68.01,56.00 68.21,56.07" fill="currentColor" stroke="currentColor" stroke-width="1.2" stroke-linecap="round" stroke-linejoin="round" />
  <path d="M77.25,55.94 C77.63,56.15 78.06,56.26 78.56,56.26" fill="currentColor" stroke="currentColor" stroke-width="1.2" stroke-linecap="round" stroke-linejoin="round" />
  <path d="M69.41,56.26 C69.89,56.26 70.31,56.15 70.68,55.95" fill="currentColor" stroke="currentColor" stroke-width="1.2" stroke-linecap="round" stroke-linejoin="round" />
  <path d="M79.62,56.12 C79.78,56.07 79.92,56.03 80.03,55.97" fill="currentColor" stroke="currentColor" stroke-width="1.2" stroke-linecap="round" stroke-linejoin="round" />
  <path d="M68.21,56.07 C68.40,56.13 68.60,56.18 68.79,56.21" fill="currentColor" stroke="currentColor" stroke-width="1.2" stroke-linecap="round" stroke-linejoin="round" />
  <path d="M79.10,56.22 C79.28,56.19 79.46,56.16 79.62,56.12" fill="currentColor" stroke="currentColor" stroke-width="1.2" stroke-linecap="round" stroke-linejoin="round" />
  <line x1="81.07" y1="56.16" x2="82.05" y2="56.16" fill="currentColor" stroke="currentColor" stroke-width="1.2" stroke-linecap="round" stroke-linejoin="round" />
  <line x1="84.17" y1="56.16" x2="85.15" y2="56.16" fill="currentColor" stroke="currentColor" stroke-width="1.2" stroke-linecap="round" stroke-linejoin="round" />
  <line x1="87.27" y1="56.16" x2="88.25" y2="56.16" fill="currentColor" stroke="currentColor" stroke-width="1.2" stroke-linecap="round" stroke-linejoin="round" />
  <path d="M68.79,56.21 C68.99,56.24 69.19,56.26 69.41,56.26" fill="currentColor" stroke="currentColor" stroke-width="1.2" stroke-linecap="round" stroke-linejoin="round" />
  <path d="M78.56,56.26 C78.73,56.26 78.91,56.25 79.10,56.22" fill="currentColor" stroke="currentColor" stroke-width="1.2" stroke-linecap="round" stroke-linejoin="round" />
  <path d="M62.18,140.85 C28.09,131.51 8.00,96.27 17.34,62.18" fill="none" stroke="currentColor" stroke-width="1.2" stroke-linecap="round" stroke-linejoin="round" />
  <path d="M79.40,77.96 C78.78,77.79 78.13,78.16 77.96,78.78" fill="currentColor" stroke="currentColor" stroke-width="1.2" stroke-linecap="round" stroke-linejoin="round" />
  <path d="M80.22,79.40 C80.40,78.78 80.03,78.13 79.40,77.96" fill="currentColor" stroke="currentColor" stroke-width="1.2" stroke-linecap="round" stroke-linejoin="round" />
  <path d="M77.96,78.78 C77.79,79.41 78.16,80.05 78.78,80.22" fill="currentColor" stroke="currentColor" stroke-width="1.2" stroke-linecap="round" stroke-linejoin="round" />
  <path d="M78.78,80.22 C79.41,80.40 80.05,80.03 80.22,79.40" fill="currentColor" stroke="currentColor" stroke-width="1.2" stroke-linecap="round" stroke-linejoin="round" />
  <path d="M140.85,96.01 C131.51,130.10 96.27,150.19 62.18,140.85" fill="none" stroke="currentColor" stroke-width="1.2" stroke-linecap="round" stroke-linejoin="round" />
  <path d="M23.78,109.67 C23.16,109.50 22.51,109.86 22.34,110.49" fill="currentColor" stroke="currentColor" stroke-width="1.2" stroke-linecap="round" stroke-linejoin="round" />
  <line x1="17.93" y1="109.63" x2="17.17" y2="109.63" fill="currentColor" stroke="currentColor" stroke-width="1.2" stroke-linecap="round" stroke-linejoin="round" />
  <line x1="17.17" y1="109.63" x2="13.95" y2="117.17" fill="currentColor" stroke="currentColor" stroke-width="1.2" stroke-linecap="round" stroke-linejoin="round" />
  <line x1="21.28" y1="117.17" x2="17.93" y2="109.63" fill="currentColor" stroke="currentColor" stroke-width="1.2" stroke-linecap="round" stroke-linejoin="round" />
  <path d="M24.60,111.11 C24.77,110.48 24.40,109.84 23.78,109.67" fill="currentColor" stroke="currentColor" stroke-width="1.2" stroke-linecap="round" stroke-linejoin="round" />
  <path d="M22.34,110.49 C22.17,111.11 22.54,111.76 23.16,111.93" fill="currentColor" stroke="currentColor" stroke-width="1.2" stroke-linecap="round" stroke-linejoin="round" />
  <path d="M23.16,111.93 C23.79,112.10 24.43,111.73 24.60,111.11" fill="currentColor" stroke="currentColor" stroke-width="1.2" stroke-linecap="round" stroke-linejoin="round" />
  <line x1="17.53" y1="111.27" x2="18.74" y2="113.99" fill="currentColor" stroke="currentColor" stroke-width="1.2" stroke-linecap="round" stroke-linejoin="round" />
  <line x1="16.41" y1="113.99" x2="17.53" y2="111.27" fill="currentColor" stroke="currentColor" stroke-width="1.2" stroke-linecap="round" stroke-linejoin="round" />
  <line x1="18.74" y1="113.99" x2="16.41" y2="113.99" fill="currentColor" stroke="currentColor" stroke-width="1.2" stroke-linecap="round" stroke-linejoin="round" />
  <line x1="15.05" y1="117.17" x2="15.99" y2="114.96" fill="currentColor" stroke="currentColor" stroke-width="1.2" stroke-linecap="round" stroke-linejoin="round" />
  <line x1="15.99" y1="114.96" x2="19.18" y2="114.96" fill="currentColor" stroke="currentColor" stroke-width="1.2" stroke-linecap="round" stroke-linejoin="round" />
  <line x1="19.18" y1="114.96" x2="20.18" y2="117.17" fill="currentColor" stroke="currentColor" stroke-width="1.2" stroke-linecap="round" stroke-linejoin="round" />
  <line x1="13.95" y1="117.17" x2="15.05" y2="117.17" fill="currentColor" stroke="currentColor" stroke-width="1.2" stroke-linecap="round" stroke-linejoin="round" />
  <line x1="20.18" y1="117.17" x2="21.28" y2="117.17" fill="currentColor" stroke="currentColor" stroke-width="1.2" stroke-linecap="round" stroke-linejoin="round" />
  <path d="M111.11,133.58 C110.48,133.41 109.84,133.78 109.67,134.40" fill="currentColor" stroke="currentColor" stroke-width="1.2" stroke-linecap="round" stroke-linejoin="round" />
  <path d="M111.93,135.02 C112.10,134.40 111.73,133.75 111.11,133.58" fill="currentColor" stroke="currentColor" stroke-width="1.2" stroke-linecap="round" stroke-linejoin="round" />
  <path d="M109.67,134.40 C109.50,135.03 109.86,135.67 110.49,135.84" fill="currentColor" stroke="currentColor" stroke-width="1.2" stroke-linecap="round" stroke-linejoin="round" />
  <path d="M110.49,135.84 C111.11,136.02 111.76,135.65 111.93,135.02" fill="currentColor" stroke="currentColor" stroke-width="1.2" stroke-linecap="round" stroke-linejoin="round" />
  <path d="M116.02,135.80 C115.73,135.70 115.38,135.64 114.97,135.64" fill="currentColor" stroke="currentColor" stroke-width="1.2" stroke-linecap="round" stroke-linejoin="round" />
  <line x1="114.97" y1="135.64" x2="112.80" y2="135.64" fill="currentColor" stroke="currentColor" stroke-width="1.2" stroke-linecap="round" stroke-linejoin="round" />
  <line x1="112.80" y1="135.64" x2="112.80" y2="143.14" fill="currentColor" stroke="currentColor" stroke-width="1.2" stroke-linecap="round" stroke-linejoin="round" />
  <path d="M116.74,136.24 C116.55,136.06 116.31,135.91 116.02,135.80" fill="currentColor" stroke="currentColor" stroke-width="1.2" stroke-linecap="round" stroke-linejoin="round" />
  <path d="M117.15,136.85 C117.06,136.62 116.92,136.42 116.74,136.24" fill="currentColor" stroke="currentColor" stroke-width="1.2" stroke-linecap="round" stroke-linejoin="round" />
  <line x1="113.87" y1="136.60" x2="114.86" y2="136.60" fill="currentColor" stroke="currentColor" stroke-width="1.2" stroke-linecap="round" stroke-linejoin="round" />
  <path d="M114.86,136.60 C115.19,136.61 115.45,136.65 115.64,136.75" fill="currentColor" stroke="currentColor" stroke-width="1.2" stroke-linecap="round" stroke-linejoin="round" />
  <line x1="113.87" y1="138.85" x2="113.87" y2="136.60" fill="currentColor" stroke="currentColor" stroke-width="1.2" stroke-linecap="round" stroke-linejoin="round" />
  <path d="M115.64,136.75 C115.84,136.85 115.97,136.97 116.05,137.13" fill="currentColor" stroke="currentColor" stroke-width="1.2" stroke-linecap="round" stroke-linejoin="round" />
  <path d="M117.28,137.55 C117.29,137.31 117.24,137.08 117.15,136.85" fill="currentColor" stroke="currentColor" stroke-width="1.2" stroke-linecap="round" stroke-linejoin="round" />
  <path d="M116.05,137.13 C116.14,137.29 116.18,137.46 116.17,137.65" fill="currentColor" stroke="currentColor" stroke-width="1.2" stroke-linecap="round" stroke-linejoin="round" />
  <path d="M117.01,138.53 C117.19,138.26 117.29,137.94 117.28,137.55" fill="currentColor" stroke="currentColor" stroke-width="1.2" stroke-linecap="round" stroke-linejoin="round" />
  <path d="M116.17,137.65 C116.17,138.05 116.04,138.35 115.78,138.55" fill="currentColor" stroke="currentColor" stroke-width="1.2" stroke-linecap="round" stroke-linejoin="round" />
  <path d="M116.14,139.16 C116.53,139.00 116.82,138.79 117.01,138.53" fill="currentColor" stroke="currentColor" stroke-width="1.2" stroke-linecap="round" stroke-linejoin="round" />
  <path d="M115.78,138.55 C115.52,138.75 115.12,138.85 114.59,138.85" fill="currentColor" stroke="currentColor" stroke-width="1.2" stroke-linecap="round" stroke-linejoin="round" />
  <line x1="114.59" y1="138.85" x2="113.87" y2="138.85" fill="currentColor" stroke="currentColor" stroke-width="1.2" stroke-linecap="round" stroke-linejoin="round" />
  <line x1="116.14" y1="139.18" x2="116.14" y2="139.16" fill="currentColor" stroke="currentColor" stroke-width="1.2" stroke-linecap="round" stroke-linejoin="round" />
  <path d="M117.10,139.55 C116.84,139.37 116.51,139.25 116.14,139.18" fill="currentColor" stroke="currentColor" stroke-width="1.2" stroke-linecap="round" stroke-linejoin="round" />
  <path d="M117.72,140.23 C117.58,139.96 117.37,139.73 117.10,139.55" fill="currentColor" stroke="currentColor" stroke-width="1.2" stroke-linecap="round" stroke-linejoin="round" />
  <line x1="113.87" y1="139.82" x2="115.17" y2="139.82" fill="currentColor" stroke="currentColor" stroke-width="1.2" stroke-linecap="round" stroke-linejoin="round" />
  <path d="M115.17,139.82 C115.55,139.82 115.86,139.87 116.10,139.97" fill="currentColor" stroke="currentColor" stroke-width="1.2" stroke-linecap="round" stroke-linejoin="round" />
  <line x1="113.87" y1="142.17" x2="113.87" y2="139.82" fill="currentColor" stroke="currentColor" stroke-width="1.2" stroke-linecap="round" stroke-linejoin="round" />
  <path d="M116.10,139.97 C116.35,140.07 116.53,140.20 116.65,140.38" fill="currentColor" stroke="currentColor" stroke-width="1.2" stroke-linecap="round" stroke-linejoin="round" />
  <path d="M117.94,141.14 C117.94,140.80 117.87,140.49 117.72,140.23" fill="currentColor" stroke="currentColor" stroke-width="1.2" stroke-linecap="round" stroke-linejoin="round" />
  <path d="M116.65,140.38 C116.77,140.55 116.83,140.75 116.83,140.98" fill="currentColor" stroke="currentColor" stroke-width="1.2" stroke-linecap="round" stroke-linejoin="round" />
  <path d="M116.83,140.98 C116.84,141.17 116.79,141.36 116.70,141.54" fill="currentColor" stroke="currentColor" stroke-width="1.2" stroke-linecap="round" stroke-linejoin="round" />
  <path d="M117.80,141.84 C117.90,141.60 117.94,141.37 117.94,141.14" fill="currentColor" stroke="currentColor" stroke-width="1.2" stroke-linecap="round" stroke-linejoin="round" />
  <path d="M116.70,141.54 C116.60,141.72 116.44,141.87 116.20,141.99" fill="currentColor" stroke="currentColor" stroke-width="1.2" stroke-linecap="round" stroke-linejoin="round" />
  <path d="M117.36,142.48 C117.56,142.29 117.71,142.07 117.80,141.84" fill="currentColor" stroke="currentColor" stroke-width="1.2" stroke-linecap="round" stroke-linejoin="round" />
  <path d="M116.20,141.99 C115.97,142.11 115.64,142.17 115.22,142.17" fill="currentColor" stroke="currentColor" stroke-width="1.2" stroke-linecap="round" stroke-linejoin="round" />
  <line x1="115.22" y1="142.17" x2="113.87" y2="142.17" fill="currentColor" stroke="currentColor" stroke-width="1.2" stroke-linecap="round" stroke-linejoin="round" />
  <path d="M116.56,142.95 C116.89,142.84 117.16,142.68 117.36,142.48" fill="currentColor" stroke="currentColor" stroke-width="1.2" stroke-linecap="round" stroke-linejoin="round" />
  <path d="M115.37,143.14 C115.84,143.13 116.24,143.07 116.56,142.95" fill="currentColor" stroke="currentColor" stroke-width="1.2" stroke-linecap="round" stroke-linejoin="round" />
  <line x1="112.80" y1="143.14" x2="115.37" y2="143.14" fill="currentColor" stroke="currentColor" stroke-width="1.2" stroke-linecap="round" stroke-linejoin="round" />
</svg>