<svg xmlns="http://www.w3.org/2000/svg" viewBox="0 0 212.64 127.49" preserveAspectRatio="xMidYMid meet" shape-rendering="geometricPrecision" text-rendering="optimizeLegibility">
  <path d="M84.14,8.25 C84.51,8.08 84.92,8.00 85.38,8.00" fill="currentColor" stroke="currentColor" stroke-width="1.2" stroke-linecap="round" stroke-linejoin="round" />
  <path d="M85.38,8.00 C85.58,8.00 85.78,8.02 85.96,8.06" fill="currentColor" stroke="currentColor" stroke-width="1.2" stroke-linecap="round" stroke-linejoin="round" />
  <path d="M85.96,8.06 C86.15,8.09 86.33,8.14 86.49,8.20" fill="currentColor" stroke="currentColor" stroke-width="1.2" stroke-linecap="round" stroke-linejoin="round" />
  <path d="M86.49,8.20 C86.65,8.26 86.80,8.32 86.92,8.40" fill="currentColor" stroke="currentColor" stroke-width="1.2" stroke-linecap="round" stroke-linejoin="round" />
  <path d="M83.17,8.96 C83.44,8.65 83.76,8.41 84.14,8.25" fill="currentColor" stroke="currentColor" stroke-width="1.2" stroke-linecap="round" stroke-linejoin="round" />
  <path d="M86.92,8.40 C87.05,8.47 87.13,8.54 87.18,8.58" fill="currentColor" stroke="currentColor" stroke-width="1.2" stroke-linecap="round" stroke-linejoin="round" />
  <path d="M87.18,8.58 C87.23,8.63 87.26,8.67 87.28,8.69" fill="currentColor" stroke="currentColor" stroke-width="1.2" stroke-linecap="round" stroke-linejoin="round" />
  <path d="M87.28,8.69 C87.29,8.72 87.30,8.75 87.31,8.78" fill="currentColor" stroke="currentColor" stroke-width="1.2" stroke-linecap="round" stroke-linejoin="round" />
  <path d="M87.31,8.78 C87.32,8.82 87.33,8.86 87.33,8.90" fill="currentColor" stroke="currentColor" stroke-width="1.2" stroke-linecap="round" stroke-linejoin="round" />
  <path d="M86.10,8.91 C85.90,8.84 85.66,8.81 85.37,8.81" fill="currentColor" stroke="currentColor" stroke-width="1.2" stroke-linecap="round" stroke-linejoin="round" />
  <path d="M85.37,8.81 C85.07,8.81 84.79,8.87 84.53,8.99" fill="currentColor" stroke="currentColor" stroke-width="1.2" stroke-linecap="round" stroke-linejoin="round" />
  <path d="M87.33,8.90 C87.34,8.95 87.34,9.00 87.34,9.07" fill="currentColor" stroke="currentColor" stroke-width="1.2" stroke-linecap="round" stroke-linejoin="round" />
  <path d="M86.62,9.14 C86.48,9.06 86.30,8.98 86.10,8.91" fill="currentColor" stroke="currentColor" stroke-width="1.2" stroke-linecap="round" stroke-linejoin="round" />
  <path d="M82.55,10.11 C82.69,9.66 82.90,9.28 83.17,8.96" fill="currentColor" stroke="currentColor" stroke-width="1.2" stroke-linecap="round" stroke-linejoin="round" />
  <path d="M84.53,8.99 C84.28,9.11 84.07,9.30 83.89,9.54" fill="currentColor" stroke="currentColor" stroke-width="1.2" stroke-linecap="round" stroke-linejoin="round" />
  <path d="M87.34,9.07 C87.34,9.14 87.34,9.20 87.33,9.25" fill="currentColor" stroke="currentColor" stroke-width="1.2" stroke-linecap="round" stroke-linejoin="round" />
  <path d="M86.96,9.37 C86.87,9.30 86.76,9.23 86.62,9.14" fill="currentColor" stroke="currentColor" stroke-width="1.2" stroke-linecap="round" stroke-linejoin="round" />
  <path d="M87.33,9.25 C87.32,9.30 87.31,9.34 87.30,9.38" fill="currentColor" stroke="currentColor" stroke-width="1.2" stroke-linecap="round" stroke-linejoin="round" />
  <path d="M87.17,9.48 C87.12,9.48 87.05,9.44 86.96,9.37" fill="currentColor" stroke="currentColor" stroke-width="1.2" stroke-linecap="round" stroke-linejoin="round" />
  <path d="M87.30,9.38 C87.28,9.41 87.27,9.44 87.25,9.45" fill="currentColor" stroke="currentColor" stroke-width="1.2" stroke-linecap="round" stroke-linejoin="round" />
  <path d="M87.25,9.45 C87.23,9.47 87.20,9.48 87.17,9.48" fill="currentColor" stroke="currentColor" stroke-width="1.2" stroke-linecap="round" stroke-linejoin="round" />
  <path d="M83.89,9.54 C83.71,9.78 83.57,10.07 83.47,10.41" fill="currentColor" stroke="currentColor" stroke-width="1.2" stroke-linecap="round" stroke-linejoin="round" />
  <path d="M82.32,11.65 C82.32,11.08 82.40,10.56 82.55,10.11" fill="currentColor" stroke="currentColor" stroke-width="1.2" stroke-linecap="round" stroke-linejoin="round" />
  <path d="M83.47,10.41 C83.37,10.76 83.32,11.15 83.32,11.60" fill="currentColor" stroke="currentColor" stroke-width="1.2" stroke-linecap="round" stroke-linejoin="round" />
  <path d="M83.32,11.60 C83.32,12.04 83.37,12.43 83.46,12.77" fill="currentColor" stroke="currentColor" stroke-width="1.2" stroke-linecap="round" stroke-linejoin="round" />
  <path d="M82.53,13.14 C82.39,12.71 82.32,12.21 82.32,11.65" fill="currentColor" stroke="currentColor" stroke-width="1.2" stroke-linecap="round" stroke-linejoin="round" />
  <path d="M83.46,12.77 C83.56,13.11 83.69,13.39 83.87,13.61" fill="currentColor" stroke="currentColor" stroke-width="1.2" stroke-linecap="round" stroke-linejoin="round" />
  <path d="M83.12,14.23 C82.86,13.94 82.67,13.57 82.53,13.14" fill="currentColor" stroke="currentColor" stroke-width="1.2" stroke-linecap="round" stroke-linejoin="round" />
  <path d="M83.87,13.61 C84.05,13.84 84.27,14.01 84.53,14.13" fill="currentColor" stroke="currentColor" stroke-width="1.2" stroke-linecap="round" stroke-linejoin="round" />
  <path d="M87.01,13.75 C87.10,13.68 87.17,13.65 87.23,13.65" fill="currentColor" stroke="currentColor" stroke-width="1.2" stroke-linecap="round" stroke-linejoin="round" />
  <path d="M87.23,13.65 C87.25,13.65 87.27,13.65 87.29,13.66" fill="currentColor" stroke="currentColor" stroke-width="1.2" stroke-linecap="round" stroke-linejoin="round" />
  <path d="M87.29,13.66 C87.31,13.67 87.32,13.69 87.33,13.72" fill="currentColor" stroke="currentColor" stroke-width="1.2" stroke-linecap="round" stroke-linejoin="round" />
  <path d="M87.33,13.72 C87.35,13.75 87.35,13.79 87.36,13.85" fill="currentColor" stroke="currentColor" stroke-width="1.2" stroke-linecap="round" stroke-linejoin="round" />
  <path d="M86.65,13.97 C86.79,13.89 86.91,13.82 87.01,13.75" fill="currentColor" stroke="currentColor" stroke-width="1.2" stroke-linecap="round" stroke-linejoin="round" />
  <path d="M87.36,13.85 C87.36,13.90 87.37,13.97 87.37,14.05" fill="currentColor" stroke="currentColor" stroke-width="1.2" stroke-linecap="round" stroke-linejoin="round" />
  <path d="M86.12,14.20 C86.33,14.14 86.50,14.06 86.65,13.97" fill="currentColor" stroke="currentColor" stroke-width="1.2" stroke-linecap="round" stroke-linejoin="round" />
  <path d="M87.37,14.05 C87.37,14.11 87.36,14.16 87.36,14.20" fill="currentColor" stroke="currentColor" stroke-width="1.2" stroke-linecap="round" stroke-linejoin="round" />
  <path d="M84.53,14.13 C84.78,14.25 85.08,14.31 85.40,14.31" fill="currentColor" stroke="currentColor" stroke-width="1.2" stroke-linecap="round" stroke-linejoin="round" />
  <path d="M87.36,14.20 C87.36,14.25 87.35,14.28 87.34,14.32" fill="currentColor" stroke="currentColor" stroke-width="1.2" stroke-linecap="round" stroke-linejoin="round" />
  <path d="M85.40,14.31 C85.68,14.31 85.92,14.27 86.12,14.20" fill="currentColor" stroke="currentColor" stroke-width="1.2" stroke-linecap="round" stroke-linejoin="round" />
  <path d="M84.05,14.90 C83.69,14.75 83.38,14.52 83.12,14.23" fill="currentColor" stroke="currentColor" stroke-width="1.2" stroke-linecap="round" stroke-linejoin="round" />
  <path d="M87.34,14.32 C87.33,14.35 87.32,14.38 87.31,14.40" fill="currentColor" stroke="currentColor" stroke-width="1.2" stroke-linecap="round" stroke-linejoin="round" />
  <path d="M87.31,14.40 C87.29,14.43 87.27,14.46 87.23,14.49" fill="currentColor" stroke="currentColor" stroke-width="1.2" stroke-linecap="round" stroke-linejoin="round" />
  <path d="M87.23,14.49 C87.20,14.53 87.12,14.58 87.01,14.66" fill="currentColor" stroke="currentColor" stroke-width="1.2" stroke-linecap="round" stroke-linejoin="round" />
  <path d="M87.01,14.66 C86.89,14.73 86.75,14.80 86.58,14.87" fill="currentColor" stroke="currentColor" stroke-width="1.2" stroke-linecap="round" stroke-linejoin="round" />
  <path d="M86.58,14.87 C86.41,14.94 86.21,15.00 85.99,15.05" fill="currentColor" stroke="currentColor" stroke-width="1.2" stroke-linecap="round" stroke-linejoin="round" />
  <path d="M85.27,15.12 C84.82,15.12 84.41,15.05 84.05,14.90" fill="currentColor" stroke="currentColor" stroke-width="1.2" stroke-linecap="round" stroke-linejoin="round" />
  <path d="M85.99,15.05 C85.77,15.10 85.53,15.12 85.27,15.12" fill="currentColor" stroke="currentColor" stroke-width="1.2" stroke-linecap="round" stroke-linejoin="round" />
  <line x1="86.27" y1="19.81" x2="15.70" y2="106.62" fill="none" stroke="currentColor" stroke-width="1.4000000476837158" stroke-linecap="round" stroke-linejoin="round" />
  <line x1="155.72" y1="106.62" x2="86.27" y2="19.81" fill="none" stroke="currentColor" stroke-width="1.4000000476837158" stroke-linecap="round" stroke-linejoin="round" />
  <path d="M86.27,34.60 C82.74,34.60 79.50,33.36 76.95,31.30" fill="none" stroke="currentColor" stroke-width="1.000000011920929" stroke-linecap="round" stroke-linejoin="round" />
  <path d="M95.45,31.40 C92.93,33.41 89.74,34.60 86.27,34.60" fill="none" stroke="currentColor" stroke-width="1.000000011920929" stroke-linecap="round" stroke-linejoin="round" />
  <path d="M84.49,37.66 C84.52,37.64 84.55,37.64 84.58,37.64" fill="currentColor" stroke="currentColor" stroke-width="1.2" stroke-linecap="round" stroke-linejoin="round" />
  <line x1="84.58" y1="37.64" x2="87.37" y2="37.64" fill="currentColor" stroke="currentColor" stroke-width="1.2" stroke-linecap="round" stroke-linejoin="round" />
  <path d="M87.37,37.64 C87.44,37.64 87.48,37.65 87.51,37.68" fill="currentColor" stroke="currentColor" stroke-width="1.2" stroke-linecap="round" stroke-linejoin="round" />
  <path d="M84.42,37.74 C84.44,37.70 84.46,37.68 84.49,37.66" fill="currentColor" stroke="currentColor" stroke-width="1.2" stroke-linecap="round" stroke-linejoin="round" />
  <path d="M87.51,37.68 C87.54,37.72 87.55,37.76 87.55,37.82" fill="currentColor" stroke="currentColor" stroke-width="1.2" stroke-linecap="round" stroke-linejoin="round" />
  <path d="M84.36,37.84 C84.38,37.80 84.40,37.77 84.42,37.74" fill="currentColor" stroke="currentColor" stroke-width="1.2" stroke-linecap="round" stroke-linejoin="round" />
  <path d="M87.55,37.82 C87.55,37.84 87.55,37.86 87.55,37.90" fill="currentColor" stroke="currentColor" stroke-width="1.2" stroke-linecap="round" stroke-linejoin="round" />
  <path d="M84.33,37.97 C84.33,37.92 84.35,37.88 84.36,37.84" fill="currentColor" stroke="currentColor" stroke-width="1.2" stroke-linecap="round" stroke-linejoin="round" />
  <path d="M87.55,37.90 C87.54,37.93 87.54,37.97 87.53,38.00" fill="currentColor" stroke="currentColor" stroke-width="1.2" stroke-linecap="round" stroke-linejoin="round" />
  <path d="M84.30,38.09 C84.31,38.05 84.32,38.01 84.33,37.97" fill="currentColor" stroke="currentColor" stroke-width="1.2" stroke-linecap="round" stroke-linejoin="round" />
  <path d="M87.53,38.00 C87.52,38.04 87.51,38.08 87.51,38.12" fill="currentColor" stroke="currentColor" stroke-width="1.2" stroke-linecap="round" stroke-linejoin="round" />
  <path d="M84.30,38.19 C84.30,38.16 84.30,38.13 84.30,38.09" fill="currentColor" stroke="currentColor" stroke-width="1.2" stroke-linecap="round" stroke-linejoin="round" />
  <path d="M87.51,38.12 C87.50,38.15 87.49,38.19 87.49,38.21" fill="currentColor" stroke="currentColor" stroke-width="1.2" stroke-linecap="round" stroke-linejoin="round" />
  <path d="M84.33,38.34 C84.31,38.31 84.30,38.26 84.30,38.19" fill="currentColor" stroke="currentColor" stroke-width="1.2" stroke-linecap="round" stroke-linejoin="round" />
  <path d="M87.49,38.21 C87.46,38.29 87.43,38.36 87.39,38.43" fill="currentColor" stroke="currentColor" stroke-width="1.2" stroke-linecap="round" stroke-linejoin="round" />
  <path d="M84.44,38.38 C84.39,38.38 84.35,38.37 84.33,38.34" fill="currentColor" stroke="currentColor" stroke-width="1.2" stroke-linecap="round" stroke-linejoin="round" />
  <line x1="83.70" y1="41.70" x2="86.45" y2="38.38" fill="currentColor" stroke="currentColor" stroke-width="1.2" stroke-linecap="round" stroke-linejoin="round" />
  <line x1="86.45" y1="38.38" x2="84.44" y2="38.38" fill="currentColor" stroke="currentColor" stroke-width="1.2" stroke-linecap="round" stroke-linejoin="round" />
  <path d="M87.39,38.43 C87.34,38.50 87.28,38.58 87.20,38.68" fill="currentColor" stroke="currentColor" stroke-width="1.2" stroke-linecap="round" stroke-linejoin="round" />
  <line x1="87.20" y1="38.68" x2="84.47" y2="42.00" fill="currentColor" stroke="currentColor" stroke-width="1.2" stroke-linecap="round" stroke-linejoin="round" />
  <path d="M83.59,41.85 C83.62,41.81 83.66,41.76 83.70,41.70" fill="currentColor" stroke="currentColor" stroke-width="1.2" stroke-linecap="round" stroke-linejoin="round" />
  <path d="M83.51,41.96 C83.53,41.93 83.55,41.90 83.59,41.85" fill="currentColor" stroke="currentColor" stroke-width="1.2" stroke-linecap="round" stroke-linejoin="round" />
  <path d="M83.46,42.04 C83.47,42.02 83.48,41.99 83.51,41.96" fill="currentColor" stroke="currentColor" stroke-width="1.2" stroke-linecap="round" stroke-linejoin="round" />
  <line x1="84.47" y1="42.00" x2="86.69" y2="42.00" fill="currentColor" stroke="currentColor" stroke-width="1.2" stroke-linecap="round" stroke-linejoin="round" />
  <path d="M86.69,42.00 C86.73,42.00 86.76,42.01 86.78,42.05" fill="currentColor" stroke="currentColor" stroke-width="1.2" stroke-linecap="round" stroke-linejoin="round" />
  <path d="M83.43,42.12 C83.44,42.09 83.45,42.07 83.46,42.04" fill="currentColor" stroke="currentColor" stroke-width="1.2" stroke-linecap="round" stroke-linejoin="round" />
  <path d="M86.78,42.05 C86.80,42.08 86.81,42.12 86.81,42.18" fill="currentColor" stroke="currentColor" stroke-width="1.2" stroke-linecap="round" stroke-linejoin="round" />
  <path d="M83.41,42.20 C83.42,42.17 83.42,42.14 83.43,42.12" fill="currentColor" stroke="currentColor" stroke-width="1.2" stroke-linecap="round" stroke-linejoin="round" />
  <path d="M86.81,42.18 C86.81,42.21 86.81,42.25 86.81,42.29" fill="currentColor" stroke="currentColor" stroke-width="1.2" stroke-linecap="round" stroke-linejoin="round" />
  <path d="M83.38,42.32 C83.39,42.28 83.40,42.24 83.41,42.20" fill="currentColor" stroke="currentColor" stroke-width="1.2" stroke-linecap="round" stroke-linejoin="round" />
  <path d="M86.81,42.29 C86.81,42.33 86.80,42.37 86.79,42.41" fill="currentColor" stroke="currentColor" stroke-width="1.2" stroke-linecap="round" stroke-linejoin="round" />
  <path d="M83.36,42.44 C83.37,42.40 83.38,42.36 83.38,42.32" fill="currentColor" stroke="currentColor" stroke-width="1.2" stroke-linecap="round" stroke-linejoin="round" />
  <path d="M86.79,42.41 C86.78,42.44 86.76,42.48 86.75,42.53" fill="currentColor" stroke="currentColor" stroke-width="1.2" stroke-linecap="round" stroke-linejoin="round" />
  <path d="M83.35,42.53 C83.35,42.51 83.35,42.48 83.36,42.44" fill="currentColor" stroke="currentColor" stroke-width="1.2" stroke-linecap="round" stroke-linejoin="round" />
  <path d="M86.75,42.53 C86.74,42.57 86.72,42.60 86.70,42.64" fill="currentColor" stroke="currentColor" stroke-width="1.2" stroke-linecap="round" stroke-linejoin="round" />
  <path d="M83.40,42.69 C83.37,42.65 83.35,42.60 83.35,42.53" fill="currentColor" stroke="currentColor" stroke-width="1.2" stroke-linecap="round" stroke-linejoin="round" />
  <path d="M86.70,42.64 C86.67,42.67 86.65,42.69 86.63,42.71" fill="currentColor" stroke="currentColor" stroke-width="1.2" stroke-linecap="round" stroke-linejoin="round" />
  <path d="M83.55,42.74 C83.48,42.74 83.43,42.72 83.40,42.69" fill="currentColor" stroke="currentColor" stroke-width="1.2" stroke-linecap="round" stroke-linejoin="round" />
  <path d="M86.63,42.71 C86.60,42.73 86.57,42.74 86.54,42.74" fill="currentColor" stroke="currentColor" stroke-width="1.2" stroke-linecap="round" stroke-linejoin="round" />
  <line x1="86.54" y1="42.74" x2="83.55" y2="42.74" fill="currentColor" stroke="currentColor" stroke-width="1.2" stroke-linecap="round" stroke-linejoin="round" />
  <path d="M166.27,85.65 C166.33,85.65 166.40,85.65 166.49,85.65" fill="currentColor" stroke="currentColor" stroke-width="1.2" stroke-linecap="round" stroke-linejoin="round" />
  <path d="M166.49,85.65 C166.58,85.65 166.66,85.65 166.71,85.65" fill="currentColor" stroke="currentColor" stroke-width="1.2" stroke-linecap="round" stroke-linejoin="round" />
  <path d="M169.72,85.65 C169.78,85.65 169.86,85.65 169.96,85.65" fill="currentColor" stroke="currentColor" stroke-width="1.2" stroke-linecap="round" stroke-linejoin="round" />
  <path d="M169.96,85.65 C170.12,85.65 170.23,85.66 170.28,85.68" fill="currentColor" stroke="currentColor" stroke-width="1.2" stroke-linecap="round" stroke-linejoin="round" />
  <path d="M166.13,85.69 C166.16,85.67 166.21,85.66 166.27,85.65" fill="currentColor" stroke="currentColor" stroke-width="1.2" stroke-linecap="round" stroke-linejoin="round" />
  <path d="M166.71,85.65 C166.77,85.66 166.81,85.67 166.84,85.68" fill="currentColor" stroke="currentColor" stroke-width="1.2" stroke-linecap="round" stroke-linejoin="round" />
  <path d="M169.57,85.68 C169.60,85.67 169.65,85.66 169.72,85.65" fill="currentColor" stroke="currentColor" stroke-width="1.2" stroke-linecap="round" stroke-linejoin="round" />
  <path d="M170.28,85.68 C170.34,85.70 170.36,85.73 170.36,85.78" fill="currentColor" stroke="currentColor" stroke-width="1.2" stroke-linecap="round" stroke-linejoin="round" />
  <path d="M166.84,85.68 C166.87,85.69 166.89,85.71 166.91,85.74" fill="currentColor" stroke="currentColor" stroke-width="1.2" stroke-linecap="round" stroke-linejoin="round" />
  <path d="M169.48,85.74 C169.50,85.72 169.53,85.70 169.57,85.68" fill="currentColor" stroke="currentColor" stroke-width="1.2" stroke-linecap="round" stroke-linejoin="round" />
  <path d="M166.05,85.75 C166.07,85.72 166.09,85.70 166.13,85.69" fill="currentColor" stroke="currentColor" stroke-width="1.2" stroke-linecap="round" stroke-linejoin="round" />
  <path d="M169.44,85.81 C169.45,85.78 169.46,85.76 169.48,85.74" fill="currentColor" stroke="currentColor" stroke-width="1.2" stroke-linecap="round" stroke-linejoin="round" />
  <path d="M166.91,85.74 C166.92,85.76 166.93,85.79 166.93,85.83" fill="currentColor" stroke="currentColor" stroke-width="1.2" stroke-linecap="round" stroke-linejoin="round" />
  <path d="M166.03,85.85 C166.03,85.81 166.04,85.78 166.05,85.75" fill="currentColor" stroke="currentColor" stroke-width="1.2" stroke-linecap="round" stroke-linejoin="round" />
  <path d="M170.36,85.78 C170.36,85.82 170.36,85.86 170.35,85.90" fill="currentColor" stroke="currentColor" stroke-width="1.2" stroke-linecap="round" stroke-linejoin="round" />
  <path d="M169.08,86.84 C169.21,86.50 169.33,86.16 169.44,85.81" fill="currentColor" stroke="currentColor" stroke-width="1.2" stroke-linecap="round" stroke-linejoin="round" />
  <line x1="166.93" y1="85.83" x2="167.56" y2="89.77" fill="currentColor" stroke="currentColor" stroke-width="1.2" stroke-linecap="round" stroke-linejoin="round" />
  <path d="M166.04,85.94 C166.04,85.91 166.03,85.88 166.03,85.85" fill="currentColor" stroke="currentColor" stroke-width="1.2" stroke-linecap="round" stroke-linejoin="round" />
  <path d="M170.35,85.90 C170.34,85.94 170.33,85.98 170.31,86.01" fill="currentColor" stroke="currentColor" stroke-width="1.2" stroke-linecap="round" stroke-linejoin="round" />
  <path d="M166.06,86.06 C166.05,86.02 166.04,85.98 166.04,85.94" fill="currentColor" stroke="currentColor" stroke-width="1.2" stroke-linecap="round" stroke-linejoin="round" />
  <path d="M170.31,86.01 C170.20,86.34 170.07,86.68 169.93,87.03" fill="currentColor" stroke="currentColor" stroke-width="1.2" stroke-linecap="round" stroke-linejoin="round" />
  <line x1="166.86" y1="90.78" x2="166.06" y2="86.06" fill="currentColor" stroke="currentColor" stroke-width="1.2" stroke-linecap="round" stroke-linejoin="round" />
  <path d="M168.67,87.84 C168.82,87.51 168.95,87.18 169.08,86.84" fill="currentColor" stroke="currentColor" stroke-width="1.2" stroke-linecap="round" stroke-linejoin="round" />
  <path d="M169.93,87.03 C169.79,87.38 169.63,87.75 169.44,88.14" fill="currentColor" stroke="currentColor" stroke-width="1.2" stroke-linecap="round" stroke-linejoin="round" />
  <path d="M168.17,88.82 C168.35,88.50 168.52,88.17 168.67,87.84" fill="currentColor" stroke="currentColor" stroke-width="1.2" stroke-linecap="round" stroke-linejoin="round" />
  <path d="M169.44,88.14 C169.25,88.52 169.04,88.92 168.79,89.34" fill="currentColor" stroke="currentColor" stroke-width="1.2" stroke-linecap="round" stroke-linejoin="round" />
  <path d="M167.57,89.77 C167.79,89.46 167.99,89.14 168.17,88.82" fill="currentColor" stroke="currentColor" stroke-width="1.2" stroke-linecap="round" stroke-linejoin="round" />
  <path d="M168.79,89.34 C168.54,89.76 168.24,90.20 167.90,90.66" fill="currentColor" stroke="currentColor" stroke-width="1.2" stroke-linecap="round" stroke-linejoin="round" />
  <line x1="167.56" y1="89.77" x2="167.57" y2="89.77" fill="currentColor" stroke="currentColor" stroke-width="1.2" stroke-linecap="round" stroke-linejoin="round" />
  <line x1="167.90" y1="90.66" x2="166.51" y2="92.56" fill="currentColor" stroke="currentColor" stroke-width="1.2" stroke-linecap="round" stroke-linejoin="round" />
  <line x1="165.55" y1="92.46" x2="166.86" y2="90.78" fill="currentColor" stroke="currentColor" stroke-width="1.2" stroke-linecap="round" stroke-linejoin="round" />
  <path d="M165.48,92.59 C165.48,92.56 165.51,92.51 165.55,92.46" fill="currentColor" stroke="currentColor" stroke-width="1.2" stroke-linecap="round" stroke-linejoin="round" />
  <path d="M166.51,92.56 C166.49,92.59 166.46,92.61 166.43,92.63" fill="currentColor" stroke="currentColor" stroke-width="1.2" stroke-linecap="round" stroke-linejoin="round" />
  <path d="M165.52,92.68 C165.49,92.66 165.48,92.63 165.48,92.59" fill="currentColor" stroke="currentColor" stroke-width="1.2" stroke-linecap="round" stroke-linejoin="round" />
  <path d="M166.43,92.63 C166.39,92.66 166.35,92.67 166.31,92.69" fill="currentColor" stroke="currentColor" stroke-width="1.2" stroke-linecap="round" stroke-linejoin="round" />
  <path d="M165.67,92.72 C165.60,92.71 165.56,92.70 165.52,92.68" fill="currentColor" stroke="currentColor" stroke-width="1.2" stroke-linecap="round" stroke-linejoin="round" />
  <path d="M166.31,92.69 C166.26,92.71 166.20,92.72 166.14,92.73" fill="currentColor" stroke="currentColor" stroke-width="1.2" stroke-linecap="round" stroke-linejoin="round" />
  <path d="M165.90,92.74 C165.81,92.74 165.73,92.73 165.67,92.72" fill="currentColor" stroke="currentColor" stroke-width="1.2" stroke-linecap="round" stroke-linejoin="round" />
  <path d="M166.14,92.73 C166.07,92.73 165.99,92.74 165.90,92.74" fill="currentColor" stroke="currentColor" stroke-width="1.2" stroke-linecap="round" stroke-linejoin="round" />
  <path d="M147.23,95.97 C149.56,94.11 152.51,92.99 155.72,92.99" fill="none" stroke="currentColor" stroke-width="1.000000011920929" stroke-linecap="round" stroke-linejoin="round" />
  <path d="M155.72,92.99 C163.24,92.99 169.35,99.10 169.35,106.62" fill="none" stroke="currentColor" stroke-width="1.000000011920929" stroke-linecap="round" stroke-linejoin="round" />
  <path d="M35.55,94.98 C35.61,94.97 35.70,94.97 35.81,94.97" fill="currentColor" stroke="currentColor" stroke-width="1.2" stroke-linecap="round" stroke-linejoin="round" />
  <path d="M35.81,94.97 C35.91,94.97 35.99,94.97 36.05,94.98" fill="currentColor" stroke="currentColor" stroke-width="1.2" stroke-linecap="round" stroke-linejoin="round" />
  <path d="M38.80,94.98 C38.86,94.97 38.94,94.97 39.04,94.97" fill="currentColor" stroke="currentColor" stroke-width="1.2" stroke-linecap="round" stroke-linejoin="round" />
  <path d="M39.04,94.97 C39.14,94.97 39.23,94.97 39.30,94.98" fill="currentColor" stroke="currentColor" stroke-width="1.2" stroke-linecap="round" stroke-linejoin="round" />
  <path d="M36.05,94.98 C36.11,94.98 36.15,94.99 36.18,95.00" fill="currentColor" stroke="currentColor" stroke-width="1.2" stroke-linecap="round" stroke-linejoin="round" />
  <path d="M38.66,95.00 C38.70,94.99 38.74,94.98 38.80,94.98" fill="currentColor" stroke="currentColor" stroke-width="1.2" stroke-linecap="round" stroke-linejoin="round" />
  <path d="M35.39,95.02 C35.43,95.00 35.48,94.99 35.55,94.98" fill="currentColor" stroke="currentColor" stroke-width="1.2" stroke-linecap="round" stroke-linejoin="round" />
  <path d="M39.30,94.98 C39.37,94.99 39.42,95.00 39.45,95.02" fill="currentColor" stroke="currentColor" stroke-width="1.2" stroke-linecap="round" stroke-linejoin="round" />
  <path d="M36.18,95.00 C36.21,95.01 36.23,95.03 36.25,95.04" fill="currentColor" stroke="currentColor" stroke-width="1.2" stroke-linecap="round" stroke-linejoin="round" />
  <path d="M38.56,95.05 C38.59,95.03 38.62,95.02 38.66,95.00" fill="currentColor" stroke="currentColor" stroke-width="1.2" stroke-linecap="round" stroke-linejoin="round" />
  <path d="M39.45,95.02 C39.48,95.03 39.50,95.06 39.49,95.09" fill="currentColor" stroke="currentColor" stroke-width="1.2" stroke-linecap="round" stroke-linejoin="round" />
  <path d="M35.34,95.10 C35.34,95.07 35.36,95.04 35.39,95.02" fill="currentColor" stroke="currentColor" stroke-width="1.2" stroke-linecap="round" stroke-linejoin="round" />
  <path d="M36.25,95.04 C36.26,95.06 36.27,95.08 36.28,95.11" fill="currentColor" stroke="currentColor" stroke-width="1.2" stroke-linecap="round" stroke-linejoin="round" />
  <path d="M38.50,95.11 C38.52,95.09 38.54,95.07 38.56,95.05" fill="currentColor" stroke="currentColor" stroke-width="1.2" stroke-linecap="round" stroke-linejoin="round" />
  <path d="M39.49,95.09 C39.49,95.13 39.46,95.17 39.41,95.22" fill="currentColor" stroke="currentColor" stroke-width="1.2" stroke-linecap="round" stroke-linejoin="round" />
  <path d="M35.36,95.23 C35.34,95.18 35.33,95.14 35.34,95.10" fill="currentColor" stroke="currentColor" stroke-width="1.2" stroke-linecap="round" stroke-linejoin="round" />
  <line x1="36.28" y1="95.11" x2="37.05" y2="96.91" fill="currentColor" stroke="currentColor" stroke-width="1.2" stroke-linecap="round" stroke-linejoin="round" />
  <line x1="37.05" y1="96.91" x2="38.50" y2="95.11" fill="currentColor" stroke="currentColor" stroke-width="1.2" stroke-linecap="round" stroke-linejoin="round" />
  <path d="M25.06,95.16 C28.38,97.88 30.50,102.00 30.50,106.62" fill="none" stroke="currentColor" stroke-width="1.000000011920929" stroke-linecap="round" stroke-linejoin="round" />
  <line x1="39.41" y1="95.22" x2="37.53" y2="97.50" fill="currentColor" stroke="currentColor" stroke-width="1.2" stroke-linecap="round" stroke-linejoin="round" />
  <line x1="36.36" y1="97.49" x2="35.36" y2="95.23" fill="currentColor" stroke="currentColor" stroke-width="1.2" stroke-linecap="round" stroke-linejoin="round" />
  <line x1="34.35" y1="99.87" x2="36.36" y2="97.49" fill="currentColor" stroke="currentColor" stroke-width="1.2" stroke-linecap="round" stroke-linejoin="round" />
  <line x1="37.53" y1="97.50" x2="38.58" y2="99.87" fill="currentColor" stroke="currentColor" stroke-width="1.2" stroke-linecap="round" stroke-linejoin="round" />
  <line x1="37.64" y1="99.98" x2="36.83" y2="98.08" fill="currentColor" stroke="currentColor" stroke-width="1.2" stroke-linecap="round" stroke-linejoin="round" />
  <line x1="36.83" y1="98.08" x2="35.31" y2="99.98" fill="currentColor" stroke="currentColor" stroke-width="1.2" stroke-linecap="round" stroke-linejoin="round" />
  <path d="M38.58,99.87 C38.60,99.92 38.61,99.96 38.60,99.99" fill="currentColor" stroke="currentColor" stroke-width="1.2" stroke-linecap="round" stroke-linejoin="round" />
  <path d="M34.29,100.00 C34.29,99.96 34.31,99.92 34.35,99.87" fill="currentColor" stroke="currentColor" stroke-width="1.2" stroke-linecap="round" stroke-linejoin="round" />
  <path d="M37.67,100.05 C37.66,100.03 37.65,100.01 37.64,99.98" fill="currentColor" stroke="currentColor" stroke-width="1.2" stroke-linecap="round" stroke-linejoin="round" />
  <path d="M35.31,99.98 C35.29,100.01 35.27,100.03 35.24,100.05" fill="currentColor" stroke="currentColor" stroke-width="1.2" stroke-linecap="round" stroke-linejoin="round" />
  <path d="M38.60,99.99 C38.60,100.03 38.58,100.05 38.54,100.08" fill="currentColor" stroke="currentColor" stroke-width="1.2" stroke-linecap="round" stroke-linejoin="round" />
  <path d="M34.32,100.08 C34.29,100.05 34.28,100.03 34.29,100.00" fill="currentColor" stroke="currentColor" stroke-width="1.2" stroke-linecap="round" stroke-linejoin="round" />
  <path d="M37.73,100.10 C37.70,100.09 37.68,100.07 37.67,100.05" fill="currentColor" stroke="currentColor" stroke-width="1.2" stroke-linecap="round" stroke-linejoin="round" />
  <path d="M35.24,100.05 C35.22,100.07 35.19,100.09 35.14,100.10" fill="currentColor" stroke="currentColor" stroke-width="1.2" stroke-linecap="round" stroke-linejoin="round" />
  <path d="M38.54,100.08 C38.50,100.10 38.44,100.11 38.37,100.12" fill="currentColor" stroke="currentColor" stroke-width="1.2" stroke-linecap="round" stroke-linejoin="round" />
  <path d="M34.47,100.12 C34.40,100.11 34.35,100.10 34.32,100.08" fill="currentColor" stroke="currentColor" stroke-width="1.2" stroke-linecap="round" stroke-linejoin="round" />
  <path d="M35.14,100.10 C35.10,100.11 35.05,100.12 34.98,100.12" fill="currentColor" stroke="currentColor" stroke-width="1.2" stroke-linecap="round" stroke-linejoin="round" />
  <path d="M37.87,100.13 C37.81,100.12 37.76,100.11 37.73,100.10" fill="currentColor" stroke="currentColor" stroke-width="1.2" stroke-linecap="round" stroke-linejoin="round" />
  <path d="M38.37,100.12 C38.30,100.13 38.21,100.13 38.10,100.13" fill="currentColor" stroke="currentColor" stroke-width="1.2" stroke-linecap="round" stroke-linejoin="round" />
  <path d="M34.72,100.13 C34.62,100.13 34.53,100.13 34.47,100.12" fill="currentColor" stroke="currentColor" stroke-width="1.2" stroke-linecap="round" stroke-linejoin="round" />
  <path d="M34.98,100.12 C34.91,100.13 34.83,100.13 34.72,100.13" fill="currentColor" stroke="currentColor" stroke-width="1.2" stroke-linecap="round" stroke-linejoin="round" />
  <path d="M38.10,100.13 C38.00,100.13 37.92,100.13 37.87,100.13" fill="currentColor" stroke="currentColor" stroke-width="1.2" stroke-linecap="round" stroke-linejoin="round" />
  <line x1="15.70" y1="106.62" x2="155.72" y2="106.62" fill="none" stroke="currentColor" stroke-width="1.4000000476837158" stroke-linecap="round" stroke-linejoin="round" />
  <line x1="204.64" y1="106.62" x2="15.70" y2="106.62" fill="none" stroke="currentColor" stroke-width="1.4000000476837158" stroke-linecap="round" stroke-linejoin="round" />
  <path d="M10.71,112.48 C10.78,112.48 10.87,112.47 10.97,112.47" fill="currentColor" stroke="currentColor" stroke-width="1.2" stroke-linecap="round" stroke-linejoin="round" />
  <path d="M10.97,112.47 C11.09,112.47 11.18,112.48 11.26,112.48" fill="currentColor" stroke="currentColor" stroke-width="1.2" stroke-linecap="round" stroke-linejoin="round" />
  <path d="M10.54,112.51 C10.58,112.50 10.64,112.49 10.71,112.48" fill="currentColor" stroke="currentColor" stroke-width="1.2" stroke-linecap="round" stroke-linejoin="round" />
  <path d="M11.26,112.48 C11.33,112.49 11.40,112.50 11.44,112.51" fill="currentColor" stroke="currentColor" stroke-width="1.2" stroke-linecap="round" stroke-linejoin="round" />
  <path d="M157.25,112.59 C157.32,112.53 157.40,112.50 157.49,112.50" fill="currentColor" stroke="currentColor" stroke-width="1.2" stroke-linecap="round" stroke-linejoin="round" />
  <line x1="157.49" y1="112.50" x2="159.06" y2="112.50" fill="currentColor" stroke="currentColor" stroke-width="1.2" stroke-linecap="round" stroke-linejoin="round" />
  <path d="M159.06,112.50 C159.48,112.50 159.82,112.55 160.08,112.62" fill="currentColor" stroke="currentColor" stroke-width="1.2" stroke-linecap="round" stroke-linejoin="round" />
  <path d="M10.44,112.57 C10.46,112.55 10.49,112.53 10.54,112.51" fill="currentColor" stroke="currentColor" stroke-width="1.2" stroke-linecap="round" stroke-linejoin="round" />
  <path d="M11.44,112.51 C11.49,112.53 11.52,112.55 11.55,112.57" fill="currentColor" stroke="currentColor" stroke-width="1.2" stroke-linecap="round" stroke-linejoin="round" />
  <path d="M10.38,112.67 C10.39,112.63 10.41,112.60 10.44,112.57" fill="currentColor" stroke="currentColor" stroke-width="1.2" stroke-linecap="round" stroke-linejoin="round" />
  <path d="M11.55,112.57 C11.57,112.60 11.59,112.63 11.61,112.67" fill="currentColor" stroke="currentColor" stroke-width="1.2" stroke-linecap="round" stroke-linejoin="round" />
  <path d="M157.14,112.88 C157.14,112.74 157.18,112.64 157.25,112.59" fill="currentColor" stroke="currentColor" stroke-width="1.2" stroke-linecap="round" stroke-linejoin="round" />
  <path d="M160.08,112.62 C160.35,112.70 160.57,112.82 160.75,112.97" fill="currentColor" stroke="currentColor" stroke-width="1.2" stroke-linecap="round" stroke-linejoin="round" />
  <line x1="8.05" y1="119.12" x2="10.38" y2="112.67" fill="currentColor" stroke="currentColor" stroke-width="1.2" stroke-linecap="round" stroke-linejoin="round" />
  <line x1="11.61" y1="112.67" x2="13.94" y2="119.13" fill="currentColor" stroke="currentColor" stroke-width="1.2" stroke-linecap="round" stroke-linejoin="round" />
  <line x1="157.14" y1="119.08" x2="157.14" y2="112.88" fill="currentColor" stroke="currentColor" stroke-width="1.2" stroke-linecap="round" stroke-linejoin="round" />
  <path d="M160.75,112.97 C160.93,113.12 161.06,113.30 161.15,113.52" fill="currentColor" stroke="currentColor" stroke-width="1.2" stroke-linecap="round" stroke-linejoin="round" />
  <path d="M159.65,113.33 C159.49,113.28 159.28,113.26 159.01,113.26" fill="currentColor" stroke="currentColor" stroke-width="1.2" stroke-linecap="round" stroke-linejoin="round" />
  <line x1="159.01" y1="113.26" x2="158.05" y2="113.26" fill="currentColor" stroke="currentColor" stroke-width="1.2" stroke-linecap="round" stroke-linejoin="round" />
  <line x1="158.05" y1="113.26" x2="158.05" y2="115.51" fill="currentColor" stroke="currentColor" stroke-width="1.2" stroke-linecap="round" stroke-linejoin="round" />
  <path d="M160.04,113.55 C159.94,113.45 159.81,113.38 159.65,113.33" fill="currentColor" stroke="currentColor" stroke-width="1.2" stroke-linecap="round" stroke-linejoin="round" />
  <line x1="10.95" y1="113.43" x2="10.94" y2="113.43" fill="currentColor" stroke="currentColor" stroke-width="1.2" stroke-linecap="round" stroke-linejoin="round" />
  <line x1="10.94" y1="113.43" x2="9.74" y2="116.89" fill="currentColor" stroke="currentColor" stroke-width="1.2" stroke-linecap="round" stroke-linejoin="round" />
  <line x1="12.16" y1="116.89" x2="10.95" y2="113.43" fill="currentColor" stroke="currentColor" stroke-width="1.2" stroke-linecap="round" stroke-linejoin="round" />
  <path d="M161.15,113.52 C161.24,113.74 161.28,113.99 161.28,114.26" fill="currentColor" stroke="currentColor" stroke-width="1.2" stroke-linecap="round" stroke-linejoin="round" />
  <path d="M160.26,113.90 C160.22,113.76 160.14,113.64 160.04,113.55" fill="currentColor" stroke="currentColor" stroke-width="1.2" stroke-linecap="round" stroke-linejoin="round" />
  <path d="M160.33,114.35 C160.33,114.18 160.31,114.03 160.26,113.90" fill="currentColor" stroke="currentColor" stroke-width="1.2" stroke-linecap="round" stroke-linejoin="round" />
  <path d="M161.28,114.26 C161.28,114.43 161.26,114.58 161.22,114.73" fill="currentColor" stroke="currentColor" stroke-width="1.2" stroke-linecap="round" stroke-linejoin="round" />
  <path d="M160.26,114.79 C160.31,114.65 160.33,114.50 160.33,114.35" fill="currentColor" stroke="currentColor" stroke-width="1.2" stroke-linecap="round" stroke-linejoin="round" />
  <path d="M161.22,114.73 C161.18,114.88 161.13,115.02 161.05,115.15" fill="currentColor" stroke="currentColor" stroke-width="1.2" stroke-linecap="round" stroke-linejoin="round" />
  <path d="M160.05,115.16 C160.15,115.06 160.22,114.93 160.26,114.79" fill="currentColor" stroke="currentColor" stroke-width="1.2" stroke-linecap="round" stroke-linejoin="round" />
  <path d="M161.05,115.15 C160.97,115.28 160.87,115.39 160.76,115.49" fill="currentColor" stroke="currentColor" stroke-width="1.2" stroke-linecap="round" stroke-linejoin="round" />
  <path d="M159.69,115.41 C159.83,115.35 159.96,115.27 160.05,115.16" fill="currentColor" stroke="currentColor" stroke-width="1.2" stroke-linecap="round" stroke-linejoin="round" />
  <path d="M159.11,115.51 C159.35,115.51 159.54,115.48 159.69,115.41" fill="currentColor" stroke="currentColor" stroke-width="1.2" stroke-linecap="round" stroke-linejoin="round" />
  <path d="M160.76,115.49 C160.64,115.59 160.51,115.67 160.36,115.74" fill="currentColor" stroke="currentColor" stroke-width="1.2" stroke-linecap="round" stroke-linejoin="round" />
  <line x1="158.05" y1="115.51" x2="159.11" y2="115.51" fill="currentColor" stroke="currentColor" stroke-width="1.2" stroke-linecap="round" stroke-linejoin="round" />
  <path d="M160.36,115.74 C160.55,115.77 160.73,115.84 160.89,115.93" fill="currentColor" stroke="currentColor" stroke-width="1.2" stroke-linecap="round" stroke-linejoin="round" />
  <path d="M160.89,115.93 C161.05,116.03 161.20,116.15 161.32,116.30" fill="currentColor" stroke="currentColor" stroke-width="1.2" stroke-linecap="round" stroke-linejoin="round" />
  <path d="M159.88,116.33 C159.69,116.27 159.45,116.24 159.16,116.24" fill="currentColor" stroke="currentColor" stroke-width="1.2" stroke-linecap="round" stroke-linejoin="round" />
  <line x1="159.16" y1="116.24" x2="158.05" y2="116.24" fill="currentColor" stroke="currentColor" stroke-width="1.2" stroke-linecap="round" stroke-linejoin="round" />
  <line x1="158.05" y1="116.24" x2="158.05" y2="118.69" fill="currentColor" stroke="currentColor" stroke-width="1.2" stroke-linecap="round" stroke-linejoin="round" />
  <path d="M161.32,116.30 C161.45,116.44 161.54,116.62 161.62,116.81" fill="currentColor" stroke="currentColor" stroke-width="1.2" stroke-linecap="round" stroke-linejoin="round" />
  <path d="M160.36,116.57 C160.23,116.46 160.07,116.38 159.88,116.33" fill="currentColor" stroke="currentColor" stroke-width="1.2" stroke-linecap="round" stroke-linejoin="round" />
  <path d="M160.65,116.97 C160.58,116.81 160.49,116.68 160.36,116.57" fill="currentColor" stroke="currentColor" stroke-width="1.2" stroke-linecap="round" stroke-linejoin="round" />
  <path d="M161.62,116.81 C161.69,117.01 161.72,117.23 161.72,117.46" fill="currentColor" stroke="currentColor" stroke-width="1.2" stroke-linecap="round" stroke-linejoin="round" />
  <line x1="9.74" y1="116.89" x2="12.16" y2="116.89" fill="currentColor" stroke="currentColor" stroke-width="1.2" stroke-linecap="round" stroke-linejoin="round" />
  <path d="M160.75,117.52 C160.75,117.31 160.72,117.13 160.65,116.97" fill="currentColor" stroke="currentColor" stroke-width="1.2" stroke-linecap="round" stroke-linejoin="round" />
  <path d="M161.72,117.46 C161.72,117.68 161.69,117.88 161.64,118.07" fill="currentColor" stroke="currentColor" stroke-width="1.2" stroke-linecap="round" stroke-linejoin="round" />
  <path d="M160.65,118.03 C160.72,117.88 160.75,117.71 160.75,117.52" fill="currentColor" stroke="currentColor" stroke-width="1.2" stroke-linecap="round" stroke-linejoin="round" />
  <line x1="13.00" y1="119.32" x2="12.40" y2="117.63" fill="currentColor" stroke="currentColor" stroke-width="1.2" stroke-linecap="round" stroke-linejoin="round" />
  <line x1="12.40" y1="117.63" x2="9.51" y2="117.63" fill="currentColor" stroke="currentColor" stroke-width="1.2" stroke-linecap="round" stroke-linejoin="round" />
  <line x1="9.51" y1="117.63" x2="8.94" y2="119.30" fill="currentColor" stroke="currentColor" stroke-width="1.2" stroke-linecap="round" stroke-linejoin="round" />
  <path d="M160.37,118.39 C160.49,118.30 160.58,118.17 160.65,118.03" fill="currentColor" stroke="currentColor" stroke-width="1.2" stroke-linecap="round" stroke-linejoin="round" />
  <path d="M161.64,118.07 C161.58,118.25 161.51,118.42 161.41,118.56" fill="currentColor" stroke="currentColor" stroke-width="1.2" stroke-linecap="round" stroke-linejoin="round" />
  <path d="M159.95,118.62 C160.11,118.57 160.25,118.49 160.37,118.39" fill="currentColor" stroke="currentColor" stroke-width="1.2" stroke-linecap="round" stroke-linejoin="round" />
  <path d="M161.41,118.56 C161.31,118.71 161.18,118.84 161.04,118.95" fill="currentColor" stroke="currentColor" stroke-width="1.2" stroke-linecap="round" stroke-linejoin="round" />
  <path d="M159.40,118.69 C159.61,118.69 159.79,118.67 159.95,118.62" fill="currentColor" stroke="currentColor" stroke-width="1.2" stroke-linecap="round" stroke-linejoin="round" />
  <line x1="158.05" y1="118.69" x2="159.40" y2="118.69" fill="currentColor" stroke="currentColor" stroke-width="1.2" stroke-linecap="round" stroke-linejoin="round" />
  <path d="M161.04,118.95 C160.90,119.06 160.74,119.15 160.57,119.23" fill="currentColor" stroke="currentColor" stroke-width="1.2" stroke-linecap="round" stroke-linejoin="round" />
  <path d="M157.25,119.37 C157.18,119.32 157.14,119.22 157.14,119.08" fill="currentColor" stroke="currentColor" stroke-width="1.2" stroke-linecap="round" stroke-linejoin="round" />
  <path d="M8.00,119.31 C8.00,119.26 8.02,119.20 8.05,119.12" fill="currentColor" stroke="currentColor" stroke-width="1.2" stroke-linecap="round" stroke-linejoin="round" />
  <path d="M13.94,119.13 C13.97,119.21 13.98,119.27 13.99,119.32" fill="currentColor" stroke="currentColor" stroke-width="1.2" stroke-linecap="round" stroke-linejoin="round" />
  <path d="M160.57,119.23 C160.39,119.31 160.20,119.36 160.00,119.40" fill="currentColor" stroke="currentColor" stroke-width="1.2" stroke-linecap="round" stroke-linejoin="round" />
  <path d="M8.94,119.30 C8.93,119.33 8.92,119.36 8.90,119.38" fill="currentColor" stroke="currentColor" stroke-width="1.2" stroke-linecap="round" stroke-linejoin="round" />
  <path d="M8.04,119.42 C8.01,119.40 8.00,119.36 8.00,119.31" fill="currentColor" stroke="currentColor" stroke-width="1.2" stroke-linecap="round" stroke-linejoin="round" />
  <path d="M13.99,119.32 C13.99,119.37 13.97,119.40 13.94,119.43" fill="currentColor" stroke="currentColor" stroke-width="1.2" stroke-linecap="round" stroke-linejoin="round" />
  <path d="M13.05,119.40 C13.03,119.38 13.01,119.35 13.00,119.32" fill="currentColor" stroke="currentColor" stroke-width="1.2" stroke-linecap="round" stroke-linejoin="round" />
  <path d="M157.49,119.45 C157.40,119.45 157.32,119.43 157.25,119.37" fill="currentColor" stroke="currentColor" stroke-width="1.2" stroke-linecap="round" stroke-linejoin="round" />
  <path d="M8.90,119.38 C8.88,119.41 8.86,119.43 8.82,119.44" fill="currentColor" stroke="currentColor" stroke-width="1.2" stroke-linecap="round" stroke-linejoin="round" />
  <path d="M160.00,119.40 C159.79,119.44 159.56,119.45 159.30,119.45" fill="currentColor" stroke="currentColor" stroke-width="1.2" stroke-linecap="round" stroke-linejoin="round" />
  <path d="M13.12,119.45 C13.09,119.44 13.06,119.42 13.05,119.40" fill="currentColor" stroke="currentColor" stroke-width="1.2" stroke-linecap="round" stroke-linejoin="round" />
  <path d="M8.18,119.47 C8.11,119.47 8.07,119.45 8.04,119.42" fill="currentColor" stroke="currentColor" stroke-width="1.2" stroke-linecap="round" stroke-linejoin="round" />
  <path d="M13.94,119.43 C13.92,119.45 13.87,119.47 13.80,119.48" fill="currentColor" stroke="currentColor" stroke-width="1.2" stroke-linecap="round" stroke-linejoin="round" />
  <path d="M8.82,119.44 C8.79,119.46 8.74,119.47 8.68,119.48" fill="currentColor" stroke="currentColor" stroke-width="1.2" stroke-linecap="round" stroke-linejoin="round" />
  <path d="M13.27,119.48 C13.20,119.47 13.15,119.47 13.12,119.45" fill="currentColor" stroke="currentColor" stroke-width="1.2" stroke-linecap="round" stroke-linejoin="round" />
  <line x1="159.30" y1="119.45" x2="157.49" y2="119.45" fill="currentColor" stroke="currentColor" stroke-width="1.2" stroke-linecap="round" stroke-linejoin="round" />
  <path d="M8.43,119.49 C8.33,119.49 8.25,119.48 8.18,119.47" fill="currentColor" stroke="currentColor" stroke-width="1.2" stroke-linecap="round" stroke-linejoin="round" />
  <path d="M13.80,119.48 C13.74,119.48 13.65,119.49 13.54,119.49" fill="currentColor" stroke="currentColor" stroke-width="1.2" stroke-linecap="round" stroke-linejoin="round" />
  <path d="M8.68,119.48 C8.62,119.48 8.53,119.49 8.43,119.49" fill="currentColor" stroke="currentColor" stroke-width="1.2" stroke-linecap="round" stroke-linejoin="round" />
  <path d="M13.54,119.49 C13.42,119.49 13.34,119.49 13.27,119.48" fill="currentColor" stroke="currentColor" stroke-width="1.2" stroke-linecap="round" stroke-linejoin="round" />
</svg>