<svg xmlns="http://www.w3.org/2000/svg" viewBox="0 0 249.01 46.45" preserveAspectRatio="xMidYMid meet" shape-rendering="geometricPrecision" text-rendering="optimizeLegibility">
  <line x1="22.49" y1="23.16" x2="226.59" y2="23.16" fill="none" stroke="currentColor" stroke-width="1.4000000476837158" stroke-linecap="round" stroke-linejoin="round" />
  <path d="M12.78,18.39L11.87,18.39L8.00,27.45L9.32,27.45L10.45,24.79L14.28,24.79L15.48,27.45L16.80,27.45L12.78,18.39ZM12.30,20.37L13.75,23.63L10.96,23.63L12.30,20.37Z" fill="currentColor" stroke="currentColor" stroke-width="1.2" stroke-linejoin="round" />
  <path d="M88.17,17.18L91.26,17.18C91.82,17.17 92.30,17.10 92.69,16.96C93.09,16.82 93.41,16.63 93.65,16.39C93.89,16.16 94.07,15.90 94.18,15.62C94.30,15.34 94.35,15.06 94.35,14.78C94.35,14.37 94.26,14.01 94.09,13.68C93.91,13.36 93.67,13.09 93.34,12.88C93.02,12.66 92.63,12.51 92.18,12.43L92.18,12.40C92.65,12.21 93.00,11.96 93.22,11.65C93.45,11.33 93.56,10.94 93.56,10.47C93.56,10.19 93.51,9.91 93.40,9.64C93.29,9.37 93.13,9.12 92.90,8.90C92.68,8.68 92.39,8.51 92.04,8.38C91.69,8.25 91.27,8.18 90.79,8.18L88.17,8.18L88.17,17.18ZM89.46,9.34L90.65,9.34C91.05,9.34 91.36,9.40 91.59,9.51C91.82,9.63 91.98,9.78 92.08,9.97C92.18,10.16 92.23,10.37 92.23,10.59C92.23,11.08 92.07,11.44 91.75,11.68C91.44,11.91 90.96,12.03 90.32,12.03L89.46,12.03L89.46,9.34ZM89.46,13.19L91.02,13.19C91.48,13.19 91.85,13.26 92.14,13.37C92.44,13.49 92.66,13.66 92.80,13.87C92.94,14.08 93.02,14.32 93.02,14.59C93.02,14.82 92.97,15.04 92.85,15.26C92.74,15.48 92.54,15.66 92.26,15.80C91.98,15.94 91.59,16.01 91.09,16.02L89.46,16.02L89.46,13.19Z" fill="currentColor" stroke="currentColor" stroke-width="1.2" stroke-linejoin="round" />
  <path d="M162.39,8.74C161.98,8.57 161.60,8.43 161.25,8.32C160.90,8.21 160.56,8.13 160.24,8.08C159.92,8.03 159.61,8.00 159.30,8.00C158.58,8.00 157.92,8.12 157.32,8.36C156.72,8.59 156.20,8.92 155.76,9.35C155.32,9.77 154.98,10.27 154.73,10.85C154.49,11.43 154.37,12.06 154.36,12.75C154.36,13.13 154.42,13.53 154.55,13.94C154.67,14.36 154.85,14.76 155.10,15.15C155.35,15.54 155.67,15.89 156.05,16.20C156.44,16.52 156.89,16.77 157.42,16.95C157.95,17.14 158.55,17.23 159.22,17.24C159.69,17.24 160.12,17.20 160.50,17.14C160.88,17.07 161.23,16.98 161.56,16.86C161.88,16.74 162.19,16.60 162.48,16.45L162.48,15.03C161.97,15.36 161.45,15.62 160.91,15.79C160.38,15.96 159.85,16.05 159.34,16.05C158.62,16.05 157.98,15.90 157.43,15.61C156.89,15.33 156.47,14.93 156.16,14.42C155.86,13.91 155.70,13.31 155.70,12.63C155.70,12.14 155.79,11.68 155.97,11.26C156.15,10.84 156.40,10.48 156.72,10.17C157.04,9.86 157.42,9.62 157.86,9.45C158.29,9.28 158.77,9.19 159.29,9.19C159.80,9.19 160.31,9.26 160.81,9.42C161.32,9.57 161.84,9.80 162.39,10.12L162.39,8.74Z" fill="currentColor" stroke="currentColor" stroke-width="1.2" stroke-linejoin="round" />
  <path d="M232.72,27.35L236.23,27.35C236.82,27.35 237.37,27.27 237.86,27.11C238.36,26.94 238.80,26.72 239.19,26.43C239.58,26.15 239.91,25.81 240.18,25.43C240.45,25.05 240.65,24.65 240.79,24.21C240.93,23.77 241.01,23.32 241.01,22.85C241.01,22.42 240.95,21.99 240.83,21.57C240.71,21.14 240.52,20.73 240.28,20.35C240.03,19.97 239.72,19.62 239.34,19.32C238.96,19.02 238.51,18.79 237.99,18.62C237.47,18.44 236.88,18.36 236.21,18.35L232.72,18.35L232.72,27.35ZM234.01,19.51L236.00,19.51C236.63,19.51 237.18,19.60 237.64,19.78C238.10,19.95 238.48,20.20 238.78,20.50C239.08,20.81 239.31,21.17 239.45,21.57C239.60,21.97 239.67,22.40 239.67,22.85C239.68,23.08 239.64,23.34 239.58,23.63C239.51,23.91 239.40,24.21 239.25,24.51C239.09,24.81 238.88,25.08 238.60,25.34C238.33,25.59 237.98,25.80 237.57,25.95C237.15,26.11 236.65,26.19 236.07,26.19L234.01,26.19L234.01,19.51Z" fill="currentColor" stroke="currentColor" stroke-width="1.2" stroke-linejoin="round" />
  <path d="M76.79,29.22L71.68,29.22L71.68,38.22L76.91,38.22L76.91,37.06L72.97,37.06L72.97,34.26L76.66,34.26L76.66,33.10L72.97,33.10L72.97,30.38L76.79,30.38L76.79,29.22Z" fill="currentColor" stroke="currentColor" stroke-width="1.2" stroke-linejoin="round" />
  <path d="M128.32,29.22L123.52,29.22L123.52,38.22L124.81,38.22L124.81,34.03L128.32,34.03L128.32,32.87L124.81,32.87L124.81,30.38L128.32,30.38L128.32,29.22Z" fill="currentColor" stroke="currentColor" stroke-width="1.2" stroke-linejoin="round" />
  <path d="M180.09,33.90L177.07,33.90L177.07,35.06L178.79,35.06L178.79,36.91C178.48,37.01 178.17,37.09 177.85,37.16C177.52,37.23 177.19,37.26 176.84,37.27C176.30,37.26 175.81,37.18 175.37,37.01C174.93,36.85 174.54,36.61 174.22,36.31C173.89,36.01 173.64,35.64 173.47,35.23C173.29,34.81 173.20,34.35 173.20,33.85C173.20,33.36 173.29,32.90 173.47,32.49C173.64,32.07 173.89,31.70 174.20,31.39C174.52,31.08 174.88,30.84 175.30,30.67C175.72,30.49 176.18,30.41 176.67,30.40C177.21,30.40 177.75,30.48 178.30,30.63C178.84,30.78 179.37,31.00 179.90,31.29L179.90,29.98C179.55,29.83 179.24,29.71 178.95,29.61C178.67,29.51 178.41,29.43 178.17,29.38C177.92,29.32 177.68,29.28 177.44,29.25C177.21,29.23 176.96,29.22 176.70,29.22C176.01,29.22 175.37,29.34 174.78,29.57C174.20,29.81 173.69,30.14 173.25,30.56C172.82,30.98 172.48,31.47 172.24,32.04C171.99,32.60 171.87,33.22 171.87,33.89C171.87,34.55 171.99,35.16 172.23,35.71C172.46,36.27 172.80,36.75 173.23,37.16C173.66,37.57 174.16,37.89 174.74,38.11C175.33,38.34 175.96,38.45 176.66,38.45C177.07,38.45 177.46,38.43 177.84,38.38C178.21,38.33 178.58,38.25 178.94,38.14C179.31,38.03 179.69,37.89 180.09,37.71L180.09,33.90Z" fill="currentColor" stroke="currentColor" stroke-width="1.2" stroke-linejoin="round" />
  <path d="M24.65,23.13C24.65,24.06 23.89,24.82 22.96,24.82C22.03,24.82 21.27,24.06 21.27,23.13C21.27,22.20 22.03,21.44 22.96,21.44C23.89,21.44 24.65,22.20 24.65,23.13Z" fill-rule="evenodd" fill="currentColor" stroke="currentColor" stroke-width="1.0" stroke-linejoin="round" />
  <path d="M75.37,23.13C75.37,24.06 74.62,24.82 73.68,24.82C72.75,24.82 72.00,24.06 72.00,23.13C72.00,22.20 72.75,21.44 73.68,21.44C74.62,21.44 75.37,22.20 75.37,23.13Z" fill-rule="evenodd" fill="currentColor" stroke="currentColor" stroke-width="1.0" stroke-linejoin="round" />
  <path d="M92.57,23.13C92.57,24.06 91.82,24.82 90.89,24.82C89.95,24.82 89.20,24.06 89.20,23.13C89.20,22.20 89.95,21.44 90.89,21.44C91.82,21.44 92.57,22.20 92.57,23.13Z" fill-rule="evenodd" fill="currentColor" stroke="currentColor" stroke-width="1.0" stroke-linejoin="round" />
  <path d="M126.51,23.13C126.51,24.06 125.75,24.82 124.82,24.82C123.89,24.82 123.13,24.06 123.13,23.13C123.13,22.20 123.89,21.44 124.82,21.44C125.75,21.44 126.51,22.20 126.51,23.13Z" fill-rule="evenodd" fill="currentColor" stroke="currentColor" stroke-width="1.0" stroke-linejoin="round" />
  <path d="M160.45,23.13C160.45,24.06 159.69,24.82 158.76,24.82C157.83,24.82 157.07,24.06 157.07,23.13C157.07,22.20 157.83,21.44 158.76,21.44C159.69,21.44 160.45,22.20 160.45,23.13Z" fill-rule="evenodd" fill="currentColor" stroke="currentColor" stroke-width="1.0" stroke-linejoin="round" />
  <path d="M177.37,23.13C177.37,24.06 176.62,24.82 175.68,24.82C174.75,24.82 174.00,24.06 174.00,23.13C174.00,22.20 174.75,21.44 175.68,21.44C176.62,21.44 177.37,22.20 177.37,23.13Z" fill-rule="evenodd" fill="currentColor" stroke="currentColor" stroke-width="1.0" stroke-linejoin="round" />
  <path d="M227.35,23.13C227.35,24.06 226.60,24.82 225.66,24.82C224.73,24.82 223.98,24.06 223.98,23.13C223.98,22.20 224.73,21.44 225.66,21.44C226.60,21.44 227.35,22.20 227.35,23.13Z" fill-rule="evenodd" fill="currentColor" stroke="currentColor" stroke-width="1.0" stroke-linejoin="round" />
</svg>