<svg xmlns="http://www.w3.org/2000/svg" viewBox="0 0 168.03 109.10" preserveAspectRatio="xMidYMid meet" shape-rendering="geometricPrecision" text-rendering="optimizeLegibility">
  <rect x="8.00" y="8.00" width="117.12" height="75.75" fill="none" stroke="currentColor" stroke-width="1.2" stroke-linecap="round" stroke-linejoin="round" />
  <path d="M53.25,96.02C53.25,95.03 53.38,94.11 53.64,93.27C53.90,92.42 54.30,91.65 54.83,90.94L54.25,90.94C53.92,91.27 53.62,91.63 53.36,92.02C53.10,92.42 52.88,92.83 52.69,93.27C52.50,93.71 52.36,94.17 52.26,94.63C52.16,95.09 52.12,95.56 52.11,96.02C52.12,96.48 52.16,96.95 52.26,97.41C52.36,97.87 52.50,98.33 52.69,98.77C52.88,99.21 53.10,99.62 53.36,100.02C53.62,100.41 53.92,100.77 54.25,101.10L54.83,101.10C54.30,100.39 53.90,99.62 53.64,98.78C53.38,97.93 53.25,97.01 53.25,96.02Z" fill="currentColor" stroke="currentColor" stroke-width="1.2" stroke-linejoin="round" />
  <path d="M58.58,98.57L58.58,90.97L58.17,90.97L55.61,93.06L56.02,94.00L57.45,92.82L57.45,98.57L58.58,98.57Z" fill="currentColor" stroke="currentColor" stroke-width="1.2" stroke-linejoin="round" />
  <path d="M66.28,92.09L66.28,94.24L64.14,94.24L64.14,95.14L66.28,95.14L66.28,97.28L67.19,97.28L67.19,95.14L69.33,95.14L69.33,94.24L67.19,94.24L67.19,92.09L66.28,92.09Z" fill="currentColor" stroke="currentColor" stroke-width="1.2" stroke-linejoin="round" />
  <path d="M77.91,93.63C77.81,93.60 77.70,93.58 77.56,93.55C77.43,93.53 77.29,93.51 77.14,93.50C77.00,93.49 76.86,93.48 76.74,93.48C76.26,93.48 75.84,93.54 75.47,93.67C75.10,93.79 74.79,93.95 74.52,94.17C74.26,94.38 74.04,94.62 73.88,94.90C73.71,95.17 73.59,95.46 73.51,95.77C73.43,96.08 73.39,96.40 73.39,96.71C73.39,97.08 73.47,97.41 73.61,97.70C73.75,97.99 73.94,98.23 74.19,98.40C74.43,98.58 74.71,98.67 75.02,98.67C75.25,98.67 75.49,98.60 75.71,98.48C75.94,98.36 76.15,98.19 76.35,97.98L76.37,98.00L76.28,98.57L77.22,98.57L77.91,93.63ZM76.48,97.14C76.38,97.27 76.27,97.39 76.14,97.51C76.00,97.62 75.87,97.72 75.73,97.79C75.58,97.86 75.45,97.90 75.32,97.90C75.13,97.90 74.96,97.84 74.82,97.73C74.67,97.61 74.55,97.45 74.47,97.25C74.39,97.05 74.35,96.81 74.35,96.55C74.34,96.41 74.36,96.24 74.40,96.04C74.45,95.84 74.52,95.63 74.62,95.42C74.73,95.20 74.88,95.00 75.07,94.82C75.26,94.64 75.50,94.50 75.80,94.40C76.10,94.30 76.46,94.26 76.89,94.29L76.48,97.14Z" fill="currentColor" stroke="currentColor" stroke-width="1.2" stroke-linejoin="round" />
  <path d="M79.88,96.02C79.88,97.01 79.75,97.93 79.49,98.78C79.23,99.62 78.83,100.39 78.30,101.10L78.88,101.10C79.21,100.77 79.50,100.41 79.77,100.02C80.03,99.62 80.25,99.21 80.44,98.77C80.62,98.33 80.77,97.87 80.86,97.41C80.96,96.95 81.01,96.48 81.01,96.02C81.01,95.56 80.96,95.09 80.86,94.63C80.77,94.17 80.62,93.71 80.44,93.27C80.25,92.83 80.03,92.42 79.77,92.02C79.50,91.63 79.21,91.27 78.88,90.94L78.30,90.94C78.83,91.65 79.23,92.42 79.49,93.27C79.75,94.11 79.88,95.03 79.88,96.02Z" fill="currentColor" stroke="currentColor" stroke-width="1.2" stroke-linejoin="round" />
  <path d="M133.19,45.87C133.18,44.88 133.31,43.96 133.58,43.12C133.84,42.27 134.24,41.50 134.77,40.79L134.19,40.79C133.86,41.12 133.56,41.48 133.30,41.87C133.04,42.27 132.81,42.69 132.63,43.13C132.44,43.57 132.30,44.02 132.20,44.48C132.10,44.94 132.05,45.41 132.05,45.87C132.05,46.34 132.10,46.80 132.20,47.26C132.30,47.73 132.44,48.18 132.63,48.62C132.81,49.06 133.04,49.48 133.30,49.87C133.56,50.27 133.86,50.63 134.19,50.95L134.77,50.95C134.24,50.24 133.84,49.47 133.58,48.63C133.31,47.78 133.18,46.87 133.19,45.87Z" fill="currentColor" stroke="currentColor" stroke-width="1.2" stroke-linejoin="round" />
  <path d="M139.81,43.49C139.72,43.46 139.60,43.43 139.46,43.41C139.33,43.38 139.19,43.37 139.04,43.35C138.90,43.34 138.77,43.33 138.64,43.33C138.16,43.33 137.74,43.40 137.37,43.52C137.00,43.64 136.69,43.81 136.42,44.02C136.16,44.23 135.95,44.47 135.78,44.75C135.61,45.02 135.49,45.31 135.41,45.62C135.33,45.93 135.29,46.25 135.29,46.56C135.29,46.93 135.37,47.26 135.51,47.55C135.65,47.85 135.85,48.08 136.09,48.25C136.33,48.43 136.61,48.52 136.92,48.52C137.16,48.52 137.39,48.46 137.62,48.33C137.84,48.21 138.05,48.04 138.25,47.83L138.27,47.85L138.18,48.42L139.12,48.42L139.81,43.49ZM138.38,46.99C138.28,47.12 138.17,47.25 138.04,47.36C137.91,47.48 137.77,47.57 137.63,47.64C137.49,47.71 137.35,47.75 137.23,47.75C137.03,47.75 136.86,47.69 136.72,47.58C136.57,47.46 136.46,47.30 136.37,47.10C136.29,46.90 136.25,46.67 136.25,46.40C136.25,46.26 136.27,46.10 136.31,45.90C136.35,45.69 136.42,45.49 136.53,45.27C136.63,45.05 136.78,44.86 136.97,44.67C137.16,44.49 137.41,44.35 137.70,44.25C138.00,44.15 138.36,44.11 138.79,44.15L138.38,46.99Z" fill="currentColor" stroke="currentColor" stroke-width="1.2" stroke-linejoin="round" />
  <path d="M143.02,45.29H148.72V45.99H143.02Z" fill="currentColor" stroke="currentColor" stroke-width="1.2" stroke-linejoin="round" />
  <path d="M155.29,48.42L155.29,40.82L154.88,40.82L152.32,42.91L152.74,43.85L154.17,42.67L154.17,48.42L155.29,48.42Z" fill="currentColor" stroke="currentColor" stroke-width="1.2" stroke-linejoin="round" />
  <path d="M158.89,45.87C158.90,46.87 158.76,47.78 158.50,48.63C158.24,49.47 157.84,50.24 157.31,50.95L157.89,50.95C158.22,50.63 158.52,50.27 158.78,49.87C159.04,49.48 159.27,49.06 159.45,48.62C159.64,48.18 159.78,47.73 159.88,47.26C159.98,46.80 160.03,46.34 160.03,45.87C160.03,45.41 159.98,44.94 159.88,44.48C159.78,44.02 159.64,43.57 159.45,43.13C159.27,42.69 159.04,42.27 158.78,41.87C158.52,41.48 158.22,41.12 157.89,40.79L157.31,40.79C157.84,41.50 158.24,42.27 158.50,43.12C158.76,43.96 158.90,44.88 158.89,45.87Z" fill="currentColor" stroke="currentColor" stroke-width="1.2" stroke-linejoin="round" />
  <path d="M63.66,42.12L63.66,49.62L64.74,49.62L64.74,46.37L65.19,46.37C65.33,46.36 65.46,46.38 65.59,46.42C65.73,46.46 65.87,46.53 66.02,46.65C66.17,46.76 66.34,46.93 66.53,47.16C66.72,47.39 66.94,47.70 67.18,48.08L68.17,49.62L69.46,49.62C69.33,49.45 69.22,49.29 69.13,49.16C69.03,49.03 68.95,48.91 68.87,48.81C68.80,48.70 68.73,48.59 68.66,48.49C68.59,48.38 68.51,48.27 68.44,48.14C68.25,47.83 68.07,47.54 67.90,47.28C67.73,47.03 67.56,46.79 67.37,46.59C67.19,46.39 66.99,46.21 66.76,46.06C67.17,45.90 67.48,45.66 67.69,45.35C67.91,45.03 68.02,44.66 68.02,44.22C68.02,43.79 67.92,43.42 67.72,43.10C67.52,42.79 67.24,42.55 66.87,42.38C66.50,42.21 66.06,42.13 65.55,42.12L63.66,42.12ZM64.74,43.05L65.43,43.05C65.78,43.05 66.06,43.09 66.28,43.18C66.49,43.27 66.65,43.40 66.75,43.57C66.85,43.74 66.91,43.94 66.91,44.18C66.91,44.39 66.87,44.59 66.79,44.77C66.70,44.96 66.55,45.11 66.33,45.22C66.11,45.34 65.82,45.40 65.43,45.40L64.74,45.40L64.74,43.05Z" fill="currentColor" stroke="currentColor" stroke-width="1.2" stroke-linejoin="round" />
</svg>