<svg xmlns="http://www.w3.org/2000/svg" viewBox="0 0 197.36 80.41" preserveAspectRatio="xMidYMid meet" shape-rendering="geometricPrecision" text-rendering="optimizeLegibility">
  <polygon points="14.53,8.00 182.30,32.32 177.29,64.69 14.53,64.69" fill="none" stroke="currentColor" stroke-width="1.2" stroke-linecap="round" stroke-linejoin="round" />
  <path d="M24.35,9.85 C24.20,11.25 23.73,12.64 22.91,13.91" fill="none" stroke="currentColor" stroke-width="1.0" stroke-linecap="round" stroke-linejoin="round" />
  <line x1="97.93" y1="11.21" x2="93.71" y2="11.21" fill="currentColor" stroke="currentColor" stroke-width="1.2" stroke-linecap="round" stroke-linejoin="round" />
  <line x1="93.71" y1="11.21" x2="93.60" y2="12.04" fill="currentColor" stroke="currentColor" stroke-width="1.2" stroke-linecap="round" stroke-linejoin="round" />
  <line x1="94.65" y1="15.33" x2="97.93" y2="11.21" fill="currentColor" stroke="currentColor" stroke-width="1.2" stroke-linecap="round" stroke-linejoin="round" />
  <line x1="93.60" y1="12.04" x2="96.09" y2="12.04" fill="currentColor" stroke="currentColor" stroke-width="1.2" stroke-linecap="round" stroke-linejoin="round" />
  <line x1="96.09" y1="12.04" x2="92.87" y2="16.15" fill="currentColor" stroke="currentColor" stroke-width="1.2" stroke-linecap="round" stroke-linejoin="round" />
  <path d="M22.91,13.91 C21.09,16.75 17.99,18.28 14.85,18.25" fill="none" stroke="currentColor" stroke-width="1.0" stroke-linecap="round" stroke-linejoin="round" />
  <line x1="97.35" y1="16.15" x2="97.52" y2="15.33" fill="currentColor" stroke="currentColor" stroke-width="1.2" stroke-linecap="round" stroke-linejoin="round" />
  <line x1="97.52" y1="15.33" x2="94.65" y2="15.33" fill="currentColor" stroke="currentColor" stroke-width="1.2" stroke-linecap="round" stroke-linejoin="round" />
  <line x1="92.87" y1="16.15" x2="97.35" y2="16.15" fill="currentColor" stroke="currentColor" stroke-width="1.2" stroke-linecap="round" stroke-linejoin="round" />
  <path d="M25.32,16.79 C25.18,16.77 25.05,16.77 24.92,16.77" fill="currentColor" stroke="currentColor" stroke-width="1.2" stroke-linecap="round" stroke-linejoin="round" />
  <path d="M24.92,16.77 C24.44,16.77 24.02,16.83 23.65,16.95" fill="currentColor" stroke="currentColor" stroke-width="1.2" stroke-linecap="round" stroke-linejoin="round" />
  <path d="M25.74,16.84 C25.61,16.82 25.47,16.80 25.32,16.79" fill="currentColor" stroke="currentColor" stroke-width="1.2" stroke-linecap="round" stroke-linejoin="round" />
  <path d="M26.09,16.92 C26.00,16.89 25.88,16.86 25.74,16.84" fill="currentColor" stroke="currentColor" stroke-width="1.2" stroke-linecap="round" stroke-linejoin="round" />
  <line x1="25.40" y1="21.86" x2="26.09" y2="16.92" fill="currentColor" stroke="currentColor" stroke-width="1.2" stroke-linecap="round" stroke-linejoin="round" />
  <path d="M23.65,16.95 C23.28,17.07 22.97,17.24 22.70,17.45" fill="currentColor" stroke="currentColor" stroke-width="1.2" stroke-linecap="round" stroke-linejoin="round" />
  <path d="M22.70,17.45 C22.44,17.66 22.23,17.91 22.06,18.18" fill="currentColor" stroke="currentColor" stroke-width="1.2" stroke-linecap="round" stroke-linejoin="round" />
  <path d="M23.98,17.68 C24.28,17.58 24.64,17.55 25.07,17.58" fill="currentColor" stroke="currentColor" stroke-width="1.2" stroke-linecap="round" stroke-linejoin="round" />
  <line x1="25.07" y1="17.58" x2="24.66" y2="20.43" fill="currentColor" stroke="currentColor" stroke-width="1.2" stroke-linecap="round" stroke-linejoin="round" />
  <path d="M23.25,18.11 C23.44,17.93 23.69,17.78 23.98,17.68" fill="currentColor" stroke="currentColor" stroke-width="1.2" stroke-linecap="round" stroke-linejoin="round" />
  <path d="M22.81,18.71 C22.91,18.49 23.06,18.29 23.25,18.11" fill="currentColor" stroke="currentColor" stroke-width="1.2" stroke-linecap="round" stroke-linejoin="round" />
  <path d="M22.06,18.18 C21.89,18.46 21.77,18.75 21.69,19.06" fill="currentColor" stroke="currentColor" stroke-width="1.2" stroke-linecap="round" stroke-linejoin="round" />
  <path d="M22.59,19.33 C22.63,19.13 22.70,18.92 22.81,18.71" fill="currentColor" stroke="currentColor" stroke-width="1.2" stroke-linecap="round" stroke-linejoin="round" />
  <path d="M21.69,19.06 C21.61,19.37 21.57,19.68 21.57,20.00" fill="currentColor" stroke="currentColor" stroke-width="1.2" stroke-linecap="round" stroke-linejoin="round" />
  <path d="M22.53,19.83 C22.53,19.70 22.55,19.53 22.59,19.33" fill="currentColor" stroke="currentColor" stroke-width="1.2" stroke-linecap="round" stroke-linejoin="round" />
  <path d="M22.65,20.54 C22.57,20.34 22.53,20.10 22.53,19.83" fill="currentColor" stroke="currentColor" stroke-width="1.2" stroke-linecap="round" stroke-linejoin="round" />
  <path d="M21.57,20.00 C21.57,20.36 21.65,20.69 21.79,20.99" fill="currentColor" stroke="currentColor" stroke-width="1.2" stroke-linecap="round" stroke-linejoin="round" />
  <path d="M24.66,20.43 C24.56,20.56 24.45,20.68 24.32,20.80" fill="currentColor" stroke="currentColor" stroke-width="1.2" stroke-linecap="round" stroke-linejoin="round" />
  <path d="M23.00,21.01 C22.85,20.90 22.74,20.74 22.65,20.54" fill="currentColor" stroke="currentColor" stroke-width="1.2" stroke-linecap="round" stroke-linejoin="round" />
  <path d="M24.32,20.80 C24.19,20.91 24.05,21.00 23.91,21.08" fill="currentColor" stroke="currentColor" stroke-width="1.2" stroke-linecap="round" stroke-linejoin="round" />
  <path d="M21.79,20.99 C21.93,21.28 22.13,21.51 22.37,21.69" fill="currentColor" stroke="currentColor" stroke-width="1.2" stroke-linecap="round" stroke-linejoin="round" />
  <path d="M23.51,21.19 C23.31,21.19 23.14,21.13 23.00,21.01" fill="currentColor" stroke="currentColor" stroke-width="1.2" stroke-linecap="round" stroke-linejoin="round" />
  <path d="M23.91,21.08 C23.77,21.15 23.63,21.19 23.51,21.19" fill="currentColor" stroke="currentColor" stroke-width="1.2" stroke-linecap="round" stroke-linejoin="round" />
  <path d="M23.90,21.77 C24.12,21.64 24.33,21.48 24.53,21.26" fill="currentColor" stroke="currentColor" stroke-width="1.2" stroke-linecap="round" stroke-linejoin="round" />
  <line x1="24.53" y1="21.26" x2="24.55" y2="21.29" fill="currentColor" stroke="currentColor" stroke-width="1.2" stroke-linecap="round" stroke-linejoin="round" />
  <line x1="24.55" y1="21.29" x2="24.46" y2="21.86" fill="currentColor" stroke="currentColor" stroke-width="1.2" stroke-linecap="round" stroke-linejoin="round" />
  <path d="M22.37,21.69 C22.61,21.86 22.89,21.95 23.20,21.96" fill="currentColor" stroke="currentColor" stroke-width="1.2" stroke-linecap="round" stroke-linejoin="round" />
  <path d="M23.20,21.96 C23.44,21.95 23.67,21.89 23.90,21.77" fill="currentColor" stroke="currentColor" stroke-width="1.2" stroke-linecap="round" stroke-linejoin="round" />
  <line x1="24.46" y1="21.86" x2="25.40" y2="21.86" fill="currentColor" stroke="currentColor" stroke-width="1.2" stroke-linecap="round" stroke-linejoin="round" />
  <polygon points="174.65,31.24 182.25,32.37 181.12,39.97 173.52,38.84" fill="none" stroke="currentColor" stroke-width="1.0" stroke-linecap="round" stroke-linejoin="round" />
  <line x1="12.53" y1="35.05" x2="11.55" y2="35.05" fill="currentColor" stroke="currentColor" stroke-width="1.2" stroke-linecap="round" stroke-linejoin="round" />
  <line x1="11.55" y1="35.05" x2="10.00" y2="38.45" fill="currentColor" stroke="currentColor" stroke-width="1.2" stroke-linecap="round" stroke-linejoin="round" />
  <line x1="9.98" y1="38.45" x2="9.32" y2="35.05" fill="currentColor" stroke="currentColor" stroke-width="1.2" stroke-linecap="round" stroke-linejoin="round" />
  <line x1="9.32" y1="35.05" x2="8.38" y2="35.05" fill="currentColor" stroke="currentColor" stroke-width="1.2" stroke-linecap="round" stroke-linejoin="round" />
  <line x1="8.38" y1="35.05" x2="9.34" y2="39.69" fill="currentColor" stroke="currentColor" stroke-width="1.2" stroke-linecap="round" stroke-linejoin="round" />
  <line x1="8.99" y1="42.52" x2="12.53" y2="35.05" fill="currentColor" stroke="currentColor" stroke-width="1.2" stroke-linecap="round" stroke-linejoin="round" />
  <line x1="10.00" y1="38.45" x2="9.98" y2="38.45" fill="currentColor" stroke="currentColor" stroke-width="1.2" stroke-linecap="round" stroke-linejoin="round" />
  <line x1="9.34" y1="39.69" x2="8.00" y2="42.52" fill="currentColor" stroke="currentColor" stroke-width="1.2" stroke-linecap="round" stroke-linejoin="round" />
  <line x1="8.00" y1="42.52" x2="8.99" y2="42.52" fill="currentColor" stroke="currentColor" stroke-width="1.2" stroke-linecap="round" stroke-linejoin="round" />
  <line x1="189.36" y1="47.68" x2="188.45" y2="47.68" fill="currentColor" stroke="currentColor" stroke-width="1.2" stroke-linecap="round" stroke-linejoin="round" />
  <line x1="188.45" y1="47.68" x2="186.83" y2="51.00" fill="currentColor" stroke="currentColor" stroke-width="1.2" stroke-linecap="round" stroke-linejoin="round" />
  <line x1="186.81" y1="51.00" x2="186.19" y2="47.68" fill="currentColor" stroke="currentColor" stroke-width="1.2" stroke-linecap="round" stroke-linejoin="round" />
  <line x1="186.19" y1="47.68" x2="185.73" y2="47.68" fill="currentColor" stroke="currentColor" stroke-width="1.2" stroke-linecap="round" stroke-linejoin="round" />
  <line x1="185.73" y1="47.68" x2="184.13" y2="51.00" fill="currentColor" stroke="currentColor" stroke-width="1.2" stroke-linecap="round" stroke-linejoin="round" />
  <line x1="184.10" y1="51.00" x2="183.51" y2="47.68" fill="currentColor" stroke="currentColor" stroke-width="1.2" stroke-linecap="round" stroke-linejoin="round" />
  <line x1="183.51" y1="47.68" x2="182.60" y2="47.68" fill="currentColor" stroke="currentColor" stroke-width="1.2" stroke-linecap="round" stroke-linejoin="round" />
  <line x1="182.60" y1="47.68" x2="183.62" y2="52.72" fill="currentColor" stroke="currentColor" stroke-width="1.2" stroke-linecap="round" stroke-linejoin="round" />
  <line x1="186.82" y1="52.72" x2="189.36" y2="47.68" fill="currentColor" stroke="currentColor" stroke-width="1.2" stroke-linecap="round" stroke-linejoin="round" />
  <line x1="184.05" y1="52.72" x2="185.72" y2="49.48" fill="currentColor" stroke="currentColor" stroke-width="1.2" stroke-linecap="round" stroke-linejoin="round" />
  <line x1="185.72" y1="49.48" x2="185.74" y2="49.48" fill="currentColor" stroke="currentColor" stroke-width="1.2" stroke-linecap="round" stroke-linejoin="round" />
  <line x1="185.74" y1="49.48" x2="186.38" y2="52.72" fill="currentColor" stroke="currentColor" stroke-width="1.2" stroke-linecap="round" stroke-linejoin="round" />
  <line x1="186.83" y1="51.00" x2="186.81" y2="51.00" fill="currentColor" stroke="currentColor" stroke-width="1.2" stroke-linecap="round" stroke-linejoin="round" />
  <line x1="184.13" y1="51.00" x2="184.10" y2="51.00" fill="currentColor" stroke="currentColor" stroke-width="1.2" stroke-linecap="round" stroke-linejoin="round" />
  <line x1="168.38" y1="51.50" x2="167.42" y2="51.50" fill="currentColor" stroke="currentColor" stroke-width="1.2" stroke-linecap="round" stroke-linejoin="round" />
  <line x1="167.42" y1="51.50" x2="166.40" y2="59.08" fill="currentColor" stroke="currentColor" stroke-width="1.2" stroke-linecap="round" stroke-linejoin="round" />
  <line x1="167.96" y1="54.44" x2="168.38" y2="51.50" fill="currentColor" stroke="currentColor" stroke-width="1.2" stroke-linecap="round" stroke-linejoin="round" />
  <line x1="183.62" y1="52.72" x2="184.05" y2="52.72" fill="currentColor" stroke="currentColor" stroke-width="1.2" stroke-linecap="round" stroke-linejoin="round" />
  <line x1="186.38" y1="52.72" x2="186.82" y2="52.72" fill="currentColor" stroke="currentColor" stroke-width="1.2" stroke-linecap="round" stroke-linejoin="round" />
  <path d="M169.18,53.91 C168.95,53.91 168.75,53.95 168.56,54.03" fill="currentColor" stroke="currentColor" stroke-width="1.2" stroke-linecap="round" stroke-linejoin="round" />
  <path d="M170.09,54.20 C169.83,54.01 169.53,53.91 169.18,53.91" fill="currentColor" stroke="currentColor" stroke-width="1.2" stroke-linecap="round" stroke-linejoin="round" />
  <path d="M168.56,54.03 C168.37,54.12 168.18,54.26 167.98,54.46" fill="currentColor" stroke="currentColor" stroke-width="1.2" stroke-linecap="round" stroke-linejoin="round" />
  <path d="M170.70,54.99 C170.55,54.65 170.35,54.39 170.09,54.20" fill="currentColor" stroke="currentColor" stroke-width="1.2" stroke-linecap="round" stroke-linejoin="round" />
  <line x1="167.98" y1="54.46" x2="167.96" y2="54.44" fill="currentColor" stroke="currentColor" stroke-width="1.2" stroke-linecap="round" stroke-linejoin="round" />
  <path d="M168.61,54.76 C168.72,54.74 168.82,54.72 168.90,54.72" fill="currentColor" stroke="currentColor" stroke-width="1.2" stroke-linecap="round" stroke-linejoin="round" />
  <path d="M168.90,54.72 C169.23,54.73 169.49,54.85 169.68,55.10" fill="currentColor" stroke="currentColor" stroke-width="1.2" stroke-linecap="round" stroke-linejoin="round" />
  <path d="M168.28,54.88 C168.39,54.83 168.50,54.79 168.61,54.76" fill="currentColor" stroke="currentColor" stroke-width="1.2" stroke-linecap="round" stroke-linejoin="round" />
  <path d="M167.99,55.08 C168.07,55.00 168.16,54.93 168.28,54.88" fill="currentColor" stroke="currentColor" stroke-width="1.2" stroke-linecap="round" stroke-linejoin="round" />
  <path d="M170.92,56.16 C170.91,55.72 170.84,55.33 170.70,54.99" fill="currentColor" stroke="currentColor" stroke-width="1.2" stroke-linecap="round" stroke-linejoin="round" />
  <path d="M167.84,55.35 C167.86,55.25 167.91,55.16 167.99,55.08" fill="currentColor" stroke="currentColor" stroke-width="1.2" stroke-linecap="round" stroke-linejoin="round" />
  <path d="M169.68,55.10 C169.86,55.34 169.96,55.69 169.96,56.14" fill="currentColor" stroke="currentColor" stroke-width="1.2" stroke-linecap="round" stroke-linejoin="round" />
  <line x1="167.41" y1="58.39" x2="167.84" y2="55.35" fill="currentColor" stroke="currentColor" stroke-width="1.2" stroke-linecap="round" stroke-linejoin="round" />
  <path d="M169.96,56.14 C169.96,56.59 169.88,56.98 169.72,57.32" fill="currentColor" stroke="currentColor" stroke-width="1.2" stroke-linecap="round" stroke-linejoin="round" />
  <path d="M170.82,56.98 C170.89,56.70 170.92,56.43 170.92,56.16" fill="currentColor" stroke="currentColor" stroke-width="1.2" stroke-linecap="round" stroke-linejoin="round" />
  <path d="M170.50,57.79 C170.65,57.53 170.76,57.26 170.82,56.98" fill="currentColor" stroke="currentColor" stroke-width="1.2" stroke-linecap="round" stroke-linejoin="round" />
  <rect x="14.66" y="57.00" width="7.68" height="7.68" fill="none" stroke="currentColor" stroke-width="1.0" stroke-linecap="round" stroke-linejoin="round" />
  <path d="M169.90,63.69 C170.37,59.85 173.87,57.12 177.71,57.59" fill="none" stroke="currentColor" stroke-width="1.0" stroke-linecap="round" stroke-linejoin="round" />
  <path d="M169.72,57.32 C169.57,57.65 169.33,57.91 169.03,58.10" fill="currentColor" stroke="currentColor" stroke-width="1.2" stroke-linecap="round" stroke-linejoin="round" />
  <path d="M177.71,57.59 C177.95,57.62 178.19,57.66 178.42,57.71" fill="none" stroke="currentColor" stroke-width="1.0" stroke-linecap="round" stroke-linejoin="round" />
  <path d="M169.91,58.48 C170.16,58.28 170.36,58.05 170.50,57.79" fill="currentColor" stroke="currentColor" stroke-width="1.2" stroke-linecap="round" stroke-linejoin="round" />
  <path d="M169.03,58.10 C168.73,58.29 168.36,58.38 167.93,58.39" fill="currentColor" stroke="currentColor" stroke-width="1.2" stroke-linecap="round" stroke-linejoin="round" />
  <line x1="167.93" y1="58.39" x2="167.41" y2="58.39" fill="currentColor" stroke="currentColor" stroke-width="1.2" stroke-linecap="round" stroke-linejoin="round" />
  <path d="M169.00,58.97 C169.36,58.85 169.66,58.69 169.91,58.48" fill="currentColor" stroke="currentColor" stroke-width="1.2" stroke-linecap="round" stroke-linejoin="round" />
  <path d="M167.71,59.16 C168.20,59.15 168.63,59.09 169.00,58.97" fill="currentColor" stroke="currentColor" stroke-width="1.2" stroke-linecap="round" stroke-linejoin="round" />
  <path d="M166.40,59.08 C166.50,59.09 166.62,59.11 166.76,59.12" fill="currentColor" stroke="currentColor" stroke-width="1.2" stroke-linecap="round" stroke-linejoin="round" />
  <path d="M166.76,59.12 C166.90,59.13 167.06,59.14 167.22,59.15" fill="currentColor" stroke="currentColor" stroke-width="1.2" stroke-linecap="round" stroke-linejoin="round" />
  <path d="M167.22,59.15 C167.38,59.15 167.55,59.15 167.71,59.16" fill="currentColor" stroke="currentColor" stroke-width="1.2" stroke-linecap="round" stroke-linejoin="round" />
  <path d="M169.85,64.54 C169.85,64.26 169.87,63.97 169.90,63.69" fill="none" stroke="currentColor" stroke-width="1.0" stroke-linecap="round" stroke-linejoin="round" />
  <line x1="98.01" y1="67.48" x2="96.85" y2="67.48" fill="currentColor" stroke="currentColor" stroke-width="1.2" stroke-linecap="round" stroke-linejoin="round" />
  <line x1="96.85" y1="67.48" x2="95.57" y2="69.14" fill="currentColor" stroke="currentColor" stroke-width="1.2" stroke-linecap="round" stroke-linejoin="round" />
  <line x1="95.57" y1="69.14" x2="94.78" y2="67.48" fill="currentColor" stroke="currentColor" stroke-width="1.2" stroke-linecap="round" stroke-linejoin="round" />
  <line x1="94.78" y1="67.48" x2="93.78" y2="67.48" fill="currentColor" stroke="currentColor" stroke-width="1.2" stroke-linecap="round" stroke-linejoin="round" />
  <line x1="93.78" y1="67.48" x2="94.95" y2="69.80" fill="currentColor" stroke="currentColor" stroke-width="1.2" stroke-linecap="round" stroke-linejoin="round" />
  <line x1="96.02" y1="69.92" x2="98.01" y2="67.48" fill="currentColor" stroke="currentColor" stroke-width="1.2" stroke-linecap="round" stroke-linejoin="round" />
  <line x1="94.95" y1="69.80" x2="92.79" y2="72.41" fill="currentColor" stroke="currentColor" stroke-width="1.2" stroke-linecap="round" stroke-linejoin="round" />
  <line x1="97.27" y1="72.41" x2="96.02" y2="69.92" fill="currentColor" stroke="currentColor" stroke-width="1.2" stroke-linecap="round" stroke-linejoin="round" />
  <line x1="93.94" y1="72.41" x2="95.37" y2="70.57" fill="currentColor" stroke="currentColor" stroke-width="1.2" stroke-linecap="round" stroke-linejoin="round" />
  <line x1="95.37" y1="70.57" x2="96.27" y2="72.41" fill="currentColor" stroke="currentColor" stroke-width="1.2" stroke-linecap="round" stroke-linejoin="round" />
  <line x1="92.79" y1="72.41" x2="93.94" y2="72.41" fill="currentColor" stroke="currentColor" stroke-width="1.2" stroke-linecap="round" stroke-linejoin="round" />
  <line x1="96.27" y1="72.41" x2="97.27" y2="72.41" fill="currentColor" stroke="currentColor" stroke-width="1.2" stroke-linecap="round" stroke-linejoin="round" />
</svg>